%TF.GenerationSoftware,KiCad,Pcbnew,7.0.7*%
%TF.CreationDate,2023-10-17T18:40:51-05:00*%
%TF.ProjectId,stm32f405rgt6,73746d33-3266-4343-9035-726774362e6b,rev?*%
%TF.SameCoordinates,Original*%
%TF.FileFunction,Soldermask,Bot*%
%TF.FilePolarity,Negative*%
%FSLAX46Y46*%
G04 Gerber Fmt 4.6, Leading zero omitted, Abs format (unit mm)*
G04 Created by KiCad (PCBNEW 7.0.7) date 2023-10-17 18:40:51*
%MOMM*%
%LPD*%
G01*
G04 APERTURE LIST*
%ADD10C,0.900000*%
%ADD11C,8.600000*%
%ADD12R,1.000000X1.000000*%
%ADD13O,1.000000X1.000000*%
%ADD14C,0.800000*%
%ADD15R,2.600000X2.600000*%
%ADD16C,2.600000*%
%ADD17C,1.000000*%
G04 APERTURE END LIST*
D10*
%TO.C,H4*%
X202007000Y-128524000D03*
X202951581Y-126243581D03*
X202951581Y-130804419D03*
X205232000Y-125299000D03*
D11*
X205232000Y-128524000D03*
D10*
X205232000Y-131749000D03*
X207512419Y-126243581D03*
X207512419Y-130804419D03*
X208457000Y-128524000D03*
%TD*%
D12*
%TO.C,J7*%
X209804000Y-81280000D03*
D13*
X209804000Y-80010000D03*
%TD*%
D10*
%TO.C,H3*%
X127077000Y-128524000D03*
X128021581Y-126243581D03*
X128021581Y-130804419D03*
X130302000Y-125299000D03*
D11*
X130302000Y-128524000D03*
D10*
X130302000Y-131749000D03*
X132582419Y-126243581D03*
X132582419Y-130804419D03*
X133527000Y-128524000D03*
%TD*%
D14*
%TO.C,SW1*%
X127000000Y-79502000D03*
%TD*%
D10*
%TO.C,SW2*%
X125621000Y-92734000D03*
X125621000Y-95734000D03*
%TD*%
D15*
%TO.C,I2C*%
X148830000Y-128270000D03*
D16*
X153830000Y-128270000D03*
X158830000Y-128270000D03*
X163830000Y-128270000D03*
%TD*%
D10*
%TO.C,H1*%
X202007000Y-67564000D03*
X202951581Y-65283581D03*
X202951581Y-69844419D03*
X205232000Y-64339000D03*
D11*
X205232000Y-67564000D03*
D10*
X205232000Y-70789000D03*
X207512419Y-65283581D03*
X207512419Y-69844419D03*
X208457000Y-67564000D03*
%TD*%
D15*
%TO.C,J8*%
X196770000Y-66548000D03*
D16*
X191770000Y-66548000D03*
X186770000Y-66548000D03*
X181770000Y-66548000D03*
%TD*%
D15*
%TO.C,Analog Inputs*%
X130251000Y-104514000D03*
D16*
X130251000Y-109514000D03*
X130251000Y-114514000D03*
X130251000Y-119514000D03*
%TD*%
D15*
%TO.C,SPI*%
X170434000Y-128270000D03*
D16*
X175514000Y-128270000D03*
X180594000Y-128270000D03*
X185674000Y-128270000D03*
X190754000Y-128270000D03*
X195834000Y-128270000D03*
%TD*%
D12*
%TO.C,J1*%
X139954000Y-132334000D03*
D13*
X139954000Y-131064000D03*
X139954000Y-129794000D03*
X139954000Y-128524000D03*
%TD*%
D10*
%TO.C,H2*%
X127077000Y-67564000D03*
X128021581Y-65283581D03*
X128021581Y-69844419D03*
X130302000Y-64339000D03*
D11*
X130302000Y-67564000D03*
D10*
X130302000Y-70789000D03*
X132582419Y-65283581D03*
X132582419Y-69844419D03*
X133527000Y-67564000D03*
%TD*%
D12*
%TO.C,J9*%
X209804000Y-74930000D03*
D13*
X209804000Y-73660000D03*
%TD*%
D17*
%TO.C,J4*%
X205427000Y-102276000D03*
X205427000Y-97876000D03*
%TD*%
M02*
