%TF.GenerationSoftware,KiCad,Pcbnew,7.0.7*%
%TF.CreationDate,2024-09-12T14:34:45-05:00*%
%TF.ProjectId,ESC,4553432e-6b69-4636-9164-5f7063625858,rev?*%
%TF.SameCoordinates,Original*%
%TF.FileFunction,Paste,Top*%
%TF.FilePolarity,Positive*%
%FSLAX46Y46*%
G04 Gerber Fmt 4.6, Leading zero omitted, Abs format (unit mm)*
G04 Created by KiCad (PCBNEW 7.0.7) date 2024-09-12 14:34:45*
%MOMM*%
%LPD*%
G01*
G04 APERTURE LIST*
G04 Aperture macros list*
%AMRoundRect*
0 Rectangle with rounded corners*
0 $1 Rounding radius*
0 $2 $3 $4 $5 $6 $7 $8 $9 X,Y pos of 4 corners*
0 Add a 4 corners polygon primitive as box body*
4,1,4,$2,$3,$4,$5,$6,$7,$8,$9,$2,$3,0*
0 Add four circle primitives for the rounded corners*
1,1,$1+$1,$2,$3*
1,1,$1+$1,$4,$5*
1,1,$1+$1,$6,$7*
1,1,$1+$1,$8,$9*
0 Add four rect primitives between the rounded corners*
20,1,$1+$1,$2,$3,$4,$5,0*
20,1,$1+$1,$4,$5,$6,$7,0*
20,1,$1+$1,$6,$7,$8,$9,0*
20,1,$1+$1,$8,$9,$2,$3,0*%
G04 Aperture macros list end*
%ADD10RoundRect,0.237500X0.300000X0.237500X-0.300000X0.237500X-0.300000X-0.237500X0.300000X-0.237500X0*%
%ADD11RoundRect,0.237500X-0.237500X0.300000X-0.237500X-0.300000X0.237500X-0.300000X0.237500X0.300000X0*%
%ADD12RoundRect,0.237500X-0.300000X-0.237500X0.300000X-0.237500X0.300000X0.237500X-0.300000X0.237500X0*%
%ADD13R,1.200000X1.400000*%
%ADD14R,1.500000X1.500000*%
%ADD15R,0.750000X0.500000*%
%ADD16R,0.750000X0.400000*%
%ADD17RoundRect,0.242500X0.527500X-0.242500X0.527500X0.242500X-0.527500X0.242500X-0.527500X-0.242500X0*%
%ADD18RoundRect,0.150000X0.150000X-0.825000X0.150000X0.825000X-0.150000X0.825000X-0.150000X-0.825000X0*%
%ADD19RoundRect,0.249999X-1.425001X0.450001X-1.425001X-0.450001X1.425001X-0.450001X1.425001X0.450001X0*%
%ADD20RoundRect,0.237500X-0.237500X0.287500X-0.237500X-0.287500X0.237500X-0.287500X0.237500X0.287500X0*%
%ADD21RoundRect,0.075000X-0.700000X-0.075000X0.700000X-0.075000X0.700000X0.075000X-0.700000X0.075000X0*%
%ADD22RoundRect,0.075000X-0.075000X-0.700000X0.075000X-0.700000X0.075000X0.700000X-0.075000X0.700000X0*%
%ADD23RoundRect,0.237500X0.237500X-0.250000X0.237500X0.250000X-0.237500X0.250000X-0.237500X-0.250000X0*%
%ADD24RoundRect,0.237500X0.237500X-0.300000X0.237500X0.300000X-0.237500X0.300000X-0.237500X-0.300000X0*%
%ADD25RoundRect,0.237500X-0.237500X0.250000X-0.237500X-0.250000X0.237500X-0.250000X0.237500X0.250000X0*%
%ADD26RoundRect,0.249999X1.425001X-0.450001X1.425001X0.450001X-1.425001X0.450001X-1.425001X-0.450001X0*%
%ADD27R,1.500000X2.000000*%
%ADD28R,3.800000X2.000000*%
G04 APERTURE END LIST*
D10*
%TO.C,C16*%
X204672100Y-89204800D03*
X202947100Y-89204800D03*
%TD*%
D11*
%TO.C,C13*%
X210822800Y-99518300D03*
X210822800Y-101243300D03*
%TD*%
D12*
%TO.C,C14*%
X213008300Y-93675200D03*
X214733300Y-93675200D03*
%TD*%
D13*
%TO.C,Y1*%
X181014000Y-100677800D03*
X181014000Y-102877800D03*
X182714000Y-102877800D03*
X182714000Y-100677800D03*
%TD*%
D14*
%TO.C,Q2*%
X225500000Y-90300000D03*
X225500000Y-92000000D03*
X227200000Y-90300000D03*
X227200000Y-92000000D03*
D15*
X228605000Y-89245000D03*
X228605000Y-90515000D03*
X228605000Y-91785000D03*
X228605000Y-93055000D03*
D16*
X222800000Y-89245000D03*
X222800000Y-90515000D03*
X222800000Y-91785000D03*
X222800000Y-93055000D03*
%TD*%
D10*
%TO.C,C10*%
X191362500Y-111607600D03*
X189637500Y-111607600D03*
%TD*%
D12*
%TO.C,C33*%
X196597100Y-112293400D03*
X198322100Y-112293400D03*
%TD*%
D14*
%TO.C,Q1*%
X225700000Y-80785000D03*
X225700000Y-82485000D03*
X227400000Y-80785000D03*
X227400000Y-82485000D03*
D15*
X228805000Y-79730000D03*
X228805000Y-81000000D03*
X228805000Y-82270000D03*
X228805000Y-83540000D03*
D16*
X223000000Y-79730000D03*
X223000000Y-81000000D03*
X223000000Y-82270000D03*
X223000000Y-83540000D03*
%TD*%
D10*
%TO.C,C9*%
X182726500Y-104673400D03*
X181001500Y-104673400D03*
%TD*%
D17*
%TO.C,U7*%
X213502200Y-116257400D03*
X215402200Y-116257400D03*
X213502200Y-115057400D03*
X215402200Y-115057400D03*
D18*
X212547200Y-118132400D03*
X213817200Y-118132400D03*
X215087200Y-118132400D03*
X216357200Y-118132400D03*
X216357200Y-113182400D03*
X215087200Y-113182400D03*
X213817200Y-113182400D03*
X212547200Y-113182400D03*
%TD*%
D10*
%TO.C,C19*%
X227262500Y-77500000D03*
X225537500Y-77500000D03*
%TD*%
D12*
%TO.C,C15*%
X211137500Y-108000000D03*
X212862500Y-108000000D03*
%TD*%
D17*
%TO.C,U5*%
X213464400Y-98939200D03*
X215364400Y-98939200D03*
X213464400Y-97739200D03*
X215364400Y-97739200D03*
D18*
X212509400Y-100814200D03*
X213779400Y-100814200D03*
X215049400Y-100814200D03*
X216319400Y-100814200D03*
X216319400Y-95864200D03*
X215049400Y-95864200D03*
X213779400Y-95864200D03*
X212509400Y-95864200D03*
%TD*%
D19*
%TO.C,R1*%
X219357200Y-102614000D03*
X219357200Y-108714000D03*
%TD*%
D20*
%TO.C,D3*%
X210921600Y-111697800D03*
X210921600Y-113447800D03*
%TD*%
%TO.C,D1*%
X210921600Y-95645000D03*
X210921600Y-97395000D03*
%TD*%
D21*
%TO.C,U1*%
X187796800Y-99196200D03*
X187796800Y-99696200D03*
X187796800Y-100196200D03*
X187796800Y-100696200D03*
X187796800Y-101196200D03*
X187796800Y-101696200D03*
X187796800Y-102196200D03*
X187796800Y-102696200D03*
X187796800Y-103196200D03*
X187796800Y-103696200D03*
X187796800Y-104196200D03*
X187796800Y-104696200D03*
X187796800Y-105196200D03*
X187796800Y-105696200D03*
X187796800Y-106196200D03*
X187796800Y-106696200D03*
D22*
X189721800Y-108621200D03*
X190221800Y-108621200D03*
X190721800Y-108621200D03*
X191221800Y-108621200D03*
X191721800Y-108621200D03*
X192221800Y-108621200D03*
X192721800Y-108621200D03*
X193221800Y-108621200D03*
X193721800Y-108621200D03*
X194221800Y-108621200D03*
X194721800Y-108621200D03*
X195221800Y-108621200D03*
X195721800Y-108621200D03*
X196221800Y-108621200D03*
X196721800Y-108621200D03*
X197221800Y-108621200D03*
D21*
X199146800Y-106696200D03*
X199146800Y-106196200D03*
X199146800Y-105696200D03*
X199146800Y-105196200D03*
X199146800Y-104696200D03*
X199146800Y-104196200D03*
X199146800Y-103696200D03*
X199146800Y-103196200D03*
X199146800Y-102696200D03*
X199146800Y-102196200D03*
X199146800Y-101696200D03*
X199146800Y-101196200D03*
X199146800Y-100696200D03*
X199146800Y-100196200D03*
X199146800Y-99696200D03*
X199146800Y-99196200D03*
D22*
X197221800Y-97271200D03*
X196721800Y-97271200D03*
X196221800Y-97271200D03*
X195721800Y-97271200D03*
X195221800Y-97271200D03*
X194721800Y-97271200D03*
X194221800Y-97271200D03*
X193721800Y-97271200D03*
X193221800Y-97271200D03*
X192721800Y-97271200D03*
X192221800Y-97271200D03*
X191721800Y-97271200D03*
X191221800Y-97271200D03*
X190721800Y-97271200D03*
X190221800Y-97271200D03*
X189721800Y-97271200D03*
%TD*%
D10*
%TO.C,C8*%
X182675700Y-98907600D03*
X180950700Y-98907600D03*
%TD*%
D12*
%TO.C,C2*%
X189535900Y-95300800D03*
X191260900Y-95300800D03*
%TD*%
D11*
%TO.C,C5*%
X183210200Y-107392300D03*
X183210200Y-109117300D03*
%TD*%
D12*
%TO.C,C23*%
X212700700Y-110947200D03*
X214425700Y-110947200D03*
%TD*%
D11*
%TO.C,C3*%
X202133200Y-98502300D03*
X202133200Y-100227300D03*
%TD*%
D23*
%TO.C,R4*%
X200152000Y-85646900D03*
X200152000Y-83821900D03*
%TD*%
D24*
%TO.C,JP6*%
X215090000Y-104697700D03*
X215090000Y-102972700D03*
%TD*%
D25*
%TO.C,R9*%
X201777600Y-119686700D03*
X201777600Y-121511700D03*
%TD*%
D11*
%TO.C,C6*%
X184708800Y-107392300D03*
X184708800Y-109117300D03*
%TD*%
D12*
%TO.C,JP4*%
X213513500Y-92049600D03*
X215238500Y-92049600D03*
%TD*%
D10*
%TO.C,C22*%
X219725000Y-128000000D03*
X218000000Y-128000000D03*
%TD*%
%TO.C,C1*%
X187374700Y-97967800D03*
X185649700Y-97967800D03*
%TD*%
D14*
%TO.C,Q5*%
X225700000Y-126515000D03*
X225700000Y-128215000D03*
X227400000Y-126515000D03*
X227400000Y-128215000D03*
D15*
X228805000Y-125460000D03*
X228805000Y-126730000D03*
X228805000Y-128000000D03*
X228805000Y-129270000D03*
D16*
X223000000Y-125460000D03*
X223000000Y-126730000D03*
X223000000Y-128000000D03*
X223000000Y-129270000D03*
%TD*%
D11*
%TO.C,C17*%
X209092800Y-86919900D03*
X209092800Y-88644900D03*
%TD*%
D14*
%TO.C,Q6*%
X225500000Y-117515000D03*
X225500000Y-119215000D03*
X227200000Y-117515000D03*
X227200000Y-119215000D03*
D15*
X228605000Y-116460000D03*
X228605000Y-117730000D03*
X228605000Y-119000000D03*
X228605000Y-120270000D03*
D16*
X222800000Y-116460000D03*
X222800000Y-117730000D03*
X222800000Y-119000000D03*
X222800000Y-120270000D03*
%TD*%
D24*
%TO.C,JP1*%
X213464400Y-104697700D03*
X213464400Y-102972700D03*
%TD*%
D12*
%TO.C,C20*%
X213008300Y-80873600D03*
X214733300Y-80873600D03*
%TD*%
D19*
%TO.C,R6*%
X219357200Y-86154800D03*
X219357200Y-92254800D03*
%TD*%
%TO.C,R2*%
X219357200Y-94282800D03*
X219357200Y-100382800D03*
%TD*%
D10*
%TO.C,JP2*%
X215238500Y-90424000D03*
X213513500Y-90424000D03*
%TD*%
D19*
%TO.C,R8*%
X219659200Y-119682800D03*
X219659200Y-125782800D03*
%TD*%
D11*
%TO.C,C21*%
X210921600Y-115164700D03*
X210921600Y-116889700D03*
%TD*%
D19*
%TO.C,R7*%
X219659200Y-111351600D03*
X219659200Y-117451600D03*
%TD*%
D24*
%TO.C,JP3*%
X213646000Y-122052500D03*
X213646000Y-120327500D03*
%TD*%
D17*
%TO.C,U6*%
X213530400Y-86350400D03*
X215430400Y-86350400D03*
X213530400Y-85150400D03*
X215430400Y-85150400D03*
D18*
X212575400Y-88225400D03*
X213845400Y-88225400D03*
X215115400Y-88225400D03*
X216385400Y-88225400D03*
X216385400Y-83275400D03*
X215115400Y-83275400D03*
X213845400Y-83275400D03*
X212575400Y-83275400D03*
%TD*%
D20*
%TO.C,D2*%
X210822800Y-82843400D03*
X210822800Y-84593400D03*
%TD*%
D23*
%TO.C,R3*%
X200152000Y-89050500D03*
X200152000Y-87225500D03*
%TD*%
D26*
%TO.C,R5*%
X219357200Y-83923600D03*
X219357200Y-77823600D03*
%TD*%
D11*
%TO.C,C18*%
X210822800Y-86919900D03*
X210822800Y-88644900D03*
%TD*%
D24*
%TO.C,JP5*%
X215271600Y-122052500D03*
X215271600Y-120327500D03*
%TD*%
D11*
%TO.C,C7*%
X203606400Y-98502300D03*
X203606400Y-100227300D03*
%TD*%
D27*
%TO.C,U2*%
X202322400Y-87071600D03*
X204622400Y-87071600D03*
D28*
X204622400Y-80771600D03*
D27*
X206922400Y-87071600D03*
%TD*%
D14*
%TO.C,Q4*%
X225200000Y-99055000D03*
X225200000Y-100755000D03*
X226900000Y-99055000D03*
X226900000Y-100755000D03*
D15*
X228305000Y-98000000D03*
X228305000Y-99270000D03*
X228305000Y-100540000D03*
X228305000Y-101810000D03*
D16*
X222500000Y-98000000D03*
X222500000Y-99270000D03*
X222500000Y-100540000D03*
X222500000Y-101810000D03*
%TD*%
D14*
%TO.C,Q3*%
X225700000Y-108785000D03*
X225700000Y-110485000D03*
X227400000Y-108785000D03*
X227400000Y-110485000D03*
D15*
X228805000Y-107730000D03*
X228805000Y-109000000D03*
X228805000Y-110270000D03*
X228805000Y-111540000D03*
D16*
X223000000Y-107730000D03*
X223000000Y-109000000D03*
X223000000Y-110270000D03*
X223000000Y-111540000D03*
%TD*%
D11*
%TO.C,C4*%
X198374000Y-109017900D03*
X198374000Y-110742900D03*
%TD*%
M02*
