%TF.GenerationSoftware,KiCad,Pcbnew,7.0.7*%
%TF.CreationDate,2024-09-12T14:34:45-05:00*%
%TF.ProjectId,ESC,4553432e-6b69-4636-9164-5f7063625858,rev?*%
%TF.SameCoordinates,Original*%
%TF.FileFunction,Legend,Top*%
%TF.FilePolarity,Positive*%
%FSLAX46Y46*%
G04 Gerber Fmt 4.6, Leading zero omitted, Abs format (unit mm)*
G04 Created by KiCad (PCBNEW 7.0.7) date 2024-09-12 14:34:45*
%MOMM*%
%LPD*%
G01*
G04 APERTURE LIST*
%ADD10C,0.150000*%
%ADD11C,0.120000*%
G04 APERTURE END LIST*
D10*
X210844648Y-79124666D02*
X211606553Y-79124666D01*
X198354171Y-79165500D02*
X199497029Y-79165500D01*
X198925600Y-79736928D02*
X198925600Y-78594071D01*
X247189819Y-104574933D02*
X247904104Y-104574933D01*
X247904104Y-104574933D02*
X248046961Y-104622552D01*
X248046961Y-104622552D02*
X248142200Y-104717790D01*
X248142200Y-104717790D02*
X248189819Y-104860647D01*
X248189819Y-104860647D02*
X248189819Y-104955885D01*
X247285057Y-104146361D02*
X247237438Y-104098742D01*
X247237438Y-104098742D02*
X247189819Y-104003504D01*
X247189819Y-104003504D02*
X247189819Y-103765409D01*
X247189819Y-103765409D02*
X247237438Y-103670171D01*
X247237438Y-103670171D02*
X247285057Y-103622552D01*
X247285057Y-103622552D02*
X247380295Y-103574933D01*
X247380295Y-103574933D02*
X247475533Y-103574933D01*
X247475533Y-103574933D02*
X247618390Y-103622552D01*
X247618390Y-103622552D02*
X248189819Y-104193980D01*
X248189819Y-104193980D02*
X248189819Y-103574933D01*
D11*
%TO.C,C16*%
X203955867Y-89714800D02*
X203663333Y-89714800D01*
X203955867Y-88694800D02*
X203663333Y-88694800D01*
%TO.C,C13*%
X211332800Y-100234533D02*
X211332800Y-100527067D01*
X210312800Y-100234533D02*
X210312800Y-100527067D01*
%TO.C,C14*%
X213724533Y-93165200D02*
X214017067Y-93165200D01*
X213724533Y-94185200D02*
X214017067Y-94185200D01*
%TO.C,Y1*%
X183514000Y-99777800D02*
X180214000Y-99777800D01*
X180214000Y-99777800D02*
X180214000Y-103777800D01*
%TO.C,Q2*%
X222640000Y-93485000D02*
X222640000Y-93835000D01*
X228760000Y-88465000D02*
X222640000Y-88465000D01*
X228760000Y-88765000D02*
X228760000Y-88465000D01*
X228760000Y-93535000D02*
X228760000Y-93835000D01*
X228760000Y-93835000D02*
X222640000Y-93835000D01*
%TO.C,C10*%
X190646267Y-112117600D02*
X190353733Y-112117600D01*
X190646267Y-111097600D02*
X190353733Y-111097600D01*
%TO.C,C33*%
X197313333Y-111783400D02*
X197605867Y-111783400D01*
X197313333Y-112803400D02*
X197605867Y-112803400D01*
%TO.C,J1*%
X196965600Y-68790800D02*
X196965600Y-74400800D01*
X196965600Y-68790800D02*
X197815600Y-68790800D01*
X202375600Y-78510800D02*
X206115600Y-78510800D01*
X211835600Y-68790800D02*
X212685600Y-68790800D01*
X212685600Y-68790800D02*
X212685600Y-74400800D01*
X196965601Y-74400800D02*
G75*
G03*
X199835700Y-78359518I4109997J-40002D01*
G01*
X210692406Y-77923758D02*
G75*
G03*
X212685600Y-74400800I-2116806J3522958D01*
G01*
%TO.C,J4*%
X195977200Y-79645200D02*
X197307200Y-79645200D01*
X195977200Y-80975200D02*
X195977200Y-79645200D01*
X195977200Y-82245200D02*
X195977200Y-89925200D01*
X195977200Y-82245200D02*
X198637200Y-82245200D01*
X195977200Y-89925200D02*
X198637200Y-89925200D01*
X198637200Y-82245200D02*
X198637200Y-89925200D01*
%TO.C,Q1*%
X222840000Y-83970000D02*
X222840000Y-84320000D01*
X228960000Y-78950000D02*
X222840000Y-78950000D01*
X228960000Y-79250000D02*
X228960000Y-78950000D01*
X228960000Y-84020000D02*
X228960000Y-84320000D01*
X228960000Y-84320000D02*
X222840000Y-84320000D01*
%TO.C,C9*%
X182010267Y-105183400D02*
X181717733Y-105183400D01*
X182010267Y-104163400D02*
X181717733Y-104163400D01*
%TO.C,U7*%
X211892200Y-115657400D02*
X211892200Y-119107400D01*
X211892200Y-115657400D02*
X211892200Y-113707400D01*
X217012200Y-115657400D02*
X217012200Y-117607400D01*
X217012200Y-115657400D02*
X217012200Y-113707400D01*
%TO.C,C19*%
X226546267Y-78010000D02*
X226253733Y-78010000D01*
X226546267Y-76990000D02*
X226253733Y-76990000D01*
%TO.C,C15*%
X211853733Y-107490000D02*
X212146267Y-107490000D01*
X211853733Y-108510000D02*
X212146267Y-108510000D01*
%TO.C,U5*%
X211854400Y-98339200D02*
X211854400Y-101789200D01*
X211854400Y-98339200D02*
X211854400Y-96389200D01*
X216974400Y-98339200D02*
X216974400Y-100289200D01*
X216974400Y-98339200D02*
X216974400Y-96389200D01*
%TO.C,R1*%
X221067200Y-103486936D02*
X221067200Y-107841064D01*
X217647200Y-103486936D02*
X217647200Y-107841064D01*
%TO.C,D3*%
X211656600Y-110912800D02*
X210186600Y-110912800D01*
X210186600Y-110912800D02*
X210186600Y-113372800D01*
X211656600Y-113372800D02*
X211656600Y-110912800D01*
%TO.C,D1*%
X211656600Y-94860000D02*
X210186600Y-94860000D01*
X210186600Y-94860000D02*
X210186600Y-97320000D01*
X211656600Y-97320000D02*
X211656600Y-94860000D01*
%TO.C,U1*%
X188361800Y-97836200D02*
X188361800Y-98786200D01*
X188361800Y-98786200D02*
X187021800Y-98786200D01*
X188361800Y-108056200D02*
X188361800Y-107106200D01*
X189311800Y-97836200D02*
X188361800Y-97836200D01*
X189311800Y-108056200D02*
X188361800Y-108056200D01*
X197631800Y-97836200D02*
X198581800Y-97836200D01*
X197631800Y-108056200D02*
X198581800Y-108056200D01*
X198581800Y-97836200D02*
X198581800Y-98786200D01*
X198581800Y-108056200D02*
X198581800Y-107106200D01*
%TO.C,C8*%
X181959467Y-99417600D02*
X181666933Y-99417600D01*
X181959467Y-98397600D02*
X181666933Y-98397600D01*
%TO.C,C2*%
X190252133Y-94790800D02*
X190544667Y-94790800D01*
X190252133Y-95810800D02*
X190544667Y-95810800D01*
%TO.C,C5*%
X183720200Y-108108533D02*
X183720200Y-108401067D01*
X182700200Y-108108533D02*
X182700200Y-108401067D01*
%TO.C,C23*%
X213416933Y-110437200D02*
X213709467Y-110437200D01*
X213416933Y-111457200D02*
X213709467Y-111457200D01*
%TO.C,C3*%
X202643200Y-99218533D02*
X202643200Y-99511067D01*
X201623200Y-99218533D02*
X201623200Y-99511067D01*
%TO.C,R4*%
X199629500Y-84989124D02*
X199629500Y-84479676D01*
X200674500Y-84989124D02*
X200674500Y-84479676D01*
%TO.C,JP6*%
X214580000Y-103981467D02*
X214580000Y-103688933D01*
X215600000Y-103981467D02*
X215600000Y-103688933D01*
%TO.C,J2*%
X238545000Y-97541600D02*
X238545000Y-98381600D01*
X236325000Y-97541600D02*
X236325000Y-110941600D01*
X240595000Y-98381600D02*
X238545000Y-98381600D01*
X240595000Y-98381600D02*
X240595000Y-98981600D01*
X240595000Y-109501600D02*
X240595000Y-110101600D01*
X240595000Y-110101600D02*
X238545000Y-110101600D01*
X238545000Y-110101600D02*
X238545000Y-110941600D01*
X238545000Y-97541600D02*
G75*
G03*
X236325000Y-97541600I-1110000J0D01*
G01*
X236325000Y-110941600D02*
G75*
G03*
X238545000Y-110941600I1110000J0D01*
G01*
%TO.C,R9*%
X202300100Y-120344476D02*
X202300100Y-120853924D01*
X201255100Y-120344476D02*
X201255100Y-120853924D01*
%TO.C,C6*%
X185218800Y-108108533D02*
X185218800Y-108401067D01*
X184198800Y-108108533D02*
X184198800Y-108401067D01*
%TO.C,JP4*%
X214229733Y-91539600D02*
X214522267Y-91539600D01*
X214229733Y-92559600D02*
X214522267Y-92559600D01*
%TO.C,C22*%
X219008767Y-128510000D02*
X218716233Y-128510000D01*
X219008767Y-127490000D02*
X218716233Y-127490000D01*
%TO.C,C1*%
X186658467Y-98477800D02*
X186365933Y-98477800D01*
X186658467Y-97457800D02*
X186365933Y-97457800D01*
%TO.C,Q5*%
X222840000Y-129700000D02*
X222840000Y-130050000D01*
X228960000Y-124680000D02*
X222840000Y-124680000D01*
X228960000Y-124980000D02*
X228960000Y-124680000D01*
X228960000Y-129750000D02*
X228960000Y-130050000D01*
X228960000Y-130050000D02*
X222840000Y-130050000D01*
%TO.C,C17*%
X209602800Y-87636133D02*
X209602800Y-87928667D01*
X208582800Y-87636133D02*
X208582800Y-87928667D01*
%TO.C,RV1*%
X204385200Y-131685600D02*
X194344200Y-131685600D01*
X194344200Y-130915600D02*
X194344200Y-131685600D01*
X204385200Y-130915600D02*
X204385200Y-131685600D01*
X194344200Y-129415600D02*
X194344200Y-127165600D01*
X204385200Y-127165600D02*
X204385200Y-129415600D01*
X201808200Y-124645600D02*
X196919200Y-124645600D01*
X194344200Y-130915600D02*
X195014200Y-130915600D01*
X195014200Y-130915600D02*
X195014200Y-129415600D01*
X195014200Y-129415600D02*
X194344200Y-129415600D01*
X194344200Y-129415600D02*
X194344200Y-130915600D01*
X203714200Y-130915600D02*
X204385200Y-130915600D01*
X204385200Y-130915600D02*
X204385200Y-129415600D01*
X204385200Y-129415600D02*
X203714200Y-129415600D01*
X203714200Y-129415600D02*
X203714200Y-130915600D01*
%TO.C,Q6*%
X222640000Y-120700000D02*
X222640000Y-121050000D01*
X228760000Y-115680000D02*
X222640000Y-115680000D01*
X228760000Y-115980000D02*
X228760000Y-115680000D01*
X228760000Y-120750000D02*
X228760000Y-121050000D01*
X228760000Y-121050000D02*
X222640000Y-121050000D01*
%TO.C,JP1*%
X212954400Y-103981467D02*
X212954400Y-103688933D01*
X213974400Y-103981467D02*
X213974400Y-103688933D01*
%TO.C,C20*%
X213724533Y-80363600D02*
X214017067Y-80363600D01*
X213724533Y-81383600D02*
X214017067Y-81383600D01*
%TO.C,R6*%
X221067200Y-87027736D02*
X221067200Y-91381864D01*
X217647200Y-87027736D02*
X217647200Y-91381864D01*
%TO.C,R2*%
X221067200Y-95155736D02*
X221067200Y-99509864D01*
X217647200Y-95155736D02*
X217647200Y-99509864D01*
%TO.C,JP2*%
X214522267Y-90934000D02*
X214229733Y-90934000D01*
X214522267Y-89914000D02*
X214229733Y-89914000D01*
%TO.C,R8*%
X221369200Y-120555736D02*
X221369200Y-124909864D01*
X217949200Y-120555736D02*
X217949200Y-124909864D01*
%TO.C,C21*%
X211431600Y-115880933D02*
X211431600Y-116173467D01*
X210411600Y-115880933D02*
X210411600Y-116173467D01*
%TO.C,R7*%
X221369200Y-112224536D02*
X221369200Y-116578664D01*
X217949200Y-112224536D02*
X217949200Y-116578664D01*
%TO.C,J5*%
X175149200Y-98456200D02*
X176479200Y-98456200D01*
X175149200Y-99786200D02*
X175149200Y-98456200D01*
X175149200Y-101056200D02*
X175149200Y-106196200D01*
X175149200Y-101056200D02*
X177809200Y-101056200D01*
X175149200Y-106196200D02*
X177809200Y-106196200D01*
X177809200Y-101056200D02*
X177809200Y-106196200D01*
%TO.C,JP3*%
X213136000Y-121336267D02*
X213136000Y-121043733D01*
X214156000Y-121336267D02*
X214156000Y-121043733D01*
%TO.C,U6*%
X211920400Y-85750400D02*
X211920400Y-89200400D01*
X211920400Y-85750400D02*
X211920400Y-83800400D01*
X217040400Y-85750400D02*
X217040400Y-87700400D01*
X217040400Y-85750400D02*
X217040400Y-83800400D01*
%TO.C,D2*%
X211557800Y-82058400D02*
X210087800Y-82058400D01*
X210087800Y-82058400D02*
X210087800Y-84518400D01*
X211557800Y-84518400D02*
X211557800Y-82058400D01*
%TO.C,R3*%
X199629500Y-88392724D02*
X199629500Y-87883276D01*
X200674500Y-88392724D02*
X200674500Y-87883276D01*
%TO.C,R5*%
X217647200Y-83050664D02*
X217647200Y-78696536D01*
X221067200Y-83050664D02*
X221067200Y-78696536D01*
%TO.C,C18*%
X211332800Y-87636133D02*
X211332800Y-87928667D01*
X210312800Y-87636133D02*
X210312800Y-87928667D01*
%TO.C,JP5*%
X214761600Y-121336267D02*
X214761600Y-121043733D01*
X215781600Y-121336267D02*
X215781600Y-121043733D01*
%TO.C,C7*%
X204116400Y-99218533D02*
X204116400Y-99511067D01*
X203096400Y-99218533D02*
X203096400Y-99511067D01*
%TO.C,U2*%
X201212400Y-88021600D02*
X201212400Y-82011600D01*
X208032400Y-85771600D02*
X208032400Y-82011600D01*
X201212400Y-82011600D02*
X202472400Y-82011600D01*
X208032400Y-82011600D02*
X206772400Y-82011600D01*
%TO.C,Q4*%
X222340000Y-102240000D02*
X222340000Y-102590000D01*
X228460000Y-97220000D02*
X222340000Y-97220000D01*
X228460000Y-97520000D02*
X228460000Y-97220000D01*
X228460000Y-102290000D02*
X228460000Y-102590000D01*
X228460000Y-102590000D02*
X222340000Y-102590000D01*
%TO.C,Q3*%
X222840000Y-111970000D02*
X222840000Y-112320000D01*
X228960000Y-106950000D02*
X222840000Y-106950000D01*
X228960000Y-107250000D02*
X228960000Y-106950000D01*
X228960000Y-112020000D02*
X228960000Y-112320000D01*
X228960000Y-112320000D02*
X222840000Y-112320000D01*
%TO.C,C4*%
X198884000Y-109734133D02*
X198884000Y-110026667D01*
X197864000Y-109734133D02*
X197864000Y-110026667D01*
%TO.C,G\u002A\u002A\u002A*%
G36*
X184192737Y-75612061D02*
G01*
X184197782Y-75621661D01*
X184197531Y-75622500D01*
X184186060Y-75635909D01*
X184169198Y-75646536D01*
X184150175Y-75655595D01*
X184118143Y-75670838D01*
X184078155Y-75689863D01*
X184048771Y-75703840D01*
X183949112Y-75760018D01*
X183846306Y-75834976D01*
X183741201Y-75927896D01*
X183634647Y-76037961D01*
X183527493Y-76164355D01*
X183420589Y-76306259D01*
X183416211Y-76312414D01*
X183388846Y-76350264D01*
X183370254Y-76373632D01*
X183358144Y-76384698D01*
X183350220Y-76385639D01*
X183345026Y-76380042D01*
X183346216Y-76364148D01*
X183359890Y-76334146D01*
X183385440Y-76291046D01*
X183422256Y-76235859D01*
X183469729Y-76169594D01*
X183481837Y-76153235D01*
X183565068Y-76048193D01*
X183652486Y-75950493D01*
X183742009Y-75861935D01*
X183831556Y-75784321D01*
X183919046Y-75719453D01*
X184002399Y-75669132D01*
X184079532Y-75635161D01*
X184080752Y-75634743D01*
X184133160Y-75618713D01*
X184170842Y-75611115D01*
X184192737Y-75612061D01*
G37*
G36*
X184140967Y-75805597D02*
G01*
X184148271Y-75814429D01*
X184147861Y-75829569D01*
X184138820Y-75854111D01*
X184120229Y-75891149D01*
X184110033Y-75909938D01*
X184084895Y-75958227D01*
X184054830Y-76019987D01*
X184022180Y-76090058D01*
X183989285Y-76163278D01*
X183958486Y-76234485D01*
X183932123Y-76298518D01*
X183921804Y-76325000D01*
X183894029Y-76396000D01*
X183871784Y-76448280D01*
X183854862Y-76482277D01*
X183843058Y-76498430D01*
X183839532Y-76500000D01*
X183830749Y-76492105D01*
X183830118Y-76487500D01*
X183833166Y-76467501D01*
X183840866Y-76435199D01*
X183851382Y-76397211D01*
X183862881Y-76360153D01*
X183873528Y-76330640D01*
X183873791Y-76330000D01*
X183883516Y-76306324D01*
X183898552Y-76269641D01*
X183916642Y-76225458D01*
X183931148Y-76190000D01*
X183962704Y-76115616D01*
X183995017Y-76044474D01*
X184026923Y-75978704D01*
X184057259Y-75920439D01*
X184084860Y-75871811D01*
X184108564Y-75834952D01*
X184127206Y-75811994D01*
X184139624Y-75805068D01*
X184140967Y-75805597D01*
G37*
G36*
X184867488Y-73778801D02*
G01*
X184892465Y-73805798D01*
X184899350Y-73815589D01*
X184940613Y-73883767D01*
X184973398Y-73955101D01*
X185000459Y-74036139D01*
X185014271Y-74088743D01*
X185028287Y-74151922D01*
X185035246Y-74201390D01*
X185034794Y-74242280D01*
X185026574Y-74279725D01*
X185010231Y-74318858D01*
X184996535Y-74345000D01*
X184956346Y-74399943D01*
X184902784Y-74446808D01*
X184841109Y-74482050D01*
X184776581Y-74502128D01*
X184759824Y-74504443D01*
X184738442Y-74510330D01*
X184733202Y-74513020D01*
X184720429Y-74510057D01*
X184701072Y-74493039D01*
X184690717Y-74480906D01*
X184668936Y-74449392D01*
X184645821Y-74409880D01*
X184632339Y-74383358D01*
X184618063Y-74349618D01*
X184612662Y-74329584D01*
X184692095Y-74329584D01*
X184693786Y-74356072D01*
X184700351Y-74370657D01*
X184718000Y-74385216D01*
X184744204Y-74389987D01*
X184769607Y-74384083D01*
X184778000Y-74378000D01*
X184789122Y-74354219D01*
X184784791Y-74325972D01*
X184773450Y-74308287D01*
X184749313Y-74291884D01*
X184723988Y-74295346D01*
X184708287Y-74306549D01*
X184692095Y-74329584D01*
X184612662Y-74329584D01*
X184609832Y-74319084D01*
X184606173Y-74283860D01*
X184605580Y-74240000D01*
X184608343Y-74185329D01*
X184617304Y-74139624D01*
X184634719Y-74097481D01*
X184658309Y-74060598D01*
X184730000Y-74060598D01*
X184738730Y-74064294D01*
X184760409Y-74064130D01*
X184767500Y-74063372D01*
X184803267Y-74062729D01*
X184841005Y-74067416D01*
X184845000Y-74068319D01*
X184881107Y-74076309D01*
X184900811Y-74078461D01*
X184906812Y-74074845D01*
X184904911Y-74069857D01*
X184888986Y-74055979D01*
X184861288Y-74040851D01*
X184829488Y-74027910D01*
X184801254Y-74020595D01*
X184793685Y-74020000D01*
X184769250Y-74025432D01*
X184746018Y-74038496D01*
X184731599Y-74054343D01*
X184730000Y-74060598D01*
X184658309Y-74060598D01*
X184662848Y-74053501D01*
X184703948Y-74002280D01*
X184705897Y-74000000D01*
X184753733Y-73939234D01*
X184787758Y-73883652D01*
X184811149Y-73827877D01*
X184815197Y-73815000D01*
X184829122Y-73783404D01*
X184846463Y-73771337D01*
X184867488Y-73778801D01*
G37*
G36*
X184503520Y-76875978D02*
G01*
X184517656Y-76893525D01*
X184516512Y-76922061D01*
X184500393Y-76961005D01*
X184469602Y-77009774D01*
X184424443Y-77067789D01*
X184365219Y-77134469D01*
X184301168Y-77200390D01*
X184155186Y-77334763D01*
X183994036Y-77463491D01*
X183822451Y-77582921D01*
X183735000Y-77637540D01*
X183645725Y-77688477D01*
X183546293Y-77740517D01*
X183441800Y-77791293D01*
X183337339Y-77838439D01*
X183238004Y-77879587D01*
X183148891Y-77912371D01*
X183130000Y-77918601D01*
X183026767Y-77950564D01*
X182936770Y-77975419D01*
X182854917Y-77994067D01*
X182776117Y-78007408D01*
X182695279Y-78016344D01*
X182607313Y-78021776D01*
X182534056Y-78024082D01*
X182464107Y-78025080D01*
X182392767Y-78025140D01*
X182325558Y-78024324D01*
X182268000Y-78022695D01*
X182230000Y-78020659D01*
X182162282Y-78013782D01*
X182084598Y-78002805D01*
X181999899Y-77988418D01*
X181911138Y-77971309D01*
X181821266Y-77952167D01*
X181733235Y-77931683D01*
X181649997Y-77910545D01*
X181574504Y-77889443D01*
X181509707Y-77869066D01*
X181458558Y-77850103D01*
X181424009Y-77833244D01*
X181421988Y-77831966D01*
X181396950Y-77807471D01*
X181377788Y-77774300D01*
X181370002Y-77742015D01*
X181370000Y-77741566D01*
X181373778Y-77725221D01*
X181386406Y-77716300D01*
X181409817Y-77714940D01*
X181445950Y-77721275D01*
X181496738Y-77735440D01*
X181555000Y-77754457D01*
X181654055Y-77785041D01*
X181766689Y-77814617D01*
X181886485Y-77841796D01*
X182007025Y-77865192D01*
X182121892Y-77883416D01*
X182190000Y-77891781D01*
X182279615Y-77899091D01*
X182377073Y-77903308D01*
X182476585Y-77904435D01*
X182572368Y-77902476D01*
X182658635Y-77897435D01*
X182715000Y-77891447D01*
X182820457Y-77873278D01*
X182936019Y-77846655D01*
X183054710Y-77813528D01*
X183169554Y-77775846D01*
X183273575Y-77735558D01*
X183275000Y-77734951D01*
X183341179Y-77705138D01*
X183417212Y-77668278D01*
X183498392Y-77626875D01*
X183580011Y-77583434D01*
X183657362Y-77540460D01*
X183725736Y-77500459D01*
X183780000Y-77466221D01*
X183891904Y-77389165D01*
X183990715Y-77315664D01*
X184081705Y-77241357D01*
X184170146Y-77161880D01*
X184261309Y-77072870D01*
X184287120Y-77046590D01*
X184335253Y-76997791D01*
X184379378Y-76954161D01*
X184417426Y-76917657D01*
X184447328Y-76890238D01*
X184467014Y-76873860D01*
X184473802Y-76870000D01*
X184503520Y-76875978D01*
G37*
G36*
X185139536Y-75035345D02*
G01*
X185153248Y-75052982D01*
X185161041Y-75085311D01*
X185163916Y-75134731D01*
X185163951Y-75137989D01*
X185163274Y-75181005D01*
X185158943Y-75213012D01*
X185148892Y-75242939D01*
X185131222Y-75279390D01*
X185111609Y-75315657D01*
X185092639Y-75348222D01*
X185078767Y-75369527D01*
X185070519Y-75381563D01*
X185066401Y-75393043D01*
X185066906Y-75408205D01*
X185072529Y-75431286D01*
X185083765Y-75466525D01*
X185093448Y-75495392D01*
X185109304Y-75540861D01*
X185124789Y-75582498D01*
X185137709Y-75614532D01*
X185143571Y-75627238D01*
X185176475Y-75669586D01*
X185225854Y-75702887D01*
X185284403Y-75724424D01*
X185321579Y-75734664D01*
X185342362Y-75742739D01*
X185349854Y-75750943D01*
X185347157Y-75761571D01*
X185343302Y-75767979D01*
X185323777Y-75781129D01*
X185292057Y-75784375D01*
X185252728Y-75778696D01*
X185210374Y-75765071D01*
X185169582Y-75744479D01*
X185142951Y-75725206D01*
X185101965Y-75690123D01*
X185089858Y-75742561D01*
X185078130Y-75780215D01*
X185060180Y-75823915D01*
X185044451Y-75855594D01*
X185026653Y-75883309D01*
X185000559Y-75918103D01*
X184968990Y-75956832D01*
X184934770Y-75996349D01*
X184900722Y-76033510D01*
X184869667Y-76065169D01*
X184844429Y-76088181D01*
X184827829Y-76099400D01*
X184825130Y-76100000D01*
X184810893Y-76091885D01*
X184805720Y-76083271D01*
X184808027Y-76063001D01*
X184825956Y-76035510D01*
X184827150Y-76034106D01*
X184882807Y-75968909D01*
X184926758Y-75916193D01*
X184960596Y-75873501D01*
X184985912Y-75838376D01*
X185004298Y-75808361D01*
X185017346Y-75780998D01*
X185026649Y-75753830D01*
X185033798Y-75724400D01*
X185036507Y-75710950D01*
X185042570Y-75661194D01*
X185043188Y-75607387D01*
X185039037Y-75553367D01*
X185030791Y-75502970D01*
X185019124Y-75460033D01*
X185004711Y-75428392D01*
X184988226Y-75411884D01*
X184983706Y-75410548D01*
X184968099Y-75409760D01*
X184936002Y-75409251D01*
X184890924Y-75409039D01*
X184836373Y-75409140D01*
X184776844Y-75409562D01*
X184705335Y-75409930D01*
X184651387Y-75409182D01*
X184612572Y-75406862D01*
X184586461Y-75402517D01*
X184570628Y-75395690D01*
X184562643Y-75385929D01*
X184560078Y-75372777D01*
X184560000Y-75368966D01*
X184568817Y-75351812D01*
X184582500Y-75345773D01*
X184609505Y-75342383D01*
X184651189Y-75339661D01*
X184702833Y-75337661D01*
X184759718Y-75336439D01*
X184817128Y-75336048D01*
X184870342Y-75336544D01*
X184914645Y-75337980D01*
X184945317Y-75340413D01*
X184951863Y-75341490D01*
X184985296Y-75346260D01*
X185010743Y-75342527D01*
X185031911Y-75327706D01*
X185052505Y-75299217D01*
X185075968Y-75255011D01*
X185094156Y-75217044D01*
X185104675Y-75189332D01*
X185109057Y-75164369D01*
X185108836Y-75134654D01*
X185106602Y-75105092D01*
X185103783Y-75066830D01*
X185103809Y-75044331D01*
X185107354Y-75033477D01*
X185115092Y-75030149D01*
X185118903Y-75030000D01*
X185139536Y-75035345D01*
G37*
G36*
X183420000Y-74596857D02*
G01*
X183529885Y-74607284D01*
X183639748Y-74636771D01*
X183747426Y-74684492D01*
X183850757Y-74749624D01*
X183880996Y-74772762D01*
X183968068Y-74832345D01*
X184067254Y-74882878D01*
X184122500Y-74904724D01*
X184153793Y-74917976D01*
X184169286Y-74930705D01*
X184168256Y-74944028D01*
X184149982Y-74959057D01*
X184113740Y-74976908D01*
X184062500Y-74997310D01*
X184011480Y-75015920D01*
X183956933Y-75034866D01*
X183903402Y-75052669D01*
X183855430Y-75067848D01*
X183817557Y-75078926D01*
X183795742Y-75084187D01*
X183781093Y-75089129D01*
X183755154Y-75099740D01*
X183735865Y-75108205D01*
X183653060Y-75137349D01*
X183560155Y-75156360D01*
X183464908Y-75164107D01*
X183380000Y-75160085D01*
X183337389Y-75153818D01*
X183295331Y-75145958D01*
X183271175Y-75140321D01*
X183215112Y-75119219D01*
X183151159Y-75085024D01*
X183143242Y-75079796D01*
X183533550Y-75079796D01*
X183533818Y-75080000D01*
X183545427Y-75076762D01*
X183569750Y-75068399D01*
X183592639Y-75060024D01*
X183641464Y-75034694D01*
X183684410Y-74999494D01*
X183714876Y-74959978D01*
X183717484Y-74955000D01*
X183728773Y-74920455D01*
X183734607Y-74877511D01*
X183735258Y-74831572D01*
X183730998Y-74788045D01*
X183722100Y-74752335D01*
X183708834Y-74729848D01*
X183706050Y-74727653D01*
X183695836Y-74722231D01*
X183689562Y-74724770D01*
X183686228Y-74738508D01*
X183684835Y-74766686D01*
X183684472Y-74797545D01*
X183678018Y-74871175D01*
X183658342Y-74933032D01*
X183623320Y-74987986D01*
X183582876Y-75030201D01*
X183557450Y-75054048D01*
X183539936Y-75071668D01*
X183533550Y-75079796D01*
X183143242Y-75079796D01*
X183083672Y-75040459D01*
X183017006Y-74988243D01*
X182990762Y-74965110D01*
X182950016Y-74928540D01*
X182908593Y-74892489D01*
X182872047Y-74861736D01*
X182851150Y-74845000D01*
X182807881Y-74808348D01*
X182786990Y-74783839D01*
X183100136Y-74783839D01*
X183105556Y-74828061D01*
X183119987Y-74877221D01*
X183140143Y-74920485D01*
X183142940Y-74925000D01*
X183157048Y-74943139D01*
X183178560Y-74966886D01*
X183203005Y-74991786D01*
X183225912Y-75013387D01*
X183242810Y-75027234D01*
X183248315Y-75029972D01*
X183245771Y-75022508D01*
X183235380Y-75003839D01*
X183230866Y-74996402D01*
X183212807Y-74963669D01*
X183199339Y-74932712D01*
X183191096Y-74906619D01*
X183188715Y-74888479D01*
X183192832Y-74881381D01*
X183204081Y-74888414D01*
X183210000Y-74895000D01*
X183231755Y-74907515D01*
X183260240Y-74908475D01*
X183286067Y-74898165D01*
X183292267Y-74892500D01*
X183312544Y-74860546D01*
X183313511Y-74831746D01*
X183296075Y-74805166D01*
X183267925Y-74784632D01*
X183241738Y-74783162D01*
X183214917Y-74800964D01*
X183204293Y-74812500D01*
X183176809Y-74845000D01*
X183183500Y-74802637D01*
X183192176Y-74765642D01*
X183204772Y-74729916D01*
X183206888Y-74725263D01*
X183216419Y-74701815D01*
X183219371Y-74687020D01*
X183218751Y-74685418D01*
X183207351Y-74685516D01*
X183183195Y-74690925D01*
X183162687Y-74696968D01*
X183128534Y-74710692D01*
X183109545Y-74728173D01*
X183101507Y-74755261D01*
X183100136Y-74783839D01*
X182786990Y-74783839D01*
X182783053Y-74779220D01*
X182776690Y-74757650D01*
X182778828Y-74751895D01*
X182790502Y-74745602D01*
X182818141Y-74735667D01*
X182858284Y-74723188D01*
X182907466Y-74709267D01*
X182940457Y-74700529D01*
X183005439Y-74683578D01*
X183075110Y-74665115D01*
X183142035Y-74647125D01*
X183198783Y-74631596D01*
X183210000Y-74628473D01*
X183268820Y-74613030D01*
X183316481Y-74603373D01*
X183360581Y-74598358D01*
X183408723Y-74596839D01*
X183420000Y-74596857D01*
G37*
G36*
X183754275Y-80356105D02*
G01*
X183762645Y-80369283D01*
X183768072Y-80399240D01*
X183770701Y-80442995D01*
X183770674Y-80497566D01*
X183768134Y-80559972D01*
X183763223Y-80627232D01*
X183756085Y-80696363D01*
X183746862Y-80764385D01*
X183735696Y-80828316D01*
X183730467Y-80853206D01*
X183723111Y-80887866D01*
X183716846Y-80919977D01*
X183715949Y-80925000D01*
X183709253Y-80956218D01*
X183697995Y-81001151D01*
X183683637Y-81054437D01*
X183667638Y-81110720D01*
X183651460Y-81164641D01*
X183645058Y-81185000D01*
X183631911Y-81227816D01*
X183616483Y-81280597D01*
X183601503Y-81333947D01*
X183597143Y-81350000D01*
X183582874Y-81402990D01*
X183567478Y-81460003D01*
X183553703Y-81510863D01*
X183550362Y-81523164D01*
X183526073Y-81640677D01*
X183513080Y-81769579D01*
X183511389Y-81904749D01*
X183521006Y-82041068D01*
X183541936Y-82173416D01*
X183549596Y-82208093D01*
X183570806Y-82291831D01*
X183594456Y-82374420D01*
X183618883Y-82450525D01*
X183642427Y-82514816D01*
X183652965Y-82540000D01*
X183663272Y-82563570D01*
X183679087Y-82600079D01*
X183698054Y-82644074D01*
X183713485Y-82680000D01*
X183734930Y-82729638D01*
X183761404Y-82790353D01*
X183789764Y-82854967D01*
X183816869Y-82916303D01*
X183820731Y-82925000D01*
X183871536Y-83040722D01*
X183914376Y-83141590D01*
X183950400Y-83230550D01*
X183980759Y-83310549D01*
X184006603Y-83384534D01*
X184029082Y-83455452D01*
X184033415Y-83470000D01*
X184080861Y-83644684D01*
X184118974Y-83814240D01*
X184147701Y-83977284D01*
X184166985Y-84132433D01*
X184176774Y-84278301D01*
X184177012Y-84413507D01*
X184167646Y-84536667D01*
X184148620Y-84646396D01*
X184119880Y-84741311D01*
X184086200Y-84812016D01*
X184064416Y-84844128D01*
X184035913Y-84879836D01*
X184017995Y-84899683D01*
X183990022Y-84932682D01*
X183973228Y-84965045D01*
X183962696Y-85004301D01*
X183947436Y-85056135D01*
X183922410Y-85116877D01*
X183890856Y-85180243D01*
X183856014Y-85239947D01*
X183821121Y-85289705D01*
X183807066Y-85306306D01*
X183768912Y-85343756D01*
X183727576Y-85374500D01*
X183678329Y-85401315D01*
X183616442Y-85426978D01*
X183578681Y-85440452D01*
X183532914Y-85455020D01*
X183492317Y-85464649D01*
X183449465Y-85470584D01*
X183396932Y-85474070D01*
X183372355Y-85475029D01*
X183320798Y-85475935D01*
X183271886Y-85475274D01*
X183231785Y-85473213D01*
X183210000Y-85470633D01*
X183173951Y-85460867D01*
X183126371Y-85443866D01*
X183073177Y-85422171D01*
X183020286Y-85398327D01*
X182973613Y-85374874D01*
X182939075Y-85354357D01*
X182938474Y-85353943D01*
X182854798Y-85287579D01*
X182784499Y-85212594D01*
X182724027Y-85124813D01*
X182689540Y-85061391D01*
X182665566Y-85011094D01*
X182643694Y-84959638D01*
X182623176Y-84904507D01*
X182603263Y-84843183D01*
X182583206Y-84773149D01*
X182562257Y-84691888D01*
X182539667Y-84596882D01*
X182514688Y-84485615D01*
X182504729Y-84440000D01*
X182487247Y-84363712D01*
X182467675Y-84285491D01*
X182447305Y-84210018D01*
X182427429Y-84141971D01*
X182409341Y-84086031D01*
X182399795Y-84060000D01*
X182347430Y-83931691D01*
X182296364Y-83817857D01*
X182243781Y-83713402D01*
X182186867Y-83613227D01*
X182122807Y-83512236D01*
X182048784Y-83405332D01*
X182004895Y-83345000D01*
X181940458Y-83257213D01*
X181886471Y-83182597D01*
X181841183Y-83118471D01*
X181802844Y-83062159D01*
X181769704Y-83010981D01*
X181740012Y-82962259D01*
X181712017Y-82913315D01*
X181683970Y-82861470D01*
X181664389Y-82823995D01*
X181560180Y-82600689D01*
X181473528Y-82367824D01*
X181404450Y-82125455D01*
X181355726Y-81890000D01*
X181326842Y-81709874D01*
X181304839Y-81547247D01*
X181289752Y-81402455D01*
X181281621Y-81275835D01*
X181280082Y-81203150D01*
X181280790Y-81139524D01*
X181283511Y-81093263D01*
X181288994Y-81061774D01*
X181297986Y-81042463D01*
X181311235Y-81032737D01*
X181329489Y-81030001D01*
X181330000Y-81030000D01*
X181345976Y-81031662D01*
X181358218Y-81038344D01*
X181367492Y-81052582D01*
X181374566Y-81076916D01*
X181380204Y-81113884D01*
X181385174Y-81166026D01*
X181389685Y-81227660D01*
X181397138Y-81334487D01*
X181403779Y-81424020D01*
X181409869Y-81498936D01*
X181415667Y-81561910D01*
X181421430Y-81615622D01*
X181427420Y-81662746D01*
X181433895Y-81705961D01*
X181438798Y-81735000D01*
X181447525Y-81785699D01*
X181455632Y-81834761D01*
X181462025Y-81875459D01*
X181464844Y-81895000D01*
X181474899Y-81953840D01*
X181490872Y-82027084D01*
X181511617Y-82110422D01*
X181535991Y-82199545D01*
X181562850Y-82290145D01*
X181591049Y-82377913D01*
X181600274Y-82405000D01*
X181644082Y-82524059D01*
X181691054Y-82635668D01*
X181743094Y-82743260D01*
X181802105Y-82850267D01*
X181869993Y-82960121D01*
X181948662Y-83076255D01*
X182040017Y-83202102D01*
X182049658Y-83215000D01*
X182132260Y-83329844D01*
X182211253Y-83448572D01*
X182284637Y-83567763D01*
X182350412Y-83683994D01*
X182406578Y-83793842D01*
X182451135Y-83893886D01*
X182460812Y-83918504D01*
X182486616Y-83987511D01*
X182510922Y-84054750D01*
X182532550Y-84116770D01*
X182550318Y-84170120D01*
X182563044Y-84211350D01*
X182569163Y-84235000D01*
X182575440Y-84263697D01*
X182584851Y-84304176D01*
X182595619Y-84348829D01*
X182598375Y-84360000D01*
X182609165Y-84405171D01*
X182622146Y-84462052D01*
X182635543Y-84522751D01*
X182645627Y-84570000D01*
X182674911Y-84697741D01*
X182706034Y-84808459D01*
X182740081Y-84905115D01*
X182778133Y-84990669D01*
X182821276Y-85068084D01*
X182836637Y-85092080D01*
X182883691Y-85154721D01*
X182935839Y-85205609D01*
X182998572Y-85249500D01*
X183052445Y-85278972D01*
X183144693Y-85320239D01*
X183229253Y-85346263D01*
X183310573Y-85357694D01*
X183393103Y-85355185D01*
X183475000Y-85340876D01*
X183558493Y-85317355D01*
X183626802Y-85288335D01*
X183684489Y-85251500D01*
X183728800Y-85212091D01*
X183772486Y-85161577D01*
X183807357Y-85105883D01*
X183836001Y-85040062D01*
X183860786Y-84960000D01*
X183874397Y-84913902D01*
X183888329Y-84880414D01*
X183906211Y-84852422D01*
X183929645Y-84825000D01*
X183971176Y-84776173D01*
X184002547Y-84728996D01*
X184026374Y-84677950D01*
X184045273Y-84617514D01*
X184060592Y-84548697D01*
X184065372Y-84511283D01*
X184068627Y-84458923D01*
X184070364Y-84396611D01*
X184070590Y-84329342D01*
X184069312Y-84262112D01*
X184066536Y-84199915D01*
X184062269Y-84147746D01*
X184060030Y-84130000D01*
X184052794Y-84078599D01*
X184045106Y-84021438D01*
X184039780Y-83980000D01*
X184014847Y-83827559D01*
X183976954Y-83663804D01*
X183927021Y-83491820D01*
X183865970Y-83314693D01*
X183794720Y-83135508D01*
X183772897Y-83085000D01*
X183746138Y-83024091D01*
X183719368Y-82963039D01*
X183694747Y-82906778D01*
X183674435Y-82860241D01*
X183663462Y-82835000D01*
X183644930Y-82792538D01*
X183626926Y-82751794D01*
X183612753Y-82720229D01*
X183610357Y-82715000D01*
X183530814Y-82523174D01*
X183469552Y-82331669D01*
X183425323Y-82136492D01*
X183419802Y-82105000D01*
X183410612Y-82046126D01*
X183404742Y-81995219D01*
X183401781Y-81945322D01*
X183401316Y-81889476D01*
X183402937Y-81820724D01*
X183402961Y-81820000D01*
X183407558Y-81737950D01*
X183416347Y-81656299D01*
X183430014Y-81571561D01*
X183449241Y-81480251D01*
X183474713Y-81378882D01*
X183507114Y-81263968D01*
X183521694Y-81215000D01*
X183535985Y-81167633D01*
X183552286Y-81113665D01*
X183565490Y-81070000D01*
X183592324Y-80977309D01*
X183612760Y-80896489D01*
X183628222Y-80821000D01*
X183640132Y-80744305D01*
X183645155Y-80703844D01*
X183673263Y-80507922D01*
X183695482Y-80392788D01*
X183708525Y-80369477D01*
X183731093Y-80355764D01*
X183754275Y-80356105D01*
G37*
G36*
X183892907Y-71324305D02*
G01*
X183952543Y-71339769D01*
X183989026Y-71360444D01*
X184019603Y-71385148D01*
X184042169Y-71411148D01*
X184060746Y-71444342D01*
X184079355Y-71490627D01*
X184081132Y-71495534D01*
X184093529Y-71544458D01*
X184102255Y-71610730D01*
X184107248Y-71692026D01*
X184108445Y-71786022D01*
X184105782Y-71890393D01*
X184099197Y-72002815D01*
X184095970Y-72043456D01*
X184087871Y-72151947D01*
X184083046Y-72251678D01*
X184081658Y-72346783D01*
X184083871Y-72441395D01*
X184089847Y-72539645D01*
X184099750Y-72645667D01*
X184113742Y-72763593D01*
X184128793Y-72875000D01*
X184145676Y-72995000D01*
X184214384Y-73046778D01*
X184255238Y-73076084D01*
X184304880Y-73109543D01*
X184354713Y-73141417D01*
X184371675Y-73151778D01*
X184474730Y-73213795D01*
X184562310Y-73266814D01*
X184636148Y-73312027D01*
X184697979Y-73350625D01*
X184749537Y-73383800D01*
X184792556Y-73412743D01*
X184828771Y-73438646D01*
X184859915Y-73462700D01*
X184887722Y-73486098D01*
X184913928Y-73510030D01*
X184940265Y-73535688D01*
X184961225Y-73556859D01*
X185044720Y-73650078D01*
X185117126Y-73749045D01*
X185180420Y-73857179D01*
X185236578Y-73977896D01*
X185287576Y-74114615D01*
X185292699Y-74130000D01*
X185323665Y-74229139D01*
X185348891Y-74322668D01*
X185369091Y-74414846D01*
X185384976Y-74509935D01*
X185397259Y-74612195D01*
X185406652Y-74725889D01*
X185413853Y-74855000D01*
X185425792Y-75115000D01*
X185462678Y-75172353D01*
X185518947Y-75270190D01*
X185561770Y-75366814D01*
X185575185Y-75406018D01*
X185586959Y-75440452D01*
X185598590Y-75461384D01*
X185614580Y-75474763D01*
X185634524Y-75484456D01*
X185662049Y-75497541D01*
X185699997Y-75517171D01*
X185741538Y-75539780D01*
X185755000Y-75547360D01*
X185793893Y-75569340D01*
X185829062Y-75588980D01*
X185854818Y-75603111D01*
X185861170Y-75606491D01*
X185886849Y-75622845D01*
X185915945Y-75645704D01*
X185943970Y-75670927D01*
X185966434Y-75694371D01*
X185978850Y-75711893D01*
X185980000Y-75716163D01*
X185973732Y-75733130D01*
X185956152Y-75735327D01*
X185929091Y-75723060D01*
X185902096Y-75703241D01*
X185865793Y-75673759D01*
X185833430Y-75649675D01*
X185799684Y-75627523D01*
X185759236Y-75603833D01*
X185706764Y-75575137D01*
X185700012Y-75571516D01*
X185605024Y-75520648D01*
X185593743Y-75611903D01*
X185582462Y-75703159D01*
X185666231Y-75798421D01*
X185707327Y-75847418D01*
X185735221Y-75885747D01*
X185749470Y-75912644D01*
X185749632Y-75927344D01*
X185742265Y-75930000D01*
X185732527Y-75923310D01*
X185711978Y-75905156D01*
X185683752Y-75878411D01*
X185655000Y-75850000D01*
X185622604Y-75818064D01*
X185595124Y-75792187D01*
X185575693Y-75775242D01*
X185567734Y-75770000D01*
X185561434Y-75778389D01*
X185560000Y-75789894D01*
X185554873Y-75818072D01*
X185540959Y-75858078D01*
X185520460Y-75905031D01*
X185495574Y-75954048D01*
X185468503Y-76000246D01*
X185458046Y-76016127D01*
X185405796Y-76088309D01*
X185355568Y-76147334D01*
X185302186Y-76198102D01*
X185240476Y-76245514D01*
X185165263Y-76294471D01*
X185162139Y-76296385D01*
X185129278Y-76316481D01*
X185171310Y-76370740D01*
X185265410Y-76479482D01*
X185374520Y-76583376D01*
X185493649Y-76677853D01*
X185546015Y-76713984D01*
X185684628Y-76810853D01*
X185831120Y-76923385D01*
X185983667Y-77049754D01*
X186140444Y-77188135D01*
X186299629Y-77336701D01*
X186459395Y-77493627D01*
X186617920Y-77657087D01*
X186773380Y-77825256D01*
X186923949Y-77996307D01*
X187067805Y-78168415D01*
X187203122Y-78339755D01*
X187300000Y-78469530D01*
X187407622Y-78618975D01*
X187508990Y-78762434D01*
X187602672Y-78897825D01*
X187687234Y-79023064D01*
X187761243Y-79136068D01*
X187795519Y-79190000D01*
X187811412Y-79215215D01*
X187833773Y-79250561D01*
X187858333Y-79289291D01*
X187863744Y-79297811D01*
X187884602Y-79331131D01*
X187900573Y-79357568D01*
X187909177Y-79372978D01*
X187910000Y-79375117D01*
X187914960Y-79385238D01*
X187927882Y-79407127D01*
X187943604Y-79432305D01*
X187964093Y-79465424D01*
X187991978Y-79511910D01*
X188024865Y-79567689D01*
X188060361Y-79628690D01*
X188096072Y-79690840D01*
X188111354Y-79717708D01*
X188169172Y-79822483D01*
X188232553Y-79942235D01*
X188299744Y-80073330D01*
X188368991Y-80212132D01*
X188438541Y-80355004D01*
X188506640Y-80498311D01*
X188571535Y-80638417D01*
X188631472Y-80771687D01*
X188684699Y-80894486D01*
X188720161Y-80980000D01*
X188740150Y-81028882D01*
X188760193Y-81076993D01*
X188777506Y-81117694D01*
X188786318Y-81137796D01*
X188799126Y-81167302D01*
X188807725Y-81188936D01*
X188810000Y-81196545D01*
X188813681Y-81208195D01*
X188823251Y-81232475D01*
X188834333Y-81258749D01*
X188852934Y-81302746D01*
X188875380Y-81357341D01*
X188899428Y-81416924D01*
X188922836Y-81475885D01*
X188943360Y-81528612D01*
X188958758Y-81569496D01*
X188960753Y-81575000D01*
X188973274Y-81608932D01*
X188989912Y-81652828D01*
X189007394Y-81698063D01*
X189010110Y-81705000D01*
X189028680Y-81753751D01*
X189047937Y-81806572D01*
X189063897Y-81852519D01*
X189064722Y-81855000D01*
X189076927Y-81891388D01*
X189093606Y-81940566D01*
X189112680Y-81996429D01*
X189132069Y-82052872D01*
X189134527Y-82060000D01*
X189181727Y-82201424D01*
X189222052Y-82331967D01*
X189255185Y-82450363D01*
X189280808Y-82555344D01*
X189298601Y-82645643D01*
X189308248Y-82719994D01*
X189310000Y-82758525D01*
X189308488Y-82806868D01*
X189302718Y-82847145D01*
X189290837Y-82889027D01*
X189278528Y-82922822D01*
X189263880Y-82958996D01*
X189249401Y-82987896D01*
X189231728Y-83014272D01*
X189207499Y-83042870D01*
X189173351Y-83078439D01*
X189156028Y-83095816D01*
X189088608Y-83157534D01*
X189024532Y-83203828D01*
X188959311Y-83237674D01*
X188919645Y-83252624D01*
X188914692Y-83255553D01*
X188911155Y-83261947D01*
X188909127Y-83273830D01*
X188908704Y-83293223D01*
X188909979Y-83322150D01*
X188913047Y-83362633D01*
X188918002Y-83416694D01*
X188924938Y-83486356D01*
X188933949Y-83573641D01*
X188935133Y-83585000D01*
X188940259Y-83646026D01*
X188944852Y-83723857D01*
X188948869Y-83815300D01*
X188952264Y-83917166D01*
X188954994Y-84026264D01*
X188957014Y-84139403D01*
X188958281Y-84253393D01*
X188958751Y-84365044D01*
X188958379Y-84471164D01*
X188957122Y-84568564D01*
X188954935Y-84654053D01*
X188951775Y-84724440D01*
X188951034Y-84736235D01*
X188937848Y-84913246D01*
X188922108Y-85082940D01*
X188903304Y-85248488D01*
X188880923Y-85413062D01*
X188854454Y-85579832D01*
X188823384Y-85751970D01*
X188787202Y-85932646D01*
X188745395Y-86125032D01*
X188697453Y-86332299D01*
X188684883Y-86385000D01*
X188672014Y-86439158D01*
X188657020Y-86503012D01*
X188642196Y-86566752D01*
X188634537Y-86600000D01*
X188622940Y-86649564D01*
X188607915Y-86712302D01*
X188590966Y-86782007D01*
X188573599Y-86852471D01*
X188562985Y-86895000D01*
X188548049Y-86954728D01*
X188534319Y-87010049D01*
X188522742Y-87057117D01*
X188514265Y-87092086D01*
X188510076Y-87110000D01*
X188504728Y-87132326D01*
X188495405Y-87169347D01*
X188483291Y-87216437D01*
X188469568Y-87268966D01*
X188465339Y-87285000D01*
X188439617Y-87382362D01*
X188418536Y-87462317D01*
X188401597Y-87526788D01*
X188388302Y-87577696D01*
X188378153Y-87616963D01*
X188370651Y-87646510D01*
X188365297Y-87668261D01*
X188361594Y-87684135D01*
X188360307Y-87690000D01*
X188352260Y-87723478D01*
X188339271Y-87772606D01*
X188322295Y-87833926D01*
X188302288Y-87903976D01*
X188283077Y-87969606D01*
X188271274Y-88010245D01*
X188261487Y-88045328D01*
X188255306Y-88069105D01*
X188254263Y-88073826D01*
X188249376Y-88093557D01*
X188240524Y-88124876D01*
X188231697Y-88154219D01*
X188219496Y-88193750D01*
X188204362Y-88242857D01*
X188189238Y-88291997D01*
X188186778Y-88300000D01*
X188132283Y-88476007D01*
X188079586Y-88643730D01*
X188029356Y-88801093D01*
X187982265Y-88946019D01*
X187938983Y-89076430D01*
X187900180Y-89190250D01*
X187889812Y-89220000D01*
X187860099Y-89304715D01*
X187836220Y-89372663D01*
X187817420Y-89425957D01*
X187802941Y-89466712D01*
X187792026Y-89497043D01*
X187783918Y-89519064D01*
X187777860Y-89534889D01*
X187773094Y-89546634D01*
X187771665Y-89550000D01*
X187763648Y-89569987D01*
X187750856Y-89603294D01*
X187735376Y-89644452D01*
X187725901Y-89670000D01*
X187673626Y-89808211D01*
X187623375Y-89933396D01*
X187572512Y-90051975D01*
X187534022Y-90136880D01*
X187520665Y-90169824D01*
X187512100Y-90198849D01*
X187510349Y-90211880D01*
X187512782Y-90229733D01*
X187519214Y-90262728D01*
X187528751Y-90306613D01*
X187540495Y-90357139D01*
X187544349Y-90373099D01*
X187563189Y-90444865D01*
X187582473Y-90504745D01*
X187605093Y-90560700D01*
X187633943Y-90620695D01*
X187635169Y-90623099D01*
X187679651Y-90710465D01*
X187715958Y-90782576D01*
X187745218Y-90841881D01*
X187768561Y-90890826D01*
X187787118Y-90931861D01*
X187802018Y-90967434D01*
X187814391Y-90999991D01*
X187825367Y-91031982D01*
X187828808Y-91042619D01*
X187849229Y-91116875D01*
X187858150Y-91180505D01*
X187855235Y-91239477D01*
X187840145Y-91299760D01*
X187812546Y-91367322D01*
X187810225Y-91372292D01*
X187781161Y-91418772D01*
X187739718Y-91465377D01*
X187691302Y-91507316D01*
X187641320Y-91539800D01*
X187602734Y-91556088D01*
X187561682Y-91564055D01*
X187512135Y-91567816D01*
X187459843Y-91567591D01*
X187410555Y-91563599D01*
X187370021Y-91556061D01*
X187345526Y-91546264D01*
X187331519Y-91538767D01*
X187319448Y-91539735D01*
X187303888Y-91551369D01*
X187283874Y-91571281D01*
X187244166Y-91603954D01*
X187190744Y-91636525D01*
X187129666Y-91665854D01*
X187066987Y-91688804D01*
X187045399Y-91694849D01*
X186994759Y-91703677D01*
X186933191Y-91708463D01*
X186868679Y-91709081D01*
X186809207Y-91705404D01*
X186770278Y-91699205D01*
X186720674Y-91683716D01*
X186666898Y-91660448D01*
X186616153Y-91633010D01*
X186575642Y-91605015D01*
X186566673Y-91597153D01*
X186545461Y-91578323D01*
X186528940Y-91570372D01*
X186508478Y-91571154D01*
X186483828Y-91576540D01*
X186396440Y-91588373D01*
X186310367Y-91583272D01*
X186250417Y-91568567D01*
X186213705Y-91553982D01*
X186181753Y-91535233D01*
X186148240Y-91508089D01*
X186119630Y-91481004D01*
X186085756Y-91446361D01*
X186063006Y-91418429D01*
X186047276Y-91390952D01*
X186034463Y-91357673D01*
X186030358Y-91344936D01*
X186018036Y-91296912D01*
X186007930Y-91241891D01*
X186002836Y-91198401D01*
X185997265Y-91121802D01*
X185881132Y-91113931D01*
X185823812Y-91110779D01*
X185755377Y-91108132D01*
X185684716Y-91106281D01*
X185625000Y-91105530D01*
X185574181Y-91105329D01*
X185534617Y-91106061D01*
X185502522Y-91109071D01*
X185474113Y-91115705D01*
X185445603Y-91127308D01*
X185413208Y-91145225D01*
X185373142Y-91170802D01*
X185321622Y-91205385D01*
X185296653Y-91222247D01*
X185195086Y-91287084D01*
X185103643Y-91337193D01*
X185019867Y-91373391D01*
X184941296Y-91396494D01*
X184865472Y-91407318D01*
X184789935Y-91406682D01*
X184753456Y-91402602D01*
X184715582Y-91396309D01*
X184663947Y-91386491D01*
X184604237Y-91374291D01*
X184542141Y-91360851D01*
X184515000Y-91354717D01*
X184454983Y-91341121D01*
X184410606Y-91331752D01*
X184378051Y-91326194D01*
X184353505Y-91324031D01*
X184333152Y-91324847D01*
X184313177Y-91328225D01*
X184300000Y-91331257D01*
X184266958Y-91338273D01*
X184240462Y-91342245D01*
X184230000Y-91342573D01*
X184211594Y-91344816D01*
X184184315Y-91352767D01*
X184176163Y-91355782D01*
X184129194Y-91370988D01*
X184066769Y-91386712D01*
X183993389Y-91402203D01*
X183913557Y-91416711D01*
X183831777Y-91429486D01*
X183752550Y-91439778D01*
X183680379Y-91446837D01*
X183619768Y-91449913D01*
X183610635Y-91449986D01*
X183536589Y-91445394D01*
X183452395Y-91432701D01*
X183364811Y-91413491D01*
X183280597Y-91389347D01*
X183206511Y-91361852D01*
X183177898Y-91348618D01*
X183152181Y-91336886D01*
X183133485Y-91330432D01*
X183130398Y-91330000D01*
X183125008Y-91335808D01*
X183121697Y-91354145D01*
X183120471Y-91386381D01*
X183121337Y-91433883D01*
X183124301Y-91498022D01*
X183129371Y-91580165D01*
X183131819Y-91615921D01*
X183136739Y-91704201D01*
X183137591Y-91776629D01*
X183133950Y-91837013D01*
X183125393Y-91889166D01*
X183111498Y-91936899D01*
X183091840Y-91984022D01*
X183090661Y-91986508D01*
X183049775Y-92051546D01*
X182993880Y-92110645D01*
X182927316Y-92160811D01*
X182854419Y-92199048D01*
X182779531Y-92222360D01*
X182741504Y-92227571D01*
X182691177Y-92228581D01*
X182645705Y-92222689D01*
X182597602Y-92208367D01*
X182548673Y-92188258D01*
X182502346Y-92167680D01*
X182452079Y-92207413D01*
X182390848Y-92246937D01*
X182320396Y-92277910D01*
X182246361Y-92298746D01*
X182174383Y-92307858D01*
X182110100Y-92303661D01*
X182110000Y-92303642D01*
X182043975Y-92288744D01*
X181978794Y-92270370D01*
X181917584Y-92249768D01*
X181863473Y-92228184D01*
X181819588Y-92206866D01*
X181789056Y-92187060D01*
X181775023Y-92170073D01*
X181763329Y-92154450D01*
X181751693Y-92154210D01*
X181654253Y-92175048D01*
X181561980Y-92177328D01*
X181475811Y-92161125D01*
X181396685Y-92126513D01*
X181395596Y-92125878D01*
X181336928Y-92080052D01*
X181289540Y-92018519D01*
X181254176Y-91942574D01*
X181231581Y-91853509D01*
X181228914Y-91836088D01*
X181223232Y-91747869D01*
X181229968Y-91661829D01*
X181248485Y-91584256D01*
X181256692Y-91562491D01*
X181294127Y-91493155D01*
X181347287Y-91423084D01*
X181412381Y-91355922D01*
X181485619Y-91295314D01*
X181563211Y-91244904D01*
X181613147Y-91219789D01*
X181640875Y-91206748D01*
X181654965Y-91194873D01*
X181658231Y-91177946D01*
X181653488Y-91149746D01*
X181650650Y-91136928D01*
X181636875Y-91070333D01*
X181621760Y-90989084D01*
X181606142Y-90898406D01*
X181590856Y-90803525D01*
X181576739Y-90709670D01*
X181564628Y-90622065D01*
X181555357Y-90545937D01*
X181553823Y-90531653D01*
X181547919Y-90492370D01*
X181539751Y-90470239D01*
X181531112Y-90463046D01*
X181477992Y-90440194D01*
X181420195Y-90406263D01*
X181365353Y-90365937D01*
X181346973Y-90350000D01*
X181305417Y-90309312D01*
X181270208Y-90267880D01*
X181239744Y-90222600D01*
X181212422Y-90170366D01*
X181186641Y-90108075D01*
X181160798Y-90032622D01*
X181133291Y-89940904D01*
X181130183Y-89930000D01*
X181118531Y-89889029D01*
X181104060Y-89838250D01*
X181089454Y-89787080D01*
X181086001Y-89775000D01*
X181022828Y-89546405D01*
X180968828Y-89334482D01*
X180923795Y-89138238D01*
X180887523Y-88956681D01*
X180859804Y-88788818D01*
X180840433Y-88633657D01*
X180834166Y-88565000D01*
X180822030Y-88339484D01*
X180820549Y-88106467D01*
X180829421Y-87870982D01*
X180848345Y-87638063D01*
X180877019Y-87412742D01*
X180915142Y-87200053D01*
X180916201Y-87195000D01*
X180929138Y-87133610D01*
X180943579Y-87065243D01*
X180957390Y-86999993D01*
X180964814Y-86965000D01*
X180983622Y-86876204D01*
X180998709Y-86804292D01*
X181010593Y-86746601D01*
X181019793Y-86700469D01*
X181026829Y-86663233D01*
X181032220Y-86632232D01*
X181036485Y-86604803D01*
X181039919Y-86580000D01*
X181046255Y-86534018D01*
X181054312Y-86478476D01*
X181062607Y-86423554D01*
X181064719Y-86410000D01*
X181075052Y-86331174D01*
X181079122Y-86267015D01*
X181076919Y-86218884D01*
X181068433Y-86188142D01*
X181066352Y-86184725D01*
X181055807Y-86162354D01*
X181042145Y-86121983D01*
X181025737Y-86065305D01*
X181006956Y-85994012D01*
X180986177Y-85909798D01*
X180963771Y-85814355D01*
X180940112Y-85709376D01*
X180915572Y-85596553D01*
X180890525Y-85477580D01*
X180865344Y-85354149D01*
X180840402Y-85227954D01*
X180816072Y-85100687D01*
X180792726Y-84974040D01*
X180770738Y-84849707D01*
X180765636Y-84820000D01*
X180741193Y-84670695D01*
X180718818Y-84520706D01*
X180698252Y-84367610D01*
X180679238Y-84208983D01*
X180661517Y-84042401D01*
X180644830Y-83865441D01*
X180628920Y-83675679D01*
X180613528Y-83470692D01*
X180598848Y-83255000D01*
X180597273Y-83221262D01*
X180595694Y-83169250D01*
X180594132Y-83100688D01*
X180592609Y-83017301D01*
X180591148Y-82920815D01*
X180589771Y-82812955D01*
X180588499Y-82695444D01*
X180587354Y-82570010D01*
X180586359Y-82438377D01*
X180585536Y-82302269D01*
X180584913Y-82165000D01*
X180584249Y-82016662D01*
X180583416Y-81876191D01*
X180582430Y-81744842D01*
X180581310Y-81623867D01*
X180580071Y-81514522D01*
X180578730Y-81418060D01*
X180577305Y-81335734D01*
X180575812Y-81268800D01*
X180574267Y-81218510D01*
X180572689Y-81186119D01*
X180571611Y-81175000D01*
X180559906Y-81103775D01*
X180550466Y-81047943D01*
X180542465Y-81003133D01*
X180535083Y-80964977D01*
X180527496Y-80929105D01*
X180518880Y-80891149D01*
X180515102Y-80875000D01*
X180486984Y-80754912D01*
X180463264Y-80651788D01*
X180443570Y-80563169D01*
X180427533Y-80486593D01*
X180414784Y-80419602D01*
X180404950Y-80359735D01*
X180397664Y-80304533D01*
X180392554Y-80251535D01*
X180389250Y-80198283D01*
X180387383Y-80142315D01*
X180386583Y-80081173D01*
X180386467Y-80020000D01*
X180386931Y-79934112D01*
X180388515Y-79862418D01*
X180391838Y-79800388D01*
X180397518Y-79743493D01*
X180406174Y-79687201D01*
X180418425Y-79626985D01*
X180434889Y-79558313D01*
X180456185Y-79476656D01*
X180465335Y-79442535D01*
X180476919Y-79399398D01*
X180489052Y-79353927D01*
X180502608Y-79302820D01*
X180518461Y-79242776D01*
X180537483Y-79170493D01*
X180560548Y-79082668D01*
X180564519Y-79067535D01*
X180607926Y-78890735D01*
X180649436Y-78699391D01*
X180688006Y-78498940D01*
X180722597Y-78294820D01*
X180752168Y-78092468D01*
X180754486Y-78075000D01*
X180762571Y-78013866D01*
X180771809Y-77944523D01*
X180780651Y-77878581D01*
X180783833Y-77855000D01*
X180791266Y-77798758D01*
X180798886Y-77738982D01*
X180805528Y-77684895D01*
X180808259Y-77661644D01*
X180817808Y-77578289D01*
X180777060Y-77516644D01*
X180753883Y-77481650D01*
X180732398Y-77449328D01*
X180717358Y-77426825D01*
X180705984Y-77407609D01*
X180687685Y-77374071D01*
X180664321Y-77329859D01*
X180637750Y-77278621D01*
X180609831Y-77224001D01*
X180582422Y-77169649D01*
X180557382Y-77119211D01*
X180536568Y-77076333D01*
X180521841Y-77044664D01*
X180517678Y-77035000D01*
X180415299Y-76767892D01*
X180324407Y-76494827D01*
X180246113Y-76219834D01*
X180181533Y-75946941D01*
X180131779Y-75680176D01*
X180118215Y-75590000D01*
X180112058Y-75544623D01*
X180107086Y-75503081D01*
X180103174Y-75462486D01*
X180100197Y-75419951D01*
X180098032Y-75372586D01*
X180096555Y-75317504D01*
X180095640Y-75251817D01*
X180095165Y-75172636D01*
X180095005Y-75077073D01*
X180095004Y-75070483D01*
X180197226Y-75070483D01*
X180203283Y-75292521D01*
X180219603Y-75507260D01*
X180246165Y-75709757D01*
X180246205Y-75710000D01*
X180273538Y-75860150D01*
X180307905Y-76020200D01*
X180347811Y-76184396D01*
X180391767Y-76346984D01*
X180438280Y-76502213D01*
X180485858Y-76644328D01*
X180495125Y-76670000D01*
X180510288Y-76711438D01*
X180528763Y-76761906D01*
X180546979Y-76811654D01*
X180550035Y-76820000D01*
X180565732Y-76862105D01*
X180580514Y-76900469D01*
X180591897Y-76928680D01*
X180594631Y-76935000D01*
X180605601Y-76960103D01*
X180620685Y-76995430D01*
X180634426Y-77028099D01*
X180647333Y-77056874D01*
X180667578Y-77099388D01*
X180693210Y-77151666D01*
X180722279Y-77209733D01*
X180752836Y-77269615D01*
X180754633Y-77273099D01*
X180784478Y-77331885D01*
X180812134Y-77388136D01*
X180835853Y-77438158D01*
X180853890Y-77478262D01*
X180864498Y-77504757D01*
X180865095Y-77506553D01*
X180880591Y-77543352D01*
X180897201Y-77561704D01*
X180900841Y-77563117D01*
X180910073Y-77568911D01*
X180916211Y-77581924D01*
X180919190Y-77604038D01*
X180918947Y-77637137D01*
X180915417Y-77683106D01*
X180908537Y-77743827D01*
X180898242Y-77821184D01*
X180890114Y-77878337D01*
X180879350Y-77952802D01*
X180867886Y-78032147D01*
X180856643Y-78110009D01*
X180846539Y-78180026D01*
X180839333Y-78230000D01*
X180817600Y-78376470D01*
X180796795Y-78506924D01*
X180776158Y-78625274D01*
X180754926Y-78735432D01*
X180732341Y-78841312D01*
X180707641Y-78946825D01*
X180680065Y-79055883D01*
X180675052Y-79075000D01*
X180659288Y-79135000D01*
X180642955Y-79197448D01*
X180627892Y-79255302D01*
X180615936Y-79301521D01*
X180615042Y-79305000D01*
X180602624Y-79352981D01*
X180587260Y-79411843D01*
X180571156Y-79473142D01*
X180560092Y-79515000D01*
X180517579Y-79709749D01*
X180494373Y-79901525D01*
X180490358Y-80092126D01*
X180505420Y-80283349D01*
X180509047Y-80310288D01*
X180516466Y-80360930D01*
X180524047Y-80408049D01*
X180532529Y-80455345D01*
X180542650Y-80506513D01*
X180555147Y-80565253D01*
X180570758Y-80635263D01*
X180590222Y-80720240D01*
X180594790Y-80740000D01*
X180617083Y-80837256D01*
X180634976Y-80917583D01*
X180648975Y-80983437D01*
X180659589Y-81037276D01*
X180667324Y-81081558D01*
X180672208Y-81115000D01*
X180673641Y-81135280D01*
X180675179Y-81174004D01*
X180676794Y-81229616D01*
X180678459Y-81300559D01*
X180680148Y-81385277D01*
X180681832Y-81482214D01*
X180683485Y-81589815D01*
X180685080Y-81706522D01*
X180686590Y-81830781D01*
X180687987Y-81961034D01*
X180689195Y-82090000D01*
X180691061Y-82289210D01*
X180693051Y-82469946D01*
X180695212Y-82633730D01*
X180697588Y-82782090D01*
X180700224Y-82916547D01*
X180703165Y-83038629D01*
X180706457Y-83149858D01*
X180710144Y-83251761D01*
X180714272Y-83345861D01*
X180718887Y-83433683D01*
X180724032Y-83516752D01*
X180729754Y-83596592D01*
X180736096Y-83674729D01*
X180736120Y-83675000D01*
X180741928Y-83744239D01*
X180747830Y-83817222D01*
X180753302Y-83887298D01*
X180757820Y-83947819D01*
X180759735Y-83975000D01*
X180767828Y-84069704D01*
X180780170Y-84181308D01*
X180796320Y-84307268D01*
X180815834Y-84445041D01*
X180838272Y-84592084D01*
X180863192Y-84745853D01*
X180890153Y-84903807D01*
X180918711Y-85063402D01*
X180948427Y-85222094D01*
X180978857Y-85377342D01*
X181009561Y-85526600D01*
X181040096Y-85667328D01*
X181070021Y-85796981D01*
X181091086Y-85882615D01*
X181101928Y-85931143D01*
X181111251Y-85983046D01*
X181116918Y-86026027D01*
X181121377Y-86062897D01*
X181127461Y-86084904D01*
X181137119Y-86097184D01*
X181145843Y-86102203D01*
X181165789Y-86121967D01*
X181178963Y-86160035D01*
X181185359Y-86216463D01*
X181184971Y-86291306D01*
X181177794Y-86384621D01*
X181163822Y-86496464D01*
X181143050Y-86626890D01*
X181115472Y-86775954D01*
X181081082Y-86943714D01*
X181044467Y-87110000D01*
X181015304Y-87252616D01*
X180988806Y-87409304D01*
X180965696Y-87574228D01*
X180946698Y-87741554D01*
X180932535Y-87905449D01*
X180923932Y-88060076D01*
X180922924Y-88090000D01*
X180923944Y-88322466D01*
X180940136Y-88563515D01*
X180971066Y-88809220D01*
X181016299Y-89055653D01*
X181042229Y-89170000D01*
X181052702Y-89214531D01*
X181062215Y-89256824D01*
X181069065Y-89289257D01*
X181070174Y-89295000D01*
X181078108Y-89331507D01*
X181091506Y-89385742D01*
X181109987Y-89456307D01*
X181133166Y-89541803D01*
X181160660Y-89640834D01*
X181192088Y-89752000D01*
X181227064Y-89873904D01*
X181257863Y-89980000D01*
X181272124Y-90025659D01*
X181288015Y-90068778D01*
X181308415Y-90116724D01*
X181327930Y-90159266D01*
X181355392Y-90202399D01*
X181396626Y-90247898D01*
X181446633Y-90291221D01*
X181500417Y-90327824D01*
X181531456Y-90344226D01*
X181558204Y-90356004D01*
X181584617Y-90365727D01*
X181614100Y-90374148D01*
X181650057Y-90382016D01*
X181695892Y-90390084D01*
X181755008Y-90399102D01*
X181825000Y-90409016D01*
X181940704Y-90426970D01*
X182038312Y-90446460D01*
X182119709Y-90468177D01*
X182186779Y-90492811D01*
X182241408Y-90521052D01*
X182285482Y-90553591D01*
X182320367Y-90590463D01*
X182338191Y-90615154D01*
X182360051Y-90648572D01*
X182383373Y-90686357D01*
X182405587Y-90724151D01*
X182424119Y-90757597D01*
X182436399Y-90782335D01*
X182440000Y-90793184D01*
X182433324Y-90791485D01*
X182415777Y-90778811D01*
X182391080Y-90757867D01*
X182389714Y-90756642D01*
X182336532Y-90713003D01*
X182275965Y-90670121D01*
X182212762Y-90630831D01*
X182151669Y-90597966D01*
X182097433Y-90574361D01*
X182070000Y-90565782D01*
X181957204Y-90541165D01*
X181849143Y-90524838D01*
X181795000Y-90519303D01*
X181748667Y-90514888D01*
X181708627Y-90510458D01*
X181679765Y-90506591D01*
X181668055Y-90504307D01*
X181657374Y-90503202D01*
X181655784Y-90512657D01*
X181660555Y-90531936D01*
X181666940Y-90564988D01*
X181669884Y-90601560D01*
X181669908Y-90604933D01*
X181671626Y-90631473D01*
X181676339Y-90671569D01*
X181683263Y-90719141D01*
X181689247Y-90755000D01*
X181699773Y-90814556D01*
X181711878Y-90883005D01*
X181723654Y-90949546D01*
X181729047Y-90980000D01*
X181738200Y-91034887D01*
X181746660Y-91091305D01*
X181753288Y-91141366D01*
X181756182Y-91167913D01*
X181759267Y-91205939D01*
X181758934Y-91230197D01*
X181753867Y-91246811D01*
X181742752Y-91261900D01*
X181733974Y-91271358D01*
X181709222Y-91292355D01*
X181674581Y-91315666D01*
X181645000Y-91332313D01*
X181547431Y-91388378D01*
X181468931Y-91448314D01*
X181408792Y-91513011D01*
X181366303Y-91583361D01*
X181340758Y-91660256D01*
X181332107Y-91725913D01*
X181334827Y-91812446D01*
X181352715Y-91888198D01*
X181385262Y-91952015D01*
X181431961Y-92002743D01*
X181463553Y-92024681D01*
X181519167Y-92048478D01*
X181581164Y-92057367D01*
X181652783Y-92051657D01*
X181683695Y-92045611D01*
X181739976Y-92034825D01*
X181781105Y-92031704D01*
X181810587Y-92036707D01*
X181831926Y-92050290D01*
X181844869Y-92066658D01*
X181871090Y-92093207D01*
X181914272Y-92119331D01*
X181971395Y-92143703D01*
X182039441Y-92164996D01*
X182100751Y-92179127D01*
X182146933Y-92186655D01*
X182184077Y-92187856D01*
X182222205Y-92182462D01*
X182253204Y-92175047D01*
X182325632Y-92150719D01*
X182387028Y-92116718D01*
X182445232Y-92068895D01*
X182479383Y-92039503D01*
X182505935Y-92024021D01*
X182526466Y-92020000D01*
X182558400Y-92026511D01*
X182576746Y-92044565D01*
X182580000Y-92060173D01*
X182589037Y-92072345D01*
X182612632Y-92085245D01*
X182645506Y-92097033D01*
X182682381Y-92105871D01*
X182717980Y-92109919D01*
X182723003Y-92110000D01*
X182780772Y-92101407D01*
X182841564Y-92077780D01*
X182900250Y-92042349D01*
X182951698Y-91998341D01*
X182990777Y-91948986D01*
X182997415Y-91937334D01*
X183025000Y-91885000D01*
X183021806Y-91562562D01*
X183021211Y-91483466D01*
X183021022Y-91410218D01*
X183021216Y-91345365D01*
X183021772Y-91291456D01*
X183022668Y-91251037D01*
X183023883Y-91226657D01*
X183024687Y-91220986D01*
X183033982Y-91204548D01*
X183050451Y-91196005D01*
X183076308Y-91195577D01*
X183113770Y-91203482D01*
X183165051Y-91219942D01*
X183220000Y-91240374D01*
X183262787Y-91255446D01*
X183316714Y-91272381D01*
X183373415Y-91288621D01*
X183405000Y-91296898D01*
X183451661Y-91307998D01*
X183491726Y-91315684D01*
X183530991Y-91320554D01*
X183575251Y-91323210D01*
X183630301Y-91324252D01*
X183670000Y-91324353D01*
X183730695Y-91324060D01*
X183777319Y-91322775D01*
X183815800Y-91319725D01*
X183852065Y-91314138D01*
X183892041Y-91305240D01*
X183941657Y-91292260D01*
X183965000Y-91285896D01*
X184048495Y-91263648D01*
X184127491Y-91243770D01*
X184199168Y-91226893D01*
X184260710Y-91213648D01*
X184309299Y-91204665D01*
X184342117Y-91200576D01*
X184346764Y-91200398D01*
X184374812Y-91202535D01*
X184417578Y-91208824D01*
X184470431Y-91218362D01*
X184528736Y-91230245D01*
X184587863Y-91243570D01*
X184643179Y-91257434D01*
X184653367Y-91260189D01*
X184691922Y-91269698D01*
X184728083Y-91275658D01*
X184767945Y-91278605D01*
X184817602Y-91279075D01*
X184858968Y-91278281D01*
X184911816Y-91276744D01*
X184950047Y-91274550D01*
X184979036Y-91270548D01*
X185004160Y-91263587D01*
X185030794Y-91252517D01*
X185064316Y-91236187D01*
X185070828Y-91232934D01*
X185120632Y-91206007D01*
X185175617Y-91173140D01*
X185225201Y-91140707D01*
X185232698Y-91135434D01*
X185267111Y-91111486D01*
X185295659Y-91092741D01*
X185314328Y-91081778D01*
X185318973Y-91080000D01*
X185331942Y-91073182D01*
X185339371Y-91065757D01*
X185353835Y-91054535D01*
X185380871Y-91038304D01*
X185414877Y-91020404D01*
X185418095Y-91018821D01*
X185446868Y-91005286D01*
X185471237Y-90995986D01*
X185496247Y-90990004D01*
X185526941Y-90986424D01*
X185568364Y-90984330D01*
X185615000Y-90983053D01*
X185671467Y-90982653D01*
X185735675Y-90983736D01*
X185803985Y-90986080D01*
X185872756Y-90989463D01*
X185938349Y-90993661D01*
X185997126Y-90998453D01*
X186045445Y-91003617D01*
X186079669Y-91008929D01*
X186092239Y-91012210D01*
X186119479Y-91022210D01*
X186117339Y-91148605D01*
X186116729Y-91202225D01*
X186117428Y-91240534D01*
X186120040Y-91268210D01*
X186125167Y-91289929D01*
X186133412Y-91310368D01*
X186139891Y-91323539D01*
X186179578Y-91380607D01*
X186232158Y-91424812D01*
X186294014Y-91454576D01*
X186361527Y-91468326D01*
X186431081Y-91464484D01*
X186452161Y-91459567D01*
X186485672Y-91452771D01*
X186525551Y-91447999D01*
X186539473Y-91447123D01*
X186570730Y-91447118D01*
X186590872Y-91452999D01*
X186608674Y-91468566D01*
X186620167Y-91482048D01*
X186647072Y-91507370D01*
X186684832Y-91533835D01*
X186716310Y-91551391D01*
X186795040Y-91579415D01*
X186879942Y-91590604D01*
X186967485Y-91585610D01*
X187054136Y-91565085D01*
X187136363Y-91529681D01*
X187210632Y-91480050D01*
X187238789Y-91454939D01*
X187275499Y-91422268D01*
X187304644Y-91404920D01*
X187330167Y-91401861D01*
X187356014Y-91412057D01*
X187368967Y-91420817D01*
X187405659Y-91437967D01*
X187454565Y-91446951D01*
X187509434Y-91447289D01*
X187564015Y-91438498D01*
X187571582Y-91436423D01*
X187608217Y-91422750D01*
X187639513Y-91402727D01*
X187673066Y-91371360D01*
X187677296Y-91366923D01*
X187706495Y-91333576D01*
X187724566Y-91304892D01*
X187735932Y-91272956D01*
X187740288Y-91254227D01*
X187745806Y-91216940D01*
X187746244Y-91178388D01*
X187740916Y-91136569D01*
X187729138Y-91089484D01*
X187710222Y-91035133D01*
X187683482Y-90971517D01*
X187648234Y-90896635D01*
X187603790Y-90808487D01*
X187556382Y-90718081D01*
X187523838Y-90651040D01*
X187493005Y-90577006D01*
X187466102Y-90502115D01*
X187445345Y-90432503D01*
X187433558Y-90378239D01*
X187428670Y-90353922D01*
X187424080Y-90340764D01*
X187423092Y-90340000D01*
X187414929Y-90346826D01*
X187395960Y-90365397D01*
X187369041Y-90392851D01*
X187338067Y-90425226D01*
X187265962Y-90492435D01*
X187178782Y-90559142D01*
X187081319Y-90622545D01*
X186978365Y-90679839D01*
X186874711Y-90728219D01*
X186775151Y-90764883D01*
X186740622Y-90774835D01*
X186690876Y-90787958D01*
X186705267Y-90765995D01*
X186725408Y-90742701D01*
X186759035Y-90711856D01*
X186802507Y-90676234D01*
X186852180Y-90638610D01*
X186904414Y-90601756D01*
X186955564Y-90568448D01*
X186995425Y-90545019D01*
X187039939Y-90519213D01*
X187087631Y-90489540D01*
X187125000Y-90464602D01*
X187171579Y-90428079D01*
X187221563Y-90382510D01*
X187271049Y-90332081D01*
X187316137Y-90280981D01*
X187352928Y-90233394D01*
X187377482Y-90193585D01*
X187394434Y-90159750D01*
X187409227Y-90130695D01*
X187417441Y-90115000D01*
X187436779Y-90076116D01*
X187461789Y-90020782D01*
X187491511Y-89951417D01*
X187524989Y-89870438D01*
X187561263Y-89780266D01*
X187599376Y-89683319D01*
X187638369Y-89582016D01*
X187677285Y-89478775D01*
X187715166Y-89376017D01*
X187751053Y-89276159D01*
X187762033Y-89245000D01*
X187792640Y-89156565D01*
X187826938Y-89055514D01*
X187863816Y-88945271D01*
X187902160Y-88829261D01*
X187940859Y-88710908D01*
X187978798Y-88593637D01*
X188014867Y-88480871D01*
X188047951Y-88376036D01*
X188076940Y-88282555D01*
X188100719Y-88203853D01*
X188104807Y-88190000D01*
X188120181Y-88137800D01*
X188136643Y-88082157D01*
X188151303Y-88032830D01*
X188155134Y-88020000D01*
X188171991Y-87961790D01*
X188193514Y-87884291D01*
X188219661Y-87787648D01*
X188250395Y-87672010D01*
X188285674Y-87537525D01*
X188303931Y-87467398D01*
X188318519Y-87411285D01*
X188334797Y-87348732D01*
X188349818Y-87291061D01*
X188353380Y-87277398D01*
X188412418Y-87048194D01*
X188465773Y-86835231D01*
X188513221Y-86639413D01*
X188554541Y-86461645D01*
X188554914Y-86460000D01*
X188568758Y-86399650D01*
X188584945Y-86330251D01*
X188601044Y-86262177D01*
X188609961Y-86225000D01*
X188673488Y-85947329D01*
X188726462Y-85682413D01*
X188769327Y-85426301D01*
X188802523Y-85175039D01*
X188826492Y-84924675D01*
X188841676Y-84671258D01*
X188848516Y-84410834D01*
X188847453Y-84139452D01*
X188846795Y-84105000D01*
X188842925Y-83948613D01*
X188838097Y-83806609D01*
X188832367Y-83679664D01*
X188825789Y-83568453D01*
X188818419Y-83473653D01*
X188810311Y-83395938D01*
X188801521Y-83335986D01*
X188792102Y-83294471D01*
X188782110Y-83272069D01*
X188778978Y-83269157D01*
X188757210Y-83261353D01*
X188745000Y-83259882D01*
X188723987Y-83255364D01*
X188691456Y-83244117D01*
X188653567Y-83228764D01*
X188616480Y-83211929D01*
X188586355Y-83196233D01*
X188570785Y-83185710D01*
X188559230Y-83177946D01*
X188545579Y-83177810D01*
X188523951Y-83186181D01*
X188504820Y-83195592D01*
X188460160Y-83212043D01*
X188415034Y-83214718D01*
X188365222Y-83203210D01*
X188306505Y-83177112D01*
X188305000Y-83176328D01*
X188234025Y-83130087D01*
X188176449Y-83071520D01*
X188129602Y-82997797D01*
X188121799Y-82982062D01*
X188085000Y-82905000D01*
X188082840Y-82679611D01*
X188081671Y-82596804D01*
X188079747Y-82530048D01*
X188076795Y-82475399D01*
X188072544Y-82428913D01*
X188066721Y-82386647D01*
X188060040Y-82349611D01*
X188039319Y-82242089D01*
X188023300Y-82153407D01*
X188012003Y-82083693D01*
X188005447Y-82033076D01*
X188003653Y-82001684D01*
X188004559Y-81993193D01*
X188016479Y-81972019D01*
X188035965Y-81957193D01*
X188055721Y-81953566D01*
X188061034Y-81955639D01*
X188075830Y-81974115D01*
X188092193Y-82011858D01*
X188109943Y-82068210D01*
X188128901Y-82142513D01*
X188148889Y-82234112D01*
X188169728Y-82342347D01*
X188176478Y-82380000D01*
X188184220Y-82430520D01*
X188189387Y-82482014D01*
X188192274Y-82539629D01*
X188193174Y-82608510D01*
X188192795Y-82665000D01*
X188192687Y-82748210D01*
X188195103Y-82814769D01*
X188200755Y-82867946D01*
X188210352Y-82911007D01*
X188224605Y-82947220D01*
X188244224Y-82979851D01*
X188267721Y-83009629D01*
X188312447Y-83052641D01*
X188357626Y-83079715D01*
X188401024Y-83090306D01*
X188440412Y-83083866D01*
X188473424Y-83060000D01*
X188503999Y-83036624D01*
X188536229Y-83030330D01*
X188565798Y-83041548D01*
X188574896Y-83049885D01*
X188624500Y-83091277D01*
X188686101Y-83122270D01*
X188753660Y-83140969D01*
X188821137Y-83145477D01*
X188861804Y-83139966D01*
X188940215Y-83111932D01*
X189013859Y-83066710D01*
X189079454Y-83007056D01*
X189133716Y-82935729D01*
X189158267Y-82891009D01*
X189175498Y-82853267D01*
X189185966Y-82823437D01*
X189191292Y-82793839D01*
X189193101Y-82756799D01*
X189193165Y-82726009D01*
X189191020Y-82680392D01*
X189184708Y-82629244D01*
X189173739Y-82570614D01*
X189157626Y-82502551D01*
X189135878Y-82423105D01*
X189108008Y-82330325D01*
X189073526Y-82222260D01*
X189045947Y-82138738D01*
X189006226Y-82020469D01*
X188970998Y-81917368D01*
X188938841Y-81825497D01*
X188908336Y-81740918D01*
X188878062Y-81659693D01*
X188846597Y-81577883D01*
X188812522Y-81491552D01*
X188811903Y-81490000D01*
X188788440Y-81431153D01*
X188762930Y-81367126D01*
X188738687Y-81306235D01*
X188721440Y-81262877D01*
X188702529Y-81215890D01*
X188684071Y-81171034D01*
X188668633Y-81134500D01*
X188661311Y-81117877D01*
X188647936Y-81087268D01*
X188630766Y-81046283D01*
X188613257Y-81003187D01*
X188611277Y-80998216D01*
X188593512Y-80954342D01*
X188575229Y-80910546D01*
X188560134Y-80875696D01*
X188559020Y-80873216D01*
X188541141Y-80833549D01*
X188521698Y-80790351D01*
X188514797Y-80775000D01*
X188438041Y-80605782D01*
X188366884Y-80452391D01*
X188299901Y-80311926D01*
X188235669Y-80181487D01*
X188172765Y-80058174D01*
X188109765Y-79939085D01*
X188058390Y-79845000D01*
X188027811Y-79789818D01*
X188000118Y-79739993D01*
X187976917Y-79698405D01*
X187959817Y-79667933D01*
X187950424Y-79651458D01*
X187949552Y-79650000D01*
X187941701Y-79636994D01*
X187925369Y-79609763D01*
X187902322Y-79571257D01*
X187874327Y-79524426D01*
X187843149Y-79472222D01*
X187841822Y-79470000D01*
X187772737Y-79356008D01*
X187699828Y-79238864D01*
X187625813Y-79122786D01*
X187553414Y-79011992D01*
X187485348Y-78910701D01*
X187429226Y-78830000D01*
X187317830Y-78674923D01*
X187209973Y-78528266D01*
X187106720Y-78391393D01*
X187009133Y-78265667D01*
X186918277Y-78152449D01*
X186835217Y-78053103D01*
X186761017Y-77968992D01*
X186734983Y-77940902D01*
X186701858Y-77905567D01*
X186659857Y-77860507D01*
X186613633Y-77810727D01*
X186567839Y-77761233D01*
X186552862Y-77745000D01*
X186330981Y-77514421D01*
X186103378Y-77297638D01*
X185871921Y-77096294D01*
X185638479Y-76912035D01*
X185463751Y-76786408D01*
X185368735Y-76716203D01*
X185278135Y-76640105D01*
X185195459Y-76561454D01*
X185124212Y-76483591D01*
X185067901Y-76409855D01*
X185066802Y-76408225D01*
X185043077Y-76371790D01*
X185029161Y-76346244D01*
X185023068Y-76326321D01*
X185022816Y-76306755D01*
X185024277Y-76295357D01*
X185028795Y-76274718D01*
X185037158Y-76256645D01*
X185052006Y-76238440D01*
X185075979Y-76217404D01*
X185111717Y-76190839D01*
X185157963Y-76158712D01*
X185212888Y-76114436D01*
X185270303Y-76056451D01*
X185325775Y-75989811D01*
X185374870Y-75919571D01*
X185390871Y-75893095D01*
X185406319Y-75862838D01*
X185423591Y-75823720D01*
X185440640Y-75781108D01*
X185455421Y-75740366D01*
X185465888Y-75706859D01*
X185469996Y-75685950D01*
X185470000Y-75685584D01*
X185462031Y-75675178D01*
X185441238Y-75658799D01*
X185415000Y-75641775D01*
X185379737Y-75616820D01*
X185362406Y-75596739D01*
X185361976Y-75583730D01*
X185377414Y-75579987D01*
X185407689Y-75587708D01*
X185434703Y-75599848D01*
X185459366Y-75610850D01*
X185475813Y-75615272D01*
X185478681Y-75614651D01*
X185482402Y-75601538D01*
X185484562Y-75575574D01*
X185485191Y-75543292D01*
X185484315Y-75511226D01*
X185481964Y-75485908D01*
X185478166Y-75473871D01*
X185478073Y-75473809D01*
X185461715Y-75467676D01*
X185431484Y-75459385D01*
X185393204Y-75450227D01*
X185352701Y-75441494D01*
X185315800Y-75434480D01*
X185288329Y-75430475D01*
X185280590Y-75429999D01*
X185257571Y-75425222D01*
X185239354Y-75413850D01*
X185231367Y-75400321D01*
X185234445Y-75392258D01*
X185249355Y-75387978D01*
X185278440Y-75386801D01*
X185316176Y-75388370D01*
X185357040Y-75392327D01*
X185395508Y-75398314D01*
X185420898Y-75404340D01*
X185468979Y-75418619D01*
X185459866Y-75394650D01*
X185438445Y-75346837D01*
X185408279Y-75290998D01*
X185373366Y-75234521D01*
X185372526Y-75233253D01*
X185346361Y-75186244D01*
X185327949Y-75133931D01*
X185316408Y-75072316D01*
X185310856Y-74997400D01*
X185310037Y-74950000D01*
X185305319Y-74800757D01*
X185292333Y-74649237D01*
X185271782Y-74499485D01*
X185244368Y-74355546D01*
X185210792Y-74221465D01*
X185171756Y-74101288D01*
X185155592Y-74060000D01*
X185118960Y-73974793D01*
X185084966Y-73904031D01*
X185050868Y-73842897D01*
X185013919Y-73786573D01*
X184971377Y-73730242D01*
X184959061Y-73715000D01*
X184924994Y-73674294D01*
X184892435Y-73638037D01*
X184859290Y-73604646D01*
X184823466Y-73572536D01*
X184782868Y-73540124D01*
X184735403Y-73505827D01*
X184678977Y-73468060D01*
X184611496Y-73425240D01*
X184530865Y-73375783D01*
X184434992Y-73318107D01*
X184431651Y-73316109D01*
X184373048Y-73280522D01*
X184313698Y-73243519D01*
X184258395Y-73208157D01*
X184211935Y-73177491D01*
X184185510Y-73159221D01*
X184148992Y-73134223D01*
X184117109Y-73114442D01*
X184094149Y-73102431D01*
X184086026Y-73100000D01*
X184064599Y-73094645D01*
X184030610Y-73079894D01*
X183987953Y-73057714D01*
X183940521Y-73030070D01*
X183912167Y-73012185D01*
X183877876Y-72990840D01*
X183845780Y-72972417D01*
X183825560Y-72962189D01*
X183803818Y-72954935D01*
X183788139Y-72959174D01*
X183771878Y-72973576D01*
X183755363Y-72997379D01*
X183740082Y-73031256D01*
X183733726Y-73051409D01*
X183727114Y-73078756D01*
X183725187Y-73099029D01*
X183729082Y-73118689D01*
X183739937Y-73144194D01*
X183755585Y-73175489D01*
X183774621Y-73215493D01*
X183785487Y-73247474D01*
X183790420Y-73280489D01*
X183791650Y-73321479D01*
X183789922Y-73370367D01*
X183783419Y-73406882D01*
X183770940Y-73438155D01*
X183747045Y-73473916D01*
X183718073Y-73494303D01*
X183681275Y-73499949D01*
X183633903Y-73491481D01*
X183595343Y-73478403D01*
X183563517Y-73466823D01*
X183544427Y-73462520D01*
X183532340Y-73465108D01*
X183522253Y-73473460D01*
X183513999Y-73483545D01*
X183510852Y-73495691D01*
X183512904Y-73515068D01*
X183520245Y-73546848D01*
X183523788Y-73560720D01*
X183535110Y-73631901D01*
X183529469Y-73693330D01*
X183506569Y-73746313D01*
X183472572Y-73786373D01*
X183453081Y-73800590D01*
X183429465Y-73807772D01*
X183394389Y-73809972D01*
X183388111Y-73809999D01*
X183352044Y-73808145D01*
X183320873Y-73800975D01*
X183286321Y-73786075D01*
X183262071Y-73773271D01*
X183191480Y-73735194D01*
X183133595Y-73705489D01*
X183084033Y-73682143D01*
X183038410Y-73663140D01*
X182992342Y-73646468D01*
X182970100Y-73639126D01*
X182929270Y-73626409D01*
X182896432Y-73617947D01*
X182865662Y-73613019D01*
X182831039Y-73610905D01*
X182786640Y-73610886D01*
X182745100Y-73611769D01*
X182689832Y-73613500D01*
X182649732Y-73616018D01*
X182619966Y-73620117D01*
X182595704Y-73626588D01*
X182572111Y-73636223D01*
X182559695Y-73642161D01*
X182483884Y-73688724D01*
X182424129Y-73745761D01*
X182391650Y-73792795D01*
X182372181Y-73832427D01*
X182351180Y-73883354D01*
X182331241Y-73938389D01*
X182314957Y-73990348D01*
X182304922Y-74032045D01*
X182304586Y-74033999D01*
X182300173Y-74057782D01*
X182292846Y-74094579D01*
X182283916Y-74137858D01*
X182280300Y-74155000D01*
X182270932Y-74201401D01*
X182262714Y-74246202D01*
X182257033Y-74281704D01*
X182255959Y-74290000D01*
X182244685Y-74376033D01*
X182229874Y-74472160D01*
X182212208Y-74575083D01*
X182192371Y-74681509D01*
X182171046Y-74788141D01*
X182148915Y-74891684D01*
X182126663Y-74988843D01*
X182104972Y-75076322D01*
X182084525Y-75150827D01*
X182066005Y-75209061D01*
X182064667Y-75212809D01*
X182007346Y-75346863D01*
X181937441Y-75465484D01*
X181854434Y-75569167D01*
X181757809Y-75658409D01*
X181647050Y-75733709D01*
X181521641Y-75795562D01*
X181421208Y-75832298D01*
X181384560Y-75843670D01*
X181353847Y-75851850D01*
X181324482Y-75857380D01*
X181291882Y-75860801D01*
X181251462Y-75862655D01*
X181198636Y-75863482D01*
X181155000Y-75863727D01*
X181092230Y-75863828D01*
X181045485Y-75863255D01*
X181010786Y-75861559D01*
X180984160Y-75858294D01*
X180961631Y-75853012D01*
X180939222Y-75845267D01*
X180919215Y-75837205D01*
X180885371Y-75823729D01*
X180858533Y-75813998D01*
X180844237Y-75810012D01*
X180843912Y-75809999D01*
X180830691Y-75804634D01*
X180805793Y-75790496D01*
X180773754Y-75770526D01*
X180739112Y-75747663D01*
X180706401Y-75724845D01*
X180680159Y-75705012D01*
X180674091Y-75699967D01*
X180650358Y-75676848D01*
X180619167Y-75642818D01*
X180584948Y-75603051D01*
X180552134Y-75562718D01*
X180525155Y-75526991D01*
X180521864Y-75522317D01*
X180494579Y-75478003D01*
X180464316Y-75420558D01*
X180433878Y-75355999D01*
X180406068Y-75290343D01*
X180383688Y-75229604D01*
X180379575Y-75216873D01*
X180348907Y-75103815D01*
X180322392Y-74976272D01*
X180300665Y-74839446D01*
X180284360Y-74698539D01*
X180274111Y-74558753D01*
X180270552Y-74425291D01*
X180272413Y-74337693D01*
X180274158Y-74286810D01*
X180273956Y-74255532D01*
X180271787Y-74243907D01*
X180267629Y-74251981D01*
X180261464Y-74279800D01*
X180253270Y-74327409D01*
X180243027Y-74394856D01*
X180240836Y-74410000D01*
X180215982Y-74624280D01*
X180201452Y-74846088D01*
X180197226Y-75070483D01*
X180095004Y-75070483D01*
X180095000Y-75050000D01*
X180095113Y-74948865D01*
X180095538Y-74864717D01*
X180096400Y-74794542D01*
X180097827Y-74735326D01*
X180099942Y-74684058D01*
X180102874Y-74637724D01*
X180106748Y-74593311D01*
X180111691Y-74547805D01*
X180117827Y-74498194D01*
X180118239Y-74495000D01*
X180143719Y-74316080D01*
X180173221Y-74145354D01*
X180207739Y-73978861D01*
X180248268Y-73812642D01*
X180295799Y-73642738D01*
X180351327Y-73465190D01*
X180377539Y-73388343D01*
X180557843Y-73388343D01*
X180567998Y-73591671D01*
X180577345Y-73727948D01*
X180591776Y-73852168D01*
X180612487Y-73970113D01*
X180640673Y-74087566D01*
X180677531Y-74210308D01*
X180722738Y-74340000D01*
X180746450Y-74401473D01*
X180773112Y-74465484D01*
X180801401Y-74529356D01*
X180829995Y-74590413D01*
X180857570Y-74645979D01*
X180882803Y-74693377D01*
X180904371Y-74729932D01*
X180920951Y-74752968D01*
X180930364Y-74759931D01*
X180937486Y-74751998D01*
X180952647Y-74730454D01*
X180973486Y-74698770D01*
X180993252Y-74667500D01*
X181055061Y-74569394D01*
X181111173Y-74483374D01*
X181165361Y-74403904D01*
X181221396Y-74325454D01*
X181282668Y-74243000D01*
X181352104Y-74151001D01*
X181341653Y-74103000D01*
X181336301Y-74076976D01*
X181328193Y-74035757D01*
X181318196Y-73983820D01*
X181307172Y-73925641D01*
X181299567Y-73885000D01*
X181273171Y-73761980D01*
X181242558Y-73656063D01*
X181206648Y-73564598D01*
X181164363Y-73484936D01*
X181114623Y-73414426D01*
X181101400Y-73398506D01*
X181045885Y-73345394D01*
X180980742Y-73302320D01*
X180910590Y-73271372D01*
X180840047Y-73254637D01*
X180780391Y-73253419D01*
X180723102Y-73266142D01*
X180665981Y-73290669D01*
X180616169Y-73323363D01*
X180587404Y-73351671D01*
X180557843Y-73388343D01*
X180377539Y-73388343D01*
X180415845Y-73276038D01*
X180443566Y-73198524D01*
X180459490Y-73151558D01*
X180473234Y-73105664D01*
X180482787Y-73067802D01*
X180485441Y-73053524D01*
X180496609Y-72999211D01*
X180514922Y-72936000D01*
X180538347Y-72869097D01*
X180564852Y-72803706D01*
X180592402Y-72745032D01*
X180618966Y-72698280D01*
X180630650Y-72681754D01*
X180677870Y-72636469D01*
X180739155Y-72600477D01*
X180810420Y-72574669D01*
X180887579Y-72559937D01*
X180966548Y-72557172D01*
X181043242Y-72567266D01*
X181090542Y-72581372D01*
X181153604Y-72610984D01*
X181225092Y-72654805D01*
X181301868Y-72710725D01*
X181380000Y-72775930D01*
X181427270Y-72814911D01*
X181488687Y-72860927D01*
X181560765Y-72911583D01*
X181640014Y-72964480D01*
X181722947Y-73017222D01*
X181792355Y-73059325D01*
X181829710Y-73081452D01*
X181886654Y-73019945D01*
X181939066Y-72968991D01*
X182005111Y-72913512D01*
X182080071Y-72856939D01*
X182159231Y-72802701D01*
X182237872Y-72754227D01*
X182295223Y-72722926D01*
X182310418Y-72715658D01*
X183310848Y-72715658D01*
X183312689Y-72732584D01*
X183323855Y-72739084D01*
X183352952Y-72746097D01*
X183400613Y-72753737D01*
X183467471Y-72762121D01*
X183486341Y-72764245D01*
X183594780Y-72778543D01*
X183687490Y-72796299D01*
X183768631Y-72818844D01*
X183842361Y-72847507D01*
X183912838Y-72883621D01*
X183970000Y-72918985D01*
X184001747Y-72939034D01*
X184020391Y-72948052D01*
X184028748Y-72947114D01*
X184030000Y-72941883D01*
X184028596Y-72929793D01*
X184024703Y-72901276D01*
X184018796Y-72859683D01*
X184011349Y-72808365D01*
X184004131Y-72759383D01*
X183996986Y-72710422D01*
X183991351Y-72668465D01*
X183987096Y-72630317D01*
X183984093Y-72592777D01*
X183982214Y-72552649D01*
X183981332Y-72506735D01*
X183981318Y-72451837D01*
X183982045Y-72384756D01*
X183983384Y-72302294D01*
X183984139Y-72260000D01*
X183985815Y-72173985D01*
X183987712Y-72087952D01*
X183989730Y-72005658D01*
X183991770Y-71930861D01*
X183993735Y-71867317D01*
X183995525Y-71818785D01*
X183996056Y-71806797D01*
X183997665Y-71727747D01*
X183995135Y-71654120D01*
X183988830Y-71589279D01*
X183979110Y-71536585D01*
X183966337Y-71499402D01*
X183962185Y-71492107D01*
X183937675Y-71468331D01*
X183902687Y-71449406D01*
X183866742Y-71440236D01*
X183861028Y-71439999D01*
X183840860Y-71446077D01*
X183810532Y-71462161D01*
X183774883Y-71485031D01*
X183738753Y-71511465D01*
X183706982Y-71538241D01*
X183693552Y-71551483D01*
X183620845Y-71640429D01*
X183552948Y-71746168D01*
X183491179Y-71865800D01*
X183436857Y-71996425D01*
X183391299Y-72135144D01*
X183355826Y-72279056D01*
X183350498Y-72305891D01*
X183343265Y-72349226D01*
X183336029Y-72402196D01*
X183329116Y-72461111D01*
X183322853Y-72522279D01*
X183317568Y-72582008D01*
X183313588Y-72636609D01*
X183311239Y-72682389D01*
X183310848Y-72715658D01*
X182310418Y-72715658D01*
X182358120Y-72692841D01*
X182424965Y-72664214D01*
X182491873Y-72638409D01*
X182554960Y-72616794D01*
X182610342Y-72600733D01*
X182654136Y-72591593D01*
X182673253Y-72590000D01*
X182699270Y-72586920D01*
X182713359Y-72579075D01*
X182714054Y-72577500D01*
X182718079Y-72561291D01*
X182724793Y-72532871D01*
X182730078Y-72510000D01*
X182741869Y-72471984D01*
X182762384Y-72420373D01*
X182789982Y-72358676D01*
X182823024Y-72290402D01*
X182859869Y-72219061D01*
X182898877Y-72148162D01*
X182900679Y-72145000D01*
X182987605Y-72002209D01*
X183078629Y-71870662D01*
X183172757Y-71751179D01*
X183268994Y-71644584D01*
X183366344Y-71551700D01*
X183463814Y-71473351D01*
X183560407Y-71410358D01*
X183655129Y-71363546D01*
X183746985Y-71333736D01*
X183834980Y-71321753D01*
X183892907Y-71324305D01*
G37*
%TD*%
M02*
