%TF.GenerationSoftware,KiCad,Pcbnew,7.0.7*%
%TF.CreationDate,2024-09-12T14:34:45-05:00*%
%TF.ProjectId,ESC,4553432e-6b69-4636-9164-5f7063625858,rev?*%
%TF.SameCoordinates,Original*%
%TF.FileFunction,Copper,L3,Inr*%
%TF.FilePolarity,Positive*%
%FSLAX46Y46*%
G04 Gerber Fmt 4.6, Leading zero omitted, Abs format (unit mm)*
G04 Created by KiCad (PCBNEW 7.0.7) date 2024-09-12 14:34:45*
%MOMM*%
%LPD*%
G01*
G04 APERTURE LIST*
G04 Aperture macros list*
%AMRoundRect*
0 Rectangle with rounded corners*
0 $1 Rounding radius*
0 $2 $3 $4 $5 $6 $7 $8 $9 X,Y pos of 4 corners*
0 Add a 4 corners polygon primitive as box body*
4,1,4,$2,$3,$4,$5,$6,$7,$8,$9,$2,$3,0*
0 Add four circle primitives for the rounded corners*
1,1,$1+$1,$2,$3*
1,1,$1+$1,$4,$5*
1,1,$1+$1,$6,$7*
1,1,$1+$1,$8,$9*
0 Add four rect primitives between the rounded corners*
20,1,$1+$1,$2,$3,$4,$5,0*
20,1,$1+$1,$4,$5,$6,$7,0*
20,1,$1+$1,$6,$7,$8,$9,0*
20,1,$1+$1,$8,$9,$2,$3,0*%
G04 Aperture macros list end*
%TA.AperFunction,ComponentPad*%
%ADD10R,0.900000X2.000000*%
%TD*%
%TA.AperFunction,ComponentPad*%
%ADD11RoundRect,1.025000X-1.025000X-1.025000X1.025000X-1.025000X1.025000X1.025000X-1.025000X1.025000X0*%
%TD*%
%TA.AperFunction,ComponentPad*%
%ADD12C,4.100000*%
%TD*%
%TA.AperFunction,ComponentPad*%
%ADD13R,1.700000X1.700000*%
%TD*%
%TA.AperFunction,ComponentPad*%
%ADD14O,1.700000X1.700000*%
%TD*%
%TA.AperFunction,ComponentPad*%
%ADD15C,1.400000*%
%TD*%
%TA.AperFunction,ComponentPad*%
%ADD16R,3.000000X3.000000*%
%TD*%
%TA.AperFunction,ComponentPad*%
%ADD17C,3.000000*%
%TD*%
%TA.AperFunction,ComponentPad*%
%ADD18R,1.800000X1.800000*%
%TD*%
%TA.AperFunction,ComponentPad*%
%ADD19C,1.800000*%
%TD*%
%TA.AperFunction,ComponentPad*%
%ADD20RoundRect,0.750000X-0.750000X1.250000X-0.750000X-1.250000X0.750000X-1.250000X0.750000X1.250000X0*%
%TD*%
%TA.AperFunction,ViaPad*%
%ADD21C,0.800000*%
%TD*%
G04 APERTURE END LIST*
D10*
%TO.N,*%
%TO.C,J1*%
X198075600Y-70550800D03*
X211575600Y-70550800D03*
D11*
%TO.N,VCC*%
X208425600Y-76550800D03*
D12*
%TO.N,GND*%
X201225600Y-76550800D03*
%TD*%
D13*
%TO.N,GND*%
%TO.C,J4*%
X197307200Y-80975200D03*
D14*
%TO.N,SWCLK*%
X197307200Y-83515200D03*
%TO.N,SWDIO*%
X197307200Y-86055200D03*
%TO.N,+3.3V*%
X197307200Y-88595200D03*
%TD*%
D15*
%TO.N,*%
%TO.C,J2*%
X237435000Y-97741600D03*
X237435000Y-110741600D03*
D16*
%TO.N,/MosFet TIM_1/TIM1_O3*%
X232435000Y-107741600D03*
D17*
%TO.N,/MosFet TIM_1/TIM1_O1*%
X232435000Y-104241600D03*
%TO.N,/MosFet TIM_1/TIM1_O2*%
X232435000Y-100741600D03*
%TD*%
D18*
%TO.N,GND*%
%TO.C,RV1*%
X196864200Y-128165600D03*
D19*
%TO.N,/ADC1_IN4*%
X199364200Y-128165600D03*
%TO.N,Net-(R9-Pad2)*%
X201864200Y-128165600D03*
D20*
%TO.N,N/C*%
X194364200Y-124865600D03*
X204364200Y-124865600D03*
%TD*%
D13*
%TO.N,GND*%
%TO.C,J5*%
X176479200Y-99786200D03*
D14*
%TO.N,TIM9_CH2_input*%
X176479200Y-102326200D03*
%TO.N,+3.3V*%
X176479200Y-104866200D03*
%TD*%
D21*
%TO.N,+3.3V*%
X202900000Y-84000000D03*
X188800000Y-97000000D03*
X183200000Y-106100000D03*
X189400000Y-105200000D03*
X189972298Y-107000000D03*
X186100000Y-105200000D03*
X203600000Y-97300000D03*
X191400000Y-113100000D03*
X201879200Y-118567200D03*
X186000000Y-107400000D03*
X201800000Y-80800000D03*
X193852800Y-73152000D03*
X182000000Y-107400000D03*
X184700000Y-105900000D03*
X199600000Y-109000000D03*
X192600000Y-112300000D03*
X176500000Y-107200000D03*
X189200000Y-99200000D03*
X187400000Y-96800000D03*
X205100000Y-90700000D03*
X189500000Y-94200000D03*
X178600000Y-104900000D03*
%TO.N,GND*%
X196900800Y-129641600D03*
X200800000Y-100700000D03*
X178700000Y-99800000D03*
X216814400Y-119888000D03*
X221900000Y-115400000D03*
X222900000Y-114400000D03*
X184700000Y-110300000D03*
X214200000Y-108000000D03*
X221600000Y-96600000D03*
X185700000Y-99100000D03*
X222400000Y-86400000D03*
X209092800Y-89814400D03*
X216700000Y-89800000D03*
X220800000Y-114400000D03*
X209702400Y-115214400D03*
X202100000Y-101400000D03*
X182000000Y-109200000D03*
X223400000Y-87500000D03*
X195300000Y-105300000D03*
X183200000Y-110300000D03*
X203600000Y-101400000D03*
X186000000Y-109200000D03*
X179600000Y-102900000D03*
X179700000Y-99000000D03*
X183861201Y-100938799D03*
X223400000Y-86400000D03*
X189382400Y-72948800D03*
X223400000Y-85300000D03*
X188100000Y-111600000D03*
X179800000Y-104700000D03*
X202996800Y-90424000D03*
X220500000Y-96600000D03*
X181000000Y-105900000D03*
X212900000Y-106900000D03*
X224400000Y-77500000D03*
X216408000Y-102616000D03*
X195478400Y-128219200D03*
X198300000Y-113700000D03*
X219400000Y-96600000D03*
X219400000Y-97600000D03*
X222400000Y-85300000D03*
X209499200Y-99568000D03*
X222400000Y-87500000D03*
X186210377Y-104206611D03*
X220500000Y-97600000D03*
X199600000Y-110700000D03*
X191200000Y-94100000D03*
X176500000Y-97900000D03*
X221900000Y-114400000D03*
X216800000Y-128000000D03*
X225500000Y-76500000D03*
X222900000Y-115400000D03*
X220800000Y-115400000D03*
X189289623Y-104206611D03*
X195700000Y-100500000D03*
X218000000Y-129200000D03*
X189700000Y-113000000D03*
X221600000Y-97600000D03*
%TO.N,VCC*%
X210000000Y-108000000D03*
X231700000Y-126900000D03*
X225000000Y-85000000D03*
X209600000Y-101300000D03*
X225300000Y-114000000D03*
X221000000Y-128100000D03*
X226500000Y-112900000D03*
X210500000Y-89700000D03*
X226200000Y-85000000D03*
X231700000Y-129200000D03*
X231700000Y-128000000D03*
X230600000Y-126900000D03*
X227600000Y-114000000D03*
X226200000Y-86100000D03*
X230600000Y-128000000D03*
X230600000Y-125700000D03*
X228500000Y-86100000D03*
X230600000Y-129200000D03*
X209600000Y-113400000D03*
X219700000Y-129100000D03*
X209700000Y-116400000D03*
X228500000Y-85000000D03*
X227300000Y-86100000D03*
X209100000Y-85600000D03*
X225300000Y-112900000D03*
X211900000Y-89700000D03*
X228800000Y-114000000D03*
X227300000Y-85000000D03*
X209500000Y-97400000D03*
X228800000Y-112900000D03*
X231700000Y-125700000D03*
X227600000Y-112900000D03*
X225000000Y-86100000D03*
X226500000Y-114000000D03*
%TO.N,/MosFet TIM_1/TIM1_O1*%
X237000000Y-105200000D03*
X240000000Y-104200000D03*
X235300000Y-104200000D03*
X240000000Y-105200000D03*
X237000000Y-104200000D03*
X240000000Y-103100000D03*
X238300000Y-104200000D03*
X235300000Y-103100000D03*
X237000000Y-103100000D03*
X229600000Y-104200000D03*
X238300000Y-103100000D03*
X229600000Y-105300000D03*
X229600000Y-103100000D03*
X235300000Y-105200000D03*
X238300000Y-105200000D03*
%TO.N,/MosFet TIM_1/TIM1_O2*%
X215800000Y-81500000D03*
X216500000Y-79300000D03*
%TO.N,TIM1_CH1N*%
X206248000Y-105054400D03*
X195275200Y-103632000D03*
%TO.N,Net-(Q3-G)*%
X218800000Y-99100000D03*
X217000000Y-108900000D03*
%TO.N,Net-(Q5-G)*%
X217000000Y-123500000D03*
X219000000Y-116000000D03*
%TO.N,Net-(SW1-B)*%
X192400000Y-74600000D03*
%TO.N,Net-(SW2-B)*%
X190900000Y-102400000D03*
%TD*%
%TA.AperFunction,Conductor*%
%TO.N,+3.3V*%
G36*
X205922069Y-67888985D02*
G01*
X205967824Y-67941789D01*
X205979029Y-67993636D01*
X205977084Y-68707659D01*
X205959943Y-74995845D01*
X205950978Y-75041799D01*
X205939436Y-75070479D01*
X205939435Y-75070483D01*
X205885319Y-75310763D01*
X205885318Y-75310770D01*
X205875100Y-75455505D01*
X205875101Y-77646093D01*
X205885318Y-77790827D01*
X205885319Y-77790835D01*
X205939434Y-78031111D01*
X205939436Y-78031120D01*
X205942557Y-78038874D01*
X205951522Y-78085504D01*
X205880473Y-104152125D01*
X205860605Y-104219111D01*
X205807677Y-104264721D01*
X205806912Y-104265065D01*
X205795268Y-104270249D01*
X205642129Y-104381511D01*
X205515466Y-104522185D01*
X205420821Y-104686115D01*
X205420818Y-104686122D01*
X205362327Y-104866140D01*
X205362326Y-104866144D01*
X205342540Y-105054400D01*
X205362326Y-105242656D01*
X205362327Y-105242659D01*
X205420818Y-105422677D01*
X205420821Y-105422684D01*
X205515467Y-105586616D01*
X205628133Y-105711744D01*
X205642129Y-105727288D01*
X205795265Y-105838548D01*
X205795272Y-105838552D01*
X205801996Y-105841546D01*
X205855232Y-105886797D01*
X205875552Y-105953647D01*
X205875558Y-105955162D01*
X205830802Y-122375464D01*
X205810934Y-122442450D01*
X205758006Y-122488060D01*
X205688820Y-122497815D01*
X205655521Y-122488025D01*
X205528881Y-122430503D01*
X205528878Y-122430502D01*
X205310620Y-122375505D01*
X205310613Y-122375504D01*
X205178419Y-122365100D01*
X205178417Y-122365100D01*
X204357632Y-122365100D01*
X203549982Y-122365101D01*
X203417786Y-122375504D01*
X203417779Y-122375505D01*
X203199521Y-122430502D01*
X203199518Y-122430503D01*
X202994577Y-122523591D01*
X202994567Y-122523597D01*
X202809554Y-122651774D01*
X202809542Y-122651784D01*
X202650384Y-122810942D01*
X202650374Y-122810954D01*
X202522197Y-122995967D01*
X202522191Y-122995977D01*
X202429103Y-123200918D01*
X202429102Y-123200921D01*
X202374105Y-123419179D01*
X202374104Y-123419186D01*
X202363700Y-123551381D01*
X202363701Y-126179818D01*
X202374104Y-126312013D01*
X202374105Y-126312020D01*
X202429101Y-126530275D01*
X202429103Y-126530279D01*
X202429104Y-126530283D01*
X202471424Y-126623453D01*
X202497649Y-126681190D01*
X202507450Y-126750369D01*
X202478296Y-126813865D01*
X202419440Y-126851519D01*
X202349571Y-126851376D01*
X202344486Y-126849752D01*
X202209184Y-126803302D01*
X202018650Y-126771508D01*
X201980249Y-126765100D01*
X201748151Y-126765100D01*
X201709750Y-126771508D01*
X201519215Y-126803302D01*
X201299704Y-126878661D01*
X201299695Y-126878664D01*
X201095571Y-126989131D01*
X201095565Y-126989135D01*
X200912422Y-127131681D01*
X200912419Y-127131684D01*
X200912416Y-127131686D01*
X200912416Y-127131687D01*
X200764700Y-127292151D01*
X200755215Y-127302454D01*
X200718008Y-127359404D01*
X200664862Y-127404761D01*
X200595630Y-127414184D01*
X200532295Y-127384682D01*
X200510392Y-127359404D01*
X200473184Y-127302454D01*
X200473182Y-127302452D01*
X200473179Y-127302447D01*
X200315984Y-127131687D01*
X200315979Y-127131683D01*
X200315977Y-127131681D01*
X200132834Y-126989135D01*
X200132828Y-126989131D01*
X199928704Y-126878664D01*
X199928695Y-126878661D01*
X199709184Y-126803302D01*
X199518650Y-126771508D01*
X199480249Y-126765100D01*
X199248151Y-126765100D01*
X199209750Y-126771508D01*
X199019215Y-126803302D01*
X198799704Y-126878661D01*
X198799695Y-126878664D01*
X198595572Y-126989131D01*
X198418636Y-127126845D01*
X198353642Y-127152487D01*
X198285102Y-127138920D01*
X198234777Y-127090452D01*
X198226292Y-127072323D01*
X198207998Y-127023273D01*
X198207993Y-127023264D01*
X198121747Y-126908055D01*
X198121744Y-126908052D01*
X198006535Y-126821806D01*
X198006528Y-126821802D01*
X197871682Y-126771508D01*
X197871683Y-126771508D01*
X197812083Y-126765101D01*
X197812081Y-126765100D01*
X197812073Y-126765100D01*
X197812065Y-126765100D01*
X196385153Y-126765100D01*
X196318114Y-126745415D01*
X196272359Y-126692611D01*
X196262415Y-126623453D01*
X196272251Y-126589822D01*
X196299296Y-126530283D01*
X196354296Y-126312012D01*
X196364700Y-126179817D01*
X196364699Y-123551384D01*
X196354296Y-123419188D01*
X196299296Y-123200917D01*
X196206207Y-122995974D01*
X196078019Y-122810946D01*
X195918854Y-122651781D01*
X195918850Y-122651778D01*
X195918845Y-122651774D01*
X195733832Y-122523597D01*
X195733830Y-122523595D01*
X195733826Y-122523593D01*
X195655597Y-122488060D01*
X195528881Y-122430503D01*
X195528878Y-122430502D01*
X195310620Y-122375505D01*
X195310613Y-122375504D01*
X195178419Y-122365100D01*
X195178417Y-122365100D01*
X194363392Y-122365100D01*
X193549982Y-122365101D01*
X193417786Y-122375504D01*
X193417779Y-122375505D01*
X193199521Y-122430502D01*
X193199518Y-122430503D01*
X192994577Y-122523591D01*
X192994567Y-122523597D01*
X192809554Y-122651774D01*
X192809542Y-122651784D01*
X192650384Y-122810942D01*
X192650374Y-122810954D01*
X192522197Y-122995967D01*
X192522191Y-122995977D01*
X192429103Y-123200918D01*
X192429102Y-123200921D01*
X192374105Y-123419179D01*
X192374104Y-123419186D01*
X192363700Y-123551381D01*
X192363701Y-126179818D01*
X192374104Y-126312013D01*
X192374105Y-126312020D01*
X192429102Y-126530278D01*
X192429103Y-126530281D01*
X192522191Y-126735222D01*
X192522197Y-126735232D01*
X192650374Y-126920245D01*
X192650378Y-126920250D01*
X192650381Y-126920254D01*
X192809546Y-127079419D01*
X192809550Y-127079422D01*
X192809554Y-127079425D01*
X192948803Y-127175897D01*
X192994574Y-127207607D01*
X193199517Y-127300696D01*
X193199521Y-127300697D01*
X193417779Y-127355694D01*
X193417781Y-127355694D01*
X193417788Y-127355696D01*
X193529172Y-127364462D01*
X193549981Y-127366100D01*
X193549982Y-127366099D01*
X193549983Y-127366100D01*
X194756284Y-127366099D01*
X194823323Y-127385784D01*
X194869078Y-127438587D01*
X194879022Y-127507746D01*
X194849997Y-127571302D01*
X194848434Y-127573071D01*
X194745866Y-127686984D01*
X194651221Y-127850915D01*
X194651218Y-127850922D01*
X194592727Y-128030940D01*
X194592726Y-128030944D01*
X194572940Y-128219200D01*
X194592726Y-128407456D01*
X194592727Y-128407459D01*
X194651218Y-128587477D01*
X194651221Y-128587484D01*
X194745867Y-128751416D01*
X194872529Y-128892088D01*
X195025665Y-129003348D01*
X195025670Y-129003351D01*
X195198592Y-129080342D01*
X195198593Y-129080342D01*
X195198597Y-129080344D01*
X195383754Y-129119700D01*
X195383756Y-129119700D01*
X195389312Y-129120881D01*
X195450794Y-129154073D01*
X195479714Y-129198837D01*
X195520403Y-129307930D01*
X195520406Y-129307935D01*
X195606652Y-129423144D01*
X195606655Y-129423147D01*
X195721864Y-129509393D01*
X195721871Y-129509397D01*
X195721874Y-129509398D01*
X195856717Y-129559691D01*
X195888623Y-129563121D01*
X195953172Y-129589858D01*
X195993020Y-129647250D01*
X195998687Y-129673448D01*
X196015126Y-129829856D01*
X196015127Y-129829859D01*
X196073618Y-130009877D01*
X196073621Y-130009884D01*
X196168267Y-130173816D01*
X196294929Y-130314488D01*
X196448065Y-130425748D01*
X196448070Y-130425751D01*
X196620992Y-130502742D01*
X196620997Y-130502744D01*
X196806154Y-130542100D01*
X196806155Y-130542100D01*
X196995444Y-130542100D01*
X196995446Y-130542100D01*
X197180603Y-130502744D01*
X197353530Y-130425751D01*
X197506671Y-130314488D01*
X197633333Y-130173816D01*
X197727979Y-130009884D01*
X197786474Y-129829856D01*
X197804523Y-129658123D01*
X197831106Y-129593512D01*
X197884509Y-129554906D01*
X198006531Y-129509396D01*
X198121746Y-129423146D01*
X198207996Y-129307931D01*
X198226292Y-129258874D01*
X198268161Y-129202942D01*
X198333625Y-129178524D01*
X198401899Y-129193375D01*
X198418636Y-129204355D01*
X198595565Y-129342064D01*
X198595571Y-129342068D01*
X198595574Y-129342070D01*
X198799697Y-129452536D01*
X198913687Y-129491668D01*
X199019215Y-129527897D01*
X199019217Y-129527897D01*
X199019219Y-129527898D01*
X199248151Y-129566100D01*
X199248152Y-129566100D01*
X199480248Y-129566100D01*
X199480249Y-129566100D01*
X199709181Y-129527898D01*
X199928703Y-129452536D01*
X200132826Y-129342070D01*
X200315984Y-129199513D01*
X200473179Y-129028753D01*
X200510390Y-128971796D01*
X200563537Y-128926439D01*
X200632769Y-128917015D01*
X200696104Y-128946517D01*
X200718009Y-128971796D01*
X200755216Y-129028747D01*
X200755219Y-129028751D01*
X200755221Y-129028753D01*
X200912416Y-129199513D01*
X200912419Y-129199515D01*
X200912422Y-129199518D01*
X201095565Y-129342064D01*
X201095571Y-129342068D01*
X201095574Y-129342070D01*
X201299697Y-129452536D01*
X201413687Y-129491668D01*
X201519215Y-129527897D01*
X201519217Y-129527897D01*
X201519219Y-129527898D01*
X201748151Y-129566100D01*
X201748152Y-129566100D01*
X201980248Y-129566100D01*
X201980249Y-129566100D01*
X202209181Y-129527898D01*
X202428703Y-129452536D01*
X202632826Y-129342070D01*
X202815984Y-129199513D01*
X202973179Y-129028753D01*
X203100124Y-128834449D01*
X203193357Y-128621900D01*
X203250334Y-128396905D01*
X203269500Y-128165600D01*
X203269500Y-128165593D01*
X203250335Y-127934302D01*
X203250333Y-127934291D01*
X203193357Y-127709299D01*
X203100122Y-127496746D01*
X203097684Y-127492241D01*
X203098885Y-127491590D01*
X203080527Y-127430770D01*
X203099704Y-127363584D01*
X203152161Y-127317431D01*
X203221242Y-127306965D01*
X203234819Y-127309591D01*
X203417788Y-127355696D01*
X203529172Y-127364462D01*
X203549981Y-127366100D01*
X203549982Y-127366099D01*
X203549983Y-127366100D01*
X204357632Y-127366099D01*
X205178418Y-127366099D01*
X205197705Y-127364580D01*
X205310612Y-127355696D01*
X205528883Y-127300696D01*
X205641930Y-127249347D01*
X205711107Y-127239545D01*
X205774604Y-127268700D01*
X205812258Y-127327555D01*
X205817210Y-127362585D01*
X205804690Y-131955838D01*
X205784822Y-132022824D01*
X205731894Y-132068434D01*
X205680690Y-132079500D01*
X174368500Y-132079500D01*
X174301461Y-132059815D01*
X174255706Y-132007011D01*
X174244500Y-131955500D01*
X174244500Y-113000000D01*
X188794540Y-113000000D01*
X188814326Y-113188256D01*
X188814327Y-113188259D01*
X188872818Y-113368277D01*
X188872821Y-113368284D01*
X188967467Y-113532216D01*
X189094129Y-113672888D01*
X189247265Y-113784148D01*
X189247270Y-113784151D01*
X189420192Y-113861142D01*
X189420197Y-113861144D01*
X189605354Y-113900500D01*
X189605355Y-113900500D01*
X189794644Y-113900500D01*
X189794646Y-113900500D01*
X189979803Y-113861144D01*
X190152730Y-113784151D01*
X190268554Y-113700000D01*
X197394540Y-113700000D01*
X197414326Y-113888256D01*
X197414327Y-113888259D01*
X197472818Y-114068277D01*
X197472821Y-114068284D01*
X197567467Y-114232216D01*
X197694128Y-114372887D01*
X197694129Y-114372888D01*
X197847265Y-114484148D01*
X197847270Y-114484151D01*
X198020192Y-114561142D01*
X198020197Y-114561144D01*
X198205354Y-114600500D01*
X198205355Y-114600500D01*
X198394644Y-114600500D01*
X198394646Y-114600500D01*
X198579803Y-114561144D01*
X198752730Y-114484151D01*
X198905871Y-114372888D01*
X199032533Y-114232216D01*
X199127179Y-114068284D01*
X199185674Y-113888256D01*
X199205460Y-113700000D01*
X199185674Y-113511744D01*
X199127179Y-113331716D01*
X199032533Y-113167784D01*
X198905871Y-113027112D01*
X198905870Y-113027111D01*
X198752734Y-112915851D01*
X198752729Y-112915848D01*
X198579807Y-112838857D01*
X198579802Y-112838855D01*
X198434000Y-112807865D01*
X198394646Y-112799500D01*
X198205354Y-112799500D01*
X198172897Y-112806398D01*
X198020197Y-112838855D01*
X198020192Y-112838857D01*
X197847270Y-112915848D01*
X197847265Y-112915851D01*
X197694129Y-113027111D01*
X197567466Y-113167785D01*
X197472821Y-113331715D01*
X197472818Y-113331722D01*
X197414327Y-113511740D01*
X197414326Y-113511744D01*
X197394540Y-113700000D01*
X190268554Y-113700000D01*
X190305871Y-113672888D01*
X190432533Y-113532216D01*
X190527179Y-113368284D01*
X190585674Y-113188256D01*
X190605460Y-113000000D01*
X190585674Y-112811744D01*
X190527179Y-112631716D01*
X190432533Y-112467784D01*
X190305871Y-112327112D01*
X190305870Y-112327111D01*
X190152734Y-112215851D01*
X190152729Y-112215848D01*
X189979807Y-112138857D01*
X189979802Y-112138855D01*
X189834000Y-112107865D01*
X189794646Y-112099500D01*
X189605354Y-112099500D01*
X189572897Y-112106398D01*
X189420197Y-112138855D01*
X189420192Y-112138857D01*
X189247270Y-112215848D01*
X189247265Y-112215851D01*
X189094129Y-112327111D01*
X188967466Y-112467785D01*
X188872821Y-112631715D01*
X188872818Y-112631722D01*
X188818304Y-112799500D01*
X188814326Y-112811744D01*
X188794540Y-113000000D01*
X174244500Y-113000000D01*
X174244500Y-111600000D01*
X187194540Y-111600000D01*
X187214326Y-111788256D01*
X187214327Y-111788259D01*
X187272818Y-111968277D01*
X187272821Y-111968284D01*
X187367467Y-112132216D01*
X187373446Y-112138856D01*
X187494129Y-112272888D01*
X187647265Y-112384148D01*
X187647270Y-112384151D01*
X187820192Y-112461142D01*
X187820197Y-112461144D01*
X188005354Y-112500500D01*
X188005355Y-112500500D01*
X188194644Y-112500500D01*
X188194646Y-112500500D01*
X188379803Y-112461144D01*
X188552730Y-112384151D01*
X188705871Y-112272888D01*
X188832533Y-112132216D01*
X188927179Y-111968284D01*
X188985674Y-111788256D01*
X189005460Y-111600000D01*
X188985674Y-111411744D01*
X188931112Y-111243823D01*
X188927181Y-111231722D01*
X188927180Y-111231721D01*
X188927179Y-111231716D01*
X188832533Y-111067784D01*
X188705871Y-110927112D01*
X188705870Y-110927111D01*
X188552734Y-110815851D01*
X188552729Y-110815848D01*
X188379807Y-110738857D01*
X188379802Y-110738855D01*
X188234000Y-110707865D01*
X188196998Y-110700000D01*
X198694540Y-110700000D01*
X198714326Y-110888256D01*
X198714327Y-110888259D01*
X198772818Y-111068277D01*
X198772821Y-111068284D01*
X198867467Y-111232216D01*
X198994129Y-111372887D01*
X198994129Y-111372888D01*
X199147265Y-111484148D01*
X199147270Y-111484151D01*
X199320192Y-111561142D01*
X199320197Y-111561144D01*
X199505354Y-111600500D01*
X199505355Y-111600500D01*
X199694644Y-111600500D01*
X199694646Y-111600500D01*
X199879803Y-111561144D01*
X200052730Y-111484151D01*
X200205871Y-111372888D01*
X200332533Y-111232216D01*
X200427179Y-111068284D01*
X200485674Y-110888256D01*
X200505460Y-110700000D01*
X200485674Y-110511744D01*
X200427179Y-110331716D01*
X200332533Y-110167784D01*
X200205871Y-110027112D01*
X200205870Y-110027111D01*
X200052734Y-109915851D01*
X200052729Y-109915848D01*
X199879807Y-109838857D01*
X199879802Y-109838855D01*
X199734001Y-109807865D01*
X199694646Y-109799500D01*
X199505354Y-109799500D01*
X199472897Y-109806398D01*
X199320197Y-109838855D01*
X199320192Y-109838857D01*
X199147270Y-109915848D01*
X199147265Y-109915851D01*
X198994129Y-110027111D01*
X198867466Y-110167785D01*
X198772821Y-110331715D01*
X198772818Y-110331722D01*
X198714327Y-110511740D01*
X198714326Y-110511744D01*
X198697874Y-110668277D01*
X198694593Y-110699500D01*
X198694540Y-110700000D01*
X188196998Y-110700000D01*
X188194646Y-110699500D01*
X188005354Y-110699500D01*
X187972897Y-110706398D01*
X187820197Y-110738855D01*
X187820192Y-110738857D01*
X187647270Y-110815848D01*
X187647265Y-110815851D01*
X187494129Y-110927111D01*
X187367466Y-111067785D01*
X187272821Y-111231715D01*
X187272818Y-111231722D01*
X187226951Y-111372888D01*
X187214326Y-111411744D01*
X187194540Y-111600000D01*
X174244500Y-111600000D01*
X174244500Y-109200000D01*
X181094540Y-109200000D01*
X181114326Y-109388256D01*
X181114327Y-109388259D01*
X181172818Y-109568277D01*
X181172821Y-109568284D01*
X181267467Y-109732216D01*
X181363487Y-109838857D01*
X181394129Y-109872888D01*
X181547265Y-109984148D01*
X181547270Y-109984151D01*
X181720192Y-110061142D01*
X181720197Y-110061144D01*
X181905354Y-110100500D01*
X181905355Y-110100500D01*
X182094644Y-110100500D01*
X182094646Y-110100500D01*
X182153613Y-110087966D01*
X182223280Y-110093282D01*
X182279014Y-110135419D01*
X182303119Y-110200999D01*
X182302715Y-110222217D01*
X182294540Y-110300000D01*
X182314326Y-110488256D01*
X182314327Y-110488259D01*
X182372818Y-110668277D01*
X182372821Y-110668284D01*
X182467467Y-110832216D01*
X182552911Y-110927111D01*
X182594129Y-110972888D01*
X182747265Y-111084148D01*
X182747270Y-111084151D01*
X182920192Y-111161142D01*
X182920197Y-111161144D01*
X183105354Y-111200500D01*
X183105355Y-111200500D01*
X183294644Y-111200500D01*
X183294646Y-111200500D01*
X183479803Y-111161144D01*
X183652730Y-111084151D01*
X183805871Y-110972888D01*
X183857851Y-110915157D01*
X183917334Y-110878511D01*
X183987191Y-110879840D01*
X184042147Y-110915157D01*
X184094129Y-110972888D01*
X184094132Y-110972890D01*
X184247265Y-111084148D01*
X184247270Y-111084151D01*
X184420192Y-111161142D01*
X184420197Y-111161144D01*
X184605354Y-111200500D01*
X184605355Y-111200500D01*
X184794644Y-111200500D01*
X184794646Y-111200500D01*
X184979803Y-111161144D01*
X185152730Y-111084151D01*
X185305871Y-110972888D01*
X185432533Y-110832216D01*
X185527179Y-110668284D01*
X185585674Y-110488256D01*
X185605460Y-110300000D01*
X185594999Y-110200473D01*
X185607568Y-110131747D01*
X185655300Y-110080723D01*
X185723040Y-110063605D01*
X185744102Y-110066225D01*
X185905354Y-110100500D01*
X185905355Y-110100500D01*
X186094644Y-110100500D01*
X186094646Y-110100500D01*
X186279803Y-110061144D01*
X186452730Y-109984151D01*
X186605871Y-109872888D01*
X186732533Y-109732216D01*
X186827179Y-109568284D01*
X186885674Y-109388256D01*
X186905460Y-109200000D01*
X186885674Y-109011744D01*
X186827179Y-108831716D01*
X186732533Y-108667784D01*
X186605871Y-108527112D01*
X186605870Y-108527111D01*
X186452734Y-108415851D01*
X186452729Y-108415848D01*
X186279807Y-108338857D01*
X186279802Y-108338855D01*
X186134001Y-108307865D01*
X186094646Y-108299500D01*
X185905354Y-108299500D01*
X185872897Y-108306398D01*
X185720197Y-108338855D01*
X185720192Y-108338857D01*
X185547270Y-108415848D01*
X185547265Y-108415851D01*
X185394129Y-108527111D01*
X185267466Y-108667785D01*
X185172821Y-108831715D01*
X185172818Y-108831722D01*
X185114327Y-109011740D01*
X185114326Y-109011744D01*
X185094539Y-109199999D01*
X185094540Y-109200000D01*
X185105000Y-109299523D01*
X185092430Y-109368253D01*
X185044698Y-109419276D01*
X184976958Y-109436394D01*
X184955899Y-109433775D01*
X184943149Y-109431065D01*
X184794646Y-109399500D01*
X184605354Y-109399500D01*
X184572897Y-109406398D01*
X184420197Y-109438855D01*
X184420192Y-109438857D01*
X184247270Y-109515848D01*
X184247265Y-109515851D01*
X184094129Y-109627111D01*
X184094128Y-109627112D01*
X184042148Y-109684841D01*
X183982661Y-109721489D01*
X183912804Y-109720158D01*
X183857850Y-109684841D01*
X183805871Y-109627112D01*
X183805870Y-109627111D01*
X183652734Y-109515851D01*
X183652729Y-109515848D01*
X183479807Y-109438857D01*
X183479802Y-109438855D01*
X183328595Y-109406716D01*
X183294646Y-109399500D01*
X183105354Y-109399500D01*
X183071405Y-109406716D01*
X183046384Y-109412034D01*
X182976717Y-109406716D01*
X182920984Y-109364578D01*
X182896880Y-109298998D01*
X182897283Y-109277793D01*
X182905460Y-109200000D01*
X182885674Y-109011744D01*
X182827179Y-108831716D01*
X182732533Y-108667784D01*
X182605871Y-108527112D01*
X182605870Y-108527111D01*
X182452734Y-108415851D01*
X182452729Y-108415848D01*
X182279807Y-108338857D01*
X182279802Y-108338855D01*
X182134001Y-108307865D01*
X182094646Y-108299500D01*
X181905354Y-108299500D01*
X181872897Y-108306398D01*
X181720197Y-108338855D01*
X181720192Y-108338857D01*
X181547270Y-108415848D01*
X181547265Y-108415851D01*
X181394129Y-108527111D01*
X181267466Y-108667785D01*
X181172821Y-108831715D01*
X181172818Y-108831722D01*
X181114327Y-109011740D01*
X181114326Y-109011744D01*
X181094540Y-109200000D01*
X174244500Y-109200000D01*
X174244500Y-102326200D01*
X175123541Y-102326200D01*
X175144136Y-102561603D01*
X175144138Y-102561613D01*
X175205294Y-102789855D01*
X175205296Y-102789859D01*
X175205297Y-102789863D01*
X175284219Y-102959111D01*
X175305165Y-103004030D01*
X175305167Y-103004034D01*
X175440701Y-103197595D01*
X175440706Y-103197602D01*
X175607797Y-103364693D01*
X175607803Y-103364698D01*
X175793794Y-103494930D01*
X175837419Y-103549507D01*
X175844613Y-103619005D01*
X175813090Y-103681360D01*
X175793795Y-103698080D01*
X175608122Y-103828090D01*
X175608120Y-103828091D01*
X175441091Y-103995120D01*
X175441086Y-103995126D01*
X175305600Y-104188620D01*
X175305599Y-104188622D01*
X175205770Y-104402707D01*
X175205767Y-104402713D01*
X175148564Y-104616199D01*
X175148564Y-104616200D01*
X175865853Y-104616200D01*
X175932892Y-104635885D01*
X175978647Y-104688689D01*
X175988591Y-104757847D01*
X175984831Y-104775133D01*
X175979200Y-104794311D01*
X175979200Y-104938088D01*
X175984831Y-104957267D01*
X175984830Y-105027136D01*
X175947055Y-105085914D01*
X175883499Y-105114938D01*
X175865853Y-105116200D01*
X175148564Y-105116200D01*
X175205767Y-105329686D01*
X175205770Y-105329692D01*
X175305599Y-105543778D01*
X175441094Y-105737282D01*
X175608117Y-105904305D01*
X175801621Y-106039800D01*
X176015707Y-106139629D01*
X176015716Y-106139633D01*
X176229200Y-106196834D01*
X176229200Y-105478501D01*
X176248885Y-105411462D01*
X176301689Y-105365707D01*
X176370847Y-105355763D01*
X176443437Y-105366200D01*
X176443438Y-105366200D01*
X176514962Y-105366200D01*
X176514963Y-105366200D01*
X176587552Y-105355763D01*
X176656710Y-105365707D01*
X176709514Y-105411461D01*
X176729199Y-105478501D01*
X176729199Y-106196834D01*
X176942683Y-106139633D01*
X176942692Y-106139629D01*
X177156778Y-106039800D01*
X177350282Y-105904305D01*
X177517305Y-105737282D01*
X177652800Y-105543778D01*
X177752629Y-105329692D01*
X177752632Y-105329686D01*
X177809836Y-105116200D01*
X177092547Y-105116200D01*
X177025508Y-105096515D01*
X176979753Y-105043711D01*
X176969809Y-104974553D01*
X176973569Y-104957267D01*
X176979200Y-104938088D01*
X176979200Y-104794311D01*
X176973569Y-104775133D01*
X176973570Y-104705264D01*
X177011345Y-104646486D01*
X177074901Y-104617462D01*
X177092547Y-104616200D01*
X177809836Y-104616200D01*
X177809835Y-104616199D01*
X177752632Y-104402713D01*
X177752629Y-104402707D01*
X177652800Y-104188622D01*
X177652799Y-104188620D01*
X177517313Y-103995126D01*
X177517308Y-103995120D01*
X177350278Y-103828090D01*
X177164605Y-103698079D01*
X177120980Y-103643502D01*
X177113788Y-103574004D01*
X177145310Y-103511649D01*
X177164606Y-103494930D01*
X177254171Y-103432216D01*
X177350601Y-103364695D01*
X177517695Y-103197601D01*
X177653235Y-103004030D01*
X177701745Y-102900000D01*
X178694540Y-102900000D01*
X178714326Y-103088256D01*
X178714327Y-103088259D01*
X178772818Y-103268277D01*
X178772821Y-103268284D01*
X178867467Y-103432216D01*
X178928712Y-103500235D01*
X178994129Y-103572888D01*
X179147265Y-103684148D01*
X179147270Y-103684151D01*
X179272804Y-103740043D01*
X179326041Y-103785293D01*
X179346362Y-103852142D01*
X179327317Y-103919366D01*
X179295254Y-103953640D01*
X179194127Y-104027113D01*
X179067466Y-104167785D01*
X178972821Y-104331715D01*
X178972818Y-104331722D01*
X178917499Y-104501978D01*
X178914326Y-104511744D01*
X178894540Y-104700000D01*
X178914326Y-104888256D01*
X178914327Y-104888259D01*
X178972818Y-105068277D01*
X178972821Y-105068284D01*
X179067467Y-105232216D01*
X179155230Y-105329686D01*
X179194129Y-105372888D01*
X179347265Y-105484148D01*
X179347270Y-105484151D01*
X179520192Y-105561142D01*
X179520197Y-105561144D01*
X179705354Y-105600500D01*
X179705355Y-105600500D01*
X179894644Y-105600500D01*
X179894646Y-105600500D01*
X179964364Y-105585681D01*
X180034031Y-105590997D01*
X180089765Y-105633134D01*
X180113870Y-105698714D01*
X180113466Y-105719925D01*
X180094540Y-105900000D01*
X180114326Y-106088256D01*
X180114327Y-106088259D01*
X180172818Y-106268277D01*
X180172821Y-106268284D01*
X180267467Y-106432216D01*
X180394129Y-106572887D01*
X180394129Y-106572888D01*
X180547265Y-106684148D01*
X180547270Y-106684151D01*
X180720192Y-106761142D01*
X180720197Y-106761144D01*
X180905354Y-106800500D01*
X180905355Y-106800500D01*
X181094644Y-106800500D01*
X181094646Y-106800500D01*
X181279803Y-106761144D01*
X181452730Y-106684151D01*
X181605871Y-106572888D01*
X181732533Y-106432216D01*
X181827179Y-106268284D01*
X181885674Y-106088256D01*
X181905460Y-105900000D01*
X181885674Y-105711744D01*
X181827179Y-105531716D01*
X181732533Y-105367784D01*
X181605871Y-105227112D01*
X181605870Y-105227111D01*
X181452734Y-105115851D01*
X181452729Y-105115848D01*
X181279807Y-105038857D01*
X181279802Y-105038855D01*
X181134001Y-105007865D01*
X181094646Y-104999500D01*
X180905354Y-104999500D01*
X180905353Y-104999500D01*
X180835634Y-105014319D01*
X180765967Y-105009003D01*
X180710234Y-104966866D01*
X180686129Y-104901286D01*
X180686532Y-104880086D01*
X180705460Y-104700000D01*
X180685674Y-104511744D01*
X180627179Y-104331716D01*
X180554950Y-104206611D01*
X185304917Y-104206611D01*
X185324703Y-104394867D01*
X185324704Y-104394870D01*
X185383195Y-104574888D01*
X185383198Y-104574895D01*
X185477844Y-104738827D01*
X185592481Y-104866144D01*
X185604506Y-104879499D01*
X185757642Y-104990759D01*
X185757647Y-104990762D01*
X185930569Y-105067753D01*
X185930574Y-105067755D01*
X186115731Y-105107111D01*
X186115732Y-105107111D01*
X186305021Y-105107111D01*
X186305023Y-105107111D01*
X186490180Y-105067755D01*
X186663107Y-104990762D01*
X186816248Y-104879499D01*
X186942910Y-104738827D01*
X187037556Y-104574895D01*
X187096051Y-104394867D01*
X187115837Y-104206611D01*
X188384163Y-104206611D01*
X188403949Y-104394867D01*
X188403950Y-104394870D01*
X188462441Y-104574888D01*
X188462444Y-104574895D01*
X188557090Y-104738827D01*
X188671727Y-104866144D01*
X188683752Y-104879499D01*
X188836888Y-104990759D01*
X188836893Y-104990762D01*
X189009815Y-105067753D01*
X189009820Y-105067755D01*
X189194977Y-105107111D01*
X189194978Y-105107111D01*
X189384267Y-105107111D01*
X189384269Y-105107111D01*
X189569426Y-105067755D01*
X189742353Y-104990762D01*
X189895494Y-104879499D01*
X190022156Y-104738827D01*
X190116802Y-104574895D01*
X190175297Y-104394867D01*
X190195083Y-104206611D01*
X190175297Y-104018355D01*
X190116802Y-103838327D01*
X190022156Y-103674395D01*
X189983983Y-103632000D01*
X194369740Y-103632000D01*
X194389526Y-103820256D01*
X194389527Y-103820259D01*
X194448018Y-104000277D01*
X194448021Y-104000284D01*
X194542667Y-104164216D01*
X194669329Y-104304888D01*
X194753718Y-104366200D01*
X194765405Y-104374691D01*
X194808070Y-104430021D01*
X194814049Y-104499634D01*
X194781443Y-104561429D01*
X194765405Y-104575327D01*
X194694127Y-104627113D01*
X194567466Y-104767785D01*
X194472821Y-104931715D01*
X194472818Y-104931722D01*
X194419274Y-105096515D01*
X194414326Y-105111744D01*
X194394540Y-105300000D01*
X194414326Y-105488256D01*
X194414327Y-105488259D01*
X194472818Y-105668277D01*
X194472821Y-105668284D01*
X194567467Y-105832216D01*
X194678168Y-105955162D01*
X194694129Y-105972888D01*
X194847265Y-106084148D01*
X194847270Y-106084151D01*
X195020192Y-106161142D01*
X195020197Y-106161144D01*
X195205354Y-106200500D01*
X195205355Y-106200500D01*
X195394644Y-106200500D01*
X195394646Y-106200500D01*
X195579803Y-106161144D01*
X195752730Y-106084151D01*
X195905871Y-105972888D01*
X196032533Y-105832216D01*
X196127179Y-105668284D01*
X196185674Y-105488256D01*
X196205460Y-105300000D01*
X196185674Y-105111744D01*
X196127179Y-104931716D01*
X196032533Y-104767784D01*
X195905871Y-104627112D01*
X195809794Y-104557308D01*
X195767129Y-104501978D01*
X195761150Y-104432364D01*
X195793756Y-104370569D01*
X195809788Y-104356677D01*
X195881071Y-104304888D01*
X196007733Y-104164216D01*
X196102379Y-104000284D01*
X196160874Y-103820256D01*
X196180660Y-103632000D01*
X196160874Y-103443744D01*
X196102379Y-103263716D01*
X196007733Y-103099784D01*
X195881071Y-102959112D01*
X195844052Y-102932216D01*
X195727934Y-102847851D01*
X195727929Y-102847848D01*
X195555007Y-102770857D01*
X195555002Y-102770855D01*
X195409200Y-102739865D01*
X195369846Y-102731500D01*
X195180554Y-102731500D01*
X195148097Y-102738398D01*
X194995397Y-102770855D01*
X194995392Y-102770857D01*
X194822470Y-102847848D01*
X194822465Y-102847851D01*
X194669329Y-102959111D01*
X194542666Y-103099785D01*
X194448021Y-103263715D01*
X194448018Y-103263722D01*
X194389527Y-103443740D01*
X194389526Y-103443744D01*
X194369740Y-103632000D01*
X189983983Y-103632000D01*
X189895494Y-103533723D01*
X189842100Y-103494930D01*
X189742357Y-103422462D01*
X189742352Y-103422459D01*
X189569430Y-103345468D01*
X189569425Y-103345466D01*
X189423623Y-103314476D01*
X189384269Y-103306111D01*
X189194977Y-103306111D01*
X189162520Y-103313009D01*
X189009820Y-103345466D01*
X189009815Y-103345468D01*
X188836893Y-103422459D01*
X188836888Y-103422462D01*
X188683752Y-103533722D01*
X188557089Y-103674396D01*
X188462444Y-103838326D01*
X188462441Y-103838333D01*
X188403950Y-104018351D01*
X188403949Y-104018355D01*
X188384163Y-104206611D01*
X187115837Y-104206611D01*
X187096051Y-104018355D01*
X187037556Y-103838327D01*
X186942910Y-103674395D01*
X186816248Y-103533723D01*
X186762854Y-103494930D01*
X186663111Y-103422462D01*
X186663106Y-103422459D01*
X186490184Y-103345468D01*
X186490179Y-103345466D01*
X186344377Y-103314476D01*
X186305023Y-103306111D01*
X186115731Y-103306111D01*
X186083274Y-103313009D01*
X185930574Y-103345466D01*
X185930569Y-103345468D01*
X185757647Y-103422459D01*
X185757642Y-103422462D01*
X185604506Y-103533722D01*
X185477843Y-103674396D01*
X185383198Y-103838326D01*
X185383195Y-103838333D01*
X185324704Y-104018351D01*
X185324703Y-104018355D01*
X185304917Y-104206611D01*
X180554950Y-104206611D01*
X180532533Y-104167784D01*
X180405871Y-104027112D01*
X180393818Y-104018355D01*
X180252734Y-103915851D01*
X180252729Y-103915848D01*
X180127195Y-103859956D01*
X180073958Y-103814706D01*
X180053637Y-103747856D01*
X180072683Y-103680633D01*
X180104746Y-103646359D01*
X180205871Y-103572888D01*
X180332533Y-103432216D01*
X180427179Y-103268284D01*
X180485674Y-103088256D01*
X180505460Y-102900000D01*
X180485674Y-102711744D01*
X180427179Y-102531716D01*
X180351133Y-102400000D01*
X189994540Y-102400000D01*
X190014326Y-102588256D01*
X190014327Y-102588259D01*
X190072818Y-102768277D01*
X190072821Y-102768284D01*
X190167467Y-102932216D01*
X190294128Y-103072888D01*
X190294129Y-103072888D01*
X190447265Y-103184148D01*
X190447270Y-103184151D01*
X190620192Y-103261142D01*
X190620197Y-103261144D01*
X190805354Y-103300500D01*
X190805355Y-103300500D01*
X190994644Y-103300500D01*
X190994646Y-103300500D01*
X191179803Y-103261144D01*
X191352730Y-103184151D01*
X191505871Y-103072888D01*
X191632533Y-102932216D01*
X191727179Y-102768284D01*
X191785674Y-102588256D01*
X191805460Y-102400000D01*
X191785674Y-102211744D01*
X191727179Y-102031716D01*
X191632533Y-101867784D01*
X191505871Y-101727112D01*
X191505870Y-101727111D01*
X191352734Y-101615851D01*
X191352729Y-101615848D01*
X191179807Y-101538857D01*
X191179802Y-101538855D01*
X191034000Y-101507865D01*
X190994646Y-101499500D01*
X190805354Y-101499500D01*
X190772897Y-101506398D01*
X190620197Y-101538855D01*
X190620192Y-101538857D01*
X190447270Y-101615848D01*
X190447265Y-101615851D01*
X190294129Y-101727111D01*
X190167466Y-101867785D01*
X190072821Y-102031715D01*
X190072818Y-102031722D01*
X190014327Y-102211740D01*
X190014326Y-102211744D01*
X189994540Y-102400000D01*
X180351133Y-102400000D01*
X180332533Y-102367784D01*
X180205871Y-102227112D01*
X180184719Y-102211744D01*
X180052734Y-102115851D01*
X180052729Y-102115848D01*
X179879807Y-102038857D01*
X179879802Y-102038855D01*
X179734001Y-102007865D01*
X179694646Y-101999500D01*
X179505354Y-101999500D01*
X179472897Y-102006398D01*
X179320197Y-102038855D01*
X179320192Y-102038857D01*
X179147270Y-102115848D01*
X179147265Y-102115851D01*
X178994129Y-102227111D01*
X178867466Y-102367785D01*
X178772821Y-102531715D01*
X178772818Y-102531722D01*
X178714327Y-102711740D01*
X178714326Y-102711744D01*
X178694540Y-102900000D01*
X177701745Y-102900000D01*
X177753103Y-102789863D01*
X177814263Y-102561608D01*
X177834859Y-102326200D01*
X177832610Y-102300500D01*
X177814263Y-102090796D01*
X177814263Y-102090792D01*
X177753103Y-101862537D01*
X177653235Y-101648371D01*
X177630464Y-101615851D01*
X177517696Y-101454800D01*
X177462896Y-101400000D01*
X177395767Y-101332871D01*
X177362284Y-101271551D01*
X177367268Y-101201859D01*
X177409139Y-101145925D01*
X177440115Y-101129010D01*
X177571531Y-101079996D01*
X177686746Y-100993746D01*
X177727879Y-100938799D01*
X182955741Y-100938799D01*
X182975527Y-101127055D01*
X182975528Y-101127058D01*
X183034019Y-101307076D01*
X183034022Y-101307083D01*
X183128668Y-101471015D01*
X183209248Y-101560508D01*
X183255330Y-101611687D01*
X183408466Y-101722947D01*
X183408471Y-101722950D01*
X183581393Y-101799941D01*
X183581398Y-101799943D01*
X183766555Y-101839299D01*
X183766556Y-101839299D01*
X183955845Y-101839299D01*
X183955847Y-101839299D01*
X184141004Y-101799943D01*
X184313931Y-101722950D01*
X184467072Y-101611687D01*
X184593734Y-101471015D01*
X184688380Y-101307083D01*
X184746875Y-101127055D01*
X184766661Y-100938799D01*
X184746875Y-100750543D01*
X184688380Y-100570515D01*
X184647668Y-100500000D01*
X194794540Y-100500000D01*
X194814326Y-100688256D01*
X194814327Y-100688259D01*
X194872818Y-100868277D01*
X194872821Y-100868284D01*
X194967467Y-101032216D01*
X195061544Y-101136699D01*
X195094129Y-101172888D01*
X195247265Y-101284148D01*
X195247270Y-101284151D01*
X195420192Y-101361142D01*
X195420197Y-101361144D01*
X195605354Y-101400500D01*
X195605355Y-101400500D01*
X195794644Y-101400500D01*
X195794646Y-101400500D01*
X195979803Y-101361144D01*
X196152730Y-101284151D01*
X196305871Y-101172888D01*
X196432533Y-101032216D01*
X196527179Y-100868284D01*
X196581858Y-100700000D01*
X199894540Y-100700000D01*
X199914326Y-100888256D01*
X199914327Y-100888259D01*
X199972818Y-101068277D01*
X199972821Y-101068284D01*
X200067467Y-101232216D01*
X200134878Y-101307083D01*
X200194129Y-101372888D01*
X200347265Y-101484148D01*
X200347270Y-101484151D01*
X200520192Y-101561142D01*
X200520197Y-101561144D01*
X200705354Y-101600500D01*
X200705355Y-101600500D01*
X200894644Y-101600500D01*
X200894646Y-101600500D01*
X201074807Y-101562206D01*
X201086160Y-101559793D01*
X201086673Y-101562206D01*
X201145377Y-101560508D01*
X201205224Y-101596566D01*
X201231830Y-101642128D01*
X201272818Y-101768277D01*
X201272821Y-101768284D01*
X201367467Y-101932216D01*
X201463487Y-102038857D01*
X201494129Y-102072888D01*
X201647265Y-102184148D01*
X201647270Y-102184151D01*
X201820192Y-102261142D01*
X201820197Y-102261144D01*
X202005354Y-102300500D01*
X202005355Y-102300500D01*
X202194644Y-102300500D01*
X202194646Y-102300500D01*
X202379803Y-102261144D01*
X202552730Y-102184151D01*
X202705871Y-102072888D01*
X202757851Y-102015158D01*
X202817336Y-101978510D01*
X202887193Y-101979840D01*
X202942148Y-102015158D01*
X202994128Y-102072888D01*
X202994129Y-102072888D01*
X203147265Y-102184148D01*
X203147270Y-102184151D01*
X203320192Y-102261142D01*
X203320197Y-102261144D01*
X203505354Y-102300500D01*
X203505355Y-102300500D01*
X203694644Y-102300500D01*
X203694646Y-102300500D01*
X203879803Y-102261144D01*
X204052730Y-102184151D01*
X204205871Y-102072888D01*
X204332533Y-101932216D01*
X204427179Y-101768284D01*
X204485674Y-101588256D01*
X204505460Y-101400000D01*
X204485674Y-101211744D01*
X204431112Y-101043823D01*
X204427181Y-101031722D01*
X204427180Y-101031721D01*
X204427179Y-101031716D01*
X204332533Y-100867784D01*
X204205871Y-100727112D01*
X204169243Y-100700500D01*
X204052734Y-100615851D01*
X204052729Y-100615848D01*
X203879807Y-100538857D01*
X203879802Y-100538855D01*
X203712820Y-100503363D01*
X203694646Y-100499500D01*
X203505354Y-100499500D01*
X203487180Y-100503363D01*
X203320197Y-100538855D01*
X203320192Y-100538857D01*
X203147270Y-100615848D01*
X203147265Y-100615851D01*
X202994132Y-100727109D01*
X202994129Y-100727111D01*
X202994129Y-100727112D01*
X202942148Y-100784841D01*
X202882663Y-100821489D01*
X202812806Y-100820158D01*
X202757851Y-100784841D01*
X202705871Y-100727112D01*
X202669243Y-100700500D01*
X202552734Y-100615851D01*
X202552729Y-100615848D01*
X202379807Y-100538857D01*
X202379802Y-100538855D01*
X202212820Y-100503363D01*
X202194646Y-100499500D01*
X202005354Y-100499500D01*
X201825118Y-100537810D01*
X201813841Y-100540207D01*
X201813331Y-100537810D01*
X201754530Y-100539467D01*
X201694711Y-100503363D01*
X201668169Y-100457871D01*
X201660803Y-100435201D01*
X201642706Y-100379502D01*
X201627181Y-100331721D01*
X201627178Y-100331715D01*
X201615648Y-100311744D01*
X201532533Y-100167784D01*
X201405871Y-100027112D01*
X201369243Y-100000500D01*
X201252734Y-99915851D01*
X201252729Y-99915848D01*
X201079807Y-99838857D01*
X201079802Y-99838855D01*
X200934000Y-99807865D01*
X200894646Y-99799500D01*
X200705354Y-99799500D01*
X200672897Y-99806398D01*
X200520197Y-99838855D01*
X200520192Y-99838857D01*
X200347270Y-99915848D01*
X200347265Y-99915851D01*
X200194129Y-100027111D01*
X200067466Y-100167785D01*
X199972821Y-100331715D01*
X199972818Y-100331722D01*
X199917049Y-100503363D01*
X199914326Y-100511744D01*
X199894540Y-100700000D01*
X196581858Y-100700000D01*
X196585674Y-100688256D01*
X196605460Y-100500000D01*
X196585674Y-100311744D01*
X196527179Y-100131716D01*
X196432533Y-99967784D01*
X196305871Y-99827112D01*
X196305870Y-99827111D01*
X196152734Y-99715851D01*
X196152729Y-99715848D01*
X195979807Y-99638857D01*
X195979802Y-99638855D01*
X195834000Y-99607865D01*
X195794646Y-99599500D01*
X195605354Y-99599500D01*
X195572897Y-99606398D01*
X195420197Y-99638855D01*
X195420192Y-99638857D01*
X195247270Y-99715848D01*
X195247265Y-99715851D01*
X195094129Y-99827111D01*
X194967466Y-99967785D01*
X194872821Y-100131715D01*
X194872818Y-100131722D01*
X194829218Y-100265910D01*
X194814326Y-100311744D01*
X194794540Y-100500000D01*
X184647668Y-100500000D01*
X184593734Y-100406583D01*
X184467072Y-100265911D01*
X184467071Y-100265910D01*
X184313935Y-100154650D01*
X184313930Y-100154647D01*
X184141008Y-100077656D01*
X184141003Y-100077654D01*
X183995202Y-100046664D01*
X183955847Y-100038299D01*
X183766555Y-100038299D01*
X183734098Y-100045197D01*
X183581398Y-100077654D01*
X183581393Y-100077656D01*
X183408471Y-100154647D01*
X183408466Y-100154650D01*
X183255330Y-100265910D01*
X183128667Y-100406584D01*
X183034022Y-100570514D01*
X183034019Y-100570521D01*
X182983140Y-100727112D01*
X182975527Y-100750543D01*
X182955741Y-100938799D01*
X177727879Y-100938799D01*
X177772996Y-100878531D01*
X177823291Y-100743683D01*
X177829700Y-100684073D01*
X177829699Y-100502238D01*
X177849383Y-100435201D01*
X177902187Y-100389446D01*
X177971345Y-100379502D01*
X178034901Y-100408527D01*
X178045842Y-100419261D01*
X178094129Y-100472888D01*
X178094132Y-100472890D01*
X178247265Y-100584148D01*
X178247270Y-100584151D01*
X178420192Y-100661142D01*
X178420197Y-100661144D01*
X178605354Y-100700500D01*
X178605355Y-100700500D01*
X178794644Y-100700500D01*
X178794646Y-100700500D01*
X178979803Y-100661144D01*
X179152730Y-100584151D01*
X179305871Y-100472888D01*
X179432533Y-100332216D01*
X179527179Y-100168284D01*
X179585674Y-99988256D01*
X179585673Y-99988256D01*
X179586348Y-99986182D01*
X179625786Y-99928506D01*
X179690144Y-99901308D01*
X179704279Y-99900500D01*
X179794644Y-99900500D01*
X179794646Y-99900500D01*
X179979803Y-99861144D01*
X180152730Y-99784151D01*
X180305871Y-99672888D01*
X180432533Y-99532216D01*
X180527179Y-99368284D01*
X180585674Y-99188256D01*
X180594950Y-99100000D01*
X184794540Y-99100000D01*
X184814326Y-99288256D01*
X184814327Y-99288259D01*
X184872818Y-99468277D01*
X184872821Y-99468284D01*
X184967467Y-99632216D01*
X185042770Y-99715848D01*
X185094129Y-99772888D01*
X185247265Y-99884148D01*
X185247270Y-99884151D01*
X185420192Y-99961142D01*
X185420197Y-99961144D01*
X185605354Y-100000500D01*
X185605355Y-100000500D01*
X185794644Y-100000500D01*
X185794646Y-100000500D01*
X185979803Y-99961144D01*
X186152730Y-99884151D01*
X186305871Y-99772888D01*
X186432533Y-99632216D01*
X186527179Y-99468284D01*
X186585674Y-99288256D01*
X186605460Y-99100000D01*
X186585674Y-98911744D01*
X186527179Y-98731716D01*
X186432533Y-98567784D01*
X186305871Y-98427112D01*
X186288362Y-98414391D01*
X186152734Y-98315851D01*
X186152729Y-98315848D01*
X185979807Y-98238857D01*
X185979802Y-98238855D01*
X185834001Y-98207865D01*
X185794646Y-98199500D01*
X185605354Y-98199500D01*
X185572897Y-98206398D01*
X185420197Y-98238855D01*
X185420192Y-98238857D01*
X185247270Y-98315848D01*
X185247265Y-98315851D01*
X185094129Y-98427111D01*
X184967466Y-98567785D01*
X184872821Y-98731715D01*
X184872818Y-98731722D01*
X184821934Y-98888328D01*
X184814326Y-98911744D01*
X184794540Y-99100000D01*
X180594950Y-99100000D01*
X180605460Y-99000000D01*
X180585674Y-98811744D01*
X180527179Y-98631716D01*
X180432533Y-98467784D01*
X180305871Y-98327112D01*
X180290369Y-98315849D01*
X180152734Y-98215851D01*
X180152729Y-98215848D01*
X179979807Y-98138857D01*
X179979802Y-98138855D01*
X179834000Y-98107865D01*
X179794646Y-98099500D01*
X179605354Y-98099500D01*
X179572897Y-98106398D01*
X179420197Y-98138855D01*
X179420192Y-98138857D01*
X179247270Y-98215848D01*
X179247265Y-98215851D01*
X179094129Y-98327111D01*
X178967466Y-98467785D01*
X178872821Y-98631715D01*
X178872818Y-98631722D01*
X178813652Y-98813818D01*
X178774214Y-98871494D01*
X178709856Y-98898692D01*
X178695721Y-98899500D01*
X178605354Y-98899500D01*
X178572897Y-98906398D01*
X178420197Y-98938855D01*
X178420192Y-98938857D01*
X178247270Y-99015848D01*
X178247265Y-99015851D01*
X178094132Y-99127109D01*
X178094129Y-99127111D01*
X178094129Y-99127112D01*
X178045847Y-99180733D01*
X177986362Y-99217381D01*
X177916505Y-99216050D01*
X177858457Y-99177163D01*
X177830647Y-99113067D01*
X177829699Y-99097760D01*
X177829699Y-98888329D01*
X177829698Y-98888323D01*
X177829697Y-98888316D01*
X177823291Y-98828717D01*
X177816960Y-98811744D01*
X177772997Y-98693871D01*
X177772993Y-98693864D01*
X177686747Y-98578655D01*
X177686744Y-98578652D01*
X177571535Y-98492406D01*
X177571528Y-98492402D01*
X177436683Y-98442109D01*
X177427589Y-98441131D01*
X177363039Y-98414391D01*
X177323192Y-98356998D01*
X177320701Y-98287173D01*
X177325926Y-98272138D01*
X177327177Y-98268287D01*
X177327179Y-98268284D01*
X177385674Y-98088256D01*
X177405460Y-97900000D01*
X177385674Y-97711744D01*
X177327179Y-97531716D01*
X177232533Y-97367784D01*
X177105871Y-97227112D01*
X177105870Y-97227111D01*
X176952734Y-97115851D01*
X176952729Y-97115848D01*
X176779807Y-97038857D01*
X176779802Y-97038855D01*
X176634000Y-97007865D01*
X176594646Y-96999500D01*
X176405354Y-96999500D01*
X176372897Y-97006398D01*
X176220197Y-97038855D01*
X176220192Y-97038857D01*
X176047270Y-97115848D01*
X176047265Y-97115851D01*
X175894129Y-97227111D01*
X175767466Y-97367785D01*
X175672821Y-97531715D01*
X175672818Y-97531722D01*
X175614327Y-97711740D01*
X175614326Y-97711744D01*
X175594540Y-97900000D01*
X175614326Y-98088256D01*
X175614327Y-98088259D01*
X175674829Y-98274465D01*
X175672168Y-98275329D01*
X175679811Y-98332411D01*
X175650170Y-98395682D01*
X175591028Y-98432885D01*
X175570504Y-98436864D01*
X175521716Y-98442108D01*
X175386871Y-98492402D01*
X175386864Y-98492406D01*
X175271655Y-98578652D01*
X175271652Y-98578655D01*
X175185406Y-98693864D01*
X175185402Y-98693871D01*
X175135108Y-98828717D01*
X175128701Y-98888316D01*
X175128701Y-98888323D01*
X175128700Y-98888335D01*
X175128700Y-100684070D01*
X175128701Y-100684076D01*
X175135108Y-100743683D01*
X175185402Y-100878528D01*
X175185406Y-100878535D01*
X175271652Y-100993744D01*
X175271655Y-100993747D01*
X175386864Y-101079993D01*
X175386871Y-101079997D01*
X175518281Y-101129010D01*
X175574215Y-101170881D01*
X175598632Y-101236345D01*
X175583780Y-101304618D01*
X175562630Y-101332873D01*
X175440703Y-101454800D01*
X175305165Y-101648369D01*
X175305164Y-101648371D01*
X175205298Y-101862535D01*
X175205294Y-101862544D01*
X175144138Y-102090786D01*
X175144136Y-102090796D01*
X175123541Y-102326199D01*
X175123541Y-102326200D01*
X174244500Y-102326200D01*
X174244500Y-94100000D01*
X190294540Y-94100000D01*
X190314326Y-94288256D01*
X190314327Y-94288259D01*
X190372818Y-94468277D01*
X190372821Y-94468284D01*
X190467467Y-94632216D01*
X190594128Y-94772887D01*
X190594129Y-94772888D01*
X190747265Y-94884148D01*
X190747270Y-94884151D01*
X190920192Y-94961142D01*
X190920197Y-94961144D01*
X191105354Y-95000500D01*
X191105355Y-95000500D01*
X191294644Y-95000500D01*
X191294646Y-95000500D01*
X191479803Y-94961144D01*
X191652730Y-94884151D01*
X191805871Y-94772888D01*
X191932533Y-94632216D01*
X192027179Y-94468284D01*
X192085674Y-94288256D01*
X192105460Y-94100000D01*
X192085674Y-93911744D01*
X192027179Y-93731716D01*
X191932533Y-93567784D01*
X191805871Y-93427112D01*
X191805870Y-93427111D01*
X191652734Y-93315851D01*
X191652729Y-93315848D01*
X191479807Y-93238857D01*
X191479802Y-93238855D01*
X191334001Y-93207865D01*
X191294646Y-93199500D01*
X191105354Y-93199500D01*
X191072897Y-93206398D01*
X190920197Y-93238855D01*
X190920192Y-93238857D01*
X190747270Y-93315848D01*
X190747265Y-93315851D01*
X190594129Y-93427111D01*
X190467466Y-93567785D01*
X190372821Y-93731715D01*
X190372818Y-93731722D01*
X190314327Y-93911740D01*
X190314326Y-93911744D01*
X190294540Y-94100000D01*
X174244500Y-94100000D01*
X174244500Y-90424000D01*
X202091340Y-90424000D01*
X202111126Y-90612256D01*
X202111127Y-90612259D01*
X202169618Y-90792277D01*
X202169621Y-90792284D01*
X202264267Y-90956216D01*
X202390929Y-91096888D01*
X202544065Y-91208148D01*
X202544070Y-91208151D01*
X202716992Y-91285142D01*
X202716997Y-91285144D01*
X202902154Y-91324500D01*
X202902155Y-91324500D01*
X203091444Y-91324500D01*
X203091446Y-91324500D01*
X203276603Y-91285144D01*
X203449530Y-91208151D01*
X203602671Y-91096888D01*
X203729333Y-90956216D01*
X203823979Y-90792284D01*
X203882474Y-90612256D01*
X203902260Y-90424000D01*
X203882474Y-90235744D01*
X203823979Y-90055716D01*
X203729333Y-89891784D01*
X203602671Y-89751112D01*
X203602670Y-89751111D01*
X203449534Y-89639851D01*
X203449529Y-89639848D01*
X203276607Y-89562857D01*
X203276602Y-89562855D01*
X203130801Y-89531865D01*
X203091446Y-89523500D01*
X202902154Y-89523500D01*
X202869697Y-89530398D01*
X202716997Y-89562855D01*
X202716992Y-89562857D01*
X202544070Y-89639848D01*
X202544065Y-89639851D01*
X202390929Y-89751111D01*
X202264266Y-89891785D01*
X202169621Y-90055715D01*
X202169618Y-90055722D01*
X202111127Y-90235740D01*
X202111126Y-90235744D01*
X202091340Y-90424000D01*
X174244500Y-90424000D01*
X174244500Y-86055200D01*
X195951541Y-86055200D01*
X195972136Y-86290603D01*
X195972138Y-86290613D01*
X196033294Y-86518855D01*
X196033296Y-86518859D01*
X196033297Y-86518863D01*
X196133165Y-86733029D01*
X196133165Y-86733030D01*
X196133167Y-86733034D01*
X196268701Y-86926595D01*
X196268706Y-86926602D01*
X196435797Y-87093693D01*
X196435803Y-87093698D01*
X196621794Y-87223930D01*
X196665419Y-87278507D01*
X196672613Y-87348005D01*
X196641090Y-87410360D01*
X196621795Y-87427080D01*
X196436122Y-87557090D01*
X196436120Y-87557091D01*
X196269091Y-87724120D01*
X196269086Y-87724126D01*
X196133600Y-87917620D01*
X196133599Y-87917622D01*
X196033770Y-88131707D01*
X196033767Y-88131713D01*
X195976564Y-88345199D01*
X195976564Y-88345200D01*
X196693853Y-88345200D01*
X196760892Y-88364885D01*
X196806647Y-88417689D01*
X196816591Y-88486847D01*
X196812831Y-88504133D01*
X196807200Y-88523311D01*
X196807200Y-88667088D01*
X196812831Y-88686267D01*
X196812830Y-88756136D01*
X196775055Y-88814914D01*
X196711499Y-88843938D01*
X196693853Y-88845200D01*
X195976564Y-88845200D01*
X196033767Y-89058686D01*
X196033770Y-89058692D01*
X196133599Y-89272778D01*
X196269094Y-89466282D01*
X196436117Y-89633305D01*
X196629621Y-89768800D01*
X196843707Y-89868629D01*
X196843716Y-89868633D01*
X197057200Y-89925834D01*
X197057200Y-89207501D01*
X197076885Y-89140462D01*
X197129689Y-89094707D01*
X197198847Y-89084763D01*
X197271437Y-89095200D01*
X197271438Y-89095200D01*
X197342962Y-89095200D01*
X197342963Y-89095200D01*
X197415553Y-89084763D01*
X197484712Y-89094707D01*
X197537515Y-89140462D01*
X197557200Y-89207501D01*
X197557200Y-89925833D01*
X197770683Y-89868633D01*
X197770692Y-89868629D01*
X197984778Y-89768800D01*
X198178282Y-89633305D01*
X198345305Y-89466282D01*
X198480800Y-89272778D01*
X198580629Y-89058692D01*
X198580632Y-89058686D01*
X198637836Y-88845200D01*
X197920547Y-88845200D01*
X197853508Y-88825515D01*
X197807753Y-88772711D01*
X197797809Y-88703553D01*
X197801569Y-88686267D01*
X197807200Y-88667088D01*
X197807200Y-88523311D01*
X197801569Y-88504133D01*
X197801570Y-88434264D01*
X197839345Y-88375486D01*
X197902901Y-88346462D01*
X197920547Y-88345200D01*
X198637836Y-88345200D01*
X198637835Y-88345199D01*
X198580632Y-88131713D01*
X198580629Y-88131707D01*
X198480800Y-87917622D01*
X198480799Y-87917620D01*
X198345313Y-87724126D01*
X198345308Y-87724120D01*
X198178278Y-87557090D01*
X197992605Y-87427079D01*
X197948980Y-87372502D01*
X197941788Y-87303004D01*
X197973310Y-87240649D01*
X197992606Y-87223930D01*
X198178601Y-87093695D01*
X198345695Y-86926601D01*
X198481235Y-86733030D01*
X198581103Y-86518863D01*
X198642263Y-86290608D01*
X198662859Y-86055200D01*
X198642263Y-85819792D01*
X198581103Y-85591537D01*
X198481235Y-85377371D01*
X198345695Y-85183799D01*
X198345694Y-85183797D01*
X198178602Y-85016706D01*
X198178601Y-85016705D01*
X197993042Y-84886775D01*
X197993041Y-84886774D01*
X197949416Y-84832197D01*
X197942224Y-84762698D01*
X197973746Y-84700344D01*
X197993036Y-84683628D01*
X198178601Y-84553695D01*
X198345695Y-84386601D01*
X198481235Y-84193030D01*
X198581103Y-83978863D01*
X198642263Y-83750608D01*
X198662859Y-83515200D01*
X198642263Y-83279792D01*
X198581103Y-83051537D01*
X198481235Y-82837371D01*
X198345695Y-82643799D01*
X198223767Y-82521871D01*
X198190284Y-82460551D01*
X198195268Y-82390859D01*
X198237139Y-82334925D01*
X198268115Y-82318010D01*
X198399531Y-82268996D01*
X198514746Y-82182746D01*
X198600996Y-82067531D01*
X198651291Y-81932683D01*
X198657700Y-81873073D01*
X198657699Y-80077328D01*
X198651291Y-80017717D01*
X198600996Y-79882869D01*
X198600995Y-79882868D01*
X198600993Y-79882864D01*
X198514747Y-79767655D01*
X198514744Y-79767652D01*
X198399535Y-79681406D01*
X198399528Y-79681402D01*
X198264682Y-79631108D01*
X198264683Y-79631108D01*
X198205083Y-79624701D01*
X198205081Y-79624700D01*
X198205073Y-79624700D01*
X198205064Y-79624700D01*
X196409329Y-79624700D01*
X196409323Y-79624701D01*
X196349716Y-79631108D01*
X196214871Y-79681402D01*
X196214864Y-79681406D01*
X196099655Y-79767652D01*
X196099652Y-79767655D01*
X196013406Y-79882864D01*
X196013402Y-79882871D01*
X195963108Y-80017717D01*
X195956701Y-80077316D01*
X195956701Y-80077323D01*
X195956700Y-80077335D01*
X195956700Y-81873070D01*
X195956701Y-81873076D01*
X195963108Y-81932683D01*
X196013402Y-82067528D01*
X196013406Y-82067535D01*
X196099652Y-82182744D01*
X196099655Y-82182747D01*
X196214864Y-82268993D01*
X196214871Y-82268997D01*
X196346281Y-82318010D01*
X196402215Y-82359881D01*
X196426632Y-82425345D01*
X196411780Y-82493618D01*
X196390630Y-82521873D01*
X196268703Y-82643800D01*
X196133165Y-82837369D01*
X196133164Y-82837371D01*
X196033298Y-83051535D01*
X196033294Y-83051544D01*
X195972138Y-83279786D01*
X195972136Y-83279796D01*
X195951541Y-83515199D01*
X195951541Y-83515200D01*
X195972136Y-83750603D01*
X195972138Y-83750613D01*
X196033294Y-83978855D01*
X196033296Y-83978859D01*
X196033297Y-83978863D01*
X196133164Y-84193030D01*
X196133165Y-84193030D01*
X196133167Y-84193034D01*
X196268701Y-84386595D01*
X196268706Y-84386602D01*
X196435797Y-84553693D01*
X196435803Y-84553698D01*
X196621358Y-84683625D01*
X196664983Y-84738202D01*
X196672177Y-84807700D01*
X196640654Y-84870055D01*
X196621358Y-84886775D01*
X196435797Y-85016705D01*
X196268705Y-85183797D01*
X196133165Y-85377369D01*
X196133164Y-85377371D01*
X196033298Y-85591535D01*
X196033294Y-85591544D01*
X195972138Y-85819786D01*
X195972136Y-85819796D01*
X195951541Y-86055199D01*
X195951541Y-86055200D01*
X174244500Y-86055200D01*
X174244500Y-76550805D01*
X198670057Y-76550805D01*
X198690206Y-76871083D01*
X198690207Y-76871090D01*
X198750345Y-77186342D01*
X198849516Y-77491559D01*
X198849518Y-77491564D01*
X198986158Y-77781938D01*
X198986162Y-77781944D01*
X199158120Y-78052908D01*
X199158122Y-78052911D01*
X199362687Y-78300188D01*
X199596634Y-78519878D01*
X199596644Y-78519886D01*
X199856260Y-78708508D01*
X199856266Y-78708511D01*
X199856272Y-78708516D01*
X200137503Y-78863124D01*
X200435894Y-78981266D01*
X200435893Y-78981266D01*
X200652828Y-79036965D01*
X200746739Y-79061077D01*
X200813535Y-79069515D01*
X201065124Y-79101299D01*
X201065133Y-79101299D01*
X201065136Y-79101300D01*
X201065138Y-79101300D01*
X201386062Y-79101300D01*
X201386064Y-79101300D01*
X201386067Y-79101299D01*
X201386075Y-79101299D01*
X201576063Y-79077297D01*
X201704461Y-79061077D01*
X202015306Y-78981266D01*
X202313697Y-78863124D01*
X202594928Y-78708516D01*
X202854564Y-78519880D01*
X203088511Y-78300190D01*
X203293078Y-78052910D01*
X203465039Y-77781942D01*
X203601684Y-77491558D01*
X203700856Y-77186338D01*
X203760992Y-76871094D01*
X203781143Y-76550800D01*
X203760992Y-76230506D01*
X203700856Y-75915262D01*
X203601684Y-75610042D01*
X203601681Y-75610035D01*
X203465041Y-75319661D01*
X203465037Y-75319655D01*
X203459398Y-75310770D01*
X203346084Y-75132214D01*
X203293079Y-75048691D01*
X203293077Y-75048688D01*
X203088512Y-74801411D01*
X203074507Y-74788259D01*
X202854564Y-74581720D01*
X202854561Y-74581718D01*
X202854555Y-74581713D01*
X202594939Y-74393091D01*
X202594921Y-74393080D01*
X202313696Y-74238475D01*
X202313693Y-74238474D01*
X202015303Y-74120333D01*
X202015306Y-74120333D01*
X201704464Y-74040523D01*
X201704451Y-74040521D01*
X201386075Y-74000300D01*
X201386064Y-74000300D01*
X201065136Y-74000300D01*
X201065124Y-74000300D01*
X200746748Y-74040521D01*
X200746735Y-74040523D01*
X200435894Y-74120333D01*
X200137506Y-74238474D01*
X200137503Y-74238475D01*
X199856278Y-74393080D01*
X199856260Y-74393091D01*
X199596644Y-74581713D01*
X199596634Y-74581721D01*
X199362687Y-74801411D01*
X199158122Y-75048688D01*
X199158120Y-75048691D01*
X198986162Y-75319655D01*
X198986158Y-75319661D01*
X198849518Y-75610035D01*
X198849516Y-75610040D01*
X198750345Y-75915257D01*
X198690207Y-76230509D01*
X198690206Y-76230516D01*
X198670057Y-76550794D01*
X198670057Y-76550805D01*
X174244500Y-76550805D01*
X174244500Y-74600000D01*
X191494540Y-74600000D01*
X191514326Y-74788256D01*
X191514327Y-74788259D01*
X191572818Y-74968277D01*
X191572821Y-74968284D01*
X191667467Y-75132216D01*
X191794129Y-75272888D01*
X191947265Y-75384148D01*
X191947270Y-75384151D01*
X192120192Y-75461142D01*
X192120197Y-75461144D01*
X192305354Y-75500500D01*
X192305355Y-75500500D01*
X192494644Y-75500500D01*
X192494646Y-75500500D01*
X192679803Y-75461144D01*
X192852730Y-75384151D01*
X193005871Y-75272888D01*
X193132533Y-75132216D01*
X193227179Y-74968284D01*
X193285674Y-74788256D01*
X193305460Y-74600000D01*
X193285674Y-74411744D01*
X193227179Y-74231716D01*
X193132533Y-74067784D01*
X193005871Y-73927112D01*
X193005870Y-73927111D01*
X192852734Y-73815851D01*
X192852729Y-73815848D01*
X192679807Y-73738857D01*
X192679802Y-73738855D01*
X192534001Y-73707865D01*
X192494646Y-73699500D01*
X192305354Y-73699500D01*
X192272897Y-73706398D01*
X192120197Y-73738855D01*
X192120192Y-73738857D01*
X191947270Y-73815848D01*
X191947265Y-73815851D01*
X191794129Y-73927111D01*
X191667466Y-74067785D01*
X191572821Y-74231715D01*
X191572818Y-74231722D01*
X191514327Y-74411740D01*
X191514326Y-74411744D01*
X191494540Y-74600000D01*
X174244500Y-74600000D01*
X174244500Y-72948800D01*
X188476940Y-72948800D01*
X188496726Y-73137056D01*
X188496727Y-73137059D01*
X188555218Y-73317077D01*
X188555221Y-73317084D01*
X188649867Y-73481016D01*
X188776529Y-73621688D01*
X188929665Y-73732948D01*
X188929670Y-73732951D01*
X189102592Y-73809942D01*
X189102597Y-73809944D01*
X189287754Y-73849300D01*
X189287755Y-73849300D01*
X189477044Y-73849300D01*
X189477046Y-73849300D01*
X189662203Y-73809944D01*
X189835130Y-73732951D01*
X189988271Y-73621688D01*
X190114933Y-73481016D01*
X190209579Y-73317084D01*
X190268074Y-73137056D01*
X190287860Y-72948800D01*
X190268074Y-72760544D01*
X190209579Y-72580516D01*
X190114933Y-72416584D01*
X189988271Y-72275912D01*
X189988270Y-72275911D01*
X189835134Y-72164651D01*
X189835129Y-72164648D01*
X189662207Y-72087657D01*
X189662202Y-72087655D01*
X189516401Y-72056665D01*
X189477046Y-72048300D01*
X189287754Y-72048300D01*
X189255297Y-72055198D01*
X189102597Y-72087655D01*
X189102592Y-72087657D01*
X188929670Y-72164648D01*
X188929665Y-72164651D01*
X188776529Y-72275911D01*
X188649866Y-72416585D01*
X188555221Y-72580515D01*
X188555218Y-72580522D01*
X188496727Y-72760540D01*
X188496726Y-72760544D01*
X188476940Y-72948800D01*
X174244500Y-72948800D01*
X174244500Y-71598670D01*
X197125100Y-71598670D01*
X197125101Y-71598676D01*
X197131508Y-71658283D01*
X197181802Y-71793128D01*
X197181806Y-71793135D01*
X197268052Y-71908344D01*
X197268055Y-71908347D01*
X197383264Y-71994593D01*
X197383271Y-71994597D01*
X197518117Y-72044891D01*
X197518116Y-72044891D01*
X197525044Y-72045635D01*
X197577727Y-72051300D01*
X198573472Y-72051299D01*
X198633083Y-72044891D01*
X198767931Y-71994596D01*
X198883146Y-71908346D01*
X198969396Y-71793131D01*
X199019691Y-71658283D01*
X199026100Y-71598673D01*
X199026099Y-69502928D01*
X199019691Y-69443317D01*
X198969396Y-69308469D01*
X198969395Y-69308468D01*
X198969393Y-69308464D01*
X198883147Y-69193255D01*
X198883144Y-69193252D01*
X198767935Y-69107006D01*
X198767928Y-69107002D01*
X198633082Y-69056708D01*
X198633083Y-69056708D01*
X198573483Y-69050301D01*
X198573481Y-69050300D01*
X198573473Y-69050300D01*
X198573464Y-69050300D01*
X197577729Y-69050300D01*
X197577723Y-69050301D01*
X197518116Y-69056708D01*
X197383271Y-69107002D01*
X197383264Y-69107006D01*
X197268055Y-69193252D01*
X197268052Y-69193255D01*
X197181806Y-69308464D01*
X197181802Y-69308471D01*
X197131508Y-69443317D01*
X197125101Y-69502916D01*
X197125101Y-69502923D01*
X197125100Y-69502935D01*
X197125100Y-71598670D01*
X174244500Y-71598670D01*
X174244500Y-69307743D01*
X189441099Y-69307743D01*
X189441100Y-69307744D01*
X189441100Y-69477856D01*
X189461454Y-69560440D01*
X189481810Y-69643026D01*
X189560863Y-69793649D01*
X189560866Y-69793652D01*
X189673671Y-69920983D01*
X189763918Y-69983276D01*
X189813668Y-70017617D01*
X189813669Y-70017617D01*
X189813670Y-70017618D01*
X189972728Y-70077940D01*
X190048628Y-70087156D01*
X190099226Y-70093300D01*
X190099228Y-70093300D01*
X190183974Y-70093300D01*
X190226138Y-70088180D01*
X190310472Y-70077940D01*
X190469530Y-70017618D01*
X190609529Y-69920983D01*
X190722334Y-69793652D01*
X190801390Y-69643025D01*
X190842100Y-69477856D01*
X192441100Y-69477856D01*
X192461455Y-69560440D01*
X192481810Y-69643026D01*
X192560863Y-69793649D01*
X192560866Y-69793652D01*
X192673671Y-69920983D01*
X192763918Y-69983276D01*
X192813668Y-70017617D01*
X192813669Y-70017617D01*
X192813670Y-70017618D01*
X192972728Y-70077940D01*
X193048628Y-70087156D01*
X193099226Y-70093300D01*
X193099228Y-70093300D01*
X193183974Y-70093300D01*
X193226138Y-70088180D01*
X193310472Y-70077940D01*
X193469530Y-70017618D01*
X193609529Y-69920983D01*
X193722334Y-69793652D01*
X193801390Y-69643025D01*
X193842100Y-69477856D01*
X193842100Y-69307744D01*
X193801390Y-69142575D01*
X193756324Y-69056709D01*
X193722336Y-68991950D01*
X193703160Y-68970305D01*
X193609529Y-68864617D01*
X193559777Y-68830275D01*
X193469531Y-68767982D01*
X193310474Y-68707660D01*
X193310468Y-68707659D01*
X193183974Y-68692300D01*
X193183972Y-68692300D01*
X193099228Y-68692300D01*
X193099226Y-68692300D01*
X192972731Y-68707659D01*
X192972725Y-68707660D01*
X192813668Y-68767982D01*
X192673672Y-68864616D01*
X192560863Y-68991950D01*
X192481810Y-69142573D01*
X192441100Y-69307743D01*
X192441100Y-69307744D01*
X192441100Y-69477856D01*
X190842100Y-69477856D01*
X190842100Y-69307744D01*
X190801390Y-69142575D01*
X190756324Y-69056709D01*
X190722336Y-68991950D01*
X190703160Y-68970305D01*
X190609529Y-68864617D01*
X190559777Y-68830275D01*
X190469531Y-68767982D01*
X190310474Y-68707660D01*
X190310468Y-68707659D01*
X190183974Y-68692300D01*
X190183972Y-68692300D01*
X190099228Y-68692300D01*
X190099226Y-68692300D01*
X189972731Y-68707659D01*
X189972725Y-68707660D01*
X189813668Y-68767982D01*
X189673672Y-68864616D01*
X189560863Y-68991950D01*
X189481810Y-69142573D01*
X189441099Y-69307743D01*
X174244500Y-69307743D01*
X174244500Y-67993300D01*
X174264185Y-67926261D01*
X174316989Y-67880506D01*
X174368500Y-67869300D01*
X205855030Y-67869300D01*
X205922069Y-67888985D01*
G37*
%TD.AperFunction*%
%TD*%
%TA.AperFunction,Conductor*%
%TO.N,VCC*%
G36*
X239800109Y-67869599D02*
G01*
X239853977Y-67874904D01*
X239974941Y-67886818D01*
X239998769Y-67891557D01*
X240163001Y-67941376D01*
X240185453Y-67950677D01*
X240220370Y-67969340D01*
X240336798Y-68031572D01*
X240357010Y-68045077D01*
X240489666Y-68153945D01*
X240506854Y-68171133D01*
X240615722Y-68303789D01*
X240629227Y-68324001D01*
X240710121Y-68475343D01*
X240719424Y-68497801D01*
X240769240Y-68662024D01*
X240773982Y-68685864D01*
X240791201Y-68860690D01*
X240791500Y-68866771D01*
X240791500Y-102318615D01*
X240771815Y-102385654D01*
X240719011Y-102431409D01*
X240649853Y-102441353D01*
X240594615Y-102418933D01*
X240452734Y-102315851D01*
X240452729Y-102315848D01*
X240279807Y-102238857D01*
X240279802Y-102238855D01*
X240134000Y-102207865D01*
X240094646Y-102199500D01*
X239905354Y-102199500D01*
X239872897Y-102206398D01*
X239720197Y-102238855D01*
X239720192Y-102238857D01*
X239547270Y-102315848D01*
X239547265Y-102315851D01*
X239394129Y-102427111D01*
X239267467Y-102567783D01*
X239257387Y-102585243D01*
X239206819Y-102633458D01*
X239138212Y-102646680D01*
X239073347Y-102620712D01*
X239042613Y-102585243D01*
X239039171Y-102579281D01*
X239032533Y-102567784D01*
X238905871Y-102427112D01*
X238887648Y-102413872D01*
X238752734Y-102315851D01*
X238752729Y-102315848D01*
X238579807Y-102238857D01*
X238579802Y-102238855D01*
X238434000Y-102207865D01*
X238394646Y-102199500D01*
X238205354Y-102199500D01*
X238172897Y-102206398D01*
X238020197Y-102238855D01*
X238020192Y-102238857D01*
X237847271Y-102315848D01*
X237722885Y-102406219D01*
X237657078Y-102429698D01*
X237589024Y-102413872D01*
X237577115Y-102406219D01*
X237456537Y-102318615D01*
X237452730Y-102315849D01*
X237452728Y-102315848D01*
X237452729Y-102315848D01*
X237279807Y-102238857D01*
X237279802Y-102238855D01*
X237134000Y-102207865D01*
X237094646Y-102199500D01*
X236905354Y-102199500D01*
X236872897Y-102206398D01*
X236720197Y-102238855D01*
X236720192Y-102238857D01*
X236547270Y-102315848D01*
X236547265Y-102315851D01*
X236394129Y-102427111D01*
X236267467Y-102567783D01*
X236257387Y-102585243D01*
X236206819Y-102633458D01*
X236138212Y-102646680D01*
X236073347Y-102620712D01*
X236042613Y-102585243D01*
X236039171Y-102579281D01*
X236032533Y-102567784D01*
X235905871Y-102427112D01*
X235887648Y-102413872D01*
X235752734Y-102315851D01*
X235752729Y-102315848D01*
X235579807Y-102238857D01*
X235579802Y-102238855D01*
X235434001Y-102207865D01*
X235394646Y-102199500D01*
X235205354Y-102199500D01*
X235172897Y-102206398D01*
X235020197Y-102238855D01*
X235020192Y-102238857D01*
X234847270Y-102315848D01*
X234847265Y-102315851D01*
X234694129Y-102427111D01*
X234567466Y-102567785D01*
X234472821Y-102731715D01*
X234472818Y-102731722D01*
X234414327Y-102911740D01*
X234414326Y-102911744D01*
X234406703Y-102984277D01*
X234394540Y-103100000D01*
X234402147Y-103172377D01*
X234389577Y-103241107D01*
X234341845Y-103292130D01*
X234274105Y-103309248D01*
X234207863Y-103287025D01*
X234169994Y-103244765D01*
X234122229Y-103157290D01*
X234122224Y-103157282D01*
X233950745Y-102928212D01*
X233950729Y-102928194D01*
X233748405Y-102725870D01*
X233748387Y-102725854D01*
X233568064Y-102590867D01*
X233526192Y-102534934D01*
X233521208Y-102465242D01*
X233554693Y-102403919D01*
X233568064Y-102392333D01*
X233748387Y-102257345D01*
X233748387Y-102257344D01*
X233748395Y-102257339D01*
X233950739Y-102054995D01*
X234122226Y-101825915D01*
X234259367Y-101574761D01*
X234359369Y-101306646D01*
X234420196Y-101027028D01*
X234440610Y-100741600D01*
X234420196Y-100456172D01*
X234414316Y-100429144D01*
X234359371Y-100176562D01*
X234359370Y-100176560D01*
X234359369Y-100176554D01*
X234259367Y-99908439D01*
X234185350Y-99772888D01*
X234122229Y-99657290D01*
X234122224Y-99657282D01*
X233950745Y-99428212D01*
X233950729Y-99428194D01*
X233748405Y-99225870D01*
X233748387Y-99225854D01*
X233519317Y-99054375D01*
X233519309Y-99054370D01*
X233268166Y-98917235D01*
X233268167Y-98917235D01*
X233160914Y-98877232D01*
X233000046Y-98817231D01*
X233000043Y-98817230D01*
X233000037Y-98817228D01*
X232720433Y-98756404D01*
X232435001Y-98735990D01*
X232434999Y-98735990D01*
X232149566Y-98756404D01*
X231869962Y-98817228D01*
X231601833Y-98917235D01*
X231350690Y-99054370D01*
X231350682Y-99054375D01*
X231121612Y-99225854D01*
X231121594Y-99225870D01*
X230919270Y-99428194D01*
X230919254Y-99428212D01*
X230747775Y-99657282D01*
X230747770Y-99657290D01*
X230610635Y-99908433D01*
X230510628Y-100176562D01*
X230449804Y-100456166D01*
X230429390Y-100741598D01*
X230429390Y-100741601D01*
X230449804Y-101027033D01*
X230510628Y-101306637D01*
X230610635Y-101574766D01*
X230747770Y-101825909D01*
X230747775Y-101825917D01*
X230919254Y-102054987D01*
X230919270Y-102055005D01*
X231121594Y-102257329D01*
X231121612Y-102257345D01*
X231301935Y-102392333D01*
X231343807Y-102448267D01*
X231348791Y-102517958D01*
X231315306Y-102579281D01*
X231301935Y-102590867D01*
X231121612Y-102725854D01*
X231121594Y-102725870D01*
X230919270Y-102928194D01*
X230919254Y-102928212D01*
X230747775Y-103157282D01*
X230747774Y-103157285D01*
X230737155Y-103176731D01*
X230687748Y-103226135D01*
X230619474Y-103240985D01*
X230554011Y-103216566D01*
X230512141Y-103160631D01*
X230505004Y-103104335D01*
X230505460Y-103100000D01*
X230485674Y-102911744D01*
X230427179Y-102731716D01*
X230332533Y-102567784D01*
X230205871Y-102427112D01*
X230187648Y-102413872D01*
X230052734Y-102315851D01*
X230052729Y-102315848D01*
X229879807Y-102238857D01*
X229879802Y-102238855D01*
X229734000Y-102207865D01*
X229694646Y-102199500D01*
X229505354Y-102199500D01*
X229472897Y-102206398D01*
X229320197Y-102238855D01*
X229320192Y-102238857D01*
X229147270Y-102315848D01*
X229147265Y-102315851D01*
X228994129Y-102427111D01*
X228867466Y-102567785D01*
X228772821Y-102731715D01*
X228772818Y-102731722D01*
X228714327Y-102911740D01*
X228714326Y-102911744D01*
X228694540Y-103100000D01*
X228714326Y-103288256D01*
X228714327Y-103288259D01*
X228772818Y-103468277D01*
X228772821Y-103468284D01*
X228807499Y-103528349D01*
X228841939Y-103588000D01*
X228858412Y-103655900D01*
X228841939Y-103712000D01*
X228772821Y-103831715D01*
X228772818Y-103831722D01*
X228714327Y-104011740D01*
X228714326Y-104011744D01*
X228694540Y-104200000D01*
X228714326Y-104388256D01*
X228714327Y-104388259D01*
X228772818Y-104568277D01*
X228772821Y-104568284D01*
X228841939Y-104688000D01*
X228858412Y-104755899D01*
X228841940Y-104811998D01*
X228772820Y-104931718D01*
X228772818Y-104931722D01*
X228714327Y-105111740D01*
X228714326Y-105111744D01*
X228694540Y-105300000D01*
X228714326Y-105488256D01*
X228714327Y-105488259D01*
X228772818Y-105668277D01*
X228772821Y-105668284D01*
X228867467Y-105832216D01*
X228936181Y-105908530D01*
X228994129Y-105972888D01*
X229147265Y-106084148D01*
X229147270Y-106084151D01*
X229320192Y-106161142D01*
X229320197Y-106161144D01*
X229505354Y-106200500D01*
X229505355Y-106200500D01*
X229694644Y-106200500D01*
X229694646Y-106200500D01*
X229879803Y-106161144D01*
X230052730Y-106084151D01*
X230205871Y-105972888D01*
X230273700Y-105897555D01*
X230333184Y-105860909D01*
X230403041Y-105862238D01*
X230430777Y-105880818D01*
X230394232Y-105844273D01*
X230379380Y-105776001D01*
X230395676Y-105722848D01*
X230427179Y-105668284D01*
X230485674Y-105488256D01*
X230500720Y-105345090D01*
X230527304Y-105280478D01*
X230584602Y-105240493D01*
X230654421Y-105237833D01*
X230714594Y-105273342D01*
X230732873Y-105298627D01*
X230747770Y-105325909D01*
X230747775Y-105325917D01*
X230915309Y-105549717D01*
X230939726Y-105615181D01*
X230924874Y-105683454D01*
X230875469Y-105732859D01*
X230835021Y-105745525D01*
X230835068Y-105745724D01*
X230832299Y-105746378D01*
X230829305Y-105747316D01*
X230827518Y-105747508D01*
X230692671Y-105797802D01*
X230692669Y-105797804D01*
X230577375Y-105884113D01*
X230511911Y-105908530D01*
X230453022Y-105895720D01*
X230461089Y-105901124D01*
X230488899Y-105965221D01*
X230482030Y-106023861D01*
X230440909Y-106134114D01*
X230440908Y-106134116D01*
X230434501Y-106193716D01*
X230434501Y-106193723D01*
X230434500Y-106193735D01*
X230434500Y-109289470D01*
X230434501Y-109289476D01*
X230440908Y-109349083D01*
X230491202Y-109483928D01*
X230491206Y-109483935D01*
X230577452Y-109599144D01*
X230577455Y-109599147D01*
X230692664Y-109685393D01*
X230692671Y-109685397D01*
X230827517Y-109735691D01*
X230827516Y-109735691D01*
X230834444Y-109736435D01*
X230887127Y-109742100D01*
X233982872Y-109742099D01*
X234042483Y-109735691D01*
X234177331Y-109685396D01*
X234292546Y-109599146D01*
X234378796Y-109483931D01*
X234429091Y-109349083D01*
X234435500Y-109289473D01*
X234435499Y-106193728D01*
X234429091Y-106134117D01*
X234422278Y-106115851D01*
X234378797Y-105999271D01*
X234378793Y-105999264D01*
X234292547Y-105884055D01*
X234292544Y-105884052D01*
X234177335Y-105797806D01*
X234177328Y-105797802D01*
X234042482Y-105747508D01*
X234042484Y-105747508D01*
X234040699Y-105747317D01*
X234039407Y-105746782D01*
X234034938Y-105745726D01*
X234035109Y-105745001D01*
X233976148Y-105720578D01*
X233936301Y-105663185D01*
X233933808Y-105593360D01*
X233954687Y-105549720D01*
X234122226Y-105325915D01*
X234171097Y-105236413D01*
X234220503Y-105187008D01*
X234288776Y-105172156D01*
X234354240Y-105196573D01*
X234396112Y-105252506D01*
X234403250Y-105282874D01*
X234414326Y-105388256D01*
X234414327Y-105388259D01*
X234472818Y-105568277D01*
X234472821Y-105568284D01*
X234567467Y-105732216D01*
X234626521Y-105797802D01*
X234694129Y-105872888D01*
X234847265Y-105984148D01*
X234847270Y-105984151D01*
X235020192Y-106061142D01*
X235020197Y-106061144D01*
X235205354Y-106100500D01*
X235205355Y-106100500D01*
X235394644Y-106100500D01*
X235394646Y-106100500D01*
X235579803Y-106061144D01*
X235752730Y-105984151D01*
X235905871Y-105872888D01*
X236032533Y-105732216D01*
X236042612Y-105714757D01*
X236093174Y-105666544D01*
X236161781Y-105653318D01*
X236226647Y-105679283D01*
X236257385Y-105714755D01*
X236267466Y-105732214D01*
X236267465Y-105732214D01*
X236394129Y-105872888D01*
X236547265Y-105984148D01*
X236547270Y-105984151D01*
X236720192Y-106061142D01*
X236720197Y-106061144D01*
X236905354Y-106100500D01*
X236905355Y-106100500D01*
X237094644Y-106100500D01*
X237094646Y-106100500D01*
X237279803Y-106061144D01*
X237452730Y-105984151D01*
X237577117Y-105893778D01*
X237642919Y-105870300D01*
X237710973Y-105886125D01*
X237722884Y-105893780D01*
X237847265Y-105984148D01*
X237847270Y-105984151D01*
X238020192Y-106061142D01*
X238020197Y-106061144D01*
X238205354Y-106100500D01*
X238205355Y-106100500D01*
X238394644Y-106100500D01*
X238394646Y-106100500D01*
X238579803Y-106061144D01*
X238752730Y-105984151D01*
X238905871Y-105872888D01*
X239032533Y-105732216D01*
X239042612Y-105714757D01*
X239093179Y-105666542D01*
X239161786Y-105653318D01*
X239226651Y-105679286D01*
X239257386Y-105714756D01*
X239260748Y-105720578D01*
X239267467Y-105732216D01*
X239394129Y-105872888D01*
X239547265Y-105984148D01*
X239547270Y-105984151D01*
X239720192Y-106061142D01*
X239720197Y-106061144D01*
X239905354Y-106100500D01*
X239905355Y-106100500D01*
X240094644Y-106100500D01*
X240094646Y-106100500D01*
X240279803Y-106061144D01*
X240452730Y-105984151D01*
X240594614Y-105881066D01*
X240660421Y-105857586D01*
X240728475Y-105873411D01*
X240777170Y-105923517D01*
X240791500Y-105981384D01*
X240791500Y-131082027D01*
X240791201Y-131088108D01*
X240773982Y-131262934D01*
X240769240Y-131286775D01*
X240719424Y-131450998D01*
X240710121Y-131473456D01*
X240629227Y-131624798D01*
X240615722Y-131645010D01*
X240506854Y-131777666D01*
X240489666Y-131794854D01*
X240357010Y-131903722D01*
X240336798Y-131917227D01*
X240185456Y-131998121D01*
X240162998Y-132007424D01*
X239998775Y-132057240D01*
X239974935Y-132061982D01*
X239800109Y-132079201D01*
X239794028Y-132079500D01*
X208370582Y-132079500D01*
X208364512Y-132079202D01*
X208190002Y-132062044D01*
X208166202Y-132057318D01*
X208002243Y-132007674D01*
X207979817Y-131998403D01*
X207828663Y-131917775D01*
X207808473Y-131904314D01*
X207675919Y-131795795D01*
X207658744Y-131778668D01*
X207549849Y-131646393D01*
X207536340Y-131626249D01*
X207535561Y-131624798D01*
X207455296Y-131475310D01*
X207445969Y-131452922D01*
X207395872Y-131289086D01*
X207391084Y-131265312D01*
X207372935Y-131085752D01*
X207372622Y-131079697D01*
X207364207Y-128000000D01*
X215894540Y-128000000D01*
X215914326Y-128188256D01*
X215914327Y-128188259D01*
X215972818Y-128368277D01*
X215972821Y-128368284D01*
X216067467Y-128532216D01*
X216189533Y-128667784D01*
X216194129Y-128672888D01*
X216347265Y-128784148D01*
X216347270Y-128784151D01*
X216520192Y-128861142D01*
X216520197Y-128861144D01*
X216705354Y-128900500D01*
X216705355Y-128900500D01*
X216894644Y-128900500D01*
X216894646Y-128900500D01*
X216964364Y-128885681D01*
X217034031Y-128890997D01*
X217089765Y-128933134D01*
X217113870Y-128998714D01*
X217113466Y-129019925D01*
X217094540Y-129200000D01*
X217114326Y-129388256D01*
X217114327Y-129388259D01*
X217172818Y-129568277D01*
X217172821Y-129568284D01*
X217267467Y-129732216D01*
X217394129Y-129872888D01*
X217547265Y-129984148D01*
X217547270Y-129984151D01*
X217720192Y-130061142D01*
X217720197Y-130061144D01*
X217905354Y-130100500D01*
X217905355Y-130100500D01*
X218094644Y-130100500D01*
X218094646Y-130100500D01*
X218279803Y-130061144D01*
X218452730Y-129984151D01*
X218605871Y-129872888D01*
X218732533Y-129732216D01*
X218827179Y-129568284D01*
X218885674Y-129388256D01*
X218905460Y-129200000D01*
X218885674Y-129011744D01*
X218827179Y-128831716D01*
X218732533Y-128667784D01*
X218605871Y-128527112D01*
X218605870Y-128527111D01*
X218452734Y-128415851D01*
X218452729Y-128415848D01*
X218279807Y-128338857D01*
X218279802Y-128338855D01*
X218134000Y-128307865D01*
X218094646Y-128299500D01*
X217905354Y-128299500D01*
X217905353Y-128299500D01*
X217835634Y-128314319D01*
X217765967Y-128309003D01*
X217710234Y-128266866D01*
X217686129Y-128201286D01*
X217686532Y-128180086D01*
X217705460Y-128000000D01*
X217685674Y-127811744D01*
X217627179Y-127631716D01*
X217532533Y-127467784D01*
X217405871Y-127327112D01*
X217405870Y-127327111D01*
X217252734Y-127215851D01*
X217252729Y-127215848D01*
X217079807Y-127138857D01*
X217079802Y-127138855D01*
X216934001Y-127107865D01*
X216894646Y-127099500D01*
X216705354Y-127099500D01*
X216672897Y-127106398D01*
X216520197Y-127138855D01*
X216520192Y-127138857D01*
X216347270Y-127215848D01*
X216347265Y-127215851D01*
X216194129Y-127327111D01*
X216067466Y-127467785D01*
X215972821Y-127631715D01*
X215972818Y-127631722D01*
X215914327Y-127811740D01*
X215914326Y-127811744D01*
X215894540Y-128000000D01*
X207364207Y-128000000D01*
X207351912Y-123500000D01*
X216094540Y-123500000D01*
X216114326Y-123688256D01*
X216114327Y-123688259D01*
X216172818Y-123868277D01*
X216172821Y-123868284D01*
X216267467Y-124032216D01*
X216394129Y-124172887D01*
X216394129Y-124172888D01*
X216547265Y-124284148D01*
X216547270Y-124284151D01*
X216720192Y-124361142D01*
X216720197Y-124361144D01*
X216905354Y-124400500D01*
X216905355Y-124400500D01*
X217094644Y-124400500D01*
X217094646Y-124400500D01*
X217279803Y-124361144D01*
X217452730Y-124284151D01*
X217605871Y-124172888D01*
X217732533Y-124032216D01*
X217827179Y-123868284D01*
X217885674Y-123688256D01*
X217905460Y-123500000D01*
X217885674Y-123311744D01*
X217827179Y-123131716D01*
X217732533Y-122967784D01*
X217605871Y-122827112D01*
X217605870Y-122827111D01*
X217452734Y-122715851D01*
X217452729Y-122715848D01*
X217279807Y-122638857D01*
X217279802Y-122638855D01*
X217134001Y-122607865D01*
X217094646Y-122599500D01*
X216905354Y-122599500D01*
X216872897Y-122606398D01*
X216720197Y-122638855D01*
X216720192Y-122638857D01*
X216547270Y-122715848D01*
X216547265Y-122715851D01*
X216394129Y-122827111D01*
X216267466Y-122967785D01*
X216172821Y-123131715D01*
X216172818Y-123131722D01*
X216114327Y-123311740D01*
X216114326Y-123311744D01*
X216094540Y-123500000D01*
X207351912Y-123500000D01*
X207342043Y-119888000D01*
X215908940Y-119888000D01*
X215928726Y-120076256D01*
X215928727Y-120076259D01*
X215987218Y-120256277D01*
X215987221Y-120256284D01*
X216081867Y-120420216D01*
X216208529Y-120560888D01*
X216361665Y-120672148D01*
X216361670Y-120672151D01*
X216534592Y-120749142D01*
X216534597Y-120749144D01*
X216719754Y-120788500D01*
X216719755Y-120788500D01*
X216909044Y-120788500D01*
X216909046Y-120788500D01*
X217094203Y-120749144D01*
X217267130Y-120672151D01*
X217420271Y-120560888D01*
X217546933Y-120420216D01*
X217641579Y-120256284D01*
X217700074Y-120076256D01*
X217719860Y-119888000D01*
X217700074Y-119699744D01*
X217641579Y-119519716D01*
X217546933Y-119355784D01*
X217420271Y-119215112D01*
X217420270Y-119215111D01*
X217267134Y-119103851D01*
X217267129Y-119103848D01*
X217094207Y-119026857D01*
X217094202Y-119026855D01*
X216948400Y-118995865D01*
X216909046Y-118987500D01*
X216719754Y-118987500D01*
X216687297Y-118994398D01*
X216534597Y-119026855D01*
X216534592Y-119026857D01*
X216361670Y-119103848D01*
X216361665Y-119103851D01*
X216208529Y-119215111D01*
X216081866Y-119355785D01*
X215987221Y-119519715D01*
X215987218Y-119519722D01*
X215928727Y-119699740D01*
X215928726Y-119699744D01*
X215908940Y-119888000D01*
X207342043Y-119888000D01*
X207329274Y-115214400D01*
X208796940Y-115214400D01*
X208816726Y-115402656D01*
X208816727Y-115402659D01*
X208875218Y-115582677D01*
X208875221Y-115582684D01*
X208969867Y-115746616D01*
X209028509Y-115811744D01*
X209096529Y-115887288D01*
X209249665Y-115998548D01*
X209249670Y-115998551D01*
X209422592Y-116075542D01*
X209422597Y-116075544D01*
X209607754Y-116114900D01*
X209607755Y-116114900D01*
X209797044Y-116114900D01*
X209797046Y-116114900D01*
X209982203Y-116075544D01*
X210151876Y-116000000D01*
X218094540Y-116000000D01*
X218114326Y-116188256D01*
X218114327Y-116188259D01*
X218172818Y-116368277D01*
X218172821Y-116368284D01*
X218267467Y-116532216D01*
X218394129Y-116672888D01*
X218547265Y-116784148D01*
X218547270Y-116784151D01*
X218720192Y-116861142D01*
X218720197Y-116861144D01*
X218905354Y-116900500D01*
X218905355Y-116900500D01*
X219094644Y-116900500D01*
X219094646Y-116900500D01*
X219279803Y-116861144D01*
X219452730Y-116784151D01*
X219605871Y-116672888D01*
X219732533Y-116532216D01*
X219827179Y-116368284D01*
X219885674Y-116188256D01*
X219899662Y-116055160D01*
X219926245Y-115990549D01*
X219983542Y-115950564D01*
X220053361Y-115947904D01*
X220113535Y-115983413D01*
X220115122Y-115985142D01*
X220128500Y-116000000D01*
X220194129Y-116072888D01*
X220347265Y-116184148D01*
X220347270Y-116184151D01*
X220520192Y-116261142D01*
X220520197Y-116261144D01*
X220705354Y-116300500D01*
X220705355Y-116300500D01*
X220894644Y-116300500D01*
X220894646Y-116300500D01*
X221079803Y-116261144D01*
X221252730Y-116184151D01*
X221277114Y-116166434D01*
X221342919Y-116142954D01*
X221410973Y-116158778D01*
X221422879Y-116166429D01*
X221436430Y-116176275D01*
X221447269Y-116184150D01*
X221447270Y-116184151D01*
X221620192Y-116261142D01*
X221620197Y-116261144D01*
X221805354Y-116300500D01*
X221805355Y-116300500D01*
X221994644Y-116300500D01*
X221994646Y-116300500D01*
X222179803Y-116261144D01*
X222349566Y-116185559D01*
X222418813Y-116176275D01*
X222450430Y-116185557D01*
X222620197Y-116261144D01*
X222805354Y-116300500D01*
X222805355Y-116300500D01*
X222994644Y-116300500D01*
X222994646Y-116300500D01*
X223179803Y-116261144D01*
X223352730Y-116184151D01*
X223505871Y-116072888D01*
X223632533Y-115932216D01*
X223727179Y-115768284D01*
X223785674Y-115588256D01*
X223805460Y-115400000D01*
X223785674Y-115211744D01*
X223727179Y-115031716D01*
X223686927Y-114961999D01*
X223670454Y-114894101D01*
X223686927Y-114838001D01*
X223727179Y-114768284D01*
X223785674Y-114588256D01*
X223805460Y-114400000D01*
X223785674Y-114211744D01*
X223727179Y-114031716D01*
X223632533Y-113867784D01*
X223505871Y-113727112D01*
X223505870Y-113727111D01*
X223352734Y-113615851D01*
X223352729Y-113615848D01*
X223179807Y-113538857D01*
X223179802Y-113538855D01*
X223034000Y-113507865D01*
X222994646Y-113499500D01*
X222805354Y-113499500D01*
X222772897Y-113506398D01*
X222620197Y-113538855D01*
X222620192Y-113538857D01*
X222450436Y-113614439D01*
X222381186Y-113623724D01*
X222349564Y-113614439D01*
X222179807Y-113538857D01*
X222179802Y-113538855D01*
X222034001Y-113507865D01*
X221994646Y-113499500D01*
X221805354Y-113499500D01*
X221772897Y-113506398D01*
X221620197Y-113538855D01*
X221620192Y-113538857D01*
X221447270Y-113615848D01*
X221447265Y-113615851D01*
X221422885Y-113633565D01*
X221357079Y-113657045D01*
X221289025Y-113641219D01*
X221277115Y-113633565D01*
X221252734Y-113615851D01*
X221252729Y-113615848D01*
X221079807Y-113538857D01*
X221079802Y-113538855D01*
X220934001Y-113507865D01*
X220894646Y-113499500D01*
X220705354Y-113499500D01*
X220672897Y-113506398D01*
X220520197Y-113538855D01*
X220520192Y-113538857D01*
X220347270Y-113615848D01*
X220347265Y-113615851D01*
X220194129Y-113727111D01*
X220067466Y-113867785D01*
X219972821Y-114031715D01*
X219972818Y-114031722D01*
X219914327Y-114211740D01*
X219914326Y-114211744D01*
X219894540Y-114400000D01*
X219914326Y-114588256D01*
X219914327Y-114588259D01*
X219972818Y-114768277D01*
X219972820Y-114768281D01*
X219972821Y-114768284D01*
X219972823Y-114768287D01*
X220013072Y-114838001D01*
X220029543Y-114905901D01*
X220013072Y-114961999D01*
X219972820Y-115031718D01*
X219972818Y-115031722D01*
X219914327Y-115211740D01*
X219914326Y-115211744D01*
X219902201Y-115327111D01*
X219900338Y-115344836D01*
X219873753Y-115409450D01*
X219816456Y-115449435D01*
X219746637Y-115452095D01*
X219686463Y-115416585D01*
X219684867Y-115414846D01*
X219680008Y-115409450D01*
X219605871Y-115327112D01*
X219605870Y-115327111D01*
X219452734Y-115215851D01*
X219452729Y-115215848D01*
X219279807Y-115138857D01*
X219279802Y-115138855D01*
X219134000Y-115107865D01*
X219094646Y-115099500D01*
X218905354Y-115099500D01*
X218872897Y-115106398D01*
X218720197Y-115138855D01*
X218720192Y-115138857D01*
X218547270Y-115215848D01*
X218547265Y-115215851D01*
X218394129Y-115327111D01*
X218267466Y-115467785D01*
X218172821Y-115631715D01*
X218172818Y-115631722D01*
X218135488Y-115746614D01*
X218114326Y-115811744D01*
X218094540Y-116000000D01*
X210151876Y-116000000D01*
X210155130Y-115998551D01*
X210308271Y-115887288D01*
X210434933Y-115746616D01*
X210529579Y-115582684D01*
X210588074Y-115402656D01*
X210607860Y-115214400D01*
X210588074Y-115026144D01*
X210529579Y-114846116D01*
X210434933Y-114682184D01*
X210308271Y-114541512D01*
X210308270Y-114541511D01*
X210155134Y-114430251D01*
X210155129Y-114430248D01*
X209982207Y-114353257D01*
X209982202Y-114353255D01*
X209836400Y-114322265D01*
X209797046Y-114313900D01*
X209607754Y-114313900D01*
X209575297Y-114320798D01*
X209422597Y-114353255D01*
X209422592Y-114353257D01*
X209249670Y-114430248D01*
X209249665Y-114430251D01*
X209096529Y-114541511D01*
X208969866Y-114682185D01*
X208875221Y-114846115D01*
X208875218Y-114846122D01*
X208837568Y-114961999D01*
X208816726Y-115026144D01*
X208796940Y-115214400D01*
X207329274Y-115214400D01*
X207317054Y-110741600D01*
X236229356Y-110741600D01*
X236249884Y-110963135D01*
X236249885Y-110963137D01*
X236310769Y-111177123D01*
X236310775Y-111177138D01*
X236409938Y-111376283D01*
X236409943Y-111376291D01*
X236544020Y-111553838D01*
X236708437Y-111703723D01*
X236708439Y-111703725D01*
X236897595Y-111820845D01*
X236897596Y-111820845D01*
X236897599Y-111820847D01*
X237105060Y-111901218D01*
X237323757Y-111942100D01*
X237323759Y-111942100D01*
X237546241Y-111942100D01*
X237546243Y-111942100D01*
X237764940Y-111901218D01*
X237972401Y-111820847D01*
X238161562Y-111703724D01*
X238325981Y-111553836D01*
X238460058Y-111376289D01*
X238559229Y-111177128D01*
X238620115Y-110963136D01*
X238640643Y-110741600D01*
X238620115Y-110520064D01*
X238559229Y-110306072D01*
X238559224Y-110306061D01*
X238460061Y-110106916D01*
X238460056Y-110106908D01*
X238325979Y-109929361D01*
X238161562Y-109779476D01*
X238161560Y-109779474D01*
X237972404Y-109662354D01*
X237972398Y-109662352D01*
X237764940Y-109581982D01*
X237546243Y-109541100D01*
X237323757Y-109541100D01*
X237105060Y-109581982D01*
X236973864Y-109632807D01*
X236897601Y-109662352D01*
X236897595Y-109662354D01*
X236708439Y-109779474D01*
X236708437Y-109779476D01*
X236544020Y-109929361D01*
X236409943Y-110106908D01*
X236409938Y-110106916D01*
X236310775Y-110306061D01*
X236310769Y-110306076D01*
X236249885Y-110520062D01*
X236249884Y-110520064D01*
X236229356Y-110741599D01*
X236229356Y-110741600D01*
X207317054Y-110741600D01*
X207306558Y-106900000D01*
X211994540Y-106900000D01*
X212014326Y-107088256D01*
X212014327Y-107088259D01*
X212072818Y-107268277D01*
X212072821Y-107268284D01*
X212167467Y-107432216D01*
X212199493Y-107467784D01*
X212294129Y-107572888D01*
X212447265Y-107684148D01*
X212447270Y-107684151D01*
X212620192Y-107761142D01*
X212620197Y-107761144D01*
X212805354Y-107800500D01*
X212805355Y-107800500D01*
X212994644Y-107800500D01*
X212994646Y-107800500D01*
X213155898Y-107766225D01*
X213225565Y-107771541D01*
X213281299Y-107813678D01*
X213305404Y-107879258D01*
X213305000Y-107900476D01*
X213294540Y-107999999D01*
X213294540Y-108000000D01*
X213314326Y-108188256D01*
X213314327Y-108188259D01*
X213372818Y-108368277D01*
X213372821Y-108368284D01*
X213467467Y-108532216D01*
X213594129Y-108672888D01*
X213747265Y-108784148D01*
X213747270Y-108784151D01*
X213920192Y-108861142D01*
X213920197Y-108861144D01*
X214105354Y-108900500D01*
X214105355Y-108900500D01*
X214294644Y-108900500D01*
X214294646Y-108900500D01*
X214296998Y-108900000D01*
X216094540Y-108900000D01*
X216114326Y-109088256D01*
X216114327Y-109088259D01*
X216172818Y-109268277D01*
X216172821Y-109268284D01*
X216267467Y-109432216D01*
X216365507Y-109541100D01*
X216394129Y-109572888D01*
X216547265Y-109684148D01*
X216547270Y-109684151D01*
X216720192Y-109761142D01*
X216720197Y-109761144D01*
X216905354Y-109800500D01*
X216905355Y-109800500D01*
X217094644Y-109800500D01*
X217094646Y-109800500D01*
X217279803Y-109761144D01*
X217452730Y-109684151D01*
X217605871Y-109572888D01*
X217732533Y-109432216D01*
X217827179Y-109268284D01*
X217885674Y-109088256D01*
X217905460Y-108900000D01*
X217885674Y-108711744D01*
X217831112Y-108543823D01*
X217827181Y-108531722D01*
X217827180Y-108531721D01*
X217827179Y-108531716D01*
X217732533Y-108367784D01*
X217605871Y-108227112D01*
X217605870Y-108227111D01*
X217452734Y-108115851D01*
X217452729Y-108115848D01*
X217279807Y-108038857D01*
X217279802Y-108038855D01*
X217134001Y-108007865D01*
X217094646Y-107999500D01*
X216905354Y-107999500D01*
X216872897Y-108006398D01*
X216720197Y-108038855D01*
X216720192Y-108038857D01*
X216547270Y-108115848D01*
X216547265Y-108115851D01*
X216394129Y-108227111D01*
X216267466Y-108367785D01*
X216172821Y-108531715D01*
X216172818Y-108531722D01*
X216126951Y-108672888D01*
X216114326Y-108711744D01*
X216094540Y-108900000D01*
X214296998Y-108900000D01*
X214479803Y-108861144D01*
X214652730Y-108784151D01*
X214805871Y-108672888D01*
X214932533Y-108532216D01*
X215027179Y-108368284D01*
X215085674Y-108188256D01*
X215105460Y-108000000D01*
X215085674Y-107811744D01*
X215027179Y-107631716D01*
X214932533Y-107467784D01*
X214805871Y-107327112D01*
X214805870Y-107327111D01*
X214652734Y-107215851D01*
X214652729Y-107215848D01*
X214479807Y-107138857D01*
X214479802Y-107138855D01*
X214334000Y-107107865D01*
X214294646Y-107099500D01*
X214105354Y-107099500D01*
X213986550Y-107124752D01*
X213944100Y-107133775D01*
X213874433Y-107128458D01*
X213818700Y-107086320D01*
X213794595Y-107020740D01*
X213794998Y-106999534D01*
X213805460Y-106900000D01*
X213785674Y-106711744D01*
X213727179Y-106531716D01*
X213632533Y-106367784D01*
X213505871Y-106227112D01*
X213469243Y-106200500D01*
X213352734Y-106115851D01*
X213352729Y-106115848D01*
X213179807Y-106038857D01*
X213179802Y-106038855D01*
X213034000Y-106007865D01*
X212994646Y-105999500D01*
X212805354Y-105999500D01*
X212772897Y-106006398D01*
X212620197Y-106038855D01*
X212620192Y-106038857D01*
X212447270Y-106115848D01*
X212447265Y-106115851D01*
X212294129Y-106227111D01*
X212167466Y-106367785D01*
X212072821Y-106531715D01*
X212072818Y-106531722D01*
X212014327Y-106711740D01*
X212014326Y-106711744D01*
X211994540Y-106900000D01*
X207306558Y-106900000D01*
X207294853Y-102616000D01*
X215502540Y-102616000D01*
X215522326Y-102804256D01*
X215522327Y-102804259D01*
X215580818Y-102984277D01*
X215580821Y-102984284D01*
X215675467Y-103148216D01*
X215800452Y-103287025D01*
X215802129Y-103288888D01*
X215955265Y-103400148D01*
X215955270Y-103400151D01*
X216128192Y-103477142D01*
X216128197Y-103477144D01*
X216313354Y-103516500D01*
X216313355Y-103516500D01*
X216502644Y-103516500D01*
X216502646Y-103516500D01*
X216687803Y-103477144D01*
X216860730Y-103400151D01*
X217013871Y-103288888D01*
X217140533Y-103148216D01*
X217235179Y-102984284D01*
X217293674Y-102804256D01*
X217313460Y-102616000D01*
X217293674Y-102427744D01*
X217235179Y-102247716D01*
X217140533Y-102083784D01*
X217013871Y-101943112D01*
X217013870Y-101943111D01*
X216860734Y-101831851D01*
X216860729Y-101831848D01*
X216687807Y-101754857D01*
X216687802Y-101754855D01*
X216542000Y-101723865D01*
X216502646Y-101715500D01*
X216313354Y-101715500D01*
X216280897Y-101722398D01*
X216128197Y-101754855D01*
X216128192Y-101754857D01*
X215955270Y-101831848D01*
X215955265Y-101831851D01*
X215802129Y-101943111D01*
X215675466Y-102083785D01*
X215580821Y-102247715D01*
X215580818Y-102247722D01*
X215522531Y-102427112D01*
X215522326Y-102427744D01*
X215502540Y-102616000D01*
X207294853Y-102616000D01*
X207294585Y-102517958D01*
X207286525Y-99568000D01*
X208593740Y-99568000D01*
X208613526Y-99756256D01*
X208613527Y-99756259D01*
X208672018Y-99936277D01*
X208672021Y-99936284D01*
X208766667Y-100100216D01*
X208893329Y-100240888D01*
X209046465Y-100352148D01*
X209046470Y-100352151D01*
X209219392Y-100429142D01*
X209219397Y-100429144D01*
X209404554Y-100468500D01*
X209404555Y-100468500D01*
X209593844Y-100468500D01*
X209593846Y-100468500D01*
X209779003Y-100429144D01*
X209951930Y-100352151D01*
X210105071Y-100240888D01*
X210231733Y-100100216D01*
X210326379Y-99936284D01*
X210384874Y-99756256D01*
X210404660Y-99568000D01*
X210384874Y-99379744D01*
X210326379Y-99199716D01*
X210268808Y-99100000D01*
X217894540Y-99100000D01*
X217914326Y-99288256D01*
X217914327Y-99288259D01*
X217972818Y-99468277D01*
X217972821Y-99468284D01*
X218067467Y-99632216D01*
X218179156Y-99756259D01*
X218194129Y-99772888D01*
X218347265Y-99884148D01*
X218347270Y-99884151D01*
X218520192Y-99961142D01*
X218520197Y-99961144D01*
X218705354Y-100000500D01*
X218705355Y-100000500D01*
X218894644Y-100000500D01*
X218894646Y-100000500D01*
X219079803Y-99961144D01*
X219252730Y-99884151D01*
X219405871Y-99772888D01*
X219532533Y-99632216D01*
X219627179Y-99468284D01*
X219685674Y-99288256D01*
X219705460Y-99100000D01*
X219685674Y-98911744D01*
X219627179Y-98731716D01*
X219612827Y-98706857D01*
X219579127Y-98648486D01*
X219562654Y-98580586D01*
X219585507Y-98514559D01*
X219640428Y-98471369D01*
X219660727Y-98465198D01*
X219679803Y-98461144D01*
X219852730Y-98384151D01*
X219877114Y-98366434D01*
X219942919Y-98342954D01*
X220010973Y-98358778D01*
X220022879Y-98366429D01*
X220036452Y-98376291D01*
X220047269Y-98384150D01*
X220047270Y-98384151D01*
X220220192Y-98461142D01*
X220220197Y-98461144D01*
X220405354Y-98500500D01*
X220405355Y-98500500D01*
X220594644Y-98500500D01*
X220594646Y-98500500D01*
X220779803Y-98461144D01*
X220952730Y-98384151D01*
X220977114Y-98366434D01*
X221042919Y-98342954D01*
X221110973Y-98358778D01*
X221122879Y-98366429D01*
X221136452Y-98376291D01*
X221147269Y-98384150D01*
X221147270Y-98384151D01*
X221320192Y-98461142D01*
X221320197Y-98461144D01*
X221505354Y-98500500D01*
X221505355Y-98500500D01*
X221694644Y-98500500D01*
X221694646Y-98500500D01*
X221879803Y-98461144D01*
X222052730Y-98384151D01*
X222205871Y-98272888D01*
X222332533Y-98132216D01*
X222427179Y-97968284D01*
X222485674Y-97788256D01*
X222490578Y-97741600D01*
X236229356Y-97741600D01*
X236249884Y-97963135D01*
X236249885Y-97963137D01*
X236310769Y-98177123D01*
X236310775Y-98177138D01*
X236409938Y-98376283D01*
X236409943Y-98376291D01*
X236544020Y-98553838D01*
X236708437Y-98703723D01*
X236708439Y-98703725D01*
X236897595Y-98820845D01*
X236897596Y-98820845D01*
X236897599Y-98820847D01*
X237105060Y-98901218D01*
X237323757Y-98942100D01*
X237323759Y-98942100D01*
X237546241Y-98942100D01*
X237546243Y-98942100D01*
X237764940Y-98901218D01*
X237972401Y-98820847D01*
X238161562Y-98703724D01*
X238325981Y-98553836D01*
X238460058Y-98376289D01*
X238468778Y-98358778D01*
X238559224Y-98177138D01*
X238559223Y-98177138D01*
X238559229Y-98177128D01*
X238620115Y-97963136D01*
X238640643Y-97741600D01*
X238620115Y-97520064D01*
X238559229Y-97306072D01*
X238487489Y-97161999D01*
X238460061Y-97106916D01*
X238460056Y-97106908D01*
X238325979Y-96929361D01*
X238161562Y-96779476D01*
X238161560Y-96779474D01*
X237972404Y-96662354D01*
X237972398Y-96662352D01*
X237764940Y-96581982D01*
X237546243Y-96541100D01*
X237323757Y-96541100D01*
X237105060Y-96581982D01*
X236973864Y-96632807D01*
X236897601Y-96662352D01*
X236897595Y-96662354D01*
X236708439Y-96779474D01*
X236708437Y-96779476D01*
X236544020Y-96929361D01*
X236409943Y-97106908D01*
X236409938Y-97106916D01*
X236310775Y-97306061D01*
X236310769Y-97306076D01*
X236249885Y-97520062D01*
X236249884Y-97520064D01*
X236229356Y-97741599D01*
X236229356Y-97741600D01*
X222490578Y-97741600D01*
X222505460Y-97600000D01*
X222485674Y-97411744D01*
X222427179Y-97231716D01*
X222386927Y-97161999D01*
X222370454Y-97094101D01*
X222386927Y-97038001D01*
X222427179Y-96968284D01*
X222485674Y-96788256D01*
X222505460Y-96600000D01*
X222485674Y-96411744D01*
X222427179Y-96231716D01*
X222332533Y-96067784D01*
X222205871Y-95927112D01*
X222205870Y-95927111D01*
X222052734Y-95815851D01*
X222052729Y-95815848D01*
X221879807Y-95738857D01*
X221879802Y-95738855D01*
X221734000Y-95707865D01*
X221694646Y-95699500D01*
X221505354Y-95699500D01*
X221472897Y-95706398D01*
X221320197Y-95738855D01*
X221320192Y-95738857D01*
X221147270Y-95815848D01*
X221147265Y-95815851D01*
X221122885Y-95833565D01*
X221057079Y-95857045D01*
X220989025Y-95841219D01*
X220977115Y-95833565D01*
X220952734Y-95815851D01*
X220952729Y-95815848D01*
X220779807Y-95738857D01*
X220779802Y-95738855D01*
X220634000Y-95707865D01*
X220594646Y-95699500D01*
X220405354Y-95699500D01*
X220372897Y-95706398D01*
X220220197Y-95738855D01*
X220220192Y-95738857D01*
X220047270Y-95815848D01*
X220047265Y-95815851D01*
X220022885Y-95833565D01*
X219957079Y-95857045D01*
X219889025Y-95841219D01*
X219877115Y-95833565D01*
X219852734Y-95815851D01*
X219852729Y-95815848D01*
X219679807Y-95738857D01*
X219679802Y-95738855D01*
X219534001Y-95707865D01*
X219494646Y-95699500D01*
X219305354Y-95699500D01*
X219272897Y-95706398D01*
X219120197Y-95738855D01*
X219120192Y-95738857D01*
X218947270Y-95815848D01*
X218947265Y-95815851D01*
X218794129Y-95927111D01*
X218667466Y-96067785D01*
X218572821Y-96231715D01*
X218572818Y-96231722D01*
X218514327Y-96411740D01*
X218514326Y-96411744D01*
X218494540Y-96600000D01*
X218514326Y-96788256D01*
X218514327Y-96788259D01*
X218572818Y-96968277D01*
X218572820Y-96968281D01*
X218572821Y-96968284D01*
X218572823Y-96968287D01*
X218613072Y-97038001D01*
X218629543Y-97105901D01*
X218613072Y-97161999D01*
X218572820Y-97231718D01*
X218572818Y-97231722D01*
X218514327Y-97411740D01*
X218514326Y-97411744D01*
X218494540Y-97600000D01*
X218514326Y-97788256D01*
X218514327Y-97788259D01*
X218572818Y-97968277D01*
X218572820Y-97968281D01*
X218572821Y-97968284D01*
X218610889Y-98034221D01*
X218620873Y-98051513D01*
X218637344Y-98119413D01*
X218614492Y-98185440D01*
X218559570Y-98228630D01*
X218539268Y-98234802D01*
X218520195Y-98238856D01*
X218520192Y-98238857D01*
X218347270Y-98315848D01*
X218347265Y-98315851D01*
X218194129Y-98427111D01*
X218067466Y-98567785D01*
X217972821Y-98731715D01*
X217972818Y-98731722D01*
X217943860Y-98820847D01*
X217914326Y-98911744D01*
X217894540Y-99100000D01*
X210268808Y-99100000D01*
X210231733Y-99035784D01*
X210105071Y-98895112D01*
X210105070Y-98895111D01*
X209951934Y-98783851D01*
X209951929Y-98783848D01*
X209779007Y-98706857D01*
X209779002Y-98706855D01*
X209633200Y-98675865D01*
X209593846Y-98667500D01*
X209404554Y-98667500D01*
X209372097Y-98674398D01*
X209219397Y-98706855D01*
X209219392Y-98706857D01*
X209046470Y-98783848D01*
X209046465Y-98783851D01*
X208893329Y-98895111D01*
X208766666Y-99035785D01*
X208672021Y-99199715D01*
X208672018Y-99199722D01*
X208643252Y-99288256D01*
X208613526Y-99379744D01*
X208593740Y-99568000D01*
X207286525Y-99568000D01*
X207259876Y-89814400D01*
X208187340Y-89814400D01*
X208207126Y-90002656D01*
X208207127Y-90002659D01*
X208265618Y-90182677D01*
X208265621Y-90182684D01*
X208360267Y-90346616D01*
X208473963Y-90472888D01*
X208486929Y-90487288D01*
X208640065Y-90598548D01*
X208640070Y-90598551D01*
X208812992Y-90675542D01*
X208812997Y-90675544D01*
X208998154Y-90714900D01*
X208998155Y-90714900D01*
X209187444Y-90714900D01*
X209187446Y-90714900D01*
X209372603Y-90675544D01*
X209545530Y-90598551D01*
X209698671Y-90487288D01*
X209825333Y-90346616D01*
X209919979Y-90182684D01*
X209978474Y-90002656D01*
X209998260Y-89814400D01*
X209996747Y-89800000D01*
X215794540Y-89800000D01*
X215814326Y-89988256D01*
X215814327Y-89988259D01*
X215872818Y-90168277D01*
X215872821Y-90168284D01*
X215967467Y-90332216D01*
X216094128Y-90472888D01*
X216094129Y-90472888D01*
X216247265Y-90584148D01*
X216247270Y-90584151D01*
X216420192Y-90661142D01*
X216420197Y-90661144D01*
X216605354Y-90700500D01*
X216605355Y-90700500D01*
X216794644Y-90700500D01*
X216794646Y-90700500D01*
X216979803Y-90661144D01*
X217152730Y-90584151D01*
X217305871Y-90472888D01*
X217432533Y-90332216D01*
X217527179Y-90168284D01*
X217585674Y-89988256D01*
X217605460Y-89800000D01*
X217585674Y-89611744D01*
X217527179Y-89431716D01*
X217432533Y-89267784D01*
X217305871Y-89127112D01*
X217305870Y-89127111D01*
X217152734Y-89015851D01*
X217152729Y-89015848D01*
X216979807Y-88938857D01*
X216979802Y-88938855D01*
X216834000Y-88907865D01*
X216794646Y-88899500D01*
X216605354Y-88899500D01*
X216572897Y-88906398D01*
X216420197Y-88938855D01*
X216420192Y-88938857D01*
X216247270Y-89015848D01*
X216247265Y-89015851D01*
X216094129Y-89127111D01*
X215967466Y-89267785D01*
X215872821Y-89431715D01*
X215872818Y-89431722D01*
X215814327Y-89611740D01*
X215814326Y-89611744D01*
X215794540Y-89800000D01*
X209996747Y-89800000D01*
X209978474Y-89626144D01*
X209919979Y-89446116D01*
X209825333Y-89282184D01*
X209698671Y-89141512D01*
X209698670Y-89141511D01*
X209545534Y-89030251D01*
X209545529Y-89030248D01*
X209372607Y-88953257D01*
X209372602Y-88953255D01*
X209226800Y-88922265D01*
X209187446Y-88913900D01*
X208998154Y-88913900D01*
X208965697Y-88920798D01*
X208812997Y-88953255D01*
X208812992Y-88953257D01*
X208640070Y-89030248D01*
X208640065Y-89030251D01*
X208486929Y-89141511D01*
X208360266Y-89282185D01*
X208265621Y-89446115D01*
X208265618Y-89446122D01*
X208211806Y-89611740D01*
X208207126Y-89626144D01*
X208187340Y-89814400D01*
X207259876Y-89814400D01*
X207253552Y-87500000D01*
X221494540Y-87500000D01*
X221514326Y-87688256D01*
X221514327Y-87688259D01*
X221572818Y-87868277D01*
X221572821Y-87868284D01*
X221667467Y-88032216D01*
X221794129Y-88172888D01*
X221947265Y-88284148D01*
X221947270Y-88284151D01*
X222120192Y-88361142D01*
X222120197Y-88361144D01*
X222305354Y-88400500D01*
X222305355Y-88400500D01*
X222494644Y-88400500D01*
X222494646Y-88400500D01*
X222679803Y-88361144D01*
X222849566Y-88285559D01*
X222918813Y-88276275D01*
X222950430Y-88285557D01*
X223120197Y-88361144D01*
X223305354Y-88400500D01*
X223305355Y-88400500D01*
X223494644Y-88400500D01*
X223494646Y-88400500D01*
X223679803Y-88361144D01*
X223852730Y-88284151D01*
X224005871Y-88172888D01*
X224132533Y-88032216D01*
X224227179Y-87868284D01*
X224285674Y-87688256D01*
X224305460Y-87500000D01*
X224285674Y-87311744D01*
X224227179Y-87131716D01*
X224158060Y-87011999D01*
X224141588Y-86944100D01*
X224158061Y-86888000D01*
X224227179Y-86768284D01*
X224285674Y-86588256D01*
X224305460Y-86400000D01*
X224285674Y-86211744D01*
X224227179Y-86031716D01*
X224158060Y-85911999D01*
X224141588Y-85844100D01*
X224158061Y-85788000D01*
X224227179Y-85668284D01*
X224285674Y-85488256D01*
X224305460Y-85300000D01*
X224285674Y-85111744D01*
X224227179Y-84931716D01*
X224132533Y-84767784D01*
X224005871Y-84627112D01*
X224005870Y-84627111D01*
X223852734Y-84515851D01*
X223852729Y-84515848D01*
X223679807Y-84438857D01*
X223679802Y-84438855D01*
X223534001Y-84407865D01*
X223494646Y-84399500D01*
X223305354Y-84399500D01*
X223272897Y-84406398D01*
X223120197Y-84438855D01*
X223120192Y-84438857D01*
X222950436Y-84514439D01*
X222881186Y-84523724D01*
X222849564Y-84514439D01*
X222679807Y-84438857D01*
X222679802Y-84438855D01*
X222534001Y-84407865D01*
X222494646Y-84399500D01*
X222305354Y-84399500D01*
X222272897Y-84406398D01*
X222120197Y-84438855D01*
X222120192Y-84438857D01*
X221947270Y-84515848D01*
X221947265Y-84515851D01*
X221794129Y-84627111D01*
X221667466Y-84767785D01*
X221572821Y-84931715D01*
X221572818Y-84931722D01*
X221514327Y-85111740D01*
X221514326Y-85111744D01*
X221494540Y-85300000D01*
X221514326Y-85488256D01*
X221514327Y-85488259D01*
X221572818Y-85668277D01*
X221572821Y-85668284D01*
X221641939Y-85788000D01*
X221658412Y-85855900D01*
X221641939Y-85912000D01*
X221572821Y-86031715D01*
X221572818Y-86031722D01*
X221514327Y-86211740D01*
X221514326Y-86211744D01*
X221494540Y-86400000D01*
X221514326Y-86588256D01*
X221514327Y-86588259D01*
X221572818Y-86768277D01*
X221572821Y-86768284D01*
X221641939Y-86888000D01*
X221658412Y-86955900D01*
X221641939Y-87012000D01*
X221572821Y-87131715D01*
X221572818Y-87131722D01*
X221514327Y-87311740D01*
X221514326Y-87311744D01*
X221494540Y-87500000D01*
X207253552Y-87500000D01*
X207237159Y-81500000D01*
X214894540Y-81500000D01*
X214914326Y-81688256D01*
X214914327Y-81688259D01*
X214972818Y-81868277D01*
X214972821Y-81868284D01*
X215067467Y-82032216D01*
X215194128Y-82172888D01*
X215194129Y-82172888D01*
X215347265Y-82284148D01*
X215347270Y-82284151D01*
X215520192Y-82361142D01*
X215520197Y-82361144D01*
X215705354Y-82400500D01*
X215705355Y-82400500D01*
X215894644Y-82400500D01*
X215894646Y-82400500D01*
X216079803Y-82361144D01*
X216252730Y-82284151D01*
X216405871Y-82172888D01*
X216532533Y-82032216D01*
X216627179Y-81868284D01*
X216685674Y-81688256D01*
X216705460Y-81500000D01*
X216685674Y-81311744D01*
X216627179Y-81131716D01*
X216532533Y-80967784D01*
X216405871Y-80827112D01*
X216405870Y-80827111D01*
X216252734Y-80715851D01*
X216252729Y-80715848D01*
X216079807Y-80638857D01*
X216079802Y-80638855D01*
X215934000Y-80607865D01*
X215894646Y-80599500D01*
X215705354Y-80599500D01*
X215672897Y-80606398D01*
X215520197Y-80638855D01*
X215520192Y-80638857D01*
X215347270Y-80715848D01*
X215347265Y-80715851D01*
X215194129Y-80827111D01*
X215067466Y-80967785D01*
X214972821Y-81131715D01*
X214972818Y-81131722D01*
X214914327Y-81311740D01*
X214914326Y-81311744D01*
X214894540Y-81500000D01*
X207237159Y-81500000D01*
X207231148Y-79300000D01*
X215594540Y-79300000D01*
X215614326Y-79488256D01*
X215614327Y-79488259D01*
X215672818Y-79668277D01*
X215672821Y-79668284D01*
X215767467Y-79832216D01*
X215894129Y-79972888D01*
X216047265Y-80084148D01*
X216047270Y-80084151D01*
X216220192Y-80161142D01*
X216220197Y-80161144D01*
X216405354Y-80200500D01*
X216405355Y-80200500D01*
X216594644Y-80200500D01*
X216594646Y-80200500D01*
X216779803Y-80161144D01*
X216952730Y-80084151D01*
X217105871Y-79972888D01*
X217232533Y-79832216D01*
X217327179Y-79668284D01*
X217385674Y-79488256D01*
X217405460Y-79300000D01*
X217385674Y-79111744D01*
X217327179Y-78931716D01*
X217232533Y-78767784D01*
X217105871Y-78627112D01*
X217105870Y-78627111D01*
X216952734Y-78515851D01*
X216952729Y-78515848D01*
X216779807Y-78438857D01*
X216779802Y-78438855D01*
X216634000Y-78407865D01*
X216594646Y-78399500D01*
X216405354Y-78399500D01*
X216372897Y-78406398D01*
X216220197Y-78438855D01*
X216220192Y-78438857D01*
X216047270Y-78515848D01*
X216047265Y-78515851D01*
X215894129Y-78627111D01*
X215767466Y-78767785D01*
X215672821Y-78931715D01*
X215672818Y-78931722D01*
X215621202Y-79090582D01*
X215614326Y-79111744D01*
X215594540Y-79300000D01*
X207231148Y-79300000D01*
X207230943Y-79225138D01*
X207250445Y-79158046D01*
X207303124Y-79112147D01*
X207354943Y-79100800D01*
X208175600Y-79100800D01*
X208175600Y-78019407D01*
X208195285Y-77952368D01*
X208248089Y-77906613D01*
X208310408Y-77895879D01*
X208366655Y-77900800D01*
X208484545Y-77900800D01*
X208540792Y-77895879D01*
X208609292Y-77909645D01*
X208659475Y-77958261D01*
X208675600Y-78019407D01*
X208675600Y-79100800D01*
X209520866Y-79100800D01*
X209665558Y-79090584D01*
X209665568Y-79090582D01*
X209905765Y-79036486D01*
X209905772Y-79036484D01*
X210134185Y-78944555D01*
X210344889Y-78817179D01*
X210344899Y-78817172D01*
X210532446Y-78657646D01*
X210691972Y-78470099D01*
X210691979Y-78470089D01*
X210819355Y-78259385D01*
X210911284Y-78030972D01*
X210911286Y-78030965D01*
X210965382Y-77790768D01*
X210965384Y-77790758D01*
X210975600Y-77646066D01*
X210975600Y-77500000D01*
X223494540Y-77500000D01*
X223514326Y-77688256D01*
X223514327Y-77688259D01*
X223572818Y-77868277D01*
X223572821Y-77868284D01*
X223667467Y-78032216D01*
X223794128Y-78172888D01*
X223794129Y-78172888D01*
X223947265Y-78284148D01*
X223947270Y-78284151D01*
X224120192Y-78361142D01*
X224120197Y-78361144D01*
X224305354Y-78400500D01*
X224305355Y-78400500D01*
X224494644Y-78400500D01*
X224494646Y-78400500D01*
X224679803Y-78361144D01*
X224852730Y-78284151D01*
X225005871Y-78172888D01*
X225132533Y-78032216D01*
X225227179Y-77868284D01*
X225285674Y-77688256D01*
X225304247Y-77511536D01*
X225330832Y-77446924D01*
X225388129Y-77406939D01*
X225427568Y-77400500D01*
X225594644Y-77400500D01*
X225594646Y-77400500D01*
X225779803Y-77361144D01*
X225952730Y-77284151D01*
X226105871Y-77172888D01*
X226232533Y-77032216D01*
X226327179Y-76868284D01*
X226385674Y-76688256D01*
X226405460Y-76500000D01*
X226385674Y-76311744D01*
X226327179Y-76131716D01*
X226232533Y-75967784D01*
X226105871Y-75827112D01*
X226105870Y-75827111D01*
X225952734Y-75715851D01*
X225952729Y-75715848D01*
X225779807Y-75638857D01*
X225779802Y-75638855D01*
X225634000Y-75607865D01*
X225594646Y-75599500D01*
X225405354Y-75599500D01*
X225372897Y-75606398D01*
X225220197Y-75638855D01*
X225220192Y-75638857D01*
X225047270Y-75715848D01*
X225047265Y-75715851D01*
X224894129Y-75827111D01*
X224767466Y-75967785D01*
X224672821Y-76131715D01*
X224672818Y-76131722D01*
X224617882Y-76300800D01*
X224614326Y-76311744D01*
X224601308Y-76435607D01*
X224595753Y-76488462D01*
X224569168Y-76553076D01*
X224511871Y-76593061D01*
X224472432Y-76599500D01*
X224305354Y-76599500D01*
X224272897Y-76606398D01*
X224120197Y-76638855D01*
X224120192Y-76638857D01*
X223947270Y-76715848D01*
X223947265Y-76715851D01*
X223794129Y-76827111D01*
X223667466Y-76967785D01*
X223572821Y-77131715D01*
X223572818Y-77131722D01*
X223514327Y-77311740D01*
X223514326Y-77311744D01*
X223494540Y-77500000D01*
X210975600Y-77500000D01*
X210975600Y-76800800D01*
X209894207Y-76800800D01*
X209827168Y-76781115D01*
X209781413Y-76728311D01*
X209770679Y-76665993D01*
X209780757Y-76550801D01*
X209780757Y-76550798D01*
X209770679Y-76435607D01*
X209784446Y-76367107D01*
X209833061Y-76316924D01*
X209894207Y-76300800D01*
X210975600Y-76300800D01*
X210975600Y-75455534D01*
X210965384Y-75310841D01*
X210965382Y-75310831D01*
X210911286Y-75070634D01*
X210911284Y-75070627D01*
X210819355Y-74842214D01*
X210691979Y-74631510D01*
X210691972Y-74631500D01*
X210532446Y-74443953D01*
X210344899Y-74284427D01*
X210344889Y-74284420D01*
X210134185Y-74157044D01*
X209905772Y-74065115D01*
X209905765Y-74065113D01*
X209665568Y-74011017D01*
X209665558Y-74011015D01*
X209520866Y-74000800D01*
X208675600Y-74000800D01*
X208675600Y-75082193D01*
X208655915Y-75149232D01*
X208603111Y-75194987D01*
X208540792Y-75205721D01*
X208484545Y-75200800D01*
X208366655Y-75200800D01*
X208310406Y-75205721D01*
X208241906Y-75191954D01*
X208191723Y-75143339D01*
X208175599Y-75082193D01*
X208175600Y-74000800D01*
X207340331Y-74000800D01*
X207273292Y-73981115D01*
X207227537Y-73928311D01*
X207216331Y-73877139D01*
X207211342Y-72051299D01*
X207210105Y-71598670D01*
X210625100Y-71598670D01*
X210625101Y-71598676D01*
X210631508Y-71658283D01*
X210681802Y-71793128D01*
X210681806Y-71793135D01*
X210768052Y-71908344D01*
X210768055Y-71908347D01*
X210883264Y-71994593D01*
X210883271Y-71994597D01*
X211018117Y-72044891D01*
X211018116Y-72044891D01*
X211025044Y-72045635D01*
X211077727Y-72051300D01*
X212073472Y-72051299D01*
X212133083Y-72044891D01*
X212267931Y-71994596D01*
X212383146Y-71908346D01*
X212469396Y-71793131D01*
X212519691Y-71658283D01*
X212526100Y-71598673D01*
X212526099Y-69502928D01*
X212519691Y-69443317D01*
X212469396Y-69308469D01*
X212469395Y-69308468D01*
X212469393Y-69308464D01*
X212383147Y-69193255D01*
X212383144Y-69193252D01*
X212267935Y-69107006D01*
X212267928Y-69107002D01*
X212133082Y-69056708D01*
X212133083Y-69056708D01*
X212073483Y-69050301D01*
X212073481Y-69050300D01*
X212073473Y-69050300D01*
X212073464Y-69050300D01*
X211077729Y-69050300D01*
X211077723Y-69050301D01*
X211018116Y-69056708D01*
X210883271Y-69107002D01*
X210883264Y-69107006D01*
X210768055Y-69193252D01*
X210768052Y-69193255D01*
X210681806Y-69308464D01*
X210681802Y-69308471D01*
X210631508Y-69443317D01*
X210625101Y-69502916D01*
X210625101Y-69502923D01*
X210625100Y-69502935D01*
X210625100Y-71598670D01*
X207210105Y-71598670D01*
X207202721Y-68895827D01*
X207203001Y-68889779D01*
X207205193Y-68866771D01*
X207220068Y-68710642D01*
X207224698Y-68686912D01*
X207273624Y-68523223D01*
X207282779Y-68500836D01*
X207296242Y-68475343D01*
X207362557Y-68349773D01*
X207375879Y-68329597D01*
X207483479Y-68196900D01*
X207500471Y-68179691D01*
X207631794Y-68070416D01*
X207651800Y-68056838D01*
X207801843Y-67975149D01*
X207824103Y-67965714D01*
X207987156Y-67914718D01*
X208010832Y-67909786D01*
X208189765Y-67890445D01*
X208195772Y-67890092D01*
X210285341Y-67869300D01*
X239794028Y-67869300D01*
X239800109Y-67869599D01*
G37*
%TD.AperFunction*%
%TD*%
M02*
