%TF.GenerationSoftware,KiCad,Pcbnew,7.0.7*%
%TF.CreationDate,2024-09-12T14:34:45-05:00*%
%TF.ProjectId,ESC,4553432e-6b69-4636-9164-5f7063625858,rev?*%
%TF.SameCoordinates,Original*%
%TF.FileFunction,Copper,L2,Inr*%
%TF.FilePolarity,Positive*%
%FSLAX46Y46*%
G04 Gerber Fmt 4.6, Leading zero omitted, Abs format (unit mm)*
G04 Created by KiCad (PCBNEW 7.0.7) date 2024-09-12 14:34:45*
%MOMM*%
%LPD*%
G01*
G04 APERTURE LIST*
G04 Aperture macros list*
%AMRoundRect*
0 Rectangle with rounded corners*
0 $1 Rounding radius*
0 $2 $3 $4 $5 $6 $7 $8 $9 X,Y pos of 4 corners*
0 Add a 4 corners polygon primitive as box body*
4,1,4,$2,$3,$4,$5,$6,$7,$8,$9,$2,$3,0*
0 Add four circle primitives for the rounded corners*
1,1,$1+$1,$2,$3*
1,1,$1+$1,$4,$5*
1,1,$1+$1,$6,$7*
1,1,$1+$1,$8,$9*
0 Add four rect primitives between the rounded corners*
20,1,$1+$1,$2,$3,$4,$5,0*
20,1,$1+$1,$4,$5,$6,$7,0*
20,1,$1+$1,$6,$7,$8,$9,0*
20,1,$1+$1,$8,$9,$2,$3,0*%
G04 Aperture macros list end*
%TA.AperFunction,ComponentPad*%
%ADD10R,0.900000X2.000000*%
%TD*%
%TA.AperFunction,ComponentPad*%
%ADD11RoundRect,1.025000X-1.025000X-1.025000X1.025000X-1.025000X1.025000X1.025000X-1.025000X1.025000X0*%
%TD*%
%TA.AperFunction,ComponentPad*%
%ADD12C,4.100000*%
%TD*%
%TA.AperFunction,ComponentPad*%
%ADD13R,1.700000X1.700000*%
%TD*%
%TA.AperFunction,ComponentPad*%
%ADD14O,1.700000X1.700000*%
%TD*%
%TA.AperFunction,ComponentPad*%
%ADD15C,1.400000*%
%TD*%
%TA.AperFunction,ComponentPad*%
%ADD16R,3.000000X3.000000*%
%TD*%
%TA.AperFunction,ComponentPad*%
%ADD17C,3.000000*%
%TD*%
%TA.AperFunction,ComponentPad*%
%ADD18R,1.800000X1.800000*%
%TD*%
%TA.AperFunction,ComponentPad*%
%ADD19C,1.800000*%
%TD*%
%TA.AperFunction,ComponentPad*%
%ADD20RoundRect,0.750000X-0.750000X1.250000X-0.750000X-1.250000X0.750000X-1.250000X0.750000X1.250000X0*%
%TD*%
%TA.AperFunction,ViaPad*%
%ADD21C,0.800000*%
%TD*%
G04 APERTURE END LIST*
D10*
%TO.N,*%
%TO.C,J1*%
X198075600Y-70550800D03*
X211575600Y-70550800D03*
D11*
%TO.N,VCC*%
X208425600Y-76550800D03*
D12*
%TO.N,GND*%
X201225600Y-76550800D03*
%TD*%
D13*
%TO.N,GND*%
%TO.C,J4*%
X197307200Y-80975200D03*
D14*
%TO.N,SWCLK*%
X197307200Y-83515200D03*
%TO.N,SWDIO*%
X197307200Y-86055200D03*
%TO.N,+3.3V*%
X197307200Y-88595200D03*
%TD*%
D15*
%TO.N,*%
%TO.C,J2*%
X237435000Y-97741600D03*
X237435000Y-110741600D03*
D16*
%TO.N,/MosFet TIM_1/TIM1_O3*%
X232435000Y-107741600D03*
D17*
%TO.N,/MosFet TIM_1/TIM1_O1*%
X232435000Y-104241600D03*
%TO.N,/MosFet TIM_1/TIM1_O2*%
X232435000Y-100741600D03*
%TD*%
D18*
%TO.N,GND*%
%TO.C,RV1*%
X196864200Y-128165600D03*
D19*
%TO.N,/ADC1_IN4*%
X199364200Y-128165600D03*
%TO.N,Net-(R9-Pad2)*%
X201864200Y-128165600D03*
D20*
%TO.N,N/C*%
X194364200Y-124865600D03*
X204364200Y-124865600D03*
%TD*%
D13*
%TO.N,GND*%
%TO.C,J5*%
X176479200Y-99786200D03*
D14*
%TO.N,TIM9_CH2_input*%
X176479200Y-102326200D03*
%TO.N,+3.3V*%
X176479200Y-104866200D03*
%TD*%
D21*
%TO.N,+3.3V*%
X202900000Y-84000000D03*
X188800000Y-97000000D03*
X183200000Y-106100000D03*
X189400000Y-105200000D03*
X189972298Y-107000000D03*
X186100000Y-105200000D03*
X203600000Y-97300000D03*
X191400000Y-113100000D03*
X201879200Y-118567200D03*
X186000000Y-107400000D03*
X201800000Y-80800000D03*
X193852800Y-73152000D03*
X182000000Y-107400000D03*
X184700000Y-105900000D03*
X199600000Y-109000000D03*
X192600000Y-112300000D03*
X176500000Y-107200000D03*
X189200000Y-99200000D03*
X187400000Y-96800000D03*
X205100000Y-90700000D03*
X189500000Y-94200000D03*
X178600000Y-104900000D03*
%TO.N,GND*%
X196900800Y-129641600D03*
X200800000Y-100700000D03*
X178700000Y-99800000D03*
X216814400Y-119888000D03*
X221900000Y-115400000D03*
X222900000Y-114400000D03*
X184700000Y-110300000D03*
X214200000Y-108000000D03*
X221600000Y-96600000D03*
X185700000Y-99100000D03*
X222400000Y-86400000D03*
X209092800Y-89814400D03*
X216700000Y-89800000D03*
X220800000Y-114400000D03*
X209702400Y-115214400D03*
X202100000Y-101400000D03*
X182000000Y-109200000D03*
X223400000Y-87500000D03*
X195300000Y-105300000D03*
X183200000Y-110300000D03*
X203600000Y-101400000D03*
X186000000Y-109200000D03*
X179600000Y-102900000D03*
X179700000Y-99000000D03*
X183861201Y-100938799D03*
X223400000Y-86400000D03*
X189382400Y-72948800D03*
X223400000Y-85300000D03*
X188100000Y-111600000D03*
X179800000Y-104700000D03*
X202996800Y-90424000D03*
X220500000Y-96600000D03*
X181000000Y-105900000D03*
X212900000Y-106900000D03*
X224400000Y-77500000D03*
X216408000Y-102616000D03*
X195478400Y-128219200D03*
X198300000Y-113700000D03*
X219400000Y-96600000D03*
X219400000Y-97600000D03*
X222400000Y-85300000D03*
X209499200Y-99568000D03*
X222400000Y-87500000D03*
X186210377Y-104206611D03*
X220500000Y-97600000D03*
X199600000Y-110700000D03*
X191200000Y-94100000D03*
X176500000Y-97900000D03*
X221900000Y-114400000D03*
X216800000Y-128000000D03*
X225500000Y-76500000D03*
X222900000Y-115400000D03*
X220800000Y-115400000D03*
X189289623Y-104206611D03*
X195700000Y-100500000D03*
X218000000Y-129200000D03*
X189700000Y-113000000D03*
X221600000Y-97600000D03*
%TO.N,VCC*%
X210000000Y-108000000D03*
X231700000Y-126900000D03*
X225000000Y-85000000D03*
X209600000Y-101300000D03*
X225300000Y-114000000D03*
X221000000Y-128100000D03*
X226500000Y-112900000D03*
X210500000Y-89700000D03*
X226200000Y-85000000D03*
X231700000Y-129200000D03*
X231700000Y-128000000D03*
X230600000Y-126900000D03*
X227600000Y-114000000D03*
X226200000Y-86100000D03*
X230600000Y-128000000D03*
X230600000Y-125700000D03*
X228500000Y-86100000D03*
X230600000Y-129200000D03*
X209600000Y-113400000D03*
X219700000Y-129100000D03*
X209700000Y-116400000D03*
X228500000Y-85000000D03*
X227300000Y-86100000D03*
X209100000Y-85600000D03*
X225300000Y-112900000D03*
X211900000Y-89700000D03*
X228800000Y-114000000D03*
X227300000Y-85000000D03*
X209500000Y-97400000D03*
X228800000Y-112900000D03*
X231700000Y-125700000D03*
X227600000Y-112900000D03*
X225000000Y-86100000D03*
X226500000Y-114000000D03*
%TO.N,/MosFet TIM_1/TIM1_O1*%
X237000000Y-105200000D03*
X240000000Y-104200000D03*
X235300000Y-104200000D03*
X240000000Y-105200000D03*
X237000000Y-104200000D03*
X240000000Y-103100000D03*
X238300000Y-104200000D03*
X235300000Y-103100000D03*
X237000000Y-103100000D03*
X229600000Y-104200000D03*
X238300000Y-103100000D03*
X229600000Y-105300000D03*
X229600000Y-103100000D03*
X235300000Y-105200000D03*
X238300000Y-105200000D03*
%TO.N,/MosFet TIM_1/TIM1_O2*%
X215800000Y-81500000D03*
X216500000Y-79300000D03*
%TO.N,TIM1_CH1N*%
X206248000Y-105054400D03*
X195275200Y-103632000D03*
%TO.N,Net-(Q3-G)*%
X218800000Y-99100000D03*
X217000000Y-108900000D03*
%TO.N,Net-(Q5-G)*%
X217000000Y-123500000D03*
X219000000Y-116000000D03*
%TO.N,Net-(SW1-B)*%
X192400000Y-74600000D03*
%TO.N,Net-(SW2-B)*%
X190900000Y-102400000D03*
%TD*%
%TA.AperFunction,Conductor*%
%TO.N,GND*%
G36*
X240734539Y-67888985D02*
G01*
X240780294Y-67941789D01*
X240791500Y-67993300D01*
X240791500Y-102318615D01*
X240771815Y-102385654D01*
X240719011Y-102431409D01*
X240649853Y-102441353D01*
X240594615Y-102418933D01*
X240452734Y-102315851D01*
X240452729Y-102315848D01*
X240279807Y-102238857D01*
X240279802Y-102238855D01*
X240134000Y-102207865D01*
X240094646Y-102199500D01*
X239905354Y-102199500D01*
X239872897Y-102206398D01*
X239720197Y-102238855D01*
X239720192Y-102238857D01*
X239547270Y-102315848D01*
X239547265Y-102315851D01*
X239394129Y-102427111D01*
X239267467Y-102567783D01*
X239257387Y-102585243D01*
X239206819Y-102633458D01*
X239138212Y-102646680D01*
X239073347Y-102620712D01*
X239042613Y-102585243D01*
X239039171Y-102579281D01*
X239032533Y-102567784D01*
X238905871Y-102427112D01*
X238887648Y-102413872D01*
X238752734Y-102315851D01*
X238752729Y-102315848D01*
X238579807Y-102238857D01*
X238579802Y-102238855D01*
X238434000Y-102207865D01*
X238394646Y-102199500D01*
X238205354Y-102199500D01*
X238172897Y-102206398D01*
X238020197Y-102238855D01*
X238020192Y-102238857D01*
X237847271Y-102315848D01*
X237722885Y-102406219D01*
X237657078Y-102429698D01*
X237589024Y-102413872D01*
X237577115Y-102406219D01*
X237466977Y-102326200D01*
X237452730Y-102315849D01*
X237452728Y-102315848D01*
X237452729Y-102315848D01*
X237279807Y-102238857D01*
X237279802Y-102238855D01*
X237134000Y-102207865D01*
X237094646Y-102199500D01*
X236905354Y-102199500D01*
X236872897Y-102206398D01*
X236720197Y-102238855D01*
X236720192Y-102238857D01*
X236547270Y-102315848D01*
X236547265Y-102315851D01*
X236394129Y-102427111D01*
X236267467Y-102567783D01*
X236257387Y-102585243D01*
X236206819Y-102633458D01*
X236138212Y-102646680D01*
X236073347Y-102620712D01*
X236042613Y-102585243D01*
X236039171Y-102579281D01*
X236032533Y-102567784D01*
X235905871Y-102427112D01*
X235887648Y-102413872D01*
X235752734Y-102315851D01*
X235752729Y-102315848D01*
X235579807Y-102238857D01*
X235579802Y-102238855D01*
X235434001Y-102207865D01*
X235394646Y-102199500D01*
X235205354Y-102199500D01*
X235172897Y-102206398D01*
X235020197Y-102238855D01*
X235020192Y-102238857D01*
X234847270Y-102315848D01*
X234847265Y-102315851D01*
X234694129Y-102427111D01*
X234567466Y-102567785D01*
X234472821Y-102731715D01*
X234472818Y-102731722D01*
X234435086Y-102847851D01*
X234414326Y-102911744D01*
X234409348Y-102959111D01*
X234394540Y-103100000D01*
X234402147Y-103172377D01*
X234389577Y-103241107D01*
X234341845Y-103292130D01*
X234274105Y-103309248D01*
X234207863Y-103287025D01*
X234169994Y-103244765D01*
X234122229Y-103157290D01*
X234122224Y-103157282D01*
X233950745Y-102928212D01*
X233950729Y-102928194D01*
X233748405Y-102725870D01*
X233748387Y-102725854D01*
X233568064Y-102590867D01*
X233526192Y-102534934D01*
X233521208Y-102465242D01*
X233554693Y-102403919D01*
X233568064Y-102392333D01*
X233748387Y-102257345D01*
X233748387Y-102257344D01*
X233748395Y-102257339D01*
X233950739Y-102054995D01*
X234122226Y-101825915D01*
X234259367Y-101574761D01*
X234359369Y-101306646D01*
X234420196Y-101027028D01*
X234438737Y-100767784D01*
X234440610Y-100741601D01*
X234440610Y-100741598D01*
X234424464Y-100515848D01*
X234420196Y-100456172D01*
X234416429Y-100438857D01*
X234359371Y-100176562D01*
X234359370Y-100176560D01*
X234359369Y-100176554D01*
X234259367Y-99908439D01*
X234185350Y-99772888D01*
X234122229Y-99657290D01*
X234122224Y-99657282D01*
X233950745Y-99428212D01*
X233950729Y-99428194D01*
X233748405Y-99225870D01*
X233748387Y-99225854D01*
X233519317Y-99054375D01*
X233519309Y-99054370D01*
X233268166Y-98917235D01*
X233268167Y-98917235D01*
X233160914Y-98877232D01*
X233000046Y-98817231D01*
X233000043Y-98817230D01*
X233000037Y-98817228D01*
X232720433Y-98756404D01*
X232435001Y-98735990D01*
X232434999Y-98735990D01*
X232149566Y-98756404D01*
X231869962Y-98817228D01*
X231601833Y-98917235D01*
X231350690Y-99054370D01*
X231350682Y-99054375D01*
X231121612Y-99225854D01*
X231121594Y-99225870D01*
X230919270Y-99428194D01*
X230919254Y-99428212D01*
X230747775Y-99657282D01*
X230747770Y-99657290D01*
X230610635Y-99908433D01*
X230510628Y-100176562D01*
X230449804Y-100456166D01*
X230429390Y-100741598D01*
X230429390Y-100741601D01*
X230449804Y-101027033D01*
X230510628Y-101306637D01*
X230510630Y-101306643D01*
X230510631Y-101306646D01*
X230610633Y-101574761D01*
X230610635Y-101574766D01*
X230747770Y-101825909D01*
X230747775Y-101825917D01*
X230919254Y-102054987D01*
X230919270Y-102055005D01*
X231121594Y-102257329D01*
X231121612Y-102257345D01*
X231301935Y-102392333D01*
X231343807Y-102448267D01*
X231348791Y-102517958D01*
X231315306Y-102579281D01*
X231301935Y-102590867D01*
X231121612Y-102725854D01*
X231121594Y-102725870D01*
X230919270Y-102928194D01*
X230919254Y-102928212D01*
X230747775Y-103157282D01*
X230747774Y-103157285D01*
X230737155Y-103176731D01*
X230687748Y-103226135D01*
X230619474Y-103240985D01*
X230554011Y-103216566D01*
X230512141Y-103160631D01*
X230505004Y-103104335D01*
X230505460Y-103100000D01*
X230485674Y-102911744D01*
X230427179Y-102731716D01*
X230332533Y-102567784D01*
X230205871Y-102427112D01*
X230187648Y-102413872D01*
X230052734Y-102315851D01*
X230052729Y-102315848D01*
X229879807Y-102238857D01*
X229879802Y-102238855D01*
X229734000Y-102207865D01*
X229694646Y-102199500D01*
X229505354Y-102199500D01*
X229472897Y-102206398D01*
X229320197Y-102238855D01*
X229320192Y-102238857D01*
X229147270Y-102315848D01*
X229147265Y-102315851D01*
X228994129Y-102427111D01*
X228867466Y-102567785D01*
X228772821Y-102731715D01*
X228772818Y-102731722D01*
X228735086Y-102847851D01*
X228714326Y-102911744D01*
X228709348Y-102959111D01*
X228694563Y-103099785D01*
X228694540Y-103100000D01*
X228714326Y-103288256D01*
X228714327Y-103288259D01*
X228772818Y-103468277D01*
X228772821Y-103468284D01*
X228807499Y-103528349D01*
X228841939Y-103588000D01*
X228858412Y-103655900D01*
X228841939Y-103712000D01*
X228772821Y-103831715D01*
X228772818Y-103831722D01*
X228714327Y-104011740D01*
X228714326Y-104011744D01*
X228694540Y-104200000D01*
X228714326Y-104388256D01*
X228714327Y-104388259D01*
X228772818Y-104568277D01*
X228772821Y-104568284D01*
X228841939Y-104688000D01*
X228858412Y-104755899D01*
X228841940Y-104811998D01*
X228772820Y-104931718D01*
X228772818Y-104931722D01*
X228714327Y-105111740D01*
X228714326Y-105111744D01*
X228694540Y-105300000D01*
X228714326Y-105488256D01*
X228714327Y-105488259D01*
X228772818Y-105668277D01*
X228772821Y-105668284D01*
X228867467Y-105832216D01*
X228987226Y-105965221D01*
X228994129Y-105972888D01*
X229147265Y-106084148D01*
X229147270Y-106084151D01*
X229320192Y-106161142D01*
X229320197Y-106161144D01*
X229505354Y-106200500D01*
X229505355Y-106200500D01*
X229694644Y-106200500D01*
X229694646Y-106200500D01*
X229879803Y-106161144D01*
X230052730Y-106084151D01*
X230205871Y-105972888D01*
X230273700Y-105897555D01*
X230333184Y-105860909D01*
X230403041Y-105862238D01*
X230430777Y-105880818D01*
X230394232Y-105844273D01*
X230379380Y-105776001D01*
X230395676Y-105722848D01*
X230427179Y-105668284D01*
X230485674Y-105488256D01*
X230500720Y-105345090D01*
X230527304Y-105280478D01*
X230584602Y-105240493D01*
X230654421Y-105237833D01*
X230714594Y-105273342D01*
X230732873Y-105298627D01*
X230747770Y-105325909D01*
X230747775Y-105325917D01*
X230915309Y-105549717D01*
X230939726Y-105615181D01*
X230924874Y-105683454D01*
X230875469Y-105732859D01*
X230835021Y-105745525D01*
X230835068Y-105745724D01*
X230832299Y-105746378D01*
X230829305Y-105747316D01*
X230827518Y-105747508D01*
X230692671Y-105797802D01*
X230692669Y-105797804D01*
X230577375Y-105884113D01*
X230511911Y-105908530D01*
X230453022Y-105895720D01*
X230461089Y-105901124D01*
X230488899Y-105965221D01*
X230482030Y-106023861D01*
X230440909Y-106134114D01*
X230440908Y-106134116D01*
X230434501Y-106193716D01*
X230434501Y-106193723D01*
X230434500Y-106193735D01*
X230434500Y-109289470D01*
X230434501Y-109289476D01*
X230440908Y-109349083D01*
X230491202Y-109483928D01*
X230491206Y-109483935D01*
X230577452Y-109599144D01*
X230577455Y-109599147D01*
X230692664Y-109685393D01*
X230692671Y-109685397D01*
X230827517Y-109735691D01*
X230827516Y-109735691D01*
X230834444Y-109736435D01*
X230887127Y-109742100D01*
X233982872Y-109742099D01*
X234042483Y-109735691D01*
X234177331Y-109685396D01*
X234292546Y-109599146D01*
X234378796Y-109483931D01*
X234429091Y-109349083D01*
X234435500Y-109289473D01*
X234435499Y-106193728D01*
X234429735Y-106140106D01*
X234429091Y-106134116D01*
X234378797Y-105999271D01*
X234378793Y-105999264D01*
X234292547Y-105884055D01*
X234292544Y-105884052D01*
X234177335Y-105797806D01*
X234177328Y-105797802D01*
X234042482Y-105747508D01*
X234042484Y-105747508D01*
X234040699Y-105747317D01*
X234039407Y-105746782D01*
X234034938Y-105745726D01*
X234035109Y-105745001D01*
X233976148Y-105720578D01*
X233936301Y-105663185D01*
X233933808Y-105593360D01*
X233954687Y-105549720D01*
X234122226Y-105325915D01*
X234171097Y-105236413D01*
X234220503Y-105187008D01*
X234288776Y-105172156D01*
X234354240Y-105196573D01*
X234396112Y-105252506D01*
X234403250Y-105282874D01*
X234414326Y-105388256D01*
X234414327Y-105388259D01*
X234472818Y-105568277D01*
X234472821Y-105568284D01*
X234567467Y-105732216D01*
X234649999Y-105823877D01*
X234694129Y-105872888D01*
X234847265Y-105984148D01*
X234847270Y-105984151D01*
X235020192Y-106061142D01*
X235020197Y-106061144D01*
X235205354Y-106100500D01*
X235205355Y-106100500D01*
X235394644Y-106100500D01*
X235394646Y-106100500D01*
X235579803Y-106061144D01*
X235752730Y-105984151D01*
X235905871Y-105872888D01*
X236032533Y-105732216D01*
X236042612Y-105714757D01*
X236093174Y-105666544D01*
X236161781Y-105653318D01*
X236226647Y-105679283D01*
X236257385Y-105714755D01*
X236267466Y-105732214D01*
X236267465Y-105732214D01*
X236394129Y-105872888D01*
X236547265Y-105984148D01*
X236547270Y-105984151D01*
X236720192Y-106061142D01*
X236720197Y-106061144D01*
X236905354Y-106100500D01*
X236905355Y-106100500D01*
X237094644Y-106100500D01*
X237094646Y-106100500D01*
X237279803Y-106061144D01*
X237452730Y-105984151D01*
X237577117Y-105893778D01*
X237642919Y-105870300D01*
X237710973Y-105886125D01*
X237722884Y-105893780D01*
X237847265Y-105984148D01*
X237847270Y-105984151D01*
X238020192Y-106061142D01*
X238020197Y-106061144D01*
X238205354Y-106100500D01*
X238205355Y-106100500D01*
X238394644Y-106100500D01*
X238394646Y-106100500D01*
X238579803Y-106061144D01*
X238752730Y-105984151D01*
X238905871Y-105872888D01*
X239032533Y-105732216D01*
X239042612Y-105714757D01*
X239093179Y-105666542D01*
X239161786Y-105653318D01*
X239226651Y-105679286D01*
X239257386Y-105714756D01*
X239260748Y-105720578D01*
X239267467Y-105732216D01*
X239394129Y-105872888D01*
X239547265Y-105984148D01*
X239547270Y-105984151D01*
X239720192Y-106061142D01*
X239720197Y-106061144D01*
X239905354Y-106100500D01*
X239905355Y-106100500D01*
X240094644Y-106100500D01*
X240094646Y-106100500D01*
X240279803Y-106061144D01*
X240452730Y-105984151D01*
X240594614Y-105881066D01*
X240660421Y-105857586D01*
X240728475Y-105873411D01*
X240777170Y-105923517D01*
X240791500Y-105981384D01*
X240791500Y-131955500D01*
X240771815Y-132022539D01*
X240719011Y-132068294D01*
X240667500Y-132079500D01*
X174368500Y-132079500D01*
X174301461Y-132059815D01*
X174255706Y-132007011D01*
X174244500Y-131955500D01*
X174244500Y-123551381D01*
X192363700Y-123551381D01*
X192363701Y-126179818D01*
X192374104Y-126312013D01*
X192374105Y-126312020D01*
X192429102Y-126530278D01*
X192429103Y-126530281D01*
X192522191Y-126735222D01*
X192522197Y-126735232D01*
X192650374Y-126920245D01*
X192650378Y-126920250D01*
X192650381Y-126920254D01*
X192809546Y-127079419D01*
X192809550Y-127079422D01*
X192809554Y-127079425D01*
X192884986Y-127131684D01*
X192994574Y-127207607D01*
X193199517Y-127300696D01*
X193199521Y-127300697D01*
X193417779Y-127355694D01*
X193417781Y-127355694D01*
X193417788Y-127355696D01*
X193529172Y-127364462D01*
X193549981Y-127366100D01*
X193549982Y-127366099D01*
X193549983Y-127366100D01*
X194363392Y-127366099D01*
X195178418Y-127366099D01*
X195210375Y-127363584D01*
X195310612Y-127355696D01*
X195310615Y-127355695D01*
X195310618Y-127355695D01*
X195315768Y-127354850D01*
X195315975Y-127356114D01*
X195379703Y-127358576D01*
X195436978Y-127398592D01*
X195463528Y-127463221D01*
X195464200Y-127476116D01*
X195464200Y-127915600D01*
X196250853Y-127915600D01*
X196317892Y-127935285D01*
X196363647Y-127988089D01*
X196373591Y-128057247D01*
X196369831Y-128074533D01*
X196364200Y-128093711D01*
X196364200Y-128237489D01*
X196364602Y-128238857D01*
X196369831Y-128256667D01*
X196369830Y-128326536D01*
X196332055Y-128385314D01*
X196268499Y-128414338D01*
X196250853Y-128415600D01*
X195464200Y-128415600D01*
X195464200Y-129113444D01*
X195470601Y-129172972D01*
X195470603Y-129172979D01*
X195520845Y-129307686D01*
X195520849Y-129307693D01*
X195607009Y-129422787D01*
X195607012Y-129422790D01*
X195722106Y-129508950D01*
X195722113Y-129508954D01*
X195856820Y-129559196D01*
X195856827Y-129559198D01*
X195916355Y-129565599D01*
X195916372Y-129565600D01*
X196614200Y-129565600D01*
X196614200Y-128777901D01*
X196633885Y-128710862D01*
X196686689Y-128665107D01*
X196755847Y-128655163D01*
X196828437Y-128665600D01*
X196828438Y-128665600D01*
X196899962Y-128665600D01*
X196899963Y-128665600D01*
X196972553Y-128655163D01*
X197041712Y-128665107D01*
X197094515Y-128710862D01*
X197114200Y-128777901D01*
X197114200Y-129565600D01*
X197812028Y-129565600D01*
X197812044Y-129565599D01*
X197871572Y-129559198D01*
X197871579Y-129559196D01*
X198006286Y-129508954D01*
X198006293Y-129508950D01*
X198121387Y-129422790D01*
X198121390Y-129422787D01*
X198207550Y-129307693D01*
X198207553Y-129307688D01*
X198225878Y-129258555D01*
X198267749Y-129202620D01*
X198333213Y-129178202D01*
X198401486Y-129193053D01*
X198418223Y-129204033D01*
X198595565Y-129342064D01*
X198595571Y-129342068D01*
X198595574Y-129342070D01*
X198799697Y-129452536D01*
X198913687Y-129491668D01*
X199019215Y-129527897D01*
X199019217Y-129527897D01*
X199019219Y-129527898D01*
X199248151Y-129566100D01*
X199248152Y-129566100D01*
X199480248Y-129566100D01*
X199480249Y-129566100D01*
X199709181Y-129527898D01*
X199928703Y-129452536D01*
X200132826Y-129342070D01*
X200315984Y-129199513D01*
X200473179Y-129028753D01*
X200510390Y-128971796D01*
X200563537Y-128926439D01*
X200632769Y-128917015D01*
X200696104Y-128946517D01*
X200718009Y-128971796D01*
X200755216Y-129028747D01*
X200755219Y-129028751D01*
X200755221Y-129028753D01*
X200912416Y-129199513D01*
X200912419Y-129199515D01*
X200912422Y-129199518D01*
X201095565Y-129342064D01*
X201095571Y-129342068D01*
X201095574Y-129342070D01*
X201299697Y-129452536D01*
X201413687Y-129491668D01*
X201519215Y-129527897D01*
X201519217Y-129527897D01*
X201519219Y-129527898D01*
X201748151Y-129566100D01*
X201748152Y-129566100D01*
X201980248Y-129566100D01*
X201980249Y-129566100D01*
X202209181Y-129527898D01*
X202428703Y-129452536D01*
X202632826Y-129342070D01*
X202815984Y-129199513D01*
X202907592Y-129100000D01*
X218794540Y-129100000D01*
X218814326Y-129288256D01*
X218814327Y-129288259D01*
X218872818Y-129468277D01*
X218872821Y-129468284D01*
X218967467Y-129632216D01*
X219057506Y-129732214D01*
X219094129Y-129772888D01*
X219247265Y-129884148D01*
X219247270Y-129884151D01*
X219420192Y-129961142D01*
X219420197Y-129961144D01*
X219605354Y-130000500D01*
X219605355Y-130000500D01*
X219794644Y-130000500D01*
X219794646Y-130000500D01*
X219979803Y-129961144D01*
X220152730Y-129884151D01*
X220305871Y-129772888D01*
X220432533Y-129632216D01*
X220527179Y-129468284D01*
X220585674Y-129288256D01*
X220594950Y-129200000D01*
X229694540Y-129200000D01*
X229714326Y-129388256D01*
X229714327Y-129388259D01*
X229772818Y-129568277D01*
X229772821Y-129568284D01*
X229867467Y-129732216D01*
X229994129Y-129872888D01*
X230147265Y-129984148D01*
X230147270Y-129984151D01*
X230320192Y-130061142D01*
X230320197Y-130061144D01*
X230505354Y-130100500D01*
X230505355Y-130100500D01*
X230694644Y-130100500D01*
X230694646Y-130100500D01*
X230879803Y-130061144D01*
X231052730Y-129984151D01*
X231077114Y-129966434D01*
X231142919Y-129942954D01*
X231210973Y-129958778D01*
X231222879Y-129966429D01*
X231247266Y-129984148D01*
X231247269Y-129984150D01*
X231247270Y-129984151D01*
X231420192Y-130061142D01*
X231420197Y-130061144D01*
X231605354Y-130100500D01*
X231605355Y-130100500D01*
X231794644Y-130100500D01*
X231794646Y-130100500D01*
X231979803Y-130061144D01*
X232152730Y-129984151D01*
X232305871Y-129872888D01*
X232432533Y-129732216D01*
X232527179Y-129568284D01*
X232585674Y-129388256D01*
X232605460Y-129200000D01*
X232585674Y-129011744D01*
X232527179Y-128831716D01*
X232432533Y-128667784D01*
X232429284Y-128662156D01*
X232431929Y-128660628D01*
X232412779Y-128607421D01*
X232428417Y-128539323D01*
X232429344Y-128537879D01*
X232429284Y-128537844D01*
X232469448Y-128468277D01*
X232527179Y-128368284D01*
X232585674Y-128188256D01*
X232605460Y-128000000D01*
X232585674Y-127811744D01*
X232527179Y-127631716D01*
X232458060Y-127511999D01*
X232441588Y-127444100D01*
X232458061Y-127388000D01*
X232470705Y-127366100D01*
X232527179Y-127268284D01*
X232585674Y-127088256D01*
X232605460Y-126900000D01*
X232585674Y-126711744D01*
X232527179Y-126531716D01*
X232432533Y-126367784D01*
X232429284Y-126362156D01*
X232431929Y-126360628D01*
X232412779Y-126307421D01*
X232428417Y-126239323D01*
X232429344Y-126237879D01*
X232429284Y-126237844D01*
X232462785Y-126179818D01*
X232527179Y-126068284D01*
X232585674Y-125888256D01*
X232605460Y-125700000D01*
X232585674Y-125511744D01*
X232527179Y-125331716D01*
X232432533Y-125167784D01*
X232305871Y-125027112D01*
X232305870Y-125027111D01*
X232152734Y-124915851D01*
X232152729Y-124915848D01*
X231979807Y-124838857D01*
X231979802Y-124838855D01*
X231834000Y-124807865D01*
X231794646Y-124799500D01*
X231605354Y-124799500D01*
X231572897Y-124806398D01*
X231420197Y-124838855D01*
X231420192Y-124838857D01*
X231247270Y-124915848D01*
X231247265Y-124915851D01*
X231222885Y-124933565D01*
X231157079Y-124957045D01*
X231089025Y-124941219D01*
X231077115Y-124933565D01*
X231052734Y-124915851D01*
X231052729Y-124915848D01*
X230879807Y-124838857D01*
X230879802Y-124838855D01*
X230734000Y-124807865D01*
X230694646Y-124799500D01*
X230505354Y-124799500D01*
X230472897Y-124806398D01*
X230320197Y-124838855D01*
X230320192Y-124838857D01*
X230147270Y-124915848D01*
X230147265Y-124915851D01*
X229994129Y-125027111D01*
X229867466Y-125167785D01*
X229772821Y-125331715D01*
X229772818Y-125331722D01*
X229714327Y-125511740D01*
X229714326Y-125511744D01*
X229694540Y-125700000D01*
X229714326Y-125888256D01*
X229714327Y-125888259D01*
X229772818Y-126068277D01*
X229772821Y-126068284D01*
X229870716Y-126237844D01*
X229868150Y-126239325D01*
X229887250Y-126293098D01*
X229871327Y-126361129D01*
X229870680Y-126362135D01*
X229870716Y-126362156D01*
X229772821Y-126531715D01*
X229772818Y-126531722D01*
X229720380Y-126693111D01*
X229714326Y-126711744D01*
X229694540Y-126900000D01*
X229714326Y-127088256D01*
X229714327Y-127088259D01*
X229772818Y-127268277D01*
X229772821Y-127268284D01*
X229841939Y-127388000D01*
X229858412Y-127455900D01*
X229841939Y-127512000D01*
X229772821Y-127631715D01*
X229772818Y-127631722D01*
X229714327Y-127811740D01*
X229714326Y-127811744D01*
X229694540Y-128000000D01*
X229714326Y-128188256D01*
X229714327Y-128188259D01*
X229772818Y-128368277D01*
X229772821Y-128368284D01*
X229870716Y-128537844D01*
X229868150Y-128539325D01*
X229887250Y-128593098D01*
X229871327Y-128661129D01*
X229870680Y-128662135D01*
X229870716Y-128662156D01*
X229772821Y-128831715D01*
X229772818Y-128831722D01*
X229727306Y-128971796D01*
X229714326Y-129011744D01*
X229694540Y-129200000D01*
X220594950Y-129200000D01*
X220605460Y-129100000D01*
X220605460Y-129099997D01*
X220605460Y-129093502D01*
X220607448Y-129093502D01*
X220618305Y-129034058D01*
X220666025Y-128983023D01*
X220733761Y-128965889D01*
X220754851Y-128968510D01*
X220770311Y-128971796D01*
X220905354Y-129000500D01*
X220905355Y-129000500D01*
X221094644Y-129000500D01*
X221094646Y-129000500D01*
X221279803Y-128961144D01*
X221452730Y-128884151D01*
X221605871Y-128772888D01*
X221732533Y-128632216D01*
X221827179Y-128468284D01*
X221885674Y-128288256D01*
X221905460Y-128100000D01*
X221885674Y-127911744D01*
X221827179Y-127731716D01*
X221732533Y-127567784D01*
X221605871Y-127427112D01*
X221605870Y-127427111D01*
X221452734Y-127315851D01*
X221452729Y-127315848D01*
X221279807Y-127238857D01*
X221279802Y-127238855D01*
X221132763Y-127207602D01*
X221094646Y-127199500D01*
X220905354Y-127199500D01*
X220872897Y-127206398D01*
X220720197Y-127238855D01*
X220720192Y-127238857D01*
X220547270Y-127315848D01*
X220547265Y-127315851D01*
X220394129Y-127427111D01*
X220267466Y-127567785D01*
X220172821Y-127731715D01*
X220172818Y-127731722D01*
X220139326Y-127834802D01*
X220114326Y-127911744D01*
X220097217Y-128074533D01*
X220094540Y-128100002D01*
X220094540Y-128106498D01*
X220092556Y-128106498D01*
X220081681Y-128165967D01*
X220033949Y-128216991D01*
X219966209Y-128234109D01*
X219945149Y-128231490D01*
X219925500Y-128227313D01*
X219794646Y-128199500D01*
X219605354Y-128199500D01*
X219572897Y-128206398D01*
X219420197Y-128238855D01*
X219420192Y-128238857D01*
X219247270Y-128315848D01*
X219247265Y-128315851D01*
X219094129Y-128427111D01*
X218967466Y-128567785D01*
X218872821Y-128731715D01*
X218872818Y-128731722D01*
X218814327Y-128911740D01*
X218814326Y-128911744D01*
X218794540Y-129100000D01*
X202907592Y-129100000D01*
X202973179Y-129028753D01*
X203100124Y-128834449D01*
X203193357Y-128621900D01*
X203250334Y-128396905D01*
X203250335Y-128396897D01*
X203269500Y-128165606D01*
X203269500Y-128165593D01*
X203250335Y-127934302D01*
X203250333Y-127934291D01*
X203193357Y-127709299D01*
X203100122Y-127496746D01*
X203097684Y-127492241D01*
X203098885Y-127491590D01*
X203080527Y-127430770D01*
X203099704Y-127363584D01*
X203152161Y-127317431D01*
X203221242Y-127306965D01*
X203234819Y-127309591D01*
X203417788Y-127355696D01*
X203529172Y-127364462D01*
X203549981Y-127366100D01*
X203549982Y-127366099D01*
X203549983Y-127366100D01*
X204357632Y-127366099D01*
X205178418Y-127366099D01*
X205197705Y-127364580D01*
X205310612Y-127355696D01*
X205528883Y-127300696D01*
X205733826Y-127207607D01*
X205918854Y-127079419D01*
X206078019Y-126920254D01*
X206206207Y-126735226D01*
X206299296Y-126530283D01*
X206354296Y-126312012D01*
X206364700Y-126179817D01*
X206364699Y-123551384D01*
X206360655Y-123500000D01*
X216094540Y-123500000D01*
X216114326Y-123688256D01*
X216114327Y-123688259D01*
X216172818Y-123868277D01*
X216172821Y-123868284D01*
X216267467Y-124032216D01*
X216394129Y-124172887D01*
X216394129Y-124172888D01*
X216547265Y-124284148D01*
X216547270Y-124284151D01*
X216720192Y-124361142D01*
X216720197Y-124361144D01*
X216905354Y-124400500D01*
X216905355Y-124400500D01*
X217094644Y-124400500D01*
X217094646Y-124400500D01*
X217279803Y-124361144D01*
X217452730Y-124284151D01*
X217605871Y-124172888D01*
X217732533Y-124032216D01*
X217827179Y-123868284D01*
X217885674Y-123688256D01*
X217905460Y-123500000D01*
X217885674Y-123311744D01*
X217827179Y-123131716D01*
X217732533Y-122967784D01*
X217605871Y-122827112D01*
X217605870Y-122827111D01*
X217452734Y-122715851D01*
X217452729Y-122715848D01*
X217279807Y-122638857D01*
X217279802Y-122638855D01*
X217134001Y-122607865D01*
X217094646Y-122599500D01*
X216905354Y-122599500D01*
X216872897Y-122606398D01*
X216720197Y-122638855D01*
X216720192Y-122638857D01*
X216547270Y-122715848D01*
X216547265Y-122715851D01*
X216394129Y-122827111D01*
X216267466Y-122967785D01*
X216172821Y-123131715D01*
X216172818Y-123131722D01*
X216114327Y-123311740D01*
X216114326Y-123311744D01*
X216094540Y-123500000D01*
X206360655Y-123500000D01*
X206354296Y-123419188D01*
X206299296Y-123200917D01*
X206206207Y-122995974D01*
X206089219Y-122827112D01*
X206078025Y-122810954D01*
X206078022Y-122810950D01*
X206078019Y-122810946D01*
X205918854Y-122651781D01*
X205918850Y-122651778D01*
X205918845Y-122651774D01*
X205733832Y-122523597D01*
X205733830Y-122523595D01*
X205733826Y-122523593D01*
X205528883Y-122430504D01*
X205528881Y-122430503D01*
X205528878Y-122430502D01*
X205310620Y-122375505D01*
X205310613Y-122375504D01*
X205178419Y-122365100D01*
X205178417Y-122365100D01*
X204357632Y-122365100D01*
X203549982Y-122365101D01*
X203417786Y-122375504D01*
X203417779Y-122375505D01*
X203199521Y-122430502D01*
X203199518Y-122430503D01*
X202994577Y-122523591D01*
X202994567Y-122523597D01*
X202809554Y-122651774D01*
X202809542Y-122651784D01*
X202650384Y-122810942D01*
X202650374Y-122810954D01*
X202522197Y-122995967D01*
X202522191Y-122995977D01*
X202429103Y-123200918D01*
X202429102Y-123200921D01*
X202374105Y-123419179D01*
X202374104Y-123419186D01*
X202363700Y-123551381D01*
X202363701Y-126179818D01*
X202374104Y-126312013D01*
X202374105Y-126312020D01*
X202429101Y-126530275D01*
X202429103Y-126530279D01*
X202429104Y-126530283D01*
X202429758Y-126531722D01*
X202497649Y-126681190D01*
X202507450Y-126750369D01*
X202478296Y-126813865D01*
X202419440Y-126851519D01*
X202349571Y-126851376D01*
X202344486Y-126849752D01*
X202209184Y-126803302D01*
X202021604Y-126772001D01*
X201980249Y-126765100D01*
X201748151Y-126765100D01*
X201706796Y-126772001D01*
X201519215Y-126803302D01*
X201299704Y-126878661D01*
X201299695Y-126878664D01*
X201095571Y-126989131D01*
X201095565Y-126989135D01*
X200912422Y-127131681D01*
X200912419Y-127131684D01*
X200912416Y-127131686D01*
X200912416Y-127131687D01*
X200786671Y-127268284D01*
X200755215Y-127302454D01*
X200718008Y-127359404D01*
X200664862Y-127404761D01*
X200595630Y-127414184D01*
X200532295Y-127384682D01*
X200510392Y-127359404D01*
X200473184Y-127302454D01*
X200473182Y-127302452D01*
X200473179Y-127302447D01*
X200315984Y-127131687D01*
X200315979Y-127131683D01*
X200315977Y-127131681D01*
X200132834Y-126989135D01*
X200132828Y-126989131D01*
X199928704Y-126878664D01*
X199928695Y-126878661D01*
X199709184Y-126803302D01*
X199521604Y-126772001D01*
X199480249Y-126765100D01*
X199248151Y-126765100D01*
X199206796Y-126772001D01*
X199019215Y-126803302D01*
X198799704Y-126878661D01*
X198799695Y-126878664D01*
X198595572Y-126989131D01*
X198418223Y-127127167D01*
X198353229Y-127152809D01*
X198284689Y-127139242D01*
X198234364Y-127090774D01*
X198225879Y-127072645D01*
X198207555Y-127023515D01*
X198207550Y-127023506D01*
X198121390Y-126908412D01*
X198121387Y-126908409D01*
X198006293Y-126822249D01*
X198006286Y-126822245D01*
X197871579Y-126772003D01*
X197871572Y-126772001D01*
X197812044Y-126765600D01*
X197114200Y-126765600D01*
X197114200Y-127553298D01*
X197094515Y-127620337D01*
X197041711Y-127666092D01*
X196972555Y-127676036D01*
X196899966Y-127665600D01*
X196899963Y-127665600D01*
X196828437Y-127665600D01*
X196828433Y-127665600D01*
X196755845Y-127676036D01*
X196686687Y-127666092D01*
X196633884Y-127620336D01*
X196614200Y-127553298D01*
X196614200Y-126765600D01*
X196384926Y-126765600D01*
X196317887Y-126745915D01*
X196272132Y-126693111D01*
X196262188Y-126623953D01*
X196272026Y-126590320D01*
X196298642Y-126531722D01*
X196299296Y-126530283D01*
X196299296Y-126530279D01*
X196299298Y-126530277D01*
X196354294Y-126312020D01*
X196354294Y-126312019D01*
X196354296Y-126312012D01*
X196364700Y-126179817D01*
X196364699Y-123551384D01*
X196354296Y-123419188D01*
X196299296Y-123200917D01*
X196206207Y-122995974D01*
X196089219Y-122827112D01*
X196078025Y-122810954D01*
X196078022Y-122810950D01*
X196078019Y-122810946D01*
X195918854Y-122651781D01*
X195918850Y-122651778D01*
X195918845Y-122651774D01*
X195733832Y-122523597D01*
X195733830Y-122523595D01*
X195733826Y-122523593D01*
X195528883Y-122430504D01*
X195528881Y-122430503D01*
X195528878Y-122430502D01*
X195310620Y-122375505D01*
X195310613Y-122375504D01*
X195178419Y-122365100D01*
X195178417Y-122365100D01*
X194363392Y-122365100D01*
X193549982Y-122365101D01*
X193417786Y-122375504D01*
X193417779Y-122375505D01*
X193199521Y-122430502D01*
X193199518Y-122430503D01*
X192994577Y-122523591D01*
X192994567Y-122523597D01*
X192809554Y-122651774D01*
X192809542Y-122651784D01*
X192650384Y-122810942D01*
X192650374Y-122810954D01*
X192522197Y-122995967D01*
X192522191Y-122995977D01*
X192429103Y-123200918D01*
X192429102Y-123200921D01*
X192374105Y-123419179D01*
X192374104Y-123419186D01*
X192363700Y-123551381D01*
X174244500Y-123551381D01*
X174244500Y-118567200D01*
X200973740Y-118567200D01*
X200993526Y-118755456D01*
X200993527Y-118755459D01*
X201052018Y-118935477D01*
X201052021Y-118935484D01*
X201146667Y-119099416D01*
X201273328Y-119240087D01*
X201273329Y-119240088D01*
X201426465Y-119351348D01*
X201426470Y-119351351D01*
X201599392Y-119428342D01*
X201599397Y-119428344D01*
X201784554Y-119467700D01*
X201784555Y-119467700D01*
X201973844Y-119467700D01*
X201973846Y-119467700D01*
X202159003Y-119428344D01*
X202331930Y-119351351D01*
X202485071Y-119240088D01*
X202611733Y-119099416D01*
X202706379Y-118935484D01*
X202764874Y-118755456D01*
X202784660Y-118567200D01*
X202764874Y-118378944D01*
X202706379Y-118198916D01*
X202611733Y-118034984D01*
X202485071Y-117894312D01*
X202485070Y-117894311D01*
X202331934Y-117783051D01*
X202331929Y-117783048D01*
X202159007Y-117706057D01*
X202159002Y-117706055D01*
X202013201Y-117675065D01*
X201973846Y-117666700D01*
X201784554Y-117666700D01*
X201752097Y-117673598D01*
X201599397Y-117706055D01*
X201599392Y-117706057D01*
X201426470Y-117783048D01*
X201426465Y-117783051D01*
X201273329Y-117894311D01*
X201146666Y-118034985D01*
X201052021Y-118198915D01*
X201052018Y-118198922D01*
X200993527Y-118378940D01*
X200993526Y-118378944D01*
X200973740Y-118567200D01*
X174244500Y-118567200D01*
X174244500Y-116400000D01*
X208794540Y-116400000D01*
X208814326Y-116588256D01*
X208814327Y-116588259D01*
X208872818Y-116768277D01*
X208872821Y-116768284D01*
X208967467Y-116932216D01*
X209094128Y-117072888D01*
X209094129Y-117072888D01*
X209247265Y-117184148D01*
X209247270Y-117184151D01*
X209420192Y-117261142D01*
X209420197Y-117261144D01*
X209605354Y-117300500D01*
X209605355Y-117300500D01*
X209794644Y-117300500D01*
X209794646Y-117300500D01*
X209979803Y-117261144D01*
X210152730Y-117184151D01*
X210305871Y-117072888D01*
X210432533Y-116932216D01*
X210527179Y-116768284D01*
X210585674Y-116588256D01*
X210605460Y-116400000D01*
X210585674Y-116211744D01*
X210527179Y-116031716D01*
X210508868Y-116000000D01*
X218094540Y-116000000D01*
X218114326Y-116188256D01*
X218114327Y-116188259D01*
X218172818Y-116368277D01*
X218172821Y-116368284D01*
X218267467Y-116532216D01*
X218394129Y-116672888D01*
X218547265Y-116784148D01*
X218547270Y-116784151D01*
X218720192Y-116861142D01*
X218720197Y-116861144D01*
X218905354Y-116900500D01*
X218905355Y-116900500D01*
X219094644Y-116900500D01*
X219094646Y-116900500D01*
X219279803Y-116861144D01*
X219452730Y-116784151D01*
X219605871Y-116672888D01*
X219732533Y-116532216D01*
X219827179Y-116368284D01*
X219885674Y-116188256D01*
X219905460Y-116000000D01*
X219885674Y-115811744D01*
X219827179Y-115631716D01*
X219732533Y-115467784D01*
X219605871Y-115327112D01*
X219605870Y-115327111D01*
X219452734Y-115215851D01*
X219452729Y-115215848D01*
X219279807Y-115138857D01*
X219279802Y-115138855D01*
X219134000Y-115107865D01*
X219094646Y-115099500D01*
X218905354Y-115099500D01*
X218872897Y-115106398D01*
X218720197Y-115138855D01*
X218720192Y-115138857D01*
X218547270Y-115215848D01*
X218547265Y-115215851D01*
X218394129Y-115327111D01*
X218267466Y-115467785D01*
X218172821Y-115631715D01*
X218172818Y-115631722D01*
X218114327Y-115811740D01*
X218114326Y-115811744D01*
X218094540Y-116000000D01*
X210508868Y-116000000D01*
X210432533Y-115867784D01*
X210305871Y-115727112D01*
X210305870Y-115727111D01*
X210152734Y-115615851D01*
X210152729Y-115615848D01*
X209979807Y-115538857D01*
X209979802Y-115538855D01*
X209834001Y-115507865D01*
X209794646Y-115499500D01*
X209605354Y-115499500D01*
X209572897Y-115506398D01*
X209420197Y-115538855D01*
X209420192Y-115538857D01*
X209247270Y-115615848D01*
X209247265Y-115615851D01*
X209094129Y-115727111D01*
X208967466Y-115867785D01*
X208872821Y-116031715D01*
X208872818Y-116031722D01*
X208814327Y-116211740D01*
X208814326Y-116211744D01*
X208794540Y-116400000D01*
X174244500Y-116400000D01*
X174244500Y-113100000D01*
X190494540Y-113100000D01*
X190514326Y-113288256D01*
X190514327Y-113288259D01*
X190572818Y-113468277D01*
X190572821Y-113468284D01*
X190667467Y-113632216D01*
X190789977Y-113768277D01*
X190794129Y-113772888D01*
X190947265Y-113884148D01*
X190947270Y-113884151D01*
X191120192Y-113961142D01*
X191120197Y-113961144D01*
X191305354Y-114000500D01*
X191305355Y-114000500D01*
X191494644Y-114000500D01*
X191494646Y-114000500D01*
X191679803Y-113961144D01*
X191852730Y-113884151D01*
X192005871Y-113772888D01*
X192132533Y-113632216D01*
X192227179Y-113468284D01*
X192249366Y-113400000D01*
X208694540Y-113400000D01*
X208714326Y-113588256D01*
X208714327Y-113588259D01*
X208772818Y-113768277D01*
X208772821Y-113768284D01*
X208867467Y-113932216D01*
X208994129Y-114072888D01*
X209147265Y-114184148D01*
X209147270Y-114184151D01*
X209320192Y-114261142D01*
X209320197Y-114261144D01*
X209505354Y-114300500D01*
X209505355Y-114300500D01*
X209694644Y-114300500D01*
X209694646Y-114300500D01*
X209879803Y-114261144D01*
X210052730Y-114184151D01*
X210205871Y-114072888D01*
X210271500Y-114000000D01*
X224394540Y-114000000D01*
X224414326Y-114188256D01*
X224414327Y-114188259D01*
X224472818Y-114368277D01*
X224472821Y-114368284D01*
X224567467Y-114532216D01*
X224694128Y-114672888D01*
X224694129Y-114672888D01*
X224847265Y-114784148D01*
X224847270Y-114784151D01*
X225020192Y-114861142D01*
X225020197Y-114861144D01*
X225205354Y-114900500D01*
X225205355Y-114900500D01*
X225394644Y-114900500D01*
X225394646Y-114900500D01*
X225579803Y-114861144D01*
X225752730Y-114784151D01*
X225827116Y-114730106D01*
X225892920Y-114706627D01*
X225960974Y-114722452D01*
X225972876Y-114730100D01*
X226022886Y-114766435D01*
X226047270Y-114784151D01*
X226220192Y-114861142D01*
X226220197Y-114861144D01*
X226405354Y-114900500D01*
X226405355Y-114900500D01*
X226594644Y-114900500D01*
X226594646Y-114900500D01*
X226779803Y-114861144D01*
X226952730Y-114784151D01*
X226977114Y-114766434D01*
X227042919Y-114742954D01*
X227110973Y-114758778D01*
X227122879Y-114766429D01*
X227147266Y-114784148D01*
X227147269Y-114784150D01*
X227147270Y-114784151D01*
X227320192Y-114861142D01*
X227320197Y-114861144D01*
X227505354Y-114900500D01*
X227505355Y-114900500D01*
X227694644Y-114900500D01*
X227694646Y-114900500D01*
X227879803Y-114861144D01*
X228052730Y-114784151D01*
X228127115Y-114730106D01*
X228192919Y-114706627D01*
X228260973Y-114722452D01*
X228272884Y-114730107D01*
X228347265Y-114784148D01*
X228347270Y-114784151D01*
X228520192Y-114861142D01*
X228520197Y-114861144D01*
X228705354Y-114900500D01*
X228705355Y-114900500D01*
X228894644Y-114900500D01*
X228894646Y-114900500D01*
X229079803Y-114861144D01*
X229252730Y-114784151D01*
X229405871Y-114672888D01*
X229532533Y-114532216D01*
X229627179Y-114368284D01*
X229685674Y-114188256D01*
X229705460Y-114000000D01*
X229685674Y-113811744D01*
X229631112Y-113643823D01*
X229627181Y-113631722D01*
X229627180Y-113631721D01*
X229627179Y-113631716D01*
X229558060Y-113511999D01*
X229541588Y-113444100D01*
X229558061Y-113388000D01*
X229615646Y-113288259D01*
X229627179Y-113268284D01*
X229685674Y-113088256D01*
X229705460Y-112900000D01*
X229685674Y-112711744D01*
X229627179Y-112531716D01*
X229532533Y-112367784D01*
X229405871Y-112227112D01*
X229405870Y-112227111D01*
X229252734Y-112115851D01*
X229252729Y-112115848D01*
X229079807Y-112038857D01*
X229079802Y-112038855D01*
X228934000Y-112007865D01*
X228894646Y-111999500D01*
X228705354Y-111999500D01*
X228672897Y-112006398D01*
X228520197Y-112038855D01*
X228520192Y-112038857D01*
X228347270Y-112115848D01*
X228347265Y-112115851D01*
X228272885Y-112169892D01*
X228207079Y-112193372D01*
X228139025Y-112177546D01*
X228127115Y-112169892D01*
X228052734Y-112115851D01*
X228052729Y-112115848D01*
X227879807Y-112038857D01*
X227879802Y-112038855D01*
X227734001Y-112007865D01*
X227694646Y-111999500D01*
X227505354Y-111999500D01*
X227472897Y-112006398D01*
X227320197Y-112038855D01*
X227320192Y-112038857D01*
X227147270Y-112115848D01*
X227147265Y-112115851D01*
X227122885Y-112133565D01*
X227057079Y-112157045D01*
X226989025Y-112141219D01*
X226977115Y-112133565D01*
X226952734Y-112115851D01*
X226952729Y-112115848D01*
X226779807Y-112038857D01*
X226779802Y-112038855D01*
X226634001Y-112007865D01*
X226594646Y-111999500D01*
X226405354Y-111999500D01*
X226372897Y-112006398D01*
X226220197Y-112038855D01*
X226220192Y-112038857D01*
X226047270Y-112115848D01*
X226047265Y-112115851D01*
X225972885Y-112169892D01*
X225907079Y-112193372D01*
X225839025Y-112177546D01*
X225827115Y-112169892D01*
X225752734Y-112115851D01*
X225752729Y-112115848D01*
X225579807Y-112038857D01*
X225579802Y-112038855D01*
X225434000Y-112007865D01*
X225394646Y-111999500D01*
X225205354Y-111999500D01*
X225172897Y-112006398D01*
X225020197Y-112038855D01*
X225020192Y-112038857D01*
X224847270Y-112115848D01*
X224847265Y-112115851D01*
X224694129Y-112227111D01*
X224567466Y-112367785D01*
X224472821Y-112531715D01*
X224472818Y-112531722D01*
X224428449Y-112668277D01*
X224414326Y-112711744D01*
X224394540Y-112900000D01*
X224414326Y-113088256D01*
X224414327Y-113088259D01*
X224472818Y-113268277D01*
X224472821Y-113268284D01*
X224541939Y-113388000D01*
X224558412Y-113455900D01*
X224541939Y-113512000D01*
X224472821Y-113631715D01*
X224472818Y-113631722D01*
X224428449Y-113768277D01*
X224414326Y-113811744D01*
X224394540Y-114000000D01*
X210271500Y-114000000D01*
X210332533Y-113932216D01*
X210427179Y-113768284D01*
X210485674Y-113588256D01*
X210505460Y-113400000D01*
X210485674Y-113211744D01*
X210427179Y-113031716D01*
X210332533Y-112867784D01*
X210205871Y-112727112D01*
X210184719Y-112711744D01*
X210052734Y-112615851D01*
X210052729Y-112615848D01*
X209879807Y-112538857D01*
X209879802Y-112538855D01*
X209734000Y-112507865D01*
X209694646Y-112499500D01*
X209505354Y-112499500D01*
X209472897Y-112506398D01*
X209320197Y-112538855D01*
X209320192Y-112538857D01*
X209147270Y-112615848D01*
X209147265Y-112615851D01*
X208994129Y-112727111D01*
X208867466Y-112867785D01*
X208772821Y-113031715D01*
X208772818Y-113031722D01*
X208717979Y-113200500D01*
X208714326Y-113211744D01*
X208694540Y-113400000D01*
X192249366Y-113400000D01*
X192285674Y-113288256D01*
X192285674Y-113288254D01*
X192285675Y-113288252D01*
X192287027Y-113281894D01*
X192289737Y-113282470D01*
X192311642Y-113229144D01*
X192368917Y-113189127D01*
X192434201Y-113185376D01*
X192505354Y-113200500D01*
X192505355Y-113200500D01*
X192694644Y-113200500D01*
X192694646Y-113200500D01*
X192879803Y-113161144D01*
X193052730Y-113084151D01*
X193205871Y-112972888D01*
X193332533Y-112832216D01*
X193427179Y-112668284D01*
X193485674Y-112488256D01*
X193505460Y-112300000D01*
X193485674Y-112111744D01*
X193427179Y-111931716D01*
X193332533Y-111767784D01*
X193205871Y-111627112D01*
X193205870Y-111627111D01*
X193052734Y-111515851D01*
X193052729Y-111515848D01*
X192879807Y-111438857D01*
X192879802Y-111438855D01*
X192734001Y-111407865D01*
X192694646Y-111399500D01*
X192505354Y-111399500D01*
X192472897Y-111406398D01*
X192320197Y-111438855D01*
X192320192Y-111438857D01*
X192147270Y-111515848D01*
X192147265Y-111515851D01*
X191994129Y-111627111D01*
X191867466Y-111767785D01*
X191772821Y-111931715D01*
X191772818Y-111931722D01*
X191714327Y-112111739D01*
X191712976Y-112118098D01*
X191710287Y-112117526D01*
X191688282Y-112170949D01*
X191630968Y-112210910D01*
X191565799Y-112214623D01*
X191494646Y-112199500D01*
X191305354Y-112199500D01*
X191272897Y-112206398D01*
X191120197Y-112238855D01*
X191120192Y-112238857D01*
X190947270Y-112315848D01*
X190947265Y-112315851D01*
X190794129Y-112427111D01*
X190667466Y-112567785D01*
X190572821Y-112731715D01*
X190572818Y-112731722D01*
X190528609Y-112867785D01*
X190514326Y-112911744D01*
X190494540Y-113100000D01*
X174244500Y-113100000D01*
X174244500Y-110741600D01*
X236229356Y-110741600D01*
X236249884Y-110963135D01*
X236249885Y-110963137D01*
X236310769Y-111177123D01*
X236310775Y-111177138D01*
X236409938Y-111376283D01*
X236409943Y-111376291D01*
X236544020Y-111553838D01*
X236708437Y-111703723D01*
X236708439Y-111703725D01*
X236897595Y-111820845D01*
X236897596Y-111820845D01*
X236897599Y-111820847D01*
X237105060Y-111901218D01*
X237323757Y-111942100D01*
X237323759Y-111942100D01*
X237546241Y-111942100D01*
X237546243Y-111942100D01*
X237764940Y-111901218D01*
X237972401Y-111820847D01*
X238161562Y-111703724D01*
X238325981Y-111553836D01*
X238460058Y-111376289D01*
X238559229Y-111177128D01*
X238620115Y-110963136D01*
X238640643Y-110741600D01*
X238620115Y-110520064D01*
X238559229Y-110306072D01*
X238559224Y-110306061D01*
X238460061Y-110106916D01*
X238460056Y-110106908D01*
X238325979Y-109929361D01*
X238161562Y-109779476D01*
X238161560Y-109779474D01*
X237972404Y-109662354D01*
X237972398Y-109662352D01*
X237764940Y-109581982D01*
X237546243Y-109541100D01*
X237323757Y-109541100D01*
X237105060Y-109581982D01*
X236973864Y-109632807D01*
X236897601Y-109662352D01*
X236897595Y-109662354D01*
X236708439Y-109779474D01*
X236708437Y-109779476D01*
X236544020Y-109929361D01*
X236409943Y-110106908D01*
X236409938Y-110106916D01*
X236310775Y-110306061D01*
X236310769Y-110306076D01*
X236249885Y-110520062D01*
X236249884Y-110520064D01*
X236229356Y-110741599D01*
X236229356Y-110741600D01*
X174244500Y-110741600D01*
X174244500Y-109000000D01*
X198694540Y-109000000D01*
X198714326Y-109188256D01*
X198714327Y-109188259D01*
X198772818Y-109368277D01*
X198772821Y-109368284D01*
X198867467Y-109532216D01*
X198984642Y-109662352D01*
X198994129Y-109672888D01*
X199147265Y-109784148D01*
X199147270Y-109784151D01*
X199320192Y-109861142D01*
X199320197Y-109861144D01*
X199505354Y-109900500D01*
X199505355Y-109900500D01*
X199694644Y-109900500D01*
X199694646Y-109900500D01*
X199879803Y-109861144D01*
X200052730Y-109784151D01*
X200205871Y-109672888D01*
X200332533Y-109532216D01*
X200427179Y-109368284D01*
X200485674Y-109188256D01*
X200505460Y-109000000D01*
X200485674Y-108811744D01*
X200427179Y-108631716D01*
X200332533Y-108467784D01*
X200205871Y-108327112D01*
X200169243Y-108300500D01*
X200052734Y-108215851D01*
X200052729Y-108215848D01*
X199879807Y-108138857D01*
X199879802Y-108138855D01*
X199734000Y-108107865D01*
X199694646Y-108099500D01*
X199505354Y-108099500D01*
X199472897Y-108106398D01*
X199320197Y-108138855D01*
X199320192Y-108138857D01*
X199147270Y-108215848D01*
X199147265Y-108215851D01*
X198994129Y-108327111D01*
X198867466Y-108467785D01*
X198772821Y-108631715D01*
X198772818Y-108631722D01*
X198714327Y-108811740D01*
X198714326Y-108811744D01*
X198694540Y-109000000D01*
X174244500Y-109000000D01*
X174244500Y-104866200D01*
X175123541Y-104866200D01*
X175144136Y-105101603D01*
X175144138Y-105101613D01*
X175205294Y-105329855D01*
X175205296Y-105329859D01*
X175205297Y-105329863D01*
X175283723Y-105498048D01*
X175305165Y-105544030D01*
X175305167Y-105544034D01*
X175381689Y-105653318D01*
X175440705Y-105737601D01*
X175607799Y-105904695D01*
X175672443Y-105949959D01*
X175801365Y-106040232D01*
X175801367Y-106040233D01*
X175801370Y-106040235D01*
X176015537Y-106140103D01*
X176015542Y-106140104D01*
X176015546Y-106140106D01*
X176083756Y-106158382D01*
X176143417Y-106194746D01*
X176173947Y-106257593D01*
X176165653Y-106326968D01*
X176121168Y-106380847D01*
X176102101Y-106391436D01*
X176047267Y-106415850D01*
X176047265Y-106415851D01*
X175894129Y-106527111D01*
X175767466Y-106667785D01*
X175672821Y-106831715D01*
X175672818Y-106831722D01*
X175617979Y-107000500D01*
X175614326Y-107011744D01*
X175594540Y-107200000D01*
X175614326Y-107388256D01*
X175614327Y-107388259D01*
X175672818Y-107568277D01*
X175672821Y-107568284D01*
X175767467Y-107732216D01*
X175799937Y-107768277D01*
X175894129Y-107872888D01*
X176047265Y-107984148D01*
X176047270Y-107984151D01*
X176220192Y-108061142D01*
X176220197Y-108061144D01*
X176405354Y-108100500D01*
X176405355Y-108100500D01*
X176594644Y-108100500D01*
X176594646Y-108100500D01*
X176779803Y-108061144D01*
X176952730Y-107984151D01*
X177105871Y-107872888D01*
X177232533Y-107732216D01*
X177327179Y-107568284D01*
X177381858Y-107400000D01*
X181094540Y-107400000D01*
X181114326Y-107588256D01*
X181114327Y-107588259D01*
X181172818Y-107768277D01*
X181172821Y-107768284D01*
X181267467Y-107932216D01*
X181363487Y-108038857D01*
X181394129Y-108072888D01*
X181547265Y-108184148D01*
X181547270Y-108184151D01*
X181720192Y-108261142D01*
X181720197Y-108261144D01*
X181905354Y-108300500D01*
X181905355Y-108300500D01*
X182094644Y-108300500D01*
X182094646Y-108300500D01*
X182279803Y-108261144D01*
X182452730Y-108184151D01*
X182605871Y-108072888D01*
X182732533Y-107932216D01*
X182827179Y-107768284D01*
X182885674Y-107588256D01*
X182905460Y-107400000D01*
X182885674Y-107211744D01*
X182862014Y-107138929D01*
X182860019Y-107069092D01*
X182896099Y-107009259D01*
X182958800Y-106978430D01*
X183005726Y-106979324D01*
X183039547Y-106986512D01*
X183105354Y-107000500D01*
X183105355Y-107000500D01*
X183294644Y-107000500D01*
X183294646Y-107000500D01*
X183479803Y-106961144D01*
X183652730Y-106884151D01*
X183805871Y-106772888D01*
X183932533Y-106632216D01*
X183935557Y-106626977D01*
X183986120Y-106578762D01*
X184054726Y-106565535D01*
X184115831Y-106588656D01*
X184247265Y-106684148D01*
X184247270Y-106684151D01*
X184420192Y-106761142D01*
X184420197Y-106761144D01*
X184605354Y-106800500D01*
X184605355Y-106800500D01*
X184794644Y-106800500D01*
X184794646Y-106800500D01*
X184979803Y-106761144D01*
X185101230Y-106707080D01*
X185170476Y-106697795D01*
X185233753Y-106727423D01*
X185270967Y-106786558D01*
X185270303Y-106856424D01*
X185259051Y-106882359D01*
X185172820Y-107031718D01*
X185172818Y-107031722D01*
X185118142Y-107200000D01*
X185114326Y-107211744D01*
X185094540Y-107400000D01*
X185114326Y-107588256D01*
X185114327Y-107588259D01*
X185172818Y-107768277D01*
X185172821Y-107768284D01*
X185267467Y-107932216D01*
X185363487Y-108038857D01*
X185394129Y-108072888D01*
X185547265Y-108184148D01*
X185547270Y-108184151D01*
X185720192Y-108261142D01*
X185720197Y-108261144D01*
X185905354Y-108300500D01*
X185905355Y-108300500D01*
X186094644Y-108300500D01*
X186094646Y-108300500D01*
X186279803Y-108261144D01*
X186452730Y-108184151D01*
X186605871Y-108072888D01*
X186671500Y-108000000D01*
X209094540Y-108000000D01*
X209114326Y-108188256D01*
X209114327Y-108188259D01*
X209172818Y-108368277D01*
X209172821Y-108368284D01*
X209267467Y-108532216D01*
X209357063Y-108631722D01*
X209394129Y-108672888D01*
X209547265Y-108784148D01*
X209547270Y-108784151D01*
X209720192Y-108861142D01*
X209720197Y-108861144D01*
X209905354Y-108900500D01*
X209905355Y-108900500D01*
X210094644Y-108900500D01*
X210094646Y-108900500D01*
X210096998Y-108900000D01*
X216094540Y-108900000D01*
X216114326Y-109088256D01*
X216114327Y-109088259D01*
X216172818Y-109268277D01*
X216172821Y-109268284D01*
X216267467Y-109432216D01*
X216357506Y-109532214D01*
X216394129Y-109572888D01*
X216547265Y-109684148D01*
X216547270Y-109684151D01*
X216720192Y-109761142D01*
X216720197Y-109761144D01*
X216905354Y-109800500D01*
X216905355Y-109800500D01*
X217094644Y-109800500D01*
X217094646Y-109800500D01*
X217279803Y-109761144D01*
X217452730Y-109684151D01*
X217605871Y-109572888D01*
X217732533Y-109432216D01*
X217827179Y-109268284D01*
X217885674Y-109088256D01*
X217905460Y-108900000D01*
X217885674Y-108711744D01*
X217831112Y-108543823D01*
X217827181Y-108531722D01*
X217827180Y-108531721D01*
X217827179Y-108531716D01*
X217732533Y-108367784D01*
X217605871Y-108227112D01*
X217590369Y-108215849D01*
X217452734Y-108115851D01*
X217452729Y-108115848D01*
X217279807Y-108038857D01*
X217279802Y-108038855D01*
X217134001Y-108007865D01*
X217094646Y-107999500D01*
X216905354Y-107999500D01*
X216872897Y-108006398D01*
X216720197Y-108038855D01*
X216720192Y-108038857D01*
X216547270Y-108115848D01*
X216547265Y-108115851D01*
X216394129Y-108227111D01*
X216267466Y-108367785D01*
X216172821Y-108531715D01*
X216172818Y-108531722D01*
X216126951Y-108672888D01*
X216114326Y-108711744D01*
X216094540Y-108900000D01*
X210096998Y-108900000D01*
X210279803Y-108861144D01*
X210452730Y-108784151D01*
X210605871Y-108672888D01*
X210732533Y-108532216D01*
X210827179Y-108368284D01*
X210885674Y-108188256D01*
X210905460Y-108000000D01*
X210885674Y-107811744D01*
X210827179Y-107631716D01*
X210732533Y-107467784D01*
X210605871Y-107327112D01*
X210605870Y-107327111D01*
X210452734Y-107215851D01*
X210452729Y-107215848D01*
X210279807Y-107138857D01*
X210279802Y-107138855D01*
X210134001Y-107107865D01*
X210094646Y-107099500D01*
X209905354Y-107099500D01*
X209872897Y-107106398D01*
X209720197Y-107138855D01*
X209720192Y-107138857D01*
X209547270Y-107215848D01*
X209547265Y-107215851D01*
X209394129Y-107327111D01*
X209267466Y-107467785D01*
X209172821Y-107631715D01*
X209172818Y-107631722D01*
X209114327Y-107811740D01*
X209114326Y-107811744D01*
X209094540Y-108000000D01*
X186671500Y-108000000D01*
X186732533Y-107932216D01*
X186827179Y-107768284D01*
X186885674Y-107588256D01*
X186905460Y-107400000D01*
X186885674Y-107211744D01*
X186827179Y-107031716D01*
X186732533Y-106867784D01*
X186605871Y-106727112D01*
X186578301Y-106707081D01*
X186452734Y-106615851D01*
X186452729Y-106615848D01*
X186279807Y-106538857D01*
X186279802Y-106538855D01*
X186134000Y-106507865D01*
X186094646Y-106499500D01*
X185905354Y-106499500D01*
X185872897Y-106506398D01*
X185720197Y-106538855D01*
X185720192Y-106538857D01*
X185598772Y-106592918D01*
X185529522Y-106602203D01*
X185466245Y-106572575D01*
X185429032Y-106513440D01*
X185429697Y-106443574D01*
X185440949Y-106417639D01*
X185462191Y-106380847D01*
X185527179Y-106268284D01*
X185580453Y-106104322D01*
X185619889Y-106046650D01*
X185684248Y-106019451D01*
X185748818Y-106029363D01*
X185820197Y-106061144D01*
X186005354Y-106100500D01*
X186005355Y-106100500D01*
X186194644Y-106100500D01*
X186194646Y-106100500D01*
X186379803Y-106061144D01*
X186552730Y-105984151D01*
X186705871Y-105872888D01*
X186832533Y-105732216D01*
X186927179Y-105568284D01*
X186985674Y-105388256D01*
X187005460Y-105200000D01*
X188494540Y-105200000D01*
X188514326Y-105388256D01*
X188514327Y-105388259D01*
X188572818Y-105568277D01*
X188572821Y-105568284D01*
X188667467Y-105732216D01*
X188749999Y-105823877D01*
X188794129Y-105872888D01*
X188947265Y-105984148D01*
X188947270Y-105984151D01*
X189120192Y-106061142D01*
X189120197Y-106061144D01*
X189305354Y-106100500D01*
X189305361Y-106100500D01*
X189309927Y-106100980D01*
X189374543Y-106127561D01*
X189414530Y-106184857D01*
X189417193Y-106254676D01*
X189381686Y-106314851D01*
X189369868Y-106324611D01*
X189366429Y-106327110D01*
X189366427Y-106327111D01*
X189239764Y-106467785D01*
X189145119Y-106631715D01*
X189145116Y-106631722D01*
X189103065Y-106761144D01*
X189086624Y-106811744D01*
X189066838Y-107000000D01*
X189086624Y-107188256D01*
X189086625Y-107188259D01*
X189145116Y-107368277D01*
X189145119Y-107368284D01*
X189239765Y-107532216D01*
X189329361Y-107631722D01*
X189366427Y-107672888D01*
X189519563Y-107784148D01*
X189519568Y-107784151D01*
X189692490Y-107861142D01*
X189692495Y-107861144D01*
X189877652Y-107900500D01*
X189877653Y-107900500D01*
X190066942Y-107900500D01*
X190066944Y-107900500D01*
X190252101Y-107861144D01*
X190425028Y-107784151D01*
X190578169Y-107672888D01*
X190704831Y-107532216D01*
X190799477Y-107368284D01*
X190857972Y-107188256D01*
X190877758Y-107000000D01*
X190857972Y-106811744D01*
X190799640Y-106632217D01*
X190799479Y-106631722D01*
X190799478Y-106631721D01*
X190799477Y-106631716D01*
X190704831Y-106467784D01*
X190578169Y-106327112D01*
X190578168Y-106327111D01*
X190425032Y-106215851D01*
X190425027Y-106215848D01*
X190252105Y-106138857D01*
X190252100Y-106138855D01*
X190066941Y-106099499D01*
X190062360Y-106099018D01*
X189997746Y-106072431D01*
X189957764Y-106015132D01*
X189955106Y-105945313D01*
X189990618Y-105885141D01*
X190002442Y-105875379D01*
X190005871Y-105872888D01*
X190132533Y-105732216D01*
X190227179Y-105568284D01*
X190285674Y-105388256D01*
X190305460Y-105200000D01*
X190290157Y-105054400D01*
X205342540Y-105054400D01*
X205362326Y-105242656D01*
X205362327Y-105242659D01*
X205420818Y-105422677D01*
X205420821Y-105422684D01*
X205515467Y-105586616D01*
X205603288Y-105684151D01*
X205642129Y-105727288D01*
X205795265Y-105838548D01*
X205795270Y-105838551D01*
X205968192Y-105915542D01*
X205968197Y-105915544D01*
X206153354Y-105954900D01*
X206153355Y-105954900D01*
X206342644Y-105954900D01*
X206342646Y-105954900D01*
X206527803Y-105915544D01*
X206700730Y-105838551D01*
X206853871Y-105727288D01*
X206980533Y-105586616D01*
X207075179Y-105422684D01*
X207133674Y-105242656D01*
X207153460Y-105054400D01*
X207133674Y-104866144D01*
X207075179Y-104686116D01*
X206980533Y-104522184D01*
X206853871Y-104381512D01*
X206853870Y-104381511D01*
X206700734Y-104270251D01*
X206700729Y-104270248D01*
X206527807Y-104193257D01*
X206527802Y-104193255D01*
X206382001Y-104162265D01*
X206342646Y-104153900D01*
X206153354Y-104153900D01*
X206120897Y-104160798D01*
X205968197Y-104193255D01*
X205968192Y-104193257D01*
X205795270Y-104270248D01*
X205795265Y-104270251D01*
X205642129Y-104381511D01*
X205515466Y-104522185D01*
X205420821Y-104686115D01*
X205420818Y-104686122D01*
X205373512Y-104831716D01*
X205362326Y-104866144D01*
X205342540Y-105054400D01*
X190290157Y-105054400D01*
X190285674Y-105011744D01*
X190227179Y-104831716D01*
X190132533Y-104667784D01*
X190005871Y-104527112D01*
X190005870Y-104527111D01*
X189852734Y-104415851D01*
X189852729Y-104415848D01*
X189679807Y-104338857D01*
X189679802Y-104338855D01*
X189534000Y-104307865D01*
X189494646Y-104299500D01*
X189305354Y-104299500D01*
X189280005Y-104304888D01*
X189120197Y-104338855D01*
X189120192Y-104338857D01*
X188947270Y-104415848D01*
X188947265Y-104415851D01*
X188794129Y-104527111D01*
X188667466Y-104667785D01*
X188572821Y-104831715D01*
X188572818Y-104831722D01*
X188519547Y-104995674D01*
X188514326Y-105011744D01*
X188494540Y-105200000D01*
X187005460Y-105200000D01*
X186985674Y-105011744D01*
X186927179Y-104831716D01*
X186832533Y-104667784D01*
X186705871Y-104527112D01*
X186705870Y-104527111D01*
X186552734Y-104415851D01*
X186552729Y-104415848D01*
X186379807Y-104338857D01*
X186379802Y-104338855D01*
X186234000Y-104307865D01*
X186194646Y-104299500D01*
X186005354Y-104299500D01*
X185980005Y-104304888D01*
X185820197Y-104338855D01*
X185820192Y-104338857D01*
X185647270Y-104415848D01*
X185647265Y-104415851D01*
X185494129Y-104527111D01*
X185367466Y-104667785D01*
X185272821Y-104831715D01*
X185272818Y-104831722D01*
X185219547Y-104995674D01*
X185180109Y-105053350D01*
X185115751Y-105080548D01*
X185051180Y-105070635D01*
X184979807Y-105038857D01*
X184979802Y-105038855D01*
X184834000Y-105007865D01*
X184794646Y-104999500D01*
X184605354Y-104999500D01*
X184572897Y-105006398D01*
X184420197Y-105038855D01*
X184420192Y-105038857D01*
X184247270Y-105115848D01*
X184247265Y-105115851D01*
X184094129Y-105227111D01*
X183967466Y-105367785D01*
X183964437Y-105373031D01*
X183913867Y-105421244D01*
X183845259Y-105434463D01*
X183784168Y-105411343D01*
X183652734Y-105315851D01*
X183652729Y-105315848D01*
X183479807Y-105238857D01*
X183479802Y-105238855D01*
X183334001Y-105207865D01*
X183294646Y-105199500D01*
X183105354Y-105199500D01*
X183072897Y-105206398D01*
X182920197Y-105238855D01*
X182920192Y-105238857D01*
X182747270Y-105315848D01*
X182747265Y-105315851D01*
X182594129Y-105427111D01*
X182467466Y-105567785D01*
X182372821Y-105731715D01*
X182372818Y-105731722D01*
X182316617Y-105904693D01*
X182314326Y-105911744D01*
X182294540Y-106100000D01*
X182314326Y-106288256D01*
X182314327Y-106288259D01*
X182337984Y-106361067D01*
X182339979Y-106430908D01*
X182303899Y-106490741D01*
X182241198Y-106521569D01*
X182194273Y-106520676D01*
X182175906Y-106516772D01*
X182094646Y-106499500D01*
X181905354Y-106499500D01*
X181872897Y-106506398D01*
X181720197Y-106538855D01*
X181720192Y-106538857D01*
X181547270Y-106615848D01*
X181547265Y-106615851D01*
X181394129Y-106727111D01*
X181267466Y-106867785D01*
X181172821Y-107031715D01*
X181172818Y-107031722D01*
X181118142Y-107200000D01*
X181114326Y-107211744D01*
X181094540Y-107400000D01*
X177381858Y-107400000D01*
X177385674Y-107388256D01*
X177405460Y-107200000D01*
X177385674Y-107011744D01*
X177327179Y-106831716D01*
X177232533Y-106667784D01*
X177105871Y-106527112D01*
X177097013Y-106520676D01*
X176952734Y-106415851D01*
X176952732Y-106415850D01*
X176882269Y-106384477D01*
X176829033Y-106339226D01*
X176808712Y-106272377D01*
X176827758Y-106205153D01*
X176880125Y-106158898D01*
X176900602Y-106151426D01*
X176942863Y-106140103D01*
X177157030Y-106040235D01*
X177350601Y-105904695D01*
X177517695Y-105737601D01*
X177653235Y-105544030D01*
X177681504Y-105483406D01*
X177727676Y-105430967D01*
X177794870Y-105411815D01*
X177861751Y-105432031D01*
X177886036Y-105452839D01*
X177994129Y-105572888D01*
X178147265Y-105684148D01*
X178147270Y-105684151D01*
X178320192Y-105761142D01*
X178320197Y-105761144D01*
X178505354Y-105800500D01*
X178505355Y-105800500D01*
X178694644Y-105800500D01*
X178694646Y-105800500D01*
X178879803Y-105761144D01*
X179052730Y-105684151D01*
X179205871Y-105572888D01*
X179332533Y-105432216D01*
X179427179Y-105268284D01*
X179485674Y-105088256D01*
X179505460Y-104900000D01*
X179485674Y-104711744D01*
X179427179Y-104531716D01*
X179332533Y-104367784D01*
X179205871Y-104227112D01*
X179205870Y-104227111D01*
X179052734Y-104115851D01*
X179052729Y-104115848D01*
X178879807Y-104038857D01*
X178879802Y-104038855D01*
X178698334Y-104000284D01*
X178694646Y-103999500D01*
X178505354Y-103999500D01*
X178501666Y-104000284D01*
X178320197Y-104038855D01*
X178320192Y-104038857D01*
X178147270Y-104115848D01*
X178147265Y-104115851D01*
X177994129Y-104227111D01*
X177994128Y-104227112D01*
X177906802Y-104324097D01*
X177847316Y-104360745D01*
X177777459Y-104359414D01*
X177719410Y-104320527D01*
X177702271Y-104293529D01*
X177691416Y-104270251D01*
X177653235Y-104188371D01*
X177636321Y-104164214D01*
X177517694Y-103994797D01*
X177350602Y-103827706D01*
X177350601Y-103827705D01*
X177228946Y-103742521D01*
X177165041Y-103697774D01*
X177121416Y-103643197D01*
X177120257Y-103632000D01*
X194369740Y-103632000D01*
X194389526Y-103820256D01*
X194389527Y-103820259D01*
X194448018Y-104000277D01*
X194448021Y-104000284D01*
X194542667Y-104164216D01*
X194599299Y-104227112D01*
X194669329Y-104304888D01*
X194822465Y-104416148D01*
X194822470Y-104416151D01*
X194995392Y-104493142D01*
X194995397Y-104493144D01*
X195180554Y-104532500D01*
X195180555Y-104532500D01*
X195369844Y-104532500D01*
X195369846Y-104532500D01*
X195555003Y-104493144D01*
X195727930Y-104416151D01*
X195881071Y-104304888D01*
X196007733Y-104164216D01*
X196102379Y-104000284D01*
X196160874Y-103820256D01*
X196180660Y-103632000D01*
X196160874Y-103443744D01*
X196102379Y-103263716D01*
X196007733Y-103099784D01*
X195881071Y-102959112D01*
X195844052Y-102932216D01*
X195727934Y-102847851D01*
X195727929Y-102847848D01*
X195555007Y-102770857D01*
X195555002Y-102770855D01*
X195409200Y-102739865D01*
X195369846Y-102731500D01*
X195180554Y-102731500D01*
X195148097Y-102738398D01*
X194995397Y-102770855D01*
X194995392Y-102770857D01*
X194822470Y-102847848D01*
X194822465Y-102847851D01*
X194669329Y-102959111D01*
X194542666Y-103099785D01*
X194448021Y-103263715D01*
X194448018Y-103263722D01*
X194400997Y-103408439D01*
X194389526Y-103443744D01*
X194369740Y-103632000D01*
X177120257Y-103632000D01*
X177114224Y-103573698D01*
X177145746Y-103511344D01*
X177165036Y-103494628D01*
X177350601Y-103364695D01*
X177517695Y-103197601D01*
X177653235Y-103004030D01*
X177753103Y-102789863D01*
X177814263Y-102561608D01*
X177828402Y-102400000D01*
X189994540Y-102400000D01*
X190014326Y-102588256D01*
X190014327Y-102588259D01*
X190072818Y-102768277D01*
X190072821Y-102768284D01*
X190167467Y-102932216D01*
X190294128Y-103072888D01*
X190294129Y-103072888D01*
X190447265Y-103184148D01*
X190447270Y-103184151D01*
X190620192Y-103261142D01*
X190620197Y-103261144D01*
X190805354Y-103300500D01*
X190805355Y-103300500D01*
X190994644Y-103300500D01*
X190994646Y-103300500D01*
X191179803Y-103261144D01*
X191352730Y-103184151D01*
X191505871Y-103072888D01*
X191632533Y-102932216D01*
X191727179Y-102768284D01*
X191785674Y-102588256D01*
X191805460Y-102400000D01*
X191785674Y-102211744D01*
X191727179Y-102031716D01*
X191632533Y-101867784D01*
X191505871Y-101727112D01*
X191505870Y-101727111D01*
X191352734Y-101615851D01*
X191352729Y-101615848D01*
X191179807Y-101538857D01*
X191179802Y-101538855D01*
X191034000Y-101507865D01*
X190994646Y-101499500D01*
X190805354Y-101499500D01*
X190772897Y-101506398D01*
X190620197Y-101538855D01*
X190620192Y-101538857D01*
X190447270Y-101615848D01*
X190447265Y-101615851D01*
X190294129Y-101727111D01*
X190167466Y-101867785D01*
X190072821Y-102031715D01*
X190072818Y-102031722D01*
X190030767Y-102161144D01*
X190014326Y-102211744D01*
X189994540Y-102400000D01*
X177828402Y-102400000D01*
X177834859Y-102326200D01*
X177814263Y-102090792D01*
X177753103Y-101862537D01*
X177653235Y-101648371D01*
X177630464Y-101615851D01*
X177517696Y-101454800D01*
X177517695Y-101454799D01*
X177395379Y-101332483D01*
X177377642Y-101300000D01*
X208694540Y-101300000D01*
X208714326Y-101488256D01*
X208714327Y-101488259D01*
X208772818Y-101668277D01*
X208772821Y-101668284D01*
X208867467Y-101832216D01*
X208894775Y-101862544D01*
X208994129Y-101972888D01*
X209147265Y-102084148D01*
X209147270Y-102084151D01*
X209320192Y-102161142D01*
X209320197Y-102161144D01*
X209505354Y-102200500D01*
X209505355Y-102200500D01*
X209694644Y-102200500D01*
X209694646Y-102200500D01*
X209879803Y-102161144D01*
X210052730Y-102084151D01*
X210205871Y-101972888D01*
X210332533Y-101832216D01*
X210427179Y-101668284D01*
X210485674Y-101488256D01*
X210505460Y-101300000D01*
X210485674Y-101111744D01*
X210427179Y-100931716D01*
X210332533Y-100767784D01*
X210205871Y-100627112D01*
X210205870Y-100627111D01*
X210052734Y-100515851D01*
X210052729Y-100515848D01*
X209879807Y-100438857D01*
X209879802Y-100438855D01*
X209734001Y-100407865D01*
X209694646Y-100399500D01*
X209505354Y-100399500D01*
X209472897Y-100406398D01*
X209320197Y-100438855D01*
X209320192Y-100438857D01*
X209147270Y-100515848D01*
X209147265Y-100515851D01*
X208994129Y-100627111D01*
X208867466Y-100767785D01*
X208772821Y-100931715D01*
X208772818Y-100931722D01*
X208724785Y-101079554D01*
X208714326Y-101111744D01*
X208694540Y-101300000D01*
X177377642Y-101300000D01*
X177361896Y-101271163D01*
X177366880Y-101201471D01*
X177408751Y-101145537D01*
X177439729Y-101128622D01*
X177571286Y-101079554D01*
X177571293Y-101079550D01*
X177686387Y-100993390D01*
X177686390Y-100993387D01*
X177772550Y-100878293D01*
X177772554Y-100878286D01*
X177822796Y-100743579D01*
X177822798Y-100743572D01*
X177829199Y-100684044D01*
X177829200Y-100684027D01*
X177829200Y-100036200D01*
X177092547Y-100036200D01*
X177025508Y-100016515D01*
X176979753Y-99963711D01*
X176969809Y-99894553D01*
X176973569Y-99877267D01*
X176979200Y-99858088D01*
X176979200Y-99714311D01*
X176973569Y-99695133D01*
X176973570Y-99625264D01*
X177011345Y-99566486D01*
X177074901Y-99537462D01*
X177092547Y-99536200D01*
X177829200Y-99536200D01*
X177829200Y-99200000D01*
X188294540Y-99200000D01*
X188314326Y-99388256D01*
X188314327Y-99388259D01*
X188372818Y-99568277D01*
X188372821Y-99568284D01*
X188467467Y-99732216D01*
X188580803Y-99858088D01*
X188594129Y-99872888D01*
X188747265Y-99984148D01*
X188747270Y-99984151D01*
X188920192Y-100061142D01*
X188920197Y-100061144D01*
X189105354Y-100100500D01*
X189105355Y-100100500D01*
X189294644Y-100100500D01*
X189294646Y-100100500D01*
X189479803Y-100061144D01*
X189652730Y-99984151D01*
X189805871Y-99872888D01*
X189932533Y-99732216D01*
X190027179Y-99568284D01*
X190085674Y-99388256D01*
X190105460Y-99200000D01*
X190094950Y-99100000D01*
X217894540Y-99100000D01*
X217914326Y-99288256D01*
X217914327Y-99288259D01*
X217972818Y-99468277D01*
X217972821Y-99468284D01*
X218067467Y-99632216D01*
X218124118Y-99695133D01*
X218194129Y-99772888D01*
X218347265Y-99884148D01*
X218347270Y-99884151D01*
X218520192Y-99961142D01*
X218520197Y-99961144D01*
X218705354Y-100000500D01*
X218705355Y-100000500D01*
X218894644Y-100000500D01*
X218894646Y-100000500D01*
X219079803Y-99961144D01*
X219252730Y-99884151D01*
X219405871Y-99772888D01*
X219532533Y-99632216D01*
X219627179Y-99468284D01*
X219685674Y-99288256D01*
X219705460Y-99100000D01*
X219685674Y-98911744D01*
X219627179Y-98731716D01*
X219532533Y-98567784D01*
X219405871Y-98427112D01*
X219390369Y-98415849D01*
X219252734Y-98315851D01*
X219252729Y-98315848D01*
X219079807Y-98238857D01*
X219079802Y-98238855D01*
X218934001Y-98207865D01*
X218894646Y-98199500D01*
X218705354Y-98199500D01*
X218672897Y-98206398D01*
X218520197Y-98238855D01*
X218520192Y-98238857D01*
X218347270Y-98315848D01*
X218347265Y-98315851D01*
X218194129Y-98427111D01*
X218067466Y-98567785D01*
X217972821Y-98731715D01*
X217972818Y-98731722D01*
X217921920Y-98888372D01*
X217914326Y-98911744D01*
X217894540Y-99100000D01*
X190094950Y-99100000D01*
X190085674Y-99011744D01*
X190027179Y-98831716D01*
X189932533Y-98667784D01*
X189805871Y-98527112D01*
X189758712Y-98492849D01*
X189652734Y-98415851D01*
X189652729Y-98415848D01*
X189479807Y-98338857D01*
X189479802Y-98338855D01*
X189334001Y-98307865D01*
X189294646Y-98299500D01*
X189105354Y-98299500D01*
X189072897Y-98306398D01*
X188920197Y-98338855D01*
X188920192Y-98338857D01*
X188747270Y-98415848D01*
X188747265Y-98415851D01*
X188594129Y-98527111D01*
X188467466Y-98667785D01*
X188372821Y-98831715D01*
X188372818Y-98831722D01*
X188314327Y-99011740D01*
X188314326Y-99011744D01*
X188294540Y-99200000D01*
X177829200Y-99200000D01*
X177829200Y-98888372D01*
X177829199Y-98888355D01*
X177822798Y-98828827D01*
X177822796Y-98828820D01*
X177772554Y-98694113D01*
X177772550Y-98694106D01*
X177686390Y-98579012D01*
X177686387Y-98579009D01*
X177571293Y-98492849D01*
X177571286Y-98492845D01*
X177436579Y-98442603D01*
X177436572Y-98442601D01*
X177377044Y-98436200D01*
X176729200Y-98436200D01*
X176729200Y-99173898D01*
X176709515Y-99240937D01*
X176656711Y-99286692D01*
X176587555Y-99296636D01*
X176514966Y-99286200D01*
X176514963Y-99286200D01*
X176443437Y-99286200D01*
X176443433Y-99286200D01*
X176370845Y-99296636D01*
X176301687Y-99286692D01*
X176248884Y-99240936D01*
X176229200Y-99173898D01*
X176229200Y-98436200D01*
X175581355Y-98436200D01*
X175521827Y-98442601D01*
X175521820Y-98442603D01*
X175387113Y-98492845D01*
X175387106Y-98492849D01*
X175272012Y-98579009D01*
X175272009Y-98579012D01*
X175185849Y-98694106D01*
X175185845Y-98694113D01*
X175135603Y-98828820D01*
X175135601Y-98828827D01*
X175129200Y-98888355D01*
X175129200Y-99536200D01*
X175865853Y-99536200D01*
X175932892Y-99555885D01*
X175978647Y-99608689D01*
X175988591Y-99677847D01*
X175984831Y-99695133D01*
X175979200Y-99714311D01*
X175979200Y-99858088D01*
X175984831Y-99877267D01*
X175984830Y-99947136D01*
X175947055Y-100005914D01*
X175883499Y-100034938D01*
X175865853Y-100036200D01*
X175129200Y-100036200D01*
X175129200Y-100684044D01*
X175135601Y-100743572D01*
X175135603Y-100743579D01*
X175185845Y-100878286D01*
X175185849Y-100878293D01*
X175272009Y-100993387D01*
X175272012Y-100993390D01*
X175387106Y-101079550D01*
X175387113Y-101079554D01*
X175518670Y-101128621D01*
X175574603Y-101170492D01*
X175599021Y-101235956D01*
X175584170Y-101304229D01*
X175563019Y-101332484D01*
X175440703Y-101454800D01*
X175305165Y-101648369D01*
X175305164Y-101648371D01*
X175205298Y-101862535D01*
X175205294Y-101862544D01*
X175144138Y-102090786D01*
X175144136Y-102090796D01*
X175123541Y-102326199D01*
X175123541Y-102326200D01*
X175144136Y-102561603D01*
X175144138Y-102561613D01*
X175205294Y-102789855D01*
X175205296Y-102789859D01*
X175205297Y-102789863D01*
X175284219Y-102959111D01*
X175305165Y-103004030D01*
X175305167Y-103004034D01*
X175440701Y-103197595D01*
X175440706Y-103197602D01*
X175607797Y-103364693D01*
X175607803Y-103364698D01*
X175793358Y-103494625D01*
X175836983Y-103549202D01*
X175844177Y-103618700D01*
X175812654Y-103681055D01*
X175793358Y-103697775D01*
X175607797Y-103827705D01*
X175440705Y-103994797D01*
X175305165Y-104188369D01*
X175305164Y-104188371D01*
X175205298Y-104402535D01*
X175205294Y-104402544D01*
X175144138Y-104630786D01*
X175144136Y-104630796D01*
X175123541Y-104866199D01*
X175123541Y-104866200D01*
X174244500Y-104866200D01*
X174244500Y-96800000D01*
X186494540Y-96800000D01*
X186514326Y-96988256D01*
X186514327Y-96988259D01*
X186572818Y-97168277D01*
X186572821Y-97168284D01*
X186667467Y-97332216D01*
X186777468Y-97454384D01*
X186794129Y-97472888D01*
X186947265Y-97584148D01*
X186947270Y-97584151D01*
X187120192Y-97661142D01*
X187120197Y-97661144D01*
X187305354Y-97700500D01*
X187305355Y-97700500D01*
X187494644Y-97700500D01*
X187494646Y-97700500D01*
X187679803Y-97661144D01*
X187852730Y-97584151D01*
X187920487Y-97534922D01*
X187986292Y-97511442D01*
X188054346Y-97527267D01*
X188085521Y-97552267D01*
X188183553Y-97661142D01*
X188194129Y-97672888D01*
X188347265Y-97784148D01*
X188347270Y-97784151D01*
X188520192Y-97861142D01*
X188520197Y-97861144D01*
X188705354Y-97900500D01*
X188705355Y-97900500D01*
X188894644Y-97900500D01*
X188894646Y-97900500D01*
X189079803Y-97861144D01*
X189252730Y-97784151D01*
X189405871Y-97672888D01*
X189532533Y-97532216D01*
X189627179Y-97368284D01*
X189649366Y-97300000D01*
X202694540Y-97300000D01*
X202714326Y-97488256D01*
X202714327Y-97488259D01*
X202772818Y-97668277D01*
X202772821Y-97668284D01*
X202867467Y-97832216D01*
X202957506Y-97932214D01*
X202994129Y-97972888D01*
X203147265Y-98084148D01*
X203147270Y-98084151D01*
X203320192Y-98161142D01*
X203320197Y-98161144D01*
X203505354Y-98200500D01*
X203505355Y-98200500D01*
X203694644Y-98200500D01*
X203694646Y-98200500D01*
X203879803Y-98161144D01*
X204052730Y-98084151D01*
X204205871Y-97972888D01*
X204332533Y-97832216D01*
X204427179Y-97668284D01*
X204485674Y-97488256D01*
X204494950Y-97400000D01*
X208594540Y-97400000D01*
X208614326Y-97588256D01*
X208614327Y-97588259D01*
X208672818Y-97768277D01*
X208672821Y-97768284D01*
X208767467Y-97932216D01*
X208894129Y-98072888D01*
X209047265Y-98184148D01*
X209047270Y-98184151D01*
X209220192Y-98261142D01*
X209220197Y-98261144D01*
X209405354Y-98300500D01*
X209405355Y-98300500D01*
X209594644Y-98300500D01*
X209594646Y-98300500D01*
X209779803Y-98261144D01*
X209952730Y-98184151D01*
X210105871Y-98072888D01*
X210232533Y-97932216D01*
X210327179Y-97768284D01*
X210335849Y-97741600D01*
X236229356Y-97741600D01*
X236249884Y-97963135D01*
X236249885Y-97963137D01*
X236310769Y-98177123D01*
X236310775Y-98177138D01*
X236409938Y-98376283D01*
X236409943Y-98376291D01*
X236544020Y-98553838D01*
X236708437Y-98703723D01*
X236708439Y-98703725D01*
X236897595Y-98820845D01*
X236897596Y-98820845D01*
X236897599Y-98820847D01*
X237105060Y-98901218D01*
X237323757Y-98942100D01*
X237323759Y-98942100D01*
X237546241Y-98942100D01*
X237546243Y-98942100D01*
X237764940Y-98901218D01*
X237972401Y-98820847D01*
X238161562Y-98703724D01*
X238325981Y-98553836D01*
X238460058Y-98376289D01*
X238559229Y-98177128D01*
X238620115Y-97963136D01*
X238640643Y-97741600D01*
X238620115Y-97520064D01*
X238559229Y-97306072D01*
X238559224Y-97306061D01*
X238460061Y-97106916D01*
X238460056Y-97106908D01*
X238325979Y-96929361D01*
X238161562Y-96779476D01*
X238161560Y-96779474D01*
X237972404Y-96662354D01*
X237972398Y-96662352D01*
X237764940Y-96581982D01*
X237546243Y-96541100D01*
X237323757Y-96541100D01*
X237105060Y-96581982D01*
X236988569Y-96627111D01*
X236897601Y-96662352D01*
X236897595Y-96662354D01*
X236708439Y-96779474D01*
X236708437Y-96779476D01*
X236544020Y-96929361D01*
X236409943Y-97106908D01*
X236409938Y-97106916D01*
X236310775Y-97306061D01*
X236310769Y-97306076D01*
X236249885Y-97520062D01*
X236249884Y-97520064D01*
X236229356Y-97741599D01*
X236229356Y-97741600D01*
X210335849Y-97741600D01*
X210385674Y-97588256D01*
X210405460Y-97400000D01*
X210385674Y-97211744D01*
X210327179Y-97031716D01*
X210232533Y-96867784D01*
X210105871Y-96727112D01*
X210105870Y-96727111D01*
X209952734Y-96615851D01*
X209952729Y-96615848D01*
X209779807Y-96538857D01*
X209779802Y-96538855D01*
X209634000Y-96507865D01*
X209594646Y-96499500D01*
X209405354Y-96499500D01*
X209372897Y-96506398D01*
X209220197Y-96538855D01*
X209220192Y-96538857D01*
X209047270Y-96615848D01*
X209047265Y-96615851D01*
X208894129Y-96727111D01*
X208767466Y-96867785D01*
X208672821Y-97031715D01*
X208672818Y-97031722D01*
X208614327Y-97211740D01*
X208614326Y-97211744D01*
X208594540Y-97400000D01*
X204494950Y-97400000D01*
X204505460Y-97300000D01*
X204485674Y-97111744D01*
X204427179Y-96931716D01*
X204332533Y-96767784D01*
X204205871Y-96627112D01*
X204190369Y-96615849D01*
X204052734Y-96515851D01*
X204052729Y-96515848D01*
X203879807Y-96438857D01*
X203879802Y-96438855D01*
X203734001Y-96407865D01*
X203694646Y-96399500D01*
X203505354Y-96399500D01*
X203472897Y-96406398D01*
X203320197Y-96438855D01*
X203320192Y-96438857D01*
X203147270Y-96515848D01*
X203147265Y-96515851D01*
X202994129Y-96627111D01*
X202867466Y-96767785D01*
X202772821Y-96931715D01*
X202772818Y-96931722D01*
X202714327Y-97111740D01*
X202714326Y-97111744D01*
X202694540Y-97300000D01*
X189649366Y-97300000D01*
X189685674Y-97188256D01*
X189705460Y-97000000D01*
X189685674Y-96811744D01*
X189627179Y-96631716D01*
X189532533Y-96467784D01*
X189405871Y-96327112D01*
X189405870Y-96327111D01*
X189252734Y-96215851D01*
X189252729Y-96215848D01*
X189079807Y-96138857D01*
X189079802Y-96138855D01*
X188934000Y-96107865D01*
X188894646Y-96099500D01*
X188705354Y-96099500D01*
X188672897Y-96106398D01*
X188520197Y-96138855D01*
X188520192Y-96138857D01*
X188347270Y-96215848D01*
X188347265Y-96215851D01*
X188279512Y-96265077D01*
X188213705Y-96288557D01*
X188145652Y-96272731D01*
X188114477Y-96247731D01*
X188005870Y-96127111D01*
X187852734Y-96015851D01*
X187852729Y-96015848D01*
X187679807Y-95938857D01*
X187679802Y-95938855D01*
X187534001Y-95907865D01*
X187494646Y-95899500D01*
X187305354Y-95899500D01*
X187272897Y-95906398D01*
X187120197Y-95938855D01*
X187120192Y-95938857D01*
X186947270Y-96015848D01*
X186947265Y-96015851D01*
X186794129Y-96127111D01*
X186667466Y-96267785D01*
X186572821Y-96431715D01*
X186572818Y-96431722D01*
X186523996Y-96581982D01*
X186514326Y-96611744D01*
X186494540Y-96800000D01*
X174244500Y-96800000D01*
X174244500Y-94200000D01*
X188594540Y-94200000D01*
X188614326Y-94388256D01*
X188614327Y-94388259D01*
X188672818Y-94568277D01*
X188672821Y-94568284D01*
X188767467Y-94732216D01*
X188894129Y-94872888D01*
X189047265Y-94984148D01*
X189047270Y-94984151D01*
X189220192Y-95061142D01*
X189220197Y-95061144D01*
X189405354Y-95100500D01*
X189405355Y-95100500D01*
X189594644Y-95100500D01*
X189594646Y-95100500D01*
X189779803Y-95061144D01*
X189952730Y-94984151D01*
X190105871Y-94872888D01*
X190232533Y-94732216D01*
X190327179Y-94568284D01*
X190385674Y-94388256D01*
X190405460Y-94200000D01*
X190385674Y-94011744D01*
X190327179Y-93831716D01*
X190232533Y-93667784D01*
X190105871Y-93527112D01*
X190105870Y-93527111D01*
X189952734Y-93415851D01*
X189952729Y-93415848D01*
X189779807Y-93338857D01*
X189779802Y-93338855D01*
X189634000Y-93307865D01*
X189594646Y-93299500D01*
X189405354Y-93299500D01*
X189372897Y-93306398D01*
X189220197Y-93338855D01*
X189220192Y-93338857D01*
X189047270Y-93415848D01*
X189047265Y-93415851D01*
X188894129Y-93527111D01*
X188767466Y-93667785D01*
X188672821Y-93831715D01*
X188672818Y-93831722D01*
X188614327Y-94011740D01*
X188614326Y-94011744D01*
X188594540Y-94200000D01*
X174244500Y-94200000D01*
X174244500Y-90700000D01*
X204194540Y-90700000D01*
X204214326Y-90888256D01*
X204214327Y-90888259D01*
X204272818Y-91068277D01*
X204272821Y-91068284D01*
X204367467Y-91232216D01*
X204494128Y-91372888D01*
X204494129Y-91372888D01*
X204647265Y-91484148D01*
X204647270Y-91484151D01*
X204820192Y-91561142D01*
X204820197Y-91561144D01*
X205005354Y-91600500D01*
X205005355Y-91600500D01*
X205194644Y-91600500D01*
X205194646Y-91600500D01*
X205379803Y-91561144D01*
X205552730Y-91484151D01*
X205705871Y-91372888D01*
X205832533Y-91232216D01*
X205927179Y-91068284D01*
X205985674Y-90888256D01*
X206005460Y-90700000D01*
X205985674Y-90511744D01*
X205927179Y-90331716D01*
X205832533Y-90167784D01*
X205705871Y-90027112D01*
X205705870Y-90027111D01*
X205552734Y-89915851D01*
X205552729Y-89915848D01*
X205379807Y-89838857D01*
X205379802Y-89838855D01*
X205234000Y-89807865D01*
X205194646Y-89799500D01*
X205005354Y-89799500D01*
X204972897Y-89806398D01*
X204820197Y-89838855D01*
X204820192Y-89838857D01*
X204647270Y-89915848D01*
X204647265Y-89915851D01*
X204494129Y-90027111D01*
X204367466Y-90167785D01*
X204272821Y-90331715D01*
X204272818Y-90331722D01*
X204214327Y-90511740D01*
X204214326Y-90511744D01*
X204194540Y-90700000D01*
X174244500Y-90700000D01*
X174244500Y-88595200D01*
X195951541Y-88595200D01*
X195972136Y-88830603D01*
X195972138Y-88830613D01*
X196033294Y-89058855D01*
X196033296Y-89058859D01*
X196033297Y-89058863D01*
X196133165Y-89273029D01*
X196133165Y-89273030D01*
X196133167Y-89273034D01*
X196241481Y-89427721D01*
X196268705Y-89466601D01*
X196435799Y-89633695D01*
X196530492Y-89700000D01*
X196629365Y-89769232D01*
X196629367Y-89769233D01*
X196629370Y-89769235D01*
X196843537Y-89869103D01*
X197071792Y-89930263D01*
X197260118Y-89946739D01*
X197307199Y-89950859D01*
X197307200Y-89950859D01*
X197307201Y-89950859D01*
X197346434Y-89947426D01*
X197542608Y-89930263D01*
X197770863Y-89869103D01*
X197985030Y-89769235D01*
X198083908Y-89700000D01*
X209594540Y-89700000D01*
X209614326Y-89888256D01*
X209614327Y-89888259D01*
X209672818Y-90068277D01*
X209672821Y-90068284D01*
X209767467Y-90232216D01*
X209890210Y-90368535D01*
X209894129Y-90372888D01*
X210047265Y-90484148D01*
X210047270Y-90484151D01*
X210220192Y-90561142D01*
X210220197Y-90561144D01*
X210405354Y-90600500D01*
X210405355Y-90600500D01*
X210594644Y-90600500D01*
X210594646Y-90600500D01*
X210779803Y-90561144D01*
X210952730Y-90484151D01*
X211105871Y-90372888D01*
X211105875Y-90372884D01*
X211107849Y-90370692D01*
X211109309Y-90369792D01*
X211110706Y-90368535D01*
X211110935Y-90368790D01*
X211167335Y-90334043D01*
X211237192Y-90335372D01*
X211289110Y-90368738D01*
X211289294Y-90368535D01*
X211290539Y-90369656D01*
X211292151Y-90370692D01*
X211294124Y-90372884D01*
X211294130Y-90372889D01*
X211447265Y-90484148D01*
X211447270Y-90484151D01*
X211620192Y-90561142D01*
X211620197Y-90561144D01*
X211805354Y-90600500D01*
X211805355Y-90600500D01*
X211994644Y-90600500D01*
X211994646Y-90600500D01*
X212179803Y-90561144D01*
X212352730Y-90484151D01*
X212505871Y-90372888D01*
X212632533Y-90232216D01*
X212727179Y-90068284D01*
X212785674Y-89888256D01*
X212805460Y-89700000D01*
X212785674Y-89511744D01*
X212727179Y-89331716D01*
X212632533Y-89167784D01*
X212505871Y-89027112D01*
X212505863Y-89027106D01*
X212352734Y-88915851D01*
X212352729Y-88915848D01*
X212179807Y-88838857D01*
X212179802Y-88838855D01*
X212034001Y-88807865D01*
X211994646Y-88799500D01*
X211805354Y-88799500D01*
X211772897Y-88806398D01*
X211620197Y-88838855D01*
X211620192Y-88838857D01*
X211447270Y-88915848D01*
X211447265Y-88915851D01*
X211294135Y-89027106D01*
X211294122Y-89027117D01*
X211292144Y-89029315D01*
X211290683Y-89030214D01*
X211289305Y-89031456D01*
X211289077Y-89031203D01*
X211232655Y-89065960D01*
X211162798Y-89064625D01*
X211110875Y-89031255D01*
X211110695Y-89031456D01*
X211109467Y-89030350D01*
X211107856Y-89029315D01*
X211105877Y-89027117D01*
X211105864Y-89027106D01*
X210952734Y-88915851D01*
X210952729Y-88915848D01*
X210779807Y-88838857D01*
X210779802Y-88838855D01*
X210634001Y-88807865D01*
X210594646Y-88799500D01*
X210405354Y-88799500D01*
X210372897Y-88806398D01*
X210220197Y-88838855D01*
X210220192Y-88838857D01*
X210047270Y-88915848D01*
X210047265Y-88915851D01*
X209894129Y-89027111D01*
X209767466Y-89167785D01*
X209672821Y-89331715D01*
X209672818Y-89331722D01*
X209614327Y-89511740D01*
X209614326Y-89511744D01*
X209594540Y-89700000D01*
X198083908Y-89700000D01*
X198178601Y-89633695D01*
X198345695Y-89466601D01*
X198481235Y-89273030D01*
X198581103Y-89058863D01*
X198642263Y-88830608D01*
X198662859Y-88595200D01*
X198642263Y-88359792D01*
X198581103Y-88131537D01*
X198481235Y-87917371D01*
X198345695Y-87723799D01*
X198345694Y-87723797D01*
X198178602Y-87556706D01*
X198178596Y-87556701D01*
X197993042Y-87426775D01*
X197949417Y-87372198D01*
X197942223Y-87302700D01*
X197973746Y-87240345D01*
X197993042Y-87223625D01*
X198015226Y-87208091D01*
X198178601Y-87093695D01*
X198345695Y-86926601D01*
X198481235Y-86733030D01*
X198581103Y-86518863D01*
X198642263Y-86290608D01*
X198662859Y-86055200D01*
X198642263Y-85819792D01*
X198583371Y-85600000D01*
X208194540Y-85600000D01*
X208214326Y-85788256D01*
X208214327Y-85788259D01*
X208272818Y-85968277D01*
X208272821Y-85968284D01*
X208367467Y-86132216D01*
X208494129Y-86272888D01*
X208647265Y-86384148D01*
X208647270Y-86384151D01*
X208820192Y-86461142D01*
X208820197Y-86461144D01*
X209005354Y-86500500D01*
X209005355Y-86500500D01*
X209194644Y-86500500D01*
X209194646Y-86500500D01*
X209379803Y-86461144D01*
X209552730Y-86384151D01*
X209705871Y-86272888D01*
X209832533Y-86132216D01*
X209851133Y-86100000D01*
X224094540Y-86100000D01*
X224114326Y-86288256D01*
X224114327Y-86288259D01*
X224172818Y-86468277D01*
X224172821Y-86468284D01*
X224267467Y-86632216D01*
X224358241Y-86733030D01*
X224394129Y-86772888D01*
X224547265Y-86884148D01*
X224547270Y-86884151D01*
X224720192Y-86961142D01*
X224720197Y-86961144D01*
X224905354Y-87000500D01*
X224905355Y-87000500D01*
X225094644Y-87000500D01*
X225094646Y-87000500D01*
X225279803Y-86961144D01*
X225452730Y-86884151D01*
X225527116Y-86830106D01*
X225592920Y-86806627D01*
X225660974Y-86822452D01*
X225672876Y-86830100D01*
X225747266Y-86884148D01*
X225747270Y-86884151D01*
X225920192Y-86961142D01*
X225920197Y-86961144D01*
X226105354Y-87000500D01*
X226105355Y-87000500D01*
X226294644Y-87000500D01*
X226294646Y-87000500D01*
X226479803Y-86961144D01*
X226652730Y-86884151D01*
X226677113Y-86866435D01*
X226742916Y-86842954D01*
X226810971Y-86858778D01*
X226822880Y-86866431D01*
X226847266Y-86884148D01*
X226847270Y-86884151D01*
X227020192Y-86961142D01*
X227020197Y-86961144D01*
X227205354Y-87000500D01*
X227205355Y-87000500D01*
X227394644Y-87000500D01*
X227394646Y-87000500D01*
X227579803Y-86961144D01*
X227752730Y-86884151D01*
X227827115Y-86830106D01*
X227892919Y-86806627D01*
X227960973Y-86822452D01*
X227972884Y-86830107D01*
X228047265Y-86884148D01*
X228047270Y-86884151D01*
X228220192Y-86961142D01*
X228220197Y-86961144D01*
X228405354Y-87000500D01*
X228405355Y-87000500D01*
X228594644Y-87000500D01*
X228594646Y-87000500D01*
X228779803Y-86961144D01*
X228952730Y-86884151D01*
X229105871Y-86772888D01*
X229232533Y-86632216D01*
X229327179Y-86468284D01*
X229385674Y-86288256D01*
X229405460Y-86100000D01*
X229385674Y-85911744D01*
X229327179Y-85731716D01*
X229258060Y-85611999D01*
X229241588Y-85544100D01*
X229258061Y-85488000D01*
X229302087Y-85411744D01*
X229327179Y-85368284D01*
X229385674Y-85188256D01*
X229405460Y-85000000D01*
X229385674Y-84811744D01*
X229327179Y-84631716D01*
X229232533Y-84467784D01*
X229105871Y-84327112D01*
X229105870Y-84327111D01*
X228952734Y-84215851D01*
X228952729Y-84215848D01*
X228779807Y-84138857D01*
X228779802Y-84138855D01*
X228634000Y-84107865D01*
X228594646Y-84099500D01*
X228405354Y-84099500D01*
X228372897Y-84106398D01*
X228220197Y-84138855D01*
X228220192Y-84138857D01*
X228047270Y-84215848D01*
X228047265Y-84215851D01*
X227972885Y-84269892D01*
X227907079Y-84293372D01*
X227839025Y-84277546D01*
X227827115Y-84269892D01*
X227752734Y-84215851D01*
X227752729Y-84215848D01*
X227579807Y-84138857D01*
X227579802Y-84138855D01*
X227434001Y-84107865D01*
X227394646Y-84099500D01*
X227205354Y-84099500D01*
X227172897Y-84106398D01*
X227020197Y-84138855D01*
X227020192Y-84138857D01*
X226847270Y-84215848D01*
X226847265Y-84215851D01*
X226822885Y-84233565D01*
X226757079Y-84257045D01*
X226689025Y-84241219D01*
X226677115Y-84233565D01*
X226652734Y-84215851D01*
X226652729Y-84215848D01*
X226479807Y-84138857D01*
X226479802Y-84138855D01*
X226334000Y-84107865D01*
X226294646Y-84099500D01*
X226105354Y-84099500D01*
X226072897Y-84106398D01*
X225920197Y-84138855D01*
X225920192Y-84138857D01*
X225747270Y-84215848D01*
X225747265Y-84215851D01*
X225672885Y-84269892D01*
X225607079Y-84293372D01*
X225539025Y-84277546D01*
X225527115Y-84269892D01*
X225452734Y-84215851D01*
X225452729Y-84215848D01*
X225279807Y-84138857D01*
X225279802Y-84138855D01*
X225134000Y-84107865D01*
X225094646Y-84099500D01*
X224905354Y-84099500D01*
X224872897Y-84106398D01*
X224720197Y-84138855D01*
X224720192Y-84138857D01*
X224547270Y-84215848D01*
X224547265Y-84215851D01*
X224394129Y-84327111D01*
X224267466Y-84467785D01*
X224172821Y-84631715D01*
X224172818Y-84631722D01*
X224115640Y-84807700D01*
X224114326Y-84811744D01*
X224094540Y-85000000D01*
X224114326Y-85188256D01*
X224114327Y-85188259D01*
X224172818Y-85368277D01*
X224172821Y-85368284D01*
X224241939Y-85488000D01*
X224258412Y-85555900D01*
X224241939Y-85612000D01*
X224172821Y-85731715D01*
X224172818Y-85731722D01*
X224114327Y-85911740D01*
X224114326Y-85911744D01*
X224094540Y-86100000D01*
X209851133Y-86100000D01*
X209927179Y-85968284D01*
X209985674Y-85788256D01*
X210005460Y-85600000D01*
X209985674Y-85411744D01*
X209927179Y-85231716D01*
X209832533Y-85067784D01*
X209705871Y-84927112D01*
X209650352Y-84886775D01*
X209552734Y-84815851D01*
X209552729Y-84815848D01*
X209379807Y-84738857D01*
X209379802Y-84738855D01*
X209234001Y-84707865D01*
X209194646Y-84699500D01*
X209005354Y-84699500D01*
X208972897Y-84706398D01*
X208820197Y-84738855D01*
X208820192Y-84738857D01*
X208647270Y-84815848D01*
X208647265Y-84815851D01*
X208494129Y-84927111D01*
X208367466Y-85067785D01*
X208272821Y-85231715D01*
X208272818Y-85231722D01*
X208214327Y-85411740D01*
X208214326Y-85411744D01*
X208194540Y-85600000D01*
X198583371Y-85600000D01*
X198581103Y-85591537D01*
X198481235Y-85377371D01*
X198474873Y-85368284D01*
X198345694Y-85183797D01*
X198178602Y-85016706D01*
X198178601Y-85016705D01*
X198050648Y-84927111D01*
X197993041Y-84886774D01*
X197949416Y-84832197D01*
X197942224Y-84762698D01*
X197973746Y-84700344D01*
X197993036Y-84683628D01*
X198178601Y-84553695D01*
X198345695Y-84386601D01*
X198481235Y-84193030D01*
X198571247Y-84000000D01*
X201994540Y-84000000D01*
X202014326Y-84188256D01*
X202014327Y-84188259D01*
X202072818Y-84368277D01*
X202072821Y-84368284D01*
X202167467Y-84532216D01*
X202257063Y-84631722D01*
X202294129Y-84672888D01*
X202447265Y-84784148D01*
X202447270Y-84784151D01*
X202620192Y-84861142D01*
X202620197Y-84861144D01*
X202805354Y-84900500D01*
X202805355Y-84900500D01*
X202994644Y-84900500D01*
X202994646Y-84900500D01*
X203179803Y-84861144D01*
X203352730Y-84784151D01*
X203505871Y-84672888D01*
X203632533Y-84532216D01*
X203727179Y-84368284D01*
X203785674Y-84188256D01*
X203805460Y-84000000D01*
X203785674Y-83811744D01*
X203727179Y-83631716D01*
X203632533Y-83467784D01*
X203505871Y-83327112D01*
X203505870Y-83327111D01*
X203352734Y-83215851D01*
X203352729Y-83215848D01*
X203179807Y-83138857D01*
X203179802Y-83138855D01*
X203034000Y-83107865D01*
X202994646Y-83099500D01*
X202805354Y-83099500D01*
X202772897Y-83106398D01*
X202620197Y-83138855D01*
X202620192Y-83138857D01*
X202447270Y-83215848D01*
X202447265Y-83215851D01*
X202294129Y-83327111D01*
X202167466Y-83467785D01*
X202072821Y-83631715D01*
X202072818Y-83631722D01*
X202014327Y-83811740D01*
X202014326Y-83811744D01*
X201994540Y-84000000D01*
X198571247Y-84000000D01*
X198581103Y-83978863D01*
X198642263Y-83750608D01*
X198662859Y-83515200D01*
X198642263Y-83279792D01*
X198595826Y-83106485D01*
X198581105Y-83051544D01*
X198581104Y-83051543D01*
X198581103Y-83051537D01*
X198481235Y-82837371D01*
X198345695Y-82643799D01*
X198223379Y-82521483D01*
X198189896Y-82460163D01*
X198194880Y-82390471D01*
X198236751Y-82334537D01*
X198267729Y-82317622D01*
X198399286Y-82268554D01*
X198399293Y-82268550D01*
X198514387Y-82182390D01*
X198514390Y-82182387D01*
X198600550Y-82067293D01*
X198600554Y-82067286D01*
X198650796Y-81932579D01*
X198650798Y-81932572D01*
X198657199Y-81873044D01*
X198657200Y-81873027D01*
X198657200Y-81225200D01*
X197920547Y-81225200D01*
X197853508Y-81205515D01*
X197807753Y-81152711D01*
X197797809Y-81083553D01*
X197801569Y-81066267D01*
X197807200Y-81047088D01*
X197807200Y-80903311D01*
X197801569Y-80884133D01*
X197801570Y-80814264D01*
X197810737Y-80800000D01*
X200894540Y-80800000D01*
X200914326Y-80988256D01*
X200914327Y-80988259D01*
X200972818Y-81168277D01*
X200972821Y-81168284D01*
X201067467Y-81332216D01*
X201128637Y-81400152D01*
X201194129Y-81472888D01*
X201347265Y-81584148D01*
X201347270Y-81584151D01*
X201520192Y-81661142D01*
X201520197Y-81661144D01*
X201705354Y-81700500D01*
X201705355Y-81700500D01*
X201894644Y-81700500D01*
X201894646Y-81700500D01*
X202079803Y-81661144D01*
X202252730Y-81584151D01*
X202368554Y-81500000D01*
X214894540Y-81500000D01*
X214914326Y-81688256D01*
X214914327Y-81688259D01*
X214972818Y-81868277D01*
X214972821Y-81868284D01*
X215067467Y-82032216D01*
X215099051Y-82067293D01*
X215194129Y-82172888D01*
X215347265Y-82284148D01*
X215347270Y-82284151D01*
X215520192Y-82361142D01*
X215520197Y-82361144D01*
X215705354Y-82400500D01*
X215705355Y-82400500D01*
X215894644Y-82400500D01*
X215894646Y-82400500D01*
X216079803Y-82361144D01*
X216252730Y-82284151D01*
X216405871Y-82172888D01*
X216532533Y-82032216D01*
X216627179Y-81868284D01*
X216685674Y-81688256D01*
X216705460Y-81500000D01*
X216685674Y-81311744D01*
X216627179Y-81131716D01*
X216532533Y-80967784D01*
X216405871Y-80827112D01*
X216405870Y-80827111D01*
X216252734Y-80715851D01*
X216252729Y-80715848D01*
X216079807Y-80638857D01*
X216079802Y-80638855D01*
X215934000Y-80607865D01*
X215894646Y-80599500D01*
X215705354Y-80599500D01*
X215672897Y-80606398D01*
X215520197Y-80638855D01*
X215520192Y-80638857D01*
X215347270Y-80715848D01*
X215347265Y-80715851D01*
X215194129Y-80827111D01*
X215067466Y-80967785D01*
X214972821Y-81131715D01*
X214972818Y-81131722D01*
X214916193Y-81305998D01*
X214914326Y-81311744D01*
X214894540Y-81500000D01*
X202368554Y-81500000D01*
X202405871Y-81472888D01*
X202532533Y-81332216D01*
X202627179Y-81168284D01*
X202685674Y-80988256D01*
X202705460Y-80800000D01*
X202685674Y-80611744D01*
X202627179Y-80431716D01*
X202532533Y-80267784D01*
X202405871Y-80127112D01*
X202405870Y-80127111D01*
X202252734Y-80015851D01*
X202252729Y-80015848D01*
X202079807Y-79938857D01*
X202079802Y-79938855D01*
X201934001Y-79907865D01*
X201894646Y-79899500D01*
X201705354Y-79899500D01*
X201672897Y-79906398D01*
X201520197Y-79938855D01*
X201520192Y-79938857D01*
X201347270Y-80015848D01*
X201347265Y-80015851D01*
X201194129Y-80127111D01*
X201067466Y-80267785D01*
X200972821Y-80431715D01*
X200972818Y-80431722D01*
X200953714Y-80490520D01*
X200914326Y-80611744D01*
X200894540Y-80800000D01*
X197810737Y-80800000D01*
X197839345Y-80755486D01*
X197902901Y-80726462D01*
X197920547Y-80725200D01*
X198657199Y-80725200D01*
X198657200Y-80077372D01*
X198657199Y-80077355D01*
X198650798Y-80017827D01*
X198650796Y-80017820D01*
X198600554Y-79883113D01*
X198600550Y-79883106D01*
X198514390Y-79768012D01*
X198514387Y-79768009D01*
X198399293Y-79681849D01*
X198399286Y-79681845D01*
X198264579Y-79631603D01*
X198264572Y-79631601D01*
X198205044Y-79625200D01*
X197557200Y-79625200D01*
X197557199Y-80362898D01*
X197537514Y-80429938D01*
X197484710Y-80475692D01*
X197415553Y-80485636D01*
X197342964Y-80475200D01*
X197342963Y-80475200D01*
X197271437Y-80475200D01*
X197271433Y-80475200D01*
X197198845Y-80485636D01*
X197129687Y-80475692D01*
X197076884Y-80429936D01*
X197057200Y-80362898D01*
X197057200Y-79625200D01*
X196409355Y-79625200D01*
X196349827Y-79631601D01*
X196349820Y-79631603D01*
X196215113Y-79681845D01*
X196215106Y-79681849D01*
X196100012Y-79768009D01*
X196100009Y-79768012D01*
X196013849Y-79883106D01*
X196013845Y-79883113D01*
X195963603Y-80017820D01*
X195963601Y-80017827D01*
X195957200Y-80077355D01*
X195957200Y-80725200D01*
X196693853Y-80725200D01*
X196760892Y-80744885D01*
X196806647Y-80797689D01*
X196816591Y-80866847D01*
X196812831Y-80884133D01*
X196807200Y-80903311D01*
X196807200Y-81047088D01*
X196812831Y-81066267D01*
X196812830Y-81136136D01*
X196775055Y-81194914D01*
X196711499Y-81223938D01*
X196693853Y-81225200D01*
X195957200Y-81225200D01*
X195957200Y-81873044D01*
X195963601Y-81932572D01*
X195963603Y-81932579D01*
X196013845Y-82067286D01*
X196013849Y-82067293D01*
X196100009Y-82182387D01*
X196100012Y-82182390D01*
X196215106Y-82268550D01*
X196215113Y-82268554D01*
X196346670Y-82317621D01*
X196402603Y-82359492D01*
X196427021Y-82424956D01*
X196412170Y-82493229D01*
X196391019Y-82521484D01*
X196268703Y-82643800D01*
X196133165Y-82837369D01*
X196133164Y-82837371D01*
X196033298Y-83051535D01*
X196033294Y-83051544D01*
X195972138Y-83279786D01*
X195972136Y-83279796D01*
X195951541Y-83515199D01*
X195951541Y-83515200D01*
X195972136Y-83750603D01*
X195972138Y-83750613D01*
X196033294Y-83978855D01*
X196033296Y-83978859D01*
X196033297Y-83978863D01*
X196089551Y-84099500D01*
X196133165Y-84193030D01*
X196133167Y-84193034D01*
X196268701Y-84386595D01*
X196268706Y-84386602D01*
X196435797Y-84553693D01*
X196435803Y-84553698D01*
X196621358Y-84683625D01*
X196664983Y-84738202D01*
X196672177Y-84807700D01*
X196640654Y-84870055D01*
X196621358Y-84886775D01*
X196435797Y-85016705D01*
X196268705Y-85183797D01*
X196133165Y-85377369D01*
X196133164Y-85377371D01*
X196033298Y-85591535D01*
X196033294Y-85591544D01*
X195972138Y-85819786D01*
X195972136Y-85819796D01*
X195951541Y-86055199D01*
X195951541Y-86055200D01*
X195972136Y-86290603D01*
X195972138Y-86290613D01*
X196033294Y-86518855D01*
X196033296Y-86518859D01*
X196033297Y-86518863D01*
X196086154Y-86632214D01*
X196133165Y-86733030D01*
X196133167Y-86733034D01*
X196268701Y-86926595D01*
X196268706Y-86926602D01*
X196435797Y-87093693D01*
X196435803Y-87093698D01*
X196621358Y-87223625D01*
X196664983Y-87278202D01*
X196672177Y-87347700D01*
X196640654Y-87410055D01*
X196621358Y-87426775D01*
X196435797Y-87556705D01*
X196268705Y-87723797D01*
X196133165Y-87917369D01*
X196133164Y-87917371D01*
X196033298Y-88131535D01*
X196033294Y-88131544D01*
X195972138Y-88359786D01*
X195972136Y-88359796D01*
X195951541Y-88595199D01*
X195951541Y-88595200D01*
X174244500Y-88595200D01*
X174244500Y-79300000D01*
X215594540Y-79300000D01*
X215614326Y-79488256D01*
X215614327Y-79488259D01*
X215672818Y-79668277D01*
X215672821Y-79668284D01*
X215767467Y-79832216D01*
X215863487Y-79938857D01*
X215894129Y-79972888D01*
X216047265Y-80084148D01*
X216047270Y-80084151D01*
X216220192Y-80161142D01*
X216220197Y-80161144D01*
X216405354Y-80200500D01*
X216405355Y-80200500D01*
X216594644Y-80200500D01*
X216594646Y-80200500D01*
X216779803Y-80161144D01*
X216952730Y-80084151D01*
X217105871Y-79972888D01*
X217232533Y-79832216D01*
X217327179Y-79668284D01*
X217385674Y-79488256D01*
X217405460Y-79300000D01*
X217385674Y-79111744D01*
X217327179Y-78931716D01*
X217232533Y-78767784D01*
X217105871Y-78627112D01*
X217105870Y-78627111D01*
X216952734Y-78515851D01*
X216952729Y-78515848D01*
X216779807Y-78438857D01*
X216779802Y-78438855D01*
X216634000Y-78407865D01*
X216594646Y-78399500D01*
X216405354Y-78399500D01*
X216372897Y-78406398D01*
X216220197Y-78438855D01*
X216220192Y-78438857D01*
X216047270Y-78515848D01*
X216047265Y-78515851D01*
X215894129Y-78627111D01*
X215767466Y-78767785D01*
X215672821Y-78931715D01*
X215672818Y-78931722D01*
X215617719Y-79101300D01*
X215614326Y-79111744D01*
X215594540Y-79300000D01*
X174244500Y-79300000D01*
X174244500Y-76550805D01*
X198670558Y-76550805D01*
X198690703Y-76871021D01*
X198690704Y-76871028D01*
X198750830Y-77186217D01*
X198849982Y-77491375D01*
X198849984Y-77491380D01*
X198986598Y-77781697D01*
X198986601Y-77781703D01*
X199158524Y-78052611D01*
X199254373Y-78168472D01*
X200006701Y-77416144D01*
X200068024Y-77382659D01*
X200137715Y-77387643D01*
X200182465Y-77419246D01*
X200183662Y-77418050D01*
X200358350Y-77592738D01*
X200356982Y-77594105D01*
X200390974Y-77645174D01*
X200392096Y-77715035D01*
X200360254Y-77769697D01*
X199604775Y-78525175D01*
X199604776Y-78525177D01*
X199856528Y-78708085D01*
X199856546Y-78708097D01*
X200137716Y-78862671D01*
X200137724Y-78862675D01*
X200436044Y-78980787D01*
X200746833Y-79060584D01*
X200746842Y-79060586D01*
X201065156Y-79100799D01*
X201065170Y-79100800D01*
X201386030Y-79100800D01*
X201386043Y-79100799D01*
X201704357Y-79060586D01*
X201704366Y-79060584D01*
X202015155Y-78980787D01*
X202313475Y-78862675D01*
X202313483Y-78862671D01*
X202594653Y-78708097D01*
X202594663Y-78708090D01*
X202846422Y-78525175D01*
X202846423Y-78525175D01*
X202090945Y-77769698D01*
X202057460Y-77708375D01*
X202062444Y-77638684D01*
X202094053Y-77593942D01*
X202092850Y-77592739D01*
X202267539Y-77418050D01*
X202268911Y-77419422D01*
X202319945Y-77385435D01*
X202389805Y-77384294D01*
X202444498Y-77416145D01*
X203196825Y-78168473D01*
X203292678Y-78052606D01*
X203464598Y-77781703D01*
X203464601Y-77781697D01*
X203601215Y-77491380D01*
X203601217Y-77491375D01*
X203700369Y-77186217D01*
X203760495Y-76871028D01*
X203760496Y-76871021D01*
X203780642Y-76550805D01*
X203780642Y-76550794D01*
X203760496Y-76230578D01*
X203760495Y-76230571D01*
X203700369Y-75915382D01*
X203601217Y-75610224D01*
X203601215Y-75610219D01*
X203528411Y-75455505D01*
X205875100Y-75455505D01*
X205875101Y-77646093D01*
X205885318Y-77790827D01*
X205885318Y-77790831D01*
X205885319Y-77790834D01*
X205885320Y-77790838D01*
X205939434Y-78031114D01*
X205939435Y-78031119D01*
X205994716Y-78168473D01*
X206031395Y-78259609D01*
X206158816Y-78470389D01*
X206197484Y-78515849D01*
X206318398Y-78658001D01*
X206428590Y-78751730D01*
X206506011Y-78817584D01*
X206716791Y-78945005D01*
X206945283Y-79036965D01*
X207185566Y-79091081D01*
X207330305Y-79101300D01*
X209520894Y-79101299D01*
X209665634Y-79091081D01*
X209905917Y-79036965D01*
X210134409Y-78945005D01*
X210345189Y-78817584D01*
X210532801Y-78658001D01*
X210692384Y-78470389D01*
X210819805Y-78259609D01*
X210911765Y-78031117D01*
X210965881Y-77790834D01*
X210976100Y-77646095D01*
X210976099Y-75455506D01*
X210965881Y-75310766D01*
X210911765Y-75070483D01*
X210819805Y-74841991D01*
X210692384Y-74631211D01*
X210626530Y-74553790D01*
X210532801Y-74443598D01*
X210403254Y-74333406D01*
X210345189Y-74284016D01*
X210134409Y-74156595D01*
X210134409Y-74156594D01*
X209905918Y-74064635D01*
X209665636Y-74010519D01*
X209665629Y-74010518D01*
X209520895Y-74000300D01*
X207330306Y-74000301D01*
X207323238Y-74000800D01*
X207185572Y-74010518D01*
X207185566Y-74010518D01*
X207185566Y-74010519D01*
X207185563Y-74010519D01*
X207185561Y-74010520D01*
X206945285Y-74064634D01*
X206945280Y-74064635D01*
X206716790Y-74156595D01*
X206716785Y-74156598D01*
X206506017Y-74284012D01*
X206506007Y-74284019D01*
X206318398Y-74443598D01*
X206158819Y-74631207D01*
X206158812Y-74631217D01*
X206031398Y-74841985D01*
X206031395Y-74841990D01*
X205939435Y-75070480D01*
X205939435Y-75070482D01*
X205885319Y-75310763D01*
X205885318Y-75310770D01*
X205875100Y-75455505D01*
X203528411Y-75455505D01*
X203464601Y-75319902D01*
X203464598Y-75319896D01*
X203292673Y-75048985D01*
X203292670Y-75048981D01*
X203196825Y-74933125D01*
X202444497Y-75685454D01*
X202383174Y-75718939D01*
X202313482Y-75713955D01*
X202268736Y-75682351D01*
X202267538Y-75683550D01*
X202092850Y-75508862D01*
X202094215Y-75507496D01*
X202060221Y-75456412D01*
X202059105Y-75386551D01*
X202090944Y-75331901D01*
X202846423Y-74576423D01*
X202846422Y-74576421D01*
X202594671Y-74393514D01*
X202594653Y-74393502D01*
X202313483Y-74238928D01*
X202313475Y-74238924D01*
X202015155Y-74120812D01*
X201704366Y-74041015D01*
X201704357Y-74041013D01*
X201386043Y-74000800D01*
X201065156Y-74000800D01*
X200746842Y-74041013D01*
X200746833Y-74041015D01*
X200436044Y-74120812D01*
X200137724Y-74238924D01*
X200137716Y-74238928D01*
X199856546Y-74393502D01*
X199856528Y-74393514D01*
X199604776Y-74576422D01*
X199604775Y-74576423D01*
X200360254Y-75331901D01*
X200393739Y-75393224D01*
X200388755Y-75462915D01*
X200357162Y-75507674D01*
X200358350Y-75508862D01*
X200183662Y-75683550D01*
X200182304Y-75682192D01*
X200131151Y-75716196D01*
X200061289Y-75717276D01*
X200006701Y-75685454D01*
X199254373Y-74933125D01*
X199254372Y-74933125D01*
X199158528Y-75048982D01*
X199158526Y-75048985D01*
X198986601Y-75319896D01*
X198986598Y-75319902D01*
X198849984Y-75610219D01*
X198849982Y-75610224D01*
X198750830Y-75915382D01*
X198690704Y-76230571D01*
X198690703Y-76230578D01*
X198670558Y-76550794D01*
X198670558Y-76550805D01*
X174244500Y-76550805D01*
X174244500Y-74600000D01*
X191494540Y-74600000D01*
X191514326Y-74788256D01*
X191514327Y-74788259D01*
X191572818Y-74968277D01*
X191572821Y-74968284D01*
X191667467Y-75132216D01*
X191743115Y-75216231D01*
X191794129Y-75272888D01*
X191947265Y-75384148D01*
X191947270Y-75384151D01*
X192120192Y-75461142D01*
X192120197Y-75461144D01*
X192305354Y-75500500D01*
X192305355Y-75500500D01*
X192494644Y-75500500D01*
X192494646Y-75500500D01*
X192679803Y-75461144D01*
X192852730Y-75384151D01*
X193005871Y-75272888D01*
X193132533Y-75132216D01*
X193227179Y-74968284D01*
X193285674Y-74788256D01*
X193305460Y-74600000D01*
X193285674Y-74411744D01*
X193227179Y-74231716D01*
X193132533Y-74067784D01*
X193070230Y-73998590D01*
X193045715Y-73947506D01*
X193025377Y-73941953D01*
X193007447Y-73928531D01*
X193005870Y-73927111D01*
X192852734Y-73815851D01*
X192852729Y-73815848D01*
X192679807Y-73738857D01*
X192679802Y-73738855D01*
X192534001Y-73707865D01*
X192494646Y-73699500D01*
X192305354Y-73699500D01*
X192272897Y-73706398D01*
X192120197Y-73738855D01*
X192120192Y-73738857D01*
X191947270Y-73815848D01*
X191947265Y-73815851D01*
X191794129Y-73927111D01*
X191667466Y-74067785D01*
X191572821Y-74231715D01*
X191572818Y-74231722D01*
X191520253Y-74393502D01*
X191514326Y-74411744D01*
X191494540Y-74600000D01*
X174244500Y-74600000D01*
X174244500Y-73152000D01*
X192947340Y-73152000D01*
X192967126Y-73340256D01*
X192967127Y-73340259D01*
X193025618Y-73520277D01*
X193025621Y-73520284D01*
X193120267Y-73684216D01*
X193169465Y-73738856D01*
X193182568Y-73753408D01*
X193207083Y-73804492D01*
X193227422Y-73810046D01*
X193245352Y-73823468D01*
X193246930Y-73824889D01*
X193400065Y-73936148D01*
X193400070Y-73936151D01*
X193572992Y-74013142D01*
X193572997Y-74013144D01*
X193758154Y-74052500D01*
X193758155Y-74052500D01*
X193947444Y-74052500D01*
X193947446Y-74052500D01*
X194132603Y-74013144D01*
X194305530Y-73936151D01*
X194458671Y-73824888D01*
X194585333Y-73684216D01*
X194679979Y-73520284D01*
X194738474Y-73340256D01*
X194758260Y-73152000D01*
X194738474Y-72963744D01*
X194679979Y-72783716D01*
X194585333Y-72619784D01*
X194458671Y-72479112D01*
X194458670Y-72479111D01*
X194305534Y-72367851D01*
X194305529Y-72367848D01*
X194132607Y-72290857D01*
X194132602Y-72290855D01*
X193986800Y-72259865D01*
X193947446Y-72251500D01*
X193758154Y-72251500D01*
X193725697Y-72258398D01*
X193572997Y-72290855D01*
X193572992Y-72290857D01*
X193400070Y-72367848D01*
X193400065Y-72367851D01*
X193246929Y-72479111D01*
X193120266Y-72619785D01*
X193025621Y-72783715D01*
X193025618Y-72783722D01*
X192967127Y-72963740D01*
X192967126Y-72963744D01*
X192947340Y-73152000D01*
X174244500Y-73152000D01*
X174244500Y-71598670D01*
X197125100Y-71598670D01*
X197125101Y-71598676D01*
X197131508Y-71658283D01*
X197181802Y-71793128D01*
X197181806Y-71793135D01*
X197268052Y-71908344D01*
X197268055Y-71908347D01*
X197383264Y-71994593D01*
X197383271Y-71994597D01*
X197518117Y-72044891D01*
X197518116Y-72044891D01*
X197525044Y-72045635D01*
X197577727Y-72051300D01*
X198573472Y-72051299D01*
X198633083Y-72044891D01*
X198767931Y-71994596D01*
X198883146Y-71908346D01*
X198969396Y-71793131D01*
X199019691Y-71658283D01*
X199026100Y-71598673D01*
X199026100Y-71598670D01*
X210625100Y-71598670D01*
X210625101Y-71598676D01*
X210631508Y-71658283D01*
X210681802Y-71793128D01*
X210681806Y-71793135D01*
X210768052Y-71908344D01*
X210768055Y-71908347D01*
X210883264Y-71994593D01*
X210883271Y-71994597D01*
X211018117Y-72044891D01*
X211018116Y-72044891D01*
X211025044Y-72045635D01*
X211077727Y-72051300D01*
X212073472Y-72051299D01*
X212133083Y-72044891D01*
X212267931Y-71994596D01*
X212383146Y-71908346D01*
X212469396Y-71793131D01*
X212519691Y-71658283D01*
X212526100Y-71598673D01*
X212526099Y-69502928D01*
X212519691Y-69443317D01*
X212469396Y-69308469D01*
X212469395Y-69308468D01*
X212469393Y-69308464D01*
X212383147Y-69193255D01*
X212383144Y-69193252D01*
X212267935Y-69107006D01*
X212267928Y-69107002D01*
X212133082Y-69056708D01*
X212133083Y-69056708D01*
X212073483Y-69050301D01*
X212073481Y-69050300D01*
X212073473Y-69050300D01*
X212073464Y-69050300D01*
X211077729Y-69050300D01*
X211077723Y-69050301D01*
X211018116Y-69056708D01*
X210883271Y-69107002D01*
X210883264Y-69107006D01*
X210768055Y-69193252D01*
X210768052Y-69193255D01*
X210681806Y-69308464D01*
X210681802Y-69308471D01*
X210631508Y-69443317D01*
X210625101Y-69502916D01*
X210625101Y-69502923D01*
X210625100Y-69502935D01*
X210625100Y-71598670D01*
X199026100Y-71598670D01*
X199026099Y-69502928D01*
X199019691Y-69443317D01*
X198969396Y-69308469D01*
X198969395Y-69308468D01*
X198969393Y-69308464D01*
X198883147Y-69193255D01*
X198883144Y-69193252D01*
X198767935Y-69107006D01*
X198767928Y-69107002D01*
X198633082Y-69056708D01*
X198633083Y-69056708D01*
X198573483Y-69050301D01*
X198573481Y-69050300D01*
X198573473Y-69050300D01*
X198573464Y-69050300D01*
X197577729Y-69050300D01*
X197577723Y-69050301D01*
X197518116Y-69056708D01*
X197383271Y-69107002D01*
X197383264Y-69107006D01*
X197268055Y-69193252D01*
X197268052Y-69193255D01*
X197181806Y-69308464D01*
X197181802Y-69308471D01*
X197131508Y-69443317D01*
X197125101Y-69502916D01*
X197125101Y-69502923D01*
X197125100Y-69502935D01*
X197125100Y-71598670D01*
X174244500Y-71598670D01*
X174244500Y-69307743D01*
X189441099Y-69307743D01*
X189441100Y-69307744D01*
X189441100Y-69477856D01*
X189461454Y-69560440D01*
X189481810Y-69643026D01*
X189560863Y-69793649D01*
X189560866Y-69793652D01*
X189673671Y-69920983D01*
X189763918Y-69983276D01*
X189813668Y-70017617D01*
X189813669Y-70017617D01*
X189813670Y-70017618D01*
X189972728Y-70077940D01*
X190048628Y-70087156D01*
X190099226Y-70093300D01*
X190099228Y-70093300D01*
X190183974Y-70093300D01*
X190226138Y-70088180D01*
X190310472Y-70077940D01*
X190469530Y-70017618D01*
X190609529Y-69920983D01*
X190722334Y-69793652D01*
X190801390Y-69643025D01*
X190842100Y-69477856D01*
X192441100Y-69477856D01*
X192461455Y-69560440D01*
X192481810Y-69643026D01*
X192560863Y-69793649D01*
X192560866Y-69793652D01*
X192673671Y-69920983D01*
X192763918Y-69983276D01*
X192813668Y-70017617D01*
X192813669Y-70017617D01*
X192813670Y-70017618D01*
X192972728Y-70077940D01*
X193048628Y-70087156D01*
X193099226Y-70093300D01*
X193099228Y-70093300D01*
X193183974Y-70093300D01*
X193226138Y-70088180D01*
X193310472Y-70077940D01*
X193469530Y-70017618D01*
X193609529Y-69920983D01*
X193722334Y-69793652D01*
X193801390Y-69643025D01*
X193842100Y-69477856D01*
X193842100Y-69307744D01*
X193801390Y-69142575D01*
X193756324Y-69056709D01*
X193722336Y-68991950D01*
X193703160Y-68970305D01*
X193609529Y-68864617D01*
X193559777Y-68830275D01*
X193469531Y-68767982D01*
X193310474Y-68707660D01*
X193310468Y-68707659D01*
X193183974Y-68692300D01*
X193183972Y-68692300D01*
X193099228Y-68692300D01*
X193099226Y-68692300D01*
X192972731Y-68707659D01*
X192972725Y-68707660D01*
X192813668Y-68767982D01*
X192673672Y-68864616D01*
X192560863Y-68991950D01*
X192481810Y-69142573D01*
X192441100Y-69307743D01*
X192441100Y-69307744D01*
X192441100Y-69477856D01*
X190842100Y-69477856D01*
X190842100Y-69307744D01*
X190801390Y-69142575D01*
X190756324Y-69056709D01*
X190722336Y-68991950D01*
X190703160Y-68970305D01*
X190609529Y-68864617D01*
X190559777Y-68830275D01*
X190469531Y-68767982D01*
X190310474Y-68707660D01*
X190310468Y-68707659D01*
X190183974Y-68692300D01*
X190183972Y-68692300D01*
X190099228Y-68692300D01*
X190099226Y-68692300D01*
X189972731Y-68707659D01*
X189972725Y-68707660D01*
X189813668Y-68767982D01*
X189673672Y-68864616D01*
X189560863Y-68991950D01*
X189481810Y-69142573D01*
X189441099Y-69307743D01*
X174244500Y-69307743D01*
X174244500Y-67993300D01*
X174264185Y-67926261D01*
X174316989Y-67880506D01*
X174368500Y-67869300D01*
X240667500Y-67869300D01*
X240734539Y-67888985D01*
G37*
%TD.AperFunction*%
%TD*%
M02*
