M48
; DRILL file {KiCad 7.0.7} date Thu Sep 12 14:34:42 2024
; FORMAT={-:-/ absolute / metric / decimal}
; #@! TF.CreationDate,2024-09-12T14:34:42-05:00
; #@! TF.GenerationSoftware,Kicad,Pcbnew,7.0.7
; #@! TF.FileFunction,MixedPlating,1,4
FMAT,2
METRIC
; #@! TA.AperFunction,Plated,PTH,ViaDrill
T1C0.400
; #@! TA.AperFunction,Plated,PTH,ComponentDrill
T2C0.600
; #@! TA.AperFunction,Plated,PTH,ComponentDrill
T3C1.000
; #@! TA.AperFunction,Plated,PTH,ComponentDrill
T4C1.800
; #@! TA.AperFunction,Plated,PTH,ComponentDrill
T5C1.900
; #@! TA.AperFunction,Plated,PTH,ComponentDrill
T6C2.700
; #@! TA.AperFunction,NonPlated,NPTH,ComponentDrill
T7C0.900
%
G90
G05
T1
X176.5Y-97.9
X176.5Y-107.2
X178.6Y-104.9
X178.7Y-99.8
X179.6Y-102.9
X179.7Y-99.0
X179.8Y-104.7
X181.0Y-105.9
X182.0Y-107.4
X182.0Y-109.2
X183.2Y-106.1
X183.2Y-110.3
X183.861Y-100.939
X184.7Y-105.9
X184.7Y-110.3
X185.7Y-99.1
X186.0Y-107.4
X186.0Y-109.2
X186.1Y-105.2
X186.21Y-104.207
X187.4Y-96.8
X188.1Y-111.6
X188.8Y-97.0
X189.2Y-99.2
X189.29Y-104.207
X189.382Y-72.949
X189.4Y-105.2
X189.5Y-94.2
X189.7Y-113.0
X189.972Y-107.0
X190.9Y-102.4
X191.2Y-94.1
X191.4Y-113.1
X192.4Y-74.6
X192.6Y-112.3
X193.853Y-73.152
X195.275Y-103.632
X195.3Y-105.3
X195.478Y-128.219
X195.7Y-100.5
X196.901Y-129.642
X198.3Y-113.7
X199.6Y-109.0
X199.6Y-110.7
X200.8Y-100.7
X201.8Y-80.8
X201.879Y-118.567
X202.1Y-101.4
X202.9Y-84.0
X202.997Y-90.424
X203.6Y-97.3
X203.6Y-101.4
X205.1Y-90.7
X206.248Y-105.054
X209.093Y-89.814
X209.1Y-85.6
X209.499Y-99.568
X209.5Y-97.4
X209.6Y-101.3
X209.6Y-113.4
X209.7Y-116.4
X209.702Y-115.214
X210.0Y-108.0
X210.5Y-89.7
X211.9Y-89.7
X212.9Y-106.9
X214.2Y-108.0
X215.8Y-81.5
X216.408Y-102.616
X216.5Y-79.3
X216.7Y-89.8
X216.8Y-128.0
X216.814Y-119.888
X217.0Y-108.9
X217.0Y-123.5
X218.0Y-129.2
X218.8Y-99.1
X219.0Y-116.0
X219.4Y-96.6
X219.4Y-97.6
X219.7Y-129.1
X220.5Y-96.6
X220.5Y-97.6
X220.8Y-114.4
X220.8Y-115.4
X221.0Y-128.1
X221.6Y-96.6
X221.6Y-97.6
X221.9Y-114.4
X221.9Y-115.4
X222.4Y-85.3
X222.4Y-86.4
X222.4Y-87.5
X222.9Y-114.4
X222.9Y-115.4
X223.4Y-85.3
X223.4Y-86.4
X223.4Y-87.5
X224.4Y-77.5
X225.0Y-85.0
X225.0Y-86.1
X225.3Y-112.9
X225.3Y-114.0
X225.5Y-76.5
X226.2Y-85.0
X226.2Y-86.1
X226.5Y-112.9
X226.5Y-114.0
X227.3Y-85.0
X227.3Y-86.1
X227.6Y-112.9
X227.6Y-114.0
X228.5Y-85.0
X228.5Y-86.1
X228.8Y-112.9
X228.8Y-114.0
X229.6Y-103.1
X229.6Y-104.2
X229.6Y-105.3
X230.6Y-125.7
X230.6Y-126.9
X230.6Y-128.0
X230.6Y-129.2
X231.7Y-125.7
X231.7Y-126.9
X231.7Y-128.0
X231.7Y-129.2
X235.3Y-103.1
X235.3Y-104.2
X235.3Y-105.2
X237.0Y-103.1
X237.0Y-104.2
X237.0Y-105.2
X238.3Y-103.1
X238.3Y-104.2
X238.3Y-105.2
X240.0Y-103.1
X240.0Y-104.2
X240.0Y-105.2
T3
X176.479Y-99.786
X176.479Y-102.326
X176.479Y-104.866
X196.864Y-128.166
X197.307Y-80.975
X197.307Y-83.515
X197.307Y-86.055
X197.307Y-88.595
X199.364Y-128.166
X201.864Y-128.166
X237.435Y-97.742
X237.435Y-110.742
T5
X232.435Y-100.742
X232.435Y-104.242
X232.435Y-107.742
T6
X201.226Y-76.551
X208.426Y-76.551
T7
X190.142Y-69.393
X193.142Y-69.393
T2
X198.076Y-70.001G85X198.076Y-71.101
G05
X211.576Y-70.001G85X211.576Y-71.101
G05
T4
X194.364Y-124.716G85X194.364Y-125.016
G05
X204.364Y-124.716G85X204.364Y-125.016
G05
T0
M30
