%TF.GenerationSoftware,KiCad,Pcbnew,8.0.6*%
%TF.CreationDate,2025-01-05T16:59:03-06:00*%
%TF.ProjectId,wien + distortion,7769656e-202b-4206-9469-73746f727469,rev?*%
%TF.SameCoordinates,Original*%
%TF.FileFunction,Copper,L2,Bot*%
%TF.FilePolarity,Positive*%
%FSLAX46Y46*%
G04 Gerber Fmt 4.6, Leading zero omitted, Abs format (unit mm)*
G04 Created by KiCad (PCBNEW 8.0.6) date 2025-01-05 16:59:03*
%MOMM*%
%LPD*%
G01*
G04 APERTURE LIST*
%TA.AperFunction,ComponentPad*%
%ADD10R,1.700000X1.700000*%
%TD*%
%TA.AperFunction,ComponentPad*%
%ADD11O,1.700000X1.700000*%
%TD*%
%TA.AperFunction,ComponentPad*%
%ADD12R,1.600000X2.400000*%
%TD*%
%TA.AperFunction,ComponentPad*%
%ADD13O,1.600000X2.400000*%
%TD*%
%TA.AperFunction,ViaPad*%
%ADD14C,0.600000*%
%TD*%
%TA.AperFunction,Conductor*%
%ADD15C,0.200000*%
%TD*%
G04 APERTURE END LIST*
D10*
%TO.P,J2,1,Pin_1*%
%TO.N,GND*%
X80280000Y-89195000D03*
D11*
%TO.P,J2,2,Pin_2*%
%TO.N,Net-(J2-Pin_2)*%
X80280000Y-86655000D03*
%TD*%
D10*
%TO.P,RV2,1,1*%
%TO.N,Net-(D1-K)*%
X61275000Y-79000000D03*
D11*
%TO.P,RV2,2,2*%
%TO.N,Net-(J2-Pin_2)*%
X63815000Y-79000000D03*
%TO.P,RV2,3,3*%
%TO.N,GND*%
X66355000Y-79000000D03*
%TD*%
D10*
%TO.P,RV5,1,1*%
%TO.N,Net-(C8-Pad1)*%
X70015000Y-79000000D03*
D11*
%TO.P,RV5,2,2*%
X72555000Y-79000000D03*
%TO.P,RV5,3,3*%
%TO.N,Net-(R13-Pad2)*%
X75095000Y-79000000D03*
%TD*%
D10*
%TO.P,J6,1,Pin_1*%
%TO.N,GND*%
X83420000Y-77500000D03*
D11*
%TO.P,J6,2,Pin_2*%
X85960000Y-77500000D03*
%TO.P,J6,3,Pin_3*%
X88500000Y-77500000D03*
%TD*%
D10*
%TO.P,BT1,1,+*%
%TO.N,Net-(BT1-+)*%
X91350000Y-86645000D03*
D11*
%TO.P,BT1,2,-*%
%TO.N,GND*%
X91350000Y-89185000D03*
%TD*%
D10*
%TO.P,RV1,1,1*%
%TO.N,Net-(R1-Pad2)*%
X61275000Y-82700000D03*
D11*
%TO.P,RV1,2,2*%
X63815000Y-82700000D03*
%TO.P,RV1,3,3*%
%TO.N,Net-(D1-K)*%
X66355000Y-82700000D03*
%TD*%
D10*
%TO.P,J1,1,Pin_1*%
%TO.N,Net-(J1-Pin_1)*%
X60000000Y-95660000D03*
D11*
%TO.P,J1,2,Pin_2*%
%TO.N,GND*%
X60000000Y-98200000D03*
%TD*%
D12*
%TO.P,U1,1*%
%TO.N,Net-(C2-Pad1)*%
X71040000Y-93945000D03*
D13*
%TO.P,U1,2,-*%
%TO.N,Net-(U1A--)*%
X68500000Y-93945000D03*
%TO.P,U1,3,+*%
%TO.N,BiasVoltage*%
X65960000Y-93945000D03*
%TO.P,U1,4,V-*%
%TO.N,GND*%
X63420000Y-93945000D03*
%TO.P,U1,5,+*%
%TO.N,Net-(U1B-+)*%
X63420000Y-101565000D03*
%TO.P,U1,6,-*%
%TO.N,Net-(D3-K)*%
X65960000Y-101565000D03*
%TO.P,U1,7*%
%TO.N,Net-(C5-Pad1)*%
X68500000Y-101565000D03*
%TO.P,U1,8,V+*%
%TO.N,+9V*%
X71040000Y-101565000D03*
%TD*%
D10*
%TO.P,DualPot1,1,1*%
%TO.N,Net-(DualPot1-Pad1)*%
X70030000Y-82700000D03*
D11*
%TO.P,DualPot1,2,2*%
X72570000Y-82700000D03*
%TO.P,DualPot1,3,3*%
%TO.N,BiasVoltage*%
X75110000Y-82700000D03*
%TD*%
D12*
%TO.P,U2,1*%
%TO.N,Net-(C8-Pad1)*%
X79700000Y-101595000D03*
D13*
%TO.P,U2,2,-*%
%TO.N,Net-(U2A--)*%
X82240000Y-101595000D03*
%TO.P,U2,3,+*%
%TO.N,BiasVoltage*%
X84780000Y-101595000D03*
%TO.P,U2,4,V-*%
%TO.N,GND*%
X87320000Y-101595000D03*
%TO.P,U2,5,+*%
%TO.N,Net-(U2B-+)*%
X87320000Y-93975000D03*
%TO.P,U2,6,-*%
%TO.N,BiasVoltage*%
X84780000Y-93975000D03*
%TO.P,U2,7*%
X82240000Y-93975000D03*
%TO.P,U2,8,V+*%
%TO.N,+9V*%
X79700000Y-93975000D03*
%TD*%
D10*
%TO.P,J5,1,Pin_1*%
%TO.N,GND*%
X83980000Y-89195000D03*
D11*
%TO.P,J5,2,Pin_2*%
%TO.N,Net-(J5-Pin_2)*%
X83980000Y-86655000D03*
%TD*%
D10*
%TO.P,RV4,1,1*%
%TO.N,Net-(R8-Pad2)*%
X70015000Y-86400000D03*
D11*
%TO.P,RV4,2,2*%
X72555000Y-86400000D03*
%TO.P,RV4,3,3*%
%TO.N,Net-(C5-Pad2)*%
X75095000Y-86400000D03*
%TD*%
D10*
%TO.P,RV3,1,1*%
%TO.N,Net-(R3-Pad2)*%
X61275000Y-86400000D03*
D11*
%TO.P,RV3,2,2*%
X63815000Y-86400000D03*
%TO.P,RV3,3,3*%
%TO.N,Net-(C2-Pad1)*%
X66355000Y-86400000D03*
%TD*%
D10*
%TO.P,J4,1,Pin_1*%
%TO.N,+9V*%
X87680000Y-89195000D03*
D11*
%TO.P,J4,2,Pin_2*%
%TO.N,Net-(BT1-+)*%
X87680000Y-86655000D03*
%TD*%
D14*
%TO.N,GND*%
X73000000Y-93750000D03*
X78750000Y-83500000D03*
X60500000Y-89500000D03*
X68500000Y-107250000D03*
X67000000Y-107250000D03*
X57250000Y-91500000D03*
X58250000Y-91500000D03*
X58250000Y-92500000D03*
X57250000Y-92500000D03*
X76500000Y-96500000D03*
X76500000Y-98500000D03*
X77500000Y-96500000D03*
X76500000Y-97500000D03*
X77500000Y-98500000D03*
X77500000Y-97500000D03*
X75800000Y-103700000D03*
X75800000Y-105700000D03*
X77800000Y-105700000D03*
X77800000Y-104700000D03*
X77800000Y-103700000D03*
X76800000Y-103700000D03*
X75800000Y-104700000D03*
X76800000Y-105700000D03*
X76800000Y-104700000D03*
X81600000Y-97000000D03*
X81600000Y-99000000D03*
X83600000Y-99000000D03*
X83600000Y-98000000D03*
X83600000Y-97000000D03*
X82600000Y-97000000D03*
X81600000Y-98000000D03*
X82600000Y-99000000D03*
X82600000Y-98000000D03*
X68500000Y-97600000D03*
X68500000Y-99600000D03*
X70500000Y-99600000D03*
X70500000Y-98600000D03*
X70500000Y-97600000D03*
X69500000Y-97600000D03*
X68500000Y-98600000D03*
X69500000Y-99600000D03*
X69500000Y-98600000D03*
%TO.N,Net-(U2A--)*%
X70400000Y-106800000D03*
%TO.N,Net-(C2-Pad1)*%
X59560000Y-90580000D03*
X61050000Y-91620000D03*
X61790000Y-93980000D03*
X67220000Y-95820000D03*
%TO.N,GND*%
X91290000Y-96240000D03*
X87240000Y-99410000D03*
X54500000Y-95500000D03*
X90500000Y-97500000D03*
X92460000Y-95030000D03*
X53500000Y-94500000D03*
X55500000Y-95500000D03*
X90500000Y-99500000D03*
X54500000Y-94500000D03*
X90750000Y-77500000D03*
X91500000Y-97500000D03*
X54500000Y-96500000D03*
X82000000Y-76000000D03*
X77400000Y-91400000D03*
X92500000Y-97500000D03*
X89700000Y-96270000D03*
X93180000Y-89490000D03*
X70900000Y-88700000D03*
X55500000Y-91500000D03*
X62620000Y-98100000D03*
X55500000Y-96500000D03*
X84000000Y-91110000D03*
X89460000Y-90260000D03*
X82500000Y-90000000D03*
X92500000Y-98500000D03*
X91500000Y-99500000D03*
X55500000Y-92500000D03*
X89500000Y-98500000D03*
X72400000Y-88700000D03*
X91500000Y-98500000D03*
X53500000Y-95500000D03*
X74400000Y-91300000D03*
X84000000Y-78750000D03*
X68140000Y-78950000D03*
X53500000Y-93500000D03*
X90500000Y-98500000D03*
X54500000Y-92500000D03*
X87300000Y-103940000D03*
X80339265Y-90990735D03*
X55500000Y-93500000D03*
X58300000Y-98220000D03*
X53500000Y-96500000D03*
X53500000Y-92500000D03*
X54500000Y-93500000D03*
X63410000Y-91860000D03*
X55500000Y-94500000D03*
X89500000Y-101560000D03*
X53500000Y-91500000D03*
X89500000Y-97500000D03*
X84000000Y-76000000D03*
X67940000Y-80210000D03*
X89500000Y-99500000D03*
X54500000Y-91500000D03*
X92500000Y-99500000D03*
%TO.N,Net-(U1B-+)*%
X78929998Y-88600000D03*
X75900000Y-93920000D03*
%TO.N,+9V*%
X82470000Y-91750000D03*
X79030000Y-91720000D03*
%TO.N,BiasVoltage*%
X74470000Y-93850000D03*
X76680000Y-87494270D03*
%TO.N,Net-(R8-Pad2)*%
X71850000Y-84650000D03*
X77540000Y-84260000D03*
%TO.N,Net-(U2A--)*%
X83350000Y-104390000D03*
%TO.N,Net-(R13-Pad2)*%
X83510000Y-106020000D03*
X83780000Y-107630000D03*
%TO.N,Net-(R3-Pad2)*%
X67740000Y-88690000D03*
X61910000Y-88430000D03*
%TD*%
D15*
%TO.N,Net-(U2A--)*%
X70400000Y-106800000D02*
X80940000Y-106800000D01*
X80940000Y-106800000D02*
X83350000Y-104390000D01*
%TO.N,Net-(C2-Pad1)*%
X61050000Y-91620000D02*
X60600000Y-91620000D01*
X67220000Y-95820000D02*
X63339365Y-95820000D01*
X61790000Y-94270635D02*
X61790000Y-93980000D01*
X63339365Y-95820000D02*
X61790000Y-94270635D01*
X60600000Y-91620000D02*
X59560000Y-90580000D01*
%TO.N,Net-(U1B-+)*%
X78929998Y-88600000D02*
X78370000Y-89159998D01*
X76890000Y-93360000D02*
X76330000Y-93920000D01*
X77470000Y-93360000D02*
X76890000Y-93360000D01*
X78370000Y-89159998D02*
X78370000Y-92460000D01*
X76330000Y-93920000D02*
X75900000Y-93920000D01*
X78370000Y-92460000D02*
X77470000Y-93360000D01*
%TO.N,+9V*%
X82470000Y-91750000D02*
X79060000Y-91750000D01*
X79060000Y-91750000D02*
X79030000Y-91720000D01*
%TO.N,BiasVoltage*%
X76680000Y-87494270D02*
X76680000Y-91640000D01*
X76680000Y-91640000D02*
X74470000Y-93850000D01*
%TO.N,Net-(R8-Pad2)*%
X72240000Y-84260000D02*
X71850000Y-84650000D01*
X77540000Y-84260000D02*
X72240000Y-84260000D01*
%TO.N,Net-(R13-Pad2)*%
X83510000Y-107360000D02*
X83780000Y-107630000D01*
X83510000Y-106020000D02*
X83510000Y-107360000D01*
%TO.N,Net-(R3-Pad2)*%
X61910000Y-88430000D02*
X67480000Y-88430000D01*
X67480000Y-88430000D02*
X67740000Y-88690000D01*
%TD*%
%TA.AperFunction,Conductor*%
%TO.N,GND*%
G36*
X85494075Y-77307007D02*
G01*
X85460000Y-77434174D01*
X85460000Y-77565826D01*
X85494075Y-77692993D01*
X85526988Y-77750000D01*
X83853012Y-77750000D01*
X83885925Y-77692993D01*
X83920000Y-77565826D01*
X83920000Y-77434174D01*
X83885925Y-77307007D01*
X83853012Y-77250000D01*
X85526988Y-77250000D01*
X85494075Y-77307007D01*
G37*
%TD.AperFunction*%
%TA.AperFunction,Conductor*%
G36*
X88034075Y-77307007D02*
G01*
X88000000Y-77434174D01*
X88000000Y-77565826D01*
X88034075Y-77692993D01*
X88066988Y-77750000D01*
X86393012Y-77750000D01*
X86425925Y-77692993D01*
X86460000Y-77565826D01*
X86460000Y-77434174D01*
X86425925Y-77307007D01*
X86393012Y-77250000D01*
X88066988Y-77250000D01*
X88034075Y-77307007D01*
G37*
%TD.AperFunction*%
%TA.AperFunction,Conductor*%
G36*
X92002702Y-75500617D02*
G01*
X92386771Y-75517386D01*
X92397506Y-75518326D01*
X92775971Y-75568152D01*
X92786597Y-75570025D01*
X93159284Y-75652648D01*
X93169710Y-75655442D01*
X93533765Y-75770227D01*
X93543911Y-75773920D01*
X93896578Y-75920000D01*
X93906369Y-75924566D01*
X94244942Y-76100816D01*
X94254310Y-76106224D01*
X94576244Y-76311318D01*
X94585105Y-76317523D01*
X94887930Y-76549889D01*
X94896217Y-76556843D01*
X95177635Y-76814715D01*
X95185284Y-76822364D01*
X95443156Y-77103782D01*
X95450110Y-77112069D01*
X95682476Y-77414894D01*
X95688681Y-77423755D01*
X95893775Y-77745689D01*
X95899183Y-77755057D01*
X96075430Y-78093623D01*
X96080002Y-78103427D01*
X96226075Y-78456078D01*
X96229775Y-78466244D01*
X96344554Y-78830278D01*
X96347354Y-78840727D01*
X96429971Y-79213389D01*
X96431849Y-79224042D01*
X96481671Y-79602473D01*
X96482614Y-79613249D01*
X96489567Y-79772498D01*
X96495351Y-79904984D01*
X96499382Y-79997297D01*
X96499500Y-80002706D01*
X96499500Y-105997293D01*
X96499382Y-106002702D01*
X96482614Y-106386750D01*
X96481671Y-106397526D01*
X96431849Y-106775957D01*
X96429971Y-106786610D01*
X96347354Y-107159272D01*
X96344554Y-107169721D01*
X96229775Y-107533755D01*
X96226075Y-107543921D01*
X96080002Y-107896572D01*
X96075430Y-107906376D01*
X95899183Y-108244942D01*
X95893775Y-108254310D01*
X95688681Y-108576244D01*
X95682476Y-108585105D01*
X95450110Y-108887930D01*
X95443156Y-108896217D01*
X95185284Y-109177635D01*
X95177635Y-109185284D01*
X94896217Y-109443156D01*
X94887930Y-109450110D01*
X94585105Y-109682476D01*
X94576244Y-109688681D01*
X94254310Y-109893775D01*
X94244942Y-109899183D01*
X93906376Y-110075430D01*
X93896572Y-110080002D01*
X93543921Y-110226075D01*
X93533755Y-110229775D01*
X93169721Y-110344554D01*
X93159272Y-110347354D01*
X92786610Y-110429971D01*
X92775957Y-110431849D01*
X92397526Y-110481671D01*
X92386750Y-110482614D01*
X92002703Y-110499382D01*
X91997294Y-110499500D01*
X57002706Y-110499500D01*
X56997297Y-110499382D01*
X56613249Y-110482614D01*
X56602473Y-110481671D01*
X56224042Y-110431849D01*
X56213389Y-110429971D01*
X55840727Y-110347354D01*
X55830278Y-110344554D01*
X55466244Y-110229775D01*
X55456078Y-110226075D01*
X55103427Y-110080002D01*
X55093623Y-110075430D01*
X54755057Y-109899183D01*
X54745689Y-109893775D01*
X54423755Y-109688681D01*
X54414894Y-109682476D01*
X54112069Y-109450110D01*
X54103782Y-109443156D01*
X53822364Y-109185284D01*
X53814715Y-109177635D01*
X53556843Y-108896217D01*
X53549889Y-108887930D01*
X53317523Y-108585105D01*
X53311318Y-108576244D01*
X53106224Y-108254310D01*
X53100816Y-108244942D01*
X52924569Y-107906376D01*
X52919997Y-107896572D01*
X52883827Y-107809249D01*
X52773920Y-107543911D01*
X52770224Y-107533755D01*
X52655442Y-107169710D01*
X52652648Y-107159284D01*
X52572995Y-106799996D01*
X69594435Y-106799996D01*
X69594435Y-106800003D01*
X69614630Y-106979249D01*
X69614631Y-106979254D01*
X69674211Y-107149523D01*
X69756524Y-107280522D01*
X69770184Y-107302262D01*
X69897738Y-107429816D01*
X70050478Y-107525789D01*
X70179209Y-107570834D01*
X70220745Y-107585368D01*
X70220750Y-107585369D01*
X70399996Y-107605565D01*
X70400000Y-107605565D01*
X70400004Y-107605565D01*
X70579249Y-107585369D01*
X70579252Y-107585368D01*
X70579255Y-107585368D01*
X70749522Y-107525789D01*
X70902262Y-107429816D01*
X70902267Y-107429810D01*
X70905097Y-107427555D01*
X70907275Y-107426665D01*
X70908158Y-107426111D01*
X70908255Y-107426265D01*
X70969783Y-107401145D01*
X70982412Y-107400500D01*
X80853331Y-107400500D01*
X80853347Y-107400501D01*
X80860943Y-107400501D01*
X81019054Y-107400501D01*
X81019057Y-107400501D01*
X81171785Y-107359577D01*
X81230847Y-107325477D01*
X81308716Y-107280520D01*
X81420520Y-107168716D01*
X81420520Y-107168714D01*
X81430724Y-107158511D01*
X81430727Y-107158506D01*
X82508673Y-106080560D01*
X82569995Y-106047077D01*
X82639687Y-106052061D01*
X82695620Y-106093933D01*
X82719573Y-106154360D01*
X82724630Y-106199249D01*
X82724631Y-106199254D01*
X82784211Y-106369523D01*
X82880185Y-106522263D01*
X82882445Y-106525097D01*
X82883334Y-106527275D01*
X82883889Y-106528158D01*
X82883734Y-106528255D01*
X82908855Y-106589783D01*
X82909500Y-106602412D01*
X82909500Y-107273330D01*
X82909499Y-107273348D01*
X82909499Y-107439054D01*
X82909498Y-107439054D01*
X82950423Y-107591785D01*
X82958379Y-107605565D01*
X82958384Y-107605575D01*
X82961975Y-107611796D01*
X82977803Y-107659903D01*
X82994630Y-107809249D01*
X83054210Y-107979521D01*
X83150184Y-108132262D01*
X83277738Y-108259816D01*
X83430478Y-108355789D01*
X83600745Y-108415368D01*
X83600750Y-108415369D01*
X83779996Y-108435565D01*
X83780000Y-108435565D01*
X83780004Y-108435565D01*
X83959249Y-108415369D01*
X83959252Y-108415368D01*
X83959255Y-108415368D01*
X84129522Y-108355789D01*
X84282262Y-108259816D01*
X84409816Y-108132262D01*
X84505789Y-107979522D01*
X84565368Y-107809255D01*
X84585565Y-107630000D01*
X84581259Y-107591785D01*
X84565369Y-107450750D01*
X84565368Y-107450745D01*
X84547787Y-107400501D01*
X84505789Y-107280478D01*
X84409816Y-107127738D01*
X84282262Y-107000184D01*
X84168528Y-106928720D01*
X84122237Y-106876385D01*
X84110500Y-106823726D01*
X84110500Y-106602412D01*
X84130185Y-106535373D01*
X84137555Y-106525097D01*
X84139810Y-106522267D01*
X84139816Y-106522262D01*
X84235789Y-106369522D01*
X84295368Y-106199255D01*
X84295660Y-106196666D01*
X84315565Y-106020003D01*
X84315565Y-106019996D01*
X84295369Y-105840750D01*
X84295368Y-105840745D01*
X84235788Y-105670476D01*
X84139815Y-105517737D01*
X84012262Y-105390184D01*
X83859519Y-105294209D01*
X83817404Y-105279472D01*
X83760628Y-105238750D01*
X83734881Y-105173798D01*
X83748338Y-105105236D01*
X83792387Y-105057437D01*
X83852262Y-105019816D01*
X83979816Y-104892262D01*
X84075789Y-104739522D01*
X84135368Y-104569255D01*
X84155565Y-104390000D01*
X84152419Y-104362081D01*
X84135369Y-104210750D01*
X84135368Y-104210745D01*
X84075788Y-104040476D01*
X83979815Y-103887737D01*
X83852262Y-103760184D01*
X83699523Y-103664211D01*
X83529254Y-103604631D01*
X83529249Y-103604630D01*
X83350004Y-103584435D01*
X83349996Y-103584435D01*
X83170750Y-103604630D01*
X83170745Y-103604631D01*
X83000476Y-103664211D01*
X82847737Y-103760184D01*
X82720184Y-103887737D01*
X82624210Y-104040478D01*
X82564630Y-104210750D01*
X82554837Y-104297667D01*
X82527770Y-104362081D01*
X82519298Y-104371464D01*
X80727584Y-106163181D01*
X80666261Y-106196666D01*
X80639903Y-106199500D01*
X70982412Y-106199500D01*
X70915373Y-106179815D01*
X70905097Y-106172445D01*
X70902263Y-106170185D01*
X70902262Y-106170184D01*
X70845496Y-106134515D01*
X70749523Y-106074211D01*
X70579254Y-106014631D01*
X70579249Y-106014630D01*
X70400004Y-105994435D01*
X70399996Y-105994435D01*
X70220750Y-106014630D01*
X70220745Y-106014631D01*
X70050476Y-106074211D01*
X69897737Y-106170184D01*
X69770184Y-106297737D01*
X69674211Y-106450476D01*
X69614631Y-106620745D01*
X69614630Y-106620750D01*
X69594435Y-106799996D01*
X52572995Y-106799996D01*
X52570025Y-106786597D01*
X52568152Y-106775971D01*
X52518326Y-106397506D01*
X52517386Y-106386771D01*
X52500618Y-106002702D01*
X52500500Y-105997293D01*
X52500500Y-101062648D01*
X62119500Y-101062648D01*
X62119500Y-102067351D01*
X62151522Y-102269534D01*
X62214781Y-102464223D01*
X62307715Y-102646613D01*
X62428028Y-102812213D01*
X62572786Y-102956971D01*
X62683400Y-103037335D01*
X62738390Y-103077287D01*
X62854607Y-103136503D01*
X62920776Y-103170218D01*
X62920778Y-103170218D01*
X62920781Y-103170220D01*
X63025137Y-103204127D01*
X63115465Y-103233477D01*
X63216557Y-103249488D01*
X63317648Y-103265500D01*
X63317649Y-103265500D01*
X63522351Y-103265500D01*
X63522352Y-103265500D01*
X63724534Y-103233477D01*
X63919219Y-103170220D01*
X64101610Y-103077287D01*
X64194590Y-103009732D01*
X64267213Y-102956971D01*
X64267215Y-102956968D01*
X64267219Y-102956966D01*
X64411966Y-102812219D01*
X64411968Y-102812215D01*
X64411971Y-102812213D01*
X64532284Y-102646614D01*
X64532285Y-102646613D01*
X64532287Y-102646610D01*
X64579516Y-102553917D01*
X64627489Y-102503123D01*
X64695310Y-102486328D01*
X64761445Y-102508865D01*
X64800483Y-102553917D01*
X64844348Y-102640006D01*
X64847715Y-102646614D01*
X64968028Y-102812213D01*
X65112786Y-102956971D01*
X65223400Y-103037335D01*
X65278390Y-103077287D01*
X65394607Y-103136503D01*
X65460776Y-103170218D01*
X65460778Y-103170218D01*
X65460781Y-103170220D01*
X65565137Y-103204127D01*
X65655465Y-103233477D01*
X65756557Y-103249488D01*
X65857648Y-103265500D01*
X65857649Y-103265500D01*
X66062351Y-103265500D01*
X66062352Y-103265500D01*
X66264534Y-103233477D01*
X66459219Y-103170220D01*
X66641610Y-103077287D01*
X66734590Y-103009732D01*
X66807213Y-102956971D01*
X66807215Y-102956968D01*
X66807219Y-102956966D01*
X66951966Y-102812219D01*
X66951968Y-102812215D01*
X66951971Y-102812213D01*
X67072284Y-102646614D01*
X67072285Y-102646613D01*
X67072287Y-102646610D01*
X67119516Y-102553917D01*
X67167489Y-102503123D01*
X67235310Y-102486328D01*
X67301445Y-102508865D01*
X67340483Y-102553917D01*
X67384348Y-102640006D01*
X67387715Y-102646614D01*
X67508028Y-102812213D01*
X67652786Y-102956971D01*
X67763400Y-103037335D01*
X67818390Y-103077287D01*
X67934607Y-103136503D01*
X68000776Y-103170218D01*
X68000778Y-103170218D01*
X68000781Y-103170220D01*
X68105137Y-103204127D01*
X68195465Y-103233477D01*
X68296557Y-103249488D01*
X68397648Y-103265500D01*
X68397649Y-103265500D01*
X68602351Y-103265500D01*
X68602352Y-103265500D01*
X68804534Y-103233477D01*
X68999219Y-103170220D01*
X69181610Y-103077287D01*
X69274590Y-103009732D01*
X69347213Y-102956971D01*
X69347215Y-102956968D01*
X69347219Y-102956966D01*
X69491966Y-102812219D01*
X69491968Y-102812215D01*
X69491971Y-102812213D01*
X69612284Y-102646614D01*
X69612285Y-102646613D01*
X69612287Y-102646610D01*
X69659516Y-102553917D01*
X69707489Y-102503123D01*
X69775310Y-102486328D01*
X69841445Y-102508865D01*
X69880483Y-102553917D01*
X69924348Y-102640006D01*
X69927715Y-102646614D01*
X70048028Y-102812213D01*
X70192786Y-102956971D01*
X70303400Y-103037335D01*
X70358390Y-103077287D01*
X70474607Y-103136503D01*
X70540776Y-103170218D01*
X70540778Y-103170218D01*
X70540781Y-103170220D01*
X70645137Y-103204127D01*
X70735465Y-103233477D01*
X70836557Y-103249488D01*
X70937648Y-103265500D01*
X70937649Y-103265500D01*
X71142351Y-103265500D01*
X71142352Y-103265500D01*
X71344534Y-103233477D01*
X71539219Y-103170220D01*
X71721610Y-103077287D01*
X71814590Y-103009732D01*
X71887213Y-102956971D01*
X71887215Y-102956968D01*
X71887219Y-102956966D01*
X72031966Y-102812219D01*
X72031968Y-102812215D01*
X72031971Y-102812213D01*
X72084732Y-102739590D01*
X72152287Y-102646610D01*
X72245220Y-102464219D01*
X72308477Y-102269534D01*
X72340500Y-102067352D01*
X72340500Y-101062648D01*
X72308477Y-100860466D01*
X72245220Y-100665781D01*
X72245218Y-100665778D01*
X72245218Y-100665776D01*
X72167705Y-100513650D01*
X72152287Y-100483390D01*
X72091780Y-100400108D01*
X72053294Y-100347135D01*
X78399500Y-100347135D01*
X78399500Y-102842870D01*
X78399501Y-102842876D01*
X78405908Y-102902483D01*
X78456202Y-103037328D01*
X78456206Y-103037335D01*
X78542452Y-103152544D01*
X78542455Y-103152547D01*
X78657664Y-103238793D01*
X78657671Y-103238797D01*
X78792517Y-103289091D01*
X78792516Y-103289091D01*
X78799444Y-103289835D01*
X78852127Y-103295500D01*
X80547872Y-103295499D01*
X80607483Y-103289091D01*
X80742331Y-103238796D01*
X80857546Y-103152546D01*
X80943796Y-103037331D01*
X80994091Y-102902483D01*
X80998061Y-102865556D01*
X81024796Y-102801011D01*
X81082188Y-102761161D01*
X81152013Y-102758666D01*
X81212102Y-102794317D01*
X81221667Y-102805929D01*
X81248032Y-102842217D01*
X81392786Y-102986971D01*
X81517094Y-103077284D01*
X81558390Y-103107287D01*
X81647212Y-103152544D01*
X81740776Y-103200218D01*
X81740778Y-103200218D01*
X81740781Y-103200220D01*
X81843136Y-103233477D01*
X81935465Y-103263477D01*
X82036557Y-103279488D01*
X82137648Y-103295500D01*
X82137649Y-103295500D01*
X82342351Y-103295500D01*
X82342352Y-103295500D01*
X82544534Y-103263477D01*
X82739219Y-103200220D01*
X82921610Y-103107287D01*
X83017901Y-103037328D01*
X83087213Y-102986971D01*
X83087215Y-102986968D01*
X83087219Y-102986966D01*
X83231966Y-102842219D01*
X83231968Y-102842215D01*
X83231971Y-102842213D01*
X83352284Y-102676614D01*
X83352283Y-102676614D01*
X83352287Y-102676610D01*
X83399516Y-102583917D01*
X83447489Y-102533123D01*
X83515310Y-102516328D01*
X83581445Y-102538865D01*
X83620485Y-102583919D01*
X83667715Y-102676614D01*
X83788028Y-102842213D01*
X83932786Y-102986971D01*
X84057094Y-103077284D01*
X84098390Y-103107287D01*
X84187212Y-103152544D01*
X84280776Y-103200218D01*
X84280778Y-103200218D01*
X84280781Y-103200220D01*
X84383136Y-103233477D01*
X84475465Y-103263477D01*
X84576557Y-103279488D01*
X84677648Y-103295500D01*
X84677649Y-103295500D01*
X84882351Y-103295500D01*
X84882352Y-103295500D01*
X85084534Y-103263477D01*
X85279219Y-103200220D01*
X85461610Y-103107287D01*
X85557901Y-103037328D01*
X85627213Y-102986971D01*
X85627215Y-102986968D01*
X85627219Y-102986966D01*
X85771966Y-102842219D01*
X85771968Y-102842215D01*
X85771971Y-102842213D01*
X85892284Y-102676614D01*
X85892283Y-102676614D01*
X85892287Y-102676610D01*
X85939795Y-102583369D01*
X85987770Y-102532574D01*
X86055591Y-102515779D01*
X86121725Y-102538316D01*
X86160765Y-102583370D01*
X86208140Y-102676349D01*
X86328417Y-102841894D01*
X86328417Y-102841895D01*
X86473104Y-102986582D01*
X86638650Y-103106859D01*
X86820968Y-103199754D01*
X87015578Y-103262988D01*
X87070000Y-103271607D01*
X87070000Y-101910686D01*
X87074394Y-101915080D01*
X87165606Y-101967741D01*
X87267339Y-101995000D01*
X87372661Y-101995000D01*
X87474394Y-101967741D01*
X87565606Y-101915080D01*
X87570000Y-101910686D01*
X87570000Y-103271606D01*
X87624421Y-103262988D01*
X87819031Y-103199754D01*
X88001349Y-103106859D01*
X88166894Y-102986582D01*
X88166895Y-102986582D01*
X88311582Y-102841895D01*
X88311582Y-102841894D01*
X88431859Y-102676349D01*
X88524755Y-102494031D01*
X88587990Y-102299417D01*
X88620000Y-102097317D01*
X88620000Y-101845000D01*
X87635686Y-101845000D01*
X87640080Y-101840606D01*
X87692741Y-101749394D01*
X87720000Y-101647661D01*
X87720000Y-101542339D01*
X87692741Y-101440606D01*
X87640080Y-101349394D01*
X87635686Y-101345000D01*
X88620000Y-101345000D01*
X88620000Y-101092682D01*
X88587990Y-100890582D01*
X88524755Y-100695968D01*
X88431859Y-100513650D01*
X88311582Y-100348105D01*
X88311582Y-100348104D01*
X88166895Y-100203417D01*
X88001349Y-100083140D01*
X87819029Y-99990244D01*
X87624413Y-99927009D01*
X87570000Y-99918390D01*
X87570000Y-101279314D01*
X87565606Y-101274920D01*
X87474394Y-101222259D01*
X87372661Y-101195000D01*
X87267339Y-101195000D01*
X87165606Y-101222259D01*
X87074394Y-101274920D01*
X87070000Y-101279314D01*
X87070000Y-99918390D01*
X87015586Y-99927009D01*
X86820970Y-99990244D01*
X86638650Y-100083140D01*
X86473105Y-100203417D01*
X86473104Y-100203417D01*
X86328417Y-100348104D01*
X86328417Y-100348105D01*
X86208140Y-100513650D01*
X86160765Y-100606629D01*
X86112790Y-100657425D01*
X86044969Y-100674220D01*
X85978834Y-100651682D01*
X85939795Y-100606629D01*
X85892419Y-100513650D01*
X85892287Y-100513390D01*
X85870488Y-100483386D01*
X85771971Y-100347786D01*
X85627213Y-100203028D01*
X85461613Y-100082715D01*
X85461612Y-100082714D01*
X85461610Y-100082713D01*
X85402732Y-100052713D01*
X85279223Y-99989781D01*
X85084534Y-99926522D01*
X84909995Y-99898878D01*
X84882352Y-99894500D01*
X84677648Y-99894500D01*
X84653329Y-99898351D01*
X84475465Y-99926522D01*
X84280776Y-99989781D01*
X84098386Y-100082715D01*
X83932786Y-100203028D01*
X83788028Y-100347786D01*
X83667715Y-100513386D01*
X83620485Y-100606080D01*
X83572510Y-100656876D01*
X83504689Y-100673671D01*
X83438554Y-100651134D01*
X83399515Y-100606080D01*
X83352419Y-100513650D01*
X83352287Y-100513390D01*
X83330488Y-100483386D01*
X83231971Y-100347786D01*
X83087213Y-100203028D01*
X82921613Y-100082715D01*
X82921612Y-100082714D01*
X82921610Y-100082713D01*
X82862732Y-100052713D01*
X82739223Y-99989781D01*
X82544534Y-99926522D01*
X82369995Y-99898878D01*
X82342352Y-99894500D01*
X82137648Y-99894500D01*
X82113329Y-99898351D01*
X81935465Y-99926522D01*
X81740776Y-99989781D01*
X81558386Y-100082715D01*
X81392786Y-100203028D01*
X81248032Y-100347782D01*
X81221668Y-100384070D01*
X81166338Y-100426735D01*
X81096724Y-100432714D01*
X81034929Y-100400108D01*
X81000572Y-100339269D01*
X80998060Y-100324438D01*
X80997344Y-100317781D01*
X80994091Y-100287517D01*
X80951392Y-100173034D01*
X80943797Y-100152671D01*
X80943793Y-100152664D01*
X80857547Y-100037455D01*
X80857544Y-100037452D01*
X80742335Y-99951206D01*
X80742328Y-99951202D01*
X80607482Y-99900908D01*
X80607483Y-99900908D01*
X80547883Y-99894501D01*
X80547881Y-99894500D01*
X80547873Y-99894500D01*
X80547864Y-99894500D01*
X78852129Y-99894500D01*
X78852123Y-99894501D01*
X78792516Y-99900908D01*
X78657671Y-99951202D01*
X78657664Y-99951206D01*
X78542455Y-100037452D01*
X78542452Y-100037455D01*
X78456206Y-100152664D01*
X78456202Y-100152671D01*
X78405908Y-100287517D01*
X78399501Y-100347116D01*
X78399500Y-100347135D01*
X72053294Y-100347135D01*
X72031971Y-100317786D01*
X71887213Y-100173028D01*
X71721613Y-100052715D01*
X71721612Y-100052714D01*
X71721610Y-100052713D01*
X71664653Y-100023691D01*
X71539223Y-99959781D01*
X71344534Y-99896522D01*
X71169995Y-99868878D01*
X71142352Y-99864500D01*
X70937648Y-99864500D01*
X70913329Y-99868351D01*
X70735465Y-99896522D01*
X70540776Y-99959781D01*
X70358386Y-100052715D01*
X70192786Y-100173028D01*
X70048028Y-100317786D01*
X69927715Y-100483386D01*
X69880485Y-100576080D01*
X69832510Y-100626876D01*
X69764689Y-100643671D01*
X69698554Y-100621134D01*
X69659515Y-100576080D01*
X69627705Y-100513650D01*
X69612287Y-100483390D01*
X69551780Y-100400108D01*
X69491971Y-100317786D01*
X69347213Y-100173028D01*
X69181613Y-100052715D01*
X69181612Y-100052714D01*
X69181610Y-100052713D01*
X69124653Y-100023691D01*
X68999223Y-99959781D01*
X68804534Y-99896522D01*
X68629995Y-99868878D01*
X68602352Y-99864500D01*
X68397648Y-99864500D01*
X68373329Y-99868351D01*
X68195465Y-99896522D01*
X68000776Y-99959781D01*
X67818386Y-100052715D01*
X67652786Y-100173028D01*
X67508028Y-100317786D01*
X67387715Y-100483386D01*
X67340485Y-100576080D01*
X67292510Y-100626876D01*
X67224689Y-100643671D01*
X67158554Y-100621134D01*
X67119515Y-100576080D01*
X67087705Y-100513650D01*
X67072287Y-100483390D01*
X67011780Y-100400108D01*
X66951971Y-100317786D01*
X66807213Y-100173028D01*
X66641613Y-100052715D01*
X66641612Y-100052714D01*
X66641610Y-100052713D01*
X66584653Y-100023691D01*
X66459223Y-99959781D01*
X66264534Y-99896522D01*
X66089995Y-99868878D01*
X66062352Y-99864500D01*
X65857648Y-99864500D01*
X65833329Y-99868351D01*
X65655465Y-99896522D01*
X65460776Y-99959781D01*
X65278386Y-100052715D01*
X65112786Y-100173028D01*
X64968028Y-100317786D01*
X64847715Y-100483386D01*
X64800485Y-100576080D01*
X64752510Y-100626876D01*
X64684689Y-100643671D01*
X64618554Y-100621134D01*
X64579515Y-100576080D01*
X64547705Y-100513650D01*
X64532287Y-100483390D01*
X64471780Y-100400108D01*
X64411971Y-100317786D01*
X64267213Y-100173028D01*
X64101613Y-100052715D01*
X64101612Y-100052714D01*
X64101610Y-100052713D01*
X64044653Y-100023691D01*
X63919223Y-99959781D01*
X63724534Y-99896522D01*
X63549995Y-99868878D01*
X63522352Y-99864500D01*
X63317648Y-99864500D01*
X63293329Y-99868351D01*
X63115465Y-99896522D01*
X62920776Y-99959781D01*
X62738386Y-100052715D01*
X62572786Y-100173028D01*
X62428028Y-100317786D01*
X62307715Y-100483386D01*
X62214781Y-100665776D01*
X62151522Y-100860465D01*
X62119500Y-101062648D01*
X52500500Y-101062648D01*
X52500500Y-94762135D01*
X58649500Y-94762135D01*
X58649500Y-96557870D01*
X58649501Y-96557876D01*
X58655908Y-96617483D01*
X58706202Y-96752328D01*
X58706206Y-96752335D01*
X58792452Y-96867544D01*
X58792455Y-96867547D01*
X58907664Y-96953793D01*
X58907671Y-96953797D01*
X58907674Y-96953798D01*
X59039598Y-97003002D01*
X59095531Y-97044873D01*
X59119949Y-97110337D01*
X59105098Y-97178610D01*
X59083947Y-97206865D01*
X58961886Y-97328926D01*
X58826400Y-97522420D01*
X58826399Y-97522422D01*
X58726570Y-97736507D01*
X58726567Y-97736513D01*
X58669364Y-97949999D01*
X58669364Y-97950000D01*
X59566988Y-97950000D01*
X59534075Y-98007007D01*
X59500000Y-98134174D01*
X59500000Y-98265826D01*
X59534075Y-98392993D01*
X59566988Y-98450000D01*
X58669364Y-98450000D01*
X58726567Y-98663486D01*
X58726570Y-98663492D01*
X58826399Y-98877578D01*
X58961894Y-99071082D01*
X59128917Y-99238105D01*
X59322421Y-99373600D01*
X59536507Y-99473429D01*
X59536516Y-99473433D01*
X59750000Y-99530634D01*
X59750000Y-98633012D01*
X59807007Y-98665925D01*
X59934174Y-98700000D01*
X60065826Y-98700000D01*
X60192993Y-98665925D01*
X60250000Y-98633012D01*
X60250000Y-99530633D01*
X60463483Y-99473433D01*
X60463492Y-99473429D01*
X60677578Y-99373600D01*
X60871082Y-99238105D01*
X61038105Y-99071082D01*
X61173600Y-98877578D01*
X61273429Y-98663492D01*
X61273432Y-98663486D01*
X61330636Y-98450000D01*
X60433012Y-98450000D01*
X60465925Y-98392993D01*
X60500000Y-98265826D01*
X60500000Y-98134174D01*
X60465925Y-98007007D01*
X60433012Y-97950000D01*
X61330636Y-97950000D01*
X61330635Y-97949999D01*
X61273432Y-97736513D01*
X61273429Y-97736507D01*
X61173600Y-97522422D01*
X61173599Y-97522420D01*
X61038113Y-97328926D01*
X61038108Y-97328920D01*
X60916053Y-97206865D01*
X60882568Y-97145542D01*
X60887552Y-97075850D01*
X60929424Y-97019917D01*
X60960400Y-97003002D01*
X61092331Y-96953796D01*
X61207546Y-96867546D01*
X61293796Y-96752331D01*
X61344091Y-96617483D01*
X61350500Y-96557873D01*
X61350499Y-94979730D01*
X61370184Y-94912692D01*
X61422987Y-94866937D01*
X61492146Y-94856993D01*
X61555702Y-94886018D01*
X61562180Y-94892050D01*
X62854504Y-96184374D01*
X62854514Y-96184385D01*
X62858844Y-96188715D01*
X62858845Y-96188716D01*
X62970649Y-96300520D01*
X63057460Y-96350639D01*
X63057462Y-96350641D01*
X63095516Y-96372611D01*
X63107580Y-96379577D01*
X63260308Y-96420501D01*
X63260311Y-96420501D01*
X63426018Y-96420501D01*
X63426034Y-96420500D01*
X66637588Y-96420500D01*
X66704627Y-96440185D01*
X66714903Y-96447555D01*
X66717736Y-96449814D01*
X66717738Y-96449816D01*
X66870478Y-96545789D01*
X66905021Y-96557876D01*
X67040745Y-96605368D01*
X67040750Y-96605369D01*
X67219996Y-96625565D01*
X67220000Y-96625565D01*
X67220004Y-96625565D01*
X67399249Y-96605369D01*
X67399252Y-96605368D01*
X67399255Y-96605368D01*
X67569522Y-96545789D01*
X67722262Y-96449816D01*
X67849816Y-96322262D01*
X67945789Y-96169522D01*
X68005368Y-95999255D01*
X68025565Y-95820000D01*
X68016510Y-95739633D01*
X68028564Y-95670811D01*
X68075913Y-95619431D01*
X68143524Y-95601807D01*
X68178049Y-95607818D01*
X68195465Y-95613477D01*
X68233057Y-95619431D01*
X68397648Y-95645500D01*
X68397649Y-95645500D01*
X68602351Y-95645500D01*
X68602352Y-95645500D01*
X68804534Y-95613477D01*
X68999219Y-95550220D01*
X69181610Y-95457287D01*
X69277901Y-95387328D01*
X69347213Y-95336971D01*
X69347215Y-95336968D01*
X69347219Y-95336966D01*
X69491966Y-95192219D01*
X69518330Y-95155930D01*
X69573658Y-95113265D01*
X69643271Y-95107284D01*
X69705067Y-95139889D01*
X69739426Y-95200726D01*
X69741938Y-95215559D01*
X69745907Y-95252480D01*
X69796202Y-95387328D01*
X69796206Y-95387335D01*
X69882452Y-95502544D01*
X69882455Y-95502547D01*
X69997664Y-95588793D01*
X69997671Y-95588797D01*
X70132517Y-95639091D01*
X70132516Y-95639091D01*
X70139444Y-95639835D01*
X70192127Y-95645500D01*
X71887872Y-95645499D01*
X71947483Y-95639091D01*
X72082331Y-95588796D01*
X72197546Y-95502546D01*
X72283796Y-95387331D01*
X72334091Y-95252483D01*
X72340500Y-95192873D01*
X72340499Y-92697128D01*
X72334091Y-92637517D01*
X72324805Y-92612621D01*
X72283797Y-92502671D01*
X72283793Y-92502664D01*
X72197547Y-92387455D01*
X72197544Y-92387452D01*
X72082335Y-92301206D01*
X72082328Y-92301202D01*
X71947482Y-92250908D01*
X71947483Y-92250908D01*
X71887883Y-92244501D01*
X71887881Y-92244500D01*
X71887873Y-92244500D01*
X71887864Y-92244500D01*
X70192129Y-92244500D01*
X70192123Y-92244501D01*
X70132516Y-92250908D01*
X69997671Y-92301202D01*
X69997664Y-92301206D01*
X69882455Y-92387452D01*
X69882452Y-92387455D01*
X69796206Y-92502664D01*
X69796202Y-92502671D01*
X69745908Y-92637516D01*
X69741939Y-92674440D01*
X69715201Y-92738991D01*
X69657809Y-92778839D01*
X69587983Y-92781332D01*
X69527895Y-92745679D01*
X69518332Y-92734070D01*
X69491967Y-92697782D01*
X69347213Y-92553028D01*
X69181613Y-92432715D01*
X69181612Y-92432714D01*
X69181610Y-92432713D01*
X69094013Y-92388080D01*
X68999223Y-92339781D01*
X68804534Y-92276522D01*
X68621823Y-92247584D01*
X68602352Y-92244500D01*
X68397648Y-92244500D01*
X68378177Y-92247584D01*
X68195465Y-92276522D01*
X68000776Y-92339781D01*
X67818386Y-92432715D01*
X67652786Y-92553028D01*
X67508028Y-92697786D01*
X67387715Y-92863386D01*
X67340485Y-92956080D01*
X67292510Y-93006876D01*
X67224689Y-93023671D01*
X67158554Y-93001134D01*
X67119515Y-92956080D01*
X67118883Y-92954840D01*
X67072287Y-92863390D01*
X67064556Y-92852749D01*
X66951971Y-92697786D01*
X66807213Y-92553028D01*
X66641613Y-92432715D01*
X66641612Y-92432714D01*
X66641610Y-92432713D01*
X66554013Y-92388080D01*
X66459223Y-92339781D01*
X66264534Y-92276522D01*
X66081823Y-92247584D01*
X66062352Y-92244500D01*
X65857648Y-92244500D01*
X65838177Y-92247584D01*
X65655465Y-92276522D01*
X65460776Y-92339781D01*
X65278386Y-92432715D01*
X65112786Y-92553028D01*
X64968028Y-92697786D01*
X64847713Y-92863388D01*
X64800203Y-92956630D01*
X64752228Y-93007426D01*
X64684407Y-93024220D01*
X64618272Y-93001682D01*
X64579234Y-92956628D01*
X64531861Y-92863652D01*
X64411582Y-92698105D01*
X64411582Y-92698104D01*
X64266895Y-92553417D01*
X64101349Y-92433140D01*
X63919029Y-92340244D01*
X63724413Y-92277009D01*
X63670000Y-92268390D01*
X63670000Y-93629314D01*
X63665606Y-93624920D01*
X63574394Y-93572259D01*
X63472661Y-93545000D01*
X63367339Y-93545000D01*
X63265606Y-93572259D01*
X63174394Y-93624920D01*
X63170000Y-93629314D01*
X63170000Y-92268390D01*
X63115586Y-92277009D01*
X62920970Y-92340244D01*
X62738650Y-92433140D01*
X62573105Y-92553417D01*
X62573104Y-92553417D01*
X62428417Y-92698104D01*
X62428417Y-92698105D01*
X62308140Y-92863650D01*
X62215244Y-93045968D01*
X62185947Y-93136136D01*
X62146509Y-93193811D01*
X62082150Y-93221009D01*
X62027062Y-93214859D01*
X61969257Y-93194632D01*
X61969249Y-93194630D01*
X61790004Y-93174435D01*
X61789996Y-93174435D01*
X61610750Y-93194630D01*
X61610745Y-93194631D01*
X61440476Y-93254211D01*
X61287737Y-93350184D01*
X61160184Y-93477737D01*
X61064211Y-93630476D01*
X61004631Y-93800745D01*
X61004630Y-93800750D01*
X60984435Y-93979996D01*
X60984435Y-93980003D01*
X61005411Y-94166175D01*
X61003810Y-94166355D01*
X61000042Y-94227669D01*
X60958732Y-94284018D01*
X60893515Y-94309089D01*
X60883432Y-94309500D01*
X59102129Y-94309500D01*
X59102123Y-94309501D01*
X59042516Y-94315908D01*
X58907671Y-94366202D01*
X58907664Y-94366206D01*
X58792455Y-94452452D01*
X58792452Y-94452455D01*
X58706206Y-94567664D01*
X58706202Y-94567671D01*
X58655908Y-94702517D01*
X58649501Y-94762116D01*
X58649500Y-94762135D01*
X52500500Y-94762135D01*
X52500500Y-90579996D01*
X58754435Y-90579996D01*
X58754435Y-90580003D01*
X58774630Y-90759249D01*
X58774631Y-90759254D01*
X58834211Y-90929523D01*
X58893708Y-91024211D01*
X58930184Y-91082262D01*
X59057738Y-91209816D01*
X59210478Y-91305789D01*
X59380745Y-91365368D01*
X59467669Y-91375161D01*
X59532080Y-91402226D01*
X59541465Y-91410700D01*
X60115139Y-91984374D01*
X60115149Y-91984385D01*
X60119479Y-91988715D01*
X60119480Y-91988716D01*
X60231284Y-92100520D01*
X60318095Y-92150639D01*
X60318097Y-92150641D01*
X60356151Y-92172611D01*
X60368215Y-92179577D01*
X60485406Y-92210978D01*
X60540993Y-92243071D01*
X60547738Y-92249816D01*
X60629525Y-92301206D01*
X60690914Y-92339780D01*
X60700478Y-92345789D01*
X60770198Y-92370185D01*
X60870745Y-92405368D01*
X60870750Y-92405369D01*
X61049996Y-92425565D01*
X61050000Y-92425565D01*
X61050004Y-92425565D01*
X61229249Y-92405369D01*
X61229252Y-92405368D01*
X61229255Y-92405368D01*
X61399522Y-92345789D01*
X61552262Y-92249816D01*
X61679816Y-92122262D01*
X61775789Y-91969522D01*
X61835368Y-91799255D01*
X61835369Y-91799249D01*
X61855565Y-91620003D01*
X61855565Y-91619996D01*
X61835369Y-91440750D01*
X61835368Y-91440745D01*
X61808992Y-91365367D01*
X61775789Y-91270478D01*
X61761500Y-91247738D01*
X61683681Y-91123889D01*
X61679816Y-91117738D01*
X61552262Y-90990184D01*
X61399523Y-90894211D01*
X61229254Y-90834631D01*
X61229249Y-90834630D01*
X61050004Y-90814435D01*
X61049996Y-90814435D01*
X60870747Y-90834631D01*
X60791033Y-90862524D01*
X60721254Y-90866085D01*
X60662398Y-90833163D01*
X60390700Y-90561465D01*
X60357215Y-90500142D01*
X60355163Y-90487686D01*
X60345368Y-90400745D01*
X60285789Y-90230478D01*
X60189816Y-90077738D01*
X60062262Y-89950184D01*
X59909523Y-89854211D01*
X59739254Y-89794631D01*
X59739249Y-89794630D01*
X59560004Y-89774435D01*
X59559996Y-89774435D01*
X59380750Y-89794630D01*
X59380745Y-89794631D01*
X59210476Y-89854211D01*
X59057737Y-89950184D01*
X58930184Y-90077737D01*
X58834211Y-90230476D01*
X58774631Y-90400745D01*
X58774630Y-90400750D01*
X58754435Y-90579996D01*
X52500500Y-90579996D01*
X52500500Y-85502135D01*
X59924500Y-85502135D01*
X59924500Y-87297870D01*
X59924501Y-87297876D01*
X59930908Y-87357483D01*
X59981202Y-87492328D01*
X59981206Y-87492335D01*
X60067452Y-87607544D01*
X60067455Y-87607547D01*
X60182664Y-87693793D01*
X60182671Y-87693797D01*
X60317517Y-87744091D01*
X60317516Y-87744091D01*
X60324444Y-87744835D01*
X60377127Y-87750500D01*
X61167189Y-87750499D01*
X61234228Y-87770183D01*
X61279983Y-87822987D01*
X61289927Y-87892146D01*
X61272183Y-87940471D01*
X61184211Y-88080476D01*
X61124631Y-88250745D01*
X61124630Y-88250750D01*
X61104435Y-88429996D01*
X61104435Y-88430003D01*
X61124630Y-88609249D01*
X61124631Y-88609254D01*
X61184211Y-88779523D01*
X61226496Y-88846818D01*
X61280184Y-88932262D01*
X61407738Y-89059816D01*
X61498080Y-89116582D01*
X61518120Y-89129174D01*
X61560478Y-89155789D01*
X61664706Y-89192260D01*
X61730745Y-89215368D01*
X61730750Y-89215369D01*
X61909996Y-89235565D01*
X61910000Y-89235565D01*
X61910004Y-89235565D01*
X62089249Y-89215369D01*
X62089252Y-89215368D01*
X62089255Y-89215368D01*
X62259522Y-89155789D01*
X62412262Y-89059816D01*
X62412267Y-89059810D01*
X62415097Y-89057555D01*
X62417275Y-89056665D01*
X62418158Y-89056111D01*
X62418255Y-89056265D01*
X62479783Y-89031145D01*
X62492412Y-89030500D01*
X66940009Y-89030500D01*
X67007048Y-89050185D01*
X67045002Y-89088527D01*
X67110182Y-89192260D01*
X67110184Y-89192262D01*
X67237738Y-89319816D01*
X67390478Y-89415789D01*
X67560745Y-89475368D01*
X67560750Y-89475369D01*
X67739996Y-89495565D01*
X67740000Y-89495565D01*
X67740004Y-89495565D01*
X67919249Y-89475369D01*
X67919252Y-89475368D01*
X67919255Y-89475368D01*
X68089522Y-89415789D01*
X68242262Y-89319816D01*
X68369816Y-89192262D01*
X68465789Y-89039522D01*
X68525368Y-88869255D01*
X68527896Y-88846818D01*
X68545565Y-88690003D01*
X68545565Y-88689996D01*
X68525369Y-88510750D01*
X68525368Y-88510745D01*
X68493877Y-88420750D01*
X68465789Y-88340478D01*
X68449101Y-88313920D01*
X68401094Y-88237517D01*
X68369816Y-88187738D01*
X68242262Y-88060184D01*
X68089523Y-87964211D01*
X67919254Y-87904631D01*
X67919250Y-87904630D01*
X67760806Y-87886778D01*
X67719439Y-87873167D01*
X67719289Y-87873532D01*
X67714435Y-87871521D01*
X67712699Y-87870950D01*
X67711790Y-87870425D01*
X67711786Y-87870423D01*
X67711785Y-87870423D01*
X67559057Y-87829499D01*
X67400943Y-87829499D01*
X67393347Y-87829499D01*
X67393331Y-87829500D01*
X67044311Y-87829500D01*
X66977272Y-87809815D01*
X66931517Y-87757011D01*
X66921573Y-87687853D01*
X66950598Y-87624297D01*
X66991906Y-87593118D01*
X67032830Y-87574035D01*
X67226401Y-87438495D01*
X67393495Y-87271401D01*
X67529035Y-87077830D01*
X67628903Y-86863663D01*
X67690063Y-86635408D01*
X67710659Y-86400000D01*
X67690063Y-86164592D01*
X67628903Y-85936337D01*
X67529035Y-85722171D01*
X67523425Y-85714158D01*
X67393494Y-85528597D01*
X67367032Y-85502135D01*
X68664500Y-85502135D01*
X68664500Y-87297870D01*
X68664501Y-87297876D01*
X68670908Y-87357483D01*
X68721202Y-87492328D01*
X68721206Y-87492335D01*
X68807452Y-87607544D01*
X68807455Y-87607547D01*
X68922664Y-87693793D01*
X68922671Y-87693797D01*
X69057517Y-87744091D01*
X69057516Y-87744091D01*
X69064444Y-87744835D01*
X69117127Y-87750500D01*
X70912872Y-87750499D01*
X70972483Y-87744091D01*
X71107331Y-87693796D01*
X71222546Y-87607546D01*
X71308796Y-87492331D01*
X71357810Y-87360916D01*
X71399681Y-87304984D01*
X71465145Y-87280566D01*
X71533418Y-87295417D01*
X71561673Y-87316569D01*
X71683599Y-87438495D01*
X71763248Y-87494266D01*
X71877165Y-87574032D01*
X71877167Y-87574033D01*
X71877170Y-87574035D01*
X72091337Y-87673903D01*
X72091343Y-87673904D01*
X72091344Y-87673905D01*
X72102776Y-87676968D01*
X72319592Y-87735063D01*
X72496034Y-87750500D01*
X72554999Y-87755659D01*
X72555000Y-87755659D01*
X72555001Y-87755659D01*
X72613966Y-87750500D01*
X72790408Y-87735063D01*
X73018663Y-87673903D01*
X73232830Y-87574035D01*
X73426401Y-87438495D01*
X73593495Y-87271401D01*
X73723425Y-87085842D01*
X73778002Y-87042217D01*
X73847500Y-87035023D01*
X73909855Y-87066546D01*
X73926575Y-87085842D01*
X74056500Y-87271395D01*
X74056505Y-87271401D01*
X74223599Y-87438495D01*
X74303248Y-87494266D01*
X74417165Y-87574032D01*
X74417167Y-87574033D01*
X74417170Y-87574035D01*
X74631337Y-87673903D01*
X74631343Y-87673904D01*
X74631344Y-87673905D01*
X74642776Y-87676968D01*
X74859592Y-87735063D01*
X75036034Y-87750500D01*
X75094999Y-87755659D01*
X75095000Y-87755659D01*
X75095001Y-87755659D01*
X75153966Y-87750500D01*
X75330408Y-87735063D01*
X75558663Y-87673903D01*
X75723427Y-87597071D01*
X75792505Y-87586580D01*
X75856289Y-87615100D01*
X75892874Y-87668500D01*
X75894631Y-87673523D01*
X75894632Y-87673525D01*
X75906165Y-87706484D01*
X75954210Y-87843791D01*
X75979749Y-87884435D01*
X76046119Y-87990063D01*
X76050185Y-87996533D01*
X76052445Y-87999367D01*
X76053334Y-88001545D01*
X76053889Y-88002428D01*
X76053734Y-88002525D01*
X76078855Y-88064053D01*
X76079500Y-88076682D01*
X76079500Y-91339902D01*
X76059815Y-91406941D01*
X76043181Y-91427583D01*
X74451465Y-93019298D01*
X74390142Y-93052783D01*
X74377668Y-93054837D01*
X74290750Y-93064630D01*
X74120478Y-93124210D01*
X73967737Y-93220184D01*
X73840184Y-93347737D01*
X73744211Y-93500476D01*
X73684631Y-93670745D01*
X73684630Y-93670750D01*
X73664435Y-93849996D01*
X73664435Y-93850003D01*
X73684630Y-94029249D01*
X73684631Y-94029254D01*
X73744211Y-94199523D01*
X73813315Y-94309500D01*
X73840184Y-94352262D01*
X73967738Y-94479816D01*
X74120478Y-94575789D01*
X74290745Y-94635368D01*
X74290750Y-94635369D01*
X74469996Y-94655565D01*
X74470000Y-94655565D01*
X74470004Y-94655565D01*
X74649249Y-94635369D01*
X74649252Y-94635368D01*
X74649255Y-94635368D01*
X74819522Y-94575789D01*
X74972262Y-94479816D01*
X75067485Y-94384592D01*
X75128804Y-94351110D01*
X75198496Y-94356094D01*
X75254430Y-94397965D01*
X75260156Y-94406303D01*
X75270182Y-94422260D01*
X75270184Y-94422262D01*
X75397738Y-94549816D01*
X75397743Y-94549819D01*
X75533894Y-94635369D01*
X75550478Y-94645789D01*
X75582449Y-94656976D01*
X75720745Y-94705368D01*
X75720750Y-94705369D01*
X75899996Y-94725565D01*
X75900000Y-94725565D01*
X75900004Y-94725565D01*
X76079249Y-94705369D01*
X76079252Y-94705368D01*
X76079255Y-94705368D01*
X76249522Y-94645789D01*
X76402262Y-94549816D01*
X76416326Y-94535750D01*
X76471912Y-94503658D01*
X76561785Y-94479577D01*
X76617600Y-94447352D01*
X76698716Y-94400520D01*
X76810520Y-94288716D01*
X76810521Y-94288714D01*
X77102418Y-93996816D01*
X77163740Y-93963334D01*
X77190098Y-93960500D01*
X77383331Y-93960500D01*
X77383347Y-93960501D01*
X77390943Y-93960501D01*
X77549054Y-93960501D01*
X77549057Y-93960501D01*
X77701785Y-93919577D01*
X77759406Y-93886309D01*
X77838716Y-93840520D01*
X77950520Y-93728716D01*
X77950520Y-93728714D01*
X77960724Y-93718511D01*
X77960728Y-93718506D01*
X78187819Y-93491415D01*
X78249142Y-93457930D01*
X78318834Y-93462914D01*
X78374767Y-93504786D01*
X78399184Y-93570250D01*
X78399500Y-93579096D01*
X78399500Y-94477352D01*
X78403666Y-94503657D01*
X78431522Y-94679534D01*
X78494781Y-94874223D01*
X78587715Y-95056613D01*
X78708028Y-95222213D01*
X78852786Y-95366971D01*
X78977094Y-95457284D01*
X79018390Y-95487287D01*
X79108935Y-95533422D01*
X79200776Y-95580218D01*
X79200778Y-95580218D01*
X79200781Y-95580220D01*
X79267219Y-95601807D01*
X79395465Y-95643477D01*
X79496557Y-95659488D01*
X79597648Y-95675500D01*
X79597649Y-95675500D01*
X79802351Y-95675500D01*
X79802352Y-95675500D01*
X80004534Y-95643477D01*
X80199219Y-95580220D01*
X80381610Y-95487287D01*
X80474590Y-95419732D01*
X80547213Y-95366971D01*
X80547215Y-95366968D01*
X80547219Y-95366966D01*
X80691966Y-95222219D01*
X80691968Y-95222215D01*
X80691971Y-95222213D01*
X80812284Y-95056614D01*
X80812285Y-95056613D01*
X80812287Y-95056610D01*
X80859516Y-94963917D01*
X80907489Y-94913123D01*
X80975310Y-94896328D01*
X81041445Y-94918865D01*
X81080483Y-94963917D01*
X81106224Y-95014435D01*
X81127715Y-95056614D01*
X81248028Y-95222213D01*
X81392786Y-95366971D01*
X81517094Y-95457284D01*
X81558390Y-95487287D01*
X81648935Y-95533422D01*
X81740776Y-95580218D01*
X81740778Y-95580218D01*
X81740781Y-95580220D01*
X81807219Y-95601807D01*
X81935465Y-95643477D01*
X82036557Y-95659488D01*
X82137648Y-95675500D01*
X82137649Y-95675500D01*
X82342351Y-95675500D01*
X82342352Y-95675500D01*
X82544534Y-95643477D01*
X82739219Y-95580220D01*
X82921610Y-95487287D01*
X83014590Y-95419732D01*
X83087213Y-95366971D01*
X83087215Y-95366968D01*
X83087219Y-95366966D01*
X83231966Y-95222219D01*
X83231968Y-95222215D01*
X83231971Y-95222213D01*
X83352284Y-95056614D01*
X83352285Y-95056613D01*
X83352287Y-95056610D01*
X83399516Y-94963917D01*
X83447489Y-94913123D01*
X83515310Y-94896328D01*
X83581445Y-94918865D01*
X83620483Y-94963917D01*
X83646224Y-95014435D01*
X83667715Y-95056614D01*
X83788028Y-95222213D01*
X83932786Y-95366971D01*
X84057094Y-95457284D01*
X84098390Y-95487287D01*
X84188935Y-95533422D01*
X84280776Y-95580218D01*
X84280778Y-95580218D01*
X84280781Y-95580220D01*
X84347219Y-95601807D01*
X84475465Y-95643477D01*
X84576557Y-95659488D01*
X84677648Y-95675500D01*
X84677649Y-95675500D01*
X84882351Y-95675500D01*
X84882352Y-95675500D01*
X85084534Y-95643477D01*
X85279219Y-95580220D01*
X85461610Y-95487287D01*
X85554590Y-95419732D01*
X85627213Y-95366971D01*
X85627215Y-95366968D01*
X85627219Y-95366966D01*
X85771966Y-95222219D01*
X85771968Y-95222215D01*
X85771971Y-95222213D01*
X85892284Y-95056614D01*
X85892285Y-95056613D01*
X85892287Y-95056610D01*
X85939516Y-94963917D01*
X85987489Y-94913123D01*
X86055310Y-94896328D01*
X86121445Y-94918865D01*
X86160483Y-94963917D01*
X86186224Y-95014435D01*
X86207715Y-95056614D01*
X86328028Y-95222213D01*
X86472786Y-95366971D01*
X86597094Y-95457284D01*
X86638390Y-95487287D01*
X86728935Y-95533422D01*
X86820776Y-95580218D01*
X86820778Y-95580218D01*
X86820781Y-95580220D01*
X86887219Y-95601807D01*
X87015465Y-95643477D01*
X87116557Y-95659488D01*
X87217648Y-95675500D01*
X87217649Y-95675500D01*
X87422351Y-95675500D01*
X87422352Y-95675500D01*
X87624534Y-95643477D01*
X87819219Y-95580220D01*
X88001610Y-95487287D01*
X88094590Y-95419732D01*
X88167213Y-95366971D01*
X88167215Y-95366968D01*
X88167219Y-95366966D01*
X88311966Y-95222219D01*
X88311968Y-95222215D01*
X88311971Y-95222213D01*
X88395470Y-95107284D01*
X88432287Y-95056610D01*
X88525220Y-94874219D01*
X88588477Y-94679534D01*
X88620500Y-94477352D01*
X88620500Y-93472648D01*
X88588477Y-93270466D01*
X88583195Y-93254211D01*
X88549752Y-93151284D01*
X88525220Y-93075781D01*
X88525218Y-93075778D01*
X88525218Y-93075776D01*
X88464229Y-92956080D01*
X88432287Y-92893390D01*
X88410491Y-92863390D01*
X88311971Y-92727786D01*
X88167213Y-92583028D01*
X88001613Y-92462715D01*
X88001612Y-92462714D01*
X88001610Y-92462713D01*
X87928703Y-92425565D01*
X87819223Y-92369781D01*
X87624534Y-92306522D01*
X87438193Y-92277009D01*
X87422352Y-92274500D01*
X87217648Y-92274500D01*
X87201807Y-92277009D01*
X87015465Y-92306522D01*
X86820776Y-92369781D01*
X86638386Y-92462715D01*
X86472786Y-92583028D01*
X86328028Y-92727786D01*
X86207715Y-92893386D01*
X86160485Y-92986080D01*
X86112510Y-93036876D01*
X86044689Y-93053671D01*
X85978554Y-93031134D01*
X85939515Y-92986080D01*
X85924229Y-92956080D01*
X85892287Y-92893390D01*
X85870491Y-92863390D01*
X85771971Y-92727786D01*
X85627213Y-92583028D01*
X85461613Y-92462715D01*
X85461612Y-92462714D01*
X85461610Y-92462713D01*
X85388703Y-92425565D01*
X85279223Y-92369781D01*
X85084534Y-92306522D01*
X84898193Y-92277009D01*
X84882352Y-92274500D01*
X84677648Y-92274500D01*
X84661807Y-92277009D01*
X84475465Y-92306522D01*
X84280776Y-92369781D01*
X84098386Y-92462715D01*
X83932786Y-92583028D01*
X83788028Y-92727786D01*
X83667715Y-92893386D01*
X83620485Y-92986080D01*
X83572510Y-93036876D01*
X83504689Y-93053671D01*
X83438554Y-93031134D01*
X83399515Y-92986080D01*
X83384229Y-92956080D01*
X83352287Y-92893390D01*
X83330491Y-92863390D01*
X83231971Y-92727786D01*
X83087217Y-92583032D01*
X83020391Y-92534480D01*
X82977726Y-92479150D01*
X82971747Y-92409536D01*
X83004353Y-92347741D01*
X83005457Y-92346620D01*
X83099816Y-92252262D01*
X83195789Y-92099522D01*
X83255368Y-91929255D01*
X83257897Y-91906812D01*
X83275565Y-91750003D01*
X83275565Y-91749996D01*
X83255369Y-91570750D01*
X83255368Y-91570745D01*
X83251937Y-91560939D01*
X83195789Y-91400478D01*
X83099816Y-91247738D01*
X82972262Y-91120184D01*
X82961117Y-91113181D01*
X82819523Y-91024211D01*
X82649254Y-90964631D01*
X82649249Y-90964630D01*
X82470004Y-90944435D01*
X82469996Y-90944435D01*
X82290750Y-90964630D01*
X82290745Y-90964631D01*
X82120476Y-91024211D01*
X81967736Y-91120185D01*
X81964903Y-91122445D01*
X81962724Y-91123334D01*
X81961842Y-91123889D01*
X81961744Y-91123734D01*
X81900217Y-91148855D01*
X81887588Y-91149500D01*
X79642940Y-91149500D01*
X79575901Y-91129815D01*
X79555259Y-91113181D01*
X79532262Y-91090184D01*
X79379523Y-90994211D01*
X79209254Y-90934631D01*
X79209250Y-90934630D01*
X79080616Y-90920137D01*
X79016202Y-90893070D01*
X78976647Y-90835475D01*
X78970500Y-90796917D01*
X78970500Y-90573321D01*
X78990185Y-90506282D01*
X79042989Y-90460527D01*
X79112147Y-90450583D01*
X79168813Y-90474056D01*
X79187909Y-90488352D01*
X79187913Y-90488354D01*
X79322620Y-90538596D01*
X79322627Y-90538598D01*
X79382155Y-90544999D01*
X79382172Y-90545000D01*
X80030000Y-90545000D01*
X80030000Y-89628012D01*
X80087007Y-89660925D01*
X80214174Y-89695000D01*
X80345826Y-89695000D01*
X80472993Y-89660925D01*
X80530000Y-89628012D01*
X80530000Y-90545000D01*
X81177828Y-90545000D01*
X81177844Y-90544999D01*
X81237372Y-90538598D01*
X81237379Y-90538596D01*
X81372086Y-90488354D01*
X81372093Y-90488350D01*
X81487187Y-90402190D01*
X81487190Y-90402187D01*
X81573350Y-90287093D01*
X81573354Y-90287086D01*
X81623596Y-90152379D01*
X81623598Y-90152372D01*
X81629999Y-90092844D01*
X81630000Y-90092827D01*
X81630000Y-89445000D01*
X80713012Y-89445000D01*
X80745925Y-89387993D01*
X80780000Y-89260826D01*
X80780000Y-89129174D01*
X80745925Y-89002007D01*
X80713012Y-88945000D01*
X81630000Y-88945000D01*
X81630000Y-88297172D01*
X81629999Y-88297155D01*
X81623598Y-88237627D01*
X81623596Y-88237620D01*
X81573354Y-88102913D01*
X81573350Y-88102906D01*
X81487190Y-87987812D01*
X81487187Y-87987809D01*
X81372093Y-87901649D01*
X81372088Y-87901646D01*
X81240528Y-87852577D01*
X81184595Y-87810705D01*
X81160178Y-87745241D01*
X81175030Y-87676968D01*
X81196175Y-87648720D01*
X81318495Y-87526401D01*
X81454035Y-87332830D01*
X81553903Y-87118663D01*
X81615063Y-86890408D01*
X81635659Y-86655000D01*
X81635659Y-86654999D01*
X82624341Y-86654999D01*
X82624341Y-86655000D01*
X82644936Y-86890403D01*
X82644938Y-86890413D01*
X82706094Y-87118655D01*
X82706096Y-87118659D01*
X82706097Y-87118663D01*
X82718260Y-87144746D01*
X82805965Y-87332830D01*
X82805967Y-87332834D01*
X82914281Y-87487521D01*
X82941501Y-87526396D01*
X82941506Y-87526402D01*
X83063818Y-87648714D01*
X83097303Y-87710037D01*
X83092319Y-87779729D01*
X83050447Y-87835662D01*
X83019471Y-87852577D01*
X82887912Y-87901646D01*
X82887906Y-87901649D01*
X82772812Y-87987809D01*
X82772809Y-87987812D01*
X82686649Y-88102906D01*
X82686645Y-88102913D01*
X82636403Y-88237620D01*
X82636401Y-88237627D01*
X82630000Y-88297155D01*
X82630000Y-88945000D01*
X83546988Y-88945000D01*
X83514075Y-89002007D01*
X83480000Y-89129174D01*
X83480000Y-89260826D01*
X83514075Y-89387993D01*
X83546988Y-89445000D01*
X82630000Y-89445000D01*
X82630000Y-90092844D01*
X82636401Y-90152372D01*
X82636403Y-90152379D01*
X82686645Y-90287086D01*
X82686649Y-90287093D01*
X82772809Y-90402187D01*
X82772812Y-90402190D01*
X82887906Y-90488350D01*
X82887913Y-90488354D01*
X83022620Y-90538596D01*
X83022627Y-90538598D01*
X83082155Y-90544999D01*
X83082172Y-90545000D01*
X83730000Y-90545000D01*
X83730000Y-89628012D01*
X83787007Y-89660925D01*
X83914174Y-89695000D01*
X84045826Y-89695000D01*
X84172993Y-89660925D01*
X84230000Y-89628012D01*
X84230000Y-90545000D01*
X84877828Y-90545000D01*
X84877844Y-90544999D01*
X84937372Y-90538598D01*
X84937379Y-90538596D01*
X85072086Y-90488354D01*
X85072093Y-90488350D01*
X85187187Y-90402190D01*
X85187190Y-90402187D01*
X85273350Y-90287093D01*
X85273354Y-90287086D01*
X85323596Y-90152379D01*
X85323598Y-90152372D01*
X85329999Y-90092844D01*
X85330000Y-90092827D01*
X85330000Y-89445000D01*
X84413012Y-89445000D01*
X84445925Y-89387993D01*
X84480000Y-89260826D01*
X84480000Y-89129174D01*
X84445925Y-89002007D01*
X84413012Y-88945000D01*
X85330000Y-88945000D01*
X85330000Y-88297172D01*
X85329999Y-88297155D01*
X85323598Y-88237627D01*
X85323596Y-88237620D01*
X85273354Y-88102913D01*
X85273350Y-88102906D01*
X85187190Y-87987812D01*
X85187187Y-87987809D01*
X85072093Y-87901649D01*
X85072088Y-87901646D01*
X84940528Y-87852577D01*
X84884595Y-87810705D01*
X84860178Y-87745241D01*
X84875030Y-87676968D01*
X84896175Y-87648720D01*
X85018495Y-87526401D01*
X85154035Y-87332830D01*
X85253903Y-87118663D01*
X85315063Y-86890408D01*
X85335659Y-86655000D01*
X85335659Y-86654999D01*
X86324341Y-86654999D01*
X86324341Y-86655000D01*
X86344936Y-86890403D01*
X86344938Y-86890413D01*
X86406094Y-87118655D01*
X86406096Y-87118659D01*
X86406097Y-87118663D01*
X86418260Y-87144746D01*
X86505965Y-87332830D01*
X86505967Y-87332834D01*
X86614281Y-87487521D01*
X86641501Y-87526396D01*
X86641506Y-87526402D01*
X86763430Y-87648326D01*
X86796915Y-87709649D01*
X86791931Y-87779341D01*
X86750059Y-87835274D01*
X86719083Y-87852189D01*
X86587669Y-87901203D01*
X86587664Y-87901206D01*
X86472455Y-87987452D01*
X86472452Y-87987455D01*
X86386208Y-88102662D01*
X86386202Y-88102671D01*
X86335908Y-88237517D01*
X86329501Y-88297116D01*
X86329501Y-88297123D01*
X86329500Y-88297135D01*
X86329500Y-90092870D01*
X86329501Y-90092876D01*
X86335908Y-90152483D01*
X86386202Y-90287328D01*
X86386206Y-90287335D01*
X86472452Y-90402544D01*
X86472455Y-90402547D01*
X86587664Y-90488793D01*
X86587671Y-90488797D01*
X86722517Y-90539091D01*
X86722516Y-90539091D01*
X86729444Y-90539835D01*
X86782127Y-90545500D01*
X88577872Y-90545499D01*
X88637483Y-90539091D01*
X88772331Y-90488796D01*
X88887546Y-90402546D01*
X88973796Y-90287331D01*
X89024091Y-90152483D01*
X89030500Y-90092873D01*
X89030499Y-88297128D01*
X89024091Y-88237517D01*
X89005524Y-88187737D01*
X88973797Y-88102671D01*
X88973792Y-88102662D01*
X88887547Y-87987455D01*
X88887544Y-87987452D01*
X88772335Y-87901206D01*
X88772328Y-87901202D01*
X88640917Y-87852189D01*
X88584983Y-87810318D01*
X88560566Y-87744853D01*
X88575418Y-87676580D01*
X88596563Y-87648332D01*
X88718495Y-87526401D01*
X88854035Y-87332830D01*
X88953903Y-87118663D01*
X89015063Y-86890408D01*
X89035659Y-86655000D01*
X89034460Y-86641301D01*
X89028545Y-86573690D01*
X89015063Y-86419592D01*
X88953903Y-86191337D01*
X88854035Y-85977171D01*
X88825442Y-85936335D01*
X88718494Y-85783597D01*
X88682032Y-85747135D01*
X89999500Y-85747135D01*
X89999500Y-87542870D01*
X89999501Y-87542876D01*
X90005908Y-87602483D01*
X90056202Y-87737328D01*
X90056206Y-87737335D01*
X90142452Y-87852544D01*
X90142455Y-87852547D01*
X90257664Y-87938793D01*
X90257671Y-87938797D01*
X90319902Y-87962007D01*
X90389598Y-87988002D01*
X90445531Y-88029873D01*
X90469949Y-88095337D01*
X90455098Y-88163610D01*
X90433947Y-88191865D01*
X90311886Y-88313926D01*
X90176400Y-88507420D01*
X90176399Y-88507422D01*
X90076570Y-88721507D01*
X90076567Y-88721513D01*
X90019364Y-88934999D01*
X90019364Y-88935000D01*
X90916988Y-88935000D01*
X90884075Y-88992007D01*
X90850000Y-89119174D01*
X90850000Y-89250826D01*
X90884075Y-89377993D01*
X90916988Y-89435000D01*
X90019364Y-89435000D01*
X90076567Y-89648486D01*
X90076570Y-89648492D01*
X90176399Y-89862578D01*
X90311894Y-90056082D01*
X90478917Y-90223105D01*
X90672421Y-90358600D01*
X90886507Y-90458429D01*
X90886516Y-90458433D01*
X91100000Y-90515634D01*
X91100000Y-89618012D01*
X91157007Y-89650925D01*
X91284174Y-89685000D01*
X91415826Y-89685000D01*
X91542993Y-89650925D01*
X91600000Y-89618012D01*
X91600000Y-90515633D01*
X91813483Y-90458433D01*
X91813492Y-90458429D01*
X92027578Y-90358600D01*
X92221082Y-90223105D01*
X92388105Y-90056082D01*
X92523600Y-89862578D01*
X92623429Y-89648492D01*
X92623432Y-89648486D01*
X92680636Y-89435000D01*
X91783012Y-89435000D01*
X91815925Y-89377993D01*
X91850000Y-89250826D01*
X91850000Y-89119174D01*
X91815925Y-88992007D01*
X91783012Y-88935000D01*
X92680636Y-88935000D01*
X92680635Y-88934999D01*
X92623432Y-88721513D01*
X92623429Y-88721507D01*
X92523600Y-88507422D01*
X92523599Y-88507420D01*
X92388113Y-88313926D01*
X92388108Y-88313920D01*
X92266053Y-88191865D01*
X92232568Y-88130542D01*
X92237552Y-88060850D01*
X92279424Y-88004917D01*
X92310400Y-87988002D01*
X92442331Y-87938796D01*
X92557546Y-87852546D01*
X92643796Y-87737331D01*
X92694091Y-87602483D01*
X92700500Y-87542873D01*
X92700499Y-85747128D01*
X92694091Y-85687517D01*
X92667605Y-85616505D01*
X92643797Y-85552671D01*
X92643793Y-85552664D01*
X92557547Y-85437455D01*
X92557544Y-85437452D01*
X92442335Y-85351206D01*
X92442328Y-85351202D01*
X92307482Y-85300908D01*
X92307483Y-85300908D01*
X92247883Y-85294501D01*
X92247881Y-85294500D01*
X92247873Y-85294500D01*
X92247864Y-85294500D01*
X90452129Y-85294500D01*
X90452123Y-85294501D01*
X90392516Y-85300908D01*
X90257671Y-85351202D01*
X90257664Y-85351206D01*
X90142455Y-85437452D01*
X90142452Y-85437455D01*
X90056206Y-85552664D01*
X90056202Y-85552671D01*
X90005908Y-85687517D01*
X90002183Y-85722169D01*
X89999501Y-85747123D01*
X89999500Y-85747135D01*
X88682032Y-85747135D01*
X88551402Y-85616506D01*
X88551395Y-85616501D01*
X88357834Y-85480967D01*
X88357830Y-85480965D01*
X88275378Y-85442517D01*
X88143663Y-85381097D01*
X88143659Y-85381096D01*
X88143655Y-85381094D01*
X87915413Y-85319938D01*
X87915403Y-85319936D01*
X87680001Y-85299341D01*
X87679999Y-85299341D01*
X87444596Y-85319936D01*
X87444586Y-85319938D01*
X87216344Y-85381094D01*
X87216335Y-85381098D01*
X87002171Y-85480964D01*
X87002169Y-85480965D01*
X86808597Y-85616505D01*
X86641505Y-85783597D01*
X86505965Y-85977169D01*
X86505964Y-85977171D01*
X86406098Y-86191335D01*
X86406094Y-86191344D01*
X86344938Y-86419586D01*
X86344936Y-86419596D01*
X86324341Y-86654999D01*
X85335659Y-86654999D01*
X85334460Y-86641301D01*
X85328545Y-86573690D01*
X85315063Y-86419592D01*
X85253903Y-86191337D01*
X85154035Y-85977171D01*
X85125442Y-85936335D01*
X85018494Y-85783597D01*
X84851402Y-85616506D01*
X84851395Y-85616501D01*
X84657834Y-85480967D01*
X84657830Y-85480965D01*
X84575378Y-85442517D01*
X84443663Y-85381097D01*
X84443659Y-85381096D01*
X84443655Y-85381094D01*
X84215413Y-85319938D01*
X84215403Y-85319936D01*
X83980001Y-85299341D01*
X83979999Y-85299341D01*
X83744596Y-85319936D01*
X83744586Y-85319938D01*
X83516344Y-85381094D01*
X83516335Y-85381098D01*
X83302171Y-85480964D01*
X83302169Y-85480965D01*
X83108597Y-85616505D01*
X82941505Y-85783597D01*
X82805965Y-85977169D01*
X82805964Y-85977171D01*
X82706098Y-86191335D01*
X82706094Y-86191344D01*
X82644938Y-86419586D01*
X82644936Y-86419596D01*
X82624341Y-86654999D01*
X81635659Y-86654999D01*
X81634460Y-86641301D01*
X81628545Y-86573690D01*
X81615063Y-86419592D01*
X81553903Y-86191337D01*
X81454035Y-85977171D01*
X81425442Y-85936335D01*
X81318494Y-85783597D01*
X81151402Y-85616506D01*
X81151395Y-85616501D01*
X80957834Y-85480967D01*
X80957830Y-85480965D01*
X80875378Y-85442517D01*
X80743663Y-85381097D01*
X80743659Y-85381096D01*
X80743655Y-85381094D01*
X80515413Y-85319938D01*
X80515403Y-85319936D01*
X80280001Y-85299341D01*
X80279999Y-85299341D01*
X80044596Y-85319936D01*
X80044586Y-85319938D01*
X79816344Y-85381094D01*
X79816335Y-85381098D01*
X79602171Y-85480964D01*
X79602169Y-85480965D01*
X79408597Y-85616505D01*
X79241505Y-85783597D01*
X79105965Y-85977169D01*
X79105964Y-85977171D01*
X79006098Y-86191335D01*
X79006094Y-86191344D01*
X78944938Y-86419586D01*
X78944936Y-86419596D01*
X78924341Y-86654999D01*
X78924341Y-86655000D01*
X78944936Y-86890403D01*
X78944938Y-86890413D01*
X79006094Y-87118655D01*
X79006096Y-87118659D01*
X79006097Y-87118663D01*
X79018260Y-87144746D01*
X79105965Y-87332830D01*
X79105967Y-87332834D01*
X79214281Y-87487521D01*
X79241501Y-87526396D01*
X79241506Y-87526402D01*
X79363818Y-87648714D01*
X79397303Y-87710037D01*
X79392319Y-87779729D01*
X79350447Y-87835662D01*
X79319478Y-87852574D01*
X79312203Y-87855288D01*
X79242512Y-87860277D01*
X79227907Y-87856150D01*
X79109260Y-87814633D01*
X79109247Y-87814630D01*
X78930002Y-87794435D01*
X78929994Y-87794435D01*
X78750748Y-87814630D01*
X78750743Y-87814631D01*
X78580474Y-87874211D01*
X78427735Y-87970184D01*
X78300182Y-88097737D01*
X78204208Y-88250478D01*
X78144628Y-88420750D01*
X78134835Y-88507667D01*
X78107768Y-88572081D01*
X78099297Y-88581464D01*
X78055241Y-88625520D01*
X78001285Y-88679476D01*
X78001284Y-88679477D01*
X77994218Y-88686544D01*
X77994217Y-88686544D01*
X77994214Y-88686546D01*
X77994215Y-88686547D01*
X77889478Y-88791284D01*
X77857418Y-88846816D01*
X77857417Y-88846818D01*
X77810423Y-88928212D01*
X77808604Y-88935000D01*
X77769499Y-89080941D01*
X77769499Y-89080943D01*
X77769499Y-89249044D01*
X77769500Y-89249057D01*
X77769500Y-92159903D01*
X77749815Y-92226942D01*
X77733181Y-92247584D01*
X77257584Y-92723181D01*
X77196261Y-92756666D01*
X77169903Y-92759500D01*
X76976670Y-92759500D01*
X76976654Y-92759499D01*
X76969058Y-92759499D01*
X76810943Y-92759499D01*
X76810942Y-92759499D01*
X76709886Y-92786577D01*
X76640036Y-92784914D01*
X76582174Y-92745751D01*
X76554670Y-92681523D01*
X76566257Y-92612621D01*
X76590109Y-92579124D01*
X77038506Y-92130728D01*
X77038511Y-92130724D01*
X77048714Y-92120520D01*
X77048716Y-92120520D01*
X77160520Y-92008716D01*
X77183148Y-91969523D01*
X77219341Y-91906835D01*
X77219344Y-91906826D01*
X77219350Y-91906818D01*
X77239577Y-91871785D01*
X77280501Y-91719057D01*
X77280501Y-91560943D01*
X77280501Y-91553348D01*
X77280500Y-91553330D01*
X77280500Y-88076682D01*
X77300185Y-88009643D01*
X77307555Y-87999367D01*
X77309810Y-87996537D01*
X77309816Y-87996532D01*
X77405789Y-87843792D01*
X77465368Y-87673525D01*
X77465369Y-87673519D01*
X77485565Y-87494273D01*
X77485565Y-87494266D01*
X77465369Y-87315020D01*
X77465368Y-87315015D01*
X77405788Y-87144746D01*
X77309815Y-86992007D01*
X77182262Y-86864454D01*
X77029523Y-86768481D01*
X76859254Y-86708901D01*
X76859249Y-86708900D01*
X76680004Y-86688705D01*
X76679996Y-86688705D01*
X76573487Y-86700705D01*
X76504665Y-86688650D01*
X76453286Y-86641301D01*
X76435662Y-86573690D01*
X76436076Y-86566677D01*
X76448945Y-86419596D01*
X76450659Y-86400000D01*
X76430063Y-86164592D01*
X76368903Y-85936337D01*
X76269035Y-85722171D01*
X76263425Y-85714158D01*
X76133494Y-85528597D01*
X75966402Y-85361506D01*
X75966395Y-85361501D01*
X75951692Y-85351206D01*
X75907036Y-85319937D01*
X75772834Y-85225967D01*
X75772830Y-85225965D01*
X75772828Y-85225964D01*
X75558663Y-85126097D01*
X75558659Y-85126096D01*
X75558655Y-85126094D01*
X75477222Y-85104275D01*
X75417561Y-85067910D01*
X75387032Y-85005063D01*
X75395326Y-84935688D01*
X75439812Y-84881810D01*
X75506364Y-84860535D01*
X75509315Y-84860500D01*
X76957588Y-84860500D01*
X77024627Y-84880185D01*
X77034903Y-84887555D01*
X77037736Y-84889814D01*
X77037738Y-84889816D01*
X77190478Y-84985789D01*
X77288959Y-85020249D01*
X77360745Y-85045368D01*
X77360750Y-85045369D01*
X77539996Y-85065565D01*
X77540000Y-85065565D01*
X77540004Y-85065565D01*
X77719249Y-85045369D01*
X77719252Y-85045368D01*
X77719255Y-85045368D01*
X77889522Y-84985789D01*
X78042262Y-84889816D01*
X78169816Y-84762262D01*
X78265789Y-84609522D01*
X78325368Y-84439255D01*
X78325369Y-84439249D01*
X78345565Y-84260003D01*
X78345565Y-84259996D01*
X78325369Y-84080750D01*
X78325368Y-84080745D01*
X78304177Y-84020184D01*
X78265789Y-83910478D01*
X78263947Y-83907547D01*
X78169815Y-83757737D01*
X78042262Y-83630184D01*
X77889523Y-83534211D01*
X77719254Y-83474631D01*
X77719249Y-83474630D01*
X77540004Y-83454435D01*
X77539996Y-83454435D01*
X77360750Y-83474630D01*
X77360745Y-83474631D01*
X77190476Y-83534211D01*
X77037736Y-83630185D01*
X77034903Y-83632445D01*
X77032724Y-83633334D01*
X77031842Y-83633889D01*
X77031744Y-83633734D01*
X76970217Y-83658855D01*
X76957588Y-83659500D01*
X76325009Y-83659500D01*
X76257970Y-83639815D01*
X76212215Y-83587011D01*
X76202271Y-83517853D01*
X76223432Y-83464378D01*
X76284035Y-83377830D01*
X76383903Y-83163663D01*
X76445063Y-82935408D01*
X76465659Y-82700000D01*
X76445063Y-82464592D01*
X76383903Y-82236337D01*
X76284035Y-82022171D01*
X76278425Y-82014158D01*
X76148494Y-81828597D01*
X75981402Y-81661506D01*
X75981395Y-81661501D01*
X75787834Y-81525967D01*
X75787830Y-81525965D01*
X75787828Y-81525964D01*
X75573663Y-81426097D01*
X75573659Y-81426096D01*
X75573655Y-81426094D01*
X75345413Y-81364938D01*
X75345403Y-81364936D01*
X75110001Y-81344341D01*
X75109999Y-81344341D01*
X74874596Y-81364936D01*
X74874586Y-81364938D01*
X74646344Y-81426094D01*
X74646335Y-81426098D01*
X74432171Y-81525964D01*
X74432169Y-81525965D01*
X74238597Y-81661505D01*
X74071505Y-81828597D01*
X73941575Y-82014158D01*
X73886998Y-82057783D01*
X73817500Y-82064977D01*
X73755145Y-82033454D01*
X73738425Y-82014158D01*
X73608494Y-81828597D01*
X73441402Y-81661506D01*
X73441395Y-81661501D01*
X73247834Y-81525967D01*
X73247830Y-81525965D01*
X73247828Y-81525964D01*
X73033663Y-81426097D01*
X73033659Y-81426096D01*
X73033655Y-81426094D01*
X72805413Y-81364938D01*
X72805403Y-81364936D01*
X72570001Y-81344341D01*
X72569999Y-81344341D01*
X72334596Y-81364936D01*
X72334586Y-81364938D01*
X72106344Y-81426094D01*
X72106335Y-81426098D01*
X71892171Y-81525964D01*
X71892169Y-81525965D01*
X71698600Y-81661503D01*
X71576673Y-81783430D01*
X71515350Y-81816914D01*
X71445658Y-81811930D01*
X71389725Y-81770058D01*
X71372810Y-81739081D01*
X71323797Y-81607671D01*
X71323793Y-81607664D01*
X71237547Y-81492455D01*
X71237544Y-81492452D01*
X71122335Y-81406206D01*
X71122328Y-81406202D01*
X70987482Y-81355908D01*
X70987483Y-81355908D01*
X70927883Y-81349501D01*
X70927881Y-81349500D01*
X70927873Y-81349500D01*
X70927864Y-81349500D01*
X69132129Y-81349500D01*
X69132123Y-81349501D01*
X69072516Y-81355908D01*
X68937671Y-81406202D01*
X68937664Y-81406206D01*
X68822455Y-81492452D01*
X68822452Y-81492455D01*
X68736206Y-81607664D01*
X68736202Y-81607671D01*
X68685908Y-81742517D01*
X68679501Y-81802116D01*
X68679500Y-81802135D01*
X68679500Y-83597870D01*
X68679501Y-83597876D01*
X68685908Y-83657483D01*
X68736202Y-83792328D01*
X68736206Y-83792335D01*
X68822452Y-83907544D01*
X68822455Y-83907547D01*
X68937664Y-83993793D01*
X68937671Y-83993797D01*
X69072517Y-84044091D01*
X69072516Y-84044091D01*
X69079444Y-84044835D01*
X69132127Y-84050500D01*
X70927872Y-84050499D01*
X70987483Y-84044091D01*
X71033253Y-84027020D01*
X71102944Y-84022035D01*
X71164268Y-84055519D01*
X71197753Y-84116842D01*
X71192769Y-84186534D01*
X71181581Y-84209173D01*
X71124211Y-84300476D01*
X71064631Y-84470745D01*
X71064630Y-84470750D01*
X71044435Y-84649996D01*
X71044435Y-84650003D01*
X71064630Y-84829249D01*
X71064632Y-84829257D01*
X71085832Y-84889843D01*
X71089393Y-84959622D01*
X71054664Y-85020249D01*
X70992671Y-85052476D01*
X70955536Y-85054086D01*
X70912873Y-85049500D01*
X70912866Y-85049500D01*
X69117129Y-85049500D01*
X69117123Y-85049501D01*
X69057516Y-85055908D01*
X68922671Y-85106202D01*
X68922664Y-85106206D01*
X68807455Y-85192452D01*
X68807452Y-85192455D01*
X68721206Y-85307664D01*
X68721202Y-85307671D01*
X68670908Y-85442517D01*
X68664501Y-85502116D01*
X68664500Y-85502135D01*
X67367032Y-85502135D01*
X67226402Y-85361506D01*
X67226395Y-85361501D01*
X67211692Y-85351206D01*
X67167036Y-85319937D01*
X67032834Y-85225967D01*
X67032830Y-85225965D01*
X67032828Y-85225964D01*
X66818663Y-85126097D01*
X66818659Y-85126096D01*
X66818655Y-85126094D01*
X66590413Y-85064938D01*
X66590403Y-85064936D01*
X66355001Y-85044341D01*
X66354999Y-85044341D01*
X66119596Y-85064936D01*
X66119586Y-85064938D01*
X65891344Y-85126094D01*
X65891335Y-85126098D01*
X65677171Y-85225964D01*
X65677169Y-85225965D01*
X65483597Y-85361505D01*
X65316505Y-85528597D01*
X65186575Y-85714158D01*
X65131998Y-85757783D01*
X65062500Y-85764977D01*
X65000145Y-85733454D01*
X64983425Y-85714158D01*
X64853494Y-85528597D01*
X64686402Y-85361506D01*
X64686395Y-85361501D01*
X64671692Y-85351206D01*
X64627036Y-85319937D01*
X64492834Y-85225967D01*
X64492830Y-85225965D01*
X64492828Y-85225964D01*
X64278663Y-85126097D01*
X64278659Y-85126096D01*
X64278655Y-85126094D01*
X64050413Y-85064938D01*
X64050403Y-85064936D01*
X63815001Y-85044341D01*
X63814999Y-85044341D01*
X63579596Y-85064936D01*
X63579586Y-85064938D01*
X63351344Y-85126094D01*
X63351335Y-85126098D01*
X63137171Y-85225964D01*
X63137169Y-85225965D01*
X62943600Y-85361503D01*
X62821673Y-85483430D01*
X62760350Y-85516914D01*
X62690658Y-85511930D01*
X62634725Y-85470058D01*
X62617810Y-85439081D01*
X62568797Y-85307671D01*
X62568793Y-85307664D01*
X62482547Y-85192455D01*
X62482544Y-85192452D01*
X62367335Y-85106206D01*
X62367328Y-85106202D01*
X62232482Y-85055908D01*
X62232483Y-85055908D01*
X62172883Y-85049501D01*
X62172881Y-85049500D01*
X62172873Y-85049500D01*
X62172864Y-85049500D01*
X60377129Y-85049500D01*
X60377123Y-85049501D01*
X60317516Y-85055908D01*
X60182671Y-85106202D01*
X60182664Y-85106206D01*
X60067455Y-85192452D01*
X60067452Y-85192455D01*
X59981206Y-85307664D01*
X59981202Y-85307671D01*
X59930908Y-85442517D01*
X59924501Y-85502116D01*
X59924500Y-85502135D01*
X52500500Y-85502135D01*
X52500500Y-81802135D01*
X59924500Y-81802135D01*
X59924500Y-83597870D01*
X59924501Y-83597876D01*
X59930908Y-83657483D01*
X59981202Y-83792328D01*
X59981206Y-83792335D01*
X60067452Y-83907544D01*
X60067455Y-83907547D01*
X60182664Y-83993793D01*
X60182671Y-83993797D01*
X60317517Y-84044091D01*
X60317516Y-84044091D01*
X60324444Y-84044835D01*
X60377127Y-84050500D01*
X62172872Y-84050499D01*
X62232483Y-84044091D01*
X62367331Y-83993796D01*
X62482546Y-83907546D01*
X62568796Y-83792331D01*
X62617810Y-83660916D01*
X62659681Y-83604984D01*
X62725145Y-83580566D01*
X62793418Y-83595417D01*
X62821673Y-83616569D01*
X62943599Y-83738495D01*
X63040384Y-83806265D01*
X63137165Y-83874032D01*
X63137167Y-83874033D01*
X63137170Y-83874035D01*
X63351337Y-83973903D01*
X63579592Y-84035063D01*
X63756034Y-84050500D01*
X63814999Y-84055659D01*
X63815000Y-84055659D01*
X63815001Y-84055659D01*
X63873966Y-84050500D01*
X64050408Y-84035063D01*
X64278663Y-83973903D01*
X64492830Y-83874035D01*
X64686401Y-83738495D01*
X64853495Y-83571401D01*
X64983425Y-83385842D01*
X65038002Y-83342217D01*
X65107500Y-83335023D01*
X65169855Y-83366546D01*
X65186575Y-83385842D01*
X65316500Y-83571395D01*
X65316505Y-83571401D01*
X65483599Y-83738495D01*
X65580384Y-83806265D01*
X65677165Y-83874032D01*
X65677167Y-83874033D01*
X65677170Y-83874035D01*
X65891337Y-83973903D01*
X66119592Y-84035063D01*
X66296034Y-84050500D01*
X66354999Y-84055659D01*
X66355000Y-84055659D01*
X66355001Y-84055659D01*
X66413966Y-84050500D01*
X66590408Y-84035063D01*
X66818663Y-83973903D01*
X67032830Y-83874035D01*
X67226401Y-83738495D01*
X67393495Y-83571401D01*
X67529035Y-83377830D01*
X67628903Y-83163663D01*
X67690063Y-82935408D01*
X67710659Y-82700000D01*
X67690063Y-82464592D01*
X67628903Y-82236337D01*
X67529035Y-82022171D01*
X67523425Y-82014158D01*
X67393494Y-81828597D01*
X67226402Y-81661506D01*
X67226395Y-81661501D01*
X67032834Y-81525967D01*
X67032830Y-81525965D01*
X67032828Y-81525964D01*
X66818663Y-81426097D01*
X66818659Y-81426096D01*
X66818655Y-81426094D01*
X66590413Y-81364938D01*
X66590403Y-81364936D01*
X66355001Y-81344341D01*
X66354999Y-81344341D01*
X66119596Y-81364936D01*
X66119586Y-81364938D01*
X65891344Y-81426094D01*
X65891335Y-81426098D01*
X65677171Y-81525964D01*
X65677169Y-81525965D01*
X65483597Y-81661505D01*
X65316505Y-81828597D01*
X65186575Y-82014158D01*
X65131998Y-82057783D01*
X65062500Y-82064977D01*
X65000145Y-82033454D01*
X64983425Y-82014158D01*
X64853494Y-81828597D01*
X64686402Y-81661506D01*
X64686395Y-81661501D01*
X64492834Y-81525967D01*
X64492830Y-81525965D01*
X64492828Y-81525964D01*
X64278663Y-81426097D01*
X64278659Y-81426096D01*
X64278655Y-81426094D01*
X64050413Y-81364938D01*
X64050403Y-81364936D01*
X63815001Y-81344341D01*
X63814999Y-81344341D01*
X63579596Y-81364936D01*
X63579586Y-81364938D01*
X63351344Y-81426094D01*
X63351335Y-81426098D01*
X63137171Y-81525964D01*
X63137169Y-81525965D01*
X62943600Y-81661503D01*
X62821673Y-81783430D01*
X62760350Y-81816914D01*
X62690658Y-81811930D01*
X62634725Y-81770058D01*
X62617810Y-81739081D01*
X62568797Y-81607671D01*
X62568793Y-81607664D01*
X62482547Y-81492455D01*
X62482544Y-81492452D01*
X62367335Y-81406206D01*
X62367328Y-81406202D01*
X62232482Y-81355908D01*
X62232483Y-81355908D01*
X62172883Y-81349501D01*
X62172881Y-81349500D01*
X62172873Y-81349500D01*
X62172864Y-81349500D01*
X60377129Y-81349500D01*
X60377123Y-81349501D01*
X60317516Y-81355908D01*
X60182671Y-81406202D01*
X60182664Y-81406206D01*
X60067455Y-81492452D01*
X60067452Y-81492455D01*
X59981206Y-81607664D01*
X59981202Y-81607671D01*
X59930908Y-81742517D01*
X59924501Y-81802116D01*
X59924500Y-81802135D01*
X52500500Y-81802135D01*
X52500500Y-80002706D01*
X52500618Y-79997297D01*
X52503377Y-79934108D01*
X52517386Y-79613226D01*
X52518326Y-79602495D01*
X52568152Y-79224025D01*
X52570025Y-79213405D01*
X52652649Y-78840709D01*
X52655440Y-78830295D01*
X52770230Y-78466227D01*
X52773917Y-78456095D01*
X52920003Y-78103412D01*
X52920599Y-78102135D01*
X59924500Y-78102135D01*
X59924500Y-79897870D01*
X59924501Y-79897876D01*
X59930908Y-79957483D01*
X59981202Y-80092328D01*
X59981206Y-80092335D01*
X60067452Y-80207544D01*
X60067455Y-80207547D01*
X60182664Y-80293793D01*
X60182671Y-80293797D01*
X60317517Y-80344091D01*
X60317516Y-80344091D01*
X60324444Y-80344835D01*
X60377127Y-80350500D01*
X62172872Y-80350499D01*
X62232483Y-80344091D01*
X62367331Y-80293796D01*
X62482546Y-80207546D01*
X62568796Y-80092331D01*
X62617810Y-79960916D01*
X62659681Y-79904984D01*
X62725145Y-79880566D01*
X62793418Y-79895417D01*
X62821673Y-79916569D01*
X62943599Y-80038495D01*
X63040384Y-80106265D01*
X63137165Y-80174032D01*
X63137167Y-80174033D01*
X63137170Y-80174035D01*
X63351337Y-80273903D01*
X63579592Y-80335063D01*
X63756034Y-80350500D01*
X63814999Y-80355659D01*
X63815000Y-80355659D01*
X63815001Y-80355659D01*
X63873966Y-80350500D01*
X64050408Y-80335063D01*
X64278663Y-80273903D01*
X64492830Y-80174035D01*
X64686401Y-80038495D01*
X64853495Y-79871401D01*
X64983730Y-79685405D01*
X65038307Y-79641781D01*
X65107805Y-79634587D01*
X65170160Y-79666110D01*
X65186879Y-79685405D01*
X65316890Y-79871078D01*
X65483917Y-80038105D01*
X65677421Y-80173600D01*
X65891507Y-80273429D01*
X65891516Y-80273433D01*
X66105000Y-80330634D01*
X66105000Y-79433012D01*
X66162007Y-79465925D01*
X66289174Y-79500000D01*
X66420826Y-79500000D01*
X66547993Y-79465925D01*
X66605000Y-79433012D01*
X66605000Y-80330633D01*
X66818483Y-80273433D01*
X66818492Y-80273429D01*
X67032578Y-80173600D01*
X67226082Y-80038105D01*
X67393105Y-79871082D01*
X67528600Y-79677578D01*
X67628429Y-79463492D01*
X67628432Y-79463486D01*
X67685636Y-79250000D01*
X66788012Y-79250000D01*
X66820925Y-79192993D01*
X66855000Y-79065826D01*
X66855000Y-78934174D01*
X66820925Y-78807007D01*
X66788012Y-78750000D01*
X67685636Y-78750000D01*
X67685635Y-78749999D01*
X67628432Y-78536513D01*
X67628429Y-78536507D01*
X67528600Y-78322422D01*
X67528599Y-78322420D01*
X67393113Y-78128926D01*
X67393108Y-78128920D01*
X67366323Y-78102135D01*
X68664500Y-78102135D01*
X68664500Y-79897870D01*
X68664501Y-79897876D01*
X68670908Y-79957483D01*
X68721202Y-80092328D01*
X68721206Y-80092335D01*
X68807452Y-80207544D01*
X68807455Y-80207547D01*
X68922664Y-80293793D01*
X68922671Y-80293797D01*
X69057517Y-80344091D01*
X69057516Y-80344091D01*
X69064444Y-80344835D01*
X69117127Y-80350500D01*
X70912872Y-80350499D01*
X70972483Y-80344091D01*
X71107331Y-80293796D01*
X71222546Y-80207546D01*
X71308796Y-80092331D01*
X71357810Y-79960916D01*
X71399681Y-79904984D01*
X71465145Y-79880566D01*
X71533418Y-79895417D01*
X71561673Y-79916569D01*
X71683599Y-80038495D01*
X71780384Y-80106265D01*
X71877165Y-80174032D01*
X71877167Y-80174033D01*
X71877170Y-80174035D01*
X72091337Y-80273903D01*
X72319592Y-80335063D01*
X72496034Y-80350500D01*
X72554999Y-80355659D01*
X72555000Y-80355659D01*
X72555001Y-80355659D01*
X72613966Y-80350500D01*
X72790408Y-80335063D01*
X73018663Y-80273903D01*
X73232830Y-80174035D01*
X73426401Y-80038495D01*
X73593495Y-79871401D01*
X73723425Y-79685842D01*
X73778002Y-79642217D01*
X73847500Y-79635023D01*
X73909855Y-79666546D01*
X73926575Y-79685842D01*
X74056500Y-79871395D01*
X74056505Y-79871401D01*
X74223599Y-80038495D01*
X74320384Y-80106265D01*
X74417165Y-80174032D01*
X74417167Y-80174033D01*
X74417170Y-80174035D01*
X74631337Y-80273903D01*
X74859592Y-80335063D01*
X75036034Y-80350500D01*
X75094999Y-80355659D01*
X75095000Y-80355659D01*
X75095001Y-80355659D01*
X75153966Y-80350500D01*
X75330408Y-80335063D01*
X75558663Y-80273903D01*
X75772830Y-80174035D01*
X75966401Y-80038495D01*
X76133495Y-79871401D01*
X76269035Y-79677830D01*
X76368903Y-79463663D01*
X76430063Y-79235408D01*
X76450659Y-79000000D01*
X76430063Y-78764592D01*
X76368903Y-78536337D01*
X76269035Y-78322171D01*
X76263731Y-78314595D01*
X76133494Y-78128597D01*
X75966402Y-77961506D01*
X75966395Y-77961501D01*
X75772834Y-77825967D01*
X75772830Y-77825965D01*
X75772828Y-77825964D01*
X75558663Y-77726097D01*
X75558659Y-77726096D01*
X75558655Y-77726094D01*
X75330413Y-77664938D01*
X75330403Y-77664936D01*
X75095001Y-77644341D01*
X75094999Y-77644341D01*
X74859596Y-77664936D01*
X74859586Y-77664938D01*
X74631344Y-77726094D01*
X74631335Y-77726098D01*
X74417171Y-77825964D01*
X74417169Y-77825965D01*
X74223597Y-77961505D01*
X74056505Y-78128597D01*
X73926575Y-78314158D01*
X73871998Y-78357783D01*
X73802500Y-78364977D01*
X73740145Y-78333454D01*
X73723425Y-78314158D01*
X73593494Y-78128597D01*
X73426402Y-77961506D01*
X73426395Y-77961501D01*
X73232834Y-77825967D01*
X73232830Y-77825965D01*
X73232828Y-77825964D01*
X73018663Y-77726097D01*
X73018659Y-77726096D01*
X73018655Y-77726094D01*
X72790413Y-77664938D01*
X72790403Y-77664936D01*
X72555001Y-77644341D01*
X72554999Y-77644341D01*
X72319596Y-77664936D01*
X72319586Y-77664938D01*
X72091344Y-77726094D01*
X72091335Y-77726098D01*
X71877171Y-77825964D01*
X71877169Y-77825965D01*
X71683600Y-77961503D01*
X71561673Y-78083430D01*
X71500350Y-78116914D01*
X71430658Y-78111930D01*
X71374725Y-78070058D01*
X71357810Y-78039081D01*
X71308797Y-77907671D01*
X71308793Y-77907664D01*
X71222547Y-77792455D01*
X71222544Y-77792452D01*
X71107335Y-77706206D01*
X71107328Y-77706202D01*
X70972482Y-77655908D01*
X70972483Y-77655908D01*
X70912883Y-77649501D01*
X70912881Y-77649500D01*
X70912873Y-77649500D01*
X70912864Y-77649500D01*
X69117129Y-77649500D01*
X69117123Y-77649501D01*
X69057516Y-77655908D01*
X68922671Y-77706202D01*
X68922664Y-77706206D01*
X68807455Y-77792452D01*
X68807452Y-77792455D01*
X68721206Y-77907664D01*
X68721202Y-77907671D01*
X68670908Y-78042517D01*
X68664501Y-78102116D01*
X68664500Y-78102135D01*
X67366323Y-78102135D01*
X67226082Y-77961894D01*
X67032578Y-77826399D01*
X66818492Y-77726570D01*
X66818486Y-77726567D01*
X66605000Y-77669364D01*
X66605000Y-78566988D01*
X66547993Y-78534075D01*
X66420826Y-78500000D01*
X66289174Y-78500000D01*
X66162007Y-78534075D01*
X66105000Y-78566988D01*
X66105000Y-77669364D01*
X66104999Y-77669364D01*
X65891513Y-77726567D01*
X65891507Y-77726570D01*
X65677422Y-77826399D01*
X65677420Y-77826400D01*
X65483926Y-77961886D01*
X65483920Y-77961891D01*
X65316891Y-78128920D01*
X65316890Y-78128922D01*
X65186880Y-78314595D01*
X65132303Y-78358219D01*
X65062804Y-78365412D01*
X65000450Y-78333890D01*
X64983730Y-78314594D01*
X64853494Y-78128597D01*
X64686402Y-77961506D01*
X64686395Y-77961501D01*
X64492834Y-77825967D01*
X64492830Y-77825965D01*
X64492828Y-77825964D01*
X64278663Y-77726097D01*
X64278659Y-77726096D01*
X64278655Y-77726094D01*
X64050413Y-77664938D01*
X64050403Y-77664936D01*
X63815001Y-77644341D01*
X63814999Y-77644341D01*
X63579596Y-77664936D01*
X63579586Y-77664938D01*
X63351344Y-77726094D01*
X63351335Y-77726098D01*
X63137171Y-77825964D01*
X63137169Y-77825965D01*
X62943600Y-77961503D01*
X62821673Y-78083430D01*
X62760350Y-78116914D01*
X62690658Y-78111930D01*
X62634725Y-78070058D01*
X62617810Y-78039081D01*
X62568797Y-77907671D01*
X62568793Y-77907664D01*
X62482547Y-77792455D01*
X62482544Y-77792452D01*
X62367335Y-77706206D01*
X62367328Y-77706202D01*
X62232482Y-77655908D01*
X62232483Y-77655908D01*
X62172883Y-77649501D01*
X62172881Y-77649500D01*
X62172873Y-77649500D01*
X62172864Y-77649500D01*
X60377129Y-77649500D01*
X60377123Y-77649501D01*
X60317516Y-77655908D01*
X60182671Y-77706202D01*
X60182664Y-77706206D01*
X60067455Y-77792452D01*
X60067452Y-77792455D01*
X59981206Y-77907664D01*
X59981202Y-77907671D01*
X59930908Y-78042517D01*
X59924501Y-78102116D01*
X59924500Y-78102135D01*
X52920599Y-78102135D01*
X52924561Y-78093638D01*
X53100822Y-77755045D01*
X53106217Y-77745700D01*
X53311325Y-77423744D01*
X53317515Y-77414905D01*
X53549896Y-77112060D01*
X53556834Y-77103791D01*
X53814726Y-76822352D01*
X53822352Y-76814726D01*
X54054332Y-76602155D01*
X82070000Y-76602155D01*
X82070000Y-77250000D01*
X82986988Y-77250000D01*
X82954075Y-77307007D01*
X82920000Y-77434174D01*
X82920000Y-77565826D01*
X82954075Y-77692993D01*
X82986988Y-77750000D01*
X82070000Y-77750000D01*
X82070000Y-78397844D01*
X82076401Y-78457372D01*
X82076403Y-78457379D01*
X82126645Y-78592086D01*
X82126649Y-78592093D01*
X82212809Y-78707187D01*
X82212812Y-78707190D01*
X82327906Y-78793350D01*
X82327913Y-78793354D01*
X82462620Y-78843596D01*
X82462627Y-78843598D01*
X82522155Y-78849999D01*
X82522172Y-78850000D01*
X83170000Y-78850000D01*
X83170000Y-77933012D01*
X83227007Y-77965925D01*
X83354174Y-78000000D01*
X83485826Y-78000000D01*
X83612993Y-77965925D01*
X83670000Y-77933012D01*
X83670000Y-78850000D01*
X84317828Y-78850000D01*
X84317844Y-78849999D01*
X84377372Y-78843598D01*
X84377379Y-78843596D01*
X84512086Y-78793354D01*
X84512093Y-78793350D01*
X84627187Y-78707190D01*
X84627190Y-78707187D01*
X84713350Y-78592093D01*
X84713354Y-78592086D01*
X84762614Y-78460013D01*
X84804485Y-78404079D01*
X84869949Y-78379662D01*
X84938222Y-78394513D01*
X84966477Y-78415665D01*
X85088917Y-78538105D01*
X85282421Y-78673600D01*
X85496507Y-78773429D01*
X85496516Y-78773433D01*
X85710000Y-78830634D01*
X85710000Y-77933012D01*
X85767007Y-77965925D01*
X85894174Y-78000000D01*
X86025826Y-78000000D01*
X86152993Y-77965925D01*
X86210000Y-77933012D01*
X86210000Y-78830633D01*
X86423483Y-78773433D01*
X86423492Y-78773429D01*
X86637578Y-78673600D01*
X86831082Y-78538105D01*
X86998105Y-78371082D01*
X87128425Y-78184968D01*
X87183002Y-78141344D01*
X87252501Y-78134151D01*
X87314855Y-78165673D01*
X87331575Y-78184968D01*
X87461894Y-78371082D01*
X87628917Y-78538105D01*
X87822421Y-78673600D01*
X88036507Y-78773429D01*
X88036516Y-78773433D01*
X88250000Y-78830634D01*
X88250000Y-77933012D01*
X88307007Y-77965925D01*
X88434174Y-78000000D01*
X88565826Y-78000000D01*
X88692993Y-77965925D01*
X88750000Y-77933012D01*
X88750000Y-78830633D01*
X88963483Y-78773433D01*
X88963492Y-78773429D01*
X89177578Y-78673600D01*
X89371082Y-78538105D01*
X89538105Y-78371082D01*
X89673600Y-78177578D01*
X89773429Y-77963492D01*
X89773432Y-77963486D01*
X89830636Y-77750000D01*
X88933012Y-77750000D01*
X88965925Y-77692993D01*
X89000000Y-77565826D01*
X89000000Y-77434174D01*
X88965925Y-77307007D01*
X88933012Y-77250000D01*
X89830636Y-77250000D01*
X89830635Y-77249999D01*
X89773432Y-77036513D01*
X89773429Y-77036507D01*
X89673600Y-76822422D01*
X89673599Y-76822420D01*
X89538113Y-76628926D01*
X89538108Y-76628920D01*
X89371082Y-76461894D01*
X89177578Y-76326399D01*
X88963492Y-76226570D01*
X88963486Y-76226567D01*
X88750000Y-76169364D01*
X88750000Y-77066988D01*
X88692993Y-77034075D01*
X88565826Y-77000000D01*
X88434174Y-77000000D01*
X88307007Y-77034075D01*
X88250000Y-77066988D01*
X88250000Y-76169364D01*
X88249999Y-76169364D01*
X88036513Y-76226567D01*
X88036507Y-76226570D01*
X87822422Y-76326399D01*
X87822420Y-76326400D01*
X87628926Y-76461886D01*
X87628920Y-76461891D01*
X87461891Y-76628920D01*
X87461890Y-76628922D01*
X87331575Y-76815031D01*
X87276998Y-76858655D01*
X87207499Y-76865848D01*
X87145145Y-76834326D01*
X87128425Y-76815031D01*
X86998109Y-76628922D01*
X86998108Y-76628920D01*
X86831082Y-76461894D01*
X86637578Y-76326399D01*
X86423492Y-76226570D01*
X86423486Y-76226567D01*
X86210000Y-76169364D01*
X86210000Y-77066988D01*
X86152993Y-77034075D01*
X86025826Y-77000000D01*
X85894174Y-77000000D01*
X85767007Y-77034075D01*
X85710000Y-77066988D01*
X85710000Y-76169364D01*
X85709999Y-76169364D01*
X85496513Y-76226567D01*
X85496507Y-76226570D01*
X85282422Y-76326399D01*
X85282420Y-76326400D01*
X85088926Y-76461886D01*
X84966477Y-76584335D01*
X84905154Y-76617819D01*
X84835462Y-76612835D01*
X84779529Y-76570963D01*
X84762614Y-76539986D01*
X84713354Y-76407913D01*
X84713350Y-76407906D01*
X84627190Y-76292812D01*
X84627187Y-76292809D01*
X84512093Y-76206649D01*
X84512086Y-76206645D01*
X84377379Y-76156403D01*
X84377372Y-76156401D01*
X84317844Y-76150000D01*
X83670000Y-76150000D01*
X83670000Y-77066988D01*
X83612993Y-77034075D01*
X83485826Y-77000000D01*
X83354174Y-77000000D01*
X83227007Y-77034075D01*
X83170000Y-77066988D01*
X83170000Y-76150000D01*
X82522155Y-76150000D01*
X82462627Y-76156401D01*
X82462620Y-76156403D01*
X82327913Y-76206645D01*
X82327906Y-76206649D01*
X82212812Y-76292809D01*
X82212809Y-76292812D01*
X82126649Y-76407906D01*
X82126645Y-76407913D01*
X82076403Y-76542620D01*
X82076401Y-76542627D01*
X82070000Y-76602155D01*
X54054332Y-76602155D01*
X54103791Y-76556834D01*
X54112060Y-76549896D01*
X54414905Y-76317515D01*
X54423744Y-76311325D01*
X54745700Y-76106217D01*
X54755045Y-76100822D01*
X55093638Y-75924561D01*
X55103412Y-75920003D01*
X55456095Y-75773917D01*
X55466227Y-75770230D01*
X55830295Y-75655440D01*
X55840709Y-75652649D01*
X56213405Y-75570025D01*
X56224025Y-75568152D01*
X56602495Y-75518326D01*
X56613226Y-75517386D01*
X56997297Y-75500617D01*
X57002706Y-75500500D01*
X57065892Y-75500500D01*
X91934108Y-75500500D01*
X91997294Y-75500500D01*
X92002702Y-75500617D01*
G37*
%TD.AperFunction*%
%TD*%
M02*
