%TF.GenerationSoftware,KiCad,Pcbnew,8.0.6*%
%TF.CreationDate,2025-01-05T16:59:03-06:00*%
%TF.ProjectId,wien + distortion,7769656e-202b-4206-9469-73746f727469,rev?*%
%TF.SameCoordinates,Original*%
%TF.FileFunction,Soldermask,Bot*%
%TF.FilePolarity,Negative*%
%FSLAX46Y46*%
G04 Gerber Fmt 4.6, Leading zero omitted, Abs format (unit mm)*
G04 Created by KiCad (PCBNEW 8.0.6) date 2025-01-05 16:59:03*
%MOMM*%
%LPD*%
G01*
G04 APERTURE LIST*
%ADD10R,1.700000X1.700000*%
%ADD11O,1.700000X1.700000*%
%ADD12R,1.600000X2.400000*%
%ADD13O,1.600000X2.400000*%
G04 APERTURE END LIST*
D10*
%TO.C,J2*%
X80280000Y-89195000D03*
D11*
X80280000Y-86655000D03*
%TD*%
D10*
%TO.C,RV2*%
X61275000Y-79000000D03*
D11*
X63815000Y-79000000D03*
X66355000Y-79000000D03*
%TD*%
D10*
%TO.C,RV5*%
X70015000Y-79000000D03*
D11*
X72555000Y-79000000D03*
X75095000Y-79000000D03*
%TD*%
D10*
%TO.C,J6*%
X83420000Y-77500000D03*
D11*
X85960000Y-77500000D03*
X88500000Y-77500000D03*
%TD*%
D10*
%TO.C,BT1*%
X91350000Y-86645000D03*
D11*
X91350000Y-89185000D03*
%TD*%
D10*
%TO.C,RV1*%
X61275000Y-82700000D03*
D11*
X63815000Y-82700000D03*
X66355000Y-82700000D03*
%TD*%
D10*
%TO.C,J1*%
X60000000Y-95660000D03*
D11*
X60000000Y-98200000D03*
%TD*%
D12*
%TO.C,U1*%
X71040000Y-93945000D03*
D13*
X68500000Y-93945000D03*
X65960000Y-93945000D03*
X63420000Y-93945000D03*
X63420000Y-101565000D03*
X65960000Y-101565000D03*
X68500000Y-101565000D03*
X71040000Y-101565000D03*
%TD*%
D10*
%TO.C,DualPot1*%
X70030000Y-82700000D03*
D11*
X72570000Y-82700000D03*
X75110000Y-82700000D03*
%TD*%
D12*
%TO.C,U2*%
X79700000Y-101595000D03*
D13*
X82240000Y-101595000D03*
X84780000Y-101595000D03*
X87320000Y-101595000D03*
X87320000Y-93975000D03*
X84780000Y-93975000D03*
X82240000Y-93975000D03*
X79700000Y-93975000D03*
%TD*%
D10*
%TO.C,J5*%
X83980000Y-89195000D03*
D11*
X83980000Y-86655000D03*
%TD*%
D10*
%TO.C,RV4*%
X70015000Y-86400000D03*
D11*
X72555000Y-86400000D03*
X75095000Y-86400000D03*
%TD*%
D10*
%TO.C,RV3*%
X61275000Y-86400000D03*
D11*
X63815000Y-86400000D03*
X66355000Y-86400000D03*
%TD*%
D10*
%TO.C,J4*%
X87680000Y-89195000D03*
D11*
X87680000Y-86655000D03*
%TD*%
M02*
