%TF.GenerationSoftware,KiCad,Pcbnew,8.0.6*%
%TF.CreationDate,2025-01-05T16:10:26-06:00*%
%TF.ProjectId,wien + distortion,7769656e-202b-4206-9469-73746f727469,rev?*%
%TF.SameCoordinates,Original*%
%TF.FileFunction,Legend,Top*%
%TF.FilePolarity,Positive*%
%FSLAX46Y46*%
G04 Gerber Fmt 4.6, Leading zero omitted, Abs format (unit mm)*
G04 Created by KiCad (PCBNEW 8.0.6) date 2025-01-05 16:10:26*
%MOMM*%
%LPD*%
G01*
G04 APERTURE LIST*
%ADD10C,0.100000*%
%ADD11C,0.150000*%
%ADD12C,0.120000*%
G04 APERTURE END LIST*
D10*
X69000000Y-84500000D02*
X70100000Y-84500000D01*
X70500000Y-84500000D02*
X70520000Y-84500000D01*
X70920000Y-84500000D02*
X72020000Y-84500000D01*
X72420000Y-84500000D02*
X72440000Y-84500000D01*
X72840000Y-84500000D02*
X73940000Y-84500000D01*
X69000000Y-80500000D02*
X70100000Y-80500000D01*
X70500000Y-80500000D02*
X70520000Y-80500000D01*
X70920000Y-80500000D02*
X72020000Y-80500000D01*
X72420000Y-80500000D02*
X72440000Y-80500000D01*
X72840000Y-80500000D02*
X73940000Y-80500000D01*
X60000000Y-84500000D02*
X61100000Y-84500000D01*
X61500000Y-84500000D02*
X61520000Y-84500000D01*
X61920000Y-84500000D02*
X63020000Y-84500000D01*
X63420000Y-84500000D02*
X63440000Y-84500000D01*
X63840000Y-84500000D02*
X64500000Y-84500000D01*
X68500000Y-81000000D02*
X77000000Y-81000000D01*
X77000000Y-88000000D01*
X68500000Y-88000000D01*
X68500000Y-81000000D01*
X60000000Y-88500000D02*
X61100000Y-88500000D01*
X61500000Y-88500000D02*
X61520000Y-88500000D01*
X61920000Y-88500000D02*
X63020000Y-88500000D01*
X63420000Y-88500000D02*
X63440000Y-88500000D01*
X63840000Y-88500000D02*
X64500000Y-88500000D01*
X78137217Y-82348609D02*
X77803884Y-82348609D01*
X77803884Y-82872419D02*
X77803884Y-81872419D01*
X77803884Y-81872419D02*
X78280074Y-81872419D01*
D11*
X78360588Y-78417438D02*
X78265350Y-78369819D01*
X78265350Y-78369819D02*
X78122493Y-78369819D01*
X78122493Y-78369819D02*
X77979636Y-78417438D01*
X77979636Y-78417438D02*
X77884398Y-78512676D01*
X77884398Y-78512676D02*
X77836779Y-78607914D01*
X77836779Y-78607914D02*
X77789160Y-78798390D01*
X77789160Y-78798390D02*
X77789160Y-78941247D01*
X77789160Y-78941247D02*
X77836779Y-79131723D01*
X77836779Y-79131723D02*
X77884398Y-79226961D01*
X77884398Y-79226961D02*
X77979636Y-79322200D01*
X77979636Y-79322200D02*
X78122493Y-79369819D01*
X78122493Y-79369819D02*
X78217731Y-79369819D01*
X78217731Y-79369819D02*
X78360588Y-79322200D01*
X78360588Y-79322200D02*
X78408207Y-79274580D01*
X78408207Y-79274580D02*
X78408207Y-78941247D01*
X78408207Y-78941247D02*
X78217731Y-78941247D01*
X61360588Y-77369819D02*
X60789160Y-77369819D01*
X61074874Y-77369819D02*
X61074874Y-76369819D01*
X61074874Y-76369819D02*
X60979636Y-76512676D01*
X60979636Y-76512676D02*
X60884398Y-76607914D01*
X60884398Y-76607914D02*
X60789160Y-76655533D01*
D10*
X85803884Y-88991466D02*
X86565789Y-88991466D01*
X86184836Y-89372419D02*
X86184836Y-88610514D01*
D11*
X65741541Y-76369819D02*
X66360588Y-76369819D01*
X66360588Y-76369819D02*
X66027255Y-76750771D01*
X66027255Y-76750771D02*
X66170112Y-76750771D01*
X66170112Y-76750771D02*
X66265350Y-76798390D01*
X66265350Y-76798390D02*
X66312969Y-76846009D01*
X66312969Y-76846009D02*
X66360588Y-76941247D01*
X66360588Y-76941247D02*
X66360588Y-77179342D01*
X66360588Y-77179342D02*
X66312969Y-77274580D01*
X66312969Y-77274580D02*
X66265350Y-77322200D01*
X66265350Y-77322200D02*
X66170112Y-77369819D01*
X66170112Y-77369819D02*
X65884398Y-77369819D01*
X65884398Y-77369819D02*
X65789160Y-77322200D01*
X65789160Y-77322200D02*
X65741541Y-77274580D01*
X72289160Y-76465057D02*
X72336779Y-76417438D01*
X72336779Y-76417438D02*
X72432017Y-76369819D01*
X72432017Y-76369819D02*
X72670112Y-76369819D01*
X72670112Y-76369819D02*
X72765350Y-76417438D01*
X72765350Y-76417438D02*
X72812969Y-76465057D01*
X72812969Y-76465057D02*
X72860588Y-76560295D01*
X72860588Y-76560295D02*
X72860588Y-76655533D01*
X72860588Y-76655533D02*
X72812969Y-76798390D01*
X72812969Y-76798390D02*
X72241541Y-77369819D01*
X72241541Y-77369819D02*
X72860588Y-77369819D01*
X70360588Y-77369819D02*
X69789160Y-77369819D01*
X70074874Y-77369819D02*
X70074874Y-76369819D01*
X70074874Y-76369819D02*
X69979636Y-76512676D01*
X69979636Y-76512676D02*
X69884398Y-76607914D01*
X69884398Y-76607914D02*
X69789160Y-76655533D01*
X57336779Y-86869819D02*
X57336779Y-85869819D01*
X57336779Y-85869819D02*
X57574874Y-85869819D01*
X57574874Y-85869819D02*
X57717731Y-85917438D01*
X57717731Y-85917438D02*
X57812969Y-86012676D01*
X57812969Y-86012676D02*
X57860588Y-86107914D01*
X57860588Y-86107914D02*
X57908207Y-86298390D01*
X57908207Y-86298390D02*
X57908207Y-86441247D01*
X57908207Y-86441247D02*
X57860588Y-86631723D01*
X57860588Y-86631723D02*
X57812969Y-86726961D01*
X57812969Y-86726961D02*
X57717731Y-86822200D01*
X57717731Y-86822200D02*
X57574874Y-86869819D01*
X57574874Y-86869819D02*
X57336779Y-86869819D01*
X57193922Y-78869819D02*
X57527255Y-79869819D01*
X57527255Y-79869819D02*
X57860588Y-78869819D01*
D10*
X87256265Y-84824800D02*
X87399122Y-84872419D01*
X87399122Y-84872419D02*
X87637217Y-84872419D01*
X87637217Y-84872419D02*
X87732455Y-84824800D01*
X87732455Y-84824800D02*
X87780074Y-84777180D01*
X87780074Y-84777180D02*
X87827693Y-84681942D01*
X87827693Y-84681942D02*
X87827693Y-84586704D01*
X87827693Y-84586704D02*
X87780074Y-84491466D01*
X87780074Y-84491466D02*
X87732455Y-84443847D01*
X87732455Y-84443847D02*
X87637217Y-84396228D01*
X87637217Y-84396228D02*
X87446741Y-84348609D01*
X87446741Y-84348609D02*
X87351503Y-84300990D01*
X87351503Y-84300990D02*
X87303884Y-84253371D01*
X87303884Y-84253371D02*
X87256265Y-84158133D01*
X87256265Y-84158133D02*
X87256265Y-84062895D01*
X87256265Y-84062895D02*
X87303884Y-83967657D01*
X87303884Y-83967657D02*
X87351503Y-83920038D01*
X87351503Y-83920038D02*
X87446741Y-83872419D01*
X87446741Y-83872419D02*
X87684836Y-83872419D01*
X87684836Y-83872419D02*
X87827693Y-83920038D01*
X88161027Y-83872419D02*
X88399122Y-84872419D01*
X88399122Y-84872419D02*
X88589598Y-84158133D01*
X88589598Y-84158133D02*
X88780074Y-84872419D01*
X88780074Y-84872419D02*
X89018170Y-83872419D01*
D11*
X74741541Y-76369819D02*
X75360588Y-76369819D01*
X75360588Y-76369819D02*
X75027255Y-76750771D01*
X75027255Y-76750771D02*
X75170112Y-76750771D01*
X75170112Y-76750771D02*
X75265350Y-76798390D01*
X75265350Y-76798390D02*
X75312969Y-76846009D01*
X75312969Y-76846009D02*
X75360588Y-76941247D01*
X75360588Y-76941247D02*
X75360588Y-77179342D01*
X75360588Y-77179342D02*
X75312969Y-77274580D01*
X75312969Y-77274580D02*
X75265350Y-77322200D01*
X75265350Y-77322200D02*
X75170112Y-77369819D01*
X75170112Y-77369819D02*
X74884398Y-77369819D01*
X74884398Y-77369819D02*
X74789160Y-77322200D01*
X74789160Y-77322200D02*
X74741541Y-77274580D01*
D10*
X90851503Y-84872419D02*
X91041979Y-84872419D01*
X91041979Y-84872419D02*
X91137217Y-84824800D01*
X91137217Y-84824800D02*
X91184836Y-84777180D01*
X91184836Y-84777180D02*
X91280074Y-84634323D01*
X91280074Y-84634323D02*
X91327693Y-84443847D01*
X91327693Y-84443847D02*
X91327693Y-84062895D01*
X91327693Y-84062895D02*
X91280074Y-83967657D01*
X91280074Y-83967657D02*
X91232455Y-83920038D01*
X91232455Y-83920038D02*
X91137217Y-83872419D01*
X91137217Y-83872419D02*
X90946741Y-83872419D01*
X90946741Y-83872419D02*
X90851503Y-83920038D01*
X90851503Y-83920038D02*
X90803884Y-83967657D01*
X90803884Y-83967657D02*
X90756265Y-84062895D01*
X90756265Y-84062895D02*
X90756265Y-84300990D01*
X90756265Y-84300990D02*
X90803884Y-84396228D01*
X90803884Y-84396228D02*
X90851503Y-84443847D01*
X90851503Y-84443847D02*
X90946741Y-84491466D01*
X90946741Y-84491466D02*
X91137217Y-84491466D01*
X91137217Y-84491466D02*
X91232455Y-84443847D01*
X91232455Y-84443847D02*
X91280074Y-84396228D01*
X91280074Y-84396228D02*
X91327693Y-84300990D01*
X91613408Y-83872419D02*
X91946741Y-84872419D01*
X91946741Y-84872419D02*
X92280074Y-83872419D01*
X83518646Y-83902419D02*
X83756741Y-84902419D01*
X83756741Y-84902419D02*
X83947217Y-84188133D01*
X83947217Y-84188133D02*
X84137693Y-84902419D01*
X84137693Y-84902419D02*
X84375789Y-83902419D01*
X84947217Y-83902419D02*
X85137693Y-83902419D01*
X85137693Y-83902419D02*
X85232931Y-83950038D01*
X85232931Y-83950038D02*
X85328169Y-84045276D01*
X85328169Y-84045276D02*
X85375788Y-84235752D01*
X85375788Y-84235752D02*
X85375788Y-84569085D01*
X85375788Y-84569085D02*
X85328169Y-84759561D01*
X85328169Y-84759561D02*
X85232931Y-84854800D01*
X85232931Y-84854800D02*
X85137693Y-84902419D01*
X85137693Y-84902419D02*
X84947217Y-84902419D01*
X84947217Y-84902419D02*
X84851979Y-84854800D01*
X84851979Y-84854800D02*
X84756741Y-84759561D01*
X84756741Y-84759561D02*
X84709122Y-84569085D01*
X84709122Y-84569085D02*
X84709122Y-84235752D01*
X84709122Y-84235752D02*
X84756741Y-84045276D01*
X84756741Y-84045276D02*
X84851979Y-83950038D01*
X84851979Y-83950038D02*
X84947217Y-83902419D01*
X92803884Y-86491466D02*
X93565789Y-86491466D01*
X93184836Y-86872419D02*
X93184836Y-86110514D01*
D11*
X57193922Y-82369819D02*
X57765350Y-82369819D01*
X57479636Y-83369819D02*
X57479636Y-82369819D01*
D10*
X79803884Y-84872419D02*
X79803884Y-83872419D01*
X79803884Y-83872419D02*
X80041979Y-83872419D01*
X80041979Y-83872419D02*
X80184836Y-83920038D01*
X80184836Y-83920038D02*
X80280074Y-84015276D01*
X80280074Y-84015276D02*
X80327693Y-84110514D01*
X80327693Y-84110514D02*
X80375312Y-84300990D01*
X80375312Y-84300990D02*
X80375312Y-84443847D01*
X80375312Y-84443847D02*
X80327693Y-84634323D01*
X80327693Y-84634323D02*
X80280074Y-84729561D01*
X80280074Y-84729561D02*
X80184836Y-84824800D01*
X80184836Y-84824800D02*
X80041979Y-84872419D01*
X80041979Y-84872419D02*
X79803884Y-84872419D01*
X80994360Y-83872419D02*
X81184836Y-83872419D01*
X81184836Y-83872419D02*
X81280074Y-83920038D01*
X81280074Y-83920038D02*
X81375312Y-84015276D01*
X81375312Y-84015276D02*
X81422931Y-84205752D01*
X81422931Y-84205752D02*
X81422931Y-84539085D01*
X81422931Y-84539085D02*
X81375312Y-84729561D01*
X81375312Y-84729561D02*
X81280074Y-84824800D01*
X81280074Y-84824800D02*
X81184836Y-84872419D01*
X81184836Y-84872419D02*
X80994360Y-84872419D01*
X80994360Y-84872419D02*
X80899122Y-84824800D01*
X80899122Y-84824800D02*
X80803884Y-84729561D01*
X80803884Y-84729561D02*
X80756265Y-84539085D01*
X80756265Y-84539085D02*
X80756265Y-84205752D01*
X80756265Y-84205752D02*
X80803884Y-84015276D01*
X80803884Y-84015276D02*
X80899122Y-83920038D01*
X80899122Y-83920038D02*
X80994360Y-83872419D01*
D11*
X63289160Y-76465057D02*
X63336779Y-76417438D01*
X63336779Y-76417438D02*
X63432017Y-76369819D01*
X63432017Y-76369819D02*
X63670112Y-76369819D01*
X63670112Y-76369819D02*
X63765350Y-76417438D01*
X63765350Y-76417438D02*
X63812969Y-76465057D01*
X63812969Y-76465057D02*
X63860588Y-76560295D01*
X63860588Y-76560295D02*
X63860588Y-76655533D01*
X63860588Y-76655533D02*
X63812969Y-76798390D01*
X63812969Y-76798390D02*
X63241541Y-77369819D01*
X63241541Y-77369819D02*
X63860588Y-77369819D01*
X80502438Y-78261904D02*
X80454819Y-78357142D01*
X80454819Y-78357142D02*
X80454819Y-78499999D01*
X80454819Y-78499999D02*
X80502438Y-78642856D01*
X80502438Y-78642856D02*
X80597676Y-78738094D01*
X80597676Y-78738094D02*
X80692914Y-78785713D01*
X80692914Y-78785713D02*
X80883390Y-78833332D01*
X80883390Y-78833332D02*
X81026247Y-78833332D01*
X81026247Y-78833332D02*
X81216723Y-78785713D01*
X81216723Y-78785713D02*
X81311961Y-78738094D01*
X81311961Y-78738094D02*
X81407200Y-78642856D01*
X81407200Y-78642856D02*
X81454819Y-78499999D01*
X81454819Y-78499999D02*
X81454819Y-78404761D01*
X81454819Y-78404761D02*
X81407200Y-78261904D01*
X81407200Y-78261904D02*
X81359580Y-78214285D01*
X81359580Y-78214285D02*
X81026247Y-78214285D01*
X81026247Y-78214285D02*
X81026247Y-78404761D01*
X81454819Y-77785713D02*
X80454819Y-77785713D01*
X80454819Y-77785713D02*
X81454819Y-77214285D01*
X81454819Y-77214285D02*
X80454819Y-77214285D01*
X81454819Y-76738094D02*
X80454819Y-76738094D01*
X80454819Y-76738094D02*
X80454819Y-76499999D01*
X80454819Y-76499999D02*
X80502438Y-76357142D01*
X80502438Y-76357142D02*
X80597676Y-76261904D01*
X80597676Y-76261904D02*
X80692914Y-76214285D01*
X80692914Y-76214285D02*
X80883390Y-76166666D01*
X80883390Y-76166666D02*
X81026247Y-76166666D01*
X81026247Y-76166666D02*
X81216723Y-76214285D01*
X81216723Y-76214285D02*
X81311961Y-76261904D01*
X81311961Y-76261904D02*
X81407200Y-76357142D01*
X81407200Y-76357142D02*
X81454819Y-76499999D01*
X81454819Y-76499999D02*
X81454819Y-76738094D01*
D12*
%TO.C,D1*%
X75400000Y-88320000D02*
X73400000Y-88320000D01*
X75400000Y-88320000D02*
X75400000Y-92330000D01*
X73400000Y-88320000D02*
X73400000Y-92330000D01*
%TO.C,J2*%
X78950000Y-87925000D02*
X78950000Y-85325000D01*
X81610000Y-85325000D02*
X78950000Y-85325000D01*
X81610000Y-87925000D02*
X78950000Y-87925000D01*
X81610000Y-87925000D02*
X81610000Y-85325000D01*
X81610000Y-89195000D02*
X81610000Y-90525000D01*
X81610000Y-90525000D02*
X80280000Y-90525000D01*
%TO.C,R1*%
X58132500Y-83067224D02*
X58132500Y-82557776D01*
X59177500Y-83067224D02*
X59177500Y-82557776D01*
%TO.C,C9*%
X89170000Y-93993733D02*
X89170000Y-94286267D01*
X90190000Y-93993733D02*
X90190000Y-94286267D01*
%TO.C,C7*%
X60296267Y-101805000D02*
X60003733Y-101805000D01*
X60296267Y-102825000D02*
X60003733Y-102825000D01*
%TO.C,D3*%
X61565000Y-103942500D02*
X61565000Y-106402500D01*
X61565000Y-106402500D02*
X63035000Y-106402500D01*
X63035000Y-106402500D02*
X63035000Y-103942500D01*
%TO.C,RV2*%
X59945000Y-80330000D02*
X59945000Y-79000000D01*
X61275000Y-80330000D02*
X59945000Y-80330000D01*
X62545000Y-77670000D02*
X67685000Y-77670000D01*
X62545000Y-80330000D02*
X62545000Y-77670000D01*
X62545000Y-80330000D02*
X67685000Y-80330000D01*
X67685000Y-80330000D02*
X67685000Y-77670000D01*
%TO.C,C6*%
X87383733Y-91250000D02*
X87676267Y-91250000D01*
X87383733Y-92270000D02*
X87676267Y-92270000D01*
%TO.C,RV5*%
X68685000Y-80330000D02*
X68685000Y-79000000D01*
X70015000Y-80330000D02*
X68685000Y-80330000D01*
X71285000Y-77670000D02*
X76425000Y-77670000D01*
X71285000Y-80330000D02*
X71285000Y-77670000D01*
X71285000Y-80330000D02*
X76425000Y-80330000D01*
X76425000Y-80330000D02*
X76425000Y-77670000D01*
%TO.C,R7*%
X66577500Y-104532776D02*
X66577500Y-105042224D01*
X67622500Y-104532776D02*
X67622500Y-105042224D01*
%TO.C,R3*%
X68245276Y-89637500D02*
X68754724Y-89637500D01*
X68245276Y-90682500D02*
X68754724Y-90682500D01*
%TO.C,R11*%
X90737500Y-93885276D02*
X90737500Y-94394724D01*
X91782500Y-93885276D02*
X91782500Y-94394724D01*
%TO.C,R5*%
X60211785Y-105042224D02*
X60211785Y-104532776D01*
X61256785Y-105042224D02*
X61256785Y-104532776D01*
%TO.C,R8*%
X77132500Y-86754724D02*
X77132500Y-86245276D01*
X78177500Y-86754724D02*
X78177500Y-86245276D01*
%TO.C,R2*%
X68754724Y-91097500D02*
X68245276Y-91097500D01*
X68754724Y-92142500D02*
X68245276Y-92142500D01*
%TO.C,GND*%
X82090000Y-78830000D02*
X82090000Y-77500000D01*
X83420000Y-78830000D02*
X82090000Y-78830000D01*
X84690000Y-76170000D02*
X89830000Y-76170000D01*
X84690000Y-78830000D02*
X84690000Y-76170000D01*
X84690000Y-78830000D02*
X89830000Y-78830000D01*
X89830000Y-78830000D02*
X89830000Y-76170000D01*
%TO.C,BT1*%
X90020000Y-85315000D02*
X91350000Y-85315000D01*
X90020000Y-86645000D02*
X90020000Y-85315000D01*
X90020000Y-87915000D02*
X90020000Y-90515000D01*
X90020000Y-87915000D02*
X92680000Y-87915000D01*
X90020000Y-90515000D02*
X92680000Y-90515000D01*
X92680000Y-87915000D02*
X92680000Y-90515000D01*
%TO.C,R12*%
X68177500Y-104532776D02*
X68177500Y-105042224D01*
X69222500Y-104532776D02*
X69222500Y-105042224D01*
%TO.C,RV1*%
X59945000Y-84030000D02*
X59945000Y-82700000D01*
X61275000Y-84030000D02*
X59945000Y-84030000D01*
X62545000Y-81370000D02*
X67685000Y-81370000D01*
X62545000Y-84030000D02*
X62545000Y-81370000D01*
X62545000Y-84030000D02*
X67685000Y-84030000D01*
X67685000Y-84030000D02*
X67685000Y-81370000D01*
%TO.C,J1*%
X58670000Y-94330000D02*
X60000000Y-94330000D01*
X58670000Y-95660000D02*
X58670000Y-94330000D01*
X58670000Y-96930000D02*
X58670000Y-99530000D01*
X58670000Y-96930000D02*
X61330000Y-96930000D01*
X58670000Y-99530000D02*
X61330000Y-99530000D01*
X61330000Y-96930000D02*
X61330000Y-99530000D01*
%TO.C,R6*%
X58677500Y-104532776D02*
X58677500Y-105042224D01*
X59722500Y-104532776D02*
X59722500Y-105042224D01*
%TO.C,C5*%
X69790000Y-104641233D02*
X69790000Y-104933767D01*
X70810000Y-104641233D02*
X70810000Y-104933767D01*
%TO.C,U1*%
X62090000Y-95505000D02*
X62090000Y-100005000D01*
X62090000Y-100005000D02*
X72370000Y-100005000D01*
X72370000Y-95505000D02*
X62090000Y-95505000D01*
X72370000Y-96755000D02*
X72370000Y-95505000D01*
X72370000Y-100005000D02*
X72370000Y-98755000D01*
X72370000Y-98755000D02*
G75*
G02*
X72370000Y-96755000I0J1000000D01*
G01*
%TO.C,R10*%
X59895276Y-100285000D02*
X60404724Y-100285000D01*
X59895276Y-101330000D02*
X60404724Y-101330000D01*
%TO.C,R13*%
X81477500Y-104532776D02*
X81477500Y-105042224D01*
X82522500Y-104532776D02*
X82522500Y-105042224D01*
%TO.C,DualPot1*%
X68700000Y-84030000D02*
X68700000Y-82700000D01*
X70030000Y-84030000D02*
X68700000Y-84030000D01*
X71300000Y-81370000D02*
X76440000Y-81370000D01*
X71300000Y-84030000D02*
X71300000Y-81370000D01*
X71300000Y-84030000D02*
X76440000Y-84030000D01*
X76440000Y-84030000D02*
X76440000Y-81370000D01*
%TO.C,U2*%
X78370000Y-95535000D02*
X78370000Y-96785000D01*
X78370000Y-98785000D02*
X78370000Y-100035000D01*
X78370000Y-100035000D02*
X88650000Y-100035000D01*
X88650000Y-95535000D02*
X78370000Y-95535000D01*
X88650000Y-100035000D02*
X88650000Y-95535000D01*
X78370000Y-96785000D02*
G75*
G02*
X78370000Y-98785000I0J-1000000D01*
G01*
%TO.C,C4*%
X71890000Y-90846267D02*
X71890000Y-90553733D01*
X72910000Y-90846267D02*
X72910000Y-90553733D01*
%TO.C,C8*%
X79940000Y-104641233D02*
X79940000Y-104933767D01*
X80960000Y-104641233D02*
X80960000Y-104933767D01*
%TO.C,J5*%
X82650000Y-87925000D02*
X82650000Y-85325000D01*
X85310000Y-85325000D02*
X82650000Y-85325000D01*
X85310000Y-87925000D02*
X82650000Y-87925000D01*
X85310000Y-87925000D02*
X85310000Y-85325000D01*
X85310000Y-89195000D02*
X85310000Y-90525000D01*
X85310000Y-90525000D02*
X83980000Y-90525000D01*
%TO.C,R9*%
X90635276Y-91217500D02*
X91144724Y-91217500D01*
X90635276Y-92262500D02*
X91144724Y-92262500D01*
%TO.C,D4*%
X63165000Y-103127500D02*
X63165000Y-105587500D01*
X64635000Y-103127500D02*
X63165000Y-103127500D01*
X64635000Y-105587500D02*
X64635000Y-103127500D01*
%TO.C,C1*%
X65490000Y-90553733D02*
X65490000Y-90846267D01*
X66510000Y-90553733D02*
X66510000Y-90846267D01*
%TO.C,RV4*%
X68685000Y-87730000D02*
X68685000Y-86400000D01*
X70015000Y-87730000D02*
X68685000Y-87730000D01*
X71285000Y-85070000D02*
X76425000Y-85070000D01*
X71285000Y-87730000D02*
X71285000Y-85070000D01*
X71285000Y-87730000D02*
X76425000Y-87730000D01*
X76425000Y-87730000D02*
X76425000Y-85070000D01*
%TO.C,R4*%
X64977500Y-105042224D02*
X64977500Y-104532776D01*
X66022500Y-105042224D02*
X66022500Y-104532776D01*
%TO.C,RV3*%
X59945000Y-87730000D02*
X59945000Y-86400000D01*
X61275000Y-87730000D02*
X59945000Y-87730000D01*
X62545000Y-85070000D02*
X67685000Y-85070000D01*
X62545000Y-87730000D02*
X62545000Y-85070000D01*
X62545000Y-87730000D02*
X67685000Y-87730000D01*
X67685000Y-87730000D02*
X67685000Y-85070000D01*
%TO.C,C3*%
X70390000Y-90553733D02*
X70390000Y-90846267D01*
X71410000Y-90553733D02*
X71410000Y-90846267D01*
%TO.C,J4*%
X86350000Y-87925000D02*
X86350000Y-85325000D01*
X89010000Y-85325000D02*
X86350000Y-85325000D01*
X89010000Y-87925000D02*
X86350000Y-87925000D01*
X89010000Y-87925000D02*
X89010000Y-85325000D01*
X89010000Y-89195000D02*
X89010000Y-90525000D01*
X89010000Y-90525000D02*
X87680000Y-90525000D01*
%TO.C,C2*%
X58145000Y-86683767D02*
X58145000Y-86391233D01*
X59165000Y-86683767D02*
X59165000Y-86391233D01*
%TO.C,D2*%
X75900000Y-93037500D02*
X77900000Y-93037500D01*
X75900000Y-93037500D02*
X75900000Y-89027500D01*
X77900000Y-93037500D02*
X77900000Y-89027500D01*
%TD*%
M02*
