%TF.GenerationSoftware,KiCad,Pcbnew,8.0.6*%
%TF.CreationDate,2025-01-05T16:59:03-06:00*%
%TF.ProjectId,wien + distortion,7769656e-202b-4206-9469-73746f727469,rev?*%
%TF.SameCoordinates,Original*%
%TF.FileFunction,Copper,L1,Top*%
%TF.FilePolarity,Positive*%
%FSLAX46Y46*%
G04 Gerber Fmt 4.6, Leading zero omitted, Abs format (unit mm)*
G04 Created by KiCad (PCBNEW 8.0.6) date 2025-01-05 16:59:03*
%MOMM*%
%LPD*%
G01*
G04 APERTURE LIST*
G04 Aperture macros list*
%AMRoundRect*
0 Rectangle with rounded corners*
0 $1 Rounding radius*
0 $2 $3 $4 $5 $6 $7 $8 $9 X,Y pos of 4 corners*
0 Add a 4 corners polygon primitive as box body*
4,1,4,$2,$3,$4,$5,$6,$7,$8,$9,$2,$3,0*
0 Add four circle primitives for the rounded corners*
1,1,$1+$1,$2,$3*
1,1,$1+$1,$4,$5*
1,1,$1+$1,$6,$7*
1,1,$1+$1,$8,$9*
0 Add four rect primitives between the rounded corners*
20,1,$1+$1,$2,$3,$4,$5,0*
20,1,$1+$1,$4,$5,$6,$7,0*
20,1,$1+$1,$6,$7,$8,$9,0*
20,1,$1+$1,$8,$9,$2,$3,0*%
G04 Aperture macros list end*
%TA.AperFunction,SMDPad,CuDef*%
%ADD10RoundRect,0.225000X-0.375000X0.225000X-0.375000X-0.225000X0.375000X-0.225000X0.375000X0.225000X0*%
%TD*%
%TA.AperFunction,SMDPad,CuDef*%
%ADD11RoundRect,0.225000X0.375000X-0.225000X0.375000X0.225000X-0.375000X0.225000X-0.375000X-0.225000X0*%
%TD*%
%TA.AperFunction,ComponentPad*%
%ADD12R,1.700000X1.700000*%
%TD*%
%TA.AperFunction,ComponentPad*%
%ADD13O,1.700000X1.700000*%
%TD*%
%TA.AperFunction,SMDPad,CuDef*%
%ADD14RoundRect,0.237500X0.237500X-0.250000X0.237500X0.250000X-0.237500X0.250000X-0.237500X-0.250000X0*%
%TD*%
%TA.AperFunction,SMDPad,CuDef*%
%ADD15RoundRect,0.237500X-0.237500X0.300000X-0.237500X-0.300000X0.237500X-0.300000X0.237500X0.300000X0*%
%TD*%
%TA.AperFunction,SMDPad,CuDef*%
%ADD16RoundRect,0.237500X0.300000X0.237500X-0.300000X0.237500X-0.300000X-0.237500X0.300000X-0.237500X0*%
%TD*%
%TA.AperFunction,SMDPad,CuDef*%
%ADD17RoundRect,0.237500X-0.300000X-0.237500X0.300000X-0.237500X0.300000X0.237500X-0.300000X0.237500X0*%
%TD*%
%TA.AperFunction,SMDPad,CuDef*%
%ADD18RoundRect,0.237500X-0.237500X0.250000X-0.237500X-0.250000X0.237500X-0.250000X0.237500X0.250000X0*%
%TD*%
%TA.AperFunction,SMDPad,CuDef*%
%ADD19RoundRect,0.237500X-0.250000X-0.237500X0.250000X-0.237500X0.250000X0.237500X-0.250000X0.237500X0*%
%TD*%
%TA.AperFunction,SMDPad,CuDef*%
%ADD20RoundRect,0.237500X0.250000X0.237500X-0.250000X0.237500X-0.250000X-0.237500X0.250000X-0.237500X0*%
%TD*%
%TA.AperFunction,ComponentPad*%
%ADD21R,1.600000X2.400000*%
%TD*%
%TA.AperFunction,ComponentPad*%
%ADD22O,1.600000X2.400000*%
%TD*%
%TA.AperFunction,SMDPad,CuDef*%
%ADD23RoundRect,0.237500X0.237500X-0.300000X0.237500X0.300000X-0.237500X0.300000X-0.237500X-0.300000X0*%
%TD*%
%TA.AperFunction,ViaPad*%
%ADD24C,0.600000*%
%TD*%
%TA.AperFunction,Conductor*%
%ADD25C,0.200000*%
%TD*%
G04 APERTURE END LIST*
D10*
%TO.P,D4,1,K*%
%TO.N,Net-(D3-A)*%
X65100000Y-103895000D03*
%TO.P,D4,2,A*%
%TO.N,Net-(D3-K)*%
X65100000Y-107195000D03*
%TD*%
D11*
%TO.P,D3,1,K*%
%TO.N,Net-(D3-K)*%
X62700000Y-107150000D03*
%TO.P,D3,2,A*%
%TO.N,Net-(D3-A)*%
X62700000Y-103850000D03*
%TD*%
D12*
%TO.P,J2,1,Pin_1*%
%TO.N,GND*%
X80280000Y-89195000D03*
D13*
%TO.P,J2,2,Pin_2*%
%TO.N,Net-(J2-Pin_2)*%
X80280000Y-86655000D03*
%TD*%
D14*
%TO.P,R1,1*%
%TO.N,Net-(C2-Pad2)*%
X58655000Y-83725000D03*
%TO.P,R1,2*%
%TO.N,Net-(R1-Pad2)*%
X58655000Y-81900000D03*
%TD*%
D15*
%TO.P,C9,1*%
%TO.N,Net-(U2B-+)*%
X89680000Y-93277500D03*
%TO.P,C9,2*%
%TO.N,GND*%
X89680000Y-95002500D03*
%TD*%
D16*
%TO.P,C7,1*%
%TO.N,Net-(U1B-+)*%
X61012500Y-102315000D03*
%TO.P,C7,2*%
%TO.N,BiasVoltage*%
X59287500Y-102315000D03*
%TD*%
D12*
%TO.P,RV2,1,1*%
%TO.N,Net-(D1-K)*%
X61275000Y-79000000D03*
D13*
%TO.P,RV2,2,2*%
%TO.N,Net-(J2-Pin_2)*%
X63815000Y-79000000D03*
%TO.P,RV2,3,3*%
%TO.N,GND*%
X66355000Y-79000000D03*
%TD*%
D17*
%TO.P,C6,1*%
%TO.N,+9V*%
X86667500Y-91760000D03*
%TO.P,C6,2*%
%TO.N,GND*%
X88392500Y-91760000D03*
%TD*%
D12*
%TO.P,RV5,1,1*%
%TO.N,Net-(C8-Pad1)*%
X70015000Y-79000000D03*
D13*
%TO.P,RV5,2,2*%
X72555000Y-79000000D03*
%TO.P,RV5,3,3*%
%TO.N,Net-(R13-Pad2)*%
X75095000Y-79000000D03*
%TD*%
D18*
%TO.P,R7,1*%
%TO.N,Net-(D3-A)*%
X68700000Y-103875000D03*
%TO.P,R7,2*%
%TO.N,Net-(C5-Pad1)*%
X68700000Y-105700000D03*
%TD*%
D19*
%TO.P,R3,1*%
%TO.N,Net-(U1A--)*%
X67587500Y-90160000D03*
%TO.P,R3,2*%
%TO.N,Net-(R3-Pad2)*%
X69412500Y-90160000D03*
%TD*%
D18*
%TO.P,R11,1*%
%TO.N,Net-(U2B-+)*%
X91260000Y-93227500D03*
%TO.P,R11,2*%
%TO.N,GND*%
X91260000Y-95052500D03*
%TD*%
D14*
%TO.P,R5,1*%
%TO.N,Net-(D3-K)*%
X60734285Y-105700000D03*
%TO.P,R5,2*%
%TO.N,Net-(D3-A)*%
X60734285Y-103875000D03*
%TD*%
%TO.P,R8,1*%
%TO.N,Net-(U1B-+)*%
X77655000Y-87412500D03*
%TO.P,R8,2*%
%TO.N,Net-(R8-Pad2)*%
X77655000Y-85587500D03*
%TD*%
D20*
%TO.P,R2,1*%
%TO.N,Net-(C3-Pad2)*%
X69412500Y-91620000D03*
%TO.P,R2,2*%
%TO.N,Net-(U1A--)*%
X67587500Y-91620000D03*
%TD*%
D12*
%TO.P,J6,1,Pin_1*%
%TO.N,GND*%
X83420000Y-77500000D03*
D13*
%TO.P,J6,2,Pin_2*%
X85960000Y-77500000D03*
%TO.P,J6,3,Pin_3*%
X88500000Y-77500000D03*
%TD*%
D12*
%TO.P,BT1,1,+*%
%TO.N,Net-(BT1-+)*%
X91350000Y-86645000D03*
D13*
%TO.P,BT1,2,-*%
%TO.N,GND*%
X91350000Y-89185000D03*
%TD*%
D12*
%TO.P,RV1,1,1*%
%TO.N,Net-(R1-Pad2)*%
X61275000Y-82700000D03*
D13*
%TO.P,RV1,2,2*%
X63815000Y-82700000D03*
%TO.P,RV1,3,3*%
%TO.N,Net-(D1-K)*%
X66355000Y-82700000D03*
%TD*%
D12*
%TO.P,J1,1,Pin_1*%
%TO.N,Net-(J1-Pin_1)*%
X60000000Y-95660000D03*
D13*
%TO.P,J1,2,Pin_2*%
%TO.N,GND*%
X60000000Y-98200000D03*
%TD*%
D18*
%TO.P,R6,1*%
%TO.N,BiasVoltage*%
X59200000Y-103875000D03*
%TO.P,R6,2*%
%TO.N,Net-(D3-K)*%
X59200000Y-105700000D03*
%TD*%
D15*
%TO.P,C5,1*%
%TO.N,Net-(C5-Pad1)*%
X71900000Y-103925000D03*
%TO.P,C5,2*%
%TO.N,Net-(C5-Pad2)*%
X71900000Y-105650000D03*
%TD*%
D10*
%TO.P,D1,1,K*%
%TO.N,Net-(D1-K)*%
X74400000Y-89030000D03*
%TO.P,D1,2,A*%
%TO.N,GND*%
X74400000Y-92330000D03*
%TD*%
D21*
%TO.P,U1,1*%
%TO.N,Net-(C2-Pad1)*%
X71040000Y-93945000D03*
D22*
%TO.P,U1,2,-*%
%TO.N,Net-(U1A--)*%
X68500000Y-93945000D03*
%TO.P,U1,3,+*%
%TO.N,BiasVoltage*%
X65960000Y-93945000D03*
%TO.P,U1,4,V-*%
%TO.N,GND*%
X63420000Y-93945000D03*
%TO.P,U1,5,+*%
%TO.N,Net-(U1B-+)*%
X63420000Y-101565000D03*
%TO.P,U1,6,-*%
%TO.N,Net-(D3-K)*%
X65960000Y-101565000D03*
%TO.P,U1,7*%
%TO.N,Net-(C5-Pad1)*%
X68500000Y-101565000D03*
%TO.P,U1,8,V+*%
%TO.N,+9V*%
X71040000Y-101565000D03*
%TD*%
D19*
%TO.P,R10,1*%
%TO.N,Net-(DualPot1-Pad1)*%
X59237500Y-100807500D03*
%TO.P,R10,2*%
%TO.N,Net-(U1B-+)*%
X61062500Y-100807500D03*
%TD*%
D18*
%TO.P,R13,1*%
%TO.N,Net-(U2A--)*%
X82000000Y-103875000D03*
%TO.P,R13,2*%
%TO.N,Net-(R13-Pad2)*%
X82000000Y-105700000D03*
%TD*%
D12*
%TO.P,DualPot1,1,1*%
%TO.N,Net-(DualPot1-Pad1)*%
X70030000Y-82700000D03*
D13*
%TO.P,DualPot1,2,2*%
X72570000Y-82700000D03*
%TO.P,DualPot1,3,3*%
%TO.N,BiasVoltage*%
X75110000Y-82700000D03*
%TD*%
D21*
%TO.P,U2,1*%
%TO.N,Net-(C8-Pad1)*%
X79700000Y-101595000D03*
D22*
%TO.P,U2,2,-*%
%TO.N,Net-(U2A--)*%
X82240000Y-101595000D03*
%TO.P,U2,3,+*%
%TO.N,BiasVoltage*%
X84780000Y-101595000D03*
%TO.P,U2,4,V-*%
%TO.N,GND*%
X87320000Y-101595000D03*
%TO.P,U2,5,+*%
%TO.N,Net-(U2B-+)*%
X87320000Y-93975000D03*
%TO.P,U2,6,-*%
%TO.N,BiasVoltage*%
X84780000Y-93975000D03*
%TO.P,U2,7*%
X82240000Y-93975000D03*
%TO.P,U2,8,V+*%
%TO.N,+9V*%
X79700000Y-93975000D03*
%TD*%
D23*
%TO.P,C4,1*%
%TO.N,Net-(D1-K)*%
X72400000Y-91562500D03*
%TO.P,C4,2*%
%TO.N,GND*%
X72400000Y-89837500D03*
%TD*%
D11*
%TO.P,D2,1,K*%
%TO.N,GND*%
X76900000Y-92327500D03*
%TO.P,D2,2,A*%
%TO.N,Net-(D1-K)*%
X76900000Y-89027500D03*
%TD*%
D15*
%TO.P,C8,1*%
%TO.N,Net-(C8-Pad1)*%
X80450000Y-103925000D03*
%TO.P,C8,2*%
%TO.N,Net-(J5-Pin_2)*%
X80450000Y-105650000D03*
%TD*%
D12*
%TO.P,J5,1,Pin_1*%
%TO.N,GND*%
X83980000Y-89195000D03*
D13*
%TO.P,J5,2,Pin_2*%
%TO.N,Net-(J5-Pin_2)*%
X83980000Y-86655000D03*
%TD*%
D19*
%TO.P,R9,1*%
%TO.N,+9V*%
X89977500Y-91740000D03*
%TO.P,R9,2*%
%TO.N,Net-(U2B-+)*%
X91802500Y-91740000D03*
%TD*%
D15*
%TO.P,C1,1*%
%TO.N,Net-(J1-Pin_1)*%
X66000000Y-89837500D03*
%TO.P,C1,2*%
%TO.N,BiasVoltage*%
X66000000Y-91562500D03*
%TD*%
D12*
%TO.P,RV4,1,1*%
%TO.N,Net-(R8-Pad2)*%
X70015000Y-86400000D03*
D13*
%TO.P,RV4,2,2*%
X72555000Y-86400000D03*
%TO.P,RV4,3,3*%
%TO.N,Net-(C5-Pad2)*%
X75095000Y-86400000D03*
%TD*%
D14*
%TO.P,R4,1*%
%TO.N,Net-(D3-K)*%
X67100000Y-105700000D03*
%TO.P,R4,2*%
%TO.N,Net-(D3-A)*%
X67100000Y-103875000D03*
%TD*%
D12*
%TO.P,RV3,1,1*%
%TO.N,Net-(R3-Pad2)*%
X61275000Y-86400000D03*
D13*
%TO.P,RV3,2,2*%
X63815000Y-86400000D03*
%TO.P,RV3,3,3*%
%TO.N,Net-(C2-Pad1)*%
X66355000Y-86400000D03*
%TD*%
D15*
%TO.P,C3,1*%
%TO.N,GND*%
X70900000Y-89837500D03*
%TO.P,C3,2*%
%TO.N,Net-(C3-Pad2)*%
X70900000Y-91562500D03*
%TD*%
D12*
%TO.P,J4,1,Pin_1*%
%TO.N,+9V*%
X87680000Y-89195000D03*
D13*
%TO.P,J4,2,Pin_2*%
%TO.N,Net-(BT1-+)*%
X87680000Y-86655000D03*
%TD*%
D23*
%TO.P,C2,1*%
%TO.N,Net-(C2-Pad1)*%
X58655000Y-87400000D03*
%TO.P,C2,2*%
%TO.N,Net-(C2-Pad2)*%
X58655000Y-85675000D03*
%TD*%
D18*
%TO.P,R12,1*%
%TO.N,Net-(C5-Pad1)*%
X70300000Y-103875000D03*
%TO.P,R12,2*%
%TO.N,Net-(U2A--)*%
X70300000Y-105700000D03*
%TD*%
D24*
%TO.N,GND*%
X73000000Y-93750000D03*
X78750000Y-83500000D03*
X60500000Y-89500000D03*
X68500000Y-107250000D03*
X67000000Y-107250000D03*
X57250000Y-91500000D03*
X58250000Y-91500000D03*
X58250000Y-92500000D03*
X57250000Y-92500000D03*
X76500000Y-96500000D03*
X76500000Y-98500000D03*
X77500000Y-96500000D03*
X76500000Y-97500000D03*
X77500000Y-98500000D03*
X77500000Y-97500000D03*
X75800000Y-103700000D03*
X75800000Y-105700000D03*
X77800000Y-105700000D03*
X77800000Y-104700000D03*
X77800000Y-103700000D03*
X76800000Y-103700000D03*
X75800000Y-104700000D03*
X76800000Y-105700000D03*
X76800000Y-104700000D03*
X81600000Y-97000000D03*
X81600000Y-99000000D03*
X83600000Y-99000000D03*
X83600000Y-98000000D03*
X83600000Y-97000000D03*
X82600000Y-97000000D03*
X81600000Y-98000000D03*
X82600000Y-99000000D03*
X82600000Y-98000000D03*
X68500000Y-97600000D03*
X68500000Y-99600000D03*
X70500000Y-99600000D03*
X70500000Y-98600000D03*
X70500000Y-97600000D03*
X69500000Y-97600000D03*
X68500000Y-98600000D03*
X69500000Y-99600000D03*
X69500000Y-98600000D03*
%TO.N,Net-(U2A--)*%
X70400000Y-106800000D03*
%TO.N,Net-(C2-Pad1)*%
X59560000Y-90580000D03*
X61050000Y-91620000D03*
X61790000Y-93980000D03*
X67220000Y-95820000D03*
%TO.N,GND*%
X91290000Y-96240000D03*
X87240000Y-99410000D03*
X54500000Y-95500000D03*
X90500000Y-97500000D03*
X92460000Y-95030000D03*
X53500000Y-94500000D03*
X55500000Y-95500000D03*
X90500000Y-99500000D03*
X54500000Y-94500000D03*
X90750000Y-77500000D03*
X91500000Y-97500000D03*
X54500000Y-96500000D03*
X82000000Y-76000000D03*
X77400000Y-91400000D03*
X92500000Y-97500000D03*
X89700000Y-96270000D03*
X93180000Y-89490000D03*
X70900000Y-88700000D03*
X55500000Y-91500000D03*
X62620000Y-98100000D03*
X55500000Y-96500000D03*
X84000000Y-91110000D03*
X89460000Y-90260000D03*
X82500000Y-90000000D03*
X92500000Y-98500000D03*
X91500000Y-99500000D03*
X55500000Y-92500000D03*
X89500000Y-98500000D03*
X72400000Y-88700000D03*
X91500000Y-98500000D03*
X53500000Y-95500000D03*
X74400000Y-91300000D03*
X84000000Y-78750000D03*
X68140000Y-78950000D03*
X53500000Y-93500000D03*
X90500000Y-98500000D03*
X54500000Y-92500000D03*
X87300000Y-103940000D03*
X80339265Y-90990735D03*
X55500000Y-93500000D03*
X58300000Y-98220000D03*
X53500000Y-96500000D03*
X53500000Y-92500000D03*
X54500000Y-93500000D03*
X63410000Y-91860000D03*
X55500000Y-94500000D03*
X89500000Y-101560000D03*
X53500000Y-91500000D03*
X89500000Y-97500000D03*
X84000000Y-76000000D03*
X67940000Y-80210000D03*
X89500000Y-99500000D03*
X54500000Y-91500000D03*
X92500000Y-99500000D03*
%TO.N,Net-(U1B-+)*%
X78929998Y-88600000D03*
X75900000Y-93920000D03*
%TO.N,+9V*%
X82470000Y-91750000D03*
X79030000Y-91720000D03*
%TO.N,BiasVoltage*%
X74470000Y-93850000D03*
X76680000Y-87494270D03*
%TO.N,Net-(R8-Pad2)*%
X71850000Y-84650000D03*
X77540000Y-84260000D03*
%TO.N,Net-(U2A--)*%
X83350000Y-104390000D03*
%TO.N,Net-(R13-Pad2)*%
X83510000Y-106020000D03*
X83780000Y-107630000D03*
%TO.N,Net-(R3-Pad2)*%
X67740000Y-88690000D03*
X61910000Y-88430000D03*
%TD*%
D25*
%TO.N,BiasVoltage*%
X82885000Y-99700000D02*
X84780000Y-101595000D01*
X73600000Y-104900000D02*
X78800000Y-99700000D01*
X73600000Y-106800000D02*
X73600000Y-104900000D01*
X72100000Y-108300000D02*
X73600000Y-106800000D01*
X60545778Y-108300000D02*
X72100000Y-108300000D01*
X58200000Y-104875000D02*
X58200000Y-105954222D01*
X59200000Y-103875000D02*
X58200000Y-104875000D01*
X58200000Y-105954222D02*
X60545778Y-108300000D01*
X78800000Y-99700000D02*
X82885000Y-99700000D01*
%TO.N,Net-(U2A--)*%
X70300000Y-106700000D02*
X70400000Y-106800000D01*
X70300000Y-105700000D02*
X70300000Y-106700000D01*
%TO.N,Net-(C5-Pad2)*%
X75095000Y-87095000D02*
X75095000Y-86400000D01*
X77800000Y-88578804D02*
X77421196Y-88200000D01*
X77800000Y-89640000D02*
X77800000Y-88578804D01*
X80800000Y-92640000D02*
X77800000Y-89640000D01*
X76200000Y-88200000D02*
X75095000Y-87095000D01*
X80800000Y-96750000D02*
X80800000Y-92640000D01*
X71900000Y-105650000D02*
X80800000Y-96750000D01*
X77421196Y-88200000D02*
X76200000Y-88200000D01*
%TO.N,Net-(C5-Pad1)*%
X70300000Y-103875000D02*
X70300000Y-103365000D01*
X70300000Y-103365000D02*
X68500000Y-101565000D01*
%TO.N,Net-(D3-K)*%
X65100000Y-107195000D02*
X66595000Y-105700000D01*
X66595000Y-105700000D02*
X67100000Y-105700000D01*
X62745000Y-107195000D02*
X62700000Y-107150000D01*
X65100000Y-107195000D02*
X62745000Y-107195000D01*
X68916722Y-104912500D02*
X67887500Y-104912500D01*
X67887500Y-104912500D02*
X67100000Y-105700000D01*
X69475000Y-103395778D02*
X69475000Y-104354222D01*
X69475000Y-104354222D02*
X68916722Y-104912500D01*
X68066865Y-103087500D02*
X69166722Y-103087500D01*
X69166722Y-103087500D02*
X69475000Y-103395778D01*
X66544365Y-101565000D02*
X68066865Y-103087500D01*
X65960000Y-101565000D02*
X66544365Y-101565000D01*
%TO.N,Net-(C5-Pad1)*%
X71850000Y-103875000D02*
X71900000Y-103925000D01*
X70300000Y-103875000D02*
X71850000Y-103875000D01*
X70300000Y-104100000D02*
X70300000Y-103875000D01*
X68700000Y-105700000D02*
X70300000Y-104100000D01*
%TO.N,Net-(D3-A)*%
X67100000Y-103875000D02*
X68700000Y-103875000D01*
X67080000Y-103895000D02*
X67100000Y-103875000D01*
X65100000Y-103895000D02*
X67080000Y-103895000D01*
X62700000Y-103850000D02*
X65055000Y-103850000D01*
X65055000Y-103850000D02*
X65100000Y-103895000D01*
X62675000Y-103875000D02*
X62700000Y-103850000D01*
X60734285Y-103875000D02*
X62675000Y-103875000D01*
%TO.N,Net-(D3-K)*%
X61250000Y-105700000D02*
X60734285Y-105700000D01*
X62700000Y-107150000D02*
X61250000Y-105700000D01*
%TO.N,Net-(C8-Pad1)*%
X68285000Y-77270000D02*
X70015000Y-79000000D01*
X59470000Y-77270000D02*
X68285000Y-77270000D01*
X56460000Y-80280000D02*
X59470000Y-77270000D01*
X56460000Y-105230000D02*
X56460000Y-80280000D01*
X60030000Y-108800000D02*
X56460000Y-105230000D01*
X79220000Y-106950000D02*
X77370000Y-108800000D01*
X77370000Y-108800000D02*
X60030000Y-108800000D01*
X79220000Y-104610000D02*
X79220000Y-106950000D01*
X79905000Y-103925000D02*
X79220000Y-104610000D01*
X80450000Y-103925000D02*
X79905000Y-103925000D01*
%TO.N,Net-(C2-Pad2)*%
X58655000Y-85675000D02*
X58655000Y-83725000D01*
%TO.N,Net-(BT1-+)*%
X87690000Y-86645000D02*
X87680000Y-86655000D01*
X91350000Y-86645000D02*
X87690000Y-86645000D01*
%TO.N,Net-(C2-Pad1)*%
X61790000Y-93980000D02*
X61790000Y-92360000D01*
X64585000Y-84630000D02*
X60745000Y-84630000D01*
X69165000Y-95820000D02*
X67220000Y-95820000D01*
X59560000Y-90580000D02*
X58655000Y-89675000D01*
X59430000Y-86625000D02*
X58655000Y-87400000D01*
X61790000Y-92360000D02*
X61050000Y-91620000D01*
X60745000Y-84630000D02*
X59430000Y-85945000D01*
X71040000Y-93945000D02*
X69165000Y-95820000D01*
X58655000Y-89675000D02*
X58655000Y-87400000D01*
X59430000Y-85945000D02*
X59430000Y-86625000D01*
X66355000Y-87100000D02*
X66355000Y-86400000D01*
X66355000Y-86400000D02*
X64585000Y-84630000D01*
%TO.N,Net-(U1A--)*%
X67587500Y-90160000D02*
X67587500Y-91620000D01*
X68500000Y-93945000D02*
X68500000Y-92532500D01*
X67687500Y-91620000D02*
X67687500Y-91687500D01*
X68500000Y-92532500D02*
X67587500Y-91620000D01*
X67687500Y-91687500D02*
X68000000Y-92000000D01*
%TO.N,Net-(J1-Pin_1)*%
X64600000Y-94900000D02*
X64600000Y-91237500D01*
X64600000Y-94900000D02*
X63840000Y-95660000D01*
X63840000Y-95660000D02*
X60000000Y-95660000D01*
X64600000Y-91237500D02*
X66000000Y-89837500D01*
%TO.N,Net-(C3-Pad2)*%
X69412500Y-91620000D02*
X70842500Y-91620000D01*
X70842500Y-91620000D02*
X70900000Y-91562500D01*
%TO.N,GND*%
X89465000Y-101595000D02*
X89500000Y-101560000D01*
X91260000Y-95052500D02*
X91260000Y-96210000D01*
X80280000Y-89195000D02*
X80280000Y-90931470D01*
X80280000Y-90931470D02*
X80339265Y-90990735D01*
X88392500Y-91760000D02*
X88392500Y-91327500D01*
X67565000Y-80210000D02*
X67940000Y-80210000D01*
X58300000Y-98220000D02*
X58320000Y-98200000D01*
X83980000Y-89195000D02*
X83305000Y-89195000D01*
X91260000Y-96210000D02*
X91290000Y-96240000D01*
X89680000Y-95002500D02*
X89680000Y-96250000D01*
X80280000Y-89195000D02*
X83980000Y-89195000D01*
X72400000Y-89837500D02*
X72400000Y-88700000D01*
X63420000Y-91870000D02*
X63410000Y-91860000D01*
X58320000Y-98200000D02*
X60000000Y-98200000D01*
X83980000Y-91090000D02*
X84000000Y-91110000D01*
X68090000Y-79000000D02*
X68140000Y-78950000D01*
X76900000Y-92327500D02*
X76900000Y-91900000D01*
X84460000Y-76000000D02*
X85960000Y-77500000D01*
X89730000Y-95052500D02*
X89680000Y-95002500D01*
X66355000Y-79000000D02*
X68090000Y-79000000D01*
X88392500Y-91327500D02*
X89460000Y-90260000D01*
X70900000Y-89837500D02*
X72400000Y-89837500D01*
X88500000Y-77500000D02*
X90750000Y-77500000D01*
X83420000Y-77420000D02*
X82000000Y-76000000D01*
X87320000Y-101595000D02*
X89465000Y-101595000D01*
X87320000Y-101595000D02*
X87320000Y-99490000D01*
X89680000Y-96250000D02*
X89700000Y-96270000D01*
X87320000Y-99490000D02*
X87240000Y-99410000D01*
X66355000Y-79000000D02*
X67565000Y-80210000D01*
X91260000Y-95052500D02*
X92437500Y-95052500D01*
X76900000Y-92327500D02*
X74402500Y-92327500D01*
X70900000Y-89837500D02*
X70900000Y-88700000D01*
X60000000Y-98200000D02*
X62520000Y-98200000D01*
X83305000Y-89195000D02*
X82500000Y-90000000D01*
X62520000Y-98200000D02*
X62620000Y-98100000D01*
X83420000Y-77500000D02*
X83420000Y-77420000D01*
X84710000Y-78750000D02*
X84000000Y-78750000D01*
X83980000Y-89195000D02*
X83980000Y-91090000D01*
X85960000Y-77500000D02*
X84710000Y-78750000D01*
X87320000Y-103920000D02*
X87300000Y-103940000D01*
X63420000Y-93945000D02*
X63420000Y-91870000D01*
X92437500Y-95052500D02*
X92460000Y-95030000D01*
X74400000Y-92330000D02*
X74400000Y-91300000D01*
X76900000Y-91900000D02*
X77400000Y-91400000D01*
X91350000Y-89185000D02*
X92875000Y-89185000D01*
X92875000Y-89185000D02*
X93180000Y-89490000D01*
X91260000Y-95052500D02*
X89730000Y-95052500D01*
X87320000Y-101595000D02*
X87320000Y-103920000D01*
X84000000Y-76000000D02*
X84460000Y-76000000D01*
X74402500Y-92327500D02*
X74400000Y-92330000D01*
%TO.N,Net-(D1-K)*%
X73640000Y-81420000D02*
X67635000Y-81420000D01*
X73945000Y-81725000D02*
X73640000Y-81420000D01*
X74400000Y-89030000D02*
X76624314Y-89030000D01*
X66355000Y-82700000D02*
X65888654Y-82700000D01*
X73945000Y-81725000D02*
X73945000Y-88575000D01*
X67635000Y-81420000D02*
X66355000Y-82700000D01*
X74400000Y-89562500D02*
X72400000Y-91562500D01*
X65888654Y-82700000D02*
X62188654Y-79000000D01*
X62188654Y-79000000D02*
X61275000Y-79000000D01*
X74400000Y-89030000D02*
X74400000Y-89562500D01*
X73945000Y-88575000D02*
X74400000Y-89030000D01*
X76624314Y-89030000D02*
X76760907Y-89166593D01*
%TO.N,Net-(J2-Pin_2)*%
X80280000Y-83890000D02*
X80280000Y-86655000D01*
X77200000Y-80810000D02*
X80280000Y-83890000D01*
X65625000Y-80810000D02*
X77200000Y-80810000D01*
X63815000Y-79000000D02*
X65625000Y-80810000D01*
%TO.N,Net-(C5-Pad1)*%
X70250000Y-103875000D02*
X70300000Y-103925000D01*
%TO.N,Net-(D3-A)*%
X68700000Y-103820000D02*
X68500000Y-103620000D01*
%TO.N,Net-(U1B-+)*%
X72840000Y-96970000D02*
X75090000Y-94720000D01*
X62662500Y-100807500D02*
X63420000Y-101565000D01*
X78929998Y-88600000D02*
X78687498Y-88357500D01*
X78312500Y-87412500D02*
X77655000Y-87412500D01*
X69510000Y-96970000D02*
X72840000Y-96970000D01*
X68015000Y-96970000D02*
X69510000Y-96970000D01*
X61062500Y-100807500D02*
X62662500Y-100807500D01*
X78687498Y-88357500D02*
X78687498Y-87787498D01*
X61062500Y-102265000D02*
X61012500Y-102315000D01*
X63420000Y-101565000D02*
X68015000Y-96970000D01*
X75890000Y-93920000D02*
X75900000Y-93920000D01*
X61062500Y-100807500D02*
X61062500Y-102265000D01*
X75090000Y-94720000D02*
X75890000Y-93920000D01*
X78687498Y-87787498D02*
X78312500Y-87412500D01*
%TO.N,+9V*%
X88886722Y-92570000D02*
X87870635Y-92570000D01*
X75810000Y-98960000D02*
X73205000Y-101565000D01*
X87060635Y-91760000D02*
X86667500Y-91760000D01*
X73205000Y-101565000D02*
X71040000Y-101565000D01*
X75810000Y-95210000D02*
X75810000Y-98960000D01*
X77045000Y-93975000D02*
X75810000Y-95210000D01*
X84950000Y-91750000D02*
X82470000Y-91750000D01*
X89716722Y-91740000D02*
X88886722Y-92570000D01*
X87870635Y-92570000D02*
X87060635Y-91760000D01*
X79030000Y-91720000D02*
X79700000Y-92390000D01*
X85125000Y-91750000D02*
X84950000Y-91750000D01*
X86667500Y-91760000D02*
X84960000Y-91760000D01*
X79700000Y-92390000D02*
X79700000Y-93975000D01*
X89977500Y-91740000D02*
X89716722Y-91740000D01*
X84960000Y-91760000D02*
X84950000Y-91750000D01*
X79700000Y-93975000D02*
X77045000Y-93975000D01*
X87680000Y-89195000D02*
X85125000Y-91750000D01*
%TO.N,BiasVoltage*%
X60200000Y-101402500D02*
X60200000Y-100415778D01*
X76680000Y-84270000D02*
X76680000Y-87494270D01*
X60200000Y-100415778D02*
X61215778Y-99400000D01*
X82240000Y-93975000D02*
X84780000Y-93975000D01*
X74470000Y-93850000D02*
X71750000Y-96570000D01*
X65960000Y-96740000D02*
X66100000Y-96600000D01*
X61215778Y-99400000D02*
X63300000Y-99400000D01*
X66100000Y-94085000D02*
X65960000Y-93945000D01*
X59200000Y-103875000D02*
X59200000Y-102402500D01*
X66100000Y-96600000D02*
X66100000Y-94085000D01*
X66000000Y-93905000D02*
X65960000Y-93945000D01*
X63300000Y-99400000D02*
X65960000Y-96740000D01*
X59200000Y-102402500D02*
X59287500Y-102315000D01*
X66130000Y-96570000D02*
X65960000Y-96740000D01*
X59287500Y-102315000D02*
X60200000Y-101402500D01*
X75110000Y-82700000D02*
X76680000Y-84270000D01*
X66000000Y-91562500D02*
X66000000Y-93905000D01*
X71750000Y-96570000D02*
X66130000Y-96570000D01*
X84780000Y-93975000D02*
X84780000Y-101595000D01*
%TO.N,Net-(DualPot1-Pad1)*%
X62734314Y-88900000D02*
X57700000Y-93934314D01*
X57700000Y-99800000D02*
X58707500Y-100807500D01*
X70030000Y-82700000D02*
X68300000Y-84430000D01*
X68300000Y-86800000D02*
X66200000Y-88900000D01*
X57700000Y-93934314D02*
X57700000Y-99800000D01*
X70030000Y-82700000D02*
X72570000Y-82700000D01*
X58707500Y-100807500D02*
X59237500Y-100807500D01*
X66200000Y-88900000D02*
X62734314Y-88900000D01*
X68300000Y-84430000D02*
X68300000Y-86800000D01*
%TO.N,Net-(C8-Pad1)*%
X79700000Y-101595000D02*
X79700000Y-103175000D01*
X70015000Y-79000000D02*
X72555000Y-79000000D01*
X79700000Y-103175000D02*
X80450000Y-103925000D01*
%TO.N,Net-(J5-Pin_2)*%
X93780000Y-84630000D02*
X93780000Y-104880000D01*
X81300000Y-106770000D02*
X80450000Y-105920000D01*
X91890000Y-106770000D02*
X81300000Y-106770000D01*
X83980000Y-86655000D02*
X82170000Y-84845000D01*
X89520000Y-80370000D02*
X93780000Y-84630000D01*
X82690000Y-80370000D02*
X89520000Y-80370000D01*
X80450000Y-105920000D02*
X80450000Y-105650000D01*
X82170000Y-84845000D02*
X82170000Y-80890000D01*
X82170000Y-80890000D02*
X82690000Y-80370000D01*
X93780000Y-104880000D02*
X91890000Y-106770000D01*
%TO.N,Net-(R1-Pad2)*%
X58655000Y-81900000D02*
X60475000Y-81900000D01*
X60475000Y-81900000D02*
X61275000Y-82700000D01*
X61275000Y-82700000D02*
X63815000Y-82700000D01*
%TO.N,Net-(R8-Pad2)*%
X72555000Y-86400000D02*
X70015000Y-86400000D01*
X71850000Y-84650000D02*
X70100000Y-86400000D01*
X70100000Y-86400000D02*
X70015000Y-86400000D01*
X77655000Y-85587500D02*
X77655000Y-84375000D01*
X77655000Y-84375000D02*
X77540000Y-84260000D01*
%TO.N,Net-(U2A--)*%
X83350000Y-104390000D02*
X82515000Y-104390000D01*
X82240000Y-103635000D02*
X82000000Y-103875000D01*
X82240000Y-101595000D02*
X82240000Y-103635000D01*
X82515000Y-104390000D02*
X82000000Y-103875000D01*
%TO.N,Net-(U2B-+)*%
X91260000Y-93227500D02*
X89730000Y-93227500D01*
X89730000Y-93227500D02*
X89680000Y-93277500D01*
X88017500Y-93277500D02*
X87320000Y-93975000D01*
X91260000Y-92282500D02*
X91802500Y-91740000D01*
X91260000Y-93227500D02*
X91260000Y-92282500D01*
X89680000Y-93277500D02*
X88017500Y-93277500D01*
%TO.N,Net-(R13-Pad2)*%
X89840000Y-79420000D02*
X81740000Y-79420000D01*
X93320000Y-82900000D02*
X89840000Y-79420000D01*
X94680000Y-105230000D02*
X94680000Y-84250000D01*
X81740000Y-79420000D02*
X81320000Y-79000000D01*
X93330000Y-82900000D02*
X93320000Y-82900000D01*
X92190000Y-107720000D02*
X94680000Y-105230000D01*
X82000000Y-105700000D02*
X83190000Y-105700000D01*
X94680000Y-84250000D02*
X93330000Y-82900000D01*
X83190000Y-105700000D02*
X83510000Y-106020000D01*
X83870000Y-107720000D02*
X92190000Y-107720000D01*
X83780000Y-107630000D02*
X83870000Y-107720000D01*
X81320000Y-79000000D02*
X75095000Y-79000000D01*
%TO.N,Net-(D3-K)*%
X60734285Y-105700000D02*
X59200000Y-105700000D01*
X60816785Y-105617500D02*
X60734285Y-105700000D01*
%TO.N,Net-(R3-Pad2)*%
X69210000Y-90160000D02*
X67740000Y-88690000D01*
X61275000Y-86400000D02*
X61275000Y-87795000D01*
X61275000Y-86400000D02*
X63815000Y-86400000D01*
X69412500Y-90160000D02*
X69210000Y-90160000D01*
X61275000Y-87795000D02*
X61910000Y-88430000D01*
%TD*%
%TA.AperFunction,Conductor*%
%TO.N,GND*%
G36*
X78318834Y-101132914D02*
G01*
X78374767Y-101174786D01*
X78399184Y-101240250D01*
X78399500Y-101249096D01*
X78399500Y-102842870D01*
X78399501Y-102842876D01*
X78405908Y-102902483D01*
X78456202Y-103037328D01*
X78456206Y-103037335D01*
X78542452Y-103152544D01*
X78542455Y-103152547D01*
X78657664Y-103238793D01*
X78657671Y-103238797D01*
X78658347Y-103239049D01*
X78792517Y-103289091D01*
X78852127Y-103295500D01*
X79015455Y-103295499D01*
X79082494Y-103315183D01*
X79128249Y-103367987D01*
X79135229Y-103387403D01*
X79140422Y-103406783D01*
X79140425Y-103406790D01*
X79162186Y-103444480D01*
X79162187Y-103444482D01*
X79219475Y-103543709D01*
X79219481Y-103543717D01*
X79240583Y-103564819D01*
X79274068Y-103626142D01*
X79269084Y-103695834D01*
X79240583Y-103740181D01*
X78739481Y-104241282D01*
X78739479Y-104241285D01*
X78689361Y-104328094D01*
X78689359Y-104328096D01*
X78660425Y-104378209D01*
X78660424Y-104378210D01*
X78644544Y-104437472D01*
X78619499Y-104530943D01*
X78619499Y-104530945D01*
X78619499Y-104699046D01*
X78619500Y-104699059D01*
X78619500Y-106649903D01*
X78599815Y-106716942D01*
X78583181Y-106737584D01*
X77157584Y-108163181D01*
X77096261Y-108196666D01*
X77069903Y-108199500D01*
X73349097Y-108199500D01*
X73282058Y-108179815D01*
X73236303Y-108127011D01*
X73226359Y-108057853D01*
X73255384Y-107994297D01*
X73261416Y-107987819D01*
X73390755Y-107858479D01*
X73958506Y-107290727D01*
X73958511Y-107290724D01*
X73968714Y-107280520D01*
X73968716Y-107280520D01*
X74080520Y-107168716D01*
X74159577Y-107031784D01*
X74200500Y-106879057D01*
X74200500Y-105200097D01*
X74220185Y-105133058D01*
X74236819Y-105112416D01*
X76209757Y-103139478D01*
X78187821Y-101161413D01*
X78249142Y-101127930D01*
X78318834Y-101132914D01*
G37*
%TD.AperFunction*%
%TA.AperFunction,Conductor*%
G36*
X67943334Y-106490370D02*
G01*
X67987681Y-106518871D01*
X68001650Y-106532840D01*
X68148484Y-106623408D01*
X68312247Y-106677674D01*
X68413323Y-106688000D01*
X68986676Y-106687999D01*
X68986684Y-106687998D01*
X68986687Y-106687998D01*
X69055653Y-106680953D01*
X69087753Y-106677674D01*
X69251516Y-106623408D01*
X69398350Y-106532840D01*
X69402678Y-106528511D01*
X69463995Y-106495026D01*
X69533687Y-106500007D01*
X69589623Y-106541875D01*
X69614044Y-106607338D01*
X69613580Y-106630074D01*
X69594435Y-106799996D01*
X69594435Y-106800003D01*
X69614630Y-106979249D01*
X69614631Y-106979254D01*
X69674211Y-107149523D01*
X69756523Y-107280521D01*
X69770184Y-107302262D01*
X69897738Y-107429816D01*
X69959068Y-107468352D01*
X69962496Y-107470506D01*
X70008787Y-107522841D01*
X70019435Y-107591894D01*
X69991060Y-107655743D01*
X69932670Y-107694115D01*
X69896524Y-107699500D01*
X66314198Y-107699500D01*
X66247159Y-107679815D01*
X66201404Y-107627011D01*
X66190840Y-107562897D01*
X66191356Y-107557853D01*
X66200500Y-107468345D01*
X66200499Y-106995095D01*
X66220183Y-106928057D01*
X66236813Y-106907420D01*
X66473628Y-106670605D01*
X66534949Y-106637122D01*
X66600311Y-106640582D01*
X66712247Y-106677674D01*
X66813323Y-106688000D01*
X67386676Y-106687999D01*
X67386684Y-106687998D01*
X67386687Y-106687998D01*
X67455653Y-106680953D01*
X67487753Y-106677674D01*
X67651516Y-106623408D01*
X67798350Y-106532840D01*
X67812319Y-106518871D01*
X67873642Y-106485386D01*
X67943334Y-106490370D01*
G37*
%TD.AperFunction*%
%TA.AperFunction,Conductor*%
G36*
X81086942Y-79620185D02*
G01*
X81107583Y-79636818D01*
X81371284Y-79900520D01*
X81371286Y-79900521D01*
X81371290Y-79900524D01*
X81508209Y-79979573D01*
X81508216Y-79979577D01*
X81660943Y-80020501D01*
X81660945Y-80020501D01*
X81826654Y-80020501D01*
X81826670Y-80020500D01*
X81890902Y-80020500D01*
X81957941Y-80040185D01*
X82003696Y-80092989D01*
X82013640Y-80162147D01*
X81984615Y-80225703D01*
X81978583Y-80232181D01*
X81689481Y-80521282D01*
X81689479Y-80521285D01*
X81656612Y-80578214D01*
X81656611Y-80578216D01*
X81610423Y-80658214D01*
X81610423Y-80658215D01*
X81569499Y-80810943D01*
X81569499Y-80810945D01*
X81569499Y-80979046D01*
X81569500Y-80979059D01*
X81569500Y-84758330D01*
X81569499Y-84758348D01*
X81569499Y-84924054D01*
X81569498Y-84924054D01*
X81610422Y-85076782D01*
X81610424Y-85076787D01*
X81614896Y-85084532D01*
X81614897Y-85084534D01*
X81689477Y-85213712D01*
X81689481Y-85213717D01*
X81808349Y-85332585D01*
X81808355Y-85332590D01*
X82647233Y-86171468D01*
X82680718Y-86232791D01*
X82679327Y-86291241D01*
X82644939Y-86419583D01*
X82644936Y-86419596D01*
X82624341Y-86654999D01*
X82624341Y-86655000D01*
X82644936Y-86890403D01*
X82644938Y-86890413D01*
X82706094Y-87118655D01*
X82706096Y-87118659D01*
X82706097Y-87118663D01*
X82805964Y-87332828D01*
X82805965Y-87332830D01*
X82805967Y-87332834D01*
X82887753Y-87449635D01*
X82941501Y-87526396D01*
X82941506Y-87526402D01*
X83063818Y-87648714D01*
X83097303Y-87710037D01*
X83092319Y-87779729D01*
X83050447Y-87835662D01*
X83019471Y-87852577D01*
X82887912Y-87901646D01*
X82887906Y-87901649D01*
X82772812Y-87987809D01*
X82772809Y-87987812D01*
X82686649Y-88102906D01*
X82686645Y-88102913D01*
X82636403Y-88237620D01*
X82636401Y-88237627D01*
X82630000Y-88297155D01*
X82630000Y-88945000D01*
X83546988Y-88945000D01*
X83514075Y-89002007D01*
X83480000Y-89129174D01*
X83480000Y-89260826D01*
X83514075Y-89387993D01*
X83546988Y-89445000D01*
X82630000Y-89445000D01*
X82630000Y-90092844D01*
X82636401Y-90152372D01*
X82636403Y-90152379D01*
X82686645Y-90287086D01*
X82686649Y-90287093D01*
X82772809Y-90402187D01*
X82772812Y-90402190D01*
X82887906Y-90488350D01*
X82887913Y-90488354D01*
X83022620Y-90538596D01*
X83022627Y-90538598D01*
X83082155Y-90544999D01*
X83082172Y-90545000D01*
X83730000Y-90545000D01*
X83730000Y-89628012D01*
X83787007Y-89660925D01*
X83914174Y-89695000D01*
X84045826Y-89695000D01*
X84172993Y-89660925D01*
X84230000Y-89628012D01*
X84230000Y-90545000D01*
X84877828Y-90545000D01*
X84877844Y-90544999D01*
X84937372Y-90538598D01*
X84937379Y-90538596D01*
X85072086Y-90488354D01*
X85072093Y-90488350D01*
X85187187Y-90402190D01*
X85187190Y-90402187D01*
X85273350Y-90287093D01*
X85273354Y-90287086D01*
X85323596Y-90152379D01*
X85323598Y-90152372D01*
X85329999Y-90092844D01*
X85330000Y-90092827D01*
X85330000Y-89445000D01*
X84413012Y-89445000D01*
X84445925Y-89387993D01*
X84480000Y-89260826D01*
X84480000Y-89129174D01*
X84445925Y-89002007D01*
X84413012Y-88945000D01*
X85330000Y-88945000D01*
X85330000Y-88297172D01*
X85329999Y-88297155D01*
X85323598Y-88237627D01*
X85323596Y-88237620D01*
X85273354Y-88102913D01*
X85273350Y-88102906D01*
X85187190Y-87987812D01*
X85187187Y-87987809D01*
X85072093Y-87901649D01*
X85072088Y-87901646D01*
X84940528Y-87852577D01*
X84884595Y-87810705D01*
X84860178Y-87745241D01*
X84875030Y-87676968D01*
X84896175Y-87648720D01*
X85018495Y-87526401D01*
X85154035Y-87332830D01*
X85253903Y-87118663D01*
X85315063Y-86890408D01*
X85335659Y-86655000D01*
X85315063Y-86419592D01*
X85253903Y-86191337D01*
X85154035Y-85977171D01*
X85154034Y-85977169D01*
X85018494Y-85783597D01*
X84851402Y-85616506D01*
X84851395Y-85616501D01*
X84657834Y-85480967D01*
X84657830Y-85480965D01*
X84575378Y-85442517D01*
X84443663Y-85381097D01*
X84443659Y-85381096D01*
X84443655Y-85381094D01*
X84215413Y-85319938D01*
X84215403Y-85319936D01*
X83980001Y-85299341D01*
X83979999Y-85299341D01*
X83744596Y-85319936D01*
X83744583Y-85319939D01*
X83616241Y-85354327D01*
X83546392Y-85352664D01*
X83496468Y-85322233D01*
X82806819Y-84632583D01*
X82773334Y-84571260D01*
X82770500Y-84544902D01*
X82770500Y-81190097D01*
X82790185Y-81123058D01*
X82806819Y-81102416D01*
X82902416Y-81006819D01*
X82963739Y-80973334D01*
X82990097Y-80970500D01*
X89219903Y-80970500D01*
X89286942Y-80990185D01*
X89307584Y-81006819D01*
X93143181Y-84842416D01*
X93176666Y-84903739D01*
X93179500Y-84930097D01*
X93179500Y-104579902D01*
X93159815Y-104646941D01*
X93143181Y-104667583D01*
X91677584Y-106133181D01*
X91616261Y-106166666D01*
X91589903Y-106169500D01*
X84437476Y-106169500D01*
X84370437Y-106149815D01*
X84324682Y-106097011D01*
X84314256Y-106031614D01*
X84315565Y-106019998D01*
X84315565Y-106019996D01*
X84295369Y-105840750D01*
X84295368Y-105840745D01*
X84252272Y-105717585D01*
X84235789Y-105670478D01*
X84139816Y-105517738D01*
X84012262Y-105390184D01*
X83922364Y-105333697D01*
X83859519Y-105294209D01*
X83817404Y-105279472D01*
X83760628Y-105238750D01*
X83734881Y-105173798D01*
X83748338Y-105105236D01*
X83792387Y-105057437D01*
X83852262Y-105019816D01*
X83979816Y-104892262D01*
X84075789Y-104739522D01*
X84135368Y-104569255D01*
X84136103Y-104562735D01*
X84155565Y-104390003D01*
X84155565Y-104389996D01*
X84135369Y-104210750D01*
X84135368Y-104210745D01*
X84075788Y-104040476D01*
X83979815Y-103887737D01*
X83852262Y-103760184D01*
X83699523Y-103664211D01*
X83529254Y-103604631D01*
X83529249Y-103604630D01*
X83350004Y-103584435D01*
X83349996Y-103584435D01*
X83170750Y-103604630D01*
X83170739Y-103604633D01*
X83133418Y-103617692D01*
X83063639Y-103621253D01*
X83003012Y-103586523D01*
X82970786Y-103524530D01*
X82969107Y-103513251D01*
X82965174Y-103474747D01*
X82910908Y-103310984D01*
X82901357Y-103295500D01*
X82887809Y-103273534D01*
X82869369Y-103206142D01*
X82890292Y-103139478D01*
X82920464Y-103108119D01*
X82921607Y-103107288D01*
X82921610Y-103107287D01*
X83087219Y-102986966D01*
X83231966Y-102842219D01*
X83231968Y-102842215D01*
X83231971Y-102842213D01*
X83352284Y-102676614D01*
X83352283Y-102676614D01*
X83352287Y-102676610D01*
X83399516Y-102583917D01*
X83447489Y-102533123D01*
X83515310Y-102516328D01*
X83581445Y-102538865D01*
X83620483Y-102583917D01*
X83629533Y-102601677D01*
X83667715Y-102676614D01*
X83788028Y-102842213D01*
X83932786Y-102986971D01*
X84057098Y-103077287D01*
X84098390Y-103107287D01*
X84179499Y-103148614D01*
X84280776Y-103200218D01*
X84280778Y-103200218D01*
X84280781Y-103200220D01*
X84359841Y-103225908D01*
X84475465Y-103263477D01*
X84538962Y-103273534D01*
X84677648Y-103295500D01*
X84677649Y-103295500D01*
X84882351Y-103295500D01*
X84882352Y-103295500D01*
X85084534Y-103263477D01*
X85279219Y-103200220D01*
X85461610Y-103107287D01*
X85557901Y-103037328D01*
X85627213Y-102986971D01*
X85627215Y-102986968D01*
X85627219Y-102986966D01*
X85771966Y-102842219D01*
X85771968Y-102842215D01*
X85771971Y-102842213D01*
X85892284Y-102676614D01*
X85892283Y-102676614D01*
X85892287Y-102676610D01*
X85939795Y-102583369D01*
X85987770Y-102532574D01*
X86055591Y-102515779D01*
X86121725Y-102538316D01*
X86160765Y-102583370D01*
X86208140Y-102676349D01*
X86328417Y-102841894D01*
X86328417Y-102841895D01*
X86473104Y-102986582D01*
X86638650Y-103106859D01*
X86820968Y-103199754D01*
X87015578Y-103262988D01*
X87070000Y-103271607D01*
X87070000Y-101910686D01*
X87074394Y-101915080D01*
X87165606Y-101967741D01*
X87267339Y-101995000D01*
X87372661Y-101995000D01*
X87474394Y-101967741D01*
X87565606Y-101915080D01*
X87570000Y-101910686D01*
X87570000Y-103271606D01*
X87624421Y-103262988D01*
X87819031Y-103199754D01*
X88001349Y-103106859D01*
X88166894Y-102986582D01*
X88166895Y-102986582D01*
X88311582Y-102841895D01*
X88311582Y-102841894D01*
X88431859Y-102676349D01*
X88524755Y-102494031D01*
X88587990Y-102299417D01*
X88620000Y-102097317D01*
X88620000Y-101845000D01*
X87635686Y-101845000D01*
X87640080Y-101840606D01*
X87692741Y-101749394D01*
X87720000Y-101647661D01*
X87720000Y-101542339D01*
X87692741Y-101440606D01*
X87640080Y-101349394D01*
X87635686Y-101345000D01*
X88620000Y-101345000D01*
X88620000Y-101092682D01*
X88587990Y-100890582D01*
X88524755Y-100695968D01*
X88431859Y-100513650D01*
X88311582Y-100348105D01*
X88311582Y-100348104D01*
X88166895Y-100203417D01*
X88001349Y-100083140D01*
X87819029Y-99990244D01*
X87624413Y-99927009D01*
X87570000Y-99918390D01*
X87570000Y-101279314D01*
X87565606Y-101274920D01*
X87474394Y-101222259D01*
X87372661Y-101195000D01*
X87267339Y-101195000D01*
X87165606Y-101222259D01*
X87074394Y-101274920D01*
X87070000Y-101279314D01*
X87070000Y-99918390D01*
X87015586Y-99927009D01*
X86820970Y-99990244D01*
X86638650Y-100083140D01*
X86473105Y-100203417D01*
X86473104Y-100203417D01*
X86328417Y-100348104D01*
X86328417Y-100348105D01*
X86208140Y-100513650D01*
X86160765Y-100606629D01*
X86112790Y-100657425D01*
X86044969Y-100674220D01*
X85978834Y-100651682D01*
X85939795Y-100606629D01*
X85892419Y-100513650D01*
X85892287Y-100513390D01*
X85870488Y-100483386D01*
X85771971Y-100347786D01*
X85627213Y-100203028D01*
X85461610Y-100082712D01*
X85448200Y-100075879D01*
X85397406Y-100027903D01*
X85380500Y-99965397D01*
X85380500Y-95604601D01*
X85400185Y-95537562D01*
X85448206Y-95494116D01*
X85461610Y-95487287D01*
X85627219Y-95366966D01*
X85771966Y-95222219D01*
X85771968Y-95222215D01*
X85771971Y-95222213D01*
X85892284Y-95056614D01*
X85892285Y-95056613D01*
X85892287Y-95056610D01*
X85939516Y-94963917D01*
X85987489Y-94913123D01*
X86055310Y-94896328D01*
X86121445Y-94918865D01*
X86160483Y-94963917D01*
X86186224Y-95014435D01*
X86207715Y-95056614D01*
X86328028Y-95222213D01*
X86472786Y-95366971D01*
X86597098Y-95457287D01*
X86638390Y-95487287D01*
X86719499Y-95528614D01*
X86820776Y-95580218D01*
X86820778Y-95580218D01*
X86820781Y-95580220D01*
X86895818Y-95604601D01*
X87015465Y-95643477D01*
X87116557Y-95659488D01*
X87217648Y-95675500D01*
X87217649Y-95675500D01*
X87422351Y-95675500D01*
X87422352Y-95675500D01*
X87624534Y-95643477D01*
X87819219Y-95580220D01*
X88001610Y-95487287D01*
X88094590Y-95419732D01*
X88167213Y-95366971D01*
X88167215Y-95366968D01*
X88167219Y-95366966D01*
X88182531Y-95351654D01*
X88705001Y-95351654D01*
X88715319Y-95452652D01*
X88769546Y-95616300D01*
X88769551Y-95616311D01*
X88860052Y-95763034D01*
X88860055Y-95763038D01*
X88981961Y-95884944D01*
X88981965Y-95884947D01*
X89128688Y-95975448D01*
X89128699Y-95975453D01*
X89292347Y-96029680D01*
X89393352Y-96039999D01*
X89430000Y-96039999D01*
X89930000Y-96039999D01*
X89966640Y-96039999D01*
X89966654Y-96039998D01*
X90067652Y-96029680D01*
X90231300Y-95975453D01*
X90231311Y-95975448D01*
X90378034Y-95884947D01*
X90378038Y-95884944D01*
X90382319Y-95880664D01*
X90443642Y-95847179D01*
X90513334Y-95852163D01*
X90557681Y-95880664D01*
X90561961Y-95884944D01*
X90561965Y-95884947D01*
X90708688Y-95975448D01*
X90708699Y-95975453D01*
X90872347Y-96029680D01*
X90973352Y-96039999D01*
X91010000Y-96039999D01*
X91510000Y-96039999D01*
X91546640Y-96039999D01*
X91546654Y-96039998D01*
X91647652Y-96029680D01*
X91811300Y-95975453D01*
X91811311Y-95975448D01*
X91958034Y-95884947D01*
X91958038Y-95884944D01*
X92079944Y-95763038D01*
X92079947Y-95763034D01*
X92170448Y-95616311D01*
X92170453Y-95616300D01*
X92224680Y-95452652D01*
X92234999Y-95351654D01*
X92235000Y-95351641D01*
X92235000Y-95302500D01*
X91510000Y-95302500D01*
X91510000Y-96039999D01*
X91010000Y-96039999D01*
X91010000Y-95302500D01*
X90343362Y-95302500D01*
X90276323Y-95282815D01*
X90255681Y-95266181D01*
X90242000Y-95252500D01*
X89930000Y-95252500D01*
X89930000Y-96039999D01*
X89430000Y-96039999D01*
X89430000Y-95252500D01*
X88705001Y-95252500D01*
X88705001Y-95351654D01*
X88182531Y-95351654D01*
X88311966Y-95222219D01*
X88311968Y-95222215D01*
X88311971Y-95222213D01*
X88430187Y-95059500D01*
X88432287Y-95056610D01*
X88525220Y-94874219D01*
X88536929Y-94838179D01*
X88576367Y-94780506D01*
X88640726Y-94753308D01*
X88654860Y-94752500D01*
X90596638Y-94752500D01*
X90663677Y-94772185D01*
X90684319Y-94788819D01*
X90698000Y-94802500D01*
X92234999Y-94802500D01*
X92234999Y-94753360D01*
X92234998Y-94753345D01*
X92224680Y-94652347D01*
X92170453Y-94488699D01*
X92170448Y-94488688D01*
X92079947Y-94341965D01*
X92079944Y-94341961D01*
X91966017Y-94228034D01*
X91932532Y-94166711D01*
X91937516Y-94097019D01*
X91966013Y-94052676D01*
X92080340Y-93938350D01*
X92170908Y-93791516D01*
X92225174Y-93627753D01*
X92235500Y-93526677D01*
X92235499Y-92928324D01*
X92231930Y-92893390D01*
X92225174Y-92827247D01*
X92223756Y-92820622D01*
X92225240Y-92820304D01*
X92223103Y-92758454D01*
X92258825Y-92698406D01*
X92304209Y-92671554D01*
X92366516Y-92650908D01*
X92513350Y-92560340D01*
X92635340Y-92438350D01*
X92725908Y-92291516D01*
X92780174Y-92127753D01*
X92790500Y-92026677D01*
X92790499Y-91453324D01*
X92788753Y-91436235D01*
X92780174Y-91352247D01*
X92766270Y-91310289D01*
X92725908Y-91188484D01*
X92635340Y-91041650D01*
X92513350Y-90919660D01*
X92399685Y-90849551D01*
X92366518Y-90829093D01*
X92366513Y-90829091D01*
X92365069Y-90828612D01*
X92202753Y-90774826D01*
X92202751Y-90774825D01*
X92101684Y-90764500D01*
X91613092Y-90764500D01*
X91591263Y-90758090D01*
X91583951Y-90761971D01*
X91559038Y-90764500D01*
X91503331Y-90764500D01*
X91503312Y-90764501D01*
X91402247Y-90774825D01*
X91238484Y-90829092D01*
X91238481Y-90829093D01*
X91091648Y-90919661D01*
X90977681Y-91033629D01*
X90916358Y-91067114D01*
X90846666Y-91062130D01*
X90802319Y-91033629D01*
X90688351Y-90919661D01*
X90688350Y-90919660D01*
X90574685Y-90849551D01*
X90541518Y-90829093D01*
X90541513Y-90829091D01*
X90540069Y-90828612D01*
X90377753Y-90774826D01*
X90377751Y-90774825D01*
X90276678Y-90764500D01*
X89678330Y-90764500D01*
X89678312Y-90764501D01*
X89577247Y-90774825D01*
X89413484Y-90829092D01*
X89413481Y-90829093D01*
X89366049Y-90858350D01*
X89266650Y-90919660D01*
X89266648Y-90919661D01*
X89260503Y-90923452D01*
X89259125Y-90921217D01*
X89205654Y-90942774D01*
X89137015Y-90929716D01*
X89128473Y-90924903D01*
X89006305Y-90849548D01*
X89006300Y-90849546D01*
X88842652Y-90795319D01*
X88741654Y-90785000D01*
X88660784Y-90785000D01*
X88593745Y-90765315D01*
X88547990Y-90712511D01*
X88538046Y-90643353D01*
X88567071Y-90579797D01*
X88625849Y-90542023D01*
X88632269Y-90540323D01*
X88637477Y-90539091D01*
X88637483Y-90539091D01*
X88772331Y-90488796D01*
X88887546Y-90402546D01*
X88973796Y-90287331D01*
X89024091Y-90152483D01*
X89030500Y-90092873D01*
X89030499Y-88297128D01*
X89024091Y-88237517D01*
X89022045Y-88232032D01*
X88973797Y-88102671D01*
X88973793Y-88102664D01*
X88887547Y-87987455D01*
X88887544Y-87987452D01*
X88772335Y-87901206D01*
X88772328Y-87901202D01*
X88640917Y-87852189D01*
X88584983Y-87810318D01*
X88560566Y-87744853D01*
X88575418Y-87676580D01*
X88596563Y-87648332D01*
X88718495Y-87526401D01*
X88854035Y-87332830D01*
X88860956Y-87317989D01*
X88861374Y-87317093D01*
X88907547Y-87264655D01*
X88973755Y-87245500D01*
X89875501Y-87245500D01*
X89942540Y-87265185D01*
X89988295Y-87317989D01*
X89999501Y-87369500D01*
X89999501Y-87542876D01*
X90005908Y-87602483D01*
X90056202Y-87737328D01*
X90056206Y-87737335D01*
X90142452Y-87852544D01*
X90142455Y-87852547D01*
X90257664Y-87938793D01*
X90257671Y-87938797D01*
X90299178Y-87954278D01*
X90389598Y-87988002D01*
X90445531Y-88029873D01*
X90469949Y-88095337D01*
X90455098Y-88163610D01*
X90433947Y-88191865D01*
X90311886Y-88313926D01*
X90176400Y-88507420D01*
X90176399Y-88507422D01*
X90076570Y-88721507D01*
X90076567Y-88721513D01*
X90019364Y-88934999D01*
X90019364Y-88935000D01*
X90916988Y-88935000D01*
X90884075Y-88992007D01*
X90850000Y-89119174D01*
X90850000Y-89250826D01*
X90884075Y-89377993D01*
X90916988Y-89435000D01*
X90019364Y-89435000D01*
X90076567Y-89648486D01*
X90076570Y-89648492D01*
X90176399Y-89862578D01*
X90311894Y-90056082D01*
X90478917Y-90223105D01*
X90672421Y-90358600D01*
X90886507Y-90458429D01*
X90886516Y-90458433D01*
X91100000Y-90515634D01*
X91100000Y-89618012D01*
X91157007Y-89650925D01*
X91284174Y-89685000D01*
X91415826Y-89685000D01*
X91542993Y-89650925D01*
X91600000Y-89618012D01*
X91600000Y-90515633D01*
X91813481Y-90458434D01*
X91813492Y-90458429D01*
X92027578Y-90358600D01*
X92221082Y-90223105D01*
X92388105Y-90056082D01*
X92523600Y-89862578D01*
X92623429Y-89648492D01*
X92623432Y-89648486D01*
X92680636Y-89435000D01*
X91783012Y-89435000D01*
X91815925Y-89377993D01*
X91850000Y-89250826D01*
X91850000Y-89119174D01*
X91815925Y-88992007D01*
X91783012Y-88935000D01*
X92680636Y-88935000D01*
X92680635Y-88934999D01*
X92623432Y-88721513D01*
X92623429Y-88721507D01*
X92523600Y-88507422D01*
X92523599Y-88507420D01*
X92388113Y-88313926D01*
X92388108Y-88313920D01*
X92266053Y-88191865D01*
X92232568Y-88130542D01*
X92237552Y-88060850D01*
X92279424Y-88004917D01*
X92310400Y-87988002D01*
X92442331Y-87938796D01*
X92557546Y-87852546D01*
X92643796Y-87737331D01*
X92694091Y-87602483D01*
X92700500Y-87542873D01*
X92700499Y-85747128D01*
X92694091Y-85687517D01*
X92667605Y-85616505D01*
X92643797Y-85552671D01*
X92643793Y-85552664D01*
X92557547Y-85437455D01*
X92557544Y-85437452D01*
X92442335Y-85351206D01*
X92442328Y-85351202D01*
X92307482Y-85300908D01*
X92307483Y-85300908D01*
X92247883Y-85294501D01*
X92247881Y-85294500D01*
X92247873Y-85294500D01*
X92247864Y-85294500D01*
X90452129Y-85294500D01*
X90452123Y-85294501D01*
X90392516Y-85300908D01*
X90257671Y-85351202D01*
X90257664Y-85351206D01*
X90142455Y-85437452D01*
X90142452Y-85437455D01*
X90056206Y-85552664D01*
X90056202Y-85552671D01*
X90005908Y-85687517D01*
X90002183Y-85722171D01*
X89999501Y-85747123D01*
X89999500Y-85747135D01*
X89999500Y-85920500D01*
X89979815Y-85987539D01*
X89927011Y-86033294D01*
X89875500Y-86044500D01*
X88964427Y-86044500D01*
X88897388Y-86024815D01*
X88858835Y-85980654D01*
X88856743Y-85981862D01*
X88854034Y-85977170D01*
X88854033Y-85977169D01*
X88718495Y-85783599D01*
X88718494Y-85783597D01*
X88551402Y-85616506D01*
X88551395Y-85616501D01*
X88357834Y-85480967D01*
X88357830Y-85480965D01*
X88275378Y-85442517D01*
X88143663Y-85381097D01*
X88143659Y-85381096D01*
X88143655Y-85381094D01*
X87915413Y-85319938D01*
X87915403Y-85319936D01*
X87680001Y-85299341D01*
X87679999Y-85299341D01*
X87444596Y-85319936D01*
X87444586Y-85319938D01*
X87216344Y-85381094D01*
X87216335Y-85381098D01*
X87002171Y-85480964D01*
X87002169Y-85480965D01*
X86808597Y-85616505D01*
X86641505Y-85783597D01*
X86505965Y-85977169D01*
X86505964Y-85977171D01*
X86406098Y-86191335D01*
X86406094Y-86191344D01*
X86344938Y-86419586D01*
X86344936Y-86419596D01*
X86324341Y-86654999D01*
X86324341Y-86655000D01*
X86344936Y-86890403D01*
X86344938Y-86890413D01*
X86406094Y-87118655D01*
X86406096Y-87118659D01*
X86406097Y-87118663D01*
X86505964Y-87332828D01*
X86505965Y-87332830D01*
X86505967Y-87332834D01*
X86587753Y-87449635D01*
X86641501Y-87526396D01*
X86641506Y-87526402D01*
X86763430Y-87648326D01*
X86796915Y-87709649D01*
X86791931Y-87779341D01*
X86750059Y-87835274D01*
X86719083Y-87852189D01*
X86587669Y-87901203D01*
X86587664Y-87901206D01*
X86472455Y-87987452D01*
X86472452Y-87987455D01*
X86386206Y-88102664D01*
X86386202Y-88102671D01*
X86335908Y-88237517D01*
X86329501Y-88297116D01*
X86329501Y-88297123D01*
X86329500Y-88297135D01*
X86329500Y-89644901D01*
X86309815Y-89711940D01*
X86293181Y-89732582D01*
X85948027Y-90077737D01*
X85240765Y-90785000D01*
X84912584Y-91113181D01*
X84851261Y-91146666D01*
X84824903Y-91149500D01*
X83052412Y-91149500D01*
X82985373Y-91129815D01*
X82975097Y-91122445D01*
X82972263Y-91120185D01*
X82972262Y-91120184D01*
X82861837Y-91050799D01*
X82819523Y-91024211D01*
X82649254Y-90964631D01*
X82649249Y-90964630D01*
X82470004Y-90944435D01*
X82469996Y-90944435D01*
X82290750Y-90964630D01*
X82290745Y-90964631D01*
X82120476Y-91024211D01*
X81967737Y-91120184D01*
X81840184Y-91247737D01*
X81744211Y-91400476D01*
X81684631Y-91570745D01*
X81684630Y-91570750D01*
X81664435Y-91749996D01*
X81664435Y-91750003D01*
X81684630Y-91929249D01*
X81684631Y-91929254D01*
X81744211Y-92099523D01*
X81800120Y-92188502D01*
X81819120Y-92255739D01*
X81798752Y-92322574D01*
X81745484Y-92367788D01*
X81742577Y-92369036D01*
X81740780Y-92369780D01*
X81558385Y-92462715D01*
X81550156Y-92468694D01*
X81484349Y-92492171D01*
X81416296Y-92476343D01*
X81367603Y-92426235D01*
X81363373Y-92415438D01*
X81362686Y-92415723D01*
X81359579Y-92408223D01*
X81359577Y-92408216D01*
X81347952Y-92388080D01*
X81280524Y-92271290D01*
X81280518Y-92271282D01*
X79765917Y-90756681D01*
X79732432Y-90695358D01*
X79737416Y-90625666D01*
X79779288Y-90569733D01*
X79844752Y-90545316D01*
X79853598Y-90545000D01*
X80030000Y-90545000D01*
X80030000Y-89628012D01*
X80087007Y-89660925D01*
X80214174Y-89695000D01*
X80345826Y-89695000D01*
X80472993Y-89660925D01*
X80530000Y-89628012D01*
X80530000Y-90545000D01*
X81177828Y-90545000D01*
X81177844Y-90544999D01*
X81237372Y-90538598D01*
X81237379Y-90538596D01*
X81372086Y-90488354D01*
X81372093Y-90488350D01*
X81487187Y-90402190D01*
X81487190Y-90402187D01*
X81573350Y-90287093D01*
X81573354Y-90287086D01*
X81623596Y-90152379D01*
X81623598Y-90152372D01*
X81629999Y-90092844D01*
X81630000Y-90092827D01*
X81630000Y-89445000D01*
X80713012Y-89445000D01*
X80745925Y-89387993D01*
X80780000Y-89260826D01*
X80780000Y-89129174D01*
X80745925Y-89002007D01*
X80713012Y-88945000D01*
X81630000Y-88945000D01*
X81630000Y-88297172D01*
X81629999Y-88297155D01*
X81623598Y-88237627D01*
X81623596Y-88237620D01*
X81573354Y-88102913D01*
X81573350Y-88102906D01*
X81487190Y-87987812D01*
X81487187Y-87987809D01*
X81372093Y-87901649D01*
X81372088Y-87901646D01*
X81240528Y-87852577D01*
X81184595Y-87810705D01*
X81160178Y-87745241D01*
X81175030Y-87676968D01*
X81196175Y-87648720D01*
X81318495Y-87526401D01*
X81454035Y-87332830D01*
X81553903Y-87118663D01*
X81615063Y-86890408D01*
X81635659Y-86655000D01*
X81615063Y-86419592D01*
X81553903Y-86191337D01*
X81454035Y-85977171D01*
X81454034Y-85977169D01*
X81318494Y-85783597D01*
X81151402Y-85616506D01*
X81151395Y-85616501D01*
X80957831Y-85480965D01*
X80957826Y-85480962D01*
X80952091Y-85478288D01*
X80899653Y-85432113D01*
X80880500Y-85365908D01*
X80880500Y-83979060D01*
X80880501Y-83979047D01*
X80880501Y-83810944D01*
X80875513Y-83792328D01*
X80839577Y-83658216D01*
X80816145Y-83617630D01*
X80760524Y-83521290D01*
X80760518Y-83521282D01*
X77687590Y-80448355D01*
X77687588Y-80448352D01*
X77568717Y-80329481D01*
X77568716Y-80329480D01*
X77472453Y-80273903D01*
X77431785Y-80250423D01*
X77279057Y-80209499D01*
X77120943Y-80209499D01*
X77113347Y-80209499D01*
X77113331Y-80209500D01*
X76094758Y-80209500D01*
X76027719Y-80189815D01*
X75981964Y-80137011D01*
X75972020Y-80067853D01*
X76001045Y-80004297D01*
X76007077Y-79997819D01*
X76047413Y-79957483D01*
X76133495Y-79871401D01*
X76269035Y-79677830D01*
X76271707Y-79672097D01*
X76317878Y-79619658D01*
X76384091Y-79600500D01*
X81019903Y-79600500D01*
X81086942Y-79620185D01*
G37*
%TD.AperFunction*%
%TA.AperFunction,Conductor*%
G36*
X78376179Y-94595185D02*
G01*
X78421934Y-94647989D01*
X78430037Y-94674877D01*
X78430385Y-94674794D01*
X78431522Y-94679531D01*
X78431523Y-94679534D01*
X78494780Y-94874219D01*
X78585808Y-95052872D01*
X78587715Y-95056613D01*
X78708028Y-95222213D01*
X78852786Y-95366971D01*
X78977098Y-95457287D01*
X79018390Y-95487287D01*
X79099499Y-95528614D01*
X79200776Y-95580218D01*
X79200778Y-95580218D01*
X79200781Y-95580220D01*
X79275818Y-95604601D01*
X79395465Y-95643477D01*
X79496557Y-95659488D01*
X79597648Y-95675500D01*
X79597649Y-95675500D01*
X79802351Y-95675500D01*
X79802352Y-95675500D01*
X80004534Y-95643477D01*
X80004539Y-95643475D01*
X80004541Y-95643475D01*
X80037180Y-95632870D01*
X80107021Y-95630873D01*
X80166855Y-95666953D01*
X80197684Y-95729653D01*
X80199500Y-95750800D01*
X80199500Y-96449902D01*
X80179815Y-96516941D01*
X80163181Y-96537583D01*
X73083138Y-103617625D01*
X73021815Y-103651110D01*
X72952123Y-103646126D01*
X72896190Y-103604254D01*
X72872099Y-103542544D01*
X72865174Y-103474747D01*
X72842653Y-103406785D01*
X72810908Y-103310984D01*
X72720340Y-103164150D01*
X72598350Y-103042160D01*
X72507129Y-102985895D01*
X72451518Y-102951593D01*
X72451513Y-102951591D01*
X72428605Y-102944000D01*
X72287753Y-102897326D01*
X72287751Y-102897325D01*
X72206459Y-102889020D01*
X72141768Y-102862623D01*
X72101617Y-102805442D01*
X72098755Y-102735631D01*
X72118743Y-102692778D01*
X72152287Y-102646610D01*
X72245220Y-102464219D01*
X72308477Y-102269534D01*
X72308478Y-102269525D01*
X72309615Y-102264794D01*
X72310772Y-102265071D01*
X72338313Y-102206971D01*
X72397623Y-102170038D01*
X72430860Y-102165500D01*
X73118331Y-102165500D01*
X73118347Y-102165501D01*
X73125943Y-102165501D01*
X73284054Y-102165501D01*
X73284057Y-102165501D01*
X73436785Y-102124577D01*
X73486904Y-102095639D01*
X73573716Y-102045520D01*
X73685520Y-101933716D01*
X73685520Y-101933714D01*
X73695728Y-101923507D01*
X73695730Y-101923504D01*
X76168506Y-99450728D01*
X76168511Y-99450724D01*
X76178714Y-99440520D01*
X76178716Y-99440520D01*
X76290520Y-99328716D01*
X76369577Y-99191784D01*
X76410500Y-99039057D01*
X76410500Y-95510097D01*
X76430185Y-95443058D01*
X76446819Y-95422416D01*
X77257417Y-94611819D01*
X77318740Y-94578334D01*
X77345098Y-94575500D01*
X78309140Y-94575500D01*
X78376179Y-94595185D01*
G37*
%TD.AperFunction*%
%TA.AperFunction,Conductor*%
G36*
X75128834Y-95632914D02*
G01*
X75184767Y-95674786D01*
X75209184Y-95740250D01*
X75209500Y-95749096D01*
X75209500Y-98659903D01*
X75189815Y-98726942D01*
X75173181Y-98747584D01*
X72992584Y-100928181D01*
X72931261Y-100961666D01*
X72904903Y-100964500D01*
X72430860Y-100964500D01*
X72363821Y-100944815D01*
X72318066Y-100892011D01*
X72309962Y-100865122D01*
X72309615Y-100865206D01*
X72308477Y-100860468D01*
X72308477Y-100860466D01*
X72245220Y-100665781D01*
X72152287Y-100483390D01*
X72144556Y-100472749D01*
X72031971Y-100317786D01*
X71887213Y-100173028D01*
X71721613Y-100052715D01*
X71721612Y-100052714D01*
X71721610Y-100052713D01*
X71664653Y-100023691D01*
X71539223Y-99959781D01*
X71344534Y-99896522D01*
X71169995Y-99868878D01*
X71142352Y-99864500D01*
X70937648Y-99864500D01*
X70913329Y-99868351D01*
X70735465Y-99896522D01*
X70540776Y-99959781D01*
X70358386Y-100052715D01*
X70192786Y-100173028D01*
X70048028Y-100317786D01*
X69927715Y-100483386D01*
X69880485Y-100576080D01*
X69832510Y-100626876D01*
X69764689Y-100643671D01*
X69698554Y-100621134D01*
X69659515Y-100576080D01*
X69627705Y-100513650D01*
X69612287Y-100483390D01*
X69604556Y-100472749D01*
X69491971Y-100317786D01*
X69347213Y-100173028D01*
X69181613Y-100052715D01*
X69181612Y-100052714D01*
X69181610Y-100052713D01*
X69124653Y-100023691D01*
X68999223Y-99959781D01*
X68804534Y-99896522D01*
X68629995Y-99868878D01*
X68602352Y-99864500D01*
X68397648Y-99864500D01*
X68373329Y-99868351D01*
X68195465Y-99896522D01*
X68000776Y-99959781D01*
X67818386Y-100052715D01*
X67652786Y-100173028D01*
X67508028Y-100317786D01*
X67387715Y-100483386D01*
X67340485Y-100576080D01*
X67292510Y-100626876D01*
X67224689Y-100643671D01*
X67158554Y-100621134D01*
X67119515Y-100576080D01*
X67087705Y-100513650D01*
X67072287Y-100483390D01*
X67064556Y-100472749D01*
X66951971Y-100317786D01*
X66807213Y-100173028D01*
X66641613Y-100052715D01*
X66641612Y-100052714D01*
X66641610Y-100052713D01*
X66584653Y-100023691D01*
X66459223Y-99959781D01*
X66264534Y-99896522D01*
X66222764Y-99889907D01*
X66159629Y-99859978D01*
X66122698Y-99800666D01*
X66123696Y-99730803D01*
X66154479Y-99679755D01*
X68227416Y-97606819D01*
X68288739Y-97573334D01*
X68315097Y-97570500D01*
X69430943Y-97570500D01*
X72753331Y-97570500D01*
X72753347Y-97570501D01*
X72760943Y-97570501D01*
X72919054Y-97570501D01*
X72919057Y-97570501D01*
X73071785Y-97529577D01*
X73121904Y-97500639D01*
X73208716Y-97450520D01*
X73320520Y-97338716D01*
X73320520Y-97338714D01*
X73330728Y-97328507D01*
X73330729Y-97328504D01*
X74997820Y-95661413D01*
X75059142Y-95627930D01*
X75128834Y-95632914D01*
G37*
%TD.AperFunction*%
%TA.AperFunction,Conductor*%
G36*
X83581445Y-94918865D02*
G01*
X83620483Y-94963917D01*
X83646224Y-95014435D01*
X83667715Y-95056614D01*
X83788028Y-95222213D01*
X83788034Y-95222219D01*
X83932781Y-95366966D01*
X84098390Y-95487287D01*
X84111793Y-95494116D01*
X84162589Y-95542088D01*
X84179500Y-95604601D01*
X84179500Y-99845902D01*
X84159815Y-99912941D01*
X84107011Y-99958696D01*
X84037853Y-99968640D01*
X83974297Y-99939615D01*
X83967819Y-99933583D01*
X83372590Y-99338355D01*
X83372588Y-99338352D01*
X83253717Y-99219481D01*
X83253709Y-99219475D01*
X83164923Y-99168215D01*
X83164922Y-99168215D01*
X83116785Y-99140423D01*
X82964057Y-99099499D01*
X82805943Y-99099499D01*
X82798347Y-99099499D01*
X82798331Y-99099500D01*
X79599098Y-99099500D01*
X79532059Y-99079815D01*
X79486304Y-99027011D01*
X79476360Y-98957853D01*
X79505385Y-98894297D01*
X79511417Y-98887819D01*
X80392229Y-98007007D01*
X81280520Y-97118716D01*
X81359577Y-96981784D01*
X81400501Y-96829057D01*
X81400501Y-96670942D01*
X81400501Y-96663347D01*
X81400500Y-96663329D01*
X81400500Y-95609187D01*
X81420185Y-95542148D01*
X81472989Y-95496393D01*
X81542147Y-95486449D01*
X81580795Y-95498703D01*
X81740771Y-95580216D01*
X81740776Y-95580217D01*
X81740781Y-95580220D01*
X81851824Y-95616300D01*
X81935465Y-95643477D01*
X82036557Y-95659488D01*
X82137648Y-95675500D01*
X82137649Y-95675500D01*
X82342351Y-95675500D01*
X82342352Y-95675500D01*
X82544534Y-95643477D01*
X82739219Y-95580220D01*
X82921610Y-95487287D01*
X83014590Y-95419732D01*
X83087213Y-95366971D01*
X83087215Y-95366968D01*
X83087219Y-95366966D01*
X83231966Y-95222219D01*
X83231968Y-95222215D01*
X83231971Y-95222213D01*
X83352284Y-95056614D01*
X83352285Y-95056613D01*
X83352287Y-95056610D01*
X83399516Y-94963917D01*
X83447489Y-94913123D01*
X83515310Y-94896328D01*
X83581445Y-94918865D01*
G37*
%TD.AperFunction*%
%TA.AperFunction,Conductor*%
G36*
X60434068Y-92151993D02*
G01*
X60478415Y-92180493D01*
X60547738Y-92249816D01*
X60700478Y-92345789D01*
X60870745Y-92405368D01*
X60957669Y-92415161D01*
X61022080Y-92442226D01*
X61031465Y-92450700D01*
X61153181Y-92572416D01*
X61186666Y-92633739D01*
X61189500Y-92660097D01*
X61189500Y-93397587D01*
X61169815Y-93464626D01*
X61162450Y-93474896D01*
X61160186Y-93477734D01*
X61064211Y-93630476D01*
X61004631Y-93800745D01*
X61004630Y-93800750D01*
X60984435Y-93979996D01*
X60984435Y-93980003D01*
X61005411Y-94166175D01*
X61003810Y-94166355D01*
X61000042Y-94227669D01*
X60958732Y-94284018D01*
X60893515Y-94309089D01*
X60883432Y-94309500D01*
X59102129Y-94309500D01*
X59102123Y-94309501D01*
X59042516Y-94315908D01*
X58907671Y-94366202D01*
X58907664Y-94366206D01*
X58792455Y-94452452D01*
X58792452Y-94452455D01*
X58706206Y-94567664D01*
X58706202Y-94567671D01*
X58655908Y-94702517D01*
X58649501Y-94762116D01*
X58649500Y-94762135D01*
X58649500Y-96557870D01*
X58649501Y-96557876D01*
X58655908Y-96617483D01*
X58706202Y-96752328D01*
X58706206Y-96752335D01*
X58792452Y-96867544D01*
X58792455Y-96867547D01*
X58907664Y-96953793D01*
X58907671Y-96953797D01*
X58907674Y-96953798D01*
X59039598Y-97003002D01*
X59095531Y-97044873D01*
X59119949Y-97110337D01*
X59105098Y-97178610D01*
X59083947Y-97206865D01*
X58961886Y-97328926D01*
X58826400Y-97522420D01*
X58826399Y-97522422D01*
X58726570Y-97736507D01*
X58726567Y-97736513D01*
X58669364Y-97949999D01*
X58669364Y-97950000D01*
X59566988Y-97950000D01*
X59534075Y-98007007D01*
X59500000Y-98134174D01*
X59500000Y-98265826D01*
X59534075Y-98392993D01*
X59566988Y-98450000D01*
X58669364Y-98450000D01*
X58726567Y-98663486D01*
X58726570Y-98663492D01*
X58826399Y-98877578D01*
X58961894Y-99071082D01*
X59128917Y-99238105D01*
X59322421Y-99373600D01*
X59536507Y-99473429D01*
X59536516Y-99473433D01*
X59750000Y-99530634D01*
X59750000Y-98633012D01*
X59807007Y-98665925D01*
X59934174Y-98700000D01*
X60065826Y-98700000D01*
X60192993Y-98665925D01*
X60250000Y-98633012D01*
X60250000Y-99465180D01*
X60230315Y-99532219D01*
X60213681Y-99552861D01*
X59906999Y-99859542D01*
X59845676Y-99893027D01*
X59780316Y-99889567D01*
X59648545Y-99845902D01*
X59637751Y-99842325D01*
X59536678Y-99832000D01*
X58938330Y-99832000D01*
X58938312Y-99832001D01*
X58837247Y-99842325D01*
X58837243Y-99842326D01*
X58725312Y-99879417D01*
X58655483Y-99881819D01*
X58598627Y-99849392D01*
X58336819Y-99587584D01*
X58303334Y-99526261D01*
X58300500Y-99499903D01*
X58300500Y-94234410D01*
X58320185Y-94167371D01*
X58336814Y-94146734D01*
X60303055Y-92180492D01*
X60364376Y-92147009D01*
X60434068Y-92151993D01*
G37*
%TD.AperFunction*%
%TA.AperFunction,Conductor*%
G36*
X65110691Y-95341055D02*
G01*
X65140245Y-95356920D01*
X65278388Y-95457286D01*
X65278390Y-95457287D01*
X65431794Y-95535450D01*
X65482591Y-95583424D01*
X65499500Y-95645935D01*
X65499500Y-96299903D01*
X65479815Y-96366942D01*
X65463181Y-96387584D01*
X63087584Y-98763181D01*
X63026261Y-98796666D01*
X62999903Y-98799500D01*
X61398588Y-98799500D01*
X61331549Y-98779815D01*
X61285794Y-98727011D01*
X61275850Y-98657853D01*
X61278813Y-98643406D01*
X61330636Y-98450000D01*
X60433012Y-98450000D01*
X60465925Y-98392993D01*
X60500000Y-98265826D01*
X60500000Y-98134174D01*
X60465925Y-98007007D01*
X60433012Y-97950000D01*
X61330636Y-97950000D01*
X61330635Y-97949999D01*
X61273432Y-97736513D01*
X61273429Y-97736507D01*
X61173600Y-97522422D01*
X61173599Y-97522420D01*
X61038113Y-97328926D01*
X61038108Y-97328920D01*
X60916053Y-97206865D01*
X60882568Y-97145542D01*
X60887552Y-97075850D01*
X60929424Y-97019917D01*
X60960400Y-97003002D01*
X61092331Y-96953796D01*
X61207546Y-96867546D01*
X61293796Y-96752331D01*
X61344091Y-96617483D01*
X61350500Y-96557873D01*
X61350500Y-96384500D01*
X61370185Y-96317461D01*
X61422989Y-96271706D01*
X61474500Y-96260500D01*
X63753331Y-96260500D01*
X63753347Y-96260501D01*
X63760943Y-96260501D01*
X63919054Y-96260501D01*
X63919057Y-96260501D01*
X64071785Y-96219577D01*
X64139601Y-96180423D01*
X64208716Y-96140520D01*
X64320520Y-96028716D01*
X64320520Y-96028714D01*
X64330724Y-96018511D01*
X64330728Y-96018506D01*
X64958504Y-95390729D01*
X64958514Y-95390722D01*
X64979677Y-95369559D01*
X65040999Y-95336072D01*
X65110691Y-95341055D01*
G37*
%TD.AperFunction*%
%TA.AperFunction,Conductor*%
G36*
X73232509Y-92431645D02*
G01*
X73283212Y-92479718D01*
X73300000Y-92542018D01*
X73300000Y-92603306D01*
X73300001Y-92603323D01*
X73310144Y-92702607D01*
X73363452Y-92863481D01*
X73363457Y-92863492D01*
X73452424Y-93007728D01*
X73452427Y-93007732D01*
X73572267Y-93127572D01*
X73572271Y-93127575D01*
X73716507Y-93216542D01*
X73716520Y-93216548D01*
X73736957Y-93223320D01*
X73794402Y-93263091D01*
X73821226Y-93327607D01*
X73808912Y-93396383D01*
X73802948Y-93406998D01*
X73744210Y-93500478D01*
X73684630Y-93670750D01*
X73674837Y-93757668D01*
X73647770Y-93822082D01*
X73639298Y-93831465D01*
X72552180Y-94918584D01*
X72490857Y-94952069D01*
X72421165Y-94947085D01*
X72365232Y-94905213D01*
X72340815Y-94839749D01*
X72340499Y-94830903D01*
X72340499Y-92724499D01*
X72360184Y-92657460D01*
X72412988Y-92611705D01*
X72464499Y-92600499D01*
X72686670Y-92600499D01*
X72686676Y-92600499D01*
X72787753Y-92590174D01*
X72951516Y-92535908D01*
X73098350Y-92445340D01*
X73098359Y-92445330D01*
X73099074Y-92444766D01*
X73099669Y-92444525D01*
X73104497Y-92441548D01*
X73105005Y-92442372D01*
X73163865Y-92418615D01*
X73232509Y-92431645D01*
G37*
%TD.AperFunction*%
%TA.AperFunction,Conductor*%
G36*
X64967539Y-89520185D02*
G01*
X65013294Y-89572989D01*
X65024500Y-89624500D01*
X65024500Y-89912402D01*
X65004815Y-89979441D01*
X64988181Y-90000083D01*
X64119481Y-90868782D01*
X64119480Y-90868784D01*
X64081463Y-90934632D01*
X64040423Y-91005715D01*
X63999499Y-91158443D01*
X63999499Y-91158445D01*
X63999499Y-91326546D01*
X63999500Y-91326559D01*
X63999500Y-92195718D01*
X63979815Y-92262757D01*
X63927011Y-92308512D01*
X63857853Y-92318456D01*
X63837183Y-92313649D01*
X63724418Y-92277010D01*
X63724413Y-92277009D01*
X63670000Y-92268390D01*
X63670000Y-93629314D01*
X63665606Y-93624920D01*
X63574394Y-93572259D01*
X63472661Y-93545000D01*
X63367339Y-93545000D01*
X63265606Y-93572259D01*
X63174394Y-93624920D01*
X63170000Y-93629314D01*
X63170000Y-92268390D01*
X63115586Y-92277009D01*
X62920970Y-92340244D01*
X62738647Y-92433142D01*
X62587386Y-92543040D01*
X62521580Y-92566520D01*
X62453526Y-92550695D01*
X62404831Y-92500589D01*
X62390501Y-92442722D01*
X62390501Y-92280945D01*
X62390501Y-92280943D01*
X62349577Y-92128215D01*
X62308008Y-92056216D01*
X62270520Y-91991284D01*
X62158716Y-91879480D01*
X62154385Y-91875149D01*
X62154374Y-91875139D01*
X61880700Y-91601465D01*
X61847215Y-91540142D01*
X61845163Y-91527686D01*
X61835368Y-91440745D01*
X61775789Y-91270478D01*
X61679816Y-91117738D01*
X61610493Y-91048415D01*
X61577009Y-90987091D01*
X61581994Y-90917400D01*
X61610492Y-90873055D01*
X62946730Y-89536819D01*
X63008053Y-89503334D01*
X63034411Y-89500500D01*
X64900500Y-89500500D01*
X64967539Y-89520185D01*
G37*
%TD.AperFunction*%
%TA.AperFunction,Conductor*%
G36*
X59883513Y-77890185D02*
G01*
X59929268Y-77942989D01*
X59939212Y-78012147D01*
X59932655Y-78037835D01*
X59930908Y-78042516D01*
X59924501Y-78102116D01*
X59924500Y-78102135D01*
X59924500Y-79897870D01*
X59924501Y-79897876D01*
X59930908Y-79957483D01*
X59981202Y-80092328D01*
X59981206Y-80092335D01*
X60067452Y-80207544D01*
X60067455Y-80207547D01*
X60182664Y-80293793D01*
X60182671Y-80293797D01*
X60317517Y-80344091D01*
X60317516Y-80344091D01*
X60324444Y-80344835D01*
X60377127Y-80350500D01*
X62172872Y-80350499D01*
X62232483Y-80344091D01*
X62367331Y-80293796D01*
X62367973Y-80293314D01*
X62433371Y-80244359D01*
X62498835Y-80219941D01*
X62567108Y-80234792D01*
X62595363Y-80255944D01*
X63526121Y-81186702D01*
X63559606Y-81248025D01*
X63554622Y-81317717D01*
X63512750Y-81373650D01*
X63470534Y-81394158D01*
X63351341Y-81426095D01*
X63351335Y-81426098D01*
X63137171Y-81525964D01*
X63137169Y-81525965D01*
X62943600Y-81661503D01*
X62821673Y-81783430D01*
X62760350Y-81816914D01*
X62690658Y-81811930D01*
X62634725Y-81770058D01*
X62617810Y-81739081D01*
X62568797Y-81607671D01*
X62568793Y-81607664D01*
X62482547Y-81492455D01*
X62482544Y-81492452D01*
X62367335Y-81406206D01*
X62367328Y-81406202D01*
X62232482Y-81355908D01*
X62232483Y-81355908D01*
X62172883Y-81349501D01*
X62172881Y-81349500D01*
X62172873Y-81349500D01*
X62172865Y-81349500D01*
X60753363Y-81349500D01*
X60714819Y-81341834D01*
X60714634Y-81342527D01*
X60706787Y-81340424D01*
X60706785Y-81340423D01*
X60554057Y-81299499D01*
X60395943Y-81299499D01*
X60388347Y-81299499D01*
X60388331Y-81299500D01*
X59612611Y-81299500D01*
X59545572Y-81279815D01*
X59507072Y-81240596D01*
X59475340Y-81189150D01*
X59353351Y-81067161D01*
X59353350Y-81067160D01*
X59206516Y-80976592D01*
X59042753Y-80922326D01*
X59042751Y-80922325D01*
X58941678Y-80912000D01*
X58368330Y-80912000D01*
X58368312Y-80912001D01*
X58267247Y-80922325D01*
X58103484Y-80976592D01*
X58103481Y-80976593D01*
X57956648Y-81067161D01*
X57834661Y-81189148D01*
X57744093Y-81335981D01*
X57744091Y-81335986D01*
X57731232Y-81374793D01*
X57689826Y-81499747D01*
X57689826Y-81499748D01*
X57689825Y-81499748D01*
X57679500Y-81600815D01*
X57679500Y-82199169D01*
X57679501Y-82199187D01*
X57689825Y-82300252D01*
X57744092Y-82464015D01*
X57744093Y-82464018D01*
X57774108Y-82512679D01*
X57834659Y-82610849D01*
X57834661Y-82610851D01*
X57948629Y-82724819D01*
X57982114Y-82786142D01*
X57977130Y-82855834D01*
X57948629Y-82900181D01*
X57834661Y-83014148D01*
X57744093Y-83160981D01*
X57744091Y-83160986D01*
X57718709Y-83237583D01*
X57689826Y-83324747D01*
X57689826Y-83324748D01*
X57689825Y-83324748D01*
X57679500Y-83425815D01*
X57679500Y-84024169D01*
X57679501Y-84024187D01*
X57689825Y-84125252D01*
X57726109Y-84234749D01*
X57744092Y-84289016D01*
X57834660Y-84435850D01*
X57956650Y-84557840D01*
X57975490Y-84569461D01*
X58022214Y-84621406D01*
X58033438Y-84690368D01*
X58005596Y-84754451D01*
X57975495Y-84780535D01*
X57956652Y-84792158D01*
X57956649Y-84792160D01*
X57834661Y-84914148D01*
X57744093Y-85060981D01*
X57744091Y-85060986D01*
X57722515Y-85126098D01*
X57689826Y-85224747D01*
X57689826Y-85224748D01*
X57689825Y-85224748D01*
X57679500Y-85325815D01*
X57679500Y-86024169D01*
X57679501Y-86024187D01*
X57689825Y-86125252D01*
X57721915Y-86222091D01*
X57744092Y-86289016D01*
X57825093Y-86420340D01*
X57834661Y-86435851D01*
X57848629Y-86449819D01*
X57882114Y-86511142D01*
X57877130Y-86580834D01*
X57848629Y-86625181D01*
X57834661Y-86639148D01*
X57744093Y-86785981D01*
X57744092Y-86785984D01*
X57689826Y-86949747D01*
X57689826Y-86949748D01*
X57689825Y-86949748D01*
X57679500Y-87050815D01*
X57679500Y-87749169D01*
X57679501Y-87749187D01*
X57689825Y-87850252D01*
X57706710Y-87901206D01*
X57744092Y-88014016D01*
X57834660Y-88160850D01*
X57956650Y-88282840D01*
X57995597Y-88306862D01*
X58042320Y-88358807D01*
X58054500Y-88412400D01*
X58054500Y-89588330D01*
X58054499Y-89588348D01*
X58054499Y-89754054D01*
X58054498Y-89754054D01*
X58095422Y-89906783D01*
X58120480Y-89950185D01*
X58174477Y-90043712D01*
X58174481Y-90043717D01*
X58293349Y-90162585D01*
X58293355Y-90162590D01*
X58729298Y-90598533D01*
X58762783Y-90659856D01*
X58764837Y-90672330D01*
X58774630Y-90759249D01*
X58774631Y-90759254D01*
X58774632Y-90759255D01*
X58778885Y-90771410D01*
X58834210Y-90929521D01*
X58904666Y-91041650D01*
X58930184Y-91082262D01*
X59057738Y-91209816D01*
X59127794Y-91253835D01*
X59210479Y-91305790D01*
X59223337Y-91310289D01*
X59280114Y-91351010D01*
X59305862Y-91415962D01*
X59292406Y-91484524D01*
X59270065Y-91515012D01*
X57331286Y-93453792D01*
X57272181Y-93512897D01*
X57210858Y-93546382D01*
X57141166Y-93541398D01*
X57085233Y-93499526D01*
X57060816Y-93434062D01*
X57060500Y-93425216D01*
X57060500Y-80580097D01*
X57080185Y-80513058D01*
X57096819Y-80492416D01*
X59682416Y-77906819D01*
X59743739Y-77873334D01*
X59770097Y-77870500D01*
X59816474Y-77870500D01*
X59883513Y-77890185D01*
G37*
%TD.AperFunction*%
%TA.AperFunction,Conductor*%
G36*
X75903577Y-89650185D02*
G01*
X75942077Y-89689404D01*
X75952031Y-89705543D01*
X76071955Y-89825467D01*
X76071959Y-89825470D01*
X76216294Y-89914498D01*
X76216297Y-89914499D01*
X76216303Y-89914503D01*
X76377292Y-89967849D01*
X76476655Y-89978000D01*
X77237400Y-89977999D01*
X77304439Y-89997683D01*
X77325081Y-90014317D01*
X77431284Y-90120520D01*
X77431285Y-90120520D01*
X77438352Y-90127587D01*
X77438351Y-90127587D01*
X77438355Y-90127590D01*
X78379776Y-91069011D01*
X78413261Y-91130334D01*
X78408277Y-91200026D01*
X78397089Y-91222664D01*
X78304211Y-91370476D01*
X78244631Y-91540745D01*
X78244630Y-91540750D01*
X78224435Y-91719996D01*
X78224435Y-91720003D01*
X78244630Y-91899249D01*
X78244631Y-91899254D01*
X78304211Y-92069523D01*
X78340800Y-92127753D01*
X78400184Y-92222262D01*
X78527738Y-92349816D01*
X78680478Y-92445789D01*
X78723515Y-92460848D01*
X78780291Y-92501568D01*
X78806040Y-92566521D01*
X78792585Y-92635083D01*
X78770244Y-92665571D01*
X78708027Y-92727788D01*
X78587715Y-92893386D01*
X78494781Y-93075778D01*
X78431522Y-93270468D01*
X78430385Y-93275206D01*
X78429227Y-93274928D01*
X78401687Y-93333029D01*
X78342377Y-93369962D01*
X78309140Y-93374500D01*
X77760585Y-93374500D01*
X77693546Y-93354815D01*
X77647791Y-93302011D01*
X77637847Y-93232853D01*
X77666872Y-93169297D01*
X77695488Y-93144962D01*
X77727728Y-93125075D01*
X77727732Y-93125072D01*
X77847572Y-93005232D01*
X77847575Y-93005228D01*
X77936542Y-92860992D01*
X77936547Y-92860981D01*
X77989855Y-92700106D01*
X77999999Y-92600822D01*
X78000000Y-92600809D01*
X78000000Y-92577500D01*
X75800001Y-92577500D01*
X75800001Y-92600822D01*
X75810144Y-92700107D01*
X75863452Y-92860981D01*
X75863454Y-92860986D01*
X75909348Y-92935391D01*
X75927788Y-93002784D01*
X75906865Y-93069447D01*
X75853223Y-93114217D01*
X75817693Y-93123708D01*
X75720749Y-93134630D01*
X75720745Y-93134631D01*
X75550476Y-93194211D01*
X75434629Y-93267003D01*
X75367392Y-93286003D01*
X75300557Y-93265635D01*
X75255343Y-93212367D01*
X75246106Y-93143111D01*
X75275777Y-93079854D01*
X75280976Y-93074327D01*
X75347576Y-93007727D01*
X75436542Y-92863492D01*
X75436547Y-92863481D01*
X75489855Y-92702606D01*
X75499999Y-92603322D01*
X75500000Y-92603309D01*
X75500000Y-92580000D01*
X74274000Y-92580000D01*
X74206961Y-92560315D01*
X74161206Y-92507511D01*
X74150000Y-92456000D01*
X74150000Y-92080000D01*
X74650000Y-92080000D01*
X75499999Y-92080000D01*
X75499999Y-92056692D01*
X75499998Y-92056677D01*
X75499743Y-92054177D01*
X75800000Y-92054177D01*
X75800000Y-92077500D01*
X76650000Y-92077500D01*
X77150000Y-92077500D01*
X77999999Y-92077500D01*
X77999999Y-92054192D01*
X77999998Y-92054177D01*
X77989855Y-91954892D01*
X77936547Y-91794018D01*
X77936542Y-91794007D01*
X77847575Y-91649771D01*
X77847572Y-91649767D01*
X77727732Y-91529927D01*
X77727728Y-91529924D01*
X77583492Y-91440957D01*
X77583481Y-91440952D01*
X77422606Y-91387644D01*
X77323322Y-91377500D01*
X77150000Y-91377500D01*
X77150000Y-92077500D01*
X76650000Y-92077500D01*
X76650000Y-91377500D01*
X76476693Y-91377500D01*
X76476676Y-91377501D01*
X76377392Y-91387644D01*
X76216518Y-91440952D01*
X76216507Y-91440957D01*
X76072271Y-91529924D01*
X76072267Y-91529927D01*
X75952427Y-91649767D01*
X75952424Y-91649771D01*
X75863457Y-91794007D01*
X75863452Y-91794018D01*
X75810144Y-91954893D01*
X75800000Y-92054177D01*
X75499743Y-92054177D01*
X75489855Y-91957392D01*
X75436547Y-91796518D01*
X75436542Y-91796507D01*
X75347575Y-91652271D01*
X75347572Y-91652267D01*
X75227732Y-91532427D01*
X75227728Y-91532424D01*
X75083492Y-91443457D01*
X75083481Y-91443452D01*
X74922606Y-91390144D01*
X74823322Y-91380000D01*
X74650000Y-91380000D01*
X74650000Y-92080000D01*
X74150000Y-92080000D01*
X74150000Y-91380000D01*
X73976693Y-91380000D01*
X73976676Y-91380001D01*
X73877392Y-91390144D01*
X73716518Y-91443452D01*
X73716508Y-91443457D01*
X73710672Y-91447057D01*
X73643279Y-91465495D01*
X73576616Y-91444570D01*
X73531848Y-91390926D01*
X73523190Y-91321595D01*
X73553389Y-91258589D01*
X73557879Y-91253854D01*
X74758504Y-90053229D01*
X74758514Y-90053222D01*
X74768716Y-90043020D01*
X74800940Y-90010795D01*
X74862261Y-89977309D01*
X74876008Y-89975119D01*
X74922708Y-89970349D01*
X75083697Y-89917003D01*
X75228044Y-89827968D01*
X75347968Y-89708044D01*
X75359465Y-89689403D01*
X75411412Y-89642679D01*
X75465004Y-89630500D01*
X75836538Y-89630500D01*
X75903577Y-89650185D01*
G37*
%TD.AperFunction*%
%TA.AperFunction,Conductor*%
G36*
X59843832Y-87162914D02*
G01*
X59899766Y-87204784D01*
X59924184Y-87270249D01*
X59924500Y-87279090D01*
X59924500Y-87297867D01*
X59924501Y-87297876D01*
X59930908Y-87357483D01*
X59981202Y-87492328D01*
X59981206Y-87492335D01*
X60067452Y-87607544D01*
X60067455Y-87607547D01*
X60182664Y-87693793D01*
X60182671Y-87693797D01*
X60221934Y-87708441D01*
X60317517Y-87744091D01*
X60377127Y-87750500D01*
X60550499Y-87750499D01*
X60617538Y-87770183D01*
X60663293Y-87822987D01*
X60672671Y-87866097D01*
X60673438Y-87865997D01*
X60674498Y-87874054D01*
X60715424Y-88026789D01*
X60715425Y-88026790D01*
X60734705Y-88060183D01*
X60734706Y-88060184D01*
X60794477Y-88163712D01*
X60794481Y-88163717D01*
X60913349Y-88282585D01*
X60913355Y-88282590D01*
X61079298Y-88448533D01*
X61112783Y-88509856D01*
X61114837Y-88522330D01*
X61124630Y-88609249D01*
X61184210Y-88779521D01*
X61203562Y-88810319D01*
X61280184Y-88932262D01*
X61407738Y-89059816D01*
X61471078Y-89099615D01*
X61517369Y-89151950D01*
X61528017Y-89221003D01*
X61499642Y-89284852D01*
X61492787Y-89292290D01*
X60495012Y-90290065D01*
X60433689Y-90323550D01*
X60363997Y-90318566D01*
X60308064Y-90276694D01*
X60290289Y-90243337D01*
X60285790Y-90230479D01*
X60199320Y-90092864D01*
X60189816Y-90077738D01*
X60062262Y-89950184D01*
X60005468Y-89914498D01*
X59909521Y-89854210D01*
X59739249Y-89794630D01*
X59652330Y-89784837D01*
X59587916Y-89757770D01*
X59578533Y-89749298D01*
X59291819Y-89462584D01*
X59258334Y-89401261D01*
X59255500Y-89374903D01*
X59255500Y-88412400D01*
X59275185Y-88345361D01*
X59314401Y-88306863D01*
X59353350Y-88282840D01*
X59475340Y-88160850D01*
X59565908Y-88014016D01*
X59620174Y-87850253D01*
X59630500Y-87749177D01*
X59630499Y-87325097D01*
X59650183Y-87258059D01*
X59666817Y-87237418D01*
X59712820Y-87191414D01*
X59774141Y-87157930D01*
X59843832Y-87162914D01*
G37*
%TD.AperFunction*%
%TA.AperFunction,Conductor*%
G36*
X71533418Y-87295417D02*
G01*
X71561673Y-87316569D01*
X71683599Y-87438495D01*
X71765499Y-87495842D01*
X71877165Y-87574032D01*
X71877167Y-87574033D01*
X71877170Y-87574035D01*
X72091337Y-87673903D01*
X72091343Y-87673904D01*
X72091344Y-87673905D01*
X72102776Y-87676968D01*
X72319592Y-87735063D01*
X72496034Y-87750500D01*
X72554999Y-87755659D01*
X72555000Y-87755659D01*
X72555001Y-87755659D01*
X72613966Y-87750500D01*
X72790408Y-87735063D01*
X73018663Y-87673903D01*
X73168096Y-87604220D01*
X73237172Y-87593729D01*
X73300956Y-87622249D01*
X73339196Y-87680725D01*
X73344500Y-87716603D01*
X73344500Y-88488330D01*
X73344499Y-88488348D01*
X73344499Y-88532116D01*
X73338205Y-88571120D01*
X73309651Y-88657290D01*
X73299500Y-88756647D01*
X73299500Y-88858224D01*
X73279815Y-88925263D01*
X73227011Y-88971018D01*
X73157853Y-88980962D01*
X73104647Y-88958096D01*
X73104185Y-88958846D01*
X73099116Y-88955719D01*
X73098596Y-88955496D01*
X73098035Y-88955053D01*
X72951311Y-88864551D01*
X72951300Y-88864546D01*
X72787652Y-88810319D01*
X72686654Y-88800000D01*
X72650000Y-88800000D01*
X72650000Y-89963500D01*
X72630315Y-90030539D01*
X72577511Y-90076294D01*
X72526000Y-90087500D01*
X70774000Y-90087500D01*
X70706961Y-90067815D01*
X70661206Y-90015011D01*
X70650000Y-89963500D01*
X70650000Y-89587500D01*
X71150000Y-89587500D01*
X72150000Y-89587500D01*
X72150000Y-88800000D01*
X72113361Y-88800000D01*
X72113343Y-88800001D01*
X72012347Y-88810319D01*
X71848699Y-88864546D01*
X71848694Y-88864548D01*
X71715097Y-88946953D01*
X71647705Y-88965393D01*
X71584903Y-88946953D01*
X71451305Y-88864548D01*
X71451300Y-88864546D01*
X71287652Y-88810319D01*
X71186654Y-88800000D01*
X71150000Y-88800000D01*
X71150000Y-89587500D01*
X70650000Y-89587500D01*
X70650000Y-88800000D01*
X70613361Y-88800000D01*
X70613343Y-88800001D01*
X70512347Y-88810319D01*
X70348699Y-88864546D01*
X70348688Y-88864551D01*
X70201965Y-88955052D01*
X70201961Y-88955055D01*
X70080055Y-89076961D01*
X70080052Y-89076965D01*
X70025802Y-89164918D01*
X69973854Y-89211643D01*
X69904891Y-89222864D01*
X69881261Y-89217527D01*
X69812755Y-89194826D01*
X69812751Y-89194825D01*
X69711684Y-89184500D01*
X69135097Y-89184500D01*
X69068058Y-89164815D01*
X69047416Y-89148181D01*
X68570700Y-88671465D01*
X68537215Y-88610142D01*
X68535163Y-88597686D01*
X68525368Y-88510745D01*
X68465789Y-88340478D01*
X68369816Y-88187738D01*
X68242262Y-88060184D01*
X68157003Y-88006612D01*
X68110713Y-87954278D01*
X68100065Y-87885225D01*
X68128440Y-87821376D01*
X68135283Y-87813950D01*
X68512971Y-87436262D01*
X68574292Y-87402779D01*
X68643984Y-87407763D01*
X68699917Y-87449635D01*
X68716831Y-87480609D01*
X68721202Y-87492327D01*
X68721206Y-87492335D01*
X68807452Y-87607544D01*
X68807455Y-87607547D01*
X68922664Y-87693793D01*
X68922671Y-87693797D01*
X69057517Y-87744091D01*
X69057516Y-87744091D01*
X69064444Y-87744835D01*
X69117127Y-87750500D01*
X70912872Y-87750499D01*
X70972483Y-87744091D01*
X71107331Y-87693796D01*
X71222546Y-87607546D01*
X71308796Y-87492331D01*
X71357810Y-87360916D01*
X71399681Y-87304984D01*
X71465145Y-87280566D01*
X71533418Y-87295417D01*
G37*
%TD.AperFunction*%
%TA.AperFunction,Conductor*%
G36*
X76966942Y-81430185D02*
G01*
X76987584Y-81446819D01*
X79643181Y-84102416D01*
X79676666Y-84163739D01*
X79679500Y-84190097D01*
X79679500Y-85365908D01*
X79659815Y-85432947D01*
X79607914Y-85478286D01*
X79602173Y-85480963D01*
X79602169Y-85480965D01*
X79408597Y-85616505D01*
X79241505Y-85783597D01*
X79105965Y-85977169D01*
X79105964Y-85977171D01*
X79006098Y-86191335D01*
X79006094Y-86191344D01*
X78944938Y-86419586D01*
X78944936Y-86419596D01*
X78924341Y-86654999D01*
X78924341Y-86655001D01*
X78944514Y-86885581D01*
X78930747Y-86954081D01*
X78882132Y-87004264D01*
X78814103Y-87020197D01*
X78748260Y-86996822D01*
X78733305Y-86984069D01*
X78681217Y-86931981D01*
X78681212Y-86931977D01*
X78609226Y-86890416D01*
X78565687Y-86848126D01*
X78475340Y-86701650D01*
X78361371Y-86587681D01*
X78327886Y-86526358D01*
X78332870Y-86456666D01*
X78361371Y-86412319D01*
X78475340Y-86298350D01*
X78565908Y-86151516D01*
X78620174Y-85987753D01*
X78630500Y-85886677D01*
X78630499Y-85288324D01*
X78620174Y-85187247D01*
X78565908Y-85023484D01*
X78475340Y-84876650D01*
X78353350Y-84754660D01*
X78353349Y-84754659D01*
X78337554Y-84744917D01*
X78324445Y-84736831D01*
X78277721Y-84684884D01*
X78266498Y-84615922D01*
X78272498Y-84590346D01*
X78311480Y-84478943D01*
X78325367Y-84439259D01*
X78325369Y-84439249D01*
X78345565Y-84260003D01*
X78345565Y-84259996D01*
X78325369Y-84080750D01*
X78325368Y-84080745D01*
X78303487Y-84018213D01*
X78265789Y-83910478D01*
X78263947Y-83907547D01*
X78211637Y-83824296D01*
X78169816Y-83757738D01*
X78042262Y-83630184D01*
X77889523Y-83534211D01*
X77719254Y-83474631D01*
X77719249Y-83474630D01*
X77540004Y-83454435D01*
X77539996Y-83454435D01*
X77360750Y-83474630D01*
X77360745Y-83474631D01*
X77190476Y-83534211D01*
X77031842Y-83633889D01*
X77030400Y-83631594D01*
X76977066Y-83653315D01*
X76908382Y-83640500D01*
X76876865Y-83617630D01*
X76442766Y-83183531D01*
X76409281Y-83122208D01*
X76410672Y-83063757D01*
X76423964Y-83014150D01*
X76445063Y-82935408D01*
X76465659Y-82700000D01*
X76445063Y-82464592D01*
X76383903Y-82236337D01*
X76284035Y-82022171D01*
X76148495Y-81828599D01*
X76148494Y-81828597D01*
X75981402Y-81661506D01*
X75981401Y-81661505D01*
X75945082Y-81636074D01*
X75901459Y-81581498D01*
X75894266Y-81511999D01*
X75925788Y-81449645D01*
X75986018Y-81414231D01*
X76016207Y-81410500D01*
X76899903Y-81410500D01*
X76966942Y-81430185D01*
G37*
%TD.AperFunction*%
%TA.AperFunction,Conductor*%
G36*
X68051942Y-77890185D02*
G01*
X68072584Y-77906819D01*
X68628181Y-78462416D01*
X68661666Y-78523739D01*
X68664500Y-78550097D01*
X68664500Y-79897870D01*
X68664501Y-79897876D01*
X68670908Y-79957483D01*
X68702494Y-80042167D01*
X68707478Y-80111858D01*
X68673993Y-80173182D01*
X68612670Y-80206666D01*
X68586312Y-80209500D01*
X67354050Y-80209500D01*
X67287011Y-80189815D01*
X67241256Y-80137011D01*
X67231312Y-80067853D01*
X67260337Y-80004297D01*
X67266369Y-79997819D01*
X67393105Y-79871082D01*
X67528600Y-79677578D01*
X67628429Y-79463492D01*
X67628432Y-79463486D01*
X67685636Y-79250000D01*
X66788012Y-79250000D01*
X66820925Y-79192993D01*
X66855000Y-79065826D01*
X66855000Y-78934174D01*
X66820925Y-78807007D01*
X66788012Y-78750000D01*
X67685636Y-78750000D01*
X67685635Y-78749999D01*
X67628432Y-78536513D01*
X67628429Y-78536507D01*
X67528600Y-78322422D01*
X67528599Y-78322420D01*
X67393113Y-78128926D01*
X67393108Y-78128920D01*
X67346369Y-78082181D01*
X67312884Y-78020858D01*
X67317868Y-77951166D01*
X67359740Y-77895233D01*
X67425204Y-77870816D01*
X67434050Y-77870500D01*
X67984903Y-77870500D01*
X68051942Y-77890185D01*
G37*
%TD.AperFunction*%
%TA.AperFunction,Conductor*%
G36*
X84938222Y-78394513D02*
G01*
X84966477Y-78415665D01*
X85088921Y-78538109D01*
X85168635Y-78593926D01*
X85212260Y-78648503D01*
X85219452Y-78718001D01*
X85187930Y-78780356D01*
X85127700Y-78815769D01*
X85097511Y-78819500D01*
X84790835Y-78819500D01*
X84723796Y-78799815D01*
X84678041Y-78747011D01*
X84668097Y-78677853D01*
X84691569Y-78621188D01*
X84713352Y-78592089D01*
X84713354Y-78592086D01*
X84762614Y-78460013D01*
X84804485Y-78404079D01*
X84869949Y-78379662D01*
X84938222Y-78394513D01*
G37*
%TD.AperFunction*%
%TA.AperFunction,Conductor*%
G36*
X85494075Y-77307007D02*
G01*
X85460000Y-77434174D01*
X85460000Y-77565826D01*
X85494075Y-77692993D01*
X85526988Y-77750000D01*
X83853012Y-77750000D01*
X83885925Y-77692993D01*
X83920000Y-77565826D01*
X83920000Y-77434174D01*
X83885925Y-77307007D01*
X83853012Y-77250000D01*
X85526988Y-77250000D01*
X85494075Y-77307007D01*
G37*
%TD.AperFunction*%
%TA.AperFunction,Conductor*%
G36*
X88034075Y-77307007D02*
G01*
X88000000Y-77434174D01*
X88000000Y-77565826D01*
X88034075Y-77692993D01*
X88066988Y-77750000D01*
X86393012Y-77750000D01*
X86425925Y-77692993D01*
X86460000Y-77565826D01*
X86460000Y-77434174D01*
X86425925Y-77307007D01*
X86393012Y-77250000D01*
X88066988Y-77250000D01*
X88034075Y-77307007D01*
G37*
%TD.AperFunction*%
%TA.AperFunction,Conductor*%
G36*
X92002702Y-75500617D02*
G01*
X92386771Y-75517386D01*
X92397506Y-75518326D01*
X92775971Y-75568152D01*
X92786597Y-75570025D01*
X93159284Y-75652648D01*
X93169710Y-75655442D01*
X93533765Y-75770227D01*
X93543911Y-75773920D01*
X93896578Y-75920000D01*
X93906369Y-75924566D01*
X94244942Y-76100816D01*
X94254310Y-76106224D01*
X94576244Y-76311318D01*
X94585105Y-76317523D01*
X94887930Y-76549889D01*
X94896217Y-76556843D01*
X95177635Y-76814715D01*
X95185284Y-76822364D01*
X95443156Y-77103782D01*
X95450110Y-77112069D01*
X95682476Y-77414894D01*
X95688681Y-77423755D01*
X95893775Y-77745689D01*
X95899183Y-77755057D01*
X96075430Y-78093623D01*
X96080002Y-78103427D01*
X96226075Y-78456078D01*
X96229775Y-78466244D01*
X96344554Y-78830278D01*
X96347354Y-78840727D01*
X96429971Y-79213389D01*
X96431849Y-79224042D01*
X96481671Y-79602473D01*
X96482614Y-79613249D01*
X96499382Y-79997297D01*
X96499500Y-80002706D01*
X96499500Y-105997293D01*
X96499382Y-106002702D01*
X96482614Y-106386750D01*
X96481671Y-106397526D01*
X96431849Y-106775957D01*
X96429971Y-106786610D01*
X96347354Y-107159272D01*
X96344554Y-107169721D01*
X96229775Y-107533755D01*
X96226075Y-107543921D01*
X96080002Y-107896572D01*
X96075430Y-107906376D01*
X95899183Y-108244942D01*
X95893775Y-108254310D01*
X95688681Y-108576244D01*
X95682476Y-108585105D01*
X95450110Y-108887930D01*
X95443156Y-108896217D01*
X95185284Y-109177635D01*
X95177635Y-109185284D01*
X94896217Y-109443156D01*
X94887930Y-109450110D01*
X94585105Y-109682476D01*
X94576244Y-109688681D01*
X94254310Y-109893775D01*
X94244942Y-109899183D01*
X93906376Y-110075430D01*
X93896572Y-110080002D01*
X93543921Y-110226075D01*
X93533755Y-110229775D01*
X93169721Y-110344554D01*
X93159272Y-110347354D01*
X92786610Y-110429971D01*
X92775957Y-110431849D01*
X92397526Y-110481671D01*
X92386750Y-110482614D01*
X92002703Y-110499382D01*
X91997294Y-110499500D01*
X57002706Y-110499500D01*
X56997297Y-110499382D01*
X56613249Y-110482614D01*
X56602473Y-110481671D01*
X56224042Y-110431849D01*
X56213389Y-110429971D01*
X55840727Y-110347354D01*
X55830278Y-110344554D01*
X55466244Y-110229775D01*
X55456078Y-110226075D01*
X55103427Y-110080002D01*
X55093623Y-110075430D01*
X54755057Y-109899183D01*
X54745689Y-109893775D01*
X54423755Y-109688681D01*
X54414894Y-109682476D01*
X54112069Y-109450110D01*
X54103782Y-109443156D01*
X53822364Y-109185284D01*
X53814715Y-109177635D01*
X53556843Y-108896217D01*
X53549889Y-108887930D01*
X53317523Y-108585105D01*
X53311318Y-108576244D01*
X53106224Y-108254310D01*
X53100816Y-108244942D01*
X52924569Y-107906376D01*
X52919997Y-107896572D01*
X52837563Y-107697558D01*
X52773920Y-107543911D01*
X52770224Y-107533755D01*
X52655442Y-107169710D01*
X52652648Y-107159284D01*
X52570025Y-106786597D01*
X52568152Y-106775971D01*
X52518326Y-106397506D01*
X52517386Y-106386771D01*
X52500618Y-106002702D01*
X52500500Y-105997293D01*
X52500500Y-105309054D01*
X55859498Y-105309054D01*
X55900423Y-105461787D01*
X55911353Y-105480716D01*
X55911354Y-105480717D01*
X55932728Y-105517738D01*
X55979479Y-105598714D01*
X55979481Y-105598717D01*
X56098349Y-105717585D01*
X56098355Y-105717590D01*
X59545139Y-109164374D01*
X59545149Y-109164385D01*
X59549479Y-109168715D01*
X59549480Y-109168716D01*
X59661284Y-109280520D01*
X59661286Y-109280521D01*
X59661290Y-109280524D01*
X59798209Y-109359573D01*
X59798216Y-109359577D01*
X59910019Y-109389534D01*
X59950942Y-109400500D01*
X59950943Y-109400500D01*
X77283331Y-109400500D01*
X77283347Y-109400501D01*
X77290943Y-109400501D01*
X77449054Y-109400501D01*
X77449057Y-109400501D01*
X77601785Y-109359577D01*
X77651904Y-109330639D01*
X77738716Y-109280520D01*
X77850520Y-109168716D01*
X77850520Y-109168714D01*
X77860728Y-109158507D01*
X77860730Y-109158504D01*
X79578506Y-107440728D01*
X79578511Y-107440724D01*
X79588714Y-107430520D01*
X79588716Y-107430520D01*
X79700520Y-107318716D01*
X79752284Y-107229057D01*
X79779577Y-107181785D01*
X79820500Y-107029057D01*
X79820500Y-106870943D01*
X79820500Y-106769286D01*
X79840185Y-106702247D01*
X79892989Y-106656492D01*
X79962147Y-106646548D01*
X79983491Y-106651576D01*
X80062247Y-106677674D01*
X80163323Y-106688000D01*
X80317401Y-106687999D01*
X80384441Y-106707683D01*
X80405082Y-106724317D01*
X80931284Y-107250520D01*
X80931286Y-107250521D01*
X80931290Y-107250524D01*
X81049397Y-107318712D01*
X81068216Y-107329577D01*
X81220943Y-107370501D01*
X81220945Y-107370501D01*
X81386654Y-107370501D01*
X81386670Y-107370500D01*
X82864917Y-107370500D01*
X82931956Y-107390185D01*
X82977711Y-107442989D01*
X82988137Y-107508383D01*
X82974435Y-107629996D01*
X82974435Y-107630003D01*
X82994630Y-107809249D01*
X82994631Y-107809254D01*
X83054211Y-107979523D01*
X83116410Y-108078511D01*
X83150184Y-108132262D01*
X83277738Y-108259816D01*
X83368080Y-108316582D01*
X83374317Y-108320501D01*
X83430478Y-108355789D01*
X83600745Y-108415368D01*
X83600750Y-108415369D01*
X83779996Y-108435565D01*
X83780000Y-108435565D01*
X83780004Y-108435565D01*
X83959249Y-108415369D01*
X83959252Y-108415368D01*
X83959255Y-108415368D01*
X84129522Y-108355789D01*
X84155435Y-108339507D01*
X84221408Y-108320500D01*
X92103331Y-108320500D01*
X92103347Y-108320501D01*
X92110943Y-108320501D01*
X92269054Y-108320501D01*
X92269057Y-108320501D01*
X92421785Y-108279577D01*
X92489601Y-108240423D01*
X92558716Y-108200520D01*
X92670520Y-108088716D01*
X92670520Y-108088714D01*
X92680724Y-108078511D01*
X92680727Y-108078506D01*
X95160520Y-105598716D01*
X95239577Y-105461784D01*
X95280501Y-105309057D01*
X95280501Y-105150942D01*
X95280501Y-105143339D01*
X95280500Y-105143329D01*
X95280500Y-84170945D01*
X95280498Y-84170936D01*
X95278570Y-84163739D01*
X95274750Y-84149481D01*
X95239577Y-84018215D01*
X95203355Y-83955477D01*
X95160520Y-83881284D01*
X95048716Y-83769480D01*
X95048715Y-83769479D01*
X95044385Y-83765149D01*
X95044374Y-83765139D01*
X93817590Y-82538355D01*
X93817588Y-82538352D01*
X93698718Y-82419482D01*
X93698716Y-82419480D01*
X93698232Y-82419200D01*
X93689186Y-82413977D01*
X93663508Y-82394273D01*
X90327590Y-79058355D01*
X90327588Y-79058352D01*
X90208717Y-78939481D01*
X90208712Y-78939477D01*
X90122323Y-78889601D01*
X90088802Y-78870248D01*
X90071785Y-78860423D01*
X90071782Y-78860422D01*
X90041826Y-78852395D01*
X89919057Y-78819499D01*
X89760943Y-78819499D01*
X89753347Y-78819499D01*
X89753331Y-78819500D01*
X89362489Y-78819500D01*
X89295450Y-78799815D01*
X89249695Y-78747011D01*
X89239751Y-78677853D01*
X89268776Y-78614297D01*
X89291365Y-78593926D01*
X89371078Y-78538109D01*
X89538105Y-78371082D01*
X89673600Y-78177578D01*
X89773429Y-77963492D01*
X89773432Y-77963486D01*
X89830636Y-77750000D01*
X88933012Y-77750000D01*
X88965925Y-77692993D01*
X89000000Y-77565826D01*
X89000000Y-77434174D01*
X88965925Y-77307007D01*
X88933012Y-77250000D01*
X89830636Y-77250000D01*
X89830635Y-77249999D01*
X89773432Y-77036513D01*
X89773429Y-77036507D01*
X89673600Y-76822422D01*
X89673599Y-76822420D01*
X89538113Y-76628926D01*
X89538108Y-76628920D01*
X89371082Y-76461894D01*
X89177578Y-76326399D01*
X88963492Y-76226570D01*
X88963486Y-76226567D01*
X88750000Y-76169364D01*
X88750000Y-77066988D01*
X88692993Y-77034075D01*
X88565826Y-77000000D01*
X88434174Y-77000000D01*
X88307007Y-77034075D01*
X88250000Y-77066988D01*
X88250000Y-76169364D01*
X88249999Y-76169364D01*
X88036513Y-76226567D01*
X88036507Y-76226570D01*
X87822422Y-76326399D01*
X87822420Y-76326400D01*
X87628926Y-76461886D01*
X87628920Y-76461891D01*
X87461891Y-76628920D01*
X87461890Y-76628922D01*
X87331575Y-76815031D01*
X87276998Y-76858655D01*
X87207499Y-76865848D01*
X87145145Y-76834326D01*
X87128425Y-76815031D01*
X86998109Y-76628922D01*
X86998108Y-76628920D01*
X86831082Y-76461894D01*
X86637578Y-76326399D01*
X86423492Y-76226570D01*
X86423486Y-76226567D01*
X86210000Y-76169364D01*
X86210000Y-77066988D01*
X86152993Y-77034075D01*
X86025826Y-77000000D01*
X85894174Y-77000000D01*
X85767007Y-77034075D01*
X85710000Y-77066988D01*
X85710000Y-76169364D01*
X85709999Y-76169364D01*
X85496513Y-76226567D01*
X85496507Y-76226570D01*
X85282422Y-76326399D01*
X85282420Y-76326400D01*
X85088926Y-76461886D01*
X84966477Y-76584335D01*
X84905154Y-76617819D01*
X84835462Y-76612835D01*
X84779529Y-76570963D01*
X84762614Y-76539986D01*
X84713354Y-76407913D01*
X84713350Y-76407906D01*
X84627190Y-76292812D01*
X84627187Y-76292809D01*
X84512093Y-76206649D01*
X84512086Y-76206645D01*
X84377379Y-76156403D01*
X84377372Y-76156401D01*
X84317844Y-76150000D01*
X83670000Y-76150000D01*
X83670000Y-77066988D01*
X83612993Y-77034075D01*
X83485826Y-77000000D01*
X83354174Y-77000000D01*
X83227007Y-77034075D01*
X83170000Y-77066988D01*
X83170000Y-76150000D01*
X82522155Y-76150000D01*
X82462627Y-76156401D01*
X82462620Y-76156403D01*
X82327913Y-76206645D01*
X82327906Y-76206649D01*
X82212812Y-76292809D01*
X82212809Y-76292812D01*
X82126649Y-76407906D01*
X82126645Y-76407913D01*
X82076403Y-76542620D01*
X82076401Y-76542627D01*
X82070000Y-76602155D01*
X82070000Y-77250000D01*
X82986988Y-77250000D01*
X82954075Y-77307007D01*
X82920000Y-77434174D01*
X82920000Y-77565826D01*
X82954075Y-77692993D01*
X82986988Y-77750000D01*
X82070000Y-77750000D01*
X82070000Y-78397844D01*
X82076401Y-78457372D01*
X82076403Y-78457379D01*
X82126645Y-78592086D01*
X82126647Y-78592089D01*
X82148431Y-78621188D01*
X82172849Y-78686652D01*
X82157998Y-78754925D01*
X82108594Y-78804331D01*
X82049165Y-78819500D01*
X82040098Y-78819500D01*
X81973059Y-78799815D01*
X81952417Y-78783181D01*
X81688717Y-78519481D01*
X81688716Y-78519480D01*
X81601904Y-78469360D01*
X81601904Y-78469359D01*
X81601900Y-78469358D01*
X81551785Y-78440423D01*
X81399057Y-78399499D01*
X81240943Y-78399499D01*
X81233347Y-78399499D01*
X81233331Y-78399500D01*
X76384091Y-78399500D01*
X76317052Y-78379815D01*
X76271711Y-78327909D01*
X76269037Y-78322175D01*
X76269034Y-78322170D01*
X76263729Y-78314594D01*
X76172965Y-78184968D01*
X76133494Y-78128597D01*
X75966402Y-77961506D01*
X75966395Y-77961501D01*
X75772834Y-77825967D01*
X75772830Y-77825965D01*
X75772828Y-77825964D01*
X75558663Y-77726097D01*
X75558659Y-77726096D01*
X75558655Y-77726094D01*
X75330413Y-77664938D01*
X75330403Y-77664936D01*
X75095001Y-77644341D01*
X75094999Y-77644341D01*
X74859596Y-77664936D01*
X74859586Y-77664938D01*
X74631344Y-77726094D01*
X74631335Y-77726098D01*
X74417171Y-77825964D01*
X74417169Y-77825965D01*
X74223597Y-77961505D01*
X74056505Y-78128597D01*
X73926575Y-78314158D01*
X73871998Y-78357783D01*
X73802500Y-78364977D01*
X73740145Y-78333454D01*
X73723425Y-78314158D01*
X73593494Y-78128597D01*
X73426402Y-77961506D01*
X73426395Y-77961501D01*
X73232834Y-77825967D01*
X73232830Y-77825965D01*
X73232828Y-77825964D01*
X73018663Y-77726097D01*
X73018659Y-77726096D01*
X73018655Y-77726094D01*
X72790413Y-77664938D01*
X72790403Y-77664936D01*
X72555001Y-77644341D01*
X72554999Y-77644341D01*
X72319596Y-77664936D01*
X72319586Y-77664938D01*
X72091344Y-77726094D01*
X72091335Y-77726098D01*
X71877171Y-77825964D01*
X71877169Y-77825965D01*
X71683600Y-77961503D01*
X71561673Y-78083430D01*
X71500350Y-78116914D01*
X71430658Y-78111930D01*
X71374725Y-78070058D01*
X71357810Y-78039081D01*
X71308797Y-77907671D01*
X71308793Y-77907664D01*
X71222547Y-77792455D01*
X71222544Y-77792452D01*
X71107335Y-77706206D01*
X71107328Y-77706202D01*
X70972482Y-77655908D01*
X70972483Y-77655908D01*
X70912883Y-77649501D01*
X70912881Y-77649500D01*
X70912873Y-77649500D01*
X70912865Y-77649500D01*
X69565097Y-77649500D01*
X69498058Y-77629815D01*
X69477416Y-77613181D01*
X68772590Y-76908355D01*
X68772588Y-76908352D01*
X68653717Y-76789481D01*
X68653716Y-76789480D01*
X68566904Y-76739360D01*
X68566904Y-76739359D01*
X68566900Y-76739358D01*
X68516785Y-76710423D01*
X68364057Y-76669499D01*
X68205943Y-76669499D01*
X68198347Y-76669499D01*
X68198331Y-76669500D01*
X59556669Y-76669500D01*
X59556653Y-76669499D01*
X59549057Y-76669499D01*
X59390943Y-76669499D01*
X59283587Y-76698265D01*
X59238210Y-76710424D01*
X59238209Y-76710425D01*
X59188096Y-76739359D01*
X59188095Y-76739360D01*
X59144689Y-76764420D01*
X59101285Y-76789479D01*
X59101282Y-76789481D01*
X55979481Y-79911282D01*
X55979479Y-79911285D01*
X55954420Y-79954689D01*
X55929520Y-79997819D01*
X55929361Y-79998094D01*
X55929359Y-79998096D01*
X55900425Y-80048209D01*
X55900424Y-80048210D01*
X55900423Y-80048215D01*
X55859499Y-80200943D01*
X55859499Y-80200945D01*
X55859499Y-80369046D01*
X55859500Y-80369059D01*
X55859500Y-105143330D01*
X55859499Y-105143348D01*
X55859499Y-105309054D01*
X55859498Y-105309054D01*
X52500500Y-105309054D01*
X52500500Y-80002706D01*
X52500618Y-79997297D01*
X52504373Y-79911284D01*
X52517386Y-79613226D01*
X52518326Y-79602495D01*
X52568152Y-79224025D01*
X52570025Y-79213405D01*
X52652649Y-78840709D01*
X52655440Y-78830295D01*
X52770230Y-78466227D01*
X52773917Y-78456095D01*
X52920003Y-78103412D01*
X52924561Y-78093638D01*
X53100822Y-77755045D01*
X53106217Y-77745700D01*
X53311325Y-77423744D01*
X53317515Y-77414905D01*
X53549896Y-77112060D01*
X53556834Y-77103791D01*
X53814726Y-76822352D01*
X53822352Y-76814726D01*
X54103791Y-76556834D01*
X54112060Y-76549896D01*
X54414905Y-76317515D01*
X54423744Y-76311325D01*
X54745700Y-76106217D01*
X54755045Y-76100822D01*
X55093638Y-75924561D01*
X55103412Y-75920003D01*
X55456095Y-75773917D01*
X55466227Y-75770230D01*
X55830295Y-75655440D01*
X55840709Y-75652649D01*
X56213405Y-75570025D01*
X56224025Y-75568152D01*
X56602495Y-75518326D01*
X56613226Y-75517386D01*
X56997297Y-75500617D01*
X57002706Y-75500500D01*
X57065892Y-75500500D01*
X91934108Y-75500500D01*
X91997294Y-75500500D01*
X92002702Y-75500617D01*
G37*
%TD.AperFunction*%
%TD*%
M02*
