M48
; DRILL file {KiCad 8.0.6} date 2025-01-05T16:10:28-0600
; FORMAT={-:-/ absolute / metric / decimal}
; #@! TF.CreationDate,2025-01-05T16:10:28-06:00
; #@! TF.GenerationSoftware,Kicad,Pcbnew,8.0.6
; #@! TF.FileFunction,MixedPlating,1,2
FMAT,2
METRIC
; #@! TA.AperFunction,Plated,PTH,ViaDrill
T1C0.300
; #@! TA.AperFunction,Plated,PTH,ComponentDrill
T2C0.800
; #@! TA.AperFunction,Plated,PTH,ComponentDrill
T3C1.000
%
G90
G05
T1
X53.5Y-91.5
X53.5Y-92.5
X53.5Y-93.5
X53.5Y-94.5
X53.5Y-95.5
X53.5Y-96.5
X54.5Y-91.5
X54.5Y-92.5
X54.5Y-93.5
X54.5Y-94.5
X54.5Y-95.5
X54.5Y-96.5
X55.5Y-91.5
X55.5Y-92.5
X55.5Y-93.5
X55.5Y-94.5
X55.5Y-95.5
X55.5Y-96.5
X58.3Y-98.22
X59.56Y-90.58
X61.05Y-91.62
X61.79Y-93.98
X61.91Y-88.43
X62.62Y-98.1
X63.41Y-91.86
X67.22Y-95.82
X67.74Y-88.69
X67.94Y-80.21
X68.14Y-78.95
X70.9Y-88.7
X71.84Y-105.85
X71.85Y-84.65
X72.4Y-88.7
X74.4Y-91.3
X74.47Y-93.85
X75.9Y-93.92
X76.68Y-87.494
X77.4Y-91.4
X77.54Y-84.26
X78.93Y-88.6
X79.03Y-91.72
X80.339Y-90.991
X82.0Y-76.0
X82.47Y-91.75
X82.5Y-90.0
X83.35Y-104.39
X83.51Y-106.02
X83.78Y-107.63
X84.0Y-76.0
X84.0Y-78.75
X84.0Y-91.11
X87.24Y-99.41
X87.3Y-103.94
X89.46Y-90.26
X89.5Y-97.5
X89.5Y-98.5
X89.5Y-99.5
X89.5Y-101.56
X89.7Y-96.27
X90.5Y-97.5
X90.5Y-98.5
X90.5Y-99.5
X90.75Y-77.5
X91.29Y-96.24
X91.5Y-97.5
X91.5Y-98.5
X91.5Y-99.5
X92.46Y-95.03
X92.5Y-97.5
X92.5Y-98.5
X92.5Y-99.5
X93.18Y-89.49
T2
X63.42Y-93.945
X63.42Y-101.565
X65.96Y-93.945
X65.96Y-101.565
X68.5Y-93.945
X68.5Y-101.565
X71.04Y-93.945
X71.04Y-101.565
X79.7Y-93.975
X79.7Y-101.595
X82.24Y-93.975
X82.24Y-101.595
X84.78Y-93.975
X84.78Y-101.595
X87.32Y-93.975
X87.32Y-101.595
T3
X60.0Y-95.66
X60.0Y-98.2
X61.275Y-79.0
X61.275Y-82.7
X61.275Y-86.4
X63.815Y-79.0
X63.815Y-82.7
X63.815Y-86.4
X66.355Y-79.0
X66.355Y-82.7
X66.355Y-86.4
X70.015Y-79.0
X70.015Y-86.4
X70.03Y-82.7
X72.555Y-79.0
X72.555Y-86.4
X72.57Y-82.7
X75.095Y-79.0
X75.095Y-86.4
X75.11Y-82.7
X80.28Y-86.655
X80.28Y-89.195
X83.42Y-77.5
X83.98Y-86.655
X83.98Y-89.195
X85.96Y-77.5
X87.68Y-86.655
X87.68Y-89.195
X88.5Y-77.5
X91.35Y-86.645
X91.35Y-89.185
M30
