%TF.GenerationSoftware,KiCad,Pcbnew,7.0.7*%
%TF.CreationDate,2023-11-02T23:53:28-05:00*%
%TF.ProjectId,STM32F030,53544d33-3246-4303-9330-2e6b69636164,rev?*%
%TF.SameCoordinates,Original*%
%TF.FileFunction,Copper,L4,Bot*%
%TF.FilePolarity,Positive*%
%FSLAX46Y46*%
G04 Gerber Fmt 4.6, Leading zero omitted, Abs format (unit mm)*
G04 Created by KiCad (PCBNEW 7.0.7) date 2023-11-02 23:53:28*
%MOMM*%
%LPD*%
G01*
G04 APERTURE LIST*
%TA.AperFunction,ComponentPad*%
%ADD10C,0.800000*%
%TD*%
%TA.AperFunction,ComponentPad*%
%ADD11C,6.400000*%
%TD*%
%TA.AperFunction,ComponentPad*%
%ADD12R,1.700000X1.700000*%
%TD*%
%TA.AperFunction,ComponentPad*%
%ADD13O,1.700000X1.700000*%
%TD*%
%TA.AperFunction,ComponentPad*%
%ADD14R,2.600000X2.600000*%
%TD*%
%TA.AperFunction,ComponentPad*%
%ADD15C,2.600000*%
%TD*%
%TA.AperFunction,ViaPad*%
%ADD16C,0.800000*%
%TD*%
%TA.AperFunction,Conductor*%
%ADD17C,0.250000*%
%TD*%
G04 APERTURE END LIST*
D10*
%TO.P,H1,1*%
%TO.N,N/C*%
X99993750Y-65881250D03*
X100696694Y-64184194D03*
X100696694Y-67578306D03*
X102393750Y-63481250D03*
D11*
X102393750Y-65881250D03*
D10*
X102393750Y-68281250D03*
X104090806Y-64184194D03*
X104090806Y-67578306D03*
X104793750Y-65881250D03*
%TD*%
D12*
%TO.P,UART,1,Pin_1*%
%TO.N,USART1_TX*%
X165893750Y-67950000D03*
D13*
%TO.P,UART,2,Pin_2*%
%TO.N,USART1_RX*%
X165893750Y-65410000D03*
%TD*%
D10*
%TO.P,H3,1*%
%TO.N,N/C*%
X174496694Y-120650000D03*
X175199638Y-118952944D03*
X175199638Y-122347056D03*
X176896694Y-118250000D03*
D11*
X176896694Y-120650000D03*
D10*
X176896694Y-123050000D03*
X178593750Y-118952944D03*
X178593750Y-122347056D03*
X179296694Y-120650000D03*
%TD*%
D12*
%TO.P,GPIO,1,Pin_1*%
%TO.N,RTS*%
X170656250Y-82867500D03*
D13*
%TO.P,GPIO,2,Pin_2*%
%TO.N,CTS*%
X170656250Y-80327500D03*
%TO.P,GPIO,3,Pin_3*%
%TO.N,GP0*%
X170656250Y-77787500D03*
%TO.P,GPIO,4,Pin_4*%
%TO.N,GP1*%
X170656250Y-75247500D03*
%TO.P,GPIO,5,Pin_5*%
%TO.N,GP2*%
X170656250Y-72707500D03*
%TO.P,GPIO,6,Pin_6*%
%TO.N,GP3*%
X170656250Y-70167500D03*
%TO.P,GPIO,7,Pin_7*%
%TO.N,GP4*%
X170656250Y-67627500D03*
%TO.P,GPIO,8,Pin_8*%
%TO.N,GP5*%
X170656250Y-65087500D03*
%TD*%
D14*
%TO.P,Analog,1,Pin_1*%
%TO.N,GND*%
X104270000Y-86875000D03*
D15*
%TO.P,Analog,2,Pin_2*%
%TO.N,+3.3V*%
X104270000Y-91875000D03*
%TO.P,Analog,3,Pin_3*%
%TO.N,Lin_Pots1*%
X104270000Y-96875000D03*
%TO.P,Analog,4,Pin_4*%
%TO.N,Lin_Pots2*%
X104270000Y-101875000D03*
%TO.P,Analog,5,Pin_5*%
%TO.N,Lin_Pots3*%
X104270000Y-106875000D03*
%TO.P,Analog,6,Pin_6*%
%TO.N,Lin_Pots4*%
X104270000Y-111875000D03*
%TD*%
D10*
%TO.P,H4,1*%
%TO.N,N/C*%
X99993750Y-120650000D03*
X100696694Y-118952944D03*
X100696694Y-122347056D03*
X102393750Y-118250000D03*
D11*
X102393750Y-120650000D03*
D10*
X102393750Y-123050000D03*
X104090806Y-118952944D03*
X104090806Y-122347056D03*
X104793750Y-120650000D03*
%TD*%
%TO.P,H2,1*%
%TO.N,N/C*%
X174496694Y-65881250D03*
X175199638Y-64184194D03*
X175199638Y-67578306D03*
X176896694Y-63481250D03*
D11*
X176896694Y-65881250D03*
D10*
X176896694Y-68281250D03*
X178593750Y-64184194D03*
X178593750Y-67578306D03*
X179296694Y-65881250D03*
%TD*%
D14*
%TO.P,SPI,1,Pin_1*%
%TO.N,GND*%
X115493750Y-119062500D03*
D15*
%TO.P,SPI,2,Pin_2*%
%TO.N,+3.3V*%
X120493750Y-119062500D03*
%TO.P,SPI,3,Pin_3*%
%TO.N,SPI1_SCK*%
X125493750Y-119062500D03*
%TO.P,SPI,4,Pin_4*%
%TO.N,SPI1_MISO*%
X130493750Y-119062500D03*
%TO.P,SPI,5,Pin_5*%
%TO.N,SPI1_MOSI*%
X135493750Y-119062500D03*
%TO.P,SPI,6,Pin_6*%
%TO.N,SPI1_CS1*%
X140493750Y-119062500D03*
%TO.P,SPI,7,Pin_7*%
%TO.N,SPI1_CS2*%
X145493750Y-119062500D03*
%TD*%
D14*
%TO.P,I2C,1,Pin_1*%
%TO.N,I2C1_SCL*%
X139700000Y-67468750D03*
D15*
%TO.P,I2C,2,Pin_2*%
%TO.N,I2C1_SDA*%
X134700000Y-67468750D03*
%TO.P,I2C,3,Pin_3*%
%TO.N,+3.3V*%
X129700000Y-67468750D03*
%TO.P,I2C,4,Pin_4*%
%TO.N,GND*%
X124700000Y-67468750D03*
%TD*%
D16*
%TO.N,+3.3V*%
X124675000Y-89450000D03*
X142675000Y-75275000D03*
X124625000Y-87875000D03*
X126500000Y-97125000D03*
X124650000Y-90900000D03*
X127525000Y-65675000D03*
X166987500Y-114700000D03*
X131375000Y-112050000D03*
X158050000Y-69200000D03*
X170025000Y-96025000D03*
X161775000Y-69175000D03*
X158725000Y-90525000D03*
X124700000Y-84825000D03*
X135250000Y-112875000D03*
X167000000Y-119275000D03*
X126875000Y-103125000D03*
X172250000Y-95500000D03*
X124625000Y-92425000D03*
X105875000Y-94400000D03*
X166962500Y-113850000D03*
X132100000Y-75325000D03*
X134575000Y-104875000D03*
X102350000Y-94325000D03*
X124675000Y-86350000D03*
X167050000Y-120800000D03*
X122875000Y-120975000D03*
X127750000Y-69000000D03*
X122825000Y-117425000D03*
X168037500Y-114700000D03*
X136450000Y-96175000D03*
X168012500Y-113825000D03*
X128250000Y-104850000D03*
X147850000Y-96900000D03*
X118400000Y-66100000D03*
%TO.N,GND*%
X134775000Y-97675000D03*
X129025000Y-84875000D03*
X167000000Y-116325000D03*
X128950000Y-90825000D03*
X133350000Y-104700000D03*
X122825000Y-65800000D03*
X143875000Y-99150000D03*
X117300000Y-121075000D03*
X147775000Y-95450000D03*
X176875000Y-91100000D03*
X168150000Y-117425000D03*
X172200000Y-99725000D03*
X168200000Y-116400000D03*
X113906248Y-121077833D03*
X164250000Y-122100000D03*
X167025000Y-117325000D03*
X120525000Y-91450000D03*
X122875000Y-69150000D03*
X143875000Y-100700000D03*
X128975000Y-89300000D03*
X113325000Y-66150000D03*
X144100000Y-65525000D03*
X102200000Y-85200000D03*
X160550000Y-120750000D03*
X115950000Y-96675000D03*
X148200000Y-72900000D03*
X163000000Y-109725000D03*
X147600000Y-93500000D03*
X128975000Y-86350000D03*
X102575000Y-88875000D03*
X117200000Y-88300000D03*
X169900000Y-92775000D03*
X118850000Y-104150000D03*
X118775000Y-103150000D03*
X128950000Y-92225000D03*
X161750000Y-67900000D03*
X129000000Y-87850000D03*
X116050000Y-94400000D03*
X161750000Y-66475000D03*
X152350000Y-92000000D03*
X178475000Y-92450000D03*
X152550000Y-65600000D03*
X127025000Y-104900000D03*
%TO.N,NRST*%
X132465364Y-93000000D03*
X131400000Y-97500000D03*
%TO.N,RTS*%
X165893750Y-103981250D03*
X170656250Y-85725000D03*
%TO.N,CTS*%
X173831250Y-100806250D03*
X173831250Y-81756250D03*
%TO.N,GP1*%
X173037500Y-75406250D03*
X170656250Y-98425000D03*
%TO.N,GP3*%
X155575000Y-103187500D03*
X165100000Y-94456250D03*
%TO.N,GP4*%
X156368750Y-101600000D03*
X168275000Y-70643750D03*
%TO.N,GP5*%
X164306250Y-90487500D03*
X157162500Y-100012500D03*
%TD*%
D17*
%TO.N,NRST*%
X132465364Y-96434636D02*
X131400000Y-97500000D01*
X132465364Y-93000000D02*
X132465364Y-96434636D01*
%TO.N,RTS*%
X165893750Y-90487500D02*
X165893750Y-103981250D01*
X170656250Y-85725000D02*
X165893750Y-90487500D01*
%TO.N,CTS*%
X173831250Y-81756250D02*
X173831250Y-98425000D01*
X173831250Y-98425000D02*
X173831250Y-100806250D01*
%TO.N,GP1*%
X170656250Y-98425000D02*
X173037500Y-96043750D01*
X173037500Y-96043750D02*
X173037500Y-75406250D01*
%TO.N,GP3*%
X156368750Y-103187500D02*
X165100000Y-94456250D01*
X155575000Y-103187500D02*
X156368750Y-103187500D01*
%TO.N,GP4*%
X156368750Y-82550000D02*
X168275000Y-70643750D01*
X156368750Y-101600000D02*
X156368750Y-82550000D01*
X156600305Y-101600000D02*
X156368750Y-101600000D01*
%TO.N,GP5*%
X157162500Y-100012500D02*
X164306250Y-92868750D01*
X164306250Y-92868750D02*
X164306250Y-90487500D01*
%TD*%
M02*
