M48
; DRILL file {KiCad 7.0.7} date Thu Nov  2 23:53:25 2023
; FORMAT={-:-/ absolute / inch / decimal}
; #@! TF.CreationDate,2023-11-02T23:53:25-05:00
; #@! TF.GenerationSoftware,Kicad,Pcbnew,7.0.7
; #@! TF.FileFunction,MixedPlating,1,4
FMAT,2
INCH
; #@! TA.AperFunction,Plated,PTH,ViaDrill
T1C0.0157
; #@! TA.AperFunction,Plated,PTH,ComponentDrill
T2C0.0197
; #@! TA.AperFunction,Plated,PTH,ComponentDrill
T3C0.0394
; #@! TA.AperFunction,Plated,PTH,ComponentDrill
T4C0.0512
; #@! TA.AperFunction,Plated,PTH,ComponentDrill
T5C0.1260
; #@! TA.AperFunction,NonPlated,NPTH,ComponentDrill
T6C0.0354
; #@! TA.AperFunction,NonPlated,NPTH,ComponentDrill
T7C0.0394
%
G90
G05
T1
X4.0236Y-3.3543
X4.0295Y-3.7136
X4.0384Y-3.499
X4.1683Y-3.7165
X4.4616Y-2.6043
X4.4845Y-4.7668
X4.565Y-3.8061
X4.5689Y-3.7165
X4.6142Y-3.4764
X4.6181Y-4.7667
X4.6614Y-2.6024
X4.6762Y-4.061
X4.6791Y-4.1004
X4.7451Y-3.6004
X4.8356Y-2.5906
X4.8356Y-4.623
X4.8376Y-2.7224
X4.8376Y-4.7628
X4.9065Y-3.4596
X4.9065Y-3.6388
X4.9075Y-3.5787
X4.9085Y-3.3996
X4.9085Y-3.5217
X4.9094Y-3.3396
X4.9803Y-3.8238
X4.9951Y-4.06
X5.001Y-4.1299
X5.0207Y-2.5856
X5.0295Y-2.7165
X5.0492Y-4.128
X5.0768Y-3.5758
X5.0768Y-3.6309
X5.0778Y-3.3996
X5.0778Y-3.5157
X5.0787Y-3.4587
X5.0797Y-3.3415
X5.1722Y-4.4114
X5.1732Y-3.8386
X5.2008Y-2.9656
X5.2152Y-3.6614
X5.25Y-4.122
X5.2982Y-4.1289
X5.3061Y-3.8455
X5.3248Y-4.4439
X5.372Y-3.7864
X5.6171Y-2.9636
X5.6644Y-3.9035
X5.6644Y-3.9646
X5.6732Y-2.5797
X5.811Y-3.6811
X5.8179Y-3.7579
X5.8209Y-3.815
X5.8346Y-2.8701
X5.998Y-3.622
X6.0059Y-2.5827
X6.125Y-4.0625
X6.1562Y-4.0
X6.1875Y-3.9375
X6.2224Y-2.7244
X6.249Y-3.564
X6.3209Y-4.7539
X6.3681Y-2.6171
X6.3681Y-2.6732
X6.3691Y-2.7234
X6.4173Y-4.3199
X6.4665Y-4.8071
X6.4688Y-3.5625
X6.5Y-3.7188
X6.5312Y-4.0938
X6.5733Y-4.4823
X6.5743Y-4.5157
X6.5748Y-4.5797
X6.5748Y-4.6959
X6.5758Y-4.6191
X6.5768Y-4.7559
X6.6147Y-4.4813
X6.6156Y-4.5157
X6.6201Y-4.623
X6.622Y-4.5827
X6.625Y-2.7812
X6.689Y-3.6526
X6.6939Y-3.7805
X6.7188Y-3.375
X6.7188Y-3.875
X6.7795Y-3.9262
X6.7815Y-3.7598
X6.8125Y-2.9688
X6.8438Y-3.2188
X6.8438Y-3.9688
X6.9636Y-3.5866
X7.0266Y-3.6398
T2
X3.9368Y-2.5938
X3.9368Y-4.75
X3.9644Y-2.5269
X3.9644Y-2.6606
X3.9644Y-4.6832
X3.9644Y-4.8168
X4.0312Y-2.4993
X4.0312Y-2.6882
X4.0312Y-4.6555
X4.0312Y-4.8445
X4.0981Y-2.5269
X4.0981Y-2.6606
X4.0981Y-4.6832
X4.0981Y-4.8168
X4.1257Y-2.5938
X4.1257Y-4.75
X6.8699Y-2.5938
X6.8699Y-4.75
X6.8976Y-2.5269
X6.8976Y-2.6606
X6.8976Y-4.6832
X6.8976Y-4.8168
X6.9644Y-2.4993
X6.9644Y-2.6882
X6.9644Y-4.6555
X6.9644Y-4.8445
X7.0312Y-2.5269
X7.0312Y-2.6606
X7.0312Y-4.6832
X7.0312Y-4.8168
X7.0589Y-2.5938
X7.0589Y-4.75
T3
X6.5312Y-2.5752
X6.5312Y-2.6752
X6.7188Y-2.5625
X6.7188Y-2.6625
X6.7188Y-2.7625
X6.7188Y-2.8625
X6.7188Y-2.9625
X6.7188Y-3.0625
X6.7188Y-3.1625
X6.7188Y-3.2625
T4
X4.1051Y-3.4203
X4.1051Y-3.6171
X4.1051Y-3.814
X4.1051Y-4.0108
X4.1051Y-4.2077
X4.1051Y-4.4045
X4.547Y-4.6875
X4.7438Y-4.6875
X4.9094Y-2.6562
X4.9407Y-4.6875
X5.1063Y-2.6562
X5.1375Y-4.6875
X5.3031Y-2.6562
X5.3344Y-4.6875
X5.5Y-2.6562
X5.5312Y-4.6875
X5.7281Y-4.6875
T5
X4.0312Y-2.5938
X4.0312Y-4.75
X6.9644Y-2.5938
X6.9644Y-4.75
T6
X4.4286Y-2.4062
X4.6964Y-2.4062
T7
X7.0625Y-3.6009
X7.0625Y-3.7741
T0
M30
