%TF.GenerationSoftware,KiCad,Pcbnew,7.0.7*%
%TF.CreationDate,2023-11-02T23:53:28-05:00*%
%TF.ProjectId,STM32F030,53544d33-3246-4303-9330-2e6b69636164,rev?*%
%TF.SameCoordinates,Original*%
%TF.FileFunction,Copper,L3,Inr*%
%TF.FilePolarity,Positive*%
%FSLAX46Y46*%
G04 Gerber Fmt 4.6, Leading zero omitted, Abs format (unit mm)*
G04 Created by KiCad (PCBNEW 7.0.7) date 2023-11-02 23:53:28*
%MOMM*%
%LPD*%
G01*
G04 APERTURE LIST*
%TA.AperFunction,ComponentPad*%
%ADD10C,0.800000*%
%TD*%
%TA.AperFunction,ComponentPad*%
%ADD11C,6.400000*%
%TD*%
%TA.AperFunction,ComponentPad*%
%ADD12R,1.700000X1.700000*%
%TD*%
%TA.AperFunction,ComponentPad*%
%ADD13O,1.700000X1.700000*%
%TD*%
%TA.AperFunction,ComponentPad*%
%ADD14R,2.600000X2.600000*%
%TD*%
%TA.AperFunction,ComponentPad*%
%ADD15C,2.600000*%
%TD*%
%TA.AperFunction,ViaPad*%
%ADD16C,0.800000*%
%TD*%
G04 APERTURE END LIST*
D10*
%TO.N,N/C*%
%TO.C,H1*%
X99993750Y-65881250D03*
X100696694Y-64184194D03*
X100696694Y-67578306D03*
X102393750Y-63481250D03*
D11*
X102393750Y-65881250D03*
D10*
X102393750Y-68281250D03*
X104090806Y-64184194D03*
X104090806Y-67578306D03*
X104793750Y-65881250D03*
%TD*%
D12*
%TO.N,USART1_TX*%
%TO.C,UART*%
X165893750Y-67950000D03*
D13*
%TO.N,USART1_RX*%
X165893750Y-65410000D03*
%TD*%
D10*
%TO.N,N/C*%
%TO.C,H3*%
X174496694Y-120650000D03*
X175199638Y-118952944D03*
X175199638Y-122347056D03*
X176896694Y-118250000D03*
D11*
X176896694Y-120650000D03*
D10*
X176896694Y-123050000D03*
X178593750Y-118952944D03*
X178593750Y-122347056D03*
X179296694Y-120650000D03*
%TD*%
D12*
%TO.N,RTS*%
%TO.C,GPIO*%
X170656250Y-82867500D03*
D13*
%TO.N,CTS*%
X170656250Y-80327500D03*
%TO.N,GP0*%
X170656250Y-77787500D03*
%TO.N,GP1*%
X170656250Y-75247500D03*
%TO.N,GP2*%
X170656250Y-72707500D03*
%TO.N,GP3*%
X170656250Y-70167500D03*
%TO.N,GP4*%
X170656250Y-67627500D03*
%TO.N,GP5*%
X170656250Y-65087500D03*
%TD*%
D14*
%TO.N,GND*%
%TO.C,Analog*%
X104270000Y-86875000D03*
D15*
%TO.N,+3.3V*%
X104270000Y-91875000D03*
%TO.N,Lin_Pots1*%
X104270000Y-96875000D03*
%TO.N,Lin_Pots2*%
X104270000Y-101875000D03*
%TO.N,Lin_Pots3*%
X104270000Y-106875000D03*
%TO.N,Lin_Pots4*%
X104270000Y-111875000D03*
%TD*%
D10*
%TO.N,N/C*%
%TO.C,H4*%
X99993750Y-120650000D03*
X100696694Y-118952944D03*
X100696694Y-122347056D03*
X102393750Y-118250000D03*
D11*
X102393750Y-120650000D03*
D10*
X102393750Y-123050000D03*
X104090806Y-118952944D03*
X104090806Y-122347056D03*
X104793750Y-120650000D03*
%TD*%
%TO.N,N/C*%
%TO.C,H2*%
X174496694Y-65881250D03*
X175199638Y-64184194D03*
X175199638Y-67578306D03*
X176896694Y-63481250D03*
D11*
X176896694Y-65881250D03*
D10*
X176896694Y-68281250D03*
X178593750Y-64184194D03*
X178593750Y-67578306D03*
X179296694Y-65881250D03*
%TD*%
D14*
%TO.N,GND*%
%TO.C,SPI*%
X115493750Y-119062500D03*
D15*
%TO.N,+3.3V*%
X120493750Y-119062500D03*
%TO.N,SPI1_SCK*%
X125493750Y-119062500D03*
%TO.N,SPI1_MISO*%
X130493750Y-119062500D03*
%TO.N,SPI1_MOSI*%
X135493750Y-119062500D03*
%TO.N,SPI1_CS1*%
X140493750Y-119062500D03*
%TO.N,SPI1_CS2*%
X145493750Y-119062500D03*
%TD*%
D14*
%TO.N,I2C1_SCL*%
%TO.C,I2C*%
X139700000Y-67468750D03*
D15*
%TO.N,I2C1_SDA*%
X134700000Y-67468750D03*
%TO.N,+3.3V*%
X129700000Y-67468750D03*
%TO.N,GND*%
X124700000Y-67468750D03*
%TD*%
D16*
%TO.N,+3.3V*%
X124675000Y-89450000D03*
X142675000Y-75275000D03*
X124625000Y-87875000D03*
X126500000Y-97125000D03*
X124650000Y-90900000D03*
X127525000Y-65675000D03*
X166987500Y-114700000D03*
X131375000Y-112050000D03*
X158050000Y-69200000D03*
X170025000Y-96025000D03*
X161775000Y-69175000D03*
X158725000Y-90525000D03*
X124700000Y-84825000D03*
X135250000Y-112875000D03*
X167000000Y-119275000D03*
X126875000Y-103125000D03*
X172250000Y-95500000D03*
X124625000Y-92425000D03*
X105875000Y-94400000D03*
X166962500Y-113850000D03*
X132100000Y-75325000D03*
X134575000Y-104875000D03*
X102350000Y-94325000D03*
X124675000Y-86350000D03*
X167050000Y-120800000D03*
X122875000Y-120975000D03*
X127750000Y-69000000D03*
X122825000Y-117425000D03*
X168037500Y-114700000D03*
X136450000Y-96175000D03*
X168012500Y-113825000D03*
X128250000Y-104850000D03*
X147850000Y-96900000D03*
X118400000Y-66100000D03*
%TO.N,GND*%
X134775000Y-97675000D03*
X129025000Y-84875000D03*
X167000000Y-116325000D03*
X128950000Y-90825000D03*
X133350000Y-104700000D03*
X122825000Y-65800000D03*
X143875000Y-99150000D03*
X117300000Y-121075000D03*
X147775000Y-95450000D03*
X176875000Y-91100000D03*
X168150000Y-117425000D03*
X172200000Y-99725000D03*
X168200000Y-116400000D03*
X113906248Y-121077833D03*
X164250000Y-122100000D03*
X167025000Y-117325000D03*
X120525000Y-91450000D03*
X122875000Y-69150000D03*
X143875000Y-100700000D03*
X128975000Y-89300000D03*
X113325000Y-66150000D03*
X144100000Y-65525000D03*
X102200000Y-85200000D03*
X160550000Y-120750000D03*
X115950000Y-96675000D03*
X148200000Y-72900000D03*
X163000000Y-109725000D03*
X147600000Y-93500000D03*
X128975000Y-86350000D03*
X102575000Y-88875000D03*
X117200000Y-88300000D03*
X169900000Y-92775000D03*
X118850000Y-104150000D03*
X118775000Y-103150000D03*
X128950000Y-92225000D03*
X161750000Y-67900000D03*
X129000000Y-87850000D03*
X116050000Y-94400000D03*
X161750000Y-66475000D03*
X152350000Y-92000000D03*
X178475000Y-92450000D03*
X152550000Y-65600000D03*
X127025000Y-104900000D03*
%TO.N,NRST*%
X132465364Y-93000000D03*
X131400000Y-97500000D03*
%TO.N,RTS*%
X165893750Y-103981250D03*
X170656250Y-85725000D03*
%TO.N,CTS*%
X173831250Y-100806250D03*
X173831250Y-81756250D03*
%TO.N,GP1*%
X173037500Y-75406250D03*
X170656250Y-98425000D03*
%TO.N,GP3*%
X155575000Y-103187500D03*
X165100000Y-94456250D03*
%TO.N,GP4*%
X156368750Y-101600000D03*
X168275000Y-70643750D03*
%TO.N,GP5*%
X164306250Y-90487500D03*
X157162500Y-100012500D03*
%TD*%
%TA.AperFunction,Conductor*%
%TO.N,GND*%
G36*
X177300424Y-58748508D02*
G01*
X177518934Y-58756686D01*
X177523217Y-58756996D01*
X177798537Y-58786598D01*
X178037914Y-58813571D01*
X178041939Y-58814160D01*
X178310158Y-58862554D01*
X178551359Y-58908193D01*
X178555061Y-58909016D01*
X178817458Y-58975990D01*
X179056419Y-59040021D01*
X179059888Y-59041061D01*
X179315968Y-59126294D01*
X179550529Y-59208372D01*
X179553684Y-59209576D01*
X179802544Y-59312658D01*
X180030951Y-59412312D01*
X180033904Y-59413694D01*
X180093875Y-59443713D01*
X180274450Y-59534103D01*
X180495165Y-59650756D01*
X180495207Y-59650778D01*
X180497873Y-59652272D01*
X180729067Y-59789446D01*
X180940795Y-59922484D01*
X180943151Y-59924041D01*
X181163934Y-60077334D01*
X181366388Y-60226752D01*
X181576672Y-60396210D01*
X181690227Y-60493932D01*
X181767470Y-60560405D01*
X181779001Y-60571141D01*
X181965087Y-60744394D01*
X182143105Y-60922412D01*
X182327093Y-61120028D01*
X182491273Y-61310809D01*
X182491288Y-61310826D01*
X182559612Y-61395610D01*
X182660746Y-61521110D01*
X182810167Y-61723567D01*
X182963445Y-61944329D01*
X182965014Y-61946703D01*
X183098053Y-62158432D01*
X183235226Y-62389625D01*
X183236720Y-62392291D01*
X183353404Y-62613065D01*
X183473804Y-62853594D01*
X183475189Y-62856553D01*
X183574848Y-63084971D01*
X183677892Y-63333740D01*
X183677903Y-63333765D01*
X183679143Y-63337015D01*
X183761211Y-63571550D01*
X183846422Y-63827562D01*
X183847482Y-63831096D01*
X183911517Y-64070070D01*
X183978473Y-64332398D01*
X183979313Y-64336181D01*
X184004502Y-64469302D01*
X184024953Y-64577386D01*
X184073335Y-64845541D01*
X184073930Y-64849608D01*
X184100920Y-65089135D01*
X184130500Y-65364265D01*
X184130812Y-65368575D01*
X184139003Y-65587409D01*
X184149500Y-65881250D01*
X184149500Y-120650000D01*
X184139556Y-120928422D01*
X184130743Y-121163362D01*
X184130431Y-121167666D01*
X184101972Y-121432384D01*
X184073802Y-121682387D01*
X184073207Y-121686454D01*
X184026012Y-121948046D01*
X183979129Y-122195834D01*
X183978283Y-122199642D01*
X183912577Y-122457076D01*
X183847226Y-122700969D01*
X183846166Y-122704503D01*
X183762264Y-122956587D01*
X183678808Y-123195089D01*
X183677568Y-123198338D01*
X183575880Y-123443838D01*
X183474777Y-123675567D01*
X183473392Y-123678526D01*
X183354421Y-123916203D01*
X183236223Y-124139843D01*
X183234729Y-124142509D01*
X183099063Y-124371164D01*
X182964416Y-124585455D01*
X182962847Y-124587829D01*
X182811178Y-124806276D01*
X182708720Y-124945104D01*
X182660014Y-125011098D01*
X182492278Y-125219246D01*
X182326245Y-125412181D01*
X182144072Y-125607850D01*
X181964079Y-125787844D01*
X181768424Y-125970006D01*
X181575489Y-126136041D01*
X181367322Y-126303795D01*
X181162519Y-126454948D01*
X180944065Y-126606624D01*
X180941691Y-126608193D01*
X180727403Y-126742840D01*
X180498770Y-126878495D01*
X180496104Y-126879990D01*
X180272443Y-126998200D01*
X180034771Y-127117170D01*
X180031812Y-127118555D01*
X179800072Y-127219665D01*
X179554574Y-127321354D01*
X179551325Y-127322594D01*
X179312821Y-127406052D01*
X179060757Y-127489949D01*
X179057223Y-127491009D01*
X178813333Y-127556362D01*
X178555883Y-127622073D01*
X178552076Y-127622919D01*
X178304275Y-127669807D01*
X178042712Y-127716999D01*
X178038645Y-127717594D01*
X177788574Y-127745772D01*
X177523948Y-127774223D01*
X177519638Y-127774535D01*
X177270895Y-127783845D01*
X177007626Y-127793250D01*
X102393750Y-127793250D01*
X102099971Y-127782757D01*
X101881086Y-127774567D01*
X101876776Y-127774256D01*
X101601652Y-127744677D01*
X101362104Y-127717686D01*
X101358036Y-127717091D01*
X101089916Y-127668717D01*
X100848692Y-127623075D01*
X100844884Y-127622229D01*
X100582595Y-127555284D01*
X100343584Y-127491241D01*
X100340059Y-127490183D01*
X100260099Y-127463570D01*
X100084077Y-127404984D01*
X99849490Y-127322899D01*
X99846261Y-127321667D01*
X99597474Y-127218616D01*
X99369037Y-127118950D01*
X99366077Y-127117565D01*
X99365288Y-127117170D01*
X99125554Y-126997167D01*
X98904787Y-126880489D01*
X98902126Y-126878998D01*
X98670913Y-126741813D01*
X98459187Y-126608777D01*
X98456813Y-126607208D01*
X98236054Y-126453931D01*
X98033604Y-126304517D01*
X97823309Y-126135051D01*
X97632517Y-125970861D01*
X97535206Y-125880262D01*
X97434908Y-125786880D01*
X97256869Y-125608841D01*
X97166592Y-125511877D01*
X97072888Y-125411232D01*
X96908690Y-125220430D01*
X96840373Y-125135654D01*
X96739229Y-125010141D01*
X96589818Y-124807695D01*
X96533877Y-124727125D01*
X96436522Y-124586908D01*
X96434986Y-124584584D01*
X96301934Y-124372833D01*
X96300944Y-124371164D01*
X96164735Y-124141596D01*
X96163265Y-124138972D01*
X96046609Y-123918248D01*
X95926167Y-123677637D01*
X95924813Y-123674743D01*
X95825135Y-123446280D01*
X95722066Y-123197450D01*
X95720862Y-123194293D01*
X95638765Y-122959672D01*
X95621430Y-122907590D01*
X95553551Y-122703647D01*
X95552513Y-122700185D01*
X95488462Y-122461143D01*
X95421718Y-122199642D01*
X95421514Y-122198843D01*
X95420682Y-122195097D01*
X95375034Y-121953841D01*
X95326652Y-121685682D01*
X95326066Y-121681676D01*
X95299075Y-121442126D01*
X95269489Y-121166935D01*
X95269184Y-121162720D01*
X95261011Y-120944322D01*
X95250500Y-120650000D01*
X98688172Y-120650000D01*
X98708472Y-121037339D01*
X98755176Y-121332216D01*
X98769148Y-121420433D01*
X98835105Y-121666590D01*
X98869538Y-121795094D01*
X99008537Y-122157197D01*
X99184627Y-122502793D01*
X99395872Y-122828082D01*
X99499934Y-122956587D01*
X99639969Y-123129516D01*
X99914234Y-123403781D01*
X99914238Y-123403784D01*
X100215667Y-123647877D01*
X100540956Y-123859122D01*
X100540961Y-123859125D01*
X100886556Y-124035214D01*
X101248663Y-124174214D01*
X101623317Y-124274602D01*
X102006412Y-124335278D01*
X102372326Y-124354455D01*
X102393749Y-124355578D01*
X102393750Y-124355578D01*
X102393751Y-124355578D01*
X102414051Y-124354514D01*
X102781088Y-124335278D01*
X103164183Y-124274602D01*
X103538837Y-124174214D01*
X103900944Y-124035214D01*
X104246539Y-123859125D01*
X104571834Y-123647876D01*
X104873266Y-123403781D01*
X105147531Y-123129516D01*
X105391626Y-122828084D01*
X105602875Y-122502789D01*
X105778964Y-122157194D01*
X105917964Y-121795087D01*
X106018352Y-121420433D01*
X106079028Y-121037338D01*
X106082295Y-120975000D01*
X121969540Y-120975000D01*
X121989326Y-121163256D01*
X121989327Y-121163259D01*
X122047818Y-121343277D01*
X122047821Y-121343284D01*
X122142467Y-121507216D01*
X122211737Y-121584148D01*
X122269129Y-121647888D01*
X122422265Y-121759148D01*
X122422270Y-121759151D01*
X122595192Y-121836142D01*
X122595197Y-121836144D01*
X122780354Y-121875500D01*
X122780355Y-121875500D01*
X122969644Y-121875500D01*
X122969646Y-121875500D01*
X123154803Y-121836144D01*
X123327730Y-121759151D01*
X123480871Y-121647888D01*
X123607533Y-121507216D01*
X123702179Y-121343284D01*
X123760674Y-121163256D01*
X123780460Y-120975000D01*
X123760674Y-120786744D01*
X123702179Y-120606716D01*
X123607533Y-120442784D01*
X123480871Y-120302112D01*
X123465011Y-120290589D01*
X123327734Y-120190851D01*
X123327729Y-120190848D01*
X123154807Y-120113857D01*
X123154802Y-120113855D01*
X122993649Y-120079602D01*
X122969646Y-120074500D01*
X122780354Y-120074500D01*
X122756351Y-120079602D01*
X122595197Y-120113855D01*
X122595192Y-120113857D01*
X122422270Y-120190848D01*
X122422265Y-120190851D01*
X122269129Y-120302111D01*
X122142466Y-120442785D01*
X122047821Y-120606715D01*
X122047818Y-120606722D01*
X122003462Y-120743237D01*
X121989326Y-120786744D01*
X121969540Y-120975000D01*
X106082295Y-120975000D01*
X106099328Y-120650000D01*
X106086768Y-120410344D01*
X113693750Y-120410344D01*
X113700151Y-120469872D01*
X113700153Y-120469879D01*
X113750395Y-120604586D01*
X113750399Y-120604593D01*
X113836559Y-120719687D01*
X113836562Y-120719690D01*
X113951656Y-120805850D01*
X113951663Y-120805854D01*
X114086370Y-120856096D01*
X114086377Y-120856098D01*
X114145905Y-120862499D01*
X114145922Y-120862500D01*
X115243750Y-120862500D01*
X115243750Y-119829253D01*
X115263435Y-119762214D01*
X115316239Y-119716459D01*
X115385397Y-119706515D01*
X115398566Y-119709144D01*
X115411636Y-119712500D01*
X115411640Y-119712500D01*
X115534642Y-119712500D01*
X115534644Y-119712500D01*
X115534649Y-119712499D01*
X115534653Y-119712499D01*
X115582020Y-119706515D01*
X115604207Y-119703712D01*
X115673185Y-119714838D01*
X115725197Y-119761491D01*
X115743749Y-119826734D01*
X115743749Y-120862499D01*
X115743751Y-120862500D01*
X116841578Y-120862500D01*
X116841594Y-120862499D01*
X116901122Y-120856098D01*
X116901129Y-120856096D01*
X117035836Y-120805854D01*
X117035843Y-120805850D01*
X117150937Y-120719690D01*
X117150940Y-120719687D01*
X117237100Y-120604593D01*
X117237104Y-120604586D01*
X117287346Y-120469879D01*
X117287348Y-120469872D01*
X117293749Y-120410344D01*
X117293750Y-120410327D01*
X117293750Y-119312500D01*
X116257671Y-119312500D01*
X116190632Y-119292815D01*
X116144877Y-119240011D01*
X116134933Y-119170853D01*
X116135867Y-119165266D01*
X116140152Y-119142802D01*
X116147623Y-119103638D01*
X116145035Y-119062504D01*
X118688201Y-119062504D01*
X118708366Y-119331601D01*
X118768414Y-119594688D01*
X118768416Y-119594695D01*
X118867006Y-119845896D01*
X118867008Y-119845900D01*
X118895520Y-119895284D01*
X119001935Y-120079602D01*
X119137830Y-120250009D01*
X119170192Y-120290589D01*
X119334222Y-120442785D01*
X119368009Y-120474135D01*
X119590976Y-120626151D01*
X119834109Y-120743238D01*
X120091978Y-120822780D01*
X120091979Y-120822780D01*
X120091982Y-120822781D01*
X120358813Y-120862999D01*
X120358818Y-120862999D01*
X120358821Y-120863000D01*
X120358822Y-120863000D01*
X120628678Y-120863000D01*
X120628679Y-120863000D01*
X120628686Y-120862999D01*
X120895517Y-120822781D01*
X120895518Y-120822780D01*
X120895522Y-120822780D01*
X121153391Y-120743238D01*
X121396525Y-120626151D01*
X121619491Y-120474135D01*
X121817311Y-120290585D01*
X121985565Y-120079602D01*
X122120493Y-119845898D01*
X122219084Y-119594695D01*
X122279133Y-119331603D01*
X122293281Y-119142806D01*
X122299299Y-119062504D01*
X123688201Y-119062504D01*
X123708366Y-119331601D01*
X123768414Y-119594688D01*
X123768416Y-119594695D01*
X123867006Y-119845896D01*
X123867008Y-119845900D01*
X123895520Y-119895284D01*
X124001935Y-120079602D01*
X124137830Y-120250009D01*
X124170192Y-120290589D01*
X124334222Y-120442785D01*
X124368009Y-120474135D01*
X124590976Y-120626151D01*
X124834109Y-120743238D01*
X125091978Y-120822780D01*
X125091979Y-120822780D01*
X125091982Y-120822781D01*
X125358813Y-120862999D01*
X125358818Y-120862999D01*
X125358821Y-120863000D01*
X125358822Y-120863000D01*
X125628678Y-120863000D01*
X125628679Y-120863000D01*
X125628686Y-120862999D01*
X125895517Y-120822781D01*
X125895518Y-120822780D01*
X125895522Y-120822780D01*
X126153391Y-120743238D01*
X126396525Y-120626151D01*
X126619491Y-120474135D01*
X126817311Y-120290585D01*
X126985565Y-120079602D01*
X127120493Y-119845898D01*
X127219084Y-119594695D01*
X127279133Y-119331603D01*
X127293281Y-119142806D01*
X127299299Y-119062504D01*
X128688201Y-119062504D01*
X128708366Y-119331601D01*
X128768414Y-119594688D01*
X128768416Y-119594695D01*
X128867006Y-119845896D01*
X128867008Y-119845900D01*
X128895520Y-119895284D01*
X129001935Y-120079602D01*
X129137830Y-120250009D01*
X129170192Y-120290589D01*
X129334222Y-120442785D01*
X129368009Y-120474135D01*
X129590976Y-120626151D01*
X129834109Y-120743238D01*
X130091978Y-120822780D01*
X130091979Y-120822780D01*
X130091982Y-120822781D01*
X130358813Y-120862999D01*
X130358818Y-120862999D01*
X130358821Y-120863000D01*
X130358822Y-120863000D01*
X130628678Y-120863000D01*
X130628679Y-120863000D01*
X130628686Y-120862999D01*
X130895517Y-120822781D01*
X130895518Y-120822780D01*
X130895522Y-120822780D01*
X131153391Y-120743238D01*
X131396525Y-120626151D01*
X131619491Y-120474135D01*
X131817311Y-120290585D01*
X131985565Y-120079602D01*
X132120493Y-119845898D01*
X132219084Y-119594695D01*
X132279133Y-119331603D01*
X132293281Y-119142806D01*
X132299299Y-119062504D01*
X133688201Y-119062504D01*
X133708366Y-119331601D01*
X133768414Y-119594688D01*
X133768416Y-119594695D01*
X133867006Y-119845896D01*
X133867008Y-119845900D01*
X133895520Y-119895284D01*
X134001935Y-120079602D01*
X134137830Y-120250009D01*
X134170192Y-120290589D01*
X134334222Y-120442785D01*
X134368009Y-120474135D01*
X134590976Y-120626151D01*
X134834109Y-120743238D01*
X135091978Y-120822780D01*
X135091979Y-120822780D01*
X135091982Y-120822781D01*
X135358813Y-120862999D01*
X135358818Y-120862999D01*
X135358821Y-120863000D01*
X135358822Y-120863000D01*
X135628678Y-120863000D01*
X135628679Y-120863000D01*
X135628686Y-120862999D01*
X135895517Y-120822781D01*
X135895518Y-120822780D01*
X135895522Y-120822780D01*
X136153391Y-120743238D01*
X136396525Y-120626151D01*
X136619491Y-120474135D01*
X136817311Y-120290585D01*
X136985565Y-120079602D01*
X137120493Y-119845898D01*
X137219084Y-119594695D01*
X137279133Y-119331603D01*
X137293281Y-119142806D01*
X137299299Y-119062504D01*
X138688201Y-119062504D01*
X138708366Y-119331601D01*
X138768414Y-119594688D01*
X138768416Y-119594695D01*
X138867006Y-119845896D01*
X138867008Y-119845900D01*
X138895520Y-119895284D01*
X139001935Y-120079602D01*
X139137830Y-120250009D01*
X139170192Y-120290589D01*
X139334222Y-120442785D01*
X139368009Y-120474135D01*
X139590976Y-120626151D01*
X139834109Y-120743238D01*
X140091978Y-120822780D01*
X140091979Y-120822780D01*
X140091982Y-120822781D01*
X140358813Y-120862999D01*
X140358818Y-120862999D01*
X140358821Y-120863000D01*
X140358822Y-120863000D01*
X140628678Y-120863000D01*
X140628679Y-120863000D01*
X140628686Y-120862999D01*
X140895517Y-120822781D01*
X140895518Y-120822780D01*
X140895522Y-120822780D01*
X141153391Y-120743238D01*
X141396525Y-120626151D01*
X141619491Y-120474135D01*
X141817311Y-120290585D01*
X141985565Y-120079602D01*
X142120493Y-119845898D01*
X142219084Y-119594695D01*
X142279133Y-119331603D01*
X142293281Y-119142806D01*
X142299299Y-119062504D01*
X143688201Y-119062504D01*
X143708366Y-119331601D01*
X143768414Y-119594688D01*
X143768416Y-119594695D01*
X143867006Y-119845896D01*
X143867008Y-119845900D01*
X143895520Y-119895284D01*
X144001935Y-120079602D01*
X144137830Y-120250009D01*
X144170192Y-120290589D01*
X144334222Y-120442785D01*
X144368009Y-120474135D01*
X144590976Y-120626151D01*
X144834109Y-120743238D01*
X145091978Y-120822780D01*
X145091979Y-120822780D01*
X145091982Y-120822781D01*
X145358813Y-120862999D01*
X145358818Y-120862999D01*
X145358821Y-120863000D01*
X145358822Y-120863000D01*
X145628678Y-120863000D01*
X145628679Y-120863000D01*
X145628686Y-120862999D01*
X145895517Y-120822781D01*
X145895518Y-120822780D01*
X145895522Y-120822780D01*
X146153391Y-120743238D01*
X146396525Y-120626151D01*
X146619491Y-120474135D01*
X146817311Y-120290585D01*
X146985565Y-120079602D01*
X147120493Y-119845898D01*
X147219084Y-119594695D01*
X147279133Y-119331603D01*
X147283375Y-119275000D01*
X166094540Y-119275000D01*
X166114326Y-119463256D01*
X166114327Y-119463259D01*
X166172818Y-119643277D01*
X166172821Y-119643284D01*
X166267467Y-119807216D01*
X166394129Y-119947888D01*
X166410494Y-119959778D01*
X166453160Y-120015105D01*
X166459141Y-120084718D01*
X166429761Y-120143067D01*
X166317466Y-120267785D01*
X166222821Y-120431715D01*
X166222818Y-120431722D01*
X166164327Y-120611740D01*
X166164326Y-120611744D01*
X166144540Y-120800000D01*
X166164326Y-120988256D01*
X166164327Y-120988259D01*
X166222818Y-121168277D01*
X166222821Y-121168284D01*
X166317467Y-121332216D01*
X166327433Y-121343284D01*
X166444129Y-121472888D01*
X166597265Y-121584148D01*
X166597270Y-121584151D01*
X166770192Y-121661142D01*
X166770197Y-121661144D01*
X166955354Y-121700500D01*
X166955355Y-121700500D01*
X167144644Y-121700500D01*
X167144646Y-121700500D01*
X167329803Y-121661144D01*
X167502730Y-121584151D01*
X167655871Y-121472888D01*
X167782533Y-121332216D01*
X167877179Y-121168284D01*
X167935674Y-120988256D01*
X167955460Y-120800000D01*
X167939695Y-120650000D01*
X173191116Y-120650000D01*
X173211416Y-121037339D01*
X173258120Y-121332216D01*
X173272092Y-121420433D01*
X173338049Y-121666590D01*
X173372482Y-121795094D01*
X173511481Y-122157197D01*
X173687571Y-122502793D01*
X173898816Y-122828082D01*
X174002878Y-122956587D01*
X174142913Y-123129516D01*
X174417178Y-123403781D01*
X174417182Y-123403784D01*
X174718611Y-123647877D01*
X175043900Y-123859122D01*
X175043905Y-123859125D01*
X175389500Y-124035214D01*
X175751607Y-124174214D01*
X176126261Y-124274602D01*
X176509356Y-124335278D01*
X176875270Y-124354455D01*
X176896693Y-124355578D01*
X176896694Y-124355578D01*
X176896695Y-124355578D01*
X176916995Y-124354514D01*
X177284032Y-124335278D01*
X177667127Y-124274602D01*
X178041781Y-124174214D01*
X178403888Y-124035214D01*
X178749483Y-123859125D01*
X179074778Y-123647876D01*
X179376210Y-123403781D01*
X179650475Y-123129516D01*
X179894570Y-122828084D01*
X180105819Y-122502789D01*
X180281908Y-122157194D01*
X180420908Y-121795087D01*
X180521296Y-121420433D01*
X180581972Y-121037338D01*
X180602272Y-120650000D01*
X180581972Y-120262662D01*
X180521296Y-119879567D01*
X180420908Y-119504913D01*
X180281908Y-119142806D01*
X180105819Y-118797211D01*
X180096944Y-118783544D01*
X179894571Y-118471917D01*
X179681787Y-118209151D01*
X179650475Y-118170484D01*
X179376210Y-117896219D01*
X179341858Y-117868401D01*
X179074776Y-117652122D01*
X178749487Y-117440877D01*
X178403891Y-117264787D01*
X178041788Y-117125788D01*
X178041781Y-117125786D01*
X177667127Y-117025398D01*
X177667123Y-117025397D01*
X177667122Y-117025397D01*
X177284033Y-116964722D01*
X176896695Y-116944422D01*
X176896693Y-116944422D01*
X176509354Y-116964722D01*
X176126266Y-117025397D01*
X176126264Y-117025397D01*
X175751599Y-117125788D01*
X175389496Y-117264787D01*
X175043900Y-117440877D01*
X174718611Y-117652122D01*
X174417182Y-117896215D01*
X174417174Y-117896222D01*
X174142916Y-118170480D01*
X174142909Y-118170488D01*
X173898816Y-118471917D01*
X173687571Y-118797206D01*
X173511481Y-119142802D01*
X173372482Y-119504905D01*
X173272091Y-119879570D01*
X173272091Y-119879572D01*
X173211416Y-120262660D01*
X173191116Y-120649999D01*
X173191116Y-120650000D01*
X167939695Y-120650000D01*
X167935674Y-120611744D01*
X167877179Y-120431716D01*
X167782533Y-120267784D01*
X167655871Y-120127112D01*
X167639502Y-120115219D01*
X167596837Y-120059888D01*
X167590859Y-119990275D01*
X167620236Y-119931933D01*
X167732533Y-119807216D01*
X167827179Y-119643284D01*
X167885674Y-119463256D01*
X167905460Y-119275000D01*
X167885674Y-119086744D01*
X167827179Y-118906716D01*
X167732533Y-118742784D01*
X167605871Y-118602112D01*
X167582188Y-118584905D01*
X167452734Y-118490851D01*
X167452729Y-118490848D01*
X167279807Y-118413857D01*
X167279802Y-118413855D01*
X167134001Y-118382865D01*
X167094646Y-118374500D01*
X166905354Y-118374500D01*
X166872897Y-118381398D01*
X166720197Y-118413855D01*
X166720192Y-118413857D01*
X166547270Y-118490848D01*
X166547265Y-118490851D01*
X166394129Y-118602111D01*
X166267466Y-118742785D01*
X166172821Y-118906715D01*
X166172818Y-118906722D01*
X166135569Y-119021364D01*
X166114326Y-119086744D01*
X166105486Y-119170853D01*
X166095596Y-119264957D01*
X166094540Y-119275000D01*
X147283375Y-119275000D01*
X147293281Y-119142806D01*
X147299299Y-119062504D01*
X147299299Y-119062495D01*
X147281663Y-118827163D01*
X147279133Y-118793397D01*
X147219084Y-118530305D01*
X147120493Y-118279102D01*
X146985565Y-118045398D01*
X146817311Y-117834415D01*
X146817310Y-117834414D01*
X146817307Y-117834410D01*
X146619491Y-117650865D01*
X146601022Y-117638273D01*
X146396525Y-117498849D01*
X146396519Y-117498846D01*
X146396518Y-117498845D01*
X146396517Y-117498844D01*
X146153393Y-117381763D01*
X146153395Y-117381763D01*
X145895523Y-117302220D01*
X145895517Y-117302218D01*
X145628686Y-117262000D01*
X145628679Y-117262000D01*
X145358821Y-117262000D01*
X145358813Y-117262000D01*
X145091982Y-117302218D01*
X145091976Y-117302220D01*
X144834108Y-117381762D01*
X144590980Y-117498846D01*
X144368008Y-117650865D01*
X144170192Y-117834410D01*
X144001935Y-118045398D01*
X143867008Y-118279099D01*
X143867006Y-118279103D01*
X143768416Y-118530304D01*
X143768414Y-118530311D01*
X143708366Y-118793398D01*
X143688201Y-119062495D01*
X143688201Y-119062504D01*
X142299299Y-119062504D01*
X142299299Y-119062495D01*
X142281663Y-118827163D01*
X142279133Y-118793397D01*
X142219084Y-118530305D01*
X142120493Y-118279102D01*
X141985565Y-118045398D01*
X141817311Y-117834415D01*
X141817310Y-117834414D01*
X141817307Y-117834410D01*
X141619491Y-117650865D01*
X141601022Y-117638273D01*
X141396525Y-117498849D01*
X141396519Y-117498846D01*
X141396518Y-117498845D01*
X141396517Y-117498844D01*
X141153393Y-117381763D01*
X141153395Y-117381763D01*
X140895523Y-117302220D01*
X140895517Y-117302218D01*
X140628686Y-117262000D01*
X140628679Y-117262000D01*
X140358821Y-117262000D01*
X140358813Y-117262000D01*
X140091982Y-117302218D01*
X140091976Y-117302220D01*
X139834108Y-117381762D01*
X139590980Y-117498846D01*
X139368008Y-117650865D01*
X139170192Y-117834410D01*
X139001935Y-118045398D01*
X138867008Y-118279099D01*
X138867006Y-118279103D01*
X138768416Y-118530304D01*
X138768414Y-118530311D01*
X138708366Y-118793398D01*
X138688201Y-119062495D01*
X138688201Y-119062504D01*
X137299299Y-119062504D01*
X137299299Y-119062495D01*
X137281663Y-118827163D01*
X137279133Y-118793397D01*
X137219084Y-118530305D01*
X137120493Y-118279102D01*
X136985565Y-118045398D01*
X136817311Y-117834415D01*
X136817310Y-117834414D01*
X136817307Y-117834410D01*
X136619491Y-117650865D01*
X136601022Y-117638273D01*
X136396525Y-117498849D01*
X136396519Y-117498846D01*
X136396518Y-117498845D01*
X136396517Y-117498844D01*
X136153393Y-117381763D01*
X136153395Y-117381763D01*
X135895523Y-117302220D01*
X135895517Y-117302218D01*
X135628686Y-117262000D01*
X135628679Y-117262000D01*
X135358821Y-117262000D01*
X135358813Y-117262000D01*
X135091982Y-117302218D01*
X135091976Y-117302220D01*
X134834108Y-117381762D01*
X134590980Y-117498846D01*
X134368008Y-117650865D01*
X134170192Y-117834410D01*
X134001935Y-118045398D01*
X133867008Y-118279099D01*
X133867006Y-118279103D01*
X133768416Y-118530304D01*
X133768414Y-118530311D01*
X133708366Y-118793398D01*
X133688201Y-119062495D01*
X133688201Y-119062504D01*
X132299299Y-119062504D01*
X132299299Y-119062495D01*
X132281663Y-118827163D01*
X132279133Y-118793397D01*
X132219084Y-118530305D01*
X132120493Y-118279102D01*
X131985565Y-118045398D01*
X131817311Y-117834415D01*
X131817310Y-117834414D01*
X131817307Y-117834410D01*
X131619491Y-117650865D01*
X131601022Y-117638273D01*
X131396525Y-117498849D01*
X131396519Y-117498846D01*
X131396518Y-117498845D01*
X131396517Y-117498844D01*
X131153393Y-117381763D01*
X131153395Y-117381763D01*
X130895523Y-117302220D01*
X130895517Y-117302218D01*
X130628686Y-117262000D01*
X130628679Y-117262000D01*
X130358821Y-117262000D01*
X130358813Y-117262000D01*
X130091982Y-117302218D01*
X130091976Y-117302220D01*
X129834108Y-117381762D01*
X129590980Y-117498846D01*
X129368008Y-117650865D01*
X129170192Y-117834410D01*
X129001935Y-118045398D01*
X128867008Y-118279099D01*
X128867006Y-118279103D01*
X128768416Y-118530304D01*
X128768414Y-118530311D01*
X128708366Y-118793398D01*
X128688201Y-119062495D01*
X128688201Y-119062504D01*
X127299299Y-119062504D01*
X127299299Y-119062495D01*
X127281663Y-118827163D01*
X127279133Y-118793397D01*
X127219084Y-118530305D01*
X127120493Y-118279102D01*
X126985565Y-118045398D01*
X126817311Y-117834415D01*
X126817310Y-117834414D01*
X126817307Y-117834410D01*
X126619491Y-117650865D01*
X126601022Y-117638273D01*
X126396525Y-117498849D01*
X126396519Y-117498846D01*
X126396518Y-117498845D01*
X126396517Y-117498844D01*
X126153393Y-117381763D01*
X126153395Y-117381763D01*
X125895523Y-117302220D01*
X125895517Y-117302218D01*
X125628686Y-117262000D01*
X125628679Y-117262000D01*
X125358821Y-117262000D01*
X125358813Y-117262000D01*
X125091982Y-117302218D01*
X125091976Y-117302220D01*
X124834108Y-117381762D01*
X124590980Y-117498846D01*
X124368008Y-117650865D01*
X124170192Y-117834410D01*
X124001935Y-118045398D01*
X123867008Y-118279099D01*
X123867006Y-118279103D01*
X123768416Y-118530304D01*
X123768414Y-118530311D01*
X123708366Y-118793398D01*
X123688201Y-119062495D01*
X123688201Y-119062504D01*
X122299299Y-119062504D01*
X122299299Y-119062495D01*
X122281663Y-118827163D01*
X122279133Y-118793397D01*
X122219084Y-118530305D01*
X122136722Y-118320454D01*
X122130554Y-118250858D01*
X122162992Y-118188974D01*
X122223737Y-118154451D01*
X122293503Y-118158250D01*
X122325036Y-118174834D01*
X122372265Y-118209148D01*
X122372270Y-118209151D01*
X122545192Y-118286142D01*
X122545197Y-118286144D01*
X122730354Y-118325500D01*
X122730355Y-118325500D01*
X122919644Y-118325500D01*
X122919646Y-118325500D01*
X123104803Y-118286144D01*
X123277730Y-118209151D01*
X123430871Y-118097888D01*
X123557533Y-117957216D01*
X123652179Y-117793284D01*
X123710674Y-117613256D01*
X123730460Y-117425000D01*
X123710674Y-117236744D01*
X123652179Y-117056716D01*
X123557533Y-116892784D01*
X123430871Y-116752112D01*
X123430870Y-116752111D01*
X123277734Y-116640851D01*
X123277729Y-116640848D01*
X123104807Y-116563857D01*
X123104802Y-116563855D01*
X122959000Y-116532865D01*
X122919646Y-116524500D01*
X122730354Y-116524500D01*
X122697897Y-116531398D01*
X122545197Y-116563855D01*
X122545192Y-116563857D01*
X122372270Y-116640848D01*
X122372265Y-116640851D01*
X122219129Y-116752111D01*
X122092466Y-116892785D01*
X121997821Y-117056715D01*
X121997818Y-117056722D01*
X121939327Y-117236740D01*
X121939326Y-117236744D01*
X121919540Y-117425000D01*
X121939326Y-117613256D01*
X121939326Y-117613258D01*
X121939327Y-117613260D01*
X121947454Y-117638273D01*
X121949449Y-117708114D01*
X121913368Y-117767946D01*
X121850667Y-117798774D01*
X121781253Y-117790809D01*
X121745182Y-117767489D01*
X121619491Y-117650865D01*
X121601022Y-117638273D01*
X121396525Y-117498849D01*
X121396519Y-117498846D01*
X121396518Y-117498845D01*
X121396517Y-117498844D01*
X121153393Y-117381763D01*
X121153395Y-117381763D01*
X120895523Y-117302220D01*
X120895517Y-117302218D01*
X120628686Y-117262000D01*
X120628679Y-117262000D01*
X120358821Y-117262000D01*
X120358813Y-117262000D01*
X120091982Y-117302218D01*
X120091976Y-117302220D01*
X119834108Y-117381762D01*
X119590980Y-117498846D01*
X119368008Y-117650865D01*
X119170192Y-117834410D01*
X119001935Y-118045398D01*
X118867008Y-118279099D01*
X118867006Y-118279103D01*
X118768416Y-118530304D01*
X118768414Y-118530311D01*
X118708366Y-118793398D01*
X118688201Y-119062495D01*
X118688201Y-119062504D01*
X116145035Y-119062504D01*
X116137597Y-118944284D01*
X116153033Y-118876143D01*
X116202859Y-118827163D01*
X116261352Y-118812500D01*
X117293750Y-118812500D01*
X117293749Y-118812499D01*
X117293750Y-117714672D01*
X117293749Y-117714655D01*
X117287348Y-117655127D01*
X117287346Y-117655120D01*
X117237104Y-117520413D01*
X117237100Y-117520406D01*
X117150940Y-117405312D01*
X117150937Y-117405309D01*
X117035843Y-117319149D01*
X117035836Y-117319145D01*
X116901129Y-117268903D01*
X116901122Y-117268901D01*
X116841594Y-117262500D01*
X115743750Y-117262500D01*
X115743750Y-118295746D01*
X115724065Y-118362785D01*
X115671261Y-118408540D01*
X115602103Y-118418484D01*
X115588915Y-118415851D01*
X115575865Y-118412500D01*
X115575864Y-118412500D01*
X115452856Y-118412500D01*
X115452844Y-118412500D01*
X115383291Y-118421287D01*
X115314313Y-118410160D01*
X115262301Y-118363506D01*
X115243750Y-118298265D01*
X115243750Y-117262500D01*
X114145905Y-117262500D01*
X114086377Y-117268901D01*
X114086370Y-117268903D01*
X113951663Y-117319145D01*
X113951656Y-117319149D01*
X113836562Y-117405309D01*
X113836559Y-117405312D01*
X113750399Y-117520406D01*
X113750395Y-117520413D01*
X113700153Y-117655120D01*
X113700151Y-117655127D01*
X113693750Y-117714655D01*
X113693750Y-118812500D01*
X114729829Y-118812500D01*
X114796868Y-118832185D01*
X114842623Y-118884989D01*
X114852567Y-118954147D01*
X114851633Y-118959734D01*
X114839877Y-119021362D01*
X114849282Y-119170853D01*
X114849903Y-119180714D01*
X114834467Y-119248857D01*
X114784641Y-119297837D01*
X114726148Y-119312500D01*
X113693750Y-119312500D01*
X113693750Y-120410344D01*
X106086768Y-120410344D01*
X106079028Y-120262662D01*
X106018352Y-119879567D01*
X105917964Y-119504913D01*
X105778964Y-119142806D01*
X105602875Y-118797211D01*
X105594000Y-118783544D01*
X105391627Y-118471917D01*
X105178843Y-118209151D01*
X105147531Y-118170484D01*
X104873266Y-117896219D01*
X104838914Y-117868401D01*
X104571832Y-117652122D01*
X104246543Y-117440877D01*
X103900947Y-117264787D01*
X103538844Y-117125788D01*
X103538837Y-117125786D01*
X103164183Y-117025398D01*
X103164179Y-117025397D01*
X103164178Y-117025397D01*
X102781089Y-116964722D01*
X102393751Y-116944422D01*
X102393749Y-116944422D01*
X102006410Y-116964722D01*
X101623322Y-117025397D01*
X101623320Y-117025397D01*
X101248655Y-117125788D01*
X100886552Y-117264787D01*
X100540956Y-117440877D01*
X100215667Y-117652122D01*
X99914238Y-117896215D01*
X99914230Y-117896222D01*
X99639972Y-118170480D01*
X99639965Y-118170488D01*
X99395872Y-118471917D01*
X99184627Y-118797206D01*
X99008537Y-119142802D01*
X98869538Y-119504905D01*
X98769147Y-119879570D01*
X98769147Y-119879572D01*
X98708472Y-120262660D01*
X98688172Y-120649999D01*
X98688172Y-120650000D01*
X95250500Y-120650000D01*
X95250500Y-120649500D01*
X95250500Y-113850000D01*
X166057040Y-113850000D01*
X166076826Y-114038256D01*
X166076827Y-114038259D01*
X166135320Y-114218284D01*
X166147298Y-114239030D01*
X166163769Y-114306931D01*
X166157841Y-114339347D01*
X166101827Y-114511740D01*
X166101826Y-114511744D01*
X166082040Y-114700000D01*
X166101826Y-114888256D01*
X166101827Y-114888259D01*
X166160318Y-115068277D01*
X166160321Y-115068284D01*
X166254967Y-115232216D01*
X166381629Y-115372887D01*
X166381629Y-115372888D01*
X166534765Y-115484148D01*
X166534770Y-115484151D01*
X166707692Y-115561142D01*
X166707697Y-115561144D01*
X166892854Y-115600500D01*
X166892855Y-115600500D01*
X167082144Y-115600500D01*
X167082146Y-115600500D01*
X167267303Y-115561144D01*
X167440230Y-115484151D01*
X167440238Y-115484144D01*
X167445857Y-115480902D01*
X167446560Y-115482120D01*
X167505419Y-115461118D01*
X167573473Y-115476942D01*
X167583980Y-115483695D01*
X167584765Y-115484147D01*
X167584770Y-115484151D01*
X167688086Y-115530151D01*
X167757692Y-115561142D01*
X167757697Y-115561144D01*
X167942854Y-115600500D01*
X167942855Y-115600500D01*
X168132144Y-115600500D01*
X168132146Y-115600500D01*
X168317303Y-115561144D01*
X168490230Y-115484151D01*
X168643371Y-115372888D01*
X168770033Y-115232216D01*
X168864679Y-115068284D01*
X168923174Y-114888256D01*
X168942960Y-114700000D01*
X168923174Y-114511744D01*
X168864679Y-114331716D01*
X168847355Y-114301711D01*
X168830883Y-114233811D01*
X168838945Y-114199879D01*
X168837671Y-114199465D01*
X168852768Y-114153000D01*
X168898174Y-114013256D01*
X168917960Y-113825000D01*
X168898174Y-113636744D01*
X168839679Y-113456716D01*
X168745033Y-113292784D01*
X168618371Y-113152112D01*
X168618370Y-113152111D01*
X168465234Y-113040851D01*
X168465229Y-113040848D01*
X168292307Y-112963857D01*
X168292302Y-112963855D01*
X168146501Y-112932865D01*
X168107146Y-112924500D01*
X167917854Y-112924500D01*
X167885397Y-112931398D01*
X167732697Y-112963855D01*
X167732692Y-112963857D01*
X167559770Y-113040848D01*
X167559767Y-113040850D01*
X167541430Y-113054173D01*
X167475623Y-113077651D01*
X167418111Y-113067132D01*
X167415230Y-113065849D01*
X167338081Y-113031499D01*
X167242306Y-112988857D01*
X167242302Y-112988855D01*
X167096501Y-112957865D01*
X167057146Y-112949500D01*
X166867854Y-112949500D01*
X166835397Y-112956398D01*
X166682697Y-112988855D01*
X166682692Y-112988857D01*
X166509770Y-113065848D01*
X166509765Y-113065851D01*
X166356629Y-113177111D01*
X166229966Y-113317785D01*
X166135321Y-113481715D01*
X166135318Y-113481722D01*
X166076827Y-113661740D01*
X166076826Y-113661744D01*
X166057040Y-113850000D01*
X95250500Y-113850000D01*
X95250500Y-111875004D01*
X102464451Y-111875004D01*
X102484616Y-112144101D01*
X102544664Y-112407188D01*
X102544666Y-112407195D01*
X102583725Y-112506716D01*
X102643257Y-112658398D01*
X102778185Y-112892102D01*
X102896807Y-113040849D01*
X102946442Y-113103089D01*
X103133183Y-113276358D01*
X103144259Y-113286635D01*
X103367226Y-113438651D01*
X103610359Y-113555738D01*
X103868228Y-113635280D01*
X103868229Y-113635280D01*
X103868232Y-113635281D01*
X104135063Y-113675499D01*
X104135068Y-113675499D01*
X104135071Y-113675500D01*
X104135072Y-113675500D01*
X104404928Y-113675500D01*
X104404929Y-113675500D01*
X104404936Y-113675499D01*
X104671767Y-113635281D01*
X104671768Y-113635280D01*
X104671772Y-113635280D01*
X104929641Y-113555738D01*
X105172775Y-113438651D01*
X105395741Y-113286635D01*
X105593561Y-113103085D01*
X105761815Y-112892102D01*
X105896743Y-112658398D01*
X105995334Y-112407195D01*
X106055383Y-112144103D01*
X106062435Y-112050000D01*
X130469540Y-112050000D01*
X130489326Y-112238256D01*
X130489327Y-112238259D01*
X130547818Y-112418277D01*
X130547821Y-112418284D01*
X130642467Y-112582216D01*
X130711060Y-112658396D01*
X130769129Y-112722888D01*
X130922265Y-112834148D01*
X130922270Y-112834151D01*
X131095192Y-112911142D01*
X131095197Y-112911144D01*
X131280354Y-112950500D01*
X131280355Y-112950500D01*
X131469644Y-112950500D01*
X131469646Y-112950500D01*
X131654803Y-112911144D01*
X131735983Y-112875000D01*
X134344540Y-112875000D01*
X134364326Y-113063256D01*
X134364327Y-113063259D01*
X134422818Y-113243277D01*
X134422821Y-113243284D01*
X134517467Y-113407216D01*
X134584553Y-113481722D01*
X134644129Y-113547888D01*
X134797265Y-113659148D01*
X134797270Y-113659151D01*
X134970192Y-113736142D01*
X134970197Y-113736144D01*
X135155354Y-113775500D01*
X135155355Y-113775500D01*
X135344644Y-113775500D01*
X135344646Y-113775500D01*
X135529803Y-113736144D01*
X135702730Y-113659151D01*
X135855871Y-113547888D01*
X135982533Y-113407216D01*
X136077179Y-113243284D01*
X136135674Y-113063256D01*
X136155460Y-112875000D01*
X136135674Y-112686744D01*
X136077179Y-112506716D01*
X135982533Y-112342784D01*
X135855871Y-112202112D01*
X135855870Y-112202111D01*
X135702734Y-112090851D01*
X135702729Y-112090848D01*
X135529807Y-112013857D01*
X135529802Y-112013855D01*
X135384000Y-111982865D01*
X135344646Y-111974500D01*
X135155354Y-111974500D01*
X135122897Y-111981398D01*
X134970197Y-112013855D01*
X134970192Y-112013857D01*
X134797270Y-112090848D01*
X134797265Y-112090851D01*
X134644129Y-112202111D01*
X134517466Y-112342785D01*
X134422821Y-112506715D01*
X134422818Y-112506722D01*
X134364327Y-112686740D01*
X134364326Y-112686744D01*
X134344540Y-112875000D01*
X131735983Y-112875000D01*
X131827730Y-112834151D01*
X131980871Y-112722888D01*
X132107533Y-112582216D01*
X132202179Y-112418284D01*
X132260674Y-112238256D01*
X132280460Y-112050000D01*
X132260674Y-111861744D01*
X132202179Y-111681716D01*
X132107533Y-111517784D01*
X131980871Y-111377112D01*
X131933660Y-111342811D01*
X131827734Y-111265851D01*
X131827729Y-111265848D01*
X131654807Y-111188857D01*
X131654802Y-111188855D01*
X131509001Y-111157865D01*
X131469646Y-111149500D01*
X131280354Y-111149500D01*
X131247897Y-111156398D01*
X131095197Y-111188855D01*
X131095192Y-111188857D01*
X130922270Y-111265848D01*
X130922265Y-111265851D01*
X130769129Y-111377111D01*
X130642466Y-111517785D01*
X130547821Y-111681715D01*
X130547818Y-111681722D01*
X130489327Y-111861740D01*
X130489326Y-111861744D01*
X130469540Y-112050000D01*
X106062435Y-112050000D01*
X106075549Y-111875000D01*
X106074555Y-111861740D01*
X106055383Y-111605898D01*
X105995335Y-111342811D01*
X105995334Y-111342805D01*
X105896743Y-111091602D01*
X105761815Y-110857898D01*
X105593561Y-110646915D01*
X105593560Y-110646914D01*
X105593557Y-110646910D01*
X105395741Y-110463365D01*
X105172775Y-110311349D01*
X105172769Y-110311346D01*
X105172768Y-110311345D01*
X105172767Y-110311344D01*
X104929643Y-110194263D01*
X104929645Y-110194263D01*
X104671773Y-110114720D01*
X104671767Y-110114718D01*
X104404936Y-110074500D01*
X104404929Y-110074500D01*
X104135071Y-110074500D01*
X104135063Y-110074500D01*
X103868232Y-110114718D01*
X103868226Y-110114720D01*
X103610358Y-110194262D01*
X103367230Y-110311346D01*
X103144258Y-110463365D01*
X102946442Y-110646910D01*
X102778185Y-110857898D01*
X102643258Y-111091599D01*
X102643256Y-111091603D01*
X102544666Y-111342804D01*
X102544664Y-111342811D01*
X102484616Y-111605898D01*
X102464451Y-111874995D01*
X102464451Y-111875004D01*
X95250500Y-111875004D01*
X95250500Y-106875004D01*
X102464451Y-106875004D01*
X102484616Y-107144101D01*
X102544664Y-107407188D01*
X102544666Y-107407195D01*
X102643257Y-107658398D01*
X102778185Y-107892102D01*
X102914080Y-108062509D01*
X102946442Y-108103089D01*
X103133183Y-108276358D01*
X103144259Y-108286635D01*
X103367226Y-108438651D01*
X103610359Y-108555738D01*
X103868228Y-108635280D01*
X103868229Y-108635280D01*
X103868232Y-108635281D01*
X104135063Y-108675499D01*
X104135068Y-108675499D01*
X104135071Y-108675500D01*
X104135072Y-108675500D01*
X104404928Y-108675500D01*
X104404929Y-108675500D01*
X104404936Y-108675499D01*
X104671767Y-108635281D01*
X104671768Y-108635280D01*
X104671772Y-108635280D01*
X104929641Y-108555738D01*
X105172775Y-108438651D01*
X105395741Y-108286635D01*
X105593561Y-108103085D01*
X105761815Y-107892102D01*
X105896743Y-107658398D01*
X105995334Y-107407195D01*
X106055383Y-107144103D01*
X106075549Y-106875000D01*
X106055383Y-106605897D01*
X105995334Y-106342805D01*
X105896743Y-106091602D01*
X105761815Y-105857898D01*
X105593561Y-105646915D01*
X105593560Y-105646914D01*
X105593557Y-105646910D01*
X105395741Y-105463365D01*
X105395740Y-105463364D01*
X105172775Y-105311349D01*
X105172769Y-105311346D01*
X105172768Y-105311345D01*
X105172767Y-105311344D01*
X104929643Y-105194263D01*
X104929645Y-105194263D01*
X104671773Y-105114720D01*
X104671767Y-105114718D01*
X104404936Y-105074500D01*
X104404929Y-105074500D01*
X104135071Y-105074500D01*
X104135063Y-105074500D01*
X103868232Y-105114718D01*
X103868226Y-105114720D01*
X103610358Y-105194262D01*
X103367230Y-105311346D01*
X103144258Y-105463365D01*
X102946442Y-105646910D01*
X102778185Y-105857898D01*
X102643258Y-106091599D01*
X102643256Y-106091603D01*
X102544666Y-106342804D01*
X102544664Y-106342811D01*
X102484616Y-106605898D01*
X102464451Y-106874995D01*
X102464451Y-106875004D01*
X95250500Y-106875004D01*
X95250500Y-104850000D01*
X127344540Y-104850000D01*
X127364326Y-105038256D01*
X127364327Y-105038259D01*
X127422818Y-105218277D01*
X127422821Y-105218284D01*
X127517467Y-105382216D01*
X127590534Y-105463365D01*
X127644129Y-105522888D01*
X127797265Y-105634148D01*
X127797270Y-105634151D01*
X127970192Y-105711142D01*
X127970197Y-105711144D01*
X128155354Y-105750500D01*
X128155355Y-105750500D01*
X128344644Y-105750500D01*
X128344646Y-105750500D01*
X128529803Y-105711144D01*
X128702730Y-105634151D01*
X128855871Y-105522888D01*
X128982533Y-105382216D01*
X129077179Y-105218284D01*
X129135674Y-105038256D01*
X129152832Y-104875000D01*
X133669540Y-104875000D01*
X133689326Y-105063256D01*
X133689327Y-105063259D01*
X133747818Y-105243277D01*
X133747821Y-105243284D01*
X133842467Y-105407216D01*
X133893024Y-105463365D01*
X133969129Y-105547888D01*
X134122265Y-105659148D01*
X134122270Y-105659151D01*
X134295192Y-105736142D01*
X134295197Y-105736144D01*
X134480354Y-105775500D01*
X134480355Y-105775500D01*
X134669644Y-105775500D01*
X134669646Y-105775500D01*
X134854803Y-105736144D01*
X135027730Y-105659151D01*
X135180871Y-105547888D01*
X135307533Y-105407216D01*
X135402179Y-105243284D01*
X135460674Y-105063256D01*
X135480460Y-104875000D01*
X135460674Y-104686744D01*
X135402179Y-104506716D01*
X135307533Y-104342784D01*
X135180871Y-104202112D01*
X135180870Y-104202111D01*
X135027734Y-104090851D01*
X135027729Y-104090848D01*
X134854807Y-104013857D01*
X134854802Y-104013855D01*
X134709000Y-103982865D01*
X134669646Y-103974500D01*
X134480354Y-103974500D01*
X134448597Y-103981250D01*
X134295197Y-104013855D01*
X134295192Y-104013857D01*
X134122270Y-104090848D01*
X134122265Y-104090851D01*
X133969129Y-104202111D01*
X133842466Y-104342785D01*
X133747821Y-104506715D01*
X133747818Y-104506722D01*
X133699920Y-104654138D01*
X133689326Y-104686744D01*
X133669540Y-104875000D01*
X129152832Y-104875000D01*
X129155460Y-104850000D01*
X129135674Y-104661744D01*
X129077179Y-104481716D01*
X128982533Y-104317784D01*
X128855871Y-104177112D01*
X128855870Y-104177111D01*
X128702734Y-104065851D01*
X128702729Y-104065848D01*
X128529807Y-103988857D01*
X128529802Y-103988855D01*
X128384000Y-103957865D01*
X128344646Y-103949500D01*
X128155354Y-103949500D01*
X128122897Y-103956398D01*
X127970197Y-103988855D01*
X127970192Y-103988857D01*
X127797270Y-104065848D01*
X127797265Y-104065851D01*
X127644129Y-104177111D01*
X127517466Y-104317785D01*
X127422821Y-104481715D01*
X127422818Y-104481722D01*
X127366797Y-104654138D01*
X127364326Y-104661744D01*
X127344540Y-104850000D01*
X95250500Y-104850000D01*
X95250500Y-101875004D01*
X102464451Y-101875004D01*
X102484616Y-102144101D01*
X102544664Y-102407188D01*
X102544666Y-102407195D01*
X102617505Y-102592785D01*
X102643257Y-102658398D01*
X102778185Y-102892102D01*
X102914080Y-103062509D01*
X102946442Y-103103089D01*
X103047764Y-103197101D01*
X103144259Y-103286635D01*
X103367226Y-103438651D01*
X103367229Y-103438652D01*
X103367230Y-103438653D01*
X103397490Y-103453225D01*
X103610359Y-103555738D01*
X103868228Y-103635280D01*
X103868229Y-103635280D01*
X103868232Y-103635281D01*
X104135063Y-103675499D01*
X104135068Y-103675499D01*
X104135071Y-103675500D01*
X104135072Y-103675500D01*
X104404928Y-103675500D01*
X104404929Y-103675500D01*
X104404936Y-103675499D01*
X104671767Y-103635281D01*
X104671768Y-103635280D01*
X104671772Y-103635280D01*
X104929641Y-103555738D01*
X105121765Y-103463216D01*
X105172767Y-103438655D01*
X105172767Y-103438654D01*
X105172775Y-103438651D01*
X105395741Y-103286635D01*
X105569942Y-103125000D01*
X125969540Y-103125000D01*
X125989326Y-103313256D01*
X125989327Y-103313259D01*
X126047818Y-103493277D01*
X126047821Y-103493284D01*
X126142467Y-103657216D01*
X126264719Y-103792990D01*
X126269129Y-103797888D01*
X126422265Y-103909148D01*
X126422270Y-103909151D01*
X126595192Y-103986142D01*
X126595197Y-103986144D01*
X126780354Y-104025500D01*
X126780355Y-104025500D01*
X126969644Y-104025500D01*
X126969646Y-104025500D01*
X127154803Y-103986144D01*
X127327730Y-103909151D01*
X127480871Y-103797888D01*
X127607533Y-103657216D01*
X127702179Y-103493284D01*
X127760674Y-103313256D01*
X127773891Y-103187500D01*
X154669540Y-103187500D01*
X154689326Y-103375756D01*
X154689327Y-103375759D01*
X154747818Y-103555777D01*
X154747821Y-103555784D01*
X154842467Y-103719716D01*
X154908447Y-103792994D01*
X154969129Y-103860388D01*
X155122265Y-103971648D01*
X155122270Y-103971651D01*
X155295192Y-104048642D01*
X155295197Y-104048644D01*
X155480354Y-104088000D01*
X155480355Y-104088000D01*
X155669644Y-104088000D01*
X155669646Y-104088000D01*
X155854803Y-104048644D01*
X156006171Y-103981250D01*
X164988290Y-103981250D01*
X165008076Y-104169506D01*
X165008077Y-104169509D01*
X165066568Y-104349527D01*
X165066571Y-104349534D01*
X165161217Y-104513466D01*
X165287879Y-104654138D01*
X165441015Y-104765398D01*
X165441020Y-104765401D01*
X165613942Y-104842392D01*
X165613947Y-104842394D01*
X165799104Y-104881750D01*
X165799105Y-104881750D01*
X165988394Y-104881750D01*
X165988396Y-104881750D01*
X166173553Y-104842394D01*
X166346480Y-104765401D01*
X166499621Y-104654138D01*
X166626283Y-104513466D01*
X166720929Y-104349534D01*
X166779424Y-104169506D01*
X166799210Y-103981250D01*
X166779424Y-103792994D01*
X166720929Y-103612966D01*
X166626283Y-103449034D01*
X166499621Y-103308362D01*
X166499620Y-103308361D01*
X166346484Y-103197101D01*
X166346479Y-103197098D01*
X166173557Y-103120107D01*
X166173552Y-103120105D01*
X166027751Y-103089115D01*
X165988396Y-103080750D01*
X165799104Y-103080750D01*
X165766647Y-103087648D01*
X165613947Y-103120105D01*
X165613942Y-103120107D01*
X165441020Y-103197098D01*
X165441015Y-103197101D01*
X165287879Y-103308361D01*
X165161216Y-103449035D01*
X165066571Y-103612965D01*
X165066568Y-103612972D01*
X165008077Y-103792990D01*
X165008076Y-103792994D01*
X164988290Y-103981250D01*
X156006171Y-103981250D01*
X156027730Y-103971651D01*
X156180871Y-103860388D01*
X156307533Y-103719716D01*
X156402179Y-103555784D01*
X156460674Y-103375756D01*
X156480460Y-103187500D01*
X156460674Y-102999244D01*
X156402179Y-102819216D01*
X156402176Y-102819210D01*
X156325556Y-102686499D01*
X156309083Y-102618599D01*
X156331936Y-102552572D01*
X156386857Y-102509382D01*
X156432943Y-102500500D01*
X156463394Y-102500500D01*
X156463396Y-102500500D01*
X156648553Y-102461144D01*
X156821480Y-102384151D01*
X156974621Y-102272888D01*
X157101283Y-102132216D01*
X157195929Y-101968284D01*
X157254424Y-101788256D01*
X157274210Y-101600000D01*
X157254424Y-101411744D01*
X157195929Y-101231716D01*
X157195926Y-101231710D01*
X157119306Y-101098999D01*
X157102833Y-101031099D01*
X157125686Y-100965072D01*
X157180607Y-100921882D01*
X157226693Y-100913000D01*
X157257144Y-100913000D01*
X157257146Y-100913000D01*
X157442303Y-100873644D01*
X157593671Y-100806250D01*
X172925790Y-100806250D01*
X172945576Y-100994506D01*
X172945577Y-100994509D01*
X173004068Y-101174527D01*
X173004071Y-101174534D01*
X173098717Y-101338466D01*
X173164697Y-101411744D01*
X173225379Y-101479138D01*
X173378515Y-101590398D01*
X173378520Y-101590401D01*
X173551442Y-101667392D01*
X173551447Y-101667394D01*
X173736604Y-101706750D01*
X173736605Y-101706750D01*
X173925894Y-101706750D01*
X173925896Y-101706750D01*
X174111053Y-101667394D01*
X174283980Y-101590401D01*
X174437121Y-101479138D01*
X174563783Y-101338466D01*
X174658429Y-101174534D01*
X174716924Y-100994506D01*
X174736710Y-100806250D01*
X174716924Y-100617994D01*
X174658429Y-100437966D01*
X174563783Y-100274034D01*
X174437121Y-100133362D01*
X174437120Y-100133361D01*
X174283984Y-100022101D01*
X174283979Y-100022098D01*
X174111057Y-99945107D01*
X174111052Y-99945105D01*
X173965250Y-99914115D01*
X173925896Y-99905750D01*
X173736604Y-99905750D01*
X173704147Y-99912648D01*
X173551447Y-99945105D01*
X173551442Y-99945107D01*
X173378520Y-100022098D01*
X173378515Y-100022101D01*
X173225379Y-100133361D01*
X173098716Y-100274035D01*
X173004071Y-100437965D01*
X173004068Y-100437972D01*
X172945577Y-100617990D01*
X172945576Y-100617994D01*
X172925790Y-100806250D01*
X157593671Y-100806250D01*
X157615230Y-100796651D01*
X157768371Y-100685388D01*
X157895033Y-100544716D01*
X157989679Y-100380784D01*
X158048174Y-100200756D01*
X158067960Y-100012500D01*
X158048174Y-99824244D01*
X157989679Y-99644216D01*
X157895033Y-99480284D01*
X157768371Y-99339612D01*
X157768370Y-99339611D01*
X157615234Y-99228351D01*
X157615229Y-99228348D01*
X157442307Y-99151357D01*
X157442302Y-99151355D01*
X157296501Y-99120365D01*
X157257146Y-99112000D01*
X157067854Y-99112000D01*
X157035397Y-99118898D01*
X156882697Y-99151355D01*
X156882692Y-99151357D01*
X156709770Y-99228348D01*
X156709765Y-99228351D01*
X156556629Y-99339611D01*
X156429966Y-99480285D01*
X156335321Y-99644215D01*
X156335318Y-99644222D01*
X156276827Y-99824240D01*
X156276826Y-99824244D01*
X156257040Y-100012500D01*
X156276826Y-100200756D01*
X156276827Y-100200759D01*
X156335318Y-100380777D01*
X156335323Y-100380789D01*
X156411944Y-100513501D01*
X156428417Y-100581401D01*
X156405564Y-100647428D01*
X156350643Y-100690618D01*
X156304557Y-100699500D01*
X156274104Y-100699500D01*
X156241647Y-100706398D01*
X156088947Y-100738855D01*
X156088942Y-100738857D01*
X155916020Y-100815848D01*
X155916015Y-100815851D01*
X155762879Y-100927111D01*
X155636216Y-101067785D01*
X155541571Y-101231715D01*
X155541568Y-101231722D01*
X155483077Y-101411740D01*
X155483076Y-101411744D01*
X155463290Y-101600000D01*
X155483076Y-101788256D01*
X155483077Y-101788259D01*
X155541568Y-101968277D01*
X155541573Y-101968289D01*
X155618194Y-102101001D01*
X155634667Y-102168901D01*
X155611814Y-102234928D01*
X155556893Y-102278118D01*
X155510807Y-102287000D01*
X155480354Y-102287000D01*
X155447897Y-102293898D01*
X155295197Y-102326355D01*
X155295192Y-102326357D01*
X155122270Y-102403348D01*
X155122265Y-102403351D01*
X154969129Y-102514611D01*
X154842466Y-102655285D01*
X154747821Y-102819215D01*
X154747818Y-102819222D01*
X154689327Y-102999240D01*
X154689326Y-102999244D01*
X154669540Y-103187500D01*
X127773891Y-103187500D01*
X127780460Y-103125000D01*
X127760674Y-102936744D01*
X127702179Y-102756716D01*
X127607533Y-102592784D01*
X127480871Y-102452112D01*
X127480870Y-102452111D01*
X127327734Y-102340851D01*
X127327729Y-102340848D01*
X127154807Y-102263857D01*
X127154802Y-102263855D01*
X127009001Y-102232865D01*
X126969646Y-102224500D01*
X126780354Y-102224500D01*
X126747897Y-102231398D01*
X126595197Y-102263855D01*
X126595192Y-102263857D01*
X126422270Y-102340848D01*
X126422265Y-102340851D01*
X126269129Y-102452111D01*
X126142466Y-102592785D01*
X126047821Y-102756715D01*
X126047818Y-102756722D01*
X126027513Y-102819216D01*
X125989326Y-102936744D01*
X125969540Y-103125000D01*
X105569942Y-103125000D01*
X105593561Y-103103085D01*
X105761815Y-102892102D01*
X105896743Y-102658398D01*
X105995334Y-102407195D01*
X106055383Y-102144103D01*
X106068558Y-101968289D01*
X106075549Y-101875004D01*
X106075549Y-101874995D01*
X106055383Y-101605898D01*
X105995335Y-101342811D01*
X105995334Y-101342805D01*
X105896743Y-101091602D01*
X105761815Y-100857898D01*
X105593561Y-100646915D01*
X105593560Y-100646914D01*
X105593557Y-100646910D01*
X105395741Y-100463365D01*
X105358496Y-100437972D01*
X105172775Y-100311349D01*
X105172769Y-100311346D01*
X105172768Y-100311345D01*
X105172767Y-100311344D01*
X104929643Y-100194263D01*
X104929645Y-100194263D01*
X104671773Y-100114720D01*
X104671767Y-100114718D01*
X104404936Y-100074500D01*
X104404929Y-100074500D01*
X104135071Y-100074500D01*
X104135063Y-100074500D01*
X103868232Y-100114718D01*
X103868226Y-100114720D01*
X103610358Y-100194262D01*
X103367230Y-100311346D01*
X103144258Y-100463365D01*
X102946442Y-100646910D01*
X102778185Y-100857898D01*
X102643258Y-101091599D01*
X102643256Y-101091603D01*
X102544666Y-101342804D01*
X102544664Y-101342811D01*
X102484616Y-101605898D01*
X102464451Y-101874995D01*
X102464451Y-101875004D01*
X95250500Y-101875004D01*
X95250500Y-96875004D01*
X102464451Y-96875004D01*
X102484616Y-97144101D01*
X102544664Y-97407188D01*
X102544666Y-97407195D01*
X102606151Y-97563856D01*
X102643257Y-97658398D01*
X102778185Y-97892102D01*
X102884567Y-98025500D01*
X102946442Y-98103089D01*
X103090485Y-98236740D01*
X103144259Y-98286635D01*
X103367226Y-98438651D01*
X103610359Y-98555738D01*
X103868228Y-98635280D01*
X103868229Y-98635280D01*
X103868232Y-98635281D01*
X104135063Y-98675499D01*
X104135068Y-98675499D01*
X104135071Y-98675500D01*
X104135072Y-98675500D01*
X104404928Y-98675500D01*
X104404929Y-98675500D01*
X104404936Y-98675499D01*
X104671767Y-98635281D01*
X104671768Y-98635280D01*
X104671772Y-98635280D01*
X104929641Y-98555738D01*
X105172775Y-98438651D01*
X105192797Y-98425000D01*
X169750790Y-98425000D01*
X169770576Y-98613256D01*
X169770577Y-98613259D01*
X169829068Y-98793277D01*
X169829071Y-98793284D01*
X169923717Y-98957216D01*
X170050379Y-99097887D01*
X170050379Y-99097888D01*
X170203515Y-99209148D01*
X170203520Y-99209151D01*
X170376442Y-99286142D01*
X170376447Y-99286144D01*
X170561604Y-99325500D01*
X170561605Y-99325500D01*
X170750894Y-99325500D01*
X170750896Y-99325500D01*
X170936053Y-99286144D01*
X171108980Y-99209151D01*
X171262121Y-99097888D01*
X171388783Y-98957216D01*
X171483429Y-98793284D01*
X171541924Y-98613256D01*
X171561710Y-98425000D01*
X171541924Y-98236744D01*
X171483429Y-98056716D01*
X171388783Y-97892784D01*
X171262121Y-97752112D01*
X171174235Y-97688259D01*
X171108984Y-97640851D01*
X171108979Y-97640848D01*
X170936057Y-97563857D01*
X170936052Y-97563855D01*
X170790251Y-97532865D01*
X170750896Y-97524500D01*
X170561604Y-97524500D01*
X170529147Y-97531398D01*
X170376447Y-97563855D01*
X170376442Y-97563857D01*
X170203520Y-97640848D01*
X170203515Y-97640851D01*
X170050379Y-97752111D01*
X169923716Y-97892785D01*
X169829071Y-98056715D01*
X169829068Y-98056722D01*
X169814003Y-98103089D01*
X169770576Y-98236744D01*
X169750790Y-98425000D01*
X105192797Y-98425000D01*
X105395741Y-98286635D01*
X105593561Y-98103085D01*
X105761815Y-97892102D01*
X105896743Y-97658398D01*
X105995334Y-97407195D01*
X106055383Y-97144103D01*
X106056815Y-97125000D01*
X125594540Y-97125000D01*
X125614326Y-97313256D01*
X125614327Y-97313259D01*
X125672818Y-97493277D01*
X125672821Y-97493284D01*
X125767467Y-97657216D01*
X125894129Y-97797888D01*
X126047265Y-97909148D01*
X126047270Y-97909151D01*
X126220192Y-97986142D01*
X126220197Y-97986144D01*
X126405354Y-98025500D01*
X126405355Y-98025500D01*
X126594644Y-98025500D01*
X126594646Y-98025500D01*
X126779803Y-97986144D01*
X126952730Y-97909151D01*
X127105871Y-97797888D01*
X127232533Y-97657216D01*
X127323302Y-97500000D01*
X130494540Y-97500000D01*
X130514326Y-97688256D01*
X130514327Y-97688259D01*
X130572818Y-97868277D01*
X130572821Y-97868284D01*
X130667467Y-98032216D01*
X130731278Y-98103085D01*
X130794129Y-98172888D01*
X130947265Y-98284148D01*
X130947270Y-98284151D01*
X131120192Y-98361142D01*
X131120197Y-98361144D01*
X131305354Y-98400500D01*
X131305355Y-98400500D01*
X131494644Y-98400500D01*
X131494646Y-98400500D01*
X131679803Y-98361144D01*
X131852730Y-98284151D01*
X132005871Y-98172888D01*
X132132533Y-98032216D01*
X132227179Y-97868284D01*
X132285674Y-97688256D01*
X132305460Y-97500000D01*
X132285674Y-97311744D01*
X132227179Y-97131716D01*
X132132533Y-96967784D01*
X132005871Y-96827112D01*
X131981146Y-96809148D01*
X131852734Y-96715851D01*
X131852729Y-96715848D01*
X131679807Y-96638857D01*
X131679802Y-96638855D01*
X131524742Y-96605897D01*
X131494646Y-96599500D01*
X131305354Y-96599500D01*
X131275258Y-96605897D01*
X131120197Y-96638855D01*
X131120192Y-96638857D01*
X130947270Y-96715848D01*
X130947265Y-96715851D01*
X130794129Y-96827111D01*
X130667466Y-96967785D01*
X130572821Y-97131715D01*
X130572818Y-97131722D01*
X130528449Y-97268277D01*
X130514326Y-97311744D01*
X130494540Y-97500000D01*
X127323302Y-97500000D01*
X127327179Y-97493284D01*
X127385674Y-97313256D01*
X127405460Y-97125000D01*
X127385674Y-96936744D01*
X127327179Y-96756716D01*
X127232533Y-96592784D01*
X127105871Y-96452112D01*
X127091034Y-96441332D01*
X126952734Y-96340851D01*
X126952729Y-96340848D01*
X126779807Y-96263857D01*
X126779802Y-96263855D01*
X126634001Y-96232865D01*
X126594646Y-96224500D01*
X126405354Y-96224500D01*
X126372897Y-96231398D01*
X126220197Y-96263855D01*
X126220192Y-96263857D01*
X126047270Y-96340848D01*
X126047265Y-96340851D01*
X125894129Y-96452111D01*
X125767466Y-96592785D01*
X125672821Y-96756715D01*
X125672818Y-96756722D01*
X125617979Y-96925500D01*
X125614326Y-96936744D01*
X125594540Y-97125000D01*
X106056815Y-97125000D01*
X106070922Y-96936744D01*
X106075549Y-96875004D01*
X106075549Y-96874995D01*
X106055383Y-96605898D01*
X106038453Y-96531722D01*
X105995334Y-96342805D01*
X105929475Y-96175000D01*
X135544540Y-96175000D01*
X135564326Y-96363256D01*
X135564327Y-96363259D01*
X135622818Y-96543277D01*
X135622821Y-96543284D01*
X135717467Y-96707216D01*
X135762043Y-96756722D01*
X135844129Y-96847888D01*
X135997265Y-96959148D01*
X135997270Y-96959151D01*
X136170192Y-97036142D01*
X136170197Y-97036144D01*
X136355354Y-97075500D01*
X136355355Y-97075500D01*
X136544644Y-97075500D01*
X136544646Y-97075500D01*
X136729803Y-97036144D01*
X136902730Y-96959151D01*
X136984145Y-96900000D01*
X146944540Y-96900000D01*
X146964326Y-97088256D01*
X146964327Y-97088259D01*
X147022818Y-97268277D01*
X147022821Y-97268284D01*
X147117467Y-97432216D01*
X147200560Y-97524500D01*
X147244129Y-97572888D01*
X147397265Y-97684148D01*
X147397270Y-97684151D01*
X147570192Y-97761142D01*
X147570197Y-97761144D01*
X147755354Y-97800500D01*
X147755355Y-97800500D01*
X147944644Y-97800500D01*
X147944646Y-97800500D01*
X148129803Y-97761144D01*
X148302730Y-97684151D01*
X148455871Y-97572888D01*
X148582533Y-97432216D01*
X148677179Y-97268284D01*
X148735674Y-97088256D01*
X148755460Y-96900000D01*
X148735674Y-96711744D01*
X148677179Y-96531716D01*
X148582533Y-96367784D01*
X148455871Y-96227112D01*
X148384145Y-96175000D01*
X148302734Y-96115851D01*
X148302729Y-96115848D01*
X148129807Y-96038857D01*
X148129802Y-96038855D01*
X148064617Y-96025000D01*
X169119540Y-96025000D01*
X169139326Y-96213256D01*
X169139327Y-96213259D01*
X169197818Y-96393277D01*
X169197821Y-96393284D01*
X169292467Y-96557216D01*
X169365977Y-96638857D01*
X169419129Y-96697888D01*
X169572265Y-96809148D01*
X169572270Y-96809151D01*
X169745192Y-96886142D01*
X169745197Y-96886144D01*
X169930354Y-96925500D01*
X169930355Y-96925500D01*
X170119644Y-96925500D01*
X170119646Y-96925500D01*
X170304803Y-96886144D01*
X170477730Y-96809151D01*
X170630871Y-96697888D01*
X170757533Y-96557216D01*
X170852179Y-96393284D01*
X170910674Y-96213256D01*
X170930460Y-96025000D01*
X170910674Y-95836744D01*
X170852179Y-95656716D01*
X170761699Y-95500000D01*
X171344540Y-95500000D01*
X171364326Y-95688256D01*
X171364327Y-95688259D01*
X171422818Y-95868277D01*
X171422821Y-95868284D01*
X171517467Y-96032216D01*
X171592770Y-96115848D01*
X171644129Y-96172888D01*
X171797265Y-96284148D01*
X171797270Y-96284151D01*
X171970192Y-96361142D01*
X171970197Y-96361144D01*
X172155354Y-96400500D01*
X172155355Y-96400500D01*
X172344644Y-96400500D01*
X172344646Y-96400500D01*
X172529803Y-96361144D01*
X172702730Y-96284151D01*
X172855871Y-96172888D01*
X172982533Y-96032216D01*
X173055154Y-95906433D01*
X178633168Y-95906433D01*
X178654076Y-96025000D01*
X178663635Y-96079211D01*
X178733123Y-96240304D01*
X178733124Y-96240306D01*
X178733126Y-96240309D01*
X178809432Y-96342805D01*
X178837890Y-96381030D01*
X178972286Y-96493802D01*
X179047777Y-96531715D01*
X179129062Y-96572538D01*
X179129063Y-96572538D01*
X179129067Y-96572540D01*
X179299779Y-96613000D01*
X179299782Y-96613000D01*
X179431201Y-96613000D01*
X179431209Y-96613000D01*
X179561755Y-96597741D01*
X179726617Y-96537737D01*
X179873196Y-96441330D01*
X179993592Y-96313718D01*
X180081312Y-96161781D01*
X180131630Y-95993710D01*
X180141831Y-95818565D01*
X180111365Y-95645789D01*
X180041877Y-95484696D01*
X180025994Y-95463362D01*
X179972010Y-95390849D01*
X179937110Y-95343970D01*
X179901220Y-95313855D01*
X179802714Y-95231198D01*
X179802712Y-95231197D01*
X179645937Y-95152461D01*
X179645933Y-95152460D01*
X179475221Y-95112000D01*
X179343791Y-95112000D01*
X179239354Y-95124207D01*
X179213243Y-95127259D01*
X179213240Y-95127260D01*
X179048384Y-95187262D01*
X179048380Y-95187264D01*
X178901806Y-95283667D01*
X178901805Y-95283668D01*
X178781410Y-95411278D01*
X178693688Y-95563218D01*
X178643370Y-95731289D01*
X178643369Y-95731294D01*
X178633168Y-95906433D01*
X173055154Y-95906433D01*
X173077179Y-95868284D01*
X173135674Y-95688256D01*
X173155460Y-95500000D01*
X173135674Y-95311744D01*
X173077179Y-95131716D01*
X172982533Y-94967784D01*
X172855871Y-94827112D01*
X172852313Y-94824527D01*
X172702734Y-94715851D01*
X172702729Y-94715848D01*
X172529807Y-94638857D01*
X172529802Y-94638855D01*
X172384001Y-94607865D01*
X172344646Y-94599500D01*
X172155354Y-94599500D01*
X172122897Y-94606398D01*
X171970197Y-94638855D01*
X171970192Y-94638857D01*
X171797270Y-94715848D01*
X171797265Y-94715851D01*
X171644129Y-94827111D01*
X171517466Y-94967785D01*
X171422821Y-95131715D01*
X171422818Y-95131722D01*
X171367979Y-95300500D01*
X171364326Y-95311744D01*
X171344540Y-95500000D01*
X170761699Y-95500000D01*
X170757533Y-95492784D01*
X170630871Y-95352112D01*
X170630870Y-95352111D01*
X170477734Y-95240851D01*
X170477729Y-95240848D01*
X170304807Y-95163857D01*
X170304802Y-95163855D01*
X170141466Y-95129138D01*
X170119646Y-95124500D01*
X169930354Y-95124500D01*
X169908534Y-95129138D01*
X169745197Y-95163855D01*
X169745192Y-95163857D01*
X169572270Y-95240848D01*
X169572265Y-95240851D01*
X169419129Y-95352111D01*
X169292466Y-95492785D01*
X169197821Y-95656715D01*
X169197818Y-95656722D01*
X169139327Y-95836740D01*
X169139326Y-95836744D01*
X169119540Y-96025000D01*
X148064617Y-96025000D01*
X147984001Y-96007865D01*
X147944646Y-95999500D01*
X147755354Y-95999500D01*
X147722897Y-96006398D01*
X147570197Y-96038855D01*
X147570192Y-96038857D01*
X147397270Y-96115848D01*
X147397265Y-96115851D01*
X147244129Y-96227111D01*
X147117466Y-96367785D01*
X147022821Y-96531715D01*
X147022818Y-96531722D01*
X146968828Y-96697888D01*
X146964326Y-96711744D01*
X146944540Y-96900000D01*
X136984145Y-96900000D01*
X137055871Y-96847888D01*
X137182533Y-96707216D01*
X137277179Y-96543284D01*
X137335674Y-96363256D01*
X137355460Y-96175000D01*
X137335674Y-95986744D01*
X137277179Y-95806716D01*
X137182533Y-95642784D01*
X137055871Y-95502112D01*
X137052963Y-95499999D01*
X136902734Y-95390851D01*
X136902729Y-95390848D01*
X136729807Y-95313857D01*
X136729802Y-95313855D01*
X136584001Y-95282865D01*
X136544646Y-95274500D01*
X136355354Y-95274500D01*
X136322897Y-95281398D01*
X136170197Y-95313855D01*
X136170192Y-95313857D01*
X135997270Y-95390848D01*
X135997265Y-95390851D01*
X135844129Y-95502111D01*
X135717466Y-95642785D01*
X135622821Y-95806715D01*
X135622818Y-95806722D01*
X135590420Y-95906435D01*
X135564326Y-95986744D01*
X135544540Y-96175000D01*
X105929475Y-96175000D01*
X105896743Y-96091602D01*
X105761815Y-95857898D01*
X105593561Y-95646915D01*
X105593560Y-95646914D01*
X105593557Y-95646910D01*
X105427447Y-95492784D01*
X105395741Y-95463365D01*
X105395737Y-95463362D01*
X105303850Y-95400714D01*
X105268264Y-95357315D01*
X105245436Y-95356010D01*
X105217255Y-95341675D01*
X105172775Y-95311349D01*
X105172767Y-95311344D01*
X104929643Y-95194263D01*
X104929645Y-95194263D01*
X104671773Y-95114720D01*
X104671767Y-95114718D01*
X104404936Y-95074500D01*
X104404929Y-95074500D01*
X104135071Y-95074500D01*
X104135063Y-95074500D01*
X103868232Y-95114718D01*
X103868226Y-95114720D01*
X103610358Y-95194262D01*
X103367230Y-95311346D01*
X103144258Y-95463365D01*
X102946442Y-95646910D01*
X102778185Y-95857898D01*
X102643258Y-96091599D01*
X102643256Y-96091603D01*
X102544666Y-96342804D01*
X102544664Y-96342811D01*
X102484616Y-96605898D01*
X102464451Y-96874995D01*
X102464451Y-96875004D01*
X95250500Y-96875004D01*
X95250500Y-94325000D01*
X101444540Y-94325000D01*
X101464326Y-94513256D01*
X101464327Y-94513259D01*
X101522818Y-94693277D01*
X101522821Y-94693284D01*
X101617467Y-94857216D01*
X101717023Y-94967784D01*
X101744129Y-94997888D01*
X101897265Y-95109148D01*
X101897270Y-95109151D01*
X102070192Y-95186142D01*
X102070197Y-95186144D01*
X102255354Y-95225500D01*
X102255355Y-95225500D01*
X102444644Y-95225500D01*
X102444646Y-95225500D01*
X102629803Y-95186144D01*
X102802730Y-95109151D01*
X102955871Y-94997888D01*
X103082533Y-94857216D01*
X103177179Y-94693284D01*
X103235674Y-94513256D01*
X103247577Y-94400000D01*
X104969540Y-94400000D01*
X104989326Y-94588256D01*
X104989327Y-94588259D01*
X105047818Y-94768277D01*
X105047821Y-94768284D01*
X105142467Y-94932216D01*
X105193115Y-94988466D01*
X105269129Y-95072888D01*
X105359991Y-95138903D01*
X105391468Y-95179723D01*
X105411860Y-95180278D01*
X105424120Y-95184974D01*
X105595197Y-95261144D01*
X105780354Y-95300500D01*
X105780355Y-95300500D01*
X105969644Y-95300500D01*
X105969646Y-95300500D01*
X106154803Y-95261144D01*
X106327730Y-95184151D01*
X106480871Y-95072888D01*
X106607533Y-94932216D01*
X106702179Y-94768284D01*
X106760674Y-94588256D01*
X106774548Y-94456250D01*
X164194540Y-94456250D01*
X164214326Y-94644506D01*
X164214327Y-94644509D01*
X164272818Y-94824527D01*
X164272821Y-94824534D01*
X164367467Y-94988466D01*
X164375951Y-94997888D01*
X164494129Y-95129138D01*
X164647265Y-95240398D01*
X164647270Y-95240401D01*
X164820192Y-95317392D01*
X164820197Y-95317394D01*
X165005354Y-95356750D01*
X165005355Y-95356750D01*
X165194644Y-95356750D01*
X165194646Y-95356750D01*
X165379803Y-95317394D01*
X165552730Y-95240401D01*
X165705871Y-95129138D01*
X165832533Y-94988466D01*
X165927179Y-94824534D01*
X165985674Y-94644506D01*
X166005460Y-94456250D01*
X165985674Y-94267994D01*
X165927179Y-94087966D01*
X165832533Y-93924034D01*
X165705871Y-93783362D01*
X165705870Y-93783361D01*
X165552734Y-93672101D01*
X165552729Y-93672098D01*
X165379807Y-93595107D01*
X165379802Y-93595105D01*
X165234001Y-93564115D01*
X165194646Y-93555750D01*
X165005354Y-93555750D01*
X164972897Y-93562648D01*
X164820197Y-93595105D01*
X164820192Y-93595107D01*
X164647270Y-93672098D01*
X164647265Y-93672101D01*
X164494129Y-93783361D01*
X164367466Y-93924035D01*
X164272821Y-94087965D01*
X164272818Y-94087972D01*
X164214327Y-94267990D01*
X164214326Y-94267994D01*
X164194540Y-94456250D01*
X106774548Y-94456250D01*
X106780460Y-94400000D01*
X106760674Y-94211744D01*
X106702179Y-94031716D01*
X106607533Y-93867784D01*
X106480871Y-93727112D01*
X106480870Y-93727111D01*
X106327734Y-93615851D01*
X106327729Y-93615848D01*
X106154807Y-93538857D01*
X106154802Y-93538855D01*
X106009001Y-93507865D01*
X105969646Y-93499500D01*
X105780354Y-93499500D01*
X105747897Y-93506398D01*
X105595197Y-93538855D01*
X105595192Y-93538857D01*
X105422270Y-93615848D01*
X105422265Y-93615851D01*
X105269129Y-93727111D01*
X105142466Y-93867785D01*
X105047821Y-94031715D01*
X105047818Y-94031722D01*
X105013696Y-94136740D01*
X104989326Y-94211744D01*
X104969540Y-94400000D01*
X103247577Y-94400000D01*
X103255460Y-94325000D01*
X103235674Y-94136744D01*
X103177179Y-93956716D01*
X103082533Y-93792784D01*
X102955871Y-93652112D01*
X102955870Y-93652111D01*
X102802734Y-93540851D01*
X102802729Y-93540848D01*
X102629807Y-93463857D01*
X102629802Y-93463855D01*
X102484001Y-93432865D01*
X102444646Y-93424500D01*
X102255354Y-93424500D01*
X102222897Y-93431398D01*
X102070197Y-93463855D01*
X102070192Y-93463857D01*
X101897270Y-93540848D01*
X101897265Y-93540851D01*
X101744129Y-93652111D01*
X101617466Y-93792785D01*
X101522821Y-93956715D01*
X101522818Y-93956722D01*
X101480175Y-94087965D01*
X101464326Y-94136744D01*
X101444540Y-94325000D01*
X95250500Y-94325000D01*
X95250500Y-91875004D01*
X102464451Y-91875004D01*
X102484616Y-92144101D01*
X102544664Y-92407188D01*
X102544666Y-92407195D01*
X102632784Y-92631715D01*
X102643257Y-92658398D01*
X102778185Y-92892102D01*
X102830112Y-92957216D01*
X102946442Y-93103089D01*
X103060751Y-93209151D01*
X103144259Y-93286635D01*
X103367226Y-93438651D01*
X103610359Y-93555738D01*
X103868228Y-93635280D01*
X103868229Y-93635280D01*
X103868232Y-93635281D01*
X104135063Y-93675499D01*
X104135068Y-93675499D01*
X104135071Y-93675500D01*
X104135072Y-93675500D01*
X104404928Y-93675500D01*
X104404929Y-93675500D01*
X104427480Y-93672101D01*
X104671767Y-93635281D01*
X104671768Y-93635280D01*
X104671772Y-93635280D01*
X104929641Y-93555738D01*
X105172775Y-93438651D01*
X105395741Y-93286635D01*
X105593561Y-93103085D01*
X105761815Y-92892102D01*
X105896743Y-92658398D01*
X105988346Y-92425000D01*
X123719540Y-92425000D01*
X123739326Y-92613256D01*
X123739327Y-92613259D01*
X123797818Y-92793277D01*
X123797821Y-92793284D01*
X123892467Y-92957216D01*
X124019129Y-93097888D01*
X124172265Y-93209148D01*
X124172270Y-93209151D01*
X124345192Y-93286142D01*
X124345197Y-93286144D01*
X124530354Y-93325500D01*
X124530355Y-93325500D01*
X124719644Y-93325500D01*
X124719646Y-93325500D01*
X124904803Y-93286144D01*
X125077730Y-93209151D01*
X125230871Y-93097888D01*
X125319010Y-93000000D01*
X131559904Y-93000000D01*
X131579690Y-93188256D01*
X131579691Y-93188259D01*
X131638182Y-93368277D01*
X131638185Y-93368284D01*
X131732831Y-93532216D01*
X131840785Y-93652111D01*
X131859493Y-93672888D01*
X132012629Y-93784148D01*
X132012634Y-93784151D01*
X132185556Y-93861142D01*
X132185561Y-93861144D01*
X132370718Y-93900500D01*
X132370719Y-93900500D01*
X132560008Y-93900500D01*
X132560010Y-93900500D01*
X132745167Y-93861144D01*
X132918094Y-93784151D01*
X133071235Y-93672888D01*
X133197897Y-93532216D01*
X133292543Y-93368284D01*
X133351038Y-93188256D01*
X133370824Y-93000000D01*
X133351038Y-92811744D01*
X133292543Y-92631716D01*
X133197897Y-92467784D01*
X133071235Y-92327112D01*
X133071234Y-92327111D01*
X132918098Y-92215851D01*
X132918093Y-92215848D01*
X132745171Y-92138857D01*
X132745166Y-92138855D01*
X132599365Y-92107865D01*
X132560010Y-92099500D01*
X132370718Y-92099500D01*
X132338261Y-92106398D01*
X132185561Y-92138855D01*
X132185556Y-92138857D01*
X132012634Y-92215848D01*
X132012629Y-92215851D01*
X131859493Y-92327111D01*
X131732830Y-92467785D01*
X131638185Y-92631715D01*
X131638182Y-92631722D01*
X131585690Y-92793277D01*
X131579690Y-92811744D01*
X131559904Y-93000000D01*
X125319010Y-93000000D01*
X125357533Y-92957216D01*
X125452179Y-92793284D01*
X125510674Y-92613256D01*
X125530460Y-92425000D01*
X125510674Y-92236744D01*
X125452179Y-92056716D01*
X125357533Y-91892784D01*
X125341516Y-91874995D01*
X125235353Y-91757088D01*
X125205123Y-91694096D01*
X125213749Y-91624761D01*
X125251475Y-91577719D01*
X125251041Y-91577237D01*
X125253999Y-91574573D01*
X125254624Y-91573793D01*
X125255871Y-91572888D01*
X125315708Y-91506433D01*
X178633168Y-91506433D01*
X178663634Y-91679206D01*
X178663635Y-91679211D01*
X178733123Y-91840304D01*
X178733124Y-91840306D01*
X178733126Y-91840309D01*
X178787778Y-91913718D01*
X178837890Y-91981030D01*
X178972286Y-92093802D01*
X179049988Y-92132825D01*
X179129062Y-92172538D01*
X179129063Y-92172538D01*
X179129067Y-92172540D01*
X179299779Y-92213000D01*
X179299782Y-92213000D01*
X179431201Y-92213000D01*
X179431209Y-92213000D01*
X179561755Y-92197741D01*
X179726617Y-92137737D01*
X179873196Y-92041330D01*
X179993592Y-91913718D01*
X180081312Y-91761781D01*
X180131630Y-91593710D01*
X180141831Y-91418565D01*
X180111365Y-91245789D01*
X180041877Y-91084696D01*
X180021417Y-91057214D01*
X179937109Y-90943969D01*
X179802714Y-90831198D01*
X179802712Y-90831197D01*
X179645937Y-90752461D01*
X179645933Y-90752460D01*
X179475221Y-90712000D01*
X179343791Y-90712000D01*
X179239354Y-90724207D01*
X179213243Y-90727259D01*
X179213240Y-90727260D01*
X179048384Y-90787262D01*
X179048380Y-90787264D01*
X178901806Y-90883667D01*
X178901805Y-90883668D01*
X178781410Y-91011278D01*
X178693688Y-91163218D01*
X178643370Y-91331289D01*
X178643369Y-91331294D01*
X178633168Y-91506433D01*
X125315708Y-91506433D01*
X125382533Y-91432216D01*
X125477179Y-91268284D01*
X125535674Y-91088256D01*
X125555460Y-90900000D01*
X125535674Y-90711744D01*
X125477179Y-90531716D01*
X125473302Y-90525000D01*
X157819540Y-90525000D01*
X157839326Y-90713256D01*
X157839327Y-90713259D01*
X157897818Y-90893277D01*
X157897821Y-90893284D01*
X157992467Y-91057216D01*
X158085364Y-91160388D01*
X158119129Y-91197888D01*
X158272265Y-91309148D01*
X158272270Y-91309151D01*
X158445192Y-91386142D01*
X158445197Y-91386144D01*
X158630354Y-91425500D01*
X158630355Y-91425500D01*
X158819644Y-91425500D01*
X158819646Y-91425500D01*
X159004803Y-91386144D01*
X159177730Y-91309151D01*
X159330871Y-91197888D01*
X159457533Y-91057216D01*
X159552179Y-90893284D01*
X159610674Y-90713256D01*
X159630460Y-90525000D01*
X159626519Y-90487500D01*
X163400790Y-90487500D01*
X163420576Y-90675756D01*
X163420577Y-90675759D01*
X163479068Y-90855777D01*
X163479071Y-90855784D01*
X163573717Y-91019716D01*
X163635431Y-91088256D01*
X163700379Y-91160388D01*
X163853515Y-91271648D01*
X163853520Y-91271651D01*
X164026442Y-91348642D01*
X164026447Y-91348644D01*
X164211604Y-91388000D01*
X164211605Y-91388000D01*
X164400894Y-91388000D01*
X164400896Y-91388000D01*
X164586053Y-91348644D01*
X164758980Y-91271651D01*
X164912121Y-91160388D01*
X165038783Y-91019716D01*
X165133429Y-90855784D01*
X165191924Y-90675756D01*
X165211710Y-90487500D01*
X165191924Y-90299244D01*
X165133429Y-90119216D01*
X165038783Y-89955284D01*
X164912121Y-89814612D01*
X164912120Y-89814611D01*
X164758984Y-89703351D01*
X164758979Y-89703348D01*
X164586057Y-89626357D01*
X164586052Y-89626355D01*
X164440251Y-89595365D01*
X164400896Y-89587000D01*
X164211604Y-89587000D01*
X164179147Y-89593898D01*
X164026447Y-89626355D01*
X164026442Y-89626357D01*
X163853520Y-89703348D01*
X163853515Y-89703351D01*
X163700379Y-89814611D01*
X163573716Y-89955285D01*
X163479071Y-90119215D01*
X163479068Y-90119222D01*
X163420577Y-90299240D01*
X163420576Y-90299244D01*
X163400790Y-90487500D01*
X159626519Y-90487500D01*
X159610674Y-90336744D01*
X159552179Y-90156716D01*
X159457533Y-89992784D01*
X159330871Y-89852112D01*
X159284311Y-89818284D01*
X159177734Y-89740851D01*
X159177729Y-89740848D01*
X159004807Y-89663857D01*
X159004802Y-89663855D01*
X158859000Y-89632865D01*
X158819646Y-89624500D01*
X158630354Y-89624500D01*
X158597897Y-89631398D01*
X158445197Y-89663855D01*
X158445192Y-89663857D01*
X158272270Y-89740848D01*
X158272265Y-89740851D01*
X158119129Y-89852111D01*
X157992466Y-89992785D01*
X157897821Y-90156715D01*
X157897818Y-90156722D01*
X157847578Y-90311346D01*
X157839326Y-90336744D01*
X157819540Y-90525000D01*
X125473302Y-90525000D01*
X125382533Y-90367784D01*
X125296157Y-90271854D01*
X125265927Y-90208863D01*
X125274552Y-90139527D01*
X125296155Y-90105912D01*
X125407533Y-89982216D01*
X125502179Y-89818284D01*
X125560674Y-89638256D01*
X125580460Y-89450000D01*
X125560674Y-89261744D01*
X125502179Y-89081716D01*
X125407533Y-88917784D01*
X125280871Y-88777112D01*
X125236186Y-88744647D01*
X125193523Y-88689320D01*
X125187544Y-88619707D01*
X125220149Y-88557911D01*
X125226108Y-88552176D01*
X125230865Y-88547892D01*
X125230871Y-88547888D01*
X125357533Y-88407216D01*
X125452179Y-88243284D01*
X125510674Y-88063256D01*
X125530460Y-87875000D01*
X125510674Y-87686744D01*
X125452179Y-87506716D01*
X125357533Y-87342784D01*
X125266604Y-87241798D01*
X125245239Y-87218069D01*
X125215009Y-87155078D01*
X125223634Y-87085742D01*
X125264504Y-87034778D01*
X125280871Y-87022888D01*
X125407533Y-86882216D01*
X125502179Y-86718284D01*
X125560674Y-86538256D01*
X125580460Y-86350000D01*
X125560674Y-86161744D01*
X125502179Y-85981716D01*
X125407533Y-85817784D01*
X125407532Y-85817784D01*
X125323990Y-85725000D01*
X169750790Y-85725000D01*
X169770576Y-85913256D01*
X169770577Y-85913259D01*
X169829068Y-86093277D01*
X169829071Y-86093284D01*
X169923717Y-86257216D01*
X170049944Y-86397405D01*
X170050379Y-86397888D01*
X170203515Y-86509148D01*
X170203520Y-86509151D01*
X170376442Y-86586142D01*
X170376447Y-86586144D01*
X170561604Y-86625500D01*
X170561605Y-86625500D01*
X170750894Y-86625500D01*
X170750896Y-86625500D01*
X170936053Y-86586144D01*
X171108980Y-86509151D01*
X171262121Y-86397888D01*
X171388783Y-86257216D01*
X171483429Y-86093284D01*
X171541924Y-85913256D01*
X171561710Y-85725000D01*
X171541924Y-85536744D01*
X171487362Y-85368823D01*
X171483431Y-85356722D01*
X171483430Y-85356721D01*
X171483429Y-85356716D01*
X171388783Y-85192784D01*
X171262121Y-85052112D01*
X171262120Y-85052111D01*
X171108984Y-84940851D01*
X171108979Y-84940848D01*
X170936057Y-84863857D01*
X170936052Y-84863855D01*
X170790251Y-84832865D01*
X170750896Y-84824500D01*
X170561604Y-84824500D01*
X170529147Y-84831398D01*
X170376447Y-84863855D01*
X170376442Y-84863857D01*
X170203520Y-84940848D01*
X170203515Y-84940851D01*
X170050379Y-85052111D01*
X169923716Y-85192785D01*
X169829071Y-85356715D01*
X169829068Y-85356722D01*
X169773686Y-85527172D01*
X169770576Y-85536744D01*
X169750790Y-85725000D01*
X125323990Y-85725000D01*
X125285353Y-85682088D01*
X125255123Y-85619096D01*
X125263749Y-85549761D01*
X125301475Y-85502719D01*
X125301041Y-85502237D01*
X125303999Y-85499573D01*
X125304624Y-85498793D01*
X125305871Y-85497888D01*
X125432533Y-85357216D01*
X125527179Y-85193284D01*
X125585674Y-85013256D01*
X125605460Y-84825000D01*
X125585674Y-84636744D01*
X125527179Y-84456716D01*
X125432533Y-84292784D01*
X125305871Y-84152112D01*
X125305870Y-84152111D01*
X125152734Y-84040851D01*
X125152729Y-84040848D01*
X124979807Y-83963857D01*
X124979802Y-83963855D01*
X124834001Y-83932865D01*
X124794646Y-83924500D01*
X124605354Y-83924500D01*
X124572897Y-83931398D01*
X124420197Y-83963855D01*
X124420192Y-83963857D01*
X124247270Y-84040848D01*
X124247265Y-84040851D01*
X124094129Y-84152111D01*
X123967466Y-84292785D01*
X123872821Y-84456715D01*
X123872818Y-84456722D01*
X123814327Y-84636740D01*
X123814326Y-84636744D01*
X123797577Y-84796101D01*
X123794593Y-84824500D01*
X123794540Y-84825000D01*
X123814326Y-85013256D01*
X123814327Y-85013259D01*
X123872818Y-85193277D01*
X123872821Y-85193284D01*
X123967467Y-85357216D01*
X124066882Y-85467627D01*
X124089647Y-85492910D01*
X124119877Y-85555901D01*
X124111252Y-85625236D01*
X124073522Y-85672290D01*
X124073953Y-85672769D01*
X124071027Y-85675403D01*
X124070397Y-85676189D01*
X124069137Y-85677104D01*
X124069123Y-85677116D01*
X123942466Y-85817785D01*
X123847821Y-85981715D01*
X123847818Y-85981722D01*
X123805890Y-86110765D01*
X123789326Y-86161744D01*
X123769540Y-86350000D01*
X123789326Y-86538256D01*
X123789327Y-86538259D01*
X123847818Y-86718277D01*
X123847821Y-86718284D01*
X123942467Y-86882216D01*
X123973008Y-86916135D01*
X124054760Y-87006930D01*
X124084990Y-87069921D01*
X124076365Y-87139257D01*
X124035499Y-87190217D01*
X124019132Y-87202108D01*
X124019123Y-87202116D01*
X123892466Y-87342785D01*
X123797821Y-87506715D01*
X123797818Y-87506722D01*
X123739327Y-87686740D01*
X123739326Y-87686744D01*
X123719540Y-87875000D01*
X123739326Y-88063256D01*
X123739327Y-88063259D01*
X123797818Y-88243277D01*
X123797821Y-88243284D01*
X123892467Y-88407216D01*
X124019129Y-88547888D01*
X124063810Y-88580350D01*
X124106476Y-88635679D01*
X124112455Y-88705292D01*
X124079850Y-88767087D01*
X124073902Y-88772814D01*
X124069129Y-88777112D01*
X123942466Y-88917785D01*
X123847821Y-89081715D01*
X123847818Y-89081722D01*
X123789327Y-89261740D01*
X123789326Y-89261744D01*
X123769540Y-89450000D01*
X123789326Y-89638256D01*
X123789327Y-89638259D01*
X123847818Y-89818277D01*
X123847821Y-89818284D01*
X123942467Y-89982216D01*
X124028843Y-90078147D01*
X124059072Y-90141135D01*
X124050447Y-90210470D01*
X124028842Y-90244088D01*
X123917466Y-90367784D01*
X123822821Y-90531715D01*
X123822818Y-90531722D01*
X123785390Y-90646915D01*
X123764326Y-90711744D01*
X123760047Y-90752460D01*
X123746257Y-90883668D01*
X123744540Y-90900000D01*
X123764326Y-91088256D01*
X123764327Y-91088259D01*
X123822818Y-91268277D01*
X123822821Y-91268284D01*
X123917467Y-91432216D01*
X124039647Y-91567910D01*
X124069877Y-91630901D01*
X124061252Y-91700236D01*
X124023522Y-91747290D01*
X124023953Y-91747769D01*
X124021027Y-91750403D01*
X124020397Y-91751189D01*
X124019137Y-91752104D01*
X124019123Y-91752116D01*
X123892466Y-91892785D01*
X123797821Y-92056715D01*
X123797818Y-92056722D01*
X123739327Y-92236740D01*
X123739326Y-92236744D01*
X123719540Y-92425000D01*
X105988346Y-92425000D01*
X105995334Y-92407195D01*
X106055383Y-92144103D01*
X106067603Y-91981030D01*
X106075549Y-91875004D01*
X106075549Y-91874995D01*
X106055383Y-91605898D01*
X106052600Y-91593705D01*
X105995334Y-91342805D01*
X105896743Y-91091602D01*
X105761815Y-90857898D01*
X105593561Y-90646915D01*
X105593560Y-90646914D01*
X105593557Y-90646910D01*
X105395741Y-90463365D01*
X105255551Y-90367785D01*
X105172775Y-90311349D01*
X105172769Y-90311346D01*
X105172768Y-90311345D01*
X105172767Y-90311344D01*
X104929643Y-90194263D01*
X104929645Y-90194263D01*
X104671773Y-90114720D01*
X104671767Y-90114718D01*
X104404936Y-90074500D01*
X104404929Y-90074500D01*
X104135071Y-90074500D01*
X104135063Y-90074500D01*
X103868232Y-90114718D01*
X103868226Y-90114720D01*
X103610358Y-90194262D01*
X103367230Y-90311346D01*
X103144258Y-90463365D01*
X102946442Y-90646910D01*
X102778185Y-90857898D01*
X102643258Y-91091599D01*
X102643256Y-91091603D01*
X102544666Y-91342804D01*
X102544664Y-91342811D01*
X102484616Y-91605898D01*
X102464451Y-91874995D01*
X102464451Y-91875004D01*
X95250500Y-91875004D01*
X95250500Y-88222844D01*
X102470000Y-88222844D01*
X102476401Y-88282372D01*
X102476403Y-88282379D01*
X102526645Y-88417086D01*
X102526649Y-88417093D01*
X102612809Y-88532187D01*
X102612812Y-88532190D01*
X102727906Y-88618350D01*
X102727913Y-88618354D01*
X102862620Y-88668596D01*
X102862627Y-88668598D01*
X102922155Y-88674999D01*
X102922172Y-88675000D01*
X104020000Y-88675000D01*
X104020000Y-87641753D01*
X104039685Y-87574714D01*
X104092489Y-87528959D01*
X104161647Y-87519015D01*
X104174816Y-87521644D01*
X104187886Y-87525000D01*
X104187890Y-87525000D01*
X104310892Y-87525000D01*
X104310894Y-87525000D01*
X104310899Y-87524999D01*
X104310903Y-87524999D01*
X104358270Y-87519015D01*
X104380458Y-87516212D01*
X104449436Y-87527338D01*
X104501448Y-87573991D01*
X104520000Y-87639234D01*
X104520000Y-88675000D01*
X105617828Y-88675000D01*
X105617844Y-88674999D01*
X105677372Y-88668598D01*
X105677379Y-88668596D01*
X105812086Y-88618354D01*
X105812093Y-88618350D01*
X105927187Y-88532190D01*
X105927190Y-88532187D01*
X106013350Y-88417093D01*
X106013354Y-88417086D01*
X106063596Y-88282379D01*
X106063598Y-88282372D01*
X106069999Y-88222844D01*
X106070000Y-88222827D01*
X106070000Y-87125000D01*
X105033921Y-87125000D01*
X104966882Y-87105315D01*
X104921127Y-87052511D01*
X104911183Y-86983353D01*
X104912117Y-86977766D01*
X104912659Y-86974919D01*
X104923873Y-86916138D01*
X104913847Y-86756784D01*
X104929283Y-86688643D01*
X104979109Y-86639663D01*
X105037602Y-86625000D01*
X106070000Y-86625000D01*
X106070000Y-85527172D01*
X106069999Y-85527155D01*
X106063598Y-85467627D01*
X106063596Y-85467620D01*
X106013354Y-85332913D01*
X106013350Y-85332906D01*
X105927190Y-85217812D01*
X105927187Y-85217809D01*
X105812093Y-85131649D01*
X105812086Y-85131645D01*
X105677379Y-85081403D01*
X105677372Y-85081401D01*
X105617844Y-85075000D01*
X104520000Y-85075000D01*
X104520000Y-86108246D01*
X104500315Y-86175285D01*
X104447511Y-86221040D01*
X104378353Y-86230984D01*
X104365165Y-86228351D01*
X104352115Y-86225000D01*
X104352114Y-86225000D01*
X104229106Y-86225000D01*
X104229094Y-86225000D01*
X104159541Y-86233787D01*
X104090563Y-86222660D01*
X104038551Y-86176006D01*
X104020000Y-86110765D01*
X104020000Y-85075000D01*
X102922155Y-85075000D01*
X102862627Y-85081401D01*
X102862620Y-85081403D01*
X102727913Y-85131645D01*
X102727906Y-85131649D01*
X102612812Y-85217809D01*
X102612809Y-85217812D01*
X102526649Y-85332906D01*
X102526645Y-85332913D01*
X102476403Y-85467620D01*
X102476401Y-85467627D01*
X102470000Y-85527155D01*
X102470000Y-86625000D01*
X103506079Y-86625000D01*
X103573118Y-86644685D01*
X103618873Y-86697489D01*
X103628817Y-86766647D01*
X103627883Y-86772234D01*
X103616127Y-86833862D01*
X103625532Y-86983353D01*
X103626153Y-86993214D01*
X103610717Y-87061357D01*
X103560891Y-87110337D01*
X103502398Y-87125000D01*
X102470000Y-87125000D01*
X102470000Y-88222844D01*
X95250500Y-88222844D01*
X95250500Y-75325000D01*
X131194540Y-75325000D01*
X131214326Y-75513256D01*
X131214327Y-75513259D01*
X131272818Y-75693277D01*
X131272821Y-75693284D01*
X131367467Y-75857216D01*
X131440625Y-75938466D01*
X131494129Y-75997888D01*
X131647265Y-76109148D01*
X131647270Y-76109151D01*
X131820192Y-76186142D01*
X131820197Y-76186144D01*
X132005354Y-76225500D01*
X132005355Y-76225500D01*
X132194644Y-76225500D01*
X132194646Y-76225500D01*
X132379803Y-76186144D01*
X132552730Y-76109151D01*
X132705871Y-75997888D01*
X132832533Y-75857216D01*
X132927179Y-75693284D01*
X132985674Y-75513256D01*
X133005460Y-75325000D01*
X133000205Y-75275000D01*
X141769540Y-75275000D01*
X141789326Y-75463256D01*
X141789327Y-75463259D01*
X141847818Y-75643277D01*
X141847821Y-75643284D01*
X141942467Y-75807216D01*
X142048818Y-75925330D01*
X142069129Y-75947888D01*
X142222265Y-76059148D01*
X142222270Y-76059151D01*
X142395192Y-76136142D01*
X142395197Y-76136144D01*
X142580354Y-76175500D01*
X142580355Y-76175500D01*
X142769644Y-76175500D01*
X142769646Y-76175500D01*
X142954803Y-76136144D01*
X143127730Y-76059151D01*
X143280871Y-75947888D01*
X143407533Y-75807216D01*
X143502179Y-75643284D01*
X143560674Y-75463256D01*
X143580460Y-75275000D01*
X143560674Y-75086744D01*
X143502179Y-74906716D01*
X143407533Y-74742784D01*
X143280871Y-74602112D01*
X143236217Y-74569669D01*
X143127734Y-74490851D01*
X143127729Y-74490848D01*
X142954807Y-74413857D01*
X142954802Y-74413855D01*
X142809000Y-74382865D01*
X142769646Y-74374500D01*
X142580354Y-74374500D01*
X142547897Y-74381398D01*
X142395197Y-74413855D01*
X142395192Y-74413857D01*
X142222270Y-74490848D01*
X142222265Y-74490851D01*
X142069129Y-74602111D01*
X141942466Y-74742785D01*
X141847821Y-74906715D01*
X141847818Y-74906722D01*
X141789327Y-75086740D01*
X141789326Y-75086744D01*
X141769540Y-75275000D01*
X133000205Y-75275000D01*
X132985674Y-75136744D01*
X132927179Y-74956716D01*
X132832533Y-74792784D01*
X132705871Y-74652112D01*
X132705870Y-74652111D01*
X132552734Y-74540851D01*
X132552729Y-74540848D01*
X132379807Y-74463857D01*
X132379802Y-74463855D01*
X132234000Y-74432865D01*
X132194646Y-74424500D01*
X132005354Y-74424500D01*
X131972897Y-74431398D01*
X131820197Y-74463855D01*
X131820192Y-74463857D01*
X131647270Y-74540848D01*
X131647265Y-74540851D01*
X131494129Y-74652111D01*
X131367466Y-74792785D01*
X131272821Y-74956715D01*
X131272818Y-74956722D01*
X131230573Y-75086740D01*
X131214326Y-75136744D01*
X131194540Y-75325000D01*
X95250500Y-75325000D01*
X95250500Y-70643750D01*
X167369540Y-70643750D01*
X167389326Y-70832006D01*
X167389327Y-70832009D01*
X167447818Y-71012027D01*
X167447821Y-71012034D01*
X167542467Y-71175966D01*
X167669128Y-71316637D01*
X167669129Y-71316638D01*
X167822265Y-71427898D01*
X167822270Y-71427901D01*
X167995192Y-71504892D01*
X167995197Y-71504894D01*
X168180354Y-71544250D01*
X168180355Y-71544250D01*
X168369644Y-71544250D01*
X168369646Y-71544250D01*
X168554803Y-71504894D01*
X168727730Y-71427901D01*
X168880871Y-71316638D01*
X169007533Y-71175966D01*
X169102179Y-71012034D01*
X169160674Y-70832006D01*
X169171937Y-70724842D01*
X169198520Y-70660230D01*
X169255818Y-70620245D01*
X169325637Y-70617585D01*
X169385810Y-70653094D01*
X169407639Y-70685401D01*
X169482215Y-70845330D01*
X169482217Y-70845334D01*
X169617751Y-71038895D01*
X169617756Y-71038902D01*
X169784847Y-71205993D01*
X169784853Y-71205998D01*
X169970408Y-71335925D01*
X170014033Y-71390502D01*
X170021227Y-71460000D01*
X169989704Y-71522355D01*
X169970408Y-71539075D01*
X169784847Y-71669005D01*
X169617755Y-71836097D01*
X169482215Y-72029669D01*
X169482214Y-72029671D01*
X169382348Y-72243835D01*
X169382344Y-72243844D01*
X169321188Y-72472086D01*
X169321186Y-72472096D01*
X169300591Y-72707499D01*
X169300591Y-72707500D01*
X169321186Y-72942903D01*
X169321188Y-72942913D01*
X169382344Y-73171155D01*
X169382346Y-73171159D01*
X169382347Y-73171163D01*
X169482215Y-73385330D01*
X169482217Y-73385334D01*
X169617751Y-73578895D01*
X169617756Y-73578902D01*
X169784847Y-73745993D01*
X169784853Y-73745998D01*
X169970408Y-73875925D01*
X170014033Y-73930502D01*
X170021227Y-74000000D01*
X169989704Y-74062355D01*
X169970408Y-74079075D01*
X169784847Y-74209005D01*
X169617755Y-74376097D01*
X169482215Y-74569669D01*
X169482214Y-74569671D01*
X169382348Y-74783835D01*
X169382344Y-74783844D01*
X169321188Y-75012086D01*
X169321186Y-75012096D01*
X169300591Y-75247499D01*
X169300591Y-75247500D01*
X169321186Y-75482903D01*
X169321188Y-75482913D01*
X169382344Y-75711155D01*
X169382346Y-75711159D01*
X169382347Y-75711163D01*
X169450452Y-75857214D01*
X169482215Y-75925330D01*
X169482217Y-75925334D01*
X169617751Y-76118895D01*
X169617756Y-76118902D01*
X169784847Y-76285993D01*
X169784853Y-76285998D01*
X169970408Y-76415925D01*
X170014033Y-76470502D01*
X170021227Y-76540000D01*
X169989704Y-76602355D01*
X169970408Y-76619075D01*
X169784847Y-76749005D01*
X169617755Y-76916097D01*
X169482215Y-77109669D01*
X169482214Y-77109671D01*
X169382348Y-77323835D01*
X169382344Y-77323844D01*
X169321188Y-77552086D01*
X169321186Y-77552096D01*
X169300591Y-77787499D01*
X169300591Y-77787500D01*
X169321186Y-78022903D01*
X169321188Y-78022913D01*
X169382344Y-78251155D01*
X169382346Y-78251159D01*
X169382347Y-78251163D01*
X169482215Y-78465330D01*
X169482217Y-78465334D01*
X169617751Y-78658895D01*
X169617756Y-78658902D01*
X169784847Y-78825993D01*
X169784853Y-78825998D01*
X169970408Y-78955925D01*
X170014033Y-79010502D01*
X170021227Y-79080000D01*
X169989704Y-79142355D01*
X169970408Y-79159075D01*
X169784847Y-79289005D01*
X169617755Y-79456097D01*
X169482215Y-79649669D01*
X169482214Y-79649671D01*
X169382348Y-79863835D01*
X169382344Y-79863844D01*
X169321188Y-80092086D01*
X169321186Y-80092096D01*
X169300591Y-80327499D01*
X169300591Y-80327500D01*
X169321186Y-80562903D01*
X169321188Y-80562913D01*
X169382344Y-80791155D01*
X169382346Y-80791159D01*
X169382347Y-80791163D01*
X169430816Y-80895105D01*
X169482215Y-81005330D01*
X169482217Y-81005334D01*
X169590531Y-81160021D01*
X169617751Y-81198896D01*
X169617756Y-81198902D01*
X169739680Y-81320826D01*
X169773165Y-81382149D01*
X169768181Y-81451841D01*
X169726309Y-81507774D01*
X169695333Y-81524689D01*
X169563919Y-81573703D01*
X169563914Y-81573706D01*
X169448705Y-81659952D01*
X169448702Y-81659955D01*
X169362456Y-81775164D01*
X169362452Y-81775171D01*
X169312158Y-81910017D01*
X169305751Y-81969616D01*
X169305751Y-81969623D01*
X169305750Y-81969635D01*
X169305750Y-83765370D01*
X169305751Y-83765376D01*
X169312158Y-83824983D01*
X169362452Y-83959828D01*
X169362456Y-83959835D01*
X169448702Y-84075044D01*
X169448705Y-84075047D01*
X169563914Y-84161293D01*
X169563921Y-84161297D01*
X169698767Y-84211591D01*
X169698766Y-84211591D01*
X169705694Y-84212335D01*
X169758377Y-84218000D01*
X171554122Y-84217999D01*
X171613733Y-84211591D01*
X171748581Y-84161296D01*
X171863796Y-84075046D01*
X171950046Y-83959831D01*
X172000341Y-83824983D01*
X172006750Y-83765373D01*
X172006749Y-81969628D01*
X172000341Y-81910017D01*
X171950046Y-81775169D01*
X171950045Y-81775168D01*
X171950043Y-81775164D01*
X171935884Y-81756250D01*
X172925790Y-81756250D01*
X172945576Y-81944506D01*
X172945577Y-81944509D01*
X173004068Y-82124527D01*
X173004071Y-82124534D01*
X173098717Y-82288466D01*
X173225378Y-82429138D01*
X173225379Y-82429138D01*
X173378515Y-82540398D01*
X173378520Y-82540401D01*
X173551442Y-82617392D01*
X173551447Y-82617394D01*
X173736604Y-82656750D01*
X173736605Y-82656750D01*
X173925894Y-82656750D01*
X173925896Y-82656750D01*
X174111053Y-82617394D01*
X174283980Y-82540401D01*
X174437121Y-82429138D01*
X174563783Y-82288466D01*
X174658429Y-82124534D01*
X174716924Y-81944506D01*
X174736710Y-81756250D01*
X174716924Y-81567994D01*
X174658429Y-81387966D01*
X174563783Y-81224034D01*
X174437121Y-81083362D01*
X174437120Y-81083361D01*
X174283984Y-80972101D01*
X174283979Y-80972098D01*
X174111057Y-80895107D01*
X174111052Y-80895105D01*
X173965251Y-80864115D01*
X173925896Y-80855750D01*
X173736604Y-80855750D01*
X173704147Y-80862648D01*
X173551447Y-80895105D01*
X173551442Y-80895107D01*
X173378520Y-80972098D01*
X173378515Y-80972101D01*
X173225379Y-81083361D01*
X173098716Y-81224035D01*
X173004071Y-81387965D01*
X173004068Y-81387972D01*
X172945577Y-81567990D01*
X172945576Y-81567994D01*
X172925790Y-81756250D01*
X171935884Y-81756250D01*
X171863797Y-81659955D01*
X171863794Y-81659952D01*
X171748585Y-81573706D01*
X171748578Y-81573702D01*
X171617167Y-81524689D01*
X171561233Y-81482818D01*
X171536816Y-81417353D01*
X171551668Y-81349080D01*
X171572813Y-81320832D01*
X171694745Y-81198901D01*
X171830285Y-81005330D01*
X171930153Y-80791163D01*
X171991313Y-80562908D01*
X172011909Y-80327500D01*
X171991313Y-80092092D01*
X171930153Y-79863837D01*
X171830285Y-79649671D01*
X171694745Y-79456099D01*
X171694744Y-79456097D01*
X171527652Y-79289006D01*
X171527646Y-79289001D01*
X171342092Y-79159075D01*
X171298467Y-79104498D01*
X171291273Y-79035000D01*
X171322796Y-78972645D01*
X171342092Y-78955925D01*
X171364276Y-78940391D01*
X171527651Y-78825995D01*
X171694745Y-78658901D01*
X171830285Y-78465330D01*
X171930153Y-78251163D01*
X171991313Y-78022908D01*
X172011909Y-77787500D01*
X171991313Y-77552092D01*
X171930153Y-77323837D01*
X171830285Y-77109671D01*
X171694745Y-76916099D01*
X171694744Y-76916097D01*
X171527652Y-76749006D01*
X171527651Y-76749005D01*
X171342092Y-76619075D01*
X171342091Y-76619074D01*
X171298466Y-76564497D01*
X171291274Y-76494998D01*
X171322796Y-76432644D01*
X171342086Y-76415928D01*
X171527651Y-76285995D01*
X171694745Y-76118901D01*
X171830285Y-75925330D01*
X171930153Y-75711163D01*
X171939123Y-75677682D01*
X171975486Y-75618025D01*
X172038332Y-75587494D01*
X172107708Y-75595787D01*
X172161587Y-75640271D01*
X172176829Y-75671458D01*
X172210319Y-75774530D01*
X172210321Y-75774534D01*
X172304967Y-75938466D01*
X172313451Y-75947888D01*
X172431629Y-76079138D01*
X172584765Y-76190398D01*
X172584770Y-76190401D01*
X172757692Y-76267392D01*
X172757697Y-76267394D01*
X172942854Y-76306750D01*
X172942855Y-76306750D01*
X173132144Y-76306750D01*
X173132146Y-76306750D01*
X173317303Y-76267394D01*
X173490230Y-76190401D01*
X173643371Y-76079138D01*
X173770033Y-75938466D01*
X173864679Y-75774534D01*
X173923174Y-75594506D01*
X173942960Y-75406250D01*
X173923174Y-75217994D01*
X173864679Y-75037966D01*
X173770033Y-74874034D01*
X173643371Y-74733362D01*
X173643370Y-74733361D01*
X173490234Y-74622101D01*
X173490229Y-74622098D01*
X173317307Y-74545107D01*
X173317302Y-74545105D01*
X173171500Y-74514115D01*
X173132146Y-74505750D01*
X172942854Y-74505750D01*
X172910397Y-74512648D01*
X172757697Y-74545105D01*
X172757692Y-74545107D01*
X172584770Y-74622098D01*
X172584765Y-74622101D01*
X172431629Y-74733361D01*
X172304965Y-74874035D01*
X172215152Y-75029598D01*
X172164585Y-75077814D01*
X172095978Y-75091037D01*
X172031113Y-75065069D01*
X171990585Y-75008155D01*
X171987990Y-74999691D01*
X171963079Y-74906722D01*
X171930153Y-74783837D01*
X171830285Y-74569671D01*
X171813086Y-74545107D01*
X171694744Y-74376097D01*
X171527652Y-74209006D01*
X171527646Y-74209001D01*
X171342092Y-74079075D01*
X171298467Y-74024498D01*
X171291273Y-73955000D01*
X171322796Y-73892645D01*
X171342092Y-73875925D01*
X171364276Y-73860391D01*
X171527651Y-73745995D01*
X171694745Y-73578901D01*
X171830285Y-73385330D01*
X171930153Y-73171163D01*
X171991313Y-72942908D01*
X172011909Y-72707500D01*
X171991313Y-72472092D01*
X171930153Y-72243837D01*
X171830285Y-72029671D01*
X171694745Y-71836099D01*
X171694744Y-71836097D01*
X171527652Y-71669006D01*
X171527651Y-71669005D01*
X171342092Y-71539075D01*
X171342091Y-71539074D01*
X171298466Y-71484497D01*
X171291274Y-71414998D01*
X171322796Y-71352644D01*
X171342086Y-71335928D01*
X171527651Y-71205995D01*
X171694745Y-71038901D01*
X171830285Y-70845330D01*
X171930153Y-70631163D01*
X171991313Y-70402908D01*
X172011909Y-70167500D01*
X171991313Y-69932092D01*
X171937757Y-69732214D01*
X171930155Y-69703844D01*
X171930154Y-69703843D01*
X171930153Y-69703837D01*
X171830285Y-69489671D01*
X171745290Y-69368284D01*
X171694744Y-69296097D01*
X171527652Y-69129006D01*
X171527646Y-69129001D01*
X171342092Y-68999075D01*
X171298467Y-68944498D01*
X171291273Y-68875000D01*
X171322796Y-68812645D01*
X171342092Y-68795925D01*
X171483601Y-68696839D01*
X171527651Y-68665995D01*
X171694745Y-68498901D01*
X171830285Y-68305330D01*
X171930153Y-68091163D01*
X171991313Y-67862908D01*
X172011909Y-67627500D01*
X171991313Y-67392092D01*
X171930153Y-67163837D01*
X171830285Y-66949671D01*
X171823486Y-66939960D01*
X171694744Y-66756097D01*
X171527652Y-66589006D01*
X171527651Y-66589005D01*
X171370355Y-66478865D01*
X171342091Y-66459074D01*
X171298466Y-66404497D01*
X171291274Y-66334998D01*
X171322796Y-66272644D01*
X171342086Y-66255928D01*
X171527651Y-66125995D01*
X171694745Y-65958901D01*
X171749118Y-65881249D01*
X173191116Y-65881249D01*
X173211416Y-66268589D01*
X173257308Y-66558342D01*
X173272092Y-66651683D01*
X173351937Y-66949671D01*
X173372482Y-67026344D01*
X173511481Y-67388447D01*
X173687571Y-67734043D01*
X173898816Y-68059332D01*
X174025561Y-68215849D01*
X174142913Y-68360766D01*
X174417178Y-68635031D01*
X174585069Y-68770987D01*
X174718611Y-68879127D01*
X175043900Y-69090372D01*
X175043905Y-69090375D01*
X175389500Y-69266464D01*
X175751607Y-69405464D01*
X176126261Y-69505852D01*
X176509356Y-69566528D01*
X176875270Y-69585705D01*
X176896693Y-69586828D01*
X176896694Y-69586828D01*
X176896695Y-69586828D01*
X176916995Y-69585764D01*
X177284032Y-69566528D01*
X177667127Y-69505852D01*
X178041781Y-69405464D01*
X178403888Y-69266464D01*
X178749483Y-69090375D01*
X179074778Y-68879126D01*
X179376210Y-68635031D01*
X179650475Y-68360766D01*
X179894570Y-68059334D01*
X180105819Y-67734039D01*
X180281908Y-67388444D01*
X180420908Y-67026337D01*
X180521296Y-66651683D01*
X180581972Y-66268588D01*
X180602272Y-65881250D01*
X180581972Y-65493912D01*
X180521296Y-65110817D01*
X180420908Y-64736163D01*
X180281908Y-64374056D01*
X180105819Y-64028461D01*
X179975346Y-63827550D01*
X179894571Y-63703167D01*
X179650478Y-63401738D01*
X179650475Y-63401734D01*
X179376210Y-63127469D01*
X179074778Y-62883374D01*
X179074776Y-62883372D01*
X178749487Y-62672127D01*
X178403891Y-62496037D01*
X178041788Y-62357038D01*
X178041781Y-62357036D01*
X177667127Y-62256648D01*
X177667123Y-62256647D01*
X177667122Y-62256647D01*
X177284033Y-62195972D01*
X176896695Y-62175672D01*
X176896693Y-62175672D01*
X176509354Y-62195972D01*
X176126266Y-62256647D01*
X176126264Y-62256647D01*
X175751599Y-62357038D01*
X175389496Y-62496037D01*
X175043900Y-62672127D01*
X174718611Y-62883372D01*
X174417182Y-63127465D01*
X174417174Y-63127472D01*
X174142916Y-63401730D01*
X174142909Y-63401738D01*
X173898816Y-63703167D01*
X173687571Y-64028456D01*
X173511481Y-64374052D01*
X173372482Y-64736155D01*
X173272091Y-65110820D01*
X173272091Y-65110822D01*
X173211416Y-65493910D01*
X173191116Y-65881249D01*
X171749118Y-65881249D01*
X171830285Y-65765330D01*
X171930153Y-65551163D01*
X171991313Y-65322908D01*
X172011909Y-65087500D01*
X171991313Y-64852092D01*
X171930153Y-64623837D01*
X171830285Y-64409671D01*
X171805348Y-64374056D01*
X171694744Y-64216097D01*
X171527652Y-64049006D01*
X171527645Y-64049001D01*
X171334084Y-63913467D01*
X171334080Y-63913465D01*
X171238229Y-63868769D01*
X171119913Y-63813597D01*
X171119909Y-63813596D01*
X171119905Y-63813594D01*
X170891663Y-63752438D01*
X170891653Y-63752436D01*
X170656251Y-63731841D01*
X170656249Y-63731841D01*
X170420846Y-63752436D01*
X170420836Y-63752438D01*
X170192594Y-63813594D01*
X170192585Y-63813598D01*
X169978421Y-63913464D01*
X169978419Y-63913465D01*
X169784847Y-64049005D01*
X169617755Y-64216097D01*
X169482215Y-64409669D01*
X169482214Y-64409671D01*
X169382348Y-64623835D01*
X169382344Y-64623844D01*
X169321188Y-64852086D01*
X169321186Y-64852096D01*
X169300591Y-65087499D01*
X169300591Y-65087500D01*
X169321186Y-65322903D01*
X169321188Y-65322913D01*
X169382344Y-65551155D01*
X169382346Y-65551159D01*
X169382347Y-65551163D01*
X169466543Y-65731722D01*
X169482215Y-65765330D01*
X169482217Y-65765334D01*
X169617751Y-65958895D01*
X169617756Y-65958902D01*
X169784847Y-66125993D01*
X169784853Y-66125998D01*
X169970408Y-66255925D01*
X170014033Y-66310502D01*
X170021227Y-66380000D01*
X169989704Y-66442355D01*
X169970408Y-66459075D01*
X169784847Y-66589005D01*
X169617755Y-66756097D01*
X169482215Y-66949669D01*
X169482214Y-66949671D01*
X169382348Y-67163835D01*
X169382344Y-67163844D01*
X169321188Y-67392086D01*
X169321186Y-67392096D01*
X169300591Y-67627499D01*
X169300591Y-67627500D01*
X169321186Y-67862903D01*
X169321188Y-67862913D01*
X169382344Y-68091155D01*
X169382346Y-68091159D01*
X169382347Y-68091163D01*
X169428079Y-68189235D01*
X169482215Y-68305330D01*
X169482217Y-68305334D01*
X169590531Y-68460021D01*
X169608418Y-68485567D01*
X169617751Y-68498895D01*
X169617756Y-68498902D01*
X169784847Y-68665993D01*
X169784853Y-68665998D01*
X169970408Y-68795925D01*
X170014033Y-68850502D01*
X170021227Y-68920000D01*
X169989704Y-68982355D01*
X169970408Y-68999075D01*
X169784847Y-69129005D01*
X169617755Y-69296097D01*
X169482215Y-69489669D01*
X169482214Y-69489671D01*
X169382348Y-69703835D01*
X169382344Y-69703844D01*
X169321188Y-69932086D01*
X169321186Y-69932096D01*
X169300554Y-70167914D01*
X169275101Y-70232983D01*
X169218510Y-70273961D01*
X169148748Y-70277839D01*
X169087964Y-70243385D01*
X169069642Y-70219110D01*
X169007533Y-70111534D01*
X168880871Y-69970862D01*
X168880870Y-69970861D01*
X168727734Y-69859601D01*
X168727729Y-69859598D01*
X168554807Y-69782607D01*
X168554802Y-69782605D01*
X168409001Y-69751615D01*
X168369646Y-69743250D01*
X168180354Y-69743250D01*
X168147897Y-69750148D01*
X167995197Y-69782605D01*
X167995192Y-69782607D01*
X167822270Y-69859598D01*
X167822265Y-69859601D01*
X167669129Y-69970861D01*
X167542466Y-70111535D01*
X167447821Y-70275465D01*
X167447818Y-70275472D01*
X167389327Y-70455490D01*
X167389326Y-70455494D01*
X167369540Y-70643750D01*
X95250500Y-70643750D01*
X95250500Y-65881249D01*
X98688172Y-65881249D01*
X98708472Y-66268589D01*
X98754364Y-66558342D01*
X98769148Y-66651683D01*
X98848993Y-66949671D01*
X98869538Y-67026344D01*
X99008537Y-67388447D01*
X99184627Y-67734043D01*
X99395872Y-68059332D01*
X99522617Y-68215849D01*
X99639969Y-68360766D01*
X99914234Y-68635031D01*
X100082125Y-68770987D01*
X100215667Y-68879127D01*
X100540956Y-69090372D01*
X100540961Y-69090375D01*
X100886556Y-69266464D01*
X101248663Y-69405464D01*
X101623317Y-69505852D01*
X102006412Y-69566528D01*
X102372326Y-69585705D01*
X102393749Y-69586828D01*
X102393750Y-69586828D01*
X102393751Y-69586828D01*
X102414051Y-69585764D01*
X102781088Y-69566528D01*
X103164183Y-69505852D01*
X103538837Y-69405464D01*
X103900944Y-69266464D01*
X104246539Y-69090375D01*
X104571834Y-68879126D01*
X104873266Y-68635031D01*
X105147531Y-68360766D01*
X105391626Y-68059334D01*
X105602875Y-67734039D01*
X105738044Y-67468754D01*
X122894953Y-67468754D01*
X122915113Y-67737776D01*
X122915113Y-67737778D01*
X122975142Y-68000783D01*
X122975148Y-68000802D01*
X123073709Y-68251931D01*
X123073708Y-68251931D01*
X123208602Y-68485572D01*
X123262294Y-68552901D01*
X123982331Y-67832864D01*
X124043654Y-67799379D01*
X124113345Y-67804363D01*
X124169279Y-67846235D01*
X124174707Y-67854100D01*
X124195187Y-67886370D01*
X124195188Y-67886371D01*
X124314904Y-67998791D01*
X124318266Y-68001234D01*
X124320264Y-68003824D01*
X124320590Y-68004131D01*
X124320540Y-68004183D01*
X124360934Y-68056562D01*
X124366915Y-68126175D01*
X124334311Y-68187971D01*
X124333065Y-68189235D01*
X123614848Y-68907452D01*
X123797483Y-69031970D01*
X123797485Y-69031971D01*
X124040539Y-69149019D01*
X124040537Y-69149019D01*
X124298337Y-69228540D01*
X124298343Y-69228542D01*
X124565101Y-69268749D01*
X124565110Y-69268750D01*
X124834890Y-69268750D01*
X124834898Y-69268749D01*
X125101656Y-69228542D01*
X125101662Y-69228540D01*
X125359461Y-69149019D01*
X125602521Y-69031968D01*
X125785150Y-68907452D01*
X125063234Y-68185537D01*
X125029749Y-68124214D01*
X125034733Y-68054523D01*
X125076605Y-67998589D01*
X125077953Y-67997594D01*
X125148492Y-67946345D01*
X125234871Y-67841930D01*
X125292768Y-67802824D01*
X125362620Y-67801228D01*
X125418094Y-67833291D01*
X126137703Y-68552901D01*
X126137704Y-68552900D01*
X126191393Y-68485578D01*
X126191400Y-68485567D01*
X126326290Y-68251931D01*
X126424851Y-68000802D01*
X126424857Y-68000783D01*
X126484886Y-67737778D01*
X126484886Y-67737776D01*
X126505047Y-67468754D01*
X126505047Y-67468745D01*
X126484886Y-67199723D01*
X126484886Y-67199721D01*
X126424857Y-66936716D01*
X126424851Y-66936697D01*
X126326290Y-66685568D01*
X126326291Y-66685568D01*
X126191397Y-66451927D01*
X126137704Y-66384597D01*
X125417667Y-67104634D01*
X125356344Y-67138119D01*
X125286652Y-67133135D01*
X125230719Y-67091263D01*
X125225290Y-67083396D01*
X125223771Y-67081002D01*
X125204814Y-67051131D01*
X125178418Y-67026344D01*
X125085097Y-66938710D01*
X125081732Y-66936265D01*
X125079731Y-66933670D01*
X125079410Y-66933369D01*
X125079458Y-66933317D01*
X125039064Y-66880937D01*
X125033082Y-66811324D01*
X125065685Y-66749528D01*
X125066932Y-66748263D01*
X125785150Y-66030046D01*
X125602517Y-65905529D01*
X125602516Y-65905528D01*
X125359460Y-65788480D01*
X125359462Y-65788480D01*
X125101662Y-65708959D01*
X125101656Y-65708957D01*
X124876364Y-65675000D01*
X126619540Y-65675000D01*
X126639326Y-65863256D01*
X126639327Y-65863259D01*
X126697818Y-66043277D01*
X126697821Y-66043284D01*
X126792467Y-66207216D01*
X126907523Y-66334998D01*
X126919129Y-66347888D01*
X127072265Y-66459148D01*
X127072270Y-66459151D01*
X127245192Y-66536142D01*
X127245197Y-66536144D01*
X127430354Y-66575500D01*
X127430355Y-66575500D01*
X127619644Y-66575500D01*
X127619646Y-66575500D01*
X127804803Y-66536144D01*
X127933453Y-66478864D01*
X128002700Y-66469579D01*
X128065977Y-66499207D01*
X128103191Y-66558342D01*
X128102527Y-66628209D01*
X128091275Y-66654142D01*
X128073259Y-66685347D01*
X128073256Y-66685353D01*
X127974666Y-66936554D01*
X127974664Y-66936561D01*
X127914616Y-67199648D01*
X127894451Y-67468745D01*
X127894451Y-67468754D01*
X127914616Y-67737851D01*
X127962560Y-67947907D01*
X127958287Y-68017646D01*
X127916988Y-68074004D01*
X127851776Y-68099087D01*
X127841669Y-68099500D01*
X127655354Y-68099500D01*
X127637321Y-68103333D01*
X127470197Y-68138855D01*
X127470192Y-68138857D01*
X127297270Y-68215848D01*
X127297265Y-68215851D01*
X127144129Y-68327111D01*
X127017466Y-68467785D01*
X126922821Y-68631715D01*
X126922818Y-68631722D01*
X126864327Y-68811740D01*
X126864326Y-68811744D01*
X126844540Y-69000000D01*
X126864326Y-69188256D01*
X126864327Y-69188259D01*
X126922818Y-69368277D01*
X126922821Y-69368284D01*
X127017467Y-69532216D01*
X127027433Y-69543284D01*
X127144129Y-69672888D01*
X127297265Y-69784148D01*
X127297270Y-69784151D01*
X127470192Y-69861142D01*
X127470197Y-69861144D01*
X127655354Y-69900500D01*
X127655355Y-69900500D01*
X127844644Y-69900500D01*
X127844646Y-69900500D01*
X128029803Y-69861144D01*
X128202730Y-69784151D01*
X128355871Y-69672888D01*
X128482533Y-69532216D01*
X128577179Y-69368284D01*
X128635674Y-69188256D01*
X128640635Y-69141044D01*
X128667219Y-69076432D01*
X128724517Y-69036447D01*
X128794336Y-69033787D01*
X128817751Y-69042285D01*
X129040359Y-69149488D01*
X129298228Y-69229030D01*
X129298229Y-69229030D01*
X129298232Y-69229031D01*
X129565063Y-69269249D01*
X129565068Y-69269249D01*
X129565071Y-69269250D01*
X129565072Y-69269250D01*
X129834928Y-69269250D01*
X129834929Y-69269250D01*
X129834936Y-69269249D01*
X130101767Y-69229031D01*
X130101768Y-69229030D01*
X130101772Y-69229030D01*
X130359641Y-69149488D01*
X130582155Y-69042331D01*
X130602767Y-69032405D01*
X130602767Y-69032404D01*
X130602775Y-69032401D01*
X130825741Y-68880385D01*
X131023561Y-68696835D01*
X131191815Y-68485852D01*
X131326743Y-68252148D01*
X131425334Y-68000945D01*
X131485383Y-67737853D01*
X131505549Y-67468754D01*
X132894451Y-67468754D01*
X132914616Y-67737851D01*
X132974664Y-68000938D01*
X132974666Y-68000945D01*
X133059010Y-68215849D01*
X133073257Y-68252148D01*
X133208185Y-68485852D01*
X133261655Y-68552901D01*
X133376442Y-68696839D01*
X133539230Y-68847883D01*
X133574259Y-68880385D01*
X133797226Y-69032401D01*
X133797229Y-69032402D01*
X133797230Y-69032403D01*
X133817840Y-69042328D01*
X134040359Y-69149488D01*
X134298228Y-69229030D01*
X134298229Y-69229030D01*
X134298232Y-69229031D01*
X134565063Y-69269249D01*
X134565068Y-69269249D01*
X134565071Y-69269250D01*
X134565072Y-69269250D01*
X134834928Y-69269250D01*
X134834929Y-69269250D01*
X134834936Y-69269249D01*
X135101767Y-69229031D01*
X135101768Y-69229030D01*
X135101772Y-69229030D01*
X135359641Y-69149488D01*
X135582155Y-69042331D01*
X135602767Y-69032405D01*
X135602767Y-69032404D01*
X135602775Y-69032401D01*
X135825741Y-68880385D01*
X135894463Y-68816620D01*
X137899500Y-68816620D01*
X137899501Y-68816626D01*
X137905908Y-68876233D01*
X137956202Y-69011078D01*
X137956206Y-69011085D01*
X138042452Y-69126294D01*
X138042455Y-69126297D01*
X138157664Y-69212543D01*
X138157671Y-69212547D01*
X138292517Y-69262841D01*
X138292516Y-69262841D01*
X138299444Y-69263585D01*
X138352127Y-69269250D01*
X141047872Y-69269249D01*
X141107483Y-69262841D01*
X141242331Y-69212546D01*
X141259090Y-69200000D01*
X157144540Y-69200000D01*
X157164326Y-69388256D01*
X157164327Y-69388259D01*
X157222818Y-69568277D01*
X157222821Y-69568284D01*
X157317467Y-69732216D01*
X157432165Y-69859601D01*
X157444129Y-69872888D01*
X157597265Y-69984148D01*
X157597270Y-69984151D01*
X157770192Y-70061142D01*
X157770197Y-70061144D01*
X157955354Y-70100500D01*
X157955355Y-70100500D01*
X158144644Y-70100500D01*
X158144646Y-70100500D01*
X158329803Y-70061144D01*
X158502730Y-69984151D01*
X158655871Y-69872888D01*
X158782533Y-69732216D01*
X158877179Y-69568284D01*
X158935674Y-69388256D01*
X158955460Y-69200000D01*
X158952832Y-69175000D01*
X160869540Y-69175000D01*
X160889326Y-69363256D01*
X160889327Y-69363259D01*
X160947818Y-69543277D01*
X160947821Y-69543284D01*
X161042467Y-69707216D01*
X161110348Y-69782605D01*
X161169129Y-69847888D01*
X161322265Y-69959148D01*
X161322270Y-69959151D01*
X161495192Y-70036142D01*
X161495197Y-70036144D01*
X161680354Y-70075500D01*
X161680355Y-70075500D01*
X161869644Y-70075500D01*
X161869646Y-70075500D01*
X162054803Y-70036144D01*
X162227730Y-69959151D01*
X162380871Y-69847888D01*
X162507533Y-69707216D01*
X162602179Y-69543284D01*
X162660674Y-69363256D01*
X162680460Y-69175000D01*
X162660674Y-68986744D01*
X162602179Y-68806716D01*
X162507533Y-68642784D01*
X162380871Y-68502112D01*
X162376453Y-68498902D01*
X162227734Y-68390851D01*
X162227729Y-68390848D01*
X162054807Y-68313857D01*
X162054802Y-68313855D01*
X161909001Y-68282865D01*
X161869646Y-68274500D01*
X161680354Y-68274500D01*
X161647897Y-68281398D01*
X161495197Y-68313855D01*
X161495192Y-68313857D01*
X161322270Y-68390848D01*
X161322265Y-68390851D01*
X161169129Y-68502111D01*
X161042466Y-68642785D01*
X160947821Y-68806715D01*
X160947818Y-68806722D01*
X160890752Y-68982355D01*
X160889326Y-68986744D01*
X160869540Y-69175000D01*
X158952832Y-69175000D01*
X158935674Y-69011744D01*
X158877179Y-68831716D01*
X158782533Y-68667784D01*
X158655871Y-68527112D01*
X158655870Y-68527111D01*
X158502734Y-68415851D01*
X158502729Y-68415848D01*
X158329807Y-68338857D01*
X158329802Y-68338855D01*
X158172074Y-68305330D01*
X158144646Y-68299500D01*
X157955354Y-68299500D01*
X157927926Y-68305330D01*
X157770197Y-68338855D01*
X157770192Y-68338857D01*
X157597270Y-68415848D01*
X157597265Y-68415851D01*
X157444129Y-68527111D01*
X157317466Y-68667785D01*
X157222821Y-68831715D01*
X157222818Y-68831722D01*
X157173875Y-68982355D01*
X157164326Y-69011744D01*
X157144540Y-69200000D01*
X141259090Y-69200000D01*
X141357546Y-69126296D01*
X141443796Y-69011081D01*
X141494091Y-68876233D01*
X141500500Y-68816623D01*
X141500499Y-66120878D01*
X141494091Y-66061267D01*
X141492542Y-66057115D01*
X141443797Y-65926421D01*
X141443793Y-65926414D01*
X141357547Y-65811205D01*
X141357544Y-65811202D01*
X141242335Y-65724956D01*
X141242328Y-65724952D01*
X141107482Y-65674658D01*
X141107483Y-65674658D01*
X141047883Y-65668251D01*
X141047881Y-65668250D01*
X141047873Y-65668250D01*
X141047864Y-65668250D01*
X138352129Y-65668250D01*
X138352123Y-65668251D01*
X138292516Y-65674658D01*
X138157671Y-65724952D01*
X138157664Y-65724956D01*
X138042455Y-65811202D01*
X138042452Y-65811205D01*
X137956206Y-65926414D01*
X137956202Y-65926421D01*
X137905908Y-66061267D01*
X137899501Y-66120866D01*
X137899501Y-66120873D01*
X137899500Y-66120885D01*
X137899500Y-68816620D01*
X135894463Y-68816620D01*
X136023561Y-68696835D01*
X136191815Y-68485852D01*
X136326743Y-68252148D01*
X136425334Y-68000945D01*
X136485383Y-67737853D01*
X136505549Y-67468750D01*
X136502466Y-67427612D01*
X136485389Y-67199723D01*
X136485383Y-67199647D01*
X136425334Y-66936555D01*
X136326743Y-66685352D01*
X136191815Y-66451648D01*
X136023561Y-66240665D01*
X136023560Y-66240664D01*
X136023557Y-66240660D01*
X135825741Y-66057115D01*
X135786038Y-66030046D01*
X135602775Y-65905099D01*
X135602769Y-65905096D01*
X135602768Y-65905095D01*
X135602767Y-65905094D01*
X135359643Y-65788013D01*
X135359645Y-65788013D01*
X135101773Y-65708470D01*
X135101767Y-65708468D01*
X134834936Y-65668250D01*
X134834929Y-65668250D01*
X134565071Y-65668250D01*
X134565063Y-65668250D01*
X134298232Y-65708468D01*
X134298226Y-65708470D01*
X134040358Y-65788012D01*
X133797230Y-65905096D01*
X133574258Y-66057115D01*
X133376442Y-66240660D01*
X133208185Y-66451648D01*
X133073258Y-66685349D01*
X133073256Y-66685353D01*
X132974666Y-66936554D01*
X132974664Y-66936561D01*
X132914616Y-67199648D01*
X132894451Y-67468745D01*
X132894451Y-67468754D01*
X131505549Y-67468754D01*
X131505549Y-67468750D01*
X131502466Y-67427612D01*
X131485389Y-67199723D01*
X131485383Y-67199647D01*
X131425334Y-66936555D01*
X131326743Y-66685352D01*
X131191815Y-66451648D01*
X131023561Y-66240665D01*
X131023560Y-66240664D01*
X131023557Y-66240660D01*
X130825741Y-66057115D01*
X130786038Y-66030046D01*
X130602775Y-65905099D01*
X130602769Y-65905096D01*
X130602768Y-65905095D01*
X130602767Y-65905094D01*
X130359643Y-65788013D01*
X130359645Y-65788013D01*
X130101773Y-65708470D01*
X130101767Y-65708468D01*
X129834936Y-65668250D01*
X129834929Y-65668250D01*
X129565071Y-65668250D01*
X129565063Y-65668250D01*
X129298232Y-65708468D01*
X129298226Y-65708470D01*
X129040358Y-65788012D01*
X128797229Y-65905097D01*
X128797225Y-65905099D01*
X128583184Y-66051030D01*
X128516705Y-66072530D01*
X128449155Y-66054676D01*
X128401981Y-66003136D01*
X128390161Y-65934273D01*
X128395402Y-65910258D01*
X128396937Y-65905533D01*
X128410674Y-65863256D01*
X128430460Y-65675000D01*
X128410674Y-65486744D01*
X128385738Y-65410000D01*
X164538091Y-65410000D01*
X164558686Y-65645403D01*
X164558688Y-65645413D01*
X164619844Y-65873655D01*
X164619846Y-65873659D01*
X164619847Y-65873663D01*
X164719715Y-66087829D01*
X164719715Y-66087830D01*
X164719717Y-66087834D01*
X164803310Y-66207216D01*
X164855251Y-66281396D01*
X164855256Y-66281402D01*
X164977180Y-66403326D01*
X165010665Y-66464649D01*
X165005681Y-66534341D01*
X164963809Y-66590274D01*
X164932833Y-66607189D01*
X164801419Y-66656203D01*
X164801414Y-66656206D01*
X164686205Y-66742452D01*
X164686202Y-66742455D01*
X164599956Y-66857664D01*
X164599952Y-66857671D01*
X164549658Y-66992517D01*
X164546022Y-67026344D01*
X164543251Y-67052123D01*
X164543250Y-67052135D01*
X164543250Y-68847870D01*
X164543251Y-68847876D01*
X164549658Y-68907483D01*
X164599952Y-69042328D01*
X164599956Y-69042335D01*
X164686202Y-69157544D01*
X164686205Y-69157547D01*
X164801414Y-69243793D01*
X164801421Y-69243797D01*
X164936267Y-69294091D01*
X164936266Y-69294091D01*
X164943194Y-69294835D01*
X164995877Y-69300500D01*
X166791622Y-69300499D01*
X166851233Y-69294091D01*
X166986081Y-69243796D01*
X167101296Y-69157546D01*
X167187546Y-69042331D01*
X167237841Y-68907483D01*
X167244250Y-68847873D01*
X167244249Y-67052128D01*
X167237841Y-66992517D01*
X167221860Y-66949671D01*
X167187547Y-66857671D01*
X167187543Y-66857664D01*
X167101297Y-66742455D01*
X167101294Y-66742452D01*
X166986085Y-66656206D01*
X166986078Y-66656202D01*
X166854667Y-66607189D01*
X166798733Y-66565318D01*
X166774316Y-66499853D01*
X166789168Y-66431580D01*
X166810313Y-66403332D01*
X166932245Y-66281401D01*
X167067785Y-66087830D01*
X167167653Y-65873663D01*
X167228813Y-65645408D01*
X167249409Y-65410000D01*
X167228813Y-65174592D01*
X167167653Y-64946337D01*
X167067785Y-64732171D01*
X166959478Y-64577491D01*
X166932244Y-64538597D01*
X166765152Y-64371506D01*
X166765145Y-64371501D01*
X166571584Y-64235967D01*
X166571580Y-64235965D01*
X166528973Y-64216097D01*
X166357413Y-64136097D01*
X166357409Y-64136096D01*
X166357405Y-64136094D01*
X166129163Y-64074938D01*
X166129153Y-64074936D01*
X165893751Y-64054341D01*
X165893749Y-64054341D01*
X165658346Y-64074936D01*
X165658336Y-64074938D01*
X165430094Y-64136094D01*
X165430085Y-64136098D01*
X165215921Y-64235964D01*
X165215919Y-64235965D01*
X165022347Y-64371505D01*
X164855255Y-64538597D01*
X164719715Y-64732169D01*
X164719714Y-64732171D01*
X164619848Y-64946335D01*
X164619844Y-64946344D01*
X164558688Y-65174586D01*
X164558686Y-65174596D01*
X164538091Y-65409999D01*
X164538091Y-65410000D01*
X128385738Y-65410000D01*
X128352179Y-65306716D01*
X128257533Y-65142784D01*
X128130871Y-65002112D01*
X128054113Y-64946344D01*
X127977734Y-64890851D01*
X127977729Y-64890848D01*
X127804807Y-64813857D01*
X127804802Y-64813855D01*
X127659000Y-64782865D01*
X127619646Y-64774500D01*
X127430354Y-64774500D01*
X127397897Y-64781398D01*
X127245197Y-64813855D01*
X127245192Y-64813857D01*
X127072270Y-64890848D01*
X127072265Y-64890851D01*
X126919129Y-65002111D01*
X126792466Y-65142785D01*
X126697821Y-65306715D01*
X126697818Y-65306722D01*
X126639327Y-65486740D01*
X126639326Y-65486744D01*
X126619540Y-65675000D01*
X124876364Y-65675000D01*
X124834898Y-65668750D01*
X124565101Y-65668750D01*
X124298343Y-65708957D01*
X124298337Y-65708959D01*
X124040538Y-65788480D01*
X123797485Y-65905528D01*
X123797476Y-65905533D01*
X123614848Y-66030046D01*
X124336765Y-66751962D01*
X124370250Y-66813285D01*
X124365266Y-66882976D01*
X124323394Y-66938910D01*
X124321970Y-66939960D01*
X124251510Y-66991152D01*
X124251508Y-66991155D01*
X124165130Y-67095568D01*
X124107230Y-67134675D01*
X124037378Y-67136271D01*
X123981905Y-67104208D01*
X123262295Y-66384598D01*
X123208600Y-66451930D01*
X123073709Y-66685568D01*
X122975148Y-66936697D01*
X122975142Y-66936716D01*
X122915113Y-67199721D01*
X122915113Y-67199723D01*
X122894953Y-67468745D01*
X122894953Y-67468754D01*
X105738044Y-67468754D01*
X105778964Y-67388444D01*
X105917964Y-67026337D01*
X106018352Y-66651683D01*
X106079028Y-66268588D01*
X106087864Y-66100000D01*
X117494540Y-66100000D01*
X117514326Y-66288256D01*
X117514327Y-66288259D01*
X117572818Y-66468277D01*
X117572821Y-66468284D01*
X117667467Y-66632216D01*
X117773096Y-66749528D01*
X117794129Y-66772888D01*
X117947265Y-66884148D01*
X117947270Y-66884151D01*
X118120192Y-66961142D01*
X118120197Y-66961144D01*
X118305354Y-67000500D01*
X118305355Y-67000500D01*
X118494644Y-67000500D01*
X118494646Y-67000500D01*
X118679803Y-66961144D01*
X118852730Y-66884151D01*
X119005871Y-66772888D01*
X119132533Y-66632216D01*
X119227179Y-66468284D01*
X119285674Y-66288256D01*
X119305460Y-66100000D01*
X119285674Y-65911744D01*
X119227179Y-65731716D01*
X119132533Y-65567784D01*
X119005871Y-65427112D01*
X119005870Y-65427111D01*
X118852734Y-65315851D01*
X118852729Y-65315848D01*
X118679807Y-65238857D01*
X118679802Y-65238855D01*
X118534001Y-65207865D01*
X118494646Y-65199500D01*
X118305354Y-65199500D01*
X118272897Y-65206398D01*
X118120197Y-65238855D01*
X118120192Y-65238857D01*
X117947270Y-65315848D01*
X117947265Y-65315851D01*
X117794129Y-65427111D01*
X117667466Y-65567785D01*
X117572821Y-65731715D01*
X117572818Y-65731722D01*
X117516345Y-65905529D01*
X117514326Y-65911744D01*
X117494540Y-66100000D01*
X106087864Y-66100000D01*
X106099328Y-65881250D01*
X106079028Y-65493912D01*
X106018352Y-65110817D01*
X105917964Y-64736163D01*
X105778964Y-64374056D01*
X105602875Y-64028461D01*
X105472402Y-63827550D01*
X105391627Y-63703167D01*
X105147534Y-63401738D01*
X105147531Y-63401734D01*
X104873266Y-63127469D01*
X104571834Y-62883374D01*
X104571832Y-62883372D01*
X104246543Y-62672127D01*
X103900947Y-62496037D01*
X103538844Y-62357038D01*
X103538837Y-62357036D01*
X103164183Y-62256648D01*
X103164179Y-62256647D01*
X103164178Y-62256647D01*
X102781089Y-62195972D01*
X102393751Y-62175672D01*
X102393749Y-62175672D01*
X102006410Y-62195972D01*
X101623322Y-62256647D01*
X101623320Y-62256647D01*
X101248655Y-62357038D01*
X100886552Y-62496037D01*
X100540956Y-62672127D01*
X100215667Y-62883372D01*
X99914238Y-63127465D01*
X99914230Y-63127472D01*
X99639972Y-63401730D01*
X99639965Y-63401738D01*
X99395872Y-63703167D01*
X99184627Y-64028456D01*
X99008537Y-64374052D01*
X98869538Y-64736155D01*
X98769147Y-65110820D01*
X98769147Y-65110822D01*
X98708472Y-65493910D01*
X98688172Y-65881249D01*
X95250500Y-65881249D01*
X95260997Y-65587310D01*
X95269184Y-65368524D01*
X95269491Y-65364290D01*
X95299080Y-65089074D01*
X95326067Y-64849565D01*
X95326651Y-64845575D01*
X95375042Y-64577362D01*
X95420684Y-64336138D01*
X95421510Y-64332420D01*
X95488472Y-64070070D01*
X95552518Y-63831045D01*
X95553545Y-63827621D01*
X95638774Y-63571550D01*
X95720870Y-63336932D01*
X95722057Y-63333823D01*
X95825138Y-63084962D01*
X95924826Y-62856477D01*
X95926152Y-62853641D01*
X96046609Y-62613000D01*
X96163284Y-62392241D01*
X96164715Y-62389688D01*
X96301933Y-62158419D01*
X96435011Y-61946625D01*
X96436501Y-61944372D01*
X96589821Y-61723549D01*
X96646367Y-61646933D01*
X96739228Y-61521110D01*
X96908701Y-61310806D01*
X97000783Y-61203805D01*
X111786999Y-61203805D01*
X111827710Y-61368976D01*
X111906763Y-61519599D01*
X111906766Y-61519602D01*
X112019571Y-61646933D01*
X112109818Y-61709226D01*
X112159568Y-61743567D01*
X112159569Y-61743567D01*
X112159570Y-61743568D01*
X112318628Y-61803890D01*
X112394528Y-61813106D01*
X112445126Y-61819250D01*
X112445128Y-61819250D01*
X112529874Y-61819250D01*
X112572038Y-61814130D01*
X112656372Y-61803890D01*
X112815430Y-61743568D01*
X112955429Y-61646933D01*
X113068234Y-61519602D01*
X113147290Y-61368975D01*
X113188000Y-61203806D01*
X113188000Y-61203805D01*
X118586999Y-61203805D01*
X118627710Y-61368976D01*
X118706763Y-61519599D01*
X118706766Y-61519602D01*
X118819571Y-61646933D01*
X118909818Y-61709226D01*
X118959568Y-61743567D01*
X118959569Y-61743567D01*
X118959570Y-61743568D01*
X119118628Y-61803890D01*
X119194528Y-61813106D01*
X119245126Y-61819250D01*
X119245128Y-61819250D01*
X119329874Y-61819250D01*
X119372038Y-61814130D01*
X119456372Y-61803890D01*
X119615430Y-61743568D01*
X119755429Y-61646933D01*
X119868234Y-61519602D01*
X119947290Y-61368975D01*
X119988000Y-61203806D01*
X119988000Y-61033694D01*
X119947290Y-60868525D01*
X119927180Y-60830209D01*
X119868236Y-60717900D01*
X119807279Y-60649094D01*
X119755429Y-60590567D01*
X119705677Y-60556225D01*
X119615431Y-60493932D01*
X119456374Y-60433610D01*
X119456368Y-60433609D01*
X119329874Y-60418250D01*
X119329872Y-60418250D01*
X119245128Y-60418250D01*
X119245126Y-60418250D01*
X119118631Y-60433609D01*
X119118625Y-60433610D01*
X118959568Y-60493932D01*
X118819572Y-60590566D01*
X118706763Y-60717900D01*
X118627710Y-60868523D01*
X118586999Y-61033694D01*
X118586999Y-61203805D01*
X113188000Y-61203805D01*
X113188000Y-61033694D01*
X113147290Y-60868525D01*
X113127180Y-60830209D01*
X113068236Y-60717900D01*
X113007279Y-60649094D01*
X112955429Y-60590567D01*
X112905677Y-60556225D01*
X112815431Y-60493932D01*
X112656374Y-60433610D01*
X112656368Y-60433609D01*
X112529874Y-60418250D01*
X112529872Y-60418250D01*
X112445128Y-60418250D01*
X112445126Y-60418250D01*
X112318631Y-60433609D01*
X112318625Y-60433610D01*
X112159568Y-60493932D01*
X112019572Y-60590566D01*
X111906763Y-60717900D01*
X111827710Y-60868523D01*
X111786999Y-61033694D01*
X111786999Y-61203805D01*
X97000783Y-61203805D01*
X97072887Y-61120018D01*
X97256868Y-60922408D01*
X97434908Y-60744369D01*
X97440176Y-60739463D01*
X97632518Y-60560387D01*
X97823294Y-60396211D01*
X98033616Y-60226722D01*
X98236025Y-60077337D01*
X98456872Y-59924001D01*
X98459125Y-59922511D01*
X98670879Y-59789456D01*
X98902187Y-59652215D01*
X98904754Y-59650778D01*
X99125500Y-59534109D01*
X99366141Y-59413652D01*
X99368977Y-59412326D01*
X99597462Y-59312638D01*
X99846323Y-59209557D01*
X99849432Y-59208370D01*
X100084037Y-59126278D01*
X100340121Y-59041045D01*
X100343545Y-59040018D01*
X100582600Y-58975964D01*
X100844920Y-58909010D01*
X100848638Y-58908184D01*
X101089862Y-58862542D01*
X101358075Y-58814151D01*
X101362065Y-58813567D01*
X101601479Y-58786591D01*
X101876819Y-58756988D01*
X101881025Y-58756684D01*
X102099865Y-58748496D01*
X102393750Y-58738000D01*
X102394250Y-58738000D01*
X177005750Y-58738000D01*
X177006250Y-58738000D01*
X177300424Y-58748508D01*
G37*
%TD.AperFunction*%
%TD*%
M02*
