%TF.GenerationSoftware,KiCad,Pcbnew,7.0.7*%
%TF.CreationDate,2023-11-02T23:53:28-05:00*%
%TF.ProjectId,STM32F030,53544d33-3246-4303-9330-2e6b69636164,rev?*%
%TF.SameCoordinates,Original*%
%TF.FileFunction,Paste,Top*%
%TF.FilePolarity,Positive*%
%FSLAX46Y46*%
G04 Gerber Fmt 4.6, Leading zero omitted, Abs format (unit mm)*
G04 Created by KiCad (PCBNEW 7.0.7) date 2023-11-02 23:53:28*
%MOMM*%
%LPD*%
G01*
G04 APERTURE LIST*
G04 Aperture macros list*
%AMRoundRect*
0 Rectangle with rounded corners*
0 $1 Rounding radius*
0 $2 $3 $4 $5 $6 $7 $8 $9 X,Y pos of 4 corners*
0 Add a 4 corners polygon primitive as box body*
4,1,4,$2,$3,$4,$5,$6,$7,$8,$9,$2,$3,0*
0 Add four circle primitives for the rounded corners*
1,1,$1+$1,$2,$3*
1,1,$1+$1,$4,$5*
1,1,$1+$1,$6,$7*
1,1,$1+$1,$8,$9*
0 Add four rect primitives between the rounded corners*
20,1,$1+$1,$2,$3,$4,$5,0*
20,1,$1+$1,$4,$5,$6,$7,0*
20,1,$1+$1,$6,$7,$8,$9,0*
20,1,$1+$1,$8,$9,$2,$3,0*%
G04 Aperture macros list end*
%ADD10RoundRect,0.225000X0.225000X0.250000X-0.225000X0.250000X-0.225000X-0.250000X0.225000X-0.250000X0*%
%ADD11RoundRect,0.200000X-0.200000X-0.275000X0.200000X-0.275000X0.200000X0.275000X-0.200000X0.275000X0*%
%ADD12R,1.550000X1.300000*%
%ADD13RoundRect,0.075000X-0.700000X-0.075000X0.700000X-0.075000X0.700000X0.075000X-0.700000X0.075000X0*%
%ADD14RoundRect,0.075000X-0.075000X-0.700000X0.075000X-0.700000X0.075000X0.700000X-0.075000X0.700000X0*%
%ADD15RoundRect,0.225000X-0.225000X-0.250000X0.225000X-0.250000X0.225000X0.250000X-0.225000X0.250000X0*%
%ADD16RoundRect,0.218750X-0.218750X-0.256250X0.218750X-0.256250X0.218750X0.256250X-0.218750X0.256250X0*%
%ADD17RoundRect,0.225000X0.250000X-0.225000X0.250000X0.225000X-0.250000X0.225000X-0.250000X-0.225000X0*%
%ADD18R,2.000000X0.500000*%
%ADD19R,1.700000X2.000000*%
%ADD20RoundRect,0.200000X0.275000X-0.200000X0.275000X0.200000X-0.275000X0.200000X-0.275000X-0.200000X0*%
%ADD21RoundRect,0.200000X0.200000X0.275000X-0.200000X0.275000X-0.200000X-0.275000X0.200000X-0.275000X0*%
%ADD22R,2.000000X1.500000*%
%ADD23R,2.000000X3.800000*%
%ADD24R,1.250000X2.500000*%
%ADD25RoundRect,0.150000X-0.875000X-0.150000X0.875000X-0.150000X0.875000X0.150000X-0.875000X0.150000X0*%
%ADD26R,2.400000X0.740000*%
%ADD27R,1.200000X1.400000*%
%ADD28RoundRect,0.225000X-0.250000X0.225000X-0.250000X-0.225000X0.250000X-0.225000X0.250000X0.225000X0*%
G04 APERTURE END LIST*
D10*
%TO.C,C15*%
X165825000Y-109681250D03*
X164275000Y-109681250D03*
%TD*%
D11*
%TO.C,R3*%
X145162500Y-100806250D03*
X146812500Y-100806250D03*
%TD*%
D12*
%TO.C,NRST*%
X144440000Y-64125000D03*
X152400000Y-64125000D03*
X144440000Y-68625000D03*
X152400000Y-68625000D03*
%TD*%
D13*
%TO.C,U1*%
X124900000Y-97150000D03*
X124900000Y-97650000D03*
X124900000Y-98150000D03*
X124900000Y-98650000D03*
X124900000Y-99150000D03*
X124900000Y-99650000D03*
X124900000Y-100150000D03*
X124900000Y-100650000D03*
X124900000Y-101150000D03*
X124900000Y-101650000D03*
X124900000Y-102150000D03*
X124900000Y-102650000D03*
X124900000Y-103150000D03*
X124900000Y-103650000D03*
X124900000Y-104150000D03*
X124900000Y-104650000D03*
D14*
X126825000Y-106575000D03*
X127325000Y-106575000D03*
X127825000Y-106575000D03*
X128325000Y-106575000D03*
X128825000Y-106575000D03*
X129325000Y-106575000D03*
X129825000Y-106575000D03*
X130325000Y-106575000D03*
X130825000Y-106575000D03*
X131325000Y-106575000D03*
X131825000Y-106575000D03*
X132325000Y-106575000D03*
X132825000Y-106575000D03*
X133325000Y-106575000D03*
X133825000Y-106575000D03*
X134325000Y-106575000D03*
D13*
X136250000Y-104650000D03*
X136250000Y-104150000D03*
X136250000Y-103650000D03*
X136250000Y-103150000D03*
X136250000Y-102650000D03*
X136250000Y-102150000D03*
X136250000Y-101650000D03*
X136250000Y-101150000D03*
X136250000Y-100650000D03*
X136250000Y-100150000D03*
X136250000Y-99650000D03*
X136250000Y-99150000D03*
X136250000Y-98650000D03*
X136250000Y-98150000D03*
X136250000Y-97650000D03*
X136250000Y-97150000D03*
D14*
X134325000Y-95225000D03*
X133825000Y-95225000D03*
X133325000Y-95225000D03*
X132825000Y-95225000D03*
X132325000Y-95225000D03*
X131825000Y-95225000D03*
X131325000Y-95225000D03*
X130825000Y-95225000D03*
X130325000Y-95225000D03*
X129825000Y-95225000D03*
X129325000Y-95225000D03*
X128825000Y-95225000D03*
X128325000Y-95225000D03*
X127825000Y-95225000D03*
X127325000Y-95225000D03*
X126825000Y-95225000D03*
%TD*%
D10*
%TO.C,C14*%
X150712500Y-88900000D03*
X149162500Y-88900000D03*
%TD*%
D11*
%TO.C,R7*%
X145162500Y-99218750D03*
X146812500Y-99218750D03*
%TD*%
D15*
%TO.C,C2*%
X126050000Y-90875000D03*
X127600000Y-90875000D03*
%TD*%
D16*
%TO.C,D1*%
X149162500Y-100850000D03*
X150737500Y-100850000D03*
%TD*%
D17*
%TO.C,C8*%
X120050000Y-105650000D03*
X120050000Y-104100000D03*
%TD*%
D18*
%TO.C,J1*%
X176687500Y-95262500D03*
X176687500Y-94462500D03*
X176687500Y-93662500D03*
X176687500Y-92862500D03*
X176687500Y-92062500D03*
D19*
X176787500Y-98112500D03*
X182237500Y-98112500D03*
X176787500Y-89212500D03*
X182237500Y-89212500D03*
%TD*%
D20*
%TO.C,R2*%
X132540625Y-111950000D03*
X132540625Y-110300000D03*
%TD*%
D21*
%TO.C,R8*%
X150781250Y-96837500D03*
X149131250Y-96837500D03*
%TD*%
D15*
%TO.C,C1*%
X126050000Y-84875000D03*
X127600000Y-84875000D03*
%TD*%
D20*
%TO.C,R6*%
X134143750Y-111950000D03*
X134143750Y-110300000D03*
%TD*%
D22*
%TO.C,U3*%
X165075000Y-116600000D03*
X165075000Y-114300000D03*
X165075000Y-112000000D03*
D23*
X158775000Y-114300000D03*
%TD*%
D24*
%TO.C,SW2*%
X118387500Y-63868750D03*
X115887500Y-63868750D03*
X113387500Y-63868750D03*
%TD*%
D25*
%TO.C,U2*%
X158800000Y-92710000D03*
X158800000Y-93980000D03*
X158800000Y-95250000D03*
X158800000Y-96520000D03*
X158800000Y-97790000D03*
X158800000Y-99060000D03*
X158800000Y-100330000D03*
X158800000Y-101600000D03*
X158800000Y-102870000D03*
X158800000Y-104140000D03*
X168100000Y-104140000D03*
X168100000Y-102870000D03*
X168100000Y-101600000D03*
X168100000Y-100330000D03*
X168100000Y-99060000D03*
X168100000Y-97790000D03*
X168100000Y-96520000D03*
X168100000Y-95250000D03*
X168100000Y-93980000D03*
X168100000Y-92710000D03*
%TD*%
D26*
%TO.C,SWD*%
X159906250Y-69215000D03*
X156006250Y-69215000D03*
X159906250Y-67945000D03*
X156006250Y-67945000D03*
X159906250Y-66675000D03*
X156006250Y-66675000D03*
X159906250Y-65405000D03*
X156006250Y-65405000D03*
X159906250Y-64135000D03*
X156006250Y-64135000D03*
%TD*%
D27*
%TO.C,Y2*%
X150806250Y-93175000D03*
X150806250Y-90975000D03*
X149106250Y-90975000D03*
X149106250Y-93175000D03*
%TD*%
D16*
%TO.C,D2*%
X149168750Y-99218750D03*
X150743750Y-99218750D03*
%TD*%
D20*
%TO.C,R9*%
X161875000Y-120825000D03*
X161875000Y-119175000D03*
%TD*%
D16*
%TO.C,D3*%
X164262500Y-119206250D03*
X165837500Y-119206250D03*
%TD*%
D17*
%TO.C,C7*%
X121550000Y-105650000D03*
X121550000Y-104100000D03*
%TD*%
D11*
%TO.C,R5*%
X133318750Y-75275000D03*
X134968750Y-75275000D03*
%TD*%
D15*
%TO.C,C9*%
X145275000Y-72925000D03*
X146825000Y-72925000D03*
%TD*%
D10*
%TO.C,C10*%
X118918750Y-89581250D03*
X117368750Y-89581250D03*
%TD*%
D15*
%TO.C,C3*%
X126050000Y-92375000D03*
X127600000Y-92375000D03*
%TD*%
%TO.C,C6*%
X126050000Y-86375000D03*
X127600000Y-86375000D03*
%TD*%
%TO.C,C4*%
X126050000Y-89375000D03*
X127600000Y-89375000D03*
%TD*%
D21*
%TO.C,R4*%
X141318750Y-75225000D03*
X139668750Y-75225000D03*
%TD*%
D28*
%TO.C,C12*%
X172243750Y-96856250D03*
X172243750Y-98406250D03*
%TD*%
D10*
%TO.C,C13*%
X150731250Y-95250000D03*
X149181250Y-95250000D03*
%TD*%
%TO.C,C11*%
X118937500Y-96725000D03*
X117387500Y-96725000D03*
%TD*%
%TO.C,C16*%
X165825000Y-120793750D03*
X164275000Y-120793750D03*
%TD*%
D11*
%TO.C,R1*%
X117387500Y-98481250D03*
X119037500Y-98481250D03*
%TD*%
D27*
%TO.C,Y1*%
X117418750Y-91962500D03*
X117418750Y-94162500D03*
X119118750Y-94162500D03*
X119118750Y-91962500D03*
%TD*%
D15*
%TO.C,C5*%
X126050000Y-87875000D03*
X127600000Y-87875000D03*
%TD*%
M02*
