%TF.GenerationSoftware,KiCad,Pcbnew,8.0.6*%
%TF.CreationDate,2024-12-29T21:13:32-06:00*%
%TF.ProjectId,Wienbridge,5769656e-6272-4696-9467-652e6b696361,rev?*%
%TF.SameCoordinates,Original*%
%TF.FileFunction,Copper,L1,Top*%
%TF.FilePolarity,Positive*%
%FSLAX46Y46*%
G04 Gerber Fmt 4.6, Leading zero omitted, Abs format (unit mm)*
G04 Created by KiCad (PCBNEW 8.0.6) date 2024-12-29 21:13:32*
%MOMM*%
%LPD*%
G01*
G04 APERTURE LIST*
G04 Aperture macros list*
%AMRoundRect*
0 Rectangle with rounded corners*
0 $1 Rounding radius*
0 $2 $3 $4 $5 $6 $7 $8 $9 X,Y pos of 4 corners*
0 Add a 4 corners polygon primitive as box body*
4,1,4,$2,$3,$4,$5,$6,$7,$8,$9,$2,$3,0*
0 Add four circle primitives for the rounded corners*
1,1,$1+$1,$2,$3*
1,1,$1+$1,$4,$5*
1,1,$1+$1,$6,$7*
1,1,$1+$1,$8,$9*
0 Add four rect primitives between the rounded corners*
20,1,$1+$1,$2,$3,$4,$5,0*
20,1,$1+$1,$4,$5,$6,$7,0*
20,1,$1+$1,$6,$7,$8,$9,0*
20,1,$1+$1,$8,$9,$2,$3,0*%
G04 Aperture macros list end*
%TA.AperFunction,SMDPad,CuDef*%
%ADD10RoundRect,0.237500X0.237500X-0.287500X0.237500X0.287500X-0.237500X0.287500X-0.237500X-0.287500X0*%
%TD*%
%TA.AperFunction,SMDPad,CuDef*%
%ADD11RoundRect,0.237500X-0.237500X0.287500X-0.237500X-0.287500X0.237500X-0.287500X0.237500X0.287500X0*%
%TD*%
%TA.AperFunction,SMDPad,CuDef*%
%ADD12RoundRect,0.237500X-0.237500X0.250000X-0.237500X-0.250000X0.237500X-0.250000X0.237500X0.250000X0*%
%TD*%
%TA.AperFunction,ComponentPad*%
%ADD13R,1.700000X1.700000*%
%TD*%
%TA.AperFunction,ComponentPad*%
%ADD14O,1.700000X1.700000*%
%TD*%
%TA.AperFunction,SMDPad,CuDef*%
%ADD15RoundRect,0.237500X-0.300000X-0.237500X0.300000X-0.237500X0.300000X0.237500X-0.300000X0.237500X0*%
%TD*%
%TA.AperFunction,SMDPad,CuDef*%
%ADD16RoundRect,0.237500X0.237500X-0.250000X0.237500X0.250000X-0.237500X0.250000X-0.237500X-0.250000X0*%
%TD*%
%TA.AperFunction,ComponentPad*%
%ADD17R,1.600000X1.600000*%
%TD*%
%TA.AperFunction,ComponentPad*%
%ADD18O,1.600000X1.600000*%
%TD*%
%TA.AperFunction,SMDPad,CuDef*%
%ADD19RoundRect,0.237500X0.300000X0.237500X-0.300000X0.237500X-0.300000X-0.237500X0.300000X-0.237500X0*%
%TD*%
%TA.AperFunction,SMDPad,CuDef*%
%ADD20RoundRect,0.237500X-0.250000X-0.237500X0.250000X-0.237500X0.250000X0.237500X-0.250000X0.237500X0*%
%TD*%
%TA.AperFunction,SMDPad,CuDef*%
%ADD21RoundRect,0.237500X-0.237500X0.300000X-0.237500X-0.300000X0.237500X-0.300000X0.237500X0.300000X0*%
%TD*%
%TA.AperFunction,ViaPad*%
%ADD22C,0.600000*%
%TD*%
%TA.AperFunction,Conductor*%
%ADD23C,0.500000*%
%TD*%
%TA.AperFunction,Conductor*%
%ADD24C,0.200000*%
%TD*%
G04 APERTURE END LIST*
D10*
%TO.P,D1,1,K*%
%TO.N,Net-(D1-K)*%
X115300000Y-112075000D03*
%TO.P,D1,2,A*%
%TO.N,Net-(D1-A)*%
X115300000Y-110325000D03*
%TD*%
D11*
%TO.P,D2,1,K*%
%TO.N,Net-(D1-A)*%
X113700000Y-110325000D03*
%TO.P,D2,2,A*%
%TO.N,Net-(D1-K)*%
X113700000Y-112075000D03*
%TD*%
D12*
%TO.P,R5,1*%
%TO.N,+9V*%
X114000000Y-116412500D03*
%TO.P,R5,2*%
%TO.N,Net-(U4A-+)*%
X114000000Y-118237500D03*
%TD*%
D13*
%TO.P,RV2,1,1*%
%TO.N,Net-(R7-Pad2)*%
X128000000Y-126370000D03*
D14*
%TO.P,RV2,2,2*%
X128000000Y-123830000D03*
%TO.P,RV2,3,3*%
%TO.N,Net-(C1-Pad1)*%
X128000000Y-121290000D03*
%TD*%
D15*
%TO.P,C1,1*%
%TO.N,Net-(C1-Pad1)*%
X113737500Y-107060000D03*
%TO.P,C1,2*%
%TO.N,Net-(C1-Pad2)*%
X115462500Y-107060000D03*
%TD*%
D16*
%TO.P,R7,1*%
%TO.N,Net-(U4B-+)*%
X125400000Y-122112500D03*
%TO.P,R7,2*%
%TO.N,Net-(R7-Pad2)*%
X125400000Y-120287500D03*
%TD*%
%TO.P,R1,1*%
%TO.N,Net-(D1-K)*%
X118500000Y-112112500D03*
%TO.P,R1,2*%
%TO.N,Net-(D1-A)*%
X118500000Y-110287500D03*
%TD*%
D13*
%TO.P,RV3,1,1*%
%TO.N,Net-(C3-Pad1)*%
X135400000Y-121300000D03*
D14*
%TO.P,RV3,2,2*%
X135400000Y-123840000D03*
%TO.P,RV3,3,3*%
%TO.N,Net-(R10-Pad2)*%
X135400000Y-126380000D03*
%TD*%
D17*
%TO.P,U4,1*%
%TO.N,BiasVoltage*%
X115900000Y-114600000D03*
D18*
%TO.P,U4,2,-*%
X115900000Y-117140000D03*
%TO.P,U4,3,+*%
%TO.N,Net-(U4A-+)*%
X115900000Y-119680000D03*
%TO.P,U4,4,V-*%
%TO.N,SupplyGND*%
X115900000Y-122220000D03*
%TO.P,U4,5,+*%
%TO.N,Net-(U4B-+)*%
X123520000Y-122220000D03*
%TO.P,U4,6,-*%
%TO.N,Net-(D1-K)*%
X123520000Y-119680000D03*
%TO.P,U4,7*%
%TO.N,Net-(C1-Pad2)*%
X123520000Y-117140000D03*
%TO.P,U4,8,V+*%
%TO.N,+9V*%
X123520000Y-114600000D03*
%TD*%
D19*
%TO.P,C2,1*%
%TO.N,Net-(U4B-+)*%
X119292500Y-129600000D03*
%TO.P,C2,2*%
%TO.N,BiasVoltage*%
X117567500Y-129600000D03*
%TD*%
D13*
%TO.P,BT1,1,+*%
%TO.N,Net-(BT1-+)*%
X111300000Y-117725000D03*
D14*
%TO.P,BT1,2,-*%
%TO.N,SupplyGND*%
X111300000Y-120265000D03*
%TD*%
D20*
%TO.P,R4,1*%
%TO.N,Net-(D1-A)*%
X113687500Y-108600000D03*
%TO.P,R4,2*%
%TO.N,Net-(C1-Pad2)*%
X115512500Y-108600000D03*
%TD*%
D12*
%TO.P,R3,1*%
%TO.N,BiasVoltage*%
X112100000Y-110287500D03*
%TO.P,R3,2*%
%TO.N,Net-(D1-K)*%
X112100000Y-112112500D03*
%TD*%
D17*
%TO.P,U5,1*%
%TO.N,Net-(C3-Pad1)*%
X134900000Y-116600000D03*
D18*
%TO.P,U5,2,-*%
%TO.N,Net-(U5A--)*%
X134900000Y-114060000D03*
%TO.P,U5,3,+*%
%TO.N,BiasVoltage*%
X134900000Y-111520000D03*
%TO.P,U5,4,V-*%
%TO.N,SupplyGND*%
X134900000Y-108980000D03*
%TO.P,U5,5,+*%
%TO.N,unconnected-(U5B-+-Pad5)*%
X127280000Y-108980000D03*
%TO.P,U5,6,-*%
%TO.N,unconnected-(U5B---Pad6)*%
X127280000Y-111520000D03*
%TO.P,U5,7*%
%TO.N,unconnected-(U5-Pad7)*%
X127280000Y-114060000D03*
%TO.P,U5,8,V+*%
%TO.N,+9V*%
X127280000Y-116600000D03*
%TD*%
D13*
%TO.P,J2,1,Pin_1*%
%TO.N,+9V*%
X110400000Y-126025000D03*
D14*
%TO.P,J2,2,Pin_2*%
%TO.N,Net-(BT1-+)*%
X110400000Y-128565000D03*
%TD*%
D12*
%TO.P,R10,1*%
%TO.N,Net-(U5A--)*%
X130700000Y-119387500D03*
%TO.P,R10,2*%
%TO.N,Net-(R10-Pad2)*%
X130700000Y-121212500D03*
%TD*%
%TO.P,R6,1*%
%TO.N,Net-(U4A-+)*%
X114000000Y-119812500D03*
%TO.P,R6,2*%
%TO.N,SupplyGND*%
X114000000Y-121637500D03*
%TD*%
D21*
%TO.P,C3,1*%
%TO.N,Net-(C3-Pad1)*%
X132200000Y-119437500D03*
%TO.P,C3,2*%
%TO.N,Net-(J1-Pin_2)*%
X132200000Y-121162500D03*
%TD*%
D15*
%TO.P,C4,1*%
%TO.N,Net-(U4A-+)*%
X109737500Y-122900000D03*
%TO.P,C4,2*%
%TO.N,SupplyGND*%
X111462500Y-122900000D03*
%TD*%
D13*
%TO.P,DualPot1,1,1*%
%TO.N,Net-(DualPot1-Pad1)*%
X119200000Y-127000000D03*
D14*
%TO.P,DualPot1,2,2*%
X116660000Y-127000000D03*
%TO.P,DualPot1,3,3*%
%TO.N,BiasVoltage*%
X114120000Y-127000000D03*
%TD*%
D20*
%TO.P,R8,1*%
%TO.N,Net-(DualPot1-Pad1)*%
X121817500Y-126800000D03*
%TO.P,R8,2*%
%TO.N,Net-(U4B-+)*%
X123642500Y-126800000D03*
%TD*%
D16*
%TO.P,R2,1*%
%TO.N,Net-(D1-K)*%
X116900000Y-112112500D03*
%TO.P,R2,2*%
%TO.N,Net-(D1-A)*%
X116900000Y-110287500D03*
%TD*%
%TO.P,R9,1*%
%TO.N,Net-(C1-Pad2)*%
X125400000Y-118512500D03*
%TO.P,R9,2*%
%TO.N,Net-(U5A--)*%
X125400000Y-116687500D03*
%TD*%
D13*
%TO.P,J1,1,Pin_1*%
%TO.N,SupplyGND*%
X131700000Y-126375000D03*
D14*
%TO.P,J1,2,Pin_2*%
%TO.N,Net-(J1-Pin_2)*%
X131700000Y-123835000D03*
%TD*%
D22*
%TO.N,SupplyGND*%
X137000000Y-110000000D03*
X137000000Y-108000000D03*
X133000000Y-112000000D03*
X133000000Y-110000000D03*
X133000000Y-108000000D03*
X131000000Y-112000000D03*
X131000000Y-110000000D03*
X131000000Y-108000000D03*
X125000000Y-129000000D03*
X127000000Y-129000000D03*
X129000000Y-129000000D03*
X133000000Y-129000000D03*
X134962085Y-128989167D03*
X137000000Y-129000000D03*
X137000000Y-131000000D03*
X135000000Y-131000000D03*
X132979807Y-130999999D03*
X131000000Y-131000000D03*
X129000000Y-131000000D03*
X127000000Y-131000000D03*
X125000000Y-131000000D03*
X137000000Y-106000000D03*
X135000000Y-106000000D03*
X133000000Y-106000000D03*
X131000000Y-106000000D03*
X117500000Y-123000000D03*
X117500000Y-121300000D03*
X133500000Y-126300000D03*
%TO.N,+9V*%
X112400000Y-107800000D03*
X120400000Y-107900000D03*
%TD*%
D23*
%TO.N,SupplyGND*%
X112672500Y-121637500D02*
X111300000Y-120265000D01*
X114000000Y-121637500D02*
X112672500Y-121637500D01*
X115317500Y-121637500D02*
X115900000Y-122220000D01*
X114000000Y-121637500D02*
X115317500Y-121637500D01*
X115220000Y-122900000D02*
X115900000Y-122220000D01*
X111462500Y-122900000D02*
X115220000Y-122900000D01*
D24*
%TO.N,Net-(U4A-+)*%
X115767500Y-119812500D02*
X115900000Y-119680000D01*
X114000000Y-119812500D02*
X115767500Y-119812500D01*
X114000000Y-118237500D02*
X114000000Y-119812500D01*
D23*
%TO.N,+9V*%
X113300000Y-115800000D02*
X113912500Y-116412500D01*
X107800000Y-118000000D02*
X110000000Y-115800000D01*
X110000000Y-115800000D02*
X113300000Y-115800000D01*
X113912500Y-116412500D02*
X114000000Y-116412500D01*
%TO.N,SupplyGND*%
X116580000Y-122220000D02*
X117500000Y-121300000D01*
X116720000Y-122220000D02*
X117500000Y-123000000D01*
X115900000Y-122220000D02*
X116720000Y-122220000D01*
X131700000Y-126375000D02*
X133425000Y-126375000D01*
X133425000Y-126375000D02*
X133500000Y-126300000D01*
X115900000Y-122220000D02*
X116580000Y-122220000D01*
%TO.N,+9V*%
X123520000Y-111020000D02*
X120400000Y-107900000D01*
X107800000Y-128800000D02*
X107800000Y-118000000D01*
X111400000Y-130200000D02*
X109200000Y-130200000D01*
X111700000Y-127325000D02*
X111700000Y-129900000D01*
X109200000Y-130200000D02*
X107800000Y-128800000D01*
X110400000Y-126025000D02*
X111700000Y-127325000D01*
X123520000Y-114600000D02*
X123520000Y-111020000D01*
X107800000Y-111900000D02*
X107800000Y-118000000D01*
X112400000Y-107800000D02*
X111900000Y-107800000D01*
X111900000Y-107800000D02*
X107800000Y-111900000D01*
X123520000Y-114600000D02*
X125280000Y-114600000D01*
X111700000Y-129900000D02*
X111400000Y-130200000D01*
X125280000Y-114600000D02*
X127280000Y-116600000D01*
%TO.N,Net-(C1-Pad1)*%
X114697500Y-106100000D02*
X113737500Y-107060000D01*
X129300000Y-107400000D02*
X128000000Y-106100000D01*
X128000000Y-121290000D02*
X128000000Y-118800000D01*
X128000000Y-118800000D02*
X129300000Y-117500000D01*
X128000000Y-106100000D02*
X114697500Y-106100000D01*
X129300000Y-117500000D02*
X129300000Y-107400000D01*
%TO.N,Net-(C1-Pad2)*%
X115462500Y-108550000D02*
X115512500Y-108600000D01*
X125400000Y-118512500D02*
X124892500Y-118512500D01*
X124892500Y-118512500D02*
X123520000Y-117140000D01*
X115462500Y-107060000D02*
X115462500Y-108550000D01*
X115512500Y-108600000D02*
X118500000Y-108600000D01*
X118500000Y-108600000D02*
X120400000Y-110500000D01*
X120400000Y-110500000D02*
X120400000Y-114020000D01*
X120400000Y-114020000D02*
X123520000Y-117140000D01*
%TO.N,BiasVoltage*%
X111175000Y-112653854D02*
X113121146Y-114600000D01*
X121075000Y-130525000D02*
X123600000Y-128000000D01*
X119400000Y-119600000D02*
X116940000Y-117140000D01*
X123600000Y-128000000D02*
X137100000Y-128000000D01*
X119400000Y-123900000D02*
X119400000Y-119600000D01*
X137500000Y-114120000D02*
X134900000Y-111520000D01*
X114120000Y-127000000D02*
X114120000Y-125580000D01*
X137100000Y-128000000D02*
X137500000Y-127600000D01*
X117567500Y-129600000D02*
X116720000Y-129600000D01*
X116940000Y-117140000D02*
X115900000Y-117140000D01*
X116720000Y-129600000D02*
X114120000Y-127000000D01*
X115900000Y-114600000D02*
X115900000Y-117140000D01*
X114900000Y-124800000D02*
X118500000Y-124800000D01*
X137500000Y-127600000D02*
X137500000Y-114120000D01*
X118492500Y-130525000D02*
X121075000Y-130525000D01*
X113121146Y-114600000D02*
X115900000Y-114600000D01*
X114120000Y-125580000D02*
X114900000Y-124800000D01*
X117567500Y-129600000D02*
X118492500Y-130525000D01*
X111175000Y-111212500D02*
X111175000Y-112653854D01*
X112100000Y-110287500D02*
X111175000Y-111212500D01*
X118500000Y-124800000D02*
X119400000Y-123900000D01*
%TO.N,Net-(U4B-+)*%
X125400000Y-122112500D02*
X123627500Y-122112500D01*
X123642500Y-126800000D02*
X120842500Y-129600000D01*
X123520000Y-126677500D02*
X123642500Y-126800000D01*
X120842500Y-129600000D02*
X119292500Y-129600000D01*
X123642500Y-122342500D02*
X123520000Y-122220000D01*
X123627500Y-122112500D02*
X123520000Y-122220000D01*
X123520000Y-122220000D02*
X123520000Y-126677500D01*
%TO.N,Net-(C3-Pad1)*%
X134900000Y-116600000D02*
X134900000Y-120800000D01*
X135400000Y-123840000D02*
X135400000Y-121300000D01*
X132200000Y-119437500D02*
X132200000Y-119300000D01*
X134900000Y-120800000D02*
X135400000Y-121300000D01*
X132200000Y-119300000D02*
X134900000Y-116600000D01*
%TO.N,Net-(J1-Pin_2)*%
X132200000Y-123335000D02*
X131700000Y-123835000D01*
X132200000Y-121162500D02*
X132200000Y-123335000D01*
%TO.N,Net-(D1-K)*%
X118500000Y-113000000D02*
X118500000Y-112112500D01*
X118000000Y-113500000D02*
X118500000Y-113000000D01*
X118000000Y-115800000D02*
X118000000Y-113500000D01*
X113700000Y-112075000D02*
X115300000Y-112075000D01*
X118500000Y-112112500D02*
X116900000Y-112112500D01*
X112100000Y-112112500D02*
X113662500Y-112112500D01*
X121880000Y-119680000D02*
X118000000Y-115800000D01*
X116862500Y-112075000D02*
X116900000Y-112112500D01*
X115300000Y-112075000D02*
X116862500Y-112075000D01*
X123520000Y-119680000D02*
X121880000Y-119680000D01*
X113662500Y-112112500D02*
X113700000Y-112075000D01*
%TO.N,Net-(D1-A)*%
X113700000Y-110325000D02*
X115300000Y-110325000D01*
X115300000Y-110325000D02*
X116862500Y-110325000D01*
X116900000Y-110287500D02*
X118500000Y-110287500D01*
X116862500Y-110325000D02*
X116900000Y-110287500D01*
X113687500Y-110312500D02*
X113700000Y-110325000D01*
X113687500Y-108600000D02*
X113687500Y-110312500D01*
%TO.N,Net-(DualPot1-Pad1)*%
X121617500Y-127000000D02*
X121817500Y-126800000D01*
X116660000Y-127000000D02*
X119200000Y-127000000D01*
X119400000Y-126800000D02*
X119200000Y-127000000D01*
X121817500Y-126800000D02*
X119400000Y-126800000D01*
%TO.N,Net-(U4A-+)*%
X110737500Y-123900000D02*
X109737500Y-122900000D01*
X118400000Y-120500000D02*
X118400000Y-123400000D01*
X117580000Y-119680000D02*
X118400000Y-120500000D01*
X118400000Y-123400000D02*
X117900000Y-123900000D01*
X117900000Y-123900000D02*
X110737500Y-123900000D01*
X115900000Y-119680000D02*
X117580000Y-119680000D01*
D24*
%TO.N,Net-(R7-Pad2)*%
X125400000Y-121000000D02*
X125725000Y-121325000D01*
X125866722Y-121325000D02*
X126500000Y-121958278D01*
X126500000Y-121958278D02*
X126500000Y-122700000D01*
X128000000Y-123830000D02*
X128000000Y-126370000D01*
X125400000Y-120287500D02*
X125400000Y-121000000D01*
D23*
X128000000Y-123830000D02*
X128000000Y-123246146D01*
D24*
X127630000Y-123830000D02*
X128000000Y-123830000D01*
X126500000Y-122700000D02*
X127630000Y-123830000D01*
X125725000Y-121325000D02*
X125866722Y-121325000D01*
%TO.N,Net-(U5A--)*%
X129700000Y-121600000D02*
X129700000Y-120387500D01*
X125400000Y-116687500D02*
X126850000Y-118137500D01*
D23*
X130700000Y-118260000D02*
X134900000Y-114060000D01*
D24*
X127700000Y-122680000D02*
X128620000Y-122680000D01*
X129700000Y-120387500D02*
X130700000Y-119387500D01*
D23*
X130700000Y-119387500D02*
X130700000Y-118260000D01*
D24*
X126850000Y-121659314D02*
X126900000Y-121709314D01*
X126850000Y-118137500D02*
X126850000Y-121659314D01*
X128620000Y-122680000D02*
X129700000Y-121600000D01*
X126900000Y-121880000D02*
X127700000Y-122680000D01*
X126900000Y-121709314D02*
X126900000Y-121880000D01*
%TO.N,Net-(R10-Pad2)*%
X134250000Y-125230000D02*
X134250000Y-121908278D01*
X135400000Y-126380000D02*
X134250000Y-125230000D01*
X132641722Y-120300000D02*
X131612500Y-120300000D01*
D23*
X130700000Y-121212500D02*
X130687500Y-121212500D01*
D24*
X131612500Y-120300000D02*
X130700000Y-121212500D01*
X134250000Y-121908278D02*
X132641722Y-120300000D01*
D23*
%TO.N,Net-(BT1-+)*%
X110400000Y-128565000D02*
X108750000Y-126915000D01*
X108750000Y-126915000D02*
X108750000Y-118485051D01*
X110500000Y-117700000D02*
X109535051Y-117700000D01*
X109535051Y-117700000D02*
X108750000Y-118485051D01*
%TD*%
%TA.AperFunction,Conductor*%
%TO.N,SupplyGND*%
G36*
X131394454Y-122132904D02*
G01*
X131439226Y-122186544D01*
X131449500Y-122235964D01*
X131449500Y-122408831D01*
X131429815Y-122475870D01*
X131377011Y-122521625D01*
X131357594Y-122528606D01*
X131236341Y-122561095D01*
X131236335Y-122561098D01*
X131022171Y-122660964D01*
X131022169Y-122660965D01*
X130828597Y-122796505D01*
X130661505Y-122963597D01*
X130525965Y-123157169D01*
X130525964Y-123157171D01*
X130437603Y-123346662D01*
X130428430Y-123366335D01*
X130426098Y-123371335D01*
X130426094Y-123371344D01*
X130364938Y-123599586D01*
X130364936Y-123599596D01*
X130344341Y-123834999D01*
X130344341Y-123835000D01*
X130364936Y-124070403D01*
X130364938Y-124070413D01*
X130426094Y-124298655D01*
X130426096Y-124298659D01*
X130426097Y-124298663D01*
X130512032Y-124482951D01*
X130525965Y-124512830D01*
X130525967Y-124512834D01*
X130621850Y-124649768D01*
X130661501Y-124706396D01*
X130661506Y-124706402D01*
X130783818Y-124828714D01*
X130817303Y-124890037D01*
X130812319Y-124959729D01*
X130770447Y-125015662D01*
X130739471Y-125032577D01*
X130607912Y-125081646D01*
X130607906Y-125081649D01*
X130492812Y-125167809D01*
X130492809Y-125167812D01*
X130406649Y-125282906D01*
X130406645Y-125282913D01*
X130356403Y-125417620D01*
X130356401Y-125417627D01*
X130350000Y-125477155D01*
X130350000Y-126125000D01*
X131266988Y-126125000D01*
X131234075Y-126182007D01*
X131200000Y-126309174D01*
X131200000Y-126440826D01*
X131234075Y-126567993D01*
X131266988Y-126625000D01*
X130350000Y-126625000D01*
X130350000Y-127125500D01*
X130330315Y-127192539D01*
X130277511Y-127238294D01*
X130226000Y-127249500D01*
X129474500Y-127249500D01*
X129407461Y-127229815D01*
X129361706Y-127177011D01*
X129350500Y-127125500D01*
X129350499Y-125472129D01*
X129350498Y-125472123D01*
X129350497Y-125472116D01*
X129344091Y-125412517D01*
X129333064Y-125382953D01*
X129293797Y-125277671D01*
X129293793Y-125277664D01*
X129207547Y-125162455D01*
X129207544Y-125162452D01*
X129092335Y-125076206D01*
X129092328Y-125076202D01*
X128960917Y-125027189D01*
X128904983Y-124985318D01*
X128880566Y-124919853D01*
X128895418Y-124851580D01*
X128916563Y-124823332D01*
X129038495Y-124701401D01*
X129174035Y-124507830D01*
X129273903Y-124293663D01*
X129335063Y-124065408D01*
X129355659Y-123830000D01*
X129335063Y-123594592D01*
X129288626Y-123421285D01*
X129273905Y-123366344D01*
X129273902Y-123366335D01*
X129178698Y-123162171D01*
X129174035Y-123152171D01*
X129160828Y-123133310D01*
X129138503Y-123067108D01*
X129155513Y-122999340D01*
X129174720Y-122974513D01*
X129995561Y-122153673D01*
X130056882Y-122120190D01*
X130126574Y-122125174D01*
X130148334Y-122135815D01*
X130148484Y-122135908D01*
X130312247Y-122190174D01*
X130413323Y-122200500D01*
X130986676Y-122200499D01*
X130986684Y-122200498D01*
X130986687Y-122200498D01*
X131042030Y-122194844D01*
X131087753Y-122190174D01*
X131251516Y-122135908D01*
X131260402Y-122130426D01*
X131327790Y-122111985D01*
X131394454Y-122132904D01*
G37*
%TD.AperFunction*%
%TA.AperFunction,Conductor*%
G36*
X133273883Y-121782105D02*
G01*
X133282111Y-121789625D01*
X133613181Y-122120694D01*
X133646666Y-122182017D01*
X133649500Y-122208375D01*
X133649500Y-125143330D01*
X133649499Y-125143348D01*
X133649499Y-125150943D01*
X133649499Y-125309057D01*
X133658194Y-125341505D01*
X133690422Y-125461783D01*
X133692329Y-125465086D01*
X133692328Y-125465086D01*
X133692332Y-125465091D01*
X133769477Y-125598712D01*
X133769481Y-125598717D01*
X133888349Y-125717585D01*
X133888355Y-125717590D01*
X134067233Y-125896468D01*
X134100718Y-125957791D01*
X134099327Y-126016241D01*
X134064939Y-126144583D01*
X134064936Y-126144596D01*
X134044341Y-126379999D01*
X134044341Y-126380000D01*
X134064936Y-126615403D01*
X134064938Y-126615413D01*
X134126094Y-126843655D01*
X134126096Y-126843659D01*
X134126097Y-126843663D01*
X134184778Y-126969505D01*
X134225965Y-127057830D01*
X134228674Y-127062522D01*
X134226680Y-127063673D01*
X134245874Y-127120574D01*
X134228868Y-127188343D01*
X134177923Y-127236159D01*
X134121972Y-127249500D01*
X133174000Y-127249500D01*
X133106961Y-127229815D01*
X133061206Y-127177011D01*
X133050000Y-127125500D01*
X133050000Y-126625000D01*
X132133012Y-126625000D01*
X132165925Y-126567993D01*
X132200000Y-126440826D01*
X132200000Y-126309174D01*
X132165925Y-126182007D01*
X132133012Y-126125000D01*
X133050000Y-126125000D01*
X133050000Y-125477172D01*
X133049999Y-125477155D01*
X133043598Y-125417627D01*
X133043596Y-125417620D01*
X132993354Y-125282913D01*
X132993350Y-125282906D01*
X132907190Y-125167812D01*
X132907187Y-125167809D01*
X132792093Y-125081649D01*
X132792088Y-125081646D01*
X132660528Y-125032577D01*
X132604595Y-124990705D01*
X132580178Y-124925241D01*
X132595030Y-124856968D01*
X132616175Y-124828720D01*
X132738495Y-124706401D01*
X132874035Y-124512830D01*
X132973903Y-124298663D01*
X133035063Y-124070408D01*
X133055659Y-123835000D01*
X133055221Y-123829999D01*
X133044246Y-123704551D01*
X133035063Y-123599592D01*
X132973903Y-123371337D01*
X132971575Y-123366344D01*
X132962118Y-123346063D01*
X132950500Y-123293659D01*
X132950500Y-122044552D01*
X132970185Y-121977513D01*
X132986819Y-121956871D01*
X133020340Y-121923350D01*
X133088892Y-121812208D01*
X133140839Y-121765485D01*
X133209801Y-121754262D01*
X133273883Y-121782105D01*
G37*
%TD.AperFunction*%
%TA.AperFunction,Conductor*%
G36*
X112967540Y-116570185D02*
G01*
X113013295Y-116622989D01*
X113024501Y-116674500D01*
X113024501Y-116711687D01*
X113034825Y-116812752D01*
X113067669Y-116911867D01*
X113087972Y-116973137D01*
X113089092Y-116976515D01*
X113089093Y-116976518D01*
X113179661Y-117123351D01*
X113293629Y-117237319D01*
X113327114Y-117298642D01*
X113322130Y-117368334D01*
X113293629Y-117412681D01*
X113179661Y-117526648D01*
X113089093Y-117673481D01*
X113089091Y-117673486D01*
X113070176Y-117730568D01*
X113034826Y-117837247D01*
X113034826Y-117837248D01*
X113034825Y-117837248D01*
X113024500Y-117938315D01*
X113024500Y-118536669D01*
X113024501Y-118536687D01*
X113034825Y-118637752D01*
X113061357Y-118717819D01*
X113089092Y-118801516D01*
X113168033Y-118929500D01*
X113183452Y-118954497D01*
X113182321Y-118955194D01*
X113205595Y-119012894D01*
X113192549Y-119081535D01*
X113180573Y-119100168D01*
X113089093Y-119248481D01*
X113089091Y-119248486D01*
X113061719Y-119331088D01*
X113034826Y-119412247D01*
X113034826Y-119412248D01*
X113034825Y-119412248D01*
X113024500Y-119513315D01*
X113024500Y-120111669D01*
X113024501Y-120111687D01*
X113034825Y-120212752D01*
X113066535Y-120308443D01*
X113089092Y-120376516D01*
X113155004Y-120483377D01*
X113179661Y-120523351D01*
X113293982Y-120637672D01*
X113327467Y-120698995D01*
X113322483Y-120768687D01*
X113293983Y-120813034D01*
X113180052Y-120926965D01*
X113089551Y-121073688D01*
X113089546Y-121073699D01*
X113035319Y-121237347D01*
X113025000Y-121338345D01*
X113025000Y-121387500D01*
X114126000Y-121387500D01*
X114193039Y-121407185D01*
X114238794Y-121459989D01*
X114250000Y-121511500D01*
X114250000Y-122624999D01*
X114286640Y-122624999D01*
X114286654Y-122624998D01*
X114387652Y-122614680D01*
X114512932Y-122573167D01*
X114582760Y-122570765D01*
X114642802Y-122606497D01*
X114671709Y-122658771D01*
X114673734Y-122666327D01*
X114769865Y-122872482D01*
X114827209Y-122954376D01*
X114849536Y-123020582D01*
X114832526Y-123088350D01*
X114781578Y-123136163D01*
X114725634Y-123149500D01*
X111336500Y-123149500D01*
X111269461Y-123129815D01*
X111223706Y-123077011D01*
X111212500Y-123025500D01*
X111212500Y-122650000D01*
X111712500Y-122650000D01*
X112499999Y-122650000D01*
X112499999Y-122613360D01*
X112499998Y-122613345D01*
X112489680Y-122512347D01*
X112435453Y-122348699D01*
X112435448Y-122348688D01*
X112344947Y-122201965D01*
X112344944Y-122201961D01*
X112223038Y-122080055D01*
X112223034Y-122080052D01*
X112076311Y-121989551D01*
X112076300Y-121989546D01*
X111916681Y-121936654D01*
X113025001Y-121936654D01*
X113035319Y-122037652D01*
X113089546Y-122201300D01*
X113089551Y-122201311D01*
X113180052Y-122348034D01*
X113180055Y-122348038D01*
X113301961Y-122469944D01*
X113301965Y-122469947D01*
X113448688Y-122560448D01*
X113448699Y-122560453D01*
X113612347Y-122614680D01*
X113713352Y-122624999D01*
X113750000Y-122624999D01*
X113750000Y-121887500D01*
X113025001Y-121887500D01*
X113025001Y-121936654D01*
X111916681Y-121936654D01*
X111912652Y-121935319D01*
X111811654Y-121925000D01*
X111712500Y-121925000D01*
X111712500Y-122650000D01*
X111212500Y-122650000D01*
X111212500Y-121924999D01*
X111113360Y-121925000D01*
X111113344Y-121925001D01*
X111012347Y-121935319D01*
X110848699Y-121989546D01*
X110848688Y-121989551D01*
X110701965Y-122080052D01*
X110688032Y-122093985D01*
X110626708Y-122127468D01*
X110557016Y-122122482D01*
X110512672Y-122093982D01*
X110498351Y-122079661D01*
X110498350Y-122079660D01*
X110359781Y-121994190D01*
X110351518Y-121989093D01*
X110351513Y-121989091D01*
X110350069Y-121988612D01*
X110187753Y-121934826D01*
X110187751Y-121934825D01*
X110086684Y-121924500D01*
X110086677Y-121924500D01*
X109624500Y-121924500D01*
X109557461Y-121904815D01*
X109511706Y-121852011D01*
X109500500Y-121800500D01*
X109500500Y-118847281D01*
X109520185Y-118780242D01*
X109536819Y-118759600D01*
X109619771Y-118676648D01*
X109739448Y-118556970D01*
X109800769Y-118523487D01*
X109870460Y-118528471D01*
X109926394Y-118570342D01*
X109950417Y-118631398D01*
X109955909Y-118682483D01*
X110006202Y-118817328D01*
X110006206Y-118817335D01*
X110092452Y-118932544D01*
X110092455Y-118932547D01*
X110207664Y-119018793D01*
X110207671Y-119018797D01*
X110230378Y-119027266D01*
X110339598Y-119068002D01*
X110395531Y-119109873D01*
X110419949Y-119175337D01*
X110405098Y-119243610D01*
X110383947Y-119271865D01*
X110261886Y-119393926D01*
X110126400Y-119587420D01*
X110126399Y-119587422D01*
X110026570Y-119801507D01*
X110026567Y-119801513D01*
X109969364Y-120014999D01*
X109969364Y-120015000D01*
X110866988Y-120015000D01*
X110834075Y-120072007D01*
X110800000Y-120199174D01*
X110800000Y-120330826D01*
X110834075Y-120457993D01*
X110866988Y-120515000D01*
X109969364Y-120515000D01*
X110026567Y-120728486D01*
X110026570Y-120728492D01*
X110126399Y-120942578D01*
X110261894Y-121136082D01*
X110428917Y-121303105D01*
X110622421Y-121438600D01*
X110836507Y-121538429D01*
X110836516Y-121538433D01*
X111050000Y-121595634D01*
X111050000Y-120698012D01*
X111107007Y-120730925D01*
X111234174Y-120765000D01*
X111365826Y-120765000D01*
X111492993Y-120730925D01*
X111550000Y-120698012D01*
X111550000Y-121595633D01*
X111763483Y-121538433D01*
X111763492Y-121538429D01*
X111977578Y-121438600D01*
X112171082Y-121303105D01*
X112338105Y-121136082D01*
X112473600Y-120942578D01*
X112573429Y-120728492D01*
X112573432Y-120728486D01*
X112630636Y-120515000D01*
X111733012Y-120515000D01*
X111765925Y-120457993D01*
X111800000Y-120330826D01*
X111800000Y-120199174D01*
X111765925Y-120072007D01*
X111733012Y-120015000D01*
X112630636Y-120015000D01*
X112630635Y-120014999D01*
X112573432Y-119801513D01*
X112573429Y-119801507D01*
X112473600Y-119587422D01*
X112473599Y-119587420D01*
X112338113Y-119393926D01*
X112338108Y-119393920D01*
X112216053Y-119271865D01*
X112182568Y-119210542D01*
X112187552Y-119140850D01*
X112229424Y-119084917D01*
X112260400Y-119068002D01*
X112392331Y-119018796D01*
X112507546Y-118932546D01*
X112593796Y-118817331D01*
X112644091Y-118682483D01*
X112650500Y-118622873D01*
X112650499Y-116827128D01*
X112644091Y-116767517D01*
X112625559Y-116717832D01*
X112620576Y-116648142D01*
X112654061Y-116586819D01*
X112715384Y-116553334D01*
X112741742Y-116550500D01*
X112900501Y-116550500D01*
X112967540Y-116570185D01*
G37*
%TD.AperFunction*%
%TA.AperFunction,Conductor*%
G36*
X117284809Y-120450185D02*
G01*
X117305451Y-120466819D01*
X117613181Y-120774548D01*
X117646666Y-120835871D01*
X117649500Y-120862229D01*
X117649500Y-123025500D01*
X117629815Y-123092539D01*
X117577011Y-123138294D01*
X117525500Y-123149500D01*
X117074366Y-123149500D01*
X117007327Y-123129815D01*
X116961572Y-123077011D01*
X116951628Y-123007853D01*
X116972791Y-122954376D01*
X117030134Y-122872482D01*
X117126265Y-122666326D01*
X117126269Y-122666317D01*
X117178872Y-122470000D01*
X116215686Y-122470000D01*
X116220080Y-122465606D01*
X116272741Y-122374394D01*
X116300000Y-122272661D01*
X116300000Y-122167339D01*
X116272741Y-122065606D01*
X116220080Y-121974394D01*
X116215686Y-121970000D01*
X117178872Y-121970000D01*
X117178872Y-121969999D01*
X117126269Y-121773682D01*
X117126265Y-121773673D01*
X117030134Y-121567517D01*
X116899657Y-121381179D01*
X116738820Y-121220342D01*
X116552482Y-121089865D01*
X116494133Y-121062657D01*
X116441694Y-121016484D01*
X116422542Y-120949291D01*
X116442758Y-120882410D01*
X116494129Y-120837895D01*
X116552734Y-120810568D01*
X116739139Y-120680047D01*
X116900047Y-120519139D01*
X116925088Y-120483377D01*
X116979665Y-120439752D01*
X117026663Y-120430500D01*
X117217770Y-120430500D01*
X117284809Y-120450185D01*
G37*
%TD.AperFunction*%
%TA.AperFunction,Conductor*%
G36*
X138842539Y-104620185D02*
G01*
X138888294Y-104672989D01*
X138899500Y-104724500D01*
X138899500Y-131775500D01*
X138879815Y-131842539D01*
X138827011Y-131888294D01*
X138775500Y-131899500D01*
X106524500Y-131899500D01*
X106457461Y-131879815D01*
X106411706Y-131827011D01*
X106400500Y-131775500D01*
X106400500Y-128873920D01*
X107049499Y-128873920D01*
X107078340Y-129018907D01*
X107078343Y-129018917D01*
X107134913Y-129155490D01*
X107134914Y-129155491D01*
X107134916Y-129155495D01*
X107150181Y-129178340D01*
X107150182Y-129178342D01*
X107217051Y-129278420D01*
X107217052Y-129278421D01*
X108721584Y-130782952D01*
X108721586Y-130782954D01*
X108751058Y-130802645D01*
X108795270Y-130832186D01*
X108844505Y-130865084D01*
X108844506Y-130865084D01*
X108844507Y-130865085D01*
X108844509Y-130865086D01*
X108981082Y-130921656D01*
X108981087Y-130921658D01*
X108981091Y-130921658D01*
X108981092Y-130921659D01*
X109126079Y-130950500D01*
X109126082Y-130950500D01*
X111473920Y-130950500D01*
X111571462Y-130931096D01*
X111618913Y-130921658D01*
X111755495Y-130865084D01*
X111804729Y-130832186D01*
X111804734Y-130832183D01*
X111829071Y-130815921D01*
X111878416Y-130782952D01*
X112282952Y-130378416D01*
X112352774Y-130273918D01*
X112365084Y-130255495D01*
X112421658Y-130118913D01*
X112450500Y-129973918D01*
X112450500Y-127251082D01*
X112450185Y-127249500D01*
X112437903Y-127187755D01*
X112437903Y-127187753D01*
X112421659Y-127106088D01*
X112373125Y-126988918D01*
X112365084Y-126969505D01*
X112285581Y-126850520D01*
X112282952Y-126846585D01*
X112282951Y-126846584D01*
X112282949Y-126846581D01*
X111786818Y-126350450D01*
X111753333Y-126289127D01*
X111750499Y-126262769D01*
X111750499Y-125127129D01*
X111750498Y-125127123D01*
X111748657Y-125110000D01*
X111744091Y-125067517D01*
X111731059Y-125032577D01*
X111693797Y-124932671D01*
X111693795Y-124932668D01*
X111684202Y-124919853D01*
X111631019Y-124848810D01*
X111606602Y-124783348D01*
X111621453Y-124715074D01*
X111670858Y-124665669D01*
X111730286Y-124650500D01*
X113688771Y-124650500D01*
X113755810Y-124670185D01*
X113801565Y-124722989D01*
X113811509Y-124792147D01*
X113782484Y-124855703D01*
X113776458Y-124862174D01*
X113713391Y-124925241D01*
X113537047Y-125101584D01*
X113537045Y-125101586D01*
X113501029Y-125155492D01*
X113501027Y-125155495D01*
X113454919Y-125224499D01*
X113454912Y-125224511D01*
X113398343Y-125361082D01*
X113398340Y-125361092D01*
X113369500Y-125506079D01*
X113369500Y-125812298D01*
X113349815Y-125879337D01*
X113316625Y-125913872D01*
X113248595Y-125961507D01*
X113081505Y-126128597D01*
X112945965Y-126322169D01*
X112945964Y-126322171D01*
X112846098Y-126536335D01*
X112846094Y-126536344D01*
X112784938Y-126764586D01*
X112784936Y-126764596D01*
X112764341Y-126999999D01*
X112764341Y-127000000D01*
X112784936Y-127235403D01*
X112784938Y-127235413D01*
X112846094Y-127463655D01*
X112846096Y-127463659D01*
X112846097Y-127463663D01*
X112895769Y-127570185D01*
X112945965Y-127677830D01*
X112945967Y-127677834D01*
X113025326Y-127791169D01*
X113081505Y-127871401D01*
X113248599Y-128038495D01*
X113345384Y-128106265D01*
X113442165Y-128174032D01*
X113442167Y-128174033D01*
X113442170Y-128174035D01*
X113656337Y-128273903D01*
X113884592Y-128335063D01*
X114072918Y-128351539D01*
X114119999Y-128355659D01*
X114120000Y-128355659D01*
X114120001Y-128355659D01*
X114161993Y-128351985D01*
X114333013Y-128337022D01*
X114401512Y-128350788D01*
X114431501Y-128372869D01*
X116241580Y-130182948D01*
X116241584Y-130182951D01*
X116364498Y-130265080D01*
X116364511Y-130265087D01*
X116501082Y-130321656D01*
X116501087Y-130321658D01*
X116501091Y-130321658D01*
X116501092Y-130321659D01*
X116646079Y-130350500D01*
X116646082Y-130350500D01*
X116685448Y-130350500D01*
X116752487Y-130370185D01*
X116773129Y-130386819D01*
X116806650Y-130420340D01*
X116953484Y-130510908D01*
X117117247Y-130565174D01*
X117218323Y-130575500D01*
X117430269Y-130575499D01*
X117497309Y-130595183D01*
X117517951Y-130611818D01*
X117909549Y-131003416D01*
X118014084Y-131107951D01*
X118014087Y-131107953D01*
X118014088Y-131107954D01*
X118137003Y-131190083D01*
X118137006Y-131190085D01*
X118193579Y-131213518D01*
X118193580Y-131213518D01*
X118273588Y-131246659D01*
X118389741Y-131269763D01*
X118408968Y-131273587D01*
X118418581Y-131275500D01*
X118418582Y-131275500D01*
X121148920Y-131275500D01*
X121246462Y-131256096D01*
X121293913Y-131246658D01*
X121430495Y-131190084D01*
X121479729Y-131157186D01*
X121553416Y-131107952D01*
X123874548Y-128786818D01*
X123935871Y-128753334D01*
X123962229Y-128750500D01*
X137173920Y-128750500D01*
X137271462Y-128731096D01*
X137318913Y-128721658D01*
X137397532Y-128689093D01*
X137455491Y-128665086D01*
X137455492Y-128665085D01*
X137455495Y-128665084D01*
X137516232Y-128624501D01*
X137578416Y-128582952D01*
X138082951Y-128078416D01*
X138165084Y-127955495D01*
X138221658Y-127818913D01*
X138243142Y-127710908D01*
X138250500Y-127673920D01*
X138250500Y-114046079D01*
X138221659Y-113901092D01*
X138221658Y-113901091D01*
X138221658Y-113901087D01*
X138212236Y-113878340D01*
X138165087Y-113764511D01*
X138165080Y-113764498D01*
X138082952Y-113641585D01*
X138041318Y-113599951D01*
X137978416Y-113537049D01*
X137113148Y-112671781D01*
X136226716Y-111785348D01*
X136193231Y-111724025D01*
X136190869Y-111686863D01*
X136205468Y-111520000D01*
X136185635Y-111293308D01*
X136126739Y-111073504D01*
X136030568Y-110867266D01*
X135900047Y-110680861D01*
X135900045Y-110680858D01*
X135739141Y-110519954D01*
X135552734Y-110389432D01*
X135552732Y-110389431D01*
X135494725Y-110362382D01*
X135494132Y-110362105D01*
X135441694Y-110315934D01*
X135422542Y-110248740D01*
X135442758Y-110181859D01*
X135494134Y-110137341D01*
X135552484Y-110110132D01*
X135738820Y-109979657D01*
X135899657Y-109818820D01*
X136030134Y-109632482D01*
X136126265Y-109426326D01*
X136126269Y-109426317D01*
X136178872Y-109230000D01*
X135215686Y-109230000D01*
X135220080Y-109225606D01*
X135272741Y-109134394D01*
X135300000Y-109032661D01*
X135300000Y-108927339D01*
X135272741Y-108825606D01*
X135220080Y-108734394D01*
X135215686Y-108730000D01*
X136178872Y-108730000D01*
X136178872Y-108729999D01*
X136126269Y-108533682D01*
X136126265Y-108533673D01*
X136030134Y-108327517D01*
X135899657Y-108141179D01*
X135738820Y-107980342D01*
X135552482Y-107849865D01*
X135346328Y-107753734D01*
X135150000Y-107701127D01*
X135150000Y-108664314D01*
X135145606Y-108659920D01*
X135054394Y-108607259D01*
X134952661Y-108580000D01*
X134847339Y-108580000D01*
X134745606Y-108607259D01*
X134654394Y-108659920D01*
X134650000Y-108664314D01*
X134650000Y-107701127D01*
X134453671Y-107753734D01*
X134247517Y-107849865D01*
X134061179Y-107980342D01*
X133900342Y-108141179D01*
X133769865Y-108327517D01*
X133673734Y-108533673D01*
X133673730Y-108533682D01*
X133621127Y-108729999D01*
X133621128Y-108730000D01*
X134584314Y-108730000D01*
X134579920Y-108734394D01*
X134527259Y-108825606D01*
X134500000Y-108927339D01*
X134500000Y-109032661D01*
X134527259Y-109134394D01*
X134579920Y-109225606D01*
X134584314Y-109230000D01*
X133621128Y-109230000D01*
X133673730Y-109426317D01*
X133673734Y-109426326D01*
X133769865Y-109632482D01*
X133900342Y-109818820D01*
X134061179Y-109979657D01*
X134247518Y-110110134D01*
X134247520Y-110110135D01*
X134305865Y-110137342D01*
X134358305Y-110183514D01*
X134377457Y-110250707D01*
X134357242Y-110317589D01*
X134305867Y-110362105D01*
X134247268Y-110389431D01*
X134247264Y-110389433D01*
X134060858Y-110519954D01*
X133899954Y-110680858D01*
X133769432Y-110867265D01*
X133769431Y-110867267D01*
X133673261Y-111073502D01*
X133673258Y-111073511D01*
X133614366Y-111293302D01*
X133614364Y-111293313D01*
X133594532Y-111519998D01*
X133594532Y-111520001D01*
X133614364Y-111746686D01*
X133614366Y-111746697D01*
X133673258Y-111966488D01*
X133673261Y-111966497D01*
X133769431Y-112172732D01*
X133769432Y-112172734D01*
X133899954Y-112359141D01*
X134060858Y-112520045D01*
X134060861Y-112520047D01*
X134247266Y-112650568D01*
X134305275Y-112677618D01*
X134357714Y-112723791D01*
X134376866Y-112790984D01*
X134356650Y-112857865D01*
X134305275Y-112902382D01*
X134247267Y-112929431D01*
X134247265Y-112929432D01*
X134060858Y-113059954D01*
X133899954Y-113220858D01*
X133769432Y-113407265D01*
X133769431Y-113407267D01*
X133673261Y-113613502D01*
X133673258Y-113613511D01*
X133614366Y-113833302D01*
X133614364Y-113833313D01*
X133594532Y-114059998D01*
X133594532Y-114060003D01*
X133609129Y-114226861D01*
X133595362Y-114295360D01*
X133573282Y-114325348D01*
X130262181Y-117636450D01*
X130200858Y-117669935D01*
X130131166Y-117664951D01*
X130075233Y-117623079D01*
X130050816Y-117557615D01*
X130050500Y-117548769D01*
X130050500Y-107326081D01*
X130050499Y-107326080D01*
X130032366Y-107234916D01*
X130021659Y-107181088D01*
X129992826Y-107111480D01*
X129979121Y-107078393D01*
X129979099Y-107078342D01*
X129979099Y-107078341D01*
X129965084Y-107044505D01*
X129963772Y-107042542D01*
X129882954Y-106921588D01*
X129882953Y-106921587D01*
X129882951Y-106921584D01*
X129778416Y-106817049D01*
X129469848Y-106508481D01*
X128478421Y-105517052D01*
X128478414Y-105517046D01*
X128404729Y-105467812D01*
X128404729Y-105467813D01*
X128355491Y-105434913D01*
X128218917Y-105378343D01*
X128218907Y-105378340D01*
X128073920Y-105349500D01*
X128073918Y-105349500D01*
X114623582Y-105349500D01*
X114623580Y-105349500D01*
X114478592Y-105378340D01*
X114478586Y-105378342D01*
X114342008Y-105434914D01*
X114341996Y-105434921D01*
X114292770Y-105467811D01*
X114292771Y-105467812D01*
X114219081Y-105517049D01*
X113687949Y-106048181D01*
X113626626Y-106081666D01*
X113600269Y-106084500D01*
X113388331Y-106084500D01*
X113388312Y-106084501D01*
X113287247Y-106094825D01*
X113123484Y-106149092D01*
X113123481Y-106149093D01*
X112976648Y-106239661D01*
X112854661Y-106361648D01*
X112764093Y-106508481D01*
X112764092Y-106508484D01*
X112709826Y-106672247D01*
X112709826Y-106672248D01*
X112709825Y-106672248D01*
X112699500Y-106773315D01*
X112699500Y-106889424D01*
X112679815Y-106956463D01*
X112627011Y-107002218D01*
X112561617Y-107012644D01*
X112400004Y-106994435D01*
X112399996Y-106994435D01*
X112220750Y-107014630D01*
X112220745Y-107014631D01*
X112140983Y-107042542D01*
X112100028Y-107049500D01*
X111826076Y-107049500D01*
X111797242Y-107055234D01*
X111797243Y-107055235D01*
X111681093Y-107078339D01*
X111681083Y-107078342D01*
X111601081Y-107111479D01*
X111601082Y-107111480D01*
X111593476Y-107114631D01*
X111544505Y-107134916D01*
X111491723Y-107170184D01*
X111421582Y-107217049D01*
X107217048Y-111421583D01*
X107193429Y-111456932D01*
X107169967Y-111492048D01*
X107134914Y-111544507D01*
X107134913Y-111544509D01*
X107078343Y-111681082D01*
X107078340Y-111681092D01*
X107049500Y-111826079D01*
X107049500Y-111826082D01*
X107049500Y-117926082D01*
X107049500Y-128873918D01*
X107049500Y-128873920D01*
X107049499Y-128873920D01*
X106400500Y-128873920D01*
X106400500Y-104724500D01*
X106420185Y-104657461D01*
X106472989Y-104611706D01*
X106524500Y-104600500D01*
X138775500Y-104600500D01*
X138842539Y-104620185D01*
G37*
%TD.AperFunction*%
%TD*%
M02*
