%TF.GenerationSoftware,KiCad,Pcbnew,8.0.6*%
%TF.CreationDate,2024-12-29T21:13:32-06:00*%
%TF.ProjectId,Wienbridge,5769656e-6272-4696-9467-652e6b696361,rev?*%
%TF.SameCoordinates,Original*%
%TF.FileFunction,Legend,Top*%
%TF.FilePolarity,Positive*%
%FSLAX46Y46*%
G04 Gerber Fmt 4.6, Leading zero omitted, Abs format (unit mm)*
G04 Created by KiCad (PCBNEW 8.0.6) date 2024-12-29 21:13:32*
%MOMM*%
%LPD*%
G01*
G04 APERTURE LIST*
%ADD10C,0.100000*%
%ADD11C,0.120000*%
G04 APERTURE END LIST*
D10*
X114460555Y-114400000D02*
G75*
G02*
X113739445Y-114400000I-360555J0D01*
G01*
X113739445Y-114400000D02*
G75*
G02*
X114460555Y-114400000I360555J0D01*
G01*
X136900000Y-116700000D02*
G75*
G02*
X136178890Y-116700000I-360555J0D01*
G01*
X136178890Y-116700000D02*
G75*
G02*
X136900000Y-116700000I360555J0D01*
G01*
X129846741Y-123772419D02*
X129846741Y-124010514D01*
X129608646Y-123915276D02*
X129846741Y-124010514D01*
X129846741Y-124010514D02*
X130084836Y-123915276D01*
X129703884Y-124200990D02*
X129846741Y-124010514D01*
X129846741Y-124010514D02*
X129989598Y-124200990D01*
X137605752Y-126567544D02*
X138415276Y-126567544D01*
X138415276Y-126567544D02*
X138510514Y-126615163D01*
X138510514Y-126615163D02*
X138558133Y-126662782D01*
X138558133Y-126662782D02*
X138605752Y-126758020D01*
X138605752Y-126758020D02*
X138605752Y-126900877D01*
X138605752Y-126900877D02*
X138558133Y-126996115D01*
X138224800Y-126567544D02*
X138272419Y-126662782D01*
X138272419Y-126662782D02*
X138272419Y-126853258D01*
X138272419Y-126853258D02*
X138224800Y-126948496D01*
X138224800Y-126948496D02*
X138177180Y-126996115D01*
X138177180Y-126996115D02*
X138081942Y-127043734D01*
X138081942Y-127043734D02*
X137796228Y-127043734D01*
X137796228Y-127043734D02*
X137700990Y-126996115D01*
X137700990Y-126996115D02*
X137653371Y-126948496D01*
X137653371Y-126948496D02*
X137605752Y-126853258D01*
X137605752Y-126853258D02*
X137605752Y-126662782D01*
X137605752Y-126662782D02*
X137653371Y-126567544D01*
X138272419Y-125662782D02*
X137748609Y-125662782D01*
X137748609Y-125662782D02*
X137653371Y-125710401D01*
X137653371Y-125710401D02*
X137605752Y-125805639D01*
X137605752Y-125805639D02*
X137605752Y-125996115D01*
X137605752Y-125996115D02*
X137653371Y-126091353D01*
X138224800Y-125662782D02*
X138272419Y-125758020D01*
X138272419Y-125758020D02*
X138272419Y-125996115D01*
X138272419Y-125996115D02*
X138224800Y-126091353D01*
X138224800Y-126091353D02*
X138129561Y-126138972D01*
X138129561Y-126138972D02*
X138034323Y-126138972D01*
X138034323Y-126138972D02*
X137939085Y-126091353D01*
X137939085Y-126091353D02*
X137891466Y-125996115D01*
X137891466Y-125996115D02*
X137891466Y-125758020D01*
X137891466Y-125758020D02*
X137843847Y-125662782D01*
X138272419Y-125186591D02*
X137605752Y-125186591D01*
X137272419Y-125186591D02*
X137320038Y-125234210D01*
X137320038Y-125234210D02*
X137367657Y-125186591D01*
X137367657Y-125186591D02*
X137320038Y-125138972D01*
X137320038Y-125138972D02*
X137272419Y-125186591D01*
X137272419Y-125186591D02*
X137367657Y-125186591D01*
X137605752Y-124710401D02*
X138272419Y-124710401D01*
X137700990Y-124710401D02*
X137653371Y-124662782D01*
X137653371Y-124662782D02*
X137605752Y-124567544D01*
X137605752Y-124567544D02*
X137605752Y-124424687D01*
X137605752Y-124424687D02*
X137653371Y-124329449D01*
X137653371Y-124329449D02*
X137748609Y-124281830D01*
X137748609Y-124281830D02*
X138272419Y-124281830D01*
X138272419Y-123043734D02*
X137272419Y-123043734D01*
X137272419Y-123043734D02*
X137272419Y-122662782D01*
X137272419Y-122662782D02*
X137320038Y-122567544D01*
X137320038Y-122567544D02*
X137367657Y-122519925D01*
X137367657Y-122519925D02*
X137462895Y-122472306D01*
X137462895Y-122472306D02*
X137605752Y-122472306D01*
X137605752Y-122472306D02*
X137700990Y-122519925D01*
X137700990Y-122519925D02*
X137748609Y-122567544D01*
X137748609Y-122567544D02*
X137796228Y-122662782D01*
X137796228Y-122662782D02*
X137796228Y-123043734D01*
X138272419Y-121900877D02*
X138224800Y-121996115D01*
X138224800Y-121996115D02*
X138177180Y-122043734D01*
X138177180Y-122043734D02*
X138081942Y-122091353D01*
X138081942Y-122091353D02*
X137796228Y-122091353D01*
X137796228Y-122091353D02*
X137700990Y-122043734D01*
X137700990Y-122043734D02*
X137653371Y-121996115D01*
X137653371Y-121996115D02*
X137605752Y-121900877D01*
X137605752Y-121900877D02*
X137605752Y-121758020D01*
X137605752Y-121758020D02*
X137653371Y-121662782D01*
X137653371Y-121662782D02*
X137700990Y-121615163D01*
X137700990Y-121615163D02*
X137796228Y-121567544D01*
X137796228Y-121567544D02*
X138081942Y-121567544D01*
X138081942Y-121567544D02*
X138177180Y-121615163D01*
X138177180Y-121615163D02*
X138224800Y-121662782D01*
X138224800Y-121662782D02*
X138272419Y-121758020D01*
X138272419Y-121758020D02*
X138272419Y-121900877D01*
X137605752Y-121281829D02*
X137605752Y-120900877D01*
X137272419Y-121138972D02*
X138129561Y-121138972D01*
X138129561Y-121138972D02*
X138224800Y-121091353D01*
X138224800Y-121091353D02*
X138272419Y-120996115D01*
X138272419Y-120996115D02*
X138272419Y-120900877D01*
X116746741Y-125072419D02*
X116746741Y-125310514D01*
X116508646Y-125215276D02*
X116746741Y-125310514D01*
X116746741Y-125310514D02*
X116984836Y-125215276D01*
X116603884Y-125500990D02*
X116746741Y-125310514D01*
X116746741Y-125310514D02*
X116889598Y-125500990D01*
X137146741Y-123572419D02*
X137146741Y-123810514D01*
X136908646Y-123715276D02*
X137146741Y-123810514D01*
X137146741Y-123810514D02*
X137384836Y-123715276D01*
X137003884Y-124000990D02*
X137146741Y-123810514D01*
X137146741Y-123810514D02*
X137289598Y-124000990D01*
X133103884Y-122291466D02*
X133865789Y-122291466D01*
X133484836Y-122672419D02*
X133484836Y-121910514D01*
X129846741Y-126272419D02*
X129846741Y-126510514D01*
X129608646Y-126415276D02*
X129846741Y-126510514D01*
X129846741Y-126510514D02*
X130084836Y-126415276D01*
X129703884Y-126700990D02*
X129846741Y-126510514D01*
X129846741Y-126510514D02*
X129989598Y-126700990D01*
X107803884Y-117291466D02*
X108565789Y-117291466D01*
X108184836Y-117672419D02*
X108184836Y-116910514D01*
X108348609Y-119962782D02*
X108396228Y-119819925D01*
X108396228Y-119819925D02*
X108443847Y-119772306D01*
X108443847Y-119772306D02*
X108539085Y-119724687D01*
X108539085Y-119724687D02*
X108681942Y-119724687D01*
X108681942Y-119724687D02*
X108777180Y-119772306D01*
X108777180Y-119772306D02*
X108824800Y-119819925D01*
X108824800Y-119819925D02*
X108872419Y-119915163D01*
X108872419Y-119915163D02*
X108872419Y-120296115D01*
X108872419Y-120296115D02*
X107872419Y-120296115D01*
X107872419Y-120296115D02*
X107872419Y-119962782D01*
X107872419Y-119962782D02*
X107920038Y-119867544D01*
X107920038Y-119867544D02*
X107967657Y-119819925D01*
X107967657Y-119819925D02*
X108062895Y-119772306D01*
X108062895Y-119772306D02*
X108158133Y-119772306D01*
X108158133Y-119772306D02*
X108253371Y-119819925D01*
X108253371Y-119819925D02*
X108300990Y-119867544D01*
X108300990Y-119867544D02*
X108348609Y-119962782D01*
X108348609Y-119962782D02*
X108348609Y-120296115D01*
X108872419Y-118867544D02*
X108348609Y-118867544D01*
X108348609Y-118867544D02*
X108253371Y-118915163D01*
X108253371Y-118915163D02*
X108205752Y-119010401D01*
X108205752Y-119010401D02*
X108205752Y-119200877D01*
X108205752Y-119200877D02*
X108253371Y-119296115D01*
X108824800Y-118867544D02*
X108872419Y-118962782D01*
X108872419Y-118962782D02*
X108872419Y-119200877D01*
X108872419Y-119200877D02*
X108824800Y-119296115D01*
X108824800Y-119296115D02*
X108729561Y-119343734D01*
X108729561Y-119343734D02*
X108634323Y-119343734D01*
X108634323Y-119343734D02*
X108539085Y-119296115D01*
X108539085Y-119296115D02*
X108491466Y-119200877D01*
X108491466Y-119200877D02*
X108491466Y-118962782D01*
X108491466Y-118962782D02*
X108443847Y-118867544D01*
X108205752Y-118534210D02*
X108205752Y-118153258D01*
X107872419Y-118391353D02*
X108729561Y-118391353D01*
X108729561Y-118391353D02*
X108824800Y-118343734D01*
X108824800Y-118343734D02*
X108872419Y-118248496D01*
X108872419Y-118248496D02*
X108872419Y-118153258D01*
X119146741Y-125072419D02*
X119146741Y-125310514D01*
X118908646Y-125215276D02*
X119146741Y-125310514D01*
X119146741Y-125310514D02*
X119384836Y-125215276D01*
X119003884Y-125500990D02*
X119146741Y-125310514D01*
X119146741Y-125310514D02*
X119289598Y-125500990D01*
X108291466Y-121396115D02*
X108291466Y-120634211D01*
X108942419Y-129591115D02*
X107942419Y-129591115D01*
X107942419Y-129591115D02*
X107942419Y-129210163D01*
X107942419Y-129210163D02*
X107990038Y-129114925D01*
X107990038Y-129114925D02*
X108037657Y-129067306D01*
X108037657Y-129067306D02*
X108132895Y-129019687D01*
X108132895Y-129019687D02*
X108275752Y-129019687D01*
X108275752Y-129019687D02*
X108370990Y-129067306D01*
X108370990Y-129067306D02*
X108418609Y-129114925D01*
X108418609Y-129114925D02*
X108466228Y-129210163D01*
X108466228Y-129210163D02*
X108466228Y-129591115D01*
X107942419Y-128686353D02*
X108942419Y-128448258D01*
X108942419Y-128448258D02*
X108228133Y-128257782D01*
X108228133Y-128257782D02*
X108942419Y-128067306D01*
X108942419Y-128067306D02*
X107942419Y-127829211D01*
X108942419Y-126876830D02*
X108466228Y-127210163D01*
X108942419Y-127448258D02*
X107942419Y-127448258D01*
X107942419Y-127448258D02*
X107942419Y-127067306D01*
X107942419Y-127067306D02*
X107990038Y-126972068D01*
X107990038Y-126972068D02*
X108037657Y-126924449D01*
X108037657Y-126924449D02*
X108132895Y-126876830D01*
X108132895Y-126876830D02*
X108275752Y-126876830D01*
X108275752Y-126876830D02*
X108370990Y-126924449D01*
X108370990Y-126924449D02*
X108418609Y-126972068D01*
X108418609Y-126972068D02*
X108466228Y-127067306D01*
X108466228Y-127067306D02*
X108466228Y-127448258D01*
X108894800Y-125733972D02*
X108942419Y-125591115D01*
X108942419Y-125591115D02*
X108942419Y-125353020D01*
X108942419Y-125353020D02*
X108894800Y-125257782D01*
X108894800Y-125257782D02*
X108847180Y-125210163D01*
X108847180Y-125210163D02*
X108751942Y-125162544D01*
X108751942Y-125162544D02*
X108656704Y-125162544D01*
X108656704Y-125162544D02*
X108561466Y-125210163D01*
X108561466Y-125210163D02*
X108513847Y-125257782D01*
X108513847Y-125257782D02*
X108466228Y-125353020D01*
X108466228Y-125353020D02*
X108418609Y-125543496D01*
X108418609Y-125543496D02*
X108370990Y-125638734D01*
X108370990Y-125638734D02*
X108323371Y-125686353D01*
X108323371Y-125686353D02*
X108228133Y-125733972D01*
X108228133Y-125733972D02*
X108132895Y-125733972D01*
X108132895Y-125733972D02*
X108037657Y-125686353D01*
X108037657Y-125686353D02*
X107990038Y-125638734D01*
X107990038Y-125638734D02*
X107942419Y-125543496D01*
X107942419Y-125543496D02*
X107942419Y-125305401D01*
X107942419Y-125305401D02*
X107990038Y-125162544D01*
X107942419Y-124829210D02*
X108942419Y-124591115D01*
X108942419Y-124591115D02*
X108228133Y-124400639D01*
X108228133Y-124400639D02*
X108942419Y-124210163D01*
X108942419Y-124210163D02*
X107942419Y-123972068D01*
X112103884Y-129562475D02*
X112103884Y-128562475D01*
X112103884Y-128562475D02*
X112341979Y-128562475D01*
X112341979Y-128562475D02*
X112484836Y-128610094D01*
X112484836Y-128610094D02*
X112580074Y-128705332D01*
X112580074Y-128705332D02*
X112627693Y-128800570D01*
X112627693Y-128800570D02*
X112675312Y-128991046D01*
X112675312Y-128991046D02*
X112675312Y-129133903D01*
X112675312Y-129133903D02*
X112627693Y-129324379D01*
X112627693Y-129324379D02*
X112580074Y-129419617D01*
X112580074Y-129419617D02*
X112484836Y-129514856D01*
X112484836Y-129514856D02*
X112341979Y-129562475D01*
X112341979Y-129562475D02*
X112103884Y-129562475D01*
X113532455Y-128895808D02*
X113532455Y-129562475D01*
X113103884Y-128895808D02*
X113103884Y-129419617D01*
X113103884Y-129419617D02*
X113151503Y-129514856D01*
X113151503Y-129514856D02*
X113246741Y-129562475D01*
X113246741Y-129562475D02*
X113389598Y-129562475D01*
X113389598Y-129562475D02*
X113484836Y-129514856D01*
X113484836Y-129514856D02*
X113532455Y-129467236D01*
X114437217Y-129562475D02*
X114437217Y-129038665D01*
X114437217Y-129038665D02*
X114389598Y-128943427D01*
X114389598Y-128943427D02*
X114294360Y-128895808D01*
X114294360Y-128895808D02*
X114103884Y-128895808D01*
X114103884Y-128895808D02*
X114008646Y-128943427D01*
X114437217Y-129514856D02*
X114341979Y-129562475D01*
X114341979Y-129562475D02*
X114103884Y-129562475D01*
X114103884Y-129562475D02*
X114008646Y-129514856D01*
X114008646Y-129514856D02*
X113961027Y-129419617D01*
X113961027Y-129419617D02*
X113961027Y-129324379D01*
X113961027Y-129324379D02*
X114008646Y-129229141D01*
X114008646Y-129229141D02*
X114103884Y-129181522D01*
X114103884Y-129181522D02*
X114341979Y-129181522D01*
X114341979Y-129181522D02*
X114437217Y-129133903D01*
X115056265Y-129562475D02*
X114961027Y-129514856D01*
X114961027Y-129514856D02*
X114913408Y-129419617D01*
X114913408Y-129419617D02*
X114913408Y-128562475D01*
X115437218Y-129562475D02*
X115437218Y-128562475D01*
X115437218Y-128562475D02*
X115818170Y-128562475D01*
X115818170Y-128562475D02*
X115913408Y-128610094D01*
X115913408Y-128610094D02*
X115961027Y-128657713D01*
X115961027Y-128657713D02*
X116008646Y-128752951D01*
X116008646Y-128752951D02*
X116008646Y-128895808D01*
X116008646Y-128895808D02*
X115961027Y-128991046D01*
X115961027Y-128991046D02*
X115913408Y-129038665D01*
X115913408Y-129038665D02*
X115818170Y-129086284D01*
X115818170Y-129086284D02*
X115437218Y-129086284D01*
X116961027Y-129562475D02*
X116389599Y-129562475D01*
X116675313Y-129562475D02*
X116675313Y-128562475D01*
X116675313Y-128562475D02*
X116580075Y-128705332D01*
X116580075Y-128705332D02*
X116484837Y-128800570D01*
X116484837Y-128800570D02*
X116389599Y-128848189D01*
X136846741Y-120872419D02*
X136846741Y-121110514D01*
X136608646Y-121015276D02*
X136846741Y-121110514D01*
X136846741Y-121110514D02*
X137084836Y-121015276D01*
X136703884Y-121300990D02*
X136846741Y-121110514D01*
X136846741Y-121110514D02*
X136989598Y-121300990D01*
X111403884Y-125991466D02*
X112165789Y-125991466D01*
X111784836Y-126372419D02*
X111784836Y-125610514D01*
X126372419Y-128096115D02*
X125372419Y-128096115D01*
X125372419Y-128096115D02*
X125372419Y-127858020D01*
X125372419Y-127858020D02*
X125420038Y-127715163D01*
X125420038Y-127715163D02*
X125515276Y-127619925D01*
X125515276Y-127619925D02*
X125610514Y-127572306D01*
X125610514Y-127572306D02*
X125800990Y-127524687D01*
X125800990Y-127524687D02*
X125943847Y-127524687D01*
X125943847Y-127524687D02*
X126134323Y-127572306D01*
X126134323Y-127572306D02*
X126229561Y-127619925D01*
X126229561Y-127619925D02*
X126324800Y-127715163D01*
X126324800Y-127715163D02*
X126372419Y-127858020D01*
X126372419Y-127858020D02*
X126372419Y-128096115D01*
X125705752Y-126667544D02*
X126372419Y-126667544D01*
X125705752Y-127096115D02*
X126229561Y-127096115D01*
X126229561Y-127096115D02*
X126324800Y-127048496D01*
X126324800Y-127048496D02*
X126372419Y-126953258D01*
X126372419Y-126953258D02*
X126372419Y-126810401D01*
X126372419Y-126810401D02*
X126324800Y-126715163D01*
X126324800Y-126715163D02*
X126277180Y-126667544D01*
X126372419Y-125762782D02*
X125848609Y-125762782D01*
X125848609Y-125762782D02*
X125753371Y-125810401D01*
X125753371Y-125810401D02*
X125705752Y-125905639D01*
X125705752Y-125905639D02*
X125705752Y-126096115D01*
X125705752Y-126096115D02*
X125753371Y-126191353D01*
X126324800Y-125762782D02*
X126372419Y-125858020D01*
X126372419Y-125858020D02*
X126372419Y-126096115D01*
X126372419Y-126096115D02*
X126324800Y-126191353D01*
X126324800Y-126191353D02*
X126229561Y-126238972D01*
X126229561Y-126238972D02*
X126134323Y-126238972D01*
X126134323Y-126238972D02*
X126039085Y-126191353D01*
X126039085Y-126191353D02*
X125991466Y-126096115D01*
X125991466Y-126096115D02*
X125991466Y-125858020D01*
X125991466Y-125858020D02*
X125943847Y-125762782D01*
X126372419Y-125143734D02*
X126324800Y-125238972D01*
X126324800Y-125238972D02*
X126229561Y-125286591D01*
X126229561Y-125286591D02*
X125372419Y-125286591D01*
X126372419Y-124762781D02*
X125372419Y-124762781D01*
X125372419Y-124762781D02*
X125372419Y-124381829D01*
X125372419Y-124381829D02*
X125420038Y-124286591D01*
X125420038Y-124286591D02*
X125467657Y-124238972D01*
X125467657Y-124238972D02*
X125562895Y-124191353D01*
X125562895Y-124191353D02*
X125705752Y-124191353D01*
X125705752Y-124191353D02*
X125800990Y-124238972D01*
X125800990Y-124238972D02*
X125848609Y-124286591D01*
X125848609Y-124286591D02*
X125896228Y-124381829D01*
X125896228Y-124381829D02*
X125896228Y-124762781D01*
X125467657Y-123810400D02*
X125420038Y-123762781D01*
X125420038Y-123762781D02*
X125372419Y-123667543D01*
X125372419Y-123667543D02*
X125372419Y-123429448D01*
X125372419Y-123429448D02*
X125420038Y-123334210D01*
X125420038Y-123334210D02*
X125467657Y-123286591D01*
X125467657Y-123286591D02*
X125562895Y-123238972D01*
X125562895Y-123238972D02*
X125658133Y-123238972D01*
X125658133Y-123238972D02*
X125800990Y-123286591D01*
X125800990Y-123286591D02*
X126372419Y-123858019D01*
X126372419Y-123858019D02*
X126372419Y-123238972D01*
X130394360Y-127972419D02*
X130584836Y-127972419D01*
X130584836Y-127972419D02*
X130680074Y-128020038D01*
X130680074Y-128020038D02*
X130775312Y-128115276D01*
X130775312Y-128115276D02*
X130822931Y-128305752D01*
X130822931Y-128305752D02*
X130822931Y-128639085D01*
X130822931Y-128639085D02*
X130775312Y-128829561D01*
X130775312Y-128829561D02*
X130680074Y-128924800D01*
X130680074Y-128924800D02*
X130584836Y-128972419D01*
X130584836Y-128972419D02*
X130394360Y-128972419D01*
X130394360Y-128972419D02*
X130299122Y-128924800D01*
X130299122Y-128924800D02*
X130203884Y-128829561D01*
X130203884Y-128829561D02*
X130156265Y-128639085D01*
X130156265Y-128639085D02*
X130156265Y-128305752D01*
X130156265Y-128305752D02*
X130203884Y-128115276D01*
X130203884Y-128115276D02*
X130299122Y-128020038D01*
X130299122Y-128020038D02*
X130394360Y-127972419D01*
X131251503Y-127972419D02*
X131251503Y-128781942D01*
X131251503Y-128781942D02*
X131299122Y-128877180D01*
X131299122Y-128877180D02*
X131346741Y-128924800D01*
X131346741Y-128924800D02*
X131441979Y-128972419D01*
X131441979Y-128972419D02*
X131632455Y-128972419D01*
X131632455Y-128972419D02*
X131727693Y-128924800D01*
X131727693Y-128924800D02*
X131775312Y-128877180D01*
X131775312Y-128877180D02*
X131822931Y-128781942D01*
X131822931Y-128781942D02*
X131822931Y-127972419D01*
X132156265Y-127972419D02*
X132727693Y-127972419D01*
X132441979Y-128972419D02*
X132441979Y-127972419D01*
D11*
%TO.C,D1*%
X114565000Y-110400000D02*
X114565000Y-112860000D01*
X114565000Y-112860000D02*
X116035000Y-112860000D01*
X116035000Y-112860000D02*
X116035000Y-110400000D01*
%TO.C,D2*%
X112965000Y-109540000D02*
X112965000Y-112000000D01*
X114435000Y-109540000D02*
X112965000Y-109540000D01*
X114435000Y-112000000D02*
X114435000Y-109540000D01*
%TO.C,R5*%
X113477500Y-117070276D02*
X113477500Y-117579724D01*
X114522500Y-117070276D02*
X114522500Y-117579724D01*
%TO.C,RV2*%
X126670000Y-125100000D02*
X126670000Y-119960000D01*
X129330000Y-119960000D02*
X126670000Y-119960000D01*
X129330000Y-125100000D02*
X126670000Y-125100000D01*
X129330000Y-125100000D02*
X129330000Y-119960000D01*
X129330000Y-126370000D02*
X129330000Y-127700000D01*
X129330000Y-127700000D02*
X128000000Y-127700000D01*
%TO.C,C1*%
X114453733Y-106550000D02*
X114746267Y-106550000D01*
X114453733Y-107570000D02*
X114746267Y-107570000D01*
%TO.C,R7*%
X124877500Y-121454724D02*
X124877500Y-120945276D01*
X125922500Y-121454724D02*
X125922500Y-120945276D01*
%TO.C,R1*%
X117977500Y-111454724D02*
X117977500Y-110945276D01*
X119022500Y-111454724D02*
X119022500Y-110945276D01*
%TO.C,RV3*%
X134070000Y-119970000D02*
X135400000Y-119970000D01*
X134070000Y-121300000D02*
X134070000Y-119970000D01*
X134070000Y-122570000D02*
X134070000Y-127710000D01*
X134070000Y-122570000D02*
X136730000Y-122570000D01*
X134070000Y-127710000D02*
X136730000Y-127710000D01*
X136730000Y-122570000D02*
X136730000Y-127710000D01*
%TO.C,U4*%
X117060000Y-113270000D02*
X117060000Y-123550000D01*
X117060000Y-123550000D02*
X122360000Y-123550000D01*
X118710000Y-113270000D02*
X117060000Y-113270000D01*
X122360000Y-113270000D02*
X120710000Y-113270000D01*
X122360000Y-123550000D02*
X122360000Y-113270000D01*
X120710000Y-113270000D02*
G75*
G02*
X118710000Y-113270000I-1000000J0D01*
G01*
%TO.C,C2*%
X118576267Y-129090000D02*
X118283733Y-129090000D01*
X118576267Y-130110000D02*
X118283733Y-130110000D01*
%TO.C,BT1*%
X109970000Y-116395000D02*
X111300000Y-116395000D01*
X109970000Y-117725000D02*
X109970000Y-116395000D01*
X109970000Y-118995000D02*
X109970000Y-121595000D01*
X109970000Y-118995000D02*
X112630000Y-118995000D01*
X109970000Y-121595000D02*
X112630000Y-121595000D01*
X112630000Y-118995000D02*
X112630000Y-121595000D01*
%TO.C,R4*%
X114345276Y-108077500D02*
X114854724Y-108077500D01*
X114345276Y-109122500D02*
X114854724Y-109122500D01*
%TO.C,R3*%
X111577500Y-110945276D02*
X111577500Y-111454724D01*
X112622500Y-110945276D02*
X112622500Y-111454724D01*
%TO.C,U5*%
X128440000Y-107650000D02*
X128440000Y-117930000D01*
X128440000Y-117930000D02*
X130090000Y-117930000D01*
X132090000Y-117930000D02*
X133740000Y-117930000D01*
X133740000Y-107650000D02*
X128440000Y-107650000D01*
X133740000Y-117930000D02*
X133740000Y-107650000D01*
X130090000Y-117930000D02*
G75*
G02*
X132090000Y-117930000I1000000J0D01*
G01*
%TO.C,J2*%
X109070000Y-124695000D02*
X110400000Y-124695000D01*
X109070000Y-126025000D02*
X109070000Y-124695000D01*
X109070000Y-127295000D02*
X109070000Y-129895000D01*
X109070000Y-127295000D02*
X111730000Y-127295000D01*
X109070000Y-129895000D02*
X111730000Y-129895000D01*
X111730000Y-127295000D02*
X111730000Y-129895000D01*
%TO.C,R10*%
X130177500Y-120045276D02*
X130177500Y-120554724D01*
X131222500Y-120045276D02*
X131222500Y-120554724D01*
%TO.C,R6*%
X113477500Y-120470276D02*
X113477500Y-120979724D01*
X114522500Y-120470276D02*
X114522500Y-120979724D01*
%TO.C,C3*%
X131690000Y-120153733D02*
X131690000Y-120446267D01*
X132710000Y-120153733D02*
X132710000Y-120446267D01*
%TO.C,C4*%
X110453733Y-122390000D02*
X110746267Y-122390000D01*
X110453733Y-123410000D02*
X110746267Y-123410000D01*
%TO.C,DualPot1*%
X112790000Y-125670000D02*
X112790000Y-128330000D01*
X117930000Y-125670000D02*
X112790000Y-125670000D01*
X117930000Y-125670000D02*
X117930000Y-128330000D01*
X117930000Y-128330000D02*
X112790000Y-128330000D01*
X119200000Y-125670000D02*
X120530000Y-125670000D01*
X120530000Y-125670000D02*
X120530000Y-127000000D01*
%TO.C,R8*%
X122475276Y-126277500D02*
X122984724Y-126277500D01*
X122475276Y-127322500D02*
X122984724Y-127322500D01*
%TO.C,R2*%
X116377500Y-111454724D02*
X116377500Y-110945276D01*
X117422500Y-111454724D02*
X117422500Y-110945276D01*
%TO.C,R9*%
X124877500Y-117854724D02*
X124877500Y-117345276D01*
X125922500Y-117854724D02*
X125922500Y-117345276D01*
%TO.C,J1*%
X130370000Y-125105000D02*
X130370000Y-122505000D01*
X133030000Y-122505000D02*
X130370000Y-122505000D01*
X133030000Y-125105000D02*
X130370000Y-125105000D01*
X133030000Y-125105000D02*
X133030000Y-122505000D01*
X133030000Y-126375000D02*
X133030000Y-127705000D01*
X133030000Y-127705000D02*
X131700000Y-127705000D01*
%TD*%
M02*
