M48
; DRILL file {KiCad 8.0.6} date 2024-12-29T21:13:36-0600
; FORMAT={-:-/ absolute / metric / decimal}
; #@! TF.CreationDate,2024-12-29T21:13:36-06:00
; #@! TF.GenerationSoftware,Kicad,Pcbnew,8.0.6
; #@! TF.FileFunction,MixedPlating,1,2
FMAT,2
METRIC
; #@! TA.AperFunction,Plated,PTH,ViaDrill
T1C0.300
; #@! TA.AperFunction,Plated,PTH,ComponentDrill
T2C0.800
; #@! TA.AperFunction,Plated,PTH,ComponentDrill
T3C1.000
%
G90
G05
T1
X112.4Y-107.8
X117.5Y-121.3
X117.5Y-123.0
X120.4Y-107.9
X125.0Y-129.0
X125.0Y-131.0
X127.0Y-129.0
X127.0Y-131.0
X129.0Y-129.0
X129.0Y-131.0
X131.0Y-106.0
X131.0Y-108.0
X131.0Y-110.0
X131.0Y-112.0
X131.0Y-131.0
X132.98Y-131.0
X133.0Y-106.0
X133.0Y-108.0
X133.0Y-110.0
X133.0Y-112.0
X133.0Y-129.0
X133.5Y-126.3
X134.962Y-128.989
X135.0Y-106.0
X135.0Y-131.0
X137.0Y-106.0
X137.0Y-108.0
X137.0Y-110.0
X137.0Y-129.0
X137.0Y-131.0
T2
X115.9Y-114.6
X115.9Y-117.14
X115.9Y-119.68
X115.9Y-122.22
X123.52Y-114.6
X123.52Y-117.14
X123.52Y-119.68
X123.52Y-122.22
X127.28Y-108.98
X127.28Y-111.52
X127.28Y-114.06
X127.28Y-116.6
X134.9Y-108.98
X134.9Y-111.52
X134.9Y-114.06
X134.9Y-116.6
T3
X110.4Y-126.025
X110.4Y-128.565
X111.3Y-117.725
X111.3Y-120.265
X114.12Y-127.0
X116.66Y-127.0
X119.2Y-127.0
X128.0Y-121.29
X128.0Y-123.83
X128.0Y-126.37
X131.7Y-123.835
X131.7Y-126.375
X135.4Y-121.3
X135.4Y-123.84
X135.4Y-126.38
M30
