%TF.GenerationSoftware,KiCad,Pcbnew,8.0.6*%
%TF.CreationDate,2024-12-29T21:13:32-06:00*%
%TF.ProjectId,Wienbridge,5769656e-6272-4696-9467-652e6b696361,rev?*%
%TF.SameCoordinates,Original*%
%TF.FileFunction,Copper,L2,Bot*%
%TF.FilePolarity,Positive*%
%FSLAX46Y46*%
G04 Gerber Fmt 4.6, Leading zero omitted, Abs format (unit mm)*
G04 Created by KiCad (PCBNEW 8.0.6) date 2024-12-29 21:13:32*
%MOMM*%
%LPD*%
G01*
G04 APERTURE LIST*
%TA.AperFunction,ComponentPad*%
%ADD10R,1.700000X1.700000*%
%TD*%
%TA.AperFunction,ComponentPad*%
%ADD11O,1.700000X1.700000*%
%TD*%
%TA.AperFunction,ComponentPad*%
%ADD12R,1.600000X1.600000*%
%TD*%
%TA.AperFunction,ComponentPad*%
%ADD13O,1.600000X1.600000*%
%TD*%
%TA.AperFunction,ViaPad*%
%ADD14C,0.600000*%
%TD*%
%TA.AperFunction,Conductor*%
%ADD15C,0.500000*%
%TD*%
G04 APERTURE END LIST*
D10*
%TO.P,RV2,1,1*%
%TO.N,Net-(R7-Pad2)*%
X128000000Y-126370000D03*
D11*
%TO.P,RV2,2,2*%
X128000000Y-123830000D03*
%TO.P,RV2,3,3*%
%TO.N,Net-(C1-Pad1)*%
X128000000Y-121290000D03*
%TD*%
D10*
%TO.P,RV3,1,1*%
%TO.N,Net-(C3-Pad1)*%
X135400000Y-121300000D03*
D11*
%TO.P,RV3,2,2*%
X135400000Y-123840000D03*
%TO.P,RV3,3,3*%
%TO.N,Net-(R10-Pad2)*%
X135400000Y-126380000D03*
%TD*%
D12*
%TO.P,U4,1*%
%TO.N,BiasVoltage*%
X115900000Y-114600000D03*
D13*
%TO.P,U4,2,-*%
X115900000Y-117140000D03*
%TO.P,U4,3,+*%
%TO.N,Net-(U4A-+)*%
X115900000Y-119680000D03*
%TO.P,U4,4,V-*%
%TO.N,SupplyGND*%
X115900000Y-122220000D03*
%TO.P,U4,5,+*%
%TO.N,Net-(U4B-+)*%
X123520000Y-122220000D03*
%TO.P,U4,6,-*%
%TO.N,Net-(D1-K)*%
X123520000Y-119680000D03*
%TO.P,U4,7*%
%TO.N,Net-(C1-Pad2)*%
X123520000Y-117140000D03*
%TO.P,U4,8,V+*%
%TO.N,+9V*%
X123520000Y-114600000D03*
%TD*%
D10*
%TO.P,BT1,1,+*%
%TO.N,Net-(BT1-+)*%
X111300000Y-117725000D03*
D11*
%TO.P,BT1,2,-*%
%TO.N,SupplyGND*%
X111300000Y-120265000D03*
%TD*%
D12*
%TO.P,U5,1*%
%TO.N,Net-(C3-Pad1)*%
X134900000Y-116600000D03*
D13*
%TO.P,U5,2,-*%
%TO.N,Net-(U5A--)*%
X134900000Y-114060000D03*
%TO.P,U5,3,+*%
%TO.N,BiasVoltage*%
X134900000Y-111520000D03*
%TO.P,U5,4,V-*%
%TO.N,SupplyGND*%
X134900000Y-108980000D03*
%TO.P,U5,5,+*%
%TO.N,unconnected-(U5B-+-Pad5)*%
X127280000Y-108980000D03*
%TO.P,U5,6,-*%
%TO.N,unconnected-(U5B---Pad6)*%
X127280000Y-111520000D03*
%TO.P,U5,7*%
%TO.N,unconnected-(U5-Pad7)*%
X127280000Y-114060000D03*
%TO.P,U5,8,V+*%
%TO.N,+9V*%
X127280000Y-116600000D03*
%TD*%
D10*
%TO.P,J2,1,Pin_1*%
%TO.N,+9V*%
X110400000Y-126025000D03*
D11*
%TO.P,J2,2,Pin_2*%
%TO.N,Net-(BT1-+)*%
X110400000Y-128565000D03*
%TD*%
D10*
%TO.P,DualPot1,1,1*%
%TO.N,Net-(DualPot1-Pad1)*%
X119200000Y-127000000D03*
D11*
%TO.P,DualPot1,2,2*%
X116660000Y-127000000D03*
%TO.P,DualPot1,3,3*%
%TO.N,BiasVoltage*%
X114120000Y-127000000D03*
%TD*%
D10*
%TO.P,J1,1,Pin_1*%
%TO.N,SupplyGND*%
X131700000Y-126375000D03*
D11*
%TO.P,J1,2,Pin_2*%
%TO.N,Net-(J1-Pin_2)*%
X131700000Y-123835000D03*
%TD*%
D14*
%TO.N,SupplyGND*%
X137000000Y-110000000D03*
X137000000Y-108000000D03*
X133000000Y-112000000D03*
X133000000Y-110000000D03*
X133000000Y-108000000D03*
X131000000Y-112000000D03*
X131000000Y-110000000D03*
X131000000Y-108000000D03*
X125000000Y-129000000D03*
X127000000Y-129000000D03*
X129000000Y-129000000D03*
X133000000Y-129000000D03*
X134962085Y-128989167D03*
X137000000Y-129000000D03*
X137000000Y-131000000D03*
X135000000Y-131000000D03*
X132979807Y-130999999D03*
X131000000Y-131000000D03*
X129000000Y-131000000D03*
X127000000Y-131000000D03*
X125000000Y-131000000D03*
X137000000Y-106000000D03*
X135000000Y-106000000D03*
X133000000Y-106000000D03*
X131000000Y-106000000D03*
X117500000Y-123000000D03*
X117500000Y-121300000D03*
X133500000Y-126300000D03*
%TO.N,+9V*%
X112400000Y-107800000D03*
X120400000Y-107900000D03*
%TD*%
D15*
%TO.N,+9V*%
X120300000Y-107800000D02*
X112400000Y-107800000D01*
X120400000Y-107900000D02*
X120300000Y-107800000D01*
%TD*%
%TA.AperFunction,Conductor*%
%TO.N,SupplyGND*%
G36*
X138842539Y-104620185D02*
G01*
X138888294Y-104672989D01*
X138899500Y-104724500D01*
X138899500Y-131775500D01*
X138879815Y-131842539D01*
X138827011Y-131888294D01*
X138775500Y-131899500D01*
X106524500Y-131899500D01*
X106457461Y-131879815D01*
X106411706Y-131827011D01*
X106400500Y-131775500D01*
X106400500Y-128564999D01*
X109044341Y-128564999D01*
X109044341Y-128565000D01*
X109064936Y-128800403D01*
X109064938Y-128800413D01*
X109126094Y-129028655D01*
X109126096Y-129028659D01*
X109126097Y-129028663D01*
X109225965Y-129242830D01*
X109225967Y-129242834D01*
X109334281Y-129397521D01*
X109361505Y-129436401D01*
X109528599Y-129603495D01*
X109625384Y-129671265D01*
X109722165Y-129739032D01*
X109722167Y-129739033D01*
X109722170Y-129739035D01*
X109936337Y-129838903D01*
X110164592Y-129900063D01*
X110352918Y-129916539D01*
X110399999Y-129920659D01*
X110400000Y-129920659D01*
X110400001Y-129920659D01*
X110439234Y-129917226D01*
X110635408Y-129900063D01*
X110863663Y-129838903D01*
X111077830Y-129739035D01*
X111271401Y-129603495D01*
X111438495Y-129436401D01*
X111574035Y-129242830D01*
X111673903Y-129028663D01*
X111735063Y-128800408D01*
X111755659Y-128565000D01*
X111735063Y-128329592D01*
X111673903Y-128101337D01*
X111574035Y-127887171D01*
X111571173Y-127883084D01*
X111438496Y-127693600D01*
X111379919Y-127635023D01*
X111316567Y-127571671D01*
X111283084Y-127510351D01*
X111288068Y-127440659D01*
X111329939Y-127384725D01*
X111360915Y-127367810D01*
X111492331Y-127318796D01*
X111607546Y-127232546D01*
X111693796Y-127117331D01*
X111737558Y-126999999D01*
X112764341Y-126999999D01*
X112764341Y-127000000D01*
X112784936Y-127235403D01*
X112784938Y-127235413D01*
X112846094Y-127463655D01*
X112846096Y-127463659D01*
X112846097Y-127463663D01*
X112896463Y-127571673D01*
X112945965Y-127677830D01*
X112945967Y-127677834D01*
X112986457Y-127735659D01*
X113081505Y-127871401D01*
X113248599Y-128038495D01*
X113338344Y-128101335D01*
X113442165Y-128174032D01*
X113442167Y-128174033D01*
X113442170Y-128174035D01*
X113656337Y-128273903D01*
X113884592Y-128335063D01*
X114061034Y-128350500D01*
X114119999Y-128355659D01*
X114120000Y-128355659D01*
X114120001Y-128355659D01*
X114178966Y-128350500D01*
X114355408Y-128335063D01*
X114583663Y-128273903D01*
X114797830Y-128174035D01*
X114991401Y-128038495D01*
X115158495Y-127871401D01*
X115288425Y-127685842D01*
X115343002Y-127642217D01*
X115412500Y-127635023D01*
X115474855Y-127666546D01*
X115491575Y-127685842D01*
X115621500Y-127871395D01*
X115621505Y-127871401D01*
X115788599Y-128038495D01*
X115878344Y-128101335D01*
X115982165Y-128174032D01*
X115982167Y-128174033D01*
X115982170Y-128174035D01*
X116196337Y-128273903D01*
X116424592Y-128335063D01*
X116601034Y-128350500D01*
X116659999Y-128355659D01*
X116660000Y-128355659D01*
X116660001Y-128355659D01*
X116718966Y-128350500D01*
X116895408Y-128335063D01*
X117123663Y-128273903D01*
X117337830Y-128174035D01*
X117531401Y-128038495D01*
X117653329Y-127916566D01*
X117714648Y-127883084D01*
X117784340Y-127888068D01*
X117840274Y-127929939D01*
X117857189Y-127960917D01*
X117906202Y-128092328D01*
X117906206Y-128092335D01*
X117992452Y-128207544D01*
X117992455Y-128207547D01*
X118107664Y-128293793D01*
X118107671Y-128293797D01*
X118242517Y-128344091D01*
X118242516Y-128344091D01*
X118249444Y-128344835D01*
X118302127Y-128350500D01*
X120097872Y-128350499D01*
X120157483Y-128344091D01*
X120292331Y-128293796D01*
X120407546Y-128207546D01*
X120493796Y-128092331D01*
X120544091Y-127957483D01*
X120550500Y-127897873D01*
X120550499Y-126102128D01*
X120544091Y-126042517D01*
X120542810Y-126039083D01*
X120493797Y-125907671D01*
X120493793Y-125907664D01*
X120407547Y-125792455D01*
X120407544Y-125792452D01*
X120292335Y-125706206D01*
X120292328Y-125706202D01*
X120157482Y-125655908D01*
X120157483Y-125655908D01*
X120097883Y-125649501D01*
X120097881Y-125649500D01*
X120097873Y-125649500D01*
X120097864Y-125649500D01*
X118302129Y-125649500D01*
X118302123Y-125649501D01*
X118242516Y-125655908D01*
X118107671Y-125706202D01*
X118107664Y-125706206D01*
X117992455Y-125792452D01*
X117992452Y-125792455D01*
X117906206Y-125907664D01*
X117906203Y-125907669D01*
X117857189Y-126039083D01*
X117815317Y-126095016D01*
X117749853Y-126119433D01*
X117681580Y-126104581D01*
X117653326Y-126083430D01*
X117531402Y-125961506D01*
X117531395Y-125961501D01*
X117337834Y-125825967D01*
X117337830Y-125825965D01*
X117337828Y-125825964D01*
X117123663Y-125726097D01*
X117123659Y-125726096D01*
X117123655Y-125726094D01*
X116895413Y-125664938D01*
X116895403Y-125664936D01*
X116660001Y-125644341D01*
X116659999Y-125644341D01*
X116424596Y-125664936D01*
X116424586Y-125664938D01*
X116196344Y-125726094D01*
X116196335Y-125726098D01*
X115982171Y-125825964D01*
X115982169Y-125825965D01*
X115788597Y-125961505D01*
X115621505Y-126128597D01*
X115491575Y-126314158D01*
X115436998Y-126357783D01*
X115367500Y-126364977D01*
X115305145Y-126333454D01*
X115288425Y-126314158D01*
X115158494Y-126128597D01*
X114991402Y-125961506D01*
X114991395Y-125961501D01*
X114797834Y-125825967D01*
X114797830Y-125825965D01*
X114797828Y-125825964D01*
X114583663Y-125726097D01*
X114583659Y-125726096D01*
X114583655Y-125726094D01*
X114355413Y-125664938D01*
X114355403Y-125664936D01*
X114120001Y-125644341D01*
X114119999Y-125644341D01*
X113884596Y-125664936D01*
X113884586Y-125664938D01*
X113656344Y-125726094D01*
X113656335Y-125726098D01*
X113442171Y-125825964D01*
X113442169Y-125825965D01*
X113248597Y-125961505D01*
X113081505Y-126128597D01*
X112945965Y-126322169D01*
X112945964Y-126322171D01*
X112846098Y-126536335D01*
X112846094Y-126536344D01*
X112784938Y-126764586D01*
X112784936Y-126764596D01*
X112764341Y-126999999D01*
X111737558Y-126999999D01*
X111744091Y-126982483D01*
X111750500Y-126922873D01*
X111750499Y-125127128D01*
X111744091Y-125067517D01*
X111731059Y-125032577D01*
X111693797Y-124932671D01*
X111693793Y-124932664D01*
X111607547Y-124817455D01*
X111607544Y-124817452D01*
X111492335Y-124731206D01*
X111492328Y-124731202D01*
X111357482Y-124680908D01*
X111357483Y-124680908D01*
X111297883Y-124674501D01*
X111297881Y-124674500D01*
X111297873Y-124674500D01*
X111297864Y-124674500D01*
X109502129Y-124674500D01*
X109502123Y-124674501D01*
X109442516Y-124680908D01*
X109307671Y-124731202D01*
X109307664Y-124731206D01*
X109192455Y-124817452D01*
X109192452Y-124817455D01*
X109106206Y-124932664D01*
X109106202Y-124932671D01*
X109055908Y-125067517D01*
X109051459Y-125108903D01*
X109049501Y-125127123D01*
X109049500Y-125127135D01*
X109049500Y-126922870D01*
X109049501Y-126922876D01*
X109055908Y-126982483D01*
X109106202Y-127117328D01*
X109106206Y-127117335D01*
X109192452Y-127232544D01*
X109192455Y-127232547D01*
X109307664Y-127318793D01*
X109307671Y-127318797D01*
X109439081Y-127367810D01*
X109495015Y-127409681D01*
X109519432Y-127475145D01*
X109504580Y-127543418D01*
X109483430Y-127571673D01*
X109361503Y-127693600D01*
X109225965Y-127887169D01*
X109225964Y-127887171D01*
X109126098Y-128101335D01*
X109126094Y-128101344D01*
X109064938Y-128329586D01*
X109064936Y-128329596D01*
X109044341Y-128564999D01*
X106400500Y-128564999D01*
X106400500Y-116827135D01*
X109949500Y-116827135D01*
X109949500Y-118622870D01*
X109949501Y-118622876D01*
X109955908Y-118682483D01*
X110006202Y-118817328D01*
X110006206Y-118817335D01*
X110092452Y-118932544D01*
X110092455Y-118932547D01*
X110207664Y-119018793D01*
X110207671Y-119018797D01*
X110230378Y-119027266D01*
X110339598Y-119068002D01*
X110395531Y-119109873D01*
X110419949Y-119175337D01*
X110405098Y-119243610D01*
X110383947Y-119271865D01*
X110261886Y-119393926D01*
X110126400Y-119587420D01*
X110126399Y-119587422D01*
X110026570Y-119801507D01*
X110026567Y-119801513D01*
X109969364Y-120014999D01*
X109969364Y-120015000D01*
X110866988Y-120015000D01*
X110834075Y-120072007D01*
X110800000Y-120199174D01*
X110800000Y-120330826D01*
X110834075Y-120457993D01*
X110866988Y-120515000D01*
X109969364Y-120515000D01*
X110026567Y-120728486D01*
X110026570Y-120728492D01*
X110126399Y-120942578D01*
X110261894Y-121136082D01*
X110428917Y-121303105D01*
X110622421Y-121438600D01*
X110836507Y-121538429D01*
X110836516Y-121538433D01*
X111050000Y-121595634D01*
X111050000Y-120698012D01*
X111107007Y-120730925D01*
X111234174Y-120765000D01*
X111365826Y-120765000D01*
X111492993Y-120730925D01*
X111550000Y-120698012D01*
X111550000Y-121595633D01*
X111763483Y-121538433D01*
X111763492Y-121538429D01*
X111977578Y-121438600D01*
X112171082Y-121303105D01*
X112338105Y-121136082D01*
X112473600Y-120942578D01*
X112573429Y-120728492D01*
X112573432Y-120728486D01*
X112630636Y-120515000D01*
X111733012Y-120515000D01*
X111765925Y-120457993D01*
X111800000Y-120330826D01*
X111800000Y-120199174D01*
X111765925Y-120072007D01*
X111733012Y-120015000D01*
X112630636Y-120015000D01*
X112630635Y-120014999D01*
X112573432Y-119801513D01*
X112573429Y-119801507D01*
X112473600Y-119587422D01*
X112473599Y-119587420D01*
X112338113Y-119393926D01*
X112338108Y-119393920D01*
X112216053Y-119271865D01*
X112182568Y-119210542D01*
X112187552Y-119140850D01*
X112229424Y-119084917D01*
X112260400Y-119068002D01*
X112369622Y-119027266D01*
X112392326Y-119018798D01*
X112392326Y-119018797D01*
X112392331Y-119018796D01*
X112507546Y-118932546D01*
X112593796Y-118817331D01*
X112644091Y-118682483D01*
X112650500Y-118622873D01*
X112650499Y-117139998D01*
X114594532Y-117139998D01*
X114594532Y-117140001D01*
X114614364Y-117366686D01*
X114614366Y-117366697D01*
X114673258Y-117586488D01*
X114673261Y-117586497D01*
X114769431Y-117792732D01*
X114769432Y-117792734D01*
X114899954Y-117979141D01*
X115060858Y-118140045D01*
X115060861Y-118140047D01*
X115247266Y-118270568D01*
X115305275Y-118297618D01*
X115357714Y-118343791D01*
X115376866Y-118410984D01*
X115356650Y-118477865D01*
X115305275Y-118522382D01*
X115247267Y-118549431D01*
X115247265Y-118549432D01*
X115060858Y-118679954D01*
X114899954Y-118840858D01*
X114769432Y-119027265D01*
X114769431Y-119027267D01*
X114673261Y-119233502D01*
X114673258Y-119233511D01*
X114614366Y-119453302D01*
X114614364Y-119453313D01*
X114594532Y-119679998D01*
X114594532Y-119680001D01*
X114614364Y-119906686D01*
X114614366Y-119906697D01*
X114673258Y-120126488D01*
X114673261Y-120126497D01*
X114769431Y-120332732D01*
X114769432Y-120332734D01*
X114899954Y-120519141D01*
X115060858Y-120680045D01*
X115060861Y-120680047D01*
X115247266Y-120810568D01*
X115305865Y-120837893D01*
X115358305Y-120884065D01*
X115377457Y-120951258D01*
X115357242Y-121018139D01*
X115305867Y-121062657D01*
X115247515Y-121089867D01*
X115061179Y-121220342D01*
X114900342Y-121381179D01*
X114769865Y-121567517D01*
X114673734Y-121773673D01*
X114673730Y-121773682D01*
X114621127Y-121969999D01*
X114621128Y-121970000D01*
X115584314Y-121970000D01*
X115579920Y-121974394D01*
X115527259Y-122065606D01*
X115500000Y-122167339D01*
X115500000Y-122272661D01*
X115527259Y-122374394D01*
X115579920Y-122465606D01*
X115584314Y-122470000D01*
X114621128Y-122470000D01*
X114673730Y-122666317D01*
X114673734Y-122666326D01*
X114769865Y-122872482D01*
X114900342Y-123058820D01*
X115061179Y-123219657D01*
X115247517Y-123350134D01*
X115453673Y-123446265D01*
X115453682Y-123446269D01*
X115649999Y-123498872D01*
X115650000Y-123498871D01*
X115650000Y-122535686D01*
X115654394Y-122540080D01*
X115745606Y-122592741D01*
X115847339Y-122620000D01*
X115952661Y-122620000D01*
X116054394Y-122592741D01*
X116145606Y-122540080D01*
X116150000Y-122535686D01*
X116150000Y-123498872D01*
X116346317Y-123446269D01*
X116346326Y-123446265D01*
X116552482Y-123350134D01*
X116738820Y-123219657D01*
X116899657Y-123058820D01*
X117030134Y-122872482D01*
X117126265Y-122666326D01*
X117126269Y-122666317D01*
X117178872Y-122470000D01*
X116215686Y-122470000D01*
X116220080Y-122465606D01*
X116272741Y-122374394D01*
X116300000Y-122272661D01*
X116300000Y-122167339D01*
X116272741Y-122065606D01*
X116220080Y-121974394D01*
X116215686Y-121970000D01*
X117178872Y-121970000D01*
X117178872Y-121969999D01*
X117126269Y-121773682D01*
X117126265Y-121773673D01*
X117030134Y-121567517D01*
X116899657Y-121381179D01*
X116738820Y-121220342D01*
X116552482Y-121089865D01*
X116494133Y-121062657D01*
X116441694Y-121016484D01*
X116422542Y-120949291D01*
X116442758Y-120882410D01*
X116494129Y-120837895D01*
X116552734Y-120810568D01*
X116739139Y-120680047D01*
X116900047Y-120519139D01*
X117030568Y-120332734D01*
X117126739Y-120126496D01*
X117185635Y-119906692D01*
X117205468Y-119680000D01*
X117185635Y-119453308D01*
X117126739Y-119233504D01*
X117030568Y-119027266D01*
X116900047Y-118840861D01*
X116900045Y-118840858D01*
X116739141Y-118679954D01*
X116552734Y-118549432D01*
X116552728Y-118549429D01*
X116494725Y-118522382D01*
X116442285Y-118476210D01*
X116423133Y-118409017D01*
X116443348Y-118342135D01*
X116494725Y-118297618D01*
X116552734Y-118270568D01*
X116739139Y-118140047D01*
X116900047Y-117979139D01*
X117030568Y-117792734D01*
X117126739Y-117586496D01*
X117185635Y-117366692D01*
X117205468Y-117140000D01*
X117185635Y-116913308D01*
X117126739Y-116693504D01*
X117030568Y-116487266D01*
X116900047Y-116300861D01*
X116900045Y-116300858D01*
X116739143Y-116139956D01*
X116714536Y-116122726D01*
X116670912Y-116068149D01*
X116663719Y-115998650D01*
X116695241Y-115936296D01*
X116755471Y-115900882D01*
X116772404Y-115897861D01*
X116807483Y-115894091D01*
X116942331Y-115843796D01*
X117057546Y-115757546D01*
X117143796Y-115642331D01*
X117194091Y-115507483D01*
X117200500Y-115447873D01*
X117200499Y-114599998D01*
X122214532Y-114599998D01*
X122214532Y-114600001D01*
X122234364Y-114826686D01*
X122234366Y-114826697D01*
X122293258Y-115046488D01*
X122293261Y-115046497D01*
X122389431Y-115252732D01*
X122389432Y-115252734D01*
X122519954Y-115439141D01*
X122680858Y-115600045D01*
X122680861Y-115600047D01*
X122867266Y-115730568D01*
X122925275Y-115757618D01*
X122977714Y-115803791D01*
X122996866Y-115870984D01*
X122976650Y-115937865D01*
X122925275Y-115982382D01*
X122867267Y-116009431D01*
X122867265Y-116009432D01*
X122680858Y-116139954D01*
X122519954Y-116300858D01*
X122389432Y-116487265D01*
X122389431Y-116487267D01*
X122293261Y-116693502D01*
X122293258Y-116693511D01*
X122234366Y-116913302D01*
X122234364Y-116913313D01*
X122214532Y-117139998D01*
X122214532Y-117140001D01*
X122234364Y-117366686D01*
X122234366Y-117366697D01*
X122293258Y-117586488D01*
X122293261Y-117586497D01*
X122389431Y-117792732D01*
X122389432Y-117792734D01*
X122519954Y-117979141D01*
X122680858Y-118140045D01*
X122680861Y-118140047D01*
X122867266Y-118270568D01*
X122925275Y-118297618D01*
X122977714Y-118343791D01*
X122996866Y-118410984D01*
X122976650Y-118477865D01*
X122925275Y-118522382D01*
X122867267Y-118549431D01*
X122867265Y-118549432D01*
X122680858Y-118679954D01*
X122519954Y-118840858D01*
X122389432Y-119027265D01*
X122389431Y-119027267D01*
X122293261Y-119233502D01*
X122293258Y-119233511D01*
X122234366Y-119453302D01*
X122234364Y-119453313D01*
X122214532Y-119679998D01*
X122214532Y-119680001D01*
X122234364Y-119906686D01*
X122234366Y-119906697D01*
X122293258Y-120126488D01*
X122293261Y-120126497D01*
X122389431Y-120332732D01*
X122389432Y-120332734D01*
X122519954Y-120519141D01*
X122680858Y-120680045D01*
X122680861Y-120680047D01*
X122867266Y-120810568D01*
X122901083Y-120826337D01*
X122925275Y-120837618D01*
X122977714Y-120883791D01*
X122996866Y-120950984D01*
X122976650Y-121017865D01*
X122925275Y-121062382D01*
X122867267Y-121089431D01*
X122867265Y-121089432D01*
X122680858Y-121219954D01*
X122519954Y-121380858D01*
X122389432Y-121567265D01*
X122389431Y-121567267D01*
X122293261Y-121773502D01*
X122293258Y-121773511D01*
X122234366Y-121993302D01*
X122234364Y-121993313D01*
X122214532Y-122219998D01*
X122214532Y-122220001D01*
X122234364Y-122446686D01*
X122234366Y-122446697D01*
X122293258Y-122666488D01*
X122293261Y-122666497D01*
X122389431Y-122872732D01*
X122389432Y-122872734D01*
X122519954Y-123059141D01*
X122680858Y-123220045D01*
X122680861Y-123220047D01*
X122867266Y-123350568D01*
X123073504Y-123446739D01*
X123293308Y-123505635D01*
X123455230Y-123519801D01*
X123519998Y-123525468D01*
X123520000Y-123525468D01*
X123520002Y-123525468D01*
X123576673Y-123520509D01*
X123746692Y-123505635D01*
X123966496Y-123446739D01*
X124172734Y-123350568D01*
X124359139Y-123220047D01*
X124520047Y-123059139D01*
X124650568Y-122872734D01*
X124746739Y-122666496D01*
X124805635Y-122446692D01*
X124825468Y-122220000D01*
X124823532Y-122197876D01*
X124805635Y-121993313D01*
X124805635Y-121993308D01*
X124746739Y-121773504D01*
X124650568Y-121567266D01*
X124520047Y-121380861D01*
X124520045Y-121380858D01*
X124429186Y-121289999D01*
X126644341Y-121289999D01*
X126644341Y-121290000D01*
X126664936Y-121525403D01*
X126664938Y-121525413D01*
X126726094Y-121753655D01*
X126726096Y-121753659D01*
X126726097Y-121753663D01*
X126757031Y-121820000D01*
X126825965Y-121967830D01*
X126825967Y-121967834D01*
X126961501Y-122161395D01*
X126961506Y-122161402D01*
X127128597Y-122328493D01*
X127128603Y-122328498D01*
X127314158Y-122458425D01*
X127357783Y-122513002D01*
X127364977Y-122582500D01*
X127333454Y-122644855D01*
X127314158Y-122661575D01*
X127128597Y-122791505D01*
X126961505Y-122958597D01*
X126825965Y-123152169D01*
X126825964Y-123152171D01*
X126726098Y-123366335D01*
X126726094Y-123366344D01*
X126664938Y-123594586D01*
X126664936Y-123594596D01*
X126644341Y-123829999D01*
X126644341Y-123830000D01*
X126664936Y-124065403D01*
X126664938Y-124065413D01*
X126726094Y-124293655D01*
X126726096Y-124293659D01*
X126726097Y-124293663D01*
X126730761Y-124303664D01*
X126825965Y-124507830D01*
X126825967Y-124507834D01*
X126934281Y-124662521D01*
X126961501Y-124701396D01*
X126961506Y-124701402D01*
X127083430Y-124823326D01*
X127116915Y-124884649D01*
X127111931Y-124954341D01*
X127070059Y-125010274D01*
X127039083Y-125027189D01*
X126907669Y-125076203D01*
X126907664Y-125076206D01*
X126792455Y-125162452D01*
X126792452Y-125162455D01*
X126706206Y-125277664D01*
X126706202Y-125277671D01*
X126655908Y-125412517D01*
X126649501Y-125472116D01*
X126649501Y-125472123D01*
X126649500Y-125472135D01*
X126649500Y-127267870D01*
X126649501Y-127267876D01*
X126655908Y-127327483D01*
X126706202Y-127462328D01*
X126706206Y-127462335D01*
X126792452Y-127577544D01*
X126792455Y-127577547D01*
X126907664Y-127663793D01*
X126907671Y-127663797D01*
X127042517Y-127714091D01*
X127042516Y-127714091D01*
X127049444Y-127714835D01*
X127102127Y-127720500D01*
X128897872Y-127720499D01*
X128957483Y-127714091D01*
X129092331Y-127663796D01*
X129207546Y-127577546D01*
X129293796Y-127462331D01*
X129344091Y-127327483D01*
X129350500Y-127267873D01*
X129350499Y-125472128D01*
X129344091Y-125412517D01*
X129317605Y-125341505D01*
X129293797Y-125277671D01*
X129293793Y-125277664D01*
X129207547Y-125162455D01*
X129207544Y-125162452D01*
X129092335Y-125076206D01*
X129092328Y-125076202D01*
X128960917Y-125027189D01*
X128904983Y-124985318D01*
X128880566Y-124919853D01*
X128895418Y-124851580D01*
X128916563Y-124823332D01*
X129038495Y-124701401D01*
X129174035Y-124507830D01*
X129273903Y-124293663D01*
X129335063Y-124065408D01*
X129355222Y-123834999D01*
X130344341Y-123834999D01*
X130344341Y-123835000D01*
X130364936Y-124070403D01*
X130364938Y-124070413D01*
X130426094Y-124298655D01*
X130426096Y-124298659D01*
X130426097Y-124298663D01*
X130523633Y-124507830D01*
X130525965Y-124512830D01*
X130525967Y-124512834D01*
X130634281Y-124667521D01*
X130661501Y-124706396D01*
X130661506Y-124706402D01*
X130783818Y-124828714D01*
X130817303Y-124890037D01*
X130812319Y-124959729D01*
X130770447Y-125015662D01*
X130739471Y-125032577D01*
X130607912Y-125081646D01*
X130607906Y-125081649D01*
X130492812Y-125167809D01*
X130492809Y-125167812D01*
X130406649Y-125282906D01*
X130406645Y-125282913D01*
X130356403Y-125417620D01*
X130356401Y-125417627D01*
X130350000Y-125477155D01*
X130350000Y-126125000D01*
X131266988Y-126125000D01*
X131234075Y-126182007D01*
X131200000Y-126309174D01*
X131200000Y-126440826D01*
X131234075Y-126567993D01*
X131266988Y-126625000D01*
X130350000Y-126625000D01*
X130350000Y-127272844D01*
X130356401Y-127332372D01*
X130356403Y-127332379D01*
X130406645Y-127467086D01*
X130406649Y-127467093D01*
X130492809Y-127582187D01*
X130492812Y-127582190D01*
X130607906Y-127668350D01*
X130607913Y-127668354D01*
X130742620Y-127718596D01*
X130742627Y-127718598D01*
X130802155Y-127724999D01*
X130802172Y-127725000D01*
X131450000Y-127725000D01*
X131450000Y-126808012D01*
X131507007Y-126840925D01*
X131634174Y-126875000D01*
X131765826Y-126875000D01*
X131892993Y-126840925D01*
X131950000Y-126808012D01*
X131950000Y-127725000D01*
X132597828Y-127725000D01*
X132597844Y-127724999D01*
X132657372Y-127718598D01*
X132657379Y-127718596D01*
X132792086Y-127668354D01*
X132792093Y-127668350D01*
X132907187Y-127582190D01*
X132907190Y-127582187D01*
X132993350Y-127467093D01*
X132993354Y-127467086D01*
X133043596Y-127332379D01*
X133043598Y-127332372D01*
X133049999Y-127272844D01*
X133050000Y-127272827D01*
X133050000Y-126625000D01*
X132133012Y-126625000D01*
X132165925Y-126567993D01*
X132200000Y-126440826D01*
X132200000Y-126309174D01*
X132165925Y-126182007D01*
X132133012Y-126125000D01*
X133050000Y-126125000D01*
X133050000Y-125477172D01*
X133049999Y-125477155D01*
X133043598Y-125417627D01*
X133043596Y-125417620D01*
X132993354Y-125282913D01*
X132993350Y-125282906D01*
X132907190Y-125167812D01*
X132907187Y-125167809D01*
X132792093Y-125081649D01*
X132792088Y-125081646D01*
X132660528Y-125032577D01*
X132604595Y-124990705D01*
X132580178Y-124925241D01*
X132595030Y-124856968D01*
X132616175Y-124828720D01*
X132738495Y-124706401D01*
X132874035Y-124512830D01*
X132973903Y-124298663D01*
X133035063Y-124070408D01*
X133055222Y-123839999D01*
X134044341Y-123839999D01*
X134044341Y-123840000D01*
X134064936Y-124075403D01*
X134064938Y-124075413D01*
X134126094Y-124303655D01*
X134126096Y-124303659D01*
X134126097Y-124303663D01*
X134221302Y-124507830D01*
X134225965Y-124517830D01*
X134225967Y-124517834D01*
X134334281Y-124672521D01*
X134358000Y-124706396D01*
X134361501Y-124711395D01*
X134361506Y-124711402D01*
X134528597Y-124878493D01*
X134528603Y-124878498D01*
X134714158Y-125008425D01*
X134757783Y-125063002D01*
X134764977Y-125132500D01*
X134733454Y-125194855D01*
X134714158Y-125211575D01*
X134528597Y-125341505D01*
X134361505Y-125508597D01*
X134225965Y-125702169D01*
X134225964Y-125702171D01*
X134126098Y-125916335D01*
X134126094Y-125916344D01*
X134064938Y-126144586D01*
X134064936Y-126144596D01*
X134044341Y-126379999D01*
X134044341Y-126380000D01*
X134064936Y-126615403D01*
X134064938Y-126615413D01*
X134126094Y-126843655D01*
X134126096Y-126843659D01*
X134126097Y-126843663D01*
X134163035Y-126922876D01*
X134225965Y-127057830D01*
X134225967Y-127057834D01*
X134334281Y-127212521D01*
X134361505Y-127251401D01*
X134528599Y-127418495D01*
X134591199Y-127462328D01*
X134722165Y-127554032D01*
X134722167Y-127554033D01*
X134722170Y-127554035D01*
X134936337Y-127653903D01*
X134936343Y-127653904D01*
X134936344Y-127653905D01*
X134973262Y-127663797D01*
X135164592Y-127715063D01*
X135352918Y-127731539D01*
X135399999Y-127735659D01*
X135400000Y-127735659D01*
X135400001Y-127735659D01*
X135439234Y-127732226D01*
X135635408Y-127715063D01*
X135863663Y-127653903D01*
X136077830Y-127554035D01*
X136271401Y-127418495D01*
X136438495Y-127251401D01*
X136574035Y-127057830D01*
X136673903Y-126843663D01*
X136735063Y-126615408D01*
X136755659Y-126380000D01*
X136735063Y-126144592D01*
X136673903Y-125916337D01*
X136574035Y-125702171D01*
X136547965Y-125664938D01*
X136438494Y-125508597D01*
X136271402Y-125341506D01*
X136271396Y-125341501D01*
X136085842Y-125211575D01*
X136042217Y-125156998D01*
X136035023Y-125087500D01*
X136066546Y-125025145D01*
X136085842Y-125008425D01*
X136163082Y-124954341D01*
X136271401Y-124878495D01*
X136438495Y-124711401D01*
X136574035Y-124517830D01*
X136673903Y-124303663D01*
X136735063Y-124075408D01*
X136755659Y-123840000D01*
X136755221Y-123834999D01*
X136735063Y-123604596D01*
X136735063Y-123604592D01*
X136673903Y-123376337D01*
X136574035Y-123162171D01*
X136501668Y-123058820D01*
X136438496Y-122968600D01*
X136428493Y-122958597D01*
X136316567Y-122846671D01*
X136283084Y-122785351D01*
X136288068Y-122715659D01*
X136329939Y-122659725D01*
X136360915Y-122642810D01*
X136492331Y-122593796D01*
X136607546Y-122507546D01*
X136693796Y-122392331D01*
X136744091Y-122257483D01*
X136750500Y-122197873D01*
X136750499Y-120402128D01*
X136744091Y-120342517D01*
X136740442Y-120332734D01*
X136693797Y-120207671D01*
X136693793Y-120207664D01*
X136607547Y-120092455D01*
X136607544Y-120092452D01*
X136492335Y-120006206D01*
X136492328Y-120006202D01*
X136357482Y-119955908D01*
X136357483Y-119955908D01*
X136297883Y-119949501D01*
X136297881Y-119949500D01*
X136297873Y-119949500D01*
X136297864Y-119949500D01*
X134502129Y-119949500D01*
X134502123Y-119949501D01*
X134442516Y-119955908D01*
X134307671Y-120006202D01*
X134307664Y-120006206D01*
X134192455Y-120092452D01*
X134192452Y-120092455D01*
X134106206Y-120207664D01*
X134106202Y-120207671D01*
X134055908Y-120342517D01*
X134049501Y-120402116D01*
X134049501Y-120402123D01*
X134049500Y-120402135D01*
X134049500Y-122197870D01*
X134049501Y-122197876D01*
X134055908Y-122257483D01*
X134106202Y-122392328D01*
X134106206Y-122392335D01*
X134192452Y-122507544D01*
X134192455Y-122507547D01*
X134307664Y-122593793D01*
X134307671Y-122593797D01*
X134439081Y-122642810D01*
X134495015Y-122684681D01*
X134519432Y-122750145D01*
X134504580Y-122818418D01*
X134483430Y-122846673D01*
X134361503Y-122968600D01*
X134225965Y-123162169D01*
X134225964Y-123162171D01*
X134138316Y-123350134D01*
X134128430Y-123371335D01*
X134126098Y-123376335D01*
X134126094Y-123376344D01*
X134064938Y-123604586D01*
X134064936Y-123604596D01*
X134044341Y-123839999D01*
X133055222Y-123839999D01*
X133055659Y-123835000D01*
X133055221Y-123829999D01*
X133051539Y-123787918D01*
X133035063Y-123599592D01*
X132973903Y-123371337D01*
X132874035Y-123157171D01*
X132805170Y-123058820D01*
X132738494Y-122963597D01*
X132571402Y-122796506D01*
X132571395Y-122796501D01*
X132564261Y-122791506D01*
X132505192Y-122750145D01*
X132377834Y-122660967D01*
X132377830Y-122660965D01*
X132341644Y-122644091D01*
X132163663Y-122561097D01*
X132163659Y-122561096D01*
X132163655Y-122561094D01*
X131935413Y-122499938D01*
X131935403Y-122499936D01*
X131700001Y-122479341D01*
X131699999Y-122479341D01*
X131464596Y-122499936D01*
X131464586Y-122499938D01*
X131236344Y-122561094D01*
X131236335Y-122561098D01*
X131022171Y-122660964D01*
X131022169Y-122660965D01*
X130828597Y-122796505D01*
X130661505Y-122963597D01*
X130525965Y-123157169D01*
X130525964Y-123157171D01*
X130496645Y-123220047D01*
X130428430Y-123366335D01*
X130426098Y-123371335D01*
X130426094Y-123371344D01*
X130364938Y-123599586D01*
X130364936Y-123599596D01*
X130344341Y-123834999D01*
X129355222Y-123834999D01*
X129355659Y-123830000D01*
X129335063Y-123594592D01*
X129276584Y-123376344D01*
X129273905Y-123366344D01*
X129273904Y-123366343D01*
X129273903Y-123366337D01*
X129174035Y-123152171D01*
X129108671Y-123058820D01*
X129038494Y-122958597D01*
X128871402Y-122791506D01*
X128871396Y-122791501D01*
X128685842Y-122661575D01*
X128642217Y-122606998D01*
X128635023Y-122537500D01*
X128666546Y-122475145D01*
X128685842Y-122458425D01*
X128805850Y-122374394D01*
X128871401Y-122328495D01*
X129038495Y-122161401D01*
X129174035Y-121967830D01*
X129273903Y-121753663D01*
X129335063Y-121525408D01*
X129355659Y-121290000D01*
X129335063Y-121054592D01*
X129273903Y-120826337D01*
X129174035Y-120612171D01*
X129105996Y-120515000D01*
X129038494Y-120418597D01*
X128871402Y-120251506D01*
X128871395Y-120251501D01*
X128677834Y-120115967D01*
X128677830Y-120115965D01*
X128627413Y-120092455D01*
X128463663Y-120016097D01*
X128463659Y-120016096D01*
X128463655Y-120016094D01*
X128235413Y-119954938D01*
X128235403Y-119954936D01*
X128000001Y-119934341D01*
X127999999Y-119934341D01*
X127764596Y-119954936D01*
X127764586Y-119954938D01*
X127536344Y-120016094D01*
X127536335Y-120016098D01*
X127322171Y-120115964D01*
X127322169Y-120115965D01*
X127128597Y-120251505D01*
X126961505Y-120418597D01*
X126825965Y-120612169D01*
X126825964Y-120612171D01*
X126726098Y-120826335D01*
X126726094Y-120826344D01*
X126664938Y-121054586D01*
X126664936Y-121054596D01*
X126644341Y-121289999D01*
X124429186Y-121289999D01*
X124359141Y-121219954D01*
X124172734Y-121089432D01*
X124172728Y-121089429D01*
X124114725Y-121062382D01*
X124062285Y-121016210D01*
X124043133Y-120949017D01*
X124063348Y-120882135D01*
X124114725Y-120837618D01*
X124172734Y-120810568D01*
X124359139Y-120680047D01*
X124520047Y-120519139D01*
X124650568Y-120332734D01*
X124746739Y-120126496D01*
X124805635Y-119906692D01*
X124825468Y-119680000D01*
X124805635Y-119453308D01*
X124746739Y-119233504D01*
X124650568Y-119027266D01*
X124520047Y-118840861D01*
X124520045Y-118840858D01*
X124359141Y-118679954D01*
X124172734Y-118549432D01*
X124172728Y-118549429D01*
X124114725Y-118522382D01*
X124062285Y-118476210D01*
X124043133Y-118409017D01*
X124063348Y-118342135D01*
X124114725Y-118297618D01*
X124172734Y-118270568D01*
X124359139Y-118140047D01*
X124520047Y-117979139D01*
X124650568Y-117792734D01*
X124746739Y-117586496D01*
X124805635Y-117366692D01*
X124825468Y-117140000D01*
X124805635Y-116913308D01*
X124746739Y-116693504D01*
X124650568Y-116487266D01*
X124520047Y-116300861D01*
X124520045Y-116300858D01*
X124359141Y-116139954D01*
X124172734Y-116009432D01*
X124172728Y-116009429D01*
X124114725Y-115982382D01*
X124062285Y-115936210D01*
X124043133Y-115869017D01*
X124063348Y-115802135D01*
X124114725Y-115757618D01*
X124172734Y-115730568D01*
X124359139Y-115600047D01*
X124520047Y-115439139D01*
X124650568Y-115252734D01*
X124746739Y-115046496D01*
X124805635Y-114826692D01*
X124825468Y-114600000D01*
X124805635Y-114373308D01*
X124746739Y-114153504D01*
X124650568Y-113947266D01*
X124520047Y-113760861D01*
X124520045Y-113760858D01*
X124359141Y-113599954D01*
X124172734Y-113469432D01*
X124172732Y-113469431D01*
X123966497Y-113373261D01*
X123966488Y-113373258D01*
X123746697Y-113314366D01*
X123746693Y-113314365D01*
X123746692Y-113314365D01*
X123746691Y-113314364D01*
X123746686Y-113314364D01*
X123520002Y-113294532D01*
X123519998Y-113294532D01*
X123293313Y-113314364D01*
X123293302Y-113314366D01*
X123073511Y-113373258D01*
X123073502Y-113373261D01*
X122867267Y-113469431D01*
X122867265Y-113469432D01*
X122680858Y-113599954D01*
X122519954Y-113760858D01*
X122389432Y-113947265D01*
X122389431Y-113947267D01*
X122293261Y-114153502D01*
X122293258Y-114153511D01*
X122234366Y-114373302D01*
X122234364Y-114373313D01*
X122214532Y-114599998D01*
X117200499Y-114599998D01*
X117200499Y-113752128D01*
X117194091Y-113692517D01*
X117164620Y-113613502D01*
X117143797Y-113557671D01*
X117143793Y-113557664D01*
X117057547Y-113442455D01*
X117057544Y-113442452D01*
X116942335Y-113356206D01*
X116942328Y-113356202D01*
X116807482Y-113305908D01*
X116807483Y-113305908D01*
X116747883Y-113299501D01*
X116747881Y-113299500D01*
X116747873Y-113299500D01*
X116747864Y-113299500D01*
X115052129Y-113299500D01*
X115052123Y-113299501D01*
X114992516Y-113305908D01*
X114857671Y-113356202D01*
X114857664Y-113356206D01*
X114742455Y-113442452D01*
X114742452Y-113442455D01*
X114656206Y-113557664D01*
X114656202Y-113557671D01*
X114605908Y-113692517D01*
X114599501Y-113752116D01*
X114599501Y-113752123D01*
X114599500Y-113752135D01*
X114599500Y-115447870D01*
X114599501Y-115447876D01*
X114605908Y-115507483D01*
X114656202Y-115642328D01*
X114656206Y-115642335D01*
X114742452Y-115757544D01*
X114742455Y-115757547D01*
X114857664Y-115843793D01*
X114857671Y-115843797D01*
X114902618Y-115860561D01*
X114992517Y-115894091D01*
X115027596Y-115897862D01*
X115092144Y-115924599D01*
X115131993Y-115981991D01*
X115134488Y-116051816D01*
X115098836Y-116111905D01*
X115085464Y-116122725D01*
X115060858Y-116139954D01*
X114899954Y-116300858D01*
X114769432Y-116487265D01*
X114769431Y-116487267D01*
X114673261Y-116693502D01*
X114673258Y-116693511D01*
X114614366Y-116913302D01*
X114614364Y-116913313D01*
X114594532Y-117139998D01*
X112650499Y-117139998D01*
X112650499Y-116827128D01*
X112644091Y-116767517D01*
X112616485Y-116693502D01*
X112593797Y-116632671D01*
X112593793Y-116632664D01*
X112507547Y-116517455D01*
X112507544Y-116517452D01*
X112392335Y-116431206D01*
X112392328Y-116431202D01*
X112257482Y-116380908D01*
X112257483Y-116380908D01*
X112197883Y-116374501D01*
X112197881Y-116374500D01*
X112197873Y-116374500D01*
X112197864Y-116374500D01*
X110402129Y-116374500D01*
X110402123Y-116374501D01*
X110342516Y-116380908D01*
X110207671Y-116431202D01*
X110207664Y-116431206D01*
X110092455Y-116517452D01*
X110092452Y-116517455D01*
X110006206Y-116632664D01*
X110006202Y-116632671D01*
X109955908Y-116767517D01*
X109949547Y-116826686D01*
X109949501Y-116827123D01*
X109949500Y-116827135D01*
X106400500Y-116827135D01*
X106400500Y-108979998D01*
X125974532Y-108979998D01*
X125974532Y-108980001D01*
X125994364Y-109206686D01*
X125994366Y-109206697D01*
X126053258Y-109426488D01*
X126053261Y-109426497D01*
X126149431Y-109632732D01*
X126149432Y-109632734D01*
X126279954Y-109819141D01*
X126440858Y-109980045D01*
X126440861Y-109980047D01*
X126627266Y-110110568D01*
X126684681Y-110137341D01*
X126685275Y-110137618D01*
X126737714Y-110183791D01*
X126756866Y-110250984D01*
X126736650Y-110317865D01*
X126685275Y-110362382D01*
X126627267Y-110389431D01*
X126627265Y-110389432D01*
X126440858Y-110519954D01*
X126279954Y-110680858D01*
X126149432Y-110867265D01*
X126149431Y-110867267D01*
X126053261Y-111073502D01*
X126053258Y-111073511D01*
X125994366Y-111293302D01*
X125994364Y-111293313D01*
X125974532Y-111519998D01*
X125974532Y-111520001D01*
X125994364Y-111746686D01*
X125994366Y-111746697D01*
X126053258Y-111966488D01*
X126053261Y-111966497D01*
X126149431Y-112172732D01*
X126149432Y-112172734D01*
X126279954Y-112359141D01*
X126440858Y-112520045D01*
X126440861Y-112520047D01*
X126627266Y-112650568D01*
X126685275Y-112677618D01*
X126737714Y-112723791D01*
X126756866Y-112790984D01*
X126736650Y-112857865D01*
X126685275Y-112902382D01*
X126627267Y-112929431D01*
X126627265Y-112929432D01*
X126440858Y-113059954D01*
X126279954Y-113220858D01*
X126149432Y-113407265D01*
X126149431Y-113407267D01*
X126053261Y-113613502D01*
X126053258Y-113613511D01*
X125994366Y-113833302D01*
X125994364Y-113833313D01*
X125974532Y-114059998D01*
X125974532Y-114060001D01*
X125994364Y-114286686D01*
X125994366Y-114286697D01*
X126053258Y-114506488D01*
X126053261Y-114506497D01*
X126149431Y-114712732D01*
X126149432Y-114712734D01*
X126279954Y-114899141D01*
X126440858Y-115060045D01*
X126480914Y-115088092D01*
X126627266Y-115190568D01*
X126650384Y-115201348D01*
X126685275Y-115217618D01*
X126737714Y-115263791D01*
X126756866Y-115330984D01*
X126736650Y-115397865D01*
X126685275Y-115442381D01*
X126673506Y-115447870D01*
X126627267Y-115469431D01*
X126627265Y-115469432D01*
X126440858Y-115599954D01*
X126279954Y-115760858D01*
X126149432Y-115947265D01*
X126149431Y-115947267D01*
X126053261Y-116153502D01*
X126053258Y-116153511D01*
X125994366Y-116373302D01*
X125994364Y-116373313D01*
X125974532Y-116599998D01*
X125974532Y-116600001D01*
X125994364Y-116826686D01*
X125994366Y-116826697D01*
X126053258Y-117046488D01*
X126053261Y-117046497D01*
X126149431Y-117252732D01*
X126149432Y-117252734D01*
X126279954Y-117439141D01*
X126440858Y-117600045D01*
X126440861Y-117600047D01*
X126627266Y-117730568D01*
X126833504Y-117826739D01*
X127053308Y-117885635D01*
X127215230Y-117899801D01*
X127279998Y-117905468D01*
X127280000Y-117905468D01*
X127280002Y-117905468D01*
X127336807Y-117900498D01*
X127506692Y-117885635D01*
X127726496Y-117826739D01*
X127932734Y-117730568D01*
X128119139Y-117600047D01*
X128280047Y-117439139D01*
X128410568Y-117252734D01*
X128506739Y-117046496D01*
X128565635Y-116826692D01*
X128585468Y-116600000D01*
X128565635Y-116373308D01*
X128506739Y-116153504D01*
X128410568Y-115947266D01*
X128280047Y-115760861D01*
X128280045Y-115760858D01*
X128119141Y-115599954D01*
X127932734Y-115469432D01*
X127932728Y-115469429D01*
X127886501Y-115447873D01*
X127874724Y-115442381D01*
X127822285Y-115396210D01*
X127803133Y-115329017D01*
X127823348Y-115262135D01*
X127874725Y-115217618D01*
X127932734Y-115190568D01*
X128119139Y-115060047D01*
X128280047Y-114899139D01*
X128410568Y-114712734D01*
X128506739Y-114506496D01*
X128565635Y-114286692D01*
X128585468Y-114060000D01*
X128565635Y-113833308D01*
X128506739Y-113613504D01*
X128410568Y-113407266D01*
X128280047Y-113220861D01*
X128280045Y-113220858D01*
X128119141Y-113059954D01*
X127932734Y-112929432D01*
X127932728Y-112929429D01*
X127874725Y-112902382D01*
X127822285Y-112856210D01*
X127803133Y-112789017D01*
X127823348Y-112722135D01*
X127874725Y-112677618D01*
X127932734Y-112650568D01*
X128119139Y-112520047D01*
X128280047Y-112359139D01*
X128410568Y-112172734D01*
X128506739Y-111966496D01*
X128565635Y-111746692D01*
X128585468Y-111520000D01*
X128585468Y-111519998D01*
X133594532Y-111519998D01*
X133594532Y-111520001D01*
X133614364Y-111746686D01*
X133614366Y-111746697D01*
X133673258Y-111966488D01*
X133673261Y-111966497D01*
X133769431Y-112172732D01*
X133769432Y-112172734D01*
X133899954Y-112359141D01*
X134060858Y-112520045D01*
X134060861Y-112520047D01*
X134247266Y-112650568D01*
X134305275Y-112677618D01*
X134357714Y-112723791D01*
X134376866Y-112790984D01*
X134356650Y-112857865D01*
X134305275Y-112902382D01*
X134247267Y-112929431D01*
X134247265Y-112929432D01*
X134060858Y-113059954D01*
X133899954Y-113220858D01*
X133769432Y-113407265D01*
X133769431Y-113407267D01*
X133673261Y-113613502D01*
X133673258Y-113613511D01*
X133614366Y-113833302D01*
X133614364Y-113833313D01*
X133594532Y-114059998D01*
X133594532Y-114060001D01*
X133614364Y-114286686D01*
X133614366Y-114286697D01*
X133673258Y-114506488D01*
X133673261Y-114506497D01*
X133769431Y-114712732D01*
X133769432Y-114712734D01*
X133899954Y-114899141D01*
X134060858Y-115060045D01*
X134085462Y-115077273D01*
X134129087Y-115131849D01*
X134136281Y-115201348D01*
X134104758Y-115263703D01*
X134044529Y-115299117D01*
X134027593Y-115302138D01*
X133992516Y-115305908D01*
X133857671Y-115356202D01*
X133857664Y-115356206D01*
X133742455Y-115442452D01*
X133742452Y-115442455D01*
X133656206Y-115557664D01*
X133656202Y-115557671D01*
X133605908Y-115692517D01*
X133599501Y-115752116D01*
X133599501Y-115752123D01*
X133599500Y-115752135D01*
X133599500Y-117447870D01*
X133599501Y-117447876D01*
X133605908Y-117507483D01*
X133656202Y-117642328D01*
X133656206Y-117642335D01*
X133742452Y-117757544D01*
X133742455Y-117757547D01*
X133857664Y-117843793D01*
X133857671Y-117843797D01*
X133992517Y-117894091D01*
X133992516Y-117894091D01*
X133999444Y-117894835D01*
X134052127Y-117900500D01*
X135747872Y-117900499D01*
X135807483Y-117894091D01*
X135942331Y-117843796D01*
X136057546Y-117757546D01*
X136143796Y-117642331D01*
X136194091Y-117507483D01*
X136200500Y-117447873D01*
X136200499Y-115752128D01*
X136194091Y-115692517D01*
X136175374Y-115642335D01*
X136143797Y-115557671D01*
X136143793Y-115557664D01*
X136057547Y-115442455D01*
X136057544Y-115442452D01*
X135942335Y-115356206D01*
X135942328Y-115356202D01*
X135807482Y-115305908D01*
X135807483Y-115305908D01*
X135772404Y-115302137D01*
X135707853Y-115275399D01*
X135668005Y-115218006D01*
X135665512Y-115148181D01*
X135701165Y-115088092D01*
X135714539Y-115077272D01*
X135739140Y-115060046D01*
X135900045Y-114899141D01*
X135900047Y-114899139D01*
X136030568Y-114712734D01*
X136126739Y-114506496D01*
X136185635Y-114286692D01*
X136205468Y-114060000D01*
X136185635Y-113833308D01*
X136126739Y-113613504D01*
X136030568Y-113407266D01*
X135900047Y-113220861D01*
X135900045Y-113220858D01*
X135739141Y-113059954D01*
X135552734Y-112929432D01*
X135552728Y-112929429D01*
X135494725Y-112902382D01*
X135442285Y-112856210D01*
X135423133Y-112789017D01*
X135443348Y-112722135D01*
X135494725Y-112677618D01*
X135552734Y-112650568D01*
X135739139Y-112520047D01*
X135900047Y-112359139D01*
X136030568Y-112172734D01*
X136126739Y-111966496D01*
X136185635Y-111746692D01*
X136205468Y-111520000D01*
X136185635Y-111293308D01*
X136126739Y-111073504D01*
X136030568Y-110867266D01*
X135900047Y-110680861D01*
X135900045Y-110680858D01*
X135739141Y-110519954D01*
X135552734Y-110389432D01*
X135552732Y-110389431D01*
X135494725Y-110362382D01*
X135494132Y-110362105D01*
X135441694Y-110315934D01*
X135422542Y-110248740D01*
X135442758Y-110181859D01*
X135494134Y-110137341D01*
X135552484Y-110110132D01*
X135738820Y-109979657D01*
X135899657Y-109818820D01*
X136030134Y-109632482D01*
X136126265Y-109426326D01*
X136126269Y-109426317D01*
X136178872Y-109230000D01*
X135215686Y-109230000D01*
X135220080Y-109225606D01*
X135272741Y-109134394D01*
X135300000Y-109032661D01*
X135300000Y-108927339D01*
X135272741Y-108825606D01*
X135220080Y-108734394D01*
X135215686Y-108730000D01*
X136178872Y-108730000D01*
X136178872Y-108729999D01*
X136126269Y-108533682D01*
X136126265Y-108533673D01*
X136030134Y-108327517D01*
X135899657Y-108141179D01*
X135738820Y-107980342D01*
X135552482Y-107849865D01*
X135346328Y-107753734D01*
X135150000Y-107701127D01*
X135150000Y-108664314D01*
X135145606Y-108659920D01*
X135054394Y-108607259D01*
X134952661Y-108580000D01*
X134847339Y-108580000D01*
X134745606Y-108607259D01*
X134654394Y-108659920D01*
X134650000Y-108664314D01*
X134650000Y-107701127D01*
X134453671Y-107753734D01*
X134247517Y-107849865D01*
X134061179Y-107980342D01*
X133900342Y-108141179D01*
X133769865Y-108327517D01*
X133673734Y-108533673D01*
X133673730Y-108533682D01*
X133621127Y-108729999D01*
X133621128Y-108730000D01*
X134584314Y-108730000D01*
X134579920Y-108734394D01*
X134527259Y-108825606D01*
X134500000Y-108927339D01*
X134500000Y-109032661D01*
X134527259Y-109134394D01*
X134579920Y-109225606D01*
X134584314Y-109230000D01*
X133621128Y-109230000D01*
X133673730Y-109426317D01*
X133673734Y-109426326D01*
X133769865Y-109632482D01*
X133900342Y-109818820D01*
X134061179Y-109979657D01*
X134247518Y-110110134D01*
X134247520Y-110110135D01*
X134305865Y-110137342D01*
X134358305Y-110183514D01*
X134377457Y-110250707D01*
X134357242Y-110317589D01*
X134305867Y-110362105D01*
X134247268Y-110389431D01*
X134247264Y-110389433D01*
X134060858Y-110519954D01*
X133899954Y-110680858D01*
X133769432Y-110867265D01*
X133769431Y-110867267D01*
X133673261Y-111073502D01*
X133673258Y-111073511D01*
X133614366Y-111293302D01*
X133614364Y-111293313D01*
X133594532Y-111519998D01*
X128585468Y-111519998D01*
X128565635Y-111293308D01*
X128506739Y-111073504D01*
X128410568Y-110867266D01*
X128280047Y-110680861D01*
X128280045Y-110680858D01*
X128119141Y-110519954D01*
X127932734Y-110389432D01*
X127932728Y-110389429D01*
X127874725Y-110362382D01*
X127822285Y-110316210D01*
X127803133Y-110249017D01*
X127823348Y-110182135D01*
X127874725Y-110137618D01*
X127875319Y-110137341D01*
X127932734Y-110110568D01*
X128119139Y-109980047D01*
X128280047Y-109819139D01*
X128410568Y-109632734D01*
X128506739Y-109426496D01*
X128565635Y-109206692D01*
X128585468Y-108980000D01*
X128565635Y-108753308D01*
X128506739Y-108533504D01*
X128410568Y-108327266D01*
X128286112Y-108149523D01*
X128280045Y-108140858D01*
X128119141Y-107979954D01*
X127932734Y-107849432D01*
X127932732Y-107849431D01*
X127726497Y-107753261D01*
X127726488Y-107753258D01*
X127506697Y-107694366D01*
X127506693Y-107694365D01*
X127506692Y-107694365D01*
X127506691Y-107694364D01*
X127506686Y-107694364D01*
X127280002Y-107674532D01*
X127279998Y-107674532D01*
X127053313Y-107694364D01*
X127053302Y-107694366D01*
X126833511Y-107753258D01*
X126833502Y-107753261D01*
X126627267Y-107849431D01*
X126627265Y-107849432D01*
X126440858Y-107979954D01*
X126279954Y-108140858D01*
X126149432Y-108327265D01*
X126149431Y-108327267D01*
X126053261Y-108533502D01*
X126053258Y-108533511D01*
X125994366Y-108753302D01*
X125994364Y-108753313D01*
X125974532Y-108979998D01*
X106400500Y-108979998D01*
X106400500Y-107799996D01*
X111594435Y-107799996D01*
X111594435Y-107800003D01*
X111614630Y-107979249D01*
X111614631Y-107979254D01*
X111674211Y-108149523D01*
X111737045Y-108249522D01*
X111770184Y-108302262D01*
X111897738Y-108429816D01*
X112050478Y-108525789D01*
X112121098Y-108550500D01*
X112220745Y-108585368D01*
X112220750Y-108585369D01*
X112399996Y-108605565D01*
X112400000Y-108605565D01*
X112400004Y-108605565D01*
X112579249Y-108585369D01*
X112579252Y-108585368D01*
X112579255Y-108585368D01*
X112659017Y-108557457D01*
X112699972Y-108550500D01*
X119894932Y-108550500D01*
X119960904Y-108569506D01*
X120050477Y-108625789D01*
X120050481Y-108625790D01*
X120220737Y-108685366D01*
X120220743Y-108685367D01*
X120220745Y-108685368D01*
X120220746Y-108685368D01*
X120220750Y-108685369D01*
X120399996Y-108705565D01*
X120400000Y-108705565D01*
X120400004Y-108705565D01*
X120579249Y-108685369D01*
X120579252Y-108685368D01*
X120579255Y-108685368D01*
X120749522Y-108625789D01*
X120902262Y-108529816D01*
X121029816Y-108402262D01*
X121125789Y-108249522D01*
X121185368Y-108079255D01*
X121196513Y-107980342D01*
X121205565Y-107900003D01*
X121205565Y-107899996D01*
X121185369Y-107720750D01*
X121185368Y-107720745D01*
X121125788Y-107550476D01*
X121062955Y-107450478D01*
X121029816Y-107397738D01*
X120902262Y-107270184D01*
X120749524Y-107174212D01*
X120749523Y-107174211D01*
X120716948Y-107162812D01*
X120690432Y-107153534D01*
X120662499Y-107139596D01*
X120655500Y-107134919D01*
X120655491Y-107134914D01*
X120518913Y-107078342D01*
X120518907Y-107078340D01*
X120373920Y-107049500D01*
X120373918Y-107049500D01*
X112699972Y-107049500D01*
X112659017Y-107042542D01*
X112579254Y-107014631D01*
X112579249Y-107014630D01*
X112400004Y-106994435D01*
X112399996Y-106994435D01*
X112220750Y-107014630D01*
X112220745Y-107014631D01*
X112050476Y-107074211D01*
X111897737Y-107170184D01*
X111770184Y-107297737D01*
X111674211Y-107450476D01*
X111614631Y-107620745D01*
X111614630Y-107620750D01*
X111594435Y-107799996D01*
X106400500Y-107799996D01*
X106400500Y-104724500D01*
X106420185Y-104657461D01*
X106472989Y-104611706D01*
X106524500Y-104600500D01*
X138775500Y-104600500D01*
X138842539Y-104620185D01*
G37*
%TD.AperFunction*%
%TD*%
M02*
