%TF.GenerationSoftware,KiCad,Pcbnew,7.0.7*%
%TF.CreationDate,2024-04-15T16:49:56-05:00*%
%TF.ProjectId,Rev2.1,52657632-2e31-42e6-9b69-6361645f7063,rev?*%
%TF.SameCoordinates,Original*%
%TF.FileFunction,Soldermask,Top*%
%TF.FilePolarity,Negative*%
%FSLAX46Y46*%
G04 Gerber Fmt 4.6, Leading zero omitted, Abs format (unit mm)*
G04 Created by KiCad (PCBNEW 7.0.7) date 2024-04-15 16:49:56*
%MOMM*%
%LPD*%
G01*
G04 APERTURE LIST*
G04 Aperture macros list*
%AMRoundRect*
0 Rectangle with rounded corners*
0 $1 Rounding radius*
0 $2 $3 $4 $5 $6 $7 $8 $9 X,Y pos of 4 corners*
0 Add a 4 corners polygon primitive as box body*
4,1,4,$2,$3,$4,$5,$6,$7,$8,$9,$2,$3,0*
0 Add four circle primitives for the rounded corners*
1,1,$1+$1,$2,$3*
1,1,$1+$1,$4,$5*
1,1,$1+$1,$6,$7*
1,1,$1+$1,$8,$9*
0 Add four rect primitives between the rounded corners*
20,1,$1+$1,$2,$3,$4,$5,0*
20,1,$1+$1,$4,$5,$6,$7,0*
20,1,$1+$1,$6,$7,$8,$9,0*
20,1,$1+$1,$8,$9,$2,$3,0*%
G04 Aperture macros list end*
%ADD10RoundRect,0.237500X0.300000X0.237500X-0.300000X0.237500X-0.300000X-0.237500X0.300000X-0.237500X0*%
%ADD11RoundRect,0.237500X0.237500X-0.300000X0.237500X0.300000X-0.237500X0.300000X-0.237500X-0.300000X0*%
%ADD12RoundRect,0.160000X0.197500X0.160000X-0.197500X0.160000X-0.197500X-0.160000X0.197500X-0.160000X0*%
%ADD13RoundRect,0.237500X0.237500X-0.250000X0.237500X0.250000X-0.237500X0.250000X-0.237500X-0.250000X0*%
%ADD14RoundRect,0.150000X-0.875000X-0.150000X0.875000X-0.150000X0.875000X0.150000X-0.875000X0.150000X0*%
%ADD15RoundRect,0.237500X0.287500X0.237500X-0.287500X0.237500X-0.287500X-0.237500X0.287500X-0.237500X0*%
%ADD16RoundRect,0.237500X-0.300000X-0.237500X0.300000X-0.237500X0.300000X0.237500X-0.300000X0.237500X0*%
%ADD17C,0.900000*%
%ADD18R,2.500000X0.500000*%
%ADD19R,2.500000X2.000000*%
%ADD20RoundRect,0.237500X0.250000X0.237500X-0.250000X0.237500X-0.250000X-0.237500X0.250000X-0.237500X0*%
%ADD21C,0.800000*%
%ADD22C,6.400000*%
%ADD23RoundRect,0.237500X-0.237500X0.250000X-0.237500X-0.250000X0.237500X-0.250000X0.237500X0.250000X0*%
%ADD24RoundRect,0.150000X0.150000X-0.825000X0.150000X0.825000X-0.150000X0.825000X-0.150000X-0.825000X0*%
%ADD25RoundRect,0.237500X-0.237500X0.300000X-0.237500X-0.300000X0.237500X-0.300000X0.237500X0.300000X0*%
%ADD26RoundRect,0.237500X-0.250000X-0.237500X0.250000X-0.237500X0.250000X0.237500X-0.250000X0.237500X0*%
%ADD27C,0.650000*%
%ADD28R,1.150000X0.600000*%
%ADD29R,1.150000X0.300000*%
%ADD30O,2.100000X1.000000*%
%ADD31O,1.800000X1.000000*%
%ADD32R,1.700000X1.700000*%
%ADD33O,1.700000X1.700000*%
%ADD34R,1.200000X1.400000*%
%ADD35C,1.100000*%
%ADD36R,2.200000X2.200000*%
%ADD37C,2.200000*%
%ADD38R,2.600000X2.600000*%
%ADD39C,2.600000*%
%ADD40R,2.100000X1.800000*%
%ADD41RoundRect,0.102000X-0.380000X0.835000X-0.380000X-0.835000X0.380000X-0.835000X0.380000X0.835000X0*%
%ADD42RoundRect,0.102000X0.380000X-0.835000X0.380000X0.835000X-0.380000X0.835000X-0.380000X-0.835000X0*%
%ADD43R,1.300000X1.550000*%
%ADD44RoundRect,0.062500X0.375000X0.062500X-0.375000X0.062500X-0.375000X-0.062500X0.375000X-0.062500X0*%
%ADD45RoundRect,0.062500X0.062500X0.375000X-0.062500X0.375000X-0.062500X-0.375000X0.062500X-0.375000X0*%
%ADD46R,2.500000X2.500000*%
%ADD47R,0.500000X0.375000*%
%ADD48R,0.650000X0.300000*%
%ADD49RoundRect,0.150000X0.512500X0.150000X-0.512500X0.150000X-0.512500X-0.150000X0.512500X-0.150000X0*%
%ADD50R,1.560000X0.650000*%
%ADD51RoundRect,0.075000X-0.662500X-0.075000X0.662500X-0.075000X0.662500X0.075000X-0.662500X0.075000X0*%
%ADD52RoundRect,0.075000X-0.075000X-0.662500X0.075000X-0.662500X0.075000X0.662500X-0.075000X0.662500X0*%
%ADD53C,3.250000*%
%ADD54R,1.500000X1.500000*%
%ADD55C,1.500000*%
%ADD56C,2.300000*%
%ADD57RoundRect,0.087500X0.087500X-0.225000X0.087500X0.225000X-0.087500X0.225000X-0.087500X-0.225000X0*%
%ADD58RoundRect,0.087500X0.225000X-0.087500X0.225000X0.087500X-0.225000X0.087500X-0.225000X-0.087500X0*%
%ADD59R,1.000000X0.800000*%
%ADD60R,0.700000X1.500000*%
%ADD61R,2.000000X1.500000*%
%ADD62R,2.000000X3.800000*%
G04 APERTURE END LIST*
D10*
%TO.C,C6*%
X169600000Y-110725000D03*
X167875000Y-110725000D03*
%TD*%
D11*
%TO.C,C43*%
X124450000Y-105937500D03*
X124450000Y-104212500D03*
%TD*%
D12*
%TO.C,R32*%
X169372500Y-121875000D03*
X168177500Y-121875000D03*
%TD*%
D13*
%TO.C,R16*%
X144275000Y-136692500D03*
X144275000Y-134867500D03*
%TD*%
D14*
%TO.C,U7*%
X157685000Y-97560000D03*
X157685000Y-98830000D03*
X157685000Y-100100000D03*
X157685000Y-101370000D03*
X157685000Y-102640000D03*
X157685000Y-103910000D03*
X157685000Y-105180000D03*
X157685000Y-106450000D03*
X157685000Y-107720000D03*
X157685000Y-108990000D03*
X166985000Y-108990000D03*
X166985000Y-107720000D03*
X166985000Y-106450000D03*
X166985000Y-105180000D03*
X166985000Y-103910000D03*
X166985000Y-102640000D03*
X166985000Y-101370000D03*
X166985000Y-100100000D03*
X166985000Y-98830000D03*
X166985000Y-97560000D03*
%TD*%
D15*
%TO.C,D2*%
X183750000Y-108360000D03*
X182000000Y-108360000D03*
%TD*%
D16*
%TO.C,C39*%
X135562500Y-85000000D03*
X137287500Y-85000000D03*
%TD*%
D17*
%TO.C,J6*%
X187375000Y-85500000D03*
X187375000Y-81100000D03*
D18*
X184775000Y-84900000D03*
X184775000Y-84100000D03*
X184775000Y-83300000D03*
X184775000Y-82500000D03*
X184775000Y-81700000D03*
D19*
X184775000Y-87700000D03*
X190275000Y-87700000D03*
X184775000Y-78900000D03*
X190275000Y-78900000D03*
%TD*%
D20*
%TO.C,R28*%
X165312500Y-140300000D03*
X163487500Y-140300000D03*
%TD*%
D21*
%TO.C,H4*%
X184000000Y-64500000D03*
X184702944Y-62802944D03*
X184702944Y-66197056D03*
X186400000Y-62100000D03*
D22*
X186400000Y-64500000D03*
D21*
X186400000Y-66900000D03*
X188097056Y-62802944D03*
X188097056Y-66197056D03*
X188800000Y-64500000D03*
%TD*%
D23*
%TO.C,R39*%
X150750000Y-104837500D03*
X150750000Y-106662500D03*
%TD*%
D24*
%TO.C,U4*%
X145795000Y-78800000D03*
X147065000Y-78800000D03*
X148335000Y-78800000D03*
X149605000Y-78800000D03*
X149605000Y-73850000D03*
X148335000Y-73850000D03*
X147065000Y-73850000D03*
X145795000Y-73850000D03*
%TD*%
D20*
%TO.C,R29*%
X173812500Y-132600000D03*
X171987500Y-132600000D03*
%TD*%
D15*
%TO.C,D1*%
X183750000Y-110950000D03*
X182000000Y-110950000D03*
%TD*%
D13*
%TO.C,R13*%
X133525000Y-136717500D03*
X133525000Y-134892500D03*
%TD*%
D25*
%TO.C,C5*%
X166300000Y-125962500D03*
X166300000Y-127687500D03*
%TD*%
D26*
%TO.C,R38*%
X152337500Y-106500000D03*
X154162500Y-106500000D03*
%TD*%
D27*
%TO.C,P2*%
X186395000Y-102290000D03*
X186395000Y-96510000D03*
D28*
X185320000Y-102600000D03*
X185320000Y-101800000D03*
D29*
X185320000Y-100650000D03*
X185320000Y-99650000D03*
X185320000Y-99150000D03*
X185320000Y-98150000D03*
D28*
X185320000Y-97000000D03*
X185320000Y-96200000D03*
X185320000Y-97000000D03*
D29*
X185320000Y-97650000D03*
X185320000Y-98650000D03*
X185320000Y-100150000D03*
X185320000Y-101150000D03*
D28*
X185320000Y-101800000D03*
D30*
X185895000Y-103720000D03*
D31*
X190075000Y-103720000D03*
D30*
X185895000Y-95080000D03*
D31*
X190075000Y-95080000D03*
%TD*%
D10*
%TO.C,C35*%
X142562500Y-111775000D03*
X140837500Y-111775000D03*
%TD*%
D20*
%TO.C,R36*%
X170112500Y-147000000D03*
X168287500Y-147000000D03*
%TD*%
D32*
%TO.C,J12*%
X176025000Y-61700000D03*
D33*
X178565000Y-61700000D03*
%TD*%
D16*
%TO.C,C10*%
X164937500Y-117600000D03*
X166662500Y-117600000D03*
%TD*%
D34*
%TO.C,Y3*%
X164000000Y-113575000D03*
X164000000Y-115775000D03*
X165700000Y-115775000D03*
X165700000Y-113575000D03*
%TD*%
D25*
%TO.C,C37*%
X150825000Y-87137500D03*
X150825000Y-88862500D03*
%TD*%
D20*
%TO.C,R25*%
X152337500Y-142210000D03*
X150512500Y-142210000D03*
%TD*%
D13*
%TO.C,R14*%
X136975000Y-136667500D03*
X136975000Y-134842500D03*
%TD*%
D20*
%TO.C,R30*%
X170712500Y-144600000D03*
X168887500Y-144600000D03*
%TD*%
D26*
%TO.C,R10*%
X117667500Y-127400000D03*
X119492500Y-127400000D03*
%TD*%
D35*
%TO.C,J2*%
X137050000Y-61685000D03*
X134510000Y-61685000D03*
D36*
X137050000Y-64225000D03*
D37*
X134510000Y-64225000D03*
%TD*%
D26*
%TO.C,R45*%
X121562500Y-79500000D03*
X123387500Y-79500000D03*
%TD*%
D10*
%TO.C,C12*%
X149937500Y-120285000D03*
X148212500Y-120285000D03*
%TD*%
D20*
%TO.C,R24*%
X144300000Y-132250000D03*
X142475000Y-132250000D03*
%TD*%
D16*
%TO.C,C32*%
X170137500Y-74500000D03*
X171862500Y-74500000D03*
%TD*%
D20*
%TO.C,R7*%
X187300000Y-108425000D03*
X185475000Y-108425000D03*
%TD*%
D23*
%TO.C,R35*%
X165350000Y-120287500D03*
X165350000Y-122112500D03*
%TD*%
D38*
%TO.C,J7*%
X108750000Y-72850000D03*
D39*
X108750000Y-77850000D03*
X108750000Y-82850000D03*
X108750000Y-87850000D03*
%TD*%
D40*
%TO.C,Y1*%
X162475000Y-91875000D03*
X159575000Y-91875000D03*
X159575000Y-94175000D03*
X162475000Y-94175000D03*
%TD*%
D21*
%TO.C,H1*%
X105000000Y-64500000D03*
X105702944Y-62802944D03*
X105702944Y-66197056D03*
X107400000Y-62100000D03*
D22*
X107400000Y-64500000D03*
D21*
X107400000Y-66900000D03*
X109097056Y-62802944D03*
X109097056Y-66197056D03*
X109800000Y-64500000D03*
%TD*%
D41*
%TO.C,T1*%
X162195000Y-120878000D03*
X160925000Y-120878000D03*
X159655000Y-120878000D03*
X158385000Y-120878000D03*
X157115000Y-120878000D03*
X155845000Y-120878000D03*
X154575000Y-120878000D03*
X153305000Y-120878000D03*
D42*
X153305000Y-129408000D03*
X154575000Y-129408000D03*
X155845000Y-129408000D03*
X157115000Y-129408000D03*
X158385000Y-129408000D03*
X159655000Y-129408000D03*
X160925000Y-129408000D03*
X162195000Y-129408000D03*
%TD*%
D23*
%TO.C,R18*%
X121905000Y-127387500D03*
X121905000Y-129212500D03*
%TD*%
D21*
%TO.C,H2*%
X105000000Y-146200000D03*
X105702944Y-144502944D03*
X105702944Y-147897056D03*
X107400000Y-143800000D03*
D22*
X107400000Y-146200000D03*
D21*
X107400000Y-148600000D03*
X109097056Y-144502944D03*
X109097056Y-147897056D03*
X109800000Y-146200000D03*
%TD*%
D13*
%TO.C,R5*%
X153825000Y-97137500D03*
X153825000Y-95312500D03*
%TD*%
D26*
%TO.C,R42*%
X150587500Y-111000000D03*
X152412500Y-111000000D03*
%TD*%
D32*
%TO.C,J3*%
X156125000Y-68250000D03*
D33*
X156125000Y-70790000D03*
%TD*%
D32*
%TO.C,J11*%
X179200000Y-68950000D03*
D33*
X179200000Y-71490000D03*
%TD*%
D25*
%TO.C,C27*%
X116750000Y-96637500D03*
X116750000Y-98362500D03*
%TD*%
D43*
%TO.C,SW5*%
X114350000Y-67380000D03*
X114350000Y-59420000D03*
X118850000Y-67380000D03*
X118850000Y-59420000D03*
%TD*%
D20*
%TO.C,R22*%
X140312500Y-132305000D03*
X138487500Y-132305000D03*
%TD*%
D44*
%TO.C,U8*%
X158687500Y-115675000D03*
X158687500Y-115175000D03*
X158687500Y-114675000D03*
X158687500Y-114175000D03*
X158687500Y-113675000D03*
X158687500Y-113175000D03*
D45*
X158000000Y-112487500D03*
X157500000Y-112487500D03*
X157000000Y-112487500D03*
X156500000Y-112487500D03*
X156000000Y-112487500D03*
X155500000Y-112487500D03*
D44*
X154812500Y-113175000D03*
X154812500Y-113675000D03*
X154812500Y-114175000D03*
X154812500Y-114675000D03*
X154812500Y-115175000D03*
X154812500Y-115675000D03*
D45*
X155500000Y-116362500D03*
X156000000Y-116362500D03*
X156500000Y-116362500D03*
X157000000Y-116362500D03*
X157500000Y-116362500D03*
X158000000Y-116362500D03*
D46*
X156750000Y-114425000D03*
%TD*%
D10*
%TO.C,C34*%
X138612500Y-111775000D03*
X136887500Y-111775000D03*
%TD*%
D23*
%TO.C,R1*%
X128975000Y-68512500D03*
X128975000Y-70337500D03*
%TD*%
D11*
%TO.C,C31*%
X121775000Y-100462500D03*
X121775000Y-98737500D03*
%TD*%
%TO.C,C25*%
X124600000Y-98387500D03*
X124600000Y-96662500D03*
%TD*%
D25*
%TO.C,C36*%
X147400000Y-111762500D03*
X147400000Y-113487500D03*
%TD*%
D16*
%TO.C,C8*%
X159237500Y-110850000D03*
X160962500Y-110850000D03*
%TD*%
D32*
%TO.C,J1*%
X125700000Y-68150000D03*
D33*
X125700000Y-70690000D03*
%TD*%
D23*
%TO.C,R2*%
X152975000Y-68612500D03*
X152975000Y-70437500D03*
%TD*%
D38*
%TO.C,J9*%
X129800000Y-145280000D03*
D39*
X134800000Y-145280000D03*
X139800000Y-145280000D03*
X144800000Y-145280000D03*
%TD*%
D32*
%TO.C,J5*%
X160075000Y-73325000D03*
D33*
X160075000Y-70785000D03*
X160075000Y-68245000D03*
%TD*%
D47*
%TO.C,U10*%
X170710000Y-82212500D03*
D48*
X170785000Y-81675000D03*
D47*
X170710000Y-81137500D03*
X169010000Y-81137500D03*
D48*
X168935000Y-81675000D03*
D47*
X169010000Y-82212500D03*
%TD*%
D26*
%TO.C,R44*%
X152337500Y-108000000D03*
X154162500Y-108000000D03*
%TD*%
D16*
%TO.C,C38*%
X140412500Y-85000000D03*
X142137500Y-85000000D03*
%TD*%
D49*
%TO.C,U12*%
X170637500Y-126275000D03*
X170637500Y-125325000D03*
X170637500Y-124375000D03*
X168362500Y-124375000D03*
X168362500Y-125325000D03*
X168362500Y-126275000D03*
%TD*%
D26*
%TO.C,R11*%
X117692500Y-130750000D03*
X119517500Y-130750000D03*
%TD*%
D20*
%TO.C,R43*%
X154162500Y-109500000D03*
X152337500Y-109500000D03*
%TD*%
D10*
%TO.C,C11*%
X149937500Y-121860000D03*
X148212500Y-121860000D03*
%TD*%
D26*
%TO.C,R9*%
X117680000Y-124055000D03*
X119505000Y-124055000D03*
%TD*%
%TO.C,R12*%
X117692500Y-134050000D03*
X119517500Y-134050000D03*
%TD*%
%TO.C,R37*%
X122112500Y-109675000D03*
X123937500Y-109675000D03*
%TD*%
D10*
%TO.C,C41*%
X125362500Y-93000000D03*
X123637500Y-93000000D03*
%TD*%
D50*
%TO.C,U9*%
X170435000Y-88150000D03*
X170435000Y-87200000D03*
X170435000Y-86250000D03*
X167735000Y-86250000D03*
X167735000Y-88150000D03*
%TD*%
D51*
%TO.C,U1*%
X127362500Y-89725000D03*
X127362500Y-90225000D03*
X127362500Y-90725000D03*
X127362500Y-91225000D03*
X127362500Y-91725000D03*
X127362500Y-92225000D03*
X127362500Y-92725000D03*
X127362500Y-93225000D03*
X127362500Y-93725000D03*
X127362500Y-94225000D03*
X127362500Y-94725000D03*
X127362500Y-95225000D03*
X127362500Y-95725000D03*
X127362500Y-96225000D03*
X127362500Y-96725000D03*
X127362500Y-97225000D03*
X127362500Y-97725000D03*
X127362500Y-98225000D03*
X127362500Y-98725000D03*
X127362500Y-99225000D03*
X127362500Y-99725000D03*
X127362500Y-100225000D03*
X127362500Y-100725000D03*
X127362500Y-101225000D03*
X127362500Y-101725000D03*
X127362500Y-102225000D03*
X127362500Y-102725000D03*
X127362500Y-103225000D03*
X127362500Y-103725000D03*
X127362500Y-104225000D03*
X127362500Y-104725000D03*
X127362500Y-105225000D03*
X127362500Y-105725000D03*
X127362500Y-106225000D03*
X127362500Y-106725000D03*
X127362500Y-107225000D03*
D52*
X129275000Y-109137500D03*
X129775000Y-109137500D03*
X130275000Y-109137500D03*
X130775000Y-109137500D03*
X131275000Y-109137500D03*
X131775000Y-109137500D03*
X132275000Y-109137500D03*
X132775000Y-109137500D03*
X133275000Y-109137500D03*
X133775000Y-109137500D03*
X134275000Y-109137500D03*
X134775000Y-109137500D03*
X135275000Y-109137500D03*
X135775000Y-109137500D03*
X136275000Y-109137500D03*
X136775000Y-109137500D03*
X137275000Y-109137500D03*
X137775000Y-109137500D03*
X138275000Y-109137500D03*
X138775000Y-109137500D03*
X139275000Y-109137500D03*
X139775000Y-109137500D03*
X140275000Y-109137500D03*
X140775000Y-109137500D03*
X141275000Y-109137500D03*
X141775000Y-109137500D03*
X142275000Y-109137500D03*
X142775000Y-109137500D03*
X143275000Y-109137500D03*
X143775000Y-109137500D03*
X144275000Y-109137500D03*
X144775000Y-109137500D03*
X145275000Y-109137500D03*
X145775000Y-109137500D03*
X146275000Y-109137500D03*
X146775000Y-109137500D03*
D51*
X148687500Y-107225000D03*
X148687500Y-106725000D03*
X148687500Y-106225000D03*
X148687500Y-105725000D03*
X148687500Y-105225000D03*
X148687500Y-104725000D03*
X148687500Y-104225000D03*
X148687500Y-103725000D03*
X148687500Y-103225000D03*
X148687500Y-102725000D03*
X148687500Y-102225000D03*
X148687500Y-101725000D03*
X148687500Y-101225000D03*
X148687500Y-100725000D03*
X148687500Y-100225000D03*
X148687500Y-99725000D03*
X148687500Y-99225000D03*
X148687500Y-98725000D03*
X148687500Y-98225000D03*
X148687500Y-97725000D03*
X148687500Y-97225000D03*
X148687500Y-96725000D03*
X148687500Y-96225000D03*
X148687500Y-95725000D03*
X148687500Y-95225000D03*
X148687500Y-94725000D03*
X148687500Y-94225000D03*
X148687500Y-93725000D03*
X148687500Y-93225000D03*
X148687500Y-92725000D03*
X148687500Y-92225000D03*
X148687500Y-91725000D03*
X148687500Y-91225000D03*
X148687500Y-90725000D03*
X148687500Y-90225000D03*
X148687500Y-89725000D03*
D52*
X146775000Y-87812500D03*
X146275000Y-87812500D03*
X145775000Y-87812500D03*
X145275000Y-87812500D03*
X144775000Y-87812500D03*
X144275000Y-87812500D03*
X143775000Y-87812500D03*
X143275000Y-87812500D03*
X142775000Y-87812500D03*
X142275000Y-87812500D03*
X141775000Y-87812500D03*
X141275000Y-87812500D03*
X140775000Y-87812500D03*
X140275000Y-87812500D03*
X139775000Y-87812500D03*
X139275000Y-87812500D03*
X138775000Y-87812500D03*
X138275000Y-87812500D03*
X137775000Y-87812500D03*
X137275000Y-87812500D03*
X136775000Y-87812500D03*
X136275000Y-87812500D03*
X135775000Y-87812500D03*
X135275000Y-87812500D03*
X134775000Y-87812500D03*
X134275000Y-87812500D03*
X133775000Y-87812500D03*
X133275000Y-87812500D03*
X132775000Y-87812500D03*
X132275000Y-87812500D03*
X131775000Y-87812500D03*
X131275000Y-87812500D03*
X130775000Y-87812500D03*
X130275000Y-87812500D03*
X129775000Y-87812500D03*
X129275000Y-87812500D03*
%TD*%
D13*
%TO.C,R15*%
X140300000Y-136717500D03*
X140300000Y-134892500D03*
%TD*%
D11*
%TO.C,C2*%
X155346400Y-97077700D03*
X155346400Y-95352700D03*
%TD*%
D20*
%TO.C,R26*%
X150162500Y-126000000D03*
X148337500Y-126000000D03*
%TD*%
D35*
%TO.C,J4*%
X148970000Y-61685000D03*
X146430000Y-61685000D03*
D36*
X148970000Y-64225000D03*
D37*
X146430000Y-64225000D03*
%TD*%
D11*
%TO.C,C40*%
X128775000Y-85612500D03*
X128775000Y-83887500D03*
%TD*%
D38*
%TO.C,J14*%
X108780000Y-93950000D03*
D39*
X108780000Y-98950000D03*
X108780000Y-103950000D03*
X108780000Y-108950000D03*
%TD*%
D20*
%TO.C,R8*%
X173912500Y-102125000D03*
X172087500Y-102125000D03*
%TD*%
D10*
%TO.C,C45*%
X117462500Y-69200000D03*
X115737500Y-69200000D03*
%TD*%
D20*
%TO.C,R4*%
X120162500Y-100500000D03*
X118337500Y-100500000D03*
%TD*%
D25*
%TO.C,C4*%
X164693600Y-92203100D03*
X164693600Y-93928100D03*
%TD*%
D23*
%TO.C,R19*%
X121930000Y-134062500D03*
X121930000Y-135887500D03*
%TD*%
D25*
%TO.C,C23*%
X152200000Y-95387500D03*
X152200000Y-97112500D03*
%TD*%
D53*
%TO.C,J13*%
X186340000Y-133710000D03*
X186340000Y-146410000D03*
D54*
X183800000Y-136500000D03*
D55*
X182020000Y-137516000D03*
X183800000Y-138532000D03*
X182020000Y-139548000D03*
X183800000Y-140564000D03*
X182020000Y-141580000D03*
X183800000Y-142596000D03*
X182020000Y-143612000D03*
X177200000Y-133200000D03*
X177200000Y-135490000D03*
X177200000Y-144630000D03*
X177200000Y-146920000D03*
D56*
X182910000Y-131930000D03*
X182910000Y-148190000D03*
%TD*%
D12*
%TO.C,R33*%
X169497500Y-129000000D03*
X168302500Y-129000000D03*
%TD*%
D10*
%TO.C,C26*%
X171862500Y-65500000D03*
X170137500Y-65500000D03*
%TD*%
D26*
%TO.C,R41*%
X152337500Y-105000000D03*
X154162500Y-105000000D03*
%TD*%
D11*
%TO.C,C3*%
X157226000Y-93724900D03*
X157226000Y-91999900D03*
%TD*%
D20*
%TO.C,R27*%
X150162500Y-127750000D03*
X148337500Y-127750000D03*
%TD*%
D23*
%TO.C,R17*%
X121905000Y-124050000D03*
X121905000Y-125875000D03*
%TD*%
D25*
%TO.C,C33*%
X129500000Y-111887500D03*
X129500000Y-113612500D03*
%TD*%
D34*
%TO.C,Y2*%
X118400000Y-96550000D03*
X118400000Y-98750000D03*
X120100000Y-98750000D03*
X120100000Y-96550000D03*
%TD*%
D32*
%TO.C,J10*%
X178400000Y-127135000D03*
D33*
X178400000Y-124595000D03*
X178400000Y-122055000D03*
X178400000Y-119515000D03*
X178400000Y-116975000D03*
X178400000Y-114435000D03*
X178400000Y-111895000D03*
X178400000Y-109355000D03*
%TD*%
D16*
%TO.C,C9*%
X163932500Y-111720000D03*
X165657500Y-111720000D03*
%TD*%
D12*
%TO.C,R31*%
X169322500Y-120350000D03*
X168127500Y-120350000D03*
%TD*%
D57*
%TO.C,U5*%
X126150000Y-77982500D03*
X126650000Y-77982500D03*
X127150000Y-77982500D03*
X127650000Y-77982500D03*
D58*
X127812500Y-77320000D03*
X127812500Y-76820000D03*
X127812500Y-76320000D03*
D57*
X127650000Y-75657500D03*
X127150000Y-75657500D03*
X126650000Y-75657500D03*
X126150000Y-75657500D03*
D58*
X125987500Y-76320000D03*
X125987500Y-76820000D03*
X125987500Y-77320000D03*
%TD*%
D11*
%TO.C,C30*%
X152375000Y-88862500D03*
X152375000Y-87137500D03*
%TD*%
D47*
%TO.C,U6*%
X173260000Y-100037500D03*
D48*
X173335000Y-99500000D03*
D47*
X173260000Y-98962500D03*
X171560000Y-98962500D03*
D48*
X171485000Y-99500000D03*
D47*
X171560000Y-100037500D03*
%TD*%
D10*
%TO.C,C7*%
X169600000Y-112550000D03*
X167875000Y-112550000D03*
%TD*%
D12*
%TO.C,R34*%
X169522500Y-130675000D03*
X168327500Y-130675000D03*
%TD*%
D13*
%TO.C,R3*%
X122800000Y-68312500D03*
X122800000Y-66487500D03*
%TD*%
D11*
%TO.C,C1*%
X130350000Y-77712500D03*
X130350000Y-75987500D03*
%TD*%
D21*
%TO.C,H3*%
X184000000Y-122900000D03*
X184702944Y-121202944D03*
X184702944Y-124597056D03*
X186400000Y-120500000D03*
D22*
X186400000Y-122900000D03*
D21*
X186400000Y-125300000D03*
X188097056Y-121202944D03*
X188097056Y-124597056D03*
X188800000Y-122900000D03*
%TD*%
D20*
%TO.C,R21*%
X136962500Y-132305000D03*
X135137500Y-132305000D03*
%TD*%
D38*
%TO.C,J8*%
X108550000Y-121550000D03*
D39*
X108550000Y-126550000D03*
X108550000Y-131550000D03*
X108550000Y-136550000D03*
%TD*%
D20*
%TO.C,R20*%
X133537500Y-132317500D03*
X131712500Y-132317500D03*
%TD*%
D11*
%TO.C,C44*%
X122900000Y-105937500D03*
X122900000Y-104212500D03*
%TD*%
D10*
%TO.C,C42*%
X138612500Y-113275000D03*
X136887500Y-113275000D03*
%TD*%
D23*
%TO.C,R40*%
X154750000Y-101587500D03*
X154750000Y-103412500D03*
%TD*%
D24*
%TO.C,U2*%
X132120000Y-78875000D03*
X133390000Y-78875000D03*
X134660000Y-78875000D03*
X135930000Y-78875000D03*
X135930000Y-73925000D03*
X134660000Y-73925000D03*
X133390000Y-73925000D03*
X132120000Y-73925000D03*
%TD*%
D59*
%TO.C,SW3*%
X128450000Y-61055000D03*
X128450000Y-58845000D03*
D17*
X126300000Y-59945000D03*
X123300000Y-59945000D03*
D59*
X121150000Y-61055000D03*
X121150000Y-58845000D03*
D60*
X127050000Y-61705000D03*
X124050000Y-61705000D03*
X122550000Y-61705000D03*
%TD*%
D25*
%TO.C,C28*%
X121400000Y-104212500D03*
X121400000Y-105937500D03*
%TD*%
D20*
%TO.C,R6*%
X187300000Y-110935000D03*
X185475000Y-110935000D03*
%TD*%
D23*
%TO.C,R23*%
X121930000Y-130737500D03*
X121930000Y-132562500D03*
%TD*%
D25*
%TO.C,C24*%
X152225000Y-101162500D03*
X152225000Y-102887500D03*
%TD*%
%TO.C,C29*%
X145875000Y-111762500D03*
X145875000Y-113487500D03*
%TD*%
D13*
%TO.C,R46*%
X126200000Y-83887500D03*
X126200000Y-82062500D03*
%TD*%
D61*
%TO.C,U3*%
X173725000Y-72325000D03*
X173725000Y-70025000D03*
D62*
X167425000Y-70025000D03*
D61*
X173725000Y-67725000D03*
%TD*%
M02*
