M48
; DRILL file {KiCad 7.0.7} date Mon Apr 15 16:50:00 2024
; FORMAT={-:-/ absolute / inch / decimal}
; #@! TF.CreationDate,2024-04-15T16:50:00-05:00
; #@! TF.GenerationSoftware,Kicad,Pcbnew,7.0.7
; #@! TF.FileFunction,Plated,1,4,PTH
FMAT,2
INCH
; #@! TA.AperFunction,Plated,PTH,ComponentDrill
T1C0.0079
; #@! TA.AperFunction,Plated,PTH,ViaDrill
T2C0.0118
; #@! TA.AperFunction,Plated,PTH,ViaDrill
T3C0.0157
; #@! TA.AperFunction,Plated,PTH,ComponentDrill
T4C0.0197
; #@! TA.AperFunction,Plated,PTH,ComponentDrill
T5C0.0236
; #@! TA.AperFunction,Plated,PTH,ComponentDrill
T6C0.0350
; #@! TA.AperFunction,Plated,PTH,ComponentDrill
T7C0.0394
; #@! TA.AperFunction,Plated,PTH,ComponentDrill
T8C0.0433
; #@! TA.AperFunction,Plated,PTH,ComponentDrill
T9C0.0512
; #@! TA.AperFunction,Plated,PTH,ComponentDrill
T10C0.0618
; #@! TA.AperFunction,Plated,PTH,ComponentDrill
T11C0.1260
%
G90
G05
T1
X6.1319Y-4.4656
X6.1319Y-4.5049
X6.1319Y-4.5443
X6.1713Y-4.4656
X6.1713Y-4.5049
X6.1713Y-4.5443
X6.2106Y-4.4656
X6.2106Y-4.5049
X6.2106Y-4.5443
T2
X6.0699Y-4.839
X6.0699Y-4.9123
X6.1014Y-4.839
X6.1014Y-4.9123
X6.3199Y-4.839
X6.3514Y-4.839
X6.355Y-4.9374
X6.3773Y-4.9151
T3
X4.0591Y-2.5394
X4.0591Y-5.748
X4.0906Y-5.6457
X4.0984Y-2.6457
X4.1063Y-2.4291
X4.1142Y-5.878
X4.1398Y-5.0945
X4.1969Y-5.0866
X4.2244Y-2.3819
X4.2283Y-2.6969
X4.2283Y-5.5945
X4.2283Y-5.9173
X4.3465Y-2.4291
X4.3465Y-5.6299
X4.3465Y-5.874
X4.3504Y-2.6654
X4.3937Y-2.5512
X4.3976Y-5.7638
X4.5827Y-2.3386
X4.736Y-4.102
X4.74Y-4.174
X4.752Y-4.9537
X4.752Y-5.0886
X4.752Y-5.2165
X4.753Y-5.3514
X4.758Y-4.32
X4.7788Y-3.8058
X4.7894Y-3.0856
X4.8041Y-3.8425
X4.8228Y-2.4764
X4.8228Y-3.6417
X4.84Y-4.216
X4.8622Y-3.8091
X4.8957Y-3.064
X4.9388Y-4.0992
X4.9508Y-3.8878
X4.9774Y-3.3445
X4.9931Y-3.1102
X5.0039Y-2.4715
X5.022Y-3.304
X5.0246Y-3.372
X5.0266Y-2.9331
X5.0303Y-3.1124
X5.0669Y-3.6339
X5.07Y-4.124
X5.0886Y-2.9724
X5.1033Y-3.2283
X5.1161Y-3.3415
X5.1247Y-4.229
X5.1329Y-3.1112
X5.1378Y-5.2067
X5.1418Y-3.376
X5.1673Y-4.2323
X5.2392Y-3.0404
X5.3061Y-2.997
X5.3248Y-5.1575
X5.3376Y-3.3012
X5.3937Y-4.5079
X5.45Y-3.35
X5.4528Y-4.5079
X5.4528Y-5.1575
X5.4567Y-4.3553
X5.486Y-3.326
X5.5413Y-4.4488
X5.5945Y-3.3051
X5.6102Y-4.4488
X5.6102Y-5.1575
X5.6181Y-4.3524
X5.6988Y-4.4685
X5.7496Y-4.1075
X5.7774Y-4.1354
X5.7795Y-4.5118
X5.7874Y-3.9144
X5.7884Y-3.0443
X5.7904Y-4.9626
X5.7904Y-5.0319
X5.7943Y-3.8622
X5.8Y-3.552
X5.807Y-3.5133
X5.8366Y-4.685
X5.8366Y-4.8524
X5.8435Y-2.9961
X5.8514Y-4.4016
X5.876Y-5.6004
X5.8888Y-4.6821
X5.8907Y-4.3455
X5.935Y-4.0827
X5.935Y-4.685
X5.936Y-3.3829
X5.938Y-3.9419
X5.9705Y-4.56
X5.9723Y-4.5001
X5.992Y-3.706
X5.992Y-3.872
X5.998Y-3.382
X6.0433Y-3.9862
X6.0433Y-4.0551
X6.0476Y-4.3885
X6.0551Y-4.5866
X6.056Y-3.706
X6.0827Y-4.7047
X6.116Y-3.706
X6.1253Y-4.3612
X6.1535Y-4.689
X6.1617Y-4.3792
X6.208Y-3.798
X6.2205Y-3.5531
X6.2251Y-4.3536
X6.2882Y-4.5556
X6.2894Y-3.5433
X6.2992Y-2.5886
X6.314Y-4.4075
X6.3179Y-4.2185
X6.3327Y-4.7008
X6.378Y-3.7697
X6.378Y-5.5236
X6.3976Y-4.498
X6.4075Y-4.1929
X6.4272Y-4.1437
X6.438Y-4.9744
X6.4488Y-3.9843
X6.4862Y-4.3012
X6.4882Y-2.7136
X6.4912Y-4.8497
X6.4961Y-4.1535
X6.5059Y-4.0846
X6.5463Y-5.0669
X6.5709Y-5.7874
X6.5748Y-4.4882
X6.5866Y-5.6929
X6.5876Y-3.5128
X6.5906Y-2.6496
X6.6102Y-4.8465
X6.6339Y-2.5787
X6.6437Y-3.8386
X6.6496Y-4.186
X6.6732Y-4.2421
X6.6732Y-4.311
X6.6752Y-5.185
X6.689Y-3.2746
X6.6929Y-3.1496
X6.7126Y-4.748
X6.7205Y-5.2205
X6.7224Y-4.0256
X6.7224Y-4.3602
X6.7224Y-4.4291
X6.7293Y-4.8474
X6.7421Y-4.2618
X6.7717Y-3.4252
X6.8012Y-3.8583
X6.8169Y-4.1772
X6.872Y-3.9705
X6.8898Y-4.7244
X6.9094Y-2.874
X6.9094Y-4.1634
X6.9094Y-4.2126
X6.9291Y-2.3346
X6.9291Y-2.5315
X6.937Y-4.2697
X6.9685Y-2.815
X7.0315Y-2.3386
X7.0551Y-2.9055
X7.1693Y-4.8346
X7.1732Y-2.5472
X7.189Y-3.1811
X7.1929Y-2.4567
X7.2126Y-4.9567
X7.2244Y-4.7126
X7.2323Y-2.6654
X7.2323Y-4.0118
X7.2362Y-2.4213
X7.2362Y-3.7598
X7.2402Y-3.8189
X7.2402Y-4.0669
X7.2756Y-3.0157
X7.2756Y-3.5433
X7.315Y-4.1339
X7.3189Y-3.6929
X7.3346Y-2.378
X7.3386Y-2.7087
X7.3386Y-4.6732
X7.3386Y-4.9961
X7.372Y-4.2224
X7.372Y-4.4193
X7.3819Y-5.6417
X7.437Y-4.9606
X7.4488Y-2.6614
X7.4528Y-2.4252
X7.4528Y-5.7283
X7.4567Y-4.7244
X7.4803Y-3.689
X7.4843Y-4.1299
X7.4882Y-3.0157
X7.4921Y-3.5433
X7.5Y-4.8465
X7.5079Y-2.5433
T4
X4.1339Y-2.5394
X4.1339Y-5.7559
X4.1615Y-2.4726
X4.1615Y-2.6062
X4.1615Y-5.6891
X4.1615Y-5.8227
X4.2283Y-2.4449
X4.2283Y-2.6339
X4.2283Y-5.6614
X4.2283Y-5.8504
X4.2952Y-2.4726
X4.2952Y-2.6062
X4.2952Y-5.6891
X4.2952Y-5.8227
X4.3228Y-2.5394
X4.3228Y-5.7559
X7.2441Y-2.5394
X7.2441Y-4.8386
X7.2718Y-2.4726
X7.2718Y-2.6062
X7.2718Y-4.7718
X7.2718Y-4.9054
X7.3386Y-2.4449
X7.3386Y-2.6339
X7.3386Y-4.7441
X7.3386Y-4.9331
X7.4054Y-2.4726
X7.4054Y-2.6062
X7.4054Y-4.7718
X7.4054Y-4.9054
X7.4331Y-2.5394
X7.4331Y-4.8386
T6
X6.9764Y-5.2441
X6.9764Y-5.3343
X6.9764Y-5.6941
X6.9764Y-5.7843
X7.1661Y-5.414
X7.1661Y-5.494
X7.1661Y-5.574
X7.1661Y-5.654
X7.2362Y-5.374
X7.2362Y-5.454
X7.2362Y-5.534
X7.2362Y-5.614
T7
X4.9488Y-2.6831
X4.9488Y-2.7831
X6.1467Y-2.687
X6.1467Y-2.787
X6.3022Y-2.6868
X6.3022Y-2.7868
X6.3022Y-2.8868
X6.9301Y-2.4291
X7.0236Y-4.3053
X7.0236Y-4.4053
X7.0236Y-4.5053
X7.0236Y-4.6053
X7.0236Y-4.7053
X7.0236Y-4.8053
X7.0236Y-4.9053
X7.0236Y-5.0053
X7.0301Y-2.4291
X7.0551Y-2.7146
X7.0551Y-2.8146
T8
X5.2957Y-2.5285
X5.3957Y-2.5285
X5.765Y-2.5285
X5.865Y-2.5285
T9
X4.2736Y-4.7854
X4.2736Y-4.9823
X4.2736Y-5.1791
X4.2736Y-5.376
X4.2815Y-2.8681
X4.2815Y-3.065
X4.2815Y-3.2618
X4.2815Y-3.4587
X4.2827Y-3.6988
X4.2827Y-3.8957
X4.2827Y-4.0925
X4.2827Y-4.2894
X5.1102Y-5.7197
X5.3071Y-5.7197
X5.5039Y-5.7197
X5.7008Y-5.7197
T10
X7.2012Y-5.1941
X7.2012Y-5.8343
T11
X4.2283Y-2.5394
X4.2283Y-5.7559
X7.3386Y-2.5394
X7.3386Y-4.8386
T5
G00X7.297Y-3.7433
M15
G01X7.3404Y-3.7433
M16
G05
G00X7.297Y-4.0835
M15
G01X7.3404Y-4.0835
M16
G05
G00X7.4675Y-3.7433
M15
G01X7.499Y-3.7433
M16
G05
G00X7.4675Y-4.0835
M15
G01X7.499Y-4.0835
M16
G05
T0
M30
