%TF.GenerationSoftware,KiCad,Pcbnew,7.0.7*%
%TF.CreationDate,2024-04-15T16:49:56-05:00*%
%TF.ProjectId,Rev2.1,52657632-2e31-42e6-9b69-6361645f7063,rev?*%
%TF.SameCoordinates,Original*%
%TF.FileFunction,Paste,Top*%
%TF.FilePolarity,Positive*%
%FSLAX46Y46*%
G04 Gerber Fmt 4.6, Leading zero omitted, Abs format (unit mm)*
G04 Created by KiCad (PCBNEW 7.0.7) date 2024-04-15 16:49:56*
%MOMM*%
%LPD*%
G01*
G04 APERTURE LIST*
G04 Aperture macros list*
%AMRoundRect*
0 Rectangle with rounded corners*
0 $1 Rounding radius*
0 $2 $3 $4 $5 $6 $7 $8 $9 X,Y pos of 4 corners*
0 Add a 4 corners polygon primitive as box body*
4,1,4,$2,$3,$4,$5,$6,$7,$8,$9,$2,$3,0*
0 Add four circle primitives for the rounded corners*
1,1,$1+$1,$2,$3*
1,1,$1+$1,$4,$5*
1,1,$1+$1,$6,$7*
1,1,$1+$1,$8,$9*
0 Add four rect primitives between the rounded corners*
20,1,$1+$1,$2,$3,$4,$5,0*
20,1,$1+$1,$4,$5,$6,$7,0*
20,1,$1+$1,$6,$7,$8,$9,0*
20,1,$1+$1,$8,$9,$2,$3,0*%
%AMFreePoly0*
4,1,57,0.211049,0.458455,0.230584,0.458455,0.247503,0.448686,0.266375,0.443630,0.280189,0.429815,0.297109,0.420047,0.420048,0.297109,0.429817,0.280187,0.443630,0.266375,0.448686,0.247503,0.458455,0.230584,0.458455,0.211048,0.463512,0.192176,0.463512,-0.192176,0.458455,-0.211048,0.458455,-0.230584,0.448686,-0.247503,0.443630,-0.266375,0.429817,-0.280187,0.420048,-0.297109,
0.297109,-0.420047,0.280189,-0.429815,0.266375,-0.443630,0.247503,-0.448686,0.230584,-0.458455,0.211049,-0.458455,0.192176,-0.463512,-0.192176,-0.463512,-0.211049,-0.458455,-0.230584,-0.458455,-0.247503,-0.448686,-0.266375,-0.443630,-0.280187,-0.429817,-0.297109,-0.420048,-0.420047,-0.297109,-0.429815,-0.280189,-0.443630,-0.266375,-0.448686,-0.247503,-0.458455,-0.230584,-0.458455,-0.211048,
-0.463512,-0.192176,-0.463512,0.192176,-0.458455,0.211048,-0.458455,0.230584,-0.448686,0.247503,-0.443630,0.266375,-0.429815,0.280189,-0.420047,0.297109,-0.297109,0.420048,-0.280187,0.429817,-0.266375,0.443630,-0.247503,0.448686,-0.230584,0.458455,-0.211049,0.458455,-0.192176,0.463512,0.192176,0.463512,0.211049,0.458455,0.211049,0.458455,$1*%
G04 Aperture macros list end*
%ADD10RoundRect,0.237500X0.300000X0.237500X-0.300000X0.237500X-0.300000X-0.237500X0.300000X-0.237500X0*%
%ADD11RoundRect,0.237500X0.237500X-0.300000X0.237500X0.300000X-0.237500X0.300000X-0.237500X-0.300000X0*%
%ADD12RoundRect,0.160000X0.197500X0.160000X-0.197500X0.160000X-0.197500X-0.160000X0.197500X-0.160000X0*%
%ADD13RoundRect,0.237500X0.237500X-0.250000X0.237500X0.250000X-0.237500X0.250000X-0.237500X-0.250000X0*%
%ADD14RoundRect,0.150000X-0.875000X-0.150000X0.875000X-0.150000X0.875000X0.150000X-0.875000X0.150000X0*%
%ADD15RoundRect,0.237500X0.287500X0.237500X-0.287500X0.237500X-0.287500X-0.237500X0.287500X-0.237500X0*%
%ADD16RoundRect,0.237500X-0.300000X-0.237500X0.300000X-0.237500X0.300000X0.237500X-0.300000X0.237500X0*%
%ADD17R,2.500000X0.500000*%
%ADD18R,2.500000X2.000000*%
%ADD19RoundRect,0.237500X0.250000X0.237500X-0.250000X0.237500X-0.250000X-0.237500X0.250000X-0.237500X0*%
%ADD20RoundRect,0.237500X-0.237500X0.250000X-0.237500X-0.250000X0.237500X-0.250000X0.237500X0.250000X0*%
%ADD21RoundRect,0.150000X0.150000X-0.825000X0.150000X0.825000X-0.150000X0.825000X-0.150000X-0.825000X0*%
%ADD22RoundRect,0.237500X-0.237500X0.300000X-0.237500X-0.300000X0.237500X-0.300000X0.237500X0.300000X0*%
%ADD23RoundRect,0.237500X-0.250000X-0.237500X0.250000X-0.237500X0.250000X0.237500X-0.250000X0.237500X0*%
%ADD24R,1.150000X0.600000*%
%ADD25R,1.150000X0.300000*%
%ADD26O,2.100000X1.000000*%
%ADD27O,1.800000X1.000000*%
%ADD28R,1.200000X1.400000*%
%ADD29R,2.100000X1.800000*%
%ADD30R,0.760000X1.670000*%
%ADD31R,1.300000X1.550000*%
%ADD32FreePoly0,180.000000*%
%ADD33RoundRect,0.062500X0.375000X0.062500X-0.375000X0.062500X-0.375000X-0.062500X0.375000X-0.062500X0*%
%ADD34RoundRect,0.062500X0.062500X0.375000X-0.062500X0.375000X-0.062500X-0.375000X0.062500X-0.375000X0*%
%ADD35R,0.500000X0.375000*%
%ADD36R,0.650000X0.300000*%
%ADD37RoundRect,0.150000X0.512500X0.150000X-0.512500X0.150000X-0.512500X-0.150000X0.512500X-0.150000X0*%
%ADD38R,1.560000X0.650000*%
%ADD39RoundRect,0.075000X-0.662500X-0.075000X0.662500X-0.075000X0.662500X0.075000X-0.662500X0.075000X0*%
%ADD40RoundRect,0.075000X-0.075000X-0.662500X0.075000X-0.662500X0.075000X0.662500X-0.075000X0.662500X0*%
%ADD41RoundRect,0.087500X0.087500X-0.225000X0.087500X0.225000X-0.087500X0.225000X-0.087500X-0.225000X0*%
%ADD42RoundRect,0.087500X0.225000X-0.087500X0.225000X0.087500X-0.225000X0.087500X-0.225000X-0.087500X0*%
%ADD43R,1.000000X0.800000*%
%ADD44R,0.700000X1.500000*%
%ADD45R,2.000000X1.500000*%
%ADD46R,2.000000X3.800000*%
G04 APERTURE END LIST*
D10*
%TO.C,C6*%
X169600000Y-110725000D03*
X167875000Y-110725000D03*
%TD*%
D11*
%TO.C,C43*%
X124450000Y-105937500D03*
X124450000Y-104212500D03*
%TD*%
D12*
%TO.C,R32*%
X169372500Y-121875000D03*
X168177500Y-121875000D03*
%TD*%
D13*
%TO.C,R16*%
X144275000Y-136692500D03*
X144275000Y-134867500D03*
%TD*%
D14*
%TO.C,U7*%
X157685000Y-97560000D03*
X157685000Y-98830000D03*
X157685000Y-100100000D03*
X157685000Y-101370000D03*
X157685000Y-102640000D03*
X157685000Y-103910000D03*
X157685000Y-105180000D03*
X157685000Y-106450000D03*
X157685000Y-107720000D03*
X157685000Y-108990000D03*
X166985000Y-108990000D03*
X166985000Y-107720000D03*
X166985000Y-106450000D03*
X166985000Y-105180000D03*
X166985000Y-103910000D03*
X166985000Y-102640000D03*
X166985000Y-101370000D03*
X166985000Y-100100000D03*
X166985000Y-98830000D03*
X166985000Y-97560000D03*
%TD*%
D15*
%TO.C,D2*%
X183750000Y-108360000D03*
X182000000Y-108360000D03*
%TD*%
D16*
%TO.C,C39*%
X135562500Y-85000000D03*
X137287500Y-85000000D03*
%TD*%
D17*
%TO.C,J6*%
X184775000Y-84900000D03*
X184775000Y-84100000D03*
X184775000Y-83300000D03*
X184775000Y-82500000D03*
X184775000Y-81700000D03*
D18*
X184775000Y-87700000D03*
X190275000Y-87700000D03*
X184775000Y-78900000D03*
X190275000Y-78900000D03*
%TD*%
D19*
%TO.C,R28*%
X165312500Y-140300000D03*
X163487500Y-140300000D03*
%TD*%
D20*
%TO.C,R39*%
X150750000Y-104837500D03*
X150750000Y-106662500D03*
%TD*%
D21*
%TO.C,U4*%
X145795000Y-78800000D03*
X147065000Y-78800000D03*
X148335000Y-78800000D03*
X149605000Y-78800000D03*
X149605000Y-73850000D03*
X148335000Y-73850000D03*
X147065000Y-73850000D03*
X145795000Y-73850000D03*
%TD*%
D19*
%TO.C,R29*%
X173812500Y-132600000D03*
X171987500Y-132600000D03*
%TD*%
D15*
%TO.C,D1*%
X183750000Y-110950000D03*
X182000000Y-110950000D03*
%TD*%
D13*
%TO.C,R13*%
X133525000Y-136717500D03*
X133525000Y-134892500D03*
%TD*%
D22*
%TO.C,C5*%
X166300000Y-125962500D03*
X166300000Y-127687500D03*
%TD*%
D23*
%TO.C,R38*%
X152337500Y-106500000D03*
X154162500Y-106500000D03*
%TD*%
D24*
%TO.C,P2*%
X185320000Y-102600000D03*
X185320000Y-101800000D03*
D25*
X185320000Y-100650000D03*
X185320000Y-99650000D03*
X185320000Y-99150000D03*
X185320000Y-98150000D03*
D24*
X185320000Y-97000000D03*
X185320000Y-96200000D03*
X185320000Y-97000000D03*
D25*
X185320000Y-97650000D03*
X185320000Y-98650000D03*
X185320000Y-100150000D03*
X185320000Y-101150000D03*
D24*
X185320000Y-101800000D03*
D26*
X185895000Y-103720000D03*
D27*
X190075000Y-103720000D03*
D26*
X185895000Y-95080000D03*
D27*
X190075000Y-95080000D03*
%TD*%
D10*
%TO.C,C35*%
X142562500Y-111775000D03*
X140837500Y-111775000D03*
%TD*%
D19*
%TO.C,R36*%
X170112500Y-147000000D03*
X168287500Y-147000000D03*
%TD*%
D16*
%TO.C,C10*%
X164937500Y-117600000D03*
X166662500Y-117600000D03*
%TD*%
D28*
%TO.C,Y3*%
X164000000Y-113575000D03*
X164000000Y-115775000D03*
X165700000Y-115775000D03*
X165700000Y-113575000D03*
%TD*%
D22*
%TO.C,C37*%
X150825000Y-87137500D03*
X150825000Y-88862500D03*
%TD*%
D19*
%TO.C,R25*%
X152337500Y-142210000D03*
X150512500Y-142210000D03*
%TD*%
D13*
%TO.C,R14*%
X136975000Y-136667500D03*
X136975000Y-134842500D03*
%TD*%
D19*
%TO.C,R30*%
X170712500Y-144600000D03*
X168887500Y-144600000D03*
%TD*%
D23*
%TO.C,R10*%
X117667500Y-127400000D03*
X119492500Y-127400000D03*
%TD*%
%TO.C,R45*%
X121562500Y-79500000D03*
X123387500Y-79500000D03*
%TD*%
D10*
%TO.C,C12*%
X149937500Y-120285000D03*
X148212500Y-120285000D03*
%TD*%
D19*
%TO.C,R24*%
X144300000Y-132250000D03*
X142475000Y-132250000D03*
%TD*%
D16*
%TO.C,C32*%
X170137500Y-74500000D03*
X171862500Y-74500000D03*
%TD*%
D19*
%TO.C,R7*%
X187300000Y-108425000D03*
X185475000Y-108425000D03*
%TD*%
D20*
%TO.C,R35*%
X165350000Y-120287500D03*
X165350000Y-122112500D03*
%TD*%
D29*
%TO.C,Y1*%
X162475000Y-91875000D03*
X159575000Y-91875000D03*
X159575000Y-94175000D03*
X162475000Y-94175000D03*
%TD*%
D30*
%TO.C,T1*%
X162195000Y-120878000D03*
X160925000Y-120878000D03*
X159655000Y-120878000D03*
X158385000Y-120878000D03*
X157115000Y-120878000D03*
X155845000Y-120878000D03*
X154575000Y-120878000D03*
X153305000Y-120878000D03*
X153305000Y-129408000D03*
X154575000Y-129408000D03*
X155845000Y-129408000D03*
X157115000Y-129408000D03*
X158385000Y-129408000D03*
X159655000Y-129408000D03*
X160925000Y-129408000D03*
X162195000Y-129408000D03*
%TD*%
D20*
%TO.C,R18*%
X121905000Y-127387500D03*
X121905000Y-129212500D03*
%TD*%
D13*
%TO.C,R5*%
X153825000Y-97137500D03*
X153825000Y-95312500D03*
%TD*%
D23*
%TO.C,R42*%
X150587500Y-111000000D03*
X152412500Y-111000000D03*
%TD*%
D22*
%TO.C,C27*%
X116750000Y-96637500D03*
X116750000Y-98362500D03*
%TD*%
D31*
%TO.C,SW5*%
X114350000Y-67380000D03*
X114350000Y-59420000D03*
X118850000Y-67380000D03*
X118850000Y-59420000D03*
%TD*%
D19*
%TO.C,R22*%
X140312500Y-132305000D03*
X138487500Y-132305000D03*
%TD*%
D32*
%TO.C,U8*%
X157250000Y-114925000D03*
X157250000Y-113925000D03*
X156250000Y-114925000D03*
X156250000Y-113925000D03*
D33*
X158687500Y-115675000D03*
X158687500Y-115175000D03*
X158687500Y-114675000D03*
X158687500Y-114175000D03*
X158687500Y-113675000D03*
X158687500Y-113175000D03*
D34*
X158000000Y-112487500D03*
X157500000Y-112487500D03*
X157000000Y-112487500D03*
X156500000Y-112487500D03*
X156000000Y-112487500D03*
X155500000Y-112487500D03*
D33*
X154812500Y-113175000D03*
X154812500Y-113675000D03*
X154812500Y-114175000D03*
X154812500Y-114675000D03*
X154812500Y-115175000D03*
X154812500Y-115675000D03*
D34*
X155500000Y-116362500D03*
X156000000Y-116362500D03*
X156500000Y-116362500D03*
X157000000Y-116362500D03*
X157500000Y-116362500D03*
X158000000Y-116362500D03*
%TD*%
D10*
%TO.C,C34*%
X138612500Y-111775000D03*
X136887500Y-111775000D03*
%TD*%
D20*
%TO.C,R1*%
X128975000Y-68512500D03*
X128975000Y-70337500D03*
%TD*%
D11*
%TO.C,C31*%
X121775000Y-100462500D03*
X121775000Y-98737500D03*
%TD*%
%TO.C,C25*%
X124600000Y-98387500D03*
X124600000Y-96662500D03*
%TD*%
D22*
%TO.C,C36*%
X147400000Y-111762500D03*
X147400000Y-113487500D03*
%TD*%
D16*
%TO.C,C8*%
X159237500Y-110850000D03*
X160962500Y-110850000D03*
%TD*%
D20*
%TO.C,R2*%
X152975000Y-68612500D03*
X152975000Y-70437500D03*
%TD*%
D35*
%TO.C,U10*%
X170710000Y-82212500D03*
D36*
X170785000Y-81675000D03*
D35*
X170710000Y-81137500D03*
X169010000Y-81137500D03*
D36*
X168935000Y-81675000D03*
D35*
X169010000Y-82212500D03*
%TD*%
D23*
%TO.C,R44*%
X152337500Y-108000000D03*
X154162500Y-108000000D03*
%TD*%
D16*
%TO.C,C38*%
X140412500Y-85000000D03*
X142137500Y-85000000D03*
%TD*%
D37*
%TO.C,U12*%
X170637500Y-126275000D03*
X170637500Y-125325000D03*
X170637500Y-124375000D03*
X168362500Y-124375000D03*
X168362500Y-125325000D03*
X168362500Y-126275000D03*
%TD*%
D23*
%TO.C,R11*%
X117692500Y-130750000D03*
X119517500Y-130750000D03*
%TD*%
D19*
%TO.C,R43*%
X154162500Y-109500000D03*
X152337500Y-109500000D03*
%TD*%
D10*
%TO.C,C11*%
X149937500Y-121860000D03*
X148212500Y-121860000D03*
%TD*%
D23*
%TO.C,R9*%
X117680000Y-124055000D03*
X119505000Y-124055000D03*
%TD*%
%TO.C,R12*%
X117692500Y-134050000D03*
X119517500Y-134050000D03*
%TD*%
%TO.C,R37*%
X122112500Y-109675000D03*
X123937500Y-109675000D03*
%TD*%
D10*
%TO.C,C41*%
X125362500Y-93000000D03*
X123637500Y-93000000D03*
%TD*%
D38*
%TO.C,U9*%
X170435000Y-88150000D03*
X170435000Y-87200000D03*
X170435000Y-86250000D03*
X167735000Y-86250000D03*
X167735000Y-88150000D03*
%TD*%
D39*
%TO.C,U1*%
X127362500Y-89725000D03*
X127362500Y-90225000D03*
X127362500Y-90725000D03*
X127362500Y-91225000D03*
X127362500Y-91725000D03*
X127362500Y-92225000D03*
X127362500Y-92725000D03*
X127362500Y-93225000D03*
X127362500Y-93725000D03*
X127362500Y-94225000D03*
X127362500Y-94725000D03*
X127362500Y-95225000D03*
X127362500Y-95725000D03*
X127362500Y-96225000D03*
X127362500Y-96725000D03*
X127362500Y-97225000D03*
X127362500Y-97725000D03*
X127362500Y-98225000D03*
X127362500Y-98725000D03*
X127362500Y-99225000D03*
X127362500Y-99725000D03*
X127362500Y-100225000D03*
X127362500Y-100725000D03*
X127362500Y-101225000D03*
X127362500Y-101725000D03*
X127362500Y-102225000D03*
X127362500Y-102725000D03*
X127362500Y-103225000D03*
X127362500Y-103725000D03*
X127362500Y-104225000D03*
X127362500Y-104725000D03*
X127362500Y-105225000D03*
X127362500Y-105725000D03*
X127362500Y-106225000D03*
X127362500Y-106725000D03*
X127362500Y-107225000D03*
D40*
X129275000Y-109137500D03*
X129775000Y-109137500D03*
X130275000Y-109137500D03*
X130775000Y-109137500D03*
X131275000Y-109137500D03*
X131775000Y-109137500D03*
X132275000Y-109137500D03*
X132775000Y-109137500D03*
X133275000Y-109137500D03*
X133775000Y-109137500D03*
X134275000Y-109137500D03*
X134775000Y-109137500D03*
X135275000Y-109137500D03*
X135775000Y-109137500D03*
X136275000Y-109137500D03*
X136775000Y-109137500D03*
X137275000Y-109137500D03*
X137775000Y-109137500D03*
X138275000Y-109137500D03*
X138775000Y-109137500D03*
X139275000Y-109137500D03*
X139775000Y-109137500D03*
X140275000Y-109137500D03*
X140775000Y-109137500D03*
X141275000Y-109137500D03*
X141775000Y-109137500D03*
X142275000Y-109137500D03*
X142775000Y-109137500D03*
X143275000Y-109137500D03*
X143775000Y-109137500D03*
X144275000Y-109137500D03*
X144775000Y-109137500D03*
X145275000Y-109137500D03*
X145775000Y-109137500D03*
X146275000Y-109137500D03*
X146775000Y-109137500D03*
D39*
X148687500Y-107225000D03*
X148687500Y-106725000D03*
X148687500Y-106225000D03*
X148687500Y-105725000D03*
X148687500Y-105225000D03*
X148687500Y-104725000D03*
X148687500Y-104225000D03*
X148687500Y-103725000D03*
X148687500Y-103225000D03*
X148687500Y-102725000D03*
X148687500Y-102225000D03*
X148687500Y-101725000D03*
X148687500Y-101225000D03*
X148687500Y-100725000D03*
X148687500Y-100225000D03*
X148687500Y-99725000D03*
X148687500Y-99225000D03*
X148687500Y-98725000D03*
X148687500Y-98225000D03*
X148687500Y-97725000D03*
X148687500Y-97225000D03*
X148687500Y-96725000D03*
X148687500Y-96225000D03*
X148687500Y-95725000D03*
X148687500Y-95225000D03*
X148687500Y-94725000D03*
X148687500Y-94225000D03*
X148687500Y-93725000D03*
X148687500Y-93225000D03*
X148687500Y-92725000D03*
X148687500Y-92225000D03*
X148687500Y-91725000D03*
X148687500Y-91225000D03*
X148687500Y-90725000D03*
X148687500Y-90225000D03*
X148687500Y-89725000D03*
D40*
X146775000Y-87812500D03*
X146275000Y-87812500D03*
X145775000Y-87812500D03*
X145275000Y-87812500D03*
X144775000Y-87812500D03*
X144275000Y-87812500D03*
X143775000Y-87812500D03*
X143275000Y-87812500D03*
X142775000Y-87812500D03*
X142275000Y-87812500D03*
X141775000Y-87812500D03*
X141275000Y-87812500D03*
X140775000Y-87812500D03*
X140275000Y-87812500D03*
X139775000Y-87812500D03*
X139275000Y-87812500D03*
X138775000Y-87812500D03*
X138275000Y-87812500D03*
X137775000Y-87812500D03*
X137275000Y-87812500D03*
X136775000Y-87812500D03*
X136275000Y-87812500D03*
X135775000Y-87812500D03*
X135275000Y-87812500D03*
X134775000Y-87812500D03*
X134275000Y-87812500D03*
X133775000Y-87812500D03*
X133275000Y-87812500D03*
X132775000Y-87812500D03*
X132275000Y-87812500D03*
X131775000Y-87812500D03*
X131275000Y-87812500D03*
X130775000Y-87812500D03*
X130275000Y-87812500D03*
X129775000Y-87812500D03*
X129275000Y-87812500D03*
%TD*%
D13*
%TO.C,R15*%
X140300000Y-136717500D03*
X140300000Y-134892500D03*
%TD*%
D11*
%TO.C,C2*%
X155346400Y-97077700D03*
X155346400Y-95352700D03*
%TD*%
D19*
%TO.C,R26*%
X150162500Y-126000000D03*
X148337500Y-126000000D03*
%TD*%
D11*
%TO.C,C40*%
X128775000Y-85612500D03*
X128775000Y-83887500D03*
%TD*%
D19*
%TO.C,R8*%
X173912500Y-102125000D03*
X172087500Y-102125000D03*
%TD*%
D10*
%TO.C,C45*%
X117462500Y-69200000D03*
X115737500Y-69200000D03*
%TD*%
D19*
%TO.C,R4*%
X120162500Y-100500000D03*
X118337500Y-100500000D03*
%TD*%
D22*
%TO.C,C4*%
X164693600Y-92203100D03*
X164693600Y-93928100D03*
%TD*%
D20*
%TO.C,R19*%
X121930000Y-134062500D03*
X121930000Y-135887500D03*
%TD*%
D22*
%TO.C,C23*%
X152200000Y-95387500D03*
X152200000Y-97112500D03*
%TD*%
D12*
%TO.C,R33*%
X169497500Y-129000000D03*
X168302500Y-129000000D03*
%TD*%
D10*
%TO.C,C26*%
X171862500Y-65500000D03*
X170137500Y-65500000D03*
%TD*%
D23*
%TO.C,R41*%
X152337500Y-105000000D03*
X154162500Y-105000000D03*
%TD*%
D11*
%TO.C,C3*%
X157226000Y-93724900D03*
X157226000Y-91999900D03*
%TD*%
D19*
%TO.C,R27*%
X150162500Y-127750000D03*
X148337500Y-127750000D03*
%TD*%
D20*
%TO.C,R17*%
X121905000Y-124050000D03*
X121905000Y-125875000D03*
%TD*%
D22*
%TO.C,C33*%
X129500000Y-111887500D03*
X129500000Y-113612500D03*
%TD*%
D28*
%TO.C,Y2*%
X118400000Y-96550000D03*
X118400000Y-98750000D03*
X120100000Y-98750000D03*
X120100000Y-96550000D03*
%TD*%
D16*
%TO.C,C9*%
X163932500Y-111720000D03*
X165657500Y-111720000D03*
%TD*%
D12*
%TO.C,R31*%
X169322500Y-120350000D03*
X168127500Y-120350000D03*
%TD*%
D41*
%TO.C,U5*%
X126150000Y-77982500D03*
X126650000Y-77982500D03*
X127150000Y-77982500D03*
X127650000Y-77982500D03*
D42*
X127812500Y-77320000D03*
X127812500Y-76820000D03*
X127812500Y-76320000D03*
D41*
X127650000Y-75657500D03*
X127150000Y-75657500D03*
X126650000Y-75657500D03*
X126150000Y-75657500D03*
D42*
X125987500Y-76320000D03*
X125987500Y-76820000D03*
X125987500Y-77320000D03*
%TD*%
D11*
%TO.C,C30*%
X152375000Y-88862500D03*
X152375000Y-87137500D03*
%TD*%
D35*
%TO.C,U6*%
X173260000Y-100037500D03*
D36*
X173335000Y-99500000D03*
D35*
X173260000Y-98962500D03*
X171560000Y-98962500D03*
D36*
X171485000Y-99500000D03*
D35*
X171560000Y-100037500D03*
%TD*%
D10*
%TO.C,C7*%
X169600000Y-112550000D03*
X167875000Y-112550000D03*
%TD*%
D12*
%TO.C,R34*%
X169522500Y-130675000D03*
X168327500Y-130675000D03*
%TD*%
D13*
%TO.C,R3*%
X122800000Y-68312500D03*
X122800000Y-66487500D03*
%TD*%
D11*
%TO.C,C1*%
X130350000Y-77712500D03*
X130350000Y-75987500D03*
%TD*%
D19*
%TO.C,R21*%
X136962500Y-132305000D03*
X135137500Y-132305000D03*
%TD*%
%TO.C,R20*%
X133537500Y-132317500D03*
X131712500Y-132317500D03*
%TD*%
D11*
%TO.C,C44*%
X122900000Y-105937500D03*
X122900000Y-104212500D03*
%TD*%
D10*
%TO.C,C42*%
X138612500Y-113275000D03*
X136887500Y-113275000D03*
%TD*%
D20*
%TO.C,R40*%
X154750000Y-101587500D03*
X154750000Y-103412500D03*
%TD*%
D21*
%TO.C,U2*%
X132120000Y-78875000D03*
X133390000Y-78875000D03*
X134660000Y-78875000D03*
X135930000Y-78875000D03*
X135930000Y-73925000D03*
X134660000Y-73925000D03*
X133390000Y-73925000D03*
X132120000Y-73925000D03*
%TD*%
D43*
%TO.C,SW3*%
X128450000Y-61055000D03*
X128450000Y-58845000D03*
X121150000Y-61055000D03*
X121150000Y-58845000D03*
D44*
X127050000Y-61705000D03*
X124050000Y-61705000D03*
X122550000Y-61705000D03*
%TD*%
D22*
%TO.C,C28*%
X121400000Y-104212500D03*
X121400000Y-105937500D03*
%TD*%
D19*
%TO.C,R6*%
X187300000Y-110935000D03*
X185475000Y-110935000D03*
%TD*%
D20*
%TO.C,R23*%
X121930000Y-130737500D03*
X121930000Y-132562500D03*
%TD*%
D22*
%TO.C,C24*%
X152225000Y-101162500D03*
X152225000Y-102887500D03*
%TD*%
%TO.C,C29*%
X145875000Y-111762500D03*
X145875000Y-113487500D03*
%TD*%
D13*
%TO.C,R46*%
X126200000Y-83887500D03*
X126200000Y-82062500D03*
%TD*%
D45*
%TO.C,U3*%
X173725000Y-72325000D03*
X173725000Y-70025000D03*
D46*
X167425000Y-70025000D03*
D45*
X173725000Y-67725000D03*
%TD*%
M02*
