%TF.GenerationSoftware,KiCad,Pcbnew,7.0.7*%
%TF.CreationDate,2024-04-15T16:49:56-05:00*%
%TF.ProjectId,Rev2.1,52657632-2e31-42e6-9b69-6361645f7063,rev?*%
%TF.SameCoordinates,Original*%
%TF.FileFunction,Legend,Top*%
%TF.FilePolarity,Positive*%
%FSLAX46Y46*%
G04 Gerber Fmt 4.6, Leading zero omitted, Abs format (unit mm)*
G04 Created by KiCad (PCBNEW 7.0.7) date 2024-04-15 16:49:56*
%MOMM*%
%LPD*%
G01*
G04 APERTURE LIST*
%ADD10C,0.150000*%
%ADD11C,0.120000*%
%ADD12C,0.127000*%
%ADD13C,0.200000*%
G04 APERTURE END LIST*
D10*
X159750000Y-116300000D02*
G75*
G03*
X159750000Y-116300000I-100000J0D01*
G01*
X145800000Y-80150000D02*
G75*
G03*
X145800000Y-80150000I-50000J0D01*
G01*
X171700000Y-89150000D02*
G75*
G03*
X171700000Y-89150000I-100000J0D01*
G01*
X117650000Y-95250000D02*
G75*
G03*
X117650000Y-95250000I-100000J0D01*
G01*
X154100000Y-67250000D02*
G75*
G03*
X154100000Y-67250000I-50000J0D01*
G01*
X174200000Y-100250000D02*
G75*
G03*
X174200000Y-100250000I-100000J0D01*
G01*
X126000000Y-78700000D02*
G75*
G03*
X126000000Y-78700000I-50000J0D01*
G01*
X185450000Y-136550000D02*
G75*
G03*
X185450000Y-136550000I-100000J0D01*
G01*
X126195544Y-89644427D02*
G75*
G03*
X126195544Y-89644427I-100000J0D01*
G01*
X131650000Y-80250000D02*
G75*
G03*
X131650000Y-80250000I-50000J0D01*
G01*
X174800000Y-74000000D02*
G75*
G03*
X174800000Y-74000000I-100000J0D01*
G01*
X163000000Y-113200000D02*
G75*
G03*
X163000000Y-113200000I-100000J0D01*
G01*
X171350000Y-82950000D02*
G75*
G03*
X171350000Y-82950000I-100000J0D01*
G01*
X156750000Y-96350000D02*
G75*
G03*
X156750000Y-96350000I-100000J0D01*
G01*
X162300000Y-73650000D02*
G75*
G03*
X162300000Y-73650000I-100000J0D01*
G01*
X162950000Y-90500000D02*
G75*
G03*
X162950000Y-90500000I-100000J0D01*
G01*
X127670711Y-63300000D02*
G75*
G03*
X127670711Y-63300000I-70711J0D01*
G01*
X171850000Y-126300000D02*
G75*
G03*
X171850000Y-126300000I-100000J0D01*
G01*
X182169819Y-84963220D02*
X181169819Y-84963220D01*
X181169819Y-84963220D02*
X181169819Y-84725125D01*
X181169819Y-84725125D02*
X181217438Y-84582268D01*
X181217438Y-84582268D02*
X181312676Y-84487030D01*
X181312676Y-84487030D02*
X181407914Y-84439411D01*
X181407914Y-84439411D02*
X181598390Y-84391792D01*
X181598390Y-84391792D02*
X181741247Y-84391792D01*
X181741247Y-84391792D02*
X181931723Y-84439411D01*
X181931723Y-84439411D02*
X182026961Y-84487030D01*
X182026961Y-84487030D02*
X182122200Y-84582268D01*
X182122200Y-84582268D02*
X182169819Y-84725125D01*
X182169819Y-84725125D02*
X182169819Y-84963220D01*
X182169819Y-83534649D02*
X181646009Y-83534649D01*
X181646009Y-83534649D02*
X181550771Y-83582268D01*
X181550771Y-83582268D02*
X181503152Y-83677506D01*
X181503152Y-83677506D02*
X181503152Y-83867982D01*
X181503152Y-83867982D02*
X181550771Y-83963220D01*
X182122200Y-83534649D02*
X182169819Y-83629887D01*
X182169819Y-83629887D02*
X182169819Y-83867982D01*
X182169819Y-83867982D02*
X182122200Y-83963220D01*
X182122200Y-83963220D02*
X182026961Y-84010839D01*
X182026961Y-84010839D02*
X181931723Y-84010839D01*
X181931723Y-84010839D02*
X181836485Y-83963220D01*
X181836485Y-83963220D02*
X181788866Y-83867982D01*
X181788866Y-83867982D02*
X181788866Y-83629887D01*
X181788866Y-83629887D02*
X181741247Y-83534649D01*
X181503152Y-83201315D02*
X181503152Y-82820363D01*
X181169819Y-83058458D02*
X182026961Y-83058458D01*
X182026961Y-83058458D02*
X182122200Y-83010839D01*
X182122200Y-83010839D02*
X182169819Y-82915601D01*
X182169819Y-82915601D02*
X182169819Y-82820363D01*
X182169819Y-82058458D02*
X181646009Y-82058458D01*
X181646009Y-82058458D02*
X181550771Y-82106077D01*
X181550771Y-82106077D02*
X181503152Y-82201315D01*
X181503152Y-82201315D02*
X181503152Y-82391791D01*
X181503152Y-82391791D02*
X181550771Y-82487029D01*
X182122200Y-82058458D02*
X182169819Y-82153696D01*
X182169819Y-82153696D02*
X182169819Y-82391791D01*
X182169819Y-82391791D02*
X182122200Y-82487029D01*
X182122200Y-82487029D02*
X182026961Y-82534648D01*
X182026961Y-82534648D02*
X181931723Y-82534648D01*
X181931723Y-82534648D02*
X181836485Y-82487029D01*
X181836485Y-82487029D02*
X181788866Y-82391791D01*
X181788866Y-82391791D02*
X181788866Y-82153696D01*
X181788866Y-82153696D02*
X181741247Y-82058458D01*
X136687030Y-59330180D02*
X137163220Y-59330180D01*
X137163220Y-59330180D02*
X137163220Y-60330180D01*
X130419819Y-61763220D02*
X129419819Y-61763220D01*
X129419819Y-61763220D02*
X129419819Y-61382268D01*
X129419819Y-61382268D02*
X129467438Y-61287030D01*
X129467438Y-61287030D02*
X129515057Y-61239411D01*
X129515057Y-61239411D02*
X129610295Y-61191792D01*
X129610295Y-61191792D02*
X129753152Y-61191792D01*
X129753152Y-61191792D02*
X129848390Y-61239411D01*
X129848390Y-61239411D02*
X129896009Y-61287030D01*
X129896009Y-61287030D02*
X129943628Y-61382268D01*
X129943628Y-61382268D02*
X129943628Y-61763220D01*
X130419819Y-60763220D02*
X129753152Y-60763220D01*
X129943628Y-60763220D02*
X129848390Y-60715601D01*
X129848390Y-60715601D02*
X129800771Y-60667982D01*
X129800771Y-60667982D02*
X129753152Y-60572744D01*
X129753152Y-60572744D02*
X129753152Y-60477506D01*
X130419819Y-60001315D02*
X130372200Y-60096553D01*
X130372200Y-60096553D02*
X130324580Y-60144172D01*
X130324580Y-60144172D02*
X130229342Y-60191791D01*
X130229342Y-60191791D02*
X129943628Y-60191791D01*
X129943628Y-60191791D02*
X129848390Y-60144172D01*
X129848390Y-60144172D02*
X129800771Y-60096553D01*
X129800771Y-60096553D02*
X129753152Y-60001315D01*
X129753152Y-60001315D02*
X129753152Y-59858458D01*
X129753152Y-59858458D02*
X129800771Y-59763220D01*
X129800771Y-59763220D02*
X129848390Y-59715601D01*
X129848390Y-59715601D02*
X129943628Y-59667982D01*
X129943628Y-59667982D02*
X130229342Y-59667982D01*
X130229342Y-59667982D02*
X130324580Y-59715601D01*
X130324580Y-59715601D02*
X130372200Y-59763220D01*
X130372200Y-59763220D02*
X130419819Y-59858458D01*
X130419819Y-59858458D02*
X130419819Y-60001315D01*
X129753152Y-58810839D02*
X130562676Y-58810839D01*
X130562676Y-58810839D02*
X130657914Y-58858458D01*
X130657914Y-58858458D02*
X130705533Y-58906077D01*
X130705533Y-58906077D02*
X130753152Y-59001315D01*
X130753152Y-59001315D02*
X130753152Y-59144172D01*
X130753152Y-59144172D02*
X130705533Y-59239410D01*
X130372200Y-58810839D02*
X130419819Y-58906077D01*
X130419819Y-58906077D02*
X130419819Y-59096553D01*
X130419819Y-59096553D02*
X130372200Y-59191791D01*
X130372200Y-59191791D02*
X130324580Y-59239410D01*
X130324580Y-59239410D02*
X130229342Y-59287029D01*
X130229342Y-59287029D02*
X129943628Y-59287029D01*
X129943628Y-59287029D02*
X129848390Y-59239410D01*
X129848390Y-59239410D02*
X129800771Y-59191791D01*
X129800771Y-59191791D02*
X129753152Y-59096553D01*
X129753152Y-59096553D02*
X129753152Y-58906077D01*
X129753152Y-58906077D02*
X129800771Y-58810839D01*
X178441541Y-65869819D02*
X179060588Y-65869819D01*
X179060588Y-65869819D02*
X178727255Y-66250771D01*
X178727255Y-66250771D02*
X178870112Y-66250771D01*
X178870112Y-66250771D02*
X178965350Y-66298390D01*
X178965350Y-66298390D02*
X179012969Y-66346009D01*
X179012969Y-66346009D02*
X179060588Y-66441247D01*
X179060588Y-66441247D02*
X179060588Y-66679342D01*
X179060588Y-66679342D02*
X179012969Y-66774580D01*
X179012969Y-66774580D02*
X178965350Y-66822200D01*
X178965350Y-66822200D02*
X178870112Y-66869819D01*
X178870112Y-66869819D02*
X178584398Y-66869819D01*
X178584398Y-66869819D02*
X178489160Y-66822200D01*
X178489160Y-66822200D02*
X178441541Y-66774580D01*
X179393922Y-66203152D02*
X179632017Y-66869819D01*
X179632017Y-66869819D02*
X179870112Y-66203152D01*
X172819819Y-61487030D02*
X172819819Y-61963220D01*
X172819819Y-61963220D02*
X173296009Y-62010839D01*
X173296009Y-62010839D02*
X173248390Y-61963220D01*
X173248390Y-61963220D02*
X173200771Y-61867982D01*
X173200771Y-61867982D02*
X173200771Y-61629887D01*
X173200771Y-61629887D02*
X173248390Y-61534649D01*
X173248390Y-61534649D02*
X173296009Y-61487030D01*
X173296009Y-61487030D02*
X173391247Y-61439411D01*
X173391247Y-61439411D02*
X173629342Y-61439411D01*
X173629342Y-61439411D02*
X173724580Y-61487030D01*
X173724580Y-61487030D02*
X173772200Y-61534649D01*
X173772200Y-61534649D02*
X173819819Y-61629887D01*
X173819819Y-61629887D02*
X173819819Y-61867982D01*
X173819819Y-61867982D02*
X173772200Y-61963220D01*
X173772200Y-61963220D02*
X173724580Y-62010839D01*
X173153152Y-61106077D02*
X173819819Y-60867982D01*
X173819819Y-60867982D02*
X173153152Y-60629887D01*
X180853152Y-62284649D02*
X181662676Y-62284649D01*
X181662676Y-62284649D02*
X181757914Y-62332268D01*
X181757914Y-62332268D02*
X181805533Y-62379887D01*
X181805533Y-62379887D02*
X181853152Y-62475125D01*
X181853152Y-62475125D02*
X181853152Y-62617982D01*
X181853152Y-62617982D02*
X181805533Y-62713220D01*
X181472200Y-62284649D02*
X181519819Y-62379887D01*
X181519819Y-62379887D02*
X181519819Y-62570363D01*
X181519819Y-62570363D02*
X181472200Y-62665601D01*
X181472200Y-62665601D02*
X181424580Y-62713220D01*
X181424580Y-62713220D02*
X181329342Y-62760839D01*
X181329342Y-62760839D02*
X181043628Y-62760839D01*
X181043628Y-62760839D02*
X180948390Y-62713220D01*
X180948390Y-62713220D02*
X180900771Y-62665601D01*
X180900771Y-62665601D02*
X180853152Y-62570363D01*
X180853152Y-62570363D02*
X180853152Y-62379887D01*
X180853152Y-62379887D02*
X180900771Y-62284649D01*
X180853152Y-61808458D02*
X181519819Y-61808458D01*
X180948390Y-61808458D02*
X180900771Y-61760839D01*
X180900771Y-61760839D02*
X180853152Y-61665601D01*
X180853152Y-61665601D02*
X180853152Y-61522744D01*
X180853152Y-61522744D02*
X180900771Y-61427506D01*
X180900771Y-61427506D02*
X180996009Y-61379887D01*
X180996009Y-61379887D02*
X181519819Y-61379887D01*
X181519819Y-60475125D02*
X180519819Y-60475125D01*
X181472200Y-60475125D02*
X181519819Y-60570363D01*
X181519819Y-60570363D02*
X181519819Y-60760839D01*
X181519819Y-60760839D02*
X181472200Y-60856077D01*
X181472200Y-60856077D02*
X181424580Y-60903696D01*
X181424580Y-60903696D02*
X181329342Y-60951315D01*
X181329342Y-60951315D02*
X181043628Y-60951315D01*
X181043628Y-60951315D02*
X180948390Y-60903696D01*
X180948390Y-60903696D02*
X180900771Y-60856077D01*
X180900771Y-60856077D02*
X180853152Y-60760839D01*
X180853152Y-60760839D02*
X180853152Y-60570363D01*
X180853152Y-60570363D02*
X180900771Y-60475125D01*
X129256077Y-73680180D02*
X128684649Y-73680180D01*
X128970363Y-72680180D02*
X128970363Y-73680180D01*
X127970363Y-72727800D02*
X128065601Y-72680180D01*
X128065601Y-72680180D02*
X128256077Y-72680180D01*
X128256077Y-72680180D02*
X128351315Y-72727800D01*
X128351315Y-72727800D02*
X128398934Y-72823038D01*
X128398934Y-72823038D02*
X128398934Y-73203990D01*
X128398934Y-73203990D02*
X128351315Y-73299228D01*
X128351315Y-73299228D02*
X128256077Y-73346847D01*
X128256077Y-73346847D02*
X128065601Y-73346847D01*
X128065601Y-73346847D02*
X127970363Y-73299228D01*
X127970363Y-73299228D02*
X127922744Y-73203990D01*
X127922744Y-73203990D02*
X127922744Y-73108752D01*
X127922744Y-73108752D02*
X128398934Y-73013514D01*
X127494172Y-72680180D02*
X127494172Y-73346847D01*
X127494172Y-73156371D02*
X127446553Y-73251609D01*
X127446553Y-73251609D02*
X127398934Y-73299228D01*
X127398934Y-73299228D02*
X127303696Y-73346847D01*
X127303696Y-73346847D02*
X127208458Y-73346847D01*
X126875124Y-72680180D02*
X126875124Y-73346847D01*
X126875124Y-73251609D02*
X126827505Y-73299228D01*
X126827505Y-73299228D02*
X126732267Y-73346847D01*
X126732267Y-73346847D02*
X126589410Y-73346847D01*
X126589410Y-73346847D02*
X126494172Y-73299228D01*
X126494172Y-73299228D02*
X126446553Y-73203990D01*
X126446553Y-73203990D02*
X126446553Y-72680180D01*
X126446553Y-73203990D02*
X126398934Y-73299228D01*
X126398934Y-73299228D02*
X126303696Y-73346847D01*
X126303696Y-73346847D02*
X126160839Y-73346847D01*
X126160839Y-73346847D02*
X126065600Y-73299228D01*
X126065600Y-73299228D02*
X126017981Y-73203990D01*
X126017981Y-73203990D02*
X126017981Y-72680180D01*
X124208458Y-72680180D02*
X124541791Y-73156371D01*
X124779886Y-72680180D02*
X124779886Y-73680180D01*
X124779886Y-73680180D02*
X124398934Y-73680180D01*
X124398934Y-73680180D02*
X124303696Y-73632561D01*
X124303696Y-73632561D02*
X124256077Y-73584942D01*
X124256077Y-73584942D02*
X124208458Y-73489704D01*
X124208458Y-73489704D02*
X124208458Y-73346847D01*
X124208458Y-73346847D02*
X124256077Y-73251609D01*
X124256077Y-73251609D02*
X124303696Y-73203990D01*
X124303696Y-73203990D02*
X124398934Y-73156371D01*
X124398934Y-73156371D02*
X124779886Y-73156371D01*
X123398934Y-72727800D02*
X123494172Y-72680180D01*
X123494172Y-72680180D02*
X123684648Y-72680180D01*
X123684648Y-72680180D02*
X123779886Y-72727800D01*
X123779886Y-72727800D02*
X123827505Y-72823038D01*
X123827505Y-72823038D02*
X123827505Y-73203990D01*
X123827505Y-73203990D02*
X123779886Y-73299228D01*
X123779886Y-73299228D02*
X123684648Y-73346847D01*
X123684648Y-73346847D02*
X123494172Y-73346847D01*
X123494172Y-73346847D02*
X123398934Y-73299228D01*
X123398934Y-73299228D02*
X123351315Y-73203990D01*
X123351315Y-73203990D02*
X123351315Y-73108752D01*
X123351315Y-73108752D02*
X123827505Y-73013514D01*
X122970362Y-72727800D02*
X122875124Y-72680180D01*
X122875124Y-72680180D02*
X122684648Y-72680180D01*
X122684648Y-72680180D02*
X122589410Y-72727800D01*
X122589410Y-72727800D02*
X122541791Y-72823038D01*
X122541791Y-72823038D02*
X122541791Y-72870657D01*
X122541791Y-72870657D02*
X122589410Y-72965895D01*
X122589410Y-72965895D02*
X122684648Y-73013514D01*
X122684648Y-73013514D02*
X122827505Y-73013514D01*
X122827505Y-73013514D02*
X122922743Y-73061133D01*
X122922743Y-73061133D02*
X122970362Y-73156371D01*
X122970362Y-73156371D02*
X122970362Y-73203990D01*
X122970362Y-73203990D02*
X122922743Y-73299228D01*
X122922743Y-73299228D02*
X122827505Y-73346847D01*
X122827505Y-73346847D02*
X122684648Y-73346847D01*
X122684648Y-73346847D02*
X122589410Y-73299228D01*
X148737030Y-59230180D02*
X149213220Y-59230180D01*
X149213220Y-59230180D02*
X149213220Y-60230180D01*
X158006077Y-73830180D02*
X157434649Y-73830180D01*
X157720363Y-72830180D02*
X157720363Y-73830180D01*
X156720363Y-72877800D02*
X156815601Y-72830180D01*
X156815601Y-72830180D02*
X157006077Y-72830180D01*
X157006077Y-72830180D02*
X157101315Y-72877800D01*
X157101315Y-72877800D02*
X157148934Y-72973038D01*
X157148934Y-72973038D02*
X157148934Y-73353990D01*
X157148934Y-73353990D02*
X157101315Y-73449228D01*
X157101315Y-73449228D02*
X157006077Y-73496847D01*
X157006077Y-73496847D02*
X156815601Y-73496847D01*
X156815601Y-73496847D02*
X156720363Y-73449228D01*
X156720363Y-73449228D02*
X156672744Y-73353990D01*
X156672744Y-73353990D02*
X156672744Y-73258752D01*
X156672744Y-73258752D02*
X157148934Y-73163514D01*
X156244172Y-72830180D02*
X156244172Y-73496847D01*
X156244172Y-73306371D02*
X156196553Y-73401609D01*
X156196553Y-73401609D02*
X156148934Y-73449228D01*
X156148934Y-73449228D02*
X156053696Y-73496847D01*
X156053696Y-73496847D02*
X155958458Y-73496847D01*
X155625124Y-72830180D02*
X155625124Y-73496847D01*
X155625124Y-73401609D02*
X155577505Y-73449228D01*
X155577505Y-73449228D02*
X155482267Y-73496847D01*
X155482267Y-73496847D02*
X155339410Y-73496847D01*
X155339410Y-73496847D02*
X155244172Y-73449228D01*
X155244172Y-73449228D02*
X155196553Y-73353990D01*
X155196553Y-73353990D02*
X155196553Y-72830180D01*
X155196553Y-73353990D02*
X155148934Y-73449228D01*
X155148934Y-73449228D02*
X155053696Y-73496847D01*
X155053696Y-73496847D02*
X154910839Y-73496847D01*
X154910839Y-73496847D02*
X154815600Y-73449228D01*
X154815600Y-73449228D02*
X154767981Y-73353990D01*
X154767981Y-73353990D02*
X154767981Y-72830180D01*
X152958458Y-72830180D02*
X153291791Y-73306371D01*
X153529886Y-72830180D02*
X153529886Y-73830180D01*
X153529886Y-73830180D02*
X153148934Y-73830180D01*
X153148934Y-73830180D02*
X153053696Y-73782561D01*
X153053696Y-73782561D02*
X153006077Y-73734942D01*
X153006077Y-73734942D02*
X152958458Y-73639704D01*
X152958458Y-73639704D02*
X152958458Y-73496847D01*
X152958458Y-73496847D02*
X153006077Y-73401609D01*
X153006077Y-73401609D02*
X153053696Y-73353990D01*
X153053696Y-73353990D02*
X153148934Y-73306371D01*
X153148934Y-73306371D02*
X153529886Y-73306371D01*
X152148934Y-72877800D02*
X152244172Y-72830180D01*
X152244172Y-72830180D02*
X152434648Y-72830180D01*
X152434648Y-72830180D02*
X152529886Y-72877800D01*
X152529886Y-72877800D02*
X152577505Y-72973038D01*
X152577505Y-72973038D02*
X152577505Y-73353990D01*
X152577505Y-73353990D02*
X152529886Y-73449228D01*
X152529886Y-73449228D02*
X152434648Y-73496847D01*
X152434648Y-73496847D02*
X152244172Y-73496847D01*
X152244172Y-73496847D02*
X152148934Y-73449228D01*
X152148934Y-73449228D02*
X152101315Y-73353990D01*
X152101315Y-73353990D02*
X152101315Y-73258752D01*
X152101315Y-73258752D02*
X152577505Y-73163514D01*
X151720362Y-72877800D02*
X151625124Y-72830180D01*
X151625124Y-72830180D02*
X151434648Y-72830180D01*
X151434648Y-72830180D02*
X151339410Y-72877800D01*
X151339410Y-72877800D02*
X151291791Y-72973038D01*
X151291791Y-72973038D02*
X151291791Y-73020657D01*
X151291791Y-73020657D02*
X151339410Y-73115895D01*
X151339410Y-73115895D02*
X151434648Y-73163514D01*
X151434648Y-73163514D02*
X151577505Y-73163514D01*
X151577505Y-73163514D02*
X151672743Y-73211133D01*
X151672743Y-73211133D02*
X151720362Y-73306371D01*
X151720362Y-73306371D02*
X151720362Y-73353990D01*
X151720362Y-73353990D02*
X151672743Y-73449228D01*
X151672743Y-73449228D02*
X151577505Y-73496847D01*
X151577505Y-73496847D02*
X151434648Y-73496847D01*
X151434648Y-73496847D02*
X151339410Y-73449228D01*
X146186779Y-60219819D02*
X146186779Y-59219819D01*
X146186779Y-59696009D02*
X146758207Y-59696009D01*
X146758207Y-60219819D02*
X146758207Y-59219819D01*
X134236779Y-60269819D02*
X134236779Y-59269819D01*
X134236779Y-59746009D02*
X134808207Y-59746009D01*
X134808207Y-60269819D02*
X134808207Y-59269819D01*
X178565350Y-74603152D02*
X178565350Y-75412676D01*
X178565350Y-75412676D02*
X178517731Y-75507914D01*
X178517731Y-75507914D02*
X178470112Y-75555533D01*
X178470112Y-75555533D02*
X178374874Y-75603152D01*
X178374874Y-75603152D02*
X178232017Y-75603152D01*
X178232017Y-75603152D02*
X178136779Y-75555533D01*
X178565350Y-75222200D02*
X178470112Y-75269819D01*
X178470112Y-75269819D02*
X178279636Y-75269819D01*
X178279636Y-75269819D02*
X178184398Y-75222200D01*
X178184398Y-75222200D02*
X178136779Y-75174580D01*
X178136779Y-75174580D02*
X178089160Y-75079342D01*
X178089160Y-75079342D02*
X178089160Y-74793628D01*
X178089160Y-74793628D02*
X178136779Y-74698390D01*
X178136779Y-74698390D02*
X178184398Y-74650771D01*
X178184398Y-74650771D02*
X178279636Y-74603152D01*
X178279636Y-74603152D02*
X178470112Y-74603152D01*
X178470112Y-74603152D02*
X178565350Y-74650771D01*
X179041541Y-74603152D02*
X179041541Y-75269819D01*
X179041541Y-74698390D02*
X179089160Y-74650771D01*
X179089160Y-74650771D02*
X179184398Y-74603152D01*
X179184398Y-74603152D02*
X179327255Y-74603152D01*
X179327255Y-74603152D02*
X179422493Y-74650771D01*
X179422493Y-74650771D02*
X179470112Y-74746009D01*
X179470112Y-74746009D02*
X179470112Y-75269819D01*
X180374874Y-75269819D02*
X180374874Y-74269819D01*
X180374874Y-75222200D02*
X180279636Y-75269819D01*
X180279636Y-75269819D02*
X180089160Y-75269819D01*
X180089160Y-75269819D02*
X179993922Y-75222200D01*
X179993922Y-75222200D02*
X179946303Y-75174580D01*
X179946303Y-75174580D02*
X179898684Y-75079342D01*
X179898684Y-75079342D02*
X179898684Y-74793628D01*
X179898684Y-74793628D02*
X179946303Y-74698390D01*
X179946303Y-74698390D02*
X179993922Y-74650771D01*
X179993922Y-74650771D02*
X180089160Y-74603152D01*
X180089160Y-74603152D02*
X180279636Y-74603152D01*
X180279636Y-74603152D02*
X180374874Y-74650771D01*
X136841792Y-68175419D02*
X136889411Y-68127800D01*
X136889411Y-68127800D02*
X137032268Y-68080180D01*
X137032268Y-68080180D02*
X137127506Y-68080180D01*
X137127506Y-68080180D02*
X137270363Y-68127800D01*
X137270363Y-68127800D02*
X137365601Y-68223038D01*
X137365601Y-68223038D02*
X137413220Y-68318276D01*
X137413220Y-68318276D02*
X137460839Y-68508752D01*
X137460839Y-68508752D02*
X137460839Y-68651609D01*
X137460839Y-68651609D02*
X137413220Y-68842085D01*
X137413220Y-68842085D02*
X137365601Y-68937323D01*
X137365601Y-68937323D02*
X137270363Y-69032561D01*
X137270363Y-69032561D02*
X137127506Y-69080180D01*
X137127506Y-69080180D02*
X137032268Y-69080180D01*
X137032268Y-69080180D02*
X136889411Y-69032561D01*
X136889411Y-69032561D02*
X136841792Y-68984942D01*
X136460839Y-68365895D02*
X135984649Y-68365895D01*
X136556077Y-68080180D02*
X136222744Y-69080180D01*
X136222744Y-69080180D02*
X135889411Y-68080180D01*
X135556077Y-68080180D02*
X135556077Y-69080180D01*
X135556077Y-69080180D02*
X134984649Y-68080180D01*
X134984649Y-68080180D02*
X134984649Y-69080180D01*
X133984649Y-68080180D02*
X134556077Y-68080180D01*
X134270363Y-68080180D02*
X134270363Y-69080180D01*
X134270363Y-69080180D02*
X134365601Y-68937323D01*
X134365601Y-68937323D02*
X134460839Y-68842085D01*
X134460839Y-68842085D02*
X134556077Y-68794466D01*
X115632561Y-90060588D02*
X115680180Y-89965350D01*
X115680180Y-89965350D02*
X115680180Y-89822493D01*
X115680180Y-89822493D02*
X115632561Y-89679636D01*
X115632561Y-89679636D02*
X115537323Y-89584398D01*
X115537323Y-89584398D02*
X115442085Y-89536779D01*
X115442085Y-89536779D02*
X115251609Y-89489160D01*
X115251609Y-89489160D02*
X115108752Y-89489160D01*
X115108752Y-89489160D02*
X114918276Y-89536779D01*
X114918276Y-89536779D02*
X114823038Y-89584398D01*
X114823038Y-89584398D02*
X114727800Y-89679636D01*
X114727800Y-89679636D02*
X114680180Y-89822493D01*
X114680180Y-89822493D02*
X114680180Y-89917731D01*
X114680180Y-89917731D02*
X114727800Y-90060588D01*
X114727800Y-90060588D02*
X114775419Y-90108207D01*
X114775419Y-90108207D02*
X115108752Y-90108207D01*
X115108752Y-90108207D02*
X115108752Y-89917731D01*
X114680180Y-90536779D02*
X115680180Y-90536779D01*
X115680180Y-90536779D02*
X115680180Y-90917731D01*
X115680180Y-90917731D02*
X115632561Y-91012969D01*
X115632561Y-91012969D02*
X115584942Y-91060588D01*
X115584942Y-91060588D02*
X115489704Y-91108207D01*
X115489704Y-91108207D02*
X115346847Y-91108207D01*
X115346847Y-91108207D02*
X115251609Y-91060588D01*
X115251609Y-91060588D02*
X115203990Y-91012969D01*
X115203990Y-91012969D02*
X115156371Y-90917731D01*
X115156371Y-90917731D02*
X115156371Y-90536779D01*
X114680180Y-91536779D02*
X115680180Y-91536779D01*
X115680180Y-92203445D02*
X115680180Y-92393921D01*
X115680180Y-92393921D02*
X115632561Y-92489159D01*
X115632561Y-92489159D02*
X115537323Y-92584397D01*
X115537323Y-92584397D02*
X115346847Y-92632016D01*
X115346847Y-92632016D02*
X115013514Y-92632016D01*
X115013514Y-92632016D02*
X114823038Y-92584397D01*
X114823038Y-92584397D02*
X114727800Y-92489159D01*
X114727800Y-92489159D02*
X114680180Y-92393921D01*
X114680180Y-92393921D02*
X114680180Y-92203445D01*
X114680180Y-92203445D02*
X114727800Y-92108207D01*
X114727800Y-92108207D02*
X114823038Y-92012969D01*
X114823038Y-92012969D02*
X115013514Y-91965350D01*
X115013514Y-91965350D02*
X115346847Y-91965350D01*
X115346847Y-91965350D02*
X115537323Y-92012969D01*
X115537323Y-92012969D02*
X115632561Y-92108207D01*
X115632561Y-92108207D02*
X115680180Y-92203445D01*
X148841792Y-68175419D02*
X148889411Y-68127800D01*
X148889411Y-68127800D02*
X149032268Y-68080180D01*
X149032268Y-68080180D02*
X149127506Y-68080180D01*
X149127506Y-68080180D02*
X149270363Y-68127800D01*
X149270363Y-68127800D02*
X149365601Y-68223038D01*
X149365601Y-68223038D02*
X149413220Y-68318276D01*
X149413220Y-68318276D02*
X149460839Y-68508752D01*
X149460839Y-68508752D02*
X149460839Y-68651609D01*
X149460839Y-68651609D02*
X149413220Y-68842085D01*
X149413220Y-68842085D02*
X149365601Y-68937323D01*
X149365601Y-68937323D02*
X149270363Y-69032561D01*
X149270363Y-69032561D02*
X149127506Y-69080180D01*
X149127506Y-69080180D02*
X149032268Y-69080180D01*
X149032268Y-69080180D02*
X148889411Y-69032561D01*
X148889411Y-69032561D02*
X148841792Y-68984942D01*
X148460839Y-68365895D02*
X147984649Y-68365895D01*
X148556077Y-68080180D02*
X148222744Y-69080180D01*
X148222744Y-69080180D02*
X147889411Y-68080180D01*
X147556077Y-68080180D02*
X147556077Y-69080180D01*
X147556077Y-69080180D02*
X146984649Y-68080180D01*
X146984649Y-68080180D02*
X146984649Y-69080180D01*
X146556077Y-68984942D02*
X146508458Y-69032561D01*
X146508458Y-69032561D02*
X146413220Y-69080180D01*
X146413220Y-69080180D02*
X146175125Y-69080180D01*
X146175125Y-69080180D02*
X146079887Y-69032561D01*
X146079887Y-69032561D02*
X146032268Y-68984942D01*
X146032268Y-68984942D02*
X145984649Y-68889704D01*
X145984649Y-68889704D02*
X145984649Y-68794466D01*
X145984649Y-68794466D02*
X146032268Y-68651609D01*
X146032268Y-68651609D02*
X146603696Y-68080180D01*
X146603696Y-68080180D02*
X145984649Y-68080180D01*
X182369819Y-102663220D02*
X181369819Y-102663220D01*
X181369819Y-102663220D02*
X181369819Y-102282268D01*
X181369819Y-102282268D02*
X181417438Y-102187030D01*
X181417438Y-102187030D02*
X181465057Y-102139411D01*
X181465057Y-102139411D02*
X181560295Y-102091792D01*
X181560295Y-102091792D02*
X181703152Y-102091792D01*
X181703152Y-102091792D02*
X181798390Y-102139411D01*
X181798390Y-102139411D02*
X181846009Y-102187030D01*
X181846009Y-102187030D02*
X181893628Y-102282268D01*
X181893628Y-102282268D02*
X181893628Y-102663220D01*
X181369819Y-101758458D02*
X182369819Y-101520363D01*
X182369819Y-101520363D02*
X181655533Y-101329887D01*
X181655533Y-101329887D02*
X182369819Y-101139411D01*
X182369819Y-101139411D02*
X181369819Y-100901316D01*
X182369819Y-99948935D02*
X181893628Y-100282268D01*
X182369819Y-100520363D02*
X181369819Y-100520363D01*
X181369819Y-100520363D02*
X181369819Y-100139411D01*
X181369819Y-100139411D02*
X181417438Y-100044173D01*
X181417438Y-100044173D02*
X181465057Y-99996554D01*
X181465057Y-99996554D02*
X181560295Y-99948935D01*
X181560295Y-99948935D02*
X181703152Y-99948935D01*
X181703152Y-99948935D02*
X181798390Y-99996554D01*
X181798390Y-99996554D02*
X181846009Y-100044173D01*
X181846009Y-100044173D02*
X181893628Y-100139411D01*
X181893628Y-100139411D02*
X181893628Y-100520363D01*
X181322200Y-98806078D02*
X182607914Y-99663220D01*
X182369819Y-98472744D02*
X181369819Y-98472744D01*
X181369819Y-98472744D02*
X181369819Y-98091792D01*
X181369819Y-98091792D02*
X181417438Y-97996554D01*
X181417438Y-97996554D02*
X181465057Y-97948935D01*
X181465057Y-97948935D02*
X181560295Y-97901316D01*
X181560295Y-97901316D02*
X181703152Y-97901316D01*
X181703152Y-97901316D02*
X181798390Y-97948935D01*
X181798390Y-97948935D02*
X181846009Y-97996554D01*
X181846009Y-97996554D02*
X181893628Y-98091792D01*
X181893628Y-98091792D02*
X181893628Y-98472744D01*
X182369819Y-97472744D02*
X181703152Y-97472744D01*
X181893628Y-97472744D02*
X181798390Y-97425125D01*
X181798390Y-97425125D02*
X181750771Y-97377506D01*
X181750771Y-97377506D02*
X181703152Y-97282268D01*
X181703152Y-97282268D02*
X181703152Y-97187030D01*
X182369819Y-96710839D02*
X182322200Y-96806077D01*
X182322200Y-96806077D02*
X182274580Y-96853696D01*
X182274580Y-96853696D02*
X182179342Y-96901315D01*
X182179342Y-96901315D02*
X181893628Y-96901315D01*
X181893628Y-96901315D02*
X181798390Y-96853696D01*
X181798390Y-96853696D02*
X181750771Y-96806077D01*
X181750771Y-96806077D02*
X181703152Y-96710839D01*
X181703152Y-96710839D02*
X181703152Y-96567982D01*
X181703152Y-96567982D02*
X181750771Y-96472744D01*
X181750771Y-96472744D02*
X181798390Y-96425125D01*
X181798390Y-96425125D02*
X181893628Y-96377506D01*
X181893628Y-96377506D02*
X182179342Y-96377506D01*
X182179342Y-96377506D02*
X182274580Y-96425125D01*
X182274580Y-96425125D02*
X182322200Y-96472744D01*
X182322200Y-96472744D02*
X182369819Y-96567982D01*
X182369819Y-96567982D02*
X182369819Y-96710839D01*
X181703152Y-95520363D02*
X182512676Y-95520363D01*
X182512676Y-95520363D02*
X182607914Y-95567982D01*
X182607914Y-95567982D02*
X182655533Y-95615601D01*
X182655533Y-95615601D02*
X182703152Y-95710839D01*
X182703152Y-95710839D02*
X182703152Y-95853696D01*
X182703152Y-95853696D02*
X182655533Y-95948934D01*
X182322200Y-95520363D02*
X182369819Y-95615601D01*
X182369819Y-95615601D02*
X182369819Y-95806077D01*
X182369819Y-95806077D02*
X182322200Y-95901315D01*
X182322200Y-95901315D02*
X182274580Y-95948934D01*
X182274580Y-95948934D02*
X182179342Y-95996553D01*
X182179342Y-95996553D02*
X181893628Y-95996553D01*
X181893628Y-95996553D02*
X181798390Y-95948934D01*
X181798390Y-95948934D02*
X181750771Y-95901315D01*
X181750771Y-95901315D02*
X181703152Y-95806077D01*
X181703152Y-95806077D02*
X181703152Y-95615601D01*
X181703152Y-95615601D02*
X181750771Y-95520363D01*
X116941792Y-70180180D02*
X117275125Y-70656371D01*
X117513220Y-70180180D02*
X117513220Y-71180180D01*
X117513220Y-71180180D02*
X117132268Y-71180180D01*
X117132268Y-71180180D02*
X117037030Y-71132561D01*
X117037030Y-71132561D02*
X116989411Y-71084942D01*
X116989411Y-71084942D02*
X116941792Y-70989704D01*
X116941792Y-70989704D02*
X116941792Y-70846847D01*
X116941792Y-70846847D02*
X116989411Y-70751609D01*
X116989411Y-70751609D02*
X117037030Y-70703990D01*
X117037030Y-70703990D02*
X117132268Y-70656371D01*
X117132268Y-70656371D02*
X117513220Y-70656371D01*
X116560839Y-70227800D02*
X116417982Y-70180180D01*
X116417982Y-70180180D02*
X116179887Y-70180180D01*
X116179887Y-70180180D02*
X116084649Y-70227800D01*
X116084649Y-70227800D02*
X116037030Y-70275419D01*
X116037030Y-70275419D02*
X115989411Y-70370657D01*
X115989411Y-70370657D02*
X115989411Y-70465895D01*
X115989411Y-70465895D02*
X116037030Y-70561133D01*
X116037030Y-70561133D02*
X116084649Y-70608752D01*
X116084649Y-70608752D02*
X116179887Y-70656371D01*
X116179887Y-70656371D02*
X116370363Y-70703990D01*
X116370363Y-70703990D02*
X116465601Y-70751609D01*
X116465601Y-70751609D02*
X116513220Y-70799228D01*
X116513220Y-70799228D02*
X116560839Y-70894466D01*
X116560839Y-70894466D02*
X116560839Y-70989704D01*
X116560839Y-70989704D02*
X116513220Y-71084942D01*
X116513220Y-71084942D02*
X116465601Y-71132561D01*
X116465601Y-71132561D02*
X116370363Y-71180180D01*
X116370363Y-71180180D02*
X116132268Y-71180180D01*
X116132268Y-71180180D02*
X115989411Y-71132561D01*
X115703696Y-71180180D02*
X115132268Y-71180180D01*
X115417982Y-70180180D02*
X115417982Y-71180180D01*
X135565350Y-139069819D02*
X135565350Y-138546009D01*
X135565350Y-138546009D02*
X135517731Y-138450771D01*
X135517731Y-138450771D02*
X135422493Y-138403152D01*
X135422493Y-138403152D02*
X135232017Y-138403152D01*
X135232017Y-138403152D02*
X135136779Y-138450771D01*
X135565350Y-139022200D02*
X135470112Y-139069819D01*
X135470112Y-139069819D02*
X135232017Y-139069819D01*
X135232017Y-139069819D02*
X135136779Y-139022200D01*
X135136779Y-139022200D02*
X135089160Y-138926961D01*
X135089160Y-138926961D02*
X135089160Y-138831723D01*
X135089160Y-138831723D02*
X135136779Y-138736485D01*
X135136779Y-138736485D02*
X135232017Y-138688866D01*
X135232017Y-138688866D02*
X135470112Y-138688866D01*
X135470112Y-138688866D02*
X135565350Y-138641247D01*
X136041541Y-138403152D02*
X136041541Y-139069819D01*
X136041541Y-138498390D02*
X136089160Y-138450771D01*
X136089160Y-138450771D02*
X136184398Y-138403152D01*
X136184398Y-138403152D02*
X136327255Y-138403152D01*
X136327255Y-138403152D02*
X136422493Y-138450771D01*
X136422493Y-138450771D02*
X136470112Y-138546009D01*
X136470112Y-138546009D02*
X136470112Y-139069819D01*
X137374874Y-139069819D02*
X137374874Y-138546009D01*
X137374874Y-138546009D02*
X137327255Y-138450771D01*
X137327255Y-138450771D02*
X137232017Y-138403152D01*
X137232017Y-138403152D02*
X137041541Y-138403152D01*
X137041541Y-138403152D02*
X136946303Y-138450771D01*
X137374874Y-139022200D02*
X137279636Y-139069819D01*
X137279636Y-139069819D02*
X137041541Y-139069819D01*
X137041541Y-139069819D02*
X136946303Y-139022200D01*
X136946303Y-139022200D02*
X136898684Y-138926961D01*
X136898684Y-138926961D02*
X136898684Y-138831723D01*
X136898684Y-138831723D02*
X136946303Y-138736485D01*
X136946303Y-138736485D02*
X137041541Y-138688866D01*
X137041541Y-138688866D02*
X137279636Y-138688866D01*
X137279636Y-138688866D02*
X137374874Y-138641247D01*
X137993922Y-139069819D02*
X137898684Y-139022200D01*
X137898684Y-139022200D02*
X137851065Y-138926961D01*
X137851065Y-138926961D02*
X137851065Y-138069819D01*
X138517732Y-139069819D02*
X138422494Y-139022200D01*
X138422494Y-139022200D02*
X138374875Y-138974580D01*
X138374875Y-138974580D02*
X138327256Y-138879342D01*
X138327256Y-138879342D02*
X138327256Y-138593628D01*
X138327256Y-138593628D02*
X138374875Y-138498390D01*
X138374875Y-138498390D02*
X138422494Y-138450771D01*
X138422494Y-138450771D02*
X138517732Y-138403152D01*
X138517732Y-138403152D02*
X138660589Y-138403152D01*
X138660589Y-138403152D02*
X138755827Y-138450771D01*
X138755827Y-138450771D02*
X138803446Y-138498390D01*
X138803446Y-138498390D02*
X138851065Y-138593628D01*
X138851065Y-138593628D02*
X138851065Y-138879342D01*
X138851065Y-138879342D02*
X138803446Y-138974580D01*
X138803446Y-138974580D02*
X138755827Y-139022200D01*
X138755827Y-139022200D02*
X138660589Y-139069819D01*
X138660589Y-139069819D02*
X138517732Y-139069819D01*
X139708208Y-138403152D02*
X139708208Y-139212676D01*
X139708208Y-139212676D02*
X139660589Y-139307914D01*
X139660589Y-139307914D02*
X139612970Y-139355533D01*
X139612970Y-139355533D02*
X139517732Y-139403152D01*
X139517732Y-139403152D02*
X139374875Y-139403152D01*
X139374875Y-139403152D02*
X139279637Y-139355533D01*
X139708208Y-139022200D02*
X139612970Y-139069819D01*
X139612970Y-139069819D02*
X139422494Y-139069819D01*
X139422494Y-139069819D02*
X139327256Y-139022200D01*
X139327256Y-139022200D02*
X139279637Y-138974580D01*
X139279637Y-138974580D02*
X139232018Y-138879342D01*
X139232018Y-138879342D02*
X139232018Y-138593628D01*
X139232018Y-138593628D02*
X139279637Y-138498390D01*
X139279637Y-138498390D02*
X139327256Y-138450771D01*
X139327256Y-138450771D02*
X139422494Y-138403152D01*
X139422494Y-138403152D02*
X139612970Y-138403152D01*
X139612970Y-138403152D02*
X139708208Y-138450771D01*
X114730180Y-127215350D02*
X115253990Y-127215350D01*
X115253990Y-127215350D02*
X115349228Y-127167731D01*
X115349228Y-127167731D02*
X115396847Y-127072493D01*
X115396847Y-127072493D02*
X115396847Y-126882017D01*
X115396847Y-126882017D02*
X115349228Y-126786779D01*
X114777800Y-127215350D02*
X114730180Y-127120112D01*
X114730180Y-127120112D02*
X114730180Y-126882017D01*
X114730180Y-126882017D02*
X114777800Y-126786779D01*
X114777800Y-126786779D02*
X114873038Y-126739160D01*
X114873038Y-126739160D02*
X114968276Y-126739160D01*
X114968276Y-126739160D02*
X115063514Y-126786779D01*
X115063514Y-126786779D02*
X115111133Y-126882017D01*
X115111133Y-126882017D02*
X115111133Y-127120112D01*
X115111133Y-127120112D02*
X115158752Y-127215350D01*
X115396847Y-127691541D02*
X114730180Y-127691541D01*
X115301609Y-127691541D02*
X115349228Y-127739160D01*
X115349228Y-127739160D02*
X115396847Y-127834398D01*
X115396847Y-127834398D02*
X115396847Y-127977255D01*
X115396847Y-127977255D02*
X115349228Y-128072493D01*
X115349228Y-128072493D02*
X115253990Y-128120112D01*
X115253990Y-128120112D02*
X114730180Y-128120112D01*
X114730180Y-129024874D02*
X115253990Y-129024874D01*
X115253990Y-129024874D02*
X115349228Y-128977255D01*
X115349228Y-128977255D02*
X115396847Y-128882017D01*
X115396847Y-128882017D02*
X115396847Y-128691541D01*
X115396847Y-128691541D02*
X115349228Y-128596303D01*
X114777800Y-129024874D02*
X114730180Y-128929636D01*
X114730180Y-128929636D02*
X114730180Y-128691541D01*
X114730180Y-128691541D02*
X114777800Y-128596303D01*
X114777800Y-128596303D02*
X114873038Y-128548684D01*
X114873038Y-128548684D02*
X114968276Y-128548684D01*
X114968276Y-128548684D02*
X115063514Y-128596303D01*
X115063514Y-128596303D02*
X115111133Y-128691541D01*
X115111133Y-128691541D02*
X115111133Y-128929636D01*
X115111133Y-128929636D02*
X115158752Y-129024874D01*
X114730180Y-129643922D02*
X114777800Y-129548684D01*
X114777800Y-129548684D02*
X114873038Y-129501065D01*
X114873038Y-129501065D02*
X115730180Y-129501065D01*
X114730180Y-130167732D02*
X114777800Y-130072494D01*
X114777800Y-130072494D02*
X114825419Y-130024875D01*
X114825419Y-130024875D02*
X114920657Y-129977256D01*
X114920657Y-129977256D02*
X115206371Y-129977256D01*
X115206371Y-129977256D02*
X115301609Y-130024875D01*
X115301609Y-130024875D02*
X115349228Y-130072494D01*
X115349228Y-130072494D02*
X115396847Y-130167732D01*
X115396847Y-130167732D02*
X115396847Y-130310589D01*
X115396847Y-130310589D02*
X115349228Y-130405827D01*
X115349228Y-130405827D02*
X115301609Y-130453446D01*
X115301609Y-130453446D02*
X115206371Y-130501065D01*
X115206371Y-130501065D02*
X114920657Y-130501065D01*
X114920657Y-130501065D02*
X114825419Y-130453446D01*
X114825419Y-130453446D02*
X114777800Y-130405827D01*
X114777800Y-130405827D02*
X114730180Y-130310589D01*
X114730180Y-130310589D02*
X114730180Y-130167732D01*
X115396847Y-131358208D02*
X114587323Y-131358208D01*
X114587323Y-131358208D02*
X114492085Y-131310589D01*
X114492085Y-131310589D02*
X114444466Y-131262970D01*
X114444466Y-131262970D02*
X114396847Y-131167732D01*
X114396847Y-131167732D02*
X114396847Y-131024875D01*
X114396847Y-131024875D02*
X114444466Y-130929637D01*
X114777800Y-131358208D02*
X114730180Y-131262970D01*
X114730180Y-131262970D02*
X114730180Y-131072494D01*
X114730180Y-131072494D02*
X114777800Y-130977256D01*
X114777800Y-130977256D02*
X114825419Y-130929637D01*
X114825419Y-130929637D02*
X114920657Y-130882018D01*
X114920657Y-130882018D02*
X115206371Y-130882018D01*
X115206371Y-130882018D02*
X115301609Y-130929637D01*
X115301609Y-130929637D02*
X115349228Y-130977256D01*
X115349228Y-130977256D02*
X115396847Y-131072494D01*
X115396847Y-131072494D02*
X115396847Y-131262970D01*
X115396847Y-131262970D02*
X115349228Y-131358208D01*
D11*
%TO.C,C6*%
X168883767Y-111235000D02*
X168591233Y-111235000D01*
X168883767Y-110215000D02*
X168591233Y-110215000D01*
%TO.C,C43*%
X123940000Y-105221267D02*
X123940000Y-104928733D01*
X124960000Y-105221267D02*
X124960000Y-104928733D01*
%TO.C,R32*%
X168942621Y-122255000D02*
X168607379Y-122255000D01*
X168942621Y-121495000D02*
X168607379Y-121495000D01*
%TO.C,R16*%
X143752500Y-136034724D02*
X143752500Y-135525276D01*
X144797500Y-136034724D02*
X144797500Y-135525276D01*
%TO.C,U7*%
X158475000Y-96765000D02*
X158475000Y-97000000D01*
X158475000Y-97000000D02*
X156660000Y-97000000D01*
X158475000Y-109785000D02*
X158475000Y-109550000D01*
X162335000Y-96765000D02*
X158475000Y-96765000D01*
X162335000Y-96765000D02*
X166195000Y-96765000D01*
X162335000Y-109785000D02*
X158475000Y-109785000D01*
X162335000Y-109785000D02*
X166195000Y-109785000D01*
X166195000Y-96765000D02*
X166195000Y-97000000D01*
X166195000Y-109785000D02*
X166195000Y-109550000D01*
%TO.C,D2*%
X184535000Y-109095000D02*
X184535000Y-107625000D01*
X184535000Y-107625000D02*
X182075000Y-107625000D01*
X182075000Y-109095000D02*
X184535000Y-109095000D01*
%TO.C,C39*%
X136278733Y-84490000D02*
X136571267Y-84490000D01*
X136278733Y-85510000D02*
X136571267Y-85510000D01*
%TO.C,J6*%
X188825000Y-87260000D02*
X186225000Y-87260000D01*
X183915000Y-86500000D02*
X183915000Y-85350000D01*
X183325000Y-85350000D02*
X183325000Y-84650000D01*
X183915000Y-85350000D02*
X183325000Y-85350000D01*
X183915000Y-81250000D02*
X183915000Y-80100000D01*
X186225000Y-79340000D02*
X188825000Y-79340000D01*
%TO.C,R28*%
X164654724Y-140822500D02*
X164145276Y-140822500D01*
X164654724Y-139777500D02*
X164145276Y-139777500D01*
%TO.C,R39*%
X151272500Y-105495276D02*
X151272500Y-106004724D01*
X150227500Y-105495276D02*
X150227500Y-106004724D01*
%TO.C,U4*%
X145140000Y-76325000D02*
X145140000Y-79775000D01*
X145140000Y-76325000D02*
X145140000Y-74375000D01*
X150260000Y-76325000D02*
X150260000Y-78275000D01*
X150260000Y-76325000D02*
X150260000Y-74375000D01*
%TO.C,R29*%
X173154724Y-133122500D02*
X172645276Y-133122500D01*
X173154724Y-132077500D02*
X172645276Y-132077500D01*
%TO.C,D1*%
X184535000Y-111685000D02*
X184535000Y-110215000D01*
X184535000Y-110215000D02*
X182075000Y-110215000D01*
X182075000Y-111685000D02*
X184535000Y-111685000D01*
%TO.C,R13*%
X133002500Y-136059724D02*
X133002500Y-135550276D01*
X134047500Y-136059724D02*
X134047500Y-135550276D01*
%TO.C,C5*%
X166810000Y-126678733D02*
X166810000Y-126971267D01*
X165790000Y-126678733D02*
X165790000Y-126971267D01*
%TO.C,R38*%
X152995276Y-105977500D02*
X153504724Y-105977500D01*
X152995276Y-107022500D02*
X153504724Y-107022500D01*
%TO.C,P2*%
X189000000Y-104070000D02*
X187200000Y-104070000D01*
X191100000Y-104070000D02*
X192250000Y-104070000D01*
X189000000Y-94730000D02*
X187200000Y-94730000D01*
X191100000Y-94730000D02*
X192250000Y-94730000D01*
%TO.C,C35*%
X141846267Y-112285000D02*
X141553733Y-112285000D01*
X141846267Y-111265000D02*
X141553733Y-111265000D01*
%TO.C,R36*%
X169454724Y-147522500D02*
X168945276Y-147522500D01*
X169454724Y-146477500D02*
X168945276Y-146477500D01*
%TO.C,J12*%
X174695000Y-63030000D02*
X174695000Y-61700000D01*
X176025000Y-63030000D02*
X174695000Y-63030000D01*
X177295000Y-63030000D02*
X179895000Y-63030000D01*
X177295000Y-63030000D02*
X177295000Y-60370000D01*
X179895000Y-63030000D02*
X179895000Y-60370000D01*
X177295000Y-60370000D02*
X179895000Y-60370000D01*
%TO.C,C10*%
X165653733Y-117090000D02*
X165946267Y-117090000D01*
X165653733Y-118110000D02*
X165946267Y-118110000D01*
%TO.C,Y3*%
X166500000Y-112675000D02*
X163200000Y-112675000D01*
X163200000Y-112675000D02*
X163200000Y-116675000D01*
%TO.C,C37*%
X151335000Y-87853733D02*
X151335000Y-88146267D01*
X150315000Y-87853733D02*
X150315000Y-88146267D01*
%TO.C,R25*%
X151679724Y-142732500D02*
X151170276Y-142732500D01*
X151679724Y-141687500D02*
X151170276Y-141687500D01*
%TO.C,R14*%
X136452500Y-136009724D02*
X136452500Y-135500276D01*
X137497500Y-136009724D02*
X137497500Y-135500276D01*
%TO.C,R30*%
X170054724Y-145122500D02*
X169545276Y-145122500D01*
X170054724Y-144077500D02*
X169545276Y-144077500D01*
%TO.C,R10*%
X118325276Y-126877500D02*
X118834724Y-126877500D01*
X118325276Y-127922500D02*
X118834724Y-127922500D01*
%TO.C,J2*%
X138850000Y-61565000D02*
X138850000Y-60825000D01*
X138850000Y-60825000D02*
X138350000Y-60825000D01*
X138610000Y-67385000D02*
X138610000Y-61065000D01*
X138610000Y-67385000D02*
X132950000Y-67385000D01*
X138610000Y-66925000D02*
X132950000Y-66925000D01*
X138610000Y-61625000D02*
X137840000Y-61625000D01*
X138610000Y-61065000D02*
X137840000Y-61065000D01*
X136260000Y-61625000D02*
X135300000Y-61625000D01*
X136260000Y-61065000D02*
X135300000Y-61065000D01*
X133720000Y-61625000D02*
X132950000Y-61625000D01*
X133720000Y-61065000D02*
X132950000Y-61065000D01*
X132950000Y-67385000D02*
X132950000Y-61065000D01*
%TO.C,R45*%
X122220276Y-78977500D02*
X122729724Y-78977500D01*
X122220276Y-80022500D02*
X122729724Y-80022500D01*
%TO.C,C12*%
X149221267Y-120795000D02*
X148928733Y-120795000D01*
X149221267Y-119775000D02*
X148928733Y-119775000D01*
%TO.C,R24*%
X143642224Y-132772500D02*
X143132776Y-132772500D01*
X143642224Y-131727500D02*
X143132776Y-131727500D01*
%TO.C,C32*%
X170853733Y-73990000D02*
X171146267Y-73990000D01*
X170853733Y-75010000D02*
X171146267Y-75010000D01*
%TO.C,R7*%
X186642224Y-108947500D02*
X186132776Y-108947500D01*
X186642224Y-107902500D02*
X186132776Y-107902500D01*
%TO.C,R35*%
X165872500Y-120945276D02*
X165872500Y-121454724D01*
X164827500Y-120945276D02*
X164827500Y-121454724D01*
%TO.C,J7*%
X104590000Y-70050000D02*
X103850000Y-70050000D01*
X103850000Y-70050000D02*
X103850000Y-70550000D01*
X114011000Y-70290000D02*
X104090000Y-70290000D01*
X114011000Y-70290000D02*
X114011000Y-90411000D01*
X111051000Y-70290000D02*
X111051000Y-90411000D01*
X106150000Y-70290000D02*
X106150000Y-90411000D01*
X104650000Y-70290000D02*
X104650000Y-90411000D01*
X104090000Y-70290000D02*
X104090000Y-90411000D01*
X107727000Y-76623000D02*
X107681000Y-76576000D01*
X107511000Y-76816000D02*
X107476000Y-76781000D01*
X110025000Y-78920000D02*
X109989000Y-78885000D01*
X109819000Y-79125000D02*
X109773000Y-79078000D01*
X107727000Y-81623000D02*
X107681000Y-81576000D01*
X107511000Y-81816000D02*
X107476000Y-81781000D01*
X110025000Y-83920000D02*
X109989000Y-83885000D01*
X109819000Y-84125000D02*
X109773000Y-84078000D01*
X107727000Y-86623000D02*
X107681000Y-86576000D01*
X107511000Y-86816000D02*
X107476000Y-86781000D01*
X110025000Y-88920000D02*
X109989000Y-88885000D01*
X109819000Y-89125000D02*
X109773000Y-89078000D01*
X114011000Y-90411000D02*
X104090000Y-90411000D01*
X109433999Y-71315001D02*
G75*
G03*
X108066958Y-71314574I-684000J-1534992D01*
G01*
X110284999Y-73533999D02*
G75*
G03*
X110285426Y-72166958I-1534992J684000D01*
G01*
X107215001Y-72166000D02*
G75*
G03*
X107069748Y-72878805I1535000J-683999D01*
G01*
X107070001Y-72850000D02*
G75*
G03*
X107215245Y-73533318I1679999J0D01*
G01*
X108066000Y-74385000D02*
G75*
G03*
X109433042Y-74385426I684000J1535000D01*
G01*
X110430000Y-77850000D02*
G75*
G03*
X110430000Y-77850000I-1680000J0D01*
G01*
X110430000Y-82850000D02*
G75*
G03*
X110430000Y-82850000I-1680000J0D01*
G01*
X110430000Y-87850000D02*
G75*
G03*
X110430000Y-87850000I-1680000J0D01*
G01*
%TO.C,Y1*%
X163725000Y-95275000D02*
X163725000Y-90775000D01*
X163725000Y-90775000D02*
X158325000Y-90775000D01*
D12*
%TO.C,T1*%
X164100000Y-121588000D02*
X164100000Y-128698000D01*
X151400000Y-121588000D02*
X151400000Y-128698000D01*
D13*
X162295000Y-119682000D02*
G75*
G03*
X162295000Y-119682000I-100000J0D01*
G01*
D11*
%TO.C,R18*%
X122427500Y-128045276D02*
X122427500Y-128554724D01*
X121382500Y-128045276D02*
X121382500Y-128554724D01*
%TO.C,R5*%
X153302500Y-96479724D02*
X153302500Y-95970276D01*
X154347500Y-96479724D02*
X154347500Y-95970276D01*
%TO.C,R42*%
X151245276Y-110477500D02*
X151754724Y-110477500D01*
X151245276Y-111522500D02*
X151754724Y-111522500D01*
%TO.C,J3*%
X154795000Y-66920000D02*
X156125000Y-66920000D01*
X154795000Y-68250000D02*
X154795000Y-66920000D01*
X154795000Y-69520000D02*
X154795000Y-72120000D01*
X154795000Y-69520000D02*
X157455000Y-69520000D01*
X154795000Y-72120000D02*
X157455000Y-72120000D01*
X157455000Y-69520000D02*
X157455000Y-72120000D01*
%TO.C,J11*%
X177870000Y-67620000D02*
X179200000Y-67620000D01*
X177870000Y-68950000D02*
X177870000Y-67620000D01*
X177870000Y-70220000D02*
X177870000Y-72820000D01*
X177870000Y-70220000D02*
X180530000Y-70220000D01*
X177870000Y-72820000D02*
X180530000Y-72820000D01*
X180530000Y-70220000D02*
X180530000Y-72820000D01*
%TO.C,C27*%
X117260000Y-97353733D02*
X117260000Y-97646267D01*
X116240000Y-97353733D02*
X116240000Y-97646267D01*
%TO.C,SW5*%
X113370000Y-66630000D02*
X113370000Y-60170000D01*
X113400000Y-66630000D02*
X113370000Y-66630000D01*
X115300000Y-66630000D02*
X117900000Y-66630000D01*
X119830000Y-66630000D02*
X119800000Y-66630000D01*
X119830000Y-66630000D02*
X119830000Y-60170000D01*
X113370000Y-60170000D02*
X113400000Y-60170000D01*
X115300000Y-60170000D02*
X117900000Y-60170000D01*
X119830000Y-60170000D02*
X119800000Y-60170000D01*
%TO.C,R22*%
X139654724Y-132827500D02*
X139145276Y-132827500D01*
X139654724Y-131782500D02*
X139145276Y-131782500D01*
%TO.C,U8*%
X158860000Y-112315000D02*
X158860000Y-112790000D01*
X158385000Y-116535000D02*
X158860000Y-116535000D01*
X158385000Y-112315000D02*
X158860000Y-112315000D01*
X155115000Y-116535000D02*
X154640000Y-116535000D01*
X155115000Y-112315000D02*
X154640000Y-112315000D01*
X154640000Y-116535000D02*
X154640000Y-116060000D01*
X154640000Y-112315000D02*
X154640000Y-112790000D01*
%TO.C,C34*%
X137896267Y-112285000D02*
X137603733Y-112285000D01*
X137896267Y-111265000D02*
X137603733Y-111265000D01*
%TO.C,R1*%
X129497500Y-69170276D02*
X129497500Y-69679724D01*
X128452500Y-69170276D02*
X128452500Y-69679724D01*
%TO.C,C31*%
X121265000Y-99746267D02*
X121265000Y-99453733D01*
X122285000Y-99746267D02*
X122285000Y-99453733D01*
%TO.C,C25*%
X124090000Y-97671267D02*
X124090000Y-97378733D01*
X125110000Y-97671267D02*
X125110000Y-97378733D01*
%TO.C,C36*%
X147910000Y-112478733D02*
X147910000Y-112771267D01*
X146890000Y-112478733D02*
X146890000Y-112771267D01*
%TO.C,C8*%
X159953733Y-110340000D02*
X160246267Y-110340000D01*
X159953733Y-111360000D02*
X160246267Y-111360000D01*
%TO.C,J1*%
X124370000Y-66820000D02*
X125700000Y-66820000D01*
X124370000Y-68150000D02*
X124370000Y-66820000D01*
X124370000Y-69420000D02*
X124370000Y-72020000D01*
X124370000Y-69420000D02*
X127030000Y-69420000D01*
X124370000Y-72020000D02*
X127030000Y-72020000D01*
X127030000Y-69420000D02*
X127030000Y-72020000D01*
%TO.C,R2*%
X153497500Y-69270276D02*
X153497500Y-69779724D01*
X152452500Y-69270276D02*
X152452500Y-69779724D01*
%TO.C,J9*%
X127000000Y-149440000D02*
X127000000Y-150180000D01*
X127000000Y-150180000D02*
X127500000Y-150180000D01*
X127240000Y-140019000D02*
X127240000Y-149940000D01*
X127240000Y-140019000D02*
X147361000Y-140019000D01*
X127240000Y-142979000D02*
X147361000Y-142979000D01*
X127240000Y-147880000D02*
X147361000Y-147880000D01*
X127240000Y-149380000D02*
X147361000Y-149380000D01*
X127240000Y-149940000D02*
X147361000Y-149940000D01*
X133573000Y-146303000D02*
X133526000Y-146349000D01*
X133766000Y-146519000D02*
X133731000Y-146554000D01*
X135870000Y-144005000D02*
X135835000Y-144041000D01*
X136075000Y-144211000D02*
X136028000Y-144257000D01*
X138573000Y-146303000D02*
X138526000Y-146349000D01*
X138766000Y-146519000D02*
X138731000Y-146554000D01*
X140870000Y-144005000D02*
X140835000Y-144041000D01*
X141075000Y-144211000D02*
X141028000Y-144257000D01*
X143573000Y-146303000D02*
X143526000Y-146349000D01*
X143766000Y-146519000D02*
X143731000Y-146554000D01*
X145870000Y-144005000D02*
X145835000Y-144041000D01*
X146075000Y-144211000D02*
X146028000Y-144257000D01*
X147361000Y-140019000D02*
X147361000Y-149940000D01*
X128265001Y-144596001D02*
G75*
G03*
X128264574Y-145963042I1534992J-684000D01*
G01*
X130483999Y-143745001D02*
G75*
G03*
X129116958Y-143744574I-684000J-1534992D01*
G01*
X129116000Y-146814999D02*
G75*
G03*
X129828805Y-146960252I683999J1535000D01*
G01*
X129800000Y-146959999D02*
G75*
G03*
X130483318Y-146814755I0J1679999D01*
G01*
X131335000Y-145964000D02*
G75*
G03*
X131335426Y-144596958I-1535000J684000D01*
G01*
X136480000Y-145280000D02*
G75*
G03*
X136480000Y-145280000I-1680000J0D01*
G01*
X141480000Y-145280000D02*
G75*
G03*
X141480000Y-145280000I-1680000J0D01*
G01*
X146480000Y-145280000D02*
G75*
G03*
X146480000Y-145280000I-1680000J0D01*
G01*
%TO.C,J5*%
X161405000Y-74655000D02*
X160075000Y-74655000D01*
X161405000Y-73325000D02*
X161405000Y-74655000D01*
X161405000Y-72055000D02*
X161405000Y-66915000D01*
X161405000Y-72055000D02*
X158745000Y-72055000D01*
X161405000Y-66915000D02*
X158745000Y-66915000D01*
X158745000Y-72055000D02*
X158745000Y-66915000D01*
%TO.C,U10*%
X170660000Y-80775000D02*
X169060000Y-80775000D01*
X169060000Y-82575000D02*
X170960000Y-82575000D01*
%TO.C,R44*%
X152995276Y-107477500D02*
X153504724Y-107477500D01*
X152995276Y-108522500D02*
X153504724Y-108522500D01*
%TO.C,C38*%
X141128733Y-84490000D02*
X141421267Y-84490000D01*
X141128733Y-85510000D02*
X141421267Y-85510000D01*
%TO.C,U12*%
X169500000Y-126885000D02*
X171300000Y-126885000D01*
X169500000Y-126885000D02*
X168700000Y-126885000D01*
X169500000Y-123765000D02*
X170300000Y-123765000D01*
X169500000Y-123765000D02*
X168700000Y-123765000D01*
%TO.C,R11*%
X118350276Y-130227500D02*
X118859724Y-130227500D01*
X118350276Y-131272500D02*
X118859724Y-131272500D01*
%TO.C,R43*%
X153504724Y-110022500D02*
X152995276Y-110022500D01*
X153504724Y-108977500D02*
X152995276Y-108977500D01*
%TO.C,C11*%
X149221267Y-122370000D02*
X148928733Y-122370000D01*
X149221267Y-121350000D02*
X148928733Y-121350000D01*
%TO.C,R9*%
X118337776Y-123532500D02*
X118847224Y-123532500D01*
X118337776Y-124577500D02*
X118847224Y-124577500D01*
%TO.C,R12*%
X118350276Y-133527500D02*
X118859724Y-133527500D01*
X118350276Y-134572500D02*
X118859724Y-134572500D01*
%TO.C,R37*%
X122770276Y-109152500D02*
X123279724Y-109152500D01*
X122770276Y-110197500D02*
X123279724Y-110197500D01*
%TO.C,C41*%
X124646267Y-93510000D02*
X124353733Y-93510000D01*
X124646267Y-92490000D02*
X124353733Y-92490000D01*
%TO.C,U9*%
X169985000Y-85590000D02*
X168185000Y-85590000D01*
X168185000Y-88810000D02*
X170635000Y-88810000D01*
%TO.C,U1*%
X127915000Y-88365000D02*
X127915000Y-89315000D01*
X127915000Y-89315000D02*
X126625000Y-89315000D01*
X127915000Y-108585000D02*
X127915000Y-107635000D01*
X128865000Y-88365000D02*
X127915000Y-88365000D01*
X128865000Y-108585000D02*
X127915000Y-108585000D01*
X147185000Y-88365000D02*
X148135000Y-88365000D01*
X147185000Y-108585000D02*
X148135000Y-108585000D01*
X148135000Y-88365000D02*
X148135000Y-89315000D01*
X148135000Y-108585000D02*
X148135000Y-107635000D01*
%TO.C,R15*%
X139777500Y-136059724D02*
X139777500Y-135550276D01*
X140822500Y-136059724D02*
X140822500Y-135550276D01*
%TO.C,C2*%
X154836400Y-96361467D02*
X154836400Y-96068933D01*
X155856400Y-96361467D02*
X155856400Y-96068933D01*
%TO.C,R26*%
X149504724Y-126522500D02*
X148995276Y-126522500D01*
X149504724Y-125477500D02*
X148995276Y-125477500D01*
%TO.C,J4*%
X150770000Y-61565000D02*
X150770000Y-60825000D01*
X150770000Y-60825000D02*
X150270000Y-60825000D01*
X150530000Y-67385000D02*
X150530000Y-61065000D01*
X150530000Y-67385000D02*
X144870000Y-67385000D01*
X150530000Y-66925000D02*
X144870000Y-66925000D01*
X150530000Y-61625000D02*
X149760000Y-61625000D01*
X150530000Y-61065000D02*
X149760000Y-61065000D01*
X148180000Y-61625000D02*
X147220000Y-61625000D01*
X148180000Y-61065000D02*
X147220000Y-61065000D01*
X145640000Y-61625000D02*
X144870000Y-61625000D01*
X145640000Y-61065000D02*
X144870000Y-61065000D01*
X144870000Y-67385000D02*
X144870000Y-61065000D01*
%TO.C,C40*%
X128265000Y-84896267D02*
X128265000Y-84603733D01*
X129285000Y-84896267D02*
X129285000Y-84603733D01*
%TO.C,J14*%
X104620000Y-91150000D02*
X103880000Y-91150000D01*
X103880000Y-91150000D02*
X103880000Y-91650000D01*
X114041000Y-91390000D02*
X104120000Y-91390000D01*
X114041000Y-91390000D02*
X114041000Y-111511000D01*
X111081000Y-91390000D02*
X111081000Y-111511000D01*
X106180000Y-91390000D02*
X106180000Y-111511000D01*
X104680000Y-91390000D02*
X104680000Y-111511000D01*
X104120000Y-91390000D02*
X104120000Y-111511000D01*
X107757000Y-97723000D02*
X107711000Y-97676000D01*
X107541000Y-97916000D02*
X107506000Y-97881000D01*
X110055000Y-100020000D02*
X110019000Y-99985000D01*
X109849000Y-100225000D02*
X109803000Y-100178000D01*
X107757000Y-102723000D02*
X107711000Y-102676000D01*
X107541000Y-102916000D02*
X107506000Y-102881000D01*
X110055000Y-105020000D02*
X110019000Y-104985000D01*
X109849000Y-105225000D02*
X109803000Y-105178000D01*
X107757000Y-107723000D02*
X107711000Y-107676000D01*
X107541000Y-107916000D02*
X107506000Y-107881000D01*
X110055000Y-110020000D02*
X110019000Y-109985000D01*
X109849000Y-110225000D02*
X109803000Y-110178000D01*
X114041000Y-111511000D02*
X104120000Y-111511000D01*
X109463999Y-92415001D02*
G75*
G03*
X108096958Y-92414574I-684000J-1534992D01*
G01*
X110314999Y-94633999D02*
G75*
G03*
X110315426Y-93266958I-1534992J684000D01*
G01*
X107245001Y-93266000D02*
G75*
G03*
X107099748Y-93978805I1535000J-683999D01*
G01*
X107100001Y-93950000D02*
G75*
G03*
X107245245Y-94633318I1679999J0D01*
G01*
X108096000Y-95485000D02*
G75*
G03*
X109463042Y-95485426I684000J1535000D01*
G01*
X110460000Y-98950000D02*
G75*
G03*
X110460000Y-98950000I-1680000J0D01*
G01*
X110460000Y-103950000D02*
G75*
G03*
X110460000Y-103950000I-1680000J0D01*
G01*
X110460000Y-108950000D02*
G75*
G03*
X110460000Y-108950000I-1680000J0D01*
G01*
%TO.C,R8*%
X173254724Y-102647500D02*
X172745276Y-102647500D01*
X173254724Y-101602500D02*
X172745276Y-101602500D01*
%TO.C,C45*%
X116746267Y-69710000D02*
X116453733Y-69710000D01*
X116746267Y-68690000D02*
X116453733Y-68690000D01*
%TO.C,R4*%
X119504724Y-101022500D02*
X118995276Y-101022500D01*
X119504724Y-99977500D02*
X118995276Y-99977500D01*
%TO.C,C4*%
X165203600Y-92919333D02*
X165203600Y-93211867D01*
X164183600Y-92919333D02*
X164183600Y-93211867D01*
%TO.C,R19*%
X122452500Y-134720276D02*
X122452500Y-135229724D01*
X121407500Y-134720276D02*
X121407500Y-135229724D01*
%TO.C,C23*%
X152710000Y-96103733D02*
X152710000Y-96396267D01*
X151690000Y-96103733D02*
X151690000Y-96396267D01*
%TO.C,G\u002A\u002A\u002A*%
G36*
X124793250Y-140540715D02*
G01*
X124796641Y-140617664D01*
X124793205Y-140706250D01*
X124768277Y-140905930D01*
X124723446Y-141082426D01*
X124661480Y-141230121D01*
X124585143Y-141343401D01*
X124497204Y-141416650D01*
X124431250Y-141440908D01*
X124375307Y-141445112D01*
X124350206Y-141433903D01*
X124350000Y-141432137D01*
X124370196Y-141404922D01*
X124409923Y-141380722D01*
X124464057Y-141343019D01*
X124521964Y-141284398D01*
X124533144Y-141270432D01*
X124580350Y-141189784D01*
X124629505Y-141074731D01*
X124675576Y-140940378D01*
X124713524Y-140801829D01*
X124738315Y-140674189D01*
X124742079Y-140643750D01*
X124755715Y-140550500D01*
X124770388Y-140504200D01*
X124783699Y-140501916D01*
X124793250Y-140540715D01*
G37*
G36*
X118661012Y-144968588D02*
G01*
X118662271Y-145052976D01*
X118657855Y-145143750D01*
X118652699Y-145261485D01*
X118656763Y-145352027D01*
X118672892Y-145437777D01*
X118703931Y-145541134D01*
X118711041Y-145562500D01*
X118755709Y-145682578D01*
X118809569Y-145808733D01*
X118861315Y-145914567D01*
X118863588Y-145918750D01*
X118902707Y-145994777D01*
X118926606Y-146050362D01*
X118930712Y-146074693D01*
X118929664Y-146075000D01*
X118905408Y-146056572D01*
X118862290Y-146008780D01*
X118820615Y-145956250D01*
X118704012Y-145775414D01*
X118619326Y-145587822D01*
X118568400Y-145401561D01*
X118553076Y-145224719D01*
X118575197Y-145065383D01*
X118601360Y-144993750D01*
X118631020Y-144940204D01*
X118650750Y-144931407D01*
X118661012Y-144968588D01*
G37*
G36*
X118767959Y-143954607D02*
G01*
X118781295Y-143968040D01*
X118759648Y-143999790D01*
X118699855Y-144054230D01*
X118689827Y-144062611D01*
X118599135Y-144139322D01*
X118500813Y-144224530D01*
X118452323Y-144267449D01*
X118377982Y-144328322D01*
X118306882Y-144377278D01*
X118265919Y-144398699D01*
X118177987Y-144417701D01*
X118068985Y-144422296D01*
X117963746Y-144412708D01*
X117900000Y-144395421D01*
X117840760Y-144381255D01*
X117753944Y-144372577D01*
X117687500Y-144371149D01*
X117608397Y-144369475D01*
X117571169Y-144362128D01*
X117575000Y-144352349D01*
X117675364Y-144320255D01*
X117801532Y-144316120D01*
X117923604Y-144336840D01*
X118074621Y-144359156D01*
X118208772Y-144338008D01*
X118335624Y-144271009D01*
X118401571Y-144217532D01*
X118535191Y-144100684D01*
X118637740Y-144019038D01*
X118711756Y-143970775D01*
X118759774Y-143954074D01*
X118767959Y-143954607D01*
G37*
G36*
X124366597Y-137608264D02*
G01*
X124355218Y-137630157D01*
X124314409Y-137680833D01*
X124249975Y-137753600D01*
X124167720Y-137841764D01*
X124131062Y-137879909D01*
X124031228Y-137984171D01*
X123961216Y-138061560D01*
X123915200Y-138120260D01*
X123887352Y-138168457D01*
X123871847Y-138214338D01*
X123864479Y-138254418D01*
X123840115Y-138346842D01*
X123800190Y-138434017D01*
X123786881Y-138454418D01*
X123740026Y-138524863D01*
X123703052Y-138590833D01*
X123698804Y-138600000D01*
X123682813Y-138683962D01*
X123691525Y-138785991D01*
X123721344Y-138882935D01*
X123750449Y-138932392D01*
X123779285Y-138979245D01*
X123783000Y-139008610D01*
X123782514Y-139009152D01*
X123736147Y-139025019D01*
X123679284Y-139009799D01*
X123646811Y-138983657D01*
X123625381Y-138928506D01*
X123614075Y-138830066D01*
X123612500Y-138762770D01*
X123615406Y-138659705D01*
X123627112Y-138587773D01*
X123652095Y-138528293D01*
X123678996Y-138485362D01*
X123722645Y-138403294D01*
X123761286Y-138300843D01*
X123777134Y-138241917D01*
X123804609Y-138145516D01*
X123846032Y-138069088D01*
X123914249Y-137989728D01*
X123924354Y-137979417D01*
X124010944Y-137894915D01*
X124102386Y-137810800D01*
X124190979Y-137733538D01*
X124269019Y-137669593D01*
X124328801Y-137625431D01*
X124362625Y-137607515D01*
X124366597Y-137608264D01*
G37*
G36*
X119796963Y-139073034D02*
G01*
X119783557Y-139100103D01*
X119729336Y-139146828D01*
X119721271Y-139152654D01*
X119657179Y-139186773D01*
X119570650Y-139209823D01*
X119448359Y-139225279D01*
X119440021Y-139226004D01*
X119222457Y-139260664D01*
X119033253Y-139327800D01*
X118858836Y-139432659D01*
X118811418Y-139468999D01*
X118638152Y-139600870D01*
X118492617Y-139696244D01*
X118371026Y-139757441D01*
X118303650Y-139779836D01*
X118174848Y-139837279D01*
X118065688Y-139937215D01*
X117978926Y-140075071D01*
X117917318Y-140246276D01*
X117883620Y-140446261D01*
X117880993Y-140480777D01*
X117876680Y-140589396D01*
X117881598Y-140662656D01*
X117897398Y-140714617D01*
X117911312Y-140739196D01*
X117939839Y-140792478D01*
X117939942Y-140815438D01*
X117914121Y-140802244D01*
X117893253Y-140781357D01*
X117837064Y-140685075D01*
X117807804Y-140558055D01*
X117804470Y-140411029D01*
X117826056Y-140254729D01*
X117871561Y-140099888D01*
X117939981Y-139957237D01*
X117975336Y-139903502D01*
X118012489Y-139856190D01*
X118052468Y-139817819D01*
X118104971Y-139782331D01*
X118179700Y-139743668D01*
X118286353Y-139695773D01*
X118355277Y-139666217D01*
X118412900Y-139635551D01*
X118498204Y-139582589D01*
X118598984Y-139515182D01*
X118688178Y-139452046D01*
X118856679Y-139337120D01*
X119004871Y-139254923D01*
X119145168Y-139200382D01*
X119289986Y-139168421D01*
X119412500Y-139156000D01*
X119552678Y-139140219D01*
X119664771Y-139113276D01*
X119706250Y-139096314D01*
X119770784Y-139070234D01*
X119796963Y-139073034D01*
G37*
G36*
X115599090Y-149877843D02*
G01*
X115637070Y-149927999D01*
X115659287Y-149967824D01*
X115757869Y-150151488D01*
X115864929Y-150334467D01*
X115974171Y-150507063D01*
X116079303Y-150659581D01*
X116174030Y-150782324D01*
X116225239Y-150839698D01*
X116307933Y-150921341D01*
X116375885Y-150976035D01*
X116446747Y-151014915D01*
X116538173Y-151049119D01*
X116577124Y-151061675D01*
X116695284Y-151096002D01*
X116837286Y-151132878D01*
X116977795Y-151165824D01*
X117018164Y-151174449D01*
X117221763Y-151216935D01*
X117382959Y-151251793D01*
X117508367Y-151281255D01*
X117604601Y-151307553D01*
X117678277Y-151332921D01*
X117736009Y-151359590D01*
X117784412Y-151389792D01*
X117830102Y-151425760D01*
X117871693Y-151462486D01*
X117934387Y-151525670D01*
X117993401Y-151596030D01*
X118040756Y-151662483D01*
X118068476Y-151713947D01*
X118070136Y-151738196D01*
X118049079Y-151726738D01*
X118002699Y-151686884D01*
X117940040Y-151626553D01*
X117923535Y-151609855D01*
X117856136Y-151543899D01*
X117791258Y-151489040D01*
X117722505Y-151442936D01*
X117643481Y-151403244D01*
X117547790Y-151367622D01*
X117429038Y-151333729D01*
X117280829Y-151299221D01*
X117096767Y-151261758D01*
X116870456Y-151218996D01*
X116841772Y-151213695D01*
X116642463Y-151169891D01*
X116482370Y-151117103D01*
X116350851Y-151050128D01*
X116237265Y-150963763D01*
X116151024Y-150875935D01*
X116090276Y-150799581D01*
X116014328Y-150692575D01*
X115929327Y-150564853D01*
X115841418Y-150426349D01*
X115756745Y-150286997D01*
X115681455Y-150156732D01*
X115621693Y-150045488D01*
X115583603Y-149963199D01*
X115579375Y-149951804D01*
X115564238Y-149888542D01*
X115572811Y-149864289D01*
X115599090Y-149877843D01*
G37*
G36*
X122045629Y-138907952D02*
G01*
X122054302Y-138909610D01*
X122170429Y-138951362D01*
X122269413Y-139021292D01*
X122336089Y-139108200D01*
X122342595Y-139122561D01*
X122383947Y-139197685D01*
X122442906Y-139277041D01*
X122463607Y-139300000D01*
X122528853Y-139387867D01*
X122573028Y-139500046D01*
X122583713Y-139541822D01*
X122605073Y-139626841D01*
X122624577Y-139693216D01*
X122636308Y-139723072D01*
X122638203Y-139747570D01*
X122630350Y-139750000D01*
X122587885Y-139727182D01*
X122541527Y-139665216D01*
X122497907Y-139573834D01*
X122484092Y-139535427D01*
X122446500Y-139447432D01*
X122398852Y-139367951D01*
X122378459Y-139342654D01*
X122325621Y-139274152D01*
X122274443Y-139190102D01*
X122263023Y-139167654D01*
X122204848Y-139083012D01*
X122125832Y-139014921D01*
X122038899Y-138970869D01*
X121956978Y-138958345D01*
X121918154Y-138967874D01*
X121866464Y-139013917D01*
X121839723Y-139095566D01*
X121837267Y-139216117D01*
X121848059Y-139314700D01*
X121857549Y-139451164D01*
X121848410Y-139577530D01*
X121846220Y-139589700D01*
X121831705Y-139676229D01*
X121815752Y-139789375D01*
X121801604Y-139905974D01*
X121800490Y-139916219D01*
X121766541Y-140101417D01*
X121709140Y-140259278D01*
X121631909Y-140379881D01*
X121630712Y-140381250D01*
X121587945Y-140420421D01*
X121568900Y-140417989D01*
X121576068Y-140377618D01*
X121596734Y-140331250D01*
X121652930Y-140198662D01*
X121696393Y-140053335D01*
X121721305Y-139916834D01*
X121725000Y-139855560D01*
X121732475Y-139766186D01*
X121751541Y-139660725D01*
X121765550Y-139605706D01*
X121790299Y-139488078D01*
X121794782Y-139362545D01*
X121789633Y-139284499D01*
X121786419Y-139127977D01*
X121809568Y-139013258D01*
X121859922Y-138939144D01*
X121938328Y-138904441D01*
X122045629Y-138907952D01*
G37*
G36*
X123812500Y-139439220D02*
G01*
X123972416Y-139459726D01*
X124136232Y-139491508D01*
X124290561Y-139531119D01*
X124422016Y-139575115D01*
X124517210Y-139620050D01*
X124518750Y-139620995D01*
X124562568Y-139662031D01*
X124574263Y-139703107D01*
X124550510Y-139729166D01*
X124541948Y-139756871D01*
X124552387Y-139821568D01*
X124563010Y-139860223D01*
X124598118Y-140053971D01*
X124595983Y-140266454D01*
X124558347Y-140485100D01*
X124486952Y-140697336D01*
X124431136Y-140811863D01*
X124382258Y-140888161D01*
X124325095Y-140944974D01*
X124243103Y-140997330D01*
X124204065Y-141018113D01*
X124135076Y-141052647D01*
X124078182Y-141075750D01*
X124020515Y-141089668D01*
X123949206Y-141096649D01*
X123851389Y-141098941D01*
X123741565Y-141098895D01*
X123605176Y-141097143D01*
X123507243Y-141092041D01*
X123436255Y-141082083D01*
X123380702Y-141065762D01*
X123337500Y-141046010D01*
X123200782Y-140956047D01*
X123103732Y-140844789D01*
X123040773Y-140704118D01*
X123012264Y-140572332D01*
X123011776Y-140518117D01*
X123231884Y-140518117D01*
X123236238Y-140566050D01*
X123275184Y-140606655D01*
X123333906Y-140624939D01*
X123337500Y-140625000D01*
X123396283Y-140609400D01*
X123424735Y-140587818D01*
X123447930Y-140535740D01*
X123427212Y-140497343D01*
X123368190Y-140479411D01*
X123335153Y-140479484D01*
X123272116Y-140491657D01*
X123234378Y-140513700D01*
X123231884Y-140518117D01*
X123011776Y-140518117D01*
X123011370Y-140473062D01*
X123029476Y-140341929D01*
X123062904Y-140190927D01*
X123065235Y-140182710D01*
X123629349Y-140182710D01*
X123631031Y-140251615D01*
X123659798Y-140291990D01*
X123705359Y-140296067D01*
X123744999Y-140270000D01*
X123768959Y-140222376D01*
X123775000Y-140180839D01*
X123766929Y-140138639D01*
X123732672Y-140127599D01*
X123706463Y-140129589D01*
X123648494Y-140151718D01*
X123629349Y-140182710D01*
X123065235Y-140182710D01*
X123107972Y-140032046D01*
X123161004Y-139877282D01*
X123218320Y-139738627D01*
X123232667Y-139711242D01*
X123470820Y-139711242D01*
X123494573Y-139743750D01*
X123540133Y-139771704D01*
X123574099Y-139763617D01*
X123594999Y-139745000D01*
X123619219Y-139697110D01*
X123625000Y-139657500D01*
X123613519Y-139613543D01*
X123570098Y-139600136D01*
X123561694Y-139600000D01*
X123505188Y-139617981D01*
X123472272Y-139660684D01*
X123470820Y-139711242D01*
X123232667Y-139711242D01*
X123276240Y-139628073D01*
X123320313Y-139568162D01*
X123420496Y-139496014D01*
X123555902Y-139450948D01*
X123718434Y-139435087D01*
X123812500Y-139439220D01*
G37*
G36*
X120204782Y-139645132D02*
G01*
X120319922Y-139658885D01*
X120399243Y-139680782D01*
X120403619Y-139682858D01*
X120489795Y-139750945D01*
X120567403Y-139860961D01*
X120633602Y-140005161D01*
X120685551Y-140175804D01*
X120720408Y-140365146D01*
X120735330Y-140565444D01*
X120735630Y-140587500D01*
X120735300Y-140705996D01*
X120730537Y-140788561D01*
X120718850Y-140849228D01*
X120697746Y-140902027D01*
X120671251Y-140950000D01*
X120555108Y-141110806D01*
X120411108Y-141242213D01*
X120233597Y-141348027D01*
X120016918Y-141432058D01*
X119910198Y-141462468D01*
X119791463Y-141492516D01*
X119707765Y-141510604D01*
X119645994Y-141518259D01*
X119593041Y-141517008D01*
X119535795Y-141508379D01*
X119528226Y-141506960D01*
X119445620Y-141478817D01*
X119342828Y-141426552D01*
X119236108Y-141360277D01*
X119141716Y-141290104D01*
X119075911Y-141226144D01*
X119075102Y-141225129D01*
X118996601Y-141101095D01*
X119361823Y-141101095D01*
X119362119Y-141139654D01*
X119375908Y-141163595D01*
X119416704Y-141182514D01*
X119492931Y-141194862D01*
X119590418Y-141200382D01*
X119694997Y-141198818D01*
X119792500Y-141189913D01*
X119868755Y-141173412D01*
X119871269Y-141172554D01*
X119924691Y-141148837D01*
X119949737Y-141127687D01*
X119950000Y-141126036D01*
X119927000Y-141110118D01*
X119865918Y-141096734D01*
X119778633Y-141086389D01*
X119677020Y-141079586D01*
X119572958Y-141076829D01*
X119478324Y-141078621D01*
X119404994Y-141085466D01*
X119364847Y-141097869D01*
X119361823Y-141101095D01*
X118996601Y-141101095D01*
X118956203Y-141037265D01*
X118907660Y-140900511D01*
X120004506Y-140900511D01*
X120011153Y-140922821D01*
X120052363Y-140947552D01*
X120113477Y-140941214D01*
X120161541Y-140916292D01*
X120192886Y-140876579D01*
X120182248Y-140845075D01*
X120137573Y-140832607D01*
X120103522Y-140837243D01*
X120030389Y-140865181D01*
X120004506Y-140900511D01*
X118907660Y-140900511D01*
X118884775Y-140836040D01*
X118874849Y-140746597D01*
X120358127Y-140746597D01*
X120372354Y-140788004D01*
X120408399Y-140796374D01*
X120456697Y-140769539D01*
X120507685Y-140705329D01*
X120508192Y-140704464D01*
X120538369Y-140636550D01*
X120531883Y-140596936D01*
X120530812Y-140595812D01*
X120484908Y-140579660D01*
X120431749Y-140601085D01*
X120385958Y-140652707D01*
X120375280Y-140674322D01*
X120358127Y-140746597D01*
X118874849Y-140746597D01*
X118861409Y-140625479D01*
X118884739Y-140426314D01*
X119650000Y-140426314D01*
X119662793Y-140495762D01*
X119697131Y-140522809D01*
X119746944Y-140506740D01*
X119806168Y-140446838D01*
X119807619Y-140444904D01*
X119839540Y-140391961D01*
X119837791Y-140355460D01*
X119828060Y-140341187D01*
X119781604Y-140317775D01*
X119725058Y-140328008D01*
X119675647Y-140363652D01*
X119650597Y-140416474D01*
X119650000Y-140426314D01*
X118884739Y-140426314D01*
X118886696Y-140409608D01*
X118933197Y-140258691D01*
X119027369Y-140082109D01*
X119160712Y-139926963D01*
X119324440Y-139800550D01*
X119509766Y-139710166D01*
X119636939Y-139674337D01*
X119769901Y-139654124D01*
X119917226Y-139642611D01*
X120066368Y-139639660D01*
X120204782Y-139645132D01*
G37*
G36*
X115569574Y-136070266D02*
G01*
X115575000Y-136099355D01*
X115589537Y-136165164D01*
X115627374Y-136253127D01*
X115679850Y-136346948D01*
X115738301Y-136430330D01*
X115769726Y-136465705D01*
X115843381Y-136523295D01*
X115926953Y-136567919D01*
X115934989Y-136570961D01*
X115997905Y-136595950D01*
X116091073Y-136635880D01*
X116199567Y-136684270D01*
X116265299Y-136714430D01*
X116375742Y-136767456D01*
X116449435Y-136808594D01*
X116495965Y-136844748D01*
X116524915Y-136882822D01*
X116538597Y-136911270D01*
X116559601Y-136980251D01*
X116560231Y-137052544D01*
X116547631Y-137125153D01*
X116533358Y-137201739D01*
X116534932Y-137249011D01*
X116556116Y-137286169D01*
X116585254Y-137317072D01*
X116644738Y-137404873D01*
X116696064Y-137540424D01*
X116738648Y-137722049D01*
X116750621Y-137791423D01*
X116763658Y-137897902D01*
X116758367Y-137973483D01*
X116729376Y-138035560D01*
X116671311Y-138101527D01*
X116647779Y-138124334D01*
X116578313Y-138204586D01*
X116533053Y-138294596D01*
X116510920Y-138402297D01*
X116510834Y-138535625D01*
X116531715Y-138702514D01*
X116553251Y-138819025D01*
X116584609Y-138975550D01*
X116486727Y-139075790D01*
X116411506Y-139138648D01*
X116307221Y-139207309D01*
X116191667Y-139270134D01*
X116183704Y-139273970D01*
X116076868Y-139329830D01*
X115974811Y-139391447D01*
X115895611Y-139447692D01*
X115880002Y-139460955D01*
X115807893Y-139517840D01*
X115743694Y-139544270D01*
X115677417Y-139550000D01*
X115543146Y-139567880D01*
X115434154Y-139618666D01*
X115359986Y-139697522D01*
X115319003Y-139755028D01*
X115289045Y-139774175D01*
X115275407Y-139752079D01*
X115275093Y-139743750D01*
X115287387Y-139703341D01*
X115317639Y-139643262D01*
X115325640Y-139629745D01*
X115401390Y-139549291D01*
X115506877Y-139494699D01*
X115622676Y-139475000D01*
X115694670Y-139456624D01*
X115783052Y-139399261D01*
X115817055Y-139371057D01*
X115936271Y-139280941D01*
X116054290Y-139215152D01*
X116159079Y-139179851D01*
X116199053Y-139175549D01*
X116258948Y-139155240D01*
X116335753Y-139099493D01*
X116367803Y-139069794D01*
X116439420Y-138984280D01*
X116473237Y-138898298D01*
X116471435Y-138799044D01*
X116436193Y-138673712D01*
X116435538Y-138671893D01*
X116408063Y-138532926D01*
X116415954Y-138383231D01*
X116455844Y-138238721D01*
X116524363Y-138115309D01*
X116562515Y-138071985D01*
X116609149Y-138020195D01*
X116637369Y-137967023D01*
X116648323Y-137901879D01*
X116643159Y-137814171D01*
X116623024Y-137693309D01*
X116610397Y-137630196D01*
X116574769Y-137495774D01*
X116530725Y-137390803D01*
X116507420Y-137354015D01*
X116471292Y-137299958D01*
X116455186Y-137249460D01*
X116454868Y-137182117D01*
X116460303Y-137126843D01*
X116466641Y-137040964D01*
X116465823Y-136971255D01*
X116460862Y-136942246D01*
X116433756Y-136917140D01*
X116369843Y-136875787D01*
X116277588Y-136823163D01*
X116165457Y-136764244D01*
X116116331Y-136739731D01*
X115977910Y-136668442D01*
X115857728Y-136600261D01*
X115765016Y-136540726D01*
X115709002Y-136495373D01*
X115708944Y-136495312D01*
X115637459Y-136406445D01*
X115580498Y-136310084D01*
X115541843Y-136216522D01*
X115525274Y-136136057D01*
X115534573Y-136078983D01*
X115550000Y-136062500D01*
X115569574Y-136070266D01*
G37*
G36*
X113943527Y-144648094D02*
G01*
X113965163Y-144692127D01*
X114022902Y-144841297D01*
X114115758Y-144974996D01*
X114233433Y-145080717D01*
X114327762Y-145132496D01*
X114412217Y-145188051D01*
X114488748Y-145276248D01*
X114490262Y-145278516D01*
X114579674Y-145378940D01*
X114702490Y-145457542D01*
X114772005Y-145489662D01*
X114836144Y-145510731D01*
X114909355Y-145523421D01*
X115006082Y-145530399D01*
X115114990Y-145533777D01*
X115253242Y-145533592D01*
X115374269Y-145527160D01*
X115464359Y-145515369D01*
X115487500Y-145509706D01*
X115695976Y-145442204D01*
X115878451Y-145374268D01*
X116027729Y-145308841D01*
X116136613Y-145248871D01*
X116154444Y-145236693D01*
X116217937Y-145193513D01*
X116261613Y-145168467D01*
X116275000Y-145166216D01*
X116260383Y-145192956D01*
X116222736Y-145244758D01*
X116187529Y-145289096D01*
X116076245Y-145390978D01*
X115981279Y-145437995D01*
X115899669Y-145467669D01*
X115792439Y-145507606D01*
X115680583Y-145549974D01*
X115662500Y-145556901D01*
X115548856Y-145596470D01*
X115445539Y-145621232D01*
X115339405Y-145632098D01*
X115217304Y-145629975D01*
X115066092Y-145615773D01*
X114975367Y-145604414D01*
X114780724Y-145567367D01*
X114628730Y-145511940D01*
X114514657Y-145435742D01*
X114433779Y-145336379D01*
X114428816Y-145327741D01*
X114350673Y-145229213D01*
X114259168Y-145170809D01*
X114169311Y-145109829D01*
X114079163Y-145017934D01*
X114001286Y-144911088D01*
X113948240Y-144805252D01*
X113935218Y-144759129D01*
X113916009Y-144691495D01*
X113893896Y-144670335D01*
X113870380Y-144692318D01*
X113846960Y-144754111D01*
X113825139Y-144852382D01*
X113806417Y-144983801D01*
X113798547Y-145062500D01*
X113783496Y-145208234D01*
X113762953Y-145373040D01*
X113740739Y-145526862D01*
X113734969Y-145562500D01*
X113709213Y-145769130D01*
X113704072Y-145972472D01*
X113708209Y-146075518D01*
X113724719Y-146260992D01*
X113752270Y-146407105D01*
X113793478Y-146523779D01*
X113850956Y-146620938D01*
X113852444Y-146622960D01*
X113876479Y-146658934D01*
X113891485Y-146695941D01*
X113898702Y-146745124D01*
X113899366Y-146817623D01*
X113894717Y-146924580D01*
X113891788Y-146977038D01*
X113875810Y-147256291D01*
X113991357Y-147468264D01*
X114092732Y-147636305D01*
X114192346Y-147762264D01*
X114296590Y-147853391D01*
X114369610Y-147897250D01*
X114450542Y-147957491D01*
X114515722Y-148038883D01*
X114517382Y-148041791D01*
X114568096Y-148146793D01*
X114623892Y-148286810D01*
X114679916Y-148447856D01*
X114731312Y-148615943D01*
X114773225Y-148777085D01*
X114774424Y-148782269D01*
X114816846Y-148944181D01*
X114863149Y-149068974D01*
X114919499Y-149169477D01*
X114992060Y-149258518D01*
X115014217Y-149281250D01*
X115064254Y-149338256D01*
X115074869Y-149367496D01*
X115049043Y-149367701D01*
X114989755Y-149337604D01*
X114947087Y-149309829D01*
X114846842Y-149211227D01*
X114766605Y-149067312D01*
X114706704Y-148878734D01*
X114690004Y-148799091D01*
X114656860Y-148659758D01*
X114606551Y-148495292D01*
X114545670Y-148324554D01*
X114480812Y-148166406D01*
X114435706Y-148071608D01*
X114395669Y-148023741D01*
X114327426Y-147968274D01*
X114266828Y-147929615D01*
X114169178Y-147864842D01*
X114084756Y-147784774D01*
X114005457Y-147679686D01*
X113923174Y-147539853D01*
X113891075Y-147478771D01*
X113796693Y-147295043D01*
X113814345Y-147008394D01*
X113821328Y-146882762D01*
X113823311Y-146796270D01*
X113819327Y-146738222D01*
X113808408Y-146697920D01*
X113789589Y-146664670D01*
X113782371Y-146654623D01*
X113729340Y-146578063D01*
X113691444Y-146507354D01*
X113665702Y-146431024D01*
X113649134Y-146337601D01*
X113638758Y-146215612D01*
X113632461Y-146077664D01*
X113628276Y-145922403D01*
X113629552Y-145800974D01*
X113637399Y-145697398D01*
X113652925Y-145595696D01*
X113672457Y-145501170D01*
X113695985Y-145382935D01*
X113714068Y-145268434D01*
X113723954Y-145176151D01*
X113725000Y-145148332D01*
X113732235Y-145026218D01*
X113751474Y-144896332D01*
X113779015Y-144778912D01*
X113806306Y-144703774D01*
X113849892Y-144646833D01*
X113899872Y-144627962D01*
X113943527Y-144648094D01*
G37*
G36*
X114901889Y-141406241D02*
G01*
X114981053Y-141418390D01*
X115083027Y-141436791D01*
X115151062Y-141450216D01*
X115233329Y-141465513D01*
X115357626Y-141486667D01*
X115516477Y-141512497D01*
X115702409Y-141541825D01*
X115907948Y-141573469D01*
X116125620Y-141606249D01*
X116329989Y-141636370D01*
X116572070Y-141671820D01*
X116826219Y-141709325D01*
X117081482Y-141747247D01*
X117326908Y-141783953D01*
X117551548Y-141817805D01*
X117744448Y-141847169D01*
X117843408Y-141862419D01*
X118029969Y-141891060D01*
X118180182Y-141912779D01*
X118306179Y-141928426D01*
X118420091Y-141938850D01*
X118534051Y-141944902D01*
X118660190Y-141947432D01*
X118810641Y-141947289D01*
X118997535Y-141945324D01*
X119022303Y-141945015D01*
X119188476Y-141943616D01*
X119336004Y-141943698D01*
X119458210Y-141945150D01*
X119548418Y-141947855D01*
X119599948Y-141951703D01*
X119609450Y-141954986D01*
X119623823Y-141970228D01*
X119673047Y-141986115D01*
X119689278Y-141989483D01*
X119742526Y-142006074D01*
X119750769Y-142024160D01*
X119718694Y-142039723D01*
X119650992Y-142048745D01*
X119619104Y-142049617D01*
X119555474Y-142056191D01*
X119510364Y-142083308D01*
X119464148Y-142143034D01*
X119462065Y-142146172D01*
X119431294Y-142205852D01*
X119400401Y-142286942D01*
X119372866Y-142376478D01*
X119352167Y-142461500D01*
X119341784Y-142529044D01*
X119345194Y-142566148D01*
X119348553Y-142569126D01*
X119377846Y-142564574D01*
X119443067Y-142546882D01*
X119532894Y-142519257D01*
X119587543Y-142501374D01*
X119685187Y-142470279D01*
X119763658Y-142448118D01*
X119811959Y-142437852D01*
X119821678Y-142438345D01*
X119820164Y-142466302D01*
X119778544Y-142504915D01*
X119704250Y-142549353D01*
X119604717Y-142594782D01*
X119547944Y-142616310D01*
X119435019Y-142661254D01*
X119369628Y-142699526D01*
X119349981Y-142732627D01*
X119374062Y-142761920D01*
X119408181Y-142759866D01*
X119469930Y-142738616D01*
X119517812Y-142716633D01*
X119630022Y-142664273D01*
X119706868Y-142636175D01*
X119746165Y-142631049D01*
X119745728Y-142647604D01*
X119703373Y-142684548D01*
X119616915Y-142740591D01*
X119587500Y-142757812D01*
X119509413Y-142805138D01*
X119451847Y-142844632D01*
X119425578Y-142868799D01*
X119425000Y-142870779D01*
X119444581Y-142919540D01*
X119498037Y-142988790D01*
X119577430Y-143071594D01*
X119674828Y-143161017D01*
X119782293Y-143250124D01*
X119891892Y-143331982D01*
X119995689Y-143399655D01*
X120081250Y-143444297D01*
X120137859Y-143474358D01*
X120150949Y-143493465D01*
X120126328Y-143498840D01*
X120069803Y-143487701D01*
X120023276Y-143472045D01*
X119936643Y-143436797D01*
X119861630Y-143399282D01*
X119785364Y-143351574D01*
X119694969Y-143285746D01*
X119598662Y-143210617D01*
X119434824Y-143080782D01*
X119061162Y-143165566D01*
X118910459Y-143201154D01*
X118757928Y-143239582D01*
X118619111Y-143276782D01*
X118509552Y-143308686D01*
X118487500Y-143315703D01*
X118327287Y-143371692D01*
X118132243Y-143445766D01*
X117912337Y-143533804D01*
X117677537Y-143631689D01*
X117437813Y-143735301D01*
X117203134Y-143840521D01*
X117084410Y-143895437D01*
X116961154Y-143954238D01*
X116814299Y-144026086D01*
X116650586Y-144107515D01*
X116476756Y-144195055D01*
X116299551Y-144285239D01*
X116125713Y-144374599D01*
X115961981Y-144459668D01*
X115815099Y-144536976D01*
X115691806Y-144603056D01*
X115598845Y-144654441D01*
X115542956Y-144687661D01*
X115538187Y-144690864D01*
X115489561Y-144717996D01*
X115460425Y-144723342D01*
X115460992Y-144706977D01*
X115475892Y-144690406D01*
X115523841Y-144654087D01*
X115609753Y-144598264D01*
X115727249Y-144526541D01*
X115869954Y-144442524D01*
X116031489Y-144349817D01*
X116205477Y-144252024D01*
X116385542Y-144152750D01*
X116565306Y-144055600D01*
X116738391Y-143964178D01*
X116898421Y-143882090D01*
X116962500Y-143850130D01*
X117368132Y-143656177D01*
X117740355Y-143491708D01*
X118084608Y-143354736D01*
X118406334Y-143243271D01*
X118710973Y-143155324D01*
X119003966Y-143088907D01*
X119087500Y-143073395D01*
X119203338Y-143052525D01*
X119299564Y-143034389D01*
X119366433Y-143020879D01*
X119394203Y-143013890D01*
X119394375Y-143013761D01*
X119385579Y-142992148D01*
X119356875Y-142952943D01*
X119312500Y-142898802D01*
X119167869Y-142949930D01*
X119054950Y-142986387D01*
X118934064Y-143017887D01*
X118799619Y-143045128D01*
X118646022Y-143068807D01*
X118467682Y-143089623D01*
X118259005Y-143108274D01*
X118014400Y-143125457D01*
X117728275Y-143141870D01*
X117562500Y-143150270D01*
X117014598Y-143183287D01*
X116427436Y-143230768D01*
X115798633Y-143292937D01*
X115125806Y-143370020D01*
X114766396Y-143414961D01*
X114614733Y-143433777D01*
X114480588Y-143449185D01*
X114371616Y-143460409D01*
X114295472Y-143466670D01*
X114259811Y-143467191D01*
X114258262Y-143466595D01*
X114256013Y-143459259D01*
X114267346Y-143451266D01*
X114297295Y-143441559D01*
X114350894Y-143429079D01*
X114433179Y-143412767D01*
X114549183Y-143391564D01*
X114703940Y-143364412D01*
X114902486Y-143330253D01*
X114925000Y-143326401D01*
X115433329Y-143244088D01*
X115913740Y-143176495D01*
X116382603Y-143121865D01*
X116856290Y-143078441D01*
X117351175Y-143044465D01*
X117737500Y-143024516D01*
X117925060Y-143014996D01*
X118113578Y-143003637D01*
X118291488Y-142991265D01*
X118447224Y-142978707D01*
X118569221Y-142966793D01*
X118606242Y-142962358D01*
X118764206Y-142938705D01*
X118913655Y-142910565D01*
X119046889Y-142879966D01*
X119156205Y-142848937D01*
X119233902Y-142819506D01*
X119272277Y-142793701D01*
X119275000Y-142786236D01*
X119267416Y-142754134D01*
X119238712Y-142740602D01*
X119179961Y-142744581D01*
X119086843Y-142763931D01*
X118916566Y-142796676D01*
X118706754Y-142825677D01*
X118467768Y-142850373D01*
X118209973Y-142870205D01*
X117943730Y-142884612D01*
X117679403Y-142893036D01*
X117427354Y-142894915D01*
X117197946Y-142889691D01*
X117001542Y-142876804D01*
X117000000Y-142876656D01*
X116584144Y-142817864D01*
X116146590Y-142720800D01*
X115694580Y-142587966D01*
X115235353Y-142421865D01*
X114776149Y-142224999D01*
X114324208Y-141999870D01*
X114093750Y-141872049D01*
X113928657Y-141776948D01*
X113802216Y-141703642D01*
X113709625Y-141649188D01*
X113646084Y-141610644D01*
X113606793Y-141585065D01*
X113586951Y-141569509D01*
X113581760Y-141561032D01*
X113582872Y-141558794D01*
X113607663Y-141565991D01*
X113670338Y-141592762D01*
X113764217Y-141636005D01*
X113882620Y-141692619D01*
X114018867Y-141759502D01*
X114069063Y-141784528D01*
X114529199Y-142006227D01*
X114962219Y-142196329D01*
X115376910Y-142358034D01*
X115782060Y-142494541D01*
X116186457Y-142609051D01*
X116593599Y-142703659D01*
X116682142Y-142720329D01*
X116775610Y-142733633D01*
X116881945Y-142744122D01*
X117009089Y-142752347D01*
X117164982Y-142758860D01*
X117357567Y-142764211D01*
X117512500Y-142767449D01*
X117878738Y-142770149D01*
X118200971Y-142763179D01*
X118484319Y-142746170D01*
X118733905Y-142718753D01*
X118954849Y-142680559D01*
X119061647Y-142655932D01*
X119233692Y-142612500D01*
X119264671Y-142459213D01*
X119305766Y-142307507D01*
X119366339Y-142180162D01*
X119405683Y-142119949D01*
X119425066Y-142080846D01*
X119423947Y-142065613D01*
X119395889Y-142063096D01*
X119328242Y-142064974D01*
X119231179Y-142070773D01*
X119115954Y-142079926D01*
X118975736Y-142089399D01*
X118834334Y-142092390D01*
X118684519Y-142088302D01*
X118519060Y-142076536D01*
X118330730Y-142056496D01*
X118112298Y-142027583D01*
X117856536Y-141989200D01*
X117682025Y-141961355D01*
X117377277Y-141911154D01*
X117074222Y-141859804D01*
X116776352Y-141807995D01*
X116487161Y-141756418D01*
X116210141Y-141705767D01*
X115948784Y-141656730D01*
X115706585Y-141610001D01*
X115487034Y-141566270D01*
X115293626Y-141526229D01*
X115129853Y-141490569D01*
X114999208Y-141459982D01*
X114905183Y-141435158D01*
X114851272Y-141416790D01*
X114840966Y-141405568D01*
X114858572Y-141402471D01*
X114901889Y-141406241D01*
G37*
G36*
X118642634Y-135115413D02*
G01*
X118721383Y-135156441D01*
X118813721Y-135215265D01*
X118907855Y-135284066D01*
X118991990Y-135355026D01*
X119029356Y-135391746D01*
X119068968Y-135445916D01*
X119119150Y-135531838D01*
X119171687Y-135634927D01*
X119195896Y-135687500D01*
X119249631Y-135806557D01*
X119306407Y-135928761D01*
X119356515Y-136033319D01*
X119370983Y-136062500D01*
X119422073Y-136173350D01*
X119472902Y-136298164D01*
X119499946Y-136373165D01*
X119540658Y-136485585D01*
X119590902Y-136611182D01*
X119628748Y-136698165D01*
X119669977Y-136800789D01*
X119698716Y-136907143D01*
X119719179Y-137035212D01*
X119728772Y-137125000D01*
X119741114Y-137244670D01*
X119753294Y-137325544D01*
X119768481Y-137378716D01*
X119789844Y-137415280D01*
X119820527Y-137446308D01*
X119903863Y-137518720D01*
X119960511Y-137563536D01*
X120001243Y-137586273D01*
X120036833Y-137592449D01*
X120078056Y-137587582D01*
X120091519Y-137585096D01*
X120155233Y-137580400D01*
X120257513Y-137581056D01*
X120387307Y-137586248D01*
X120533563Y-137595158D01*
X120685229Y-137606971D01*
X120831253Y-137620870D01*
X120960583Y-137636039D01*
X121062167Y-137651660D01*
X121100000Y-137659604D01*
X121179667Y-137681995D01*
X121290473Y-137717031D01*
X121416803Y-137759626D01*
X121525000Y-137798073D01*
X121659124Y-137846386D01*
X121797517Y-137895181D01*
X121921714Y-137938001D01*
X121996039Y-137962831D01*
X122088020Y-137994697D01*
X122162884Y-138024060D01*
X122206434Y-138045285D01*
X122209562Y-138047561D01*
X122277497Y-138081182D01*
X122380647Y-138105765D01*
X122504906Y-138120493D01*
X122636169Y-138124548D01*
X122760330Y-138117113D01*
X122863285Y-138097369D01*
X122892308Y-138087146D01*
X122949459Y-138058318D01*
X123039992Y-138006729D01*
X123155758Y-137937465D01*
X123288609Y-137855611D01*
X123430398Y-137766249D01*
X123572977Y-137674467D01*
X123708196Y-137585347D01*
X123827910Y-137503975D01*
X123837500Y-137497307D01*
X124101921Y-137313968D01*
X124330537Y-137157589D01*
X124527709Y-137025355D01*
X124697799Y-136914453D01*
X124845170Y-136822068D01*
X124974183Y-136745385D01*
X125089201Y-136681591D01*
X125153526Y-136648219D01*
X125301143Y-136589524D01*
X125449736Y-136558550D01*
X125590668Y-136554519D01*
X125715302Y-136576650D01*
X125814999Y-136624163D01*
X125881124Y-136696278D01*
X125890045Y-136714736D01*
X125922329Y-136851826D01*
X125912373Y-136993791D01*
X125867197Y-137112502D01*
X125806685Y-137247835D01*
X125759874Y-137412134D01*
X125741557Y-137512500D01*
X125724608Y-137594493D01*
X125704965Y-137662500D01*
X125680249Y-137737612D01*
X125653048Y-137824515D01*
X125649116Y-137837500D01*
X125597362Y-137950877D01*
X125522816Y-138037145D01*
X125457447Y-138076578D01*
X125398745Y-138121411D01*
X125350703Y-138207614D01*
X125312719Y-138337202D01*
X125284191Y-138512191D01*
X125265489Y-138719431D01*
X125246657Y-138811865D01*
X125196241Y-138889799D01*
X125179244Y-138908121D01*
X125119845Y-138988446D01*
X125100000Y-139058681D01*
X125076602Y-139161807D01*
X125012439Y-139259355D01*
X124916560Y-139341408D01*
X124798009Y-139398046D01*
X124787500Y-139401276D01*
X124748824Y-139435332D01*
X124740424Y-139501394D01*
X124760037Y-139593508D01*
X124805397Y-139705715D01*
X124874242Y-139832062D01*
X124964308Y-139966591D01*
X125038817Y-140062500D01*
X125117044Y-140165848D01*
X125192923Y-140280160D01*
X125252106Y-140383562D01*
X125260199Y-140400000D01*
X125293952Y-140474399D01*
X125316128Y-140537150D01*
X125329144Y-140602322D01*
X125335413Y-140683981D01*
X125337352Y-140796196D01*
X125337455Y-140850000D01*
X125336657Y-140976782D01*
X125332540Y-141067656D01*
X125322592Y-141136707D01*
X125304300Y-141198022D01*
X125275151Y-141265685D01*
X125256250Y-141305207D01*
X125215871Y-141397670D01*
X125186619Y-141482014D01*
X125174535Y-141540693D01*
X125174489Y-141542707D01*
X125171111Y-141591752D01*
X125162163Y-141679530D01*
X125148855Y-141795238D01*
X125132396Y-141928070D01*
X125124904Y-141985831D01*
X125108204Y-142116003D01*
X125094726Y-142227132D01*
X125085466Y-142310511D01*
X125081417Y-142357431D01*
X125081665Y-142364505D01*
X125107247Y-142362371D01*
X125173821Y-142352607D01*
X125273207Y-142336645D01*
X125397227Y-142315920D01*
X125537701Y-142291864D01*
X125686449Y-142265912D01*
X125835292Y-142239497D01*
X125976051Y-142214052D01*
X126100546Y-142191012D01*
X126200598Y-142171810D01*
X126268027Y-142157879D01*
X126287796Y-142153108D01*
X126344390Y-142142316D01*
X126373819Y-142146144D01*
X126375000Y-142149111D01*
X126351435Y-142173986D01*
X126284724Y-142206423D01*
X126180840Y-142244645D01*
X126045754Y-142286872D01*
X125885440Y-142331326D01*
X125705872Y-142376227D01*
X125513020Y-142419796D01*
X125362500Y-142450678D01*
X125250877Y-142473689D01*
X125158086Y-142494944D01*
X125094729Y-142511879D01*
X125071855Y-142521041D01*
X125060233Y-142553297D01*
X125047101Y-142618582D01*
X125039252Y-142672459D01*
X125022293Y-142807419D01*
X125267396Y-142791466D01*
X125382122Y-142782885D01*
X125485854Y-142773145D01*
X125563111Y-142763788D01*
X125587500Y-142759623D01*
X125636398Y-142753527D01*
X125640930Y-142765985D01*
X125637500Y-142769929D01*
X125595479Y-142792806D01*
X125516187Y-142818994D01*
X125411948Y-142845427D01*
X125295082Y-142869041D01*
X125177911Y-142886771D01*
X125158852Y-142888979D01*
X125005205Y-142905869D01*
X124977602Y-143091455D01*
X124959375Y-143217555D01*
X124950947Y-143303185D01*
X124955064Y-143357376D01*
X124974471Y-143389159D01*
X125011912Y-143407564D01*
X125070133Y-143421622D01*
X125078506Y-143423416D01*
X125296099Y-143461303D01*
X125515250Y-143483543D01*
X125720292Y-143489145D01*
X125895555Y-143477113D01*
X125904685Y-143475823D01*
X125999141Y-143463694D01*
X126073057Y-143457356D01*
X126113829Y-143457789D01*
X126117628Y-143459295D01*
X126102724Y-143472340D01*
X126051210Y-143493660D01*
X125983937Y-143515640D01*
X125865619Y-143539758D01*
X125713469Y-143554635D01*
X125542831Y-143560063D01*
X125369050Y-143555832D01*
X125207470Y-143541733D01*
X125117626Y-143527450D01*
X125031455Y-143512344D01*
X124966429Y-143504511D01*
X124936141Y-143505571D01*
X124935847Y-143505819D01*
X124927622Y-143532621D01*
X124913636Y-143594900D01*
X124896543Y-143678843D01*
X124878997Y-143770641D01*
X124863650Y-143856482D01*
X124853157Y-143922555D01*
X124850034Y-143952478D01*
X124871896Y-143972117D01*
X124931414Y-144005256D01*
X125019407Y-144047895D01*
X125126692Y-144096035D01*
X125244088Y-144145675D01*
X125362413Y-144192815D01*
X125472485Y-144233458D01*
X125562500Y-144262833D01*
X125695749Y-144298233D01*
X125802215Y-144316262D01*
X125900910Y-144319615D01*
X125946056Y-144317190D01*
X126032821Y-144312906D01*
X126075540Y-144316964D01*
X126079572Y-144330034D01*
X126076501Y-144333498D01*
X126039083Y-144348402D01*
X125966559Y-144361566D01*
X125873816Y-144370378D01*
X125862797Y-144370981D01*
X125671905Y-144361617D01*
X125453208Y-144316850D01*
X125212636Y-144238178D01*
X125023804Y-144158917D01*
X124933968Y-144119263D01*
X124863252Y-144090710D01*
X124822354Y-144077459D01*
X124816564Y-144077555D01*
X124805109Y-144104157D01*
X124781450Y-144165786D01*
X124750191Y-144250379D01*
X124742140Y-144272563D01*
X124708293Y-144372954D01*
X124693462Y-144437947D01*
X124695930Y-144477644D01*
X124704649Y-144493102D01*
X124737974Y-144521027D01*
X124803239Y-144566824D01*
X124889355Y-144622901D01*
X124942232Y-144655768D01*
X125029412Y-144710725D01*
X125096279Y-144756118D01*
X125134218Y-144785907D01*
X125139361Y-144793971D01*
X125107554Y-144794571D01*
X125041700Y-144776350D01*
X124952370Y-144743058D01*
X124850130Y-144698446D01*
X124794462Y-144671564D01*
X124716852Y-144634396D01*
X124656480Y-144608522D01*
X124628745Y-144600000D01*
X124604674Y-144620675D01*
X124576724Y-144670958D01*
X124574572Y-144676032D01*
X124538669Y-144733892D01*
X124482018Y-144797750D01*
X124418331Y-144854801D01*
X124361325Y-144892242D01*
X124334679Y-144900000D01*
X124301872Y-144919025D01*
X124263265Y-144964842D01*
X124262858Y-144965461D01*
X124227593Y-145011716D01*
X124167708Y-145082765D01*
X124093019Y-145167154D01*
X124045528Y-145219054D01*
X123964273Y-145309557D01*
X123889964Y-145397401D01*
X123833481Y-145469496D01*
X123813986Y-145497645D01*
X123758978Y-145560390D01*
X123663260Y-145641083D01*
X123531238Y-145736118D01*
X123484690Y-145767228D01*
X123282601Y-145901162D01*
X123113734Y-146015343D01*
X122968744Y-146116256D01*
X122838290Y-146210383D01*
X122735022Y-146287500D01*
X122681500Y-146328614D01*
X122637339Y-146365911D01*
X122598651Y-146405557D01*
X122561549Y-146453721D01*
X122522145Y-146516569D01*
X122476552Y-146600267D01*
X122420881Y-146710984D01*
X122351246Y-146854887D01*
X122269718Y-147025639D01*
X122209921Y-147144070D01*
X122148806Y-147253177D01*
X122093563Y-147340797D01*
X122051587Y-147394566D01*
X121937267Y-147489443D01*
X121808914Y-147564830D01*
X121685312Y-147609991D01*
X121668750Y-147613420D01*
X121602481Y-147634078D01*
X121578253Y-147668271D01*
X121594898Y-147722423D01*
X121637500Y-147785277D01*
X121681120Y-147855597D01*
X121696903Y-147925207D01*
X121685812Y-148009662D01*
X121657093Y-148101594D01*
X121632741Y-148177504D01*
X121627044Y-148232640D01*
X121639993Y-148292618D01*
X121657019Y-148342449D01*
X121686810Y-148441112D01*
X121710033Y-148544200D01*
X121714969Y-148575015D01*
X121716627Y-148651611D01*
X121708300Y-148763713D01*
X121692007Y-148898288D01*
X121669766Y-149042305D01*
X121643592Y-149182731D01*
X121615506Y-149306533D01*
X121587523Y-149400681D01*
X121586858Y-149402499D01*
X121542215Y-149525639D01*
X121513442Y-149615619D01*
X121498975Y-149686141D01*
X121497253Y-149750907D01*
X121506714Y-149823620D01*
X121525795Y-149917983D01*
X121527290Y-149925000D01*
X121560797Y-150111972D01*
X121572516Y-150258652D01*
X121562666Y-150369645D01*
X121550584Y-150410962D01*
X121544835Y-150453728D01*
X121542097Y-150537157D01*
X121542056Y-150652021D01*
X121544393Y-150789096D01*
X121548794Y-150939153D01*
X121554942Y-151092966D01*
X121562521Y-151241309D01*
X121571216Y-151374955D01*
X121580709Y-151484678D01*
X121589824Y-151556250D01*
X121591896Y-151625134D01*
X121572958Y-151653416D01*
X121540065Y-151641871D01*
X121500270Y-151591280D01*
X121476545Y-151543750D01*
X121457012Y-151472276D01*
X121440447Y-151362138D01*
X121427150Y-151223685D01*
X121417421Y-151067267D01*
X121411561Y-150903231D01*
X121409870Y-150741926D01*
X121412648Y-150593703D01*
X121420197Y-150468909D01*
X121432815Y-150377894D01*
X121441802Y-150346536D01*
X121459604Y-150296341D01*
X121467074Y-150250335D01*
X121463615Y-150194683D01*
X121448627Y-150115547D01*
X121427945Y-150026072D01*
X121394611Y-149870415D01*
X121379027Y-149749006D01*
X121381617Y-149649189D01*
X121402807Y-149558310D01*
X121443021Y-149463713D01*
X121447107Y-149455537D01*
X121494008Y-149339945D01*
X121538416Y-149190287D01*
X121576923Y-149022488D01*
X121606118Y-148852474D01*
X121622592Y-148696170D01*
X121625000Y-148624696D01*
X121610962Y-148460623D01*
X121574343Y-148341838D01*
X121523686Y-148227320D01*
X121575997Y-148072038D01*
X121628308Y-147916756D01*
X121573835Y-147843077D01*
X121535762Y-147777065D01*
X121516319Y-147715429D01*
X121515930Y-147711032D01*
X121509426Y-147679028D01*
X121487020Y-147659353D01*
X121437339Y-147646916D01*
X121350000Y-147636720D01*
X121248773Y-147624548D01*
X121153983Y-147609452D01*
X121100000Y-147598026D01*
X121018525Y-147583707D01*
X120921926Y-147575724D01*
X120893750Y-147575139D01*
X120775000Y-147575000D01*
X120775000Y-147685581D01*
X120756082Y-147795481D01*
X120697027Y-147885841D01*
X120594379Y-147960727D01*
X120506585Y-148001466D01*
X120413107Y-148040690D01*
X120297242Y-148091963D01*
X120181480Y-148145295D01*
X120162500Y-148154291D01*
X120063324Y-148197838D01*
X119973047Y-148230989D01*
X119906803Y-148248399D01*
X119892182Y-148249784D01*
X119853390Y-148254825D01*
X119822546Y-148276140D01*
X119791214Y-148323437D01*
X119750958Y-148406422D01*
X119745353Y-148418740D01*
X119702594Y-148525288D01*
X119657966Y-148656173D01*
X119619730Y-148786769D01*
X119612678Y-148814298D01*
X119578352Y-148946446D01*
X119547558Y-149042771D01*
X119513837Y-149116439D01*
X119470733Y-149180619D01*
X119411786Y-149248479D01*
X119386730Y-149275000D01*
X119297093Y-149393266D01*
X119240291Y-149520908D01*
X119220636Y-149645673D01*
X119230045Y-149720259D01*
X119238992Y-149792588D01*
X119216882Y-149858997D01*
X119203126Y-149882759D01*
X119174504Y-149948844D01*
X119147717Y-150043554D01*
X119129584Y-150140033D01*
X119105964Y-150271663D01*
X119071101Y-150372623D01*
X119016323Y-150456942D01*
X118932960Y-150538647D01*
X118836610Y-150613963D01*
X118754935Y-150677476D01*
X118691415Y-150732793D01*
X118655113Y-150771723D01*
X118650000Y-150782624D01*
X118665961Y-150837854D01*
X118708220Y-150915167D01*
X118768333Y-151000683D01*
X118819356Y-151061093D01*
X118898354Y-151128438D01*
X118970043Y-151150000D01*
X119024450Y-151157128D01*
X119081984Y-151182133D01*
X119150900Y-151230443D01*
X119239450Y-151307485D01*
X119308146Y-151372363D01*
X119414847Y-151483772D01*
X119487302Y-151578788D01*
X119522237Y-151652860D01*
X119525000Y-151673758D01*
X119512502Y-151699107D01*
X119486356Y-151690481D01*
X119463738Y-151653900D01*
X119440475Y-151618239D01*
X119388915Y-151557613D01*
X119317254Y-151481233D01*
X119252424Y-151416400D01*
X119164373Y-151331947D01*
X119101501Y-151276812D01*
X119053807Y-151244781D01*
X119011291Y-151229643D01*
X118963950Y-151225186D01*
X118944284Y-151225000D01*
X118881360Y-151221830D01*
X118834852Y-151206379D01*
X118789473Y-151169730D01*
X118729936Y-151102969D01*
X118724997Y-151097120D01*
X118645244Y-150988758D01*
X118590375Y-150885527D01*
X118564306Y-150796841D01*
X118570951Y-150732111D01*
X118572176Y-150729739D01*
X118600866Y-150695786D01*
X118658554Y-150640096D01*
X118735175Y-150572142D01*
X118777240Y-150536693D01*
X118865872Y-150460836D01*
X118925990Y-150398625D01*
X118965882Y-150335608D01*
X118993838Y-150257332D01*
X119018146Y-150149341D01*
X119027678Y-150100000D01*
X119051843Y-150004711D01*
X119084195Y-149915693D01*
X119101952Y-149879731D01*
X119136408Y-149790887D01*
X119134688Y-149700552D01*
X119137676Y-149583177D01*
X119159635Y-149523229D01*
X119187005Y-149457238D01*
X119199860Y-149404328D01*
X119200000Y-149400581D01*
X119216258Y-149362893D01*
X119259122Y-149302328D01*
X119319728Y-149231247D01*
X119327233Y-149223172D01*
X119414099Y-149125833D01*
X119472835Y-149043850D01*
X119512766Y-148959451D01*
X119543214Y-148854867D01*
X119559787Y-148779958D01*
X119590072Y-148659895D01*
X119630536Y-148531004D01*
X119662628Y-148445547D01*
X119704812Y-148342502D01*
X119725132Y-148275842D01*
X119720458Y-148235596D01*
X119687659Y-148211789D01*
X119623604Y-148194449D01*
X119580989Y-148185526D01*
X119484890Y-148159751D01*
X119398196Y-148126688D01*
X119352130Y-148101517D01*
X119297771Y-148067002D01*
X119259885Y-148050290D01*
X119257068Y-148050000D01*
X119220178Y-148030250D01*
X119168954Y-147979055D01*
X119113672Y-147908493D01*
X119064606Y-147830644D01*
X119055040Y-147812500D01*
X119002128Y-147728456D01*
X118936408Y-147649522D01*
X118924119Y-147637500D01*
X118864090Y-147576735D01*
X118798267Y-147502764D01*
X118735500Y-147426555D01*
X118684636Y-147359072D01*
X118654522Y-147311282D01*
X118650000Y-147297755D01*
X118664790Y-147274113D01*
X118701435Y-147282594D01*
X118748346Y-147318153D01*
X118779348Y-147354068D01*
X118829358Y-147415539D01*
X118898078Y-147492111D01*
X118951570Y-147547818D01*
X119022473Y-147627245D01*
X119102288Y-147728930D01*
X119174680Y-147831969D01*
X119179985Y-147840147D01*
X119251575Y-147943006D01*
X119314736Y-148011970D01*
X119381068Y-148058959D01*
X119405058Y-148071397D01*
X119479509Y-148103186D01*
X119541457Y-148122402D01*
X119560566Y-148125000D01*
X119606564Y-148130669D01*
X119684241Y-148145536D01*
X119776840Y-148166392D01*
X119777482Y-148166547D01*
X119871056Y-148187437D01*
X119929964Y-148194674D01*
X119967529Y-148188629D01*
X119993559Y-148172581D01*
X120024026Y-148150590D01*
X120067012Y-148125286D01*
X120130179Y-148092791D01*
X120221187Y-148049225D01*
X120347699Y-147990709D01*
X120400000Y-147966793D01*
X120529412Y-147901375D01*
X120618053Y-147839010D01*
X120673928Y-147771764D01*
X120705045Y-147691704D01*
X120711782Y-147657885D01*
X120719589Y-147590057D01*
X120709160Y-147552017D01*
X120673286Y-147524785D01*
X120658171Y-147516756D01*
X120587891Y-147486691D01*
X120500917Y-147457283D01*
X120478299Y-147450862D01*
X120358407Y-147397320D01*
X120247099Y-147309902D01*
X120157541Y-147201731D01*
X120102903Y-147085932D01*
X120099625Y-147073437D01*
X120075990Y-146995101D01*
X120047451Y-146952953D01*
X120006098Y-146933659D01*
X119929514Y-146931868D01*
X119879736Y-146972026D01*
X119856282Y-147054556D01*
X119855375Y-147065031D01*
X119846880Y-147138275D01*
X119835098Y-147193591D01*
X119832801Y-147200000D01*
X119825506Y-147241048D01*
X119819439Y-147318003D01*
X119815585Y-147416770D01*
X119814926Y-147455284D01*
X119811710Y-147567384D01*
X119803640Y-147641069D01*
X119788564Y-147687849D01*
X119765866Y-147717784D01*
X119744875Y-147735874D01*
X119732207Y-147736282D01*
X119726799Y-147711597D01*
X119727583Y-147654408D01*
X119733495Y-147557303D01*
X119736504Y-147513578D01*
X119746282Y-147402482D01*
X119758490Y-147306725D01*
X119771237Y-147239651D01*
X119778277Y-147218876D01*
X119789794Y-147166721D01*
X119789414Y-147090580D01*
X119786016Y-147061320D01*
X119780561Y-146969339D01*
X119802385Y-146912506D01*
X119858386Y-146883504D01*
X119955462Y-146875017D01*
X119961686Y-146875000D01*
X120064926Y-146885268D01*
X120132607Y-146920821D01*
X120175752Y-146988780D01*
X120186749Y-147020392D01*
X120234387Y-147108376D01*
X120321894Y-147203007D01*
X120441273Y-147296492D01*
X120522078Y-147347181D01*
X120625214Y-147400543D01*
X120731280Y-147445170D01*
X120828519Y-147477176D01*
X120905177Y-147492678D01*
X120948823Y-147488227D01*
X120981775Y-147486825D01*
X121050246Y-147494831D01*
X121140998Y-147510576D01*
X121165991Y-147515603D01*
X121378621Y-147544836D01*
X121568796Y-147538278D01*
X121739124Y-147493969D01*
X121892215Y-147409948D01*
X122030677Y-147284255D01*
X122157120Y-147114930D01*
X122274153Y-146900012D01*
X122384386Y-146637541D01*
X122403414Y-146585904D01*
X122443327Y-146486927D01*
X122490235Y-146396698D01*
X122548455Y-146311416D01*
X122622301Y-146227282D01*
X122716092Y-146140496D01*
X122834143Y-146047258D01*
X122980771Y-145943769D01*
X123160291Y-145826227D01*
X123377022Y-145690835D01*
X123517913Y-145604793D01*
X123621876Y-145535153D01*
X123687652Y-145476444D01*
X123709535Y-145440411D01*
X123732365Y-145398941D01*
X123782423Y-145332827D01*
X123851366Y-145252566D01*
X123902034Y-145198118D01*
X123987200Y-145107800D01*
X124067945Y-145019319D01*
X124132169Y-144946055D01*
X124155351Y-144917997D01*
X124217361Y-144851608D01*
X124283335Y-144797885D01*
X124304121Y-144785368D01*
X124360032Y-144742079D01*
X124421328Y-144673679D01*
X124452146Y-144630089D01*
X124526442Y-144512936D01*
X124456971Y-144464469D01*
X124410245Y-144426754D01*
X124339248Y-144363415D01*
X124254882Y-144284369D01*
X124193471Y-144224767D01*
X123999442Y-144033533D01*
X123830971Y-144093611D01*
X123631104Y-144143077D01*
X123443597Y-144144260D01*
X123267557Y-144097092D01*
X123159506Y-144040876D01*
X123012500Y-143948825D01*
X122995466Y-144064400D01*
X122960710Y-144196093D01*
X122896399Y-144344430D01*
X122810356Y-144492850D01*
X122758278Y-144566332D01*
X122713387Y-144629496D01*
X122686785Y-144675612D01*
X122683426Y-144691759D01*
X122715566Y-144692919D01*
X122784793Y-144677081D01*
X122882426Y-144647377D01*
X122999782Y-144606938D01*
X123128178Y-144558893D01*
X123258934Y-144506376D01*
X123383367Y-144452515D01*
X123492794Y-144400443D01*
X123496610Y-144398506D01*
X123605128Y-144344538D01*
X123696840Y-144301334D01*
X123763080Y-144272801D01*
X123795177Y-144262846D01*
X123796630Y-144263297D01*
X123790477Y-144288759D01*
X123750153Y-144332751D01*
X123684515Y-144388336D01*
X123602420Y-144448576D01*
X123512724Y-144506534D01*
X123424286Y-144555274D01*
X123423075Y-144555870D01*
X123316371Y-144601815D01*
X123184639Y-144649017D01*
X123041290Y-144693659D01*
X122899731Y-144731926D01*
X122773374Y-144760004D01*
X122675626Y-144774077D01*
X122652920Y-144775000D01*
X122602660Y-144782820D01*
X122559216Y-144813010D01*
X122509323Y-144875665D01*
X122496882Y-144893750D01*
X122436397Y-144978695D01*
X122372807Y-145061645D01*
X122344270Y-145096226D01*
X122290750Y-145169295D01*
X122235471Y-145261258D01*
X122211123Y-145308726D01*
X122163140Y-145406801D01*
X122111314Y-145508188D01*
X122089715Y-145548818D01*
X122050464Y-145631869D01*
X122007630Y-145738677D01*
X121973719Y-145836318D01*
X121899202Y-146067803D01*
X121826280Y-146285923D01*
X121757307Y-146484109D01*
X121694637Y-146655789D01*
X121640624Y-146794394D01*
X121597622Y-146893352D01*
X121588164Y-146912500D01*
X121511021Y-147062500D01*
X121207663Y-147068061D01*
X120904305Y-147073622D01*
X120720902Y-146953148D01*
X120553628Y-146829200D01*
X120378628Y-146675101D01*
X120210855Y-146505262D01*
X120065262Y-146334094D01*
X120030222Y-146287500D01*
X119961004Y-146199853D01*
X119867703Y-146091971D01*
X119762744Y-145977786D01*
X119662375Y-145875000D01*
X119551737Y-145762565D01*
X119469313Y-145669561D01*
X119405183Y-145583076D01*
X119349428Y-145490203D01*
X119312987Y-145420307D01*
X119242069Y-145259949D01*
X119217726Y-145188652D01*
X119750577Y-145188652D01*
X119751964Y-145314355D01*
X119758572Y-145442521D01*
X119769902Y-145557455D01*
X119785457Y-145643462D01*
X119785626Y-145644099D01*
X119850245Y-145813167D01*
X119958317Y-146000901D01*
X120108041Y-146204710D01*
X120297615Y-146421999D01*
X120399175Y-146527246D01*
X120559589Y-146678613D01*
X120709914Y-146800660D01*
X120845993Y-146890805D01*
X120963669Y-146946467D01*
X121058785Y-146965063D01*
X121095794Y-146959893D01*
X121144032Y-146952678D01*
X121204544Y-146950000D01*
X121289045Y-146925407D01*
X121369491Y-146853081D01*
X121444796Y-146735201D01*
X121513870Y-146573947D01*
X121575624Y-146371496D01*
X121628972Y-146130029D01*
X121637477Y-146083269D01*
X121658767Y-145962467D01*
X121680155Y-145840829D01*
X121697688Y-145740841D01*
X121700720Y-145723495D01*
X121722796Y-145537025D01*
X121717554Y-145378942D01*
X121708811Y-145325308D01*
X121681665Y-145263096D01*
X121624047Y-145217011D01*
X121528630Y-145182600D01*
X121444476Y-145164671D01*
X121382689Y-145157052D01*
X121352237Y-145169486D01*
X121335879Y-145210193D01*
X121334058Y-145217312D01*
X121316663Y-145286617D01*
X121289581Y-145210798D01*
X121218279Y-145073999D01*
X121117764Y-144974221D01*
X120993054Y-144915251D01*
X120877935Y-144900000D01*
X120818294Y-144903335D01*
X120732744Y-144912052D01*
X120635311Y-144924218D01*
X120540018Y-144937900D01*
X120460893Y-144951165D01*
X120411961Y-144962080D01*
X120404045Y-144965312D01*
X120410760Y-144988019D01*
X120437055Y-145040217D01*
X120462485Y-145085219D01*
X120506761Y-145169470D01*
X120520326Y-145215312D01*
X120505608Y-145221776D01*
X120465035Y-145187897D01*
X120401034Y-145112705D01*
X120399259Y-145110421D01*
X120315023Y-145002851D01*
X120252895Y-144929113D01*
X120204463Y-144883434D01*
X120161315Y-144860041D01*
X120115041Y-144853160D01*
X120057228Y-144857019D01*
X120033958Y-144859692D01*
X119899739Y-144888418D01*
X119810047Y-144937605D01*
X119765602Y-145006858D01*
X119765452Y-145007414D01*
X119754907Y-145081106D01*
X119750577Y-145188652D01*
X119217726Y-145188652D01*
X119185721Y-145094916D01*
X119147205Y-144937810D01*
X119129786Y-144801235D01*
X119132193Y-144722283D01*
X119165410Y-144594344D01*
X119228280Y-144451052D01*
X119311826Y-144308794D01*
X119407069Y-144183962D01*
X119453420Y-144135877D01*
X119613384Y-144002616D01*
X119673329Y-143966761D01*
X122727545Y-143966761D01*
X122730629Y-144032164D01*
X122741836Y-144058503D01*
X122774739Y-144062151D01*
X122816737Y-144034561D01*
X122853500Y-143988666D01*
X122870250Y-143942574D01*
X122864018Y-143876744D01*
X122838458Y-143802244D01*
X122835048Y-143795409D01*
X122792097Y-143712500D01*
X122760450Y-143800000D01*
X122737901Y-143883602D01*
X122727545Y-143966761D01*
X119673329Y-143966761D01*
X119779845Y-143903051D01*
X119966558Y-143830517D01*
X120187279Y-143778352D01*
X120193881Y-143777155D01*
X120334002Y-143749786D01*
X120488049Y-143716643D01*
X121153894Y-143716643D01*
X121165832Y-143776081D01*
X121186670Y-143846266D01*
X121211263Y-143909485D01*
X121231166Y-143944380D01*
X121266396Y-143955140D01*
X121313296Y-143926970D01*
X121363106Y-143866577D01*
X121387048Y-143825059D01*
X121416299Y-143752768D01*
X121435822Y-143684222D01*
X121452667Y-143605944D01*
X121311342Y-143638796D01*
X121232600Y-143658824D01*
X121175473Y-143676561D01*
X121156003Y-143685662D01*
X121153894Y-143716643D01*
X120488049Y-143716643D01*
X120500282Y-143714011D01*
X120670682Y-143674725D01*
X120806381Y-143641175D01*
X120959548Y-143602592D01*
X121125231Y-143562323D01*
X121282486Y-143525384D01*
X121400000Y-143499024D01*
X121641864Y-143441910D01*
X121840761Y-143383109D01*
X122003687Y-143318965D01*
X122137634Y-143245826D01*
X122249599Y-143160037D01*
X122346575Y-143057942D01*
X122412644Y-142969972D01*
X122474576Y-142878022D01*
X122510217Y-142817455D01*
X122523256Y-142779638D01*
X122517377Y-142755935D01*
X122508116Y-142746362D01*
X122490487Y-142726674D01*
X122481783Y-142698020D01*
X122482485Y-142651408D01*
X122493078Y-142577851D01*
X122514045Y-142468358D01*
X122526267Y-142408489D01*
X122557992Y-142254479D01*
X122430121Y-142111011D01*
X122302250Y-141967543D01*
X122105530Y-141972743D01*
X122006023Y-141974375D01*
X121941803Y-141970099D01*
X121898190Y-141955836D01*
X121860506Y-141927506D01*
X121828443Y-141895742D01*
X121760466Y-141811036D01*
X121729641Y-141725130D01*
X121729645Y-141706741D01*
X121831229Y-141706741D01*
X121859854Y-141777646D01*
X121872609Y-141796643D01*
X121908103Y-141841652D01*
X121945317Y-141870231D01*
X122000111Y-141890887D01*
X122087500Y-141911945D01*
X122135686Y-141919777D01*
X122142744Y-141910361D01*
X122131250Y-141896769D01*
X122109317Y-141850736D01*
X122100002Y-141784070D01*
X122100000Y-141782976D01*
X122110779Y-141725330D01*
X122147658Y-141690535D01*
X122217448Y-141675879D01*
X122326958Y-141678649D01*
X122355552Y-141681182D01*
X122457589Y-141702627D01*
X122519626Y-141746429D01*
X122544012Y-141817192D01*
X122533092Y-141919524D01*
X122513095Y-141990291D01*
X122514074Y-142045296D01*
X122555964Y-142107779D01*
X122558936Y-142111016D01*
X122612303Y-142185160D01*
X122637002Y-142268418D01*
X122634840Y-142373137D01*
X122613785Y-142485861D01*
X122591680Y-142580831D01*
X122580518Y-142638052D01*
X122581220Y-142668758D01*
X122594705Y-142684184D01*
X122621893Y-142695566D01*
X122631250Y-142699220D01*
X122706830Y-142720127D01*
X122775223Y-142712223D01*
X122854162Y-142672178D01*
X122885367Y-142651467D01*
X123012458Y-142547755D01*
X123113606Y-142432695D01*
X123173237Y-142329254D01*
X123192830Y-142270056D01*
X123186531Y-142231235D01*
X123163923Y-142201572D01*
X123131288Y-142132297D01*
X123138947Y-142054320D01*
X123184192Y-141984448D01*
X123201237Y-141970083D01*
X123271396Y-141937950D01*
X123327171Y-141952174D01*
X123362621Y-142010670D01*
X123366881Y-142028156D01*
X123384369Y-142085564D01*
X123407309Y-142094229D01*
X123440733Y-142055405D01*
X123445583Y-142047781D01*
X123471886Y-141970369D01*
X123477954Y-141869252D01*
X123463531Y-141766558D01*
X123449331Y-141723387D01*
X123391740Y-141646407D01*
X123290207Y-141580568D01*
X123150031Y-141528317D01*
X122976509Y-141492101D01*
X122937500Y-141486904D01*
X122859897Y-141468292D01*
X122763978Y-141432920D01*
X122695712Y-141401101D01*
X122544158Y-141340634D01*
X122384710Y-141308528D01*
X122231475Y-141306001D01*
X122098562Y-141334272D01*
X122068769Y-141346964D01*
X121947763Y-141420837D01*
X121871306Y-141506054D01*
X121834236Y-141608592D01*
X121832410Y-141620664D01*
X121831229Y-141706741D01*
X121729645Y-141706741D01*
X121729663Y-141618297D01*
X121732437Y-141595466D01*
X121769793Y-141490487D01*
X121847405Y-141390001D01*
X121955655Y-141302051D01*
X122084927Y-141234684D01*
X122206096Y-141199247D01*
X122339663Y-141194240D01*
X122490288Y-141221121D01*
X122640060Y-141276040D01*
X122694243Y-141304154D01*
X122863874Y-141374467D01*
X123003736Y-141403866D01*
X123164118Y-141436727D01*
X123307609Y-141486377D01*
X123422965Y-141548046D01*
X123495558Y-141612531D01*
X123529145Y-141669102D01*
X123545796Y-141740174D01*
X123549961Y-141834621D01*
X123546149Y-141922866D01*
X123531313Y-141998545D01*
X123500277Y-142072192D01*
X123447865Y-142154344D01*
X123368903Y-142255534D01*
X123306807Y-142329559D01*
X123230358Y-142419845D01*
X123158581Y-142505406D01*
X123102947Y-142572538D01*
X123086937Y-142592213D01*
X123030458Y-142644899D01*
X122946949Y-142703099D01*
X122864903Y-142748829D01*
X122707046Y-142825731D01*
X122691250Y-142976854D01*
X122686848Y-143114149D01*
X122704990Y-143252907D01*
X122748357Y-143407735D01*
X122791773Y-143525000D01*
X122869449Y-143687800D01*
X122962801Y-143814206D01*
X123082967Y-143917618D01*
X123158400Y-143965959D01*
X123337791Y-144044323D01*
X123529164Y-144074610D01*
X123733714Y-144056957D01*
X123810314Y-144039025D01*
X123928762Y-143995157D01*
X123971737Y-143966733D01*
X124126065Y-143966733D01*
X124143000Y-143993264D01*
X124188604Y-144043998D01*
X124253813Y-144110334D01*
X124329563Y-144183670D01*
X124406790Y-144255404D01*
X124476431Y-144316935D01*
X124529420Y-144359660D01*
X124556274Y-144375000D01*
X124575891Y-144354007D01*
X124606987Y-144299574D01*
X124635345Y-144239974D01*
X124678854Y-144141094D01*
X124701983Y-144073187D01*
X124700931Y-144023671D01*
X124671898Y-143979964D01*
X124611085Y-143929485D01*
X124522092Y-143865013D01*
X124319482Y-143718475D01*
X124223307Y-143827987D01*
X124170980Y-143892078D01*
X124135610Y-143944006D01*
X124126065Y-143966733D01*
X123971737Y-143966733D01*
X124029794Y-143928333D01*
X124125223Y-143829268D01*
X124193637Y-143737752D01*
X124245622Y-143663005D01*
X124220978Y-143636616D01*
X124372943Y-143636616D01*
X124440243Y-143687058D01*
X124507688Y-143736290D01*
X124582571Y-143788988D01*
X124653630Y-143837495D01*
X124709597Y-143874153D01*
X124739208Y-143891306D01*
X124741210Y-143891616D01*
X124747157Y-143866953D01*
X124759866Y-143804606D01*
X124777025Y-143716062D01*
X124784782Y-143675000D01*
X124803580Y-143563202D01*
X124809594Y-143493238D01*
X124803148Y-143458689D01*
X124795940Y-143452872D01*
X124759604Y-143436683D01*
X124694761Y-143404559D01*
X124632539Y-143372390D01*
X124557567Y-143334614D01*
X124514935Y-143319657D01*
X124493619Y-143325448D01*
X124484220Y-143344517D01*
X124467542Y-143391781D01*
X124439953Y-143465139D01*
X124421771Y-143512058D01*
X124372943Y-143636616D01*
X124220978Y-143636616D01*
X124129061Y-143538192D01*
X124068838Y-143470667D01*
X124041429Y-143430283D01*
X124043048Y-143410112D01*
X124056237Y-143404858D01*
X124100309Y-143414812D01*
X124162116Y-143449767D01*
X124193183Y-143473169D01*
X124251013Y-143518124D01*
X124292938Y-143545786D01*
X124303686Y-143550000D01*
X124320552Y-143527854D01*
X124344680Y-143470069D01*
X124371645Y-143389617D01*
X124397024Y-143299474D01*
X124413348Y-143228415D01*
X124419779Y-143157382D01*
X124418872Y-143061167D01*
X124413322Y-142986561D01*
X124402454Y-142885079D01*
X124482695Y-142885079D01*
X124486979Y-142946120D01*
X124494701Y-143031124D01*
X124495265Y-143036818D01*
X124512500Y-143210001D01*
X124646604Y-143280000D01*
X124723365Y-143317471D01*
X124784922Y-143342873D01*
X124812516Y-143350000D01*
X124836048Y-143327207D01*
X124854785Y-143267640D01*
X124858724Y-143243750D01*
X124871858Y-143147046D01*
X124886014Y-143043101D01*
X124888689Y-143023497D01*
X124904253Y-142909494D01*
X124695876Y-142883809D01*
X124600469Y-142872418D01*
X124526813Y-142864321D01*
X124486712Y-142860790D01*
X124482765Y-142860879D01*
X124482695Y-142885079D01*
X124402454Y-142885079D01*
X124396426Y-142828791D01*
X124299652Y-142812441D01*
X124221964Y-142790160D01*
X124174721Y-142759741D01*
X124161037Y-142729256D01*
X124184026Y-142706777D01*
X124246802Y-142700377D01*
X124256668Y-142701033D01*
X124317825Y-142702637D01*
X124337377Y-142687464D01*
X124323189Y-142645993D01*
X124321212Y-142642091D01*
X124410894Y-142642091D01*
X124411532Y-142643992D01*
X124423905Y-142688993D01*
X124425000Y-142700137D01*
X124447857Y-142716601D01*
X124508127Y-142734339D01*
X124593354Y-142750987D01*
X124691083Y-142764180D01*
X124788858Y-142771551D01*
X124803575Y-142772030D01*
X124883970Y-142768266D01*
X124925743Y-142749855D01*
X124934825Y-142735455D01*
X124945256Y-142684001D01*
X124949976Y-142612784D01*
X124950000Y-142607780D01*
X124944180Y-142547836D01*
X124924864Y-142530509D01*
X124916321Y-142532574D01*
X124878076Y-142541244D01*
X124802895Y-142553955D01*
X124703473Y-142568654D01*
X124640353Y-142577196D01*
X124525419Y-142593858D01*
X124453460Y-142608886D01*
X124417582Y-142624293D01*
X124410894Y-142642091D01*
X124321212Y-142642091D01*
X124315189Y-142630200D01*
X124286425Y-142566854D01*
X124251593Y-142479685D01*
X124230428Y-142421937D01*
X124191967Y-142329169D01*
X124137684Y-142218428D01*
X124079249Y-142113505D01*
X124078571Y-142112380D01*
X124032161Y-142031049D01*
X124000412Y-141966769D01*
X123988635Y-141930606D01*
X123989613Y-141927053D01*
X124014434Y-141933837D01*
X124057031Y-141977439D01*
X124111917Y-142050417D01*
X124173605Y-142145330D01*
X124236610Y-142254735D01*
X124250754Y-142281250D01*
X124294169Y-142363633D01*
X124329828Y-142420610D01*
X124367330Y-142455295D01*
X124416275Y-142470801D01*
X124486263Y-142470245D01*
X124586894Y-142456738D01*
X124722476Y-142434275D01*
X124967693Y-142393550D01*
X125021842Y-141990525D01*
X125040373Y-141847040D01*
X125056109Y-141714568D01*
X125067872Y-141603881D01*
X125074484Y-141525750D01*
X125075496Y-141499801D01*
X125087285Y-141424552D01*
X125117655Y-141335856D01*
X125135227Y-141298964D01*
X125223238Y-141091431D01*
X125263014Y-140888285D01*
X125254259Y-140687359D01*
X125196677Y-140486488D01*
X125089972Y-140283509D01*
X124974621Y-140125000D01*
X124872608Y-139982953D01*
X124782877Y-139827066D01*
X124712265Y-139671392D01*
X124667613Y-139529987D01*
X124657694Y-139473775D01*
X124651183Y-139399556D01*
X124656721Y-139361838D01*
X124677555Y-139347904D01*
X124690267Y-139346192D01*
X124744798Y-139341476D01*
X124764798Y-139339545D01*
X124796703Y-139321890D01*
X124850479Y-139279297D01*
X124896048Y-139238201D01*
X124960243Y-139170088D01*
X124991840Y-139113274D01*
X125000000Y-139054050D01*
X125012307Y-138982640D01*
X125055900Y-138917529D01*
X125084438Y-138888767D01*
X125119042Y-138854525D01*
X125144633Y-138821230D01*
X125163864Y-138779870D01*
X125179390Y-138721434D01*
X125193864Y-138636910D01*
X125209940Y-138517287D01*
X125221769Y-138422404D01*
X125249918Y-138269931D01*
X125291614Y-138146423D01*
X125343783Y-138058553D01*
X125403354Y-138012989D01*
X125411488Y-138010520D01*
X125462984Y-137986726D01*
X125505413Y-137939247D01*
X125542696Y-137860763D01*
X125578756Y-137743952D01*
X125599951Y-137658754D01*
X125649955Y-137456060D01*
X125694280Y-137297979D01*
X125734430Y-137179644D01*
X125771910Y-137096185D01*
X125776254Y-137088364D01*
X125821027Y-136982371D01*
X125838890Y-136877162D01*
X125830364Y-136784297D01*
X125795971Y-136715334D01*
X125758165Y-136688028D01*
X125661207Y-136655581D01*
X125564857Y-136641116D01*
X125463172Y-136646433D01*
X125350208Y-136673330D01*
X125220019Y-136723608D01*
X125066663Y-136799065D01*
X124884194Y-136901500D01*
X124712500Y-137004550D01*
X124596962Y-137076432D01*
X124490247Y-137145807D01*
X124381319Y-137220290D01*
X124259142Y-137307493D01*
X124112681Y-137415029D01*
X124050000Y-137461589D01*
X123939322Y-137541176D01*
X123821638Y-137621270D01*
X123715720Y-137689252D01*
X123675000Y-137713630D01*
X123583197Y-137769204D01*
X123468377Y-137842394D01*
X123348235Y-137921792D01*
X123280528Y-137967961D01*
X123142514Y-138061508D01*
X123033432Y-138128744D01*
X122942382Y-138173579D01*
X122858463Y-138199924D01*
X122770775Y-138211690D01*
X122668418Y-138212787D01*
X122604794Y-138210394D01*
X122440944Y-138199360D01*
X122309705Y-138181572D01*
X122193837Y-138154133D01*
X122112500Y-138127577D01*
X122066383Y-138111665D01*
X121981276Y-138082858D01*
X121865648Y-138043998D01*
X121727966Y-137997931D01*
X121576699Y-137947501D01*
X121545603Y-137937156D01*
X121053706Y-137773571D01*
X120623661Y-137747048D01*
X120458263Y-137737588D01*
X120332679Y-137732622D01*
X120236907Y-137732367D01*
X120160946Y-137737040D01*
X120094793Y-137746859D01*
X120037341Y-137759779D01*
X119861732Y-137799058D01*
X119689885Y-137828692D01*
X119532566Y-137847428D01*
X119400542Y-137854009D01*
X119304581Y-137847182D01*
X119298278Y-137845910D01*
X119213621Y-137829545D01*
X119105212Y-137811228D01*
X119013833Y-137797432D01*
X118887257Y-137770469D01*
X118750086Y-137722304D01*
X118596008Y-137649916D01*
X118418710Y-137550288D01*
X118211881Y-137420399D01*
X118175000Y-137396194D01*
X118041718Y-137310321D01*
X117896231Y-137219925D01*
X117756869Y-137136224D01*
X117650000Y-137074875D01*
X117494502Y-136984586D01*
X117310667Y-136871075D01*
X117109783Y-136741610D01*
X116903140Y-136603458D01*
X116712500Y-136471301D01*
X116445477Y-136288962D01*
X116203008Y-136137888D01*
X115975397Y-136012916D01*
X115752947Y-135908884D01*
X115525961Y-135820631D01*
X115427438Y-135787190D01*
X115283412Y-135742721D01*
X115173025Y-135717372D01*
X115083540Y-135711574D01*
X115002219Y-135725763D01*
X114916325Y-135760370D01*
X114827675Y-135807589D01*
X114643342Y-135934860D01*
X114503515Y-136083559D01*
X114408756Y-136252900D01*
X114359627Y-136442098D01*
X114356902Y-136465345D01*
X114352548Y-136557836D01*
X114365692Y-136633327D01*
X114401558Y-136719067D01*
X114408078Y-136732219D01*
X114443777Y-136818935D01*
X114473240Y-136927863D01*
X114499018Y-137069691D01*
X114513774Y-137175000D01*
X114533005Y-137310101D01*
X114554762Y-137441438D01*
X114576261Y-137553253D01*
X114593320Y-137625000D01*
X114633496Y-137820736D01*
X114645575Y-138016821D01*
X114629041Y-138196455D01*
X114612998Y-138264484D01*
X114584560Y-138387016D01*
X114559053Y-138541711D01*
X114538530Y-138710737D01*
X114525043Y-138876264D01*
X114520644Y-139020463D01*
X114521495Y-139059263D01*
X114519807Y-139169319D01*
X114508999Y-139284328D01*
X114500482Y-139335176D01*
X114487681Y-139416533D01*
X114489628Y-139487342D01*
X114508220Y-139570092D01*
X114524939Y-139624811D01*
X114554999Y-139708920D01*
X114583863Y-139773139D01*
X114604593Y-139802838D01*
X114619672Y-139830222D01*
X114606312Y-139884393D01*
X114601581Y-139896182D01*
X114584680Y-139956474D01*
X114586749Y-139998675D01*
X114587445Y-139999911D01*
X114595133Y-140041585D01*
X114587142Y-140095367D01*
X114568828Y-140138436D01*
X114552233Y-140150000D01*
X114530676Y-140128794D01*
X114514480Y-140086490D01*
X114505809Y-140058346D01*
X114492369Y-140047010D01*
X114466356Y-140055910D01*
X114419969Y-140088476D01*
X114345407Y-140148136D01*
X114311806Y-140175567D01*
X114227740Y-140247016D01*
X114157254Y-140312008D01*
X114110565Y-140360879D01*
X114099042Y-140376789D01*
X114082379Y-140426733D01*
X114065354Y-140507426D01*
X114053757Y-140585374D01*
X114012954Y-140747604D01*
X113933498Y-140878266D01*
X113817012Y-140976202D01*
X113756063Y-141008591D01*
X113733089Y-141008619D01*
X113748065Y-140976426D01*
X113800969Y-140912155D01*
X113832700Y-140877544D01*
X113894594Y-140808031D01*
X113934221Y-140749672D01*
X113959049Y-140685542D01*
X113976547Y-140598715D01*
X113986640Y-140528625D01*
X114003354Y-140441879D01*
X114031913Y-140368718D01*
X114079457Y-140298877D01*
X114153127Y-140222090D01*
X114260064Y-140128092D01*
X114272495Y-140117658D01*
X114372416Y-140031017D01*
X114436680Y-139962069D01*
X114469368Y-139898159D01*
X114474562Y-139826636D01*
X114456345Y-139734846D01*
X114427401Y-139637500D01*
X114400819Y-139538722D01*
X114392947Y-139457495D01*
X114401839Y-139365836D01*
X114406542Y-139337500D01*
X114419806Y-139245482D01*
X114426776Y-139164698D01*
X114426678Y-139125000D01*
X114420389Y-139009143D01*
X114419743Y-138866802D01*
X114424063Y-138711948D01*
X114432669Y-138558552D01*
X114444881Y-138420585D01*
X114460022Y-138312018D01*
X114467988Y-138275000D01*
X114506331Y-138039023D01*
X114499788Y-137808140D01*
X114470598Y-137662500D01*
X114445842Y-137559938D01*
X114420694Y-137434661D01*
X114400558Y-137313616D01*
X114400397Y-137312500D01*
X114383445Y-137194441D01*
X114366159Y-137074300D01*
X114352178Y-136977370D01*
X114351749Y-136974402D01*
X114328876Y-136870827D01*
X114293800Y-136766609D01*
X114275696Y-136726366D01*
X114234223Y-136590894D01*
X114234738Y-136431662D01*
X114277117Y-136251864D01*
X114296173Y-136199035D01*
X114379311Y-136047299D01*
X114500953Y-135909201D01*
X114649886Y-135793075D01*
X114814894Y-135707255D01*
X114984765Y-135660076D01*
X115027864Y-135655204D01*
X115160394Y-135660863D01*
X115324954Y-135692940D01*
X115513467Y-135747995D01*
X115717855Y-135822589D01*
X115930042Y-135913282D01*
X116141952Y-136016635D01*
X116345507Y-136129208D01*
X116532630Y-136247562D01*
X116687500Y-136361959D01*
X116774477Y-136424832D01*
X116871141Y-136484336D01*
X116900000Y-136499774D01*
X116964535Y-136535813D01*
X117058084Y-136592355D01*
X117168321Y-136661773D01*
X117282920Y-136736442D01*
X117287680Y-136739603D01*
X117398987Y-136811939D01*
X117503429Y-136876887D01*
X117589866Y-136927705D01*
X117647158Y-136957657D01*
X117650488Y-136959092D01*
X117718947Y-136992425D01*
X117819116Y-137047275D01*
X117940948Y-137117655D01*
X118074396Y-137197579D01*
X118209412Y-137281060D01*
X118335951Y-137362113D01*
X118412500Y-137413108D01*
X118602641Y-137530953D01*
X118771116Y-137610068D01*
X118924200Y-137653189D01*
X118980683Y-137660804D01*
X119081186Y-137675483D01*
X119180576Y-137698257D01*
X119215026Y-137708981D01*
X119263579Y-137723707D01*
X119311905Y-137730473D01*
X119371559Y-137728747D01*
X119454098Y-137717998D01*
X119571077Y-137697695D01*
X119607844Y-137690918D01*
X119898879Y-137636944D01*
X119780689Y-137534667D01*
X119662500Y-137432390D01*
X119647394Y-137159945D01*
X119638546Y-137029936D01*
X119626372Y-136933022D01*
X119607109Y-136852299D01*
X119576999Y-136770865D01*
X119544731Y-136698499D01*
X119495923Y-136588106D01*
X119449334Y-136474269D01*
X119414405Y-136380144D01*
X119412179Y-136373499D01*
X119385127Y-136303455D01*
X119340356Y-136200440D01*
X119283075Y-136075915D01*
X119218496Y-135941341D01*
X119184323Y-135872318D01*
X119102145Y-135712537D01*
X119031836Y-135589148D01*
X118965578Y-135492583D01*
X118895550Y-135413275D01*
X118813934Y-135341655D01*
X118712911Y-135268155D01*
X118663294Y-135234743D01*
X118577614Y-135174034D01*
X118535079Y-135133191D01*
X118534212Y-135109525D01*
X118573534Y-135100346D01*
X118589270Y-135099999D01*
X118642634Y-135115413D01*
G37*
%TO.C,J13*%
X185000000Y-131000000D02*
X184500000Y-131500000D01*
X184000000Y-131000000D02*
X185000000Y-131000000D01*
X184500000Y-131500000D02*
X184000000Y-131000000D01*
X191910000Y-131695000D02*
X184300000Y-131695000D01*
X191910000Y-131695000D02*
X191910000Y-148425000D01*
X175940000Y-131695000D02*
X181500000Y-131695000D01*
X175940000Y-131695000D02*
X175940000Y-148425000D01*
X191910000Y-148425000D02*
X184300000Y-148425000D01*
X175940000Y-148425000D02*
X181500000Y-148425000D01*
%TO.C,R33*%
X169067621Y-129380000D02*
X168732379Y-129380000D01*
X169067621Y-128620000D02*
X168732379Y-128620000D01*
%TO.C,C26*%
X171146267Y-66010000D02*
X170853733Y-66010000D01*
X171146267Y-64990000D02*
X170853733Y-64990000D01*
%TO.C,R41*%
X152995276Y-104477500D02*
X153504724Y-104477500D01*
X152995276Y-105522500D02*
X153504724Y-105522500D01*
%TO.C,C3*%
X156716000Y-93008667D02*
X156716000Y-92716133D01*
X157736000Y-93008667D02*
X157736000Y-92716133D01*
%TO.C,R27*%
X149504724Y-128272500D02*
X148995276Y-128272500D01*
X149504724Y-127227500D02*
X148995276Y-127227500D01*
%TO.C,R17*%
X122427500Y-124707776D02*
X122427500Y-125217224D01*
X121382500Y-124707776D02*
X121382500Y-125217224D01*
%TO.C,C33*%
X130010000Y-112603733D02*
X130010000Y-112896267D01*
X128990000Y-112603733D02*
X128990000Y-112896267D01*
%TO.C,Y2*%
X120900000Y-95650000D02*
X117600000Y-95650000D01*
X117600000Y-95650000D02*
X117600000Y-99650000D01*
%TO.C,J10*%
X179730000Y-128465000D02*
X178400000Y-128465000D01*
X179730000Y-127135000D02*
X179730000Y-128465000D01*
X179730000Y-125865000D02*
X179730000Y-108025000D01*
X179730000Y-125865000D02*
X177070000Y-125865000D01*
X179730000Y-108025000D02*
X177070000Y-108025000D01*
X177070000Y-125865000D02*
X177070000Y-108025000D01*
%TO.C,C9*%
X164648733Y-111210000D02*
X164941267Y-111210000D01*
X164648733Y-112230000D02*
X164941267Y-112230000D01*
%TO.C,R31*%
X168892621Y-120730000D02*
X168557379Y-120730000D01*
X168892621Y-119970000D02*
X168557379Y-119970000D01*
%TO.C,U5*%
X128260000Y-78430000D02*
X128085000Y-78430000D01*
X125540000Y-77755000D02*
X125540000Y-78430000D01*
X128260000Y-77755000D02*
X128260000Y-78430000D01*
X125540000Y-75885000D02*
X125540000Y-75210000D01*
X128260000Y-75885000D02*
X128260000Y-75210000D01*
X125540000Y-75210000D02*
X125715000Y-75210000D01*
X128260000Y-75210000D02*
X128085000Y-75210000D01*
%TO.C,C30*%
X151865000Y-88146267D02*
X151865000Y-87853733D01*
X152885000Y-88146267D02*
X152885000Y-87853733D01*
%TO.C,U6*%
X173210000Y-98600000D02*
X171610000Y-98600000D01*
X171610000Y-100400000D02*
X173510000Y-100400000D01*
%TO.C,C7*%
X168883767Y-113060000D02*
X168591233Y-113060000D01*
X168883767Y-112040000D02*
X168591233Y-112040000D01*
%TO.C,R34*%
X169092621Y-131055000D02*
X168757379Y-131055000D01*
X169092621Y-130295000D02*
X168757379Y-130295000D01*
%TO.C,R3*%
X122277500Y-67654724D02*
X122277500Y-67145276D01*
X123322500Y-67654724D02*
X123322500Y-67145276D01*
%TO.C,C1*%
X129840000Y-76996267D02*
X129840000Y-76703733D01*
X130860000Y-76996267D02*
X130860000Y-76703733D01*
%TO.C,R21*%
X136304724Y-132827500D02*
X135795276Y-132827500D01*
X136304724Y-131782500D02*
X135795276Y-131782500D01*
%TO.C,J8*%
X104390000Y-118750000D02*
X103650000Y-118750000D01*
X103650000Y-118750000D02*
X103650000Y-119250000D01*
X113811000Y-118990000D02*
X103890000Y-118990000D01*
X113811000Y-118990000D02*
X113811000Y-139111000D01*
X110851000Y-118990000D02*
X110851000Y-139111000D01*
X105950000Y-118990000D02*
X105950000Y-139111000D01*
X104450000Y-118990000D02*
X104450000Y-139111000D01*
X103890000Y-118990000D02*
X103890000Y-139111000D01*
X107527000Y-125323000D02*
X107481000Y-125276000D01*
X107311000Y-125516000D02*
X107276000Y-125481000D01*
X109825000Y-127620000D02*
X109789000Y-127585000D01*
X109619000Y-127825000D02*
X109573000Y-127778000D01*
X107527000Y-130323000D02*
X107481000Y-130276000D01*
X107311000Y-130516000D02*
X107276000Y-130481000D01*
X109825000Y-132620000D02*
X109789000Y-132585000D01*
X109619000Y-132825000D02*
X109573000Y-132778000D01*
X107527000Y-135323000D02*
X107481000Y-135276000D01*
X107311000Y-135516000D02*
X107276000Y-135481000D01*
X109825000Y-137620000D02*
X109789000Y-137585000D01*
X109619000Y-137825000D02*
X109573000Y-137778000D01*
X113811000Y-139111000D02*
X103890000Y-139111000D01*
X109233999Y-120015001D02*
G75*
G03*
X107866958Y-120014574I-684000J-1534992D01*
G01*
X110084999Y-122233999D02*
G75*
G03*
X110085426Y-120866958I-1534992J684000D01*
G01*
X107015001Y-120866000D02*
G75*
G03*
X106869748Y-121578805I1535000J-683999D01*
G01*
X106870001Y-121550000D02*
G75*
G03*
X107015245Y-122233318I1679999J0D01*
G01*
X107866000Y-123085000D02*
G75*
G03*
X109233042Y-123085426I684000J1535000D01*
G01*
X110230000Y-126550000D02*
G75*
G03*
X110230000Y-126550000I-1680000J0D01*
G01*
X110230000Y-131550000D02*
G75*
G03*
X110230000Y-131550000I-1680000J0D01*
G01*
X110230000Y-136550000D02*
G75*
G03*
X110230000Y-136550000I-1680000J0D01*
G01*
%TO.C,R20*%
X132879724Y-132840000D02*
X132370276Y-132840000D01*
X132879724Y-131795000D02*
X132370276Y-131795000D01*
%TO.C,C44*%
X122390000Y-105221267D02*
X122390000Y-104928733D01*
X123410000Y-105221267D02*
X123410000Y-104928733D01*
%TO.C,C42*%
X137896267Y-113785000D02*
X137603733Y-113785000D01*
X137896267Y-112765000D02*
X137603733Y-112765000D01*
%TO.C,R40*%
X155272500Y-102245276D02*
X155272500Y-102754724D01*
X154227500Y-102245276D02*
X154227500Y-102754724D01*
%TO.C,U2*%
X131465000Y-76400000D02*
X131465000Y-79850000D01*
X131465000Y-76400000D02*
X131465000Y-74450000D01*
X136585000Y-76400000D02*
X136585000Y-78350000D01*
X136585000Y-76400000D02*
X136585000Y-74450000D01*
%TO.C,SW3*%
X128250000Y-60345000D02*
X128250000Y-59555000D01*
X126400000Y-61395000D02*
X124700000Y-61395000D01*
X123400000Y-61395000D02*
X123200000Y-61395000D01*
X121350000Y-59555000D02*
X121350000Y-60345000D01*
%TO.C,C28*%
X121910000Y-104928733D02*
X121910000Y-105221267D01*
X120890000Y-104928733D02*
X120890000Y-105221267D01*
%TO.C,R6*%
X186642224Y-111457500D02*
X186132776Y-111457500D01*
X186642224Y-110412500D02*
X186132776Y-110412500D01*
%TO.C,R23*%
X122452500Y-131395276D02*
X122452500Y-131904724D01*
X121407500Y-131395276D02*
X121407500Y-131904724D01*
%TO.C,C24*%
X152735000Y-101878733D02*
X152735000Y-102171267D01*
X151715000Y-101878733D02*
X151715000Y-102171267D01*
%TO.C,C29*%
X146385000Y-112478733D02*
X146385000Y-112771267D01*
X145365000Y-112478733D02*
X145365000Y-112771267D01*
%TO.C,R46*%
X125677500Y-83229724D02*
X125677500Y-82720276D01*
X126722500Y-83229724D02*
X126722500Y-82720276D01*
%TO.C,U3*%
X174675000Y-73435000D02*
X168665000Y-73435000D01*
X172425000Y-66615000D02*
X168665000Y-66615000D01*
X168665000Y-73435000D02*
X168665000Y-72175000D01*
X168665000Y-66615000D02*
X168665000Y-67875000D01*
%TD*%
M02*
