%TF.GenerationSoftware,KiCad,Pcbnew,8.0.6*%
%TF.CreationDate,2024-12-31T17:28:59-06:00*%
%TF.ProjectId,OpAmpDistortion,4f70416d-7044-4697-9374-6f7274696f6e,rev?*%
%TF.SameCoordinates,Original*%
%TF.FileFunction,Soldermask,Top*%
%TF.FilePolarity,Negative*%
%FSLAX46Y46*%
G04 Gerber Fmt 4.6, Leading zero omitted, Abs format (unit mm)*
G04 Created by KiCad (PCBNEW 8.0.6) date 2024-12-31 17:28:59*
%MOMM*%
%LPD*%
G01*
G04 APERTURE LIST*
G04 Aperture macros list*
%AMRoundRect*
0 Rectangle with rounded corners*
0 $1 Rounding radius*
0 $2 $3 $4 $5 $6 $7 $8 $9 X,Y pos of 4 corners*
0 Add a 4 corners polygon primitive as box body*
4,1,4,$2,$3,$4,$5,$6,$7,$8,$9,$2,$3,0*
0 Add four circle primitives for the rounded corners*
1,1,$1+$1,$2,$3*
1,1,$1+$1,$4,$5*
1,1,$1+$1,$6,$7*
1,1,$1+$1,$8,$9*
0 Add four rect primitives between the rounded corners*
20,1,$1+$1,$2,$3,$4,$5,0*
20,1,$1+$1,$4,$5,$6,$7,0*
20,1,$1+$1,$6,$7,$8,$9,0*
20,1,$1+$1,$8,$9,$2,$3,0*%
G04 Aperture macros list end*
%ADD10R,1.700000X1.700000*%
%ADD11O,1.700000X1.700000*%
%ADD12RoundRect,0.237500X0.300000X0.237500X-0.300000X0.237500X-0.300000X-0.237500X0.300000X-0.237500X0*%
%ADD13RoundRect,0.237500X0.287500X0.237500X-0.287500X0.237500X-0.287500X-0.237500X0.287500X-0.237500X0*%
%ADD14RoundRect,0.237500X-0.237500X0.300000X-0.237500X-0.300000X0.237500X-0.300000X0.237500X0.300000X0*%
%ADD15RoundRect,0.237500X0.237500X-0.250000X0.237500X0.250000X-0.237500X0.250000X-0.237500X-0.250000X0*%
%ADD16R,2.400000X1.600000*%
%ADD17O,2.400000X1.600000*%
%ADD18RoundRect,0.237500X-0.237500X0.250000X-0.237500X-0.250000X0.237500X-0.250000X0.237500X0.250000X0*%
%ADD19RoundRect,0.237500X-0.300000X-0.237500X0.300000X-0.237500X0.300000X0.237500X-0.300000X0.237500X0*%
%ADD20RoundRect,0.237500X0.237500X-0.300000X0.237500X0.300000X-0.237500X0.300000X-0.237500X-0.300000X0*%
%ADD21RoundRect,0.237500X-0.237500X0.287500X-0.237500X-0.287500X0.237500X-0.287500X0.237500X0.287500X0*%
G04 APERTURE END LIST*
D10*
%TO.C,RV1*%
X148900000Y-88375000D03*
D11*
X148900000Y-90915000D03*
X148900000Y-93455000D03*
%TD*%
D12*
%TO.C,C6*%
X149662500Y-84300000D03*
X147937500Y-84300000D03*
%TD*%
D13*
%TO.C,D1*%
X149675000Y-85800000D03*
X147925000Y-85800000D03*
%TD*%
D14*
%TO.C,C4*%
X146300000Y-95337500D03*
X146300000Y-97062500D03*
%TD*%
D10*
%TO.C,RV3*%
X138620000Y-85900000D03*
D11*
X141160000Y-85900000D03*
X143700000Y-85900000D03*
%TD*%
D10*
%TO.C,J1*%
X131500000Y-87825000D03*
D11*
X131500000Y-90365000D03*
%TD*%
D15*
%TO.C,R4*%
X144800000Y-93712500D03*
X144800000Y-91887500D03*
%TD*%
D16*
%TO.C,U1*%
X134875000Y-89300000D03*
D17*
X134875000Y-91840000D03*
X134875000Y-94380000D03*
X134875000Y-96920000D03*
X142495000Y-96920000D03*
X142495000Y-94380000D03*
X142495000Y-91840000D03*
X142495000Y-89300000D03*
%TD*%
D15*
%TO.C,R3*%
X144800000Y-97112500D03*
X144800000Y-95287500D03*
%TD*%
D10*
%TO.C,RV2*%
X152603200Y-88392000D03*
D11*
X152603200Y-90932000D03*
X152603200Y-93472000D03*
%TD*%
D18*
%TO.C,R1*%
X128900000Y-91387500D03*
X128900000Y-93212500D03*
%TD*%
D19*
%TO.C,C3*%
X134237500Y-87000000D03*
X135962500Y-87000000D03*
%TD*%
D14*
%TO.C,C2*%
X128900000Y-94737500D03*
X128900000Y-96462500D03*
%TD*%
D20*
%TO.C,C5*%
X144800000Y-90262500D03*
X144800000Y-88537500D03*
%TD*%
D10*
%TO.C,J2*%
X148900000Y-97100000D03*
D11*
X151440000Y-97100000D03*
%TD*%
D15*
%TO.C,R5*%
X146300000Y-90312500D03*
X146300000Y-88487500D03*
%TD*%
D10*
%TO.C,BT1*%
X131500000Y-94125000D03*
D11*
X131500000Y-96665000D03*
%TD*%
D14*
%TO.C,C1*%
X127400000Y-91437500D03*
X127400000Y-93162500D03*
%TD*%
D21*
%TO.C,D2*%
X146300000Y-85125000D03*
X146300000Y-86875000D03*
%TD*%
D18*
%TO.C,R2*%
X127400000Y-94687500D03*
X127400000Y-96512500D03*
%TD*%
M02*
