%TF.GenerationSoftware,KiCad,Pcbnew,8.0.6*%
%TF.CreationDate,2024-12-31T17:28:59-06:00*%
%TF.ProjectId,OpAmpDistortion,4f70416d-7044-4697-9374-6f7274696f6e,rev?*%
%TF.SameCoordinates,Original*%
%TF.FileFunction,Copper,L2,Bot*%
%TF.FilePolarity,Positive*%
%FSLAX46Y46*%
G04 Gerber Fmt 4.6, Leading zero omitted, Abs format (unit mm)*
G04 Created by KiCad (PCBNEW 8.0.6) date 2024-12-31 17:28:59*
%MOMM*%
%LPD*%
G01*
G04 APERTURE LIST*
%TA.AperFunction,ComponentPad*%
%ADD10R,1.700000X1.700000*%
%TD*%
%TA.AperFunction,ComponentPad*%
%ADD11O,1.700000X1.700000*%
%TD*%
%TA.AperFunction,ComponentPad*%
%ADD12R,2.400000X1.600000*%
%TD*%
%TA.AperFunction,ComponentPad*%
%ADD13O,2.400000X1.600000*%
%TD*%
%TA.AperFunction,ViaPad*%
%ADD14C,0.600000*%
%TD*%
G04 APERTURE END LIST*
D10*
%TO.P,RV1,1,1*%
%TO.N,Net-(R4-Pad2)*%
X148900000Y-88375000D03*
D11*
%TO.P,RV1,2,2*%
X148900000Y-90915000D03*
%TO.P,RV1,3,3*%
%TO.N,Net-(C5-Pad1)*%
X148900000Y-93455000D03*
%TD*%
D10*
%TO.P,RV3,1,1*%
%TO.N,Net-(R5-Pad2)*%
X138620000Y-85900000D03*
D11*
%TO.P,RV3,2,2*%
X141160000Y-85900000D03*
%TO.P,RV3,3,3*%
%TO.N,Net-(D1-K)*%
X143700000Y-85900000D03*
%TD*%
D10*
%TO.P,J1,1,Pin_1*%
%TO.N,Net-(J1-Pin_1)*%
X131500000Y-87825000D03*
D11*
%TO.P,J1,2,Pin_2*%
%TO.N,GND*%
X131500000Y-90365000D03*
%TD*%
D12*
%TO.P,U1,1*%
%TO.N,Net-(U1A--)*%
X134875000Y-89300000D03*
D13*
%TO.P,U1,2,-*%
X134875000Y-91840000D03*
%TO.P,U1,3,+*%
%TO.N,Net-(U1A-+)*%
X134875000Y-94380000D03*
%TO.P,U1,4,V-*%
%TO.N,Net-(BT1--)*%
X134875000Y-96920000D03*
%TO.P,U1,5,+*%
%TO.N,Net-(U1A--)*%
X142495000Y-96920000D03*
%TO.P,U1,6,-*%
%TO.N,Net-(U1B--)*%
X142495000Y-94380000D03*
%TO.P,U1,7*%
%TO.N,Net-(C5-Pad1)*%
X142495000Y-91840000D03*
%TO.P,U1,8,V+*%
%TO.N,Net-(BT1-+)*%
X142495000Y-89300000D03*
%TD*%
D10*
%TO.P,RV2,1,1*%
%TO.N,Net-(D1-K)*%
X152603200Y-88392000D03*
D11*
%TO.P,RV2,2,2*%
%TO.N,Net-(J2-Pin_2)*%
X152603200Y-90932000D03*
%TO.P,RV2,3,3*%
%TO.N,GND*%
X152603200Y-93472000D03*
%TD*%
D10*
%TO.P,J2,1,Pin_1*%
%TO.N,GND*%
X148900000Y-97100000D03*
D11*
%TO.P,J2,2,Pin_2*%
%TO.N,Net-(J2-Pin_2)*%
X151440000Y-97100000D03*
%TD*%
D10*
%TO.P,BT1,1,+*%
%TO.N,Net-(BT1-+)*%
X131500000Y-94125000D03*
D11*
%TO.P,BT1,2,-*%
%TO.N,Net-(BT1--)*%
X131500000Y-96665000D03*
%TD*%
D14*
%TO.N,GND*%
X146300000Y-94050000D03*
X151079200Y-95199200D03*
X147700000Y-96200000D03*
X129150000Y-89650000D03*
X140000000Y-97500000D03*
X137000000Y-97500000D03*
X139000000Y-97500000D03*
X138000000Y-96500000D03*
X146400000Y-83800000D03*
X149800000Y-87000000D03*
X145049265Y-84149265D03*
X137000000Y-96500000D03*
X139000000Y-95500000D03*
X138000000Y-95500000D03*
X138000000Y-97500000D03*
X150774400Y-92659200D03*
X137000000Y-95500000D03*
X139000000Y-96500000D03*
X140000000Y-95500000D03*
X140000000Y-96500000D03*
%TD*%
%TA.AperFunction,Conductor*%
%TO.N,GND*%
G36*
X155342539Y-82113785D02*
G01*
X155388294Y-82166589D01*
X155399500Y-82218100D01*
X155399500Y-99575500D01*
X155379815Y-99642539D01*
X155327011Y-99688294D01*
X155275500Y-99699500D01*
X125124500Y-99699500D01*
X125057461Y-99679815D01*
X125011706Y-99627011D01*
X125000500Y-99575500D01*
X125000500Y-96664999D01*
X130144341Y-96664999D01*
X130144341Y-96665000D01*
X130164936Y-96900403D01*
X130164938Y-96900413D01*
X130226094Y-97128655D01*
X130226096Y-97128659D01*
X130226097Y-97128663D01*
X130270803Y-97224534D01*
X130325965Y-97342830D01*
X130325967Y-97342834D01*
X130330985Y-97350000D01*
X130461505Y-97536401D01*
X130628599Y-97703495D01*
X130719598Y-97767213D01*
X130822165Y-97839032D01*
X130822167Y-97839033D01*
X130822170Y-97839035D01*
X131036337Y-97938903D01*
X131264592Y-98000063D01*
X131448817Y-98016181D01*
X131499999Y-98020659D01*
X131500000Y-98020659D01*
X131500001Y-98020659D01*
X131539234Y-98017226D01*
X131735408Y-98000063D01*
X131963663Y-97938903D01*
X132177830Y-97839035D01*
X132371401Y-97703495D01*
X132538495Y-97536401D01*
X132674035Y-97342830D01*
X132773903Y-97128663D01*
X132835063Y-96900408D01*
X132855659Y-96665000D01*
X132835063Y-96429592D01*
X132773903Y-96201337D01*
X132674035Y-95987171D01*
X132631178Y-95925965D01*
X132538496Y-95793600D01*
X132489237Y-95744341D01*
X132416567Y-95671671D01*
X132383084Y-95610351D01*
X132388068Y-95540659D01*
X132429939Y-95484725D01*
X132460915Y-95467810D01*
X132592331Y-95418796D01*
X132707546Y-95332546D01*
X132793796Y-95217331D01*
X132844091Y-95082483D01*
X132850500Y-95022873D01*
X132850499Y-93227128D01*
X132844091Y-93167517D01*
X132824619Y-93115311D01*
X132793797Y-93032671D01*
X132793793Y-93032664D01*
X132707547Y-92917455D01*
X132707544Y-92917452D01*
X132592335Y-92831206D01*
X132592328Y-92831202D01*
X132457482Y-92780908D01*
X132457483Y-92780908D01*
X132397883Y-92774501D01*
X132397881Y-92774500D01*
X132397873Y-92774500D01*
X132397864Y-92774500D01*
X130602129Y-92774500D01*
X130602123Y-92774501D01*
X130542516Y-92780908D01*
X130407671Y-92831202D01*
X130407664Y-92831206D01*
X130292455Y-92917452D01*
X130292452Y-92917455D01*
X130206206Y-93032664D01*
X130206202Y-93032671D01*
X130155908Y-93167517D01*
X130150214Y-93220485D01*
X130149501Y-93227123D01*
X130149500Y-93227135D01*
X130149500Y-95022870D01*
X130149501Y-95022876D01*
X130155908Y-95082483D01*
X130206202Y-95217328D01*
X130206206Y-95217335D01*
X130292452Y-95332544D01*
X130292455Y-95332547D01*
X130407664Y-95418793D01*
X130407671Y-95418797D01*
X130539081Y-95467810D01*
X130595015Y-95509681D01*
X130619432Y-95575145D01*
X130604580Y-95643418D01*
X130583430Y-95671673D01*
X130461503Y-95793600D01*
X130325965Y-95987169D01*
X130325964Y-95987171D01*
X130226098Y-96201335D01*
X130226094Y-96201344D01*
X130164938Y-96429586D01*
X130164936Y-96429596D01*
X130144341Y-96664999D01*
X125000500Y-96664999D01*
X125000500Y-86927135D01*
X130149500Y-86927135D01*
X130149500Y-88722870D01*
X130149501Y-88722876D01*
X130155908Y-88782483D01*
X130206202Y-88917328D01*
X130206206Y-88917335D01*
X130292452Y-89032544D01*
X130292455Y-89032547D01*
X130407664Y-89118793D01*
X130407671Y-89118797D01*
X130407674Y-89118798D01*
X130539598Y-89168002D01*
X130595531Y-89209873D01*
X130619949Y-89275337D01*
X130605098Y-89343610D01*
X130583947Y-89371865D01*
X130461886Y-89493926D01*
X130326400Y-89687420D01*
X130326399Y-89687422D01*
X130226570Y-89901507D01*
X130226567Y-89901513D01*
X130169364Y-90114999D01*
X130169364Y-90115000D01*
X131066988Y-90115000D01*
X131034075Y-90172007D01*
X131000000Y-90299174D01*
X131000000Y-90430826D01*
X131034075Y-90557993D01*
X131066988Y-90615000D01*
X130169364Y-90615000D01*
X130226567Y-90828486D01*
X130226570Y-90828492D01*
X130326399Y-91042578D01*
X130461894Y-91236082D01*
X130628917Y-91403105D01*
X130822421Y-91538600D01*
X131036507Y-91638429D01*
X131036516Y-91638433D01*
X131250000Y-91695634D01*
X131250000Y-90798012D01*
X131307007Y-90830925D01*
X131434174Y-90865000D01*
X131565826Y-90865000D01*
X131692993Y-90830925D01*
X131750000Y-90798012D01*
X131750000Y-91695633D01*
X131963483Y-91638433D01*
X131963492Y-91638429D01*
X132177578Y-91538600D01*
X132371082Y-91403105D01*
X132538105Y-91236082D01*
X132673600Y-91042578D01*
X132773429Y-90828492D01*
X132773432Y-90828486D01*
X132830636Y-90615000D01*
X131933012Y-90615000D01*
X131965925Y-90557993D01*
X132000000Y-90430826D01*
X132000000Y-90299174D01*
X131965925Y-90172007D01*
X131933012Y-90115000D01*
X132830636Y-90115000D01*
X132830635Y-90114999D01*
X132773432Y-89901513D01*
X132773429Y-89901507D01*
X132673600Y-89687422D01*
X132673599Y-89687420D01*
X132538113Y-89493926D01*
X132538108Y-89493920D01*
X132416053Y-89371865D01*
X132382568Y-89310542D01*
X132387552Y-89240850D01*
X132429424Y-89184917D01*
X132460400Y-89168002D01*
X132592331Y-89118796D01*
X132707546Y-89032546D01*
X132793796Y-88917331D01*
X132844091Y-88782483D01*
X132850500Y-88722873D01*
X132850500Y-88452135D01*
X133174500Y-88452135D01*
X133174500Y-90147870D01*
X133174501Y-90147876D01*
X133180908Y-90207483D01*
X133231202Y-90342328D01*
X133231206Y-90342335D01*
X133317452Y-90457544D01*
X133317455Y-90457547D01*
X133432664Y-90543793D01*
X133432671Y-90543797D01*
X133470733Y-90557993D01*
X133567517Y-90594091D01*
X133604441Y-90598060D01*
X133668989Y-90624796D01*
X133708838Y-90682188D01*
X133711333Y-90752013D01*
X133675681Y-90812102D01*
X133664071Y-90821666D01*
X133627784Y-90848030D01*
X133483028Y-90992786D01*
X133362715Y-91158386D01*
X133269781Y-91340776D01*
X133206522Y-91535465D01*
X133174500Y-91737648D01*
X133174500Y-91942351D01*
X133206522Y-92144534D01*
X133269781Y-92339223D01*
X133362715Y-92521613D01*
X133483028Y-92687213D01*
X133627786Y-92831971D01*
X133745443Y-92917452D01*
X133793390Y-92952287D01*
X133870026Y-92991335D01*
X133886080Y-92999515D01*
X133936876Y-93047490D01*
X133953671Y-93115311D01*
X133931134Y-93181446D01*
X133886080Y-93220485D01*
X133793386Y-93267715D01*
X133627786Y-93388028D01*
X133483028Y-93532786D01*
X133362715Y-93698386D01*
X133269781Y-93880776D01*
X133206522Y-94075465D01*
X133174500Y-94277648D01*
X133174500Y-94482351D01*
X133206522Y-94684534D01*
X133269781Y-94879223D01*
X133333691Y-95004653D01*
X133342975Y-95022873D01*
X133362715Y-95061613D01*
X133483028Y-95227213D01*
X133627786Y-95371971D01*
X133759700Y-95467810D01*
X133793390Y-95492287D01*
X133884840Y-95538883D01*
X133886080Y-95539515D01*
X133936876Y-95587490D01*
X133953671Y-95655311D01*
X133931134Y-95721446D01*
X133886080Y-95760485D01*
X133793386Y-95807715D01*
X133627786Y-95928028D01*
X133483028Y-96072786D01*
X133362715Y-96238386D01*
X133269781Y-96420776D01*
X133206522Y-96615465D01*
X133178405Y-96792993D01*
X133174500Y-96817648D01*
X133174500Y-97022352D01*
X133178878Y-97049995D01*
X133206522Y-97224534D01*
X133269781Y-97419223D01*
X133362715Y-97601613D01*
X133483028Y-97767213D01*
X133627786Y-97911971D01*
X133749034Y-98000061D01*
X133793390Y-98032287D01*
X133909607Y-98091503D01*
X133975776Y-98125218D01*
X133975778Y-98125218D01*
X133975781Y-98125220D01*
X134080137Y-98159127D01*
X134170465Y-98188477D01*
X134271557Y-98204488D01*
X134372648Y-98220500D01*
X134372649Y-98220500D01*
X135377351Y-98220500D01*
X135377352Y-98220500D01*
X135579534Y-98188477D01*
X135774219Y-98125220D01*
X135956610Y-98032287D01*
X136049590Y-97964732D01*
X136122213Y-97911971D01*
X136122215Y-97911968D01*
X136122219Y-97911966D01*
X136266966Y-97767219D01*
X136266968Y-97767215D01*
X136266971Y-97767213D01*
X136319732Y-97694590D01*
X136387287Y-97601610D01*
X136480220Y-97419219D01*
X136543477Y-97224534D01*
X136575500Y-97022352D01*
X136575500Y-96817648D01*
X136551323Y-96665000D01*
X136543477Y-96615465D01*
X136483081Y-96429586D01*
X136480220Y-96420781D01*
X136480218Y-96420778D01*
X136480218Y-96420776D01*
X136446503Y-96354607D01*
X136387287Y-96238390D01*
X136371967Y-96217303D01*
X136266971Y-96072786D01*
X136122213Y-95928028D01*
X135956614Y-95807715D01*
X135950006Y-95804348D01*
X135863917Y-95760483D01*
X135813123Y-95712511D01*
X135796328Y-95644690D01*
X135818865Y-95578555D01*
X135863917Y-95539516D01*
X135956610Y-95492287D01*
X135990300Y-95467810D01*
X136122213Y-95371971D01*
X136122215Y-95371968D01*
X136122219Y-95371966D01*
X136266966Y-95227219D01*
X136266968Y-95227215D01*
X136266971Y-95227213D01*
X136319732Y-95154590D01*
X136387287Y-95061610D01*
X136480220Y-94879219D01*
X136543477Y-94684534D01*
X136575500Y-94482352D01*
X136575500Y-94277648D01*
X136543477Y-94075466D01*
X136480220Y-93880781D01*
X136480218Y-93880778D01*
X136480218Y-93880776D01*
X136428363Y-93779007D01*
X136387287Y-93698390D01*
X136363023Y-93664993D01*
X136266971Y-93532786D01*
X136122213Y-93388028D01*
X135956614Y-93267715D01*
X135950006Y-93264348D01*
X135863917Y-93220483D01*
X135813123Y-93172511D01*
X135796328Y-93104690D01*
X135818865Y-93038555D01*
X135863917Y-92999516D01*
X135956610Y-92952287D01*
X136004557Y-92917452D01*
X136122213Y-92831971D01*
X136122215Y-92831968D01*
X136122219Y-92831966D01*
X136266966Y-92687219D01*
X136266968Y-92687215D01*
X136266971Y-92687213D01*
X136329665Y-92600920D01*
X136387287Y-92521610D01*
X136480220Y-92339219D01*
X136543477Y-92144534D01*
X136575500Y-91942352D01*
X136575500Y-91737648D01*
X136552563Y-91592830D01*
X136543477Y-91535465D01*
X136500470Y-91403105D01*
X136480220Y-91340781D01*
X136480218Y-91340778D01*
X136480218Y-91340776D01*
X136391884Y-91167413D01*
X136387287Y-91158390D01*
X136379556Y-91147749D01*
X136266971Y-90992786D01*
X136122219Y-90848034D01*
X136098670Y-90830925D01*
X136085929Y-90821668D01*
X136043264Y-90766339D01*
X136037285Y-90696726D01*
X136069890Y-90634931D01*
X136130728Y-90600573D01*
X136145562Y-90598060D01*
X136182483Y-90594091D01*
X136317328Y-90543797D01*
X136317327Y-90543797D01*
X136317331Y-90543796D01*
X136432546Y-90457546D01*
X136518796Y-90342331D01*
X136569091Y-90207483D01*
X136575500Y-90147873D01*
X136575499Y-89197648D01*
X140794500Y-89197648D01*
X140794500Y-89402351D01*
X140826522Y-89604534D01*
X140889781Y-89799223D01*
X140920928Y-89860351D01*
X140974199Y-89964901D01*
X140982715Y-89981613D01*
X141103028Y-90147213D01*
X141247786Y-90291971D01*
X141402749Y-90404556D01*
X141413390Y-90412287D01*
X141490026Y-90451335D01*
X141506080Y-90459515D01*
X141556876Y-90507490D01*
X141573671Y-90575311D01*
X141551134Y-90641446D01*
X141506080Y-90680485D01*
X141413386Y-90727715D01*
X141247786Y-90848028D01*
X141103028Y-90992786D01*
X140982715Y-91158386D01*
X140889781Y-91340776D01*
X140826522Y-91535465D01*
X140794500Y-91737648D01*
X140794500Y-91942351D01*
X140826522Y-92144534D01*
X140889781Y-92339223D01*
X140982715Y-92521613D01*
X141103028Y-92687213D01*
X141247786Y-92831971D01*
X141365443Y-92917452D01*
X141413390Y-92952287D01*
X141490026Y-92991335D01*
X141506080Y-92999515D01*
X141556876Y-93047490D01*
X141573671Y-93115311D01*
X141551134Y-93181446D01*
X141506080Y-93220485D01*
X141413386Y-93267715D01*
X141247786Y-93388028D01*
X141103028Y-93532786D01*
X140982715Y-93698386D01*
X140889781Y-93880776D01*
X140826522Y-94075465D01*
X140794500Y-94277648D01*
X140794500Y-94482351D01*
X140826522Y-94684534D01*
X140889781Y-94879223D01*
X140953691Y-95004653D01*
X140962975Y-95022873D01*
X140982715Y-95061613D01*
X141103028Y-95227213D01*
X141247786Y-95371971D01*
X141379700Y-95467810D01*
X141413390Y-95492287D01*
X141504840Y-95538883D01*
X141506080Y-95539515D01*
X141556876Y-95587490D01*
X141573671Y-95655311D01*
X141551134Y-95721446D01*
X141506080Y-95760485D01*
X141413386Y-95807715D01*
X141247786Y-95928028D01*
X141103028Y-96072786D01*
X140982715Y-96238386D01*
X140889781Y-96420776D01*
X140826522Y-96615465D01*
X140798405Y-96792993D01*
X140794500Y-96817648D01*
X140794500Y-97022352D01*
X140798878Y-97049995D01*
X140826522Y-97224534D01*
X140889781Y-97419223D01*
X140982715Y-97601613D01*
X141103028Y-97767213D01*
X141247786Y-97911971D01*
X141369034Y-98000061D01*
X141413390Y-98032287D01*
X141529607Y-98091503D01*
X141595776Y-98125218D01*
X141595778Y-98125218D01*
X141595781Y-98125220D01*
X141700137Y-98159127D01*
X141790465Y-98188477D01*
X141891557Y-98204488D01*
X141992648Y-98220500D01*
X141992649Y-98220500D01*
X142997351Y-98220500D01*
X142997352Y-98220500D01*
X143199534Y-98188477D01*
X143394219Y-98125220D01*
X143576610Y-98032287D01*
X143669590Y-97964732D01*
X143742213Y-97911971D01*
X143742215Y-97911968D01*
X143742219Y-97911966D01*
X143886966Y-97767219D01*
X143886968Y-97767215D01*
X143886971Y-97767213D01*
X143939732Y-97694590D01*
X144007287Y-97601610D01*
X144100220Y-97419219D01*
X144163477Y-97224534D01*
X144195500Y-97022352D01*
X144195500Y-96817648D01*
X144171323Y-96665000D01*
X144163477Y-96615465D01*
X144103081Y-96429586D01*
X144100220Y-96420781D01*
X144100218Y-96420778D01*
X144100218Y-96420776D01*
X144066503Y-96354607D01*
X144007287Y-96238390D01*
X143991967Y-96217303D01*
X143980962Y-96202155D01*
X147550000Y-96202155D01*
X147550000Y-96850000D01*
X148466988Y-96850000D01*
X148434075Y-96907007D01*
X148400000Y-97034174D01*
X148400000Y-97165826D01*
X148434075Y-97292993D01*
X148466988Y-97350000D01*
X147550000Y-97350000D01*
X147550000Y-97997844D01*
X147556401Y-98057372D01*
X147556403Y-98057379D01*
X147606645Y-98192086D01*
X147606649Y-98192093D01*
X147692809Y-98307187D01*
X147692812Y-98307190D01*
X147807906Y-98393350D01*
X147807913Y-98393354D01*
X147942620Y-98443596D01*
X147942627Y-98443598D01*
X148002155Y-98449999D01*
X148002172Y-98450000D01*
X148650000Y-98450000D01*
X148650000Y-97533012D01*
X148707007Y-97565925D01*
X148834174Y-97600000D01*
X148965826Y-97600000D01*
X149092993Y-97565925D01*
X149150000Y-97533012D01*
X149150000Y-98450000D01*
X149797828Y-98450000D01*
X149797844Y-98449999D01*
X149857372Y-98443598D01*
X149857379Y-98443596D01*
X149992086Y-98393354D01*
X149992093Y-98393350D01*
X150107187Y-98307190D01*
X150107190Y-98307187D01*
X150193350Y-98192093D01*
X150193354Y-98192086D01*
X150242422Y-98060529D01*
X150284293Y-98004595D01*
X150349757Y-97980178D01*
X150418030Y-97995030D01*
X150446285Y-98016181D01*
X150568599Y-98138495D01*
X150639981Y-98188477D01*
X150762165Y-98274032D01*
X150762167Y-98274033D01*
X150762170Y-98274035D01*
X150976337Y-98373903D01*
X151204592Y-98435063D01*
X151375319Y-98450000D01*
X151439999Y-98455659D01*
X151440000Y-98455659D01*
X151440001Y-98455659D01*
X151504681Y-98450000D01*
X151675408Y-98435063D01*
X151903663Y-98373903D01*
X152117830Y-98274035D01*
X152311401Y-98138495D01*
X152478495Y-97971401D01*
X152614035Y-97777830D01*
X152713903Y-97563663D01*
X152775063Y-97335408D01*
X152795659Y-97100000D01*
X152775063Y-96864592D01*
X152713903Y-96636337D01*
X152614035Y-96422171D01*
X152613059Y-96420776D01*
X152478494Y-96228597D01*
X152311402Y-96061506D01*
X152311395Y-96061501D01*
X152117834Y-95925967D01*
X152117830Y-95925965D01*
X152046727Y-95892809D01*
X151903663Y-95826097D01*
X151903659Y-95826096D01*
X151903655Y-95826094D01*
X151675413Y-95764938D01*
X151675403Y-95764936D01*
X151440001Y-95744341D01*
X151439999Y-95744341D01*
X151204596Y-95764936D01*
X151204586Y-95764938D01*
X150976344Y-95826094D01*
X150976335Y-95826098D01*
X150762171Y-95925964D01*
X150762169Y-95925965D01*
X150568600Y-96061503D01*
X150446284Y-96183819D01*
X150384961Y-96217303D01*
X150315269Y-96212319D01*
X150259336Y-96170447D01*
X150242421Y-96139470D01*
X150193354Y-96007913D01*
X150193350Y-96007906D01*
X150107190Y-95892812D01*
X150107187Y-95892809D01*
X149992093Y-95806649D01*
X149992086Y-95806645D01*
X149857379Y-95756403D01*
X149857372Y-95756401D01*
X149797844Y-95750000D01*
X149150000Y-95750000D01*
X149150000Y-96666988D01*
X149092993Y-96634075D01*
X148965826Y-96600000D01*
X148834174Y-96600000D01*
X148707007Y-96634075D01*
X148650000Y-96666988D01*
X148650000Y-95750000D01*
X148002155Y-95750000D01*
X147942627Y-95756401D01*
X147942620Y-95756403D01*
X147807913Y-95806645D01*
X147807906Y-95806649D01*
X147692812Y-95892809D01*
X147692809Y-95892812D01*
X147606649Y-96007906D01*
X147606645Y-96007913D01*
X147556403Y-96142620D01*
X147556401Y-96142627D01*
X147550000Y-96202155D01*
X143980962Y-96202155D01*
X143886971Y-96072786D01*
X143742213Y-95928028D01*
X143576614Y-95807715D01*
X143570006Y-95804348D01*
X143483917Y-95760483D01*
X143433123Y-95712511D01*
X143416328Y-95644690D01*
X143438865Y-95578555D01*
X143483917Y-95539516D01*
X143576610Y-95492287D01*
X143610300Y-95467810D01*
X143742213Y-95371971D01*
X143742215Y-95371968D01*
X143742219Y-95371966D01*
X143886966Y-95227219D01*
X143886968Y-95227215D01*
X143886971Y-95227213D01*
X143939732Y-95154590D01*
X144007287Y-95061610D01*
X144100220Y-94879219D01*
X144163477Y-94684534D01*
X144195500Y-94482352D01*
X144195500Y-94277648D01*
X144163477Y-94075466D01*
X144100220Y-93880781D01*
X144100218Y-93880778D01*
X144100218Y-93880776D01*
X144048363Y-93779007D01*
X144007287Y-93698390D01*
X143983023Y-93664993D01*
X143886971Y-93532786D01*
X143742213Y-93388028D01*
X143576614Y-93267715D01*
X143570006Y-93264348D01*
X143483917Y-93220483D01*
X143433123Y-93172511D01*
X143416328Y-93104690D01*
X143438865Y-93038555D01*
X143483917Y-92999516D01*
X143576610Y-92952287D01*
X143624557Y-92917452D01*
X143742213Y-92831971D01*
X143742215Y-92831968D01*
X143742219Y-92831966D01*
X143886966Y-92687219D01*
X143886968Y-92687215D01*
X143886971Y-92687213D01*
X143949665Y-92600920D01*
X144007287Y-92521610D01*
X144100220Y-92339219D01*
X144163477Y-92144534D01*
X144195500Y-91942352D01*
X144195500Y-91737648D01*
X144172563Y-91592830D01*
X144163477Y-91535465D01*
X144120470Y-91403105D01*
X144100220Y-91340781D01*
X144100218Y-91340778D01*
X144100218Y-91340776D01*
X144011884Y-91167413D01*
X144007287Y-91158390D01*
X143999556Y-91147749D01*
X143886971Y-90992786D01*
X143809184Y-90914999D01*
X147544341Y-90914999D01*
X147544341Y-90915000D01*
X147564936Y-91150403D01*
X147564938Y-91150413D01*
X147626094Y-91378655D01*
X147626096Y-91378659D01*
X147626097Y-91378663D01*
X147634025Y-91395664D01*
X147725965Y-91592830D01*
X147725967Y-91592834D01*
X147861501Y-91786395D01*
X147861506Y-91786402D01*
X148028597Y-91953493D01*
X148028603Y-91953498D01*
X148214158Y-92083425D01*
X148257783Y-92138002D01*
X148264977Y-92207500D01*
X148233454Y-92269855D01*
X148214158Y-92286575D01*
X148028597Y-92416505D01*
X147861505Y-92583597D01*
X147725965Y-92777169D01*
X147725964Y-92777171D01*
X147626098Y-92991335D01*
X147626094Y-92991344D01*
X147564938Y-93219586D01*
X147564936Y-93219596D01*
X147544341Y-93454999D01*
X147544341Y-93455000D01*
X147564936Y-93690403D01*
X147564938Y-93690413D01*
X147626094Y-93918655D01*
X147626096Y-93918659D01*
X147626097Y-93918663D01*
X147650969Y-93972000D01*
X147725965Y-94132830D01*
X147725967Y-94132834D01*
X147827368Y-94277648D01*
X147861505Y-94326401D01*
X148028599Y-94493495D01*
X148052321Y-94510105D01*
X148222165Y-94629032D01*
X148222167Y-94629033D01*
X148222170Y-94629035D01*
X148436337Y-94728903D01*
X148664592Y-94790063D01*
X148852918Y-94806539D01*
X148899999Y-94810659D01*
X148900000Y-94810659D01*
X148900001Y-94810659D01*
X148939234Y-94807226D01*
X149135408Y-94790063D01*
X149363663Y-94728903D01*
X149577830Y-94629035D01*
X149771401Y-94493495D01*
X149938495Y-94326401D01*
X150074035Y-94132830D01*
X150173903Y-93918663D01*
X150235063Y-93690408D01*
X150255659Y-93455000D01*
X150235063Y-93219592D01*
X150173903Y-92991337D01*
X150074035Y-92777171D01*
X150072166Y-92774501D01*
X149938494Y-92583597D01*
X149771402Y-92416506D01*
X149771396Y-92416501D01*
X149585842Y-92286575D01*
X149542217Y-92231998D01*
X149535023Y-92162500D01*
X149566546Y-92100145D01*
X149585842Y-92083425D01*
X149747118Y-91970498D01*
X149771401Y-91953495D01*
X149938495Y-91786401D01*
X150074035Y-91592830D01*
X150173903Y-91378663D01*
X150235063Y-91150408D01*
X150254172Y-90931999D01*
X151247541Y-90931999D01*
X151247541Y-90932000D01*
X151268136Y-91167403D01*
X151268138Y-91167413D01*
X151329294Y-91395655D01*
X151329296Y-91395659D01*
X151329297Y-91395663D01*
X151395950Y-91538600D01*
X151429165Y-91609830D01*
X151429167Y-91609834D01*
X151518664Y-91737648D01*
X151564705Y-91803401D01*
X151731799Y-91970495D01*
X151916958Y-92100145D01*
X151917794Y-92100730D01*
X151961419Y-92155307D01*
X151968613Y-92224805D01*
X151937090Y-92287160D01*
X151917795Y-92303880D01*
X151732122Y-92433890D01*
X151732120Y-92433891D01*
X151565091Y-92600920D01*
X151565086Y-92600926D01*
X151429600Y-92794420D01*
X151429599Y-92794422D01*
X151329770Y-93008507D01*
X151329767Y-93008513D01*
X151272564Y-93221999D01*
X151272564Y-93222000D01*
X152170188Y-93222000D01*
X152137275Y-93279007D01*
X152103200Y-93406174D01*
X152103200Y-93537826D01*
X152137275Y-93664993D01*
X152170188Y-93722000D01*
X151272564Y-93722000D01*
X151329767Y-93935486D01*
X151329770Y-93935492D01*
X151429599Y-94149578D01*
X151565094Y-94343082D01*
X151732117Y-94510105D01*
X151925621Y-94645600D01*
X152139707Y-94745429D01*
X152139716Y-94745433D01*
X152353200Y-94802634D01*
X152353200Y-93905012D01*
X152410207Y-93937925D01*
X152537374Y-93972000D01*
X152669026Y-93972000D01*
X152796193Y-93937925D01*
X152853200Y-93905012D01*
X152853200Y-94802633D01*
X153066683Y-94745433D01*
X153066692Y-94745429D01*
X153280778Y-94645600D01*
X153474282Y-94510105D01*
X153641305Y-94343082D01*
X153776800Y-94149578D01*
X153876629Y-93935492D01*
X153876632Y-93935486D01*
X153933836Y-93722000D01*
X153036212Y-93722000D01*
X153069125Y-93664993D01*
X153103200Y-93537826D01*
X153103200Y-93406174D01*
X153069125Y-93279007D01*
X153036212Y-93222000D01*
X153933836Y-93222000D01*
X153933835Y-93221999D01*
X153876632Y-93008513D01*
X153876629Y-93008507D01*
X153776800Y-92794422D01*
X153776799Y-92794420D01*
X153641313Y-92600926D01*
X153641308Y-92600920D01*
X153474278Y-92433890D01*
X153288605Y-92303879D01*
X153244980Y-92249302D01*
X153237788Y-92179804D01*
X153269310Y-92117449D01*
X153288606Y-92100730D01*
X153474601Y-91970495D01*
X153641695Y-91803401D01*
X153777235Y-91609830D01*
X153877103Y-91395663D01*
X153938263Y-91167408D01*
X153958859Y-90932000D01*
X153938263Y-90696592D01*
X153877103Y-90468337D01*
X153777235Y-90254171D01*
X153765330Y-90237169D01*
X153641696Y-90060600D01*
X153624695Y-90043599D01*
X153519767Y-89938671D01*
X153486284Y-89877351D01*
X153491268Y-89807659D01*
X153533139Y-89751725D01*
X153564115Y-89734810D01*
X153695531Y-89685796D01*
X153810746Y-89599546D01*
X153896996Y-89484331D01*
X153947291Y-89349483D01*
X153953700Y-89289873D01*
X153953699Y-87494128D01*
X153947291Y-87434517D01*
X153940950Y-87417517D01*
X153896997Y-87299671D01*
X153896993Y-87299664D01*
X153810747Y-87184455D01*
X153810744Y-87184452D01*
X153695535Y-87098206D01*
X153695528Y-87098202D01*
X153560682Y-87047908D01*
X153560683Y-87047908D01*
X153501083Y-87041501D01*
X153501081Y-87041500D01*
X153501073Y-87041500D01*
X153501064Y-87041500D01*
X151705329Y-87041500D01*
X151705323Y-87041501D01*
X151645716Y-87047908D01*
X151510871Y-87098202D01*
X151510864Y-87098206D01*
X151395655Y-87184452D01*
X151395652Y-87184455D01*
X151309406Y-87299664D01*
X151309402Y-87299671D01*
X151259108Y-87434517D01*
X151252701Y-87494116D01*
X151252701Y-87494123D01*
X151252700Y-87494135D01*
X151252700Y-89289870D01*
X151252701Y-89289876D01*
X151259108Y-89349483D01*
X151309402Y-89484328D01*
X151309406Y-89484335D01*
X151395652Y-89599544D01*
X151395655Y-89599547D01*
X151510864Y-89685793D01*
X151510871Y-89685797D01*
X151642281Y-89734810D01*
X151698215Y-89776681D01*
X151722632Y-89842145D01*
X151707780Y-89910418D01*
X151686630Y-89938673D01*
X151564703Y-90060600D01*
X151429165Y-90254169D01*
X151429164Y-90254171D01*
X151388053Y-90342335D01*
X151334329Y-90457547D01*
X151329298Y-90468335D01*
X151329294Y-90468344D01*
X151268138Y-90696586D01*
X151268136Y-90696596D01*
X151247541Y-90931999D01*
X150254172Y-90931999D01*
X150255659Y-90915000D01*
X150235063Y-90679592D01*
X150173903Y-90451337D01*
X150074035Y-90237171D01*
X150053247Y-90207483D01*
X149938496Y-90043600D01*
X149938495Y-90043599D01*
X149816567Y-89921671D01*
X149783084Y-89860351D01*
X149788068Y-89790659D01*
X149829939Y-89734725D01*
X149860915Y-89717810D01*
X149992331Y-89668796D01*
X150107546Y-89582546D01*
X150193796Y-89467331D01*
X150244091Y-89332483D01*
X150250500Y-89272873D01*
X150250499Y-87477128D01*
X150244091Y-87417517D01*
X150200137Y-87299671D01*
X150193797Y-87282671D01*
X150193793Y-87282664D01*
X150107547Y-87167455D01*
X150107544Y-87167452D01*
X149992335Y-87081206D01*
X149992328Y-87081202D01*
X149857482Y-87030908D01*
X149857483Y-87030908D01*
X149797883Y-87024501D01*
X149797881Y-87024500D01*
X149797873Y-87024500D01*
X149797864Y-87024500D01*
X148002129Y-87024500D01*
X148002123Y-87024501D01*
X147942516Y-87030908D01*
X147807671Y-87081202D01*
X147807664Y-87081206D01*
X147692455Y-87167452D01*
X147692452Y-87167455D01*
X147606206Y-87282664D01*
X147606202Y-87282671D01*
X147555908Y-87417517D01*
X147549501Y-87477116D01*
X147549501Y-87477123D01*
X147549500Y-87477135D01*
X147549500Y-89272870D01*
X147549501Y-89272876D01*
X147555908Y-89332483D01*
X147606202Y-89467328D01*
X147606206Y-89467335D01*
X147692452Y-89582544D01*
X147692455Y-89582547D01*
X147807664Y-89668793D01*
X147807671Y-89668797D01*
X147939081Y-89717810D01*
X147995015Y-89759681D01*
X148019432Y-89825145D01*
X148004580Y-89893418D01*
X147983430Y-89921673D01*
X147861503Y-90043600D01*
X147725965Y-90237169D01*
X147725964Y-90237171D01*
X147626098Y-90451335D01*
X147626094Y-90451344D01*
X147564938Y-90679586D01*
X147564936Y-90679596D01*
X147544341Y-90914999D01*
X143809184Y-90914999D01*
X143742213Y-90848028D01*
X143576614Y-90727715D01*
X143570006Y-90724348D01*
X143483917Y-90680483D01*
X143433123Y-90632511D01*
X143416328Y-90564690D01*
X143438865Y-90498555D01*
X143483917Y-90459516D01*
X143576610Y-90412287D01*
X143597770Y-90396913D01*
X143742213Y-90291971D01*
X143742215Y-90291968D01*
X143742219Y-90291966D01*
X143886966Y-90147219D01*
X143886968Y-90147215D01*
X143886971Y-90147213D01*
X143949898Y-90060600D01*
X144007287Y-89981610D01*
X144100220Y-89799219D01*
X144163477Y-89604534D01*
X144195500Y-89402352D01*
X144195500Y-89197648D01*
X144163477Y-88995466D01*
X144100220Y-88800781D01*
X144100218Y-88800778D01*
X144100218Y-88800776D01*
X144060519Y-88722864D01*
X144007287Y-88618390D01*
X143999556Y-88607749D01*
X143886971Y-88452786D01*
X143742213Y-88308028D01*
X143576613Y-88187715D01*
X143576612Y-88187714D01*
X143576610Y-88187713D01*
X143519653Y-88158691D01*
X143394223Y-88094781D01*
X143199534Y-88031522D01*
X143024995Y-88003878D01*
X142997352Y-87999500D01*
X141992648Y-87999500D01*
X141968329Y-88003351D01*
X141790465Y-88031522D01*
X141595776Y-88094781D01*
X141413386Y-88187715D01*
X141247786Y-88308028D01*
X141103028Y-88452786D01*
X140982715Y-88618386D01*
X140889781Y-88800776D01*
X140826522Y-88995465D01*
X140794500Y-89197648D01*
X136575499Y-89197648D01*
X136575499Y-88452128D01*
X136569091Y-88392517D01*
X136518796Y-88257669D01*
X136518795Y-88257668D01*
X136518793Y-88257664D01*
X136432547Y-88142455D01*
X136432544Y-88142452D01*
X136317335Y-88056206D01*
X136317328Y-88056202D01*
X136182482Y-88005908D01*
X136182483Y-88005908D01*
X136122883Y-87999501D01*
X136122881Y-87999500D01*
X136122873Y-87999500D01*
X136122864Y-87999500D01*
X133627129Y-87999500D01*
X133627123Y-87999501D01*
X133567516Y-88005908D01*
X133432671Y-88056202D01*
X133432664Y-88056206D01*
X133317455Y-88142452D01*
X133317452Y-88142455D01*
X133231206Y-88257664D01*
X133231202Y-88257671D01*
X133180908Y-88392517D01*
X133174501Y-88452116D01*
X133174501Y-88452123D01*
X133174500Y-88452135D01*
X132850500Y-88452135D01*
X132850499Y-86927128D01*
X132844091Y-86867517D01*
X132841629Y-86860917D01*
X132793797Y-86732671D01*
X132793793Y-86732664D01*
X132707547Y-86617455D01*
X132707544Y-86617452D01*
X132592335Y-86531206D01*
X132592328Y-86531202D01*
X132457482Y-86480908D01*
X132457483Y-86480908D01*
X132397883Y-86474501D01*
X132397881Y-86474500D01*
X132397873Y-86474500D01*
X132397864Y-86474500D01*
X130602129Y-86474500D01*
X130602123Y-86474501D01*
X130542516Y-86480908D01*
X130407671Y-86531202D01*
X130407664Y-86531206D01*
X130292455Y-86617452D01*
X130292452Y-86617455D01*
X130206206Y-86732664D01*
X130206202Y-86732671D01*
X130155908Y-86867517D01*
X130149501Y-86927116D01*
X130149501Y-86927123D01*
X130149500Y-86927135D01*
X125000500Y-86927135D01*
X125000500Y-85002135D01*
X137269500Y-85002135D01*
X137269500Y-86797870D01*
X137269501Y-86797876D01*
X137275908Y-86857483D01*
X137326202Y-86992328D01*
X137326206Y-86992335D01*
X137412452Y-87107544D01*
X137412455Y-87107547D01*
X137527664Y-87193793D01*
X137527671Y-87193797D01*
X137662517Y-87244091D01*
X137662516Y-87244091D01*
X137669444Y-87244835D01*
X137722127Y-87250500D01*
X139517872Y-87250499D01*
X139577483Y-87244091D01*
X139712331Y-87193796D01*
X139827546Y-87107546D01*
X139913796Y-86992331D01*
X139962810Y-86860916D01*
X140004681Y-86804984D01*
X140070145Y-86780566D01*
X140138418Y-86795417D01*
X140166673Y-86816569D01*
X140288599Y-86938495D01*
X140385384Y-87006265D01*
X140482165Y-87074032D01*
X140482167Y-87074033D01*
X140482170Y-87074035D01*
X140696337Y-87173903D01*
X140924592Y-87235063D01*
X141101034Y-87250500D01*
X141159999Y-87255659D01*
X141160000Y-87255659D01*
X141160001Y-87255659D01*
X141218966Y-87250500D01*
X141395408Y-87235063D01*
X141623663Y-87173903D01*
X141837830Y-87074035D01*
X142031401Y-86938495D01*
X142198495Y-86771401D01*
X142328425Y-86585842D01*
X142383002Y-86542217D01*
X142452500Y-86535023D01*
X142514855Y-86566546D01*
X142531575Y-86585842D01*
X142661500Y-86771395D01*
X142661505Y-86771401D01*
X142828599Y-86938495D01*
X142925384Y-87006265D01*
X143022165Y-87074032D01*
X143022167Y-87074033D01*
X143022170Y-87074035D01*
X143236337Y-87173903D01*
X143464592Y-87235063D01*
X143641034Y-87250500D01*
X143699999Y-87255659D01*
X143700000Y-87255659D01*
X143700001Y-87255659D01*
X143758966Y-87250500D01*
X143935408Y-87235063D01*
X144163663Y-87173903D01*
X144377830Y-87074035D01*
X144571401Y-86938495D01*
X144738495Y-86771401D01*
X144874035Y-86577830D01*
X144973903Y-86363663D01*
X145035063Y-86135408D01*
X145055659Y-85900000D01*
X145035063Y-85664592D01*
X144973903Y-85436337D01*
X144874035Y-85222171D01*
X144868425Y-85214158D01*
X144738494Y-85028597D01*
X144571402Y-84861506D01*
X144571395Y-84861501D01*
X144377834Y-84725967D01*
X144377830Y-84725965D01*
X144377828Y-84725964D01*
X144163663Y-84626097D01*
X144163659Y-84626096D01*
X144163655Y-84626094D01*
X143935413Y-84564938D01*
X143935403Y-84564936D01*
X143700001Y-84544341D01*
X143699999Y-84544341D01*
X143464596Y-84564936D01*
X143464586Y-84564938D01*
X143236344Y-84626094D01*
X143236335Y-84626098D01*
X143022171Y-84725964D01*
X143022169Y-84725965D01*
X142828597Y-84861505D01*
X142661505Y-85028597D01*
X142531575Y-85214158D01*
X142476998Y-85257783D01*
X142407500Y-85264977D01*
X142345145Y-85233454D01*
X142328425Y-85214158D01*
X142198494Y-85028597D01*
X142031402Y-84861506D01*
X142031395Y-84861501D01*
X141837834Y-84725967D01*
X141837830Y-84725965D01*
X141837828Y-84725964D01*
X141623663Y-84626097D01*
X141623659Y-84626096D01*
X141623655Y-84626094D01*
X141395413Y-84564938D01*
X141395403Y-84564936D01*
X141160001Y-84544341D01*
X141159999Y-84544341D01*
X140924596Y-84564936D01*
X140924586Y-84564938D01*
X140696344Y-84626094D01*
X140696335Y-84626098D01*
X140482171Y-84725964D01*
X140482169Y-84725965D01*
X140288600Y-84861503D01*
X140166673Y-84983430D01*
X140105350Y-85016914D01*
X140035658Y-85011930D01*
X139979725Y-84970058D01*
X139962810Y-84939081D01*
X139913797Y-84807671D01*
X139913793Y-84807664D01*
X139827547Y-84692455D01*
X139827544Y-84692452D01*
X139712335Y-84606206D01*
X139712328Y-84606202D01*
X139577482Y-84555908D01*
X139577483Y-84555908D01*
X139517883Y-84549501D01*
X139517881Y-84549500D01*
X139517873Y-84549500D01*
X139517864Y-84549500D01*
X137722129Y-84549500D01*
X137722123Y-84549501D01*
X137662516Y-84555908D01*
X137527671Y-84606202D01*
X137527664Y-84606206D01*
X137412455Y-84692452D01*
X137412452Y-84692455D01*
X137326206Y-84807664D01*
X137326202Y-84807671D01*
X137275908Y-84942517D01*
X137269501Y-85002116D01*
X137269500Y-85002135D01*
X125000500Y-85002135D01*
X125000500Y-82218100D01*
X125020185Y-82151061D01*
X125072989Y-82105306D01*
X125124500Y-82094100D01*
X155275500Y-82094100D01*
X155342539Y-82113785D01*
G37*
%TD.AperFunction*%
%TD*%
M02*
