%TF.GenerationSoftware,KiCad,Pcbnew,8.0.6*%
%TF.CreationDate,2024-12-31T17:28:58-06:00*%
%TF.ProjectId,OpAmpDistortion,4f70416d-7044-4697-9374-6f7274696f6e,rev?*%
%TF.SameCoordinates,Original*%
%TF.FileFunction,Copper,L1,Top*%
%TF.FilePolarity,Positive*%
%FSLAX46Y46*%
G04 Gerber Fmt 4.6, Leading zero omitted, Abs format (unit mm)*
G04 Created by KiCad (PCBNEW 8.0.6) date 2024-12-31 17:28:58*
%MOMM*%
%LPD*%
G01*
G04 APERTURE LIST*
G04 Aperture macros list*
%AMRoundRect*
0 Rectangle with rounded corners*
0 $1 Rounding radius*
0 $2 $3 $4 $5 $6 $7 $8 $9 X,Y pos of 4 corners*
0 Add a 4 corners polygon primitive as box body*
4,1,4,$2,$3,$4,$5,$6,$7,$8,$9,$2,$3,0*
0 Add four circle primitives for the rounded corners*
1,1,$1+$1,$2,$3*
1,1,$1+$1,$4,$5*
1,1,$1+$1,$6,$7*
1,1,$1+$1,$8,$9*
0 Add four rect primitives between the rounded corners*
20,1,$1+$1,$2,$3,$4,$5,0*
20,1,$1+$1,$4,$5,$6,$7,0*
20,1,$1+$1,$6,$7,$8,$9,0*
20,1,$1+$1,$8,$9,$2,$3,0*%
G04 Aperture macros list end*
%TA.AperFunction,ComponentPad*%
%ADD10R,1.700000X1.700000*%
%TD*%
%TA.AperFunction,ComponentPad*%
%ADD11O,1.700000X1.700000*%
%TD*%
%TA.AperFunction,SMDPad,CuDef*%
%ADD12RoundRect,0.237500X0.300000X0.237500X-0.300000X0.237500X-0.300000X-0.237500X0.300000X-0.237500X0*%
%TD*%
%TA.AperFunction,SMDPad,CuDef*%
%ADD13RoundRect,0.237500X0.287500X0.237500X-0.287500X0.237500X-0.287500X-0.237500X0.287500X-0.237500X0*%
%TD*%
%TA.AperFunction,SMDPad,CuDef*%
%ADD14RoundRect,0.237500X-0.237500X0.300000X-0.237500X-0.300000X0.237500X-0.300000X0.237500X0.300000X0*%
%TD*%
%TA.AperFunction,SMDPad,CuDef*%
%ADD15RoundRect,0.237500X0.237500X-0.250000X0.237500X0.250000X-0.237500X0.250000X-0.237500X-0.250000X0*%
%TD*%
%TA.AperFunction,ComponentPad*%
%ADD16R,2.400000X1.600000*%
%TD*%
%TA.AperFunction,ComponentPad*%
%ADD17O,2.400000X1.600000*%
%TD*%
%TA.AperFunction,SMDPad,CuDef*%
%ADD18RoundRect,0.237500X-0.237500X0.250000X-0.237500X-0.250000X0.237500X-0.250000X0.237500X0.250000X0*%
%TD*%
%TA.AperFunction,SMDPad,CuDef*%
%ADD19RoundRect,0.237500X-0.300000X-0.237500X0.300000X-0.237500X0.300000X0.237500X-0.300000X0.237500X0*%
%TD*%
%TA.AperFunction,SMDPad,CuDef*%
%ADD20RoundRect,0.237500X0.237500X-0.300000X0.237500X0.300000X-0.237500X0.300000X-0.237500X-0.300000X0*%
%TD*%
%TA.AperFunction,SMDPad,CuDef*%
%ADD21RoundRect,0.237500X-0.237500X0.287500X-0.237500X-0.287500X0.237500X-0.287500X0.237500X0.287500X0*%
%TD*%
%TA.AperFunction,ViaPad*%
%ADD22C,0.600000*%
%TD*%
%TA.AperFunction,Conductor*%
%ADD23C,0.200000*%
%TD*%
G04 APERTURE END LIST*
D10*
%TO.P,RV1,1,1*%
%TO.N,Net-(R4-Pad2)*%
X148900000Y-88375000D03*
D11*
%TO.P,RV1,2,2*%
X148900000Y-90915000D03*
%TO.P,RV1,3,3*%
%TO.N,Net-(C5-Pad1)*%
X148900000Y-93455000D03*
%TD*%
D12*
%TO.P,C6,1*%
%TO.N,Net-(D1-K)*%
X149662500Y-84300000D03*
%TO.P,C6,2*%
%TO.N,GND*%
X147937500Y-84300000D03*
%TD*%
D13*
%TO.P,D1,1,K*%
%TO.N,Net-(D1-K)*%
X149675000Y-85800000D03*
%TO.P,D1,2,A*%
%TO.N,GND*%
X147925000Y-85800000D03*
%TD*%
D14*
%TO.P,C4,1*%
%TO.N,GND*%
X146300000Y-95337500D03*
%TO.P,C4,2*%
%TO.N,Net-(C4-Pad2)*%
X146300000Y-97062500D03*
%TD*%
D10*
%TO.P,RV3,1,1*%
%TO.N,Net-(R5-Pad2)*%
X138620000Y-85900000D03*
D11*
%TO.P,RV3,2,2*%
X141160000Y-85900000D03*
%TO.P,RV3,3,3*%
%TO.N,Net-(D1-K)*%
X143700000Y-85900000D03*
%TD*%
D10*
%TO.P,J1,1,Pin_1*%
%TO.N,Net-(J1-Pin_1)*%
X131500000Y-87825000D03*
D11*
%TO.P,J1,2,Pin_2*%
%TO.N,GND*%
X131500000Y-90365000D03*
%TD*%
D15*
%TO.P,R4,1*%
%TO.N,Net-(U1B--)*%
X144800000Y-93712500D03*
%TO.P,R4,2*%
%TO.N,Net-(R4-Pad2)*%
X144800000Y-91887500D03*
%TD*%
D16*
%TO.P,U1,1*%
%TO.N,Net-(U1A--)*%
X134875000Y-89300000D03*
D17*
%TO.P,U1,2,-*%
X134875000Y-91840000D03*
%TO.P,U1,3,+*%
%TO.N,Net-(U1A-+)*%
X134875000Y-94380000D03*
%TO.P,U1,4,V-*%
%TO.N,Net-(BT1--)*%
X134875000Y-96920000D03*
%TO.P,U1,5,+*%
%TO.N,Net-(U1A--)*%
X142495000Y-96920000D03*
%TO.P,U1,6,-*%
%TO.N,Net-(U1B--)*%
X142495000Y-94380000D03*
%TO.P,U1,7*%
%TO.N,Net-(C5-Pad1)*%
X142495000Y-91840000D03*
%TO.P,U1,8,V+*%
%TO.N,Net-(BT1-+)*%
X142495000Y-89300000D03*
%TD*%
D15*
%TO.P,R3,1*%
%TO.N,Net-(C4-Pad2)*%
X144800000Y-97112500D03*
%TO.P,R3,2*%
%TO.N,Net-(U1B--)*%
X144800000Y-95287500D03*
%TD*%
D10*
%TO.P,RV2,1,1*%
%TO.N,Net-(D1-K)*%
X152603200Y-88392000D03*
D11*
%TO.P,RV2,2,2*%
%TO.N,Net-(J2-Pin_2)*%
X152603200Y-90932000D03*
%TO.P,RV2,3,3*%
%TO.N,GND*%
X152603200Y-93472000D03*
%TD*%
D18*
%TO.P,R1,1*%
%TO.N,Net-(BT1-+)*%
X128900000Y-91387500D03*
%TO.P,R1,2*%
%TO.N,Net-(U1A-+)*%
X128900000Y-93212500D03*
%TD*%
D19*
%TO.P,C3,1*%
%TO.N,Net-(J1-Pin_1)*%
X134237500Y-87000000D03*
%TO.P,C3,2*%
%TO.N,Net-(U1A--)*%
X135962500Y-87000000D03*
%TD*%
D14*
%TO.P,C2,1*%
%TO.N,Net-(U1A-+)*%
X128900000Y-94737500D03*
%TO.P,C2,2*%
%TO.N,Net-(BT1--)*%
X128900000Y-96462500D03*
%TD*%
D20*
%TO.P,C5,1*%
%TO.N,Net-(C5-Pad1)*%
X144800000Y-90262500D03*
%TO.P,C5,2*%
%TO.N,Net-(C5-Pad2)*%
X144800000Y-88537500D03*
%TD*%
D10*
%TO.P,J2,1,Pin_1*%
%TO.N,GND*%
X148900000Y-97100000D03*
D11*
%TO.P,J2,2,Pin_2*%
%TO.N,Net-(J2-Pin_2)*%
X151440000Y-97100000D03*
%TD*%
D15*
%TO.P,R5,1*%
%TO.N,Net-(C5-Pad2)*%
X146300000Y-90312500D03*
%TO.P,R5,2*%
%TO.N,Net-(R5-Pad2)*%
X146300000Y-88487500D03*
%TD*%
D10*
%TO.P,BT1,1,+*%
%TO.N,Net-(BT1-+)*%
X131500000Y-94125000D03*
D11*
%TO.P,BT1,2,-*%
%TO.N,Net-(BT1--)*%
X131500000Y-96665000D03*
%TD*%
D14*
%TO.P,C1,1*%
%TO.N,Net-(BT1-+)*%
X127400000Y-91437500D03*
%TO.P,C1,2*%
%TO.N,Net-(BT1--)*%
X127400000Y-93162500D03*
%TD*%
D21*
%TO.P,D2,1,K*%
%TO.N,GND*%
X146300000Y-85125000D03*
%TO.P,D2,2,A*%
%TO.N,Net-(D1-K)*%
X146300000Y-86875000D03*
%TD*%
D18*
%TO.P,R2,1*%
%TO.N,Net-(U1A-+)*%
X127400000Y-94687500D03*
%TO.P,R2,2*%
%TO.N,Net-(BT1--)*%
X127400000Y-96512500D03*
%TD*%
D22*
%TO.N,GND*%
X146300000Y-94050000D03*
X151079200Y-95199200D03*
X147700000Y-96200000D03*
X129150000Y-89650000D03*
X140000000Y-97500000D03*
X137000000Y-97500000D03*
X139000000Y-97500000D03*
X138000000Y-96500000D03*
X146400000Y-83800000D03*
X149800000Y-87000000D03*
X145049265Y-84149265D03*
X137000000Y-96500000D03*
X139000000Y-95500000D03*
X138000000Y-95500000D03*
X138000000Y-97500000D03*
X150774400Y-92659200D03*
X137000000Y-95500000D03*
X139000000Y-96500000D03*
X140000000Y-95500000D03*
X140000000Y-96500000D03*
%TD*%
D23*
%TO.N,Net-(BT1--)*%
X134875000Y-96920000D02*
X131755000Y-96920000D01*
X127400000Y-93162500D02*
X126625000Y-93937500D01*
X126625000Y-95737500D02*
X127400000Y-96512500D01*
X128850000Y-96512500D02*
X128900000Y-96462500D01*
X131297500Y-96462500D02*
X128900000Y-96462500D01*
X131755000Y-96920000D02*
X131500000Y-96665000D01*
X128900000Y-96462500D02*
X127450000Y-96462500D01*
X126625000Y-93937500D02*
X126625000Y-95737500D01*
X131500000Y-96665000D02*
X131297500Y-96462500D01*
X127450000Y-96462500D02*
X127400000Y-96512500D01*
%TO.N,Net-(BT1-+)*%
X128900000Y-91387500D02*
X131500000Y-93987500D01*
X131500000Y-93987500D02*
X131500000Y-94125000D01*
X127400000Y-91437500D02*
X128850000Y-91437500D01*
X139720000Y-89300000D02*
X137470000Y-87050000D01*
X131500000Y-93700000D02*
X131500000Y-94125000D01*
X137470000Y-87050000D02*
X137470000Y-86670000D01*
X127450000Y-91387500D02*
X127400000Y-91437500D01*
X142495000Y-89300000D02*
X139720000Y-89300000D01*
X128850000Y-91437500D02*
X128900000Y-91387500D01*
X137470000Y-86670000D02*
X136300000Y-85500000D01*
X136300000Y-85500000D02*
X129300000Y-85500000D01*
X127400000Y-87400000D02*
X127400000Y-91437500D01*
X128900000Y-91387500D02*
X129187500Y-91387500D01*
X129300000Y-85500000D02*
X127400000Y-87400000D01*
%TO.N,Net-(U1A-+)*%
X127400000Y-94687500D02*
X128850000Y-94687500D01*
X128900000Y-94737500D02*
X129437500Y-95275000D01*
X129437500Y-95275000D02*
X133980000Y-95275000D01*
X128850000Y-94687500D02*
X128900000Y-94737500D01*
X128900000Y-94737500D02*
X128900000Y-93212500D01*
X133980000Y-95275000D02*
X134875000Y-94380000D01*
%TO.N,Net-(U1A--)*%
X134875000Y-91840000D02*
X137415000Y-91840000D01*
X137415000Y-91840000D02*
X142495000Y-96920000D01*
X134875000Y-91840000D02*
X134875000Y-89300000D01*
X135962500Y-87000000D02*
X135962500Y-88212500D01*
X135962500Y-88212500D02*
X134875000Y-89300000D01*
%TO.N,Net-(J1-Pin_1)*%
X132325000Y-87000000D02*
X131500000Y-87825000D01*
X134237500Y-87000000D02*
X132325000Y-87000000D01*
%TO.N,Net-(C4-Pad2)*%
X146300000Y-97062500D02*
X144850000Y-97062500D01*
X144850000Y-97062500D02*
X144800000Y-97112500D01*
%TO.N,GND*%
X146900000Y-84300000D02*
X146400000Y-83800000D01*
X147925000Y-85800000D02*
X147750000Y-85800000D01*
X146300000Y-95337500D02*
X146300000Y-94050000D01*
X148900000Y-97100000D02*
X148900000Y-97040000D01*
X149125000Y-87000000D02*
X149800000Y-87000000D01*
X148900000Y-97100000D02*
X148600000Y-97100000D01*
X146025000Y-85125000D02*
X145049265Y-84149265D01*
X147937500Y-84300000D02*
X146900000Y-84300000D01*
X147075000Y-85125000D02*
X146300000Y-85125000D01*
X151587200Y-93472000D02*
X150774400Y-92659200D01*
X147750000Y-85800000D02*
X147075000Y-85125000D01*
X151079200Y-94996000D02*
X151079200Y-95199200D01*
X152603200Y-93472000D02*
X151079200Y-94996000D01*
X147937500Y-84300000D02*
X147937500Y-85787500D01*
X147937500Y-85787500D02*
X147925000Y-85800000D01*
X152603200Y-93472000D02*
X151587200Y-93472000D01*
X129865000Y-90365000D02*
X129150000Y-89650000D01*
X148600000Y-97100000D02*
X147700000Y-96200000D01*
X131500000Y-90365000D02*
X129865000Y-90365000D01*
X146300000Y-85125000D02*
X146025000Y-85125000D01*
X147925000Y-85800000D02*
X149125000Y-87000000D01*
%TO.N,Net-(C5-Pad2)*%
X144800000Y-88812500D02*
X146300000Y-90312500D01*
X144800000Y-88537500D02*
X144800000Y-88812500D01*
%TO.N,Net-(C5-Pad1)*%
X146955000Y-93455000D02*
X146300000Y-92800000D01*
X146300000Y-92800000D02*
X143455000Y-92800000D01*
X148900000Y-93455000D02*
X146955000Y-93455000D01*
X142495000Y-91840000D02*
X144072500Y-90262500D01*
X143455000Y-92800000D02*
X142495000Y-91840000D01*
X144072500Y-90262500D02*
X144800000Y-90262500D01*
%TO.N,Net-(D1-K)*%
X149662500Y-84300000D02*
X149662500Y-85787500D01*
X143700000Y-85900000D02*
X144675000Y-86875000D01*
X152603200Y-88392000D02*
X152603200Y-87553200D01*
X149662500Y-84300000D02*
X148572900Y-83210400D01*
X143700000Y-84650000D02*
X143700000Y-85900000D01*
X144675000Y-86875000D02*
X146300000Y-86875000D01*
X146648529Y-83200000D02*
X145150000Y-83200000D01*
X145150000Y-83200000D02*
X143700000Y-84650000D01*
X149662500Y-85787500D02*
X149675000Y-85800000D01*
X149675000Y-85800000D02*
X150850000Y-85800000D01*
X146658929Y-83210400D02*
X146648529Y-83200000D01*
X152603200Y-87553200D02*
X150850000Y-85800000D01*
X148572900Y-83210400D02*
X146658929Y-83210400D01*
%TO.N,Net-(J2-Pin_2)*%
X151440000Y-97100000D02*
X152900000Y-97100000D01*
X153416000Y-90932000D02*
X152603200Y-90932000D01*
X154200000Y-91716000D02*
X153416000Y-90932000D01*
X152900000Y-97100000D02*
X154200000Y-95800000D01*
X154200000Y-95800000D02*
X154200000Y-91716000D01*
%TO.N,Net-(U1B--)*%
X143402500Y-95287500D02*
X142495000Y-94380000D01*
X144800000Y-93712500D02*
X144800000Y-95287500D01*
X144800000Y-95287500D02*
X143402500Y-95287500D01*
%TO.N,Net-(R4-Pad2)*%
X147927500Y-91887500D02*
X144800000Y-91887500D01*
X148900000Y-90915000D02*
X147927500Y-91887500D01*
X148900000Y-90915000D02*
X148900000Y-88375000D01*
%TO.N,Net-(R5-Pad2)*%
X145312500Y-87500000D02*
X142760000Y-87500000D01*
X142760000Y-87500000D02*
X141160000Y-85900000D01*
X138620000Y-85900000D02*
X141160000Y-85900000D01*
X146300000Y-88487500D02*
X145312500Y-87500000D01*
%TD*%
%TA.AperFunction,Conductor*%
%TO.N,GND*%
G36*
X133324622Y-86120185D02*
G01*
X133370377Y-86172989D01*
X133380321Y-86242147D01*
X133357611Y-86294983D01*
X133358452Y-86295502D01*
X133354944Y-86301188D01*
X133354849Y-86301411D01*
X133354659Y-86301650D01*
X133330638Y-86340596D01*
X133278690Y-86387321D01*
X133225099Y-86399500D01*
X132404057Y-86399500D01*
X132245942Y-86399500D01*
X132093215Y-86440423D01*
X132071166Y-86453152D01*
X132062965Y-86457888D01*
X132000966Y-86474500D01*
X130602129Y-86474500D01*
X130602123Y-86474501D01*
X130542516Y-86480908D01*
X130407671Y-86531202D01*
X130407664Y-86531206D01*
X130292455Y-86617452D01*
X130292452Y-86617455D01*
X130206206Y-86732664D01*
X130206202Y-86732671D01*
X130155908Y-86867517D01*
X130149501Y-86927116D01*
X130149500Y-86927135D01*
X130149500Y-88722870D01*
X130149501Y-88722876D01*
X130155908Y-88782483D01*
X130206202Y-88917328D01*
X130206206Y-88917335D01*
X130292452Y-89032544D01*
X130292455Y-89032547D01*
X130407664Y-89118793D01*
X130407671Y-89118797D01*
X130407674Y-89118798D01*
X130539598Y-89168002D01*
X130595531Y-89209873D01*
X130619949Y-89275337D01*
X130605098Y-89343610D01*
X130583947Y-89371865D01*
X130461886Y-89493926D01*
X130326400Y-89687420D01*
X130326399Y-89687422D01*
X130226570Y-89901507D01*
X130226567Y-89901513D01*
X130169364Y-90114999D01*
X130169364Y-90115000D01*
X131066988Y-90115000D01*
X131034075Y-90172007D01*
X131000000Y-90299174D01*
X131000000Y-90430826D01*
X131034075Y-90557993D01*
X131066988Y-90615000D01*
X130169364Y-90615000D01*
X130226567Y-90828486D01*
X130226570Y-90828492D01*
X130326399Y-91042578D01*
X130461894Y-91236082D01*
X130628917Y-91403105D01*
X130822421Y-91538600D01*
X131036507Y-91638429D01*
X131036516Y-91638433D01*
X131250000Y-91695634D01*
X131250000Y-90798012D01*
X131307007Y-90830925D01*
X131434174Y-90865000D01*
X131565826Y-90865000D01*
X131692993Y-90830925D01*
X131750000Y-90798012D01*
X131750000Y-91695633D01*
X131963483Y-91638433D01*
X131963492Y-91638429D01*
X132177578Y-91538600D01*
X132371082Y-91403105D01*
X132538105Y-91236082D01*
X132673600Y-91042578D01*
X132773429Y-90828492D01*
X132773432Y-90828486D01*
X132830636Y-90615000D01*
X131933012Y-90615000D01*
X131965925Y-90557993D01*
X132000000Y-90430826D01*
X132000000Y-90299174D01*
X131965925Y-90172007D01*
X131933012Y-90115000D01*
X132830636Y-90115000D01*
X132830635Y-90114999D01*
X132773432Y-89901513D01*
X132773429Y-89901507D01*
X132673600Y-89687422D01*
X132673599Y-89687420D01*
X132538113Y-89493926D01*
X132538108Y-89493920D01*
X132416053Y-89371865D01*
X132382568Y-89310542D01*
X132387552Y-89240850D01*
X132429424Y-89184917D01*
X132460400Y-89168002D01*
X132592331Y-89118796D01*
X132707546Y-89032546D01*
X132793796Y-88917331D01*
X132844091Y-88782483D01*
X132850500Y-88722873D01*
X132850499Y-87724499D01*
X132870183Y-87657461D01*
X132922987Y-87611706D01*
X132974499Y-87600500D01*
X133225099Y-87600500D01*
X133292138Y-87620185D01*
X133330638Y-87659404D01*
X133354659Y-87698349D01*
X133476650Y-87820340D01*
X133482566Y-87823989D01*
X133529291Y-87875936D01*
X133540514Y-87944899D01*
X133512671Y-88008981D01*
X133460804Y-88045710D01*
X133432669Y-88056203D01*
X133432664Y-88056206D01*
X133317455Y-88142452D01*
X133317452Y-88142455D01*
X133231206Y-88257664D01*
X133231202Y-88257671D01*
X133180908Y-88392517D01*
X133174501Y-88452116D01*
X133174501Y-88452123D01*
X133174500Y-88452135D01*
X133174500Y-90147870D01*
X133174501Y-90147876D01*
X133180908Y-90207483D01*
X133231202Y-90342328D01*
X133231206Y-90342335D01*
X133317452Y-90457544D01*
X133317455Y-90457547D01*
X133432664Y-90543793D01*
X133432671Y-90543797D01*
X133470733Y-90557993D01*
X133567517Y-90594091D01*
X133604441Y-90598060D01*
X133668989Y-90624796D01*
X133708838Y-90682188D01*
X133711333Y-90752013D01*
X133675681Y-90812102D01*
X133664071Y-90821666D01*
X133627784Y-90848030D01*
X133483028Y-90992786D01*
X133362715Y-91158386D01*
X133269781Y-91340776D01*
X133206522Y-91535465D01*
X133174500Y-91737648D01*
X133174500Y-91942351D01*
X133206522Y-92144534D01*
X133269781Y-92339223D01*
X133318017Y-92433890D01*
X133345588Y-92488001D01*
X133362715Y-92521613D01*
X133483028Y-92687213D01*
X133627786Y-92831971D01*
X133745443Y-92917452D01*
X133793390Y-92952287D01*
X133870026Y-92991335D01*
X133886080Y-92999515D01*
X133936876Y-93047490D01*
X133953671Y-93115311D01*
X133931134Y-93181446D01*
X133886080Y-93220485D01*
X133793386Y-93267715D01*
X133627786Y-93388028D01*
X133483028Y-93532786D01*
X133362715Y-93698386D01*
X133269781Y-93880776D01*
X133206522Y-94075465D01*
X133189092Y-94185518D01*
X133174500Y-94277648D01*
X133174500Y-94482352D01*
X133182221Y-94531103D01*
X133173268Y-94600394D01*
X133128272Y-94653847D01*
X133061521Y-94674487D01*
X133059749Y-94674500D01*
X132974500Y-94674500D01*
X132907461Y-94654815D01*
X132861706Y-94602011D01*
X132850500Y-94550500D01*
X132850499Y-93227129D01*
X132850498Y-93227123D01*
X132849947Y-93222000D01*
X132844091Y-93167517D01*
X132824619Y-93115311D01*
X132793797Y-93032671D01*
X132793793Y-93032664D01*
X132707547Y-92917455D01*
X132707544Y-92917452D01*
X132592335Y-92831206D01*
X132592328Y-92831202D01*
X132457482Y-92780908D01*
X132457483Y-92780908D01*
X132397883Y-92774501D01*
X132397881Y-92774500D01*
X132397873Y-92774500D01*
X132397865Y-92774500D01*
X131187597Y-92774500D01*
X131120558Y-92754815D01*
X131099916Y-92738181D01*
X129911818Y-91550083D01*
X129878333Y-91488760D01*
X129875499Y-91462402D01*
X129875499Y-91088330D01*
X129875498Y-91088313D01*
X129865174Y-90987247D01*
X129846867Y-90932000D01*
X129810908Y-90823484D01*
X129720340Y-90676650D01*
X129598350Y-90554660D01*
X129458405Y-90468341D01*
X129451518Y-90464093D01*
X129451513Y-90464091D01*
X129450069Y-90463612D01*
X129287753Y-90409826D01*
X129287751Y-90409825D01*
X129186678Y-90399500D01*
X128613330Y-90399500D01*
X128613312Y-90399501D01*
X128512247Y-90409825D01*
X128348484Y-90464092D01*
X128348481Y-90464093D01*
X128240599Y-90530636D01*
X128215099Y-90546365D01*
X128215097Y-90546366D01*
X128147704Y-90564806D01*
X128084902Y-90546365D01*
X128059402Y-90530636D01*
X128012678Y-90478687D01*
X128000500Y-90425098D01*
X128000500Y-87700097D01*
X128020185Y-87633058D01*
X128036819Y-87612416D01*
X129512417Y-86136819D01*
X129573740Y-86103334D01*
X129600098Y-86100500D01*
X133257583Y-86100500D01*
X133324622Y-86120185D01*
G37*
%TD.AperFunction*%
%TA.AperFunction,Conductor*%
G36*
X146556823Y-83804725D02*
G01*
X146579872Y-83810901D01*
X146579873Y-83810901D01*
X146745582Y-83810901D01*
X146745598Y-83810900D01*
X146783369Y-83810900D01*
X146850408Y-83830585D01*
X146896163Y-83883389D01*
X146906727Y-83947502D01*
X146899999Y-84013354D01*
X146899900Y-84015306D01*
X146899759Y-84015708D01*
X146899679Y-84016493D01*
X146899491Y-84016473D01*
X146876823Y-84081255D01*
X146821755Y-84124258D01*
X146752179Y-84130663D01*
X146737058Y-84126690D01*
X146687653Y-84110319D01*
X146586654Y-84100000D01*
X146550000Y-84100000D01*
X146550000Y-85251000D01*
X146530315Y-85318039D01*
X146477511Y-85363794D01*
X146426000Y-85375000D01*
X145325001Y-85375000D01*
X145325001Y-85461654D01*
X145335319Y-85562652D01*
X145389546Y-85726300D01*
X145389551Y-85726311D01*
X145480052Y-85873034D01*
X145480055Y-85873038D01*
X145518982Y-85911965D01*
X145552467Y-85973288D01*
X145547483Y-86042980D01*
X145518983Y-86087326D01*
X145479659Y-86126650D01*
X145424798Y-86215596D01*
X145372850Y-86262321D01*
X145319259Y-86274500D01*
X145158216Y-86274500D01*
X145091177Y-86254815D01*
X145045422Y-86202011D01*
X145034688Y-86139692D01*
X145039327Y-86086676D01*
X145055659Y-85900000D01*
X145035063Y-85664592D01*
X144973903Y-85436337D01*
X144874035Y-85222171D01*
X144868425Y-85214158D01*
X144738494Y-85028597D01*
X144571404Y-84861508D01*
X144571401Y-84861505D01*
X144555012Y-84850029D01*
X144511389Y-84795450D01*
X144510654Y-84788345D01*
X145325000Y-84788345D01*
X145325000Y-84875000D01*
X146050000Y-84875000D01*
X146050000Y-84100000D01*
X146013361Y-84100000D01*
X146013343Y-84100001D01*
X145912347Y-84110319D01*
X145748699Y-84164546D01*
X145748688Y-84164551D01*
X145601965Y-84255052D01*
X145601961Y-84255055D01*
X145480055Y-84376961D01*
X145480052Y-84376965D01*
X145389551Y-84523688D01*
X145389546Y-84523699D01*
X145335319Y-84687347D01*
X145325000Y-84788345D01*
X144510654Y-84788345D01*
X144504198Y-84725952D01*
X144535723Y-84663598D01*
X144538420Y-84660814D01*
X145362417Y-83836819D01*
X145423740Y-83803334D01*
X145450098Y-83800500D01*
X146524730Y-83800500D01*
X146556823Y-83804725D01*
G37*
%TD.AperFunction*%
%TA.AperFunction,Conductor*%
G36*
X155342539Y-82113785D02*
G01*
X155388294Y-82166589D01*
X155399500Y-82218100D01*
X155399500Y-99575500D01*
X155379815Y-99642539D01*
X155327011Y-99688294D01*
X155275500Y-99699500D01*
X125124500Y-99699500D01*
X125057461Y-99679815D01*
X125011706Y-99627011D01*
X125000500Y-99575500D01*
X125000500Y-95816554D01*
X126024498Y-95816554D01*
X126065423Y-95969285D01*
X126075750Y-95987171D01*
X126075751Y-95987174D01*
X126144475Y-96106209D01*
X126144481Y-96106217D01*
X126263349Y-96225085D01*
X126263355Y-96225090D01*
X126388181Y-96349916D01*
X126421666Y-96411239D01*
X126424500Y-96437597D01*
X126424500Y-96811669D01*
X126424501Y-96811687D01*
X126434825Y-96912752D01*
X126471109Y-97022249D01*
X126489092Y-97076516D01*
X126579660Y-97223350D01*
X126701650Y-97345340D01*
X126848484Y-97435908D01*
X127012247Y-97490174D01*
X127113323Y-97500500D01*
X127686676Y-97500499D01*
X127686684Y-97500498D01*
X127686687Y-97500498D01*
X127742030Y-97494844D01*
X127787753Y-97490174D01*
X127951516Y-97435908D01*
X128084903Y-97353633D01*
X128152295Y-97335193D01*
X128215097Y-97353634D01*
X128348475Y-97435903D01*
X128348478Y-97435904D01*
X128348484Y-97435908D01*
X128512247Y-97490174D01*
X128613323Y-97500500D01*
X129186676Y-97500499D01*
X129186684Y-97500498D01*
X129186687Y-97500498D01*
X129242030Y-97494844D01*
X129287753Y-97490174D01*
X129451516Y-97435908D01*
X129598350Y-97345340D01*
X129720340Y-97223350D01*
X129775085Y-97134595D01*
X129782914Y-97121903D01*
X129834862Y-97075178D01*
X129888452Y-97063000D01*
X130116481Y-97063000D01*
X130183520Y-97082685D01*
X130228863Y-97134595D01*
X130325965Y-97342830D01*
X130325967Y-97342834D01*
X130391138Y-97435907D01*
X130461505Y-97536401D01*
X130628599Y-97703495D01*
X130719598Y-97767213D01*
X130822165Y-97839032D01*
X130822167Y-97839033D01*
X130822170Y-97839035D01*
X131036337Y-97938903D01*
X131036343Y-97938904D01*
X131036344Y-97938905D01*
X131091285Y-97953626D01*
X131264592Y-98000063D01*
X131448817Y-98016181D01*
X131499999Y-98020659D01*
X131500000Y-98020659D01*
X131500001Y-98020659D01*
X131539234Y-98017226D01*
X131735408Y-98000063D01*
X131963663Y-97938903D01*
X132177830Y-97839035D01*
X132371401Y-97703495D01*
X132518077Y-97556819D01*
X132579400Y-97523334D01*
X132605758Y-97520500D01*
X133245398Y-97520500D01*
X133312437Y-97540185D01*
X133355883Y-97588205D01*
X133362715Y-97601614D01*
X133483028Y-97767213D01*
X133627786Y-97911971D01*
X133749034Y-98000061D01*
X133793390Y-98032287D01*
X133909607Y-98091503D01*
X133975776Y-98125218D01*
X133975778Y-98125218D01*
X133975781Y-98125220D01*
X134080137Y-98159127D01*
X134170465Y-98188477D01*
X134271557Y-98204488D01*
X134372648Y-98220500D01*
X134372649Y-98220500D01*
X135377351Y-98220500D01*
X135377352Y-98220500D01*
X135579534Y-98188477D01*
X135774219Y-98125220D01*
X135956610Y-98032287D01*
X136049590Y-97964732D01*
X136122213Y-97911971D01*
X136122215Y-97911968D01*
X136122219Y-97911966D01*
X136266966Y-97767219D01*
X136266968Y-97767215D01*
X136266971Y-97767213D01*
X136319732Y-97694590D01*
X136387287Y-97601610D01*
X136480220Y-97419219D01*
X136543477Y-97224534D01*
X136575500Y-97022352D01*
X136575500Y-96817648D01*
X136558977Y-96713330D01*
X136543477Y-96615465D01*
X136485684Y-96437597D01*
X136480220Y-96420781D01*
X136480218Y-96420778D01*
X136480218Y-96420776D01*
X136433068Y-96328241D01*
X136387287Y-96238390D01*
X136372488Y-96218021D01*
X136266971Y-96072786D01*
X136122213Y-95928028D01*
X135956614Y-95807715D01*
X135872659Y-95764938D01*
X135863917Y-95760483D01*
X135813123Y-95712511D01*
X135796328Y-95644690D01*
X135818865Y-95578555D01*
X135863917Y-95539516D01*
X135956610Y-95492287D01*
X135996232Y-95463500D01*
X136122213Y-95371971D01*
X136122215Y-95371968D01*
X136122219Y-95371966D01*
X136266966Y-95227219D01*
X136266968Y-95227215D01*
X136266971Y-95227213D01*
X136319732Y-95154590D01*
X136387287Y-95061610D01*
X136480220Y-94879219D01*
X136543477Y-94684534D01*
X136575500Y-94482352D01*
X136575500Y-94277648D01*
X136560908Y-94185518D01*
X136543477Y-94075465D01*
X136509859Y-93972000D01*
X136480220Y-93880781D01*
X136480218Y-93880778D01*
X136480218Y-93880776D01*
X136427094Y-93776516D01*
X136387287Y-93698390D01*
X136325069Y-93612753D01*
X136266971Y-93532786D01*
X136122213Y-93388028D01*
X135956614Y-93267715D01*
X135897121Y-93237402D01*
X135863917Y-93220483D01*
X135813123Y-93172511D01*
X135796328Y-93104690D01*
X135818865Y-93038555D01*
X135863917Y-92999516D01*
X135956610Y-92952287D01*
X136004557Y-92917452D01*
X136122213Y-92831971D01*
X136122215Y-92831968D01*
X136122219Y-92831966D01*
X136266966Y-92687219D01*
X136266968Y-92687215D01*
X136266971Y-92687213D01*
X136387284Y-92521614D01*
X136387285Y-92521613D01*
X136387287Y-92521610D01*
X136394117Y-92508204D01*
X136442091Y-92457409D01*
X136504602Y-92440500D01*
X137114903Y-92440500D01*
X137181942Y-92460185D01*
X137202584Y-92476819D01*
X140912744Y-96186979D01*
X140946229Y-96248302D01*
X140941245Y-96317994D01*
X140935548Y-96330954D01*
X140889779Y-96420781D01*
X140889779Y-96420782D01*
X140826523Y-96615461D01*
X140826523Y-96615464D01*
X140798405Y-96792993D01*
X140794500Y-96817648D01*
X140794500Y-97022352D01*
X140798878Y-97049995D01*
X140826522Y-97224534D01*
X140889781Y-97419223D01*
X140982715Y-97601613D01*
X141103028Y-97767213D01*
X141247786Y-97911971D01*
X141369034Y-98000061D01*
X141413390Y-98032287D01*
X141529607Y-98091503D01*
X141595776Y-98125218D01*
X141595778Y-98125218D01*
X141595781Y-98125220D01*
X141700137Y-98159127D01*
X141790465Y-98188477D01*
X141891557Y-98204488D01*
X141992648Y-98220500D01*
X141992649Y-98220500D01*
X142997351Y-98220500D01*
X142997352Y-98220500D01*
X143199534Y-98188477D01*
X143394219Y-98125220D01*
X143576610Y-98032287D01*
X143742219Y-97911966D01*
X143817569Y-97836615D01*
X143878888Y-97803133D01*
X143948580Y-97808117D01*
X143992928Y-97836618D01*
X144101650Y-97945340D01*
X144248484Y-98035908D01*
X144412247Y-98090174D01*
X144513323Y-98100500D01*
X145086676Y-98100499D01*
X145086684Y-98100498D01*
X145086687Y-98100498D01*
X145142030Y-98094844D01*
X145187753Y-98090174D01*
X145351516Y-98035908D01*
X145484903Y-97953633D01*
X145552295Y-97935193D01*
X145615097Y-97953634D01*
X145748475Y-98035903D01*
X145748478Y-98035904D01*
X145748484Y-98035908D01*
X145912247Y-98090174D01*
X146013323Y-98100500D01*
X146586676Y-98100499D01*
X146586684Y-98100498D01*
X146586687Y-98100498D01*
X146642030Y-98094844D01*
X146687753Y-98090174D01*
X146851516Y-98035908D01*
X146998350Y-97945340D01*
X147120340Y-97823350D01*
X147210908Y-97676516D01*
X147265174Y-97512753D01*
X147275500Y-97411677D01*
X147275499Y-96713324D01*
X147265174Y-96612247D01*
X147210908Y-96448484D01*
X147120340Y-96301650D01*
X147106017Y-96287327D01*
X147072532Y-96226004D01*
X147077516Y-96156312D01*
X147106021Y-96111960D01*
X147119947Y-96098035D01*
X147210448Y-95951311D01*
X147210453Y-95951300D01*
X147264680Y-95787652D01*
X147274999Y-95686654D01*
X147275000Y-95686641D01*
X147275000Y-95587500D01*
X146174000Y-95587500D01*
X146106961Y-95567815D01*
X146061206Y-95515011D01*
X146050000Y-95463500D01*
X146050000Y-95087500D01*
X146550000Y-95087500D01*
X147274999Y-95087500D01*
X147274999Y-94988360D01*
X147274998Y-94988345D01*
X147264680Y-94887347D01*
X147210453Y-94723699D01*
X147210448Y-94723688D01*
X147119947Y-94576965D01*
X147119944Y-94576961D01*
X146998038Y-94455055D01*
X146998034Y-94455052D01*
X146851311Y-94364551D01*
X146851300Y-94364546D01*
X146687652Y-94310319D01*
X146586654Y-94300000D01*
X146550000Y-94300000D01*
X146550000Y-95087500D01*
X146050000Y-95087500D01*
X146050000Y-94300000D01*
X146013361Y-94300000D01*
X146013343Y-94300001D01*
X145912348Y-94310319D01*
X145907849Y-94311810D01*
X145838021Y-94314210D01*
X145777979Y-94278478D01*
X145746788Y-94215957D01*
X145751140Y-94155102D01*
X145765174Y-94112753D01*
X145775500Y-94011677D01*
X145775499Y-93524499D01*
X145795183Y-93457461D01*
X145847987Y-93411706D01*
X145899499Y-93400500D01*
X145999903Y-93400500D01*
X146066942Y-93420185D01*
X146087584Y-93436819D01*
X146470139Y-93819374D01*
X146470149Y-93819385D01*
X146474479Y-93823715D01*
X146474480Y-93823716D01*
X146586284Y-93935520D01*
X146657524Y-93976650D01*
X146723215Y-94014577D01*
X146875943Y-94055501D01*
X146875946Y-94055501D01*
X147041653Y-94055501D01*
X147041669Y-94055500D01*
X147610909Y-94055500D01*
X147677948Y-94075185D01*
X147723292Y-94127097D01*
X147725965Y-94132830D01*
X147861505Y-94326401D01*
X148028599Y-94493495D01*
X148052321Y-94510105D01*
X148222165Y-94629032D01*
X148222167Y-94629033D01*
X148222170Y-94629035D01*
X148436337Y-94728903D01*
X148664592Y-94790063D01*
X148852918Y-94806539D01*
X148899999Y-94810659D01*
X148900000Y-94810659D01*
X148900001Y-94810659D01*
X148939234Y-94807226D01*
X149135408Y-94790063D01*
X149363663Y-94728903D01*
X149577830Y-94629035D01*
X149771401Y-94493495D01*
X149938495Y-94326401D01*
X150074035Y-94132830D01*
X150173903Y-93918663D01*
X150235063Y-93690408D01*
X150255659Y-93455000D01*
X150235063Y-93219592D01*
X150173903Y-92991337D01*
X150074035Y-92777171D01*
X150074034Y-92777169D01*
X149938494Y-92583597D01*
X149771402Y-92416506D01*
X149771396Y-92416501D01*
X149585842Y-92286575D01*
X149542217Y-92231998D01*
X149535023Y-92162500D01*
X149566546Y-92100145D01*
X149585842Y-92083425D01*
X149747118Y-91970498D01*
X149771401Y-91953495D01*
X149938495Y-91786401D01*
X150074035Y-91592830D01*
X150173903Y-91378663D01*
X150235063Y-91150408D01*
X150255659Y-90915000D01*
X150235063Y-90679592D01*
X150173903Y-90451337D01*
X150074035Y-90237171D01*
X150053247Y-90207483D01*
X149938496Y-90043600D01*
X149908208Y-90013312D01*
X149816567Y-89921671D01*
X149783084Y-89860351D01*
X149788068Y-89790659D01*
X149829939Y-89734725D01*
X149860915Y-89717810D01*
X149992331Y-89668796D01*
X150107546Y-89582546D01*
X150193796Y-89467331D01*
X150244091Y-89332483D01*
X150250500Y-89272873D01*
X150250499Y-87477128D01*
X150244091Y-87417517D01*
X150237877Y-87400857D01*
X150193797Y-87282671D01*
X150193793Y-87282664D01*
X150107547Y-87167455D01*
X150107544Y-87167452D01*
X149992335Y-87081206D01*
X149992328Y-87081202D01*
X149857482Y-87030908D01*
X149857483Y-87030908D01*
X149797883Y-87024501D01*
X149797881Y-87024500D01*
X149797873Y-87024500D01*
X149797864Y-87024500D01*
X148002129Y-87024500D01*
X148002123Y-87024501D01*
X147942516Y-87030908D01*
X147807671Y-87081202D01*
X147807664Y-87081206D01*
X147692455Y-87167452D01*
X147692452Y-87167455D01*
X147606206Y-87282664D01*
X147606202Y-87282671D01*
X147555908Y-87417517D01*
X147551107Y-87462180D01*
X147549501Y-87477123D01*
X147549500Y-87477135D01*
X147549500Y-89272870D01*
X147549501Y-89272876D01*
X147555908Y-89332483D01*
X147606202Y-89467328D01*
X147606206Y-89467335D01*
X147692452Y-89582544D01*
X147692455Y-89582547D01*
X147807664Y-89668793D01*
X147807671Y-89668797D01*
X147939081Y-89717810D01*
X147995015Y-89759681D01*
X148019432Y-89825145D01*
X148004580Y-89893418D01*
X147983430Y-89921673D01*
X147861503Y-90043600D01*
X147725965Y-90237169D01*
X147725964Y-90237171D01*
X147626098Y-90451335D01*
X147626094Y-90451344D01*
X147564938Y-90679586D01*
X147564936Y-90679596D01*
X147544341Y-90914999D01*
X147544341Y-90915000D01*
X147565093Y-91152192D01*
X147551326Y-91220692D01*
X147502711Y-91270876D01*
X147441565Y-91287000D01*
X147156052Y-91287000D01*
X147089013Y-91267315D01*
X147043258Y-91214511D01*
X147033314Y-91145353D01*
X147062339Y-91081797D01*
X147068371Y-91075319D01*
X147120340Y-91023350D01*
X147210908Y-90876516D01*
X147265174Y-90712753D01*
X147275500Y-90611677D01*
X147275499Y-90013324D01*
X147272259Y-89981610D01*
X147265174Y-89912247D01*
X147258935Y-89893418D01*
X147210908Y-89748484D01*
X147120340Y-89601650D01*
X147006371Y-89487681D01*
X146972886Y-89426358D01*
X146977870Y-89356666D01*
X147006371Y-89312319D01*
X147045826Y-89272864D01*
X147120340Y-89198350D01*
X147210908Y-89051516D01*
X147265174Y-88887753D01*
X147275500Y-88786677D01*
X147275499Y-88188324D01*
X147270813Y-88142455D01*
X147265174Y-88087247D01*
X147251410Y-88045710D01*
X147210908Y-87923484D01*
X147120340Y-87776650D01*
X147120338Y-87776648D01*
X147116548Y-87770503D01*
X147117680Y-87769804D01*
X147094406Y-87712120D01*
X147107443Y-87643478D01*
X147119404Y-87624865D01*
X147120336Y-87623353D01*
X147120340Y-87623350D01*
X147210908Y-87476516D01*
X147265174Y-87312753D01*
X147275500Y-87211677D01*
X147275499Y-86866199D01*
X147295183Y-86799162D01*
X147347987Y-86753407D01*
X147417146Y-86743463D01*
X147438504Y-86748495D01*
X147487349Y-86764681D01*
X147588351Y-86774999D01*
X147675000Y-86774998D01*
X147675000Y-84845862D01*
X147687500Y-84803292D01*
X147687500Y-84174000D01*
X147707185Y-84106961D01*
X147759989Y-84061206D01*
X147811500Y-84050000D01*
X148063500Y-84050000D01*
X148130539Y-84069685D01*
X148176294Y-84122489D01*
X148187500Y-84174000D01*
X148187500Y-85254138D01*
X148175000Y-85296707D01*
X148175000Y-86774999D01*
X148261640Y-86774999D01*
X148261654Y-86774998D01*
X148362652Y-86764680D01*
X148526300Y-86710453D01*
X148526311Y-86710448D01*
X148673034Y-86619947D01*
X148673037Y-86619945D01*
X148711964Y-86581018D01*
X148773287Y-86547532D01*
X148842978Y-86552516D01*
X148887327Y-86581017D01*
X148926650Y-86620340D01*
X149073484Y-86710908D01*
X149237247Y-86765174D01*
X149338323Y-86775500D01*
X150011676Y-86775499D01*
X150011684Y-86775498D01*
X150011687Y-86775498D01*
X150067030Y-86769844D01*
X150112753Y-86765174D01*
X150276516Y-86710908D01*
X150423350Y-86620340D01*
X150534549Y-86509140D01*
X150595868Y-86475658D01*
X150665560Y-86480642D01*
X150709908Y-86509143D01*
X151315209Y-87114444D01*
X151348694Y-87175767D01*
X151343710Y-87245459D01*
X151326797Y-87276433D01*
X151309405Y-87299666D01*
X151309402Y-87299671D01*
X151259108Y-87434517D01*
X151254320Y-87479057D01*
X151252701Y-87494123D01*
X151252700Y-87494135D01*
X151252700Y-89289870D01*
X151252701Y-89289876D01*
X151259108Y-89349483D01*
X151309402Y-89484328D01*
X151309406Y-89484335D01*
X151395652Y-89599544D01*
X151395655Y-89599547D01*
X151510864Y-89685793D01*
X151510871Y-89685797D01*
X151642281Y-89734810D01*
X151698215Y-89776681D01*
X151722632Y-89842145D01*
X151707780Y-89910418D01*
X151686630Y-89938673D01*
X151564703Y-90060600D01*
X151429165Y-90254169D01*
X151429164Y-90254171D01*
X151388053Y-90342335D01*
X151331277Y-90464092D01*
X151329298Y-90468335D01*
X151329294Y-90468344D01*
X151268138Y-90696586D01*
X151268136Y-90696596D01*
X151247541Y-90931999D01*
X151247541Y-90932000D01*
X151268136Y-91167403D01*
X151268138Y-91167413D01*
X151329294Y-91395655D01*
X151329296Y-91395659D01*
X151329297Y-91395663D01*
X151421238Y-91592830D01*
X151429165Y-91609830D01*
X151429167Y-91609834D01*
X151518664Y-91737648D01*
X151564705Y-91803401D01*
X151731799Y-91970495D01*
X151916958Y-92100145D01*
X151917794Y-92100730D01*
X151961419Y-92155307D01*
X151968613Y-92224805D01*
X151937090Y-92287160D01*
X151917795Y-92303880D01*
X151732122Y-92433890D01*
X151732120Y-92433891D01*
X151565091Y-92600920D01*
X151565086Y-92600926D01*
X151429600Y-92794420D01*
X151429599Y-92794422D01*
X151329770Y-93008507D01*
X151329767Y-93008513D01*
X151272564Y-93221999D01*
X151272564Y-93222000D01*
X152170188Y-93222000D01*
X152137275Y-93279007D01*
X152103200Y-93406174D01*
X152103200Y-93537826D01*
X152137275Y-93664993D01*
X152170188Y-93722000D01*
X151272564Y-93722000D01*
X151329767Y-93935486D01*
X151329770Y-93935492D01*
X151429599Y-94149578D01*
X151565094Y-94343082D01*
X151732117Y-94510105D01*
X151925621Y-94645600D01*
X152139707Y-94745429D01*
X152139716Y-94745433D01*
X152353200Y-94802634D01*
X152353200Y-93905012D01*
X152410207Y-93937925D01*
X152537374Y-93972000D01*
X152669026Y-93972000D01*
X152796193Y-93937925D01*
X152853200Y-93905012D01*
X152853200Y-94802633D01*
X153066683Y-94745433D01*
X153066692Y-94745429D01*
X153280779Y-94645599D01*
X153280785Y-94645595D01*
X153404376Y-94559056D01*
X153470582Y-94536728D01*
X153538349Y-94553738D01*
X153586163Y-94604685D01*
X153599500Y-94660630D01*
X153599500Y-95499902D01*
X153579815Y-95566941D01*
X153563181Y-95587583D01*
X152765708Y-96385056D01*
X152704385Y-96418541D01*
X152634693Y-96413557D01*
X152578760Y-96371685D01*
X152576479Y-96368536D01*
X152478495Y-96228599D01*
X152478493Y-96228596D01*
X152311402Y-96061506D01*
X152311395Y-96061501D01*
X152117834Y-95925967D01*
X152117830Y-95925965D01*
X152020982Y-95880804D01*
X151903663Y-95826097D01*
X151903659Y-95826096D01*
X151903655Y-95826094D01*
X151675413Y-95764938D01*
X151675403Y-95764936D01*
X151440001Y-95744341D01*
X151439999Y-95744341D01*
X151204596Y-95764936D01*
X151204586Y-95764938D01*
X150976344Y-95826094D01*
X150976335Y-95826098D01*
X150762171Y-95925964D01*
X150762169Y-95925965D01*
X150568600Y-96061503D01*
X150446284Y-96183819D01*
X150384961Y-96217303D01*
X150315269Y-96212319D01*
X150259336Y-96170447D01*
X150242421Y-96139470D01*
X150193354Y-96007913D01*
X150193350Y-96007906D01*
X150107190Y-95892812D01*
X150107187Y-95892809D01*
X149992093Y-95806649D01*
X149992086Y-95806645D01*
X149857379Y-95756403D01*
X149857372Y-95756401D01*
X149797844Y-95750000D01*
X149150000Y-95750000D01*
X149150000Y-96666988D01*
X149092993Y-96634075D01*
X148965826Y-96600000D01*
X148834174Y-96600000D01*
X148707007Y-96634075D01*
X148650000Y-96666988D01*
X148650000Y-95750000D01*
X148002155Y-95750000D01*
X147942627Y-95756401D01*
X147942620Y-95756403D01*
X147807913Y-95806645D01*
X147807906Y-95806649D01*
X147692812Y-95892809D01*
X147692809Y-95892812D01*
X147606649Y-96007906D01*
X147606645Y-96007913D01*
X147556403Y-96142620D01*
X147556401Y-96142627D01*
X147550000Y-96202155D01*
X147550000Y-96850000D01*
X148466988Y-96850000D01*
X148434075Y-96907007D01*
X148400000Y-97034174D01*
X148400000Y-97165826D01*
X148434075Y-97292993D01*
X148466988Y-97350000D01*
X147550000Y-97350000D01*
X147550000Y-97997844D01*
X147556401Y-98057372D01*
X147556403Y-98057379D01*
X147606645Y-98192086D01*
X147606649Y-98192093D01*
X147692809Y-98307187D01*
X147692812Y-98307190D01*
X147807906Y-98393350D01*
X147807913Y-98393354D01*
X147942620Y-98443596D01*
X147942627Y-98443598D01*
X148002155Y-98449999D01*
X148002172Y-98450000D01*
X148650000Y-98450000D01*
X148650000Y-97533012D01*
X148707007Y-97565925D01*
X148834174Y-97600000D01*
X148965826Y-97600000D01*
X149092993Y-97565925D01*
X149150000Y-97533012D01*
X149150000Y-98450000D01*
X149797828Y-98450000D01*
X149797844Y-98449999D01*
X149857372Y-98443598D01*
X149857379Y-98443596D01*
X149992086Y-98393354D01*
X149992093Y-98393350D01*
X150107187Y-98307190D01*
X150107190Y-98307187D01*
X150193350Y-98192093D01*
X150193354Y-98192086D01*
X150242422Y-98060529D01*
X150284293Y-98004595D01*
X150349757Y-97980178D01*
X150418030Y-97995030D01*
X150446285Y-98016181D01*
X150568599Y-98138495D01*
X150639981Y-98188477D01*
X150762165Y-98274032D01*
X150762167Y-98274033D01*
X150762170Y-98274035D01*
X150976337Y-98373903D01*
X151204592Y-98435063D01*
X151375319Y-98450000D01*
X151439999Y-98455659D01*
X151440000Y-98455659D01*
X151440001Y-98455659D01*
X151504681Y-98450000D01*
X151675408Y-98435063D01*
X151903663Y-98373903D01*
X152117830Y-98274035D01*
X152311401Y-98138495D01*
X152478495Y-97971401D01*
X152614035Y-97777830D01*
X152616707Y-97772097D01*
X152662878Y-97719658D01*
X152729091Y-97700500D01*
X152813331Y-97700500D01*
X152813347Y-97700501D01*
X152820943Y-97700501D01*
X152979054Y-97700501D01*
X152979057Y-97700501D01*
X153131785Y-97659577D01*
X153188121Y-97627051D01*
X153268716Y-97580520D01*
X153380520Y-97468716D01*
X153380520Y-97468714D01*
X153390724Y-97458511D01*
X153390727Y-97458506D01*
X154680520Y-96168716D01*
X154759577Y-96031784D01*
X154800501Y-95879057D01*
X154800501Y-95720942D01*
X154800501Y-95713347D01*
X154800500Y-95713329D01*
X154800500Y-91636945D01*
X154800500Y-91636943D01*
X154759577Y-91484216D01*
X154756193Y-91478355D01*
X154680524Y-91347290D01*
X154680521Y-91347286D01*
X154680520Y-91347284D01*
X154568716Y-91235480D01*
X154568715Y-91235479D01*
X154564385Y-91231149D01*
X154564374Y-91231139D01*
X153928243Y-90595008D01*
X153896149Y-90539419D01*
X153877104Y-90468341D01*
X153877103Y-90468337D01*
X153777235Y-90254171D01*
X153777234Y-90254169D01*
X153641696Y-90060600D01*
X153594408Y-90013312D01*
X153519767Y-89938671D01*
X153486284Y-89877351D01*
X153491268Y-89807659D01*
X153533139Y-89751725D01*
X153564115Y-89734810D01*
X153695531Y-89685796D01*
X153810746Y-89599546D01*
X153896996Y-89484331D01*
X153947291Y-89349483D01*
X153953700Y-89289873D01*
X153953699Y-87494128D01*
X153947291Y-87434517D01*
X153940950Y-87417517D01*
X153896997Y-87299671D01*
X153896993Y-87299664D01*
X153810747Y-87184455D01*
X153810744Y-87184452D01*
X153695535Y-87098206D01*
X153695528Y-87098202D01*
X153560682Y-87047908D01*
X153560683Y-87047908D01*
X153501083Y-87041501D01*
X153501081Y-87041500D01*
X153501073Y-87041500D01*
X153501065Y-87041500D01*
X152992097Y-87041500D01*
X152925058Y-87021815D01*
X152904416Y-87005181D01*
X151337590Y-85438355D01*
X151337588Y-85438352D01*
X151218717Y-85319481D01*
X151218709Y-85319475D01*
X151129923Y-85268215D01*
X151129922Y-85268215D01*
X151081785Y-85240423D01*
X150929057Y-85199499D01*
X150770943Y-85199499D01*
X150763347Y-85199499D01*
X150763331Y-85199500D01*
X150674901Y-85199500D01*
X150607862Y-85179815D01*
X150569363Y-85140598D01*
X150553633Y-85115095D01*
X150535193Y-85047706D01*
X150553634Y-84984903D01*
X150562791Y-84970058D01*
X150635908Y-84851516D01*
X150690174Y-84687753D01*
X150700500Y-84586677D01*
X150700499Y-84013324D01*
X150690174Y-83912247D01*
X150635908Y-83748484D01*
X150545340Y-83601650D01*
X150423350Y-83479660D01*
X150276516Y-83389092D01*
X150112753Y-83334826D01*
X150112751Y-83334825D01*
X150011684Y-83324500D01*
X150011677Y-83324500D01*
X149587597Y-83324500D01*
X149520558Y-83304815D01*
X149499916Y-83288181D01*
X149060490Y-82848755D01*
X149060488Y-82848752D01*
X148941617Y-82729881D01*
X148941616Y-82729880D01*
X148854804Y-82679760D01*
X148854804Y-82679759D01*
X148854800Y-82679758D01*
X148804685Y-82650823D01*
X148651957Y-82609899D01*
X148493843Y-82609899D01*
X148486247Y-82609899D01*
X148486231Y-82609900D01*
X146782728Y-82609900D01*
X146750635Y-82605675D01*
X146727586Y-82599499D01*
X146569472Y-82599499D01*
X146561876Y-82599499D01*
X146561860Y-82599500D01*
X145236670Y-82599500D01*
X145236654Y-82599499D01*
X145229058Y-82599499D01*
X145070943Y-82599499D01*
X144994579Y-82619961D01*
X144918214Y-82640423D01*
X144918209Y-82640426D01*
X144781290Y-82719475D01*
X144781282Y-82719481D01*
X143219481Y-84281282D01*
X143219479Y-84281285D01*
X143169361Y-84368094D01*
X143169359Y-84368096D01*
X143140425Y-84418209D01*
X143140424Y-84418210D01*
X143140423Y-84418215D01*
X143099499Y-84570943D01*
X143099499Y-84570945D01*
X143099499Y-84610909D01*
X143079814Y-84677948D01*
X143027908Y-84723289D01*
X143022174Y-84725962D01*
X143022169Y-84725965D01*
X142828597Y-84861505D01*
X142661505Y-85028597D01*
X142531575Y-85214158D01*
X142476998Y-85257783D01*
X142407500Y-85264977D01*
X142345145Y-85233454D01*
X142328425Y-85214158D01*
X142198494Y-85028597D01*
X142031402Y-84861506D01*
X142031395Y-84861501D01*
X142017146Y-84851524D01*
X141954518Y-84807671D01*
X141837834Y-84725967D01*
X141837830Y-84725965D01*
X141832091Y-84723289D01*
X141623663Y-84626097D01*
X141623659Y-84626096D01*
X141623655Y-84626094D01*
X141395413Y-84564938D01*
X141395403Y-84564936D01*
X141160001Y-84544341D01*
X141159999Y-84544341D01*
X140924596Y-84564936D01*
X140924586Y-84564938D01*
X140696344Y-84626094D01*
X140696335Y-84626098D01*
X140482171Y-84725964D01*
X140482169Y-84725965D01*
X140288600Y-84861503D01*
X140166673Y-84983430D01*
X140105350Y-85016914D01*
X140035658Y-85011930D01*
X139979725Y-84970058D01*
X139962810Y-84939081D01*
X139913797Y-84807671D01*
X139913793Y-84807664D01*
X139827547Y-84692455D01*
X139827544Y-84692452D01*
X139712335Y-84606206D01*
X139712328Y-84606202D01*
X139577482Y-84555908D01*
X139577483Y-84555908D01*
X139517883Y-84549501D01*
X139517881Y-84549500D01*
X139517873Y-84549500D01*
X139517864Y-84549500D01*
X137722129Y-84549500D01*
X137722123Y-84549501D01*
X137662516Y-84555908D01*
X137527671Y-84606202D01*
X137527664Y-84606206D01*
X137412455Y-84692452D01*
X137412452Y-84692455D01*
X137326206Y-84807664D01*
X137326202Y-84807671D01*
X137275908Y-84942517D01*
X137269501Y-85002116D01*
X137269500Y-85002135D01*
X137269500Y-85320903D01*
X137249815Y-85387942D01*
X137197011Y-85433697D01*
X137127853Y-85443641D01*
X137064297Y-85414616D01*
X137057819Y-85408584D01*
X136787590Y-85138355D01*
X136787588Y-85138352D01*
X136668717Y-85019481D01*
X136668716Y-85019480D01*
X136581904Y-84969360D01*
X136581904Y-84969359D01*
X136581900Y-84969358D01*
X136531785Y-84940423D01*
X136379057Y-84899499D01*
X136220943Y-84899499D01*
X136213347Y-84899499D01*
X136213331Y-84899500D01*
X129386670Y-84899500D01*
X129386654Y-84899499D01*
X129379058Y-84899499D01*
X129220943Y-84899499D01*
X129144579Y-84919961D01*
X129068214Y-84940423D01*
X129068209Y-84940426D01*
X128931290Y-85019475D01*
X128931282Y-85019481D01*
X126919481Y-87031282D01*
X126919479Y-87031285D01*
X126875452Y-87107544D01*
X126875451Y-87107545D01*
X126875450Y-87107547D01*
X126840423Y-87168215D01*
X126799499Y-87320943D01*
X126799499Y-87320945D01*
X126799499Y-87489046D01*
X126799500Y-87489059D01*
X126799500Y-90425098D01*
X126779815Y-90492137D01*
X126740598Y-90530636D01*
X126701650Y-90554659D01*
X126579661Y-90676648D01*
X126489093Y-90823481D01*
X126489091Y-90823486D01*
X126486626Y-90830925D01*
X126434826Y-90987247D01*
X126434826Y-90987248D01*
X126434825Y-90987248D01*
X126424500Y-91088315D01*
X126424500Y-91786669D01*
X126424501Y-91786687D01*
X126434825Y-91887752D01*
X126489092Y-92051515D01*
X126489093Y-92051518D01*
X126579661Y-92198351D01*
X126593629Y-92212319D01*
X126627114Y-92273642D01*
X126622130Y-92343334D01*
X126593629Y-92387681D01*
X126579661Y-92401648D01*
X126489093Y-92548481D01*
X126489091Y-92548486D01*
X126477456Y-92583599D01*
X126434826Y-92712247D01*
X126434826Y-92712248D01*
X126434825Y-92712248D01*
X126424500Y-92813315D01*
X126424500Y-93237402D01*
X126404815Y-93304441D01*
X126388181Y-93325083D01*
X126144481Y-93568782D01*
X126096963Y-93651086D01*
X126065423Y-93705715D01*
X126024499Y-93858443D01*
X126024499Y-93858445D01*
X126024499Y-94026546D01*
X126024500Y-94026559D01*
X126024500Y-95650830D01*
X126024499Y-95650848D01*
X126024499Y-95816554D01*
X126024498Y-95816554D01*
X125000500Y-95816554D01*
X125000500Y-82218100D01*
X125020185Y-82151061D01*
X125072989Y-82105306D01*
X125124500Y-82094100D01*
X155275500Y-82094100D01*
X155342539Y-82113785D01*
G37*
%TD.AperFunction*%
%TD*%
M02*
