M48
; DRILL file {KiCad 8.0.6} date 2024-12-31T17:28:56-0600
; FORMAT={-:-/ absolute / metric / decimal}
; #@! TF.CreationDate,2024-12-31T17:28:56-06:00
; #@! TF.GenerationSoftware,Kicad,Pcbnew,8.0.6
; #@! TF.FileFunction,MixedPlating,1,2
FMAT,2
METRIC
; #@! TA.AperFunction,Plated,PTH,ViaDrill
T1C0.300
; #@! TA.AperFunction,Plated,PTH,ComponentDrill
T2C0.800
; #@! TA.AperFunction,Plated,PTH,ComponentDrill
T3C1.000
%
G90
G05
T1
X129.15Y-89.65
X137.0Y-95.5
X137.0Y-96.5
X137.0Y-97.5
X138.0Y-95.5
X138.0Y-96.5
X138.0Y-97.5
X139.0Y-95.5
X139.0Y-96.5
X139.0Y-97.5
X140.0Y-95.5
X140.0Y-96.5
X140.0Y-97.5
X145.049Y-84.149
X146.3Y-94.05
X146.4Y-83.8
X147.7Y-96.2
X149.8Y-87.0
X150.774Y-92.659
X151.079Y-95.199
T2
X134.875Y-89.3
X134.875Y-91.84
X134.875Y-94.38
X134.875Y-96.92
X142.495Y-89.3
X142.495Y-91.84
X142.495Y-94.38
X142.495Y-96.92
T3
X131.5Y-87.825
X131.5Y-90.365
X131.5Y-94.125
X131.5Y-96.665
X138.62Y-85.9
X141.16Y-85.9
X143.7Y-85.9
X148.9Y-88.375
X148.9Y-90.915
X148.9Y-93.455
X148.9Y-97.1
X151.44Y-97.1
X152.603Y-88.392
X152.603Y-90.932
X152.603Y-93.472
M30
