%TF.GenerationSoftware,KiCad,Pcbnew,7.0.7*%
%TF.CreationDate,2024-06-14T16:47:01-05:00*%
%TF.ProjectId,Rev2.2,52657632-2e32-42e6-9b69-6361645f7063,rev?*%
%TF.SameCoordinates,Original*%
%TF.FileFunction,Paste,Top*%
%TF.FilePolarity,Positive*%
%FSLAX46Y46*%
G04 Gerber Fmt 4.6, Leading zero omitted, Abs format (unit mm)*
G04 Created by KiCad (PCBNEW 7.0.7) date 2024-06-14 16:47:01*
%MOMM*%
%LPD*%
G01*
G04 APERTURE LIST*
G04 Aperture macros list*
%AMRoundRect*
0 Rectangle with rounded corners*
0 $1 Rounding radius*
0 $2 $3 $4 $5 $6 $7 $8 $9 X,Y pos of 4 corners*
0 Add a 4 corners polygon primitive as box body*
4,1,4,$2,$3,$4,$5,$6,$7,$8,$9,$2,$3,0*
0 Add four circle primitives for the rounded corners*
1,1,$1+$1,$2,$3*
1,1,$1+$1,$4,$5*
1,1,$1+$1,$6,$7*
1,1,$1+$1,$8,$9*
0 Add four rect primitives between the rounded corners*
20,1,$1+$1,$2,$3,$4,$5,0*
20,1,$1+$1,$4,$5,$6,$7,0*
20,1,$1+$1,$6,$7,$8,$9,0*
20,1,$1+$1,$8,$9,$2,$3,0*%
G04 Aperture macros list end*
%ADD10RoundRect,0.237500X0.237500X-0.250000X0.237500X0.250000X-0.237500X0.250000X-0.237500X-0.250000X0*%
%ADD11RoundRect,0.237500X-0.250000X-0.237500X0.250000X-0.237500X0.250000X0.237500X-0.250000X0.237500X0*%
%ADD12RoundRect,0.237500X0.237500X-0.300000X0.237500X0.300000X-0.237500X0.300000X-0.237500X-0.300000X0*%
%ADD13RoundRect,0.237500X-0.237500X0.250000X-0.237500X-0.250000X0.237500X-0.250000X0.237500X0.250000X0*%
%ADD14RoundRect,0.237500X0.250000X0.237500X-0.250000X0.237500X-0.250000X-0.237500X0.250000X-0.237500X0*%
%ADD15RoundRect,0.237500X-0.300000X-0.237500X0.300000X-0.237500X0.300000X0.237500X-0.300000X0.237500X0*%
%ADD16R,2.500000X0.500000*%
%ADD17R,2.500000X2.000000*%
%ADD18RoundRect,0.150000X0.150000X-0.825000X0.150000X0.825000X-0.150000X0.825000X-0.150000X-0.825000X0*%
%ADD19RoundRect,0.237500X0.300000X0.237500X-0.300000X0.237500X-0.300000X-0.237500X0.300000X-0.237500X0*%
%ADD20RoundRect,0.237500X-0.237500X0.300000X-0.237500X-0.300000X0.237500X-0.300000X0.237500X0.300000X0*%
%ADD21RoundRect,0.250001X0.462499X0.624999X-0.462499X0.624999X-0.462499X-0.624999X0.462499X-0.624999X0*%
%ADD22R,1.300000X1.550000*%
%ADD23R,0.500000X0.375000*%
%ADD24R,0.650000X0.300000*%
%ADD25R,1.560000X0.650000*%
%ADD26RoundRect,0.075000X-0.662500X-0.075000X0.662500X-0.075000X0.662500X0.075000X-0.662500X0.075000X0*%
%ADD27RoundRect,0.075000X-0.075000X-0.662500X0.075000X-0.662500X0.075000X0.662500X-0.075000X0.662500X0*%
%ADD28R,1.200000X1.400000*%
%ADD29RoundRect,0.087500X0.087500X-0.225000X0.087500X0.225000X-0.087500X0.225000X-0.087500X-0.225000X0*%
%ADD30RoundRect,0.087500X0.225000X-0.087500X0.225000X0.087500X-0.225000X0.087500X-0.225000X-0.087500X0*%
%ADD31R,0.700000X1.200000*%
%ADD32R,0.760000X1.200000*%
%ADD33R,0.800000X1.200000*%
%ADD34R,1.800000X1.350000*%
%ADD35R,1.800000X1.500000*%
%ADD36R,1.000000X0.800000*%
%ADD37R,0.700000X1.500000*%
%ADD38R,2.000000X1.500000*%
%ADD39R,2.000000X3.800000*%
G04 APERTURE END LIST*
D10*
%TO.C,R41*%
X178500000Y-133137500D03*
X178500000Y-131312500D03*
%TD*%
D11*
%TO.C,R8*%
X115162500Y-134575000D03*
X116987500Y-134575000D03*
%TD*%
D12*
%TO.C,C43*%
X124450000Y-105937500D03*
X124450000Y-104212500D03*
%TD*%
D13*
%TO.C,R51*%
X177000000Y-131312500D03*
X177000000Y-133137500D03*
%TD*%
D14*
%TO.C,R48*%
X168062500Y-137475000D03*
X166237500Y-137475000D03*
%TD*%
D15*
%TO.C,C39*%
X135562500Y-85000000D03*
X137287500Y-85000000D03*
%TD*%
D16*
%TO.C,J6*%
X184775000Y-84900000D03*
X184775000Y-84100000D03*
X184775000Y-83300000D03*
X184775000Y-82500000D03*
X184775000Y-81700000D03*
D17*
X184775000Y-87700000D03*
X190275000Y-87700000D03*
X184775000Y-78900000D03*
X190275000Y-78900000D03*
%TD*%
D18*
%TO.C,U4*%
X145795000Y-78800000D03*
X147065000Y-78800000D03*
X148335000Y-78800000D03*
X149605000Y-78800000D03*
X149605000Y-73850000D03*
X148335000Y-73850000D03*
X147065000Y-73850000D03*
X145795000Y-73850000D03*
%TD*%
D14*
%TO.C,R33*%
X120112500Y-90000000D03*
X118287500Y-90000000D03*
%TD*%
D11*
%TO.C,R10*%
X123762500Y-138950000D03*
X125587500Y-138950000D03*
%TD*%
D19*
%TO.C,C35*%
X142562500Y-111775000D03*
X140837500Y-111775000D03*
%TD*%
D14*
%TO.C,R50*%
X178062500Y-137475000D03*
X176237500Y-137475000D03*
%TD*%
%TO.C,R29*%
X117062500Y-121325000D03*
X115237500Y-121325000D03*
%TD*%
D11*
%TO.C,R7*%
X115162500Y-129575000D03*
X116987500Y-129575000D03*
%TD*%
D14*
%TO.C,R23*%
X151812500Y-137450000D03*
X149987500Y-137450000D03*
%TD*%
D20*
%TO.C,C37*%
X150825000Y-87137500D03*
X150825000Y-88862500D03*
%TD*%
D21*
%TO.C,D2*%
X188700000Y-99675000D03*
X185725000Y-99675000D03*
%TD*%
D11*
%TO.C,R45*%
X121562500Y-79500000D03*
X123387500Y-79500000D03*
%TD*%
D14*
%TO.C,R58*%
X174137500Y-98875000D03*
X172312500Y-98875000D03*
%TD*%
D15*
%TO.C,C32*%
X168853500Y-77500000D03*
X170578500Y-77500000D03*
%TD*%
D14*
%TO.C,R19*%
X130687500Y-137450000D03*
X128862500Y-137450000D03*
%TD*%
D11*
%TO.C,R16*%
X154987500Y-138950000D03*
X156812500Y-138950000D03*
%TD*%
D14*
%TO.C,R55*%
X174137500Y-103375000D03*
X172312500Y-103375000D03*
%TD*%
%TO.C,R20*%
X135712500Y-137450000D03*
X133887500Y-137450000D03*
%TD*%
%TO.C,R57*%
X174137500Y-100375000D03*
X172312500Y-100375000D03*
%TD*%
D20*
%TO.C,C27*%
X115850000Y-97812500D03*
X115850000Y-99537500D03*
%TD*%
D22*
%TO.C,SW5*%
X114350000Y-67380000D03*
X114350000Y-59420000D03*
X118850000Y-67380000D03*
X118850000Y-59420000D03*
%TD*%
D21*
%TO.C,D3*%
X188687500Y-97250000D03*
X185712500Y-97250000D03*
%TD*%
D14*
%TO.C,R35*%
X120087500Y-94025000D03*
X118262500Y-94025000D03*
%TD*%
D19*
%TO.C,C34*%
X138612500Y-111775000D03*
X136887500Y-111775000D03*
%TD*%
D13*
%TO.C,R1*%
X128975000Y-68512500D03*
X128975000Y-70337500D03*
%TD*%
D20*
%TO.C,C31*%
X115825000Y-102012500D03*
X115825000Y-103737500D03*
%TD*%
D15*
%TO.C,C25*%
X122312500Y-95875000D03*
X124037500Y-95875000D03*
%TD*%
D20*
%TO.C,C36*%
X147400000Y-111762500D03*
X147400000Y-113487500D03*
%TD*%
D14*
%TO.C,R24*%
X156812500Y-137450000D03*
X154987500Y-137450000D03*
%TD*%
D21*
%TO.C,D4*%
X188687500Y-94825000D03*
X185712500Y-94825000D03*
%TD*%
D14*
%TO.C,R34*%
X120137500Y-92000000D03*
X118312500Y-92000000D03*
%TD*%
%TO.C,R31*%
X116987500Y-131075000D03*
X115162500Y-131075000D03*
%TD*%
D11*
%TO.C,R11*%
X128862500Y-138950000D03*
X130687500Y-138950000D03*
%TD*%
D13*
%TO.C,R2*%
X152975000Y-68612500D03*
X152975000Y-70437500D03*
%TD*%
D11*
%TO.C,R40*%
X176237500Y-138975000D03*
X178062500Y-138975000D03*
%TD*%
%TO.C,R15*%
X149987500Y-138950000D03*
X151812500Y-138950000D03*
%TD*%
D23*
%TO.C,U10*%
X170710000Y-82212500D03*
D24*
X170785000Y-81675000D03*
D23*
X170710000Y-81137500D03*
X169010000Y-81137500D03*
D24*
X168935000Y-81675000D03*
D23*
X169010000Y-82212500D03*
%TD*%
D15*
%TO.C,C38*%
X140412500Y-85000000D03*
X142137500Y-85000000D03*
%TD*%
D13*
%TO.C,R53*%
X176975000Y-121337500D03*
X176975000Y-123162500D03*
%TD*%
%TO.C,R36*%
X116725000Y-112837500D03*
X116725000Y-114662500D03*
%TD*%
D14*
%TO.C,R22*%
X146812500Y-137450000D03*
X144987500Y-137450000D03*
%TD*%
D19*
%TO.C,C41*%
X125462500Y-92275000D03*
X123737500Y-92275000D03*
%TD*%
D10*
%TO.C,R42*%
X178500000Y-128137500D03*
X178500000Y-126312500D03*
%TD*%
%TO.C,R44*%
X178450000Y-118162500D03*
X178450000Y-116337500D03*
%TD*%
D25*
%TO.C,U9*%
X170435000Y-88150000D03*
X170435000Y-87200000D03*
X170435000Y-86250000D03*
X167735000Y-86250000D03*
X167735000Y-88150000D03*
%TD*%
D26*
%TO.C,U1*%
X127362500Y-89725000D03*
X127362500Y-90225000D03*
X127362500Y-90725000D03*
X127362500Y-91225000D03*
X127362500Y-91725000D03*
X127362500Y-92225000D03*
X127362500Y-92725000D03*
X127362500Y-93225000D03*
X127362500Y-93725000D03*
X127362500Y-94225000D03*
X127362500Y-94725000D03*
X127362500Y-95225000D03*
X127362500Y-95725000D03*
X127362500Y-96225000D03*
X127362500Y-96725000D03*
X127362500Y-97225000D03*
X127362500Y-97725000D03*
X127362500Y-98225000D03*
X127362500Y-98725000D03*
X127362500Y-99225000D03*
X127362500Y-99725000D03*
X127362500Y-100225000D03*
X127362500Y-100725000D03*
X127362500Y-101225000D03*
X127362500Y-101725000D03*
X127362500Y-102225000D03*
X127362500Y-102725000D03*
X127362500Y-103225000D03*
X127362500Y-103725000D03*
X127362500Y-104225000D03*
X127362500Y-104725000D03*
X127362500Y-105225000D03*
X127362500Y-105725000D03*
X127362500Y-106225000D03*
X127362500Y-106725000D03*
X127362500Y-107225000D03*
D27*
X129275000Y-109137500D03*
X129775000Y-109137500D03*
X130275000Y-109137500D03*
X130775000Y-109137500D03*
X131275000Y-109137500D03*
X131775000Y-109137500D03*
X132275000Y-109137500D03*
X132775000Y-109137500D03*
X133275000Y-109137500D03*
X133775000Y-109137500D03*
X134275000Y-109137500D03*
X134775000Y-109137500D03*
X135275000Y-109137500D03*
X135775000Y-109137500D03*
X136275000Y-109137500D03*
X136775000Y-109137500D03*
X137275000Y-109137500D03*
X137775000Y-109137500D03*
X138275000Y-109137500D03*
X138775000Y-109137500D03*
X139275000Y-109137500D03*
X139775000Y-109137500D03*
X140275000Y-109137500D03*
X140775000Y-109137500D03*
X141275000Y-109137500D03*
X141775000Y-109137500D03*
X142275000Y-109137500D03*
X142775000Y-109137500D03*
X143275000Y-109137500D03*
X143775000Y-109137500D03*
X144275000Y-109137500D03*
X144775000Y-109137500D03*
X145275000Y-109137500D03*
X145775000Y-109137500D03*
X146275000Y-109137500D03*
X146775000Y-109137500D03*
D26*
X148687500Y-107225000D03*
X148687500Y-106725000D03*
X148687500Y-106225000D03*
X148687500Y-105725000D03*
X148687500Y-105225000D03*
X148687500Y-104725000D03*
X148687500Y-104225000D03*
X148687500Y-103725000D03*
X148687500Y-103225000D03*
X148687500Y-102725000D03*
X148687500Y-102225000D03*
X148687500Y-101725000D03*
X148687500Y-101225000D03*
X148687500Y-100725000D03*
X148687500Y-100225000D03*
X148687500Y-99725000D03*
X148687500Y-99225000D03*
X148687500Y-98725000D03*
X148687500Y-98225000D03*
X148687500Y-97725000D03*
X148687500Y-97225000D03*
X148687500Y-96725000D03*
X148687500Y-96225000D03*
X148687500Y-95725000D03*
X148687500Y-95225000D03*
X148687500Y-94725000D03*
X148687500Y-94225000D03*
X148687500Y-93725000D03*
X148687500Y-93225000D03*
X148687500Y-92725000D03*
X148687500Y-92225000D03*
X148687500Y-91725000D03*
X148687500Y-91225000D03*
X148687500Y-90725000D03*
X148687500Y-90225000D03*
X148687500Y-89725000D03*
D27*
X146775000Y-87812500D03*
X146275000Y-87812500D03*
X145775000Y-87812500D03*
X145275000Y-87812500D03*
X144775000Y-87812500D03*
X144275000Y-87812500D03*
X143775000Y-87812500D03*
X143275000Y-87812500D03*
X142775000Y-87812500D03*
X142275000Y-87812500D03*
X141775000Y-87812500D03*
X141275000Y-87812500D03*
X140775000Y-87812500D03*
X140275000Y-87812500D03*
X139775000Y-87812500D03*
X139275000Y-87812500D03*
X138775000Y-87812500D03*
X138275000Y-87812500D03*
X137775000Y-87812500D03*
X137275000Y-87812500D03*
X136775000Y-87812500D03*
X136275000Y-87812500D03*
X135775000Y-87812500D03*
X135275000Y-87812500D03*
X134775000Y-87812500D03*
X134275000Y-87812500D03*
X133775000Y-87812500D03*
X133275000Y-87812500D03*
X132775000Y-87812500D03*
X132275000Y-87812500D03*
X131775000Y-87812500D03*
X131275000Y-87812500D03*
X130775000Y-87812500D03*
X130275000Y-87812500D03*
X129775000Y-87812500D03*
X129275000Y-87812500D03*
%TD*%
D13*
%TO.C,R52*%
X177000000Y-126312500D03*
X177000000Y-128137500D03*
%TD*%
D21*
%TO.C,D1*%
X188712500Y-102100000D03*
X185737500Y-102100000D03*
%TD*%
D12*
%TO.C,C40*%
X128775000Y-85612500D03*
X128775000Y-83887500D03*
%TD*%
D14*
%TO.C,R49*%
X173075000Y-137450000D03*
X171250000Y-137450000D03*
%TD*%
D19*
%TO.C,C45*%
X117462500Y-69200000D03*
X115737500Y-69200000D03*
%TD*%
D14*
%TO.C,R32*%
X116987500Y-136050000D03*
X115162500Y-136050000D03*
%TD*%
D11*
%TO.C,R4*%
X117337500Y-101675000D03*
X119162500Y-101675000D03*
%TD*%
D14*
%TO.C,R18*%
X125587500Y-137475000D03*
X123762500Y-137475000D03*
%TD*%
D20*
%TO.C,C23*%
X152200000Y-95387500D03*
X152200000Y-97112500D03*
%TD*%
D11*
%TO.C,R9*%
X118887500Y-138950000D03*
X120712500Y-138950000D03*
%TD*%
D19*
%TO.C,C26*%
X170153500Y-68500000D03*
X168428500Y-68500000D03*
%TD*%
D11*
%TO.C,R14*%
X144987500Y-138950000D03*
X146812500Y-138950000D03*
%TD*%
%TO.C,R25*%
X108162500Y-91700000D03*
X109987500Y-91700000D03*
%TD*%
D10*
%TO.C,R43*%
X178475000Y-123162500D03*
X178475000Y-121337500D03*
%TD*%
D20*
%TO.C,C33*%
X129500000Y-111887500D03*
X129500000Y-113612500D03*
%TD*%
D28*
%TO.C,Y2*%
X117450000Y-97700000D03*
X117450000Y-99900000D03*
X119150000Y-99900000D03*
X119150000Y-97700000D03*
%TD*%
D29*
%TO.C,U5*%
X126150000Y-77982500D03*
X126650000Y-77982500D03*
X127150000Y-77982500D03*
X127650000Y-77982500D03*
D30*
X127812500Y-77320000D03*
X127812500Y-76820000D03*
X127812500Y-76320000D03*
D29*
X127650000Y-75657500D03*
X127150000Y-75657500D03*
X126650000Y-75657500D03*
X126150000Y-75657500D03*
D30*
X125987500Y-76320000D03*
X125987500Y-76820000D03*
X125987500Y-77320000D03*
%TD*%
D12*
%TO.C,C30*%
X152375000Y-88862500D03*
X152375000Y-87137500D03*
%TD*%
D10*
%TO.C,R28*%
X115225000Y-114662500D03*
X115225000Y-112837500D03*
%TD*%
%TO.C,R3*%
X122800000Y-68312500D03*
X122800000Y-66487500D03*
%TD*%
D11*
%TO.C,R12*%
X133887500Y-138950000D03*
X135712500Y-138950000D03*
%TD*%
D12*
%TO.C,C1*%
X130350000Y-77712500D03*
X130350000Y-75987500D03*
%TD*%
D31*
%TO.C,J14*%
X169156000Y-64754500D03*
D32*
X167136000Y-64754500D03*
D33*
X165906000Y-64754500D03*
D31*
X168156000Y-64754500D03*
D32*
X170176000Y-64754500D03*
D33*
X171406000Y-64754500D03*
D34*
X173781000Y-64699500D03*
D35*
X173781000Y-61119500D03*
D34*
X163531000Y-64699500D03*
D35*
X163531000Y-61119500D03*
%TD*%
D11*
%TO.C,R27*%
X108162500Y-94700000D03*
X109987500Y-94700000D03*
%TD*%
%TO.C,R37*%
X161237500Y-138975000D03*
X163062500Y-138975000D03*
%TD*%
%TO.C,R13*%
X139987500Y-138950000D03*
X141812500Y-138950000D03*
%TD*%
%TO.C,R6*%
X115237500Y-124950000D03*
X117062500Y-124950000D03*
%TD*%
D12*
%TO.C,C44*%
X122900000Y-105937500D03*
X122900000Y-104212500D03*
%TD*%
D19*
%TO.C,C42*%
X138612500Y-113275000D03*
X136887500Y-113275000D03*
%TD*%
D11*
%TO.C,R5*%
X115250000Y-119825000D03*
X117075000Y-119825000D03*
%TD*%
D13*
%TO.C,R54*%
X176975000Y-116337500D03*
X176975000Y-118162500D03*
%TD*%
D11*
%TO.C,R26*%
X108162500Y-93200000D03*
X109987500Y-93200000D03*
%TD*%
D14*
%TO.C,R56*%
X174137500Y-101875000D03*
X172312500Y-101875000D03*
%TD*%
D18*
%TO.C,U2*%
X132120000Y-78875000D03*
X133390000Y-78875000D03*
X134660000Y-78875000D03*
X135930000Y-78875000D03*
X135930000Y-73925000D03*
X134660000Y-73925000D03*
X133390000Y-73925000D03*
X132120000Y-73925000D03*
%TD*%
D14*
%TO.C,R17*%
X120712500Y-137475000D03*
X118887500Y-137475000D03*
%TD*%
%TO.C,R30*%
X117062500Y-126450000D03*
X115237500Y-126450000D03*
%TD*%
D36*
%TO.C,SW3*%
X128450000Y-61055000D03*
X128450000Y-58845000D03*
X121150000Y-61055000D03*
X121150000Y-58845000D03*
D37*
X127050000Y-61705000D03*
X124050000Y-61705000D03*
X122550000Y-61705000D03*
%TD*%
D20*
%TO.C,C28*%
X121400000Y-104212500D03*
X121400000Y-105937500D03*
%TD*%
D14*
%TO.C,R47*%
X163062500Y-137450000D03*
X161237500Y-137450000D03*
%TD*%
D11*
%TO.C,R38*%
X166237500Y-138975000D03*
X168062500Y-138975000D03*
%TD*%
%TO.C,R39*%
X171262500Y-138950000D03*
X173087500Y-138950000D03*
%TD*%
D20*
%TO.C,C24*%
X152225000Y-101162500D03*
X152225000Y-102887500D03*
%TD*%
%TO.C,C29*%
X145875000Y-111762500D03*
X145875000Y-113487500D03*
%TD*%
D14*
%TO.C,R21*%
X141812500Y-137450000D03*
X139987500Y-137450000D03*
%TD*%
D10*
%TO.C,R46*%
X126200000Y-83887500D03*
X126200000Y-82062500D03*
%TD*%
D38*
%TO.C,U3*%
X172441000Y-75325000D03*
X172441000Y-73025000D03*
D39*
X166141000Y-73025000D03*
D38*
X172441000Y-70725000D03*
%TD*%
M02*
