%TF.GenerationSoftware,KiCad,Pcbnew,7.0.7*%
%TF.CreationDate,2024-06-14T16:47:01-05:00*%
%TF.ProjectId,Rev2.2,52657632-2e32-42e6-9b69-6361645f7063,rev?*%
%TF.SameCoordinates,Original*%
%TF.FileFunction,Copper,L2,Inr*%
%TF.FilePolarity,Positive*%
%FSLAX46Y46*%
G04 Gerber Fmt 4.6, Leading zero omitted, Abs format (unit mm)*
G04 Created by KiCad (PCBNEW 7.0.7) date 2024-06-14 16:47:01*
%MOMM*%
%LPD*%
G01*
G04 APERTURE LIST*
%TA.AperFunction,ComponentPad*%
%ADD10R,2.600000X2.600000*%
%TD*%
%TA.AperFunction,ComponentPad*%
%ADD11C,2.600000*%
%TD*%
%TA.AperFunction,ComponentPad*%
%ADD12C,0.800000*%
%TD*%
%TA.AperFunction,ComponentPad*%
%ADD13C,6.400000*%
%TD*%
%TA.AperFunction,ComponentPad*%
%ADD14R,1.700000X1.700000*%
%TD*%
%TA.AperFunction,ComponentPad*%
%ADD15O,1.700000X1.700000*%
%TD*%
%TA.AperFunction,ComponentPad*%
%ADD16R,2.200000X2.200000*%
%TD*%
%TA.AperFunction,ComponentPad*%
%ADD17C,2.200000*%
%TD*%
%TA.AperFunction,ViaPad*%
%ADD18C,0.800000*%
%TD*%
%TA.AperFunction,ViaPad*%
%ADD19C,0.500000*%
%TD*%
G04 APERTURE END LIST*
D10*
%TO.N,Net-(J13-Pin_1)*%
%TO.C,J13*%
X108675000Y-98825000D03*
D11*
%TO.N,Net-(J13-Pin_2)*%
X108675000Y-103825000D03*
%TO.N,Net-(J13-Pin_3)*%
X108675000Y-108825000D03*
%TO.N,Net-(J13-Pin_4)*%
X108675000Y-113825000D03*
%TD*%
D12*
%TO.N,GND*%
%TO.C,H4*%
X184000000Y-64500000D03*
X184702944Y-62802944D03*
X184702944Y-66197056D03*
X186400000Y-62100000D03*
D13*
X186400000Y-64500000D03*
D12*
X186400000Y-66900000D03*
X188097056Y-62802944D03*
X188097056Y-66197056D03*
X188800000Y-64500000D03*
%TD*%
D14*
%TO.N,+5V*%
%TO.C,J12*%
X190500000Y-70226000D03*
D15*
%TO.N,GND*%
X190500000Y-72766000D03*
%TD*%
D16*
%TO.N,/CAN2-*%
%TO.C,J2*%
X137050000Y-64225000D03*
D17*
%TO.N,/CAN2+*%
X134510000Y-64225000D03*
%TD*%
D10*
%TO.N,GPIO1*%
%TO.C,J7*%
X108750000Y-72850000D03*
D11*
%TO.N,GPIO2*%
X108750000Y-77850000D03*
%TO.N,GPIO3*%
X108750000Y-82850000D03*
%TO.N,GPIO4*%
X108750000Y-87850000D03*
%TD*%
D10*
%TO.N,Net-(J16-Pin_1)*%
%TO.C,J16*%
X108675000Y-119950000D03*
D11*
%TO.N,Net-(J16-Pin_2)*%
X108675000Y-124950000D03*
%TO.N,Net-(J16-Pin_3)*%
X108675000Y-129950000D03*
%TO.N,Net-(J16-Pin_4)*%
X108675000Y-134950000D03*
%TD*%
D12*
%TO.N,GND*%
%TO.C,H1*%
X105000000Y-64500000D03*
X105702944Y-62802944D03*
X105702944Y-66197056D03*
X107400000Y-62100000D03*
D13*
X107400000Y-64500000D03*
D12*
X107400000Y-66900000D03*
X109097056Y-62802944D03*
X109097056Y-66197056D03*
X109800000Y-64500000D03*
%TD*%
%TO.N,GND*%
%TO.C,H2*%
X105000000Y-146200000D03*
X105702944Y-144502944D03*
X105702944Y-147897056D03*
X107400000Y-143800000D03*
D13*
X107400000Y-146200000D03*
D12*
X107400000Y-148600000D03*
X109097056Y-144502944D03*
X109097056Y-147897056D03*
X109800000Y-146200000D03*
%TD*%
D10*
%TO.N,Net-(J9-Pin_1)*%
%TO.C,J9*%
X161275000Y-145475000D03*
D11*
%TO.N,Net-(J9-Pin_2)*%
X166275000Y-145475000D03*
%TO.N,Net-(J9-Pin_3)*%
X171275000Y-145475000D03*
%TO.N,Net-(J9-Pin_4)*%
X176275000Y-145475000D03*
%TD*%
D14*
%TO.N,/CAN1-*%
%TO.C,J3*%
X156125000Y-68250000D03*
D15*
%TO.N,/CAN1+*%
X156125000Y-70790000D03*
%TD*%
D14*
%TO.N,+3.3V*%
%TO.C,J11*%
X180975000Y-70104000D03*
D15*
%TO.N,GND*%
X180975000Y-72644000D03*
%TD*%
D10*
%TO.N,Net-(J18-Pin_1)*%
%TO.C,J18*%
X118900000Y-145455000D03*
D11*
%TO.N,Net-(J18-Pin_2)*%
X123900000Y-145455000D03*
%TO.N,Net-(J18-Pin_3)*%
X128900000Y-145455000D03*
%TO.N,Net-(J18-Pin_4)*%
X133900000Y-145455000D03*
%TD*%
D10*
%TO.N,Net-(J8-Pin_1)*%
%TO.C,J8*%
X185030000Y-133150000D03*
D11*
%TO.N,Net-(J8-Pin_2)*%
X185030000Y-128150000D03*
%TO.N,Net-(J8-Pin_3)*%
X185030000Y-123150000D03*
%TO.N,Net-(J8-Pin_4)*%
X185030000Y-118150000D03*
%TD*%
D14*
%TO.N,/CAN2-*%
%TO.C,J1*%
X125700000Y-68150000D03*
D15*
%TO.N,/CAN2+*%
X125700000Y-70690000D03*
%TD*%
D14*
%TO.N,USART6_RX*%
%TO.C,J15*%
X177950000Y-89270000D03*
D15*
%TO.N,USART6_TX*%
X177950000Y-91810000D03*
%TO.N,GND*%
X177950000Y-94350000D03*
%TD*%
D14*
%TO.N,SYS_JTMS_SWDIO*%
%TO.C,J5*%
X160075000Y-73325000D03*
D15*
%TO.N,SYS_JTCK_SWCLK*%
X160075000Y-70785000D03*
%TO.N,GND*%
X160075000Y-68245000D03*
%TD*%
D10*
%TO.N,Net-(J17-Pin_1)*%
%TO.C,J17*%
X140075000Y-145475000D03*
D11*
%TO.N,Net-(J17-Pin_2)*%
X145075000Y-145475000D03*
%TO.N,Net-(J17-Pin_3)*%
X150075000Y-145475000D03*
%TO.N,Net-(J17-Pin_4)*%
X155075000Y-145475000D03*
%TD*%
D16*
%TO.N,/CAN1-*%
%TO.C,J4*%
X148970000Y-64225000D03*
D17*
%TO.N,/CAN1+*%
X146430000Y-64225000D03*
%TD*%
D12*
%TO.N,GND*%
%TO.C,H3*%
X184000000Y-146200000D03*
X184702944Y-144502944D03*
X184702944Y-147897056D03*
X186400000Y-143800000D03*
D13*
X186400000Y-146200000D03*
D12*
X186400000Y-148600000D03*
X188097056Y-144502944D03*
X188097056Y-147897056D03*
X188800000Y-146200000D03*
%TD*%
D14*
%TO.N,USART1_RX*%
%TO.C,J10*%
X177950000Y-106770000D03*
D15*
%TO.N,USART1_TX*%
X177950000Y-109310000D03*
%TO.N,GND*%
X177950000Y-111850000D03*
%TD*%
D18*
%TO.N,+3.3V*%
X150775000Y-85925000D03*
X127100000Y-62775000D03*
X138600000Y-110625000D03*
X138500000Y-114500000D03*
X142500000Y-113000000D03*
X148625000Y-111800000D03*
X129017271Y-98298000D03*
X153575000Y-95400000D03*
X128700000Y-92300000D03*
X166751000Y-77470000D03*
X127675000Y-74500000D03*
X127625000Y-85650000D03*
X121650000Y-78375000D03*
X164338000Y-73533000D03*
X139344400Y-84480400D03*
X174625000Y-73025000D03*
X168910000Y-75819000D03*
X129286000Y-104775000D03*
X147497403Y-89237168D03*
X130375000Y-79025000D03*
X131475000Y-107150000D03*
X126425000Y-84950000D03*
X177038000Y-72644000D03*
X153500000Y-101250000D03*
X129032000Y-106172000D03*
X135575000Y-83850000D03*
%TO.N,GND*%
X163830000Y-135128000D03*
X117094000Y-133350000D03*
X155448000Y-131318000D03*
X129794000Y-120904000D03*
X130167358Y-107417358D03*
X164846000Y-136144000D03*
X159875000Y-137450000D03*
X107300000Y-60500000D03*
X175300000Y-111900000D03*
X149098000Y-136144000D03*
X174875000Y-137475000D03*
X182200000Y-64700000D03*
X186400000Y-68800000D03*
X129039751Y-96774000D03*
X129794000Y-122174000D03*
X135125000Y-114975000D03*
X153670000Y-132588000D03*
X166878000Y-68453000D03*
X152908000Y-134112000D03*
X122450000Y-137425000D03*
X117075000Y-93975000D03*
X159766000Y-131064000D03*
X172325000Y-122575000D03*
X138600000Y-137425000D03*
X147025000Y-77325000D03*
X178689000Y-72771000D03*
X119126000Y-126238000D03*
X116950000Y-90025000D03*
X168148000Y-130302000D03*
X140750000Y-113000000D03*
X118275000Y-88650000D03*
X138430000Y-85090000D03*
X170180000Y-132334000D03*
X183800000Y-61500000D03*
X189750000Y-143200000D03*
X138684000Y-139192000D03*
X189625000Y-149425000D03*
X186450000Y-150550000D03*
X174925000Y-116850000D03*
X176975000Y-119600000D03*
X145288000Y-134620000D03*
X178562000Y-134366000D03*
X127254000Y-128270000D03*
X156718000Y-131826000D03*
X160782000Y-135890000D03*
X116400000Y-59400000D03*
X117094000Y-128016000D03*
X182600000Y-80800000D03*
X141732000Y-136144000D03*
X176025000Y-94350000D03*
X178562000Y-135890000D03*
X147875000Y-122575000D03*
X118364000Y-129286000D03*
X179324000Y-137414000D03*
X137000000Y-114500000D03*
X154940000Y-132334000D03*
X118071500Y-114808000D03*
X129250000Y-75500000D03*
X157988000Y-136398000D03*
X118364000Y-136144000D03*
X153924000Y-135128000D03*
X135128000Y-135636000D03*
X148700000Y-137475000D03*
X171196000Y-133350000D03*
X141732000Y-134366000D03*
X117050000Y-103550000D03*
X157988000Y-137414000D03*
X173625000Y-118075000D03*
X145600000Y-122575000D03*
X176975000Y-129500000D03*
X133075000Y-77225000D03*
X129794000Y-118364000D03*
X146304000Y-135890000D03*
X172212000Y-134366000D03*
X183642000Y-72771000D03*
X160782000Y-132080000D03*
X152146000Y-136398000D03*
X154686000Y-133604000D03*
X104100000Y-67200000D03*
X118364000Y-130810000D03*
X129540000Y-128524000D03*
X174244000Y-126492000D03*
X122428000Y-138938000D03*
X135125000Y-116900000D03*
X132625000Y-137425000D03*
X152908000Y-131572000D03*
X130048000Y-127254000D03*
X153500000Y-103000000D03*
X137160000Y-137414000D03*
X113275000Y-131050000D03*
X165100000Y-62357000D03*
X115250000Y-127950000D03*
X172000000Y-87000000D03*
X120621766Y-98653234D03*
X119634000Y-136144000D03*
X158750000Y-130302000D03*
X157988000Y-134874000D03*
X180175000Y-94350000D03*
X157734000Y-132842000D03*
X156972000Y-133858000D03*
X158750000Y-133858000D03*
X135125000Y-111200000D03*
X129794000Y-123444000D03*
X152349200Y-85902800D03*
X132588000Y-139192000D03*
X141025000Y-122550000D03*
X140208000Y-134620000D03*
X190300000Y-90000000D03*
X119634000Y-130302000D03*
X120396000Y-106019600D03*
X190800000Y-102075000D03*
X173600000Y-121500000D03*
X135125000Y-118700000D03*
X167132000Y-129286000D03*
X173228000Y-135382000D03*
X129794000Y-119634000D03*
X103100000Y-64500000D03*
X159258000Y-135890000D03*
X164900000Y-137500000D03*
X152146000Y-134874000D03*
X115175000Y-137250000D03*
X180725000Y-111925000D03*
X162814000Y-129540000D03*
X111600000Y-64800000D03*
X127254000Y-125730000D03*
X116725000Y-115900000D03*
X161544000Y-64643000D03*
X169425000Y-122600000D03*
X122174000Y-134874000D03*
X118872000Y-135128000D03*
X143650000Y-137400000D03*
X127254000Y-116840000D03*
X189200000Y-67600000D03*
X142100000Y-83950000D03*
X166475000Y-122625000D03*
X107400000Y-68500000D03*
X119634000Y-128778000D03*
X159250000Y-122575000D03*
X142748000Y-135382000D03*
X127254000Y-114300000D03*
X114628500Y-99822000D03*
X184800000Y-90000000D03*
X176975000Y-124625000D03*
X118110000Y-127254000D03*
X122650000Y-91325000D03*
X127558800Y-83921600D03*
X155702000Y-134620000D03*
X113300000Y-136025000D03*
X110400000Y-143000000D03*
X166878000Y-133604000D03*
X153650000Y-137475000D03*
X127254000Y-121920000D03*
X183700000Y-67700000D03*
X104300000Y-61700000D03*
X164846000Y-131572000D03*
X128270000Y-128524000D03*
X137906617Y-136397881D03*
X127000000Y-134874000D03*
X190800000Y-99675000D03*
X113250000Y-121375000D03*
X168402000Y-67183000D03*
X129794000Y-125984000D03*
X103100000Y-146000000D03*
X156350000Y-122575000D03*
X151892000Y-133096000D03*
X190200000Y-76600000D03*
X164719000Y-59817000D03*
X149606000Y-132334000D03*
X175260000Y-130556000D03*
X120246500Y-135128000D03*
X143764000Y-136144000D03*
X154178000Y-131318000D03*
X153416000Y-136398000D03*
X127254000Y-123190000D03*
X117094000Y-132334000D03*
X113125000Y-126450000D03*
X107400000Y-142100000D03*
X183225000Y-149325000D03*
X170000000Y-80000000D03*
X172466000Y-59944000D03*
X127254000Y-119380000D03*
X186300000Y-60400000D03*
X116925000Y-92450000D03*
X154940000Y-136144000D03*
X159766000Y-134874000D03*
X128016000Y-136144000D03*
X169925000Y-137450000D03*
X146800000Y-114600000D03*
X190800000Y-94825000D03*
X167894000Y-134620000D03*
X129794000Y-117094000D03*
X150750000Y-122575000D03*
X184800000Y-76600000D03*
X189300000Y-61600000D03*
X110400000Y-149200000D03*
X165862000Y-132588000D03*
X162814000Y-134112000D03*
X121920000Y-136144000D03*
X125444330Y-104120301D03*
X111700000Y-146400000D03*
X129794000Y-124714000D03*
X177025000Y-134450000D03*
X190800000Y-97175000D03*
X115175000Y-132275000D03*
X182825000Y-142950000D03*
X135125000Y-112975000D03*
X144272000Y-133604000D03*
X144750000Y-113500000D03*
X172085000Y-77470000D03*
X126824500Y-79000000D03*
X123444000Y-136144000D03*
X107400000Y-150300000D03*
X147574000Y-136398000D03*
X186375000Y-141675000D03*
X153475000Y-122575000D03*
X161798000Y-133096000D03*
X148082000Y-134874000D03*
X187706000Y-72771000D03*
X149098000Y-133350000D03*
X125476000Y-136144000D03*
X127254000Y-113030000D03*
X156718000Y-135636000D03*
X174925000Y-115075000D03*
X187706000Y-74041000D03*
X143400000Y-122550000D03*
X153550000Y-97100000D03*
X172974000Y-126492000D03*
X172593000Y-62230000D03*
X110400000Y-61700000D03*
X174625000Y-75311000D03*
X122500000Y-62900000D03*
X172212000Y-127508000D03*
X151130000Y-135636000D03*
X135125000Y-120325000D03*
X127769306Y-79055694D03*
X171196000Y-126492000D03*
X162425000Y-122575000D03*
X182400000Y-146150000D03*
X127254000Y-115570000D03*
X118618000Y-132842000D03*
X150876000Y-133858000D03*
X174244000Y-129540000D03*
X150114000Y-134620000D03*
X191300000Y-146300000D03*
X150876000Y-132334000D03*
X115225000Y-122925000D03*
X173625000Y-119900000D03*
X137475000Y-122525000D03*
X169164000Y-131318000D03*
X139100000Y-122550000D03*
X168910000Y-135636000D03*
X173228000Y-128524000D03*
X147320000Y-90220800D03*
X127525000Y-137450000D03*
X127508000Y-139192000D03*
X131064000Y-128524000D03*
X126746000Y-136144000D03*
X110500000Y-67700000D03*
X180975000Y-74930000D03*
X146812000Y-133858000D03*
X119634000Y-131826000D03*
X155956000Y-133096000D03*
X175514000Y-126492000D03*
X163830000Y-130556000D03*
X129794000Y-114808000D03*
X103900000Y-143400000D03*
X140970000Y-135382000D03*
X175641000Y-64643000D03*
X160000000Y-65750000D03*
X127254000Y-118110000D03*
X127254000Y-124460000D03*
X190700000Y-64600000D03*
X148082000Y-132334000D03*
X127254000Y-120650000D03*
X136398000Y-136398000D03*
X136325000Y-121575000D03*
X124206000Y-134518400D03*
X166116000Y-128270000D03*
X117575000Y-137500000D03*
X127254000Y-127000000D03*
X104500000Y-149300000D03*
%TO.N,+5V*%
X134660000Y-76962000D03*
X187833000Y-70612000D03*
X166624000Y-66421000D03*
X174371000Y-70612000D03*
X170053000Y-67056000D03*
X169900000Y-83175000D03*
X167325000Y-89225000D03*
X148425000Y-76100000D03*
%TO.N,A10*%
X121920000Y-133604000D03*
X129159000Y-102743000D03*
%TO.N,A12*%
X130048000Y-103759000D03*
X133858000Y-136144000D03*
%TO.N,A6*%
X118475000Y-123075000D03*
D19*
X125150000Y-99224500D03*
D18*
%TO.N,A8*%
X118525000Y-134025000D03*
X121625000Y-99500000D03*
D19*
%TO.N,A4*%
X122964661Y-97410339D03*
D18*
X113325000Y-112625000D03*
%TO.N,LSM6DSOX_CS*%
X124350500Y-77825077D03*
X130600500Y-85750000D03*
%TO.N,LSM6DSOX_int1*%
X129625000Y-82000000D03*
X129950000Y-84875000D03*
%TD*%
%TA.AperFunction,Conductor*%
%TO.N,GND*%
G36*
X108792586Y-147239033D02*
G01*
X109021915Y-147468362D01*
X109055400Y-147529685D01*
X109050416Y-147599377D01*
X109008544Y-147655310D01*
X109003126Y-147659144D01*
X108916816Y-147716815D01*
X108916815Y-147716816D01*
X108859144Y-147803126D01*
X108805532Y-147847930D01*
X108736207Y-147856637D01*
X108673180Y-147826482D01*
X108668362Y-147821915D01*
X108439033Y-147592586D01*
X108405548Y-147531263D01*
X108410532Y-147461571D01*
X108446180Y-147410617D01*
X108534870Y-147334870D01*
X108610617Y-147246180D01*
X108669121Y-147207990D01*
X108738989Y-147207490D01*
X108792586Y-147239033D01*
G37*
%TD.AperFunction*%
%TA.AperFunction,Conductor*%
G36*
X106138428Y-147210531D02*
G01*
X106189381Y-147246179D01*
X106265130Y-147334870D01*
X106328855Y-147389296D01*
X106353816Y-147410615D01*
X106392009Y-147469122D01*
X106392507Y-147538990D01*
X106360965Y-147592586D01*
X106131636Y-147821915D01*
X106070313Y-147855400D01*
X106000621Y-147850416D01*
X105944688Y-147808544D01*
X105940853Y-147803124D01*
X105883184Y-147716816D01*
X105796873Y-147659145D01*
X105752068Y-147605533D01*
X105743361Y-147536208D01*
X105773515Y-147473180D01*
X105778083Y-147468362D01*
X106007413Y-147239032D01*
X106068736Y-147205547D01*
X106138428Y-147210531D01*
G37*
%TD.AperFunction*%
%TA.AperFunction,Conductor*%
G36*
X108799377Y-144549582D02*
G01*
X108855310Y-144591454D01*
X108859145Y-144596873D01*
X108916816Y-144683184D01*
X109003124Y-144740853D01*
X109047930Y-144794465D01*
X109056637Y-144863790D01*
X109026483Y-144926817D01*
X109021915Y-144931636D01*
X108792586Y-145160965D01*
X108731263Y-145194450D01*
X108661571Y-145189466D01*
X108610615Y-145153816D01*
X108589296Y-145128855D01*
X108534870Y-145065130D01*
X108446179Y-144989381D01*
X108407989Y-144930878D01*
X108407489Y-144861010D01*
X108439032Y-144807413D01*
X108668362Y-144578083D01*
X108729685Y-144544598D01*
X108799377Y-144549582D01*
G37*
%TD.AperFunction*%
%TA.AperFunction,Conductor*%
G36*
X106126818Y-144573516D02*
G01*
X106131637Y-144578084D01*
X106360966Y-144807413D01*
X106394451Y-144868736D01*
X106389467Y-144938428D01*
X106353817Y-144989384D01*
X106265130Y-145065130D01*
X106189384Y-145153817D01*
X106130877Y-145192010D01*
X106061009Y-145192508D01*
X106007413Y-145160966D01*
X105778084Y-144931637D01*
X105744599Y-144870314D01*
X105749583Y-144800622D01*
X105791455Y-144744689D01*
X105796874Y-144740854D01*
X105800487Y-144738439D01*
X105800489Y-144738439D01*
X105883184Y-144683184D01*
X105938439Y-144600489D01*
X105938439Y-144600487D01*
X105940854Y-144596874D01*
X105994466Y-144552069D01*
X106063791Y-144543362D01*
X106126818Y-144573516D01*
G37*
%TD.AperFunction*%
%TA.AperFunction,Conductor*%
G36*
X187792586Y-147239033D02*
G01*
X188021915Y-147468362D01*
X188055400Y-147529685D01*
X188050416Y-147599377D01*
X188008544Y-147655310D01*
X188003126Y-147659144D01*
X187916816Y-147716815D01*
X187916815Y-147716816D01*
X187859144Y-147803126D01*
X187805532Y-147847930D01*
X187736207Y-147856637D01*
X187673180Y-147826482D01*
X187668362Y-147821915D01*
X187439033Y-147592586D01*
X187405548Y-147531263D01*
X187410532Y-147461571D01*
X187446180Y-147410617D01*
X187534870Y-147334870D01*
X187610617Y-147246180D01*
X187669121Y-147207990D01*
X187738989Y-147207490D01*
X187792586Y-147239033D01*
G37*
%TD.AperFunction*%
%TA.AperFunction,Conductor*%
G36*
X185138428Y-147210531D02*
G01*
X185189381Y-147246179D01*
X185265130Y-147334870D01*
X185328855Y-147389296D01*
X185353816Y-147410615D01*
X185392009Y-147469122D01*
X185392507Y-147538990D01*
X185360965Y-147592586D01*
X185131636Y-147821915D01*
X185070313Y-147855400D01*
X185000621Y-147850416D01*
X184944688Y-147808544D01*
X184940853Y-147803124D01*
X184883184Y-147716816D01*
X184796873Y-147659145D01*
X184752068Y-147605533D01*
X184743361Y-147536208D01*
X184773515Y-147473180D01*
X184778083Y-147468362D01*
X185007413Y-147239032D01*
X185068736Y-147205547D01*
X185138428Y-147210531D01*
G37*
%TD.AperFunction*%
%TA.AperFunction,Conductor*%
G36*
X187799377Y-144549582D02*
G01*
X187855310Y-144591454D01*
X187859145Y-144596873D01*
X187916816Y-144683184D01*
X188003124Y-144740853D01*
X188047930Y-144794465D01*
X188056637Y-144863790D01*
X188026483Y-144926817D01*
X188021915Y-144931636D01*
X187792586Y-145160965D01*
X187731263Y-145194450D01*
X187661571Y-145189466D01*
X187610615Y-145153816D01*
X187589296Y-145128855D01*
X187534870Y-145065130D01*
X187446179Y-144989381D01*
X187407989Y-144930878D01*
X187407489Y-144861010D01*
X187439032Y-144807413D01*
X187668362Y-144578083D01*
X187729685Y-144544598D01*
X187799377Y-144549582D01*
G37*
%TD.AperFunction*%
%TA.AperFunction,Conductor*%
G36*
X185126818Y-144573516D02*
G01*
X185131637Y-144578084D01*
X185360966Y-144807413D01*
X185394451Y-144868736D01*
X185389467Y-144938428D01*
X185353817Y-144989384D01*
X185265130Y-145065130D01*
X185189384Y-145153817D01*
X185130877Y-145192010D01*
X185061009Y-145192508D01*
X185007413Y-145160966D01*
X184778084Y-144931637D01*
X184744599Y-144870314D01*
X184749583Y-144800622D01*
X184791455Y-144744689D01*
X184796874Y-144740854D01*
X184800487Y-144738439D01*
X184800489Y-144738439D01*
X184883184Y-144683184D01*
X184938439Y-144600489D01*
X184938439Y-144600487D01*
X184940854Y-144596874D01*
X184994466Y-144552069D01*
X185063791Y-144543362D01*
X185126818Y-144573516D01*
G37*
%TD.AperFunction*%
%TA.AperFunction,Conductor*%
G36*
X108792586Y-65539033D02*
G01*
X109021915Y-65768362D01*
X109055400Y-65829685D01*
X109050416Y-65899377D01*
X109008544Y-65955310D01*
X109003126Y-65959144D01*
X108916816Y-66016815D01*
X108916815Y-66016816D01*
X108859144Y-66103126D01*
X108805532Y-66147930D01*
X108736207Y-66156637D01*
X108673180Y-66126482D01*
X108668362Y-66121915D01*
X108439033Y-65892586D01*
X108405548Y-65831263D01*
X108410532Y-65761571D01*
X108446180Y-65710617D01*
X108534870Y-65634870D01*
X108610617Y-65546180D01*
X108669121Y-65507990D01*
X108738989Y-65507490D01*
X108792586Y-65539033D01*
G37*
%TD.AperFunction*%
%TA.AperFunction,Conductor*%
G36*
X106138428Y-65510531D02*
G01*
X106189381Y-65546179D01*
X106265130Y-65634870D01*
X106320949Y-65682544D01*
X106353816Y-65710615D01*
X106392009Y-65769122D01*
X106392507Y-65838990D01*
X106360965Y-65892586D01*
X106131636Y-66121915D01*
X106070313Y-66155400D01*
X106000621Y-66150416D01*
X105944688Y-66108544D01*
X105940853Y-66103124D01*
X105883184Y-66016816D01*
X105796873Y-65959145D01*
X105752068Y-65905533D01*
X105743361Y-65836208D01*
X105773515Y-65773180D01*
X105778083Y-65768362D01*
X106007413Y-65539032D01*
X106068736Y-65505547D01*
X106138428Y-65510531D01*
G37*
%TD.AperFunction*%
%TA.AperFunction,Conductor*%
G36*
X108799377Y-62849582D02*
G01*
X108855310Y-62891454D01*
X108859145Y-62896873D01*
X108861560Y-62900488D01*
X108861561Y-62900489D01*
X108916816Y-62983184D01*
X108968197Y-63017516D01*
X109003124Y-63040853D01*
X109047930Y-63094465D01*
X109056637Y-63163790D01*
X109026483Y-63226817D01*
X109021915Y-63231636D01*
X108792586Y-63460965D01*
X108731263Y-63494450D01*
X108661571Y-63489466D01*
X108610615Y-63453816D01*
X108589296Y-63428855D01*
X108534870Y-63365130D01*
X108446179Y-63289381D01*
X108407989Y-63230878D01*
X108407489Y-63161010D01*
X108439032Y-63107413D01*
X108668362Y-62878083D01*
X108729685Y-62844598D01*
X108799377Y-62849582D01*
G37*
%TD.AperFunction*%
%TA.AperFunction,Conductor*%
G36*
X106126818Y-62873516D02*
G01*
X106131637Y-62878084D01*
X106360966Y-63107413D01*
X106394451Y-63168736D01*
X106389467Y-63238428D01*
X106353817Y-63289384D01*
X106265130Y-63365130D01*
X106189384Y-63453817D01*
X106130877Y-63492010D01*
X106061009Y-63492508D01*
X106007413Y-63460966D01*
X105778084Y-63231637D01*
X105744599Y-63170314D01*
X105749583Y-63100622D01*
X105791455Y-63044689D01*
X105796874Y-63040854D01*
X105800487Y-63038439D01*
X105800489Y-63038439D01*
X105883184Y-62983184D01*
X105938439Y-62900489D01*
X105938439Y-62900487D01*
X105940854Y-62896874D01*
X105994466Y-62852069D01*
X106063791Y-62843362D01*
X106126818Y-62873516D01*
G37*
%TD.AperFunction*%
%TA.AperFunction,Conductor*%
G36*
X187792586Y-65539033D02*
G01*
X188021915Y-65768362D01*
X188055400Y-65829685D01*
X188050416Y-65899377D01*
X188008544Y-65955310D01*
X188003126Y-65959144D01*
X187916816Y-66016815D01*
X187916815Y-66016816D01*
X187859144Y-66103126D01*
X187805532Y-66147930D01*
X187736207Y-66156637D01*
X187673180Y-66126482D01*
X187668362Y-66121915D01*
X187439033Y-65892586D01*
X187405548Y-65831263D01*
X187410532Y-65761571D01*
X187446180Y-65710617D01*
X187534870Y-65634870D01*
X187610617Y-65546180D01*
X187669121Y-65507990D01*
X187738989Y-65507490D01*
X187792586Y-65539033D01*
G37*
%TD.AperFunction*%
%TA.AperFunction,Conductor*%
G36*
X185138428Y-65510531D02*
G01*
X185189381Y-65546179D01*
X185265130Y-65634870D01*
X185320949Y-65682544D01*
X185353816Y-65710615D01*
X185392009Y-65769122D01*
X185392507Y-65838990D01*
X185360965Y-65892586D01*
X185131636Y-66121915D01*
X185070313Y-66155400D01*
X185000621Y-66150416D01*
X184944688Y-66108544D01*
X184940853Y-66103124D01*
X184883184Y-66016816D01*
X184796873Y-65959145D01*
X184752068Y-65905533D01*
X184743361Y-65836208D01*
X184773515Y-65773180D01*
X184778083Y-65768362D01*
X185007413Y-65539032D01*
X185068736Y-65505547D01*
X185138428Y-65510531D01*
G37*
%TD.AperFunction*%
%TA.AperFunction,Conductor*%
G36*
X187799377Y-62849582D02*
G01*
X187855310Y-62891454D01*
X187859145Y-62896873D01*
X187861560Y-62900488D01*
X187861561Y-62900489D01*
X187916816Y-62983184D01*
X187968197Y-63017516D01*
X188003124Y-63040853D01*
X188047930Y-63094465D01*
X188056637Y-63163790D01*
X188026483Y-63226817D01*
X188021915Y-63231636D01*
X187792586Y-63460965D01*
X187731263Y-63494450D01*
X187661571Y-63489466D01*
X187610615Y-63453816D01*
X187589296Y-63428855D01*
X187534870Y-63365130D01*
X187446179Y-63289381D01*
X187407989Y-63230878D01*
X187407489Y-63161010D01*
X187439032Y-63107413D01*
X187668362Y-62878083D01*
X187729685Y-62844598D01*
X187799377Y-62849582D01*
G37*
%TD.AperFunction*%
%TA.AperFunction,Conductor*%
G36*
X185126818Y-62873516D02*
G01*
X185131637Y-62878084D01*
X185360966Y-63107413D01*
X185394451Y-63168736D01*
X185389467Y-63238428D01*
X185353817Y-63289384D01*
X185265130Y-63365130D01*
X185189384Y-63453817D01*
X185130877Y-63492010D01*
X185061009Y-63492508D01*
X185007413Y-63460966D01*
X184778084Y-63231637D01*
X184744599Y-63170314D01*
X184749583Y-63100622D01*
X184791455Y-63044689D01*
X184796874Y-63040854D01*
X184800487Y-63038439D01*
X184800489Y-63038439D01*
X184883184Y-62983184D01*
X184938439Y-62900489D01*
X184938439Y-62900487D01*
X184940854Y-62896874D01*
X184994466Y-62852069D01*
X185063791Y-62843362D01*
X185126818Y-62873516D01*
G37*
%TD.AperFunction*%
%TA.AperFunction,Conductor*%
G36*
X186864737Y-58267889D02*
G01*
X186869312Y-58268232D01*
X187329160Y-58320045D01*
X187333713Y-58320732D01*
X187788357Y-58406755D01*
X187792879Y-58407787D01*
X188002547Y-58463967D01*
X188239838Y-58527549D01*
X188244259Y-58528914D01*
X188681010Y-58681739D01*
X188685327Y-58683434D01*
X189109438Y-58868472D01*
X189113611Y-58870481D01*
X189522707Y-59086694D01*
X189526707Y-59089004D01*
X189918505Y-59335187D01*
X189922337Y-59337800D01*
X190294626Y-59612561D01*
X190298253Y-59615453D01*
X190648989Y-59917286D01*
X190652389Y-59920441D01*
X190979558Y-60247610D01*
X190982713Y-60251010D01*
X191284546Y-60601746D01*
X191287438Y-60605373D01*
X191562199Y-60977662D01*
X191564812Y-60981494D01*
X191810995Y-61373292D01*
X191813314Y-61377308D01*
X192029515Y-61786382D01*
X192031527Y-61790561D01*
X192216565Y-62214672D01*
X192218260Y-62218989D01*
X192371085Y-62655740D01*
X192372453Y-62660172D01*
X192492212Y-63107120D01*
X192493244Y-63111642D01*
X192579266Y-63566280D01*
X192579957Y-63570861D01*
X192601951Y-63766063D01*
X192631765Y-64030668D01*
X192632112Y-64035293D01*
X192649500Y-64500000D01*
X192649500Y-146200000D01*
X192632112Y-146664706D01*
X192631765Y-146669331D01*
X192579958Y-147129133D01*
X192579266Y-147133719D01*
X192493244Y-147588357D01*
X192492212Y-147592879D01*
X192372453Y-148039827D01*
X192371085Y-148044259D01*
X192218260Y-148481010D01*
X192216565Y-148485327D01*
X192031527Y-148909438D01*
X192029515Y-148913617D01*
X191813314Y-149322691D01*
X191810995Y-149326707D01*
X191564812Y-149718505D01*
X191562199Y-149722337D01*
X191287438Y-150094626D01*
X191284546Y-150098253D01*
X190982713Y-150448989D01*
X190979558Y-150452389D01*
X190652389Y-150779558D01*
X190648989Y-150782713D01*
X190298253Y-151084546D01*
X190294626Y-151087438D01*
X189922337Y-151362199D01*
X189918505Y-151364812D01*
X189526707Y-151610995D01*
X189522691Y-151613314D01*
X189113617Y-151829515D01*
X189109438Y-151831527D01*
X188685327Y-152016565D01*
X188681010Y-152018260D01*
X188244259Y-152171085D01*
X188239827Y-152172453D01*
X187792879Y-152292212D01*
X187788357Y-152293244D01*
X187333719Y-152379266D01*
X187329134Y-152379957D01*
X187246698Y-152389246D01*
X186869331Y-152431765D01*
X186864711Y-152432111D01*
X186400000Y-152449500D01*
X107400000Y-152449500D01*
X106935286Y-152432111D01*
X106930668Y-152431765D01*
X106700767Y-152405861D01*
X106470861Y-152379957D01*
X106466280Y-152379266D01*
X106011642Y-152293244D01*
X106007120Y-152292212D01*
X105560172Y-152172453D01*
X105555740Y-152171085D01*
X105118989Y-152018260D01*
X105114672Y-152016565D01*
X104690561Y-151831527D01*
X104686382Y-151829515D01*
X104526668Y-151745104D01*
X104277301Y-151613310D01*
X104273292Y-151610995D01*
X103881494Y-151364812D01*
X103877662Y-151362199D01*
X103505373Y-151087438D01*
X103501746Y-151084546D01*
X103151010Y-150782713D01*
X103147610Y-150779558D01*
X102820441Y-150452389D01*
X102817286Y-150448989D01*
X102515453Y-150098253D01*
X102512561Y-150094626D01*
X102237800Y-149722337D01*
X102235187Y-149718505D01*
X101989004Y-149326707D01*
X101986694Y-149322707D01*
X101770481Y-148913611D01*
X101768472Y-148909438D01*
X101583434Y-148485327D01*
X101581739Y-148481010D01*
X101428914Y-148044259D01*
X101427546Y-148039827D01*
X101409424Y-147972196D01*
X101325543Y-147659145D01*
X101307787Y-147592879D01*
X101306755Y-147588357D01*
X101274648Y-147418666D01*
X101220732Y-147133713D01*
X101220045Y-147129160D01*
X101168232Y-146669312D01*
X101167889Y-146664737D01*
X101150500Y-146200000D01*
X103694922Y-146200000D01*
X103715219Y-146587287D01*
X103775886Y-146970323D01*
X103775887Y-146970330D01*
X103876262Y-147344936D01*
X104015244Y-147706994D01*
X104191310Y-148052543D01*
X104402531Y-148377793D01*
X104611095Y-148635350D01*
X104611096Y-148635350D01*
X105274250Y-147972195D01*
X105335573Y-147938710D01*
X105405264Y-147943694D01*
X105461198Y-147985565D01*
X105465033Y-147990985D01*
X105522704Y-148077296D01*
X105609012Y-148134965D01*
X105653818Y-148188577D01*
X105662525Y-148257902D01*
X105632371Y-148320929D01*
X105627803Y-148325748D01*
X104964648Y-148988902D01*
X104964649Y-148988904D01*
X105222206Y-149197468D01*
X105547456Y-149408689D01*
X105893005Y-149584755D01*
X106255063Y-149723737D01*
X106629669Y-149824112D01*
X106629676Y-149824113D01*
X107012712Y-149884780D01*
X107399999Y-149905078D01*
X107400001Y-149905078D01*
X107787287Y-149884780D01*
X108170323Y-149824113D01*
X108170330Y-149824112D01*
X108544936Y-149723737D01*
X108906994Y-149584755D01*
X109252543Y-149408689D01*
X109577783Y-149197476D01*
X109577785Y-149197475D01*
X109835349Y-148988902D01*
X109172196Y-148325749D01*
X109138711Y-148264426D01*
X109143695Y-148194734D01*
X109185567Y-148138801D01*
X109190986Y-148134966D01*
X109194599Y-148132551D01*
X109194601Y-148132551D01*
X109277296Y-148077296D01*
X109332551Y-147994601D01*
X109332551Y-147994599D01*
X109334966Y-147990986D01*
X109388578Y-147946181D01*
X109457903Y-147937474D01*
X109520930Y-147967628D01*
X109525749Y-147972196D01*
X110188902Y-148635349D01*
X110397475Y-148377785D01*
X110397476Y-148377783D01*
X110608689Y-148052543D01*
X110784755Y-147706994D01*
X110923737Y-147344936D01*
X111024112Y-146970330D01*
X111024113Y-146970323D01*
X111050635Y-146802870D01*
X117099500Y-146802870D01*
X117099501Y-146802876D01*
X117105908Y-146862483D01*
X117156202Y-146997328D01*
X117156206Y-146997335D01*
X117242452Y-147112544D01*
X117242455Y-147112547D01*
X117357664Y-147198793D01*
X117357671Y-147198797D01*
X117492517Y-147249091D01*
X117492516Y-147249091D01*
X117499444Y-147249835D01*
X117552127Y-147255500D01*
X120247872Y-147255499D01*
X120307483Y-147249091D01*
X120442331Y-147198796D01*
X120557546Y-147112546D01*
X120643796Y-146997331D01*
X120694091Y-146862483D01*
X120700500Y-146802873D01*
X120700500Y-145455004D01*
X122094451Y-145455004D01*
X122114616Y-145724101D01*
X122174664Y-145987188D01*
X122174666Y-145987195D01*
X122182515Y-146007195D01*
X122273257Y-146238398D01*
X122408185Y-146472102D01*
X122544080Y-146642509D01*
X122576442Y-146683089D01*
X122763183Y-146856358D01*
X122774259Y-146866635D01*
X122997226Y-147018651D01*
X123240359Y-147135738D01*
X123498228Y-147215280D01*
X123498229Y-147215280D01*
X123498232Y-147215281D01*
X123765063Y-147255499D01*
X123765068Y-147255499D01*
X123765071Y-147255500D01*
X123765072Y-147255500D01*
X124034928Y-147255500D01*
X124034929Y-147255500D01*
X124034936Y-147255499D01*
X124301767Y-147215281D01*
X124301768Y-147215280D01*
X124301772Y-147215280D01*
X124559641Y-147135738D01*
X124802775Y-147018651D01*
X125025741Y-146866635D01*
X125202006Y-146703085D01*
X125223557Y-146683089D01*
X125223557Y-146683087D01*
X125223561Y-146683085D01*
X125391815Y-146472102D01*
X125526743Y-146238398D01*
X125625334Y-145987195D01*
X125685383Y-145724103D01*
X125704050Y-145475004D01*
X125705549Y-145455004D01*
X127094451Y-145455004D01*
X127114616Y-145724101D01*
X127174664Y-145987188D01*
X127174666Y-145987195D01*
X127182515Y-146007195D01*
X127273257Y-146238398D01*
X127408185Y-146472102D01*
X127544080Y-146642509D01*
X127576442Y-146683089D01*
X127763183Y-146856358D01*
X127774259Y-146866635D01*
X127997226Y-147018651D01*
X128240359Y-147135738D01*
X128498228Y-147215280D01*
X128498229Y-147215280D01*
X128498232Y-147215281D01*
X128765063Y-147255499D01*
X128765068Y-147255499D01*
X128765071Y-147255500D01*
X128765072Y-147255500D01*
X129034928Y-147255500D01*
X129034929Y-147255500D01*
X129034936Y-147255499D01*
X129301767Y-147215281D01*
X129301768Y-147215280D01*
X129301772Y-147215280D01*
X129559641Y-147135738D01*
X129802775Y-147018651D01*
X130025741Y-146866635D01*
X130202006Y-146703085D01*
X130223557Y-146683089D01*
X130223557Y-146683087D01*
X130223561Y-146683085D01*
X130391815Y-146472102D01*
X130526743Y-146238398D01*
X130625334Y-145987195D01*
X130685383Y-145724103D01*
X130704050Y-145475004D01*
X130705549Y-145455004D01*
X132094451Y-145455004D01*
X132114616Y-145724101D01*
X132174664Y-145987188D01*
X132174666Y-145987195D01*
X132182515Y-146007195D01*
X132273257Y-146238398D01*
X132408185Y-146472102D01*
X132544080Y-146642509D01*
X132576442Y-146683089D01*
X132763183Y-146856358D01*
X132774259Y-146866635D01*
X132997226Y-147018651D01*
X133240359Y-147135738D01*
X133498228Y-147215280D01*
X133498229Y-147215280D01*
X133498232Y-147215281D01*
X133765063Y-147255499D01*
X133765068Y-147255499D01*
X133765071Y-147255500D01*
X133765072Y-147255500D01*
X134034928Y-147255500D01*
X134034929Y-147255500D01*
X134034936Y-147255499D01*
X134301767Y-147215281D01*
X134301768Y-147215280D01*
X134301772Y-147215280D01*
X134559641Y-147135738D01*
X134802775Y-147018651D01*
X135025741Y-146866635D01*
X135072908Y-146822870D01*
X138274500Y-146822870D01*
X138274501Y-146822876D01*
X138280908Y-146882483D01*
X138331202Y-147017328D01*
X138331206Y-147017335D01*
X138417452Y-147132544D01*
X138417455Y-147132547D01*
X138532664Y-147218793D01*
X138532671Y-147218797D01*
X138667517Y-147269091D01*
X138667516Y-147269091D01*
X138674444Y-147269835D01*
X138727127Y-147275500D01*
X141422872Y-147275499D01*
X141482483Y-147269091D01*
X141617331Y-147218796D01*
X141732546Y-147132546D01*
X141818796Y-147017331D01*
X141869091Y-146882483D01*
X141875500Y-146822873D01*
X141875500Y-145475004D01*
X143269451Y-145475004D01*
X143289616Y-145744101D01*
X143345101Y-145987195D01*
X143349666Y-146007195D01*
X143448257Y-146258398D01*
X143583185Y-146492102D01*
X143659093Y-146587287D01*
X143751442Y-146703089D01*
X143923228Y-146862482D01*
X143949259Y-146886635D01*
X144172226Y-147038651D01*
X144415359Y-147155738D01*
X144673228Y-147235280D01*
X144673229Y-147235280D01*
X144673232Y-147235281D01*
X144940063Y-147275499D01*
X144940068Y-147275499D01*
X144940071Y-147275500D01*
X144940072Y-147275500D01*
X145209928Y-147275500D01*
X145209929Y-147275500D01*
X145209936Y-147275499D01*
X145476767Y-147235281D01*
X145476768Y-147235280D01*
X145476772Y-147235280D01*
X145734641Y-147155738D01*
X145977775Y-147038651D01*
X146200741Y-146886635D01*
X146398561Y-146703085D01*
X146566815Y-146492102D01*
X146701743Y-146258398D01*
X146800334Y-146007195D01*
X146860383Y-145744103D01*
X146880549Y-145475004D01*
X148269451Y-145475004D01*
X148289616Y-145744101D01*
X148345101Y-145987195D01*
X148349666Y-146007195D01*
X148448257Y-146258398D01*
X148583185Y-146492102D01*
X148659093Y-146587287D01*
X148751442Y-146703089D01*
X148923228Y-146862482D01*
X148949259Y-146886635D01*
X149172226Y-147038651D01*
X149415359Y-147155738D01*
X149673228Y-147235280D01*
X149673229Y-147235280D01*
X149673232Y-147235281D01*
X149940063Y-147275499D01*
X149940068Y-147275499D01*
X149940071Y-147275500D01*
X149940072Y-147275500D01*
X150209928Y-147275500D01*
X150209929Y-147275500D01*
X150209936Y-147275499D01*
X150476767Y-147235281D01*
X150476768Y-147235280D01*
X150476772Y-147235280D01*
X150734641Y-147155738D01*
X150977775Y-147038651D01*
X151200741Y-146886635D01*
X151398561Y-146703085D01*
X151566815Y-146492102D01*
X151701743Y-146258398D01*
X151800334Y-146007195D01*
X151860383Y-145744103D01*
X151880549Y-145475004D01*
X153269451Y-145475004D01*
X153289616Y-145744101D01*
X153345101Y-145987195D01*
X153349666Y-146007195D01*
X153448257Y-146258398D01*
X153583185Y-146492102D01*
X153659093Y-146587287D01*
X153751442Y-146703089D01*
X153923228Y-146862482D01*
X153949259Y-146886635D01*
X154172226Y-147038651D01*
X154415359Y-147155738D01*
X154673228Y-147235280D01*
X154673229Y-147235280D01*
X154673232Y-147235281D01*
X154940063Y-147275499D01*
X154940068Y-147275499D01*
X154940071Y-147275500D01*
X154940072Y-147275500D01*
X155209928Y-147275500D01*
X155209929Y-147275500D01*
X155209936Y-147275499D01*
X155476767Y-147235281D01*
X155476768Y-147235280D01*
X155476772Y-147235280D01*
X155734641Y-147155738D01*
X155977775Y-147038651D01*
X156200741Y-146886635D01*
X156269463Y-146822870D01*
X159474500Y-146822870D01*
X159474501Y-146822876D01*
X159480908Y-146882483D01*
X159531202Y-147017328D01*
X159531206Y-147017335D01*
X159617452Y-147132544D01*
X159617455Y-147132547D01*
X159732664Y-147218793D01*
X159732671Y-147218797D01*
X159867517Y-147269091D01*
X159867516Y-147269091D01*
X159874444Y-147269835D01*
X159927127Y-147275500D01*
X162622872Y-147275499D01*
X162682483Y-147269091D01*
X162817331Y-147218796D01*
X162932546Y-147132546D01*
X163018796Y-147017331D01*
X163069091Y-146882483D01*
X163075500Y-146822873D01*
X163075500Y-145475004D01*
X164469451Y-145475004D01*
X164489616Y-145744101D01*
X164545101Y-145987195D01*
X164549666Y-146007195D01*
X164648257Y-146258398D01*
X164783185Y-146492102D01*
X164859093Y-146587287D01*
X164951442Y-146703089D01*
X165123228Y-146862482D01*
X165149259Y-146886635D01*
X165372226Y-147038651D01*
X165615359Y-147155738D01*
X165873228Y-147235280D01*
X165873229Y-147235280D01*
X165873232Y-147235281D01*
X166140063Y-147275499D01*
X166140068Y-147275499D01*
X166140071Y-147275500D01*
X166140072Y-147275500D01*
X166409928Y-147275500D01*
X166409929Y-147275500D01*
X166409936Y-147275499D01*
X166676767Y-147235281D01*
X166676768Y-147235280D01*
X166676772Y-147235280D01*
X166934641Y-147155738D01*
X167177775Y-147038651D01*
X167400741Y-146886635D01*
X167598561Y-146703085D01*
X167766815Y-146492102D01*
X167901743Y-146258398D01*
X168000334Y-146007195D01*
X168060383Y-145744103D01*
X168080549Y-145475004D01*
X169469451Y-145475004D01*
X169489616Y-145744101D01*
X169545101Y-145987195D01*
X169549666Y-146007195D01*
X169648257Y-146258398D01*
X169783185Y-146492102D01*
X169859093Y-146587287D01*
X169951442Y-146703089D01*
X170123228Y-146862482D01*
X170149259Y-146886635D01*
X170372226Y-147038651D01*
X170615359Y-147155738D01*
X170873228Y-147235280D01*
X170873229Y-147235280D01*
X170873232Y-147235281D01*
X171140063Y-147275499D01*
X171140068Y-147275499D01*
X171140071Y-147275500D01*
X171140072Y-147275500D01*
X171409928Y-147275500D01*
X171409929Y-147275500D01*
X171409936Y-147275499D01*
X171676767Y-147235281D01*
X171676768Y-147235280D01*
X171676772Y-147235280D01*
X171934641Y-147155738D01*
X172177775Y-147038651D01*
X172400741Y-146886635D01*
X172598561Y-146703085D01*
X172766815Y-146492102D01*
X172901743Y-146258398D01*
X173000334Y-146007195D01*
X173060383Y-145744103D01*
X173080549Y-145475004D01*
X174469451Y-145475004D01*
X174489616Y-145744101D01*
X174545101Y-145987195D01*
X174549666Y-146007195D01*
X174648257Y-146258398D01*
X174783185Y-146492102D01*
X174859093Y-146587287D01*
X174951442Y-146703089D01*
X175123228Y-146862482D01*
X175149259Y-146886635D01*
X175372226Y-147038651D01*
X175615359Y-147155738D01*
X175873228Y-147235280D01*
X175873229Y-147235280D01*
X175873232Y-147235281D01*
X176140063Y-147275499D01*
X176140068Y-147275499D01*
X176140071Y-147275500D01*
X176140072Y-147275500D01*
X176409928Y-147275500D01*
X176409929Y-147275500D01*
X176409936Y-147275499D01*
X176676767Y-147235281D01*
X176676768Y-147235280D01*
X176676772Y-147235280D01*
X176934641Y-147155738D01*
X177177775Y-147038651D01*
X177400741Y-146886635D01*
X177598561Y-146703085D01*
X177766815Y-146492102D01*
X177901743Y-146258398D01*
X177924663Y-146200000D01*
X182694922Y-146200000D01*
X182715219Y-146587287D01*
X182775886Y-146970323D01*
X182775887Y-146970330D01*
X182876262Y-147344936D01*
X183015244Y-147706994D01*
X183191310Y-148052543D01*
X183402531Y-148377793D01*
X183611095Y-148635350D01*
X183611096Y-148635350D01*
X184274250Y-147972195D01*
X184335573Y-147938710D01*
X184405264Y-147943694D01*
X184461198Y-147985565D01*
X184465033Y-147990985D01*
X184522704Y-148077296D01*
X184609012Y-148134965D01*
X184653818Y-148188577D01*
X184662525Y-148257902D01*
X184632371Y-148320929D01*
X184627803Y-148325748D01*
X183964648Y-148988902D01*
X183964649Y-148988904D01*
X184222206Y-149197468D01*
X184547456Y-149408689D01*
X184893005Y-149584755D01*
X185255063Y-149723737D01*
X185629669Y-149824112D01*
X185629676Y-149824113D01*
X186012712Y-149884780D01*
X186399999Y-149905078D01*
X186400001Y-149905078D01*
X186787287Y-149884780D01*
X187170323Y-149824113D01*
X187170330Y-149824112D01*
X187544936Y-149723737D01*
X187906994Y-149584755D01*
X188252543Y-149408689D01*
X188577783Y-149197476D01*
X188577785Y-149197475D01*
X188835349Y-148988902D01*
X188172196Y-148325749D01*
X188138711Y-148264426D01*
X188143695Y-148194734D01*
X188185567Y-148138801D01*
X188190986Y-148134966D01*
X188194599Y-148132551D01*
X188194601Y-148132551D01*
X188277296Y-148077296D01*
X188332551Y-147994601D01*
X188332551Y-147994599D01*
X188334966Y-147990986D01*
X188388578Y-147946181D01*
X188457903Y-147937474D01*
X188520930Y-147967628D01*
X188525749Y-147972196D01*
X189188902Y-148635349D01*
X189397475Y-148377785D01*
X189397476Y-148377783D01*
X189608689Y-148052543D01*
X189784755Y-147706994D01*
X189923737Y-147344936D01*
X190024112Y-146970330D01*
X190024113Y-146970323D01*
X190084780Y-146587287D01*
X190105078Y-146200000D01*
X190105078Y-146199999D01*
X190084780Y-145812712D01*
X190024113Y-145429676D01*
X190024112Y-145429669D01*
X189923737Y-145055063D01*
X189784755Y-144693005D01*
X189608689Y-144347456D01*
X189397468Y-144022206D01*
X189188904Y-143764649D01*
X189188902Y-143764648D01*
X188525748Y-144427803D01*
X188464425Y-144461288D01*
X188394733Y-144456304D01*
X188338800Y-144414432D01*
X188334965Y-144409012D01*
X188277296Y-144322704D01*
X188190985Y-144265033D01*
X188146180Y-144211421D01*
X188137473Y-144142096D01*
X188167627Y-144079068D01*
X188172195Y-144074250D01*
X188835350Y-143411096D01*
X188835350Y-143411095D01*
X188577793Y-143202531D01*
X188252543Y-142991310D01*
X187906994Y-142815244D01*
X187544936Y-142676262D01*
X187170330Y-142575887D01*
X187170323Y-142575886D01*
X186787287Y-142515219D01*
X186400001Y-142494922D01*
X186399999Y-142494922D01*
X186012712Y-142515219D01*
X185629676Y-142575886D01*
X185629669Y-142575887D01*
X185255063Y-142676262D01*
X184893005Y-142815244D01*
X184547456Y-142991310D01*
X184222206Y-143202531D01*
X183964648Y-143411095D01*
X183964648Y-143411096D01*
X184627803Y-144074251D01*
X184661288Y-144135574D01*
X184656304Y-144205266D01*
X184614432Y-144261199D01*
X184609013Y-144265034D01*
X184522704Y-144322704D01*
X184465034Y-144409013D01*
X184411422Y-144453818D01*
X184342097Y-144462525D01*
X184279069Y-144432370D01*
X184274251Y-144427803D01*
X183611096Y-143764648D01*
X183611095Y-143764648D01*
X183402531Y-144022206D01*
X183191310Y-144347456D01*
X183015244Y-144693005D01*
X182876262Y-145055063D01*
X182775887Y-145429669D01*
X182775886Y-145429676D01*
X182715219Y-145812712D01*
X182694922Y-146199999D01*
X182694922Y-146200000D01*
X177924663Y-146200000D01*
X178000334Y-146007195D01*
X178060383Y-145744103D01*
X178080549Y-145475000D01*
X178079050Y-145455000D01*
X178060383Y-145205898D01*
X178057213Y-145192010D01*
X178000334Y-144942805D01*
X177901743Y-144691602D01*
X177766815Y-144457898D01*
X177598561Y-144246915D01*
X177598560Y-144246914D01*
X177598557Y-144246910D01*
X177400741Y-144063365D01*
X177278819Y-143980240D01*
X177177775Y-143911349D01*
X177177769Y-143911346D01*
X177177768Y-143911345D01*
X177177767Y-143911344D01*
X176934643Y-143794263D01*
X176934645Y-143794263D01*
X176676773Y-143714720D01*
X176676767Y-143714718D01*
X176409936Y-143674500D01*
X176409929Y-143674500D01*
X176140071Y-143674500D01*
X176140063Y-143674500D01*
X175873232Y-143714718D01*
X175873226Y-143714720D01*
X175615358Y-143794262D01*
X175372230Y-143911346D01*
X175149258Y-144063365D01*
X174951442Y-144246910D01*
X174783185Y-144457898D01*
X174648258Y-144691599D01*
X174648256Y-144691603D01*
X174549666Y-144942804D01*
X174549664Y-144942811D01*
X174489616Y-145205898D01*
X174469451Y-145474995D01*
X174469451Y-145475004D01*
X173080549Y-145475004D01*
X173080549Y-145475000D01*
X173079050Y-145455000D01*
X173060383Y-145205898D01*
X173057213Y-145192010D01*
X173000334Y-144942805D01*
X172901743Y-144691602D01*
X172766815Y-144457898D01*
X172598561Y-144246915D01*
X172598560Y-144246914D01*
X172598557Y-144246910D01*
X172400741Y-144063365D01*
X172278819Y-143980240D01*
X172177775Y-143911349D01*
X172177769Y-143911346D01*
X172177768Y-143911345D01*
X172177767Y-143911344D01*
X171934643Y-143794263D01*
X171934645Y-143794263D01*
X171676773Y-143714720D01*
X171676767Y-143714718D01*
X171409936Y-143674500D01*
X171409929Y-143674500D01*
X171140071Y-143674500D01*
X171140063Y-143674500D01*
X170873232Y-143714718D01*
X170873226Y-143714720D01*
X170615358Y-143794262D01*
X170372230Y-143911346D01*
X170149258Y-144063365D01*
X169951442Y-144246910D01*
X169783185Y-144457898D01*
X169648258Y-144691599D01*
X169648256Y-144691603D01*
X169549666Y-144942804D01*
X169549664Y-144942811D01*
X169489616Y-145205898D01*
X169469451Y-145474995D01*
X169469451Y-145475004D01*
X168080549Y-145475004D01*
X168080549Y-145475000D01*
X168079050Y-145455000D01*
X168060383Y-145205898D01*
X168057213Y-145192010D01*
X168000334Y-144942805D01*
X167901743Y-144691602D01*
X167766815Y-144457898D01*
X167598561Y-144246915D01*
X167598560Y-144246914D01*
X167598557Y-144246910D01*
X167400741Y-144063365D01*
X167278819Y-143980240D01*
X167177775Y-143911349D01*
X167177769Y-143911346D01*
X167177768Y-143911345D01*
X167177767Y-143911344D01*
X166934643Y-143794263D01*
X166934645Y-143794263D01*
X166676773Y-143714720D01*
X166676767Y-143714718D01*
X166409936Y-143674500D01*
X166409929Y-143674500D01*
X166140071Y-143674500D01*
X166140063Y-143674500D01*
X165873232Y-143714718D01*
X165873226Y-143714720D01*
X165615358Y-143794262D01*
X165372230Y-143911346D01*
X165149258Y-144063365D01*
X164951442Y-144246910D01*
X164783185Y-144457898D01*
X164648258Y-144691599D01*
X164648256Y-144691603D01*
X164549666Y-144942804D01*
X164549664Y-144942811D01*
X164489616Y-145205898D01*
X164469451Y-145474995D01*
X164469451Y-145475004D01*
X163075500Y-145475004D01*
X163075499Y-144127128D01*
X163069091Y-144067517D01*
X163067542Y-144063365D01*
X163018797Y-143932671D01*
X163018793Y-143932664D01*
X162932547Y-143817455D01*
X162932544Y-143817452D01*
X162817335Y-143731206D01*
X162817328Y-143731202D01*
X162682482Y-143680908D01*
X162682483Y-143680908D01*
X162622883Y-143674501D01*
X162622881Y-143674500D01*
X162622873Y-143674500D01*
X162622864Y-143674500D01*
X159927129Y-143674500D01*
X159927123Y-143674501D01*
X159867516Y-143680908D01*
X159732671Y-143731202D01*
X159732664Y-143731206D01*
X159617455Y-143817452D01*
X159617452Y-143817455D01*
X159531206Y-143932664D01*
X159531202Y-143932671D01*
X159480908Y-144067517D01*
X159476650Y-144107127D01*
X159474501Y-144127123D01*
X159474500Y-144127135D01*
X159474500Y-146822870D01*
X156269463Y-146822870D01*
X156398561Y-146703085D01*
X156566815Y-146492102D01*
X156701743Y-146258398D01*
X156800334Y-146007195D01*
X156860383Y-145744103D01*
X156880549Y-145475000D01*
X156879050Y-145455000D01*
X156860383Y-145205898D01*
X156857213Y-145192010D01*
X156800334Y-144942805D01*
X156701743Y-144691602D01*
X156566815Y-144457898D01*
X156398561Y-144246915D01*
X156398560Y-144246914D01*
X156398557Y-144246910D01*
X156200741Y-144063365D01*
X156078819Y-143980240D01*
X155977775Y-143911349D01*
X155977769Y-143911346D01*
X155977768Y-143911345D01*
X155977767Y-143911344D01*
X155734643Y-143794263D01*
X155734645Y-143794263D01*
X155476773Y-143714720D01*
X155476767Y-143714718D01*
X155209936Y-143674500D01*
X155209929Y-143674500D01*
X154940071Y-143674500D01*
X154940063Y-143674500D01*
X154673232Y-143714718D01*
X154673226Y-143714720D01*
X154415358Y-143794262D01*
X154172230Y-143911346D01*
X153949258Y-144063365D01*
X153751442Y-144246910D01*
X153583185Y-144457898D01*
X153448258Y-144691599D01*
X153448256Y-144691603D01*
X153349666Y-144942804D01*
X153349664Y-144942811D01*
X153289616Y-145205898D01*
X153269451Y-145474995D01*
X153269451Y-145475004D01*
X151880549Y-145475004D01*
X151880549Y-145475000D01*
X151879050Y-145455000D01*
X151860383Y-145205898D01*
X151857213Y-145192010D01*
X151800334Y-144942805D01*
X151701743Y-144691602D01*
X151566815Y-144457898D01*
X151398561Y-144246915D01*
X151398560Y-144246914D01*
X151398557Y-144246910D01*
X151200741Y-144063365D01*
X151078819Y-143980240D01*
X150977775Y-143911349D01*
X150977769Y-143911346D01*
X150977768Y-143911345D01*
X150977767Y-143911344D01*
X150734643Y-143794263D01*
X150734645Y-143794263D01*
X150476773Y-143714720D01*
X150476767Y-143714718D01*
X150209936Y-143674500D01*
X150209929Y-143674500D01*
X149940071Y-143674500D01*
X149940063Y-143674500D01*
X149673232Y-143714718D01*
X149673226Y-143714720D01*
X149415358Y-143794262D01*
X149172230Y-143911346D01*
X148949258Y-144063365D01*
X148751442Y-144246910D01*
X148583185Y-144457898D01*
X148448258Y-144691599D01*
X148448256Y-144691603D01*
X148349666Y-144942804D01*
X148349664Y-144942811D01*
X148289616Y-145205898D01*
X148269451Y-145474995D01*
X148269451Y-145475004D01*
X146880549Y-145475004D01*
X146880549Y-145475000D01*
X146879050Y-145455000D01*
X146860383Y-145205898D01*
X146857213Y-145192010D01*
X146800334Y-144942805D01*
X146701743Y-144691602D01*
X146566815Y-144457898D01*
X146398561Y-144246915D01*
X146398560Y-144246914D01*
X146398557Y-144246910D01*
X146200741Y-144063365D01*
X146078819Y-143980240D01*
X145977775Y-143911349D01*
X145977769Y-143911346D01*
X145977768Y-143911345D01*
X145977767Y-143911344D01*
X145734643Y-143794263D01*
X145734645Y-143794263D01*
X145476773Y-143714720D01*
X145476767Y-143714718D01*
X145209936Y-143674500D01*
X145209929Y-143674500D01*
X144940071Y-143674500D01*
X144940063Y-143674500D01*
X144673232Y-143714718D01*
X144673226Y-143714720D01*
X144415358Y-143794262D01*
X144172230Y-143911346D01*
X143949258Y-144063365D01*
X143751442Y-144246910D01*
X143583185Y-144457898D01*
X143448258Y-144691599D01*
X143448256Y-144691603D01*
X143349666Y-144942804D01*
X143349664Y-144942811D01*
X143289616Y-145205898D01*
X143269451Y-145474995D01*
X143269451Y-145475004D01*
X141875500Y-145475004D01*
X141875499Y-144127128D01*
X141869091Y-144067517D01*
X141867542Y-144063365D01*
X141818797Y-143932671D01*
X141818793Y-143932664D01*
X141732547Y-143817455D01*
X141732544Y-143817452D01*
X141617335Y-143731206D01*
X141617328Y-143731202D01*
X141482482Y-143680908D01*
X141482483Y-143680908D01*
X141422883Y-143674501D01*
X141422881Y-143674500D01*
X141422873Y-143674500D01*
X141422864Y-143674500D01*
X138727129Y-143674500D01*
X138727123Y-143674501D01*
X138667516Y-143680908D01*
X138532671Y-143731202D01*
X138532664Y-143731206D01*
X138417455Y-143817452D01*
X138417452Y-143817455D01*
X138331206Y-143932664D01*
X138331202Y-143932671D01*
X138280908Y-144067517D01*
X138276650Y-144107127D01*
X138274501Y-144127123D01*
X138274500Y-144127135D01*
X138274500Y-146822870D01*
X135072908Y-146822870D01*
X135202006Y-146703085D01*
X135223557Y-146683089D01*
X135223557Y-146683087D01*
X135223561Y-146683085D01*
X135391815Y-146472102D01*
X135526743Y-146238398D01*
X135625334Y-145987195D01*
X135685383Y-145724103D01*
X135704050Y-145475004D01*
X135705549Y-145455004D01*
X135705549Y-145454995D01*
X135685383Y-145185898D01*
X135685383Y-145185897D01*
X135625334Y-144922805D01*
X135526743Y-144671602D01*
X135391815Y-144437898D01*
X135223561Y-144226915D01*
X135223560Y-144226914D01*
X135223557Y-144226910D01*
X135025741Y-144043365D01*
X135014198Y-144035495D01*
X134802775Y-143891349D01*
X134802769Y-143891346D01*
X134802768Y-143891345D01*
X134802767Y-143891344D01*
X134559643Y-143774263D01*
X134559645Y-143774263D01*
X134301773Y-143694720D01*
X134301767Y-143694718D01*
X134034936Y-143654500D01*
X134034929Y-143654500D01*
X133765071Y-143654500D01*
X133765063Y-143654500D01*
X133498232Y-143694718D01*
X133498226Y-143694720D01*
X133240358Y-143774262D01*
X132997230Y-143891346D01*
X132774258Y-144043365D01*
X132576442Y-144226910D01*
X132408185Y-144437898D01*
X132273258Y-144671599D01*
X132273256Y-144671603D01*
X132174666Y-144922804D01*
X132174664Y-144922811D01*
X132114616Y-145185898D01*
X132094451Y-145454995D01*
X132094451Y-145455004D01*
X130705549Y-145455004D01*
X130705549Y-145454995D01*
X130685383Y-145185898D01*
X130685383Y-145185897D01*
X130625334Y-144922805D01*
X130526743Y-144671602D01*
X130391815Y-144437898D01*
X130223561Y-144226915D01*
X130223560Y-144226914D01*
X130223557Y-144226910D01*
X130025741Y-144043365D01*
X130014198Y-144035495D01*
X129802775Y-143891349D01*
X129802769Y-143891346D01*
X129802768Y-143891345D01*
X129802767Y-143891344D01*
X129559643Y-143774263D01*
X129559645Y-143774263D01*
X129301773Y-143694720D01*
X129301767Y-143694718D01*
X129034936Y-143654500D01*
X129034929Y-143654500D01*
X128765071Y-143654500D01*
X128765063Y-143654500D01*
X128498232Y-143694718D01*
X128498226Y-143694720D01*
X128240358Y-143774262D01*
X127997230Y-143891346D01*
X127774258Y-144043365D01*
X127576442Y-144226910D01*
X127408185Y-144437898D01*
X127273258Y-144671599D01*
X127273256Y-144671603D01*
X127174666Y-144922804D01*
X127174664Y-144922811D01*
X127114616Y-145185898D01*
X127094451Y-145454995D01*
X127094451Y-145455004D01*
X125705549Y-145455004D01*
X125705549Y-145454995D01*
X125685383Y-145185898D01*
X125685383Y-145185897D01*
X125625334Y-144922805D01*
X125526743Y-144671602D01*
X125391815Y-144437898D01*
X125223561Y-144226915D01*
X125223560Y-144226914D01*
X125223557Y-144226910D01*
X125025741Y-144043365D01*
X125014198Y-144035495D01*
X124802775Y-143891349D01*
X124802769Y-143891346D01*
X124802768Y-143891345D01*
X124802767Y-143891344D01*
X124559643Y-143774263D01*
X124559645Y-143774263D01*
X124301773Y-143694720D01*
X124301767Y-143694718D01*
X124034936Y-143654500D01*
X124034929Y-143654500D01*
X123765071Y-143654500D01*
X123765063Y-143654500D01*
X123498232Y-143694718D01*
X123498226Y-143694720D01*
X123240358Y-143774262D01*
X122997230Y-143891346D01*
X122774258Y-144043365D01*
X122576442Y-144226910D01*
X122408185Y-144437898D01*
X122273258Y-144671599D01*
X122273256Y-144671603D01*
X122174666Y-144922804D01*
X122174664Y-144922811D01*
X122114616Y-145185898D01*
X122094451Y-145454995D01*
X122094451Y-145455004D01*
X120700500Y-145455004D01*
X120700499Y-144107128D01*
X120694091Y-144047517D01*
X120692542Y-144043365D01*
X120643797Y-143912671D01*
X120643793Y-143912664D01*
X120557547Y-143797455D01*
X120557544Y-143797452D01*
X120442335Y-143711206D01*
X120442328Y-143711202D01*
X120307482Y-143660908D01*
X120307483Y-143660908D01*
X120247883Y-143654501D01*
X120247881Y-143654500D01*
X120247873Y-143654500D01*
X120247864Y-143654500D01*
X117552129Y-143654500D01*
X117552123Y-143654501D01*
X117492516Y-143660908D01*
X117357671Y-143711202D01*
X117357664Y-143711206D01*
X117242455Y-143797452D01*
X117242452Y-143797455D01*
X117156206Y-143912664D01*
X117156202Y-143912671D01*
X117105908Y-144047517D01*
X117099501Y-144107116D01*
X117099501Y-144107123D01*
X117099500Y-144107135D01*
X117099500Y-146802870D01*
X111050635Y-146802870D01*
X111084780Y-146587287D01*
X111105078Y-146200000D01*
X111105078Y-146199999D01*
X111084780Y-145812712D01*
X111024113Y-145429676D01*
X111024112Y-145429669D01*
X110923737Y-145055063D01*
X110784755Y-144693005D01*
X110608689Y-144347456D01*
X110397468Y-144022206D01*
X110188904Y-143764649D01*
X110188902Y-143764648D01*
X109525748Y-144427803D01*
X109464425Y-144461288D01*
X109394733Y-144456304D01*
X109338800Y-144414432D01*
X109334965Y-144409012D01*
X109277296Y-144322704D01*
X109190985Y-144265033D01*
X109146180Y-144211421D01*
X109137473Y-144142096D01*
X109167627Y-144079068D01*
X109172195Y-144074250D01*
X109835350Y-143411096D01*
X109835350Y-143411095D01*
X109577793Y-143202531D01*
X109252543Y-142991310D01*
X108906994Y-142815244D01*
X108544936Y-142676262D01*
X108170330Y-142575887D01*
X108170323Y-142575886D01*
X107787287Y-142515219D01*
X107400001Y-142494922D01*
X107399999Y-142494922D01*
X107012712Y-142515219D01*
X106629676Y-142575886D01*
X106629669Y-142575887D01*
X106255063Y-142676262D01*
X105893005Y-142815244D01*
X105547456Y-142991310D01*
X105222206Y-143202531D01*
X104964648Y-143411095D01*
X104964648Y-143411096D01*
X105627803Y-144074251D01*
X105661288Y-144135574D01*
X105656304Y-144205266D01*
X105614432Y-144261199D01*
X105609013Y-144265034D01*
X105522704Y-144322704D01*
X105465034Y-144409013D01*
X105411422Y-144453818D01*
X105342097Y-144462525D01*
X105279069Y-144432370D01*
X105274251Y-144427803D01*
X104611096Y-143764648D01*
X104611095Y-143764648D01*
X104402531Y-144022206D01*
X104191310Y-144347456D01*
X104015244Y-144693005D01*
X103876262Y-145055063D01*
X103775887Y-145429669D01*
X103775886Y-145429676D01*
X103715219Y-145812712D01*
X103694922Y-146199999D01*
X103694922Y-146200000D01*
X101150500Y-146200000D01*
X101150500Y-146165649D01*
X101150500Y-134950004D01*
X106869451Y-134950004D01*
X106889616Y-135219101D01*
X106947136Y-135471111D01*
X106949666Y-135482195D01*
X107048257Y-135733398D01*
X107183185Y-135967102D01*
X107319080Y-136137509D01*
X107351442Y-136178089D01*
X107517596Y-136332256D01*
X107549259Y-136361635D01*
X107772226Y-136513651D01*
X108015359Y-136630738D01*
X108273228Y-136710280D01*
X108273229Y-136710280D01*
X108273232Y-136710281D01*
X108540063Y-136750499D01*
X108540068Y-136750499D01*
X108540071Y-136750500D01*
X108540072Y-136750500D01*
X108809928Y-136750500D01*
X108809929Y-136750500D01*
X108809936Y-136750499D01*
X109076767Y-136710281D01*
X109076768Y-136710280D01*
X109076772Y-136710280D01*
X109334641Y-136630738D01*
X109577775Y-136513651D01*
X109800741Y-136361635D01*
X109998561Y-136178085D01*
X110025743Y-136144000D01*
X132952540Y-136144000D01*
X132972326Y-136332256D01*
X132972327Y-136332259D01*
X133030818Y-136512277D01*
X133030821Y-136512284D01*
X133125467Y-136676216D01*
X133192352Y-136750499D01*
X133252129Y-136816888D01*
X133405265Y-136928148D01*
X133405270Y-136928151D01*
X133578192Y-137005142D01*
X133578197Y-137005144D01*
X133763354Y-137044500D01*
X133763355Y-137044500D01*
X133952644Y-137044500D01*
X133952646Y-137044500D01*
X134137803Y-137005144D01*
X134310730Y-136928151D01*
X134463871Y-136816888D01*
X134590533Y-136676216D01*
X134685179Y-136512284D01*
X134743674Y-136332256D01*
X134763460Y-136144000D01*
X134743674Y-135955744D01*
X134685179Y-135775716D01*
X134590533Y-135611784D01*
X134463871Y-135471112D01*
X134463870Y-135471111D01*
X134310734Y-135359851D01*
X134310729Y-135359848D01*
X134137807Y-135282857D01*
X134137802Y-135282855D01*
X133992000Y-135251865D01*
X133952646Y-135243500D01*
X133763354Y-135243500D01*
X133730897Y-135250398D01*
X133578197Y-135282855D01*
X133578192Y-135282857D01*
X133405270Y-135359848D01*
X133405265Y-135359851D01*
X133252129Y-135471111D01*
X133125466Y-135611785D01*
X133030821Y-135775715D01*
X133030818Y-135775722D01*
X132972327Y-135955740D01*
X132972326Y-135955744D01*
X132952540Y-136144000D01*
X110025743Y-136144000D01*
X110166815Y-135967102D01*
X110301743Y-135733398D01*
X110400334Y-135482195D01*
X110460383Y-135219103D01*
X110480549Y-134950000D01*
X110480106Y-134944091D01*
X110460383Y-134680898D01*
X110460383Y-134680897D01*
X110400334Y-134417805D01*
X110301743Y-134166602D01*
X110219990Y-134025000D01*
X117619540Y-134025000D01*
X117639326Y-134213256D01*
X117639327Y-134213259D01*
X117697818Y-134393277D01*
X117697821Y-134393284D01*
X117792467Y-134557216D01*
X117903830Y-134680897D01*
X117919129Y-134697888D01*
X118072265Y-134809148D01*
X118072270Y-134809151D01*
X118245192Y-134886142D01*
X118245197Y-134886144D01*
X118430354Y-134925500D01*
X118430355Y-134925500D01*
X118619644Y-134925500D01*
X118619646Y-134925500D01*
X118804803Y-134886144D01*
X118977730Y-134809151D01*
X119130871Y-134697888D01*
X119257533Y-134557216D01*
X119352179Y-134393284D01*
X119410674Y-134213256D01*
X119430460Y-134025000D01*
X119410674Y-133836744D01*
X119352179Y-133656716D01*
X119321743Y-133604000D01*
X121014540Y-133604000D01*
X121034326Y-133792256D01*
X121034327Y-133792259D01*
X121092818Y-133972277D01*
X121092821Y-133972284D01*
X121187467Y-134136216D01*
X121256837Y-134213259D01*
X121314129Y-134276888D01*
X121467265Y-134388148D01*
X121467270Y-134388151D01*
X121640192Y-134465142D01*
X121640197Y-134465144D01*
X121825354Y-134504500D01*
X121825355Y-134504500D01*
X122014644Y-134504500D01*
X122014646Y-134504500D01*
X122045838Y-134497870D01*
X183229500Y-134497870D01*
X183229501Y-134497876D01*
X183235908Y-134557483D01*
X183286202Y-134692328D01*
X183286206Y-134692335D01*
X183372452Y-134807544D01*
X183372455Y-134807547D01*
X183487664Y-134893793D01*
X183487671Y-134893797D01*
X183622517Y-134944091D01*
X183622516Y-134944091D01*
X183629444Y-134944835D01*
X183682127Y-134950500D01*
X186377872Y-134950499D01*
X186437483Y-134944091D01*
X186572331Y-134893796D01*
X186687546Y-134807546D01*
X186773796Y-134692331D01*
X186824091Y-134557483D01*
X186830500Y-134497873D01*
X186830499Y-131802128D01*
X186824091Y-131742517D01*
X186812067Y-131710280D01*
X186773797Y-131607671D01*
X186773793Y-131607664D01*
X186687547Y-131492455D01*
X186687544Y-131492452D01*
X186572335Y-131406206D01*
X186572328Y-131406202D01*
X186437482Y-131355908D01*
X186437483Y-131355908D01*
X186377883Y-131349501D01*
X186377881Y-131349500D01*
X186377873Y-131349500D01*
X186377864Y-131349500D01*
X183682129Y-131349500D01*
X183682123Y-131349501D01*
X183622516Y-131355908D01*
X183487671Y-131406202D01*
X183487664Y-131406206D01*
X183372455Y-131492452D01*
X183372452Y-131492455D01*
X183286206Y-131607664D01*
X183286202Y-131607671D01*
X183235908Y-131742517D01*
X183229501Y-131802116D01*
X183229501Y-131802123D01*
X183229500Y-131802135D01*
X183229500Y-134497870D01*
X122045838Y-134497870D01*
X122199803Y-134465144D01*
X122372730Y-134388151D01*
X122525871Y-134276888D01*
X122652533Y-134136216D01*
X122747179Y-133972284D01*
X122805674Y-133792256D01*
X122825460Y-133604000D01*
X122805674Y-133415744D01*
X122751112Y-133247823D01*
X122747181Y-133235722D01*
X122747180Y-133235721D01*
X122747179Y-133235716D01*
X122652533Y-133071784D01*
X122525871Y-132931112D01*
X122525870Y-132931111D01*
X122372734Y-132819851D01*
X122372729Y-132819848D01*
X122199807Y-132742857D01*
X122199802Y-132742855D01*
X122054000Y-132711865D01*
X122014646Y-132703500D01*
X121825354Y-132703500D01*
X121792897Y-132710398D01*
X121640197Y-132742855D01*
X121640192Y-132742857D01*
X121467270Y-132819848D01*
X121467265Y-132819851D01*
X121314129Y-132931111D01*
X121187466Y-133071785D01*
X121092821Y-133235715D01*
X121092818Y-133235722D01*
X121043878Y-133386345D01*
X121034326Y-133415744D01*
X121014540Y-133604000D01*
X119321743Y-133604000D01*
X119257533Y-133492784D01*
X119130871Y-133352112D01*
X119130870Y-133352111D01*
X118977734Y-133240851D01*
X118977729Y-133240848D01*
X118804807Y-133163857D01*
X118804802Y-133163855D01*
X118659001Y-133132865D01*
X118619646Y-133124500D01*
X118430354Y-133124500D01*
X118397897Y-133131398D01*
X118245197Y-133163855D01*
X118245192Y-133163857D01*
X118072270Y-133240848D01*
X118072265Y-133240851D01*
X117919129Y-133352111D01*
X117792466Y-133492785D01*
X117697821Y-133656715D01*
X117697818Y-133656722D01*
X117676636Y-133721915D01*
X117639326Y-133836744D01*
X117619540Y-134025000D01*
X110219990Y-134025000D01*
X110166815Y-133932898D01*
X109998561Y-133721915D01*
X109998560Y-133721914D01*
X109998557Y-133721910D01*
X109800741Y-133538365D01*
X109800740Y-133538364D01*
X109577775Y-133386349D01*
X109577769Y-133386346D01*
X109577768Y-133386345D01*
X109577767Y-133386344D01*
X109334643Y-133269263D01*
X109334645Y-133269263D01*
X109076773Y-133189720D01*
X109076767Y-133189718D01*
X108809936Y-133149500D01*
X108809929Y-133149500D01*
X108540071Y-133149500D01*
X108540063Y-133149500D01*
X108273232Y-133189718D01*
X108273226Y-133189720D01*
X108015358Y-133269262D01*
X107772230Y-133386346D01*
X107549258Y-133538365D01*
X107351442Y-133721910D01*
X107183185Y-133932898D01*
X107048258Y-134166599D01*
X107048256Y-134166603D01*
X106949666Y-134417804D01*
X106949664Y-134417811D01*
X106889616Y-134680898D01*
X106869451Y-134949995D01*
X106869451Y-134950004D01*
X101150500Y-134950004D01*
X101150500Y-129950004D01*
X106869451Y-129950004D01*
X106889616Y-130219101D01*
X106949664Y-130482188D01*
X106949666Y-130482195D01*
X107048257Y-130733398D01*
X107183185Y-130967102D01*
X107319080Y-131137509D01*
X107351442Y-131178089D01*
X107536181Y-131349500D01*
X107549259Y-131361635D01*
X107772226Y-131513651D01*
X108015359Y-131630738D01*
X108273228Y-131710280D01*
X108273229Y-131710280D01*
X108273232Y-131710281D01*
X108540063Y-131750499D01*
X108540068Y-131750499D01*
X108540071Y-131750500D01*
X108540072Y-131750500D01*
X108809928Y-131750500D01*
X108809929Y-131750500D01*
X108809936Y-131750499D01*
X109076767Y-131710281D01*
X109076768Y-131710280D01*
X109076772Y-131710280D01*
X109334641Y-131630738D01*
X109577775Y-131513651D01*
X109800741Y-131361635D01*
X109998561Y-131178085D01*
X110166815Y-130967102D01*
X110301743Y-130733398D01*
X110400334Y-130482195D01*
X110460383Y-130219103D01*
X110480549Y-129950000D01*
X110477572Y-129910280D01*
X110462838Y-129713653D01*
X110460383Y-129680897D01*
X110400334Y-129417805D01*
X110301743Y-129166602D01*
X110166815Y-128932898D01*
X109998561Y-128721915D01*
X109998560Y-128721914D01*
X109998557Y-128721910D01*
X109800741Y-128538365D01*
X109800741Y-128538364D01*
X109577775Y-128386349D01*
X109577769Y-128386346D01*
X109577768Y-128386345D01*
X109577767Y-128386344D01*
X109334643Y-128269263D01*
X109334645Y-128269263D01*
X109076773Y-128189720D01*
X109076767Y-128189718D01*
X108813280Y-128150004D01*
X183224451Y-128150004D01*
X183244616Y-128419101D01*
X183304664Y-128682188D01*
X183304666Y-128682195D01*
X183403257Y-128933398D01*
X183538185Y-129167102D01*
X183674080Y-129337509D01*
X183706442Y-129378089D01*
X183893183Y-129551358D01*
X183904259Y-129561635D01*
X184127226Y-129713651D01*
X184370359Y-129830738D01*
X184628228Y-129910280D01*
X184628229Y-129910280D01*
X184628232Y-129910281D01*
X184895063Y-129950499D01*
X184895068Y-129950499D01*
X184895071Y-129950500D01*
X184895072Y-129950500D01*
X185164928Y-129950500D01*
X185164929Y-129950500D01*
X185168220Y-129950004D01*
X185431767Y-129910281D01*
X185431768Y-129910280D01*
X185431772Y-129910280D01*
X185689641Y-129830738D01*
X185932775Y-129713651D01*
X186155741Y-129561635D01*
X186353561Y-129378085D01*
X186521815Y-129167102D01*
X186656743Y-128933398D01*
X186755334Y-128682195D01*
X186815383Y-128419103D01*
X186826612Y-128269262D01*
X186835549Y-128150004D01*
X186835549Y-128149995D01*
X186815383Y-127880898D01*
X186755335Y-127617811D01*
X186755334Y-127617805D01*
X186656743Y-127366602D01*
X186521815Y-127132898D01*
X186353561Y-126921915D01*
X186353560Y-126921914D01*
X186353557Y-126921910D01*
X186155741Y-126738365D01*
X186114548Y-126710280D01*
X185932775Y-126586349D01*
X185932769Y-126586346D01*
X185932768Y-126586345D01*
X185932767Y-126586344D01*
X185689643Y-126469263D01*
X185689645Y-126469263D01*
X185431773Y-126389720D01*
X185431767Y-126389718D01*
X185164936Y-126349500D01*
X185164929Y-126349500D01*
X184895071Y-126349500D01*
X184895063Y-126349500D01*
X184628232Y-126389718D01*
X184628226Y-126389720D01*
X184370358Y-126469262D01*
X184127230Y-126586346D01*
X183904258Y-126738365D01*
X183706442Y-126921910D01*
X183538185Y-127132898D01*
X183403258Y-127366599D01*
X183403256Y-127366603D01*
X183304666Y-127617804D01*
X183304664Y-127617811D01*
X183244616Y-127880898D01*
X183224451Y-128149995D01*
X183224451Y-128150004D01*
X108813280Y-128150004D01*
X108809936Y-128149500D01*
X108809929Y-128149500D01*
X108540071Y-128149500D01*
X108540063Y-128149500D01*
X108273232Y-128189718D01*
X108273226Y-128189720D01*
X108015358Y-128269262D01*
X107772230Y-128386346D01*
X107549258Y-128538365D01*
X107351442Y-128721910D01*
X107183185Y-128932898D01*
X107048258Y-129166599D01*
X107048256Y-129166603D01*
X106949666Y-129417804D01*
X106949664Y-129417811D01*
X106889616Y-129680898D01*
X106869451Y-129949995D01*
X106869451Y-129950004D01*
X101150500Y-129950004D01*
X101150500Y-124950004D01*
X106869451Y-124950004D01*
X106889616Y-125219101D01*
X106949664Y-125482188D01*
X106949666Y-125482195D01*
X107048257Y-125733398D01*
X107183185Y-125967102D01*
X107319080Y-126137509D01*
X107351442Y-126178089D01*
X107536181Y-126349500D01*
X107549259Y-126361635D01*
X107772226Y-126513651D01*
X108015359Y-126630738D01*
X108273228Y-126710280D01*
X108273229Y-126710280D01*
X108273232Y-126710281D01*
X108540063Y-126750499D01*
X108540068Y-126750499D01*
X108540071Y-126750500D01*
X108540072Y-126750500D01*
X108809928Y-126750500D01*
X108809929Y-126750500D01*
X108890440Y-126738365D01*
X109076767Y-126710281D01*
X109076768Y-126710280D01*
X109076772Y-126710280D01*
X109334641Y-126630738D01*
X109577775Y-126513651D01*
X109800741Y-126361635D01*
X109998561Y-126178085D01*
X110166815Y-125967102D01*
X110301743Y-125733398D01*
X110400334Y-125482195D01*
X110460383Y-125219103D01*
X110480549Y-124950000D01*
X110477572Y-124910280D01*
X110462838Y-124713653D01*
X110460383Y-124680897D01*
X110400334Y-124417805D01*
X110301743Y-124166602D01*
X110166815Y-123932898D01*
X109998561Y-123721915D01*
X109998560Y-123721914D01*
X109998557Y-123721910D01*
X109800741Y-123538365D01*
X109800741Y-123538364D01*
X109577775Y-123386349D01*
X109577769Y-123386346D01*
X109577768Y-123386345D01*
X109577767Y-123386344D01*
X109334643Y-123269263D01*
X109334645Y-123269263D01*
X109076773Y-123189720D01*
X109076767Y-123189718D01*
X108809936Y-123149500D01*
X108809929Y-123149500D01*
X108540071Y-123149500D01*
X108540063Y-123149500D01*
X108273232Y-123189718D01*
X108273226Y-123189720D01*
X108015358Y-123269262D01*
X107772230Y-123386346D01*
X107549258Y-123538365D01*
X107351442Y-123721910D01*
X107183185Y-123932898D01*
X107048258Y-124166599D01*
X107048256Y-124166603D01*
X106949666Y-124417804D01*
X106949664Y-124417811D01*
X106889616Y-124680898D01*
X106869451Y-124949995D01*
X106869451Y-124950004D01*
X101150500Y-124950004D01*
X101150500Y-123075000D01*
X117569540Y-123075000D01*
X117589326Y-123263256D01*
X117589327Y-123263259D01*
X117647818Y-123443277D01*
X117647821Y-123443284D01*
X117742467Y-123607216D01*
X117809979Y-123682195D01*
X117869129Y-123747888D01*
X118022265Y-123859148D01*
X118022270Y-123859151D01*
X118195192Y-123936142D01*
X118195197Y-123936144D01*
X118380354Y-123975500D01*
X118380355Y-123975500D01*
X118569644Y-123975500D01*
X118569646Y-123975500D01*
X118754803Y-123936144D01*
X118927730Y-123859151D01*
X119080871Y-123747888D01*
X119207533Y-123607216D01*
X119302179Y-123443284D01*
X119360674Y-123263256D01*
X119372577Y-123150004D01*
X183224451Y-123150004D01*
X183244616Y-123419101D01*
X183304664Y-123682188D01*
X183304666Y-123682195D01*
X183403257Y-123933398D01*
X183538185Y-124167102D01*
X183674080Y-124337509D01*
X183706442Y-124378089D01*
X183893183Y-124551358D01*
X183904259Y-124561635D01*
X184127226Y-124713651D01*
X184370359Y-124830738D01*
X184628228Y-124910280D01*
X184628229Y-124910280D01*
X184628232Y-124910281D01*
X184895063Y-124950499D01*
X184895068Y-124950499D01*
X184895071Y-124950500D01*
X184895072Y-124950500D01*
X185164928Y-124950500D01*
X185164929Y-124950500D01*
X185168220Y-124950004D01*
X185431767Y-124910281D01*
X185431768Y-124910280D01*
X185431772Y-124910280D01*
X185689641Y-124830738D01*
X185932775Y-124713651D01*
X186155741Y-124561635D01*
X186353561Y-124378085D01*
X186521815Y-124167102D01*
X186656743Y-123933398D01*
X186755334Y-123682195D01*
X186815383Y-123419103D01*
X186827062Y-123263256D01*
X186835549Y-123150004D01*
X186835549Y-123149995D01*
X186815383Y-122880898D01*
X186815383Y-122880897D01*
X186755334Y-122617805D01*
X186656743Y-122366602D01*
X186521815Y-122132898D01*
X186353561Y-121921915D01*
X186353560Y-121921914D01*
X186353557Y-121921910D01*
X186155741Y-121738365D01*
X186090366Y-121693793D01*
X185932775Y-121586349D01*
X185932769Y-121586346D01*
X185932768Y-121586345D01*
X185932767Y-121586344D01*
X185689643Y-121469263D01*
X185689645Y-121469263D01*
X185431773Y-121389720D01*
X185431767Y-121389718D01*
X185164936Y-121349500D01*
X185164929Y-121349500D01*
X184895071Y-121349500D01*
X184895063Y-121349500D01*
X184628232Y-121389718D01*
X184628226Y-121389720D01*
X184370358Y-121469262D01*
X184127230Y-121586346D01*
X183904258Y-121738365D01*
X183706442Y-121921910D01*
X183538185Y-122132898D01*
X183403258Y-122366599D01*
X183403256Y-122366603D01*
X183304666Y-122617804D01*
X183304664Y-122617811D01*
X183244616Y-122880898D01*
X183224451Y-123149995D01*
X183224451Y-123150004D01*
X119372577Y-123150004D01*
X119380460Y-123075000D01*
X119360674Y-122886744D01*
X119302179Y-122706716D01*
X119207533Y-122542784D01*
X119080871Y-122402112D01*
X119080870Y-122402111D01*
X118927734Y-122290851D01*
X118927729Y-122290848D01*
X118754807Y-122213857D01*
X118754802Y-122213855D01*
X118609001Y-122182865D01*
X118569646Y-122174500D01*
X118380354Y-122174500D01*
X118347897Y-122181398D01*
X118195197Y-122213855D01*
X118195192Y-122213857D01*
X118022270Y-122290848D01*
X118022265Y-122290851D01*
X117869129Y-122402111D01*
X117742466Y-122542785D01*
X117647821Y-122706715D01*
X117647818Y-122706722D01*
X117591225Y-122880898D01*
X117589326Y-122886744D01*
X117569540Y-123075000D01*
X101150500Y-123075000D01*
X101150500Y-121297870D01*
X106874500Y-121297870D01*
X106874501Y-121297876D01*
X106880908Y-121357483D01*
X106931202Y-121492328D01*
X106931206Y-121492335D01*
X107017452Y-121607544D01*
X107017455Y-121607547D01*
X107132664Y-121693793D01*
X107132671Y-121693797D01*
X107267517Y-121744091D01*
X107267516Y-121744091D01*
X107274444Y-121744835D01*
X107327127Y-121750500D01*
X110022872Y-121750499D01*
X110082483Y-121744091D01*
X110217331Y-121693796D01*
X110332546Y-121607546D01*
X110418796Y-121492331D01*
X110469091Y-121357483D01*
X110475500Y-121297873D01*
X110475499Y-118602128D01*
X110469091Y-118542517D01*
X110418796Y-118407669D01*
X110418795Y-118407668D01*
X110418793Y-118407664D01*
X110332547Y-118292455D01*
X110332544Y-118292452D01*
X110217335Y-118206206D01*
X110217328Y-118206202D01*
X110082482Y-118155908D01*
X110082483Y-118155908D01*
X110027562Y-118150004D01*
X183224451Y-118150004D01*
X183244616Y-118419101D01*
X183304664Y-118682188D01*
X183304666Y-118682195D01*
X183403257Y-118933398D01*
X183538185Y-119167102D01*
X183674080Y-119337509D01*
X183706442Y-119378089D01*
X183893183Y-119551358D01*
X183904259Y-119561635D01*
X184127226Y-119713651D01*
X184370359Y-119830738D01*
X184628228Y-119910280D01*
X184628229Y-119910280D01*
X184628232Y-119910281D01*
X184895063Y-119950499D01*
X184895068Y-119950499D01*
X184895071Y-119950500D01*
X184895072Y-119950500D01*
X185164928Y-119950500D01*
X185164929Y-119950500D01*
X185164936Y-119950499D01*
X185431767Y-119910281D01*
X185431768Y-119910280D01*
X185431772Y-119910280D01*
X185689641Y-119830738D01*
X185932775Y-119713651D01*
X186155741Y-119561635D01*
X186353561Y-119378085D01*
X186521815Y-119167102D01*
X186656743Y-118933398D01*
X186755334Y-118682195D01*
X186815383Y-118419103D01*
X186831337Y-118206204D01*
X186835549Y-118150004D01*
X186835549Y-118149995D01*
X186815383Y-117880898D01*
X186755335Y-117617811D01*
X186755334Y-117617805D01*
X186656743Y-117366602D01*
X186521815Y-117132898D01*
X186353561Y-116921915D01*
X186353560Y-116921914D01*
X186353557Y-116921910D01*
X186155741Y-116738365D01*
X185932775Y-116586349D01*
X185932769Y-116586346D01*
X185932768Y-116586345D01*
X185932767Y-116586344D01*
X185689643Y-116469263D01*
X185689645Y-116469263D01*
X185431773Y-116389720D01*
X185431767Y-116389718D01*
X185164936Y-116349500D01*
X185164929Y-116349500D01*
X184895071Y-116349500D01*
X184895063Y-116349500D01*
X184628232Y-116389718D01*
X184628226Y-116389720D01*
X184370358Y-116469262D01*
X184127230Y-116586346D01*
X183904258Y-116738365D01*
X183706442Y-116921910D01*
X183538185Y-117132898D01*
X183403258Y-117366599D01*
X183403256Y-117366603D01*
X183304666Y-117617804D01*
X183304664Y-117617811D01*
X183244616Y-117880898D01*
X183224451Y-118149995D01*
X183224451Y-118150004D01*
X110027562Y-118150004D01*
X110022883Y-118149501D01*
X110022881Y-118149500D01*
X110022873Y-118149500D01*
X110022864Y-118149500D01*
X107327129Y-118149500D01*
X107327123Y-118149501D01*
X107267516Y-118155908D01*
X107132671Y-118206202D01*
X107132664Y-118206206D01*
X107017455Y-118292452D01*
X107017452Y-118292455D01*
X106931206Y-118407664D01*
X106931202Y-118407671D01*
X106880908Y-118542517D01*
X106874501Y-118602116D01*
X106874501Y-118602123D01*
X106874500Y-118602135D01*
X106874500Y-121297870D01*
X101150500Y-121297870D01*
X101150500Y-113825004D01*
X106869451Y-113825004D01*
X106889616Y-114094101D01*
X106898203Y-114131722D01*
X106949666Y-114357195D01*
X107048257Y-114608398D01*
X107183185Y-114842102D01*
X107204065Y-114868284D01*
X107351442Y-115053089D01*
X107480556Y-115172888D01*
X107549259Y-115236635D01*
X107772226Y-115388651D01*
X108015359Y-115505738D01*
X108273228Y-115585280D01*
X108273229Y-115585280D01*
X108273232Y-115585281D01*
X108540063Y-115625499D01*
X108540068Y-115625499D01*
X108540071Y-115625500D01*
X108540072Y-115625500D01*
X108809928Y-115625500D01*
X108809929Y-115625500D01*
X108809936Y-115625499D01*
X109076767Y-115585281D01*
X109076768Y-115585280D01*
X109076772Y-115585280D01*
X109334641Y-115505738D01*
X109577775Y-115388651D01*
X109800741Y-115236635D01*
X109998561Y-115053085D01*
X110166815Y-114842102D01*
X110301743Y-114608398D01*
X110344287Y-114500000D01*
X137594540Y-114500000D01*
X137614326Y-114688256D01*
X137614327Y-114688259D01*
X137672818Y-114868277D01*
X137672821Y-114868284D01*
X137767467Y-115032216D01*
X137894129Y-115172887D01*
X137894129Y-115172888D01*
X138047265Y-115284148D01*
X138047270Y-115284151D01*
X138220192Y-115361142D01*
X138220197Y-115361144D01*
X138405354Y-115400500D01*
X138405355Y-115400500D01*
X138594644Y-115400500D01*
X138594646Y-115400500D01*
X138779803Y-115361144D01*
X138952730Y-115284151D01*
X139105871Y-115172888D01*
X139232533Y-115032216D01*
X139327179Y-114868284D01*
X139385674Y-114688256D01*
X139405460Y-114500000D01*
X139385674Y-114311744D01*
X139327179Y-114131716D01*
X139232533Y-113967784D01*
X139105871Y-113827112D01*
X139102964Y-113825000D01*
X138952734Y-113715851D01*
X138952729Y-113715848D01*
X138779807Y-113638857D01*
X138779802Y-113638855D01*
X138634000Y-113607865D01*
X138594646Y-113599500D01*
X138405354Y-113599500D01*
X138372897Y-113606398D01*
X138220197Y-113638855D01*
X138220192Y-113638857D01*
X138047270Y-113715848D01*
X138047265Y-113715851D01*
X137894129Y-113827111D01*
X137767466Y-113967785D01*
X137672821Y-114131715D01*
X137672818Y-114131722D01*
X137614327Y-114311740D01*
X137614326Y-114311744D01*
X137594540Y-114500000D01*
X110344287Y-114500000D01*
X110400334Y-114357195D01*
X110460383Y-114094103D01*
X110474891Y-113900500D01*
X110480549Y-113825004D01*
X110480549Y-113824995D01*
X110460383Y-113555898D01*
X110454978Y-113532216D01*
X110400334Y-113292805D01*
X110301743Y-113041602D01*
X110166815Y-112807898D01*
X110020958Y-112625000D01*
X112419540Y-112625000D01*
X112439326Y-112813256D01*
X112439327Y-112813259D01*
X112497818Y-112993277D01*
X112497821Y-112993284D01*
X112592467Y-113157216D01*
X112714551Y-113292804D01*
X112719129Y-113297888D01*
X112872265Y-113409148D01*
X112872270Y-113409151D01*
X113045192Y-113486142D01*
X113045197Y-113486144D01*
X113230354Y-113525500D01*
X113230355Y-113525500D01*
X113419644Y-113525500D01*
X113419646Y-113525500D01*
X113604803Y-113486144D01*
X113777730Y-113409151D01*
X113930871Y-113297888D01*
X114057533Y-113157216D01*
X114148302Y-113000000D01*
X141594540Y-113000000D01*
X141614326Y-113188256D01*
X141614327Y-113188259D01*
X141672818Y-113368277D01*
X141672821Y-113368284D01*
X141767467Y-113532216D01*
X141863487Y-113638857D01*
X141894129Y-113672888D01*
X142047265Y-113784148D01*
X142047270Y-113784151D01*
X142220192Y-113861142D01*
X142220197Y-113861144D01*
X142405354Y-113900500D01*
X142405355Y-113900500D01*
X142594644Y-113900500D01*
X142594646Y-113900500D01*
X142779803Y-113861144D01*
X142952730Y-113784151D01*
X143105871Y-113672888D01*
X143232533Y-113532216D01*
X143327179Y-113368284D01*
X143385674Y-113188256D01*
X143405460Y-113000000D01*
X143385674Y-112811744D01*
X143327179Y-112631716D01*
X143232533Y-112467784D01*
X143105871Y-112327112D01*
X143087125Y-112313492D01*
X142952734Y-112215851D01*
X142952729Y-112215848D01*
X142779807Y-112138857D01*
X142779802Y-112138855D01*
X142634000Y-112107865D01*
X142594646Y-112099500D01*
X142405354Y-112099500D01*
X142372897Y-112106398D01*
X142220197Y-112138855D01*
X142220192Y-112138857D01*
X142047270Y-112215848D01*
X142047265Y-112215851D01*
X141894129Y-112327111D01*
X141767466Y-112467785D01*
X141672821Y-112631715D01*
X141672818Y-112631722D01*
X141614327Y-112811740D01*
X141614326Y-112811744D01*
X141594540Y-113000000D01*
X114148302Y-113000000D01*
X114152179Y-112993284D01*
X114210674Y-112813256D01*
X114230460Y-112625000D01*
X114210674Y-112436744D01*
X114152179Y-112256716D01*
X114057533Y-112092784D01*
X113930871Y-111952112D01*
X113915669Y-111941067D01*
X113777734Y-111840851D01*
X113777729Y-111840848D01*
X113685984Y-111800000D01*
X147719540Y-111800000D01*
X147739326Y-111988256D01*
X147739327Y-111988259D01*
X147797818Y-112168277D01*
X147797821Y-112168284D01*
X147892467Y-112332216D01*
X147949234Y-112395262D01*
X148019129Y-112472888D01*
X148172265Y-112584148D01*
X148172270Y-112584151D01*
X148345192Y-112661142D01*
X148345197Y-112661144D01*
X148530354Y-112700500D01*
X148530355Y-112700500D01*
X148719644Y-112700500D01*
X148719646Y-112700500D01*
X148904803Y-112661144D01*
X149077730Y-112584151D01*
X149230871Y-112472888D01*
X149357533Y-112332216D01*
X149452179Y-112168284D01*
X149510674Y-111988256D01*
X149530460Y-111800000D01*
X149510674Y-111611744D01*
X149452179Y-111431716D01*
X149357533Y-111267784D01*
X149230871Y-111127112D01*
X149230870Y-111127111D01*
X149077734Y-111015851D01*
X149077729Y-111015848D01*
X148904807Y-110938857D01*
X148904802Y-110938855D01*
X148759000Y-110907865D01*
X148719646Y-110899500D01*
X148530354Y-110899500D01*
X148497897Y-110906398D01*
X148345197Y-110938855D01*
X148345192Y-110938857D01*
X148172270Y-111015848D01*
X148172265Y-111015851D01*
X148019129Y-111127111D01*
X147892466Y-111267785D01*
X147797821Y-111431715D01*
X147797818Y-111431722D01*
X147739327Y-111611740D01*
X147739326Y-111611744D01*
X147719540Y-111800000D01*
X113685984Y-111800000D01*
X113604807Y-111763857D01*
X113604802Y-111763855D01*
X113459000Y-111732865D01*
X113419646Y-111724500D01*
X113230354Y-111724500D01*
X113197897Y-111731398D01*
X113045197Y-111763855D01*
X113045192Y-111763857D01*
X112872270Y-111840848D01*
X112872265Y-111840851D01*
X112719129Y-111952111D01*
X112592466Y-112092785D01*
X112497821Y-112256715D01*
X112497818Y-112256722D01*
X112452804Y-112395262D01*
X112439326Y-112436744D01*
X112419540Y-112625000D01*
X110020958Y-112625000D01*
X109998561Y-112596915D01*
X109998560Y-112596914D01*
X109998557Y-112596910D01*
X109800741Y-112413365D01*
X109774189Y-112395262D01*
X109577775Y-112261349D01*
X109577769Y-112261346D01*
X109577768Y-112261345D01*
X109577767Y-112261344D01*
X109334643Y-112144263D01*
X109334645Y-112144263D01*
X109076773Y-112064720D01*
X109076767Y-112064718D01*
X108809936Y-112024500D01*
X108809929Y-112024500D01*
X108540071Y-112024500D01*
X108540063Y-112024500D01*
X108273232Y-112064718D01*
X108273226Y-112064720D01*
X108015358Y-112144262D01*
X107772230Y-112261346D01*
X107549258Y-112413365D01*
X107351442Y-112596910D01*
X107183185Y-112807898D01*
X107048258Y-113041599D01*
X107048256Y-113041603D01*
X106949666Y-113292804D01*
X106949664Y-113292811D01*
X106889616Y-113555898D01*
X106869451Y-113824995D01*
X106869451Y-113825004D01*
X101150500Y-113825004D01*
X101150500Y-108825004D01*
X106869451Y-108825004D01*
X106889616Y-109094101D01*
X106938894Y-109310000D01*
X106949666Y-109357195D01*
X107048257Y-109608398D01*
X107183185Y-109842102D01*
X107299400Y-109987830D01*
X107351442Y-110053089D01*
X107489724Y-110181395D01*
X107549259Y-110236635D01*
X107772226Y-110388651D01*
X108015359Y-110505738D01*
X108273228Y-110585280D01*
X108273229Y-110585280D01*
X108273232Y-110585281D01*
X108540063Y-110625499D01*
X108540068Y-110625499D01*
X108540071Y-110625500D01*
X108540072Y-110625500D01*
X108809928Y-110625500D01*
X108809929Y-110625500D01*
X108809936Y-110625499D01*
X108813247Y-110625000D01*
X137694540Y-110625000D01*
X137714326Y-110813256D01*
X137714327Y-110813259D01*
X137772818Y-110993277D01*
X137772821Y-110993284D01*
X137867467Y-111157216D01*
X137881157Y-111172420D01*
X137994129Y-111297888D01*
X138147265Y-111409148D01*
X138147270Y-111409151D01*
X138320192Y-111486142D01*
X138320197Y-111486144D01*
X138505354Y-111525500D01*
X138505355Y-111525500D01*
X138694644Y-111525500D01*
X138694646Y-111525500D01*
X138879803Y-111486144D01*
X139052730Y-111409151D01*
X139205871Y-111297888D01*
X139332533Y-111157216D01*
X139427179Y-110993284D01*
X139485674Y-110813256D01*
X139505460Y-110625000D01*
X139485674Y-110436744D01*
X139427179Y-110256716D01*
X139332533Y-110092784D01*
X139205871Y-109952112D01*
X139205870Y-109952111D01*
X139052734Y-109840851D01*
X139052729Y-109840848D01*
X138879807Y-109763857D01*
X138879802Y-109763855D01*
X138734001Y-109732865D01*
X138694646Y-109724500D01*
X138505354Y-109724500D01*
X138472897Y-109731398D01*
X138320197Y-109763855D01*
X138320192Y-109763857D01*
X138147270Y-109840848D01*
X138147265Y-109840851D01*
X137994129Y-109952111D01*
X137867466Y-110092785D01*
X137772821Y-110256715D01*
X137772818Y-110256722D01*
X137729951Y-110388654D01*
X137714326Y-110436744D01*
X137694540Y-110625000D01*
X108813247Y-110625000D01*
X109076767Y-110585281D01*
X109076768Y-110585280D01*
X109076772Y-110585280D01*
X109334641Y-110505738D01*
X109577775Y-110388651D01*
X109800741Y-110236635D01*
X109998561Y-110053085D01*
X110166815Y-109842102D01*
X110301743Y-109608398D01*
X110400334Y-109357195D01*
X110411106Y-109310000D01*
X176594341Y-109310000D01*
X176614936Y-109545403D01*
X176614938Y-109545413D01*
X176676094Y-109773655D01*
X176676096Y-109773659D01*
X176676097Y-109773663D01*
X176708011Y-109842102D01*
X176775965Y-109987830D01*
X176775967Y-109987834D01*
X176911501Y-110181395D01*
X176911506Y-110181402D01*
X177078597Y-110348493D01*
X177078603Y-110348498D01*
X177264594Y-110478730D01*
X177308219Y-110533307D01*
X177315413Y-110602805D01*
X177283890Y-110665160D01*
X177264595Y-110681880D01*
X177078922Y-110811890D01*
X177078920Y-110811891D01*
X176911891Y-110978920D01*
X176911886Y-110978926D01*
X176776400Y-111172420D01*
X176776399Y-111172422D01*
X176676570Y-111386507D01*
X176676567Y-111386513D01*
X176619364Y-111599999D01*
X176619364Y-111600000D01*
X177336653Y-111600000D01*
X177403692Y-111619685D01*
X177449447Y-111672489D01*
X177459391Y-111741647D01*
X177455631Y-111758933D01*
X177450000Y-111778111D01*
X177450000Y-111921888D01*
X177455631Y-111941067D01*
X177455630Y-112010936D01*
X177417855Y-112069714D01*
X177354299Y-112098738D01*
X177336653Y-112100000D01*
X176619364Y-112100000D01*
X176676567Y-112313486D01*
X176676570Y-112313492D01*
X176776399Y-112527578D01*
X176911894Y-112721082D01*
X177078917Y-112888105D01*
X177272421Y-113023600D01*
X177486507Y-113123429D01*
X177486516Y-113123433D01*
X177700000Y-113180634D01*
X177700000Y-112462301D01*
X177719685Y-112395262D01*
X177772489Y-112349507D01*
X177841647Y-112339563D01*
X177914237Y-112350000D01*
X177914238Y-112350000D01*
X177985762Y-112350000D01*
X177985763Y-112350000D01*
X178058353Y-112339563D01*
X178127512Y-112349507D01*
X178180315Y-112395262D01*
X178200000Y-112462301D01*
X178200000Y-113180633D01*
X178413483Y-113123433D01*
X178413492Y-113123429D01*
X178627578Y-113023600D01*
X178821082Y-112888105D01*
X178988105Y-112721082D01*
X179123600Y-112527578D01*
X179223429Y-112313492D01*
X179223432Y-112313486D01*
X179280636Y-112100000D01*
X178563347Y-112100000D01*
X178496308Y-112080315D01*
X178450553Y-112027511D01*
X178440609Y-111958353D01*
X178444369Y-111941067D01*
X178450000Y-111921888D01*
X178450000Y-111778111D01*
X178444369Y-111758933D01*
X178444370Y-111689064D01*
X178482145Y-111630286D01*
X178545701Y-111601262D01*
X178563347Y-111600000D01*
X179280636Y-111600000D01*
X179280635Y-111599999D01*
X179223432Y-111386513D01*
X179223429Y-111386507D01*
X179123600Y-111172422D01*
X179123599Y-111172420D01*
X178988113Y-110978926D01*
X178988108Y-110978920D01*
X178821078Y-110811890D01*
X178635405Y-110681879D01*
X178591780Y-110627302D01*
X178584588Y-110557804D01*
X178616110Y-110495449D01*
X178635406Y-110478730D01*
X178695374Y-110436740D01*
X178821401Y-110348495D01*
X178988495Y-110181401D01*
X179124035Y-109987830D01*
X179223903Y-109773663D01*
X179285063Y-109545408D01*
X179305659Y-109310000D01*
X179285063Y-109074592D01*
X179223903Y-108846337D01*
X179124035Y-108632171D01*
X179070628Y-108555898D01*
X178988496Y-108438600D01*
X178988496Y-108438599D01*
X178866567Y-108316671D01*
X178833084Y-108255351D01*
X178838068Y-108185659D01*
X178879939Y-108129725D01*
X178910915Y-108112810D01*
X179042331Y-108063796D01*
X179157546Y-107977546D01*
X179243796Y-107862331D01*
X179294091Y-107727483D01*
X179300500Y-107667873D01*
X179300499Y-105872128D01*
X179294091Y-105812517D01*
X179290808Y-105803716D01*
X179243797Y-105677671D01*
X179243793Y-105677664D01*
X179157547Y-105562455D01*
X179157544Y-105562452D01*
X179042335Y-105476206D01*
X179042328Y-105476202D01*
X178907482Y-105425908D01*
X178907483Y-105425908D01*
X178847883Y-105419501D01*
X178847881Y-105419500D01*
X178847873Y-105419500D01*
X178847864Y-105419500D01*
X177052129Y-105419500D01*
X177052123Y-105419501D01*
X176992516Y-105425908D01*
X176857671Y-105476202D01*
X176857664Y-105476206D01*
X176742455Y-105562452D01*
X176742452Y-105562455D01*
X176656206Y-105677664D01*
X176656202Y-105677671D01*
X176605908Y-105812517D01*
X176599501Y-105872116D01*
X176599501Y-105872123D01*
X176599500Y-105872135D01*
X176599500Y-107667870D01*
X176599501Y-107667876D01*
X176605908Y-107727483D01*
X176656202Y-107862328D01*
X176656206Y-107862335D01*
X176742452Y-107977544D01*
X176742455Y-107977547D01*
X176857664Y-108063793D01*
X176857671Y-108063797D01*
X176989081Y-108112810D01*
X177045015Y-108154681D01*
X177069432Y-108220145D01*
X177054580Y-108288418D01*
X177033430Y-108316673D01*
X176911503Y-108438600D01*
X176775965Y-108632169D01*
X176775964Y-108632171D01*
X176676098Y-108846335D01*
X176676094Y-108846344D01*
X176614938Y-109074586D01*
X176614936Y-109074596D01*
X176594341Y-109309999D01*
X176594341Y-109310000D01*
X110411106Y-109310000D01*
X110460383Y-109094103D01*
X110480549Y-108825000D01*
X110460383Y-108555897D01*
X110400334Y-108292805D01*
X110301743Y-108041602D01*
X110166815Y-107807898D01*
X109998561Y-107596915D01*
X109998560Y-107596914D01*
X109998557Y-107596910D01*
X109800741Y-107413365D01*
X109800740Y-107413364D01*
X109577775Y-107261349D01*
X109577769Y-107261346D01*
X109577768Y-107261345D01*
X109577767Y-107261344D01*
X109346556Y-107150000D01*
X130569540Y-107150000D01*
X130589326Y-107338256D01*
X130589327Y-107338259D01*
X130647818Y-107518277D01*
X130647821Y-107518284D01*
X130742467Y-107682216D01*
X130783225Y-107727482D01*
X130869129Y-107822888D01*
X131022265Y-107934148D01*
X131022270Y-107934151D01*
X131195192Y-108011142D01*
X131195197Y-108011144D01*
X131380354Y-108050500D01*
X131380355Y-108050500D01*
X131569644Y-108050500D01*
X131569646Y-108050500D01*
X131754803Y-108011144D01*
X131927730Y-107934151D01*
X132080871Y-107822888D01*
X132207533Y-107682216D01*
X132302179Y-107518284D01*
X132360674Y-107338256D01*
X132380460Y-107150000D01*
X132360674Y-106961744D01*
X132302179Y-106781716D01*
X132207533Y-106617784D01*
X132080871Y-106477112D01*
X132080870Y-106477111D01*
X131927734Y-106365851D01*
X131927729Y-106365848D01*
X131754807Y-106288857D01*
X131754802Y-106288855D01*
X131609001Y-106257865D01*
X131569646Y-106249500D01*
X131380354Y-106249500D01*
X131347897Y-106256398D01*
X131195197Y-106288855D01*
X131195192Y-106288857D01*
X131022270Y-106365848D01*
X131022265Y-106365851D01*
X130869129Y-106477111D01*
X130742466Y-106617785D01*
X130647821Y-106781715D01*
X130647818Y-106781722D01*
X130591144Y-106956148D01*
X130589326Y-106961744D01*
X130569540Y-107150000D01*
X109346556Y-107150000D01*
X109334643Y-107144263D01*
X109334645Y-107144263D01*
X109076773Y-107064720D01*
X109076767Y-107064718D01*
X108809936Y-107024500D01*
X108809929Y-107024500D01*
X108540071Y-107024500D01*
X108540063Y-107024500D01*
X108273232Y-107064718D01*
X108273226Y-107064720D01*
X108015358Y-107144262D01*
X107772230Y-107261346D01*
X107549258Y-107413365D01*
X107351442Y-107596910D01*
X107183185Y-107807898D01*
X107048258Y-108041599D01*
X107048256Y-108041603D01*
X106949666Y-108292804D01*
X106949664Y-108292811D01*
X106889616Y-108555898D01*
X106869451Y-108824995D01*
X106869451Y-108825004D01*
X101150500Y-108825004D01*
X101150500Y-106172000D01*
X128126540Y-106172000D01*
X128146326Y-106360256D01*
X128146327Y-106360259D01*
X128204818Y-106540277D01*
X128204821Y-106540284D01*
X128299467Y-106704216D01*
X128369248Y-106781715D01*
X128426129Y-106844888D01*
X128579265Y-106956148D01*
X128579270Y-106956151D01*
X128752192Y-107033142D01*
X128752197Y-107033144D01*
X128937354Y-107072500D01*
X128937355Y-107072500D01*
X129126644Y-107072500D01*
X129126646Y-107072500D01*
X129311803Y-107033144D01*
X129484730Y-106956151D01*
X129637871Y-106844888D01*
X129764533Y-106704216D01*
X129859179Y-106540284D01*
X129917674Y-106360256D01*
X129937460Y-106172000D01*
X129917674Y-105983744D01*
X129859179Y-105803716D01*
X129779935Y-105666462D01*
X129763463Y-105598563D01*
X129786316Y-105532536D01*
X129814434Y-105504149D01*
X129891871Y-105447888D01*
X130018533Y-105307216D01*
X130113179Y-105143284D01*
X130171674Y-104963256D01*
X130191460Y-104775000D01*
X130190189Y-104762915D01*
X130202758Y-104694185D01*
X130250489Y-104643160D01*
X130287724Y-104628662D01*
X130327803Y-104620144D01*
X130327807Y-104620142D01*
X130327808Y-104620142D01*
X130402829Y-104586740D01*
X130500730Y-104543151D01*
X130653871Y-104431888D01*
X130780533Y-104291216D01*
X130875179Y-104127284D01*
X130933674Y-103947256D01*
X130953460Y-103759000D01*
X130933674Y-103570744D01*
X130875179Y-103390716D01*
X130780533Y-103226784D01*
X130653871Y-103086112D01*
X130653870Y-103086111D01*
X130500734Y-102974851D01*
X130500729Y-102974848D01*
X130327807Y-102897857D01*
X130327802Y-102897855D01*
X130162679Y-102862758D01*
X130101197Y-102829566D01*
X130067421Y-102768403D01*
X130065336Y-102749442D01*
X130065139Y-102749463D01*
X130064460Y-102743000D01*
X130044674Y-102554744D01*
X129986179Y-102374716D01*
X129891533Y-102210784D01*
X129764871Y-102070112D01*
X129715371Y-102034148D01*
X129611734Y-101958851D01*
X129611729Y-101958848D01*
X129438807Y-101881857D01*
X129438802Y-101881855D01*
X129293000Y-101850865D01*
X129253646Y-101842500D01*
X129064354Y-101842500D01*
X129031897Y-101849398D01*
X128879197Y-101881855D01*
X128879192Y-101881857D01*
X128706270Y-101958848D01*
X128706265Y-101958851D01*
X128553129Y-102070111D01*
X128426466Y-102210785D01*
X128331821Y-102374715D01*
X128331818Y-102374722D01*
X128273327Y-102554740D01*
X128273326Y-102554744D01*
X128253540Y-102743000D01*
X128273326Y-102931256D01*
X128273327Y-102931259D01*
X128331818Y-103111277D01*
X128331821Y-103111284D01*
X128426467Y-103275216D01*
X128553129Y-103415888D01*
X128706265Y-103527148D01*
X128706270Y-103527151D01*
X128879191Y-103604142D01*
X128879193Y-103604142D01*
X128879197Y-103604144D01*
X129044325Y-103639242D01*
X129105802Y-103672433D01*
X129139579Y-103733596D01*
X129141663Y-103752560D01*
X129141861Y-103752540D01*
X129143810Y-103771089D01*
X129131239Y-103839819D01*
X129083505Y-103890841D01*
X129046273Y-103905337D01*
X129014146Y-103912166D01*
X129006197Y-103913856D01*
X129006196Y-103913856D01*
X129006193Y-103913857D01*
X129006192Y-103913857D01*
X128833270Y-103990848D01*
X128833265Y-103990851D01*
X128680129Y-104102111D01*
X128553466Y-104242785D01*
X128458821Y-104406715D01*
X128458818Y-104406722D01*
X128414491Y-104543148D01*
X128400326Y-104586744D01*
X128380540Y-104775000D01*
X128400326Y-104963256D01*
X128400327Y-104963259D01*
X128458818Y-105143277D01*
X128458821Y-105143284D01*
X128538063Y-105280536D01*
X128554536Y-105348437D01*
X128531683Y-105414463D01*
X128503562Y-105442853D01*
X128496633Y-105447888D01*
X128426127Y-105499113D01*
X128299466Y-105639785D01*
X128204821Y-105803715D01*
X128204818Y-105803722D01*
X128146327Y-105983740D01*
X128146326Y-105983744D01*
X128126540Y-106172000D01*
X101150500Y-106172000D01*
X101150500Y-103825004D01*
X106869451Y-103825004D01*
X106889616Y-104094101D01*
X106949664Y-104357188D01*
X106949666Y-104357195D01*
X107048256Y-104608396D01*
X107048258Y-104608400D01*
X107059955Y-104628660D01*
X107183185Y-104842102D01*
X107279805Y-104963259D01*
X107351442Y-105053089D01*
X107448650Y-105143284D01*
X107549259Y-105236635D01*
X107772226Y-105388651D01*
X108015359Y-105505738D01*
X108273228Y-105585280D01*
X108273229Y-105585280D01*
X108273232Y-105585281D01*
X108540063Y-105625499D01*
X108540068Y-105625499D01*
X108540071Y-105625500D01*
X108540072Y-105625500D01*
X108809928Y-105625500D01*
X108809929Y-105625500D01*
X108809936Y-105625499D01*
X109076767Y-105585281D01*
X109076768Y-105585280D01*
X109076772Y-105585280D01*
X109334641Y-105505738D01*
X109577775Y-105388651D01*
X109800741Y-105236635D01*
X109998561Y-105053085D01*
X110166815Y-104842102D01*
X110301743Y-104608398D01*
X110400334Y-104357195D01*
X110460383Y-104094103D01*
X110467104Y-104004401D01*
X110480549Y-103825004D01*
X110480549Y-103824995D01*
X110460383Y-103555898D01*
X110422683Y-103390722D01*
X110400334Y-103292805D01*
X110301743Y-103041602D01*
X110166815Y-102807898D01*
X109998561Y-102596915D01*
X109998560Y-102596914D01*
X109998557Y-102596910D01*
X109800741Y-102413365D01*
X109744052Y-102374715D01*
X109577775Y-102261349D01*
X109577769Y-102261346D01*
X109577768Y-102261345D01*
X109577767Y-102261344D01*
X109334643Y-102144263D01*
X109334645Y-102144263D01*
X109076773Y-102064720D01*
X109076767Y-102064718D01*
X108809936Y-102024500D01*
X108809929Y-102024500D01*
X108540071Y-102024500D01*
X108540063Y-102024500D01*
X108273232Y-102064718D01*
X108273226Y-102064720D01*
X108015358Y-102144262D01*
X107772230Y-102261346D01*
X107549258Y-102413365D01*
X107351442Y-102596910D01*
X107183185Y-102807898D01*
X107048258Y-103041599D01*
X107048256Y-103041603D01*
X106949666Y-103292804D01*
X106949664Y-103292811D01*
X106889616Y-103555898D01*
X106869451Y-103824995D01*
X106869451Y-103825004D01*
X101150500Y-103825004D01*
X101150500Y-101250000D01*
X152594540Y-101250000D01*
X152614326Y-101438256D01*
X152614327Y-101438259D01*
X152672818Y-101618277D01*
X152672821Y-101618284D01*
X152767467Y-101782216D01*
X152894129Y-101922887D01*
X152894129Y-101922888D01*
X153047265Y-102034148D01*
X153047270Y-102034151D01*
X153220192Y-102111142D01*
X153220197Y-102111144D01*
X153405354Y-102150500D01*
X153405355Y-102150500D01*
X153594644Y-102150500D01*
X153594646Y-102150500D01*
X153779803Y-102111144D01*
X153952730Y-102034151D01*
X154105871Y-101922888D01*
X154232533Y-101782216D01*
X154327179Y-101618284D01*
X154385674Y-101438256D01*
X154405460Y-101250000D01*
X154385674Y-101061744D01*
X154327179Y-100881716D01*
X154232533Y-100717784D01*
X154105871Y-100577112D01*
X154105870Y-100577111D01*
X153952734Y-100465851D01*
X153952729Y-100465848D01*
X153779807Y-100388857D01*
X153779802Y-100388855D01*
X153634000Y-100357865D01*
X153594646Y-100349500D01*
X153405354Y-100349500D01*
X153372897Y-100356398D01*
X153220197Y-100388855D01*
X153220192Y-100388857D01*
X153047270Y-100465848D01*
X153047265Y-100465851D01*
X152894129Y-100577111D01*
X152767466Y-100717785D01*
X152672821Y-100881715D01*
X152672818Y-100881722D01*
X152614327Y-101061740D01*
X152614326Y-101061744D01*
X152594540Y-101250000D01*
X101150500Y-101250000D01*
X101150500Y-100172870D01*
X106874500Y-100172870D01*
X106874501Y-100172876D01*
X106880908Y-100232483D01*
X106931202Y-100367328D01*
X106931206Y-100367335D01*
X107017452Y-100482544D01*
X107017455Y-100482547D01*
X107132664Y-100568793D01*
X107132671Y-100568797D01*
X107267517Y-100619091D01*
X107267516Y-100619091D01*
X107274444Y-100619835D01*
X107327127Y-100625500D01*
X110022872Y-100625499D01*
X110082483Y-100619091D01*
X110217331Y-100568796D01*
X110332546Y-100482546D01*
X110418796Y-100367331D01*
X110469091Y-100232483D01*
X110475500Y-100172873D01*
X110475500Y-99500000D01*
X120719540Y-99500000D01*
X120739326Y-99688256D01*
X120739327Y-99688259D01*
X120797818Y-99868277D01*
X120797821Y-99868284D01*
X120892467Y-100032216D01*
X121019107Y-100172864D01*
X121019129Y-100172888D01*
X121172265Y-100284148D01*
X121172270Y-100284151D01*
X121345192Y-100361142D01*
X121345197Y-100361144D01*
X121530354Y-100400500D01*
X121530355Y-100400500D01*
X121719644Y-100400500D01*
X121719646Y-100400500D01*
X121904803Y-100361144D01*
X122077730Y-100284151D01*
X122230871Y-100172888D01*
X122357533Y-100032216D01*
X122452179Y-99868284D01*
X122510674Y-99688256D01*
X122530460Y-99500000D01*
X122510674Y-99311744D01*
X122482327Y-99224502D01*
X124394751Y-99224502D01*
X124413685Y-99392556D01*
X124469545Y-99552194D01*
X124469547Y-99552197D01*
X124559518Y-99695384D01*
X124559523Y-99695390D01*
X124679109Y-99814976D01*
X124679115Y-99814981D01*
X124822302Y-99904952D01*
X124822305Y-99904954D01*
X124822309Y-99904955D01*
X124822310Y-99904956D01*
X124894913Y-99930360D01*
X124981943Y-99960814D01*
X125149997Y-99979749D01*
X125150000Y-99979749D01*
X125150003Y-99979749D01*
X125318056Y-99960814D01*
X125318059Y-99960813D01*
X125477690Y-99904956D01*
X125477692Y-99904954D01*
X125477694Y-99904954D01*
X125477697Y-99904952D01*
X125620884Y-99814981D01*
X125620885Y-99814980D01*
X125620890Y-99814977D01*
X125740477Y-99695390D01*
X125830452Y-99552197D01*
X125830454Y-99552194D01*
X125830454Y-99552192D01*
X125830456Y-99552190D01*
X125886313Y-99392559D01*
X125886313Y-99392558D01*
X125886314Y-99392556D01*
X125905249Y-99224502D01*
X125905249Y-99224497D01*
X125886314Y-99056443D01*
X125830454Y-98896805D01*
X125830452Y-98896802D01*
X125740481Y-98753615D01*
X125740476Y-98753609D01*
X125620890Y-98634023D01*
X125620884Y-98634018D01*
X125477697Y-98544047D01*
X125477694Y-98544045D01*
X125318056Y-98488185D01*
X125150003Y-98469251D01*
X125149997Y-98469251D01*
X124981943Y-98488185D01*
X124822305Y-98544045D01*
X124822302Y-98544047D01*
X124679115Y-98634018D01*
X124679109Y-98634023D01*
X124559523Y-98753609D01*
X124559518Y-98753615D01*
X124469547Y-98896802D01*
X124469545Y-98896805D01*
X124413685Y-99056443D01*
X124394751Y-99224497D01*
X124394751Y-99224502D01*
X122482327Y-99224502D01*
X122452179Y-99131716D01*
X122357533Y-98967784D01*
X122230871Y-98827112D01*
X122230870Y-98827111D01*
X122077734Y-98715851D01*
X122077729Y-98715848D01*
X121904807Y-98638857D01*
X121904802Y-98638855D01*
X121759001Y-98607865D01*
X121719646Y-98599500D01*
X121530354Y-98599500D01*
X121497897Y-98606398D01*
X121345197Y-98638855D01*
X121345192Y-98638857D01*
X121172270Y-98715848D01*
X121172265Y-98715851D01*
X121019129Y-98827111D01*
X120892466Y-98967785D01*
X120797821Y-99131715D01*
X120797818Y-99131722D01*
X120739327Y-99311740D01*
X120739326Y-99311744D01*
X120719540Y-99500000D01*
X110475500Y-99500000D01*
X110475499Y-98298000D01*
X128111811Y-98298000D01*
X128131597Y-98486256D01*
X128131598Y-98486259D01*
X128190089Y-98666277D01*
X128190092Y-98666284D01*
X128284738Y-98830216D01*
X128344700Y-98896810D01*
X128411400Y-98970888D01*
X128564536Y-99082148D01*
X128564541Y-99082151D01*
X128737463Y-99159142D01*
X128737468Y-99159144D01*
X128922625Y-99198500D01*
X128922626Y-99198500D01*
X129111915Y-99198500D01*
X129111917Y-99198500D01*
X129297074Y-99159144D01*
X129470001Y-99082151D01*
X129623142Y-98970888D01*
X129749804Y-98830216D01*
X129844450Y-98666284D01*
X129902945Y-98486256D01*
X129922731Y-98298000D01*
X129902945Y-98109744D01*
X129844450Y-97929716D01*
X129749804Y-97765784D01*
X129623142Y-97625112D01*
X129623141Y-97625111D01*
X129470005Y-97513851D01*
X129470000Y-97513848D01*
X129297078Y-97436857D01*
X129297073Y-97436855D01*
X129151272Y-97405865D01*
X129111917Y-97397500D01*
X128922625Y-97397500D01*
X128890168Y-97404398D01*
X128737468Y-97436855D01*
X128737463Y-97436857D01*
X128564541Y-97513848D01*
X128564536Y-97513851D01*
X128411400Y-97625111D01*
X128284737Y-97765785D01*
X128190092Y-97929715D01*
X128190089Y-97929722D01*
X128137754Y-98090795D01*
X128131597Y-98109744D01*
X128111811Y-98298000D01*
X110475499Y-98298000D01*
X110475499Y-97477128D01*
X110469091Y-97417517D01*
X110466414Y-97410341D01*
X122209412Y-97410341D01*
X122228346Y-97578395D01*
X122284206Y-97738033D01*
X122284208Y-97738036D01*
X122374179Y-97881223D01*
X122374184Y-97881229D01*
X122493770Y-98000815D01*
X122493776Y-98000820D01*
X122636963Y-98090791D01*
X122636966Y-98090793D01*
X122636970Y-98090794D01*
X122636971Y-98090795D01*
X122709574Y-98116199D01*
X122796604Y-98146653D01*
X122964658Y-98165588D01*
X122964661Y-98165588D01*
X122964664Y-98165588D01*
X123132717Y-98146653D01*
X123132720Y-98146652D01*
X123292351Y-98090795D01*
X123292353Y-98090793D01*
X123292355Y-98090793D01*
X123292358Y-98090791D01*
X123435545Y-98000820D01*
X123435546Y-98000819D01*
X123435551Y-98000816D01*
X123555138Y-97881229D01*
X123627677Y-97765785D01*
X123645113Y-97738036D01*
X123645115Y-97738033D01*
X123645115Y-97738031D01*
X123645117Y-97738029D01*
X123700974Y-97578398D01*
X123700974Y-97578397D01*
X123700975Y-97578395D01*
X123719910Y-97410341D01*
X123719910Y-97410336D01*
X123700975Y-97242282D01*
X123645115Y-97082644D01*
X123645113Y-97082641D01*
X123555142Y-96939454D01*
X123555137Y-96939448D01*
X123435551Y-96819862D01*
X123435545Y-96819857D01*
X123292358Y-96729886D01*
X123292355Y-96729884D01*
X123132717Y-96674024D01*
X122964664Y-96655090D01*
X122964658Y-96655090D01*
X122796604Y-96674024D01*
X122636966Y-96729884D01*
X122636963Y-96729886D01*
X122493776Y-96819857D01*
X122493770Y-96819862D01*
X122374184Y-96939448D01*
X122374179Y-96939454D01*
X122284208Y-97082641D01*
X122284206Y-97082644D01*
X122228346Y-97242282D01*
X122209412Y-97410336D01*
X122209412Y-97410341D01*
X110466414Y-97410341D01*
X110461625Y-97397500D01*
X110418797Y-97282671D01*
X110418793Y-97282664D01*
X110332547Y-97167455D01*
X110332544Y-97167452D01*
X110217335Y-97081206D01*
X110217328Y-97081202D01*
X110082482Y-97030908D01*
X110082483Y-97030908D01*
X110022883Y-97024501D01*
X110022881Y-97024500D01*
X110022873Y-97024500D01*
X110022864Y-97024500D01*
X107327129Y-97024500D01*
X107327123Y-97024501D01*
X107267516Y-97030908D01*
X107132671Y-97081202D01*
X107132664Y-97081206D01*
X107017455Y-97167452D01*
X107017452Y-97167455D01*
X106931206Y-97282664D01*
X106931202Y-97282671D01*
X106880908Y-97417517D01*
X106874501Y-97477116D01*
X106874501Y-97477123D01*
X106874500Y-97477135D01*
X106874500Y-100172870D01*
X101150500Y-100172870D01*
X101150500Y-95400000D01*
X152669540Y-95400000D01*
X152689326Y-95588256D01*
X152689327Y-95588259D01*
X152747818Y-95768277D01*
X152747821Y-95768284D01*
X152842467Y-95932216D01*
X152969129Y-96072888D01*
X153122265Y-96184148D01*
X153122270Y-96184151D01*
X153295192Y-96261142D01*
X153295197Y-96261144D01*
X153480354Y-96300500D01*
X153480355Y-96300500D01*
X153669644Y-96300500D01*
X153669646Y-96300500D01*
X153854803Y-96261144D01*
X154027730Y-96184151D01*
X154180871Y-96072888D01*
X154307533Y-95932216D01*
X154402179Y-95768284D01*
X154460674Y-95588256D01*
X154480460Y-95400000D01*
X154460674Y-95211744D01*
X154402179Y-95031716D01*
X154307533Y-94867784D01*
X154180871Y-94727112D01*
X154180870Y-94727111D01*
X154027734Y-94615851D01*
X154027729Y-94615848D01*
X153854807Y-94538857D01*
X153854802Y-94538855D01*
X153709001Y-94507865D01*
X153669646Y-94499500D01*
X153480354Y-94499500D01*
X153447897Y-94506398D01*
X153295197Y-94538855D01*
X153295192Y-94538857D01*
X153122270Y-94615848D01*
X153122265Y-94615851D01*
X152969129Y-94727111D01*
X152842466Y-94867785D01*
X152747821Y-95031715D01*
X152747818Y-95031722D01*
X152689327Y-95211740D01*
X152689326Y-95211744D01*
X152669540Y-95400000D01*
X101150500Y-95400000D01*
X101150500Y-92300000D01*
X127794540Y-92300000D01*
X127814326Y-92488256D01*
X127814327Y-92488259D01*
X127872818Y-92668277D01*
X127872821Y-92668284D01*
X127967467Y-92832216D01*
X128094129Y-92972887D01*
X128094129Y-92972888D01*
X128247265Y-93084148D01*
X128247270Y-93084151D01*
X128420192Y-93161142D01*
X128420197Y-93161144D01*
X128605354Y-93200500D01*
X128605355Y-93200500D01*
X128794644Y-93200500D01*
X128794646Y-93200500D01*
X128979803Y-93161144D01*
X129152730Y-93084151D01*
X129305871Y-92972888D01*
X129432533Y-92832216D01*
X129527179Y-92668284D01*
X129585674Y-92488256D01*
X129605460Y-92300000D01*
X129585674Y-92111744D01*
X129527179Y-91931716D01*
X129456906Y-91810000D01*
X176594341Y-91810000D01*
X176614936Y-92045403D01*
X176614938Y-92045413D01*
X176676094Y-92273655D01*
X176676096Y-92273659D01*
X176676097Y-92273663D01*
X176775964Y-92487829D01*
X176775965Y-92487830D01*
X176775967Y-92487834D01*
X176776265Y-92488259D01*
X176911505Y-92681401D01*
X177078599Y-92848495D01*
X177256250Y-92972888D01*
X177264594Y-92978730D01*
X177308219Y-93033307D01*
X177315413Y-93102805D01*
X177283890Y-93165160D01*
X177264595Y-93181880D01*
X177078922Y-93311890D01*
X177078920Y-93311891D01*
X176911891Y-93478920D01*
X176911886Y-93478926D01*
X176776400Y-93672420D01*
X176776399Y-93672422D01*
X176676570Y-93886507D01*
X176676567Y-93886513D01*
X176619364Y-94099999D01*
X176619364Y-94100000D01*
X177336653Y-94100000D01*
X177403692Y-94119685D01*
X177449447Y-94172489D01*
X177459391Y-94241647D01*
X177455631Y-94258933D01*
X177450000Y-94278111D01*
X177450000Y-94421888D01*
X177455631Y-94441067D01*
X177455630Y-94510936D01*
X177417855Y-94569714D01*
X177354299Y-94598738D01*
X177336653Y-94600000D01*
X176619364Y-94600000D01*
X176676567Y-94813486D01*
X176676570Y-94813492D01*
X176776399Y-95027578D01*
X176911894Y-95221082D01*
X177078917Y-95388105D01*
X177272421Y-95523600D01*
X177486507Y-95623429D01*
X177486516Y-95623433D01*
X177700000Y-95680634D01*
X177700000Y-94962301D01*
X177719685Y-94895262D01*
X177772489Y-94849507D01*
X177841647Y-94839563D01*
X177914237Y-94850000D01*
X177914238Y-94850000D01*
X177985762Y-94850000D01*
X177985763Y-94850000D01*
X178058353Y-94839563D01*
X178127512Y-94849507D01*
X178180315Y-94895262D01*
X178200000Y-94962301D01*
X178200000Y-95680633D01*
X178413483Y-95623433D01*
X178413492Y-95623429D01*
X178627578Y-95523600D01*
X178821082Y-95388105D01*
X178988105Y-95221082D01*
X179123600Y-95027578D01*
X179223429Y-94813492D01*
X179223432Y-94813486D01*
X179280636Y-94600000D01*
X178563347Y-94600000D01*
X178496308Y-94580315D01*
X178450553Y-94527511D01*
X178440609Y-94458353D01*
X178444369Y-94441067D01*
X178450000Y-94421888D01*
X178450000Y-94278111D01*
X178444369Y-94258933D01*
X178444370Y-94189064D01*
X178482145Y-94130286D01*
X178545701Y-94101262D01*
X178563347Y-94100000D01*
X179280636Y-94100000D01*
X179280635Y-94099999D01*
X179223432Y-93886513D01*
X179223429Y-93886507D01*
X179123600Y-93672422D01*
X179123599Y-93672420D01*
X178988113Y-93478926D01*
X178988108Y-93478920D01*
X178821078Y-93311890D01*
X178635405Y-93181879D01*
X178591780Y-93127302D01*
X178584588Y-93057804D01*
X178616110Y-92995449D01*
X178635406Y-92978730D01*
X178821401Y-92848495D01*
X178988495Y-92681401D01*
X179124035Y-92487830D01*
X179223903Y-92273663D01*
X179285063Y-92045408D01*
X179305659Y-91810000D01*
X179301965Y-91767784D01*
X179285063Y-91574596D01*
X179285063Y-91574592D01*
X179223903Y-91346337D01*
X179124035Y-91132171D01*
X178988495Y-90938599D01*
X178866567Y-90816671D01*
X178833084Y-90755351D01*
X178838068Y-90685659D01*
X178879939Y-90629725D01*
X178910915Y-90612810D01*
X179042331Y-90563796D01*
X179157546Y-90477546D01*
X179243796Y-90362331D01*
X179294091Y-90227483D01*
X179300500Y-90167873D01*
X179300499Y-88372128D01*
X179294091Y-88312517D01*
X179243796Y-88177669D01*
X179243795Y-88177668D01*
X179243793Y-88177664D01*
X179157547Y-88062455D01*
X179157544Y-88062452D01*
X179042335Y-87976206D01*
X179042328Y-87976202D01*
X178907482Y-87925908D01*
X178907483Y-87925908D01*
X178847883Y-87919501D01*
X178847881Y-87919500D01*
X178847873Y-87919500D01*
X178847864Y-87919500D01*
X177052129Y-87919500D01*
X177052123Y-87919501D01*
X176992516Y-87925908D01*
X176857671Y-87976202D01*
X176857664Y-87976206D01*
X176742455Y-88062452D01*
X176742452Y-88062455D01*
X176656206Y-88177664D01*
X176656202Y-88177671D01*
X176605908Y-88312517D01*
X176603312Y-88336668D01*
X176599501Y-88372123D01*
X176599500Y-88372135D01*
X176599500Y-90167870D01*
X176599501Y-90167876D01*
X176605908Y-90227483D01*
X176656202Y-90362328D01*
X176656206Y-90362335D01*
X176742452Y-90477544D01*
X176742455Y-90477547D01*
X176857664Y-90563793D01*
X176857671Y-90563797D01*
X176989081Y-90612810D01*
X177045015Y-90654681D01*
X177069432Y-90720145D01*
X177054580Y-90788418D01*
X177033430Y-90816673D01*
X176911503Y-90938600D01*
X176775965Y-91132169D01*
X176775964Y-91132171D01*
X176676098Y-91346335D01*
X176676094Y-91346344D01*
X176614938Y-91574586D01*
X176614936Y-91574596D01*
X176594341Y-91809999D01*
X176594341Y-91810000D01*
X129456906Y-91810000D01*
X129432533Y-91767784D01*
X129305871Y-91627112D01*
X129233589Y-91574596D01*
X129152734Y-91515851D01*
X129152729Y-91515848D01*
X128979807Y-91438857D01*
X128979802Y-91438855D01*
X128834000Y-91407865D01*
X128794646Y-91399500D01*
X128605354Y-91399500D01*
X128572897Y-91406398D01*
X128420197Y-91438855D01*
X128420192Y-91438857D01*
X128247270Y-91515848D01*
X128247265Y-91515851D01*
X128094129Y-91627111D01*
X127967466Y-91767785D01*
X127872821Y-91931715D01*
X127872818Y-91931722D01*
X127835878Y-92045413D01*
X127814326Y-92111744D01*
X127794540Y-92300000D01*
X101150500Y-92300000D01*
X101150500Y-87850004D01*
X106944451Y-87850004D01*
X106964616Y-88119101D01*
X107024664Y-88382188D01*
X107024666Y-88382195D01*
X107052461Y-88453016D01*
X107123257Y-88633398D01*
X107258185Y-88867102D01*
X107393467Y-89036740D01*
X107426442Y-89078089D01*
X107584776Y-89225000D01*
X107624259Y-89261635D01*
X107847226Y-89413651D01*
X108090359Y-89530738D01*
X108348228Y-89610280D01*
X108348229Y-89610280D01*
X108348232Y-89610281D01*
X108615063Y-89650499D01*
X108615068Y-89650499D01*
X108615071Y-89650500D01*
X108615072Y-89650500D01*
X108884928Y-89650500D01*
X108884929Y-89650500D01*
X108884936Y-89650499D01*
X109151767Y-89610281D01*
X109151768Y-89610280D01*
X109151772Y-89610280D01*
X109409641Y-89530738D01*
X109652775Y-89413651D01*
X109875741Y-89261635D01*
X109902110Y-89237168D01*
X146591943Y-89237168D01*
X146611729Y-89425424D01*
X146611730Y-89425427D01*
X146670221Y-89605445D01*
X146670224Y-89605452D01*
X146764870Y-89769384D01*
X146880576Y-89897888D01*
X146891532Y-89910056D01*
X147044668Y-90021316D01*
X147044673Y-90021319D01*
X147217595Y-90098310D01*
X147217600Y-90098312D01*
X147402757Y-90137668D01*
X147402758Y-90137668D01*
X147592047Y-90137668D01*
X147592049Y-90137668D01*
X147777206Y-90098312D01*
X147950133Y-90021319D01*
X148103274Y-89910056D01*
X148229936Y-89769384D01*
X148324582Y-89605452D01*
X148383077Y-89425424D01*
X148402863Y-89237168D01*
X148401584Y-89225000D01*
X166419540Y-89225000D01*
X166439326Y-89413256D01*
X166439327Y-89413259D01*
X166497818Y-89593277D01*
X166497821Y-89593284D01*
X166592467Y-89757216D01*
X166719128Y-89897887D01*
X166719129Y-89897888D01*
X166872265Y-90009148D01*
X166872270Y-90009151D01*
X167045192Y-90086142D01*
X167045197Y-90086144D01*
X167230354Y-90125500D01*
X167230355Y-90125500D01*
X167419644Y-90125500D01*
X167419646Y-90125500D01*
X167604803Y-90086144D01*
X167777730Y-90009151D01*
X167930871Y-89897888D01*
X168057533Y-89757216D01*
X168152179Y-89593284D01*
X168210674Y-89413256D01*
X168230460Y-89225000D01*
X168210674Y-89036744D01*
X168152179Y-88856716D01*
X168057533Y-88692784D01*
X167930871Y-88552112D01*
X167930870Y-88552111D01*
X167777734Y-88440851D01*
X167777729Y-88440848D01*
X167604807Y-88363857D01*
X167604802Y-88363855D01*
X167459001Y-88332865D01*
X167419646Y-88324500D01*
X167230354Y-88324500D01*
X167197897Y-88331398D01*
X167045197Y-88363855D01*
X167045192Y-88363857D01*
X166872270Y-88440848D01*
X166872265Y-88440851D01*
X166719129Y-88552111D01*
X166592466Y-88692785D01*
X166497821Y-88856715D01*
X166497818Y-88856722D01*
X166439327Y-89036740D01*
X166439326Y-89036744D01*
X166419540Y-89225000D01*
X148401584Y-89225000D01*
X148383077Y-89048912D01*
X148324582Y-88868884D01*
X148229936Y-88704952D01*
X148103274Y-88564280D01*
X148103273Y-88564279D01*
X147950137Y-88453019D01*
X147950132Y-88453016D01*
X147777210Y-88376025D01*
X147777205Y-88376023D01*
X147631404Y-88345033D01*
X147592049Y-88336668D01*
X147402757Y-88336668D01*
X147370300Y-88343566D01*
X147217600Y-88376023D01*
X147217595Y-88376025D01*
X147044673Y-88453016D01*
X147044668Y-88453019D01*
X146891532Y-88564279D01*
X146764869Y-88704953D01*
X146670224Y-88868883D01*
X146670221Y-88868890D01*
X146611730Y-89048908D01*
X146611729Y-89048912D01*
X146591943Y-89237168D01*
X109902110Y-89237168D01*
X110073561Y-89078085D01*
X110241815Y-88867102D01*
X110376743Y-88633398D01*
X110475334Y-88382195D01*
X110535383Y-88119103D01*
X110555549Y-87850000D01*
X110535383Y-87580897D01*
X110475334Y-87317805D01*
X110376743Y-87066602D01*
X110241815Y-86832898D01*
X110073561Y-86621915D01*
X110073560Y-86621914D01*
X110073557Y-86621910D01*
X109875741Y-86438365D01*
X109853040Y-86422888D01*
X109652775Y-86286349D01*
X109652769Y-86286346D01*
X109652768Y-86286345D01*
X109652767Y-86286344D01*
X109409643Y-86169263D01*
X109409645Y-86169263D01*
X109151773Y-86089720D01*
X109151767Y-86089718D01*
X108884936Y-86049500D01*
X108884929Y-86049500D01*
X108615071Y-86049500D01*
X108615063Y-86049500D01*
X108348232Y-86089718D01*
X108348226Y-86089720D01*
X108090358Y-86169262D01*
X107847230Y-86286346D01*
X107624258Y-86438365D01*
X107426442Y-86621910D01*
X107258185Y-86832898D01*
X107123258Y-87066599D01*
X107123256Y-87066603D01*
X107024666Y-87317804D01*
X107024664Y-87317811D01*
X106964616Y-87580898D01*
X106944451Y-87849995D01*
X106944451Y-87850004D01*
X101150500Y-87850004D01*
X101150500Y-84950000D01*
X125519540Y-84950000D01*
X125539326Y-85138256D01*
X125539327Y-85138259D01*
X125597818Y-85318277D01*
X125597821Y-85318284D01*
X125692467Y-85482216D01*
X125759553Y-85556722D01*
X125819129Y-85622888D01*
X125972265Y-85734148D01*
X125972270Y-85734151D01*
X126145192Y-85811142D01*
X126145197Y-85811144D01*
X126330354Y-85850500D01*
X126330355Y-85850500D01*
X126519644Y-85850500D01*
X126519646Y-85850500D01*
X126619647Y-85829244D01*
X126689312Y-85834560D01*
X126745045Y-85876697D01*
X126763357Y-85912216D01*
X126797818Y-86018277D01*
X126797821Y-86018284D01*
X126892467Y-86182216D01*
X127019129Y-86322888D01*
X127172265Y-86434148D01*
X127172270Y-86434151D01*
X127345192Y-86511142D01*
X127345197Y-86511144D01*
X127530354Y-86550500D01*
X127530355Y-86550500D01*
X127719644Y-86550500D01*
X127719646Y-86550500D01*
X127904803Y-86511144D01*
X128077730Y-86434151D01*
X128230871Y-86322888D01*
X128357533Y-86182216D01*
X128452179Y-86018284D01*
X128510674Y-85838256D01*
X128530460Y-85650000D01*
X128510674Y-85461744D01*
X128452179Y-85281716D01*
X128357533Y-85117784D01*
X128230871Y-84977112D01*
X128215372Y-84965851D01*
X128090327Y-84875000D01*
X129044540Y-84875000D01*
X129064326Y-85063256D01*
X129064327Y-85063259D01*
X129122818Y-85243277D01*
X129122821Y-85243284D01*
X129217467Y-85407216D01*
X129335798Y-85538636D01*
X129344129Y-85547888D01*
X129497265Y-85659148D01*
X129497267Y-85659149D01*
X129497270Y-85659151D01*
X129629331Y-85717949D01*
X129682567Y-85763198D01*
X129702214Y-85818264D01*
X129714826Y-85938256D01*
X129714827Y-85938259D01*
X129773318Y-86118277D01*
X129773321Y-86118284D01*
X129867967Y-86282216D01*
X129994628Y-86422888D01*
X129994629Y-86422888D01*
X130147765Y-86534148D01*
X130147770Y-86534151D01*
X130320692Y-86611142D01*
X130320697Y-86611144D01*
X130505854Y-86650500D01*
X130505855Y-86650500D01*
X130695144Y-86650500D01*
X130695146Y-86650500D01*
X130880303Y-86611144D01*
X131053230Y-86534151D01*
X131206371Y-86422888D01*
X131333033Y-86282216D01*
X131427679Y-86118284D01*
X131486174Y-85938256D01*
X131487567Y-85925000D01*
X149869540Y-85925000D01*
X149889326Y-86113256D01*
X149889327Y-86113259D01*
X149947818Y-86293277D01*
X149947821Y-86293284D01*
X150042467Y-86457216D01*
X150111737Y-86534148D01*
X150169129Y-86597888D01*
X150322265Y-86709148D01*
X150322270Y-86709151D01*
X150495192Y-86786142D01*
X150495197Y-86786144D01*
X150680354Y-86825500D01*
X150680355Y-86825500D01*
X150869644Y-86825500D01*
X150869646Y-86825500D01*
X151054803Y-86786144D01*
X151227730Y-86709151D01*
X151380871Y-86597888D01*
X151507533Y-86457216D01*
X151602179Y-86293284D01*
X151660674Y-86113256D01*
X151680460Y-85925000D01*
X151660674Y-85736744D01*
X151602179Y-85556716D01*
X151547126Y-85461362D01*
X186760862Y-85461362D01*
X186770548Y-85615305D01*
X186810004Y-85736740D01*
X186818213Y-85762003D01*
X186818214Y-85762006D01*
X186900862Y-85892240D01*
X186900863Y-85892241D01*
X187013301Y-85997827D01*
X187013309Y-85997833D01*
X187148470Y-86072138D01*
X187148474Y-86072140D01*
X187297876Y-86110500D01*
X187297880Y-86110500D01*
X187413406Y-86110500D01*
X187413408Y-86110500D01*
X187413413Y-86110499D01*
X187413417Y-86110499D01*
X187425840Y-86108929D01*
X187528032Y-86096020D01*
X187671448Y-86039237D01*
X187796237Y-85948572D01*
X187894559Y-85829722D01*
X187960235Y-85690154D01*
X187989138Y-85538638D01*
X187979452Y-85384695D01*
X187931787Y-85237996D01*
X187878030Y-85153288D01*
X187849137Y-85107759D01*
X187849136Y-85107758D01*
X187736698Y-85002172D01*
X187736690Y-85002166D01*
X187601529Y-84927861D01*
X187601519Y-84927858D01*
X187452127Y-84889500D01*
X187452124Y-84889500D01*
X187336592Y-84889500D01*
X187336582Y-84889500D01*
X187221968Y-84903980D01*
X187221966Y-84903980D01*
X187078553Y-84960762D01*
X186953762Y-85051429D01*
X186855440Y-85170279D01*
X186789764Y-85309847D01*
X186760862Y-85461359D01*
X186760862Y-85461362D01*
X151547126Y-85461362D01*
X151507533Y-85392784D01*
X151380871Y-85252112D01*
X151380870Y-85252111D01*
X151227734Y-85140851D01*
X151227729Y-85140848D01*
X151054807Y-85063857D01*
X151054802Y-85063855D01*
X150909001Y-85032865D01*
X150869646Y-85024500D01*
X150680354Y-85024500D01*
X150647897Y-85031398D01*
X150495197Y-85063855D01*
X150495192Y-85063857D01*
X150322270Y-85140848D01*
X150322265Y-85140851D01*
X150169129Y-85252111D01*
X150042466Y-85392785D01*
X149947821Y-85556715D01*
X149947818Y-85556722D01*
X149889521Y-85736144D01*
X149889326Y-85736744D01*
X149869540Y-85925000D01*
X131487567Y-85925000D01*
X131505960Y-85750000D01*
X131486174Y-85561744D01*
X131427679Y-85381716D01*
X131333033Y-85217784D01*
X131206371Y-85077112D01*
X131188126Y-85063856D01*
X131053234Y-84965851D01*
X131053232Y-84965850D01*
X131041804Y-84960762D01*
X130967909Y-84927861D01*
X130921168Y-84907050D01*
X130867932Y-84861799D01*
X130848285Y-84806735D01*
X130835674Y-84686744D01*
X130777179Y-84506716D01*
X130682533Y-84342784D01*
X130555871Y-84202112D01*
X130505962Y-84165851D01*
X130402734Y-84090851D01*
X130402729Y-84090848D01*
X130229807Y-84013857D01*
X130229802Y-84013855D01*
X130084001Y-83982865D01*
X130044646Y-83974500D01*
X129855354Y-83974500D01*
X129822897Y-83981398D01*
X129670197Y-84013855D01*
X129670192Y-84013857D01*
X129497270Y-84090848D01*
X129497265Y-84090851D01*
X129344129Y-84202111D01*
X129217466Y-84342785D01*
X129122821Y-84506715D01*
X129122818Y-84506722D01*
X129076102Y-84650500D01*
X129064326Y-84686744D01*
X129044540Y-84875000D01*
X128090327Y-84875000D01*
X128077734Y-84865851D01*
X128077729Y-84865848D01*
X127904807Y-84788857D01*
X127904802Y-84788855D01*
X127759000Y-84757865D01*
X127719646Y-84749500D01*
X127530354Y-84749500D01*
X127430351Y-84770755D01*
X127360686Y-84765439D01*
X127304953Y-84723301D01*
X127286642Y-84687783D01*
X127286304Y-84686744D01*
X127267524Y-84628945D01*
X127252181Y-84581721D01*
X127252178Y-84581715D01*
X127157533Y-84417784D01*
X127030871Y-84277112D01*
X127009569Y-84261635D01*
X126877734Y-84165851D01*
X126877729Y-84165848D01*
X126704807Y-84088857D01*
X126704802Y-84088855D01*
X126559001Y-84057865D01*
X126519646Y-84049500D01*
X126330354Y-84049500D01*
X126297897Y-84056398D01*
X126145197Y-84088855D01*
X126145192Y-84088857D01*
X125972270Y-84165848D01*
X125972265Y-84165851D01*
X125819129Y-84277111D01*
X125692466Y-84417785D01*
X125597821Y-84581715D01*
X125597818Y-84581722D01*
X125555767Y-84711144D01*
X125539326Y-84761744D01*
X125519540Y-84950000D01*
X101150500Y-84950000D01*
X101150500Y-82850004D01*
X106944451Y-82850004D01*
X106964616Y-83119101D01*
X107024664Y-83382188D01*
X107024666Y-83382195D01*
X107117706Y-83619256D01*
X107123257Y-83633398D01*
X107258185Y-83867102D01*
X107375217Y-84013855D01*
X107426442Y-84078089D01*
X107613183Y-84251358D01*
X107624259Y-84261635D01*
X107847226Y-84413651D01*
X108090359Y-84530738D01*
X108348228Y-84610280D01*
X108348229Y-84610280D01*
X108348232Y-84610281D01*
X108615063Y-84650499D01*
X108615068Y-84650499D01*
X108615071Y-84650500D01*
X108615072Y-84650500D01*
X108884928Y-84650500D01*
X108884929Y-84650500D01*
X108884936Y-84650499D01*
X109151767Y-84610281D01*
X109151768Y-84610280D01*
X109151772Y-84610280D01*
X109409641Y-84530738D01*
X109652775Y-84413651D01*
X109875741Y-84261635D01*
X110073561Y-84078085D01*
X110241815Y-83867102D01*
X110251689Y-83850000D01*
X134669540Y-83850000D01*
X134689326Y-84038256D01*
X134689327Y-84038259D01*
X134747818Y-84218277D01*
X134747821Y-84218284D01*
X134842467Y-84382216D01*
X134874493Y-84417784D01*
X134969129Y-84522888D01*
X135122265Y-84634148D01*
X135122270Y-84634151D01*
X135295192Y-84711142D01*
X135295197Y-84711144D01*
X135480354Y-84750500D01*
X135480355Y-84750500D01*
X135669644Y-84750500D01*
X135669646Y-84750500D01*
X135854803Y-84711144D01*
X136027730Y-84634151D01*
X136180871Y-84522888D01*
X136219127Y-84480400D01*
X138438940Y-84480400D01*
X138458726Y-84668656D01*
X138458727Y-84668659D01*
X138517218Y-84848677D01*
X138517221Y-84848684D01*
X138611867Y-85012616D01*
X138706561Y-85117784D01*
X138738529Y-85153288D01*
X138891665Y-85264548D01*
X138891670Y-85264551D01*
X139064592Y-85341542D01*
X139064597Y-85341544D01*
X139249754Y-85380900D01*
X139249755Y-85380900D01*
X139439044Y-85380900D01*
X139439046Y-85380900D01*
X139624203Y-85341544D01*
X139797130Y-85264551D01*
X139950271Y-85153288D01*
X140076933Y-85012616D01*
X140171579Y-84848684D01*
X140230074Y-84668656D01*
X140249860Y-84480400D01*
X140230074Y-84292144D01*
X140171579Y-84112116D01*
X140076933Y-83948184D01*
X139950271Y-83807512D01*
X139950270Y-83807511D01*
X139797134Y-83696251D01*
X139797129Y-83696248D01*
X139624207Y-83619257D01*
X139624202Y-83619255D01*
X139478400Y-83588265D01*
X139439046Y-83579900D01*
X139249754Y-83579900D01*
X139217297Y-83586798D01*
X139064597Y-83619255D01*
X139064592Y-83619257D01*
X138891670Y-83696248D01*
X138891665Y-83696251D01*
X138738529Y-83807511D01*
X138611866Y-83948185D01*
X138517221Y-84112115D01*
X138517218Y-84112122D01*
X138463610Y-84277112D01*
X138458726Y-84292144D01*
X138438940Y-84480400D01*
X136219127Y-84480400D01*
X136307533Y-84382216D01*
X136402179Y-84218284D01*
X136460674Y-84038256D01*
X136480460Y-83850000D01*
X136460674Y-83661744D01*
X136402179Y-83481716D01*
X136307533Y-83317784D01*
X136180871Y-83177112D01*
X136177964Y-83175000D01*
X168994540Y-83175000D01*
X169014326Y-83363256D01*
X169014327Y-83363259D01*
X169072818Y-83543277D01*
X169072821Y-83543284D01*
X169167467Y-83707216D01*
X169257774Y-83807512D01*
X169294129Y-83847888D01*
X169447265Y-83959148D01*
X169447270Y-83959151D01*
X169620192Y-84036142D01*
X169620197Y-84036144D01*
X169805354Y-84075500D01*
X169805355Y-84075500D01*
X169994644Y-84075500D01*
X169994646Y-84075500D01*
X170179803Y-84036144D01*
X170352730Y-83959151D01*
X170505871Y-83847888D01*
X170632533Y-83707216D01*
X170727179Y-83543284D01*
X170785674Y-83363256D01*
X170805460Y-83175000D01*
X170785674Y-82986744D01*
X170727179Y-82806716D01*
X170632533Y-82642784D01*
X170505871Y-82502112D01*
X170505870Y-82502111D01*
X170352734Y-82390851D01*
X170352729Y-82390848D01*
X170179807Y-82313857D01*
X170179802Y-82313855D01*
X170034001Y-82282865D01*
X169994646Y-82274500D01*
X169805354Y-82274500D01*
X169772897Y-82281398D01*
X169620197Y-82313855D01*
X169620192Y-82313857D01*
X169447270Y-82390848D01*
X169447265Y-82390851D01*
X169294129Y-82502111D01*
X169167466Y-82642785D01*
X169072821Y-82806715D01*
X169072818Y-82806722D01*
X169026427Y-82949500D01*
X169014326Y-82986744D01*
X168994540Y-83175000D01*
X136177964Y-83175000D01*
X136027734Y-83065851D01*
X136027729Y-83065848D01*
X135854807Y-82988857D01*
X135854802Y-82988855D01*
X135709000Y-82957865D01*
X135669646Y-82949500D01*
X135480354Y-82949500D01*
X135447897Y-82956398D01*
X135295197Y-82988855D01*
X135295192Y-82988857D01*
X135122270Y-83065848D01*
X135122265Y-83065851D01*
X134969129Y-83177111D01*
X134842466Y-83317785D01*
X134747821Y-83481715D01*
X134747818Y-83481722D01*
X134689327Y-83661740D01*
X134689326Y-83661744D01*
X134669540Y-83850000D01*
X110251689Y-83850000D01*
X110376743Y-83633398D01*
X110475334Y-83382195D01*
X110535383Y-83119103D01*
X110555549Y-82850000D01*
X110552305Y-82806716D01*
X110535383Y-82580898D01*
X110517401Y-82502112D01*
X110475334Y-82317805D01*
X110376743Y-82066602D01*
X110338291Y-82000000D01*
X128719540Y-82000000D01*
X128739326Y-82188256D01*
X128739327Y-82188259D01*
X128797818Y-82368277D01*
X128797821Y-82368284D01*
X128892467Y-82532216D01*
X128936300Y-82580897D01*
X129019129Y-82672888D01*
X129172265Y-82784148D01*
X129172270Y-82784151D01*
X129345192Y-82861142D01*
X129345197Y-82861144D01*
X129530354Y-82900500D01*
X129530355Y-82900500D01*
X129719644Y-82900500D01*
X129719646Y-82900500D01*
X129904803Y-82861144D01*
X130077730Y-82784151D01*
X130230871Y-82672888D01*
X130357533Y-82532216D01*
X130452179Y-82368284D01*
X130510674Y-82188256D01*
X130530460Y-82000000D01*
X130510674Y-81811744D01*
X130452179Y-81631716D01*
X130357533Y-81467784D01*
X130230871Y-81327112D01*
X130230870Y-81327111D01*
X130077734Y-81215851D01*
X130077729Y-81215848D01*
X129904807Y-81138857D01*
X129904802Y-81138855D01*
X129759001Y-81107865D01*
X129719646Y-81099500D01*
X129530354Y-81099500D01*
X129497897Y-81106398D01*
X129345197Y-81138855D01*
X129345192Y-81138857D01*
X129172270Y-81215848D01*
X129172265Y-81215851D01*
X129019129Y-81327111D01*
X128892466Y-81467785D01*
X128797821Y-81631715D01*
X128797818Y-81631722D01*
X128772222Y-81710500D01*
X128739326Y-81811744D01*
X128719540Y-82000000D01*
X110338291Y-82000000D01*
X110241815Y-81832898D01*
X110073561Y-81621915D01*
X110073560Y-81621914D01*
X110073557Y-81621910D01*
X109875741Y-81438365D01*
X109763740Y-81362004D01*
X109652775Y-81286349D01*
X109652769Y-81286346D01*
X109652768Y-81286345D01*
X109652767Y-81286344D01*
X109409643Y-81169263D01*
X109409645Y-81169263D01*
X109151773Y-81089720D01*
X109151767Y-81089718D01*
X108963636Y-81061362D01*
X186760862Y-81061362D01*
X186770548Y-81215305D01*
X186793631Y-81286349D01*
X186818213Y-81362003D01*
X186818214Y-81362006D01*
X186900862Y-81492240D01*
X186900863Y-81492241D01*
X187013301Y-81597827D01*
X187013309Y-81597833D01*
X187148470Y-81672138D01*
X187148474Y-81672140D01*
X187297876Y-81710500D01*
X187297880Y-81710500D01*
X187413406Y-81710500D01*
X187413408Y-81710500D01*
X187413413Y-81710499D01*
X187413417Y-81710499D01*
X187425840Y-81708929D01*
X187528032Y-81696020D01*
X187671448Y-81639237D01*
X187796237Y-81548572D01*
X187894559Y-81429722D01*
X187960235Y-81290154D01*
X187989138Y-81138638D01*
X187979452Y-80984695D01*
X187931787Y-80837996D01*
X187888812Y-80770278D01*
X187849137Y-80707759D01*
X187849136Y-80707758D01*
X187736698Y-80602172D01*
X187736690Y-80602166D01*
X187601529Y-80527861D01*
X187601519Y-80527858D01*
X187452127Y-80489500D01*
X187452124Y-80489500D01*
X187336592Y-80489500D01*
X187336582Y-80489500D01*
X187221968Y-80503980D01*
X187221966Y-80503980D01*
X187078553Y-80560762D01*
X186953762Y-80651429D01*
X186855440Y-80770279D01*
X186789764Y-80909847D01*
X186760862Y-81061359D01*
X186760862Y-81061362D01*
X108963636Y-81061362D01*
X108884936Y-81049500D01*
X108884929Y-81049500D01*
X108615071Y-81049500D01*
X108615063Y-81049500D01*
X108348232Y-81089718D01*
X108348226Y-81089720D01*
X108090358Y-81169262D01*
X107847230Y-81286346D01*
X107624258Y-81438365D01*
X107426442Y-81621910D01*
X107258185Y-81832898D01*
X107123258Y-82066599D01*
X107123256Y-82066603D01*
X107024666Y-82317804D01*
X107024664Y-82317811D01*
X106964616Y-82580898D01*
X106944451Y-82849995D01*
X106944451Y-82850004D01*
X101150500Y-82850004D01*
X101150500Y-77850004D01*
X106944451Y-77850004D01*
X106964616Y-78119101D01*
X107024664Y-78382188D01*
X107024666Y-78382195D01*
X107123256Y-78633396D01*
X107123258Y-78633400D01*
X107136723Y-78656722D01*
X107258185Y-78867102D01*
X107384104Y-79024999D01*
X107426442Y-79078089D01*
X107513804Y-79159148D01*
X107624259Y-79261635D01*
X107847226Y-79413651D01*
X108090359Y-79530738D01*
X108348228Y-79610280D01*
X108348229Y-79610280D01*
X108348232Y-79610281D01*
X108615063Y-79650499D01*
X108615068Y-79650499D01*
X108615071Y-79650500D01*
X108615072Y-79650500D01*
X108884928Y-79650500D01*
X108884929Y-79650500D01*
X108884936Y-79650499D01*
X109151767Y-79610281D01*
X109151768Y-79610280D01*
X109151772Y-79610280D01*
X109409641Y-79530738D01*
X109652775Y-79413651D01*
X109875741Y-79261635D01*
X110073561Y-79078085D01*
X110241815Y-78867102D01*
X110376743Y-78633398D01*
X110475334Y-78382195D01*
X110476976Y-78375000D01*
X120744540Y-78375000D01*
X120764326Y-78563256D01*
X120764327Y-78563259D01*
X120822818Y-78743277D01*
X120822821Y-78743284D01*
X120917467Y-78907216D01*
X121044128Y-79047888D01*
X121044129Y-79047888D01*
X121197265Y-79159148D01*
X121197270Y-79159151D01*
X121370192Y-79236142D01*
X121370197Y-79236144D01*
X121555354Y-79275500D01*
X121555355Y-79275500D01*
X121744644Y-79275500D01*
X121744646Y-79275500D01*
X121929803Y-79236144D01*
X122102730Y-79159151D01*
X122255871Y-79047888D01*
X122276480Y-79025000D01*
X129469540Y-79025000D01*
X129489326Y-79213256D01*
X129489327Y-79213259D01*
X129547818Y-79393277D01*
X129547821Y-79393284D01*
X129642467Y-79557216D01*
X129726460Y-79650499D01*
X129769129Y-79697888D01*
X129922265Y-79809148D01*
X129922270Y-79809151D01*
X130095192Y-79886142D01*
X130095197Y-79886144D01*
X130280354Y-79925500D01*
X130280355Y-79925500D01*
X130469644Y-79925500D01*
X130469646Y-79925500D01*
X130654803Y-79886144D01*
X130827730Y-79809151D01*
X130980871Y-79697888D01*
X131107533Y-79557216D01*
X131202179Y-79393284D01*
X131260674Y-79213256D01*
X131280460Y-79025000D01*
X131260674Y-78836744D01*
X131202179Y-78656716D01*
X131107533Y-78492784D01*
X130980871Y-78352112D01*
X130952011Y-78331144D01*
X130827734Y-78240851D01*
X130827729Y-78240848D01*
X130654807Y-78163857D01*
X130654802Y-78163855D01*
X130509000Y-78132865D01*
X130469646Y-78124500D01*
X130280354Y-78124500D01*
X130247897Y-78131398D01*
X130095197Y-78163855D01*
X130095192Y-78163857D01*
X129922270Y-78240848D01*
X129922265Y-78240851D01*
X129769129Y-78352111D01*
X129642466Y-78492785D01*
X129547821Y-78656715D01*
X129547818Y-78656722D01*
X129489327Y-78836740D01*
X129489326Y-78836744D01*
X129469540Y-79025000D01*
X122276480Y-79025000D01*
X122382533Y-78907216D01*
X122477179Y-78743284D01*
X122535674Y-78563256D01*
X122555460Y-78375000D01*
X122535674Y-78186744D01*
X122477179Y-78006716D01*
X122382533Y-77842784D01*
X122366589Y-77825077D01*
X123445040Y-77825077D01*
X123464826Y-78013333D01*
X123464827Y-78013336D01*
X123523318Y-78193354D01*
X123523321Y-78193361D01*
X123617967Y-78357293D01*
X123739964Y-78492784D01*
X123744629Y-78497965D01*
X123897765Y-78609225D01*
X123897770Y-78609228D01*
X124070692Y-78686219D01*
X124070697Y-78686221D01*
X124255854Y-78725577D01*
X124255855Y-78725577D01*
X124445144Y-78725577D01*
X124445146Y-78725577D01*
X124630303Y-78686221D01*
X124803230Y-78609228D01*
X124956371Y-78497965D01*
X125083033Y-78357293D01*
X125177679Y-78193361D01*
X125236174Y-78013333D01*
X125255960Y-77825077D01*
X125236174Y-77636821D01*
X125177679Y-77456793D01*
X125083033Y-77292861D01*
X124956371Y-77152189D01*
X124953715Y-77150259D01*
X124803234Y-77040928D01*
X124803229Y-77040925D01*
X124630307Y-76963934D01*
X124630302Y-76963932D01*
X124621212Y-76962000D01*
X133754540Y-76962000D01*
X133774326Y-77150256D01*
X133774327Y-77150259D01*
X133832818Y-77330277D01*
X133832821Y-77330284D01*
X133927467Y-77494216D01*
X134005515Y-77580897D01*
X134054129Y-77634888D01*
X134207265Y-77746148D01*
X134207270Y-77746151D01*
X134380192Y-77823142D01*
X134380197Y-77823144D01*
X134565354Y-77862500D01*
X134565355Y-77862500D01*
X134754644Y-77862500D01*
X134754646Y-77862500D01*
X134939803Y-77823144D01*
X135112730Y-77746151D01*
X135265871Y-77634888D01*
X135392533Y-77494216D01*
X135406514Y-77470000D01*
X165845540Y-77470000D01*
X165865326Y-77658256D01*
X165865327Y-77658259D01*
X165923818Y-77838277D01*
X165923821Y-77838284D01*
X166018467Y-78002216D01*
X166028480Y-78013336D01*
X166145129Y-78142888D01*
X166298265Y-78254148D01*
X166298270Y-78254151D01*
X166471192Y-78331142D01*
X166471197Y-78331144D01*
X166656354Y-78370500D01*
X166656355Y-78370500D01*
X166845644Y-78370500D01*
X166845646Y-78370500D01*
X167030803Y-78331144D01*
X167203730Y-78254151D01*
X167356871Y-78142888D01*
X167483533Y-78002216D01*
X167578179Y-77838284D01*
X167636674Y-77658256D01*
X167656460Y-77470000D01*
X167636674Y-77281744D01*
X167578179Y-77101716D01*
X167483533Y-76937784D01*
X167356871Y-76797112D01*
X167324708Y-76773744D01*
X167203734Y-76685851D01*
X167203729Y-76685848D01*
X167030807Y-76608857D01*
X167030802Y-76608855D01*
X166885001Y-76577865D01*
X166845646Y-76569500D01*
X166656354Y-76569500D01*
X166623897Y-76576398D01*
X166471197Y-76608855D01*
X166471192Y-76608857D01*
X166298270Y-76685848D01*
X166298265Y-76685851D01*
X166145129Y-76797111D01*
X166018466Y-76937785D01*
X165923821Y-77101715D01*
X165923818Y-77101722D01*
X165865327Y-77281740D01*
X165865326Y-77281744D01*
X165845540Y-77470000D01*
X135406514Y-77470000D01*
X135487179Y-77330284D01*
X135545674Y-77150256D01*
X135565460Y-76962000D01*
X135545674Y-76773744D01*
X135487179Y-76593716D01*
X135392533Y-76429784D01*
X135265871Y-76289112D01*
X135262063Y-76286345D01*
X135112734Y-76177851D01*
X135112729Y-76177848D01*
X134939807Y-76100857D01*
X134939802Y-76100855D01*
X134935779Y-76100000D01*
X147519540Y-76100000D01*
X147539326Y-76288256D01*
X147539327Y-76288259D01*
X147597818Y-76468277D01*
X147597821Y-76468284D01*
X147692467Y-76632216D01*
X147771058Y-76719500D01*
X147819129Y-76772888D01*
X147972265Y-76884148D01*
X147972270Y-76884151D01*
X148145192Y-76961142D01*
X148145197Y-76961144D01*
X148330354Y-77000500D01*
X148330355Y-77000500D01*
X148519644Y-77000500D01*
X148519646Y-77000500D01*
X148704803Y-76961144D01*
X148877730Y-76884151D01*
X149030871Y-76772888D01*
X149157533Y-76632216D01*
X149252179Y-76468284D01*
X149310674Y-76288256D01*
X149330460Y-76100000D01*
X149310674Y-75911744D01*
X149280539Y-75819000D01*
X168004540Y-75819000D01*
X168024326Y-76007256D01*
X168024327Y-76007259D01*
X168082818Y-76187277D01*
X168082821Y-76187284D01*
X168177467Y-76351216D01*
X168282876Y-76468284D01*
X168304129Y-76491888D01*
X168457265Y-76603148D01*
X168457270Y-76603151D01*
X168630192Y-76680142D01*
X168630197Y-76680144D01*
X168815354Y-76719500D01*
X168815355Y-76719500D01*
X169004644Y-76719500D01*
X169004646Y-76719500D01*
X169189803Y-76680144D01*
X169362730Y-76603151D01*
X169515871Y-76491888D01*
X169642533Y-76351216D01*
X169737179Y-76187284D01*
X169795674Y-76007256D01*
X169815460Y-75819000D01*
X169795674Y-75630744D01*
X169737179Y-75450716D01*
X169642533Y-75286784D01*
X169515871Y-75146112D01*
X169515870Y-75146111D01*
X169362734Y-75034851D01*
X169362729Y-75034848D01*
X169189807Y-74957857D01*
X169189802Y-74957855D01*
X169044001Y-74926865D01*
X169004646Y-74918500D01*
X168815354Y-74918500D01*
X168782897Y-74925398D01*
X168630197Y-74957855D01*
X168630192Y-74957857D01*
X168457270Y-75034848D01*
X168457265Y-75034851D01*
X168304129Y-75146111D01*
X168177466Y-75286785D01*
X168082821Y-75450715D01*
X168082818Y-75450722D01*
X168024327Y-75630740D01*
X168024326Y-75630744D01*
X168004540Y-75819000D01*
X149280539Y-75819000D01*
X149252179Y-75731716D01*
X149157533Y-75567784D01*
X149030871Y-75427112D01*
X148994243Y-75400500D01*
X148877734Y-75315851D01*
X148877729Y-75315848D01*
X148704807Y-75238857D01*
X148704802Y-75238855D01*
X148559000Y-75207865D01*
X148519646Y-75199500D01*
X148330354Y-75199500D01*
X148297897Y-75206398D01*
X148145197Y-75238855D01*
X148145192Y-75238857D01*
X147972270Y-75315848D01*
X147972265Y-75315851D01*
X147819129Y-75427111D01*
X147692466Y-75567785D01*
X147597821Y-75731715D01*
X147597818Y-75731722D01*
X147539327Y-75911740D01*
X147539326Y-75911744D01*
X147519540Y-76100000D01*
X134935779Y-76100000D01*
X134794001Y-76069865D01*
X134754646Y-76061500D01*
X134565354Y-76061500D01*
X134532897Y-76068398D01*
X134380197Y-76100855D01*
X134380192Y-76100857D01*
X134207270Y-76177848D01*
X134207265Y-76177851D01*
X134054129Y-76289111D01*
X133927466Y-76429785D01*
X133832821Y-76593715D01*
X133832818Y-76593722D01*
X133802884Y-76685851D01*
X133774326Y-76773744D01*
X133754540Y-76962000D01*
X124621212Y-76962000D01*
X124484500Y-76932942D01*
X124445146Y-76924577D01*
X124255854Y-76924577D01*
X124223397Y-76931475D01*
X124070697Y-76963932D01*
X124070692Y-76963934D01*
X123897770Y-77040925D01*
X123897765Y-77040928D01*
X123744629Y-77152188D01*
X123617966Y-77292862D01*
X123523321Y-77456792D01*
X123523318Y-77456799D01*
X123465454Y-77634888D01*
X123464826Y-77636821D01*
X123445040Y-77825077D01*
X122366589Y-77825077D01*
X122255871Y-77702112D01*
X122255870Y-77702111D01*
X122102734Y-77590851D01*
X122102729Y-77590848D01*
X121929807Y-77513857D01*
X121929802Y-77513855D01*
X121784000Y-77482865D01*
X121744646Y-77474500D01*
X121555354Y-77474500D01*
X121522897Y-77481398D01*
X121370197Y-77513855D01*
X121370192Y-77513857D01*
X121197270Y-77590848D01*
X121197265Y-77590851D01*
X121044129Y-77702111D01*
X120917466Y-77842785D01*
X120822821Y-78006715D01*
X120822818Y-78006722D01*
X120771762Y-78163857D01*
X120764326Y-78186744D01*
X120744540Y-78375000D01*
X110476976Y-78375000D01*
X110535383Y-78119103D01*
X110544142Y-78002214D01*
X110555549Y-77850004D01*
X110555549Y-77849995D01*
X110535383Y-77580898D01*
X110535383Y-77580897D01*
X110475334Y-77317805D01*
X110376743Y-77066602D01*
X110241815Y-76832898D01*
X110073561Y-76621915D01*
X110073560Y-76621914D01*
X110073557Y-76621910D01*
X109875741Y-76438365D01*
X109747914Y-76351214D01*
X109652775Y-76286349D01*
X109652769Y-76286346D01*
X109652768Y-76286345D01*
X109652767Y-76286344D01*
X109409643Y-76169263D01*
X109409645Y-76169263D01*
X109151773Y-76089720D01*
X109151767Y-76089718D01*
X108884936Y-76049500D01*
X108884929Y-76049500D01*
X108615071Y-76049500D01*
X108615063Y-76049500D01*
X108348232Y-76089718D01*
X108348226Y-76089720D01*
X108090358Y-76169262D01*
X107847230Y-76286346D01*
X107624258Y-76438365D01*
X107426442Y-76621910D01*
X107258185Y-76832898D01*
X107123258Y-77066599D01*
X107123256Y-77066603D01*
X107024666Y-77317804D01*
X107024664Y-77317811D01*
X106964616Y-77580898D01*
X106944451Y-77849995D01*
X106944451Y-77850004D01*
X101150500Y-77850004D01*
X101150500Y-74197870D01*
X106949500Y-74197870D01*
X106949501Y-74197876D01*
X106955908Y-74257483D01*
X107006202Y-74392328D01*
X107006206Y-74392335D01*
X107092452Y-74507544D01*
X107092455Y-74507547D01*
X107207664Y-74593793D01*
X107207671Y-74593797D01*
X107342517Y-74644091D01*
X107342516Y-74644091D01*
X107349444Y-74644835D01*
X107402127Y-74650500D01*
X110097872Y-74650499D01*
X110157483Y-74644091D01*
X110292331Y-74593796D01*
X110407546Y-74507546D01*
X110413195Y-74500000D01*
X126769540Y-74500000D01*
X126789326Y-74688256D01*
X126789327Y-74688259D01*
X126847818Y-74868277D01*
X126847821Y-74868284D01*
X126942467Y-75032216D01*
X126944840Y-75034851D01*
X127069129Y-75172888D01*
X127222265Y-75284148D01*
X127222270Y-75284151D01*
X127395192Y-75361142D01*
X127395197Y-75361144D01*
X127580354Y-75400500D01*
X127580355Y-75400500D01*
X127769644Y-75400500D01*
X127769646Y-75400500D01*
X127954803Y-75361144D01*
X128127730Y-75284151D01*
X128280871Y-75172888D01*
X128407533Y-75032216D01*
X128502179Y-74868284D01*
X128560674Y-74688256D01*
X128580460Y-74500000D01*
X128560674Y-74311744D01*
X128502179Y-74131716D01*
X128407533Y-73967784D01*
X128280871Y-73827112D01*
X128256146Y-73809148D01*
X128127734Y-73715851D01*
X128127729Y-73715848D01*
X127954807Y-73638857D01*
X127954802Y-73638855D01*
X127809001Y-73607865D01*
X127769646Y-73599500D01*
X127580354Y-73599500D01*
X127547897Y-73606398D01*
X127395197Y-73638855D01*
X127395192Y-73638857D01*
X127222270Y-73715848D01*
X127222265Y-73715851D01*
X127069129Y-73827111D01*
X126942466Y-73967785D01*
X126847821Y-74131715D01*
X126847818Y-74131722D01*
X126789327Y-74311740D01*
X126789326Y-74311744D01*
X126769540Y-74500000D01*
X110413195Y-74500000D01*
X110493796Y-74392331D01*
X110544091Y-74257483D01*
X110550500Y-74197873D01*
X110550499Y-71502128D01*
X110544091Y-71442517D01*
X110540745Y-71433547D01*
X110493797Y-71307671D01*
X110493793Y-71307664D01*
X110407547Y-71192455D01*
X110407544Y-71192452D01*
X110292335Y-71106206D01*
X110292328Y-71106202D01*
X110157482Y-71055908D01*
X110157483Y-71055908D01*
X110097883Y-71049501D01*
X110097881Y-71049500D01*
X110097873Y-71049500D01*
X110097864Y-71049500D01*
X107402129Y-71049500D01*
X107402123Y-71049501D01*
X107342516Y-71055908D01*
X107207671Y-71106202D01*
X107207664Y-71106206D01*
X107092455Y-71192452D01*
X107092452Y-71192455D01*
X107006206Y-71307664D01*
X107006202Y-71307671D01*
X106955908Y-71442517D01*
X106952616Y-71473142D01*
X106949501Y-71502123D01*
X106949500Y-71502135D01*
X106949500Y-74197870D01*
X101150500Y-74197870D01*
X101150500Y-70690000D01*
X124344341Y-70690000D01*
X124364936Y-70925403D01*
X124364938Y-70925413D01*
X124426094Y-71153655D01*
X124426096Y-71153659D01*
X124426097Y-71153663D01*
X124497912Y-71307671D01*
X124525965Y-71367830D01*
X124525967Y-71367834D01*
X124620002Y-71502129D01*
X124661505Y-71561401D01*
X124828599Y-71728495D01*
X124906236Y-71782857D01*
X125022165Y-71864032D01*
X125022167Y-71864033D01*
X125022170Y-71864035D01*
X125236337Y-71963903D01*
X125236343Y-71963904D01*
X125236344Y-71963905D01*
X125275886Y-71974500D01*
X125464592Y-72025063D01*
X125652918Y-72041539D01*
X125699999Y-72045659D01*
X125700000Y-72045659D01*
X125700001Y-72045659D01*
X125739234Y-72042226D01*
X125935408Y-72025063D01*
X126163663Y-71963903D01*
X126377830Y-71864035D01*
X126571401Y-71728495D01*
X126738495Y-71561401D01*
X126874035Y-71367830D01*
X126973903Y-71153663D01*
X127035063Y-70925408D01*
X127046910Y-70790000D01*
X154769341Y-70790000D01*
X154789936Y-71025403D01*
X154789938Y-71025413D01*
X154851094Y-71253655D01*
X154851096Y-71253659D01*
X154851097Y-71253663D01*
X154934977Y-71433544D01*
X154950965Y-71467830D01*
X154950967Y-71467834D01*
X155033650Y-71585917D01*
X155086505Y-71661401D01*
X155253599Y-71828495D01*
X155319805Y-71874853D01*
X155447165Y-71964032D01*
X155447167Y-71964033D01*
X155447170Y-71964035D01*
X155661337Y-72063903D01*
X155889592Y-72125063D01*
X156077918Y-72141539D01*
X156124999Y-72145659D01*
X156125000Y-72145659D01*
X156125001Y-72145659D01*
X156164234Y-72142226D01*
X156360408Y-72125063D01*
X156588663Y-72063903D01*
X156802830Y-71964035D01*
X156996401Y-71828495D01*
X157163495Y-71661401D01*
X157299035Y-71467830D01*
X157398903Y-71253663D01*
X157460063Y-71025408D01*
X157480659Y-70790000D01*
X157480221Y-70785000D01*
X158719341Y-70785000D01*
X158739936Y-71020403D01*
X158739938Y-71020413D01*
X158801094Y-71248655D01*
X158801096Y-71248659D01*
X158801097Y-71248663D01*
X158833584Y-71318331D01*
X158900965Y-71462830D01*
X158900967Y-71462834D01*
X158989690Y-71589542D01*
X159036501Y-71656396D01*
X159036506Y-71656402D01*
X159158430Y-71778326D01*
X159191915Y-71839649D01*
X159186931Y-71909341D01*
X159145059Y-71965274D01*
X159114083Y-71982189D01*
X158982669Y-72031203D01*
X158982664Y-72031206D01*
X158867455Y-72117452D01*
X158867452Y-72117455D01*
X158781206Y-72232664D01*
X158781202Y-72232671D01*
X158730908Y-72367517D01*
X158725945Y-72413685D01*
X158724501Y-72427123D01*
X158724500Y-72427135D01*
X158724500Y-74222870D01*
X158724501Y-74222876D01*
X158730908Y-74282483D01*
X158781202Y-74417328D01*
X158781206Y-74417335D01*
X158867452Y-74532544D01*
X158867455Y-74532547D01*
X158982664Y-74618793D01*
X158982671Y-74618797D01*
X159117517Y-74669091D01*
X159117516Y-74669091D01*
X159124444Y-74669835D01*
X159177127Y-74675500D01*
X160972872Y-74675499D01*
X161032483Y-74669091D01*
X161167331Y-74618796D01*
X161282546Y-74532546D01*
X161368796Y-74417331D01*
X161419091Y-74282483D01*
X161425500Y-74222873D01*
X161425500Y-73533000D01*
X163432540Y-73533000D01*
X163452326Y-73721256D01*
X163452327Y-73721259D01*
X163510818Y-73901277D01*
X163510821Y-73901284D01*
X163605467Y-74065216D01*
X163724904Y-74197864D01*
X163732129Y-74205888D01*
X163885265Y-74317148D01*
X163885270Y-74317151D01*
X164058192Y-74394142D01*
X164058197Y-74394144D01*
X164243354Y-74433500D01*
X164243355Y-74433500D01*
X164432644Y-74433500D01*
X164432646Y-74433500D01*
X164617803Y-74394144D01*
X164790730Y-74317151D01*
X164943871Y-74205888D01*
X165070533Y-74065216D01*
X165165179Y-73901284D01*
X165223674Y-73721256D01*
X165243460Y-73533000D01*
X165223674Y-73344744D01*
X165165179Y-73164716D01*
X165084514Y-73025000D01*
X173719540Y-73025000D01*
X173739326Y-73213256D01*
X173739327Y-73213259D01*
X173797818Y-73393277D01*
X173797821Y-73393284D01*
X173892467Y-73557216D01*
X173965977Y-73638857D01*
X174019129Y-73697888D01*
X174172265Y-73809148D01*
X174172270Y-73809151D01*
X174345192Y-73886142D01*
X174345197Y-73886144D01*
X174530354Y-73925500D01*
X174530355Y-73925500D01*
X174719644Y-73925500D01*
X174719646Y-73925500D01*
X174904803Y-73886144D01*
X175077730Y-73809151D01*
X175230871Y-73697888D01*
X175357533Y-73557216D01*
X175452179Y-73393284D01*
X175510674Y-73213256D01*
X175530460Y-73025000D01*
X175510674Y-72836744D01*
X175452179Y-72656716D01*
X175444837Y-72644000D01*
X176132540Y-72644000D01*
X176152326Y-72832256D01*
X176152327Y-72832259D01*
X176210818Y-73012277D01*
X176210821Y-73012284D01*
X176305467Y-73176216D01*
X176372515Y-73250680D01*
X176432129Y-73316888D01*
X176585265Y-73428148D01*
X176585270Y-73428151D01*
X176758192Y-73505142D01*
X176758197Y-73505144D01*
X176943354Y-73544500D01*
X176943355Y-73544500D01*
X177132644Y-73544500D01*
X177132646Y-73544500D01*
X177317803Y-73505144D01*
X177490730Y-73428151D01*
X177643871Y-73316888D01*
X177770533Y-73176216D01*
X177865179Y-73012284D01*
X177923674Y-72832256D01*
X177943460Y-72644000D01*
X177923674Y-72455744D01*
X177865179Y-72275716D01*
X177770533Y-72111784D01*
X177643871Y-71971112D01*
X177635836Y-71965274D01*
X177490734Y-71859851D01*
X177490729Y-71859848D01*
X177317807Y-71782857D01*
X177317802Y-71782855D01*
X177172001Y-71751865D01*
X177132646Y-71743500D01*
X176943354Y-71743500D01*
X176910897Y-71750398D01*
X176758197Y-71782855D01*
X176758192Y-71782857D01*
X176585270Y-71859848D01*
X176585265Y-71859851D01*
X176432129Y-71971111D01*
X176305466Y-72111785D01*
X176210821Y-72275715D01*
X176210818Y-72275722D01*
X176152327Y-72455740D01*
X176152326Y-72455744D01*
X176132540Y-72644000D01*
X175444837Y-72644000D01*
X175357533Y-72492784D01*
X175230871Y-72352112D01*
X175162604Y-72302513D01*
X175077734Y-72240851D01*
X175077729Y-72240848D01*
X174904807Y-72163857D01*
X174904802Y-72163855D01*
X174759001Y-72132865D01*
X174719646Y-72124500D01*
X174530354Y-72124500D01*
X174497897Y-72131398D01*
X174345197Y-72163855D01*
X174345192Y-72163857D01*
X174172270Y-72240848D01*
X174172265Y-72240851D01*
X174019129Y-72352111D01*
X173892466Y-72492785D01*
X173797821Y-72656715D01*
X173797818Y-72656722D01*
X173740784Y-72832256D01*
X173739326Y-72836744D01*
X173719540Y-73025000D01*
X165084514Y-73025000D01*
X165070533Y-73000784D01*
X164943871Y-72860112D01*
X164913284Y-72837889D01*
X164790734Y-72748851D01*
X164790729Y-72748848D01*
X164617807Y-72671857D01*
X164617802Y-72671855D01*
X164472000Y-72640865D01*
X164432646Y-72632500D01*
X164243354Y-72632500D01*
X164210897Y-72639398D01*
X164058197Y-72671855D01*
X164058192Y-72671857D01*
X163885270Y-72748848D01*
X163885265Y-72748851D01*
X163732129Y-72860111D01*
X163605466Y-73000785D01*
X163510821Y-73164715D01*
X163510818Y-73164722D01*
X163463205Y-73311262D01*
X163452326Y-73344744D01*
X163432540Y-73533000D01*
X161425500Y-73533000D01*
X161425499Y-72427128D01*
X161419091Y-72367517D01*
X161413345Y-72352112D01*
X161368797Y-72232671D01*
X161368793Y-72232664D01*
X161282547Y-72117455D01*
X161282544Y-72117452D01*
X161167335Y-72031206D01*
X161167328Y-72031202D01*
X161035917Y-71982189D01*
X160979983Y-71940318D01*
X160955566Y-71874853D01*
X160970418Y-71806580D01*
X160991563Y-71778332D01*
X161113495Y-71656401D01*
X161249035Y-71462830D01*
X161348903Y-71248663D01*
X161410063Y-71020408D01*
X161430659Y-70785000D01*
X161415523Y-70612000D01*
X173465540Y-70612000D01*
X173485326Y-70800256D01*
X173485327Y-70800259D01*
X173543818Y-70980277D01*
X173543821Y-70980284D01*
X173638467Y-71144216D01*
X173732505Y-71248655D01*
X173765129Y-71284888D01*
X173918265Y-71396148D01*
X173918270Y-71396151D01*
X174091192Y-71473142D01*
X174091197Y-71473144D01*
X174276354Y-71512500D01*
X174276355Y-71512500D01*
X174465644Y-71512500D01*
X174465646Y-71512500D01*
X174650803Y-71473144D01*
X174823730Y-71396151D01*
X174976871Y-71284888D01*
X175103533Y-71144216D01*
X175185716Y-71001870D01*
X179624500Y-71001870D01*
X179624501Y-71001876D01*
X179630908Y-71061483D01*
X179681202Y-71196328D01*
X179681206Y-71196335D01*
X179767452Y-71311544D01*
X179767455Y-71311547D01*
X179882664Y-71397793D01*
X179882671Y-71397797D01*
X179882674Y-71397798D01*
X180014598Y-71447002D01*
X180070531Y-71488873D01*
X180094949Y-71554337D01*
X180080098Y-71622610D01*
X180058947Y-71650865D01*
X179936886Y-71772926D01*
X179801400Y-71966420D01*
X179801399Y-71966422D01*
X179701570Y-72180507D01*
X179701567Y-72180513D01*
X179644364Y-72393999D01*
X179644364Y-72394000D01*
X180361653Y-72394000D01*
X180428692Y-72413685D01*
X180474447Y-72466489D01*
X180484391Y-72535647D01*
X180480631Y-72552933D01*
X180475000Y-72572111D01*
X180475000Y-72715888D01*
X180480631Y-72735067D01*
X180480630Y-72804936D01*
X180442855Y-72863714D01*
X180379299Y-72892738D01*
X180361653Y-72894000D01*
X179644364Y-72894000D01*
X179701567Y-73107486D01*
X179701570Y-73107492D01*
X179801399Y-73321578D01*
X179936894Y-73515082D01*
X180103917Y-73682105D01*
X180297421Y-73817600D01*
X180511507Y-73917429D01*
X180511516Y-73917433D01*
X180725000Y-73974634D01*
X180725000Y-73256301D01*
X180744685Y-73189262D01*
X180797489Y-73143507D01*
X180866647Y-73133563D01*
X180939237Y-73144000D01*
X180939238Y-73144000D01*
X181010762Y-73144000D01*
X181010763Y-73144000D01*
X181083353Y-73133563D01*
X181152512Y-73143507D01*
X181205315Y-73189262D01*
X181225000Y-73256301D01*
X181225000Y-73974633D01*
X181438483Y-73917433D01*
X181438492Y-73917429D01*
X181652578Y-73817600D01*
X181846082Y-73682105D01*
X182013105Y-73515082D01*
X182148600Y-73321578D01*
X182248429Y-73107492D01*
X182248432Y-73107486D01*
X182305636Y-72894000D01*
X181588347Y-72894000D01*
X181521308Y-72874315D01*
X181475553Y-72821511D01*
X181465609Y-72752353D01*
X181469369Y-72735067D01*
X181475000Y-72715888D01*
X181475000Y-72572111D01*
X181469369Y-72552933D01*
X181469370Y-72483064D01*
X181507145Y-72424286D01*
X181570701Y-72395262D01*
X181588347Y-72394000D01*
X182305636Y-72394000D01*
X182305635Y-72393999D01*
X182248432Y-72180513D01*
X182248429Y-72180507D01*
X182148600Y-71966422D01*
X182148599Y-71966420D01*
X182013113Y-71772926D01*
X182013108Y-71772920D01*
X181891053Y-71650865D01*
X181857568Y-71589542D01*
X181862552Y-71519850D01*
X181904424Y-71463917D01*
X181935400Y-71447002D01*
X182067331Y-71397796D01*
X182182546Y-71311546D01*
X182268796Y-71196331D01*
X182319091Y-71061483D01*
X182325500Y-71001873D01*
X182325500Y-70612000D01*
X186927540Y-70612000D01*
X186947326Y-70800256D01*
X186947327Y-70800259D01*
X187005818Y-70980277D01*
X187005821Y-70980284D01*
X187100467Y-71144216D01*
X187194505Y-71248655D01*
X187227129Y-71284888D01*
X187380265Y-71396148D01*
X187380270Y-71396151D01*
X187553192Y-71473142D01*
X187553197Y-71473144D01*
X187738354Y-71512500D01*
X187738355Y-71512500D01*
X187927644Y-71512500D01*
X187927646Y-71512500D01*
X188112803Y-71473144D01*
X188285730Y-71396151D01*
X188438871Y-71284888D01*
X188565533Y-71144216D01*
X188577280Y-71123870D01*
X189149500Y-71123870D01*
X189149501Y-71123876D01*
X189155908Y-71183483D01*
X189206202Y-71318328D01*
X189206206Y-71318335D01*
X189292452Y-71433544D01*
X189292455Y-71433547D01*
X189407664Y-71519793D01*
X189407671Y-71519797D01*
X189469902Y-71543007D01*
X189539598Y-71569002D01*
X189595531Y-71610873D01*
X189619949Y-71676337D01*
X189605098Y-71744610D01*
X189583947Y-71772865D01*
X189461886Y-71894926D01*
X189326400Y-72088420D01*
X189326399Y-72088422D01*
X189226570Y-72302507D01*
X189226567Y-72302513D01*
X189169364Y-72515999D01*
X189169364Y-72516000D01*
X189886653Y-72516000D01*
X189953692Y-72535685D01*
X189999447Y-72588489D01*
X190009391Y-72657647D01*
X190005631Y-72674933D01*
X190000000Y-72694111D01*
X190000000Y-72837888D01*
X190005631Y-72857067D01*
X190005630Y-72926936D01*
X189967855Y-72985714D01*
X189904299Y-73014738D01*
X189886653Y-73016000D01*
X189169364Y-73016000D01*
X189226567Y-73229486D01*
X189226570Y-73229492D01*
X189326399Y-73443578D01*
X189461894Y-73637082D01*
X189628917Y-73804105D01*
X189822421Y-73939600D01*
X190036507Y-74039429D01*
X190036516Y-74039433D01*
X190250000Y-74096634D01*
X190250000Y-73378301D01*
X190269685Y-73311262D01*
X190322489Y-73265507D01*
X190391647Y-73255563D01*
X190464237Y-73266000D01*
X190464238Y-73266000D01*
X190535762Y-73266000D01*
X190535763Y-73266000D01*
X190608353Y-73255563D01*
X190677512Y-73265507D01*
X190730315Y-73311262D01*
X190750000Y-73378301D01*
X190750000Y-74096633D01*
X190963483Y-74039433D01*
X190963492Y-74039429D01*
X191177578Y-73939600D01*
X191371082Y-73804105D01*
X191538105Y-73637082D01*
X191673600Y-73443578D01*
X191773429Y-73229492D01*
X191773432Y-73229486D01*
X191830636Y-73016000D01*
X191113347Y-73016000D01*
X191046308Y-72996315D01*
X191000553Y-72943511D01*
X190990609Y-72874353D01*
X190994369Y-72857067D01*
X191000000Y-72837888D01*
X191000000Y-72694111D01*
X190994369Y-72674933D01*
X190994370Y-72605064D01*
X191032145Y-72546286D01*
X191095701Y-72517262D01*
X191113347Y-72516000D01*
X191830636Y-72516000D01*
X191830635Y-72515999D01*
X191773432Y-72302513D01*
X191773429Y-72302507D01*
X191673600Y-72088422D01*
X191673599Y-72088420D01*
X191538113Y-71894926D01*
X191538108Y-71894920D01*
X191416053Y-71772865D01*
X191382568Y-71711542D01*
X191387552Y-71641850D01*
X191429424Y-71585917D01*
X191460400Y-71569002D01*
X191549847Y-71535641D01*
X191592326Y-71519798D01*
X191592326Y-71519797D01*
X191592331Y-71519796D01*
X191707546Y-71433546D01*
X191793796Y-71318331D01*
X191844091Y-71183483D01*
X191850500Y-71123873D01*
X191850499Y-69328128D01*
X191844091Y-69268517D01*
X191834324Y-69242331D01*
X191793797Y-69133671D01*
X191793793Y-69133664D01*
X191707547Y-69018455D01*
X191707544Y-69018452D01*
X191592335Y-68932206D01*
X191592328Y-68932202D01*
X191457482Y-68881908D01*
X191457483Y-68881908D01*
X191397883Y-68875501D01*
X191397881Y-68875500D01*
X191397873Y-68875500D01*
X191397864Y-68875500D01*
X189602129Y-68875500D01*
X189602123Y-68875501D01*
X189542516Y-68881908D01*
X189407671Y-68932202D01*
X189407664Y-68932206D01*
X189292455Y-69018452D01*
X189292452Y-69018455D01*
X189206206Y-69133664D01*
X189206202Y-69133671D01*
X189155908Y-69268517D01*
X189149501Y-69328116D01*
X189149501Y-69328123D01*
X189149500Y-69328135D01*
X189149500Y-71123870D01*
X188577280Y-71123870D01*
X188660179Y-70980284D01*
X188718674Y-70800256D01*
X188738460Y-70612000D01*
X188718674Y-70423744D01*
X188660179Y-70243716D01*
X188565533Y-70079784D01*
X188438871Y-69939112D01*
X188410639Y-69918600D01*
X188285734Y-69827851D01*
X188285729Y-69827848D01*
X188112807Y-69750857D01*
X188112802Y-69750855D01*
X187967001Y-69719865D01*
X187927646Y-69711500D01*
X187738354Y-69711500D01*
X187705897Y-69718398D01*
X187553197Y-69750855D01*
X187553192Y-69750857D01*
X187380270Y-69827848D01*
X187380265Y-69827851D01*
X187227129Y-69939111D01*
X187100466Y-70079785D01*
X187005821Y-70243715D01*
X187005818Y-70243722D01*
X186978973Y-70326344D01*
X186947326Y-70423744D01*
X186927540Y-70612000D01*
X182325500Y-70612000D01*
X182325499Y-69206128D01*
X182319237Y-69147872D01*
X182319091Y-69146516D01*
X182268797Y-69011671D01*
X182268793Y-69011664D01*
X182182547Y-68896455D01*
X182182544Y-68896452D01*
X182067335Y-68810206D01*
X182067328Y-68810202D01*
X181932482Y-68759908D01*
X181932483Y-68759908D01*
X181872883Y-68753501D01*
X181872881Y-68753500D01*
X181872873Y-68753500D01*
X181872864Y-68753500D01*
X180077129Y-68753500D01*
X180077123Y-68753501D01*
X180017516Y-68759908D01*
X179882671Y-68810202D01*
X179882664Y-68810206D01*
X179767455Y-68896452D01*
X179767452Y-68896455D01*
X179681206Y-69011664D01*
X179681202Y-69011671D01*
X179630908Y-69146517D01*
X179624501Y-69206116D01*
X179624501Y-69206123D01*
X179624500Y-69206135D01*
X179624500Y-71001870D01*
X175185716Y-71001870D01*
X175198179Y-70980284D01*
X175256674Y-70800256D01*
X175276460Y-70612000D01*
X175256674Y-70423744D01*
X175198179Y-70243716D01*
X175103533Y-70079784D01*
X174976871Y-69939112D01*
X174948639Y-69918600D01*
X174823734Y-69827851D01*
X174823729Y-69827848D01*
X174650807Y-69750857D01*
X174650802Y-69750855D01*
X174505000Y-69719865D01*
X174465646Y-69711500D01*
X174276354Y-69711500D01*
X174243897Y-69718398D01*
X174091197Y-69750855D01*
X174091192Y-69750857D01*
X173918270Y-69827848D01*
X173918265Y-69827851D01*
X173765129Y-69939111D01*
X173638466Y-70079785D01*
X173543821Y-70243715D01*
X173543818Y-70243722D01*
X173516973Y-70326344D01*
X173485326Y-70423744D01*
X173465540Y-70612000D01*
X161415523Y-70612000D01*
X161410063Y-70549592D01*
X161348903Y-70321337D01*
X161249035Y-70107171D01*
X161229860Y-70079785D01*
X161113494Y-69913597D01*
X160946402Y-69746506D01*
X160946401Y-69746505D01*
X160760405Y-69616269D01*
X160716781Y-69561692D01*
X160709588Y-69492193D01*
X160741110Y-69429839D01*
X160760405Y-69413119D01*
X160946082Y-69283105D01*
X161113105Y-69116082D01*
X161248600Y-68922578D01*
X161348429Y-68708492D01*
X161348432Y-68708486D01*
X161405636Y-68495000D01*
X160688347Y-68495000D01*
X160621308Y-68475315D01*
X160575553Y-68422511D01*
X160565609Y-68353353D01*
X160569369Y-68336067D01*
X160575000Y-68316888D01*
X160575000Y-68173111D01*
X160569369Y-68153933D01*
X160569370Y-68084064D01*
X160607145Y-68025286D01*
X160670701Y-67996262D01*
X160688347Y-67995000D01*
X161405636Y-67995000D01*
X161405635Y-67994999D01*
X161348432Y-67781513D01*
X161348429Y-67781507D01*
X161248600Y-67567422D01*
X161248599Y-67567420D01*
X161113113Y-67373926D01*
X161113108Y-67373920D01*
X160946082Y-67206894D01*
X160752578Y-67071399D01*
X160538492Y-66971570D01*
X160538486Y-66971567D01*
X160325000Y-66914364D01*
X160325000Y-67632698D01*
X160305315Y-67699737D01*
X160252511Y-67745492D01*
X160183355Y-67755436D01*
X160110766Y-67745000D01*
X160110763Y-67745000D01*
X160039237Y-67745000D01*
X160039233Y-67745000D01*
X159966645Y-67755436D01*
X159897487Y-67745492D01*
X159844684Y-67699736D01*
X159825000Y-67632698D01*
X159825000Y-66914364D01*
X159824999Y-66914364D01*
X159611513Y-66971567D01*
X159611507Y-66971570D01*
X159397422Y-67071399D01*
X159397420Y-67071400D01*
X159203926Y-67206886D01*
X159203920Y-67206891D01*
X159036891Y-67373920D01*
X159036886Y-67373926D01*
X158901400Y-67567420D01*
X158901399Y-67567422D01*
X158801570Y-67781507D01*
X158801567Y-67781513D01*
X158744364Y-67994999D01*
X158744364Y-67995000D01*
X159461653Y-67995000D01*
X159528692Y-68014685D01*
X159574447Y-68067489D01*
X159584391Y-68136647D01*
X159580631Y-68153933D01*
X159575000Y-68173111D01*
X159575000Y-68316888D01*
X159580631Y-68336067D01*
X159580630Y-68405936D01*
X159542855Y-68464714D01*
X159479299Y-68493738D01*
X159461653Y-68495000D01*
X158744364Y-68495000D01*
X158801567Y-68708486D01*
X158801570Y-68708492D01*
X158901399Y-68922578D01*
X159036894Y-69116082D01*
X159203917Y-69283105D01*
X159389595Y-69413119D01*
X159433219Y-69467696D01*
X159440412Y-69537195D01*
X159408890Y-69599549D01*
X159389595Y-69616269D01*
X159203594Y-69746508D01*
X159036505Y-69913597D01*
X158900965Y-70107169D01*
X158900964Y-70107171D01*
X158801098Y-70321335D01*
X158801094Y-70321344D01*
X158739938Y-70549586D01*
X158739936Y-70549596D01*
X158719341Y-70784999D01*
X158719341Y-70785000D01*
X157480221Y-70785000D01*
X157480221Y-70784999D01*
X157471910Y-70689999D01*
X157460063Y-70554592D01*
X157398903Y-70326337D01*
X157299035Y-70112171D01*
X157276358Y-70079785D01*
X157163496Y-69918600D01*
X157158493Y-69913597D01*
X157041567Y-69796671D01*
X157008084Y-69735351D01*
X157013068Y-69665659D01*
X157054939Y-69609725D01*
X157085915Y-69592810D01*
X157217331Y-69543796D01*
X157332546Y-69457546D01*
X157418796Y-69342331D01*
X157469091Y-69207483D01*
X157475500Y-69147873D01*
X157475499Y-67352128D01*
X157469091Y-67292517D01*
X157467743Y-67288904D01*
X157418797Y-67157671D01*
X157418793Y-67157664D01*
X157332547Y-67042455D01*
X157332544Y-67042452D01*
X157217335Y-66956206D01*
X157217328Y-66956202D01*
X157082482Y-66905908D01*
X157082483Y-66905908D01*
X157022883Y-66899501D01*
X157022881Y-66899500D01*
X157022873Y-66899500D01*
X157022864Y-66899500D01*
X155227129Y-66899500D01*
X155227123Y-66899501D01*
X155167516Y-66905908D01*
X155032671Y-66956202D01*
X155032664Y-66956206D01*
X154917455Y-67042452D01*
X154917452Y-67042455D01*
X154831206Y-67157664D01*
X154831202Y-67157671D01*
X154780908Y-67292517D01*
X154774501Y-67352116D01*
X154774501Y-67352123D01*
X154774500Y-67352135D01*
X154774500Y-69147870D01*
X154774501Y-69147876D01*
X154780908Y-69207483D01*
X154831202Y-69342328D01*
X154831206Y-69342335D01*
X154917452Y-69457544D01*
X154917455Y-69457547D01*
X155032664Y-69543793D01*
X155032671Y-69543797D01*
X155164081Y-69592810D01*
X155220015Y-69634681D01*
X155244432Y-69700145D01*
X155229580Y-69768418D01*
X155208430Y-69796673D01*
X155086503Y-69918600D01*
X154950965Y-70112169D01*
X154950964Y-70112171D01*
X154889624Y-70243716D01*
X154853430Y-70321335D01*
X154851098Y-70326335D01*
X154851094Y-70326344D01*
X154789938Y-70554586D01*
X154789936Y-70554596D01*
X154769341Y-70789999D01*
X154769341Y-70790000D01*
X127046910Y-70790000D01*
X127055659Y-70690000D01*
X127035063Y-70454592D01*
X126973903Y-70226337D01*
X126874035Y-70012171D01*
X126808516Y-69918600D01*
X126738496Y-69818600D01*
X126688314Y-69768418D01*
X126616567Y-69696671D01*
X126583084Y-69635351D01*
X126588068Y-69565659D01*
X126629939Y-69509725D01*
X126660915Y-69492810D01*
X126792331Y-69443796D01*
X126907546Y-69357546D01*
X126993796Y-69242331D01*
X127044091Y-69107483D01*
X127050500Y-69047873D01*
X127050499Y-67252128D01*
X127044091Y-67192517D01*
X127031094Y-67157671D01*
X126993797Y-67057671D01*
X126993793Y-67057664D01*
X126907547Y-66942455D01*
X126907544Y-66942452D01*
X126792335Y-66856206D01*
X126792328Y-66856202D01*
X126657482Y-66805908D01*
X126657483Y-66805908D01*
X126597883Y-66799501D01*
X126597881Y-66799500D01*
X126597873Y-66799500D01*
X126597864Y-66799500D01*
X124802129Y-66799500D01*
X124802123Y-66799501D01*
X124742516Y-66805908D01*
X124607671Y-66856202D01*
X124607664Y-66856206D01*
X124492455Y-66942452D01*
X124492452Y-66942455D01*
X124406206Y-67057664D01*
X124406202Y-67057671D01*
X124355908Y-67192517D01*
X124350346Y-67244256D01*
X124349501Y-67252123D01*
X124349500Y-67252135D01*
X124349500Y-69047870D01*
X124349501Y-69047876D01*
X124355908Y-69107483D01*
X124406202Y-69242328D01*
X124406206Y-69242335D01*
X124492452Y-69357544D01*
X124492455Y-69357547D01*
X124607664Y-69443793D01*
X124607671Y-69443797D01*
X124739081Y-69492810D01*
X124795015Y-69534681D01*
X124819432Y-69600145D01*
X124804580Y-69668418D01*
X124783430Y-69696673D01*
X124661503Y-69818600D01*
X124525965Y-70012169D01*
X124525964Y-70012171D01*
X124426098Y-70226335D01*
X124426094Y-70226344D01*
X124364938Y-70454586D01*
X124364936Y-70454596D01*
X124344341Y-70689999D01*
X124344341Y-70690000D01*
X101150500Y-70690000D01*
X101150500Y-64500000D01*
X103694922Y-64500000D01*
X103715219Y-64887287D01*
X103775886Y-65270323D01*
X103775887Y-65270330D01*
X103876262Y-65644936D01*
X104015244Y-66006994D01*
X104191310Y-66352543D01*
X104402531Y-66677793D01*
X104611095Y-66935350D01*
X104611096Y-66935350D01*
X105274250Y-66272195D01*
X105335573Y-66238710D01*
X105405264Y-66243694D01*
X105461198Y-66285565D01*
X105465033Y-66290985D01*
X105522704Y-66377296D01*
X105609012Y-66434965D01*
X105653818Y-66488577D01*
X105662525Y-66557902D01*
X105632371Y-66620929D01*
X105627803Y-66625748D01*
X104964648Y-67288902D01*
X104964649Y-67288904D01*
X105222206Y-67497468D01*
X105547456Y-67708689D01*
X105893005Y-67884755D01*
X106255063Y-68023737D01*
X106629669Y-68124112D01*
X106629676Y-68124113D01*
X107012712Y-68184780D01*
X107399999Y-68205078D01*
X107400001Y-68205078D01*
X107787287Y-68184780D01*
X108170323Y-68124113D01*
X108170330Y-68124112D01*
X108544936Y-68023737D01*
X108906994Y-67884755D01*
X109252543Y-67708689D01*
X109577783Y-67497476D01*
X109577785Y-67497475D01*
X109835349Y-67288902D01*
X109172196Y-66625749D01*
X109138711Y-66564426D01*
X109143695Y-66494734D01*
X109185567Y-66438801D01*
X109190986Y-66434966D01*
X109194599Y-66432551D01*
X109194601Y-66432551D01*
X109277296Y-66377296D01*
X109332551Y-66294601D01*
X109332551Y-66294599D01*
X109334966Y-66290986D01*
X109388578Y-66246181D01*
X109457903Y-66237474D01*
X109520930Y-66267628D01*
X109525749Y-66272196D01*
X110188902Y-66935349D01*
X110397475Y-66677785D01*
X110397476Y-66677783D01*
X110564233Y-66421000D01*
X165718540Y-66421000D01*
X165738326Y-66609256D01*
X165738327Y-66609259D01*
X165796818Y-66789277D01*
X165796821Y-66789284D01*
X165891467Y-66953216D01*
X165985513Y-67057664D01*
X166018129Y-67093888D01*
X166171265Y-67205148D01*
X166171270Y-67205151D01*
X166344192Y-67282142D01*
X166344197Y-67282144D01*
X166529354Y-67321500D01*
X166529355Y-67321500D01*
X166718644Y-67321500D01*
X166718646Y-67321500D01*
X166903803Y-67282144D01*
X167076730Y-67205151D01*
X167229871Y-67093888D01*
X167263986Y-67056000D01*
X169147540Y-67056000D01*
X169167326Y-67244256D01*
X169167327Y-67244259D01*
X169225818Y-67424277D01*
X169225821Y-67424284D01*
X169320467Y-67588216D01*
X169420881Y-67699737D01*
X169447129Y-67728888D01*
X169600265Y-67840148D01*
X169600270Y-67840151D01*
X169773192Y-67917142D01*
X169773197Y-67917144D01*
X169958354Y-67956500D01*
X169958355Y-67956500D01*
X170147644Y-67956500D01*
X170147646Y-67956500D01*
X170332803Y-67917144D01*
X170505730Y-67840151D01*
X170658871Y-67728888D01*
X170785533Y-67588216D01*
X170880179Y-67424284D01*
X170938674Y-67244256D01*
X170958460Y-67056000D01*
X170938674Y-66867744D01*
X170880179Y-66687716D01*
X170785533Y-66523784D01*
X170658871Y-66383112D01*
X170650865Y-66377295D01*
X170505734Y-66271851D01*
X170505729Y-66271848D01*
X170332807Y-66194857D01*
X170332802Y-66194855D01*
X170187000Y-66163865D01*
X170147646Y-66155500D01*
X169958354Y-66155500D01*
X169925897Y-66162398D01*
X169773197Y-66194855D01*
X169773192Y-66194857D01*
X169600270Y-66271848D01*
X169600265Y-66271851D01*
X169447129Y-66383111D01*
X169320466Y-66523785D01*
X169225821Y-66687715D01*
X169225818Y-66687722D01*
X169171075Y-66856206D01*
X169167326Y-66867744D01*
X169147540Y-67056000D01*
X167263986Y-67056000D01*
X167356533Y-66953216D01*
X167451179Y-66789284D01*
X167509674Y-66609256D01*
X167529460Y-66421000D01*
X167509674Y-66232744D01*
X167451179Y-66052716D01*
X167356533Y-65888784D01*
X167229871Y-65748112D01*
X167178261Y-65710615D01*
X167076734Y-65636851D01*
X167076729Y-65636848D01*
X166903807Y-65559857D01*
X166903802Y-65559855D01*
X166758001Y-65528865D01*
X166718646Y-65520500D01*
X166529354Y-65520500D01*
X166496897Y-65527398D01*
X166344197Y-65559855D01*
X166344192Y-65559857D01*
X166171270Y-65636848D01*
X166171265Y-65636851D01*
X166018129Y-65748111D01*
X165891466Y-65888785D01*
X165796821Y-66052715D01*
X165796818Y-66052722D01*
X165738327Y-66232740D01*
X165738326Y-66232744D01*
X165718540Y-66421000D01*
X110564233Y-66421000D01*
X110608689Y-66352543D01*
X110784755Y-66006994D01*
X110923737Y-65644936D01*
X111024112Y-65270330D01*
X111024113Y-65270323D01*
X111084780Y-64887287D01*
X111105078Y-64500000D01*
X111105078Y-64499999D01*
X111090665Y-64225000D01*
X132904551Y-64225000D01*
X132924317Y-64476151D01*
X132983126Y-64721110D01*
X133079533Y-64953859D01*
X133211160Y-65168653D01*
X133211161Y-65168656D01*
X133211164Y-65168659D01*
X133374776Y-65360224D01*
X133472122Y-65443365D01*
X133566343Y-65523838D01*
X133566346Y-65523839D01*
X133781140Y-65655466D01*
X133914283Y-65710615D01*
X134013889Y-65751873D01*
X134258852Y-65810683D01*
X134510000Y-65830449D01*
X134761148Y-65810683D01*
X135006111Y-65751873D01*
X135238859Y-65655466D01*
X135371019Y-65574477D01*
X135438461Y-65556234D01*
X135505064Y-65577350D01*
X135535072Y-65605894D01*
X135592455Y-65682547D01*
X135707664Y-65768793D01*
X135707671Y-65768797D01*
X135842517Y-65819091D01*
X135842516Y-65819091D01*
X135849444Y-65819835D01*
X135902127Y-65825500D01*
X138197872Y-65825499D01*
X138257483Y-65819091D01*
X138392331Y-65768796D01*
X138507546Y-65682546D01*
X138593796Y-65567331D01*
X138644091Y-65432483D01*
X138650500Y-65372873D01*
X138650499Y-64225000D01*
X144824551Y-64225000D01*
X144844317Y-64476151D01*
X144903126Y-64721110D01*
X144999533Y-64953859D01*
X145131160Y-65168653D01*
X145131161Y-65168656D01*
X145131164Y-65168659D01*
X145294776Y-65360224D01*
X145392122Y-65443365D01*
X145486343Y-65523838D01*
X145486346Y-65523839D01*
X145701140Y-65655466D01*
X145834283Y-65710615D01*
X145933889Y-65751873D01*
X146178852Y-65810683D01*
X146430000Y-65830449D01*
X146681148Y-65810683D01*
X146926111Y-65751873D01*
X147158859Y-65655466D01*
X147291019Y-65574477D01*
X147358461Y-65556234D01*
X147425064Y-65577350D01*
X147455072Y-65605894D01*
X147512455Y-65682547D01*
X147627664Y-65768793D01*
X147627671Y-65768797D01*
X147762517Y-65819091D01*
X147762516Y-65819091D01*
X147769444Y-65819835D01*
X147822127Y-65825500D01*
X150117872Y-65825499D01*
X150177483Y-65819091D01*
X150312331Y-65768796D01*
X150427546Y-65682546D01*
X150513796Y-65567331D01*
X150564091Y-65432483D01*
X150570500Y-65372873D01*
X150570500Y-64500000D01*
X182694922Y-64500000D01*
X182715219Y-64887287D01*
X182775886Y-65270323D01*
X182775887Y-65270330D01*
X182876262Y-65644936D01*
X183015244Y-66006994D01*
X183191310Y-66352543D01*
X183402531Y-66677793D01*
X183611095Y-66935350D01*
X183611096Y-66935350D01*
X184274250Y-66272195D01*
X184335573Y-66238710D01*
X184405264Y-66243694D01*
X184461198Y-66285565D01*
X184465033Y-66290985D01*
X184522704Y-66377296D01*
X184609012Y-66434965D01*
X184653818Y-66488577D01*
X184662525Y-66557902D01*
X184632371Y-66620929D01*
X184627803Y-66625748D01*
X183964648Y-67288902D01*
X183964649Y-67288904D01*
X184222206Y-67497468D01*
X184547456Y-67708689D01*
X184893005Y-67884755D01*
X185255063Y-68023737D01*
X185629669Y-68124112D01*
X185629676Y-68124113D01*
X186012712Y-68184780D01*
X186399999Y-68205078D01*
X186400001Y-68205078D01*
X186787287Y-68184780D01*
X187170323Y-68124113D01*
X187170330Y-68124112D01*
X187544936Y-68023737D01*
X187906994Y-67884755D01*
X188252543Y-67708689D01*
X188577783Y-67497476D01*
X188577785Y-67497475D01*
X188835349Y-67288902D01*
X188172196Y-66625749D01*
X188138711Y-66564426D01*
X188143695Y-66494734D01*
X188185567Y-66438801D01*
X188190986Y-66434966D01*
X188194599Y-66432551D01*
X188194601Y-66432551D01*
X188277296Y-66377296D01*
X188332551Y-66294601D01*
X188332551Y-66294599D01*
X188334966Y-66290986D01*
X188388578Y-66246181D01*
X188457903Y-66237474D01*
X188520930Y-66267628D01*
X188525749Y-66272196D01*
X189188902Y-66935349D01*
X189397475Y-66677785D01*
X189397476Y-66677783D01*
X189608689Y-66352543D01*
X189784755Y-66006994D01*
X189923737Y-65644936D01*
X190024112Y-65270330D01*
X190024113Y-65270323D01*
X190084780Y-64887287D01*
X190105078Y-64500000D01*
X190105078Y-64499999D01*
X190084780Y-64112712D01*
X190024113Y-63729676D01*
X190024112Y-63729669D01*
X189923737Y-63355063D01*
X189784755Y-62993005D01*
X189608689Y-62647456D01*
X189397468Y-62322206D01*
X189188904Y-62064649D01*
X189188902Y-62064648D01*
X188525748Y-62727803D01*
X188464425Y-62761288D01*
X188394733Y-62756304D01*
X188338800Y-62714432D01*
X188334965Y-62709012D01*
X188277296Y-62622704D01*
X188190985Y-62565033D01*
X188146180Y-62511421D01*
X188137473Y-62442096D01*
X188167627Y-62379068D01*
X188172195Y-62374250D01*
X188835350Y-61711096D01*
X188835350Y-61711095D01*
X188577793Y-61502531D01*
X188252543Y-61291310D01*
X187906994Y-61115244D01*
X187544936Y-60976262D01*
X187170330Y-60875887D01*
X187170323Y-60875886D01*
X186787287Y-60815219D01*
X186400001Y-60794922D01*
X186399999Y-60794922D01*
X186012712Y-60815219D01*
X185629676Y-60875886D01*
X185629669Y-60875887D01*
X185255063Y-60976262D01*
X184893005Y-61115244D01*
X184547456Y-61291310D01*
X184222206Y-61502531D01*
X183964648Y-61711095D01*
X183964648Y-61711096D01*
X184627803Y-62374251D01*
X184661288Y-62435574D01*
X184656304Y-62505266D01*
X184614432Y-62561199D01*
X184609013Y-62565034D01*
X184522704Y-62622704D01*
X184465034Y-62709013D01*
X184411422Y-62753818D01*
X184342097Y-62762525D01*
X184279069Y-62732370D01*
X184274251Y-62727803D01*
X183611096Y-62064648D01*
X183611095Y-62064648D01*
X183402531Y-62322206D01*
X183191310Y-62647456D01*
X183015244Y-62993005D01*
X182876262Y-63355063D01*
X182775887Y-63729669D01*
X182775886Y-63729676D01*
X182715219Y-64112712D01*
X182694922Y-64499999D01*
X182694922Y-64500000D01*
X150570500Y-64500000D01*
X150570499Y-63077128D01*
X150564091Y-63017517D01*
X150551285Y-62983183D01*
X150513797Y-62882671D01*
X150513793Y-62882664D01*
X150427547Y-62767455D01*
X150427544Y-62767452D01*
X150312335Y-62681206D01*
X150312328Y-62681202D01*
X150177482Y-62630908D01*
X150177483Y-62630908D01*
X150117883Y-62624501D01*
X150117881Y-62624500D01*
X150117873Y-62624500D01*
X150117865Y-62624500D01*
X149170217Y-62624500D01*
X149103178Y-62604815D01*
X149057423Y-62552011D01*
X149047479Y-62482853D01*
X149076504Y-62419297D01*
X149135282Y-62381523D01*
X149140552Y-62380101D01*
X149141275Y-62379921D01*
X149141283Y-62379921D01*
X149302611Y-62318737D01*
X149444609Y-62220723D01*
X149559024Y-62091574D01*
X149639208Y-61938797D01*
X149680500Y-61771270D01*
X149680500Y-61598730D01*
X149639208Y-61431203D01*
X149559024Y-61278426D01*
X149444609Y-61149277D01*
X149302612Y-61051264D01*
X149302614Y-61051264D01*
X149141282Y-60990078D01*
X149012979Y-60974500D01*
X149012975Y-60974500D01*
X148927025Y-60974500D01*
X148927021Y-60974500D01*
X148798717Y-60990078D01*
X148637386Y-61051264D01*
X148495392Y-61149276D01*
X148380976Y-61278425D01*
X148300790Y-61431206D01*
X148259500Y-61598729D01*
X148259500Y-61771270D01*
X148300790Y-61938793D01*
X148300791Y-61938796D01*
X148300792Y-61938797D01*
X148380976Y-62091574D01*
X148495391Y-62220723D01*
X148637386Y-62318735D01*
X148637387Y-62318735D01*
X148637389Y-62318737D01*
X148798717Y-62379921D01*
X148798725Y-62379921D01*
X148799450Y-62380101D01*
X148799932Y-62380381D01*
X148805731Y-62382581D01*
X148805365Y-62383544D01*
X148859833Y-62415254D01*
X148891625Y-62477472D01*
X148884733Y-62547001D01*
X148841345Y-62601766D01*
X148775236Y-62624380D01*
X148769782Y-62624500D01*
X147822129Y-62624500D01*
X147822123Y-62624501D01*
X147762516Y-62630908D01*
X147627671Y-62681202D01*
X147627664Y-62681206D01*
X147512455Y-62767452D01*
X147455072Y-62844105D01*
X147399138Y-62885976D01*
X147329446Y-62890959D01*
X147291016Y-62875520D01*
X147158859Y-62794533D01*
X146926110Y-62698126D01*
X146747066Y-62655142D01*
X146681148Y-62639317D01*
X146572481Y-62630764D01*
X146507194Y-62605881D01*
X146465724Y-62549649D01*
X146461237Y-62479924D01*
X146495160Y-62418841D01*
X146556720Y-62385796D01*
X146567262Y-62384051D01*
X146601283Y-62379921D01*
X146762611Y-62318737D01*
X146904609Y-62220723D01*
X147019024Y-62091574D01*
X147099208Y-61938797D01*
X147140500Y-61771270D01*
X147140500Y-61598730D01*
X147099208Y-61431203D01*
X147019024Y-61278426D01*
X146904609Y-61149277D01*
X146762612Y-61051264D01*
X146762614Y-61051264D01*
X146601282Y-60990078D01*
X146472979Y-60974500D01*
X146472975Y-60974500D01*
X146387025Y-60974500D01*
X146387021Y-60974500D01*
X146258717Y-60990078D01*
X146097386Y-61051264D01*
X145955392Y-61149276D01*
X145840976Y-61278425D01*
X145760790Y-61431206D01*
X145719500Y-61598729D01*
X145719500Y-61771270D01*
X145760790Y-61938793D01*
X145760791Y-61938796D01*
X145760792Y-61938797D01*
X145840976Y-62091574D01*
X145955391Y-62220723D01*
X146097386Y-62318735D01*
X146097387Y-62318735D01*
X146097389Y-62318737D01*
X146258717Y-62379921D01*
X146258716Y-62379921D01*
X146292732Y-62384051D01*
X146356911Y-62411672D01*
X146395968Y-62469606D01*
X146397503Y-62539459D01*
X146361030Y-62599053D01*
X146298127Y-62629467D01*
X146287521Y-62630764D01*
X146178852Y-62639317D01*
X146178847Y-62639318D01*
X146178848Y-62639318D01*
X145933889Y-62698126D01*
X145701140Y-62794533D01*
X145486346Y-62926160D01*
X145486343Y-62926161D01*
X145294776Y-63089776D01*
X145131161Y-63281343D01*
X145131160Y-63281346D01*
X144999533Y-63496140D01*
X144903126Y-63728889D01*
X144844317Y-63973848D01*
X144824551Y-64225000D01*
X138650499Y-64225000D01*
X138650499Y-63077128D01*
X138644091Y-63017517D01*
X138631285Y-62983183D01*
X138593797Y-62882671D01*
X138593793Y-62882664D01*
X138507547Y-62767455D01*
X138507544Y-62767452D01*
X138392335Y-62681206D01*
X138392328Y-62681202D01*
X138257482Y-62630908D01*
X138257483Y-62630908D01*
X138197883Y-62624501D01*
X138197881Y-62624500D01*
X138197873Y-62624500D01*
X138197865Y-62624500D01*
X137250217Y-62624500D01*
X137183178Y-62604815D01*
X137137423Y-62552011D01*
X137127479Y-62482853D01*
X137156504Y-62419297D01*
X137215282Y-62381523D01*
X137220552Y-62380101D01*
X137221275Y-62379921D01*
X137221283Y-62379921D01*
X137382611Y-62318737D01*
X137524609Y-62220723D01*
X137639024Y-62091574D01*
X137719208Y-61938797D01*
X137760500Y-61771270D01*
X137760500Y-61598730D01*
X137719208Y-61431203D01*
X137639024Y-61278426D01*
X137524609Y-61149277D01*
X137382612Y-61051264D01*
X137382614Y-61051264D01*
X137221282Y-60990078D01*
X137092979Y-60974500D01*
X137092975Y-60974500D01*
X137007025Y-60974500D01*
X137007021Y-60974500D01*
X136878717Y-60990078D01*
X136717386Y-61051264D01*
X136575392Y-61149276D01*
X136460976Y-61278425D01*
X136380790Y-61431206D01*
X136339500Y-61598729D01*
X136339500Y-61771270D01*
X136380790Y-61938793D01*
X136380791Y-61938796D01*
X136380792Y-61938797D01*
X136460976Y-62091574D01*
X136575391Y-62220723D01*
X136717386Y-62318735D01*
X136717387Y-62318735D01*
X136717389Y-62318737D01*
X136878717Y-62379921D01*
X136878725Y-62379921D01*
X136879450Y-62380101D01*
X136879932Y-62380381D01*
X136885731Y-62382581D01*
X136885365Y-62383544D01*
X136939833Y-62415254D01*
X136971625Y-62477472D01*
X136964733Y-62547001D01*
X136921345Y-62601766D01*
X136855236Y-62624380D01*
X136849782Y-62624500D01*
X135902129Y-62624500D01*
X135902123Y-62624501D01*
X135842516Y-62630908D01*
X135707671Y-62681202D01*
X135707664Y-62681206D01*
X135592455Y-62767452D01*
X135535072Y-62844105D01*
X135479138Y-62885976D01*
X135409446Y-62890959D01*
X135371016Y-62875520D01*
X135238859Y-62794533D01*
X135006110Y-62698126D01*
X134827066Y-62655142D01*
X134761148Y-62639317D01*
X134652481Y-62630764D01*
X134587194Y-62605881D01*
X134545724Y-62549649D01*
X134541237Y-62479924D01*
X134575160Y-62418841D01*
X134636720Y-62385796D01*
X134647262Y-62384051D01*
X134681283Y-62379921D01*
X134842611Y-62318737D01*
X134984609Y-62220723D01*
X135099024Y-62091574D01*
X135179208Y-61938797D01*
X135220500Y-61771270D01*
X135220500Y-61598730D01*
X135179208Y-61431203D01*
X135099024Y-61278426D01*
X134984609Y-61149277D01*
X134842612Y-61051264D01*
X134842614Y-61051264D01*
X134681282Y-60990078D01*
X134552979Y-60974500D01*
X134552975Y-60974500D01*
X134467025Y-60974500D01*
X134467021Y-60974500D01*
X134338717Y-60990078D01*
X134177386Y-61051264D01*
X134035392Y-61149276D01*
X133920976Y-61278425D01*
X133840790Y-61431206D01*
X133799500Y-61598729D01*
X133799500Y-61771270D01*
X133840790Y-61938793D01*
X133840791Y-61938796D01*
X133840792Y-61938797D01*
X133920976Y-62091574D01*
X134035391Y-62220723D01*
X134177386Y-62318735D01*
X134177387Y-62318735D01*
X134177389Y-62318737D01*
X134338717Y-62379921D01*
X134338716Y-62379921D01*
X134372732Y-62384051D01*
X134436911Y-62411672D01*
X134475968Y-62469606D01*
X134477503Y-62539459D01*
X134441030Y-62599053D01*
X134378127Y-62629467D01*
X134367521Y-62630764D01*
X134258852Y-62639317D01*
X134258847Y-62639318D01*
X134258848Y-62639318D01*
X134013889Y-62698126D01*
X133781140Y-62794533D01*
X133566346Y-62926160D01*
X133566343Y-62926161D01*
X133374776Y-63089776D01*
X133211161Y-63281343D01*
X133211160Y-63281346D01*
X133079533Y-63496140D01*
X132983126Y-63728889D01*
X132924317Y-63973848D01*
X132904551Y-64225000D01*
X111090665Y-64225000D01*
X111084780Y-64112712D01*
X111024113Y-63729676D01*
X111024112Y-63729669D01*
X110923737Y-63355063D01*
X110784755Y-62993005D01*
X110673676Y-62775000D01*
X126194540Y-62775000D01*
X126214326Y-62963256D01*
X126214327Y-62963259D01*
X126272818Y-63143277D01*
X126272821Y-63143284D01*
X126367467Y-63307216D01*
X126494129Y-63447888D01*
X126647265Y-63559148D01*
X126647270Y-63559151D01*
X126820192Y-63636142D01*
X126820197Y-63636144D01*
X127005354Y-63675500D01*
X127005355Y-63675500D01*
X127194644Y-63675500D01*
X127194646Y-63675500D01*
X127379803Y-63636144D01*
X127552730Y-63559151D01*
X127705871Y-63447888D01*
X127832533Y-63307216D01*
X127927179Y-63143284D01*
X127985674Y-62963256D01*
X128005460Y-62775000D01*
X127985674Y-62586744D01*
X127927179Y-62406716D01*
X127832533Y-62242784D01*
X127705871Y-62102112D01*
X127691367Y-62091574D01*
X127552734Y-61990851D01*
X127552729Y-61990848D01*
X127379807Y-61913857D01*
X127379802Y-61913855D01*
X127214283Y-61878674D01*
X127194646Y-61874500D01*
X127005354Y-61874500D01*
X126985717Y-61878674D01*
X126820197Y-61913855D01*
X126820192Y-61913857D01*
X126647270Y-61990848D01*
X126647265Y-61990851D01*
X126494129Y-62102111D01*
X126367466Y-62242785D01*
X126272821Y-62406715D01*
X126272818Y-62406722D01*
X126225308Y-62552944D01*
X126214326Y-62586744D01*
X126194540Y-62775000D01*
X110673676Y-62775000D01*
X110608689Y-62647456D01*
X110397468Y-62322206D01*
X110188904Y-62064649D01*
X110188902Y-62064648D01*
X109525748Y-62727803D01*
X109464425Y-62761288D01*
X109394733Y-62756304D01*
X109338800Y-62714432D01*
X109334965Y-62709012D01*
X109277296Y-62622704D01*
X109190985Y-62565033D01*
X109146180Y-62511421D01*
X109137473Y-62442096D01*
X109167627Y-62379068D01*
X109172195Y-62374250D01*
X109835350Y-61711096D01*
X109835350Y-61711095D01*
X109577793Y-61502531D01*
X109252543Y-61291310D01*
X108906994Y-61115244D01*
X108544936Y-60976262D01*
X108170330Y-60875887D01*
X108170323Y-60875886D01*
X107787287Y-60815219D01*
X107400001Y-60794922D01*
X107399999Y-60794922D01*
X107012712Y-60815219D01*
X106629676Y-60875886D01*
X106629669Y-60875887D01*
X106255063Y-60976262D01*
X105893005Y-61115244D01*
X105547456Y-61291310D01*
X105222206Y-61502531D01*
X104964648Y-61711095D01*
X104964648Y-61711096D01*
X105627803Y-62374251D01*
X105661288Y-62435574D01*
X105656304Y-62505266D01*
X105614432Y-62561199D01*
X105609013Y-62565034D01*
X105522704Y-62622704D01*
X105465034Y-62709013D01*
X105411422Y-62753818D01*
X105342097Y-62762525D01*
X105279069Y-62732370D01*
X105274251Y-62727803D01*
X104611096Y-62064648D01*
X104611095Y-62064648D01*
X104402531Y-62322206D01*
X104191310Y-62647456D01*
X104015244Y-62993005D01*
X103876262Y-63355063D01*
X103775887Y-63729669D01*
X103775886Y-63729676D01*
X103715219Y-64112712D01*
X103694922Y-64499999D01*
X103694922Y-64500000D01*
X101150500Y-64500000D01*
X101167889Y-64035260D01*
X101168232Y-64030689D01*
X101220045Y-63570835D01*
X101220733Y-63566280D01*
X101222083Y-63559148D01*
X101306756Y-63111634D01*
X101307787Y-63107120D01*
X101338364Y-62993005D01*
X101427551Y-62660154D01*
X101428914Y-62655740D01*
X101516051Y-62406715D01*
X101581742Y-62218979D01*
X101583434Y-62214672D01*
X101768472Y-61790561D01*
X101770475Y-61786398D01*
X101986700Y-61377281D01*
X101989004Y-61373292D01*
X102040517Y-61291310D01*
X102235194Y-60981483D01*
X102237800Y-60977662D01*
X102512569Y-60605361D01*
X102515453Y-60601746D01*
X102588263Y-60517140D01*
X102817286Y-60251009D01*
X102820428Y-60247623D01*
X103147623Y-59920428D01*
X103151010Y-59917286D01*
X103163704Y-59906362D01*
X122685862Y-59906362D01*
X122695548Y-60060305D01*
X122743213Y-60207003D01*
X122743214Y-60207006D01*
X122825862Y-60337240D01*
X122825863Y-60337241D01*
X122938301Y-60442827D01*
X122938309Y-60442833D01*
X123073470Y-60517138D01*
X123073474Y-60517140D01*
X123222876Y-60555500D01*
X123222880Y-60555500D01*
X123338406Y-60555500D01*
X123338408Y-60555500D01*
X123338413Y-60555499D01*
X123338417Y-60555499D01*
X123350840Y-60553929D01*
X123453032Y-60541020D01*
X123596448Y-60484237D01*
X123721237Y-60393572D01*
X123819559Y-60274722D01*
X123885235Y-60135154D01*
X123914138Y-59983638D01*
X123909276Y-59906362D01*
X125685862Y-59906362D01*
X125695548Y-60060305D01*
X125743213Y-60207003D01*
X125743214Y-60207006D01*
X125825862Y-60337240D01*
X125825863Y-60337241D01*
X125938301Y-60442827D01*
X125938309Y-60442833D01*
X126073470Y-60517138D01*
X126073474Y-60517140D01*
X126222876Y-60555500D01*
X126222880Y-60555500D01*
X126338406Y-60555500D01*
X126338408Y-60555500D01*
X126338413Y-60555499D01*
X126338417Y-60555499D01*
X126350840Y-60553929D01*
X126453032Y-60541020D01*
X126596448Y-60484237D01*
X126721237Y-60393572D01*
X126819559Y-60274722D01*
X126885235Y-60135154D01*
X126914138Y-59983638D01*
X126904452Y-59829695D01*
X126856787Y-59682996D01*
X126813812Y-59615278D01*
X126774137Y-59552759D01*
X126774136Y-59552758D01*
X126661698Y-59447172D01*
X126661690Y-59447166D01*
X126526529Y-59372861D01*
X126526519Y-59372858D01*
X126377127Y-59334500D01*
X126377124Y-59334500D01*
X126261592Y-59334500D01*
X126261582Y-59334500D01*
X126146968Y-59348980D01*
X126146966Y-59348980D01*
X126003553Y-59405762D01*
X125878762Y-59496429D01*
X125780440Y-59615279D01*
X125714764Y-59754847D01*
X125685862Y-59906359D01*
X125685862Y-59906362D01*
X123909276Y-59906362D01*
X123904452Y-59829695D01*
X123856787Y-59682996D01*
X123813812Y-59615278D01*
X123774137Y-59552759D01*
X123774136Y-59552758D01*
X123661698Y-59447172D01*
X123661690Y-59447166D01*
X123526529Y-59372861D01*
X123526519Y-59372858D01*
X123377127Y-59334500D01*
X123377124Y-59334500D01*
X123261592Y-59334500D01*
X123261582Y-59334500D01*
X123146968Y-59348980D01*
X123146966Y-59348980D01*
X123003553Y-59405762D01*
X122878762Y-59496429D01*
X122780440Y-59615279D01*
X122714764Y-59754847D01*
X122685862Y-59906359D01*
X122685862Y-59906362D01*
X103163704Y-59906362D01*
X103211935Y-59864856D01*
X103501752Y-59615447D01*
X103505361Y-59612569D01*
X103877668Y-59337795D01*
X103881483Y-59335194D01*
X104273297Y-59089000D01*
X104277281Y-59086700D01*
X104686398Y-58870475D01*
X104690561Y-58868472D01*
X105114672Y-58683434D01*
X105118979Y-58681742D01*
X105337364Y-58605326D01*
X105555740Y-58528914D01*
X105560154Y-58527551D01*
X106007116Y-58407787D01*
X106011634Y-58406756D01*
X106466290Y-58320731D01*
X106470835Y-58320045D01*
X106930689Y-58268232D01*
X106935260Y-58267889D01*
X107400000Y-58250500D01*
X107434351Y-58250500D01*
X186365649Y-58250500D01*
X186400000Y-58250500D01*
X186864737Y-58267889D01*
G37*
%TD.AperFunction*%
%TD*%
M02*
