%TF.GenerationSoftware,KiCad,Pcbnew,7.0.7*%
%TF.CreationDate,2024-04-15T16:49:56-05:00*%
%TF.ProjectId,Rev2.1,52657632-2e31-42e6-9b69-6361645f7063,rev?*%
%TF.SameCoordinates,Original*%
%TF.FileFunction,Soldermask,Bot*%
%TF.FilePolarity,Negative*%
%FSLAX46Y46*%
G04 Gerber Fmt 4.6, Leading zero omitted, Abs format (unit mm)*
G04 Created by KiCad (PCBNEW 7.0.7) date 2024-04-15 16:49:56*
%MOMM*%
%LPD*%
G01*
G04 APERTURE LIST*
%ADD10C,0.900000*%
%ADD11C,0.800000*%
%ADD12C,6.400000*%
%ADD13C,0.650000*%
%ADD14O,2.100000X1.000000*%
%ADD15O,1.800000X1.000000*%
%ADD16R,1.700000X1.700000*%
%ADD17O,1.700000X1.700000*%
%ADD18C,1.100000*%
%ADD19R,2.200000X2.200000*%
%ADD20C,2.200000*%
%ADD21R,2.600000X2.600000*%
%ADD22C,2.600000*%
%ADD23C,3.250000*%
%ADD24R,1.500000X1.500000*%
%ADD25C,1.500000*%
%ADD26C,2.300000*%
G04 APERTURE END LIST*
D10*
%TO.C,J6*%
X187375000Y-85500000D03*
X187375000Y-81100000D03*
%TD*%
D11*
%TO.C,H4*%
X184000000Y-64500000D03*
X184702944Y-62802944D03*
X184702944Y-66197056D03*
X186400000Y-62100000D03*
D12*
X186400000Y-64500000D03*
D11*
X186400000Y-66900000D03*
X188097056Y-62802944D03*
X188097056Y-66197056D03*
X188800000Y-64500000D03*
%TD*%
D13*
%TO.C,P2*%
X186395000Y-102290000D03*
X186395000Y-96510000D03*
D14*
X185895000Y-103720000D03*
D15*
X190075000Y-103720000D03*
D14*
X185895000Y-95080000D03*
D15*
X190075000Y-95080000D03*
%TD*%
D16*
%TO.C,J12*%
X176025000Y-61700000D03*
D17*
X178565000Y-61700000D03*
%TD*%
D18*
%TO.C,J2*%
X137050000Y-61685000D03*
X134510000Y-61685000D03*
D19*
X137050000Y-64225000D03*
D20*
X134510000Y-64225000D03*
%TD*%
D21*
%TO.C,J7*%
X108750000Y-72850000D03*
D22*
X108750000Y-77850000D03*
X108750000Y-82850000D03*
X108750000Y-87850000D03*
%TD*%
D11*
%TO.C,H1*%
X105000000Y-64500000D03*
X105702944Y-62802944D03*
X105702944Y-66197056D03*
X107400000Y-62100000D03*
D12*
X107400000Y-64500000D03*
D11*
X107400000Y-66900000D03*
X109097056Y-62802944D03*
X109097056Y-66197056D03*
X109800000Y-64500000D03*
%TD*%
%TO.C,H2*%
X105000000Y-146200000D03*
X105702944Y-144502944D03*
X105702944Y-147897056D03*
X107400000Y-143800000D03*
D12*
X107400000Y-146200000D03*
D11*
X107400000Y-148600000D03*
X109097056Y-144502944D03*
X109097056Y-147897056D03*
X109800000Y-146200000D03*
%TD*%
D16*
%TO.C,J3*%
X156125000Y-68250000D03*
D17*
X156125000Y-70790000D03*
%TD*%
D16*
%TO.C,J11*%
X179200000Y-68950000D03*
D17*
X179200000Y-71490000D03*
%TD*%
D16*
%TO.C,J1*%
X125700000Y-68150000D03*
D17*
X125700000Y-70690000D03*
%TD*%
D21*
%TO.C,J9*%
X129800000Y-145280000D03*
D22*
X134800000Y-145280000D03*
X139800000Y-145280000D03*
X144800000Y-145280000D03*
%TD*%
D16*
%TO.C,J5*%
X160075000Y-73325000D03*
D17*
X160075000Y-70785000D03*
X160075000Y-68245000D03*
%TD*%
D18*
%TO.C,J4*%
X148970000Y-61685000D03*
X146430000Y-61685000D03*
D19*
X148970000Y-64225000D03*
D20*
X146430000Y-64225000D03*
%TD*%
D21*
%TO.C,J14*%
X108780000Y-93950000D03*
D22*
X108780000Y-98950000D03*
X108780000Y-103950000D03*
X108780000Y-108950000D03*
%TD*%
D23*
%TO.C,J13*%
X186340000Y-133710000D03*
X186340000Y-146410000D03*
D24*
X183800000Y-136500000D03*
D25*
X182020000Y-137516000D03*
X183800000Y-138532000D03*
X182020000Y-139548000D03*
X183800000Y-140564000D03*
X182020000Y-141580000D03*
X183800000Y-142596000D03*
X182020000Y-143612000D03*
X177200000Y-133200000D03*
X177200000Y-135490000D03*
X177200000Y-144630000D03*
X177200000Y-146920000D03*
D26*
X182910000Y-131930000D03*
X182910000Y-148190000D03*
%TD*%
D16*
%TO.C,J10*%
X178400000Y-127135000D03*
D17*
X178400000Y-124595000D03*
X178400000Y-122055000D03*
X178400000Y-119515000D03*
X178400000Y-116975000D03*
X178400000Y-114435000D03*
X178400000Y-111895000D03*
X178400000Y-109355000D03*
%TD*%
D11*
%TO.C,H3*%
X184000000Y-122900000D03*
X184702944Y-121202944D03*
X184702944Y-124597056D03*
X186400000Y-120500000D03*
D12*
X186400000Y-122900000D03*
D11*
X186400000Y-125300000D03*
X188097056Y-121202944D03*
X188097056Y-124597056D03*
X188800000Y-122900000D03*
%TD*%
D21*
%TO.C,J8*%
X108550000Y-121550000D03*
D22*
X108550000Y-126550000D03*
X108550000Y-131550000D03*
X108550000Y-136550000D03*
%TD*%
D10*
%TO.C,SW3*%
X126300000Y-59945000D03*
X123300000Y-59945000D03*
%TD*%
M02*
