%TF.GenerationSoftware,KiCad,Pcbnew,7.0.7*%
%TF.CreationDate,2024-06-15T17:22:07-05:00*%
%TF.ProjectId,Rev2.2,52657632-2e32-42e6-9b69-6361645f7063,rev?*%
%TF.SameCoordinates,Original*%
%TF.FileFunction,Legend,Bot*%
%TF.FilePolarity,Positive*%
%FSLAX46Y46*%
G04 Gerber Fmt 4.6, Leading zero omitted, Abs format (unit mm)*
G04 Created by KiCad (PCBNEW 7.0.7) date 2024-06-15 17:22:07*
%MOMM*%
%LPD*%
G01*
G04 APERTURE LIST*
%ADD10C,0.150000*%
G04 APERTURE END LIST*
D10*
X119391792Y-62659819D02*
X119725125Y-62183628D01*
X119963220Y-62659819D02*
X119963220Y-61659819D01*
X119963220Y-61659819D02*
X119582268Y-61659819D01*
X119582268Y-61659819D02*
X119487030Y-61707438D01*
X119487030Y-61707438D02*
X119439411Y-61755057D01*
X119439411Y-61755057D02*
X119391792Y-61850295D01*
X119391792Y-61850295D02*
X119391792Y-61993152D01*
X119391792Y-61993152D02*
X119439411Y-62088390D01*
X119439411Y-62088390D02*
X119487030Y-62136009D01*
X119487030Y-62136009D02*
X119582268Y-62183628D01*
X119582268Y-62183628D02*
X119963220Y-62183628D01*
X118582268Y-62612200D02*
X118677506Y-62659819D01*
X118677506Y-62659819D02*
X118867982Y-62659819D01*
X118867982Y-62659819D02*
X118963220Y-62612200D01*
X118963220Y-62612200D02*
X119010839Y-62516961D01*
X119010839Y-62516961D02*
X119010839Y-62136009D01*
X119010839Y-62136009D02*
X118963220Y-62040771D01*
X118963220Y-62040771D02*
X118867982Y-61993152D01*
X118867982Y-61993152D02*
X118677506Y-61993152D01*
X118677506Y-61993152D02*
X118582268Y-62040771D01*
X118582268Y-62040771D02*
X118534649Y-62136009D01*
X118534649Y-62136009D02*
X118534649Y-62231247D01*
X118534649Y-62231247D02*
X119010839Y-62326485D01*
X118201315Y-61993152D02*
X117963220Y-62659819D01*
X117963220Y-62659819D02*
X117725125Y-61993152D01*
X116629886Y-61755057D02*
X116582267Y-61707438D01*
X116582267Y-61707438D02*
X116487029Y-61659819D01*
X116487029Y-61659819D02*
X116248934Y-61659819D01*
X116248934Y-61659819D02*
X116153696Y-61707438D01*
X116153696Y-61707438D02*
X116106077Y-61755057D01*
X116106077Y-61755057D02*
X116058458Y-61850295D01*
X116058458Y-61850295D02*
X116058458Y-61945533D01*
X116058458Y-61945533D02*
X116106077Y-62088390D01*
X116106077Y-62088390D02*
X116677505Y-62659819D01*
X116677505Y-62659819D02*
X116058458Y-62659819D01*
X115629886Y-62564580D02*
X115582267Y-62612200D01*
X115582267Y-62612200D02*
X115629886Y-62659819D01*
X115629886Y-62659819D02*
X115677505Y-62612200D01*
X115677505Y-62612200D02*
X115629886Y-62564580D01*
X115629886Y-62564580D02*
X115629886Y-62659819D01*
X114629887Y-62659819D02*
X115201315Y-62659819D01*
X114915601Y-62659819D02*
X114915601Y-61659819D01*
X114915601Y-61659819D02*
X115010839Y-61802676D01*
X115010839Y-61802676D02*
X115106077Y-61897914D01*
X115106077Y-61897914D02*
X115201315Y-61945533D01*
X119534649Y-63603152D02*
X119534649Y-64269819D01*
X119772744Y-63222200D02*
X120010839Y-63936485D01*
X120010839Y-63936485D02*
X119391792Y-63936485D01*
X118296554Y-63222200D02*
X119153696Y-64507914D01*
X117439411Y-64269819D02*
X118010839Y-64269819D01*
X117725125Y-64269819D02*
X117725125Y-63269819D01*
X117725125Y-63269819D02*
X117820363Y-63412676D01*
X117820363Y-63412676D02*
X117915601Y-63507914D01*
X117915601Y-63507914D02*
X118010839Y-63555533D01*
X117106077Y-63269819D02*
X116487030Y-63269819D01*
X116487030Y-63269819D02*
X116820363Y-63650771D01*
X116820363Y-63650771D02*
X116677506Y-63650771D01*
X116677506Y-63650771D02*
X116582268Y-63698390D01*
X116582268Y-63698390D02*
X116534649Y-63746009D01*
X116534649Y-63746009D02*
X116487030Y-63841247D01*
X116487030Y-63841247D02*
X116487030Y-64079342D01*
X116487030Y-64079342D02*
X116534649Y-64174580D01*
X116534649Y-64174580D02*
X116582268Y-64222200D01*
X116582268Y-64222200D02*
X116677506Y-64269819D01*
X116677506Y-64269819D02*
X116963220Y-64269819D01*
X116963220Y-64269819D02*
X117058458Y-64222200D01*
X117058458Y-64222200D02*
X117106077Y-64174580D01*
X115344173Y-63222200D02*
X116201315Y-64507914D01*
X115058458Y-63365057D02*
X115010839Y-63317438D01*
X115010839Y-63317438D02*
X114915601Y-63269819D01*
X114915601Y-63269819D02*
X114677506Y-63269819D01*
X114677506Y-63269819D02*
X114582268Y-63317438D01*
X114582268Y-63317438D02*
X114534649Y-63365057D01*
X114534649Y-63365057D02*
X114487030Y-63460295D01*
X114487030Y-63460295D02*
X114487030Y-63555533D01*
X114487030Y-63555533D02*
X114534649Y-63698390D01*
X114534649Y-63698390D02*
X115106077Y-64269819D01*
X115106077Y-64269819D02*
X114487030Y-64269819D01*
X113629887Y-63603152D02*
X113629887Y-64269819D01*
X113867982Y-63222200D02*
X114106077Y-63936485D01*
X114106077Y-63936485D02*
X113487030Y-63936485D01*
%TO.C,G\u002A\u002A\u002A*%
G36*
X153445156Y-105416605D02*
G01*
X153428336Y-105746228D01*
X153395423Y-106076161D01*
X153346399Y-106406034D01*
X153281246Y-106735477D01*
X153250665Y-106867188D01*
X153176111Y-107149069D01*
X153091927Y-107418533D01*
X152998189Y-107675382D01*
X152894971Y-107919421D01*
X152782347Y-108150451D01*
X152660394Y-108368276D01*
X152657861Y-108372491D01*
X152625442Y-108425408D01*
X152585498Y-108489079D01*
X152539615Y-108561078D01*
X152489381Y-108638979D01*
X152436381Y-108720357D01*
X152382203Y-108802785D01*
X152328432Y-108883838D01*
X152276655Y-108961091D01*
X152228459Y-109032117D01*
X152185431Y-109094490D01*
X152141523Y-109156777D01*
X152002740Y-109344585D01*
X151861901Y-109520936D01*
X151717008Y-109687879D01*
X151566067Y-109847464D01*
X151407080Y-110001739D01*
X151238052Y-110152754D01*
X151056986Y-110302558D01*
X150861887Y-110453200D01*
X150853851Y-110459205D01*
X150583815Y-110651054D01*
X150308654Y-110827445D01*
X150028334Y-110988389D01*
X149742821Y-111133898D01*
X149452082Y-111263984D01*
X149156084Y-111378660D01*
X148854794Y-111477936D01*
X148548177Y-111561826D01*
X148236201Y-111630341D01*
X147918833Y-111683494D01*
X147596039Y-111721295D01*
X147267785Y-111743757D01*
X147209929Y-111745729D01*
X147131489Y-111747140D01*
X147043475Y-111747683D01*
X146949459Y-111747401D01*
X146853009Y-111746335D01*
X146757697Y-111744525D01*
X146667092Y-111742014D01*
X146584764Y-111738843D01*
X146514283Y-111735052D01*
X146504088Y-111734384D01*
X146435955Y-111729484D01*
X146358753Y-111723316D01*
X146275646Y-111716179D01*
X146189799Y-111708376D01*
X146104376Y-111700209D01*
X146022541Y-111691977D01*
X145947461Y-111683983D01*
X145882298Y-111676528D01*
X145830218Y-111669913D01*
X145711955Y-111652314D01*
X145544093Y-111622031D01*
X145378955Y-111585507D01*
X145212665Y-111541777D01*
X145041347Y-111489878D01*
X144861125Y-111428845D01*
X144815010Y-111412320D01*
X144505316Y-111291787D01*
X144204698Y-111157782D01*
X143912865Y-111010133D01*
X143629531Y-110848668D01*
X143354406Y-110673214D01*
X143087201Y-110483597D01*
X142827629Y-110279646D01*
X142575400Y-110061187D01*
X142536398Y-110025644D01*
X142211533Y-109719469D01*
X141891538Y-109399866D01*
X141578698Y-109069242D01*
X141275298Y-108730005D01*
X140983624Y-108384563D01*
X140888317Y-108266749D01*
X140724681Y-108057703D01*
X140556810Y-107835133D01*
X140385455Y-107600182D01*
X140211368Y-107353996D01*
X140035301Y-107097721D01*
X139858005Y-106832502D01*
X139680231Y-106559483D01*
X139502731Y-106279811D01*
X139326256Y-105994630D01*
X139151558Y-105705085D01*
X138979389Y-105412322D01*
X138946690Y-105355238D01*
X141151720Y-105355238D01*
X141151816Y-105440666D01*
X141152373Y-105524063D01*
X141153393Y-105603054D01*
X141154875Y-105675264D01*
X141156820Y-105738319D01*
X141159228Y-105789843D01*
X141162099Y-105827461D01*
X141183857Y-106013989D01*
X141222530Y-106271367D01*
X141270665Y-106519208D01*
X141328992Y-106760176D01*
X141398245Y-106996938D01*
X141479156Y-107232159D01*
X141572457Y-107468505D01*
X141678880Y-107708641D01*
X141707811Y-107769547D01*
X141810862Y-107971095D01*
X141925832Y-108175058D01*
X142050555Y-108378006D01*
X142182862Y-108576511D01*
X142320584Y-108767143D01*
X142461554Y-108946474D01*
X142466514Y-108952499D01*
X142673600Y-109191362D01*
X142890654Y-109417685D01*
X143117362Y-109631213D01*
X143353411Y-109831695D01*
X143598485Y-110018875D01*
X143852271Y-110192501D01*
X144114455Y-110352319D01*
X144384722Y-110498075D01*
X144504586Y-110557062D01*
X144762847Y-110673049D01*
X145022641Y-110774353D01*
X145285560Y-110861431D01*
X145553193Y-110934739D01*
X145827130Y-110994734D01*
X146108960Y-111041872D01*
X146400272Y-111076609D01*
X146411873Y-111077505D01*
X146444425Y-111079136D01*
X146489850Y-111080736D01*
X146546065Y-111082279D01*
X146610987Y-111083742D01*
X146682534Y-111085098D01*
X146758623Y-111086324D01*
X146837172Y-111087394D01*
X146916098Y-111088284D01*
X146993320Y-111088969D01*
X147066753Y-111089424D01*
X147134316Y-111089624D01*
X147193927Y-111089544D01*
X147243502Y-111089160D01*
X147280959Y-111088447D01*
X147304216Y-111087380D01*
X147308702Y-111087021D01*
X147334010Y-111085060D01*
X147370260Y-111082308D01*
X147413292Y-111079080D01*
X147458945Y-111075690D01*
X147520412Y-111070696D01*
X147747966Y-111044772D01*
X147981255Y-111007056D01*
X148216774Y-110958252D01*
X148451021Y-110899064D01*
X148680490Y-110830196D01*
X148812281Y-110785403D01*
X149081907Y-110681782D01*
X149348687Y-110563329D01*
X149610850Y-110431018D01*
X149866628Y-110285826D01*
X150114251Y-110128731D01*
X150351951Y-109960709D01*
X150577957Y-109782737D01*
X150733531Y-109648924D01*
X150960677Y-109436365D01*
X151175575Y-109213749D01*
X151377874Y-108981557D01*
X151567223Y-108740271D01*
X151743269Y-108490370D01*
X151905664Y-108232336D01*
X152054054Y-107966649D01*
X152188090Y-107693791D01*
X152307421Y-107414241D01*
X152405400Y-107146669D01*
X152493370Y-106860730D01*
X152565869Y-106570715D01*
X152622859Y-106277254D01*
X152664304Y-105980977D01*
X152690165Y-105682515D01*
X152700406Y-105382497D01*
X152694989Y-105081554D01*
X152673878Y-104780316D01*
X152637035Y-104479413D01*
X152584423Y-104179475D01*
X152516004Y-103881132D01*
X152437952Y-103605759D01*
X152340177Y-103317949D01*
X152227669Y-103036392D01*
X152100789Y-102761625D01*
X151959895Y-102494185D01*
X151805347Y-102234609D01*
X151637505Y-101983432D01*
X151456730Y-101741191D01*
X151263379Y-101508423D01*
X151057814Y-101285665D01*
X150840394Y-101073452D01*
X150611479Y-100872321D01*
X150371429Y-100682808D01*
X150232432Y-100581967D01*
X149977902Y-100412515D01*
X149717019Y-100257895D01*
X149450095Y-100118225D01*
X149177440Y-99993624D01*
X148899365Y-99884208D01*
X148616182Y-99790097D01*
X148328201Y-99711408D01*
X148035734Y-99648260D01*
X147739092Y-99600770D01*
X147438586Y-99569057D01*
X147397484Y-99566094D01*
X147280969Y-99560052D01*
X147153262Y-99556373D01*
X147017910Y-99555016D01*
X146878460Y-99555941D01*
X146738461Y-99559106D01*
X146601461Y-99564471D01*
X146471007Y-99571994D01*
X146350648Y-99581634D01*
X146153781Y-99603602D01*
X145856942Y-99650185D01*
X145563174Y-99712483D01*
X145273229Y-99790223D01*
X144987856Y-99883132D01*
X144707807Y-99990933D01*
X144433833Y-100113354D01*
X144166684Y-100250120D01*
X143907112Y-100400957D01*
X143655867Y-100565591D01*
X143603541Y-100602363D01*
X143358621Y-100786413D01*
X143124424Y-100982496D01*
X142901332Y-101190107D01*
X142689725Y-101408740D01*
X142489983Y-101637888D01*
X142302486Y-101877045D01*
X142127615Y-102125705D01*
X141965750Y-102383361D01*
X141817271Y-102649507D01*
X141682560Y-102923637D01*
X141561995Y-103205244D01*
X141455959Y-103493823D01*
X141455836Y-103494187D01*
X141383829Y-103721672D01*
X141321876Y-103948918D01*
X141269359Y-104178920D01*
X141225661Y-104414668D01*
X141190162Y-104659155D01*
X141162244Y-104915374D01*
X141160822Y-104933023D01*
X141158155Y-104980761D01*
X141155948Y-105040718D01*
X141154200Y-105110519D01*
X141152913Y-105187790D01*
X141152086Y-105270154D01*
X141151720Y-105355238D01*
X138946690Y-105355238D01*
X138810500Y-105117486D01*
X138645642Y-104821722D01*
X138570987Y-104684777D01*
X138477419Y-104510312D01*
X138381297Y-104328221D01*
X138283519Y-104140310D01*
X138184983Y-103948386D01*
X138086587Y-103754258D01*
X137989229Y-103559732D01*
X137893806Y-103366615D01*
X137801217Y-103176715D01*
X137712358Y-102991840D01*
X137628128Y-102813796D01*
X137549425Y-102644391D01*
X137477147Y-102485432D01*
X137412191Y-102338727D01*
X137408884Y-102331022D01*
X137395840Y-102299160D01*
X137380127Y-102259106D01*
X137362593Y-102213200D01*
X137344089Y-102163781D01*
X137325464Y-102113191D01*
X137307568Y-102063769D01*
X137291250Y-102017855D01*
X137277360Y-101977790D01*
X137266747Y-101945914D01*
X137260262Y-101924567D01*
X137258753Y-101916089D01*
X137260948Y-101915994D01*
X137273926Y-101920476D01*
X137293941Y-101929840D01*
X137299508Y-101932988D01*
X137314780Y-101944617D01*
X137332947Y-101962886D01*
X137355522Y-101989538D01*
X137384018Y-102026314D01*
X137419948Y-102074958D01*
X137444320Y-102108199D01*
X137581043Y-102285634D01*
X137719401Y-102449420D01*
X137861554Y-102601774D01*
X138009659Y-102744914D01*
X138165875Y-102881057D01*
X138332360Y-103012421D01*
X138377363Y-103045851D01*
X138491800Y-103127261D01*
X138610115Y-103206707D01*
X138730327Y-103283052D01*
X138850454Y-103355164D01*
X138968514Y-103421908D01*
X139082526Y-103482148D01*
X139190508Y-103534751D01*
X139290479Y-103578582D01*
X139380458Y-103612507D01*
X139418711Y-103625112D01*
X139498532Y-103649349D01*
X139579828Y-103671556D01*
X139659811Y-103691115D01*
X139735697Y-103707406D01*
X139804700Y-103719809D01*
X139864034Y-103727705D01*
X139910913Y-103730475D01*
X139929353Y-103729812D01*
X139988430Y-103718212D01*
X140041061Y-103693202D01*
X140084948Y-103656141D01*
X140117788Y-103608385D01*
X140128467Y-103580827D01*
X140136452Y-103528680D01*
X140132793Y-103470279D01*
X140117493Y-103408801D01*
X140093672Y-103346584D01*
X140055761Y-103264348D01*
X140010833Y-103180667D01*
X139961584Y-103100868D01*
X139948508Y-103082235D01*
X139913707Y-103038003D01*
X139867651Y-102984547D01*
X139811156Y-102922685D01*
X139745041Y-102853231D01*
X139670126Y-102777004D01*
X139587228Y-102694819D01*
X139497165Y-102607492D01*
X139400757Y-102515840D01*
X139298822Y-102420681D01*
X139192178Y-102322829D01*
X139081644Y-102223101D01*
X139040100Y-102185903D01*
X138962275Y-102116011D01*
X138892491Y-102052977D01*
X138827925Y-101994204D01*
X138765758Y-101937094D01*
X138703169Y-101879049D01*
X138637336Y-101817472D01*
X138565439Y-101749765D01*
X138484658Y-101673330D01*
X138441518Y-101632072D01*
X138388602Y-101580828D01*
X138328068Y-101521721D01*
X138261400Y-101456229D01*
X138190080Y-101385832D01*
X138115591Y-101312011D01*
X138039416Y-101236245D01*
X137963036Y-101160014D01*
X137887936Y-101084798D01*
X137815598Y-101012077D01*
X137747504Y-100943330D01*
X137685137Y-100880038D01*
X137629980Y-100823681D01*
X137583515Y-100775738D01*
X137547226Y-100737689D01*
X137416512Y-100594357D01*
X137264990Y-100417375D01*
X137115437Y-100231477D01*
X136970767Y-100040408D01*
X136833892Y-99847917D01*
X136707725Y-99657750D01*
X136665344Y-99590056D01*
X136565414Y-99417843D01*
X136479687Y-99249714D01*
X136407541Y-99084156D01*
X136348349Y-98919655D01*
X136301488Y-98754698D01*
X136266333Y-98587769D01*
X136257618Y-98537654D01*
X136249818Y-98491453D01*
X136244573Y-98458009D01*
X136241657Y-98435554D01*
X136240848Y-98422320D01*
X136241921Y-98416538D01*
X136244653Y-98416440D01*
X136244742Y-98416500D01*
X136251243Y-98425278D01*
X136263639Y-98445389D01*
X136280183Y-98473899D01*
X136299130Y-98507880D01*
X136358246Y-98610105D01*
X136465619Y-98773253D01*
X136587836Y-98934677D01*
X136724008Y-99093230D01*
X136873247Y-99247769D01*
X136887529Y-99261684D01*
X136991447Y-99359181D01*
X137098371Y-99452695D01*
X137210752Y-99544161D01*
X137331041Y-99635514D01*
X137461689Y-99728689D01*
X137605146Y-99825620D01*
X137723658Y-99903041D01*
X137847006Y-99981488D01*
X137960376Y-100050956D01*
X138065164Y-100112153D01*
X138162766Y-100165786D01*
X138254576Y-100212565D01*
X138341991Y-100253195D01*
X138426407Y-100288384D01*
X138509218Y-100318841D01*
X138591820Y-100345273D01*
X138675609Y-100368387D01*
X138721657Y-100379148D01*
X138820807Y-100394557D01*
X138910608Y-100397045D01*
X138990899Y-100386677D01*
X139061522Y-100363515D01*
X139122317Y-100327621D01*
X139173124Y-100279059D01*
X139213785Y-100217891D01*
X139244139Y-100144181D01*
X139246830Y-100135432D01*
X139252742Y-100113457D01*
X139256943Y-100091218D01*
X139259709Y-100065511D01*
X139261318Y-100033132D01*
X139262045Y-99990876D01*
X139262168Y-99935541D01*
X139261739Y-99887407D01*
X139259311Y-99823545D01*
X139253995Y-99767578D01*
X139244952Y-99714994D01*
X139231339Y-99661283D01*
X139212318Y-99601933D01*
X139187046Y-99532431D01*
X139183205Y-99522308D01*
X139106568Y-99343369D01*
X139015341Y-99169911D01*
X138909053Y-99001113D01*
X138787231Y-98836150D01*
X138772872Y-98818650D01*
X138736411Y-98777055D01*
X138691105Y-98728037D01*
X138639188Y-98673826D01*
X138582894Y-98616650D01*
X138524460Y-98558738D01*
X138466121Y-98502319D01*
X138410110Y-98449620D01*
X138358665Y-98402872D01*
X138314018Y-98364301D01*
X138208576Y-98278926D01*
X138053717Y-98163004D01*
X137898443Y-98058541D01*
X137739234Y-97963213D01*
X137572571Y-97874696D01*
X137555782Y-97866322D01*
X137512066Y-97844871D01*
X137469882Y-97824835D01*
X137427542Y-97805532D01*
X137383355Y-97786281D01*
X137335630Y-97766402D01*
X137282679Y-97745213D01*
X137222810Y-97722033D01*
X137154334Y-97696182D01*
X137075561Y-97666978D01*
X136984800Y-97633740D01*
X136880362Y-97595788D01*
X136838646Y-97580660D01*
X136698367Y-97529653D01*
X136561719Y-97479767D01*
X136429767Y-97431397D01*
X136303575Y-97384940D01*
X136184207Y-97340792D01*
X136072727Y-97299350D01*
X135970199Y-97261011D01*
X135877688Y-97226169D01*
X135796258Y-97195222D01*
X135726972Y-97168567D01*
X135670896Y-97146599D01*
X135629093Y-97129716D01*
X135526503Y-97085634D01*
X135337815Y-96996368D01*
X135151545Y-96897904D01*
X134969675Y-96791545D01*
X134794186Y-96678592D01*
X134627060Y-96560351D01*
X134470277Y-96438123D01*
X134325818Y-96313211D01*
X134195665Y-96186920D01*
X134159259Y-96148651D01*
X134076742Y-96057336D01*
X133998798Y-95964790D01*
X133927578Y-95873716D01*
X133865229Y-95786816D01*
X133813902Y-95706794D01*
X133798870Y-95680226D01*
X133774603Y-95631751D01*
X133752881Y-95581799D01*
X133735204Y-95534205D01*
X133723070Y-95492807D01*
X133717981Y-95461439D01*
X133717600Y-95450513D01*
X133719147Y-95434746D01*
X133727180Y-95428101D01*
X133745522Y-95425605D01*
X133758389Y-95424951D01*
X133774752Y-95426278D01*
X133791845Y-95431318D01*
X133812096Y-95441324D01*
X133837933Y-95457550D01*
X133871785Y-95481249D01*
X133916079Y-95513676D01*
X133934954Y-95527576D01*
X134019380Y-95588342D01*
X134106357Y-95648570D01*
X134197404Y-95709203D01*
X134294038Y-95771185D01*
X134397779Y-95835462D01*
X134510145Y-95902977D01*
X134632655Y-95974675D01*
X134766826Y-96051500D01*
X134914177Y-96134396D01*
X135015497Y-96190539D01*
X135106004Y-96239623D01*
X135186415Y-96281852D01*
X135258622Y-96318086D01*
X135324514Y-96349183D01*
X135385981Y-96376004D01*
X135444912Y-96399406D01*
X135503199Y-96420250D01*
X135562731Y-96439395D01*
X135625397Y-96457698D01*
X135636146Y-96460696D01*
X135688307Y-96474735D01*
X135737294Y-96486796D01*
X135784726Y-96496993D01*
X135832225Y-96505441D01*
X135881413Y-96512254D01*
X135933909Y-96517547D01*
X135991335Y-96521434D01*
X136055311Y-96524030D01*
X136127460Y-96525450D01*
X136209400Y-96525808D01*
X136302754Y-96525219D01*
X136409142Y-96523798D01*
X136530186Y-96521658D01*
X136576945Y-96520783D01*
X136664745Y-96519238D01*
X136749492Y-96517868D01*
X136829296Y-96516694D01*
X136902268Y-96515743D01*
X136966517Y-96515037D01*
X137020153Y-96514600D01*
X137061286Y-96514456D01*
X137088025Y-96514629D01*
X137095150Y-96514772D01*
X137260869Y-96526365D01*
X137427701Y-96553573D01*
X137594027Y-96595988D01*
X137758225Y-96653198D01*
X137918676Y-96724795D01*
X137936583Y-96733861D01*
X138006782Y-96771690D01*
X138087999Y-96818511D01*
X138178880Y-96873452D01*
X138278067Y-96935641D01*
X138384204Y-97004204D01*
X138495934Y-97078269D01*
X138611902Y-97156964D01*
X138730750Y-97239414D01*
X138851122Y-97324748D01*
X138922369Y-97376093D01*
X139041845Y-97463754D01*
X139152992Y-97547578D01*
X139259489Y-97630401D01*
X139365013Y-97715058D01*
X139473241Y-97804385D01*
X139499749Y-97826443D01*
X139585184Y-97895882D01*
X139661194Y-97954550D01*
X139729240Y-98003187D01*
X139790783Y-98042534D01*
X139847282Y-98073333D01*
X139900199Y-98096323D01*
X139950992Y-98112247D01*
X140001124Y-98121844D01*
X140052054Y-98125856D01*
X140105242Y-98125023D01*
X140117231Y-98124246D01*
X140206693Y-98110702D01*
X140290585Y-98084659D01*
X140367720Y-98047381D01*
X140436912Y-98000132D01*
X140496974Y-97944176D01*
X140546720Y-97880776D01*
X140584963Y-97811195D01*
X140610518Y-97736698D01*
X140622196Y-97658548D01*
X140618813Y-97578009D01*
X140600746Y-97492458D01*
X140568410Y-97397199D01*
X140522741Y-97295839D01*
X140464284Y-97189138D01*
X140393584Y-97077858D01*
X140311188Y-96962759D01*
X140217640Y-96844602D01*
X140113487Y-96724148D01*
X139999273Y-96602157D01*
X139875546Y-96479391D01*
X139742850Y-96356611D01*
X139742595Y-96356383D01*
X139705449Y-96323501D01*
X139659249Y-96283140D01*
X139605773Y-96236813D01*
X139546801Y-96186032D01*
X139484113Y-96132311D01*
X139419489Y-96077162D01*
X139354708Y-96022098D01*
X139291551Y-95968632D01*
X139231796Y-95918276D01*
X139177224Y-95872543D01*
X139129615Y-95832947D01*
X139090747Y-95801000D01*
X139062401Y-95778215D01*
X139053031Y-95770644D01*
X139014207Y-95732750D01*
X138987260Y-95692706D01*
X138963858Y-95647916D01*
X138990962Y-95645547D01*
X139012105Y-95646363D01*
X139048096Y-95652270D01*
X139093780Y-95662732D01*
X139146250Y-95676956D01*
X139202599Y-95694147D01*
X139259922Y-95713508D01*
X139315309Y-95734246D01*
X139421738Y-95778725D01*
X139621426Y-95874981D01*
X139817358Y-95986238D01*
X140008205Y-96111715D01*
X140192640Y-96250629D01*
X140242727Y-96291941D01*
X140314205Y-96353522D01*
X140395847Y-96426323D01*
X140487196Y-96509901D01*
X140587798Y-96603813D01*
X140697197Y-96707613D01*
X140814937Y-96820860D01*
X140940564Y-96943108D01*
X141073621Y-97073915D01*
X141213654Y-97212837D01*
X141360206Y-97359430D01*
X141512823Y-97513251D01*
X141671048Y-97673856D01*
X141834428Y-97840801D01*
X142002505Y-98013643D01*
X142029626Y-98041595D01*
X142104605Y-98118541D01*
X142169559Y-98184588D01*
X142225311Y-98240486D01*
X142272686Y-98286991D01*
X142312504Y-98324852D01*
X142345590Y-98354825D01*
X142372767Y-98377660D01*
X142394856Y-98394110D01*
X142412681Y-98404929D01*
X142427066Y-98410868D01*
X142438832Y-98412681D01*
X142456565Y-98410672D01*
X142485682Y-98398850D01*
X142506127Y-98379462D01*
X142510327Y-98371342D01*
X142518906Y-98337566D01*
X142521831Y-98289978D01*
X142519177Y-98229643D01*
X142511019Y-98157626D01*
X142497429Y-98074992D01*
X142478483Y-97982807D01*
X142432493Y-97800413D01*
X142360616Y-97573024D01*
X142272645Y-97345621D01*
X142168683Y-97118444D01*
X142048835Y-96891737D01*
X141913203Y-96665739D01*
X141829258Y-96536130D01*
X141663007Y-96293207D01*
X141494888Y-96065800D01*
X141324470Y-95853428D01*
X141151323Y-95655613D01*
X140975017Y-95471871D01*
X140795122Y-95301724D01*
X140611207Y-95144690D01*
X140422844Y-95000288D01*
X140419734Y-94998033D01*
X140351003Y-94947748D01*
X140294767Y-94905542D01*
X140249998Y-94870516D01*
X140215671Y-94841768D01*
X140190759Y-94818398D01*
X140174235Y-94799505D01*
X140165073Y-94784187D01*
X140162247Y-94771544D01*
X140162652Y-94755958D01*
X140166434Y-94738439D01*
X140176873Y-94728705D01*
X140197168Y-94724512D01*
X140230517Y-94723614D01*
X140270562Y-94724385D01*
X140396210Y-94735893D01*
X140525348Y-94760421D01*
X140654800Y-94796973D01*
X140781386Y-94844554D01*
X140901928Y-94902168D01*
X141013246Y-94968818D01*
X141013261Y-94968828D01*
X141049498Y-94993897D01*
X141089691Y-95023227D01*
X141134335Y-95057248D01*
X141183924Y-95096392D01*
X141238951Y-95141090D01*
X141299913Y-95191772D01*
X141367303Y-95248869D01*
X141441615Y-95312812D01*
X141523345Y-95384033D01*
X141612987Y-95462961D01*
X141711035Y-95550028D01*
X141817983Y-95645665D01*
X141934327Y-95750303D01*
X142060560Y-95864372D01*
X142197177Y-95988303D01*
X142344673Y-96122528D01*
X142503543Y-96267477D01*
X142515379Y-96278286D01*
X142673290Y-96421837D01*
X142821792Y-96555486D01*
X142962780Y-96680806D01*
X143098151Y-96799371D01*
X143229801Y-96912755D01*
X143359626Y-97022532D01*
X143489522Y-97130276D01*
X143621386Y-97237561D01*
X143757113Y-97345961D01*
X143898599Y-97457049D01*
X144047742Y-97572399D01*
X144206436Y-97693586D01*
X144376579Y-97822183D01*
X144386972Y-97829998D01*
X144514217Y-97924446D01*
X144631524Y-98008951D01*
X144740706Y-98084608D01*
X144843578Y-98152515D01*
X144941956Y-98213768D01*
X145037654Y-98269463D01*
X145132486Y-98320697D01*
X145228268Y-98368565D01*
X145326814Y-98414165D01*
X145429939Y-98458593D01*
X145551004Y-98506756D01*
X145698669Y-98558995D01*
X145840776Y-98601981D01*
X145976339Y-98635538D01*
X146104373Y-98659486D01*
X146223894Y-98673649D01*
X146333917Y-98677848D01*
X146433456Y-98671906D01*
X146521526Y-98655645D01*
X146545772Y-98648684D01*
X146614070Y-98622471D01*
X146677280Y-98588756D01*
X146732601Y-98549433D01*
X146777234Y-98506398D01*
X146808380Y-98461543D01*
X146812826Y-98451911D01*
X146824152Y-98409693D01*
X146827998Y-98359971D01*
X146824244Y-98308260D01*
X146812771Y-98260074D01*
X146789766Y-98207720D01*
X146750153Y-98144707D01*
X146700088Y-98084385D01*
X146642513Y-98030228D01*
X146580371Y-97985710D01*
X146570284Y-97979568D01*
X146560243Y-97973569D01*
X146550066Y-97967845D01*
X146538850Y-97962087D01*
X146525688Y-97955989D01*
X146509678Y-97949241D01*
X146489913Y-97941536D01*
X146465491Y-97932565D01*
X146435506Y-97922021D01*
X146399053Y-97909595D01*
X146355229Y-97894979D01*
X146303128Y-97877866D01*
X146241846Y-97857946D01*
X146170478Y-97834912D01*
X146088121Y-97808456D01*
X145993868Y-97778270D01*
X145886817Y-97744046D01*
X145766062Y-97705475D01*
X145630699Y-97662249D01*
X145563767Y-97640573D01*
X145437471Y-97597567D01*
X145324470Y-97555691D01*
X145222897Y-97513923D01*
X145130885Y-97471239D01*
X145046567Y-97426618D01*
X144968079Y-97379037D01*
X144893553Y-97327472D01*
X144821123Y-97270902D01*
X144748922Y-97208305D01*
X144675085Y-97138656D01*
X144650169Y-97114085D01*
X144598954Y-97061394D01*
X144557764Y-97015093D01*
X144524577Y-96972675D01*
X144497369Y-96931632D01*
X144474119Y-96889456D01*
X144473056Y-96887321D01*
X144461131Y-96860969D01*
X144447516Y-96827520D01*
X144433319Y-96790147D01*
X144419648Y-96752023D01*
X144407612Y-96716322D01*
X144398319Y-96686216D01*
X144392877Y-96664879D01*
X144392395Y-96655484D01*
X144400072Y-96653463D01*
X144419810Y-96660404D01*
X144449163Y-96678343D01*
X144487269Y-96706731D01*
X144533267Y-96745021D01*
X144575616Y-96781083D01*
X144736475Y-96906597D01*
X144905874Y-97021064D01*
X145085287Y-97125358D01*
X145276185Y-97220353D01*
X145480041Y-97306922D01*
X145494075Y-97312374D01*
X145559232Y-97336588D01*
X145633644Y-97362549D01*
X145718624Y-97390682D01*
X145815484Y-97421416D01*
X145925537Y-97455177D01*
X146050096Y-97492392D01*
X146441236Y-97614443D01*
X146877493Y-97766247D01*
X147307960Y-97932936D01*
X147733132Y-98114721D01*
X148153502Y-98311816D01*
X148569562Y-98524431D01*
X148981805Y-98752778D01*
X149292293Y-98937142D01*
X149653662Y-99165828D01*
X150012071Y-99407712D01*
X150365189Y-99661163D01*
X150710682Y-99924551D01*
X151046216Y-100196244D01*
X151174233Y-100305598D01*
X151402989Y-100514591D01*
X151619714Y-100731264D01*
X151825273Y-100956685D01*
X152020535Y-101191923D01*
X152206368Y-101438046D01*
X152383638Y-101696122D01*
X152553213Y-101967219D01*
X152715961Y-102252405D01*
X152744270Y-102304682D01*
X152823106Y-102455204D01*
X152893060Y-102597135D01*
X152955402Y-102733327D01*
X153011401Y-102866632D01*
X153062329Y-102999902D01*
X153109456Y-103135990D01*
X153113754Y-103149070D01*
X153209095Y-103466143D01*
X153288466Y-103786120D01*
X153351850Y-104108631D01*
X153399228Y-104433306D01*
X153430584Y-104759774D01*
X153445899Y-105087664D01*
X153445233Y-105382497D01*
X153445156Y-105416605D01*
G37*
G36*
X149371612Y-101714832D02*
G01*
X149541838Y-101834996D01*
X149706980Y-101965302D01*
X149869742Y-102107704D01*
X150032832Y-102264154D01*
X150037425Y-102268751D01*
X150089126Y-102321834D01*
X150145693Y-102379914D01*
X150243185Y-102486132D01*
X150332821Y-102590947D01*
X150417523Y-102697902D01*
X150500210Y-102810538D01*
X150583804Y-102932399D01*
X150675789Y-103077272D01*
X150796829Y-103291127D01*
X150906453Y-103513543D01*
X151003243Y-103741580D01*
X151085783Y-103972303D01*
X151130320Y-104118921D01*
X151180277Y-104318698D01*
X151192951Y-104369381D01*
X151240046Y-104623712D01*
X151271611Y-104881292D01*
X151287652Y-105141502D01*
X151287991Y-105310842D01*
X151288177Y-105403722D01*
X151273190Y-105667331D01*
X151242698Y-105931710D01*
X151205538Y-106145449D01*
X151196708Y-106196238D01*
X151161586Y-106347080D01*
X151135225Y-106460295D01*
X151058256Y-106723261D01*
X150980336Y-106943392D01*
X150879371Y-107183028D01*
X150764148Y-107415485D01*
X150635098Y-107640224D01*
X150492655Y-107856703D01*
X150337251Y-108064384D01*
X150169319Y-108262726D01*
X150074049Y-108362461D01*
X149989293Y-108451189D01*
X149797604Y-108629233D01*
X149594686Y-108796319D01*
X149380971Y-108951905D01*
X149250247Y-109035649D01*
X149156893Y-109095453D01*
X149142216Y-109104164D01*
X149069862Y-109145200D01*
X148987354Y-109189447D01*
X148898686Y-109234931D01*
X148807851Y-109279675D01*
X148718841Y-109321703D01*
X148635650Y-109359039D01*
X148562271Y-109389707D01*
X148534223Y-109400746D01*
X148305554Y-109482824D01*
X148075398Y-109551130D01*
X147841791Y-109606073D01*
X147602769Y-109648063D01*
X147356369Y-109677510D01*
X147100625Y-109694824D01*
X147098365Y-109694916D01*
X147069547Y-109695525D01*
X147028501Y-109695729D01*
X146978881Y-109695542D01*
X146924340Y-109694975D01*
X146868531Y-109694042D01*
X146790236Y-109691866D01*
X146522018Y-109675167D01*
X146259411Y-109644371D01*
X146003009Y-109599632D01*
X145753407Y-109541102D01*
X145511202Y-109468935D01*
X145276988Y-109383283D01*
X145051359Y-109284299D01*
X144834912Y-109172134D01*
X144668992Y-109074579D01*
X144581038Y-109016889D01*
X145840018Y-109016889D01*
X145845078Y-109038573D01*
X145850226Y-109053615D01*
X145857815Y-109068127D01*
X145868899Y-109080356D01*
X145885270Y-109091036D01*
X145908719Y-109100904D01*
X145941037Y-109110693D01*
X145984015Y-109121140D01*
X146039445Y-109132978D01*
X146109117Y-109146945D01*
X146141179Y-109153248D01*
X146231852Y-109170709D01*
X146310094Y-109185064D01*
X146378519Y-109196691D01*
X146439744Y-109205966D01*
X146496383Y-109213268D01*
X146551052Y-109218973D01*
X146606366Y-109223458D01*
X146664940Y-109227100D01*
X146667745Y-109227254D01*
X146800691Y-109233501D01*
X146920899Y-109236780D01*
X147031621Y-109236871D01*
X147136107Y-109233550D01*
X147237610Y-109226598D01*
X147339381Y-109215792D01*
X147444673Y-109200911D01*
X147556736Y-109181733D01*
X147678823Y-109158037D01*
X147743933Y-109144723D01*
X147806271Y-109131640D01*
X147855906Y-109120660D01*
X147894611Y-109111279D01*
X147924159Y-109102994D01*
X147946323Y-109095301D01*
X147962877Y-109087696D01*
X147975593Y-109079676D01*
X147986245Y-109070738D01*
X147987199Y-109069833D01*
X147995593Y-109060225D01*
X148001367Y-109049153D01*
X148004089Y-109035649D01*
X148003327Y-109018745D01*
X147998649Y-108997474D01*
X147989623Y-108970866D01*
X147975815Y-108937953D01*
X147956795Y-108897768D01*
X147932130Y-108849342D01*
X147901387Y-108791707D01*
X147864134Y-108723894D01*
X147819940Y-108644936D01*
X147768371Y-108553865D01*
X147708996Y-108449712D01*
X147677003Y-108393768D01*
X147583959Y-108231797D01*
X147497837Y-108083020D01*
X147418711Y-107947556D01*
X147346651Y-107825525D01*
X147281731Y-107717046D01*
X147224022Y-107622236D01*
X147173595Y-107541214D01*
X147130524Y-107474101D01*
X147094881Y-107421013D01*
X147066736Y-107382070D01*
X147046164Y-107357391D01*
X147035990Y-107347158D01*
X146992575Y-107312636D01*
X146949593Y-107293739D01*
X146906669Y-107290561D01*
X146863430Y-107303195D01*
X146819501Y-107331735D01*
X146774508Y-107376274D01*
X146728079Y-107436906D01*
X146722387Y-107445450D01*
X146705210Y-107472661D01*
X146681432Y-107511581D01*
X146651727Y-107561037D01*
X146616769Y-107619859D01*
X146577233Y-107686876D01*
X146533793Y-107760916D01*
X146487123Y-107840810D01*
X146437897Y-107925385D01*
X146386789Y-108013471D01*
X146334475Y-108103898D01*
X146281628Y-108195493D01*
X146228922Y-108287086D01*
X146177032Y-108377506D01*
X146126631Y-108465582D01*
X146078394Y-108550144D01*
X146032996Y-108630019D01*
X145991111Y-108704038D01*
X145953412Y-108771029D01*
X145920574Y-108829821D01*
X145893272Y-108879243D01*
X145872179Y-108918124D01*
X145857970Y-108945294D01*
X145851319Y-108959582D01*
X145846524Y-108973566D01*
X145840314Y-108997566D01*
X145840018Y-109016889D01*
X144581038Y-109016889D01*
X144446213Y-108928456D01*
X144234053Y-108771233D01*
X144032890Y-108603456D01*
X143843103Y-108425672D01*
X143784805Y-108364357D01*
X144560947Y-108364357D01*
X144569187Y-108402538D01*
X144589526Y-108439620D01*
X144622731Y-108477354D01*
X144669575Y-108517492D01*
X144730827Y-108561786D01*
X144780592Y-108594813D01*
X144841479Y-108633290D01*
X144907274Y-108673237D01*
X144975907Y-108713514D01*
X145045309Y-108752984D01*
X145113409Y-108790506D01*
X145178139Y-108824943D01*
X145237428Y-108855156D01*
X145289208Y-108880006D01*
X145331408Y-108898354D01*
X145361959Y-108909061D01*
X145395657Y-108915428D01*
X145443435Y-108913114D01*
X145487219Y-108895799D01*
X145527897Y-108863072D01*
X145566357Y-108814523D01*
X145572081Y-108805311D01*
X145587232Y-108777884D01*
X145607849Y-108737598D01*
X145634042Y-108684222D01*
X145665919Y-108617521D01*
X145703590Y-108537263D01*
X145747164Y-108443214D01*
X145796749Y-108335141D01*
X145852456Y-108212811D01*
X145914392Y-108075991D01*
X145982667Y-107924447D01*
X146016174Y-107849886D01*
X146058564Y-107755278D01*
X146095011Y-107673281D01*
X146125966Y-107602583D01*
X146151878Y-107541874D01*
X146173197Y-107489841D01*
X146190372Y-107445173D01*
X146203854Y-107406559D01*
X146214092Y-107372687D01*
X146221535Y-107342245D01*
X146226634Y-107313922D01*
X146229838Y-107286407D01*
X146231596Y-107258388D01*
X146232359Y-107228554D01*
X146232410Y-107220816D01*
X147598590Y-107220816D01*
X147600228Y-107263403D01*
X147604533Y-107296285D01*
X147608204Y-107308473D01*
X147618337Y-107336172D01*
X147634086Y-107376415D01*
X147654886Y-107427901D01*
X147680175Y-107489327D01*
X147709388Y-107559393D01*
X147741962Y-107636795D01*
X147777333Y-107720233D01*
X147814938Y-107808405D01*
X147854213Y-107900008D01*
X147894594Y-107993742D01*
X147935518Y-108088304D01*
X147976422Y-108182392D01*
X148016740Y-108274706D01*
X148055911Y-108363943D01*
X148093370Y-108448801D01*
X148128553Y-108527979D01*
X148160898Y-108600174D01*
X148189840Y-108664086D01*
X148214815Y-108718413D01*
X148235261Y-108761851D01*
X148250613Y-108793101D01*
X148260308Y-108810860D01*
X148266817Y-108820721D01*
X148296652Y-108857814D01*
X148329256Y-108887919D01*
X148360345Y-108906919D01*
X148369493Y-108910385D01*
X148394663Y-108916327D01*
X148422769Y-108917467D01*
X148454995Y-108913344D01*
X148492528Y-108903495D01*
X148536551Y-108887458D01*
X148588251Y-108864772D01*
X148648811Y-108834974D01*
X148719418Y-108797602D01*
X148801256Y-108752195D01*
X148895511Y-108698290D01*
X148960204Y-108660705D01*
X149028707Y-108620238D01*
X149085353Y-108585722D01*
X149131503Y-108556151D01*
X149168520Y-108530520D01*
X149197768Y-108507824D01*
X149220608Y-108487058D01*
X149238403Y-108467218D01*
X149252517Y-108447297D01*
X149264311Y-108426293D01*
X149271682Y-108410840D01*
X149279548Y-108387637D01*
X149282494Y-108362461D01*
X149281779Y-108328242D01*
X149280605Y-108311059D01*
X149275626Y-108278534D01*
X149265633Y-108247714D01*
X149248483Y-108211060D01*
X149240323Y-108197121D01*
X149222527Y-108169708D01*
X149196815Y-108131741D01*
X149164151Y-108084591D01*
X149125501Y-108029630D01*
X149081830Y-107968228D01*
X149034102Y-107901756D01*
X148983283Y-107831586D01*
X148930339Y-107759088D01*
X148903465Y-107722430D01*
X148845373Y-107643094D01*
X148786574Y-107562679D01*
X148728547Y-107483215D01*
X148672772Y-107406730D01*
X148620727Y-107335253D01*
X148573891Y-107270814D01*
X148533743Y-107215440D01*
X148501763Y-107171161D01*
X148493951Y-107160324D01*
X148457263Y-107109750D01*
X148422741Y-107062654D01*
X148391844Y-107020993D01*
X148366031Y-106986722D01*
X148346759Y-106961798D01*
X148335487Y-106948177D01*
X148311417Y-106925441D01*
X148263248Y-106890623D01*
X148207011Y-106859735D01*
X148147721Y-106835780D01*
X148146647Y-106835427D01*
X148116075Y-106826108D01*
X148088565Y-106819881D01*
X148059284Y-106816119D01*
X148023396Y-106814192D01*
X147976066Y-106813472D01*
X147936159Y-106813381D01*
X147903356Y-106814064D01*
X147879402Y-106816147D01*
X147860368Y-106820218D01*
X147842323Y-106826869D01*
X147821337Y-106836687D01*
X147776675Y-106863471D01*
X147722781Y-106909824D01*
X147675380Y-106966769D01*
X147637478Y-107031128D01*
X147631202Y-107044361D01*
X147616812Y-107077645D01*
X147607992Y-107106083D01*
X147602921Y-107136705D01*
X147599774Y-107176539D01*
X147599376Y-107191408D01*
X147598590Y-107220816D01*
X146232410Y-107220816D01*
X146232576Y-107195592D01*
X146232585Y-107191408D01*
X146232259Y-107146165D01*
X146230775Y-107112838D01*
X146227654Y-107087390D01*
X146222417Y-107065778D01*
X146214584Y-107043964D01*
X146183705Y-106982107D01*
X146137650Y-106921971D01*
X146080678Y-106873620D01*
X146013297Y-106837389D01*
X145936012Y-106813613D01*
X145849329Y-106802624D01*
X145843771Y-106802359D01*
X145802063Y-106801234D01*
X145769848Y-106802720D01*
X145741130Y-106807384D01*
X145709909Y-106815793D01*
X145659288Y-106834992D01*
X145601829Y-106868177D01*
X145547082Y-106913727D01*
X145492468Y-106973510D01*
X145479668Y-106989663D01*
X145456069Y-107020705D01*
X145425320Y-107062076D01*
X145388256Y-107112598D01*
X145345710Y-107171096D01*
X145298515Y-107236391D01*
X145247507Y-107307308D01*
X145193517Y-107382668D01*
X145137381Y-107461296D01*
X145079932Y-107542014D01*
X145022003Y-107623644D01*
X144964429Y-107705011D01*
X144908043Y-107784936D01*
X144853679Y-107862244D01*
X144802171Y-107935756D01*
X144754353Y-108004297D01*
X144711058Y-108066688D01*
X144673120Y-108121754D01*
X144641372Y-108168316D01*
X144616650Y-108205198D01*
X144599786Y-108231224D01*
X144591614Y-108245215D01*
X144577676Y-108277690D01*
X144564033Y-108323325D01*
X144560947Y-108364357D01*
X143784805Y-108364357D01*
X143665070Y-108238427D01*
X143499169Y-108042268D01*
X143345780Y-107837742D01*
X143205280Y-107625395D01*
X143078049Y-107405774D01*
X142964465Y-107179426D01*
X142864906Y-106946897D01*
X142779751Y-106708733D01*
X142709379Y-106465482D01*
X142676528Y-106318046D01*
X143151712Y-106318046D01*
X143153569Y-106356510D01*
X143155558Y-106383560D01*
X143159874Y-106424491D01*
X143166168Y-106462172D01*
X143175374Y-106500228D01*
X143188424Y-106542283D01*
X143206248Y-106591962D01*
X143229780Y-106652889D01*
X143244626Y-106690260D01*
X143332139Y-106898116D01*
X143422353Y-107091173D01*
X143515949Y-107270605D01*
X143613606Y-107437588D01*
X143716005Y-107593296D01*
X143823826Y-107738904D01*
X143937749Y-107875586D01*
X143995047Y-107938987D01*
X144058989Y-108005539D01*
X144115023Y-108058652D01*
X144163432Y-108098605D01*
X144171590Y-108104455D01*
X144209199Y-108123777D01*
X144242847Y-108127436D01*
X144272808Y-108115476D01*
X144276648Y-108112565D01*
X144285694Y-108104106D01*
X144296434Y-108091779D01*
X144309447Y-108074650D01*
X144325317Y-108051787D01*
X144344625Y-108022256D01*
X144367952Y-107985123D01*
X144395880Y-107939456D01*
X144428991Y-107884319D01*
X144467866Y-107818781D01*
X144513087Y-107741908D01*
X144565236Y-107652766D01*
X144624894Y-107550422D01*
X144692640Y-107433979D01*
X144775599Y-107291147D01*
X144850628Y-107161661D01*
X144917942Y-107045144D01*
X144977756Y-106941215D01*
X145030285Y-106849498D01*
X145075744Y-106769612D01*
X145114349Y-106701181D01*
X145146316Y-106643825D01*
X145171858Y-106597165D01*
X145191191Y-106560824D01*
X145204531Y-106534423D01*
X145212092Y-106517583D01*
X145216530Y-106505411D01*
X145229473Y-106454663D01*
X145234552Y-106404113D01*
X145233819Y-106392849D01*
X148627557Y-106392849D01*
X148627888Y-106404113D01*
X148628551Y-106426686D01*
X148632635Y-106454881D01*
X148641375Y-106483575D01*
X148656340Y-106519670D01*
X148656361Y-106519718D01*
X148664496Y-106535891D01*
X148680121Y-106564825D01*
X148702560Y-106605351D01*
X148731136Y-106656299D01*
X148765171Y-106716500D01*
X148803990Y-106784783D01*
X148846915Y-106859979D01*
X148893269Y-106940918D01*
X148942376Y-107026431D01*
X148993558Y-107115347D01*
X149046139Y-107206497D01*
X149099442Y-107298710D01*
X149152790Y-107390818D01*
X149205506Y-107481650D01*
X149256914Y-107570037D01*
X149306336Y-107654808D01*
X149353096Y-107734794D01*
X149396516Y-107808826D01*
X149435921Y-107875732D01*
X149470633Y-107934345D01*
X149499974Y-107983493D01*
X149523270Y-108022007D01*
X149539842Y-108048718D01*
X149549013Y-108062455D01*
X149560129Y-108076075D01*
X149581077Y-108098268D01*
X149598892Y-108113299D01*
X149609346Y-108119413D01*
X149641485Y-108128031D01*
X149674184Y-108120942D01*
X149708601Y-108097983D01*
X149781968Y-108030367D01*
X149883659Y-107923952D01*
X149986829Y-107801531D01*
X150091386Y-107663216D01*
X150197233Y-107509122D01*
X150284933Y-107369160D01*
X150393730Y-107175377D01*
X150491961Y-106976278D01*
X150577081Y-106776770D01*
X150590739Y-106741644D01*
X150629318Y-106637876D01*
X150659902Y-106547278D01*
X150682552Y-106469108D01*
X150697330Y-106402623D01*
X150704297Y-106347080D01*
X150703514Y-106301738D01*
X150695043Y-106265853D01*
X150678945Y-106238682D01*
X150655281Y-106219484D01*
X150624114Y-106207514D01*
X150618985Y-106206758D01*
X150596618Y-106205317D01*
X150558382Y-106203985D01*
X150504556Y-106202764D01*
X150435421Y-106201658D01*
X150351254Y-106200670D01*
X150252336Y-106199802D01*
X150138945Y-106199059D01*
X150011361Y-106198443D01*
X149869864Y-106197956D01*
X149714732Y-106197603D01*
X149685840Y-106197552D01*
X149549505Y-106197336D01*
X149428319Y-106197191D01*
X149321332Y-106197130D01*
X149227595Y-106197166D01*
X149146157Y-106197312D01*
X149076068Y-106197579D01*
X149016379Y-106197980D01*
X148966140Y-106198528D01*
X148924401Y-106199234D01*
X148890211Y-106200112D01*
X148862622Y-106201173D01*
X148840683Y-106202430D01*
X148823444Y-106203895D01*
X148809955Y-106205581D01*
X148799267Y-106207501D01*
X148790429Y-106209666D01*
X148732703Y-106230639D01*
X148684023Y-106260464D01*
X148649769Y-106297612D01*
X148638955Y-106315673D01*
X148631711Y-106334930D01*
X148628367Y-106358700D01*
X148627557Y-106392849D01*
X145233819Y-106392849D01*
X145231574Y-106358338D01*
X145220345Y-106321915D01*
X145200465Y-106291415D01*
X145170673Y-106263729D01*
X145131232Y-106241911D01*
X145080565Y-106225307D01*
X145017094Y-106213261D01*
X144939240Y-106205117D01*
X144915555Y-106203830D01*
X144872590Y-106202470D01*
X144814421Y-106201322D01*
X144741640Y-106200391D01*
X144654839Y-106199680D01*
X144554608Y-106199193D01*
X144441540Y-106198933D01*
X144316226Y-106198904D01*
X144179257Y-106199109D01*
X144031225Y-106199552D01*
X143965969Y-106199788D01*
X143837850Y-106200243D01*
X143724624Y-106200683D01*
X143625338Y-106201170D01*
X143539043Y-106201764D01*
X143464789Y-106202529D01*
X143401624Y-106203525D01*
X143348598Y-106204816D01*
X143304760Y-106206462D01*
X143269160Y-106208526D01*
X143240847Y-106211069D01*
X143218871Y-106214154D01*
X143202280Y-106217842D01*
X143190125Y-106222196D01*
X143181454Y-106227277D01*
X143175317Y-106233147D01*
X143170764Y-106239867D01*
X143166843Y-106247501D01*
X143162605Y-106256109D01*
X143156105Y-106271764D01*
X143152424Y-106291279D01*
X143151712Y-106318046D01*
X142676528Y-106318046D01*
X142654167Y-106217690D01*
X142644163Y-106154196D01*
X146172769Y-106154196D01*
X146183248Y-106204571D01*
X146188120Y-106215832D01*
X146211279Y-106249203D01*
X146242706Y-106277157D01*
X146276862Y-106294382D01*
X146299836Y-106299865D01*
X146349156Y-106302874D01*
X146395460Y-106294648D01*
X146435136Y-106276078D01*
X146464569Y-106248055D01*
X146473606Y-106233338D01*
X146489737Y-106189254D01*
X146495818Y-106139417D01*
X146494994Y-106131068D01*
X147358977Y-106131068D01*
X147359487Y-106139417D01*
X147361219Y-106167776D01*
X147373517Y-106218033D01*
X147396597Y-106256248D01*
X147430541Y-106282593D01*
X147434957Y-106284751D01*
X147471598Y-106296410D01*
X147515950Y-106302290D01*
X147533235Y-106302618D01*
X147584076Y-106295138D01*
X147624900Y-106275021D01*
X147655014Y-106242927D01*
X147673726Y-106199516D01*
X147680345Y-106145449D01*
X147680029Y-106128979D01*
X147671982Y-106077725D01*
X147652677Y-106037860D01*
X147621526Y-106008771D01*
X147577942Y-105989850D01*
X147521336Y-105980486D01*
X147482808Y-105979570D01*
X147435892Y-105986756D01*
X147400808Y-106004796D01*
X147376799Y-106034393D01*
X147363108Y-106076250D01*
X147358977Y-106131068D01*
X146494994Y-106131068D01*
X146490898Y-106089548D01*
X146476120Y-106045690D01*
X146449906Y-106004221D01*
X146416156Y-105973514D01*
X146377191Y-105954271D01*
X146335332Y-105947198D01*
X146292897Y-105952997D01*
X146252206Y-105972372D01*
X146215580Y-106006028D01*
X146214745Y-106007050D01*
X146189343Y-106050366D01*
X146175075Y-106101105D01*
X146172769Y-106154196D01*
X142644163Y-106154196D01*
X142614496Y-105965903D01*
X142613919Y-105961281D01*
X142605406Y-105888132D01*
X142598366Y-105816383D01*
X142592710Y-105743826D01*
X142588352Y-105668253D01*
X142585203Y-105587453D01*
X142583177Y-105499220D01*
X142582187Y-105401343D01*
X142582148Y-105299510D01*
X142998317Y-105299510D01*
X142998767Y-105328590D01*
X143000571Y-105359583D01*
X143003585Y-105395848D01*
X143011122Y-105476850D01*
X143019602Y-105559608D01*
X143027791Y-105630678D01*
X143035547Y-105688914D01*
X143042727Y-105733173D01*
X143049189Y-105762312D01*
X143069949Y-105809657D01*
X143103236Y-105850555D01*
X143145805Y-105879870D01*
X143161898Y-105886296D01*
X143196926Y-105895568D01*
X143233359Y-105900753D01*
X143243778Y-105900744D01*
X143271422Y-105899170D01*
X143312708Y-105895906D01*
X143366152Y-105891119D01*
X143430265Y-105884975D01*
X143503562Y-105877640D01*
X143584556Y-105869280D01*
X143671761Y-105860060D01*
X143763689Y-105850147D01*
X143858854Y-105839707D01*
X143955771Y-105828907D01*
X144052951Y-105817911D01*
X144148909Y-105806886D01*
X144242158Y-105795999D01*
X144331212Y-105785415D01*
X144414583Y-105775300D01*
X144490786Y-105765820D01*
X144558334Y-105757142D01*
X144615740Y-105749431D01*
X144661518Y-105742854D01*
X144694181Y-105737576D01*
X144738028Y-105729359D01*
X144820606Y-105711023D01*
X144889623Y-105690963D01*
X144946930Y-105668385D01*
X144994378Y-105642494D01*
X145033817Y-105612498D01*
X145067098Y-105577602D01*
X145080253Y-105560412D01*
X145115790Y-105498050D01*
X145139510Y-105428901D01*
X145150873Y-105359731D01*
X146274308Y-105359731D01*
X146278509Y-105435347D01*
X146288966Y-105501716D01*
X146299371Y-105539412D01*
X146321331Y-105598707D01*
X146349036Y-105658435D01*
X146379844Y-105713073D01*
X146411111Y-105757096D01*
X146472125Y-105819646D01*
X146548760Y-105876463D01*
X146635416Y-105921661D01*
X146730529Y-105954275D01*
X146742599Y-105957162D01*
X146788257Y-105964928D01*
X146842656Y-105970750D01*
X146900851Y-105974386D01*
X146957899Y-105975595D01*
X147008854Y-105974136D01*
X147048774Y-105969770D01*
X147049809Y-105969583D01*
X147148819Y-105944831D01*
X147237618Y-105908017D01*
X147317735Y-105858359D01*
X147390697Y-105795076D01*
X147424572Y-105759408D01*
X147450920Y-105726967D01*
X147472849Y-105693039D01*
X147494609Y-105651763D01*
X147513601Y-105611576D01*
X147535636Y-105557218D01*
X147551062Y-105505384D01*
X147560900Y-105451419D01*
X147566174Y-105390671D01*
X147567493Y-105335749D01*
X148697367Y-105335749D01*
X148702499Y-105393445D01*
X148713140Y-105443038D01*
X148722303Y-105469085D01*
X148756628Y-105535923D01*
X148803034Y-105595504D01*
X148859095Y-105645059D01*
X148922385Y-105681820D01*
X148960898Y-105696662D01*
X149021547Y-105714554D01*
X149093274Y-105730974D01*
X149173180Y-105745191D01*
X149174785Y-105745437D01*
X149200991Y-105749111D01*
X149241512Y-105754394D01*
X149294637Y-105761084D01*
X149358651Y-105768978D01*
X149431840Y-105777875D01*
X149512493Y-105787573D01*
X149598894Y-105797870D01*
X149689332Y-105808563D01*
X149782092Y-105819452D01*
X149875461Y-105830334D01*
X149967726Y-105841007D01*
X150057174Y-105851269D01*
X150142090Y-105860919D01*
X150220762Y-105869754D01*
X150291477Y-105877573D01*
X150352521Y-105884174D01*
X150382129Y-105887256D01*
X150439526Y-105892853D01*
X150493221Y-105897619D01*
X150540096Y-105901302D01*
X150577030Y-105903648D01*
X150600902Y-105904401D01*
X150662607Y-105898184D01*
X150715512Y-105879673D01*
X150758404Y-105848456D01*
X150791858Y-105804110D01*
X150816450Y-105746213D01*
X150818316Y-105740188D01*
X150823806Y-105720531D01*
X150827873Y-105700889D01*
X150830713Y-105678546D01*
X150832524Y-105650785D01*
X150833503Y-105614889D01*
X150833848Y-105568140D01*
X150833754Y-105507823D01*
X150833721Y-105493199D01*
X150834003Y-105437966D01*
X150834905Y-105391917D01*
X150836361Y-105356828D01*
X150838302Y-105334474D01*
X150840662Y-105326628D01*
X150842893Y-105324597D01*
X150844884Y-105310842D01*
X150843515Y-105287945D01*
X150841604Y-105268046D01*
X150839034Y-105234939D01*
X150836064Y-105192191D01*
X150832926Y-105143145D01*
X150829851Y-105091143D01*
X150829137Y-105078780D01*
X150824259Y-105008448D01*
X150818483Y-104951949D01*
X150811279Y-104907161D01*
X150802113Y-104871964D01*
X150790454Y-104844237D01*
X150775771Y-104821858D01*
X150757531Y-104802706D01*
X150748556Y-104794820D01*
X150731325Y-104781686D01*
X150713243Y-104771871D01*
X150692114Y-104765115D01*
X150665744Y-104761162D01*
X150631937Y-104759753D01*
X150588499Y-104760630D01*
X150533233Y-104763536D01*
X150463947Y-104768213D01*
X150460823Y-104768436D01*
X150390606Y-104773743D01*
X150310819Y-104780238D01*
X150227770Y-104787379D01*
X150147769Y-104794625D01*
X150077124Y-104801433D01*
X150044969Y-104804646D01*
X149975009Y-104811562D01*
X149898832Y-104819008D01*
X149818679Y-104826771D01*
X149736794Y-104834640D01*
X149655420Y-104842402D01*
X149576798Y-104849843D01*
X149503172Y-104856751D01*
X149436785Y-104862914D01*
X149379878Y-104868119D01*
X149334695Y-104872152D01*
X149303478Y-104874802D01*
X149256175Y-104879176D01*
X149148280Y-104893942D01*
X149051687Y-104914284D01*
X148967840Y-104939863D01*
X148898186Y-104970338D01*
X148865396Y-104990388D01*
X148823192Y-105026220D01*
X148811099Y-105036487D01*
X148764459Y-105092732D01*
X148728343Y-105155399D01*
X148705616Y-105220760D01*
X148704621Y-105225282D01*
X148697992Y-105277258D01*
X148697720Y-105302678D01*
X148697367Y-105335749D01*
X147567493Y-105335749D01*
X147567907Y-105318484D01*
X147567928Y-105302678D01*
X147566799Y-105241613D01*
X147562974Y-105191317D01*
X147555503Y-105147350D01*
X147543436Y-105105272D01*
X147525825Y-105060644D01*
X147503964Y-105013834D01*
X147715469Y-105013834D01*
X147716150Y-105044916D01*
X147719380Y-105068077D01*
X147726763Y-105086849D01*
X147739900Y-105107361D01*
X147747949Y-105117623D01*
X147771901Y-105141352D01*
X147796171Y-105158396D01*
X147811951Y-105165171D01*
X147854229Y-105175016D01*
X147899233Y-105176799D01*
X147938934Y-105169876D01*
X147941066Y-105169132D01*
X147973202Y-105151382D01*
X148004387Y-105124037D01*
X148029809Y-105092075D01*
X148044656Y-105060476D01*
X148049018Y-105026220D01*
X148042555Y-104979827D01*
X148024131Y-104934822D01*
X147995560Y-104895316D01*
X147958655Y-104865423D01*
X147952716Y-104862087D01*
X147905276Y-104844739D01*
X147857443Y-104842055D01*
X147812047Y-104853388D01*
X147771923Y-104878089D01*
X147739900Y-104915510D01*
X147728948Y-104934445D01*
X147720350Y-104955841D01*
X147716412Y-104980070D01*
X147715469Y-105013834D01*
X147503964Y-105013834D01*
X147501719Y-105009026D01*
X147488595Y-104983060D01*
X147470253Y-104951184D01*
X147450064Y-104922868D01*
X147424532Y-104893380D01*
X147390162Y-104857987D01*
X147382992Y-104850860D01*
X147346132Y-104815995D01*
X147313785Y-104789482D01*
X147281079Y-104767633D01*
X147243139Y-104746762D01*
X147221441Y-104735988D01*
X147135602Y-104700888D01*
X147051447Y-104679643D01*
X146964907Y-104671472D01*
X146871915Y-104675598D01*
X146772451Y-104691269D01*
X146671404Y-104720384D01*
X146580778Y-104761509D01*
X146500958Y-104814334D01*
X146432331Y-104878551D01*
X146375282Y-104953849D01*
X146336569Y-105027753D01*
X146330196Y-105039920D01*
X146297459Y-105136454D01*
X146284143Y-105203686D01*
X146276230Y-105280599D01*
X146276220Y-105281023D01*
X146274308Y-105359731D01*
X145150873Y-105359731D01*
X145151542Y-105355660D01*
X145152011Y-105281023D01*
X145141047Y-105207685D01*
X145118777Y-105138341D01*
X145085327Y-105075688D01*
X145040826Y-105022420D01*
X145027621Y-105010471D01*
X145798691Y-105010471D01*
X145800191Y-105049886D01*
X145809645Y-105081906D01*
X145825319Y-105104312D01*
X145853765Y-105132072D01*
X145886869Y-105155788D01*
X145918645Y-105170591D01*
X145951006Y-105177686D01*
X146001873Y-105178449D01*
X146048494Y-105167051D01*
X146088630Y-105144885D01*
X146120043Y-105113350D01*
X146140492Y-105073841D01*
X146147740Y-105027753D01*
X146141987Y-104984695D01*
X146123196Y-104937909D01*
X146093817Y-104896735D01*
X146056399Y-104864643D01*
X146013494Y-104845102D01*
X146008158Y-104843790D01*
X145963442Y-104841549D01*
X145917875Y-104852685D01*
X145875151Y-104875312D01*
X145838962Y-104907544D01*
X145813003Y-104947494D01*
X145804978Y-104970383D01*
X145798691Y-105010471D01*
X145027621Y-105010471D01*
X145022298Y-105005654D01*
X144981394Y-104975143D01*
X144935935Y-104950543D01*
X144882997Y-104930653D01*
X144819657Y-104914275D01*
X144742991Y-104900208D01*
X144732646Y-104898663D01*
X144697867Y-104894064D01*
X144649957Y-104888278D01*
X144590460Y-104881460D01*
X144520919Y-104873762D01*
X144442878Y-104865340D01*
X144357880Y-104856346D01*
X144267468Y-104846934D01*
X144173187Y-104837259D01*
X144076579Y-104827473D01*
X143979187Y-104817732D01*
X143882556Y-104808188D01*
X143788229Y-104798996D01*
X143697748Y-104790310D01*
X143612659Y-104782282D01*
X143534503Y-104775067D01*
X143464824Y-104768820D01*
X143405167Y-104763692D01*
X143357073Y-104759840D01*
X143322087Y-104757415D01*
X143301753Y-104756573D01*
X143265591Y-104757250D01*
X143210636Y-104762285D01*
X143166395Y-104773014D01*
X143129642Y-104790362D01*
X143097153Y-104815254D01*
X143087927Y-104824105D01*
X143074860Y-104838903D01*
X143064075Y-104855636D01*
X143055012Y-104876342D01*
X143047110Y-104903060D01*
X143039809Y-104937828D01*
X143032548Y-104982686D01*
X143024768Y-105039671D01*
X143015908Y-105110821D01*
X143012969Y-105135127D01*
X143006548Y-105190152D01*
X143002062Y-105233651D01*
X142999367Y-105268984D01*
X142998317Y-105299510D01*
X142582148Y-105299510D01*
X142582145Y-105291615D01*
X142582964Y-105167827D01*
X142582985Y-105165575D01*
X142583847Y-105076994D01*
X142584703Y-105002740D01*
X142585648Y-104940896D01*
X142586775Y-104889544D01*
X142588178Y-104846770D01*
X142589950Y-104810656D01*
X142592185Y-104779286D01*
X142594976Y-104750744D01*
X142598417Y-104723113D01*
X142602602Y-104694478D01*
X142607624Y-104662921D01*
X142638637Y-104489148D01*
X142672201Y-104336767D01*
X143143485Y-104336767D01*
X143145561Y-104363625D01*
X143153314Y-104383969D01*
X143166734Y-104399625D01*
X143185813Y-104412420D01*
X143186963Y-104413027D01*
X143192329Y-104415295D01*
X143199604Y-104417304D01*
X143209745Y-104419070D01*
X143223711Y-104420611D01*
X143242461Y-104421944D01*
X143266954Y-104423086D01*
X143298148Y-104424056D01*
X143337002Y-104424869D01*
X143384474Y-104425544D01*
X143441524Y-104426099D01*
X143509108Y-104426549D01*
X143588187Y-104426913D01*
X143679719Y-104427208D01*
X143784663Y-104427451D01*
X143903976Y-104427660D01*
X144038618Y-104427852D01*
X144104440Y-104427919D01*
X144219686Y-104427937D01*
X144331125Y-104427832D01*
X144437508Y-104427611D01*
X144537587Y-104427281D01*
X144630115Y-104426850D01*
X144713844Y-104426325D01*
X144787525Y-104425712D01*
X144849911Y-104425020D01*
X144899754Y-104424255D01*
X144935805Y-104423425D01*
X144956817Y-104422536D01*
X145013318Y-104417014D01*
X145085345Y-104403688D01*
X145143064Y-104384047D01*
X145187002Y-104357829D01*
X145200182Y-104343631D01*
X146751476Y-104343631D01*
X146764179Y-104387179D01*
X146789462Y-104424601D01*
X146825973Y-104453314D01*
X146872362Y-104470733D01*
X146887441Y-104473674D01*
X146947407Y-104478659D01*
X146998106Y-104471384D01*
X147038810Y-104452316D01*
X147068787Y-104421924D01*
X147087309Y-104380673D01*
X147093645Y-104329032D01*
X147092868Y-104310540D01*
X147083561Y-104269646D01*
X148624332Y-104269646D01*
X148631265Y-104303645D01*
X148643101Y-104325993D01*
X148645666Y-104329032D01*
X148670378Y-104358306D01*
X148705635Y-104387098D01*
X148744236Y-104408084D01*
X148790429Y-104426756D01*
X149665870Y-104428311D01*
X149669991Y-104428318D01*
X149787967Y-104428498D01*
X149901367Y-104428619D01*
X150009126Y-104428681D01*
X150110180Y-104428687D01*
X150203463Y-104428637D01*
X150287912Y-104428535D01*
X150362462Y-104428381D01*
X150426047Y-104428177D01*
X150477603Y-104427925D01*
X150516067Y-104427627D01*
X150540372Y-104427284D01*
X150549455Y-104426898D01*
X150557825Y-104425062D01*
X150578727Y-104421861D01*
X150606025Y-104418449D01*
X150611814Y-104417762D01*
X150640960Y-104412268D01*
X150661835Y-104402693D01*
X150681353Y-104386066D01*
X150683404Y-104384000D01*
X150699354Y-104364937D01*
X150706566Y-104345853D01*
X150708256Y-104318698D01*
X150704438Y-104263537D01*
X150691849Y-104191677D01*
X150671123Y-104109605D01*
X150642935Y-104018928D01*
X150607958Y-103921254D01*
X150566867Y-103818192D01*
X150520335Y-103711349D01*
X150469036Y-103602334D01*
X150413644Y-103492754D01*
X150354834Y-103384217D01*
X150293278Y-103278333D01*
X150229652Y-103176708D01*
X150208902Y-103145294D01*
X150157896Y-103071207D01*
X150102940Y-102995134D01*
X150045620Y-102919039D01*
X149987526Y-102844887D01*
X149930245Y-102774644D01*
X149875366Y-102710275D01*
X149824476Y-102653744D01*
X149779164Y-102607018D01*
X149741018Y-102572062D01*
X149740913Y-102571974D01*
X149703299Y-102544406D01*
X149670863Y-102530004D01*
X149640460Y-102527943D01*
X149608943Y-102537397D01*
X149608677Y-102537517D01*
X149598210Y-102542328D01*
X149588504Y-102547390D01*
X149579002Y-102553567D01*
X149569147Y-102561725D01*
X149558381Y-102572730D01*
X149546147Y-102587447D01*
X149531888Y-102606742D01*
X149515045Y-102631479D01*
X149495063Y-102662525D01*
X149471384Y-102700745D01*
X149443449Y-102747005D01*
X149410702Y-102802169D01*
X149372586Y-102867104D01*
X149328543Y-102942674D01*
X149278016Y-103029747D01*
X149220446Y-103129185D01*
X149155278Y-103241857D01*
X149099284Y-103338691D01*
X149030863Y-103457059D01*
X148969837Y-103562706D01*
X148915759Y-103656416D01*
X148868185Y-103738973D01*
X148826669Y-103811163D01*
X148790766Y-103873770D01*
X148760030Y-103927578D01*
X148734017Y-103973372D01*
X148712280Y-104011936D01*
X148694376Y-104044054D01*
X148679859Y-104070512D01*
X148668282Y-104092093D01*
X148659202Y-104109582D01*
X148652173Y-104123764D01*
X148646749Y-104135423D01*
X148642486Y-104145344D01*
X148630926Y-104182991D01*
X148624366Y-104227357D01*
X148624332Y-104269646D01*
X147083561Y-104269646D01*
X147081421Y-104260245D01*
X147057182Y-104219182D01*
X147021291Y-104188439D01*
X146974885Y-104169105D01*
X146919105Y-104162266D01*
X146872016Y-104167412D01*
X146826049Y-104186031D01*
X146789413Y-104217660D01*
X146769939Y-104250193D01*
X146763053Y-104261697D01*
X146752703Y-104296541D01*
X146751476Y-104343631D01*
X145200182Y-104343631D01*
X145217688Y-104324773D01*
X145235647Y-104284619D01*
X145238891Y-104270195D01*
X145240994Y-104250193D01*
X145240037Y-104228360D01*
X145235502Y-104203474D01*
X145226871Y-104174314D01*
X145213627Y-104139656D01*
X145195253Y-104098280D01*
X145171230Y-104048962D01*
X145141042Y-103990482D01*
X145104170Y-103921616D01*
X145060097Y-103841142D01*
X145008306Y-103747840D01*
X145007512Y-103746417D01*
X144976937Y-103691857D01*
X144941545Y-103629157D01*
X144902093Y-103559628D01*
X144859340Y-103484580D01*
X144814044Y-103405326D01*
X144766962Y-103323176D01*
X144718851Y-103239441D01*
X144670471Y-103155433D01*
X144622578Y-103072463D01*
X144575929Y-102991843D01*
X144531284Y-102914882D01*
X144489400Y-102842894D01*
X144451034Y-102777188D01*
X144416944Y-102719077D01*
X144387888Y-102669871D01*
X144364624Y-102630881D01*
X144347909Y-102603420D01*
X144338501Y-102588797D01*
X144328237Y-102575251D01*
X144292000Y-102540646D01*
X144252532Y-102521902D01*
X144210069Y-102519094D01*
X144164844Y-102532301D01*
X144143177Y-102545743D01*
X144110816Y-102573114D01*
X144071824Y-102611769D01*
X144027258Y-102660331D01*
X143978173Y-102717427D01*
X143925626Y-102781682D01*
X143870671Y-102851720D01*
X143814366Y-102926167D01*
X143757765Y-103003647D01*
X143701926Y-103082787D01*
X143647903Y-103162212D01*
X143596753Y-103240546D01*
X143549532Y-103316414D01*
X143507296Y-103388442D01*
X143427888Y-103535405D01*
X143357360Y-103681108D01*
X143295143Y-103827826D01*
X143239096Y-103980615D01*
X143187080Y-104144527D01*
X143171399Y-104198828D01*
X143156395Y-104256195D01*
X143147093Y-104301566D01*
X143143485Y-104336767D01*
X142672201Y-104336767D01*
X142691813Y-104247730D01*
X142755275Y-104016917D01*
X142829580Y-103795091D01*
X142915286Y-103580633D01*
X143012951Y-103371925D01*
X143123132Y-103167348D01*
X143154342Y-103113984D01*
X143288903Y-102903017D01*
X143437298Y-102698334D01*
X143598436Y-102500909D01*
X143771226Y-102311716D01*
X143781779Y-102301357D01*
X144542861Y-102301357D01*
X144545969Y-102322238D01*
X144552688Y-102345904D01*
X144563451Y-102373091D01*
X144578694Y-102404535D01*
X144598851Y-102440971D01*
X144624357Y-102483136D01*
X144655646Y-102531766D01*
X144693152Y-102587597D01*
X144737310Y-102651364D01*
X144788554Y-102723804D01*
X144847319Y-102805653D01*
X144914040Y-102897647D01*
X144989150Y-103000521D01*
X145073084Y-103115013D01*
X145166277Y-103241857D01*
X145172590Y-103250444D01*
X145241858Y-103344526D01*
X145302439Y-103426438D01*
X145355132Y-103497122D01*
X145400738Y-103557519D01*
X145440055Y-103608570D01*
X145473885Y-103651215D01*
X145503026Y-103686397D01*
X145528279Y-103715055D01*
X145550442Y-103738131D01*
X145570316Y-103756567D01*
X145588701Y-103771302D01*
X145606396Y-103783278D01*
X145624200Y-103793436D01*
X145642914Y-103802717D01*
X145648600Y-103805362D01*
X145666098Y-103812681D01*
X145683529Y-103817875D01*
X145704164Y-103821382D01*
X145731274Y-103823641D01*
X145768130Y-103825088D01*
X145818002Y-103826162D01*
X145842424Y-103826549D01*
X145888739Y-103826763D01*
X145923368Y-103825840D01*
X145949510Y-103823552D01*
X145970362Y-103819671D01*
X145989125Y-103813969D01*
X146046198Y-103788864D01*
X146108202Y-103746889D01*
X146158590Y-103693527D01*
X146197472Y-103628679D01*
X146199108Y-103625148D01*
X146223261Y-103553322D01*
X146232771Y-103475432D01*
X146229612Y-103423404D01*
X147615664Y-103423404D01*
X147617362Y-103475432D01*
X147618309Y-103504427D01*
X147633586Y-103578674D01*
X147661171Y-103645225D01*
X147700736Y-103703158D01*
X147751957Y-103751554D01*
X147814507Y-103789492D01*
X147888060Y-103816051D01*
X147900681Y-103818786D01*
X147936808Y-103823514D01*
X147981281Y-103826523D01*
X148030009Y-103827816D01*
X148078902Y-103827394D01*
X148123869Y-103825261D01*
X148160819Y-103821420D01*
X148185662Y-103815871D01*
X148193164Y-103812907D01*
X148233596Y-103791496D01*
X148275102Y-103762071D01*
X148311047Y-103729216D01*
X148311340Y-103728903D01*
X148327259Y-103710372D01*
X148351554Y-103680146D01*
X148383360Y-103639403D01*
X148421814Y-103589320D01*
X148466049Y-103531072D01*
X148515200Y-103465837D01*
X148568404Y-103394791D01*
X148624794Y-103319112D01*
X148683505Y-103239976D01*
X148743674Y-103158560D01*
X148804434Y-103076041D01*
X148864921Y-102993595D01*
X148924270Y-102912400D01*
X148981616Y-102833631D01*
X149036094Y-102758467D01*
X149086839Y-102688083D01*
X149132986Y-102623657D01*
X149173670Y-102566364D01*
X149208026Y-102517383D01*
X149235189Y-102477890D01*
X149254294Y-102449062D01*
X149264476Y-102432075D01*
X149284364Y-102379216D01*
X149290334Y-102321834D01*
X149280239Y-102264615D01*
X149254190Y-102207898D01*
X149212298Y-102152025D01*
X149154675Y-102097333D01*
X149137840Y-102084663D01*
X149102063Y-102061074D01*
X149055279Y-102032720D01*
X148999760Y-102000796D01*
X148937775Y-101966496D01*
X148871595Y-101931012D01*
X148803490Y-101895541D01*
X148735730Y-101861274D01*
X148670585Y-101829408D01*
X148610326Y-101801134D01*
X148557223Y-101777648D01*
X148513546Y-101760143D01*
X148490950Y-101753048D01*
X148453773Y-101744988D01*
X148421267Y-101741682D01*
X148393052Y-101744160D01*
X148352987Y-101759156D01*
X148315683Y-101788544D01*
X148279678Y-101833272D01*
X148278057Y-101835955D01*
X148269110Y-101853319D01*
X148254378Y-101883804D01*
X148234456Y-101926086D01*
X148209941Y-101978839D01*
X148181428Y-102040738D01*
X148149514Y-102110459D01*
X148114793Y-102186676D01*
X148077863Y-102268065D01*
X148039318Y-102353301D01*
X147999755Y-102441059D01*
X147959770Y-102530014D01*
X147919958Y-102618841D01*
X147880914Y-102706215D01*
X147843236Y-102790811D01*
X147807519Y-102871305D01*
X147774358Y-102946371D01*
X147744350Y-103014685D01*
X147718091Y-103074921D01*
X147696175Y-103125756D01*
X147679200Y-103165863D01*
X147667760Y-103193918D01*
X147649578Y-103244714D01*
X147625978Y-103336527D01*
X147615664Y-103423404D01*
X146229612Y-103423404D01*
X146227650Y-103391097D01*
X146207910Y-103299938D01*
X146207696Y-103299198D01*
X146199978Y-103276312D01*
X146186563Y-103241175D01*
X146167342Y-103193530D01*
X146142206Y-103133124D01*
X146111045Y-103059700D01*
X146073749Y-102973005D01*
X146030209Y-102872782D01*
X145980313Y-102758776D01*
X145923954Y-102630733D01*
X145861021Y-102488397D01*
X145791405Y-102331513D01*
X145783975Y-102314797D01*
X145738667Y-102213030D01*
X145699235Y-102124938D01*
X145665093Y-102049447D01*
X145635659Y-101985481D01*
X145610347Y-101931966D01*
X145588573Y-101887828D01*
X145569754Y-101851991D01*
X145553305Y-101823382D01*
X145538642Y-101800925D01*
X145525181Y-101783546D01*
X145512337Y-101770169D01*
X145499527Y-101759721D01*
X145486166Y-101751127D01*
X145471671Y-101743312D01*
X145462565Y-101739211D01*
X145422070Y-101729441D01*
X145377719Y-101728914D01*
X145337269Y-101737940D01*
X145335758Y-101738540D01*
X145315158Y-101747872D01*
X145282868Y-101763699D01*
X145241204Y-101784800D01*
X145192479Y-101809959D01*
X145139009Y-101837956D01*
X145083107Y-101867573D01*
X145027090Y-101897591D01*
X144973270Y-101926793D01*
X144923963Y-101953960D01*
X144881484Y-101977872D01*
X144813919Y-102016793D01*
X144752642Y-102053047D01*
X144702911Y-102083915D01*
X144663227Y-102110536D01*
X144632088Y-102134050D01*
X144607995Y-102155597D01*
X144589448Y-102176316D01*
X144574945Y-102197348D01*
X144562989Y-102219831D01*
X144557848Y-102230957D01*
X144550858Y-102248060D01*
X144545740Y-102265003D01*
X144542930Y-102282524D01*
X144542861Y-102301357D01*
X143781779Y-102301357D01*
X143954577Y-102131729D01*
X144147398Y-101961921D01*
X144348598Y-101803267D01*
X144557087Y-101656740D01*
X144562312Y-101653493D01*
X145849047Y-101653493D01*
X145849506Y-101657253D01*
X145851411Y-101667942D01*
X145854687Y-101680033D01*
X145859860Y-101694501D01*
X145867457Y-101712319D01*
X145878003Y-101734461D01*
X145892026Y-101761902D01*
X145910052Y-101795615D01*
X145932607Y-101836575D01*
X145960217Y-101885755D01*
X145993409Y-101944129D01*
X146032710Y-102012672D01*
X146078645Y-102092357D01*
X146131741Y-102184159D01*
X146192525Y-102289051D01*
X146239566Y-102370182D01*
X146313986Y-102498502D01*
X146380961Y-102613882D01*
X146440956Y-102717045D01*
X146494433Y-102808714D01*
X146541857Y-102889612D01*
X146583691Y-102960463D01*
X146620397Y-103021989D01*
X146652440Y-103074914D01*
X146680283Y-103119961D01*
X146704390Y-103157853D01*
X146725224Y-103189313D01*
X146743248Y-103215064D01*
X146758925Y-103235830D01*
X146772720Y-103252334D01*
X146785096Y-103265298D01*
X146796516Y-103275447D01*
X146807443Y-103283502D01*
X146818342Y-103290188D01*
X146829675Y-103296228D01*
X146841906Y-103302344D01*
X146889551Y-103319400D01*
X146941631Y-103322700D01*
X146993034Y-103309878D01*
X147043428Y-103281024D01*
X147092481Y-103236225D01*
X147096346Y-103231873D01*
X147118511Y-103203779D01*
X147144806Y-103166587D01*
X147172264Y-103124629D01*
X147197919Y-103082238D01*
X147211371Y-103058934D01*
X147302571Y-102900708D01*
X147389506Y-102749481D01*
X147471892Y-102605756D01*
X147549446Y-102470037D01*
X147621885Y-102342829D01*
X147688926Y-102224636D01*
X147750286Y-102115961D01*
X147805682Y-102017310D01*
X147854830Y-101929184D01*
X147897447Y-101852090D01*
X147933251Y-101786531D01*
X147961957Y-101733010D01*
X147983283Y-101692033D01*
X147996946Y-101664102D01*
X148002662Y-101649723D01*
X148003677Y-101644801D01*
X148005325Y-101604307D01*
X147993977Y-101571489D01*
X147970186Y-101548072D01*
X147964380Y-101544891D01*
X147935210Y-101533165D01*
X147892751Y-101520120D01*
X147839228Y-101506202D01*
X147776865Y-101491858D01*
X147707887Y-101477535D01*
X147634516Y-101463679D01*
X147558977Y-101450737D01*
X147483493Y-101439155D01*
X147410290Y-101429379D01*
X147341590Y-101421857D01*
X147272601Y-101416457D01*
X147172146Y-101411604D01*
X147061940Y-101409057D01*
X146945557Y-101408752D01*
X146826576Y-101410627D01*
X146708573Y-101414617D01*
X146595125Y-101420659D01*
X146489808Y-101428690D01*
X146396200Y-101438646D01*
X146362634Y-101442951D01*
X146251587Y-101458604D01*
X146155849Y-101474655D01*
X146074652Y-101491404D01*
X146007230Y-101509153D01*
X145952817Y-101528202D01*
X145910646Y-101548853D01*
X145879949Y-101571407D01*
X145859962Y-101596164D01*
X145849917Y-101623425D01*
X145849047Y-101653493D01*
X144562312Y-101653493D01*
X144771773Y-101523314D01*
X144991565Y-101403963D01*
X145215373Y-101299660D01*
X145361752Y-101240373D01*
X145603844Y-101156304D01*
X145850468Y-101087419D01*
X146100857Y-101033688D01*
X146354241Y-100995084D01*
X146609851Y-100971579D01*
X146866918Y-100963143D01*
X147124673Y-100969749D01*
X147382347Y-100991369D01*
X147639171Y-101027973D01*
X147894377Y-101079534D01*
X148147195Y-101146023D01*
X148396856Y-101227413D01*
X148642591Y-101323674D01*
X148883631Y-101434778D01*
X149005078Y-101497120D01*
X149193594Y-101602858D01*
X149195898Y-101604307D01*
X149371612Y-101714832D01*
G37*
%TD*%
M02*
