%TF.GenerationSoftware,KiCad,Pcbnew,7.0.7*%
%TF.CreationDate,2024-06-14T16:47:01-05:00*%
%TF.ProjectId,Rev2.2,52657632-2e32-42e6-9b69-6361645f7063,rev?*%
%TF.SameCoordinates,Original*%
%TF.FileFunction,Soldermask,Bot*%
%TF.FilePolarity,Negative*%
%FSLAX46Y46*%
G04 Gerber Fmt 4.6, Leading zero omitted, Abs format (unit mm)*
G04 Created by KiCad (PCBNEW 7.0.7) date 2024-06-14 16:47:01*
%MOMM*%
%LPD*%
G01*
G04 APERTURE LIST*
%ADD10R,2.600000X2.600000*%
%ADD11C,2.600000*%
%ADD12C,0.900000*%
%ADD13C,0.800000*%
%ADD14C,6.400000*%
%ADD15R,1.700000X1.700000*%
%ADD16O,1.700000X1.700000*%
%ADD17C,1.100000*%
%ADD18R,2.200000X2.200000*%
%ADD19C,2.200000*%
G04 APERTURE END LIST*
D10*
%TO.C,J13*%
X108675000Y-98825000D03*
D11*
X108675000Y-103825000D03*
X108675000Y-108825000D03*
X108675000Y-113825000D03*
%TD*%
D12*
%TO.C,J6*%
X187375000Y-85500000D03*
X187375000Y-81100000D03*
%TD*%
D13*
%TO.C,H4*%
X184000000Y-64500000D03*
X184702944Y-62802944D03*
X184702944Y-66197056D03*
X186400000Y-62100000D03*
D14*
X186400000Y-64500000D03*
D13*
X186400000Y-66900000D03*
X188097056Y-62802944D03*
X188097056Y-66197056D03*
X188800000Y-64500000D03*
%TD*%
D15*
%TO.C,J12*%
X190500000Y-70226000D03*
D16*
X190500000Y-72766000D03*
%TD*%
D17*
%TO.C,J2*%
X137050000Y-61685000D03*
X134510000Y-61685000D03*
D18*
X137050000Y-64225000D03*
D19*
X134510000Y-64225000D03*
%TD*%
D10*
%TO.C,J7*%
X108750000Y-72850000D03*
D11*
X108750000Y-77850000D03*
X108750000Y-82850000D03*
X108750000Y-87850000D03*
%TD*%
D10*
%TO.C,J16*%
X108675000Y-119950000D03*
D11*
X108675000Y-124950000D03*
X108675000Y-129950000D03*
X108675000Y-134950000D03*
%TD*%
D13*
%TO.C,H1*%
X105000000Y-64500000D03*
X105702944Y-62802944D03*
X105702944Y-66197056D03*
X107400000Y-62100000D03*
D14*
X107400000Y-64500000D03*
D13*
X107400000Y-66900000D03*
X109097056Y-62802944D03*
X109097056Y-66197056D03*
X109800000Y-64500000D03*
%TD*%
%TO.C,H2*%
X105000000Y-146200000D03*
X105702944Y-144502944D03*
X105702944Y-147897056D03*
X107400000Y-143800000D03*
D14*
X107400000Y-146200000D03*
D13*
X107400000Y-148600000D03*
X109097056Y-144502944D03*
X109097056Y-147897056D03*
X109800000Y-146200000D03*
%TD*%
D10*
%TO.C,J9*%
X161275000Y-145475000D03*
D11*
X166275000Y-145475000D03*
X171275000Y-145475000D03*
X176275000Y-145475000D03*
%TD*%
D15*
%TO.C,J3*%
X156125000Y-68250000D03*
D16*
X156125000Y-70790000D03*
%TD*%
D15*
%TO.C,J11*%
X180975000Y-70104000D03*
D16*
X180975000Y-72644000D03*
%TD*%
D10*
%TO.C,J18*%
X118900000Y-145455000D03*
D11*
X123900000Y-145455000D03*
X128900000Y-145455000D03*
X133900000Y-145455000D03*
%TD*%
D10*
%TO.C,J8*%
X185030000Y-133150000D03*
D11*
X185030000Y-128150000D03*
X185030000Y-123150000D03*
X185030000Y-118150000D03*
%TD*%
D15*
%TO.C,J1*%
X125700000Y-68150000D03*
D16*
X125700000Y-70690000D03*
%TD*%
D15*
%TO.C,J15*%
X177950000Y-89270000D03*
D16*
X177950000Y-91810000D03*
X177950000Y-94350000D03*
%TD*%
D15*
%TO.C,J5*%
X160075000Y-73325000D03*
D16*
X160075000Y-70785000D03*
X160075000Y-68245000D03*
%TD*%
D10*
%TO.C,J17*%
X140075000Y-145475000D03*
D11*
X145075000Y-145475000D03*
X150075000Y-145475000D03*
X155075000Y-145475000D03*
%TD*%
D17*
%TO.C,J4*%
X148970000Y-61685000D03*
X146430000Y-61685000D03*
D18*
X148970000Y-64225000D03*
D19*
X146430000Y-64225000D03*
%TD*%
D13*
%TO.C,H3*%
X184000000Y-146200000D03*
X184702944Y-144502944D03*
X184702944Y-147897056D03*
X186400000Y-143800000D03*
D14*
X186400000Y-146200000D03*
D13*
X186400000Y-148600000D03*
X188097056Y-144502944D03*
X188097056Y-147897056D03*
X188800000Y-146200000D03*
%TD*%
D12*
%TO.C,SW3*%
X126300000Y-59945000D03*
X123300000Y-59945000D03*
%TD*%
D15*
%TO.C,J10*%
X177950000Y-106770000D03*
D16*
X177950000Y-109310000D03*
X177950000Y-111850000D03*
%TD*%
M02*
