M48
; DRILL file {KiCad 7.0.7} date Fri Jun 14 16:47:07 2024
; FORMAT={-:-/ absolute / metric / decimal}
; #@! TF.CreationDate,2024-06-14T16:47:07-05:00
; #@! TF.GenerationSoftware,Kicad,Pcbnew,7.0.7
; #@! TF.FileFunction,MixedPlating,1,4
FMAT,2
METRIC
; #@! TA.AperFunction,Plated,PTH,ViaDrill
T1C0.300
; #@! TA.AperFunction,Plated,PTH,ViaDrill
T2C0.400
; #@! TA.AperFunction,Plated,PTH,ComponentDrill
T3C0.500
; #@! TA.AperFunction,Plated,PTH,ComponentDrill
T4C1.000
; #@! TA.AperFunction,Plated,PTH,ComponentDrill
T5C1.100
; #@! TA.AperFunction,Plated,PTH,ComponentDrill
T6C1.300
; #@! TA.AperFunction,Plated,PTH,ComponentDrill
T7C3.200
; #@! TA.AperFunction,NonPlated,NPTH,ComponentDrill
T8C0.900
; #@! TA.AperFunction,NonPlated,NPTH,ComponentDrill
T9C1.100
%
G90
G05
T1
X122.965Y-97.41
X125.15Y-99.224
T2
X103.1Y-64.5
X103.1Y-146.0
X103.9Y-143.4
X104.1Y-67.2
X104.3Y-61.7
X104.5Y-149.3
X107.3Y-60.5
X107.4Y-68.5
X107.4Y-142.1
X107.4Y-150.3
X110.4Y-61.7
X110.4Y-143.0
X110.4Y-149.2
X110.5Y-67.7
X111.6Y-64.8
X111.7Y-146.4
X113.125Y-126.45
X113.25Y-121.375
X113.275Y-131.05
X113.3Y-136.025
X113.325Y-112.625
X114.628Y-99.822
X115.175Y-132.275
X115.175Y-137.25
X115.225Y-122.925
X115.25Y-127.95
X116.4Y-59.4
X116.725Y-115.9
X116.925Y-92.45
X116.95Y-90.025
X117.05Y-103.55
X117.075Y-93.975
X117.094Y-128.016
X117.094Y-132.334
X117.094Y-133.35
X117.575Y-137.5
X118.072Y-114.808
X118.11Y-127.254
X118.275Y-88.65
X118.364Y-129.286
X118.364Y-130.81
X118.364Y-136.144
X118.475Y-123.075
X118.525Y-134.025
X118.618Y-132.842
X118.872Y-135.128
X119.126Y-126.238
X119.634Y-128.778
X119.634Y-130.302
X119.634Y-131.826
X119.634Y-136.144
X120.246Y-135.128
X120.396Y-106.02
X120.622Y-98.653
X121.625Y-99.5
X121.65Y-78.375
X121.92Y-133.604
X121.92Y-136.144
X122.174Y-134.874
X122.428Y-138.938
X122.45Y-137.425
X122.5Y-62.9
X122.65Y-91.325
X123.444Y-136.144
X124.206Y-134.518
X124.35Y-77.825
X125.444Y-104.12
X125.476Y-136.144
X126.425Y-84.95
X126.746Y-136.144
X126.825Y-79.0
X127.0Y-134.874
X127.1Y-62.775
X127.254Y-113.03
X127.254Y-114.3
X127.254Y-115.57
X127.254Y-116.84
X127.254Y-118.11
X127.254Y-119.38
X127.254Y-120.65
X127.254Y-121.92
X127.254Y-123.19
X127.254Y-124.46
X127.254Y-125.73
X127.254Y-127.0
X127.254Y-128.27
X127.508Y-139.192
X127.525Y-137.45
X127.559Y-83.922
X127.625Y-85.65
X127.675Y-74.5
X127.769Y-79.056
X128.016Y-136.144
X128.27Y-128.524
X128.7Y-92.3
X129.017Y-98.298
X129.032Y-106.172
X129.04Y-96.774
X129.159Y-102.743
X129.25Y-75.5
X129.286Y-104.775
X129.54Y-128.524
X129.625Y-82.0
X129.794Y-114.808
X129.794Y-117.094
X129.794Y-118.364
X129.794Y-119.634
X129.794Y-120.904
X129.794Y-122.174
X129.794Y-123.444
X129.794Y-124.714
X129.794Y-125.984
X129.95Y-84.875
X130.048Y-103.759
X130.048Y-127.254
X130.167Y-107.417
X130.375Y-79.025
X130.6Y-85.75
X131.064Y-128.524
X131.475Y-107.15
X132.588Y-139.192
X132.625Y-137.425
X133.075Y-77.225
X133.858Y-136.144
X134.66Y-76.962
X135.125Y-111.2
X135.125Y-112.975
X135.125Y-114.975
X135.125Y-116.9
X135.125Y-118.7
X135.125Y-120.325
X135.128Y-135.636
X135.575Y-83.85
X136.325Y-121.575
X136.398Y-136.398
X137.0Y-114.5
X137.16Y-137.414
X137.475Y-122.525
X137.907Y-136.398
X138.43Y-85.09
X138.5Y-114.5
X138.6Y-110.625
X138.6Y-137.425
X138.684Y-139.192
X139.1Y-122.55
X139.344Y-84.48
X140.208Y-134.62
X140.75Y-113.0
X140.97Y-135.382
X141.025Y-122.55
X141.732Y-134.366
X141.732Y-136.144
X142.1Y-83.95
X142.5Y-113.0
X142.748Y-135.382
X143.4Y-122.55
X143.65Y-137.4
X143.764Y-136.144
X144.272Y-133.604
X144.75Y-113.5
X145.288Y-134.62
X145.6Y-122.575
X146.304Y-135.89
X146.8Y-114.6
X146.812Y-133.858
X147.025Y-77.325
X147.32Y-90.221
X147.497Y-89.237
X147.574Y-136.398
X147.875Y-122.575
X148.082Y-132.334
X148.082Y-134.874
X148.425Y-76.1
X148.625Y-111.8
X148.7Y-137.475
X149.098Y-133.35
X149.098Y-136.144
X149.606Y-132.334
X150.114Y-134.62
X150.75Y-122.575
X150.775Y-85.925
X150.876Y-132.334
X150.876Y-133.858
X151.13Y-135.636
X151.892Y-133.096
X152.146Y-134.874
X152.146Y-136.398
X152.349Y-85.903
X152.908Y-131.572
X152.908Y-134.112
X153.416Y-136.398
X153.475Y-122.575
X153.5Y-101.25
X153.5Y-103.0
X153.55Y-97.1
X153.575Y-95.4
X153.65Y-137.475
X153.67Y-132.588
X153.924Y-135.128
X154.178Y-131.318
X154.686Y-133.604
X154.94Y-132.334
X154.94Y-136.144
X155.448Y-131.318
X155.702Y-134.62
X155.956Y-133.096
X156.35Y-122.575
X156.718Y-131.826
X156.718Y-135.636
X156.972Y-133.858
X157.734Y-132.842
X157.988Y-134.874
X157.988Y-136.398
X157.988Y-137.414
X158.75Y-130.302
X158.75Y-133.858
X159.25Y-122.575
X159.258Y-135.89
X159.766Y-131.064
X159.766Y-134.874
X159.875Y-137.45
X160.0Y-65.75
X160.782Y-132.08
X160.782Y-135.89
X161.544Y-64.643
X161.798Y-133.096
X162.425Y-122.575
X162.814Y-129.54
X162.814Y-134.112
X163.83Y-130.556
X163.83Y-135.128
X164.338Y-73.533
X164.719Y-59.817
X164.846Y-131.572
X164.846Y-136.144
X164.9Y-137.5
X165.1Y-62.357
X165.862Y-132.588
X166.116Y-128.27
X166.475Y-122.625
X166.624Y-66.421
X166.751Y-77.47
X166.878Y-68.453
X166.878Y-133.604
X167.132Y-129.286
X167.325Y-89.225
X167.894Y-134.62
X168.148Y-130.302
X168.402Y-67.183
X168.91Y-75.819
X168.91Y-135.636
X169.164Y-131.318
X169.425Y-122.6
X169.9Y-83.175
X169.925Y-137.45
X170.0Y-80.0
X170.053Y-67.056
X170.18Y-132.334
X171.196Y-126.492
X171.196Y-133.35
X172.0Y-87.0
X172.085Y-77.47
X172.212Y-127.508
X172.212Y-134.366
X172.325Y-122.575
X172.466Y-59.944
X172.593Y-62.23
X172.974Y-126.492
X173.228Y-128.524
X173.228Y-135.382
X173.6Y-121.5
X173.625Y-118.075
X173.625Y-119.9
X174.244Y-126.492
X174.244Y-129.54
X174.371Y-70.612
X174.625Y-73.025
X174.625Y-75.311
X174.875Y-137.475
X174.925Y-115.075
X174.925Y-116.85
X175.26Y-130.556
X175.3Y-111.9
X175.514Y-126.492
X175.641Y-64.643
X176.025Y-94.35
X176.975Y-119.6
X176.975Y-124.625
X176.975Y-129.5
X177.025Y-134.45
X177.038Y-72.644
X178.562Y-134.366
X178.562Y-135.89
X178.689Y-72.771
X179.324Y-137.414
X180.175Y-94.35
X180.725Y-111.925
X180.975Y-74.93
X182.2Y-64.7
X182.4Y-146.15
X182.6Y-80.8
X182.825Y-142.95
X183.225Y-149.325
X183.642Y-72.771
X183.7Y-67.7
X183.8Y-61.5
X184.8Y-76.6
X184.8Y-90.0
X186.3Y-60.4
X186.375Y-141.675
X186.4Y-68.8
X186.45Y-150.55
X187.706Y-72.771
X187.706Y-74.041
X187.833Y-70.612
X189.2Y-67.6
X189.3Y-61.6
X189.625Y-149.425
X189.75Y-143.2
X190.2Y-76.6
X190.3Y-90.0
X190.7Y-64.6
X190.8Y-94.825
X190.8Y-97.175
X190.8Y-99.675
X190.8Y-102.075
X191.3Y-146.3
T3
X105.0Y-64.5
X105.0Y-146.2
X105.703Y-62.803
X105.703Y-66.197
X105.703Y-144.503
X105.703Y-147.897
X107.4Y-62.1
X107.4Y-66.9
X107.4Y-143.8
X107.4Y-148.6
X109.097Y-62.803
X109.097Y-66.197
X109.097Y-144.503
X109.097Y-147.897
X109.8Y-64.5
X109.8Y-146.2
X184.0Y-64.5
X184.0Y-146.2
X184.703Y-62.803
X184.703Y-66.197
X184.703Y-144.503
X184.703Y-147.897
X186.4Y-62.1
X186.4Y-66.9
X186.4Y-143.8
X186.4Y-148.6
X188.097Y-62.803
X188.097Y-66.197
X188.097Y-144.503
X188.097Y-147.897
X188.8Y-64.5
X188.8Y-146.2
T4
X125.7Y-68.15
X125.7Y-70.69
X156.125Y-68.25
X156.125Y-70.79
X160.075Y-68.245
X160.075Y-70.785
X160.075Y-73.325
X177.95Y-89.27
X177.95Y-91.81
X177.95Y-94.35
X177.95Y-106.77
X177.95Y-109.31
X177.95Y-111.85
X180.975Y-70.104
X180.975Y-72.644
X190.5Y-70.226
X190.5Y-72.766
T5
X134.51Y-64.225
X137.05Y-64.225
X146.43Y-64.225
X148.97Y-64.225
T6
X108.675Y-98.825
X108.675Y-103.825
X108.675Y-108.825
X108.675Y-113.825
X108.675Y-119.95
X108.675Y-124.95
X108.675Y-129.95
X108.675Y-134.95
X108.75Y-72.85
X108.75Y-77.85
X108.75Y-82.85
X108.75Y-87.85
X118.9Y-145.455
X123.9Y-145.455
X128.9Y-145.455
X133.9Y-145.455
X140.075Y-145.475
X145.075Y-145.475
X150.075Y-145.475
X155.075Y-145.475
X161.275Y-145.475
X166.275Y-145.475
X171.275Y-145.475
X176.275Y-145.475
X185.03Y-118.15
X185.03Y-123.15
X185.03Y-128.15
X185.03Y-133.15
T7
X107.4Y-64.5
X107.4Y-146.2
X186.4Y-64.5
X186.4Y-146.2
T8
X123.3Y-59.945
X126.3Y-59.945
X187.375Y-81.1
X187.375Y-85.5
T9
X134.51Y-61.685
X137.05Y-61.685
X146.43Y-61.685
X148.97Y-61.685
T0
M30
