%TF.GenerationSoftware,KiCad,Pcbnew,7.0.7*%
%TF.CreationDate,2024-04-15T16:49:56-05:00*%
%TF.ProjectId,Rev2.1,52657632-2e31-42e6-9b69-6361645f7063,rev?*%
%TF.SameCoordinates,Original*%
%TF.FileFunction,Copper,L4,Bot*%
%TF.FilePolarity,Positive*%
%FSLAX46Y46*%
G04 Gerber Fmt 4.6, Leading zero omitted, Abs format (unit mm)*
G04 Created by KiCad (PCBNEW 7.0.7) date 2024-04-15 16:49:56*
%MOMM*%
%LPD*%
G01*
G04 APERTURE LIST*
%TA.AperFunction,ComponentPad*%
%ADD10C,0.800000*%
%TD*%
%TA.AperFunction,ComponentPad*%
%ADD11C,6.400000*%
%TD*%
%TA.AperFunction,ComponentPad*%
%ADD12O,2.100000X1.000000*%
%TD*%
%TA.AperFunction,ComponentPad*%
%ADD13O,1.800000X1.000000*%
%TD*%
%TA.AperFunction,ComponentPad*%
%ADD14R,1.700000X1.700000*%
%TD*%
%TA.AperFunction,ComponentPad*%
%ADD15O,1.700000X1.700000*%
%TD*%
%TA.AperFunction,ComponentPad*%
%ADD16R,2.200000X2.200000*%
%TD*%
%TA.AperFunction,ComponentPad*%
%ADD17C,2.200000*%
%TD*%
%TA.AperFunction,ComponentPad*%
%ADD18R,2.600000X2.600000*%
%TD*%
%TA.AperFunction,ComponentPad*%
%ADD19C,2.600000*%
%TD*%
%TA.AperFunction,ComponentPad*%
%ADD20C,0.500000*%
%TD*%
%TA.AperFunction,SMDPad,CuDef*%
%ADD21R,2.500000X2.500000*%
%TD*%
%TA.AperFunction,ComponentPad*%
%ADD22R,1.500000X1.500000*%
%TD*%
%TA.AperFunction,ComponentPad*%
%ADD23C,1.500000*%
%TD*%
%TA.AperFunction,ComponentPad*%
%ADD24C,2.300000*%
%TD*%
%TA.AperFunction,ViaPad*%
%ADD25C,0.800000*%
%TD*%
%TA.AperFunction,ViaPad*%
%ADD26C,0.500000*%
%TD*%
%TA.AperFunction,Conductor*%
%ADD27C,0.250000*%
%TD*%
%TA.AperFunction,Conductor*%
%ADD28C,0.150000*%
%TD*%
%TA.AperFunction,Conductor*%
%ADD29C,0.121700*%
%TD*%
%TA.AperFunction,Conductor*%
%ADD30C,0.100000*%
%TD*%
G04 APERTURE END LIST*
D10*
%TO.P,H4,1,1*%
%TO.N,GND*%
X184000000Y-64500000D03*
X184702944Y-62802944D03*
X184702944Y-66197056D03*
X186400000Y-62100000D03*
D11*
X186400000Y-64500000D03*
D10*
X186400000Y-66900000D03*
X188097056Y-62802944D03*
X188097056Y-66197056D03*
X188800000Y-64500000D03*
%TD*%
D12*
%TO.P,P2,S1,SHIELD*%
%TO.N,GND*%
X185895000Y-103720000D03*
D13*
X190075000Y-103720000D03*
D12*
X185895000Y-95080000D03*
D13*
X190075000Y-95080000D03*
%TD*%
D14*
%TO.P,J12,1,Pin_1*%
%TO.N,+5V*%
X176025000Y-61700000D03*
D15*
%TO.P,J12,2,Pin_2*%
%TO.N,GND*%
X178565000Y-61700000D03*
%TD*%
D16*
%TO.P,J2,1,Pin_1*%
%TO.N,/CAN2-*%
X137050000Y-64225000D03*
D17*
%TO.P,J2,2,Pin_2*%
%TO.N,/CAN2+*%
X134510000Y-64225000D03*
%TD*%
D18*
%TO.P,J7,1,Pin_1*%
%TO.N,GPIO1*%
X108750000Y-72850000D03*
D19*
%TO.P,J7,2,Pin_2*%
%TO.N,GPIO2*%
X108750000Y-77850000D03*
%TO.P,J7,3,Pin_3*%
%TO.N,GPIO3*%
X108750000Y-82850000D03*
%TO.P,J7,4,Pin_4*%
%TO.N,GPIO4*%
X108750000Y-87850000D03*
%TD*%
D10*
%TO.P,H1,1,1*%
%TO.N,GND*%
X105000000Y-64500000D03*
X105702944Y-62802944D03*
X105702944Y-66197056D03*
X107400000Y-62100000D03*
D11*
X107400000Y-64500000D03*
D10*
X107400000Y-66900000D03*
X109097056Y-62802944D03*
X109097056Y-66197056D03*
X109800000Y-64500000D03*
%TD*%
%TO.P,H2,1,1*%
%TO.N,GND*%
X105000000Y-146200000D03*
X105702944Y-144502944D03*
X105702944Y-147897056D03*
X107400000Y-143800000D03*
D11*
X107400000Y-146200000D03*
D10*
X107400000Y-148600000D03*
X109097056Y-144502944D03*
X109097056Y-147897056D03*
X109800000Y-146200000D03*
%TD*%
D14*
%TO.P,J3,1,Pin_1*%
%TO.N,/CAN1-*%
X156125000Y-68250000D03*
D15*
%TO.P,J3,2,Pin_2*%
%TO.N,/CAN1+*%
X156125000Y-70790000D03*
%TD*%
D14*
%TO.P,J11,1,Pin_1*%
%TO.N,+3.3V*%
X179200000Y-68950000D03*
D15*
%TO.P,J11,2,Pin_2*%
%TO.N,GND*%
X179200000Y-71490000D03*
%TD*%
D20*
%TO.P,U8,25,VSS*%
%TO.N,GND*%
X157750000Y-115425000D03*
X157750000Y-114425000D03*
X157750000Y-113425000D03*
X156750000Y-115425000D03*
X156750000Y-114425000D03*
D21*
X156750000Y-114425000D03*
D20*
X156750000Y-113425000D03*
X155750000Y-115425000D03*
X155750000Y-114425000D03*
X155750000Y-113425000D03*
%TD*%
D14*
%TO.P,J1,1,Pin_1*%
%TO.N,/CAN2-*%
X125700000Y-68150000D03*
D15*
%TO.P,J1,2,Pin_2*%
%TO.N,/CAN2+*%
X125700000Y-70690000D03*
%TD*%
D18*
%TO.P,J9,1,Pin_1*%
%TO.N,Net-(J9-Pin_1)*%
X129800000Y-145280000D03*
D19*
%TO.P,J9,2,Pin_2*%
%TO.N,Net-(J9-Pin_2)*%
X134800000Y-145280000D03*
%TO.P,J9,3,Pin_3*%
%TO.N,Net-(J9-Pin_3)*%
X139800000Y-145280000D03*
%TO.P,J9,4,Pin_4*%
%TO.N,Net-(J9-Pin_4)*%
X144800000Y-145280000D03*
%TD*%
D14*
%TO.P,J5,1,Pin_1*%
%TO.N,SYS_JTMS_SWDIO*%
X160075000Y-73325000D03*
D15*
%TO.P,J5,2,Pin_2*%
%TO.N,SYS_JTCK_SWCLK*%
X160075000Y-70785000D03*
%TO.P,J5,3,Pin_3*%
%TO.N,GND*%
X160075000Y-68245000D03*
%TD*%
D16*
%TO.P,J4,1,Pin_1*%
%TO.N,/CAN1-*%
X148970000Y-64225000D03*
D17*
%TO.P,J4,2,Pin_2*%
%TO.N,/CAN1+*%
X146430000Y-64225000D03*
%TD*%
D18*
%TO.P,J14,1,Pin_1*%
%TO.N,GPIO5*%
X108780000Y-93950000D03*
D19*
%TO.P,J14,2,Pin_2*%
%TO.N,GPIO6*%
X108780000Y-98950000D03*
%TO.P,J14,3,Pin_3*%
%TO.N,GPIO7*%
X108780000Y-103950000D03*
%TO.P,J14,4,Pin_4*%
%TO.N,GPIO8*%
X108780000Y-108950000D03*
%TD*%
D22*
%TO.P,J13,1*%
%TO.N,/Ethernet/TX->ESD+*%
X183800000Y-136500000D03*
D23*
%TO.P,J13,2*%
%TO.N,/Ethernet/TX->ESD-*%
X182020000Y-137516000D03*
%TO.P,J13,3*%
%TO.N,/Ethernet/RX->ESD+*%
X183800000Y-138532000D03*
%TO.P,J13,4*%
%TO.N,Net-(J13-Pad4)*%
X182020000Y-139548000D03*
%TO.P,J13,5*%
X183800000Y-140564000D03*
%TO.P,J13,6*%
%TO.N,/Ethernet/RX->ESD-*%
X182020000Y-141580000D03*
%TO.P,J13,7*%
%TO.N,Net-(J13-Pad7)*%
X183800000Y-142596000D03*
%TO.P,J13,8*%
X182020000Y-143612000D03*
%TO.P,J13,9*%
%TO.N,Net-(J13-Pad9)*%
X177200000Y-133200000D03*
%TO.P,J13,10*%
%TO.N,INTSEL_LED*%
X177200000Y-135490000D03*
%TO.P,J13,11*%
%TO.N,Net-(J13-Pad11)*%
X177200000Y-144630000D03*
%TO.P,J13,12*%
%TO.N,REGOFF_LED*%
X177200000Y-146920000D03*
D24*
%TO.P,J13,SH*%
%TO.N,N/C*%
X182910000Y-131930000D03*
X182910000Y-148190000D03*
%TD*%
D14*
%TO.P,J10,1,Pin_1*%
%TO.N,GP5*%
X178400000Y-127135000D03*
D15*
%TO.P,J10,2,Pin_2*%
%TO.N,GP4*%
X178400000Y-124595000D03*
%TO.P,J10,3,Pin_3*%
%TO.N,GP3*%
X178400000Y-122055000D03*
%TO.P,J10,4,Pin_4*%
%TO.N,GP2*%
X178400000Y-119515000D03*
%TO.P,J10,5,Pin_5*%
%TO.N,GP1*%
X178400000Y-116975000D03*
%TO.P,J10,6,Pin_6*%
%TO.N,GP0*%
X178400000Y-114435000D03*
%TO.P,J10,7,Pin_7*%
%TO.N,CTS*%
X178400000Y-111895000D03*
%TO.P,J10,8,Pin_8*%
%TO.N,RTS*%
X178400000Y-109355000D03*
%TD*%
D10*
%TO.P,H3,1,1*%
%TO.N,GND*%
X184000000Y-122900000D03*
X184702944Y-121202944D03*
X184702944Y-124597056D03*
X186400000Y-120500000D03*
D11*
X186400000Y-122900000D03*
D10*
X186400000Y-125300000D03*
X188097056Y-121202944D03*
X188097056Y-124597056D03*
X188800000Y-122900000D03*
%TD*%
D18*
%TO.P,J8,1,Pin_1*%
%TO.N,Net-(J8-Pin_1)*%
X108550000Y-121550000D03*
D19*
%TO.P,J8,2,Pin_2*%
%TO.N,Net-(J8-Pin_2)*%
X108550000Y-126550000D03*
%TO.P,J8,3,Pin_3*%
%TO.N,Net-(J8-Pin_3)*%
X108550000Y-131550000D03*
%TO.P,J8,4,Pin_4*%
%TO.N,Net-(J8-Pin_4)*%
X108550000Y-136550000D03*
%TD*%
D25*
%TO.N,+3.3V*%
X150775000Y-85925000D03*
X127100000Y-62775000D03*
X169550000Y-131700000D03*
X138600000Y-110625000D03*
X157683200Y-96469200D03*
X138500000Y-114500000D03*
X142500000Y-113000000D03*
X156508212Y-111232704D03*
X148625000Y-111800000D03*
X125750000Y-98750000D03*
X128700000Y-92300000D03*
X163525000Y-126350000D03*
X150750000Y-103700000D03*
X127675000Y-74500000D03*
X127625000Y-85650000D03*
X121650000Y-78375000D03*
X167900000Y-123100000D03*
X139344400Y-84480400D03*
X159721459Y-115713128D03*
X131250000Y-107500000D03*
X120294400Y-104190800D03*
X122936000Y-107086400D03*
X147497403Y-89237168D03*
X130375000Y-79025000D03*
X164800000Y-68925000D03*
X126425000Y-84950000D03*
X167400000Y-67300000D03*
X152196800Y-94132400D03*
X153800000Y-116500000D03*
X158118772Y-110581228D03*
X153500000Y-101250000D03*
X120853200Y-109728000D03*
X153822400Y-94132400D03*
X163800000Y-101200000D03*
X170500000Y-120600000D03*
X135575000Y-83850000D03*
%TO.N,GND*%
X170750000Y-112500000D03*
X130167358Y-107417358D03*
X190000000Y-93700000D03*
X107300000Y-60500000D03*
X182200000Y-64700000D03*
X186400000Y-68800000D03*
X162000000Y-95750000D03*
X178600000Y-59400000D03*
X122500000Y-92500000D03*
X152196800Y-98348800D03*
X170750000Y-102250000D03*
X183800000Y-95500000D03*
X147025000Y-77325000D03*
X183200000Y-125900000D03*
X140750000Y-113000000D03*
X182700000Y-62400000D03*
X138430000Y-85090000D03*
X138500000Y-131000000D03*
X183800000Y-61500000D03*
X190100000Y-104900000D03*
X162000000Y-140300000D03*
X116400000Y-59400000D03*
X182600000Y-80800000D03*
X121380900Y-96666800D03*
X170700000Y-132600000D03*
X137000000Y-114500000D03*
X179200000Y-73800000D03*
X185900000Y-93800000D03*
X129250000Y-75500000D03*
X175500000Y-73000000D03*
X142500000Y-131000000D03*
X120700000Y-132500000D03*
X147075000Y-127810000D03*
X187250000Y-107250000D03*
X183900000Y-103300000D03*
X135250000Y-131000000D03*
X170750000Y-110750000D03*
X133075000Y-77225000D03*
X186400000Y-126900000D03*
X188900000Y-126000000D03*
X164875362Y-123181410D03*
X167000000Y-114000000D03*
X104100000Y-67200000D03*
X153500000Y-103000000D03*
X172000000Y-87000000D03*
X190500000Y-123100000D03*
X158000000Y-90250000D03*
X177000000Y-71500000D03*
X152349200Y-85902800D03*
X190300000Y-90000000D03*
X120396000Y-106019600D03*
X185800000Y-105000000D03*
X168750000Y-97500000D03*
X155346400Y-94132400D03*
X103100000Y-64500000D03*
X128778000Y-104749600D03*
X159750000Y-90000000D03*
X130500000Y-132250000D03*
X111600000Y-64800000D03*
X166275000Y-128700000D03*
X189200000Y-67600000D03*
X142100000Y-83950000D03*
X107400000Y-68500000D03*
X162500000Y-114250000D03*
X184800000Y-90000000D03*
X167300000Y-144600000D03*
X127558800Y-83921600D03*
X147075000Y-126050000D03*
X110400000Y-143000000D03*
X120700000Y-125825000D03*
X183700000Y-67700000D03*
X104300000Y-61700000D03*
X122025000Y-97600000D03*
X123500000Y-96750000D03*
X148250000Y-119000000D03*
X149250000Y-142250000D03*
X183500000Y-119700000D03*
X103100000Y-146000000D03*
X190200000Y-76600000D03*
X182100000Y-122800000D03*
X172750000Y-98000000D03*
X107400000Y-142100000D03*
X170000000Y-80000000D03*
X186300000Y-60400000D03*
X146800000Y-114600000D03*
X184800000Y-76600000D03*
X189300000Y-61600000D03*
X110400000Y-149200000D03*
X170925000Y-123125000D03*
X125444330Y-104120301D03*
X111700000Y-146400000D03*
X160375000Y-111950000D03*
X144750000Y-113500000D03*
X126824500Y-79000000D03*
X107400000Y-150300000D03*
X166900000Y-147000000D03*
X120725000Y-135925000D03*
X168500000Y-65500000D03*
X110400000Y-61700000D03*
X122500000Y-62900000D03*
X120700000Y-129250000D03*
X127769306Y-79055694D03*
X186400000Y-118700000D03*
X148250000Y-123250000D03*
X147320000Y-90220800D03*
X110500000Y-67700000D03*
X149625000Y-110375000D03*
X103900000Y-143400000D03*
X160000000Y-65750000D03*
X187250000Y-112250000D03*
X190700000Y-64600000D03*
X189400000Y-120000000D03*
X104500000Y-149300000D03*
%TO.N,Net-(C11-Pad1)*%
X156300000Y-119100000D03*
X150750000Y-119000000D03*
X160850000Y-119400000D03*
X154500000Y-119500000D03*
%TO.N,+5V*%
X183700000Y-101900000D03*
X176000000Y-64300000D03*
X134775000Y-76125000D03*
X176000000Y-59300000D03*
X174550000Y-100850000D03*
X169900000Y-83175000D03*
X183900000Y-97000000D03*
X167325000Y-89225000D03*
X148425000Y-76100000D03*
%TO.N,Net-(D1-A)*%
X175500000Y-107000000D03*
X165000000Y-105500000D03*
%TO.N,Net-(D2-A)*%
X165250000Y-103750000D03*
X175500000Y-105750000D03*
%TO.N,GP5*%
X163250000Y-105250000D03*
X169500000Y-107750000D03*
%TO.N,GP4*%
X162750000Y-106500000D03*
X171250000Y-108250000D03*
%TO.N,GP3*%
X164750000Y-109250000D03*
X175000000Y-120000000D03*
%TO.N,CTS*%
X173150000Y-106100000D03*
X168900000Y-106325500D03*
%TO.N,RTS*%
X169500000Y-109500000D03*
X176200000Y-108450000D03*
D26*
%TO.N,/Ethernet/TX+*%
X161983833Y-124843147D03*
X161325000Y-122910302D03*
%TO.N,/Ethernet/TX-*%
X160525000Y-122910302D03*
X161418147Y-125408833D03*
%TO.N,/Ethernet/RX+*%
X154975000Y-124773300D03*
X154975000Y-122910302D03*
D25*
%TO.N,Net-(J13-Pad4)*%
X189300000Y-145500000D03*
X187500000Y-143300000D03*
D26*
%TO.N,/Ethernet/RX-*%
X154175000Y-122910302D03*
X154175000Y-124773300D03*
D25*
%TO.N,ETH_REF_CLK*%
X105150500Y-129400000D03*
X106600000Y-129200000D03*
%TO.N,Net-(U8-RXER{slash}PHYAD0)*%
X153609621Y-111466723D03*
X155583810Y-110774042D03*
%TO.N,ETH_TX_EN*%
X142700000Y-110550000D03*
X149575000Y-118925000D03*
%TO.N,ETH_TXD0*%
X151696766Y-114303234D03*
X146039623Y-104331611D03*
%TO.N,ETH_TXD1*%
X146745603Y-105039140D03*
X151650000Y-115825000D03*
%TO.N,USART1_TX*%
X160475000Y-107150000D03*
X147175000Y-98100000D03*
%TO.N,USART1_RX*%
X150825000Y-100125000D03*
X147000000Y-99425000D03*
%TO.N,LSM6DSOX_CS*%
X124350500Y-77825077D03*
X130600500Y-85750000D03*
%TO.N,LSM6DSOX_int1*%
X129625000Y-82000000D03*
X129950000Y-84875000D03*
%TD*%
D27*
%TO.N,+3.3V*%
X167900000Y-123100000D02*
X168175000Y-123100000D01*
%TO.N,Net-(C11-Pad1)*%
X154000000Y-119000000D02*
X150750000Y-119000000D01*
X154500000Y-119500000D02*
X154000000Y-119000000D01*
D28*
X156600000Y-119400000D02*
X156300000Y-119100000D01*
X160850000Y-119400000D02*
X156600000Y-119400000D01*
D27*
%TO.N,Net-(D1-A)*%
X175500000Y-107000000D02*
X166500000Y-107000000D01*
X166500000Y-107000000D02*
X165000000Y-105500000D01*
%TO.N,Net-(D2-A)*%
X166275000Y-104775000D02*
X165250000Y-103750000D01*
X174525000Y-104775000D02*
X166275000Y-104775000D01*
X175500000Y-105750000D02*
X174525000Y-104775000D01*
%TO.N,GP5*%
X165750000Y-107750000D02*
X169500000Y-107750000D01*
X163250000Y-105250000D02*
X165750000Y-107750000D01*
%TO.N,GP4*%
X164725000Y-108475000D02*
X171025000Y-108475000D01*
X171025000Y-108475000D02*
X171250000Y-108250000D01*
X162750000Y-106500000D02*
X164725000Y-108475000D01*
%TO.N,GP3*%
X175000000Y-119500000D02*
X175000000Y-120000000D01*
X164750000Y-109250000D02*
X175000000Y-119500000D01*
D28*
%TO.N,CTS*%
X169125500Y-106100000D02*
X173150000Y-106100000D01*
X168900000Y-106325500D02*
X169125500Y-106100000D01*
D27*
%TO.N,RTS*%
X175150000Y-109500000D02*
X169500000Y-109500000D01*
X176200000Y-108450000D02*
X175150000Y-109500000D01*
D29*
%TO.N,/Ethernet/TX+*%
X161087450Y-123282436D02*
X161087450Y-124282710D01*
X161647886Y-124843147D02*
X161983833Y-124843147D01*
X161185850Y-123184036D02*
X161087450Y-123282436D01*
X161185850Y-123049452D02*
X161185850Y-123184036D01*
X161325000Y-122910302D02*
X161185850Y-123049452D01*
X161087450Y-124282710D02*
X161647886Y-124843147D01*
%TO.N,/Ethernet/TX-*%
X161418147Y-125072886D02*
X161418147Y-125408833D01*
X160762550Y-124417290D02*
X161418147Y-125072886D01*
X160762550Y-123282436D02*
X160762550Y-124417290D01*
X160664150Y-123049452D02*
X160664150Y-123184036D01*
X160525000Y-122910302D02*
X160664150Y-123049452D01*
X160664150Y-123184036D02*
X160762550Y-123282436D01*
%TO.N,/Ethernet/RX+*%
X154835850Y-124634150D02*
X154975000Y-124773300D01*
X154975000Y-122910302D02*
X154835850Y-123049452D01*
X154835850Y-123184036D02*
X154737450Y-123282436D01*
X154835850Y-123049452D02*
X154835850Y-123184036D01*
X154737450Y-124401166D02*
X154835850Y-124499566D01*
X154737450Y-123282436D02*
X154737450Y-124401166D01*
X154835850Y-124499566D02*
X154835850Y-124634150D01*
D27*
%TO.N,Net-(J13-Pad4)*%
X187500000Y-143700000D02*
X187500000Y-143300000D01*
X189300000Y-145500000D02*
X187500000Y-143700000D01*
D29*
%TO.N,/Ethernet/RX-*%
X154314150Y-123049452D02*
X154314150Y-123184036D01*
X154314150Y-124634150D02*
X154175000Y-124773300D01*
X154314150Y-123184036D02*
X154412550Y-123282436D01*
X154412550Y-123282436D02*
X154412550Y-124401166D01*
X154175000Y-122910302D02*
X154314150Y-123049452D01*
X154412550Y-124401166D02*
X154314150Y-124499566D01*
X154314150Y-124499566D02*
X154314150Y-124634150D01*
D30*
%TO.N,ETH_REF_CLK*%
X106400000Y-129400000D02*
X106600000Y-129200000D01*
X105150500Y-129400000D02*
X106400000Y-129400000D01*
%TO.N,Net-(U8-RXER{slash}PHYAD0)*%
X154891129Y-111466723D02*
X153609621Y-111466723D01*
X155583810Y-110774042D02*
X154891129Y-111466723D01*
%TO.N,ETH_TX_EN*%
X143150000Y-112919239D02*
X143150000Y-111000000D01*
X149155761Y-118925000D02*
X143150000Y-112919239D01*
X143150000Y-111000000D02*
X142700000Y-110550000D01*
X149575000Y-118925000D02*
X149155761Y-118925000D01*
%TO.N,ETH_TXD0*%
X151696766Y-113366005D02*
X148900000Y-110569239D01*
X148800000Y-103700000D02*
X146671234Y-103700000D01*
X151696766Y-114303234D02*
X151696766Y-113366005D01*
X150000000Y-108200000D02*
X150000000Y-104900000D01*
X148900000Y-109300000D02*
X150000000Y-108200000D01*
X146671234Y-103700000D02*
X146039623Y-104331611D01*
X150000000Y-104900000D02*
X148800000Y-103700000D01*
X148900000Y-110569239D02*
X148900000Y-109300000D01*
%TO.N,ETH_TXD1*%
X149700000Y-105400000D02*
X149339140Y-105039140D01*
X148600000Y-108900000D02*
X149700000Y-107800000D01*
X151046766Y-115221766D02*
X151046766Y-113140269D01*
X151046766Y-113140269D02*
X148600000Y-110693503D01*
X149700000Y-107800000D02*
X149700000Y-105400000D01*
X151650000Y-115825000D02*
X151046766Y-115221766D01*
X149339140Y-105039140D02*
X146745603Y-105039140D01*
X148600000Y-110693503D02*
X148600000Y-108900000D01*
D27*
%TO.N,USART1_TX*%
X160475000Y-107150000D02*
X152398800Y-99073800D01*
X148148800Y-99073800D02*
X147175000Y-98100000D01*
X152398800Y-99073800D02*
X148148800Y-99073800D01*
%TO.N,USART1_RX*%
X147700000Y-100125000D02*
X147000000Y-99425000D01*
X150825000Y-100125000D02*
X147700000Y-100125000D01*
D28*
%TO.N,LSM6DSOX_CS*%
X130900000Y-85450500D02*
X130600500Y-85750000D01*
X128475000Y-79775000D02*
X130900000Y-82200000D01*
X124350500Y-77825077D02*
X126300423Y-79775000D01*
X126300423Y-79775000D02*
X128475000Y-79775000D01*
X130900000Y-82200000D02*
X130900000Y-85450500D01*
%TO.N,LSM6DSOX_int1*%
X129950000Y-84875000D02*
X129950000Y-82325000D01*
X129950000Y-82325000D02*
X129625000Y-82000000D01*
%TD*%
M02*
