%TF.GenerationSoftware,KiCad,Pcbnew,7.0.7*%
%TF.CreationDate,2024-06-14T16:47:01-05:00*%
%TF.ProjectId,Rev2.2,52657632-2e32-42e6-9b69-6361645f7063,rev?*%
%TF.SameCoordinates,Original*%
%TF.FileFunction,Copper,L4,Bot*%
%TF.FilePolarity,Positive*%
%FSLAX46Y46*%
G04 Gerber Fmt 4.6, Leading zero omitted, Abs format (unit mm)*
G04 Created by KiCad (PCBNEW 7.0.7) date 2024-06-14 16:47:01*
%MOMM*%
%LPD*%
G01*
G04 APERTURE LIST*
%TA.AperFunction,ComponentPad*%
%ADD10R,2.600000X2.600000*%
%TD*%
%TA.AperFunction,ComponentPad*%
%ADD11C,2.600000*%
%TD*%
%TA.AperFunction,ComponentPad*%
%ADD12C,0.800000*%
%TD*%
%TA.AperFunction,ComponentPad*%
%ADD13C,6.400000*%
%TD*%
%TA.AperFunction,ComponentPad*%
%ADD14R,1.700000X1.700000*%
%TD*%
%TA.AperFunction,ComponentPad*%
%ADD15O,1.700000X1.700000*%
%TD*%
%TA.AperFunction,ComponentPad*%
%ADD16R,2.200000X2.200000*%
%TD*%
%TA.AperFunction,ComponentPad*%
%ADD17C,2.200000*%
%TD*%
%TA.AperFunction,ViaPad*%
%ADD18C,0.800000*%
%TD*%
%TA.AperFunction,ViaPad*%
%ADD19C,0.500000*%
%TD*%
%TA.AperFunction,Conductor*%
%ADD20C,0.150000*%
%TD*%
G04 APERTURE END LIST*
D10*
%TO.P,J13,1,Pin_1*%
%TO.N,Net-(J13-Pin_1)*%
X108675000Y-98825000D03*
D11*
%TO.P,J13,2,Pin_2*%
%TO.N,Net-(J13-Pin_2)*%
X108675000Y-103825000D03*
%TO.P,J13,3,Pin_3*%
%TO.N,Net-(J13-Pin_3)*%
X108675000Y-108825000D03*
%TO.P,J13,4,Pin_4*%
%TO.N,Net-(J13-Pin_4)*%
X108675000Y-113825000D03*
%TD*%
D12*
%TO.P,H4,1,1*%
%TO.N,GND*%
X184000000Y-64500000D03*
X184702944Y-62802944D03*
X184702944Y-66197056D03*
X186400000Y-62100000D03*
D13*
X186400000Y-64500000D03*
D12*
X186400000Y-66900000D03*
X188097056Y-62802944D03*
X188097056Y-66197056D03*
X188800000Y-64500000D03*
%TD*%
D14*
%TO.P,J12,1,Pin_1*%
%TO.N,+5V*%
X190500000Y-70226000D03*
D15*
%TO.P,J12,2,Pin_2*%
%TO.N,GND*%
X190500000Y-72766000D03*
%TD*%
D16*
%TO.P,J2,1,Pin_1*%
%TO.N,/CAN2-*%
X137050000Y-64225000D03*
D17*
%TO.P,J2,2,Pin_2*%
%TO.N,/CAN2+*%
X134510000Y-64225000D03*
%TD*%
D10*
%TO.P,J7,1,Pin_1*%
%TO.N,GPIO1*%
X108750000Y-72850000D03*
D11*
%TO.P,J7,2,Pin_2*%
%TO.N,GPIO2*%
X108750000Y-77850000D03*
%TO.P,J7,3,Pin_3*%
%TO.N,GPIO3*%
X108750000Y-82850000D03*
%TO.P,J7,4,Pin_4*%
%TO.N,GPIO4*%
X108750000Y-87850000D03*
%TD*%
D10*
%TO.P,J16,1,Pin_1*%
%TO.N,Net-(J16-Pin_1)*%
X108675000Y-119950000D03*
D11*
%TO.P,J16,2,Pin_2*%
%TO.N,Net-(J16-Pin_2)*%
X108675000Y-124950000D03*
%TO.P,J16,3,Pin_3*%
%TO.N,Net-(J16-Pin_3)*%
X108675000Y-129950000D03*
%TO.P,J16,4,Pin_4*%
%TO.N,Net-(J16-Pin_4)*%
X108675000Y-134950000D03*
%TD*%
D12*
%TO.P,H1,1,1*%
%TO.N,GND*%
X105000000Y-64500000D03*
X105702944Y-62802944D03*
X105702944Y-66197056D03*
X107400000Y-62100000D03*
D13*
X107400000Y-64500000D03*
D12*
X107400000Y-66900000D03*
X109097056Y-62802944D03*
X109097056Y-66197056D03*
X109800000Y-64500000D03*
%TD*%
%TO.P,H2,1,1*%
%TO.N,GND*%
X105000000Y-146200000D03*
X105702944Y-144502944D03*
X105702944Y-147897056D03*
X107400000Y-143800000D03*
D13*
X107400000Y-146200000D03*
D12*
X107400000Y-148600000D03*
X109097056Y-144502944D03*
X109097056Y-147897056D03*
X109800000Y-146200000D03*
%TD*%
D10*
%TO.P,J9,1,Pin_1*%
%TO.N,Net-(J9-Pin_1)*%
X161275000Y-145475000D03*
D11*
%TO.P,J9,2,Pin_2*%
%TO.N,Net-(J9-Pin_2)*%
X166275000Y-145475000D03*
%TO.P,J9,3,Pin_3*%
%TO.N,Net-(J9-Pin_3)*%
X171275000Y-145475000D03*
%TO.P,J9,4,Pin_4*%
%TO.N,Net-(J9-Pin_4)*%
X176275000Y-145475000D03*
%TD*%
D14*
%TO.P,J3,1,Pin_1*%
%TO.N,/CAN1-*%
X156125000Y-68250000D03*
D15*
%TO.P,J3,2,Pin_2*%
%TO.N,/CAN1+*%
X156125000Y-70790000D03*
%TD*%
D14*
%TO.P,J11,1,Pin_1*%
%TO.N,+3.3V*%
X180975000Y-70104000D03*
D15*
%TO.P,J11,2,Pin_2*%
%TO.N,GND*%
X180975000Y-72644000D03*
%TD*%
D10*
%TO.P,J18,1,Pin_1*%
%TO.N,Net-(J18-Pin_1)*%
X118900000Y-145455000D03*
D11*
%TO.P,J18,2,Pin_2*%
%TO.N,Net-(J18-Pin_2)*%
X123900000Y-145455000D03*
%TO.P,J18,3,Pin_3*%
%TO.N,Net-(J18-Pin_3)*%
X128900000Y-145455000D03*
%TO.P,J18,4,Pin_4*%
%TO.N,Net-(J18-Pin_4)*%
X133900000Y-145455000D03*
%TD*%
D10*
%TO.P,J8,1,Pin_1*%
%TO.N,Net-(J8-Pin_1)*%
X185030000Y-133150000D03*
D11*
%TO.P,J8,2,Pin_2*%
%TO.N,Net-(J8-Pin_2)*%
X185030000Y-128150000D03*
%TO.P,J8,3,Pin_3*%
%TO.N,Net-(J8-Pin_3)*%
X185030000Y-123150000D03*
%TO.P,J8,4,Pin_4*%
%TO.N,Net-(J8-Pin_4)*%
X185030000Y-118150000D03*
%TD*%
D14*
%TO.P,J1,1,Pin_1*%
%TO.N,/CAN2-*%
X125700000Y-68150000D03*
D15*
%TO.P,J1,2,Pin_2*%
%TO.N,/CAN2+*%
X125700000Y-70690000D03*
%TD*%
D14*
%TO.P,J15,1,Pin_1*%
%TO.N,USART6_RX*%
X177950000Y-89270000D03*
D15*
%TO.P,J15,2,Pin_2*%
%TO.N,USART6_TX*%
X177950000Y-91810000D03*
%TO.P,J15,3,Pin_3*%
%TO.N,GND*%
X177950000Y-94350000D03*
%TD*%
D14*
%TO.P,J5,1,Pin_1*%
%TO.N,SYS_JTMS_SWDIO*%
X160075000Y-73325000D03*
D15*
%TO.P,J5,2,Pin_2*%
%TO.N,SYS_JTCK_SWCLK*%
X160075000Y-70785000D03*
%TO.P,J5,3,Pin_3*%
%TO.N,GND*%
X160075000Y-68245000D03*
%TD*%
D10*
%TO.P,J17,1,Pin_1*%
%TO.N,Net-(J17-Pin_1)*%
X140075000Y-145475000D03*
D11*
%TO.P,J17,2,Pin_2*%
%TO.N,Net-(J17-Pin_2)*%
X145075000Y-145475000D03*
%TO.P,J17,3,Pin_3*%
%TO.N,Net-(J17-Pin_3)*%
X150075000Y-145475000D03*
%TO.P,J17,4,Pin_4*%
%TO.N,Net-(J17-Pin_4)*%
X155075000Y-145475000D03*
%TD*%
D16*
%TO.P,J4,1,Pin_1*%
%TO.N,/CAN1-*%
X148970000Y-64225000D03*
D17*
%TO.P,J4,2,Pin_2*%
%TO.N,/CAN1+*%
X146430000Y-64225000D03*
%TD*%
D12*
%TO.P,H3,1,1*%
%TO.N,GND*%
X184000000Y-146200000D03*
X184702944Y-144502944D03*
X184702944Y-147897056D03*
X186400000Y-143800000D03*
D13*
X186400000Y-146200000D03*
D12*
X186400000Y-148600000D03*
X188097056Y-144502944D03*
X188097056Y-147897056D03*
X188800000Y-146200000D03*
%TD*%
D14*
%TO.P,J10,1,Pin_1*%
%TO.N,USART1_RX*%
X177950000Y-106770000D03*
D15*
%TO.P,J10,2,Pin_2*%
%TO.N,USART1_TX*%
X177950000Y-109310000D03*
%TO.P,J10,3,Pin_3*%
%TO.N,GND*%
X177950000Y-111850000D03*
%TD*%
D18*
%TO.N,+3.3V*%
X150775000Y-85925000D03*
X127100000Y-62775000D03*
X138600000Y-110625000D03*
X138500000Y-114500000D03*
X142500000Y-113000000D03*
X148625000Y-111800000D03*
X129017271Y-98298000D03*
X153575000Y-95400000D03*
X128700000Y-92300000D03*
X166751000Y-77470000D03*
X127675000Y-74500000D03*
X127625000Y-85650000D03*
X121650000Y-78375000D03*
X164338000Y-73533000D03*
X139344400Y-84480400D03*
X174625000Y-73025000D03*
X168910000Y-75819000D03*
X129286000Y-104775000D03*
X147497403Y-89237168D03*
X130375000Y-79025000D03*
X131475000Y-107150000D03*
X126425000Y-84950000D03*
X177038000Y-72644000D03*
X153500000Y-101250000D03*
X129032000Y-106172000D03*
X135575000Y-83850000D03*
%TO.N,GND*%
X163830000Y-135128000D03*
X117094000Y-133350000D03*
X155448000Y-131318000D03*
X129794000Y-120904000D03*
X130167358Y-107417358D03*
X164846000Y-136144000D03*
X159875000Y-137450000D03*
X107300000Y-60500000D03*
X175300000Y-111900000D03*
X149098000Y-136144000D03*
X174875000Y-137475000D03*
X182200000Y-64700000D03*
X186400000Y-68800000D03*
X129039751Y-96774000D03*
X129794000Y-122174000D03*
X135125000Y-114975000D03*
X153670000Y-132588000D03*
X166878000Y-68453000D03*
X152908000Y-134112000D03*
X122450000Y-137425000D03*
X117075000Y-93975000D03*
X159766000Y-131064000D03*
X172325000Y-122575000D03*
X138600000Y-137425000D03*
X147025000Y-77325000D03*
X178689000Y-72771000D03*
X119126000Y-126238000D03*
X116950000Y-90025000D03*
X168148000Y-130302000D03*
X140750000Y-113000000D03*
X118275000Y-88650000D03*
X138430000Y-85090000D03*
X170180000Y-132334000D03*
X183800000Y-61500000D03*
X189750000Y-143200000D03*
X138684000Y-139192000D03*
X189625000Y-149425000D03*
X186450000Y-150550000D03*
X174925000Y-116850000D03*
X176975000Y-119600000D03*
X145288000Y-134620000D03*
X178562000Y-134366000D03*
X127254000Y-128270000D03*
X156718000Y-131826000D03*
X160782000Y-135890000D03*
X116400000Y-59400000D03*
X117094000Y-128016000D03*
X182600000Y-80800000D03*
X141732000Y-136144000D03*
X176025000Y-94350000D03*
X178562000Y-135890000D03*
X147875000Y-122575000D03*
X118364000Y-129286000D03*
X179324000Y-137414000D03*
X137000000Y-114500000D03*
X154940000Y-132334000D03*
X118071500Y-114808000D03*
X129250000Y-75500000D03*
X157988000Y-136398000D03*
X118364000Y-136144000D03*
X153924000Y-135128000D03*
X135128000Y-135636000D03*
X148700000Y-137475000D03*
X171196000Y-133350000D03*
X141732000Y-134366000D03*
X117050000Y-103550000D03*
X157988000Y-137414000D03*
X173625000Y-118075000D03*
X145600000Y-122575000D03*
X176975000Y-129500000D03*
X133075000Y-77225000D03*
X129794000Y-118364000D03*
X146304000Y-135890000D03*
X172212000Y-134366000D03*
X183642000Y-72771000D03*
X160782000Y-132080000D03*
X152146000Y-136398000D03*
X154686000Y-133604000D03*
X104100000Y-67200000D03*
X118364000Y-130810000D03*
X129540000Y-128524000D03*
X174244000Y-126492000D03*
X122428000Y-138938000D03*
X135125000Y-116900000D03*
X132625000Y-137425000D03*
X152908000Y-131572000D03*
X130048000Y-127254000D03*
X153500000Y-103000000D03*
X137160000Y-137414000D03*
X113275000Y-131050000D03*
X165100000Y-62357000D03*
X115250000Y-127950000D03*
X172000000Y-87000000D03*
X120621766Y-98653234D03*
X119634000Y-136144000D03*
X158750000Y-130302000D03*
X157988000Y-134874000D03*
X180175000Y-94350000D03*
X157734000Y-132842000D03*
X156972000Y-133858000D03*
X158750000Y-133858000D03*
X135125000Y-111200000D03*
X129794000Y-123444000D03*
X152349200Y-85902800D03*
X132588000Y-139192000D03*
X141025000Y-122550000D03*
X140208000Y-134620000D03*
X190300000Y-90000000D03*
X119634000Y-130302000D03*
X120396000Y-106019600D03*
X190800000Y-102075000D03*
X173600000Y-121500000D03*
X135125000Y-118700000D03*
X167132000Y-129286000D03*
X173228000Y-135382000D03*
X129794000Y-119634000D03*
X103100000Y-64500000D03*
X159258000Y-135890000D03*
X164900000Y-137500000D03*
X152146000Y-134874000D03*
X115175000Y-137250000D03*
X180725000Y-111925000D03*
X162814000Y-129540000D03*
X111600000Y-64800000D03*
X127254000Y-125730000D03*
X116725000Y-115900000D03*
X161544000Y-64643000D03*
X169425000Y-122600000D03*
X122174000Y-134874000D03*
X118872000Y-135128000D03*
X143650000Y-137400000D03*
X127254000Y-116840000D03*
X189200000Y-67600000D03*
X142100000Y-83950000D03*
X166475000Y-122625000D03*
X107400000Y-68500000D03*
X119634000Y-128778000D03*
X159250000Y-122575000D03*
X142748000Y-135382000D03*
X127254000Y-114300000D03*
X114628500Y-99822000D03*
X184800000Y-90000000D03*
X176975000Y-124625000D03*
X118110000Y-127254000D03*
X122650000Y-91325000D03*
X127558800Y-83921600D03*
X155702000Y-134620000D03*
X113300000Y-136025000D03*
X110400000Y-143000000D03*
X166878000Y-133604000D03*
X153650000Y-137475000D03*
X127254000Y-121920000D03*
X183700000Y-67700000D03*
X104300000Y-61700000D03*
X164846000Y-131572000D03*
X128270000Y-128524000D03*
X137906617Y-136397881D03*
X127000000Y-134874000D03*
X190800000Y-99675000D03*
X113250000Y-121375000D03*
X168402000Y-67183000D03*
X129794000Y-125984000D03*
X103100000Y-146000000D03*
X156350000Y-122575000D03*
X151892000Y-133096000D03*
X190200000Y-76600000D03*
X164719000Y-59817000D03*
X149606000Y-132334000D03*
X175260000Y-130556000D03*
X120246500Y-135128000D03*
X143764000Y-136144000D03*
X154178000Y-131318000D03*
X153416000Y-136398000D03*
X127254000Y-123190000D03*
X117094000Y-132334000D03*
X113125000Y-126450000D03*
X107400000Y-142100000D03*
X183225000Y-149325000D03*
X170000000Y-80000000D03*
X172466000Y-59944000D03*
X127254000Y-119380000D03*
X186300000Y-60400000D03*
X116925000Y-92450000D03*
X154940000Y-136144000D03*
X159766000Y-134874000D03*
X128016000Y-136144000D03*
X169925000Y-137450000D03*
X146800000Y-114600000D03*
X190800000Y-94825000D03*
X167894000Y-134620000D03*
X129794000Y-117094000D03*
X150750000Y-122575000D03*
X184800000Y-76600000D03*
X189300000Y-61600000D03*
X110400000Y-149200000D03*
X165862000Y-132588000D03*
X162814000Y-134112000D03*
X121920000Y-136144000D03*
X125444330Y-104120301D03*
X111700000Y-146400000D03*
X129794000Y-124714000D03*
X177025000Y-134450000D03*
X190800000Y-97175000D03*
X115175000Y-132275000D03*
X182825000Y-142950000D03*
X135125000Y-112975000D03*
X144272000Y-133604000D03*
X144750000Y-113500000D03*
X172085000Y-77470000D03*
X126824500Y-79000000D03*
X123444000Y-136144000D03*
X107400000Y-150300000D03*
X147574000Y-136398000D03*
X186375000Y-141675000D03*
X153475000Y-122575000D03*
X161798000Y-133096000D03*
X148082000Y-134874000D03*
X187706000Y-72771000D03*
X149098000Y-133350000D03*
X125476000Y-136144000D03*
X127254000Y-113030000D03*
X156718000Y-135636000D03*
X174925000Y-115075000D03*
X187706000Y-74041000D03*
X143400000Y-122550000D03*
X153550000Y-97100000D03*
X172974000Y-126492000D03*
X172593000Y-62230000D03*
X110400000Y-61700000D03*
X174625000Y-75311000D03*
X122500000Y-62900000D03*
X172212000Y-127508000D03*
X151130000Y-135636000D03*
X135125000Y-120325000D03*
X127769306Y-79055694D03*
X171196000Y-126492000D03*
X162425000Y-122575000D03*
X182400000Y-146150000D03*
X127254000Y-115570000D03*
X118618000Y-132842000D03*
X150876000Y-133858000D03*
X174244000Y-129540000D03*
X150114000Y-134620000D03*
X191300000Y-146300000D03*
X150876000Y-132334000D03*
X115225000Y-122925000D03*
X173625000Y-119900000D03*
X137475000Y-122525000D03*
X169164000Y-131318000D03*
X139100000Y-122550000D03*
X168910000Y-135636000D03*
X173228000Y-128524000D03*
X147320000Y-90220800D03*
X127525000Y-137450000D03*
X127508000Y-139192000D03*
X131064000Y-128524000D03*
X126746000Y-136144000D03*
X110500000Y-67700000D03*
X180975000Y-74930000D03*
X146812000Y-133858000D03*
X119634000Y-131826000D03*
X155956000Y-133096000D03*
X175514000Y-126492000D03*
X163830000Y-130556000D03*
X129794000Y-114808000D03*
X103900000Y-143400000D03*
X140970000Y-135382000D03*
X175641000Y-64643000D03*
X160000000Y-65750000D03*
X127254000Y-118110000D03*
X127254000Y-124460000D03*
X190700000Y-64600000D03*
X148082000Y-132334000D03*
X127254000Y-120650000D03*
X136398000Y-136398000D03*
X136325000Y-121575000D03*
X124206000Y-134518400D03*
X166116000Y-128270000D03*
X117575000Y-137500000D03*
X127254000Y-127000000D03*
X104500000Y-149300000D03*
%TO.N,+5V*%
X134660000Y-76962000D03*
X187833000Y-70612000D03*
X166624000Y-66421000D03*
X174371000Y-70612000D03*
X170053000Y-67056000D03*
X169900000Y-83175000D03*
X167325000Y-89225000D03*
X148425000Y-76100000D03*
%TO.N,A10*%
X121920000Y-133604000D03*
X129159000Y-102743000D03*
%TO.N,A12*%
X130048000Y-103759000D03*
X133858000Y-136144000D03*
%TO.N,A6*%
X118475000Y-123075000D03*
D19*
X125150000Y-99224500D03*
D18*
%TO.N,A8*%
X118525000Y-134025000D03*
X121625000Y-99500000D03*
D19*
%TO.N,A4*%
X122964661Y-97410339D03*
D18*
X113325000Y-112625000D03*
%TO.N,LSM6DSOX_CS*%
X124350500Y-77825077D03*
X130600500Y-85750000D03*
%TO.N,LSM6DSOX_int1*%
X129625000Y-82000000D03*
X129950000Y-84875000D03*
%TD*%
D20*
%TO.N,A10*%
X125730000Y-102235000D02*
X128651000Y-102235000D01*
X118618000Y-104267000D02*
X118999000Y-103886000D01*
X128651000Y-102235000D02*
X129159000Y-102743000D01*
X118618000Y-108458000D02*
X118618000Y-104267000D01*
X121666000Y-111760000D02*
X121666000Y-111506000D01*
X121666000Y-133350000D02*
X121666000Y-111760000D01*
X121920000Y-133604000D02*
X121666000Y-133350000D01*
X121666000Y-111506000D02*
X118618000Y-108458000D01*
X118999000Y-103886000D02*
X120650000Y-102235000D01*
X120650000Y-102235000D02*
X125730000Y-102235000D01*
%TO.N,A12*%
X122936000Y-111506000D02*
X121539000Y-110109000D01*
X119634000Y-104521000D02*
X121031000Y-103124000D01*
X126365000Y-103505000D02*
X126619000Y-103759000D01*
X121285000Y-102870000D02*
X125730000Y-102870000D01*
X121539000Y-110109000D02*
X119634000Y-108204000D01*
X133858000Y-136144000D02*
X131699000Y-136144000D01*
X125730000Y-102870000D02*
X126365000Y-103505000D01*
X126619000Y-103759000D02*
X130048000Y-103759000D01*
X119634000Y-107442000D02*
X119634000Y-104521000D01*
X131699000Y-136144000D02*
X128397000Y-132842000D01*
X123698000Y-132842000D02*
X122936000Y-132080000D01*
X121031000Y-103124000D02*
X121285000Y-102870000D01*
X124206000Y-132842000D02*
X123698000Y-132842000D01*
X128397000Y-132842000D02*
X124206000Y-132842000D01*
X122936000Y-132080000D02*
X122936000Y-111506000D01*
X119634000Y-108204000D02*
X119634000Y-107442000D01*
%TO.N,A6*%
X113650000Y-96200000D02*
X113975000Y-95875000D01*
X118475000Y-123075000D02*
X119425000Y-122125000D01*
X123325000Y-99200000D02*
X124200000Y-99200000D01*
X113975000Y-95875000D02*
X114500000Y-95875000D01*
X120350000Y-95975000D02*
X120775000Y-96400000D01*
X114525000Y-110150000D02*
X112850000Y-108475000D01*
X120775000Y-96650000D02*
X120900000Y-96775000D01*
X119425000Y-112575000D02*
X117700000Y-110850000D01*
X120250000Y-95875000D02*
X120350000Y-95975000D01*
X112850000Y-108400000D02*
X112850000Y-97000000D01*
X117625000Y-110850000D02*
X115225000Y-110850000D01*
X112850000Y-97000000D02*
X113650000Y-96200000D01*
X117700000Y-110850000D02*
X117625000Y-110850000D01*
X124200000Y-99200000D02*
X125125500Y-99200000D01*
X120775000Y-96425000D02*
X120775000Y-96650000D01*
X114500000Y-95875000D02*
X120250000Y-95875000D01*
X112850000Y-108475000D02*
X112850000Y-108400000D01*
X125125500Y-99200000D02*
X125150000Y-99224500D01*
X115225000Y-110850000D02*
X114525000Y-110150000D01*
X119425000Y-122125000D02*
X119425000Y-112575000D01*
X120900000Y-96775000D02*
X123325000Y-99200000D01*
X120775000Y-96400000D02*
X120775000Y-96425000D01*
%TO.N,A8*%
X120500000Y-132050000D02*
X120500000Y-111975000D01*
X115700000Y-109425000D02*
X113900000Y-107625000D01*
X116100000Y-109825000D02*
X115700000Y-109425000D01*
X120500000Y-111975000D02*
X120500000Y-111950000D01*
X113900000Y-107175000D02*
X113900000Y-97525000D01*
X118525000Y-134025000D02*
X120500000Y-132050000D01*
X121625000Y-98425000D02*
X121625000Y-99500000D01*
X120175000Y-96975000D02*
X121625000Y-98425000D01*
X113900000Y-97525000D02*
X114250000Y-97175000D01*
X114925000Y-96500000D02*
X117475000Y-96500000D01*
X117475000Y-109825000D02*
X116100000Y-109825000D01*
X119700000Y-96500000D02*
X120175000Y-96975000D01*
X114250000Y-97175000D02*
X114925000Y-96500000D01*
X120500000Y-111950000D02*
X118475000Y-109925000D01*
X118375000Y-109825000D02*
X117475000Y-109825000D01*
X117475000Y-96500000D02*
X119700000Y-96500000D01*
X113900000Y-107625000D02*
X113900000Y-107175000D01*
X118475000Y-109925000D02*
X118375000Y-109825000D01*
%TO.N,A4*%
X120700000Y-95275000D02*
X121475000Y-96050000D01*
X121475000Y-96050000D02*
X121475000Y-96325000D01*
X121475000Y-96325000D02*
X122560339Y-97410339D01*
X113325000Y-112625000D02*
X111625000Y-110925000D01*
X111625000Y-110925000D02*
X111625000Y-96600000D01*
X111625000Y-96600000D02*
X112950000Y-95275000D01*
X122560339Y-97410339D02*
X122964661Y-97410339D01*
X113325000Y-95275000D02*
X120700000Y-95275000D01*
X112950000Y-95275000D02*
X113325000Y-95275000D01*
%TO.N,LSM6DSOX_CS*%
X130900000Y-85450500D02*
X130600500Y-85750000D01*
X128475000Y-79775000D02*
X130900000Y-82200000D01*
X124350500Y-77825077D02*
X126300423Y-79775000D01*
X126300423Y-79775000D02*
X128475000Y-79775000D01*
X130900000Y-82200000D02*
X130900000Y-85450500D01*
%TO.N,LSM6DSOX_int1*%
X129950000Y-84875000D02*
X129950000Y-82325000D01*
X129950000Y-82325000D02*
X129625000Y-82000000D01*
%TD*%
%TA.AperFunction,Conductor*%
%TO.N,+3.3V*%
G36*
X130647731Y-58270185D02*
G01*
X130693486Y-58322989D01*
X130704657Y-58371590D01*
X130831054Y-63761142D01*
X131245409Y-81429294D01*
X131227302Y-81496776D01*
X131175585Y-81543757D01*
X131106678Y-81555319D01*
X131042460Y-81527792D01*
X131033762Y-81519882D01*
X128911489Y-79397609D01*
X128906136Y-79391506D01*
X128903486Y-79388053D01*
X128885451Y-79364549D01*
X128885449Y-79364547D01*
X128885448Y-79364546D01*
X128856963Y-79342689D01*
X128856952Y-79342680D01*
X128781477Y-79284766D01*
X128772698Y-79275393D01*
X128742269Y-79262789D01*
X128687866Y-79218947D01*
X128665802Y-79152653D01*
X128666401Y-79135277D01*
X128674766Y-79055694D01*
X128654980Y-78867438D01*
X128596485Y-78687410D01*
X128501839Y-78523478D01*
X128375177Y-78382806D01*
X128375176Y-78382805D01*
X128222040Y-78271545D01*
X128222035Y-78271542D01*
X128049113Y-78194551D01*
X128049108Y-78194549D01*
X127903307Y-78163559D01*
X127863952Y-78155194D01*
X127674660Y-78155194D01*
X127642203Y-78162092D01*
X127489503Y-78194549D01*
X127489498Y-78194551D01*
X127405109Y-78232123D01*
X127335859Y-78241407D01*
X127281793Y-78219163D01*
X127277232Y-78215849D01*
X127104307Y-78138857D01*
X127104302Y-78138855D01*
X126958501Y-78107865D01*
X126919146Y-78099500D01*
X126729854Y-78099500D01*
X126697397Y-78106398D01*
X126544697Y-78138855D01*
X126544692Y-78138857D01*
X126371770Y-78215848D01*
X126371765Y-78215851D01*
X126218629Y-78327111D01*
X126091967Y-78467783D01*
X126068493Y-78508442D01*
X126017925Y-78556657D01*
X125949318Y-78569879D01*
X125884454Y-78543911D01*
X125873425Y-78534122D01*
X125289072Y-77949769D01*
X125255587Y-77888446D01*
X125253432Y-77849126D01*
X125255960Y-77825077D01*
X125236174Y-77636821D01*
X125177679Y-77456793D01*
X125083033Y-77292861D01*
X124956371Y-77152189D01*
X124956370Y-77152188D01*
X124803234Y-77040928D01*
X124803229Y-77040925D01*
X124630307Y-76963934D01*
X124630302Y-76963932D01*
X124484500Y-76932942D01*
X124445146Y-76924577D01*
X124255854Y-76924577D01*
X124223397Y-76931475D01*
X124070697Y-76963932D01*
X124070692Y-76963934D01*
X123897770Y-77040925D01*
X123897765Y-77040928D01*
X123744629Y-77152188D01*
X123617966Y-77292862D01*
X123523321Y-77456792D01*
X123523318Y-77456799D01*
X123478972Y-77593284D01*
X123464826Y-77636821D01*
X123445040Y-77825077D01*
X123464826Y-78013333D01*
X123464827Y-78013336D01*
X123523318Y-78193354D01*
X123523321Y-78193361D01*
X123617967Y-78357293D01*
X123717453Y-78467783D01*
X123744629Y-78497965D01*
X123897765Y-78609225D01*
X123897770Y-78609228D01*
X124070692Y-78686219D01*
X124070697Y-78686221D01*
X124255854Y-78725577D01*
X124385758Y-78725577D01*
X124452797Y-78745262D01*
X124473439Y-78761896D01*
X125863943Y-80152400D01*
X125869284Y-80158490D01*
X125889972Y-80185451D01*
X125900694Y-80193678D01*
X125918909Y-80207656D01*
X125918914Y-80207660D01*
X126010191Y-80277699D01*
X126010190Y-80277699D01*
X126092197Y-80311667D01*
X126116217Y-80321616D01*
X126150187Y-80335687D01*
X126262703Y-80350500D01*
X126300423Y-80355466D01*
X126334111Y-80351030D01*
X126342209Y-80350500D01*
X128185258Y-80350500D01*
X128252297Y-80370185D01*
X128272939Y-80386819D01*
X129028890Y-81142770D01*
X129062375Y-81204093D01*
X129057391Y-81273785D01*
X129022192Y-81320803D01*
X129023958Y-81322764D01*
X129019129Y-81327111D01*
X128892466Y-81467785D01*
X128797821Y-81631715D01*
X128797818Y-81631722D01*
X128739327Y-81811740D01*
X128739326Y-81811744D01*
X128719540Y-82000000D01*
X128739326Y-82188256D01*
X128739327Y-82188259D01*
X128797818Y-82368277D01*
X128797821Y-82368284D01*
X128892467Y-82532216D01*
X129019129Y-82672888D01*
X129172270Y-82784151D01*
X129300939Y-82841439D01*
X129354173Y-82886687D01*
X129374494Y-82953536D01*
X129374500Y-82954716D01*
X129374499Y-84120781D01*
X129354814Y-84187821D01*
X129342650Y-84203752D01*
X129217466Y-84342785D01*
X129122821Y-84506715D01*
X129122818Y-84506722D01*
X129085074Y-84622888D01*
X129064326Y-84686744D01*
X129044540Y-84875000D01*
X129064326Y-85063256D01*
X129064327Y-85063259D01*
X129122818Y-85243277D01*
X129122821Y-85243284D01*
X129217467Y-85407216D01*
X129295190Y-85493536D01*
X129344129Y-85547888D01*
X129497265Y-85659148D01*
X129497267Y-85659149D01*
X129497270Y-85659151D01*
X129629331Y-85717949D01*
X129682567Y-85763198D01*
X129702214Y-85818264D01*
X129714826Y-85938256D01*
X129714827Y-85938259D01*
X129773318Y-86118277D01*
X129773321Y-86118284D01*
X129867967Y-86282216D01*
X129994628Y-86422888D01*
X129994629Y-86422888D01*
X130147765Y-86534148D01*
X130147770Y-86534151D01*
X130320692Y-86611142D01*
X130320697Y-86611144D01*
X130505854Y-86650500D01*
X130505855Y-86650500D01*
X130695144Y-86650500D01*
X130695146Y-86650500D01*
X130880303Y-86611144D01*
X131053230Y-86534151D01*
X131206371Y-86422888D01*
X131333033Y-86282216D01*
X131427679Y-86118284D01*
X131486174Y-85938256D01*
X131505960Y-85750000D01*
X131486174Y-85561744D01*
X131480359Y-85543849D01*
X131475740Y-85493536D01*
X131475160Y-85493504D01*
X131475291Y-85491151D01*
X131475407Y-85489905D01*
X131475354Y-85489326D01*
X131475500Y-85488220D01*
X131475500Y-85488214D01*
X131480465Y-85450500D01*
X131476030Y-85416816D01*
X131475500Y-85408719D01*
X131475500Y-85090000D01*
X137524540Y-85090000D01*
X137544326Y-85278256D01*
X137544327Y-85278259D01*
X137602818Y-85458277D01*
X137602821Y-85458284D01*
X137697467Y-85622216D01*
X137730721Y-85659148D01*
X137824129Y-85762888D01*
X137977265Y-85874148D01*
X137977270Y-85874151D01*
X138150192Y-85951142D01*
X138150197Y-85951144D01*
X138335354Y-85990500D01*
X138335355Y-85990500D01*
X138524644Y-85990500D01*
X138524646Y-85990500D01*
X138709803Y-85951144D01*
X138818384Y-85902800D01*
X151443740Y-85902800D01*
X151463526Y-86091056D01*
X151463527Y-86091059D01*
X151522018Y-86271077D01*
X151522021Y-86271084D01*
X151616667Y-86435016D01*
X151705926Y-86534148D01*
X151743329Y-86575688D01*
X151896465Y-86686948D01*
X151896470Y-86686951D01*
X152069392Y-86763942D01*
X152069397Y-86763944D01*
X152254554Y-86803300D01*
X152254555Y-86803300D01*
X152443844Y-86803300D01*
X152443846Y-86803300D01*
X152629003Y-86763944D01*
X152801930Y-86686951D01*
X152955071Y-86575688D01*
X153081733Y-86435016D01*
X153176379Y-86271084D01*
X153234874Y-86091056D01*
X153254660Y-85902800D01*
X153234874Y-85714544D01*
X153176379Y-85534516D01*
X153081733Y-85370584D01*
X152955071Y-85229912D01*
X152955070Y-85229911D01*
X152801934Y-85118651D01*
X152801929Y-85118648D01*
X152629007Y-85041657D01*
X152629002Y-85041655D01*
X152483201Y-85010665D01*
X152443846Y-85002300D01*
X152254554Y-85002300D01*
X152222097Y-85009198D01*
X152069397Y-85041655D01*
X152069392Y-85041657D01*
X151896470Y-85118648D01*
X151896465Y-85118651D01*
X151743329Y-85229911D01*
X151616666Y-85370585D01*
X151522021Y-85534515D01*
X151522018Y-85534522D01*
X151493525Y-85622216D01*
X151463526Y-85714544D01*
X151443740Y-85902800D01*
X138818384Y-85902800D01*
X138882730Y-85874151D01*
X139035871Y-85762888D01*
X139162533Y-85622216D01*
X139257179Y-85458284D01*
X139315674Y-85278256D01*
X139335460Y-85090000D01*
X139315674Y-84901744D01*
X139257179Y-84721716D01*
X139162533Y-84557784D01*
X139035871Y-84417112D01*
X139035870Y-84417111D01*
X138882734Y-84305851D01*
X138882729Y-84305848D01*
X138709807Y-84228857D01*
X138709802Y-84228855D01*
X138564001Y-84197865D01*
X138524646Y-84189500D01*
X138335354Y-84189500D01*
X138302897Y-84196398D01*
X138150197Y-84228855D01*
X138150192Y-84228857D01*
X137977270Y-84305848D01*
X137977265Y-84305851D01*
X137824129Y-84417111D01*
X137697466Y-84557785D01*
X137602821Y-84721715D01*
X137602818Y-84721722D01*
X137544327Y-84901740D01*
X137544326Y-84901744D01*
X137524540Y-85090000D01*
X131475500Y-85090000D01*
X131475500Y-83950000D01*
X141194540Y-83950000D01*
X141214326Y-84138256D01*
X141214327Y-84138259D01*
X141272818Y-84318277D01*
X141272821Y-84318284D01*
X141367467Y-84482216D01*
X141494128Y-84622888D01*
X141494129Y-84622888D01*
X141647265Y-84734148D01*
X141647270Y-84734151D01*
X141820192Y-84811142D01*
X141820197Y-84811144D01*
X142005354Y-84850500D01*
X142005355Y-84850500D01*
X142194644Y-84850500D01*
X142194646Y-84850500D01*
X142379803Y-84811144D01*
X142552730Y-84734151D01*
X142705871Y-84622888D01*
X142832533Y-84482216D01*
X142927179Y-84318284D01*
X142985674Y-84138256D01*
X143005460Y-83950000D01*
X142985674Y-83761744D01*
X142927179Y-83581716D01*
X142832533Y-83417784D01*
X142705871Y-83277112D01*
X142666782Y-83248712D01*
X142552734Y-83165851D01*
X142552729Y-83165848D01*
X142379807Y-83088857D01*
X142379802Y-83088855D01*
X142234000Y-83057865D01*
X142194646Y-83049500D01*
X142005354Y-83049500D01*
X141972897Y-83056398D01*
X141820197Y-83088855D01*
X141820192Y-83088857D01*
X141647270Y-83165848D01*
X141647265Y-83165851D01*
X141494129Y-83277111D01*
X141367466Y-83417785D01*
X141272821Y-83581715D01*
X141272818Y-83581722D01*
X141214327Y-83761740D01*
X141214326Y-83761744D01*
X141194540Y-83950000D01*
X131475500Y-83950000D01*
X131475500Y-82241780D01*
X131476031Y-82233678D01*
X131480465Y-82199999D01*
X131478919Y-82188256D01*
X131475766Y-82164313D01*
X131475765Y-82164294D01*
X131475500Y-82162280D01*
X131460687Y-82049764D01*
X131440074Y-82000000D01*
X131402699Y-81909767D01*
X131337261Y-81824487D01*
X131312066Y-81759318D01*
X131326104Y-81690873D01*
X131374918Y-81640883D01*
X131435636Y-81625000D01*
X154100000Y-81625000D01*
X154188521Y-96463373D01*
X154155871Y-96427112D01*
X154155870Y-96427111D01*
X154002734Y-96315851D01*
X154002729Y-96315848D01*
X153829807Y-96238857D01*
X153829802Y-96238855D01*
X153684001Y-96207865D01*
X153644646Y-96199500D01*
X153455354Y-96199500D01*
X153422897Y-96206398D01*
X153270197Y-96238855D01*
X153270192Y-96238857D01*
X153097270Y-96315848D01*
X153097265Y-96315851D01*
X152944129Y-96427111D01*
X152817466Y-96567785D01*
X152722821Y-96731715D01*
X152722818Y-96731722D01*
X152694180Y-96819862D01*
X152664326Y-96911744D01*
X152644540Y-97100000D01*
X152664326Y-97288256D01*
X152664327Y-97288259D01*
X152722818Y-97468277D01*
X152722821Y-97468284D01*
X152817467Y-97632216D01*
X152912742Y-97738029D01*
X152944129Y-97772888D01*
X153097265Y-97884148D01*
X153097270Y-97884151D01*
X153270192Y-97961142D01*
X153270197Y-97961144D01*
X153455354Y-98000500D01*
X153455355Y-98000500D01*
X153644644Y-98000500D01*
X153644646Y-98000500D01*
X153829803Y-97961144D01*
X154002730Y-97884151D01*
X154155871Y-97772888D01*
X154196067Y-97728245D01*
X154224287Y-102458626D01*
X154105871Y-102327112D01*
X154105870Y-102327111D01*
X153952734Y-102215851D01*
X153952729Y-102215848D01*
X153779807Y-102138857D01*
X153779802Y-102138855D01*
X153634000Y-102107865D01*
X153594646Y-102099500D01*
X153405354Y-102099500D01*
X153372897Y-102106398D01*
X153220197Y-102138855D01*
X153220192Y-102138857D01*
X153047270Y-102215848D01*
X153047265Y-102215851D01*
X152894129Y-102327111D01*
X152767466Y-102467785D01*
X152672821Y-102631715D01*
X152672818Y-102631722D01*
X152636662Y-102743000D01*
X152614326Y-102811744D01*
X152594540Y-103000000D01*
X152614326Y-103188256D01*
X152614327Y-103188259D01*
X152672818Y-103368277D01*
X152672821Y-103368284D01*
X152767467Y-103532216D01*
X152802158Y-103570744D01*
X152894129Y-103672888D01*
X153047265Y-103784148D01*
X153047270Y-103784151D01*
X153220192Y-103861142D01*
X153220197Y-103861144D01*
X153405354Y-103900500D01*
X153405355Y-103900500D01*
X153594644Y-103900500D01*
X153594646Y-103900500D01*
X153779803Y-103861144D01*
X153952730Y-103784151D01*
X154105871Y-103672888D01*
X154230703Y-103534248D01*
X154300000Y-115150000D01*
X154222047Y-115151052D01*
X147687182Y-115239241D01*
X147619883Y-115220463D01*
X147573420Y-115168281D01*
X147562544Y-115099263D01*
X147578120Y-115053255D01*
X147627179Y-114968284D01*
X147685674Y-114788256D01*
X147705460Y-114600000D01*
X147685674Y-114411744D01*
X147627179Y-114231716D01*
X147532533Y-114067784D01*
X147405871Y-113927112D01*
X147405870Y-113927111D01*
X147252734Y-113815851D01*
X147252729Y-113815848D01*
X147079807Y-113738857D01*
X147079802Y-113738855D01*
X146934001Y-113707865D01*
X146894646Y-113699500D01*
X146705354Y-113699500D01*
X146672897Y-113706398D01*
X146520197Y-113738855D01*
X146520192Y-113738857D01*
X146347270Y-113815848D01*
X146347265Y-113815851D01*
X146194129Y-113927111D01*
X146067466Y-114067785D01*
X145972821Y-114231715D01*
X145972818Y-114231722D01*
X145930767Y-114361144D01*
X145914326Y-114411744D01*
X145894540Y-114600000D01*
X145914326Y-114788256D01*
X145914327Y-114788259D01*
X145972818Y-114968277D01*
X145972820Y-114968281D01*
X145972821Y-114968284D01*
X146009730Y-115032212D01*
X146035570Y-115076969D01*
X146052042Y-115144869D01*
X146029189Y-115210896D01*
X145974267Y-115254086D01*
X145929855Y-115262957D01*
X137705002Y-115373953D01*
X137637703Y-115355175D01*
X137591240Y-115302993D01*
X137580364Y-115233975D01*
X137608529Y-115170033D01*
X137611128Y-115167049D01*
X137732533Y-115032216D01*
X137827179Y-114868284D01*
X137885674Y-114688256D01*
X137905460Y-114500000D01*
X137885674Y-114311744D01*
X137827179Y-114131716D01*
X137732533Y-113967784D01*
X137605871Y-113827112D01*
X137590369Y-113815849D01*
X137452734Y-113715851D01*
X137452729Y-113715848D01*
X137279807Y-113638857D01*
X137279802Y-113638855D01*
X137134001Y-113607865D01*
X137094646Y-113599500D01*
X136905354Y-113599500D01*
X136872897Y-113606398D01*
X136720197Y-113638855D01*
X136720192Y-113638857D01*
X136547270Y-113715848D01*
X136547265Y-113715851D01*
X136394129Y-113827111D01*
X136267466Y-113967785D01*
X136172821Y-114131715D01*
X136172818Y-114131722D01*
X136114327Y-114311740D01*
X136114326Y-114311744D01*
X136103017Y-114419341D01*
X136076433Y-114483954D01*
X136019136Y-114523939D01*
X135949317Y-114526599D01*
X135889143Y-114491090D01*
X135872310Y-114468378D01*
X135866977Y-114459142D01*
X135857533Y-114442784D01*
X135817558Y-114398387D01*
X135787328Y-114335395D01*
X135785715Y-114314205D01*
X135792508Y-113625812D01*
X135812853Y-113558972D01*
X135824347Y-113544072D01*
X135857533Y-113507216D01*
X135952179Y-113343284D01*
X136010674Y-113163256D01*
X136027832Y-113000000D01*
X139844540Y-113000000D01*
X139864326Y-113188256D01*
X139864327Y-113188259D01*
X139922818Y-113368277D01*
X139922821Y-113368284D01*
X140017467Y-113532216D01*
X140113487Y-113638857D01*
X140144129Y-113672888D01*
X140297265Y-113784148D01*
X140297270Y-113784151D01*
X140470192Y-113861142D01*
X140470197Y-113861144D01*
X140655354Y-113900500D01*
X140655355Y-113900500D01*
X140844644Y-113900500D01*
X140844646Y-113900500D01*
X141029803Y-113861144D01*
X141202730Y-113784151D01*
X141355871Y-113672888D01*
X141482533Y-113532216D01*
X141501133Y-113500000D01*
X143844540Y-113500000D01*
X143864326Y-113688256D01*
X143864327Y-113688259D01*
X143922818Y-113868277D01*
X143922821Y-113868284D01*
X144017467Y-114032216D01*
X144107063Y-114131722D01*
X144144129Y-114172888D01*
X144297265Y-114284148D01*
X144297270Y-114284151D01*
X144470192Y-114361142D01*
X144470197Y-114361144D01*
X144655354Y-114400500D01*
X144655355Y-114400500D01*
X144844644Y-114400500D01*
X144844646Y-114400500D01*
X145029803Y-114361144D01*
X145202730Y-114284151D01*
X145355871Y-114172888D01*
X145482533Y-114032216D01*
X145577179Y-113868284D01*
X145635674Y-113688256D01*
X145655460Y-113500000D01*
X145635674Y-113311744D01*
X145577179Y-113131716D01*
X145482533Y-112967784D01*
X145355871Y-112827112D01*
X145334719Y-112811744D01*
X145202734Y-112715851D01*
X145202729Y-112715848D01*
X145029807Y-112638857D01*
X145029802Y-112638855D01*
X144878590Y-112606715D01*
X144844646Y-112599500D01*
X144655354Y-112599500D01*
X144622897Y-112606398D01*
X144470197Y-112638855D01*
X144470192Y-112638857D01*
X144297270Y-112715848D01*
X144297265Y-112715851D01*
X144144129Y-112827111D01*
X144017466Y-112967785D01*
X143922821Y-113131715D01*
X143922818Y-113131722D01*
X143894702Y-113218256D01*
X143864326Y-113311744D01*
X143844540Y-113500000D01*
X141501133Y-113500000D01*
X141577179Y-113368284D01*
X141635674Y-113188256D01*
X141655460Y-113000000D01*
X141635674Y-112811744D01*
X141577179Y-112631716D01*
X141482533Y-112467784D01*
X141355871Y-112327112D01*
X141355870Y-112327111D01*
X141202734Y-112215851D01*
X141202729Y-112215848D01*
X141029807Y-112138857D01*
X141029802Y-112138855D01*
X140884001Y-112107865D01*
X140844646Y-112099500D01*
X140655354Y-112099500D01*
X140622897Y-112106398D01*
X140470197Y-112138855D01*
X140470192Y-112138857D01*
X140297270Y-112215848D01*
X140297265Y-112215851D01*
X140144129Y-112327111D01*
X140017466Y-112467785D01*
X139922821Y-112631715D01*
X139922818Y-112631722D01*
X139872450Y-112786740D01*
X139864326Y-112811744D01*
X139844540Y-113000000D01*
X136027832Y-113000000D01*
X136030460Y-112975000D01*
X136010674Y-112786744D01*
X135952179Y-112606716D01*
X135857533Y-112442784D01*
X135837079Y-112420068D01*
X135806851Y-112357079D01*
X135805237Y-112335886D01*
X135810218Y-111831142D01*
X135830563Y-111764304D01*
X135842058Y-111749402D01*
X135857533Y-111732216D01*
X135952179Y-111568284D01*
X136010674Y-111388256D01*
X136030460Y-111200000D01*
X136010674Y-111011744D01*
X135952179Y-110831716D01*
X135857533Y-110667784D01*
X135857530Y-110667780D01*
X135854411Y-110664316D01*
X135824178Y-110601326D01*
X135822564Y-110580135D01*
X135850000Y-107800000D01*
X135849998Y-107799999D01*
X135849999Y-107799999D01*
X135850000Y-107799999D01*
X131165315Y-107784010D01*
X131098343Y-107764097D01*
X131052768Y-107711137D01*
X131043061Y-107641945D01*
X131047806Y-107621696D01*
X131053032Y-107605614D01*
X131072818Y-107417358D01*
X131053032Y-107229102D01*
X130994537Y-107049074D01*
X130899891Y-106885142D01*
X130773229Y-106744470D01*
X130701682Y-106692488D01*
X130620092Y-106633209D01*
X130620087Y-106633206D01*
X130447165Y-106556215D01*
X130447160Y-106556213D01*
X130301359Y-106525223D01*
X130262004Y-106516858D01*
X130072712Y-106516858D01*
X130040255Y-106523756D01*
X129887555Y-106556213D01*
X129887550Y-106556215D01*
X129714628Y-106633206D01*
X129714623Y-106633209D01*
X129561487Y-106744469D01*
X129434824Y-106885143D01*
X129340179Y-107049073D01*
X129340176Y-107049080D01*
X129281685Y-107229098D01*
X129281684Y-107229102D01*
X129261898Y-107417358D01*
X129281684Y-107605614D01*
X129281685Y-107605616D01*
X129284693Y-107614876D01*
X129286685Y-107684718D01*
X129250601Y-107744549D01*
X129187899Y-107775374D01*
X129166337Y-107777188D01*
X128648228Y-107775420D01*
X128581256Y-107755507D01*
X128535682Y-107702547D01*
X128524651Y-107651775D01*
X128515632Y-104458848D01*
X128535128Y-104391755D01*
X128587802Y-104345852D01*
X128639632Y-104334500D01*
X129299232Y-104334500D01*
X129366271Y-104354185D01*
X129391382Y-104375528D01*
X129442129Y-104431888D01*
X129442135Y-104431893D01*
X129595265Y-104543148D01*
X129595270Y-104543151D01*
X129768192Y-104620142D01*
X129768197Y-104620144D01*
X129953354Y-104659500D01*
X129953355Y-104659500D01*
X130142644Y-104659500D01*
X130142646Y-104659500D01*
X130327803Y-104620144D01*
X130500730Y-104543151D01*
X130653871Y-104431888D01*
X130780533Y-104291216D01*
X130875179Y-104127284D01*
X130933674Y-103947256D01*
X130953460Y-103759000D01*
X130933674Y-103570744D01*
X130875179Y-103390716D01*
X130780533Y-103226784D01*
X130653871Y-103086112D01*
X130653870Y-103086111D01*
X130500734Y-102974851D01*
X130500729Y-102974848D01*
X130327807Y-102897857D01*
X130327802Y-102897855D01*
X130162679Y-102862758D01*
X130101197Y-102829566D01*
X130067421Y-102768403D01*
X130065336Y-102749442D01*
X130065139Y-102749463D01*
X130064460Y-102743000D01*
X130044674Y-102554744D01*
X129986179Y-102374716D01*
X129891533Y-102210784D01*
X129764871Y-102070112D01*
X129764870Y-102070111D01*
X129611734Y-101958851D01*
X129611729Y-101958848D01*
X129438807Y-101881857D01*
X129438802Y-101881855D01*
X129293000Y-101850865D01*
X129253646Y-101842500D01*
X129253645Y-101842500D01*
X129126938Y-101842500D01*
X129059899Y-101822815D01*
X129051451Y-101816875D01*
X129032963Y-101802689D01*
X129032952Y-101802680D01*
X128957476Y-101744765D01*
X128948697Y-101735392D01*
X128801239Y-101674314D01*
X128801237Y-101674313D01*
X128801236Y-101674313D01*
X128747906Y-101667291D01*
X128685098Y-101659023D01*
X128685083Y-101659021D01*
X128658196Y-101655482D01*
X128651000Y-101654535D01*
X128650999Y-101654535D01*
X128650998Y-101654535D01*
X128650997Y-101654535D01*
X128647539Y-101654990D01*
X128644623Y-101654535D01*
X128642873Y-101654535D01*
X128642873Y-101654261D01*
X128578505Y-101644218D01*
X128526253Y-101597833D01*
X128507365Y-101532400D01*
X128496565Y-97709165D01*
X128516060Y-97642076D01*
X128568734Y-97596172D01*
X128637864Y-97586033D01*
X128670996Y-97595539D01*
X128759948Y-97635144D01*
X128945105Y-97674500D01*
X128945106Y-97674500D01*
X129134395Y-97674500D01*
X129134397Y-97674500D01*
X129319554Y-97635144D01*
X129492481Y-97558151D01*
X129645622Y-97446888D01*
X129772284Y-97306216D01*
X129866930Y-97142284D01*
X129925425Y-96962256D01*
X129945211Y-96774000D01*
X129925425Y-96585744D01*
X129866930Y-96405716D01*
X129772284Y-96241784D01*
X129645622Y-96101112D01*
X129625852Y-96086748D01*
X129492485Y-95989851D01*
X129492480Y-95989848D01*
X129319558Y-95912857D01*
X129319553Y-95912855D01*
X129173752Y-95881865D01*
X129134397Y-95873500D01*
X128945105Y-95873500D01*
X128912648Y-95880398D01*
X128759948Y-95912855D01*
X128665724Y-95954807D01*
X128596474Y-95964091D01*
X128533198Y-95934463D01*
X128495985Y-95875328D01*
X128491290Y-95841888D01*
X128475412Y-90220800D01*
X146414540Y-90220800D01*
X146434326Y-90409056D01*
X146434327Y-90409059D01*
X146492818Y-90589077D01*
X146492821Y-90589084D01*
X146587467Y-90753016D01*
X146714129Y-90893688D01*
X146867265Y-91004948D01*
X146867270Y-91004951D01*
X147040192Y-91081942D01*
X147040197Y-91081944D01*
X147225354Y-91121300D01*
X147225355Y-91121300D01*
X147414644Y-91121300D01*
X147414646Y-91121300D01*
X147599803Y-91081944D01*
X147772730Y-91004951D01*
X147925871Y-90893688D01*
X148052533Y-90753016D01*
X148147179Y-90589084D01*
X148205674Y-90409056D01*
X148225460Y-90220800D01*
X148205674Y-90032544D01*
X148147179Y-89852516D01*
X148052533Y-89688584D01*
X147925871Y-89547912D01*
X147925870Y-89547911D01*
X147772734Y-89436651D01*
X147772729Y-89436648D01*
X147599807Y-89359657D01*
X147599802Y-89359655D01*
X147454000Y-89328665D01*
X147414646Y-89320300D01*
X147225354Y-89320300D01*
X147192897Y-89327198D01*
X147040197Y-89359655D01*
X147040192Y-89359657D01*
X146867270Y-89436648D01*
X146867265Y-89436651D01*
X146714129Y-89547911D01*
X146587466Y-89688585D01*
X146492821Y-89852515D01*
X146492818Y-89852522D01*
X146434327Y-90032540D01*
X146434326Y-90032544D01*
X146414540Y-90220800D01*
X128475412Y-90220800D01*
X128475000Y-90075000D01*
X128450000Y-87625000D01*
X128387900Y-87624795D01*
X120998137Y-87600406D01*
X120931163Y-87580501D01*
X120885582Y-87527546D01*
X120874547Y-87476863D01*
X120869552Y-86118284D01*
X120861476Y-83921600D01*
X126653340Y-83921600D01*
X126673126Y-84109856D01*
X126673127Y-84109859D01*
X126731618Y-84289877D01*
X126731621Y-84289884D01*
X126826267Y-84453816D01*
X126952928Y-84594487D01*
X126952929Y-84594488D01*
X127106065Y-84705748D01*
X127106070Y-84705751D01*
X127278992Y-84782742D01*
X127278997Y-84782744D01*
X127464154Y-84822100D01*
X127464155Y-84822100D01*
X127653444Y-84822100D01*
X127653446Y-84822100D01*
X127838603Y-84782744D01*
X128011530Y-84705751D01*
X128164671Y-84594488D01*
X128291333Y-84453816D01*
X128385979Y-84289884D01*
X128444474Y-84109856D01*
X128464260Y-83921600D01*
X128444474Y-83733344D01*
X128385979Y-83553316D01*
X128291333Y-83389384D01*
X128164671Y-83248712D01*
X128164670Y-83248711D01*
X128011534Y-83137451D01*
X128011529Y-83137448D01*
X127838607Y-83060457D01*
X127838602Y-83060455D01*
X127692801Y-83029465D01*
X127653446Y-83021100D01*
X127464154Y-83021100D01*
X127431697Y-83027998D01*
X127278997Y-83060455D01*
X127278992Y-83060457D01*
X127106070Y-83137448D01*
X127106065Y-83137451D01*
X126952929Y-83248711D01*
X126826266Y-83389385D01*
X126731621Y-83553315D01*
X126731618Y-83553322D01*
X126673127Y-83733340D01*
X126673126Y-83733344D01*
X126653340Y-83921600D01*
X120861476Y-83921600D01*
X120830515Y-75500000D01*
X128344540Y-75500000D01*
X128364326Y-75688256D01*
X128364327Y-75688259D01*
X128422818Y-75868277D01*
X128422821Y-75868284D01*
X128517467Y-76032216D01*
X128579271Y-76100856D01*
X128644129Y-76172888D01*
X128797265Y-76284148D01*
X128797270Y-76284151D01*
X128970192Y-76361142D01*
X128970197Y-76361144D01*
X129155354Y-76400500D01*
X129155355Y-76400500D01*
X129344644Y-76400500D01*
X129344646Y-76400500D01*
X129529803Y-76361144D01*
X129702730Y-76284151D01*
X129855871Y-76172888D01*
X129982533Y-76032216D01*
X130077179Y-75868284D01*
X130135674Y-75688256D01*
X130155460Y-75500000D01*
X130135674Y-75311744D01*
X130077179Y-75131716D01*
X129982533Y-74967784D01*
X129855871Y-74827112D01*
X129855870Y-74827111D01*
X129702734Y-74715851D01*
X129702729Y-74715848D01*
X129529807Y-74638857D01*
X129529802Y-74638855D01*
X129384001Y-74607865D01*
X129344646Y-74599500D01*
X129155354Y-74599500D01*
X129122897Y-74606398D01*
X128970197Y-74638855D01*
X128970192Y-74638857D01*
X128797270Y-74715848D01*
X128797265Y-74715851D01*
X128644129Y-74827111D01*
X128517466Y-74967785D01*
X128422821Y-75131715D01*
X128422818Y-75131722D01*
X128364327Y-75311740D01*
X128364326Y-75311744D01*
X128344540Y-75500000D01*
X120830515Y-75500000D01*
X120825000Y-74000000D01*
X120807043Y-71728493D01*
X120798834Y-70690000D01*
X124344341Y-70690000D01*
X124364936Y-70925403D01*
X124364938Y-70925413D01*
X124426094Y-71153655D01*
X124426096Y-71153659D01*
X124426097Y-71153663D01*
X124525964Y-71367829D01*
X124525965Y-71367830D01*
X124525967Y-71367834D01*
X124634281Y-71522521D01*
X124661505Y-71561401D01*
X124828599Y-71728495D01*
X124925384Y-71796265D01*
X125022165Y-71864032D01*
X125022167Y-71864033D01*
X125022170Y-71864035D01*
X125236337Y-71963903D01*
X125464592Y-72025063D01*
X125652918Y-72041539D01*
X125699999Y-72045659D01*
X125700000Y-72045659D01*
X125700001Y-72045659D01*
X125739234Y-72042226D01*
X125935408Y-72025063D01*
X126163663Y-71963903D01*
X126377830Y-71864035D01*
X126571401Y-71728495D01*
X126738495Y-71561401D01*
X126874035Y-71367830D01*
X126973903Y-71153663D01*
X127035063Y-70925408D01*
X127055659Y-70690000D01*
X127035063Y-70454592D01*
X126973903Y-70226337D01*
X126874035Y-70012171D01*
X126738495Y-69818599D01*
X126616567Y-69696671D01*
X126583084Y-69635351D01*
X126588068Y-69565659D01*
X126629939Y-69509725D01*
X126660915Y-69492810D01*
X126792331Y-69443796D01*
X126907546Y-69357546D01*
X126993796Y-69242331D01*
X127044091Y-69107483D01*
X127050500Y-69047873D01*
X127050499Y-67252128D01*
X127044091Y-67192517D01*
X126993796Y-67057669D01*
X126993795Y-67057668D01*
X126993793Y-67057664D01*
X126907547Y-66942455D01*
X126907544Y-66942452D01*
X126792335Y-66856206D01*
X126792328Y-66856202D01*
X126657482Y-66805908D01*
X126657483Y-66805908D01*
X126597883Y-66799501D01*
X126597881Y-66799500D01*
X126597873Y-66799500D01*
X126597864Y-66799500D01*
X124802129Y-66799500D01*
X124802123Y-66799501D01*
X124742516Y-66805908D01*
X124607671Y-66856202D01*
X124607664Y-66856206D01*
X124492455Y-66942452D01*
X124492452Y-66942455D01*
X124406206Y-67057664D01*
X124406202Y-67057671D01*
X124355908Y-67192517D01*
X124349501Y-67252116D01*
X124349501Y-67252123D01*
X124349500Y-67252135D01*
X124349500Y-69047870D01*
X124349501Y-69047876D01*
X124355908Y-69107483D01*
X124406202Y-69242328D01*
X124406206Y-69242335D01*
X124492452Y-69357544D01*
X124492455Y-69357547D01*
X124607664Y-69443793D01*
X124607671Y-69443797D01*
X124739081Y-69492810D01*
X124795015Y-69534681D01*
X124819432Y-69600145D01*
X124804580Y-69668418D01*
X124783430Y-69696673D01*
X124661503Y-69818600D01*
X124525965Y-70012169D01*
X124525964Y-70012171D01*
X124426098Y-70226335D01*
X124426094Y-70226344D01*
X124364938Y-70454586D01*
X124364936Y-70454596D01*
X124344341Y-70689999D01*
X124344341Y-70690000D01*
X120798834Y-70690000D01*
X120737253Y-62900000D01*
X121594540Y-62900000D01*
X121614326Y-63088256D01*
X121614327Y-63088259D01*
X121672818Y-63268277D01*
X121672821Y-63268284D01*
X121767467Y-63432216D01*
X121894129Y-63572887D01*
X121894129Y-63572888D01*
X122047265Y-63684148D01*
X122047270Y-63684151D01*
X122220192Y-63761142D01*
X122220197Y-63761144D01*
X122405354Y-63800500D01*
X122405355Y-63800500D01*
X122594644Y-63800500D01*
X122594646Y-63800500D01*
X122779803Y-63761144D01*
X122952730Y-63684151D01*
X123105871Y-63572888D01*
X123232533Y-63432216D01*
X123327179Y-63268284D01*
X123385674Y-63088256D01*
X123405460Y-62900000D01*
X123385674Y-62711744D01*
X123327179Y-62531716D01*
X123232533Y-62367784D01*
X123105871Y-62227112D01*
X123105870Y-62227111D01*
X122952734Y-62115851D01*
X122952729Y-62115848D01*
X122779807Y-62038857D01*
X122779802Y-62038855D01*
X122634000Y-62007865D01*
X122594646Y-61999500D01*
X122405354Y-61999500D01*
X122372897Y-62006398D01*
X122220197Y-62038855D01*
X122220192Y-62038857D01*
X122047270Y-62115848D01*
X122047265Y-62115851D01*
X121894129Y-62227111D01*
X121767466Y-62367785D01*
X121672821Y-62531715D01*
X121672818Y-62531722D01*
X121637859Y-62639317D01*
X121614326Y-62711744D01*
X121594540Y-62900000D01*
X120737253Y-62900000D01*
X120713588Y-59906362D01*
X122685862Y-59906362D01*
X122695548Y-60060305D01*
X122743213Y-60207003D01*
X122743214Y-60207006D01*
X122825862Y-60337240D01*
X122825863Y-60337241D01*
X122938301Y-60442827D01*
X122938309Y-60442833D01*
X123073470Y-60517138D01*
X123073474Y-60517140D01*
X123222876Y-60555500D01*
X123222880Y-60555500D01*
X123338406Y-60555500D01*
X123338408Y-60555500D01*
X123338413Y-60555499D01*
X123338417Y-60555499D01*
X123350840Y-60553929D01*
X123453032Y-60541020D01*
X123596448Y-60484237D01*
X123721237Y-60393572D01*
X123819559Y-60274722D01*
X123885235Y-60135154D01*
X123914138Y-59983638D01*
X123909276Y-59906362D01*
X125685862Y-59906362D01*
X125695548Y-60060305D01*
X125743213Y-60207003D01*
X125743214Y-60207006D01*
X125825862Y-60337240D01*
X125825863Y-60337241D01*
X125938301Y-60442827D01*
X125938309Y-60442833D01*
X126073470Y-60517138D01*
X126073474Y-60517140D01*
X126222876Y-60555500D01*
X126222880Y-60555500D01*
X126338406Y-60555500D01*
X126338408Y-60555500D01*
X126338413Y-60555499D01*
X126338417Y-60555499D01*
X126350840Y-60553929D01*
X126453032Y-60541020D01*
X126596448Y-60484237D01*
X126721237Y-60393572D01*
X126819559Y-60274722D01*
X126885235Y-60135154D01*
X126914138Y-59983638D01*
X126904452Y-59829695D01*
X126856787Y-59682996D01*
X126813812Y-59615278D01*
X126774137Y-59552759D01*
X126774136Y-59552758D01*
X126661698Y-59447172D01*
X126661690Y-59447166D01*
X126526529Y-59372861D01*
X126526519Y-59372858D01*
X126377127Y-59334500D01*
X126377124Y-59334500D01*
X126261592Y-59334500D01*
X126261582Y-59334500D01*
X126146968Y-59348980D01*
X126146966Y-59348980D01*
X126003553Y-59405762D01*
X125878762Y-59496429D01*
X125780440Y-59615279D01*
X125714764Y-59754847D01*
X125685862Y-59906359D01*
X125685862Y-59906362D01*
X123909276Y-59906362D01*
X123904452Y-59829695D01*
X123856787Y-59682996D01*
X123813812Y-59615278D01*
X123774137Y-59552759D01*
X123774136Y-59552758D01*
X123661698Y-59447172D01*
X123661690Y-59447166D01*
X123526529Y-59372861D01*
X123526519Y-59372858D01*
X123377127Y-59334500D01*
X123377124Y-59334500D01*
X123261592Y-59334500D01*
X123261582Y-59334500D01*
X123146968Y-59348980D01*
X123146966Y-59348980D01*
X123003553Y-59405762D01*
X122878762Y-59496429D01*
X122780440Y-59615279D01*
X122714764Y-59754847D01*
X122685862Y-59906359D01*
X122685862Y-59906362D01*
X120713588Y-59906362D01*
X120701486Y-58375480D01*
X120720640Y-58308287D01*
X120773081Y-58262116D01*
X120825482Y-58250500D01*
X130580692Y-58250500D01*
X130647731Y-58270185D01*
G37*
%TD.AperFunction*%
%TD*%
%TA.AperFunction,Conductor*%
%TO.N,+5V*%
G36*
X186864737Y-58267889D02*
G01*
X186869312Y-58268232D01*
X187329160Y-58320045D01*
X187333713Y-58320732D01*
X187788357Y-58406755D01*
X187792879Y-58407787D01*
X188002547Y-58463967D01*
X188239838Y-58527549D01*
X188244259Y-58528914D01*
X188681010Y-58681739D01*
X188685327Y-58683434D01*
X189109438Y-58868472D01*
X189113611Y-58870481D01*
X189522707Y-59086694D01*
X189526707Y-59089004D01*
X189918505Y-59335187D01*
X189922337Y-59337800D01*
X190294626Y-59612561D01*
X190298253Y-59615453D01*
X190648989Y-59917286D01*
X190652389Y-59920441D01*
X190979558Y-60247610D01*
X190982713Y-60251010D01*
X191284546Y-60601746D01*
X191287438Y-60605373D01*
X191562199Y-60977662D01*
X191564812Y-60981494D01*
X191810995Y-61373292D01*
X191813310Y-61377301D01*
X191875968Y-61495856D01*
X192029515Y-61786382D01*
X192031527Y-61790561D01*
X192216565Y-62214672D01*
X192218260Y-62218989D01*
X192371085Y-62655740D01*
X192372453Y-62660172D01*
X192492212Y-63107120D01*
X192493244Y-63111642D01*
X192579266Y-63566280D01*
X192579957Y-63570861D01*
X192597839Y-63729567D01*
X192631765Y-64030668D01*
X192632111Y-64035286D01*
X192647807Y-64454744D01*
X192649500Y-64500000D01*
X192649500Y-71975000D01*
X191594792Y-71975000D01*
X191538496Y-71894600D01*
X191503745Y-71859849D01*
X191416179Y-71772283D01*
X191382696Y-71710963D01*
X191387680Y-71641271D01*
X191429551Y-71585337D01*
X191460529Y-71568422D01*
X191592086Y-71519354D01*
X191592093Y-71519350D01*
X191707187Y-71433190D01*
X191707190Y-71433187D01*
X191793350Y-71318093D01*
X191793354Y-71318086D01*
X191843596Y-71183379D01*
X191843598Y-71183372D01*
X191849999Y-71123844D01*
X191850000Y-71123827D01*
X191850000Y-70476000D01*
X191113347Y-70476000D01*
X191046308Y-70456315D01*
X191000553Y-70403511D01*
X190990609Y-70334353D01*
X190994369Y-70317067D01*
X191000000Y-70297888D01*
X191000000Y-70154111D01*
X190994369Y-70134933D01*
X190994370Y-70065064D01*
X191032145Y-70006286D01*
X191095701Y-69977262D01*
X191113347Y-69976000D01*
X191850000Y-69976000D01*
X191850000Y-69328172D01*
X191849999Y-69328155D01*
X191843598Y-69268627D01*
X191843596Y-69268620D01*
X191793354Y-69133913D01*
X191793350Y-69133906D01*
X191707190Y-69018812D01*
X191707187Y-69018809D01*
X191592093Y-68932649D01*
X191592086Y-68932645D01*
X191457379Y-68882403D01*
X191457372Y-68882401D01*
X191397844Y-68876000D01*
X190750000Y-68876000D01*
X190750000Y-69613698D01*
X190730315Y-69680737D01*
X190677511Y-69726492D01*
X190608355Y-69736436D01*
X190535766Y-69726000D01*
X190535763Y-69726000D01*
X190464237Y-69726000D01*
X190464233Y-69726000D01*
X190391645Y-69736436D01*
X190322487Y-69726492D01*
X190269684Y-69680736D01*
X190250000Y-69613698D01*
X190250000Y-68876000D01*
X189602155Y-68876000D01*
X189542627Y-68882401D01*
X189542620Y-68882403D01*
X189407913Y-68932645D01*
X189407906Y-68932649D01*
X189292812Y-69018809D01*
X189292809Y-69018812D01*
X189206649Y-69133906D01*
X189206645Y-69133913D01*
X189156403Y-69268620D01*
X189156401Y-69268627D01*
X189150000Y-69328155D01*
X189150000Y-69976000D01*
X189886653Y-69976000D01*
X189953692Y-69995685D01*
X189999447Y-70048489D01*
X190009391Y-70117647D01*
X190005631Y-70134933D01*
X190000000Y-70154111D01*
X190000000Y-70297888D01*
X190005631Y-70317067D01*
X190005630Y-70386936D01*
X189967855Y-70445714D01*
X189904299Y-70474738D01*
X189886653Y-70476000D01*
X189150000Y-70476000D01*
X189150000Y-71123844D01*
X189156401Y-71183372D01*
X189156403Y-71183379D01*
X189206645Y-71318086D01*
X189206649Y-71318093D01*
X189292809Y-71433187D01*
X189292812Y-71433190D01*
X189407906Y-71519350D01*
X189407913Y-71519354D01*
X189539470Y-71568421D01*
X189595403Y-71610292D01*
X189619821Y-71675756D01*
X189604970Y-71744029D01*
X189583819Y-71772284D01*
X189461503Y-71894600D01*
X189405207Y-71975000D01*
X188132118Y-71975000D01*
X187985807Y-71909857D01*
X187985802Y-71909855D01*
X187840001Y-71878865D01*
X187800646Y-71870500D01*
X187611354Y-71870500D01*
X187578897Y-71877398D01*
X187426197Y-71909855D01*
X187426192Y-71909857D01*
X187279881Y-71975000D01*
X184550000Y-71975000D01*
X184525000Y-68250000D01*
X184524999Y-68249999D01*
X184524988Y-68248242D01*
X184493644Y-68190739D01*
X184498679Y-68121051D01*
X184507442Y-68102469D01*
X184527179Y-68068284D01*
X184585282Y-67889460D01*
X184624718Y-67831787D01*
X184689076Y-67804588D01*
X184757923Y-67816502D01*
X184759507Y-67817295D01*
X184835250Y-67855888D01*
X184892806Y-67885214D01*
X185254913Y-68024214D01*
X185577889Y-68110755D01*
X185637547Y-68147118D01*
X185668076Y-68209965D01*
X185659781Y-68279340D01*
X185653181Y-68292527D01*
X185572820Y-68431718D01*
X185572818Y-68431722D01*
X185530767Y-68561144D01*
X185514326Y-68611744D01*
X185494540Y-68800000D01*
X185514326Y-68988256D01*
X185514327Y-68988259D01*
X185572818Y-69168277D01*
X185572821Y-69168284D01*
X185667467Y-69332216D01*
X185794129Y-69472888D01*
X185947265Y-69584148D01*
X185947270Y-69584151D01*
X186120192Y-69661142D01*
X186120197Y-69661144D01*
X186305354Y-69700500D01*
X186305355Y-69700500D01*
X186494644Y-69700500D01*
X186494646Y-69700500D01*
X186679803Y-69661144D01*
X186852730Y-69584151D01*
X187005871Y-69472888D01*
X187132533Y-69332216D01*
X187227179Y-69168284D01*
X187285674Y-68988256D01*
X187305460Y-68800000D01*
X187285674Y-68611744D01*
X187227179Y-68431716D01*
X187146819Y-68292528D01*
X187130346Y-68224627D01*
X187153199Y-68158601D01*
X187208120Y-68115410D01*
X187222091Y-68110760D01*
X187545087Y-68024214D01*
X187907194Y-67885214D01*
X188154169Y-67759373D01*
X188222833Y-67746479D01*
X188287573Y-67772755D01*
X188327831Y-67829861D01*
X188328390Y-67831542D01*
X188372818Y-67968277D01*
X188372821Y-67968284D01*
X188467467Y-68132216D01*
X188586796Y-68264744D01*
X188594129Y-68272888D01*
X188747265Y-68384148D01*
X188747270Y-68384151D01*
X188920192Y-68461142D01*
X188920197Y-68461144D01*
X189105354Y-68500500D01*
X189105355Y-68500500D01*
X189294644Y-68500500D01*
X189294646Y-68500500D01*
X189479803Y-68461144D01*
X189652730Y-68384151D01*
X189805871Y-68272888D01*
X189932533Y-68132216D01*
X190027179Y-67968284D01*
X190085674Y-67788256D01*
X190105460Y-67600000D01*
X190085674Y-67411744D01*
X190027179Y-67231716D01*
X189932533Y-67067784D01*
X189805871Y-66927112D01*
X189790372Y-66915851D01*
X189652734Y-66815851D01*
X189652729Y-66815848D01*
X189518270Y-66755982D01*
X189465033Y-66710731D01*
X189444712Y-66643882D01*
X189463758Y-66576659D01*
X189464711Y-66575168D01*
X189609122Y-66352793D01*
X189609125Y-66352789D01*
X189785214Y-66007194D01*
X189924214Y-65645087D01*
X189988685Y-65404477D01*
X190025049Y-65344818D01*
X190087896Y-65314289D01*
X190157272Y-65322584D01*
X190181344Y-65336254D01*
X190247265Y-65384148D01*
X190247270Y-65384151D01*
X190420192Y-65461142D01*
X190420197Y-65461144D01*
X190605354Y-65500500D01*
X190605355Y-65500500D01*
X190794644Y-65500500D01*
X190794646Y-65500500D01*
X190979803Y-65461144D01*
X191152730Y-65384151D01*
X191305871Y-65272888D01*
X191432533Y-65132216D01*
X191527179Y-64968284D01*
X191585674Y-64788256D01*
X191605460Y-64600000D01*
X191585674Y-64411744D01*
X191527179Y-64231716D01*
X191432533Y-64067784D01*
X191305871Y-63927112D01*
X191290369Y-63915849D01*
X191152734Y-63815851D01*
X191152729Y-63815848D01*
X190979807Y-63738857D01*
X190979802Y-63738855D01*
X190834001Y-63707865D01*
X190794646Y-63699500D01*
X190605354Y-63699500D01*
X190572897Y-63706398D01*
X190420197Y-63738855D01*
X190420192Y-63738857D01*
X190247270Y-63815848D01*
X190247267Y-63815850D01*
X190223537Y-63833091D01*
X190157730Y-63856569D01*
X190089677Y-63840742D01*
X190040983Y-63790635D01*
X190028182Y-63752171D01*
X190024602Y-63729567D01*
X189924214Y-63354913D01*
X189785214Y-62992806D01*
X189609125Y-62647211D01*
X189609122Y-62647206D01*
X189587890Y-62614511D01*
X189567886Y-62547566D01*
X189587252Y-62480434D01*
X189639837Y-62434428D01*
X189641449Y-62433697D01*
X189752730Y-62384151D01*
X189905871Y-62272888D01*
X190032533Y-62132216D01*
X190127179Y-61968284D01*
X190185674Y-61788256D01*
X190205460Y-61600000D01*
X190185674Y-61411744D01*
X190127179Y-61231716D01*
X190032533Y-61067784D01*
X189905871Y-60927112D01*
X189905870Y-60927111D01*
X189752734Y-60815851D01*
X189752729Y-60815848D01*
X189579807Y-60738857D01*
X189579802Y-60738855D01*
X189434000Y-60707865D01*
X189394646Y-60699500D01*
X189205354Y-60699500D01*
X189172897Y-60706398D01*
X189020197Y-60738855D01*
X189020192Y-60738857D01*
X188847270Y-60815848D01*
X188847265Y-60815851D01*
X188694129Y-60927111D01*
X188567466Y-61067785D01*
X188472821Y-61231715D01*
X188472817Y-61231725D01*
X188468544Y-61244875D01*
X188429104Y-61302548D01*
X188364744Y-61329743D01*
X188295898Y-61317826D01*
X188283079Y-61310545D01*
X188252795Y-61290878D01*
X187907197Y-61114787D01*
X187545094Y-60975788D01*
X187515226Y-60967785D01*
X187267474Y-60901400D01*
X187224843Y-60889977D01*
X187165183Y-60853612D01*
X187134654Y-60790765D01*
X187139006Y-60731884D01*
X187143680Y-60717500D01*
X187185674Y-60588256D01*
X187205460Y-60400000D01*
X187185674Y-60211744D01*
X187127179Y-60031716D01*
X187032533Y-59867784D01*
X186905871Y-59727112D01*
X186905870Y-59727111D01*
X186752734Y-59615851D01*
X186752729Y-59615848D01*
X186579807Y-59538857D01*
X186579802Y-59538855D01*
X186434000Y-59507865D01*
X186394646Y-59499500D01*
X186205354Y-59499500D01*
X186172897Y-59506398D01*
X186020197Y-59538855D01*
X186020192Y-59538857D01*
X185847270Y-59615848D01*
X185847265Y-59615851D01*
X185694129Y-59727111D01*
X185567466Y-59867785D01*
X185472821Y-60031715D01*
X185472818Y-60031722D01*
X185422923Y-60185284D01*
X185414326Y-60211744D01*
X185394540Y-60400000D01*
X185414326Y-60588256D01*
X185414327Y-60588259D01*
X185472821Y-60768286D01*
X185473083Y-60768874D01*
X185473132Y-60769244D01*
X185474829Y-60774465D01*
X185473874Y-60774775D01*
X185482366Y-60838124D01*
X185452735Y-60901400D01*
X185393599Y-60938611D01*
X185391895Y-60939081D01*
X185254913Y-60975786D01*
X185254910Y-60975787D01*
X185254903Y-60975789D01*
X184892805Y-61114786D01*
X184784848Y-61169792D01*
X184716179Y-61182687D01*
X184651439Y-61156410D01*
X184621170Y-61121309D01*
X184532533Y-60967784D01*
X184405871Y-60827112D01*
X184390369Y-60815849D01*
X184252734Y-60715851D01*
X184252729Y-60715848D01*
X184079807Y-60638857D01*
X184079802Y-60638855D01*
X183932090Y-60607459D01*
X183894646Y-60599500D01*
X183705354Y-60599500D01*
X183672897Y-60606398D01*
X183520197Y-60638855D01*
X183520192Y-60638857D01*
X183347270Y-60715848D01*
X183347265Y-60715851D01*
X183194129Y-60827111D01*
X183067466Y-60967785D01*
X182972821Y-61131715D01*
X182972818Y-61131722D01*
X182914327Y-61311740D01*
X182914326Y-61311744D01*
X182894540Y-61500000D01*
X182914326Y-61688256D01*
X182914327Y-61688259D01*
X182972818Y-61868277D01*
X182972821Y-61868284D01*
X183067467Y-62032216D01*
X183157506Y-62132214D01*
X183194129Y-62172888D01*
X183306003Y-62254169D01*
X183348669Y-62309499D01*
X183354648Y-62379112D01*
X183337113Y-62422022D01*
X183190877Y-62647206D01*
X183014787Y-62992802D01*
X182875788Y-63354905D01*
X182775397Y-63729570D01*
X182765036Y-63794986D01*
X182735106Y-63858121D01*
X182675794Y-63895051D01*
X182605931Y-63894053D01*
X182592127Y-63888866D01*
X182479807Y-63838857D01*
X182479802Y-63838855D01*
X182334001Y-63807865D01*
X182294646Y-63799500D01*
X182105354Y-63799500D01*
X182072897Y-63806398D01*
X181920197Y-63838855D01*
X181920192Y-63838857D01*
X181747270Y-63915848D01*
X181747265Y-63915851D01*
X181594129Y-64027111D01*
X181467466Y-64167785D01*
X181372821Y-64331715D01*
X181372818Y-64331722D01*
X181318142Y-64500000D01*
X181314326Y-64511744D01*
X181294540Y-64700000D01*
X181314326Y-64888256D01*
X181314327Y-64888259D01*
X181372818Y-65068277D01*
X181372821Y-65068284D01*
X181467467Y-65232216D01*
X181541366Y-65314289D01*
X181594129Y-65372888D01*
X181747265Y-65484148D01*
X181747270Y-65484151D01*
X181920192Y-65561142D01*
X181920197Y-65561144D01*
X182105354Y-65600500D01*
X182105355Y-65600500D01*
X182294644Y-65600500D01*
X182294646Y-65600500D01*
X182479803Y-65561144D01*
X182652730Y-65484151D01*
X182657374Y-65480776D01*
X182723178Y-65457294D01*
X182791233Y-65473115D01*
X182839930Y-65523218D01*
X182850037Y-65548993D01*
X182863839Y-65600500D01*
X182875788Y-65645094D01*
X183014787Y-66007197D01*
X183190877Y-66352793D01*
X183402126Y-66678088D01*
X183404034Y-66680714D01*
X183402958Y-66681495D01*
X183427798Y-66741079D01*
X183415549Y-66809867D01*
X183368055Y-66861112D01*
X183354976Y-66867894D01*
X183247267Y-66915850D01*
X183247265Y-66915851D01*
X183094129Y-67027111D01*
X182967466Y-67167785D01*
X182872821Y-67331715D01*
X182872818Y-67331722D01*
X182814327Y-67511740D01*
X182814326Y-67511744D01*
X182794540Y-67700000D01*
X182814326Y-67888256D01*
X182814327Y-67888259D01*
X182874437Y-68073260D01*
X182876432Y-68143101D01*
X182840351Y-68202934D01*
X182777650Y-68233762D01*
X182755495Y-68235574D01*
X175325000Y-68175000D01*
X175383502Y-71433190D01*
X175384734Y-71501774D01*
X175366256Y-71569156D01*
X175314282Y-71615851D01*
X175260754Y-71628000D01*
X171447000Y-71628000D01*
X171379961Y-71608315D01*
X171334206Y-71555511D01*
X171323000Y-71504000D01*
X171323000Y-69701999D01*
X161999161Y-69722286D01*
X161999160Y-69722286D01*
X161671000Y-69723000D01*
X161658905Y-68453000D01*
X165972540Y-68453000D01*
X165992326Y-68641256D01*
X165992327Y-68641259D01*
X166050818Y-68821277D01*
X166050821Y-68821284D01*
X166145467Y-68985216D01*
X166272129Y-69125888D01*
X166425265Y-69237148D01*
X166425270Y-69237151D01*
X166598192Y-69314142D01*
X166598197Y-69314144D01*
X166783354Y-69353500D01*
X166783355Y-69353500D01*
X166972644Y-69353500D01*
X166972646Y-69353500D01*
X167157803Y-69314144D01*
X167330730Y-69237151D01*
X167483871Y-69125888D01*
X167610533Y-68985216D01*
X167705179Y-68821284D01*
X167763674Y-68641256D01*
X167783460Y-68453000D01*
X167763674Y-68264744D01*
X167705179Y-68084716D01*
X167703574Y-68081937D01*
X167703136Y-68080129D01*
X167702538Y-68078786D01*
X167702783Y-68078676D01*
X167687100Y-68014043D01*
X167709948Y-67948015D01*
X167764867Y-67904821D01*
X167834420Y-67898176D01*
X167883845Y-67919618D01*
X167949265Y-67967148D01*
X167949270Y-67967151D01*
X168122192Y-68044142D01*
X168122197Y-68044144D01*
X168307354Y-68083500D01*
X168307355Y-68083500D01*
X168496644Y-68083500D01*
X168496646Y-68083500D01*
X168681803Y-68044144D01*
X168854730Y-67967151D01*
X169007871Y-67855888D01*
X169134533Y-67715216D01*
X169229179Y-67551284D01*
X169287674Y-67371256D01*
X169307460Y-67183000D01*
X169287674Y-66994744D01*
X169229179Y-66814716D01*
X169134533Y-66650784D01*
X169007871Y-66510112D01*
X169007870Y-66510111D01*
X168854734Y-66398851D01*
X168854729Y-66398848D01*
X168681807Y-66321857D01*
X168681802Y-66321855D01*
X168536000Y-66290865D01*
X168496646Y-66282500D01*
X168307354Y-66282500D01*
X168274897Y-66289398D01*
X168122197Y-66321855D01*
X168122192Y-66321857D01*
X167949270Y-66398848D01*
X167949265Y-66398851D01*
X167796129Y-66510111D01*
X167669466Y-66650785D01*
X167574821Y-66814715D01*
X167574818Y-66814722D01*
X167538301Y-66927111D01*
X167516326Y-66994744D01*
X167496540Y-67183000D01*
X167516326Y-67371256D01*
X167516327Y-67371259D01*
X167574818Y-67551277D01*
X167574820Y-67551282D01*
X167574821Y-67551284D01*
X167576425Y-67554063D01*
X167576864Y-67555871D01*
X167577462Y-67557214D01*
X167577216Y-67557323D01*
X167592899Y-67621961D01*
X167570048Y-67687988D01*
X167515127Y-67731180D01*
X167445574Y-67737823D01*
X167396154Y-67716382D01*
X167373606Y-67700000D01*
X167330730Y-67668849D01*
X167330728Y-67668848D01*
X167330729Y-67668848D01*
X167157807Y-67591857D01*
X167157802Y-67591855D01*
X167012000Y-67560865D01*
X166972646Y-67552500D01*
X166783354Y-67552500D01*
X166750897Y-67559398D01*
X166598197Y-67591855D01*
X166598192Y-67591857D01*
X166425270Y-67668848D01*
X166425265Y-67668851D01*
X166272129Y-67780111D01*
X166145466Y-67920785D01*
X166050821Y-68084715D01*
X166050818Y-68084722D01*
X165992327Y-68264740D01*
X165992326Y-68264744D01*
X165972540Y-68453000D01*
X161658905Y-68453000D01*
X161631195Y-65543500D01*
X161638644Y-65543500D01*
X161638646Y-65543500D01*
X161823803Y-65504144D01*
X161996730Y-65427151D01*
X162149871Y-65315888D01*
X162276533Y-65175216D01*
X162371179Y-65011284D01*
X162429674Y-64831256D01*
X162449460Y-64643000D01*
X174735540Y-64643000D01*
X174755326Y-64831256D01*
X174755327Y-64831259D01*
X174813818Y-65011277D01*
X174813821Y-65011284D01*
X174908467Y-65175216D01*
X174994201Y-65270433D01*
X175035129Y-65315888D01*
X175188265Y-65427148D01*
X175188270Y-65427151D01*
X175361192Y-65504142D01*
X175361197Y-65504144D01*
X175546354Y-65543500D01*
X175546355Y-65543500D01*
X175735644Y-65543500D01*
X175735646Y-65543500D01*
X175920803Y-65504144D01*
X176093730Y-65427151D01*
X176246871Y-65315888D01*
X176373533Y-65175216D01*
X176468179Y-65011284D01*
X176526674Y-64831256D01*
X176546460Y-64643000D01*
X176526674Y-64454744D01*
X176468179Y-64274716D01*
X176373533Y-64110784D01*
X176246871Y-63970112D01*
X176237395Y-63963227D01*
X176093734Y-63858851D01*
X176093729Y-63858848D01*
X175920807Y-63781857D01*
X175920802Y-63781855D01*
X175775000Y-63750865D01*
X175735646Y-63742500D01*
X175546354Y-63742500D01*
X175513897Y-63749398D01*
X175361197Y-63781855D01*
X175361192Y-63781857D01*
X175188270Y-63858848D01*
X175188265Y-63858851D01*
X175035129Y-63970111D01*
X174908466Y-64110785D01*
X174813821Y-64274715D01*
X174813818Y-64274722D01*
X174755327Y-64454740D01*
X174755326Y-64454744D01*
X174735540Y-64643000D01*
X162449460Y-64643000D01*
X162429674Y-64454744D01*
X162371179Y-64274716D01*
X162276533Y-64110784D01*
X162149871Y-63970112D01*
X162140395Y-63963227D01*
X161996734Y-63858851D01*
X161996729Y-63858848D01*
X161823807Y-63781857D01*
X161823802Y-63781855D01*
X161678001Y-63750865D01*
X161638646Y-63742500D01*
X161614043Y-63742500D01*
X161600848Y-62357000D01*
X164194540Y-62357000D01*
X164214326Y-62545256D01*
X164214327Y-62545259D01*
X164272818Y-62725277D01*
X164272821Y-62725284D01*
X164367467Y-62889216D01*
X164460737Y-62992802D01*
X164494129Y-63029888D01*
X164647265Y-63141148D01*
X164647270Y-63141151D01*
X164820192Y-63218142D01*
X164820197Y-63218144D01*
X165005354Y-63257500D01*
X165005355Y-63257500D01*
X165194644Y-63257500D01*
X165194646Y-63257500D01*
X165379803Y-63218144D01*
X165552730Y-63141151D01*
X165705871Y-63029888D01*
X165832533Y-62889216D01*
X165927179Y-62725284D01*
X165985674Y-62545256D01*
X166005460Y-62357000D01*
X165992112Y-62230000D01*
X171687540Y-62230000D01*
X171707326Y-62418256D01*
X171707327Y-62418259D01*
X171765818Y-62598277D01*
X171765821Y-62598284D01*
X171860467Y-62762216D01*
X171974817Y-62889214D01*
X171987129Y-62902888D01*
X172140265Y-63014148D01*
X172140270Y-63014151D01*
X172313192Y-63091142D01*
X172313197Y-63091144D01*
X172498354Y-63130500D01*
X172498355Y-63130500D01*
X172687644Y-63130500D01*
X172687646Y-63130500D01*
X172872803Y-63091144D01*
X173045730Y-63014151D01*
X173198871Y-62902888D01*
X173325533Y-62762216D01*
X173420179Y-62598284D01*
X173478674Y-62418256D01*
X173498460Y-62230000D01*
X173478674Y-62041744D01*
X173420179Y-61861716D01*
X173325533Y-61697784D01*
X173198871Y-61557112D01*
X173198870Y-61557111D01*
X173045734Y-61445851D01*
X173045729Y-61445848D01*
X172872807Y-61368857D01*
X172872802Y-61368855D01*
X172727001Y-61337865D01*
X172687646Y-61329500D01*
X172498354Y-61329500D01*
X172465897Y-61336398D01*
X172313197Y-61368855D01*
X172313192Y-61368857D01*
X172140270Y-61445848D01*
X172140265Y-61445851D01*
X171987129Y-61557111D01*
X171860466Y-61697785D01*
X171765821Y-61861715D01*
X171765818Y-61861722D01*
X171710422Y-62032216D01*
X171707326Y-62041744D01*
X171687540Y-62230000D01*
X165992112Y-62230000D01*
X165985674Y-62168744D01*
X165927179Y-61988716D01*
X165832533Y-61824784D01*
X165705871Y-61684112D01*
X165705870Y-61684111D01*
X165552734Y-61572851D01*
X165552729Y-61572848D01*
X165379807Y-61495857D01*
X165379802Y-61495855D01*
X165234001Y-61464865D01*
X165194646Y-61456500D01*
X165005354Y-61456500D01*
X164972897Y-61463398D01*
X164820197Y-61495855D01*
X164820192Y-61495857D01*
X164647270Y-61572848D01*
X164647265Y-61572851D01*
X164494129Y-61684111D01*
X164367466Y-61824785D01*
X164272821Y-61988715D01*
X164272818Y-61988722D01*
X164214327Y-62168740D01*
X164214326Y-62168744D01*
X164194540Y-62357000D01*
X161600848Y-62357000D01*
X161576657Y-59817000D01*
X163813540Y-59817000D01*
X163833326Y-60005256D01*
X163833327Y-60005259D01*
X163891818Y-60185277D01*
X163891821Y-60185284D01*
X163986467Y-60349216D01*
X164100817Y-60476214D01*
X164113129Y-60489888D01*
X164266265Y-60601148D01*
X164266270Y-60601151D01*
X164439192Y-60678142D01*
X164439197Y-60678144D01*
X164624354Y-60717500D01*
X164624355Y-60717500D01*
X164813644Y-60717500D01*
X164813646Y-60717500D01*
X164998803Y-60678144D01*
X165171730Y-60601151D01*
X165324871Y-60489888D01*
X165451533Y-60349216D01*
X165546179Y-60185284D01*
X165604674Y-60005256D01*
X165611112Y-59944000D01*
X171560540Y-59944000D01*
X171580326Y-60132256D01*
X171580327Y-60132259D01*
X171638818Y-60312277D01*
X171638821Y-60312284D01*
X171733467Y-60476216D01*
X171834349Y-60588256D01*
X171860129Y-60616888D01*
X172013265Y-60728148D01*
X172013270Y-60728151D01*
X172186192Y-60805142D01*
X172186197Y-60805144D01*
X172371354Y-60844500D01*
X172371355Y-60844500D01*
X172560644Y-60844500D01*
X172560646Y-60844500D01*
X172745803Y-60805144D01*
X172918730Y-60728151D01*
X173071871Y-60616888D01*
X173198533Y-60476216D01*
X173293179Y-60312284D01*
X173351674Y-60132256D01*
X173371460Y-59944000D01*
X173351674Y-59755744D01*
X173293179Y-59575716D01*
X173198533Y-59411784D01*
X173071871Y-59271112D01*
X173071870Y-59271111D01*
X172918734Y-59159851D01*
X172918729Y-59159848D01*
X172745807Y-59082857D01*
X172745802Y-59082855D01*
X172600000Y-59051865D01*
X172560646Y-59043500D01*
X172371354Y-59043500D01*
X172338897Y-59050398D01*
X172186197Y-59082855D01*
X172186192Y-59082857D01*
X172013270Y-59159848D01*
X172013265Y-59159851D01*
X171860129Y-59271111D01*
X171733466Y-59411785D01*
X171638821Y-59575715D01*
X171638818Y-59575722D01*
X171589629Y-59727111D01*
X171580326Y-59755744D01*
X171560540Y-59944000D01*
X165611112Y-59944000D01*
X165624460Y-59817000D01*
X165604674Y-59628744D01*
X165546179Y-59448716D01*
X165451533Y-59284784D01*
X165324871Y-59144112D01*
X165324870Y-59144111D01*
X165171734Y-59032851D01*
X165171729Y-59032848D01*
X164998807Y-58955857D01*
X164998802Y-58955855D01*
X164853001Y-58924865D01*
X164813646Y-58916500D01*
X164624354Y-58916500D01*
X164591897Y-58923398D01*
X164439197Y-58955855D01*
X164439192Y-58955857D01*
X164266270Y-59032848D01*
X164266265Y-59032851D01*
X164113129Y-59144111D01*
X163986466Y-59284785D01*
X163891821Y-59448715D01*
X163891818Y-59448722D01*
X163837516Y-59615848D01*
X163833326Y-59628744D01*
X163813540Y-59817000D01*
X161576657Y-59817000D01*
X161561738Y-58250500D01*
X186365649Y-58250500D01*
X186400000Y-58250500D01*
X186864737Y-58267889D01*
G37*
%TD.AperFunction*%
%TD*%
%TA.AperFunction,Conductor*%
%TO.N,+3.3V*%
G36*
X182821074Y-72155685D02*
G01*
X182866829Y-72208489D01*
X182876773Y-72277647D01*
X182861423Y-72321998D01*
X182830246Y-72376000D01*
X182814820Y-72402718D01*
X182814818Y-72402722D01*
X182771012Y-72537544D01*
X182756326Y-72582744D01*
X182753519Y-72609453D01*
X182737066Y-72766000D01*
X182736540Y-72771000D01*
X182756326Y-72959256D01*
X182756327Y-72959259D01*
X182814818Y-73139277D01*
X182814821Y-73139284D01*
X182909467Y-73303216D01*
X182926231Y-73321834D01*
X183036123Y-73443883D01*
X183036129Y-73443888D01*
X183089288Y-73482510D01*
X183131954Y-73537839D01*
X183140402Y-73582279D01*
X183150000Y-75750000D01*
X181357537Y-75745403D01*
X181427730Y-75714151D01*
X181580871Y-75602888D01*
X181707533Y-75462216D01*
X181802179Y-75298284D01*
X181860674Y-75118256D01*
X181880460Y-74930000D01*
X181860674Y-74741744D01*
X181802179Y-74561716D01*
X181707533Y-74397784D01*
X181580871Y-74257112D01*
X181580870Y-74257111D01*
X181427734Y-74145851D01*
X181422107Y-74142603D01*
X181423262Y-74140601D01*
X181378080Y-74102183D01*
X181357770Y-74035330D01*
X181376828Y-73968110D01*
X181429202Y-73921864D01*
X181437982Y-73918219D01*
X181438655Y-73917905D01*
X181438663Y-73917903D01*
X181652830Y-73818035D01*
X181846401Y-73682495D01*
X182013495Y-73515401D01*
X182149035Y-73321830D01*
X182248903Y-73107663D01*
X182310063Y-72879408D01*
X182330659Y-72644000D01*
X182310063Y-72408592D01*
X182278848Y-72292093D01*
X182280511Y-72222243D01*
X182319674Y-72164381D01*
X182383903Y-72136877D01*
X182398623Y-72136000D01*
X182754035Y-72136000D01*
X182821074Y-72155685D01*
G37*
%TD.AperFunction*%
%TA.AperFunction,Conductor*%
G36*
X165375000Y-71031000D02*
G01*
X170693500Y-71031000D01*
X170760539Y-71050685D01*
X170806294Y-71103489D01*
X170817500Y-71154999D01*
X170817500Y-71504000D01*
X170817501Y-71504009D01*
X170829052Y-71611450D01*
X170829054Y-71611462D01*
X170840260Y-71662972D01*
X170874383Y-71765497D01*
X170874386Y-71765503D01*
X170952171Y-71886537D01*
X170952179Y-71886548D01*
X170997923Y-71939340D01*
X170997926Y-71939343D01*
X170997930Y-71939347D01*
X171106664Y-72033567D01*
X171106667Y-72033568D01*
X171106668Y-72033569D01*
X171190439Y-72071827D01*
X171237541Y-72093338D01*
X171282357Y-72106497D01*
X171304575Y-72113022D01*
X171304578Y-72113022D01*
X171304580Y-72113023D01*
X171304584Y-72113024D01*
X171348817Y-72119383D01*
X171385203Y-72136000D01*
X171400000Y-72136000D01*
X177801035Y-72136000D01*
X177868074Y-72155685D01*
X177913829Y-72208489D01*
X177923773Y-72277647D01*
X177908423Y-72321998D01*
X177877246Y-72376000D01*
X177861820Y-72402718D01*
X177861818Y-72402722D01*
X177818012Y-72537544D01*
X177803326Y-72582744D01*
X177783540Y-72771000D01*
X177803326Y-72959256D01*
X177803327Y-72959259D01*
X177861818Y-73139277D01*
X177861821Y-73139284D01*
X177956467Y-73303216D01*
X178083124Y-73443883D01*
X178083129Y-73443888D01*
X178236265Y-73555148D01*
X178236270Y-73555151D01*
X178409192Y-73632142D01*
X178409197Y-73632144D01*
X178594354Y-73671500D01*
X178594355Y-73671500D01*
X178783644Y-73671500D01*
X178783646Y-73671500D01*
X178968803Y-73632144D01*
X179141730Y-73555151D01*
X179294871Y-73443888D01*
X179421533Y-73303216D01*
X179507533Y-73154258D01*
X179558097Y-73106046D01*
X179626704Y-73092822D01*
X179691569Y-73118790D01*
X179727300Y-73163856D01*
X179800965Y-73321830D01*
X179800967Y-73321834D01*
X179886431Y-73443888D01*
X179936505Y-73515401D01*
X180103599Y-73682495D01*
X180169507Y-73728644D01*
X180297165Y-73818032D01*
X180297167Y-73818033D01*
X180297170Y-73818035D01*
X180428890Y-73879457D01*
X180516244Y-73920191D01*
X180515693Y-73921372D01*
X180566899Y-73959064D01*
X180591843Y-74024329D01*
X180577542Y-74092719D01*
X180528537Y-74142521D01*
X180524790Y-74144394D01*
X180522265Y-74145851D01*
X180369129Y-74257111D01*
X180242466Y-74397785D01*
X180147821Y-74561715D01*
X180147818Y-74561722D01*
X180122998Y-74638112D01*
X180089326Y-74741744D01*
X180069540Y-74930000D01*
X180089326Y-75118256D01*
X180089327Y-75118259D01*
X180147818Y-75298277D01*
X180147821Y-75298284D01*
X180242467Y-75462216D01*
X180275821Y-75499259D01*
X180369129Y-75602888D01*
X180522265Y-75714148D01*
X180522270Y-75714151D01*
X180588030Y-75743429D01*
X175422790Y-75730186D01*
X175452179Y-75679284D01*
X175510674Y-75499256D01*
X175530460Y-75311000D01*
X175510674Y-75122744D01*
X175452179Y-74942716D01*
X175357533Y-74778784D01*
X175230871Y-74638112D01*
X175230870Y-74638111D01*
X175077734Y-74526851D01*
X175077729Y-74526848D01*
X174904807Y-74449857D01*
X174904802Y-74449855D01*
X174758389Y-74418735D01*
X174719646Y-74410500D01*
X174530354Y-74410500D01*
X174497897Y-74417398D01*
X174345197Y-74449855D01*
X174345192Y-74449857D01*
X174172270Y-74526848D01*
X174172265Y-74526851D01*
X174019129Y-74638111D01*
X173892466Y-74778785D01*
X173797821Y-74942715D01*
X173797818Y-74942722D01*
X173740784Y-75118256D01*
X173739326Y-75122744D01*
X173719540Y-75311000D01*
X173739326Y-75499256D01*
X173739327Y-75499259D01*
X173797818Y-75679277D01*
X173797821Y-75679284D01*
X173824843Y-75726089D01*
X163650000Y-75700000D01*
X163701587Y-71118418D01*
X163722025Y-71051607D01*
X163775341Y-71006450D01*
X163828392Y-70995849D01*
X165375000Y-71031000D01*
G37*
%TD.AperFunction*%
%TD*%
%TA.AperFunction,Conductor*%
%TO.N,+5V*%
G36*
X187253270Y-71986848D02*
G01*
X187253265Y-71986851D01*
X187100129Y-72098111D01*
X186973466Y-72238785D01*
X186878821Y-72402715D01*
X186878818Y-72402722D01*
X186820327Y-72582740D01*
X186820326Y-72582744D01*
X186810960Y-72671856D01*
X186801066Y-72766000D01*
X186800540Y-72771000D01*
X186820326Y-72959256D01*
X186820327Y-72959259D01*
X186878818Y-73139277D01*
X186878821Y-73139284D01*
X186973467Y-73303216D01*
X186990227Y-73321830D01*
X186991305Y-73323027D01*
X187021535Y-73386018D01*
X187012910Y-73455354D01*
X186991308Y-73488968D01*
X186973466Y-73508784D01*
X186878821Y-73672715D01*
X186878818Y-73672722D01*
X186820327Y-73852740D01*
X186820326Y-73852744D01*
X186811152Y-73940032D01*
X186800656Y-74039901D01*
X186800540Y-74041000D01*
X186820326Y-74229256D01*
X186820327Y-74229259D01*
X186878818Y-74409277D01*
X186878821Y-74409284D01*
X186973467Y-74573216D01*
X187065564Y-74675500D01*
X187100129Y-74713888D01*
X187253265Y-74825148D01*
X187253270Y-74825151D01*
X187426192Y-74902142D01*
X187426197Y-74902144D01*
X187611354Y-74941500D01*
X187611355Y-74941500D01*
X187800644Y-74941500D01*
X187800646Y-74941500D01*
X187985803Y-74902144D01*
X188158730Y-74825151D01*
X188311871Y-74713888D01*
X188438533Y-74573216D01*
X188533179Y-74409284D01*
X188591674Y-74229256D01*
X188611460Y-74041000D01*
X188591674Y-73852744D01*
X188533179Y-73672716D01*
X188438533Y-73508784D01*
X188420693Y-73488971D01*
X188390464Y-73425981D01*
X188399089Y-73356646D01*
X188420694Y-73323028D01*
X188421773Y-73321830D01*
X188438533Y-73303216D01*
X188533179Y-73139284D01*
X188591674Y-72959256D01*
X188611460Y-72771000D01*
X188591674Y-72582744D01*
X188533179Y-72402716D01*
X188438533Y-72238784D01*
X188311871Y-72098112D01*
X188311870Y-72098111D01*
X188158734Y-71986851D01*
X188158729Y-71986848D01*
X188132118Y-71975000D01*
X189405207Y-71975000D01*
X189325965Y-72088169D01*
X189325964Y-72088171D01*
X189226098Y-72302335D01*
X189226094Y-72302344D01*
X189164938Y-72530586D01*
X189164936Y-72530596D01*
X189144341Y-72765999D01*
X189144341Y-72766000D01*
X189164936Y-73001403D01*
X189164938Y-73001413D01*
X189226094Y-73229655D01*
X189226096Y-73229659D01*
X189226097Y-73229663D01*
X189299007Y-73386018D01*
X189325965Y-73443830D01*
X189325967Y-73443834D01*
X189396455Y-73544500D01*
X189461505Y-73637401D01*
X189628599Y-73804495D01*
X189697500Y-73852740D01*
X189822165Y-73940032D01*
X189822167Y-73940033D01*
X189822170Y-73940035D01*
X190036337Y-74039903D01*
X190264592Y-74101063D01*
X190452918Y-74117539D01*
X190499999Y-74121659D01*
X190500000Y-74121659D01*
X190500001Y-74121659D01*
X190539234Y-74118226D01*
X190735408Y-74101063D01*
X190963663Y-74039903D01*
X191177830Y-73940035D01*
X191371401Y-73804495D01*
X191538495Y-73637401D01*
X191674035Y-73443830D01*
X191773903Y-73229663D01*
X191835063Y-73001408D01*
X191855659Y-72766000D01*
X191854158Y-72748849D01*
X191835063Y-72530596D01*
X191835063Y-72530592D01*
X191773903Y-72302337D01*
X191674035Y-72088171D01*
X191634146Y-72031204D01*
X191594792Y-71975000D01*
X192649500Y-71975000D01*
X192649500Y-92418394D01*
X192629815Y-92485433D01*
X192577011Y-92531188D01*
X192524976Y-92542393D01*
X179318728Y-92486592D01*
X179251772Y-92466624D01*
X179206241Y-92413627D01*
X179196590Y-92344428D01*
X179206869Y-92310191D01*
X179223903Y-92273663D01*
X179285063Y-92045408D01*
X179305659Y-91810000D01*
X179285063Y-91574592D01*
X179223903Y-91346337D01*
X179124035Y-91132171D01*
X178988495Y-90938599D01*
X178866567Y-90816671D01*
X178833084Y-90755351D01*
X178838068Y-90685659D01*
X178879939Y-90629725D01*
X178910915Y-90612810D01*
X179042331Y-90563796D01*
X179157546Y-90477546D01*
X179243796Y-90362331D01*
X179294091Y-90227483D01*
X179300500Y-90167873D01*
X179300500Y-90000000D01*
X183894540Y-90000000D01*
X183914326Y-90188256D01*
X183914327Y-90188259D01*
X183972818Y-90368277D01*
X183972821Y-90368284D01*
X184067467Y-90532216D01*
X184155265Y-90629725D01*
X184194129Y-90672888D01*
X184347265Y-90784148D01*
X184347270Y-90784151D01*
X184520192Y-90861142D01*
X184520197Y-90861144D01*
X184705354Y-90900500D01*
X184705355Y-90900500D01*
X184894644Y-90900500D01*
X184894646Y-90900500D01*
X185079803Y-90861144D01*
X185252730Y-90784151D01*
X185405871Y-90672888D01*
X185532533Y-90532216D01*
X185627179Y-90368284D01*
X185685674Y-90188256D01*
X185705460Y-90000000D01*
X189394540Y-90000000D01*
X189414326Y-90188256D01*
X189414327Y-90188259D01*
X189472818Y-90368277D01*
X189472821Y-90368284D01*
X189567467Y-90532216D01*
X189655265Y-90629725D01*
X189694129Y-90672888D01*
X189847265Y-90784148D01*
X189847270Y-90784151D01*
X190020192Y-90861142D01*
X190020197Y-90861144D01*
X190205354Y-90900500D01*
X190205355Y-90900500D01*
X190394644Y-90900500D01*
X190394646Y-90900500D01*
X190579803Y-90861144D01*
X190752730Y-90784151D01*
X190905871Y-90672888D01*
X191032533Y-90532216D01*
X191127179Y-90368284D01*
X191185674Y-90188256D01*
X191205460Y-90000000D01*
X191185674Y-89811744D01*
X191127179Y-89631716D01*
X191032533Y-89467784D01*
X190905871Y-89327112D01*
X190905870Y-89327111D01*
X190752734Y-89215851D01*
X190752729Y-89215848D01*
X190579807Y-89138857D01*
X190579802Y-89138855D01*
X190434001Y-89107865D01*
X190394646Y-89099500D01*
X190205354Y-89099500D01*
X190172897Y-89106398D01*
X190020197Y-89138855D01*
X190020192Y-89138857D01*
X189847270Y-89215848D01*
X189847265Y-89215851D01*
X189694129Y-89327111D01*
X189567466Y-89467785D01*
X189472821Y-89631715D01*
X189472818Y-89631722D01*
X189414327Y-89811740D01*
X189414326Y-89811744D01*
X189394540Y-90000000D01*
X185705460Y-90000000D01*
X185685674Y-89811744D01*
X185627179Y-89631716D01*
X185532533Y-89467784D01*
X185405871Y-89327112D01*
X185405870Y-89327111D01*
X185252734Y-89215851D01*
X185252729Y-89215848D01*
X185079807Y-89138857D01*
X185079802Y-89138855D01*
X184934000Y-89107865D01*
X184894646Y-89099500D01*
X184705354Y-89099500D01*
X184672897Y-89106398D01*
X184520197Y-89138855D01*
X184520192Y-89138857D01*
X184347270Y-89215848D01*
X184347265Y-89215851D01*
X184194129Y-89327111D01*
X184067466Y-89467785D01*
X183972821Y-89631715D01*
X183972818Y-89631722D01*
X183914327Y-89811740D01*
X183914326Y-89811744D01*
X183894540Y-90000000D01*
X179300500Y-90000000D01*
X179300499Y-88372128D01*
X179294091Y-88312517D01*
X179243796Y-88177669D01*
X179243795Y-88177668D01*
X179243793Y-88177664D01*
X179157547Y-88062455D01*
X179157544Y-88062452D01*
X179042335Y-87976206D01*
X179042328Y-87976202D01*
X178907482Y-87925908D01*
X178907483Y-87925908D01*
X178847883Y-87919501D01*
X178847881Y-87919500D01*
X178847873Y-87919500D01*
X178847864Y-87919500D01*
X177052129Y-87919500D01*
X177052123Y-87919501D01*
X176992516Y-87925908D01*
X176857671Y-87976202D01*
X176857664Y-87976206D01*
X176742455Y-88062452D01*
X176742452Y-88062455D01*
X176656206Y-88177664D01*
X176656202Y-88177671D01*
X176605908Y-88312517D01*
X176599501Y-88372116D01*
X176599501Y-88372123D01*
X176599500Y-88372135D01*
X176599500Y-90167870D01*
X176599501Y-90167876D01*
X176605908Y-90227483D01*
X176656202Y-90362328D01*
X176656206Y-90362335D01*
X176742452Y-90477544D01*
X176742455Y-90477547D01*
X176857664Y-90563793D01*
X176857671Y-90563797D01*
X176989081Y-90612810D01*
X177045015Y-90654681D01*
X177069432Y-90720145D01*
X177054580Y-90788418D01*
X177033430Y-90816673D01*
X176911503Y-90938600D01*
X176775965Y-91132169D01*
X176775964Y-91132171D01*
X176676098Y-91346335D01*
X176676094Y-91346344D01*
X176614938Y-91574586D01*
X176614936Y-91574596D01*
X176594341Y-91809999D01*
X176594341Y-91810000D01*
X176614936Y-92045403D01*
X176614938Y-92045413D01*
X176676094Y-92273655D01*
X176676095Y-92273658D01*
X176676097Y-92273663D01*
X176687723Y-92298595D01*
X176698215Y-92367671D01*
X176669696Y-92431455D01*
X176611220Y-92469695D01*
X176574817Y-92474998D01*
X158948476Y-92400521D01*
X158881520Y-92380553D01*
X158835989Y-92327556D01*
X158825000Y-92276522D01*
X158825000Y-87000000D01*
X171094540Y-87000000D01*
X171114326Y-87188256D01*
X171114327Y-87188259D01*
X171172818Y-87368277D01*
X171172821Y-87368284D01*
X171267467Y-87532216D01*
X171394129Y-87672888D01*
X171547265Y-87784148D01*
X171547270Y-87784151D01*
X171720192Y-87861142D01*
X171720197Y-87861144D01*
X171905354Y-87900500D01*
X171905355Y-87900500D01*
X172094644Y-87900500D01*
X172094646Y-87900500D01*
X172279803Y-87861144D01*
X172452730Y-87784151D01*
X172605871Y-87672888D01*
X172732533Y-87532216D01*
X172827179Y-87368284D01*
X172885674Y-87188256D01*
X172905460Y-87000000D01*
X172885674Y-86811744D01*
X172827179Y-86631716D01*
X172732533Y-86467784D01*
X172605871Y-86327112D01*
X172605870Y-86327111D01*
X172452734Y-86215851D01*
X172452729Y-86215848D01*
X172279807Y-86138857D01*
X172279802Y-86138855D01*
X172134000Y-86107865D01*
X172094646Y-86099500D01*
X171905354Y-86099500D01*
X171872897Y-86106398D01*
X171720197Y-86138855D01*
X171720192Y-86138857D01*
X171547270Y-86215848D01*
X171547265Y-86215851D01*
X171394129Y-86327111D01*
X171267466Y-86467785D01*
X171172821Y-86631715D01*
X171172818Y-86631722D01*
X171114327Y-86811740D01*
X171114326Y-86811744D01*
X171094540Y-87000000D01*
X158825000Y-87000000D01*
X158825000Y-85461362D01*
X186760862Y-85461362D01*
X186770548Y-85615305D01*
X186818213Y-85762003D01*
X186818214Y-85762006D01*
X186900862Y-85892240D01*
X186900863Y-85892241D01*
X187013301Y-85997827D01*
X187013309Y-85997833D01*
X187148470Y-86072138D01*
X187148474Y-86072140D01*
X187297876Y-86110500D01*
X187297880Y-86110500D01*
X187413406Y-86110500D01*
X187413408Y-86110500D01*
X187413413Y-86110499D01*
X187413417Y-86110499D01*
X187425840Y-86108929D01*
X187528032Y-86096020D01*
X187671448Y-86039237D01*
X187796237Y-85948572D01*
X187894559Y-85829722D01*
X187960235Y-85690154D01*
X187989138Y-85538638D01*
X187979452Y-85384695D01*
X187931787Y-85237996D01*
X187888812Y-85170278D01*
X187849137Y-85107759D01*
X187849136Y-85107758D01*
X187736698Y-85002172D01*
X187736690Y-85002166D01*
X187601529Y-84927861D01*
X187601519Y-84927858D01*
X187452127Y-84889500D01*
X187452124Y-84889500D01*
X187336592Y-84889500D01*
X187336582Y-84889500D01*
X187221968Y-84903980D01*
X187221966Y-84903980D01*
X187078553Y-84960762D01*
X186953762Y-85051429D01*
X186855440Y-85170279D01*
X186789764Y-85309847D01*
X186760862Y-85461359D01*
X186760862Y-85461362D01*
X158825000Y-85461362D01*
X158825000Y-81073857D01*
X158844685Y-81006818D01*
X158897489Y-80961063D01*
X158948854Y-80949857D01*
X180575000Y-80925000D01*
X180564872Y-80489500D01*
X180552951Y-79976883D01*
X180571071Y-79909404D01*
X180622797Y-79862434D01*
X180676917Y-79850000D01*
X181993909Y-79850000D01*
X182060948Y-79869685D01*
X182106703Y-79922489D01*
X182116647Y-79991647D01*
X182087622Y-80055203D01*
X182066794Y-80074318D01*
X181994129Y-80127111D01*
X181867466Y-80267785D01*
X181772821Y-80431715D01*
X181772818Y-80431722D01*
X181717436Y-80602172D01*
X181714326Y-80611744D01*
X181694540Y-80800000D01*
X181714326Y-80988256D01*
X181714327Y-80988259D01*
X181772818Y-81168277D01*
X181772821Y-81168284D01*
X181867467Y-81332216D01*
X181955260Y-81429720D01*
X181994129Y-81472888D01*
X182147265Y-81584148D01*
X182147270Y-81584151D01*
X182320192Y-81661142D01*
X182320197Y-81661144D01*
X182505354Y-81700500D01*
X182505355Y-81700500D01*
X182694644Y-81700500D01*
X182694646Y-81700500D01*
X182879803Y-81661144D01*
X183052730Y-81584151D01*
X183205871Y-81472888D01*
X183332533Y-81332216D01*
X183427179Y-81168284D01*
X183461920Y-81061362D01*
X186760862Y-81061362D01*
X186770548Y-81215305D01*
X186808534Y-81332216D01*
X186818213Y-81362003D01*
X186818214Y-81362006D01*
X186900862Y-81492240D01*
X186900863Y-81492241D01*
X187013301Y-81597827D01*
X187013309Y-81597833D01*
X187128472Y-81661144D01*
X187148474Y-81672140D01*
X187297876Y-81710500D01*
X187297880Y-81710500D01*
X187413406Y-81710500D01*
X187413408Y-81710500D01*
X187413413Y-81710499D01*
X187413417Y-81710499D01*
X187425840Y-81708929D01*
X187528032Y-81696020D01*
X187671448Y-81639237D01*
X187796237Y-81548572D01*
X187894559Y-81429722D01*
X187960235Y-81290154D01*
X187989138Y-81138638D01*
X187979452Y-80984695D01*
X187931787Y-80837996D01*
X187888812Y-80770278D01*
X187849137Y-80707759D01*
X187849136Y-80707758D01*
X187736698Y-80602172D01*
X187736690Y-80602166D01*
X187601529Y-80527861D01*
X187601519Y-80527858D01*
X187452127Y-80489500D01*
X187452124Y-80489500D01*
X187336592Y-80489500D01*
X187336582Y-80489500D01*
X187221968Y-80503980D01*
X187221966Y-80503980D01*
X187078553Y-80560762D01*
X186953762Y-80651429D01*
X186855440Y-80770279D01*
X186789764Y-80909847D01*
X186760862Y-81061359D01*
X186760862Y-81061362D01*
X183461920Y-81061362D01*
X183485674Y-80988256D01*
X183505460Y-80800000D01*
X183485674Y-80611744D01*
X183427179Y-80431716D01*
X183332533Y-80267784D01*
X183205871Y-80127112D01*
X183133206Y-80074318D01*
X183090540Y-80018989D01*
X183084561Y-79949375D01*
X183117166Y-79887580D01*
X183178005Y-79853223D01*
X183206091Y-79850000D01*
X184575000Y-79850000D01*
X184575000Y-79849999D01*
X184574974Y-79841815D01*
X184567933Y-77624163D01*
X184587404Y-77557064D01*
X184640063Y-77511142D01*
X184698855Y-77501448D01*
X184698855Y-77500500D01*
X184704609Y-77500500D01*
X184704900Y-77500452D01*
X184705352Y-77500499D01*
X184705354Y-77500500D01*
X184705356Y-77500500D01*
X184894644Y-77500500D01*
X184894646Y-77500500D01*
X185079803Y-77461144D01*
X185252730Y-77384151D01*
X185405871Y-77272888D01*
X185532533Y-77132216D01*
X185627179Y-76968284D01*
X185685674Y-76788256D01*
X185705460Y-76600000D01*
X189294540Y-76600000D01*
X189314326Y-76788256D01*
X189314327Y-76788259D01*
X189372818Y-76968277D01*
X189372821Y-76968284D01*
X189467467Y-77132216D01*
X189594129Y-77272888D01*
X189747265Y-77384148D01*
X189747270Y-77384151D01*
X189920192Y-77461142D01*
X189920197Y-77461144D01*
X190105354Y-77500500D01*
X190105355Y-77500500D01*
X190294644Y-77500500D01*
X190294646Y-77500500D01*
X190479803Y-77461144D01*
X190652730Y-77384151D01*
X190805871Y-77272888D01*
X190932533Y-77132216D01*
X191027179Y-76968284D01*
X191085674Y-76788256D01*
X191105460Y-76600000D01*
X191085674Y-76411744D01*
X191027179Y-76231716D01*
X190932533Y-76067784D01*
X190805871Y-75927112D01*
X190805870Y-75927111D01*
X190652734Y-75815851D01*
X190652729Y-75815848D01*
X190479807Y-75738857D01*
X190479802Y-75738855D01*
X190297840Y-75700179D01*
X190294646Y-75699500D01*
X190105354Y-75699500D01*
X190102160Y-75700179D01*
X189920197Y-75738855D01*
X189920192Y-75738857D01*
X189747270Y-75815848D01*
X189747265Y-75815851D01*
X189594129Y-75927111D01*
X189467466Y-76067785D01*
X189372821Y-76231715D01*
X189372818Y-76231722D01*
X189314327Y-76411740D01*
X189314326Y-76411744D01*
X189294540Y-76600000D01*
X185705460Y-76600000D01*
X185685674Y-76411744D01*
X185627179Y-76231716D01*
X185532533Y-76067784D01*
X185405871Y-75927112D01*
X185405870Y-75927111D01*
X185252734Y-75815851D01*
X185252729Y-75815848D01*
X185079807Y-75738857D01*
X185079802Y-75738855D01*
X184897840Y-75700179D01*
X184894646Y-75699500D01*
X184705354Y-75699500D01*
X184705349Y-75699500D01*
X184698886Y-75700179D01*
X184698584Y-75697308D01*
X184641452Y-75692901D01*
X184585753Y-75650718D01*
X184561702Y-75585118D01*
X184561436Y-75577390D01*
X184550000Y-71975000D01*
X187279882Y-71975000D01*
X187253270Y-71986848D01*
G37*
%TD.AperFunction*%
%TD*%
%TA.AperFunction,Conductor*%
%TO.N,+5V*%
G36*
X161614043Y-63742500D02*
G01*
X161449354Y-63742500D01*
X161416897Y-63749398D01*
X161264197Y-63781855D01*
X161264192Y-63781857D01*
X161091270Y-63858848D01*
X161091265Y-63858851D01*
X160938129Y-63970111D01*
X160811466Y-64110785D01*
X160716821Y-64274715D01*
X160716818Y-64274722D01*
X160658327Y-64454740D01*
X160658326Y-64454744D01*
X160638539Y-64642999D01*
X160638540Y-64643000D01*
X160658326Y-64831258D01*
X160661174Y-64840021D01*
X160663168Y-64909862D01*
X160627086Y-64969694D01*
X160564385Y-65000521D01*
X160494971Y-64992556D01*
X160470357Y-64978656D01*
X160458022Y-64969694D01*
X160452730Y-64965849D01*
X160452728Y-64965848D01*
X160452729Y-64965848D01*
X160279807Y-64888857D01*
X160279802Y-64888855D01*
X160134001Y-64857865D01*
X160094646Y-64849500D01*
X159905354Y-64849500D01*
X159872897Y-64856398D01*
X159720197Y-64888855D01*
X159720192Y-64888857D01*
X159547270Y-64965848D01*
X159547265Y-64965851D01*
X159394129Y-65077111D01*
X159267466Y-65217785D01*
X159172821Y-65381715D01*
X159172818Y-65381722D01*
X159116116Y-65556234D01*
X159114326Y-65561744D01*
X159094540Y-65750000D01*
X159114326Y-65938256D01*
X159114327Y-65938259D01*
X159172818Y-66118277D01*
X159172821Y-66118284D01*
X159267467Y-66282216D01*
X159394129Y-66422888D01*
X159547265Y-66534148D01*
X159547270Y-66534151D01*
X159720192Y-66611142D01*
X159720197Y-66611144D01*
X159905354Y-66650500D01*
X159905355Y-66650500D01*
X159964902Y-66650500D01*
X160031941Y-66670185D01*
X160042797Y-66682713D01*
X160043973Y-66680639D01*
X160104470Y-66648411D01*
X160279803Y-66611144D01*
X160452730Y-66534151D01*
X160605871Y-66422888D01*
X160732533Y-66282216D01*
X160827179Y-66118284D01*
X160885674Y-65938256D01*
X160905460Y-65750000D01*
X160885674Y-65561744D01*
X160882826Y-65552981D01*
X160880830Y-65483142D01*
X160916909Y-65423308D01*
X160979609Y-65392479D01*
X161049024Y-65400441D01*
X161073643Y-65414344D01*
X161091270Y-65427151D01*
X161264192Y-65504142D01*
X161264197Y-65504144D01*
X161449354Y-65543500D01*
X161449355Y-65543500D01*
X161631195Y-65543500D01*
X161671000Y-69723000D01*
X161999160Y-69722286D01*
X161999160Y-69722287D01*
X161975464Y-76001793D01*
X161955527Y-76068758D01*
X161902550Y-76114313D01*
X161851793Y-76125325D01*
X152524999Y-76150000D01*
X152476453Y-80252159D01*
X152455977Y-80318961D01*
X152402635Y-80364088D01*
X152352151Y-80374692D01*
X132648282Y-80325308D01*
X132581292Y-80305455D01*
X132535670Y-80252537D01*
X132524594Y-80201716D01*
X132517858Y-78154008D01*
X132537321Y-78086910D01*
X132589974Y-78040982D01*
X132659099Y-78030811D01*
X132692289Y-78040325D01*
X132795197Y-78086144D01*
X132980354Y-78125500D01*
X132980355Y-78125500D01*
X133169644Y-78125500D01*
X133169646Y-78125500D01*
X133354803Y-78086144D01*
X133527730Y-78009151D01*
X133680871Y-77897888D01*
X133807533Y-77757216D01*
X133902179Y-77593284D01*
X133960674Y-77413256D01*
X133969950Y-77325000D01*
X146119540Y-77325000D01*
X146139326Y-77513256D01*
X146139327Y-77513259D01*
X146197818Y-77693277D01*
X146197821Y-77693284D01*
X146292467Y-77857216D01*
X146419129Y-77997888D01*
X146572265Y-78109148D01*
X146572270Y-78109151D01*
X146745192Y-78186142D01*
X146745197Y-78186144D01*
X146930354Y-78225500D01*
X146930355Y-78225500D01*
X147119644Y-78225500D01*
X147119646Y-78225500D01*
X147304803Y-78186144D01*
X147477730Y-78109151D01*
X147630871Y-77997888D01*
X147757533Y-77857216D01*
X147852179Y-77693284D01*
X147910674Y-77513256D01*
X147930460Y-77325000D01*
X147910674Y-77136744D01*
X147852179Y-76956716D01*
X147757533Y-76792784D01*
X147630871Y-76652112D01*
X147630870Y-76652111D01*
X147477734Y-76540851D01*
X147477729Y-76540848D01*
X147304807Y-76463857D01*
X147304802Y-76463855D01*
X147159000Y-76432865D01*
X147119646Y-76424500D01*
X146930354Y-76424500D01*
X146897897Y-76431398D01*
X146745197Y-76463855D01*
X146745192Y-76463857D01*
X146572270Y-76540848D01*
X146572265Y-76540851D01*
X146419129Y-76652111D01*
X146292466Y-76792785D01*
X146197821Y-76956715D01*
X146197818Y-76956722D01*
X146139327Y-77136740D01*
X146139326Y-77136744D01*
X146119540Y-77325000D01*
X133969950Y-77325000D01*
X133980460Y-77225000D01*
X133960674Y-77036744D01*
X133902179Y-76856716D01*
X133807533Y-76692784D01*
X133680871Y-76552112D01*
X133665369Y-76540849D01*
X133527734Y-76440851D01*
X133527729Y-76440848D01*
X133354807Y-76363857D01*
X133354802Y-76363855D01*
X133209000Y-76332865D01*
X133169646Y-76324500D01*
X132980354Y-76324500D01*
X132947897Y-76331398D01*
X132795197Y-76363855D01*
X132795192Y-76363857D01*
X132686192Y-76412388D01*
X132616942Y-76421673D01*
X132553665Y-76392045D01*
X132516452Y-76332910D01*
X132511758Y-76299526D01*
X132500000Y-72725000D01*
X132500000Y-70790000D01*
X154769341Y-70790000D01*
X154789936Y-71025403D01*
X154789938Y-71025413D01*
X154851094Y-71253655D01*
X154851096Y-71253659D01*
X154851097Y-71253663D01*
X154948633Y-71462830D01*
X154950965Y-71467830D01*
X154950967Y-71467834D01*
X155059281Y-71622521D01*
X155086505Y-71661401D01*
X155253599Y-71828495D01*
X155269529Y-71839649D01*
X155447165Y-71964032D01*
X155447167Y-71964033D01*
X155447170Y-71964035D01*
X155661337Y-72063903D01*
X155889592Y-72125063D01*
X156077918Y-72141539D01*
X156124999Y-72145659D01*
X156125000Y-72145659D01*
X156125001Y-72145659D01*
X156164234Y-72142226D01*
X156360408Y-72125063D01*
X156588663Y-72063903D01*
X156802830Y-71964035D01*
X156996401Y-71828495D01*
X157163495Y-71661401D01*
X157299035Y-71467830D01*
X157398903Y-71253663D01*
X157460063Y-71025408D01*
X157480659Y-70790000D01*
X157480221Y-70785000D01*
X158719341Y-70785000D01*
X158739936Y-71020403D01*
X158739938Y-71020413D01*
X158801094Y-71248655D01*
X158801096Y-71248659D01*
X158801097Y-71248663D01*
X158900964Y-71462829D01*
X158900965Y-71462830D01*
X158900967Y-71462834D01*
X159009281Y-71617521D01*
X159036501Y-71656396D01*
X159036506Y-71656402D01*
X159158430Y-71778326D01*
X159191915Y-71839649D01*
X159186931Y-71909341D01*
X159145059Y-71965274D01*
X159114083Y-71982189D01*
X158982669Y-72031203D01*
X158982664Y-72031206D01*
X158867455Y-72117452D01*
X158867452Y-72117455D01*
X158781206Y-72232664D01*
X158781202Y-72232671D01*
X158730908Y-72367517D01*
X158724501Y-72427116D01*
X158724501Y-72427123D01*
X158724500Y-72427135D01*
X158724500Y-74222870D01*
X158724501Y-74222876D01*
X158730908Y-74282483D01*
X158781202Y-74417328D01*
X158781206Y-74417335D01*
X158867452Y-74532544D01*
X158867455Y-74532547D01*
X158982664Y-74618793D01*
X158982671Y-74618797D01*
X159117517Y-74669091D01*
X159117516Y-74669091D01*
X159124444Y-74669835D01*
X159177127Y-74675500D01*
X160972872Y-74675499D01*
X161032483Y-74669091D01*
X161167331Y-74618796D01*
X161282546Y-74532546D01*
X161368796Y-74417331D01*
X161419091Y-74282483D01*
X161425500Y-74222873D01*
X161425499Y-72427128D01*
X161419091Y-72367517D01*
X161368796Y-72232669D01*
X161368795Y-72232668D01*
X161368793Y-72232664D01*
X161282547Y-72117455D01*
X161282544Y-72117452D01*
X161167335Y-72031206D01*
X161167328Y-72031202D01*
X161035917Y-71982189D01*
X160979983Y-71940318D01*
X160955566Y-71874853D01*
X160970418Y-71806580D01*
X160991563Y-71778332D01*
X161113495Y-71656401D01*
X161249035Y-71462830D01*
X161348903Y-71248663D01*
X161410063Y-71020408D01*
X161430659Y-70785000D01*
X161410063Y-70549592D01*
X161348903Y-70321337D01*
X161249035Y-70107171D01*
X161113495Y-69913599D01*
X161113494Y-69913597D01*
X160946402Y-69746506D01*
X160946396Y-69746501D01*
X160760842Y-69616575D01*
X160717217Y-69561998D01*
X160710023Y-69492500D01*
X160741546Y-69430145D01*
X160760842Y-69413425D01*
X160862369Y-69342335D01*
X160946401Y-69283495D01*
X161113495Y-69116401D01*
X161249035Y-68922830D01*
X161348903Y-68708663D01*
X161410063Y-68480408D01*
X161430659Y-68245000D01*
X161410063Y-68009592D01*
X161348903Y-67781337D01*
X161249035Y-67567171D01*
X161113495Y-67373599D01*
X161113494Y-67373597D01*
X160946402Y-67206506D01*
X160946395Y-67206501D01*
X160752834Y-67070967D01*
X160752830Y-67070965D01*
X160691684Y-67042452D01*
X160538663Y-66971097D01*
X160538659Y-66971096D01*
X160538655Y-66971094D01*
X160310413Y-66909938D01*
X160310403Y-66909936D01*
X160119444Y-66893229D01*
X160054375Y-66867776D01*
X160049755Y-66861396D01*
X159999837Y-66893477D01*
X159975710Y-66898027D01*
X159965464Y-66898924D01*
X159839596Y-66909936D01*
X159839586Y-66909938D01*
X159611344Y-66971094D01*
X159611335Y-66971098D01*
X159397171Y-67070964D01*
X159397169Y-67070965D01*
X159203597Y-67206505D01*
X159036505Y-67373597D01*
X158900965Y-67567169D01*
X158900964Y-67567171D01*
X158801098Y-67781335D01*
X158801094Y-67781344D01*
X158739938Y-68009586D01*
X158739936Y-68009596D01*
X158719341Y-68244999D01*
X158719341Y-68245000D01*
X158739936Y-68480403D01*
X158739938Y-68480413D01*
X158801094Y-68708655D01*
X158801096Y-68708659D01*
X158801097Y-68708663D01*
X158900964Y-68922830D01*
X158900965Y-68922830D01*
X158900967Y-68922834D01*
X159036501Y-69116395D01*
X159036506Y-69116402D01*
X159203597Y-69283493D01*
X159203603Y-69283498D01*
X159389158Y-69413425D01*
X159432783Y-69468002D01*
X159439977Y-69537500D01*
X159408454Y-69599855D01*
X159389158Y-69616575D01*
X159203597Y-69746505D01*
X159036505Y-69913597D01*
X158900965Y-70107169D01*
X158900964Y-70107171D01*
X158801098Y-70321335D01*
X158801094Y-70321344D01*
X158739938Y-70549586D01*
X158739936Y-70549596D01*
X158719341Y-70784999D01*
X158719341Y-70785000D01*
X157480221Y-70785000D01*
X157480221Y-70784999D01*
X157460063Y-70554596D01*
X157460063Y-70554592D01*
X157398903Y-70326337D01*
X157299035Y-70112171D01*
X157163495Y-69918599D01*
X157041567Y-69796671D01*
X157008084Y-69735351D01*
X157013068Y-69665659D01*
X157054939Y-69609725D01*
X157085915Y-69592810D01*
X157217331Y-69543796D01*
X157332546Y-69457546D01*
X157418796Y-69342331D01*
X157469091Y-69207483D01*
X157475500Y-69147873D01*
X157475499Y-67352128D01*
X157469091Y-67292517D01*
X157418796Y-67157669D01*
X157418795Y-67157668D01*
X157418793Y-67157664D01*
X157332547Y-67042455D01*
X157332544Y-67042452D01*
X157217335Y-66956206D01*
X157217328Y-66956202D01*
X157082482Y-66905908D01*
X157082483Y-66905908D01*
X157022883Y-66899501D01*
X157022881Y-66899500D01*
X157022873Y-66899500D01*
X157022864Y-66899500D01*
X155227129Y-66899500D01*
X155227123Y-66899501D01*
X155167516Y-66905908D01*
X155032671Y-66956202D01*
X155032664Y-66956206D01*
X154917455Y-67042452D01*
X154917452Y-67042455D01*
X154831206Y-67157664D01*
X154831202Y-67157671D01*
X154780908Y-67292517D01*
X154774501Y-67352116D01*
X154774501Y-67352123D01*
X154774500Y-67352135D01*
X154774500Y-69147870D01*
X154774501Y-69147876D01*
X154780908Y-69207483D01*
X154831202Y-69342328D01*
X154831206Y-69342335D01*
X154917452Y-69457544D01*
X154917455Y-69457547D01*
X155032664Y-69543793D01*
X155032671Y-69543797D01*
X155164081Y-69592810D01*
X155220015Y-69634681D01*
X155244432Y-69700145D01*
X155229580Y-69768418D01*
X155208430Y-69796673D01*
X155086503Y-69918600D01*
X154950965Y-70112169D01*
X154950964Y-70112171D01*
X154857401Y-70312816D01*
X154853430Y-70321335D01*
X154851098Y-70326335D01*
X154851094Y-70326344D01*
X154789938Y-70554586D01*
X154789936Y-70554596D01*
X154769341Y-70789999D01*
X154769341Y-70790000D01*
X132500000Y-70790000D01*
X132500000Y-64225000D01*
X132904551Y-64225000D01*
X132924317Y-64476151D01*
X132983126Y-64721110D01*
X133079533Y-64953859D01*
X133211160Y-65168653D01*
X133211161Y-65168656D01*
X133266604Y-65233571D01*
X133374776Y-65360224D01*
X133518694Y-65483142D01*
X133566343Y-65523838D01*
X133566346Y-65523839D01*
X133781140Y-65655466D01*
X134009365Y-65749999D01*
X134013889Y-65751873D01*
X134258852Y-65810683D01*
X134510000Y-65830449D01*
X134761148Y-65810683D01*
X135006111Y-65751873D01*
X135238859Y-65655466D01*
X135371019Y-65574477D01*
X135438461Y-65556234D01*
X135505064Y-65577350D01*
X135535072Y-65605894D01*
X135592455Y-65682547D01*
X135707664Y-65768793D01*
X135707671Y-65768797D01*
X135842517Y-65819091D01*
X135842516Y-65819091D01*
X135849444Y-65819835D01*
X135902127Y-65825500D01*
X138197872Y-65825499D01*
X138257483Y-65819091D01*
X138392331Y-65768796D01*
X138507546Y-65682546D01*
X138593796Y-65567331D01*
X138644091Y-65432483D01*
X138650500Y-65372873D01*
X138650499Y-64225000D01*
X144824551Y-64225000D01*
X144844317Y-64476151D01*
X144903126Y-64721110D01*
X144999533Y-64953859D01*
X145131160Y-65168653D01*
X145131161Y-65168656D01*
X145186604Y-65233571D01*
X145294776Y-65360224D01*
X145438694Y-65483142D01*
X145486343Y-65523838D01*
X145486346Y-65523839D01*
X145701140Y-65655466D01*
X145929365Y-65749999D01*
X145933889Y-65751873D01*
X146178852Y-65810683D01*
X146430000Y-65830449D01*
X146681148Y-65810683D01*
X146926111Y-65751873D01*
X147158859Y-65655466D01*
X147291019Y-65574477D01*
X147358461Y-65556234D01*
X147425064Y-65577350D01*
X147455072Y-65605894D01*
X147512455Y-65682547D01*
X147627664Y-65768793D01*
X147627671Y-65768797D01*
X147762517Y-65819091D01*
X147762516Y-65819091D01*
X147769444Y-65819835D01*
X147822127Y-65825500D01*
X150117872Y-65825499D01*
X150177483Y-65819091D01*
X150312331Y-65768796D01*
X150427546Y-65682546D01*
X150513796Y-65567331D01*
X150564091Y-65432483D01*
X150570500Y-65372873D01*
X150570499Y-63077128D01*
X150564091Y-63017517D01*
X150530017Y-62926161D01*
X150513797Y-62882671D01*
X150513793Y-62882664D01*
X150427547Y-62767455D01*
X150427544Y-62767452D01*
X150312335Y-62681206D01*
X150312328Y-62681202D01*
X150177482Y-62630908D01*
X150177483Y-62630908D01*
X150117883Y-62624501D01*
X150117881Y-62624500D01*
X150117873Y-62624500D01*
X150117865Y-62624500D01*
X149170217Y-62624500D01*
X149103178Y-62604815D01*
X149057423Y-62552011D01*
X149047479Y-62482853D01*
X149076504Y-62419297D01*
X149135282Y-62381523D01*
X149140552Y-62380101D01*
X149141275Y-62379921D01*
X149141283Y-62379921D01*
X149302611Y-62318737D01*
X149444609Y-62220723D01*
X149559024Y-62091574D01*
X149639208Y-61938797D01*
X149680500Y-61771270D01*
X149680500Y-61598730D01*
X149639208Y-61431203D01*
X149559024Y-61278426D01*
X149444609Y-61149277D01*
X149302612Y-61051264D01*
X149302614Y-61051264D01*
X149141282Y-60990078D01*
X149012979Y-60974500D01*
X149012975Y-60974500D01*
X148927025Y-60974500D01*
X148927021Y-60974500D01*
X148798717Y-60990078D01*
X148637386Y-61051264D01*
X148495392Y-61149276D01*
X148380976Y-61278425D01*
X148300790Y-61431206D01*
X148259500Y-61598729D01*
X148259500Y-61771270D01*
X148300790Y-61938793D01*
X148300791Y-61938796D01*
X148300792Y-61938797D01*
X148380976Y-62091574D01*
X148495391Y-62220723D01*
X148637386Y-62318735D01*
X148637387Y-62318735D01*
X148637389Y-62318737D01*
X148798717Y-62379921D01*
X148798725Y-62379921D01*
X148799450Y-62380101D01*
X148799932Y-62380381D01*
X148805731Y-62382581D01*
X148805365Y-62383544D01*
X148859833Y-62415254D01*
X148891625Y-62477472D01*
X148884733Y-62547001D01*
X148841345Y-62601766D01*
X148775236Y-62624380D01*
X148769782Y-62624500D01*
X147822129Y-62624500D01*
X147822123Y-62624501D01*
X147762516Y-62630908D01*
X147627671Y-62681202D01*
X147627664Y-62681206D01*
X147512455Y-62767452D01*
X147455072Y-62844105D01*
X147399138Y-62885976D01*
X147329446Y-62890959D01*
X147291016Y-62875520D01*
X147158859Y-62794533D01*
X146926110Y-62698126D01*
X146747066Y-62655142D01*
X146681148Y-62639317D01*
X146572481Y-62630764D01*
X146507194Y-62605881D01*
X146465724Y-62549649D01*
X146461237Y-62479924D01*
X146495160Y-62418841D01*
X146556720Y-62385796D01*
X146567262Y-62384051D01*
X146601283Y-62379921D01*
X146762611Y-62318737D01*
X146904609Y-62220723D01*
X147019024Y-62091574D01*
X147099208Y-61938797D01*
X147140500Y-61771270D01*
X147140500Y-61598730D01*
X147099208Y-61431203D01*
X147019024Y-61278426D01*
X146904609Y-61149277D01*
X146762612Y-61051264D01*
X146762614Y-61051264D01*
X146601282Y-60990078D01*
X146472979Y-60974500D01*
X146472975Y-60974500D01*
X146387025Y-60974500D01*
X146387021Y-60974500D01*
X146258717Y-60990078D01*
X146097386Y-61051264D01*
X145955392Y-61149276D01*
X145840976Y-61278425D01*
X145760790Y-61431206D01*
X145719500Y-61598729D01*
X145719500Y-61771270D01*
X145760790Y-61938793D01*
X145760791Y-61938796D01*
X145760792Y-61938797D01*
X145840976Y-62091574D01*
X145955391Y-62220723D01*
X146097386Y-62318735D01*
X146097387Y-62318735D01*
X146097389Y-62318737D01*
X146258717Y-62379921D01*
X146258716Y-62379921D01*
X146292732Y-62384051D01*
X146356911Y-62411672D01*
X146395968Y-62469606D01*
X146397503Y-62539459D01*
X146361030Y-62599053D01*
X146298127Y-62629467D01*
X146287521Y-62630764D01*
X146178852Y-62639317D01*
X146178847Y-62639318D01*
X146178848Y-62639318D01*
X145933889Y-62698126D01*
X145701140Y-62794533D01*
X145486346Y-62926160D01*
X145486343Y-62926161D01*
X145294776Y-63089776D01*
X145131161Y-63281343D01*
X145131160Y-63281346D01*
X144999533Y-63496140D01*
X144903126Y-63728889D01*
X144844317Y-63973848D01*
X144824551Y-64225000D01*
X138650499Y-64225000D01*
X138650499Y-63077128D01*
X138644091Y-63017517D01*
X138610017Y-62926161D01*
X138593797Y-62882671D01*
X138593793Y-62882664D01*
X138507547Y-62767455D01*
X138507544Y-62767452D01*
X138392335Y-62681206D01*
X138392328Y-62681202D01*
X138257482Y-62630908D01*
X138257483Y-62630908D01*
X138197883Y-62624501D01*
X138197881Y-62624500D01*
X138197873Y-62624500D01*
X138197865Y-62624500D01*
X137250217Y-62624500D01*
X137183178Y-62604815D01*
X137137423Y-62552011D01*
X137127479Y-62482853D01*
X137156504Y-62419297D01*
X137215282Y-62381523D01*
X137220552Y-62380101D01*
X137221275Y-62379921D01*
X137221283Y-62379921D01*
X137382611Y-62318737D01*
X137524609Y-62220723D01*
X137639024Y-62091574D01*
X137719208Y-61938797D01*
X137760500Y-61771270D01*
X137760500Y-61598730D01*
X137719208Y-61431203D01*
X137639024Y-61278426D01*
X137524609Y-61149277D01*
X137382612Y-61051264D01*
X137382614Y-61051264D01*
X137221282Y-60990078D01*
X137092979Y-60974500D01*
X137092975Y-60974500D01*
X137007025Y-60974500D01*
X137007021Y-60974500D01*
X136878717Y-60990078D01*
X136717386Y-61051264D01*
X136575392Y-61149276D01*
X136460976Y-61278425D01*
X136380790Y-61431206D01*
X136339500Y-61598729D01*
X136339500Y-61771270D01*
X136380790Y-61938793D01*
X136380791Y-61938796D01*
X136380792Y-61938797D01*
X136460976Y-62091574D01*
X136575391Y-62220723D01*
X136717386Y-62318735D01*
X136717387Y-62318735D01*
X136717389Y-62318737D01*
X136878717Y-62379921D01*
X136878725Y-62379921D01*
X136879450Y-62380101D01*
X136879932Y-62380381D01*
X136885731Y-62382581D01*
X136885365Y-62383544D01*
X136939833Y-62415254D01*
X136971625Y-62477472D01*
X136964733Y-62547001D01*
X136921345Y-62601766D01*
X136855236Y-62624380D01*
X136849782Y-62624500D01*
X135902129Y-62624500D01*
X135902123Y-62624501D01*
X135842516Y-62630908D01*
X135707671Y-62681202D01*
X135707664Y-62681206D01*
X135592455Y-62767452D01*
X135535072Y-62844105D01*
X135479138Y-62885976D01*
X135409446Y-62890959D01*
X135371016Y-62875520D01*
X135238859Y-62794533D01*
X135006110Y-62698126D01*
X134827066Y-62655142D01*
X134761148Y-62639317D01*
X134652481Y-62630764D01*
X134587194Y-62605881D01*
X134545724Y-62549649D01*
X134541237Y-62479924D01*
X134575160Y-62418841D01*
X134636720Y-62385796D01*
X134647262Y-62384051D01*
X134681283Y-62379921D01*
X134842611Y-62318737D01*
X134984609Y-62220723D01*
X135099024Y-62091574D01*
X135179208Y-61938797D01*
X135220500Y-61771270D01*
X135220500Y-61598730D01*
X135179208Y-61431203D01*
X135099024Y-61278426D01*
X134984609Y-61149277D01*
X134842612Y-61051264D01*
X134842614Y-61051264D01*
X134681282Y-60990078D01*
X134552979Y-60974500D01*
X134552975Y-60974500D01*
X134467025Y-60974500D01*
X134467021Y-60974500D01*
X134338717Y-60990078D01*
X134177386Y-61051264D01*
X134035392Y-61149276D01*
X133920976Y-61278425D01*
X133840790Y-61431206D01*
X133799500Y-61598729D01*
X133799500Y-61771270D01*
X133840790Y-61938793D01*
X133840791Y-61938796D01*
X133840792Y-61938797D01*
X133920976Y-62091574D01*
X134035391Y-62220723D01*
X134177386Y-62318735D01*
X134177387Y-62318735D01*
X134177389Y-62318737D01*
X134338717Y-62379921D01*
X134338716Y-62379921D01*
X134372732Y-62384051D01*
X134436911Y-62411672D01*
X134475968Y-62469606D01*
X134477503Y-62539459D01*
X134441030Y-62599053D01*
X134378127Y-62629467D01*
X134367521Y-62630764D01*
X134258852Y-62639317D01*
X134258847Y-62639318D01*
X134258848Y-62639318D01*
X134013889Y-62698126D01*
X133781140Y-62794533D01*
X133566346Y-62926160D01*
X133566343Y-62926161D01*
X133374776Y-63089776D01*
X133211161Y-63281343D01*
X133211160Y-63281346D01*
X133079533Y-63496140D01*
X132983126Y-63728889D01*
X132924317Y-63973848D01*
X132904551Y-64225000D01*
X132500000Y-64225000D01*
X132500000Y-58374500D01*
X132519685Y-58307461D01*
X132572489Y-58261706D01*
X132624000Y-58250500D01*
X161561738Y-58250500D01*
X161614043Y-63742500D01*
G37*
%TD.AperFunction*%
%TD*%
%TA.AperFunction,Conductor*%
%TO.N,+3.3V*%
G36*
X173824843Y-75726088D02*
G01*
X173892467Y-75843216D01*
X174019129Y-75983888D01*
X174172265Y-76095148D01*
X174172270Y-76095151D01*
X174345192Y-76172142D01*
X174345197Y-76172144D01*
X174530354Y-76211500D01*
X174530355Y-76211500D01*
X174719644Y-76211500D01*
X174719646Y-76211500D01*
X174904803Y-76172144D01*
X175077730Y-76095151D01*
X175230871Y-75983888D01*
X175357533Y-75843216D01*
X175422790Y-75730186D01*
X180588030Y-75743429D01*
X180661157Y-75775988D01*
X180695192Y-75791142D01*
X180695197Y-75791144D01*
X180880354Y-75830500D01*
X180880355Y-75830500D01*
X181069644Y-75830500D01*
X181069646Y-75830500D01*
X181254803Y-75791144D01*
X181357537Y-75745403D01*
X183150000Y-75750000D01*
X183173903Y-78474912D01*
X183154807Y-78542122D01*
X183102407Y-78588338D01*
X183049908Y-78600000D01*
X178900000Y-78600000D01*
X178922621Y-79798952D01*
X178904205Y-79866351D01*
X178852273Y-79913094D01*
X178798930Y-79925291D01*
X171011440Y-79943317D01*
X170944355Y-79923787D01*
X170898478Y-79871089D01*
X170887832Y-79832276D01*
X170885674Y-79811748D01*
X170885674Y-79811745D01*
X170881517Y-79798952D01*
X170827179Y-79631716D01*
X170732533Y-79467784D01*
X170605871Y-79327112D01*
X170605870Y-79327111D01*
X170452734Y-79215851D01*
X170452729Y-79215848D01*
X170279807Y-79138857D01*
X170279802Y-79138855D01*
X170134001Y-79107865D01*
X170094646Y-79099500D01*
X169905354Y-79099500D01*
X169872897Y-79106398D01*
X169720197Y-79138855D01*
X169720192Y-79138857D01*
X169547270Y-79215848D01*
X169547265Y-79215851D01*
X169394129Y-79327111D01*
X169267466Y-79467785D01*
X169172821Y-79631715D01*
X169172818Y-79631722D01*
X169114327Y-79811739D01*
X169114327Y-79811740D01*
X169114326Y-79811744D01*
X169111676Y-79836962D01*
X169085091Y-79901576D01*
X169027793Y-79941560D01*
X168988642Y-79947999D01*
X157324999Y-79975000D01*
X157250265Y-115050210D01*
X157230437Y-115117208D01*
X157177536Y-115162850D01*
X157125214Y-115173942D01*
X154300000Y-115150000D01*
X154230703Y-103534248D01*
X154232533Y-103532216D01*
X154327179Y-103368284D01*
X154385674Y-103188256D01*
X154405460Y-103000000D01*
X154385674Y-102811744D01*
X154327179Y-102631716D01*
X154232533Y-102467784D01*
X154224286Y-102458625D01*
X154196067Y-97728245D01*
X154282533Y-97632216D01*
X154377179Y-97468284D01*
X154435674Y-97288256D01*
X154455460Y-97100000D01*
X154435674Y-96911744D01*
X154377179Y-96731716D01*
X154282533Y-96567784D01*
X154188520Y-96463373D01*
X154100000Y-81625000D01*
X154054088Y-77470000D01*
X171179540Y-77470000D01*
X171199326Y-77658256D01*
X171199327Y-77658259D01*
X171257818Y-77838277D01*
X171257821Y-77838284D01*
X171352467Y-78002216D01*
X171479128Y-78142888D01*
X171479129Y-78142888D01*
X171632265Y-78254148D01*
X171632270Y-78254151D01*
X171805192Y-78331142D01*
X171805197Y-78331144D01*
X171990354Y-78370500D01*
X171990355Y-78370500D01*
X172179644Y-78370500D01*
X172179646Y-78370500D01*
X172364803Y-78331144D01*
X172537730Y-78254151D01*
X172690871Y-78142888D01*
X172817533Y-78002216D01*
X172912179Y-77838284D01*
X172970674Y-77658256D01*
X172990460Y-77470000D01*
X172970674Y-77281744D01*
X172912179Y-77101716D01*
X172817533Y-76937784D01*
X172690871Y-76797112D01*
X172690870Y-76797111D01*
X172537734Y-76685851D01*
X172537729Y-76685848D01*
X172364807Y-76608857D01*
X172364802Y-76608855D01*
X172219000Y-76577865D01*
X172179646Y-76569500D01*
X171990354Y-76569500D01*
X171957897Y-76576398D01*
X171805197Y-76608855D01*
X171805192Y-76608857D01*
X171632270Y-76685848D01*
X171632265Y-76685851D01*
X171479129Y-76797111D01*
X171352466Y-76937785D01*
X171257821Y-77101715D01*
X171257818Y-77101722D01*
X171199327Y-77281740D01*
X171199326Y-77281744D01*
X171179540Y-77470000D01*
X154054088Y-77470000D01*
X154051392Y-77226020D01*
X154070334Y-77158769D01*
X154122629Y-77112434D01*
X154176024Y-77100654D01*
X163675000Y-77150000D01*
X163650000Y-75700000D01*
X173824843Y-75726088D01*
G37*
%TD.AperFunction*%
%TD*%
M02*
