M48
; DRILL file {KiCad 7.0.7} date Sun Mar 10 16:06:46 2024
; FORMAT={-:-/ absolute / metric / decimal}
; #@! TF.CreationDate,2024-03-10T16:06:46-05:00
; #@! TF.GenerationSoftware,Kicad,Pcbnew,7.0.7
; #@! TF.FileFunction,MixedPlating,1,2
FMAT,2
METRIC
; #@! TA.AperFunction,Plated,PTH,ViaDrill
T1C0.400
; #@! TA.AperFunction,Plated,PTH,ComponentDrill
T2C0.500
; #@! TA.AperFunction,Plated,PTH,ComponentDrill
T3C0.750
; #@! TA.AperFunction,Plated,PTH,ComponentDrill
T4C0.800
; #@! TA.AperFunction,Plated,PTH,ComponentDrill
T5C1.000
; #@! TA.AperFunction,Plated,PTH,ComponentDrill
T6C1.200
; #@! TA.AperFunction,Plated,PTH,ComponentDrill
T7C1.400
; #@! TA.AperFunction,Plated,PTH,ComponentDrill
T8C1.800
; #@! TA.AperFunction,Plated,PTH,ComponentDrill
T9C2.400
; #@! TA.AperFunction,Plated,PTH,ComponentDrill
T10C3.500
; #@! TA.AperFunction,NonPlated,NPTH,ComponentDrill
T11C2.600
%
G90
G05
T1
X118.25Y-131.75
X121.0Y-128.75
X124.0Y-131.75
X130.5Y-60.5
X131.75Y-58.5
X131.75Y-63.0
X134.0Y-63.75
X134.25Y-58.0
X136.5Y-58.75
X137.75Y-61.0
X156.75Y-69.0
X157.25Y-138.5
X157.75Y-140.25
X159.5Y-74.25
X162.5Y-76.0
X162.75Y-71.25
X164.5Y-65.5
X167.25Y-87.75
X168.75Y-79.25
X170.0Y-65.5
X170.75Y-95.5
X171.25Y-106.0
X171.5Y-75.25
X172.0Y-121.25
X172.25Y-126.0
X175.0Y-103.5
X175.0Y-114.0
X177.0Y-97.75
X178.5Y-67.75
X182.0Y-68.0
X183.0Y-140.75
X183.5Y-137.25
X184.0Y-139.0
X187.25Y-81.5
X194.25Y-87.75
X198.5Y-113.0
X202.5Y-94.0
X203.75Y-108.25
X203.75Y-113.25
X207.0Y-116.25
X209.5Y-113.25
T2
X118.125Y-62.0
X118.25Y-146.0
X118.894Y-60.144
X118.894Y-63.856
X119.019Y-144.144
X119.019Y-147.856
X120.75Y-59.375
X120.75Y-64.625
X120.875Y-143.375
X120.875Y-148.625
X122.606Y-60.144
X122.606Y-63.856
X122.731Y-144.144
X122.731Y-147.856
X123.375Y-62.0
X123.5Y-146.0
X205.125Y-61.75
X205.375Y-145.75
X205.894Y-59.894
X205.894Y-63.606
X206.144Y-143.894
X206.144Y-147.606
X207.75Y-59.125
X207.75Y-64.375
X208.0Y-143.125
X208.0Y-148.375
X209.606Y-59.894
X209.606Y-63.606
X209.856Y-143.894
X209.856Y-147.606
X210.375Y-61.75
X210.625Y-145.75
T3
X177.48Y-94.27
X178.75Y-93.0
X178.75Y-95.54
T4
X125.42Y-137.5
X135.58Y-137.5
X141.67Y-55.75
X146.8Y-115.265
X146.8Y-125.425
X149.8Y-115.345
X149.8Y-125.505
X151.83Y-55.75
X158.42Y-106.5
X159.22Y-134.425
X164.5Y-116.13
X164.5Y-123.75
X164.67Y-70.75
X167.04Y-116.13
X167.04Y-123.75
X168.58Y-106.5
X169.38Y-134.425
X169.58Y-116.13
X169.58Y-123.75
X171.72Y-134.425
X172.12Y-116.13
X172.12Y-123.75
X174.5Y-57.92
X174.5Y-68.08
X174.83Y-70.75
X178.5Y-69.92
X178.5Y-80.08
X181.88Y-134.425
X182.0Y-70.17
X182.0Y-80.33
X191.5Y-73.92
X191.5Y-84.08
T5
X146.55Y-129.425
X154.05Y-115.425
X154.05Y-125.425
X156.55Y-129.425
X158.5Y-110.75
X159.3Y-138.675
X159.8Y-114.925
X159.8Y-124.925
X164.5Y-58.0
X164.5Y-68.0
X164.75Y-75.0
X168.5Y-110.75
X169.3Y-138.675
X170.0Y-58.0
X170.0Y-68.0
X171.8Y-138.675
X174.75Y-75.0
X181.8Y-138.675
X184.25Y-92.75
X184.25Y-102.75
X187.25Y-73.75
X187.25Y-83.75
X188.25Y-68.05
X190.75Y-68.05
X193.25Y-68.05
X195.75Y-74.0
X195.75Y-84.0
X201.0Y-72.0
X203.5Y-88.8
X203.5Y-92.2
X206.0Y-88.8
X206.0Y-92.2
X208.5Y-88.8
X208.5Y-92.2
X211.0Y-72.0
T6
X158.15Y-98.25
X158.4Y-102.5
X159.5Y-58.9
X159.5Y-71.6
X170.85Y-98.25
X171.1Y-102.5
T7
X121.025Y-115.635
X121.025Y-131.865
X133.725Y-115.635
X133.725Y-131.865
X194.275Y-113.135
X194.275Y-129.365
X206.975Y-113.135
X206.975Y-129.365
T9
X134.15Y-60.85
X146.85Y-60.85
T10
X120.75Y-62.0
X120.875Y-146.0
X207.75Y-61.75
X208.0Y-145.75
T11
X129.4Y-71.75
X129.4Y-99.75
X151.6Y-85.0
T8
X186.35Y-61.2G85X186.35Y-60.9
G05
X195.15Y-61.2G85X195.15Y-60.9
G05
X201.6Y-81.95G85X201.6Y-81.65
G05
X201.6Y-99.05G85X201.6Y-99.35
G05
X210.4Y-81.95G85X210.4Y-81.65
G05
X210.4Y-99.05G85X210.4Y-99.35
G05
T0
M30
