%TF.GenerationSoftware,KiCad,Pcbnew,7.0.7*%
%TF.CreationDate,2024-03-10T16:06:42-05:00*%
%TF.ProjectId,Distortion,44697374-6f72-4746-996f-6e2e6b696361,rev?*%
%TF.SameCoordinates,Original*%
%TF.FileFunction,Soldermask,Bot*%
%TF.FilePolarity,Negative*%
%FSLAX46Y46*%
G04 Gerber Fmt 4.6, Leading zero omitted, Abs format (unit mm)*
G04 Created by KiCad (PCBNEW 7.0.7) date 2024-03-10 16:06:42*
%MOMM*%
%LPD*%
G01*
G04 APERTURE LIST*
G04 Aperture macros list*
%AMRoundRect*
0 Rectangle with rounded corners*
0 $1 Rounding radius*
0 $2 $3 $4 $5 $6 $7 $8 $9 X,Y pos of 4 corners*
0 Add a 4 corners polygon primitive as box body*
4,1,4,$2,$3,$4,$5,$6,$7,$8,$9,$2,$3,0*
0 Add four circle primitives for the rounded corners*
1,1,$1+$1,$2,$3*
1,1,$1+$1,$4,$5*
1,1,$1+$1,$6,$7*
1,1,$1+$1,$8,$9*
0 Add four rect primitives between the rounded corners*
20,1,$1+$1,$2,$3,$4,$5,0*
20,1,$1+$1,$4,$5,$6,$7,0*
20,1,$1+$1,$6,$7,$8,$9,0*
20,1,$1+$1,$8,$9,$2,$3,0*%
G04 Aperture macros list end*
%ADD10C,0.800000*%
%ADD11C,7.000000*%
%ADD12R,1.600000X2.400000*%
%ADD13O,1.600000X2.400000*%
%ADD14RoundRect,0.750000X-0.750000X1.250000X-0.750000X-1.250000X0.750000X-1.250000X0.750000X1.250000X0*%
%ADD15C,1.800000*%
%ADD16R,1.800000X1.800000*%
%ADD17RoundRect,0.750000X0.750000X-1.250000X0.750000X1.250000X-0.750000X1.250000X-0.750000X-1.250000X0*%
%ADD18C,1.600000*%
%ADD19O,1.600000X1.600000*%
%ADD20C,1.300000*%
%ADD21R,1.300000X1.300000*%
%ADD22C,3.000000*%
%ADD23O,2.400000X2.400000*%
%ADD24R,2.400000X2.400000*%
%ADD25C,2.000000*%
%ADD26R,3.000000X3.000000*%
%ADD27C,2.600000*%
G04 APERTURE END LIST*
D10*
%TO.C,H4*%
X120875000Y-148625000D03*
X123500000Y-146000000D03*
D11*
X120875000Y-146000000D03*
D10*
X120875000Y-143375000D03*
X119018845Y-147856155D03*
X119018845Y-144143845D03*
X122731155Y-147856155D03*
X118250000Y-146000000D03*
X122731155Y-144143845D03*
%TD*%
%TO.C,H3*%
X122606155Y-60143845D03*
X118125000Y-62000000D03*
X122606155Y-63856155D03*
X118893845Y-60143845D03*
X118893845Y-63856155D03*
X120750000Y-59375000D03*
D11*
X120750000Y-62000000D03*
D10*
X123375000Y-62000000D03*
X120750000Y-64625000D03*
%TD*%
%TO.C,H2*%
X208000000Y-148375000D03*
X210625000Y-145750000D03*
D11*
X208000000Y-145750000D03*
D10*
X208000000Y-143125000D03*
X206143845Y-147606155D03*
X206143845Y-143893845D03*
X209856155Y-147606155D03*
X205375000Y-145750000D03*
X209856155Y-143893845D03*
%TD*%
%TO.C,H1*%
X209606155Y-59893845D03*
X205125000Y-61750000D03*
X209606155Y-63606155D03*
X205893845Y-59893845D03*
X205893845Y-63606155D03*
X207750000Y-59125000D03*
D11*
X207750000Y-61750000D03*
D10*
X210375000Y-61750000D03*
X207750000Y-64375000D03*
%TD*%
D12*
%TO.C,U1*%
X164500000Y-123750000D03*
D13*
X167040000Y-123750000D03*
X169580000Y-123750000D03*
X172120000Y-123750000D03*
X172120000Y-116130000D03*
X169580000Y-116130000D03*
X167040000Y-116130000D03*
X164500000Y-116130000D03*
%TD*%
D14*
%TO.C,RV3*%
X201600000Y-99200000D03*
X210400000Y-99200000D03*
D15*
X203500000Y-92200000D03*
X206000000Y-92200000D03*
D16*
X208500000Y-92200000D03*
%TD*%
D17*
%TO.C,RV2*%
X210400000Y-81800000D03*
X201600000Y-81800000D03*
D15*
X208500000Y-88800000D03*
X206000000Y-88800000D03*
D16*
X203500000Y-88800000D03*
%TD*%
D17*
%TO.C,RV1*%
X195150000Y-61050000D03*
X186350000Y-61050000D03*
D15*
X193250000Y-68050000D03*
X190750000Y-68050000D03*
D16*
X188250000Y-68050000D03*
%TD*%
D18*
%TO.C,R12*%
X182000000Y-70170000D03*
D19*
X182000000Y-80330000D03*
%TD*%
D18*
%TO.C,R11*%
X178500000Y-69920000D03*
D19*
X178500000Y-80080000D03*
%TD*%
%TO.C,R10*%
X191500000Y-84080000D03*
D18*
X191500000Y-73920000D03*
%TD*%
%TO.C,R9*%
X158420000Y-106500000D03*
D19*
X168580000Y-106500000D03*
%TD*%
D18*
%TO.C,R8*%
X169380000Y-134425000D03*
D19*
X159220000Y-134425000D03*
%TD*%
D18*
%TO.C,R7*%
X171720000Y-134425000D03*
D19*
X181880000Y-134425000D03*
%TD*%
D18*
%TO.C,R6*%
X149800000Y-115345000D03*
D19*
X149800000Y-125505000D03*
%TD*%
D18*
%TO.C,R5*%
X146800000Y-125425000D03*
D19*
X146800000Y-115265000D03*
%TD*%
%TO.C,R4*%
X135580000Y-137500000D03*
D18*
X125420000Y-137500000D03*
%TD*%
%TO.C,R3*%
X164670000Y-70750000D03*
D19*
X174830000Y-70750000D03*
%TD*%
D18*
%TO.C,R2*%
X174500000Y-68080000D03*
D19*
X174500000Y-57920000D03*
%TD*%
%TO.C,R1*%
X151830000Y-55750000D03*
D18*
X141670000Y-55750000D03*
%TD*%
D20*
%TO.C,Q1*%
X178750000Y-93000000D03*
X177480000Y-94270000D03*
D21*
X178750000Y-95540000D03*
%TD*%
D22*
%TO.C,J2*%
X206975000Y-113135000D03*
X206975000Y-129365000D03*
X194275000Y-113135000D03*
X194275000Y-129365000D03*
%TD*%
%TO.C,J1*%
X121025000Y-131865000D03*
X121025000Y-115635000D03*
X133725000Y-131865000D03*
X133725000Y-115635000D03*
%TD*%
D23*
%TO.C,D3*%
X170850000Y-98250000D03*
D24*
X158150000Y-98250000D03*
%TD*%
D23*
%TO.C,D2*%
X158400000Y-102500000D03*
D24*
X171100000Y-102500000D03*
%TD*%
D23*
%TO.C,D1*%
X159500000Y-71600000D03*
D24*
X159500000Y-58900000D03*
%TD*%
D25*
%TO.C,C13*%
X159800000Y-124925000D03*
X159800000Y-114925000D03*
%TD*%
%TO.C,C12*%
X184250000Y-92750000D03*
X184250000Y-102750000D03*
%TD*%
%TO.C,C11*%
X195750000Y-74000000D03*
X195750000Y-84000000D03*
%TD*%
%TO.C,C10*%
X187250000Y-73750000D03*
X187250000Y-83750000D03*
%TD*%
%TO.C,C9*%
X168500000Y-110750000D03*
X158500000Y-110750000D03*
%TD*%
%TO.C,C8*%
X211000000Y-72000000D03*
X201000000Y-72000000D03*
%TD*%
%TO.C,C7*%
X159300000Y-138675000D03*
X169300000Y-138675000D03*
%TD*%
%TO.C,C6*%
X181800000Y-138675000D03*
X171800000Y-138675000D03*
%TD*%
%TO.C,C5*%
X154050000Y-125425000D03*
X154050000Y-115425000D03*
%TD*%
%TO.C,C4*%
X146550000Y-129425000D03*
X156550000Y-129425000D03*
%TD*%
%TO.C,C3*%
X174750000Y-75000000D03*
X164750000Y-75000000D03*
%TD*%
%TO.C,C2*%
X170000000Y-58000000D03*
X170000000Y-68000000D03*
%TD*%
%TO.C,C1*%
X164500000Y-68000000D03*
X164500000Y-58000000D03*
%TD*%
D22*
%TO.C,BT1*%
X134150000Y-60850000D03*
D26*
X146850000Y-60850000D03*
D27*
X129400000Y-71750000D03*
X151600000Y-85000000D03*
X129400000Y-99750000D03*
%TD*%
M02*
