%TF.GenerationSoftware,KiCad,Pcbnew,7.0.7*%
%TF.CreationDate,2024-03-10T16:18:29-05:00*%
%TF.ProjectId,rev2,72657632-2e6b-4696-9361-645f70636258,rev?*%
%TF.SameCoordinates,Original*%
%TF.FileFunction,Legend,Top*%
%TF.FilePolarity,Positive*%
%FSLAX46Y46*%
G04 Gerber Fmt 4.6, Leading zero omitted, Abs format (unit mm)*
G04 Created by KiCad (PCBNEW 7.0.7) date 2024-03-10 16:18:29*
%MOMM*%
%LPD*%
G01*
G04 APERTURE LIST*
%ADD10C,0.150000*%
%ADD11C,0.120000*%
%ADD12C,0.100000*%
G04 APERTURE END LIST*
D10*
X139874666Y-113878819D02*
X139874666Y-114593104D01*
X139874666Y-114593104D02*
X139827047Y-114735961D01*
X139827047Y-114735961D02*
X139731809Y-114831200D01*
X139731809Y-114831200D02*
X139588952Y-114878819D01*
X139588952Y-114878819D02*
X139493714Y-114878819D01*
X140398476Y-114878819D02*
X140588952Y-114878819D01*
X140588952Y-114878819D02*
X140684190Y-114831200D01*
X140684190Y-114831200D02*
X140731809Y-114783580D01*
X140731809Y-114783580D02*
X140827047Y-114640723D01*
X140827047Y-114640723D02*
X140874666Y-114450247D01*
X140874666Y-114450247D02*
X140874666Y-114069295D01*
X140874666Y-114069295D02*
X140827047Y-113974057D01*
X140827047Y-113974057D02*
X140779428Y-113926438D01*
X140779428Y-113926438D02*
X140684190Y-113878819D01*
X140684190Y-113878819D02*
X140493714Y-113878819D01*
X140493714Y-113878819D02*
X140398476Y-113926438D01*
X140398476Y-113926438D02*
X140350857Y-113974057D01*
X140350857Y-113974057D02*
X140303238Y-114069295D01*
X140303238Y-114069295D02*
X140303238Y-114307390D01*
X140303238Y-114307390D02*
X140350857Y-114402628D01*
X140350857Y-114402628D02*
X140398476Y-114450247D01*
X140398476Y-114450247D02*
X140493714Y-114497866D01*
X140493714Y-114497866D02*
X140684190Y-114497866D01*
X140684190Y-114497866D02*
X140779428Y-114450247D01*
X140779428Y-114450247D02*
X140827047Y-114402628D01*
X140827047Y-114402628D02*
X140874666Y-114307390D01*
D11*
%TO.C,U1*%
X123748000Y-88950000D02*
X123748000Y-89900000D01*
X123748000Y-89900000D02*
X122458000Y-89900000D01*
X123748000Y-109170000D02*
X123748000Y-108220000D01*
X124698000Y-88950000D02*
X123748000Y-88950000D01*
X124698000Y-109170000D02*
X123748000Y-109170000D01*
X143018000Y-88950000D02*
X143968000Y-88950000D01*
X143018000Y-109170000D02*
X143968000Y-109170000D01*
X143968000Y-88950000D02*
X143968000Y-89900000D01*
X143968000Y-109170000D02*
X143968000Y-108220000D01*
%TO.C,C46*%
X147062500Y-102103733D02*
X147062500Y-102396267D01*
X146042500Y-102103733D02*
X146042500Y-102396267D01*
%TO.C,C45*%
X130808000Y-85236267D02*
X130808000Y-84943733D01*
X131828000Y-85236267D02*
X131828000Y-84943733D01*
%TO.C,C26*%
X115314000Y-98444267D02*
X115314000Y-98151733D01*
X116334000Y-98444267D02*
X116334000Y-98151733D01*
%TO.C,R1*%
X115973776Y-81011500D02*
X116483224Y-81011500D01*
X115973776Y-82056500D02*
X116483224Y-82056500D01*
%TO.C,J8*%
X156889000Y-110132000D02*
X154289000Y-110132000D01*
X159789000Y-110132000D02*
X161449000Y-110132000D01*
X161449000Y-110132000D02*
X161449000Y-102212000D01*
X151979000Y-109372000D02*
X151979000Y-108222000D01*
X151389000Y-108222000D02*
X151389000Y-107522000D01*
X151979000Y-108222000D02*
X151389000Y-108222000D01*
X151979000Y-104122000D02*
X151979000Y-102972000D01*
X154289000Y-102212000D02*
X156889000Y-102212000D01*
X161449000Y-102212000D02*
X159789000Y-102212000D01*
%TO.C,R6*%
X117333500Y-103124724D02*
X117333500Y-102615276D01*
X118378500Y-103124724D02*
X118378500Y-102615276D01*
%TO.C,C38*%
X120140000Y-98343767D02*
X120140000Y-98051233D01*
X121160000Y-98343767D02*
X121160000Y-98051233D01*
%TO.C,U2*%
X149078000Y-86106000D02*
X149078000Y-89556000D01*
X149078000Y-86106000D02*
X149078000Y-84156000D01*
X154198000Y-86106000D02*
X154198000Y-88056000D01*
X154198000Y-86106000D02*
X154198000Y-84156000D01*
%TO.C,C29*%
X148588000Y-94380267D02*
X148588000Y-94087733D01*
X149608000Y-94380267D02*
X149608000Y-94087733D01*
%TO.C,R5*%
X156272500Y-114995276D02*
X156272500Y-115504724D01*
X155227500Y-114995276D02*
X155227500Y-115504724D01*
%TO.C,C44*%
X137808767Y-112242000D02*
X137516233Y-112242000D01*
X137808767Y-111222000D02*
X137516233Y-111222000D01*
%TO.C,C49*%
X120347200Y-107803733D02*
X120347200Y-108096267D01*
X119327200Y-107803733D02*
X119327200Y-108096267D01*
%TO.C,Y1*%
X113570000Y-91568000D02*
X113570000Y-94868000D01*
X113570000Y-94868000D02*
X117570000Y-94868000D01*
%TO.C,C32*%
X124712000Y-85236267D02*
X124712000Y-84943733D01*
X125732000Y-85236267D02*
X125732000Y-84943733D01*
%TO.C,C28*%
X154832267Y-91188000D02*
X154539733Y-91188000D01*
X154832267Y-90168000D02*
X154539733Y-90168000D01*
%TO.C,C41*%
X147062500Y-96853733D02*
X147062500Y-97146267D01*
X146042500Y-96853733D02*
X146042500Y-97146267D01*
%TO.C,U5*%
X150332000Y-91840000D02*
X156342000Y-91840000D01*
X152582000Y-98660000D02*
X156342000Y-98660000D01*
X156342000Y-91840000D02*
X156342000Y-93100000D01*
X156342000Y-98660000D02*
X156342000Y-97400000D01*
%TO.C,R2*%
X112775276Y-98029500D02*
X113284724Y-98029500D01*
X112775276Y-99074500D02*
X113284724Y-99074500D01*
%TO.C,C24*%
X122574267Y-75440000D02*
X122281733Y-75440000D01*
X122574267Y-74420000D02*
X122281733Y-74420000D01*
%TO.C,C22*%
X146305733Y-87600000D02*
X146598267Y-87600000D01*
X146305733Y-88620000D02*
X146598267Y-88620000D01*
%TO.C,C30*%
X147068000Y-90353733D02*
X147068000Y-90646267D01*
X146048000Y-90353733D02*
X146048000Y-90646267D01*
%TO.C,C21*%
X141988000Y-112375733D02*
X141988000Y-112668267D01*
X140968000Y-112375733D02*
X140968000Y-112668267D01*
%TO.C,R7*%
X110348500Y-106426724D02*
X110348500Y-105917276D01*
X111393500Y-106426724D02*
X111393500Y-105917276D01*
%TO.C,C42*%
X124204000Y-112795267D02*
X124204000Y-112502733D01*
X125224000Y-112795267D02*
X125224000Y-112502733D01*
%TO.C,C33*%
X132982767Y-112242000D02*
X132690233Y-112242000D01*
X132982767Y-111222000D02*
X132690233Y-111222000D01*
%TO.C,C25*%
X111381000Y-115423733D02*
X111381000Y-115716267D01*
X110361000Y-115423733D02*
X110361000Y-115716267D01*
%TO.C,C48*%
X118874000Y-107803733D02*
X118874000Y-108096267D01*
X117854000Y-107803733D02*
X117854000Y-108096267D01*
%TO.C,C39*%
X121408500Y-104473733D02*
X121408500Y-104766267D01*
X120388500Y-104473733D02*
X120388500Y-104766267D01*
%TO.C,C23*%
X114044000Y-87014267D02*
X114044000Y-86721733D01*
X115064000Y-87014267D02*
X115064000Y-86721733D01*
%TO.C,C31*%
X121154500Y-93043733D02*
X121154500Y-93336267D01*
X120134500Y-93043733D02*
X120134500Y-93336267D01*
%TO.C,C43*%
X143512000Y-112375733D02*
X143512000Y-112668267D01*
X142492000Y-112375733D02*
X142492000Y-112668267D01*
%TO.C,R8*%
X110348500Y-112014724D02*
X110348500Y-111505276D01*
X111393500Y-112014724D02*
X111393500Y-111505276D01*
%TO.C,U6*%
X150860000Y-103900000D02*
X150860000Y-102100000D01*
X147640000Y-102100000D02*
X147640000Y-104550000D01*
%TO.C,C40*%
X138686000Y-85451733D02*
X138686000Y-85744267D01*
X137666000Y-85451733D02*
X137666000Y-85744267D01*
%TO.C,U3*%
X150896000Y-111252000D02*
X150896000Y-107802000D01*
X150896000Y-111252000D02*
X150896000Y-113202000D01*
X145776000Y-111252000D02*
X145776000Y-109302000D01*
X145776000Y-111252000D02*
X145776000Y-113202000D01*
%TO.C,R4*%
X157748500Y-82295276D02*
X157748500Y-82804724D01*
X156703500Y-82295276D02*
X156703500Y-82804724D01*
%TO.C,R3*%
X116825500Y-98552724D02*
X116825500Y-98043276D01*
X117870500Y-98552724D02*
X117870500Y-98043276D01*
%TO.C,C47*%
X119890000Y-104501733D02*
X119890000Y-104794267D01*
X118870000Y-104501733D02*
X118870000Y-104794267D01*
%TO.C,C27*%
X119636000Y-93071733D02*
X119636000Y-93364267D01*
X118616000Y-93071733D02*
X118616000Y-93364267D01*
%TO.C,J9*%
X135538000Y-119924000D02*
X135538000Y-118124000D01*
X135538000Y-122024000D02*
X135538000Y-123174000D01*
X144878000Y-119924000D02*
X144878000Y-118124000D01*
X144878000Y-122024000D02*
X144878000Y-123174000D01*
D12*
%TO.C,U4*%
X121332000Y-79424000D02*
X121332000Y-78604000D01*
X124032000Y-79324000D02*
X123812000Y-79324000D01*
X124032000Y-79324000D02*
X124032000Y-78604000D01*
X121332000Y-76844000D02*
X121332000Y-76124000D01*
X121332000Y-76124000D02*
X121552000Y-76124000D01*
X123812000Y-76124000D02*
X124032000Y-76124000D01*
X124032000Y-76124000D02*
X124032000Y-76844000D01*
%TD*%
M02*
