%TF.GenerationSoftware,KiCad,Pcbnew,7.0.7*%
%TF.CreationDate,2024-03-10T16:18:29-05:00*%
%TF.ProjectId,rev2,72657632-2e6b-4696-9361-645f70636258,rev?*%
%TF.SameCoordinates,Original*%
%TF.FileFunction,Copper,L2,Inr*%
%TF.FilePolarity,Positive*%
%FSLAX46Y46*%
G04 Gerber Fmt 4.6, Leading zero omitted, Abs format (unit mm)*
G04 Created by KiCad (PCBNEW 7.0.7) date 2024-03-10 16:18:29*
%MOMM*%
%LPD*%
G01*
G04 APERTURE LIST*
%TA.AperFunction,ComponentPad*%
%ADD10O,1.000000X2.100000*%
%TD*%
%TA.AperFunction,ComponentPad*%
%ADD11O,1.000000X1.800000*%
%TD*%
%TA.AperFunction,ComponentPad*%
%ADD12R,2.200000X2.200000*%
%TD*%
%TA.AperFunction,ComponentPad*%
%ADD13C,2.200000*%
%TD*%
%TA.AperFunction,ComponentPad*%
%ADD14R,1.700000X1.700000*%
%TD*%
%TA.AperFunction,ComponentPad*%
%ADD15O,1.700000X1.700000*%
%TD*%
%TA.AperFunction,ViaPad*%
%ADD16C,0.800000*%
%TD*%
G04 APERTURE END LIST*
D10*
%TO.N,GND*%
%TO.C,J9*%
X135888000Y-116819000D03*
D11*
X135888000Y-120999000D03*
D10*
X144528000Y-116819000D03*
D11*
X144528000Y-120999000D03*
%TD*%
D12*
%TO.N,/CAN1+*%
%TO.C,J2*%
X149980000Y-78500000D03*
D13*
%TO.N,/CAN1-*%
X152520000Y-78500000D03*
%TD*%
D14*
%TO.N,/CAN2-*%
%TO.C,J3*%
X156750000Y-121275000D03*
D15*
%TO.N,/CAN2+*%
X156750000Y-118735000D03*
%TD*%
D12*
%TO.N,linpot4*%
%TO.C,J6*%
X120269000Y-118999000D03*
D13*
%TO.N,linpot3*%
X117729000Y-118999000D03*
%TO.N,linpot2*%
X115189000Y-118999000D03*
%TO.N,linpot1*%
X112649000Y-118999000D03*
%TD*%
D12*
%TO.N,/CAN2+*%
%TO.C,J4*%
X150270000Y-119000000D03*
D13*
%TO.N,/CAN2-*%
X147730000Y-119000000D03*
%TD*%
D14*
%TO.N,+3.3V*%
%TO.C,J5*%
X115570000Y-101981000D03*
D15*
%TO.N,Net-(J5-Pin_2)*%
X113030000Y-101981000D03*
%TO.N,GND*%
X115570000Y-104521000D03*
%TO.N,Net-(J5-Pin_4)*%
X113030000Y-104521000D03*
%TO.N,GND*%
X115570000Y-107061000D03*
%TO.N,Net-(J5-Pin_6)*%
X113030000Y-107061000D03*
%TO.N,unconnected-(J5-Pin_7-Pad7)*%
X115570000Y-109601000D03*
%TO.N,unconnected-(J5-Pin_8-Pad8)*%
X113030000Y-109601000D03*
%TO.N,GND*%
X115570000Y-112141000D03*
%TO.N,Net-(J5-Pin_10)*%
X113030000Y-112141000D03*
%TD*%
D14*
%TO.N,/CAN1-*%
%TO.C,J1*%
X157000000Y-79275000D03*
D15*
%TO.N,/CAN1+*%
X157000000Y-76735000D03*
%TD*%
D12*
%TO.N,GPIO6*%
%TO.C,J10*%
X126090000Y-78500000D03*
D13*
%TO.N,GPIO5*%
X128630000Y-78500000D03*
%TO.N,GPIO4*%
X131170000Y-78500000D03*
%TO.N,GPIO3*%
X133710000Y-78500000D03*
%TO.N,GPIO2*%
X136250000Y-78500000D03*
%TO.N,GPIO1*%
X138790000Y-78500000D03*
%TO.N,GPIO8*%
X141330000Y-78500000D03*
%TO.N,GPIO7*%
X143870000Y-78500000D03*
%TD*%
D12*
%TO.N,A4*%
%TO.C,J7*%
X132290000Y-119000000D03*
D13*
%TO.N,A3*%
X129750000Y-119000000D03*
%TO.N,A2*%
X127210000Y-119000000D03*
%TO.N,A1*%
X124670000Y-119000000D03*
%TD*%
D16*
%TO.N,GND*%
X120650000Y-95250000D03*
X143256000Y-120142000D03*
X123190000Y-116586000D03*
X152908000Y-99822000D03*
X119126000Y-116840000D03*
X113284000Y-92456000D03*
X125730000Y-74676000D03*
X132334000Y-113284000D03*
X140462000Y-113538000D03*
X135940800Y-114198400D03*
X118818130Y-76142498D03*
X146558000Y-98806000D03*
X124714000Y-74422000D03*
X143662400Y-118618000D03*
X155194000Y-105410000D03*
X117856000Y-105664000D03*
X154940000Y-89408000D03*
X147320000Y-87122000D03*
X116586000Y-117094000D03*
X158242000Y-112268000D03*
X144018000Y-113284000D03*
X115824000Y-95250000D03*
X124392314Y-110595884D03*
X125984000Y-116586000D03*
X113538000Y-86106000D03*
X151130000Y-86868000D03*
X130810000Y-111760000D03*
X120650000Y-96266000D03*
X146500000Y-104250000D03*
X148082000Y-93980000D03*
X152654000Y-93726000D03*
X111760000Y-86106000D03*
X158242000Y-99822000D03*
X152908000Y-112522000D03*
X116840000Y-106426000D03*
X131064000Y-116586000D03*
X149098000Y-110236000D03*
X134721600Y-121005600D03*
X125222000Y-76454000D03*
X128524000Y-116586000D03*
X131318000Y-83058000D03*
X139192000Y-86614000D03*
X110490000Y-117602000D03*
X152654000Y-92202000D03*
X147320000Y-90678000D03*
X114300000Y-113792000D03*
X136906000Y-112776000D03*
X126238000Y-84074000D03*
X133604000Y-114808000D03*
X123437451Y-80016549D03*
X117103650Y-108448350D03*
X119126000Y-95250000D03*
X133604000Y-116586000D03*
%TO.N,NRST*%
X113538000Y-87884000D03*
X127000000Y-100838000D03*
X124968000Y-103378000D03*
X117602000Y-110744000D03*
%TO.N,+3.3V*%
X123952000Y-114554000D03*
X147574000Y-89662000D03*
X139192000Y-84582000D03*
X146750000Y-100250000D03*
X124718299Y-104906299D03*
X124714000Y-105918000D03*
X124709701Y-93984299D03*
X120396000Y-75946000D03*
X119380000Y-102616000D03*
X112014000Y-114808000D03*
X146558000Y-95250000D03*
X120904000Y-102616000D03*
X112776000Y-78994000D03*
X123952000Y-85852000D03*
X124714000Y-106934000D03*
X134874000Y-111760000D03*
X130302000Y-85598000D03*
X120650000Y-100330000D03*
X139700000Y-111760000D03*
X155956000Y-93980000D03*
X115570000Y-100584000D03*
X157480000Y-92964000D03*
X143510000Y-110744000D03*
%TO.N,+5V*%
X152908000Y-97536000D03*
X151384000Y-99060000D03*
X142544800Y-114909600D03*
X147320000Y-110236500D03*
X137871200Y-114858800D03*
X159004000Y-98552000D03*
%TO.N,/VBUS1*%
X153162000Y-108712000D03*
%TO.N,BOOT0*%
X122174000Y-89408000D03*
X127770762Y-89728767D03*
%TO.N,Net-(SW2-B)*%
X117602000Y-80010000D03*
%TO.N,SYS_JTMS_SWDIO*%
X121412000Y-90932000D03*
X132588000Y-92964000D03*
%TO.N,SYS_JTCK_SWCLK*%
X117602000Y-100838000D03*
X130810000Y-95758000D03*
X134112000Y-92239500D03*
X125222000Y-101092000D03*
%TO.N,SYS_JTDO_SWO*%
X130302000Y-86614000D03*
X118364000Y-88138000D03*
%TO.N,/STMPS2151STR_EN*%
X150000000Y-100000000D03*
X142750000Y-100000000D03*
%TO.N,/STMPS2151STR_FAULT*%
X146202400Y-105257600D03*
X143000000Y-105000000D03*
%TO.N,/LSM_SDO*%
X128024952Y-83811048D03*
X127508000Y-85344000D03*
%TO.N,/LSM_CS*%
X121158000Y-83058000D03*
X119380000Y-81534000D03*
%TD*%
%TA.AperFunction,Conductor*%
%TO.N,+5V*%
G36*
X159835539Y-96793685D02*
G01*
X159881294Y-96846489D01*
X159892500Y-96898000D01*
X159892500Y-123573500D01*
X159872815Y-123640539D01*
X159820011Y-123686294D01*
X159768500Y-123697500D01*
X135252000Y-123697500D01*
X135184961Y-123677815D01*
X135139206Y-123625011D01*
X135128000Y-123573500D01*
X135128000Y-122328721D01*
X135147685Y-122261682D01*
X135200489Y-122215927D01*
X135269647Y-122205983D01*
X135327902Y-122230666D01*
X135356036Y-122252444D01*
X135356038Y-122252445D01*
X135356042Y-122252448D01*
X135538729Y-122342060D01*
X135735715Y-122393063D01*
X135938936Y-122403369D01*
X136140071Y-122372556D01*
X136330887Y-122301886D01*
X136503571Y-122194252D01*
X136651053Y-122054059D01*
X136767295Y-121887049D01*
X136847540Y-121700058D01*
X136888500Y-121500741D01*
X136888500Y-120548258D01*
X136888047Y-120543797D01*
X136873074Y-120396560D01*
X136812162Y-120202420D01*
X136812160Y-120202416D01*
X136812159Y-120202412D01*
X136778628Y-120142000D01*
X142350540Y-120142000D01*
X142370326Y-120330256D01*
X142370327Y-120330259D01*
X142428818Y-120510277D01*
X142428821Y-120510284D01*
X142523467Y-120674216D01*
X142641858Y-120805702D01*
X142650129Y-120814888D01*
X142803265Y-120926148D01*
X142803270Y-120926151D01*
X142976192Y-121003142D01*
X142976197Y-121003144D01*
X143161354Y-121042500D01*
X143161355Y-121042500D01*
X143350644Y-121042500D01*
X143350646Y-121042500D01*
X143377719Y-121036745D01*
X143447385Y-121042060D01*
X143503119Y-121084197D01*
X143527225Y-121149776D01*
X143527500Y-121158035D01*
X143527500Y-121449743D01*
X143542925Y-121601439D01*
X143603837Y-121795579D01*
X143603844Y-121795594D01*
X143702589Y-121973499D01*
X143702592Y-121973504D01*
X143835132Y-122127893D01*
X143835134Y-122127895D01*
X143996037Y-122252445D01*
X143996038Y-122252445D01*
X143996042Y-122252448D01*
X144178729Y-122342060D01*
X144375715Y-122393063D01*
X144578936Y-122403369D01*
X144780071Y-122372556D01*
X144970887Y-122301886D01*
X145143571Y-122194252D01*
X145291053Y-122054059D01*
X145407295Y-121887049D01*
X145487540Y-121700058D01*
X145502953Y-121625055D01*
X147029500Y-121625055D01*
X147070210Y-121790226D01*
X147149263Y-121940849D01*
X147149266Y-121940852D01*
X147262071Y-122068183D01*
X147348575Y-122127893D01*
X147402068Y-122164817D01*
X147402069Y-122164817D01*
X147402070Y-122164818D01*
X147423336Y-122172883D01*
X147510614Y-122205983D01*
X147561128Y-122225140D01*
X147621603Y-122232483D01*
X147687626Y-122240500D01*
X147687628Y-122240500D01*
X147772374Y-122240500D01*
X147814538Y-122235380D01*
X147898872Y-122225140D01*
X148057930Y-122164818D01*
X148197929Y-122068183D01*
X148310734Y-121940852D01*
X148328974Y-121906100D01*
X148389789Y-121790226D01*
X148389790Y-121790225D01*
X148430500Y-121625056D01*
X148430500Y-121454944D01*
X148389790Y-121289775D01*
X148389789Y-121289773D01*
X148310736Y-121139150D01*
X148291560Y-121117505D01*
X148197929Y-121011817D01*
X148148177Y-120977475D01*
X148057931Y-120915182D01*
X147898874Y-120854860D01*
X147898868Y-120854859D01*
X147816930Y-120844910D01*
X147752752Y-120817288D01*
X147729965Y-120783486D01*
X147715175Y-120810119D01*
X147653614Y-120843165D01*
X147643069Y-120844910D01*
X147561131Y-120854859D01*
X147561125Y-120854860D01*
X147402068Y-120915182D01*
X147262072Y-121011816D01*
X147149263Y-121139150D01*
X147070210Y-121289773D01*
X147029500Y-121454944D01*
X147029500Y-121625055D01*
X145502953Y-121625055D01*
X145528500Y-121500741D01*
X145528500Y-120548258D01*
X145528047Y-120543797D01*
X145513074Y-120396560D01*
X145452162Y-120202420D01*
X145452160Y-120202416D01*
X145452159Y-120202412D01*
X145353409Y-120024498D01*
X145353408Y-120024497D01*
X145353407Y-120024495D01*
X145220867Y-119870106D01*
X145220865Y-119870104D01*
X145059962Y-119745554D01*
X145059959Y-119745553D01*
X145059958Y-119745552D01*
X144877271Y-119655940D01*
X144680285Y-119604937D01*
X144680287Y-119604937D01*
X144544804Y-119598066D01*
X144477064Y-119594631D01*
X144477063Y-119594631D01*
X144477061Y-119594631D01*
X144275936Y-119625442D01*
X144275929Y-119625444D01*
X144144738Y-119674031D01*
X144075035Y-119678854D01*
X144013789Y-119645227D01*
X143994283Y-119619744D01*
X143987912Y-119608708D01*
X143971443Y-119540807D01*
X143994298Y-119474782D01*
X144044863Y-119433436D01*
X144115130Y-119402151D01*
X144268271Y-119290888D01*
X144394933Y-119150216D01*
X144481660Y-119000000D01*
X146124551Y-119000000D01*
X146144317Y-119251151D01*
X146203126Y-119496110D01*
X146299533Y-119728859D01*
X146431160Y-119943653D01*
X146431161Y-119943656D01*
X146463230Y-119981204D01*
X146594776Y-120135224D01*
X146743066Y-120261875D01*
X146786343Y-120298838D01*
X146786346Y-120298839D01*
X147001140Y-120430466D01*
X147193839Y-120510284D01*
X147233889Y-120526873D01*
X147478852Y-120585683D01*
X147637853Y-120598196D01*
X147703139Y-120623080D01*
X147730285Y-120659888D01*
X147748636Y-120629907D01*
X147811539Y-120599493D01*
X147822131Y-120598198D01*
X147981148Y-120585683D01*
X148226111Y-120526873D01*
X148458859Y-120430466D01*
X148591019Y-120349477D01*
X148658461Y-120331234D01*
X148725064Y-120352350D01*
X148755072Y-120380894D01*
X148812455Y-120457547D01*
X148927664Y-120543793D01*
X148927671Y-120543797D01*
X149062517Y-120594091D01*
X149062516Y-120594091D01*
X149069444Y-120594835D01*
X149122127Y-120600500D01*
X150146008Y-120600499D01*
X150213046Y-120620183D01*
X150258801Y-120672987D01*
X150268745Y-120742146D01*
X150239720Y-120805702D01*
X150180942Y-120843476D01*
X150160955Y-120847595D01*
X150101130Y-120854859D01*
X150101125Y-120854860D01*
X149942068Y-120915182D01*
X149802072Y-121011816D01*
X149689263Y-121139150D01*
X149610210Y-121289773D01*
X149569500Y-121454944D01*
X149569500Y-121625055D01*
X149610210Y-121790226D01*
X149689263Y-121940849D01*
X149689266Y-121940852D01*
X149802071Y-122068183D01*
X149888575Y-122127893D01*
X149942068Y-122164817D01*
X149942069Y-122164817D01*
X149942070Y-122164818D01*
X149963336Y-122172883D01*
X150050614Y-122205983D01*
X150101128Y-122225140D01*
X150161603Y-122232483D01*
X150227626Y-122240500D01*
X150227628Y-122240500D01*
X150312374Y-122240500D01*
X150354538Y-122235380D01*
X150438872Y-122225140D01*
X150597930Y-122164818D01*
X150737929Y-122068183D01*
X150850734Y-121940852D01*
X150868974Y-121906100D01*
X150929789Y-121790226D01*
X150929790Y-121790225D01*
X150970500Y-121625056D01*
X150970500Y-121454944D01*
X150929790Y-121289775D01*
X150929789Y-121289773D01*
X150850736Y-121139150D01*
X150831560Y-121117505D01*
X150737929Y-121011817D01*
X150688177Y-120977475D01*
X150597931Y-120915182D01*
X150438874Y-120854860D01*
X150438869Y-120854859D01*
X150379043Y-120847595D01*
X150314866Y-120819972D01*
X150275810Y-120762038D01*
X150274275Y-120692185D01*
X150310750Y-120632592D01*
X150373653Y-120602178D01*
X150393985Y-120600499D01*
X151417872Y-120600499D01*
X151477483Y-120594091D01*
X151612331Y-120543796D01*
X151727546Y-120457546D01*
X151813796Y-120342331D01*
X151864091Y-120207483D01*
X151870500Y-120147873D01*
X151870499Y-118735000D01*
X155394341Y-118735000D01*
X155414936Y-118970403D01*
X155414938Y-118970413D01*
X155476094Y-119198655D01*
X155476096Y-119198659D01*
X155476097Y-119198663D01*
X155535739Y-119326565D01*
X155575965Y-119412830D01*
X155575967Y-119412834D01*
X155684281Y-119567521D01*
X155711501Y-119606396D01*
X155711506Y-119606402D01*
X155833430Y-119728326D01*
X155866915Y-119789649D01*
X155861931Y-119859341D01*
X155820059Y-119915274D01*
X155789083Y-119932189D01*
X155657669Y-119981203D01*
X155657664Y-119981206D01*
X155542455Y-120067452D01*
X155542452Y-120067455D01*
X155456206Y-120182664D01*
X155456202Y-120182671D01*
X155405908Y-120317517D01*
X155399501Y-120377116D01*
X155399501Y-120377123D01*
X155399500Y-120377135D01*
X155399500Y-122172870D01*
X155399501Y-122172876D01*
X155405908Y-122232483D01*
X155456202Y-122367328D01*
X155456206Y-122367335D01*
X155542452Y-122482544D01*
X155542455Y-122482547D01*
X155657664Y-122568793D01*
X155657671Y-122568797D01*
X155792517Y-122619091D01*
X155792516Y-122619091D01*
X155799444Y-122619835D01*
X155852127Y-122625500D01*
X157647872Y-122625499D01*
X157707483Y-122619091D01*
X157842331Y-122568796D01*
X157957546Y-122482546D01*
X158043796Y-122367331D01*
X158094091Y-122232483D01*
X158100500Y-122172873D01*
X158100499Y-120377128D01*
X158094091Y-120317517D01*
X158087124Y-120298838D01*
X158043797Y-120182671D01*
X158043793Y-120182664D01*
X157957547Y-120067455D01*
X157957544Y-120067452D01*
X157842335Y-119981206D01*
X157842328Y-119981202D01*
X157710917Y-119932189D01*
X157654983Y-119890318D01*
X157630566Y-119824853D01*
X157645418Y-119756580D01*
X157666563Y-119728332D01*
X157788495Y-119606401D01*
X157924035Y-119412830D01*
X158023903Y-119198663D01*
X158085063Y-118970408D01*
X158105659Y-118735000D01*
X158085063Y-118499592D01*
X158023903Y-118271337D01*
X157924035Y-118057171D01*
X157923458Y-118056346D01*
X157788494Y-117863597D01*
X157621402Y-117696506D01*
X157621395Y-117696501D01*
X157427834Y-117560967D01*
X157427830Y-117560965D01*
X157388129Y-117542452D01*
X157213663Y-117461097D01*
X157213659Y-117461096D01*
X157213655Y-117461094D01*
X156985413Y-117399938D01*
X156985403Y-117399936D01*
X156750001Y-117379341D01*
X156749999Y-117379341D01*
X156514596Y-117399936D01*
X156514586Y-117399938D01*
X156286344Y-117461094D01*
X156286335Y-117461098D01*
X156072171Y-117560964D01*
X156072169Y-117560965D01*
X155878597Y-117696505D01*
X155711505Y-117863597D01*
X155575965Y-118057169D01*
X155575964Y-118057171D01*
X155476098Y-118271335D01*
X155476094Y-118271344D01*
X155414938Y-118499586D01*
X155414936Y-118499596D01*
X155394341Y-118734999D01*
X155394341Y-118735000D01*
X151870499Y-118735000D01*
X151870499Y-117852128D01*
X151864091Y-117792517D01*
X151860920Y-117784016D01*
X151813797Y-117657671D01*
X151813793Y-117657664D01*
X151727547Y-117542455D01*
X151727544Y-117542452D01*
X151612335Y-117456206D01*
X151612328Y-117456202D01*
X151477482Y-117405908D01*
X151477483Y-117405908D01*
X151417883Y-117399501D01*
X151417881Y-117399500D01*
X151417873Y-117399500D01*
X151417864Y-117399500D01*
X149122129Y-117399500D01*
X149122123Y-117399501D01*
X149062516Y-117405908D01*
X148927671Y-117456202D01*
X148927664Y-117456206D01*
X148812455Y-117542452D01*
X148755072Y-117619105D01*
X148699138Y-117660976D01*
X148629446Y-117665959D01*
X148591016Y-117650520D01*
X148458859Y-117569533D01*
X148226110Y-117473126D01*
X147981151Y-117414317D01*
X147730000Y-117394551D01*
X147478848Y-117414317D01*
X147233889Y-117473126D01*
X147001140Y-117569533D01*
X146786346Y-117701160D01*
X146786343Y-117701161D01*
X146594776Y-117864776D01*
X146431161Y-118056343D01*
X146431160Y-118056346D01*
X146299533Y-118271140D01*
X146203126Y-118503889D01*
X146144317Y-118748848D01*
X146124551Y-119000000D01*
X144481660Y-119000000D01*
X144489579Y-118986284D01*
X144548074Y-118806256D01*
X144567860Y-118618000D01*
X144555093Y-118496533D01*
X144567662Y-118427807D01*
X144615394Y-118376783D01*
X144659634Y-118361006D01*
X144780071Y-118342556D01*
X144970887Y-118271886D01*
X145143571Y-118164252D01*
X145291053Y-118024059D01*
X145407295Y-117857049D01*
X145487540Y-117670058D01*
X145528500Y-117470741D01*
X145528500Y-116218258D01*
X145513074Y-116066562D01*
X145513074Y-116066560D01*
X145452162Y-115872420D01*
X145452160Y-115872416D01*
X145452159Y-115872412D01*
X145353409Y-115694498D01*
X145353408Y-115694497D01*
X145353407Y-115694495D01*
X145220867Y-115540106D01*
X145220865Y-115540104D01*
X145059962Y-115415554D01*
X145059959Y-115415553D01*
X145059958Y-115415552D01*
X144877271Y-115325940D01*
X144680285Y-115274937D01*
X144680287Y-115274937D01*
X144544804Y-115268066D01*
X144477064Y-115264631D01*
X144477063Y-115264631D01*
X144477061Y-115264631D01*
X144275936Y-115295442D01*
X144275924Y-115295445D01*
X144085118Y-115366111D01*
X144085111Y-115366115D01*
X143912432Y-115473745D01*
X143912427Y-115473749D01*
X143764949Y-115613938D01*
X143764948Y-115613940D01*
X143648705Y-115780949D01*
X143568459Y-115967943D01*
X143527500Y-116167258D01*
X143527500Y-116799459D01*
X143507815Y-116866498D01*
X143455011Y-116912253D01*
X143385853Y-116922197D01*
X143351989Y-116912253D01*
X143233345Y-116858070D01*
X143233343Y-116858069D01*
X143233342Y-116858069D01*
X143233337Y-116858068D01*
X143233336Y-116858068D01*
X143132011Y-116843500D01*
X143063989Y-116843500D01*
X143063988Y-116843500D01*
X142962663Y-116858068D01*
X142962654Y-116858070D01*
X142838285Y-116914867D01*
X142838278Y-116914872D01*
X142734946Y-117004409D01*
X142734942Y-117004413D01*
X142661021Y-117119440D01*
X142622500Y-117250632D01*
X142622500Y-117387367D01*
X142661021Y-117518559D01*
X142661020Y-117518559D01*
X142734942Y-117633586D01*
X142734946Y-117633590D01*
X142838278Y-117723127D01*
X142838285Y-117723132D01*
X142905062Y-117753627D01*
X142962658Y-117779931D01*
X142962662Y-117779931D01*
X142965468Y-117780756D01*
X142967931Y-117782339D01*
X142970725Y-117783615D01*
X142970541Y-117784016D01*
X143024245Y-117818532D01*
X143053268Y-117882088D01*
X143043323Y-117951246D01*
X143022680Y-117982704D01*
X142929866Y-118085784D01*
X142835221Y-118249715D01*
X142835218Y-118249722D01*
X142795043Y-118373369D01*
X142776726Y-118429744D01*
X142756940Y-118618000D01*
X142776726Y-118806256D01*
X142776727Y-118806259D01*
X142835218Y-118986277D01*
X142835223Y-118986289D01*
X142930484Y-119151287D01*
X142946957Y-119219187D01*
X142924104Y-119285214D01*
X142873534Y-119326565D01*
X142803267Y-119357850D01*
X142803265Y-119357851D01*
X142650129Y-119469111D01*
X142523466Y-119609785D01*
X142428821Y-119773715D01*
X142428818Y-119773722D01*
X142373511Y-119943941D01*
X142370326Y-119953744D01*
X142350540Y-120142000D01*
X136778628Y-120142000D01*
X136713409Y-120024498D01*
X136713408Y-120024497D01*
X136713407Y-120024495D01*
X136580867Y-119870106D01*
X136580865Y-119870104D01*
X136419962Y-119745554D01*
X136419959Y-119745553D01*
X136419958Y-119745552D01*
X136237271Y-119655940D01*
X136040285Y-119604937D01*
X136040287Y-119604937D01*
X135904804Y-119598066D01*
X135837064Y-119594631D01*
X135837063Y-119594631D01*
X135837061Y-119594631D01*
X135635936Y-119625442D01*
X135635924Y-119625445D01*
X135445118Y-119696111D01*
X135445111Y-119696115D01*
X135317591Y-119775598D01*
X135250285Y-119794354D01*
X135183524Y-119773744D01*
X135138504Y-119720313D01*
X135128000Y-119670366D01*
X135128000Y-118298721D01*
X135147685Y-118231682D01*
X135200489Y-118185927D01*
X135269647Y-118175983D01*
X135327902Y-118200666D01*
X135356036Y-118222444D01*
X135356038Y-118222445D01*
X135356042Y-118222448D01*
X135538729Y-118312060D01*
X135735715Y-118363063D01*
X135938936Y-118373369D01*
X136140071Y-118342556D01*
X136330887Y-118271886D01*
X136503571Y-118164252D01*
X136651053Y-118024059D01*
X136767295Y-117857049D01*
X136821145Y-117731562D01*
X136865672Y-117677720D01*
X136932240Y-117656497D01*
X136999715Y-117674632D01*
X137016292Y-117686745D01*
X137058282Y-117723130D01*
X137058283Y-117723130D01*
X137058285Y-117723132D01*
X137132131Y-117756856D01*
X137182658Y-117779931D01*
X137283989Y-117794500D01*
X137283992Y-117794500D01*
X137352008Y-117794500D01*
X137352011Y-117794500D01*
X137453342Y-117779931D01*
X137577718Y-117723130D01*
X137681055Y-117633589D01*
X137754978Y-117518561D01*
X137793500Y-117387367D01*
X137793500Y-117250633D01*
X137754978Y-117119440D01*
X137754979Y-117119440D01*
X137681057Y-117004413D01*
X137681053Y-117004409D01*
X137577721Y-116914872D01*
X137577714Y-116914867D01*
X137453345Y-116858070D01*
X137453343Y-116858069D01*
X137453342Y-116858069D01*
X137453337Y-116858068D01*
X137453336Y-116858068D01*
X137352011Y-116843500D01*
X137283989Y-116843500D01*
X137283988Y-116843500D01*
X137182663Y-116858068D01*
X137182654Y-116858070D01*
X137064011Y-116912253D01*
X136994853Y-116922197D01*
X136931297Y-116893172D01*
X136893523Y-116834394D01*
X136888500Y-116799459D01*
X136888500Y-116218256D01*
X136873074Y-116066560D01*
X136812162Y-115872420D01*
X136812160Y-115872416D01*
X136812159Y-115872412D01*
X136713409Y-115694498D01*
X136713408Y-115694497D01*
X136713407Y-115694495D01*
X136580867Y-115540106D01*
X136580865Y-115540104D01*
X136419962Y-115415554D01*
X136419959Y-115415553D01*
X136419958Y-115415552D01*
X136237271Y-115325940D01*
X136237268Y-115325939D01*
X136174203Y-115309610D01*
X136114238Y-115273750D01*
X136083180Y-115211163D01*
X136090889Y-115141720D01*
X136134918Y-115087469D01*
X136179501Y-115068280D01*
X136220603Y-115059544D01*
X136393530Y-114982551D01*
X136546671Y-114871288D01*
X136673333Y-114730616D01*
X136687851Y-114705468D01*
X136739507Y-114616000D01*
X136790074Y-114567784D01*
X136846894Y-114554000D01*
X145796000Y-114554000D01*
X145796000Y-112522000D01*
X152002540Y-112522000D01*
X152022326Y-112710256D01*
X152022327Y-112710259D01*
X152080818Y-112890277D01*
X152080821Y-112890284D01*
X152175467Y-113054216D01*
X152242931Y-113129142D01*
X152302129Y-113194888D01*
X152455265Y-113306148D01*
X152455270Y-113306151D01*
X152628192Y-113383142D01*
X152628197Y-113383144D01*
X152813354Y-113422500D01*
X152813355Y-113422500D01*
X153002644Y-113422500D01*
X153002646Y-113422500D01*
X153187803Y-113383144D01*
X153360730Y-113306151D01*
X153513871Y-113194888D01*
X153640533Y-113054216D01*
X153735179Y-112890284D01*
X153793674Y-112710256D01*
X153813460Y-112522000D01*
X153793674Y-112333744D01*
X153772312Y-112268000D01*
X157336540Y-112268000D01*
X157356326Y-112456256D01*
X157356327Y-112456259D01*
X157414818Y-112636277D01*
X157414821Y-112636284D01*
X157509467Y-112800216D01*
X157567900Y-112865112D01*
X157636129Y-112940888D01*
X157789265Y-113052148D01*
X157789270Y-113052151D01*
X157962192Y-113129142D01*
X157962197Y-113129144D01*
X158147354Y-113168500D01*
X158147355Y-113168500D01*
X158336644Y-113168500D01*
X158336646Y-113168500D01*
X158521803Y-113129144D01*
X158694730Y-113052151D01*
X158847871Y-112940888D01*
X158974533Y-112800216D01*
X159069179Y-112636284D01*
X159127674Y-112456256D01*
X159147460Y-112268000D01*
X159127674Y-112079744D01*
X159069179Y-111899716D01*
X158974533Y-111735784D01*
X158847871Y-111595112D01*
X158815708Y-111571744D01*
X158694734Y-111483851D01*
X158694729Y-111483848D01*
X158521807Y-111406857D01*
X158521802Y-111406855D01*
X158376000Y-111375865D01*
X158336646Y-111367500D01*
X158147354Y-111367500D01*
X158114897Y-111374398D01*
X157962197Y-111406855D01*
X157962192Y-111406857D01*
X157789270Y-111483848D01*
X157789265Y-111483851D01*
X157636129Y-111595111D01*
X157509466Y-111735785D01*
X157414821Y-111899715D01*
X157414818Y-111899722D01*
X157356327Y-112079740D01*
X157356326Y-112079744D01*
X157336540Y-112268000D01*
X153772312Y-112268000D01*
X153735179Y-112153716D01*
X153640533Y-111989784D01*
X153513871Y-111849112D01*
X153513870Y-111849111D01*
X153360734Y-111737851D01*
X153360729Y-111737848D01*
X153187807Y-111660857D01*
X153187802Y-111660855D01*
X153042001Y-111629865D01*
X153002646Y-111621500D01*
X152813354Y-111621500D01*
X152780897Y-111628398D01*
X152628197Y-111660855D01*
X152628192Y-111660857D01*
X152455270Y-111737848D01*
X152455265Y-111737851D01*
X152302129Y-111849111D01*
X152175466Y-111989785D01*
X152080821Y-112153715D01*
X152080818Y-112153722D01*
X152035819Y-112292216D01*
X152022326Y-112333744D01*
X152002540Y-112522000D01*
X145796000Y-112522000D01*
X145796000Y-110236000D01*
X148192540Y-110236000D01*
X148212326Y-110424256D01*
X148212327Y-110424259D01*
X148270818Y-110604277D01*
X148270821Y-110604284D01*
X148365467Y-110768216D01*
X148447660Y-110859500D01*
X148492129Y-110908888D01*
X148645265Y-111020148D01*
X148645270Y-111020151D01*
X148818192Y-111097142D01*
X148818197Y-111097144D01*
X149003354Y-111136500D01*
X149003355Y-111136500D01*
X149192644Y-111136500D01*
X149192646Y-111136500D01*
X149377803Y-111097144D01*
X149550730Y-111020151D01*
X149703871Y-110908888D01*
X149830533Y-110768216D01*
X149925179Y-110604284D01*
X149983674Y-110424256D01*
X150003460Y-110236000D01*
X149983674Y-110047744D01*
X149925179Y-109867716D01*
X149830533Y-109703784D01*
X149703871Y-109563112D01*
X149703870Y-109563111D01*
X149550734Y-109451851D01*
X149550729Y-109451848D01*
X149377807Y-109374857D01*
X149377802Y-109374855D01*
X149232000Y-109343865D01*
X149192646Y-109335500D01*
X149003354Y-109335500D01*
X148970897Y-109342398D01*
X148818197Y-109374855D01*
X148818192Y-109374857D01*
X148645270Y-109451848D01*
X148645265Y-109451851D01*
X148492129Y-109563111D01*
X148365466Y-109703785D01*
X148270821Y-109867715D01*
X148270818Y-109867722D01*
X148212327Y-110047740D01*
X148212326Y-110047744D01*
X148192540Y-110236000D01*
X145796000Y-110236000D01*
X145796000Y-108712000D01*
X152256540Y-108712000D01*
X152276326Y-108900256D01*
X152276327Y-108900259D01*
X152334818Y-109080277D01*
X152334821Y-109080284D01*
X152429467Y-109244216D01*
X152511660Y-109335500D01*
X152556129Y-109384888D01*
X152709265Y-109496148D01*
X152709270Y-109496151D01*
X152882192Y-109573142D01*
X152882197Y-109573144D01*
X153067354Y-109612500D01*
X153067355Y-109612500D01*
X153256644Y-109612500D01*
X153256646Y-109612500D01*
X153441803Y-109573144D01*
X153614730Y-109496151D01*
X153767871Y-109384888D01*
X153894533Y-109244216D01*
X153989179Y-109080284D01*
X154047674Y-108900256D01*
X154067460Y-108712000D01*
X154047674Y-108523744D01*
X153998369Y-108372001D01*
X154833318Y-108372001D01*
X154853955Y-108528760D01*
X154853956Y-108528762D01*
X154914464Y-108674841D01*
X155010718Y-108800282D01*
X155136159Y-108896536D01*
X155282238Y-108957044D01*
X155399639Y-108972500D01*
X155399646Y-108972500D01*
X155478354Y-108972500D01*
X155478361Y-108972500D01*
X155595762Y-108957044D01*
X155741841Y-108896536D01*
X155867282Y-108800282D01*
X155963536Y-108674841D01*
X156024044Y-108528762D01*
X156044682Y-108372000D01*
X156040958Y-108343716D01*
X156024044Y-108215239D01*
X156024044Y-108215238D01*
X155963536Y-108069159D01*
X155867282Y-107943718D01*
X155741841Y-107847464D01*
X155655016Y-107811500D01*
X155595762Y-107786956D01*
X155595760Y-107786955D01*
X155478370Y-107771501D01*
X155478367Y-107771500D01*
X155478361Y-107771500D01*
X155399639Y-107771500D01*
X155399633Y-107771500D01*
X155399629Y-107771501D01*
X155282239Y-107786955D01*
X155282237Y-107786956D01*
X155136160Y-107847463D01*
X155010718Y-107943718D01*
X154914463Y-108069160D01*
X154853956Y-108215237D01*
X154853955Y-108215239D01*
X154833318Y-108371998D01*
X154833318Y-108372001D01*
X153998369Y-108372001D01*
X153989179Y-108343716D01*
X153894533Y-108179784D01*
X153767871Y-108039112D01*
X153767870Y-108039111D01*
X153614734Y-107927851D01*
X153614729Y-107927848D01*
X153441807Y-107850857D01*
X153441802Y-107850855D01*
X153296001Y-107819865D01*
X153256646Y-107811500D01*
X153067354Y-107811500D01*
X153034897Y-107818398D01*
X152882197Y-107850855D01*
X152882192Y-107850857D01*
X152709270Y-107927848D01*
X152709265Y-107927851D01*
X152556129Y-108039111D01*
X152429466Y-108179785D01*
X152334821Y-108343715D01*
X152334818Y-108343722D01*
X152276327Y-108523740D01*
X152276326Y-108523744D01*
X152256540Y-108712000D01*
X145796000Y-108712000D01*
X145796000Y-107566000D01*
X145815685Y-107498961D01*
X145868489Y-107453206D01*
X145920000Y-107442000D01*
X149606000Y-107442000D01*
X149606000Y-105410000D01*
X154288540Y-105410000D01*
X154308326Y-105598256D01*
X154308327Y-105598259D01*
X154366818Y-105778277D01*
X154366821Y-105778284D01*
X154461467Y-105942216D01*
X154551089Y-106041751D01*
X154588129Y-106082888D01*
X154741265Y-106194148D01*
X154741270Y-106194151D01*
X154914192Y-106271142D01*
X154914197Y-106271144D01*
X155099354Y-106310500D01*
X155099355Y-106310500D01*
X155288644Y-106310500D01*
X155288646Y-106310500D01*
X155473803Y-106271144D01*
X155646730Y-106194151D01*
X155799871Y-106082888D01*
X155926533Y-105942216D01*
X156021179Y-105778284D01*
X156079674Y-105598256D01*
X156099460Y-105410000D01*
X156079674Y-105221744D01*
X156021179Y-105041716D01*
X155926533Y-104877784D01*
X155799871Y-104737112D01*
X155783729Y-104725384D01*
X155743364Y-104696057D01*
X155700698Y-104640727D01*
X155694719Y-104571114D01*
X155727325Y-104509319D01*
X155740763Y-104497363D01*
X155817793Y-104438256D01*
X155867282Y-104400282D01*
X155963536Y-104274841D01*
X156024044Y-104128762D01*
X156044682Y-103972000D01*
X156024044Y-103815238D01*
X155963536Y-103669159D01*
X155867282Y-103543718D01*
X155741841Y-103447464D01*
X155595762Y-103386956D01*
X155595760Y-103386955D01*
X155478370Y-103371501D01*
X155478367Y-103371500D01*
X155478361Y-103371500D01*
X155399639Y-103371500D01*
X155399633Y-103371500D01*
X155399629Y-103371501D01*
X155282239Y-103386955D01*
X155282237Y-103386956D01*
X155136160Y-103447463D01*
X155010718Y-103543718D01*
X154914463Y-103669160D01*
X154853956Y-103815237D01*
X154853955Y-103815239D01*
X154833318Y-103971998D01*
X154833318Y-103972001D01*
X154853955Y-104128760D01*
X154853956Y-104128762D01*
X154914464Y-104274842D01*
X154975898Y-104354904D01*
X155001092Y-104420073D01*
X154987054Y-104488518D01*
X154938240Y-104538507D01*
X154915851Y-104548317D01*
X154914203Y-104548852D01*
X154741270Y-104625848D01*
X154741265Y-104625851D01*
X154588129Y-104737111D01*
X154461466Y-104877785D01*
X154366821Y-105041715D01*
X154366818Y-105041722D01*
X154319207Y-105188256D01*
X154308326Y-105221744D01*
X154288540Y-105410000D01*
X149606000Y-105410000D01*
X149606000Y-100989997D01*
X149625685Y-100922958D01*
X149678489Y-100877203D01*
X149747647Y-100867259D01*
X149755765Y-100868704D01*
X149905354Y-100900500D01*
X149905355Y-100900500D01*
X150094644Y-100900500D01*
X150094646Y-100900500D01*
X150279803Y-100861144D01*
X150452730Y-100784151D01*
X150605871Y-100672888D01*
X150732533Y-100532216D01*
X150827179Y-100368284D01*
X150885674Y-100188256D01*
X150905460Y-100000000D01*
X150886752Y-99822000D01*
X152002540Y-99822000D01*
X152022326Y-100010256D01*
X152022327Y-100010259D01*
X152080818Y-100190277D01*
X152080821Y-100190284D01*
X152175467Y-100354216D01*
X152251137Y-100438256D01*
X152302129Y-100494888D01*
X152455265Y-100606148D01*
X152455270Y-100606151D01*
X152628192Y-100683142D01*
X152628197Y-100683144D01*
X152813354Y-100722500D01*
X152813355Y-100722500D01*
X153002644Y-100722500D01*
X153002646Y-100722500D01*
X153187803Y-100683144D01*
X153360730Y-100606151D01*
X153513871Y-100494888D01*
X153640533Y-100354216D01*
X153735179Y-100190284D01*
X153793674Y-100010256D01*
X153813460Y-99822000D01*
X157336540Y-99822000D01*
X157356326Y-100010256D01*
X157356327Y-100010259D01*
X157414818Y-100190277D01*
X157414821Y-100190284D01*
X157509467Y-100354216D01*
X157585137Y-100438256D01*
X157636129Y-100494888D01*
X157789265Y-100606148D01*
X157789270Y-100606151D01*
X157962192Y-100683142D01*
X157962197Y-100683144D01*
X158147354Y-100722500D01*
X158147355Y-100722500D01*
X158336644Y-100722500D01*
X158336646Y-100722500D01*
X158521803Y-100683144D01*
X158694730Y-100606151D01*
X158847871Y-100494888D01*
X158974533Y-100354216D01*
X159069179Y-100190284D01*
X159127674Y-100010256D01*
X159147460Y-99822000D01*
X159127674Y-99633744D01*
X159069179Y-99453716D01*
X158974533Y-99289784D01*
X158847871Y-99149112D01*
X158847870Y-99149111D01*
X158694734Y-99037851D01*
X158694729Y-99037848D01*
X158521807Y-98960857D01*
X158521802Y-98960855D01*
X158376000Y-98929865D01*
X158336646Y-98921500D01*
X158147354Y-98921500D01*
X158114897Y-98928398D01*
X157962197Y-98960855D01*
X157962192Y-98960857D01*
X157789270Y-99037848D01*
X157789265Y-99037851D01*
X157636129Y-99149111D01*
X157509466Y-99289785D01*
X157414821Y-99453715D01*
X157414818Y-99453722D01*
X157370490Y-99590151D01*
X157356326Y-99633744D01*
X157336540Y-99822000D01*
X153813460Y-99822000D01*
X153793674Y-99633744D01*
X153735179Y-99453716D01*
X153640533Y-99289784D01*
X153513871Y-99149112D01*
X153513870Y-99149111D01*
X153360734Y-99037851D01*
X153360729Y-99037848D01*
X153187807Y-98960857D01*
X153187802Y-98960855D01*
X153042001Y-98929865D01*
X153002646Y-98921500D01*
X152813354Y-98921500D01*
X152780897Y-98928398D01*
X152628197Y-98960855D01*
X152628192Y-98960857D01*
X152455270Y-99037848D01*
X152455265Y-99037851D01*
X152302129Y-99149111D01*
X152175466Y-99289785D01*
X152080821Y-99453715D01*
X152080818Y-99453722D01*
X152036490Y-99590151D01*
X152022326Y-99633744D01*
X152002540Y-99822000D01*
X150886752Y-99822000D01*
X150885674Y-99811744D01*
X150827179Y-99631716D01*
X150732533Y-99467784D01*
X150605871Y-99327112D01*
X150554495Y-99289785D01*
X150452734Y-99215851D01*
X150452729Y-99215848D01*
X150279807Y-99138857D01*
X150279802Y-99138855D01*
X150134001Y-99107865D01*
X150094646Y-99099500D01*
X149905354Y-99099500D01*
X149905353Y-99099500D01*
X149755780Y-99131292D01*
X149686113Y-99125976D01*
X149630380Y-99083839D01*
X149606275Y-99018259D01*
X149606000Y-99010002D01*
X149606000Y-96898000D01*
X149625685Y-96830961D01*
X149678489Y-96785206D01*
X149730000Y-96774000D01*
X159768500Y-96774000D01*
X159835539Y-96793685D01*
G37*
%TD.AperFunction*%
%TD*%
%TA.AperFunction,Conductor*%
%TO.N,+3.3V*%
G36*
X123828422Y-73934185D02*
G01*
X123874177Y-73986989D01*
X123884121Y-74056147D01*
X123879314Y-74076818D01*
X123828327Y-74233740D01*
X123828326Y-74233744D01*
X123808540Y-74422000D01*
X123828326Y-74610256D01*
X123828327Y-74610259D01*
X123886818Y-74790277D01*
X123886821Y-74790284D01*
X123981467Y-74954216D01*
X124062559Y-75044277D01*
X124108129Y-75094888D01*
X124261265Y-75206148D01*
X124261270Y-75206151D01*
X124434192Y-75283142D01*
X124434197Y-75283144D01*
X124619354Y-75322500D01*
X124619355Y-75322500D01*
X124808644Y-75322500D01*
X124808646Y-75322500D01*
X124983480Y-75285338D01*
X125053146Y-75290654D01*
X125101410Y-75323656D01*
X125124130Y-75348889D01*
X125127740Y-75352140D01*
X125164385Y-75411629D01*
X125163050Y-75481486D01*
X125124160Y-75539532D01*
X125070543Y-75565575D01*
X124942197Y-75592855D01*
X124942192Y-75592857D01*
X124769270Y-75669848D01*
X124769265Y-75669851D01*
X124616129Y-75781111D01*
X124489466Y-75921785D01*
X124394821Y-76085715D01*
X124394818Y-76085722D01*
X124336327Y-76265740D01*
X124336326Y-76265744D01*
X124316540Y-76454000D01*
X124336326Y-76642256D01*
X124336327Y-76642259D01*
X124394818Y-76822277D01*
X124394821Y-76822284D01*
X124489467Y-76986216D01*
X124524499Y-77025123D01*
X124554729Y-77088114D01*
X124548531Y-77151428D01*
X124495908Y-77292517D01*
X124489501Y-77352116D01*
X124489500Y-77352135D01*
X124489500Y-79574979D01*
X124469815Y-79642018D01*
X124417011Y-79687773D01*
X124347853Y-79697717D01*
X124284297Y-79668692D01*
X124258116Y-79636983D01*
X124169984Y-79484333D01*
X124043322Y-79343661D01*
X124034307Y-79337111D01*
X123890185Y-79232400D01*
X123890180Y-79232397D01*
X123717258Y-79155406D01*
X123717253Y-79155404D01*
X123571452Y-79124414D01*
X123532097Y-79116049D01*
X123342805Y-79116049D01*
X123310348Y-79122947D01*
X123157648Y-79155404D01*
X123157643Y-79155406D01*
X122984721Y-79232397D01*
X122984716Y-79232400D01*
X122831580Y-79343660D01*
X122704917Y-79484334D01*
X122610272Y-79648264D01*
X122610269Y-79648271D01*
X122551778Y-79828289D01*
X122551777Y-79828293D01*
X122531991Y-80016549D01*
X122551777Y-80204805D01*
X122551778Y-80204808D01*
X122610269Y-80384826D01*
X122610272Y-80384833D01*
X122704918Y-80548765D01*
X122816650Y-80672856D01*
X122831580Y-80689437D01*
X122984716Y-80800697D01*
X122984721Y-80800700D01*
X123157643Y-80877691D01*
X123157648Y-80877693D01*
X123342805Y-80917049D01*
X123342806Y-80917049D01*
X123532095Y-80917049D01*
X123532097Y-80917049D01*
X123717254Y-80877693D01*
X123890181Y-80800700D01*
X124043322Y-80689437D01*
X124169984Y-80548765D01*
X124264630Y-80384833D01*
X124323125Y-80204805D01*
X124342911Y-80016549D01*
X124335431Y-79945383D01*
X124348000Y-79876656D01*
X124395732Y-79825632D01*
X124463473Y-79808514D01*
X124529714Y-79830736D01*
X124558016Y-79858110D01*
X124632454Y-79957546D01*
X124632457Y-79957548D01*
X124747664Y-80043793D01*
X124747671Y-80043797D01*
X124882517Y-80094091D01*
X124882516Y-80094091D01*
X124889444Y-80094835D01*
X124942127Y-80100500D01*
X127237872Y-80100499D01*
X127297483Y-80094091D01*
X127432331Y-80043796D01*
X127547546Y-79957546D01*
X127604928Y-79880893D01*
X127660860Y-79839024D01*
X127730552Y-79834040D01*
X127768983Y-79849479D01*
X127901140Y-79930466D01*
X128133889Y-80026872D01*
X128133889Y-80026873D01*
X128378852Y-80085683D01*
X128630000Y-80105449D01*
X128881148Y-80085683D01*
X129126111Y-80026873D01*
X129358859Y-79930466D01*
X129573659Y-79798836D01*
X129765224Y-79635224D01*
X129805710Y-79587819D01*
X129864216Y-79549627D01*
X129934084Y-79549128D01*
X129993130Y-79586482D01*
X129994235Y-79587756D01*
X130034772Y-79635219D01*
X130034776Y-79635224D01*
X130226343Y-79798838D01*
X130226346Y-79798839D01*
X130441140Y-79930466D01*
X130673888Y-80026873D01*
X130673889Y-80026873D01*
X130918852Y-80085683D01*
X131170000Y-80105449D01*
X131421148Y-80085683D01*
X131666111Y-80026873D01*
X131898859Y-79930466D01*
X132113659Y-79798836D01*
X132305224Y-79635224D01*
X132345709Y-79587820D01*
X132404215Y-79549628D01*
X132474083Y-79549128D01*
X132533130Y-79586481D01*
X132534211Y-79587728D01*
X132574772Y-79635219D01*
X132574776Y-79635224D01*
X132766343Y-79798838D01*
X132766346Y-79798839D01*
X132981140Y-79930466D01*
X133213889Y-80026873D01*
X133458852Y-80085683D01*
X133710000Y-80105449D01*
X133961148Y-80085683D01*
X134206111Y-80026873D01*
X134438859Y-79930466D01*
X134653659Y-79798836D01*
X134845224Y-79635224D01*
X134885710Y-79587819D01*
X134944216Y-79549627D01*
X135014084Y-79549128D01*
X135073130Y-79586482D01*
X135074235Y-79587756D01*
X135114772Y-79635219D01*
X135114776Y-79635224D01*
X135306343Y-79798838D01*
X135306346Y-79798839D01*
X135521140Y-79930466D01*
X135753889Y-80026872D01*
X135753889Y-80026873D01*
X135998852Y-80085683D01*
X136250000Y-80105449D01*
X136501148Y-80085683D01*
X136746111Y-80026873D01*
X136978859Y-79930466D01*
X137193659Y-79798836D01*
X137385224Y-79635224D01*
X137425710Y-79587819D01*
X137484216Y-79549627D01*
X137554084Y-79549128D01*
X137613130Y-79586482D01*
X137614235Y-79587756D01*
X137654772Y-79635219D01*
X137654776Y-79635224D01*
X137846343Y-79798838D01*
X137846346Y-79798839D01*
X138061140Y-79930466D01*
X138293888Y-80026873D01*
X138293889Y-80026873D01*
X138538852Y-80085683D01*
X138790000Y-80105449D01*
X139041148Y-80085683D01*
X139286111Y-80026873D01*
X139518859Y-79930466D01*
X139733659Y-79798836D01*
X139925224Y-79635224D01*
X139965710Y-79587819D01*
X140024216Y-79549627D01*
X140094084Y-79549128D01*
X140153130Y-79586482D01*
X140154235Y-79587756D01*
X140194772Y-79635219D01*
X140194776Y-79635224D01*
X140386343Y-79798838D01*
X140386346Y-79798839D01*
X140601140Y-79930466D01*
X140833888Y-80026872D01*
X140833889Y-80026873D01*
X141078852Y-80085683D01*
X141330000Y-80105449D01*
X141581148Y-80085683D01*
X141826111Y-80026873D01*
X142058859Y-79930466D01*
X142273659Y-79798836D01*
X142465224Y-79635224D01*
X142505710Y-79587819D01*
X142564216Y-79549627D01*
X142634084Y-79549128D01*
X142693130Y-79586482D01*
X142694235Y-79587756D01*
X142734772Y-79635219D01*
X142734776Y-79635224D01*
X142926343Y-79798838D01*
X142926346Y-79798839D01*
X143141140Y-79930466D01*
X143373889Y-80026873D01*
X143618852Y-80085683D01*
X143870000Y-80105449D01*
X144121148Y-80085683D01*
X144366111Y-80026873D01*
X144598859Y-79930466D01*
X144813659Y-79798836D01*
X144990417Y-79647870D01*
X148379500Y-79647870D01*
X148379501Y-79647876D01*
X148385908Y-79707483D01*
X148436202Y-79842328D01*
X148436206Y-79842335D01*
X148522452Y-79957544D01*
X148522455Y-79957547D01*
X148637664Y-80043793D01*
X148637671Y-80043797D01*
X148772517Y-80094091D01*
X148772516Y-80094091D01*
X148779444Y-80094835D01*
X148832127Y-80100500D01*
X151127872Y-80100499D01*
X151187483Y-80094091D01*
X151322331Y-80043796D01*
X151437546Y-79957546D01*
X151494928Y-79880893D01*
X151550860Y-79839024D01*
X151620552Y-79834040D01*
X151658983Y-79849479D01*
X151791140Y-79930466D01*
X152023888Y-80026872D01*
X152023889Y-80026873D01*
X152268852Y-80085683D01*
X152520000Y-80105449D01*
X152771148Y-80085683D01*
X153016111Y-80026873D01*
X153248859Y-79930466D01*
X153463659Y-79798836D01*
X153655224Y-79635224D01*
X153818836Y-79443659D01*
X153950466Y-79228859D01*
X154046873Y-78996111D01*
X154105683Y-78751148D01*
X154125449Y-78500000D01*
X154105683Y-78248852D01*
X154046873Y-78003889D01*
X154010168Y-77915274D01*
X153950466Y-77771140D01*
X153818839Y-77556346D01*
X153818838Y-77556343D01*
X153728755Y-77450870D01*
X153655224Y-77364776D01*
X153491206Y-77224691D01*
X153463656Y-77201161D01*
X153463653Y-77201160D01*
X153248859Y-77069533D01*
X153016110Y-76973126D01*
X152822502Y-76926646D01*
X152771148Y-76914317D01*
X152646210Y-76904484D01*
X152612147Y-76901803D01*
X152546859Y-76876918D01*
X152519713Y-76840110D01*
X152501364Y-76870091D01*
X152438462Y-76900505D01*
X152427852Y-76901803D01*
X152380915Y-76905497D01*
X152268852Y-76914317D01*
X152268847Y-76914318D01*
X152268848Y-76914318D01*
X152023889Y-76973126D01*
X151791140Y-77069533D01*
X151658983Y-77150520D01*
X151591537Y-77168765D01*
X151524935Y-77147649D01*
X151494927Y-77119104D01*
X151437547Y-77042455D01*
X151437544Y-77042452D01*
X151322335Y-76956206D01*
X151322328Y-76956202D01*
X151187482Y-76905908D01*
X151187483Y-76905908D01*
X151127883Y-76899501D01*
X151127881Y-76899500D01*
X151127873Y-76899500D01*
X151127865Y-76899500D01*
X150103992Y-76899500D01*
X150036953Y-76879815D01*
X149991198Y-76827011D01*
X149981254Y-76757853D01*
X149991691Y-76735000D01*
X155644341Y-76735000D01*
X155664936Y-76970403D01*
X155664938Y-76970413D01*
X155726094Y-77198655D01*
X155726096Y-77198659D01*
X155726097Y-77198663D01*
X155803557Y-77364776D01*
X155825965Y-77412830D01*
X155825967Y-77412834D01*
X155902811Y-77522578D01*
X155961501Y-77606396D01*
X155961506Y-77606402D01*
X156083430Y-77728326D01*
X156116915Y-77789649D01*
X156111931Y-77859341D01*
X156070059Y-77915274D01*
X156039083Y-77932189D01*
X155907669Y-77981203D01*
X155907664Y-77981206D01*
X155792455Y-78067452D01*
X155792452Y-78067455D01*
X155706206Y-78182664D01*
X155706202Y-78182671D01*
X155655908Y-78317517D01*
X155649501Y-78377116D01*
X155649501Y-78377123D01*
X155649500Y-78377135D01*
X155649500Y-80172870D01*
X155649501Y-80172876D01*
X155655908Y-80232483D01*
X155706202Y-80367328D01*
X155706206Y-80367335D01*
X155792452Y-80482544D01*
X155792455Y-80482547D01*
X155907664Y-80568793D01*
X155907671Y-80568797D01*
X156042517Y-80619091D01*
X156042516Y-80619091D01*
X156049444Y-80619835D01*
X156102127Y-80625500D01*
X157897872Y-80625499D01*
X157957483Y-80619091D01*
X158092331Y-80568796D01*
X158207546Y-80482546D01*
X158293796Y-80367331D01*
X158344091Y-80232483D01*
X158350500Y-80172873D01*
X158350499Y-78377128D01*
X158344091Y-78317517D01*
X158293796Y-78182669D01*
X158293795Y-78182668D01*
X158293793Y-78182664D01*
X158207547Y-78067455D01*
X158207544Y-78067452D01*
X158092335Y-77981206D01*
X158092328Y-77981202D01*
X157960917Y-77932189D01*
X157904983Y-77890318D01*
X157880566Y-77824853D01*
X157895418Y-77756580D01*
X157916563Y-77728332D01*
X158038495Y-77606401D01*
X158174035Y-77412830D01*
X158273903Y-77198663D01*
X158335063Y-76970408D01*
X158355659Y-76735000D01*
X158354041Y-76716512D01*
X158348793Y-76656523D01*
X158335063Y-76499592D01*
X158273903Y-76271337D01*
X158174035Y-76057171D01*
X158165552Y-76045055D01*
X158038494Y-75863597D01*
X157871402Y-75696506D01*
X157871395Y-75696501D01*
X157677834Y-75560967D01*
X157677830Y-75560965D01*
X157626746Y-75537144D01*
X157463663Y-75461097D01*
X157463659Y-75461096D01*
X157463655Y-75461094D01*
X157235413Y-75399938D01*
X157235403Y-75399936D01*
X157000001Y-75379341D01*
X156999999Y-75379341D01*
X156764596Y-75399936D01*
X156764586Y-75399938D01*
X156536344Y-75461094D01*
X156536335Y-75461098D01*
X156322171Y-75560964D01*
X156322169Y-75560965D01*
X156128597Y-75696505D01*
X155961505Y-75863597D01*
X155825965Y-76057169D01*
X155825964Y-76057171D01*
X155726098Y-76271335D01*
X155726094Y-76271344D01*
X155664938Y-76499586D01*
X155664936Y-76499596D01*
X155644341Y-76734999D01*
X155644341Y-76735000D01*
X149991691Y-76735000D01*
X150010279Y-76694297D01*
X150069057Y-76656523D01*
X150089043Y-76652404D01*
X150148872Y-76645140D01*
X150307930Y-76584818D01*
X150447929Y-76488183D01*
X150560734Y-76360852D01*
X150639790Y-76210225D01*
X150680500Y-76045056D01*
X151819500Y-76045056D01*
X151829522Y-76085716D01*
X151860210Y-76210226D01*
X151939263Y-76360849D01*
X151939266Y-76360852D01*
X152052071Y-76488183D01*
X152142318Y-76550476D01*
X152192068Y-76584817D01*
X152192069Y-76584817D01*
X152192070Y-76584818D01*
X152351128Y-76645140D01*
X152433069Y-76655089D01*
X152497246Y-76682710D01*
X152520034Y-76716512D01*
X152534825Y-76689879D01*
X152596386Y-76656834D01*
X152606919Y-76655090D01*
X152688872Y-76645140D01*
X152847930Y-76584818D01*
X152987929Y-76488183D01*
X153100734Y-76360852D01*
X153179790Y-76210225D01*
X153220500Y-76045056D01*
X153220500Y-75874944D01*
X153179790Y-75709775D01*
X153158835Y-75669849D01*
X153100736Y-75559150D01*
X153053773Y-75506140D01*
X152987929Y-75431817D01*
X152911905Y-75379341D01*
X152847931Y-75335182D01*
X152688874Y-75274860D01*
X152688868Y-75274859D01*
X152562374Y-75259500D01*
X152562372Y-75259500D01*
X152477628Y-75259500D01*
X152477626Y-75259500D01*
X152351131Y-75274859D01*
X152351125Y-75274860D01*
X152192068Y-75335182D01*
X152052072Y-75431816D01*
X151939263Y-75559150D01*
X151860210Y-75709773D01*
X151842627Y-75781111D01*
X151819500Y-75874944D01*
X151819500Y-76045056D01*
X150680500Y-76045056D01*
X150680500Y-75874944D01*
X150639790Y-75709775D01*
X150618835Y-75669849D01*
X150560736Y-75559150D01*
X150513773Y-75506140D01*
X150447929Y-75431817D01*
X150371905Y-75379341D01*
X150307931Y-75335182D01*
X150148874Y-75274860D01*
X150148868Y-75274859D01*
X150022374Y-75259500D01*
X150022372Y-75259500D01*
X149937628Y-75259500D01*
X149937626Y-75259500D01*
X149811131Y-75274859D01*
X149811125Y-75274860D01*
X149652068Y-75335182D01*
X149512072Y-75431816D01*
X149399263Y-75559150D01*
X149320210Y-75709773D01*
X149302627Y-75781111D01*
X149279500Y-75874944D01*
X149279500Y-76045056D01*
X149289522Y-76085716D01*
X149320210Y-76210226D01*
X149399263Y-76360849D01*
X149399266Y-76360852D01*
X149512071Y-76488183D01*
X149602318Y-76550476D01*
X149652068Y-76584817D01*
X149652069Y-76584817D01*
X149652070Y-76584818D01*
X149811128Y-76645140D01*
X149870954Y-76652404D01*
X149935132Y-76680026D01*
X149974189Y-76737959D01*
X149975724Y-76807812D01*
X149939250Y-76867406D01*
X149876348Y-76897820D01*
X149856008Y-76899500D01*
X148832129Y-76899500D01*
X148832123Y-76899501D01*
X148772516Y-76905908D01*
X148637671Y-76956202D01*
X148637664Y-76956206D01*
X148522455Y-77042452D01*
X148522452Y-77042455D01*
X148436206Y-77157664D01*
X148436202Y-77157671D01*
X148385908Y-77292517D01*
X148379501Y-77352116D01*
X148379500Y-77352135D01*
X148379500Y-79647870D01*
X144990417Y-79647870D01*
X145005224Y-79635224D01*
X145168836Y-79443659D01*
X145300466Y-79228859D01*
X145396873Y-78996111D01*
X145455683Y-78751148D01*
X145475449Y-78500000D01*
X145455683Y-78248852D01*
X145396873Y-78003889D01*
X145360168Y-77915274D01*
X145300466Y-77771140D01*
X145168839Y-77556346D01*
X145168838Y-77556343D01*
X145078755Y-77450870D01*
X145005224Y-77364776D01*
X144841206Y-77224691D01*
X144813656Y-77201161D01*
X144813653Y-77201160D01*
X144598859Y-77069533D01*
X144366110Y-76973126D01*
X144121151Y-76914317D01*
X143870000Y-76894551D01*
X143618848Y-76914317D01*
X143373889Y-76973126D01*
X143141140Y-77069533D01*
X142926346Y-77201160D01*
X142926343Y-77201161D01*
X142734776Y-77364776D01*
X142694290Y-77412179D01*
X142635783Y-77450372D01*
X142565915Y-77450870D01*
X142506869Y-77413516D01*
X142505710Y-77412179D01*
X142465224Y-77364776D01*
X142301206Y-77224691D01*
X142273656Y-77201161D01*
X142273653Y-77201160D01*
X142058859Y-77069533D01*
X141826110Y-76973126D01*
X141581151Y-76914317D01*
X141371536Y-76897820D01*
X141330000Y-76894551D01*
X141329999Y-76894551D01*
X141078848Y-76914317D01*
X140833889Y-76973126D01*
X140601140Y-77069533D01*
X140386346Y-77201160D01*
X140386343Y-77201161D01*
X140194776Y-77364776D01*
X140154290Y-77412179D01*
X140095783Y-77450372D01*
X140025915Y-77450870D01*
X139966869Y-77413516D01*
X139965710Y-77412179D01*
X139925224Y-77364776D01*
X139761206Y-77224691D01*
X139733656Y-77201161D01*
X139733653Y-77201160D01*
X139518859Y-77069533D01*
X139286110Y-76973126D01*
X139041151Y-76914317D01*
X138831536Y-76897820D01*
X138790000Y-76894551D01*
X138789999Y-76894551D01*
X138538848Y-76914317D01*
X138293889Y-76973126D01*
X138061140Y-77069533D01*
X137846346Y-77201160D01*
X137846343Y-77201161D01*
X137654776Y-77364776D01*
X137614290Y-77412179D01*
X137555783Y-77450372D01*
X137485915Y-77450870D01*
X137426869Y-77413516D01*
X137425710Y-77412179D01*
X137385224Y-77364776D01*
X137221206Y-77224691D01*
X137193656Y-77201161D01*
X137193653Y-77201160D01*
X136978859Y-77069533D01*
X136746110Y-76973126D01*
X136501151Y-76914317D01*
X136250000Y-76894551D01*
X135998848Y-76914317D01*
X135753889Y-76973126D01*
X135521140Y-77069533D01*
X135306346Y-77201160D01*
X135306343Y-77201161D01*
X135114776Y-77364776D01*
X135074290Y-77412179D01*
X135015783Y-77450372D01*
X134945915Y-77450870D01*
X134886869Y-77413516D01*
X134885710Y-77412179D01*
X134845224Y-77364776D01*
X134681206Y-77224691D01*
X134653656Y-77201161D01*
X134653653Y-77201160D01*
X134438859Y-77069533D01*
X134206110Y-76973126D01*
X133961151Y-76914317D01*
X133710000Y-76894551D01*
X133458848Y-76914317D01*
X133213889Y-76973126D01*
X132981140Y-77069533D01*
X132766346Y-77201160D01*
X132766343Y-77201161D01*
X132574776Y-77364776D01*
X132534290Y-77412179D01*
X132475783Y-77450372D01*
X132405915Y-77450870D01*
X132346869Y-77413516D01*
X132345710Y-77412179D01*
X132305224Y-77364776D01*
X132141206Y-77224691D01*
X132113656Y-77201161D01*
X132113653Y-77201160D01*
X131898859Y-77069533D01*
X131666110Y-76973126D01*
X131421151Y-76914317D01*
X131170000Y-76894551D01*
X130918848Y-76914317D01*
X130673889Y-76973126D01*
X130441140Y-77069533D01*
X130226346Y-77201160D01*
X130226343Y-77201161D01*
X130034776Y-77364776D01*
X129994290Y-77412179D01*
X129935783Y-77450372D01*
X129865915Y-77450870D01*
X129806869Y-77413516D01*
X129805710Y-77412179D01*
X129765224Y-77364776D01*
X129601206Y-77224691D01*
X129573656Y-77201161D01*
X129573653Y-77201160D01*
X129358859Y-77069533D01*
X129126110Y-76973126D01*
X128881151Y-76914317D01*
X128671536Y-76897820D01*
X128630000Y-76894551D01*
X128629999Y-76894551D01*
X128378848Y-76914317D01*
X128133889Y-76973126D01*
X127901140Y-77069533D01*
X127768983Y-77150520D01*
X127701537Y-77168765D01*
X127634935Y-77147649D01*
X127604927Y-77119104D01*
X127547547Y-77042455D01*
X127547544Y-77042452D01*
X127432335Y-76956206D01*
X127432328Y-76956202D01*
X127297482Y-76905908D01*
X127297483Y-76905908D01*
X127237883Y-76899501D01*
X127237881Y-76899500D01*
X127237873Y-76899500D01*
X127237865Y-76899500D01*
X126194762Y-76899500D01*
X126127723Y-76879815D01*
X126081968Y-76827011D01*
X126072024Y-76757853D01*
X126076831Y-76737182D01*
X126092200Y-76689879D01*
X126107674Y-76642256D01*
X126127460Y-76454000D01*
X126107674Y-76265744D01*
X126049179Y-76085716D01*
X125954533Y-75921784D01*
X125827871Y-75781112D01*
X125827870Y-75781111D01*
X125827869Y-75781110D01*
X125824263Y-75777863D01*
X125787615Y-75718376D01*
X125788946Y-75648519D01*
X125827833Y-75590471D01*
X125881449Y-75564426D01*
X126009803Y-75537144D01*
X126009807Y-75537142D01*
X126009808Y-75537142D01*
X126151719Y-75473958D01*
X126182730Y-75460151D01*
X126335871Y-75348888D01*
X126462533Y-75208216D01*
X126557179Y-75044284D01*
X126615674Y-74864256D01*
X126635460Y-74676000D01*
X126615674Y-74487744D01*
X126557179Y-74307716D01*
X126462533Y-74143784D01*
X126442442Y-74121471D01*
X126412213Y-74058481D01*
X126420838Y-73989146D01*
X126465579Y-73935480D01*
X126532232Y-73914522D01*
X126534593Y-73914500D01*
X159768500Y-73914500D01*
X159835539Y-73934185D01*
X159881294Y-73986989D01*
X159892500Y-74038500D01*
X159892500Y-95888000D01*
X159872815Y-95955039D01*
X159820011Y-96000794D01*
X159768500Y-96012000D01*
X148590000Y-96012000D01*
X148590000Y-106556000D01*
X148570315Y-106623039D01*
X148517511Y-106668794D01*
X148466000Y-106680000D01*
X144272000Y-106680000D01*
X144272000Y-112264244D01*
X144252315Y-112331283D01*
X144199511Y-112377038D01*
X144130353Y-112386982D01*
X144122226Y-112385536D01*
X144118466Y-112384737D01*
X144112646Y-112383500D01*
X143923354Y-112383500D01*
X143890897Y-112390398D01*
X143738197Y-112422855D01*
X143738192Y-112422857D01*
X143565270Y-112499848D01*
X143565265Y-112499851D01*
X143412129Y-112611111D01*
X143285466Y-112751785D01*
X143190821Y-112915715D01*
X143190818Y-112915722D01*
X143146490Y-113052151D01*
X143132326Y-113095744D01*
X143112540Y-113284000D01*
X143124841Y-113401041D01*
X143112273Y-113469768D01*
X143064541Y-113520792D01*
X143001521Y-113538000D01*
X141479110Y-113538000D01*
X141412071Y-113518315D01*
X141366316Y-113465511D01*
X141355790Y-113426964D01*
X141347674Y-113349744D01*
X141289179Y-113169716D01*
X141194533Y-113005784D01*
X141067871Y-112865112D01*
X141004175Y-112818834D01*
X140914734Y-112753851D01*
X140914729Y-112753848D01*
X140741807Y-112676857D01*
X140741802Y-112676855D01*
X140596000Y-112645865D01*
X140556646Y-112637500D01*
X140367354Y-112637500D01*
X140334897Y-112644398D01*
X140182197Y-112676855D01*
X140182192Y-112676857D01*
X140009270Y-112753848D01*
X140009265Y-112753851D01*
X139856129Y-112865111D01*
X139729466Y-113005785D01*
X139634821Y-113169715D01*
X139634818Y-113169722D01*
X139580383Y-113337257D01*
X139576326Y-113349744D01*
X139568210Y-113426963D01*
X139541627Y-113491576D01*
X139484329Y-113531561D01*
X139444890Y-113538000D01*
X137710143Y-113538000D01*
X137643104Y-113518315D01*
X137597349Y-113465511D01*
X137587405Y-113396353D01*
X137616430Y-113332797D01*
X137617993Y-113331028D01*
X137618822Y-113330106D01*
X137638533Y-113308216D01*
X137733179Y-113144284D01*
X137791674Y-112964256D01*
X137811460Y-112776000D01*
X137791674Y-112587744D01*
X137733179Y-112407716D01*
X137638533Y-112243784D01*
X137511871Y-112103112D01*
X137479708Y-112079744D01*
X137358734Y-111991851D01*
X137358729Y-111991848D01*
X137185807Y-111914857D01*
X137185802Y-111914855D01*
X137040001Y-111883865D01*
X137000646Y-111875500D01*
X136811354Y-111875500D01*
X136778897Y-111882398D01*
X136626197Y-111914855D01*
X136626192Y-111914857D01*
X136453270Y-111991848D01*
X136453265Y-111991851D01*
X136300129Y-112103111D01*
X136173466Y-112243785D01*
X136078821Y-112407715D01*
X136078818Y-112407722D01*
X136034491Y-112544148D01*
X136020326Y-112587744D01*
X136000540Y-112776000D01*
X136020326Y-112964256D01*
X136020327Y-112964259D01*
X136075993Y-113135582D01*
X136077988Y-113205423D01*
X136041908Y-113265256D01*
X135979207Y-113296084D01*
X135958062Y-113297900D01*
X135846154Y-113297900D01*
X135813697Y-113304798D01*
X135660997Y-113337255D01*
X135660992Y-113337257D01*
X135488070Y-113414248D01*
X135488065Y-113414251D01*
X135350336Y-113514318D01*
X135284530Y-113537798D01*
X135277451Y-113538000D01*
X134366000Y-113538000D01*
X134366000Y-114005182D01*
X134346315Y-114072221D01*
X134293511Y-114117976D01*
X134224353Y-114127920D01*
X134169115Y-114105500D01*
X134056734Y-114023851D01*
X134056729Y-114023848D01*
X133883807Y-113946857D01*
X133883802Y-113946855D01*
X133718711Y-113911765D01*
X133698646Y-113907500D01*
X133509354Y-113907500D01*
X133489289Y-113911765D01*
X133324197Y-113946855D01*
X133224500Y-113991244D01*
X133155250Y-114000528D01*
X133091974Y-113970900D01*
X133054761Y-113911765D01*
X133055426Y-113841898D01*
X133066678Y-113815964D01*
X133080514Y-113792000D01*
X133161179Y-113652284D01*
X133219674Y-113472256D01*
X133239460Y-113284000D01*
X133219674Y-113095744D01*
X133161179Y-112915716D01*
X133066533Y-112751784D01*
X132939871Y-112611112D01*
X132907708Y-112587744D01*
X132786734Y-112499851D01*
X132786729Y-112499848D01*
X132613807Y-112422857D01*
X132613802Y-112422855D01*
X132468001Y-112391865D01*
X132428646Y-112383500D01*
X132239354Y-112383500D01*
X132206897Y-112390398D01*
X132054197Y-112422855D01*
X132054192Y-112422857D01*
X131881270Y-112499848D01*
X131881265Y-112499851D01*
X131728129Y-112611111D01*
X131601466Y-112751785D01*
X131506821Y-112915715D01*
X131506818Y-112915722D01*
X131462490Y-113052151D01*
X131448326Y-113095744D01*
X131428540Y-113284000D01*
X131448326Y-113472256D01*
X131448327Y-113472259D01*
X131506818Y-113652277D01*
X131506821Y-113652284D01*
X131601467Y-113816216D01*
X131682565Y-113906284D01*
X131728129Y-113956888D01*
X131881265Y-114068148D01*
X131881270Y-114068151D01*
X132054192Y-114145142D01*
X132054197Y-114145144D01*
X132239354Y-114184500D01*
X132239355Y-114184500D01*
X132428644Y-114184500D01*
X132428646Y-114184500D01*
X132613803Y-114145144D01*
X132713499Y-114100755D01*
X132782747Y-114091470D01*
X132846024Y-114121098D01*
X132883238Y-114180233D01*
X132882574Y-114250099D01*
X132871322Y-114276034D01*
X132776820Y-114439718D01*
X132776818Y-114439722D01*
X132735566Y-114566684D01*
X132718326Y-114619744D01*
X132698540Y-114808000D01*
X132718326Y-114996256D01*
X132718327Y-114996259D01*
X132776818Y-115176277D01*
X132776821Y-115176284D01*
X132871467Y-115340216D01*
X132991700Y-115473748D01*
X132998129Y-115480888D01*
X133156527Y-115595971D01*
X133154976Y-115598105D01*
X133195098Y-115640199D01*
X133208309Y-115708808D01*
X133182330Y-115773668D01*
X133155634Y-115796800D01*
X133156527Y-115798029D01*
X132998129Y-115913111D01*
X132871466Y-116053785D01*
X132776821Y-116217715D01*
X132776818Y-116217722D01*
X132746884Y-116309851D01*
X132718326Y-116397744D01*
X132698540Y-116586000D01*
X132718326Y-116774256D01*
X132718327Y-116774259D01*
X132776818Y-116954277D01*
X132776821Y-116954284D01*
X132871467Y-117118216D01*
X132937009Y-117191008D01*
X132938378Y-117192528D01*
X132968608Y-117255519D01*
X132959983Y-117324855D01*
X132915241Y-117378520D01*
X132848589Y-117399478D01*
X132846228Y-117399500D01*
X131821772Y-117399500D01*
X131754733Y-117379815D01*
X131708978Y-117327011D01*
X131699034Y-117257853D01*
X131728059Y-117194297D01*
X131729622Y-117192528D01*
X131730237Y-117191844D01*
X131796533Y-117118216D01*
X131891179Y-116954284D01*
X131949674Y-116774256D01*
X131969460Y-116586000D01*
X131949674Y-116397744D01*
X131891179Y-116217716D01*
X131796533Y-116053784D01*
X131669871Y-115913112D01*
X131659972Y-115905920D01*
X131516734Y-115801851D01*
X131516729Y-115801848D01*
X131343807Y-115724857D01*
X131343802Y-115724855D01*
X131197464Y-115693751D01*
X131158646Y-115685500D01*
X130969354Y-115685500D01*
X130936897Y-115692398D01*
X130784197Y-115724855D01*
X130784192Y-115724857D01*
X130611270Y-115801848D01*
X130611265Y-115801851D01*
X130458129Y-115913111D01*
X130331466Y-116053785D01*
X130236821Y-116217715D01*
X130236818Y-116217722D01*
X130206884Y-116309851D01*
X130178326Y-116397744D01*
X130158540Y-116586000D01*
X130178326Y-116774256D01*
X130178327Y-116774259D01*
X130236818Y-116954277D01*
X130236821Y-116954284D01*
X130331467Y-117118216D01*
X130450696Y-117250633D01*
X130458129Y-117258888D01*
X130577664Y-117345735D01*
X130620330Y-117401065D01*
X130626309Y-117470678D01*
X130593704Y-117532473D01*
X130532865Y-117566830D01*
X130463109Y-117562842D01*
X130457327Y-117560614D01*
X130246113Y-117473127D01*
X130001151Y-117414317D01*
X129800176Y-117398500D01*
X129750000Y-117394551D01*
X129749999Y-117394551D01*
X129498848Y-117414317D01*
X129253888Y-117473127D01*
X129247371Y-117475826D01*
X129177901Y-117483291D01*
X129115424Y-117452012D01*
X129079775Y-117391921D01*
X129082273Y-117322096D01*
X129122124Y-117264706D01*
X129127021Y-117260958D01*
X129129871Y-117258888D01*
X129256533Y-117118216D01*
X129351179Y-116954284D01*
X129409674Y-116774256D01*
X129429460Y-116586000D01*
X129409674Y-116397744D01*
X129351179Y-116217716D01*
X129256533Y-116053784D01*
X129129871Y-115913112D01*
X129119972Y-115905920D01*
X128976734Y-115801851D01*
X128976729Y-115801848D01*
X128803807Y-115724857D01*
X128803802Y-115724855D01*
X128657464Y-115693751D01*
X128618646Y-115685500D01*
X128429354Y-115685500D01*
X128396897Y-115692398D01*
X128244197Y-115724855D01*
X128244192Y-115724857D01*
X128071270Y-115801848D01*
X128071265Y-115801851D01*
X127918129Y-115913111D01*
X127791466Y-116053785D01*
X127696821Y-116217715D01*
X127696818Y-116217722D01*
X127666884Y-116309851D01*
X127638326Y-116397744D01*
X127618540Y-116586000D01*
X127638326Y-116774256D01*
X127638327Y-116774259D01*
X127696818Y-116954277D01*
X127696821Y-116954284D01*
X127791467Y-117118216D01*
X127910696Y-117250633D01*
X127918129Y-117258888D01*
X128037664Y-117345735D01*
X128070777Y-117388676D01*
X128107475Y-117387891D01*
X128125524Y-117394307D01*
X128244197Y-117447144D01*
X128429354Y-117486500D01*
X128429355Y-117486500D01*
X128618644Y-117486500D01*
X128618646Y-117486500D01*
X128736483Y-117461453D01*
X128806150Y-117466769D01*
X128861884Y-117508906D01*
X128885989Y-117574486D01*
X128870812Y-117642687D01*
X128827055Y-117688469D01*
X128806350Y-117701157D01*
X128806343Y-117701161D01*
X128614776Y-117864776D01*
X128574290Y-117912179D01*
X128515783Y-117950372D01*
X128445915Y-117950870D01*
X128386869Y-117913516D01*
X128385710Y-117912179D01*
X128384856Y-117911179D01*
X128345224Y-117864776D01*
X128156487Y-117703579D01*
X128153656Y-117701161D01*
X128153653Y-117701160D01*
X128010306Y-117613316D01*
X127966906Y-117565345D01*
X127923109Y-117562842D01*
X127917327Y-117560614D01*
X127706113Y-117473127D01*
X127461151Y-117414317D01*
X127210000Y-117394551D01*
X126958848Y-117414317D01*
X126713888Y-117473127D01*
X126707371Y-117475826D01*
X126637901Y-117483291D01*
X126575424Y-117452012D01*
X126539775Y-117391921D01*
X126542273Y-117322096D01*
X126582124Y-117264706D01*
X126587021Y-117260958D01*
X126589871Y-117258888D01*
X126716533Y-117118216D01*
X126811179Y-116954284D01*
X126869674Y-116774256D01*
X126889460Y-116586000D01*
X126869674Y-116397744D01*
X126811179Y-116217716D01*
X126716533Y-116053784D01*
X126589871Y-115913112D01*
X126579972Y-115905920D01*
X126436734Y-115801851D01*
X126436729Y-115801848D01*
X126263807Y-115724857D01*
X126263802Y-115724855D01*
X126117464Y-115693751D01*
X126078646Y-115685500D01*
X125889354Y-115685500D01*
X125856897Y-115692398D01*
X125704197Y-115724855D01*
X125704192Y-115724857D01*
X125531270Y-115801848D01*
X125531265Y-115801851D01*
X125378129Y-115913111D01*
X125251466Y-116053785D01*
X125156821Y-116217715D01*
X125156818Y-116217722D01*
X125126884Y-116309851D01*
X125098326Y-116397744D01*
X125078540Y-116586000D01*
X125098326Y-116774256D01*
X125098327Y-116774259D01*
X125156818Y-116954277D01*
X125156821Y-116954284D01*
X125251467Y-117118216D01*
X125370696Y-117250633D01*
X125378129Y-117258888D01*
X125497664Y-117345735D01*
X125530777Y-117388676D01*
X125567475Y-117387891D01*
X125585524Y-117394307D01*
X125704197Y-117447144D01*
X125889354Y-117486500D01*
X125889355Y-117486500D01*
X126078644Y-117486500D01*
X126078646Y-117486500D01*
X126196483Y-117461453D01*
X126266150Y-117466769D01*
X126321884Y-117508906D01*
X126345989Y-117574486D01*
X126330812Y-117642687D01*
X126287055Y-117688469D01*
X126266350Y-117701157D01*
X126266343Y-117701161D01*
X126074775Y-117864777D01*
X126034288Y-117912180D01*
X125975780Y-117950372D01*
X125905913Y-117950870D01*
X125846867Y-117913515D01*
X125845792Y-117912275D01*
X125805224Y-117864776D01*
X125790409Y-117852123D01*
X125613656Y-117701161D01*
X125613653Y-117701160D01*
X125470306Y-117613316D01*
X125426906Y-117565345D01*
X125383109Y-117562842D01*
X125377327Y-117560614D01*
X125166113Y-117473127D01*
X124921151Y-117414317D01*
X124670000Y-117394551D01*
X124418848Y-117414317D01*
X124173889Y-117473126D01*
X123941140Y-117569533D01*
X123726346Y-117701160D01*
X123726343Y-117701161D01*
X123534776Y-117864776D01*
X123371161Y-118056343D01*
X123371160Y-118056346D01*
X123239533Y-118271140D01*
X123143126Y-118503889D01*
X123084317Y-118748848D01*
X123064551Y-119000000D01*
X123084317Y-119251151D01*
X123143126Y-119496110D01*
X123239533Y-119728859D01*
X123371160Y-119943653D01*
X123371161Y-119943656D01*
X123379777Y-119953744D01*
X123534776Y-120135224D01*
X123668965Y-120249832D01*
X123726343Y-120298838D01*
X123726346Y-120298839D01*
X123941140Y-120430466D01*
X124057504Y-120478665D01*
X124173889Y-120526873D01*
X124418852Y-120585683D01*
X124670000Y-120605449D01*
X124921148Y-120585683D01*
X125166111Y-120526873D01*
X125398859Y-120430466D01*
X125613659Y-120298836D01*
X125805224Y-120135224D01*
X125845710Y-120087819D01*
X125904216Y-120049627D01*
X125974084Y-120049128D01*
X126033130Y-120086482D01*
X126034235Y-120087756D01*
X126049048Y-120105100D01*
X126074776Y-120135224D01*
X126266343Y-120298838D01*
X126266346Y-120298839D01*
X126481140Y-120430466D01*
X126597504Y-120478665D01*
X126713889Y-120526873D01*
X126958852Y-120585683D01*
X127210000Y-120605449D01*
X127461148Y-120585683D01*
X127706111Y-120526873D01*
X127938859Y-120430466D01*
X128153659Y-120298836D01*
X128345224Y-120135224D01*
X128385710Y-120087819D01*
X128444216Y-120049627D01*
X128514084Y-120049128D01*
X128573130Y-120086482D01*
X128574235Y-120087756D01*
X128589048Y-120105100D01*
X128614776Y-120135224D01*
X128806343Y-120298838D01*
X128806346Y-120298839D01*
X129021140Y-120430466D01*
X129137504Y-120478665D01*
X129253889Y-120526873D01*
X129498852Y-120585683D01*
X129750000Y-120605449D01*
X130001148Y-120585683D01*
X130246111Y-120526873D01*
X130478859Y-120430466D01*
X130611019Y-120349477D01*
X130678461Y-120331234D01*
X130745064Y-120352350D01*
X130775072Y-120380894D01*
X130831705Y-120456546D01*
X130832455Y-120457547D01*
X130947664Y-120543793D01*
X130947671Y-120543797D01*
X131082517Y-120594091D01*
X131082516Y-120594091D01*
X131089444Y-120594835D01*
X131142127Y-120600500D01*
X133437872Y-120600499D01*
X133497483Y-120594091D01*
X133632331Y-120543796D01*
X133706555Y-120488231D01*
X133772018Y-120463814D01*
X133840291Y-120478665D01*
X133889697Y-120528070D01*
X133904550Y-120596342D01*
X133895890Y-120630960D01*
X133896429Y-120631135D01*
X133894421Y-120637316D01*
X133835926Y-120817344D01*
X133816140Y-121005600D01*
X133835926Y-121193856D01*
X133835927Y-121193859D01*
X133894418Y-121373877D01*
X133894421Y-121373884D01*
X133989067Y-121537816D01*
X134115728Y-121678487D01*
X134115729Y-121678488D01*
X134268865Y-121789748D01*
X134268867Y-121789749D01*
X134268870Y-121789751D01*
X134292437Y-121800243D01*
X134345672Y-121845492D01*
X134365994Y-121912341D01*
X134366000Y-121913522D01*
X134366000Y-123573500D01*
X134346315Y-123640539D01*
X134293511Y-123686294D01*
X134242000Y-123697500D01*
X110106500Y-123697500D01*
X110039461Y-123677815D01*
X109993706Y-123625011D01*
X109982500Y-123573500D01*
X109982500Y-118552709D01*
X110002185Y-118485670D01*
X110054989Y-118439915D01*
X110124147Y-118429971D01*
X110156929Y-118439427D01*
X110210197Y-118463144D01*
X110395354Y-118502500D01*
X110395355Y-118502500D01*
X110584644Y-118502500D01*
X110584646Y-118502500D01*
X110769803Y-118463144D01*
X110942730Y-118386151D01*
X110942731Y-118386149D01*
X110945269Y-118385020D01*
X111014518Y-118375735D01*
X111077795Y-118405363D01*
X111115009Y-118464497D01*
X111116279Y-118527246D01*
X111063317Y-118747848D01*
X111043551Y-118999000D01*
X111063317Y-119250151D01*
X111122126Y-119495110D01*
X111218533Y-119727859D01*
X111350160Y-119942653D01*
X111350161Y-119942656D01*
X111405604Y-120007571D01*
X111513776Y-120134224D01*
X111649136Y-120249832D01*
X111705343Y-120297838D01*
X111705346Y-120297839D01*
X111920140Y-120429466D01*
X112038918Y-120478665D01*
X112152889Y-120525873D01*
X112397852Y-120584683D01*
X112649000Y-120604449D01*
X112900148Y-120584683D01*
X113145111Y-120525873D01*
X113377859Y-120429466D01*
X113592659Y-120297836D01*
X113784224Y-120134224D01*
X113824711Y-120086819D01*
X113883214Y-120048628D01*
X113953082Y-120048128D01*
X114012129Y-120085481D01*
X114013289Y-120086820D01*
X114053776Y-120134224D01*
X114189136Y-120249832D01*
X114245343Y-120297838D01*
X114245346Y-120297839D01*
X114460140Y-120429466D01*
X114578918Y-120478665D01*
X114692889Y-120525873D01*
X114937852Y-120584683D01*
X115189000Y-120604449D01*
X115440148Y-120584683D01*
X115685111Y-120525873D01*
X115917859Y-120429466D01*
X116132659Y-120297836D01*
X116324224Y-120134224D01*
X116364710Y-120086819D01*
X116423216Y-120048627D01*
X116493084Y-120048128D01*
X116552130Y-120085482D01*
X116553235Y-120086756D01*
X116568902Y-120105100D01*
X116593776Y-120134224D01*
X116785343Y-120297838D01*
X116785346Y-120297839D01*
X117000140Y-120429466D01*
X117118918Y-120478665D01*
X117232889Y-120525873D01*
X117477852Y-120584683D01*
X117729000Y-120604449D01*
X117980148Y-120584683D01*
X118225111Y-120525873D01*
X118457859Y-120429466D01*
X118590019Y-120348477D01*
X118657461Y-120330234D01*
X118724064Y-120351350D01*
X118754072Y-120379894D01*
X118811455Y-120456547D01*
X118926664Y-120542793D01*
X118926671Y-120542797D01*
X119061517Y-120593091D01*
X119061516Y-120593091D01*
X119068444Y-120593835D01*
X119121127Y-120599500D01*
X121416872Y-120599499D01*
X121476483Y-120593091D01*
X121611331Y-120542796D01*
X121726546Y-120456546D01*
X121812796Y-120341331D01*
X121863091Y-120206483D01*
X121869500Y-120146873D01*
X121869499Y-117851128D01*
X121863412Y-117794500D01*
X121863091Y-117791516D01*
X121812797Y-117656671D01*
X121812793Y-117656664D01*
X121726547Y-117541455D01*
X121726544Y-117541452D01*
X121611335Y-117455206D01*
X121611328Y-117455202D01*
X121476482Y-117404908D01*
X121476483Y-117404908D01*
X121416883Y-117398501D01*
X121416881Y-117398500D01*
X121416873Y-117398500D01*
X121416865Y-117398500D01*
X120058132Y-117398500D01*
X119991093Y-117378815D01*
X119945338Y-117326011D01*
X119935394Y-117256853D01*
X119950743Y-117212504D01*
X119951654Y-117210925D01*
X119953179Y-117208284D01*
X120011674Y-117028256D01*
X120031460Y-116840000D01*
X120011674Y-116651744D01*
X119990312Y-116586000D01*
X122284540Y-116586000D01*
X122304326Y-116774256D01*
X122304327Y-116774259D01*
X122362818Y-116954277D01*
X122362821Y-116954284D01*
X122457467Y-117118216D01*
X122576696Y-117250633D01*
X122584129Y-117258888D01*
X122737265Y-117370148D01*
X122737270Y-117370151D01*
X122910192Y-117447142D01*
X122910197Y-117447144D01*
X123095354Y-117486500D01*
X123095355Y-117486500D01*
X123284644Y-117486500D01*
X123284646Y-117486500D01*
X123469803Y-117447144D01*
X123642730Y-117370151D01*
X123795871Y-117258888D01*
X123922533Y-117118216D01*
X124017179Y-116954284D01*
X124075674Y-116774256D01*
X124095460Y-116586000D01*
X124075674Y-116397744D01*
X124017179Y-116217716D01*
X123922533Y-116053784D01*
X123795871Y-115913112D01*
X123785972Y-115905920D01*
X123642734Y-115801851D01*
X123642729Y-115801848D01*
X123469807Y-115724857D01*
X123469802Y-115724855D01*
X123323464Y-115693751D01*
X123284646Y-115685500D01*
X123095354Y-115685500D01*
X123062897Y-115692398D01*
X122910197Y-115724855D01*
X122910192Y-115724857D01*
X122737270Y-115801848D01*
X122737265Y-115801851D01*
X122584129Y-115913111D01*
X122457466Y-116053785D01*
X122362821Y-116217715D01*
X122362818Y-116217722D01*
X122332884Y-116309851D01*
X122304326Y-116397744D01*
X122284540Y-116586000D01*
X119990312Y-116586000D01*
X119953179Y-116471716D01*
X119858533Y-116307784D01*
X119731871Y-116167112D01*
X119731870Y-116167111D01*
X119578734Y-116055851D01*
X119578729Y-116055848D01*
X119405807Y-115978857D01*
X119405802Y-115978855D01*
X119260000Y-115947865D01*
X119220646Y-115939500D01*
X119031354Y-115939500D01*
X118998897Y-115946398D01*
X118846197Y-115978855D01*
X118846192Y-115978857D01*
X118673270Y-116055848D01*
X118673265Y-116055851D01*
X118520129Y-116167111D01*
X118393466Y-116307785D01*
X118298821Y-116471715D01*
X118298818Y-116471722D01*
X118240327Y-116651740D01*
X118240326Y-116651744D01*
X118220540Y-116840000D01*
X118240326Y-117028256D01*
X118240327Y-117028259D01*
X118298818Y-117208277D01*
X118298820Y-117208281D01*
X118298821Y-117208284D01*
X118313508Y-117233722D01*
X118343215Y-117285177D01*
X118359686Y-117353077D01*
X118336834Y-117419104D01*
X118281912Y-117462294D01*
X118212359Y-117468935D01*
X118206880Y-117467750D01*
X117980151Y-117413317D01*
X117791786Y-117398492D01*
X117729000Y-117393551D01*
X117728999Y-117393551D01*
X117606365Y-117403202D01*
X117537988Y-117388837D01*
X117488232Y-117339786D01*
X117472893Y-117271621D01*
X117473311Y-117266678D01*
X117491460Y-117094000D01*
X117471674Y-116905744D01*
X117413179Y-116725716D01*
X117318533Y-116561784D01*
X117191871Y-116421112D01*
X117159708Y-116397744D01*
X117038734Y-116309851D01*
X117038729Y-116309848D01*
X116865807Y-116232857D01*
X116865802Y-116232855D01*
X116720001Y-116201865D01*
X116680646Y-116193500D01*
X116491354Y-116193500D01*
X116458897Y-116200398D01*
X116306197Y-116232855D01*
X116306192Y-116232857D01*
X116133270Y-116309848D01*
X116133265Y-116309851D01*
X115980129Y-116421111D01*
X115853466Y-116561785D01*
X115758821Y-116725715D01*
X115758818Y-116725722D01*
X115715719Y-116858368D01*
X115700326Y-116905744D01*
X115680540Y-117094000D01*
X115699208Y-117271621D01*
X115700327Y-117282261D01*
X115701678Y-117288617D01*
X115700316Y-117288906D01*
X115702094Y-117351428D01*
X115666006Y-117411256D01*
X115603301Y-117442077D01*
X115553225Y-117440464D01*
X115440151Y-117413317D01*
X115251787Y-117398492D01*
X115189000Y-117393551D01*
X115188999Y-117393551D01*
X114937848Y-117413317D01*
X114692889Y-117472126D01*
X114460140Y-117568533D01*
X114245346Y-117700160D01*
X114245343Y-117700161D01*
X114053776Y-117863776D01*
X114013290Y-117911179D01*
X113954783Y-117949372D01*
X113884915Y-117949870D01*
X113825869Y-117912516D01*
X113824710Y-117911179D01*
X113784224Y-117863776D01*
X113657571Y-117755604D01*
X113592656Y-117700161D01*
X113592653Y-117700160D01*
X113377859Y-117568533D01*
X113145110Y-117472126D01*
X112900151Y-117413317D01*
X112649000Y-117393551D01*
X112397848Y-117413317D01*
X112152889Y-117472126D01*
X111920140Y-117568533D01*
X111705346Y-117700160D01*
X111705344Y-117700161D01*
X111589904Y-117798756D01*
X111526143Y-117827326D01*
X111457057Y-117816888D01*
X111404581Y-117770757D01*
X111385376Y-117703579D01*
X111386050Y-117691525D01*
X111395460Y-117602000D01*
X111375674Y-117413744D01*
X111317179Y-117233716D01*
X111222533Y-117069784D01*
X111095871Y-116929112D01*
X111095870Y-116929111D01*
X110942734Y-116817851D01*
X110942729Y-116817848D01*
X110769807Y-116740857D01*
X110769802Y-116740855D01*
X110624000Y-116709865D01*
X110584646Y-116701500D01*
X110395354Y-116701500D01*
X110362897Y-116708398D01*
X110210197Y-116740855D01*
X110210192Y-116740857D01*
X110156936Y-116764569D01*
X110087686Y-116773854D01*
X110024409Y-116744226D01*
X109987196Y-116685091D01*
X109982500Y-116651290D01*
X109982500Y-112141000D01*
X111674341Y-112141000D01*
X111694936Y-112376403D01*
X111694938Y-112376413D01*
X111756094Y-112604655D01*
X111756096Y-112604659D01*
X111756097Y-112604663D01*
X111789762Y-112676857D01*
X111855965Y-112818830D01*
X111855967Y-112818834D01*
X111941431Y-112940888D01*
X111991505Y-113012401D01*
X112158599Y-113179495D01*
X112195628Y-113205423D01*
X112352165Y-113315032D01*
X112352167Y-113315033D01*
X112352170Y-113315035D01*
X112566337Y-113414903D01*
X112794592Y-113476063D01*
X112982918Y-113492539D01*
X113029999Y-113496659D01*
X113030000Y-113496659D01*
X113030001Y-113496659D01*
X113050597Y-113494856D01*
X113265408Y-113476063D01*
X113265416Y-113476060D01*
X113268753Y-113475473D01*
X113270246Y-113475639D01*
X113270801Y-113475591D01*
X113270810Y-113475702D01*
X113338193Y-113483214D01*
X113392423Y-113527269D01*
X113414227Y-113593650D01*
X113413611Y-113610545D01*
X113394540Y-113792000D01*
X113414326Y-113980256D01*
X113414327Y-113980259D01*
X113472818Y-114160277D01*
X113472821Y-114160284D01*
X113567467Y-114324216D01*
X113694129Y-114464888D01*
X113847265Y-114576148D01*
X113847270Y-114576151D01*
X114020192Y-114653142D01*
X114020197Y-114653144D01*
X114205354Y-114692500D01*
X114205355Y-114692500D01*
X114394644Y-114692500D01*
X114394646Y-114692500D01*
X114579803Y-114653144D01*
X114752730Y-114576151D01*
X114905871Y-114464888D01*
X115032533Y-114324216D01*
X115127179Y-114160284D01*
X115185674Y-113980256D01*
X115205460Y-113792000D01*
X115186388Y-113610545D01*
X115198957Y-113541820D01*
X115246689Y-113490796D01*
X115314429Y-113473678D01*
X115331243Y-113475472D01*
X115334586Y-113476061D01*
X115334592Y-113476063D01*
X115502987Y-113490796D01*
X115569999Y-113496659D01*
X115570000Y-113496659D01*
X115570001Y-113496659D01*
X115609234Y-113493226D01*
X115805408Y-113476063D01*
X116033663Y-113414903D01*
X116247830Y-113315035D01*
X116441401Y-113179495D01*
X116608495Y-113012401D01*
X116744035Y-112818830D01*
X116843903Y-112604663D01*
X116905063Y-112376408D01*
X116925659Y-112141000D01*
X116924546Y-112128284D01*
X116912610Y-111991851D01*
X116905063Y-111905592D01*
X116866052Y-111760000D01*
X129904540Y-111760000D01*
X129924326Y-111948256D01*
X129924327Y-111948259D01*
X129982818Y-112128277D01*
X129982821Y-112128284D01*
X130077467Y-112292216D01*
X130195095Y-112422855D01*
X130204129Y-112432888D01*
X130357265Y-112544148D01*
X130357270Y-112544151D01*
X130530192Y-112621142D01*
X130530197Y-112621144D01*
X130715354Y-112660500D01*
X130715355Y-112660500D01*
X130904644Y-112660500D01*
X130904646Y-112660500D01*
X131089803Y-112621144D01*
X131262730Y-112544151D01*
X131415871Y-112432888D01*
X131542533Y-112292216D01*
X131637179Y-112128284D01*
X131695674Y-111948256D01*
X131715460Y-111760000D01*
X131695674Y-111571744D01*
X131637179Y-111391716D01*
X131542533Y-111227784D01*
X131415871Y-111087112D01*
X131415870Y-111087111D01*
X131262734Y-110975851D01*
X131262729Y-110975848D01*
X131089807Y-110898857D01*
X131089802Y-110898855D01*
X130944001Y-110867865D01*
X130904646Y-110859500D01*
X130715354Y-110859500D01*
X130682897Y-110866398D01*
X130530197Y-110898855D01*
X130530192Y-110898857D01*
X130357270Y-110975848D01*
X130357265Y-110975851D01*
X130204129Y-111087111D01*
X130077466Y-111227785D01*
X129982821Y-111391715D01*
X129982818Y-111391722D01*
X129924327Y-111571740D01*
X129924326Y-111571744D01*
X129904540Y-111760000D01*
X116866052Y-111760000D01*
X116843903Y-111677337D01*
X116779116Y-111538403D01*
X116768625Y-111469328D01*
X116797144Y-111405544D01*
X116855621Y-111367304D01*
X116925488Y-111366749D01*
X116983648Y-111403027D01*
X116996128Y-111416887D01*
X116996129Y-111416888D01*
X117149265Y-111528148D01*
X117149270Y-111528151D01*
X117322192Y-111605142D01*
X117322197Y-111605144D01*
X117507354Y-111644500D01*
X117507355Y-111644500D01*
X117696644Y-111644500D01*
X117696646Y-111644500D01*
X117881803Y-111605144D01*
X118054730Y-111528151D01*
X118207871Y-111416888D01*
X118334533Y-111276216D01*
X118429179Y-111112284D01*
X118487674Y-110932256D01*
X118507460Y-110744000D01*
X118491893Y-110595884D01*
X123486854Y-110595884D01*
X123506640Y-110784140D01*
X123506641Y-110784143D01*
X123565132Y-110964161D01*
X123565135Y-110964168D01*
X123659781Y-111128100D01*
X123779425Y-111260978D01*
X123786443Y-111268772D01*
X123939579Y-111380032D01*
X123939584Y-111380035D01*
X124112506Y-111457026D01*
X124112511Y-111457028D01*
X124297668Y-111496384D01*
X124297669Y-111496384D01*
X124486958Y-111496384D01*
X124486960Y-111496384D01*
X124672117Y-111457028D01*
X124845044Y-111380035D01*
X124998185Y-111268772D01*
X125124847Y-111128100D01*
X125219493Y-110964168D01*
X125277988Y-110784140D01*
X125297774Y-110595884D01*
X125277988Y-110407628D01*
X125219493Y-110227600D01*
X125124847Y-110063668D01*
X124998185Y-109922996D01*
X124998184Y-109922995D01*
X124845048Y-109811735D01*
X124845043Y-109811732D01*
X124672121Y-109734741D01*
X124672116Y-109734739D01*
X124526314Y-109703749D01*
X124486960Y-109695384D01*
X124297668Y-109695384D01*
X124265211Y-109702282D01*
X124112511Y-109734739D01*
X124112506Y-109734741D01*
X123939584Y-109811732D01*
X123939579Y-109811735D01*
X123786443Y-109922995D01*
X123659780Y-110063669D01*
X123565135Y-110227599D01*
X123565132Y-110227606D01*
X123517007Y-110375722D01*
X123506640Y-110407628D01*
X123486854Y-110595884D01*
X118491893Y-110595884D01*
X118487674Y-110555744D01*
X118429179Y-110375716D01*
X118334533Y-110211784D01*
X118207871Y-110071112D01*
X118197627Y-110063669D01*
X118054734Y-109959851D01*
X118054729Y-109959848D01*
X117881807Y-109882857D01*
X117881802Y-109882855D01*
X117736000Y-109851865D01*
X117696646Y-109843500D01*
X117507354Y-109843500D01*
X117474897Y-109850398D01*
X117322197Y-109882855D01*
X117322192Y-109882857D01*
X117149270Y-109959848D01*
X117149265Y-109959851D01*
X117088247Y-110004184D01*
X117022441Y-110027664D01*
X116954387Y-110011838D01*
X116905692Y-109961732D01*
X116891817Y-109893254D01*
X116895587Y-109871773D01*
X116896674Y-109867716D01*
X116905063Y-109836408D01*
X116925659Y-109601000D01*
X116915393Y-109483657D01*
X116929160Y-109415157D01*
X116977775Y-109364974D01*
X117038921Y-109348850D01*
X117198294Y-109348850D01*
X117198296Y-109348850D01*
X117383453Y-109309494D01*
X117556380Y-109232501D01*
X117709521Y-109121238D01*
X117836183Y-108980566D01*
X117930829Y-108816634D01*
X117989324Y-108636606D01*
X118009110Y-108448350D01*
X117989324Y-108260094D01*
X117930829Y-108080066D01*
X117836183Y-107916134D01*
X117709521Y-107775462D01*
X117659107Y-107738834D01*
X117556384Y-107664201D01*
X117556379Y-107664198D01*
X117383457Y-107587207D01*
X117383452Y-107587205D01*
X117237651Y-107556215D01*
X117198296Y-107547850D01*
X117073057Y-107547850D01*
X117006018Y-107528165D01*
X116960263Y-107475361D01*
X116950319Y-107406203D01*
X116979344Y-107342647D01*
X117038122Y-107304873D01*
X117047276Y-107302560D01*
X117076242Y-107296403D01*
X117119803Y-107287144D01*
X117292730Y-107210151D01*
X117445871Y-107098888D01*
X117572533Y-106958216D01*
X117667179Y-106794284D01*
X117704312Y-106680000D01*
X117714001Y-106650182D01*
X117753439Y-106592506D01*
X117817797Y-106565308D01*
X117831932Y-106564500D01*
X117950644Y-106564500D01*
X117950646Y-106564500D01*
X118135803Y-106525144D01*
X118308730Y-106448151D01*
X118461871Y-106336888D01*
X118588533Y-106196216D01*
X118683179Y-106032284D01*
X118741674Y-105852256D01*
X118761460Y-105664000D01*
X118741674Y-105475744D01*
X118683179Y-105295716D01*
X118588533Y-105131784D01*
X118469874Y-105000000D01*
X142094540Y-105000000D01*
X142114326Y-105188256D01*
X142114327Y-105188259D01*
X142172818Y-105368277D01*
X142172821Y-105368284D01*
X142267467Y-105532216D01*
X142366181Y-105641849D01*
X142394129Y-105672888D01*
X142547265Y-105784148D01*
X142547270Y-105784151D01*
X142720192Y-105861142D01*
X142720197Y-105861144D01*
X142905354Y-105900500D01*
X142905355Y-105900500D01*
X143094644Y-105900500D01*
X143094646Y-105900500D01*
X143279803Y-105861144D01*
X143452730Y-105784151D01*
X143605871Y-105672888D01*
X143732533Y-105532216D01*
X143827179Y-105368284D01*
X143863143Y-105257600D01*
X145296940Y-105257600D01*
X145316726Y-105445856D01*
X145316727Y-105445859D01*
X145375218Y-105625877D01*
X145375221Y-105625884D01*
X145469867Y-105789816D01*
X145547337Y-105875855D01*
X145596529Y-105930488D01*
X145749665Y-106041748D01*
X145749670Y-106041751D01*
X145922592Y-106118742D01*
X145922597Y-106118744D01*
X146107754Y-106158100D01*
X146107755Y-106158100D01*
X146297044Y-106158100D01*
X146297046Y-106158100D01*
X146482203Y-106118744D01*
X146655130Y-106041751D01*
X146808271Y-105930488D01*
X146934933Y-105789816D01*
X147029579Y-105625884D01*
X147088074Y-105445856D01*
X147107860Y-105257600D01*
X147088074Y-105069344D01*
X147079948Y-105044335D01*
X147077953Y-104974494D01*
X147105729Y-104923044D01*
X147105866Y-104922891D01*
X147105871Y-104922888D01*
X147232533Y-104782216D01*
X147327179Y-104618284D01*
X147385674Y-104438256D01*
X147405460Y-104250000D01*
X147385674Y-104061744D01*
X147331112Y-103893823D01*
X147327181Y-103881722D01*
X147327180Y-103881721D01*
X147327179Y-103881716D01*
X147232533Y-103717784D01*
X147105871Y-103577112D01*
X147105870Y-103577111D01*
X146952734Y-103465851D01*
X146952729Y-103465848D01*
X146779807Y-103388857D01*
X146779802Y-103388855D01*
X146634001Y-103357865D01*
X146594646Y-103349500D01*
X146405354Y-103349500D01*
X146372897Y-103356398D01*
X146220197Y-103388855D01*
X146220192Y-103388857D01*
X146047270Y-103465848D01*
X146047265Y-103465851D01*
X145894129Y-103577111D01*
X145767466Y-103717785D01*
X145672821Y-103881715D01*
X145672818Y-103881722D01*
X145614327Y-104061740D01*
X145614326Y-104061744D01*
X145598129Y-104215849D01*
X145594540Y-104250000D01*
X145614326Y-104438256D01*
X145614327Y-104438260D01*
X145622452Y-104463267D01*
X145624445Y-104533108D01*
X145596670Y-104584554D01*
X145469866Y-104725384D01*
X145375221Y-104889315D01*
X145375218Y-104889322D01*
X145342145Y-104991112D01*
X145316726Y-105069344D01*
X145296940Y-105257600D01*
X143863143Y-105257600D01*
X143885674Y-105188256D01*
X143905460Y-105000000D01*
X143885674Y-104811744D01*
X143827179Y-104631716D01*
X143732533Y-104467784D01*
X143605871Y-104327112D01*
X143605870Y-104327111D01*
X143452734Y-104215851D01*
X143452729Y-104215848D01*
X143279807Y-104138857D01*
X143279802Y-104138855D01*
X143134000Y-104107865D01*
X143094646Y-104099500D01*
X142905354Y-104099500D01*
X142872897Y-104106398D01*
X142720197Y-104138855D01*
X142720192Y-104138857D01*
X142547270Y-104215848D01*
X142547265Y-104215851D01*
X142394129Y-104327111D01*
X142267466Y-104467785D01*
X142172821Y-104631715D01*
X142172818Y-104631722D01*
X142114327Y-104811740D01*
X142114326Y-104811744D01*
X142094540Y-105000000D01*
X118469874Y-105000000D01*
X118461871Y-104991112D01*
X118452984Y-104984655D01*
X118308734Y-104879851D01*
X118308729Y-104879848D01*
X118135807Y-104802857D01*
X118135802Y-104802855D01*
X117990001Y-104771865D01*
X117950646Y-104763500D01*
X117761354Y-104763500D01*
X117728897Y-104770398D01*
X117576197Y-104802855D01*
X117576192Y-104802857D01*
X117403270Y-104879848D01*
X117403265Y-104879851D01*
X117250129Y-104991111D01*
X117123466Y-105131785D01*
X117028821Y-105295715D01*
X117028818Y-105295722D01*
X116981999Y-105439818D01*
X116942561Y-105497494D01*
X116878203Y-105524692D01*
X116864068Y-105525500D01*
X116753500Y-105525500D01*
X116686461Y-105505815D01*
X116640706Y-105453011D01*
X116630762Y-105383853D01*
X116651925Y-105330376D01*
X116676190Y-105295722D01*
X116744035Y-105198830D01*
X116843903Y-104984663D01*
X116905063Y-104756408D01*
X116925659Y-104521000D01*
X116905063Y-104285592D01*
X116843903Y-104057337D01*
X116744035Y-103843171D01*
X116738424Y-103835158D01*
X116608496Y-103649600D01*
X116608493Y-103649597D01*
X116486179Y-103527283D01*
X116452696Y-103465963D01*
X116457680Y-103396271D01*
X116471357Y-103378000D01*
X124062540Y-103378000D01*
X124082326Y-103566256D01*
X124082327Y-103566259D01*
X124140818Y-103746277D01*
X124140821Y-103746284D01*
X124235467Y-103910216D01*
X124291098Y-103972000D01*
X124362129Y-104050888D01*
X124515265Y-104162148D01*
X124515270Y-104162151D01*
X124688192Y-104239142D01*
X124688197Y-104239144D01*
X124873354Y-104278500D01*
X124873355Y-104278500D01*
X125062644Y-104278500D01*
X125062646Y-104278500D01*
X125247803Y-104239144D01*
X125420730Y-104162151D01*
X125573871Y-104050888D01*
X125700533Y-103910216D01*
X125795179Y-103746284D01*
X125853674Y-103566256D01*
X125873460Y-103378000D01*
X125853674Y-103189744D01*
X125795179Y-103009716D01*
X125700533Y-102845784D01*
X125573871Y-102705112D01*
X125510175Y-102658834D01*
X125420734Y-102593851D01*
X125420729Y-102593848D01*
X125247807Y-102516857D01*
X125247802Y-102516855D01*
X125079112Y-102481000D01*
X125062646Y-102477500D01*
X124873354Y-102477500D01*
X124856888Y-102481000D01*
X124688197Y-102516855D01*
X124688192Y-102516857D01*
X124515270Y-102593848D01*
X124515265Y-102593851D01*
X124362129Y-102705111D01*
X124235466Y-102845785D01*
X124140821Y-103009715D01*
X124140818Y-103009722D01*
X124083563Y-103185937D01*
X124082326Y-103189744D01*
X124062540Y-103378000D01*
X116471357Y-103378000D01*
X116499551Y-103340337D01*
X116530529Y-103323422D01*
X116662086Y-103274354D01*
X116662093Y-103274350D01*
X116777187Y-103188190D01*
X116777190Y-103188187D01*
X116863350Y-103073093D01*
X116863354Y-103073086D01*
X116913596Y-102938379D01*
X116913598Y-102938372D01*
X116919999Y-102878844D01*
X116920000Y-102878827D01*
X116920000Y-102231000D01*
X116183347Y-102231000D01*
X116116308Y-102211315D01*
X116070553Y-102158511D01*
X116060609Y-102089353D01*
X116064369Y-102072067D01*
X116070000Y-102052888D01*
X116070000Y-101909111D01*
X116064369Y-101889933D01*
X116064370Y-101820064D01*
X116102145Y-101761286D01*
X116165701Y-101732262D01*
X116183347Y-101731000D01*
X116920000Y-101731000D01*
X116920000Y-101698940D01*
X116939685Y-101631901D01*
X116992489Y-101586146D01*
X117061647Y-101576202D01*
X117116886Y-101598623D01*
X117149264Y-101622147D01*
X117149270Y-101622151D01*
X117322192Y-101699142D01*
X117322197Y-101699144D01*
X117507354Y-101738500D01*
X117507355Y-101738500D01*
X117696644Y-101738500D01*
X117696646Y-101738500D01*
X117881803Y-101699144D01*
X118054730Y-101622151D01*
X118207871Y-101510888D01*
X118334533Y-101370216D01*
X118429179Y-101206284D01*
X118466312Y-101092000D01*
X124316540Y-101092000D01*
X124336326Y-101280256D01*
X124336327Y-101280259D01*
X124394818Y-101460277D01*
X124394820Y-101460281D01*
X124394821Y-101460284D01*
X124489467Y-101624216D01*
X124592369Y-101738500D01*
X124616129Y-101764888D01*
X124769265Y-101876148D01*
X124769270Y-101876151D01*
X124942192Y-101953142D01*
X124942197Y-101953144D01*
X125127354Y-101992500D01*
X125127355Y-101992500D01*
X125316644Y-101992500D01*
X125316646Y-101992500D01*
X125501803Y-101953144D01*
X125674730Y-101876151D01*
X125827871Y-101764888D01*
X125954533Y-101624216D01*
X126049179Y-101460284D01*
X126062198Y-101420213D01*
X126101634Y-101362540D01*
X126165992Y-101335341D01*
X126234839Y-101347254D01*
X126272279Y-101375560D01*
X126394129Y-101510888D01*
X126547265Y-101622148D01*
X126547270Y-101622151D01*
X126720192Y-101699142D01*
X126720197Y-101699144D01*
X126905354Y-101738500D01*
X126905355Y-101738500D01*
X127094644Y-101738500D01*
X127094646Y-101738500D01*
X127279803Y-101699144D01*
X127452730Y-101622151D01*
X127605871Y-101510888D01*
X127732533Y-101370216D01*
X127827179Y-101206284D01*
X127885674Y-101026256D01*
X127905460Y-100838000D01*
X127885674Y-100649744D01*
X127827179Y-100469716D01*
X127732533Y-100305784D01*
X127605871Y-100165112D01*
X127605870Y-100165111D01*
X127452734Y-100053851D01*
X127452729Y-100053848D01*
X127331786Y-100000000D01*
X141844540Y-100000000D01*
X141864326Y-100188256D01*
X141864327Y-100188259D01*
X141922818Y-100368277D01*
X141922821Y-100368284D01*
X142017467Y-100532216D01*
X142123290Y-100649744D01*
X142144129Y-100672888D01*
X142297265Y-100784148D01*
X142297270Y-100784151D01*
X142470192Y-100861142D01*
X142470197Y-100861144D01*
X142655354Y-100900500D01*
X142655355Y-100900500D01*
X142844644Y-100900500D01*
X142844646Y-100900500D01*
X143029803Y-100861144D01*
X143202730Y-100784151D01*
X143355871Y-100672888D01*
X143482533Y-100532216D01*
X143577179Y-100368284D01*
X143635674Y-100188256D01*
X143655460Y-100000000D01*
X143635674Y-99811744D01*
X143577179Y-99631716D01*
X143482533Y-99467784D01*
X143355871Y-99327112D01*
X143355870Y-99327111D01*
X143202734Y-99215851D01*
X143202729Y-99215848D01*
X143029807Y-99138857D01*
X143029802Y-99138855D01*
X142884000Y-99107865D01*
X142844646Y-99099500D01*
X142655354Y-99099500D01*
X142622897Y-99106398D01*
X142470197Y-99138855D01*
X142470192Y-99138857D01*
X142297270Y-99215848D01*
X142297265Y-99215851D01*
X142144129Y-99327111D01*
X142017466Y-99467785D01*
X141922821Y-99631715D01*
X141922818Y-99631722D01*
X141864632Y-99810801D01*
X141864326Y-99811744D01*
X141844540Y-100000000D01*
X127331786Y-100000000D01*
X127279807Y-99976857D01*
X127279802Y-99976855D01*
X127134001Y-99945865D01*
X127094646Y-99937500D01*
X126905354Y-99937500D01*
X126872897Y-99944398D01*
X126720197Y-99976855D01*
X126720192Y-99976857D01*
X126547270Y-100053848D01*
X126547265Y-100053851D01*
X126394129Y-100165111D01*
X126267466Y-100305785D01*
X126172821Y-100469715D01*
X126172819Y-100469719D01*
X126159801Y-100509786D01*
X126120363Y-100567461D01*
X126056004Y-100594659D01*
X125987158Y-100582744D01*
X125949720Y-100554439D01*
X125929710Y-100532216D01*
X125827871Y-100419112D01*
X125827870Y-100419111D01*
X125674734Y-100307851D01*
X125674729Y-100307848D01*
X125501807Y-100230857D01*
X125501802Y-100230855D01*
X125356001Y-100199865D01*
X125316646Y-100191500D01*
X125127354Y-100191500D01*
X125094897Y-100198398D01*
X124942197Y-100230855D01*
X124942192Y-100230857D01*
X124769270Y-100307848D01*
X124769265Y-100307851D01*
X124616129Y-100419111D01*
X124489466Y-100559785D01*
X124394821Y-100723715D01*
X124394818Y-100723722D01*
X124345526Y-100875429D01*
X124336326Y-100903744D01*
X124316540Y-101092000D01*
X118466312Y-101092000D01*
X118487674Y-101026256D01*
X118507460Y-100838000D01*
X118487674Y-100649744D01*
X118429179Y-100469716D01*
X118334533Y-100305784D01*
X118207871Y-100165112D01*
X118207870Y-100165111D01*
X118054734Y-100053851D01*
X118054729Y-100053848D01*
X117881807Y-99976857D01*
X117881802Y-99976855D01*
X117736000Y-99945865D01*
X117696646Y-99937500D01*
X117507354Y-99937500D01*
X117474897Y-99944398D01*
X117322197Y-99976855D01*
X117322192Y-99976857D01*
X117149270Y-100053848D01*
X117149265Y-100053851D01*
X116996129Y-100165111D01*
X116869466Y-100305785D01*
X116774821Y-100469715D01*
X116774818Y-100469722D01*
X116739475Y-100578498D01*
X116700037Y-100636174D01*
X116635679Y-100663372D01*
X116578211Y-100656362D01*
X116527379Y-100637403D01*
X116527372Y-100637401D01*
X116467844Y-100631000D01*
X115820000Y-100631000D01*
X115820000Y-101368698D01*
X115800315Y-101435737D01*
X115747511Y-101481492D01*
X115678355Y-101491436D01*
X115605766Y-101481000D01*
X115605763Y-101481000D01*
X115534237Y-101481000D01*
X115534233Y-101481000D01*
X115461645Y-101491436D01*
X115392487Y-101481492D01*
X115339684Y-101435736D01*
X115320000Y-101368698D01*
X115320000Y-100631000D01*
X114672155Y-100631000D01*
X114612627Y-100637401D01*
X114612620Y-100637403D01*
X114477913Y-100687645D01*
X114477906Y-100687649D01*
X114362812Y-100773809D01*
X114362809Y-100773812D01*
X114276649Y-100888906D01*
X114276645Y-100888913D01*
X114227578Y-101020470D01*
X114185707Y-101076404D01*
X114120242Y-101100821D01*
X114051969Y-101085969D01*
X114023715Y-101064819D01*
X113979366Y-101020470D01*
X113901401Y-100942505D01*
X113901397Y-100942502D01*
X113901396Y-100942501D01*
X113707834Y-100806967D01*
X113707830Y-100806965D01*
X113636727Y-100773809D01*
X113493663Y-100707097D01*
X113493659Y-100707096D01*
X113493655Y-100707094D01*
X113265413Y-100645938D01*
X113265403Y-100645936D01*
X113030001Y-100625341D01*
X113029999Y-100625341D01*
X112794596Y-100645936D01*
X112794586Y-100645938D01*
X112566344Y-100707094D01*
X112566335Y-100707098D01*
X112352171Y-100806964D01*
X112352169Y-100806965D01*
X112158597Y-100942505D01*
X111991505Y-101109597D01*
X111855965Y-101303169D01*
X111855964Y-101303171D01*
X111756098Y-101517335D01*
X111756094Y-101517344D01*
X111694938Y-101745586D01*
X111694936Y-101745596D01*
X111674341Y-101980999D01*
X111674341Y-101981000D01*
X111694936Y-102216403D01*
X111694938Y-102216413D01*
X111756094Y-102444655D01*
X111756096Y-102444659D01*
X111756097Y-102444663D01*
X111789762Y-102516857D01*
X111855965Y-102658830D01*
X111855967Y-102658834D01*
X111964281Y-102813521D01*
X111986872Y-102845785D01*
X111991501Y-102852395D01*
X111991506Y-102852402D01*
X112158597Y-103019493D01*
X112158603Y-103019498D01*
X112344158Y-103149425D01*
X112387783Y-103204002D01*
X112394977Y-103273500D01*
X112363454Y-103335855D01*
X112344158Y-103352575D01*
X112158597Y-103482505D01*
X111991505Y-103649597D01*
X111855965Y-103843169D01*
X111855964Y-103843171D01*
X111756098Y-104057335D01*
X111756094Y-104057344D01*
X111694938Y-104285586D01*
X111694936Y-104285596D01*
X111674341Y-104520999D01*
X111674341Y-104521000D01*
X111694936Y-104756403D01*
X111694938Y-104756413D01*
X111756094Y-104984655D01*
X111756096Y-104984659D01*
X111756097Y-104984663D01*
X111783923Y-105044335D01*
X111855965Y-105198830D01*
X111855967Y-105198834D01*
X111964281Y-105353521D01*
X111991501Y-105392396D01*
X111991506Y-105392402D01*
X112158597Y-105559493D01*
X112158603Y-105559498D01*
X112344158Y-105689425D01*
X112387783Y-105744002D01*
X112394977Y-105813500D01*
X112363454Y-105875855D01*
X112344158Y-105892575D01*
X112158597Y-106022505D01*
X111991505Y-106189597D01*
X111855965Y-106383169D01*
X111855964Y-106383171D01*
X111756098Y-106597335D01*
X111756094Y-106597344D01*
X111694938Y-106825586D01*
X111694936Y-106825596D01*
X111674341Y-107060999D01*
X111674341Y-107061000D01*
X111694936Y-107296403D01*
X111694938Y-107296413D01*
X111756094Y-107524655D01*
X111756096Y-107524659D01*
X111756097Y-107524663D01*
X111821164Y-107664199D01*
X111855965Y-107738830D01*
X111855967Y-107738834D01*
X111964281Y-107893521D01*
X111991501Y-107932396D01*
X111991506Y-107932402D01*
X112158597Y-108099493D01*
X112158603Y-108099498D01*
X112344158Y-108229425D01*
X112387783Y-108284002D01*
X112394977Y-108353500D01*
X112363454Y-108415855D01*
X112344158Y-108432575D01*
X112158597Y-108562505D01*
X111991505Y-108729597D01*
X111855965Y-108923169D01*
X111855964Y-108923171D01*
X111756098Y-109137335D01*
X111756094Y-109137344D01*
X111694938Y-109365586D01*
X111694936Y-109365596D01*
X111674341Y-109600999D01*
X111674341Y-109601000D01*
X111694936Y-109836403D01*
X111694938Y-109836413D01*
X111756094Y-110064655D01*
X111756096Y-110064659D01*
X111756097Y-110064663D01*
X111824701Y-110211784D01*
X111855965Y-110278830D01*
X111855967Y-110278834D01*
X111946150Y-110407628D01*
X111991501Y-110472396D01*
X111991506Y-110472402D01*
X112158597Y-110639493D01*
X112158603Y-110639498D01*
X112344158Y-110769425D01*
X112387783Y-110824002D01*
X112394977Y-110893500D01*
X112363454Y-110955855D01*
X112344158Y-110972575D01*
X112158597Y-111102505D01*
X111991505Y-111269597D01*
X111855965Y-111463169D01*
X111855964Y-111463171D01*
X111756098Y-111677335D01*
X111756094Y-111677344D01*
X111694938Y-111905586D01*
X111694936Y-111905596D01*
X111674341Y-112140999D01*
X111674341Y-112141000D01*
X109982500Y-112141000D01*
X109982500Y-98806000D01*
X145652540Y-98806000D01*
X145672326Y-98994256D01*
X145672327Y-98994259D01*
X145730818Y-99174277D01*
X145730821Y-99174284D01*
X145825467Y-99338216D01*
X145892933Y-99413144D01*
X145952129Y-99478888D01*
X146105265Y-99590148D01*
X146105270Y-99590151D01*
X146278192Y-99667142D01*
X146278197Y-99667144D01*
X146463354Y-99706500D01*
X146463355Y-99706500D01*
X146652644Y-99706500D01*
X146652646Y-99706500D01*
X146837803Y-99667144D01*
X147010730Y-99590151D01*
X147163871Y-99478888D01*
X147290533Y-99338216D01*
X147385179Y-99174284D01*
X147443674Y-98994256D01*
X147463460Y-98806000D01*
X147443674Y-98617744D01*
X147385179Y-98437716D01*
X147290533Y-98273784D01*
X147163871Y-98133112D01*
X147163870Y-98133111D01*
X147010734Y-98021851D01*
X147010729Y-98021848D01*
X146837807Y-97944857D01*
X146837802Y-97944855D01*
X146692001Y-97913865D01*
X146652646Y-97905500D01*
X146463354Y-97905500D01*
X146430897Y-97912398D01*
X146278197Y-97944855D01*
X146278192Y-97944857D01*
X146105270Y-98021848D01*
X146105265Y-98021851D01*
X145952129Y-98133111D01*
X145825466Y-98273785D01*
X145730821Y-98437715D01*
X145730818Y-98437722D01*
X145672327Y-98617740D01*
X145672326Y-98617744D01*
X145652540Y-98806000D01*
X109982500Y-98806000D01*
X109982500Y-95250000D01*
X114918540Y-95250000D01*
X114938326Y-95438256D01*
X114938327Y-95438259D01*
X114996818Y-95618277D01*
X114996821Y-95618284D01*
X115091467Y-95782216D01*
X115218128Y-95922888D01*
X115218129Y-95922888D01*
X115371265Y-96034148D01*
X115371270Y-96034151D01*
X115544192Y-96111142D01*
X115544197Y-96111144D01*
X115729354Y-96150500D01*
X115729355Y-96150500D01*
X115918644Y-96150500D01*
X115918646Y-96150500D01*
X116103803Y-96111144D01*
X116276730Y-96034151D01*
X116429871Y-95922888D01*
X116556533Y-95782216D01*
X116651179Y-95618284D01*
X116709674Y-95438256D01*
X116729460Y-95250000D01*
X118220540Y-95250000D01*
X118240326Y-95438256D01*
X118240327Y-95438259D01*
X118298818Y-95618277D01*
X118298821Y-95618284D01*
X118393467Y-95782216D01*
X118520128Y-95922888D01*
X118520129Y-95922888D01*
X118673265Y-96034148D01*
X118673270Y-96034151D01*
X118846192Y-96111142D01*
X118846197Y-96111144D01*
X119031354Y-96150500D01*
X119031355Y-96150500D01*
X119220644Y-96150500D01*
X119220646Y-96150500D01*
X119405803Y-96111144D01*
X119578730Y-96034151D01*
X119578730Y-96034150D01*
X119582038Y-96032678D01*
X119651288Y-96023393D01*
X119714564Y-96053021D01*
X119751778Y-96112155D01*
X119755794Y-96158915D01*
X119744540Y-96266000D01*
X119764326Y-96454256D01*
X119764327Y-96454259D01*
X119822818Y-96634277D01*
X119822821Y-96634284D01*
X119917467Y-96798216D01*
X119975900Y-96863112D01*
X120044129Y-96938888D01*
X120197265Y-97050148D01*
X120197270Y-97050151D01*
X120370192Y-97127142D01*
X120370197Y-97127144D01*
X120555354Y-97166500D01*
X120555355Y-97166500D01*
X120744644Y-97166500D01*
X120744646Y-97166500D01*
X120929803Y-97127144D01*
X121102730Y-97050151D01*
X121255871Y-96938888D01*
X121382533Y-96798216D01*
X121477179Y-96634284D01*
X121535674Y-96454256D01*
X121555460Y-96266000D01*
X121535674Y-96077744D01*
X121477179Y-95897716D01*
X121432308Y-95819997D01*
X121417267Y-95758000D01*
X129904540Y-95758000D01*
X129924326Y-95946256D01*
X129924327Y-95946259D01*
X129982818Y-96126277D01*
X129982821Y-96126284D01*
X130077467Y-96290216D01*
X130204128Y-96430888D01*
X130204129Y-96430888D01*
X130357265Y-96542148D01*
X130357270Y-96542151D01*
X130530192Y-96619142D01*
X130530197Y-96619144D01*
X130715354Y-96658500D01*
X130715355Y-96658500D01*
X130904644Y-96658500D01*
X130904646Y-96658500D01*
X131089803Y-96619144D01*
X131262730Y-96542151D01*
X131415871Y-96430888D01*
X131542533Y-96290216D01*
X131637179Y-96126284D01*
X131695674Y-95946256D01*
X131715460Y-95758000D01*
X131695674Y-95569744D01*
X131637179Y-95389716D01*
X131542533Y-95225784D01*
X131415871Y-95085112D01*
X131383708Y-95061744D01*
X131262734Y-94973851D01*
X131262729Y-94973848D01*
X131089807Y-94896857D01*
X131089802Y-94896855D01*
X130944000Y-94865865D01*
X130904646Y-94857500D01*
X130715354Y-94857500D01*
X130682897Y-94864398D01*
X130530197Y-94896855D01*
X130530192Y-94896857D01*
X130357270Y-94973848D01*
X130357265Y-94973851D01*
X130204129Y-95085111D01*
X130077466Y-95225785D01*
X129982821Y-95389715D01*
X129982818Y-95389722D01*
X129924327Y-95569740D01*
X129924326Y-95569744D01*
X129904540Y-95758000D01*
X121417267Y-95758000D01*
X121415836Y-95752100D01*
X121432308Y-95696002D01*
X121477179Y-95618284D01*
X121535674Y-95438256D01*
X121555460Y-95250000D01*
X121535674Y-95061744D01*
X121477179Y-94881716D01*
X121382533Y-94717784D01*
X121255871Y-94577112D01*
X121255870Y-94577111D01*
X121102734Y-94465851D01*
X121102729Y-94465848D01*
X120929807Y-94388857D01*
X120929802Y-94388855D01*
X120784001Y-94357865D01*
X120744646Y-94349500D01*
X120555354Y-94349500D01*
X120522897Y-94356398D01*
X120370197Y-94388855D01*
X120370192Y-94388857D01*
X120197270Y-94465848D01*
X120197265Y-94465851D01*
X120044129Y-94577111D01*
X120044128Y-94577112D01*
X119980149Y-94648168D01*
X119920663Y-94684816D01*
X119850806Y-94683485D01*
X119795851Y-94648168D01*
X119731871Y-94577112D01*
X119731870Y-94577111D01*
X119578734Y-94465851D01*
X119578729Y-94465848D01*
X119405807Y-94388857D01*
X119405802Y-94388855D01*
X119260000Y-94357865D01*
X119220646Y-94349500D01*
X119031354Y-94349500D01*
X118998897Y-94356398D01*
X118846197Y-94388855D01*
X118846192Y-94388857D01*
X118673270Y-94465848D01*
X118673265Y-94465851D01*
X118520129Y-94577111D01*
X118393466Y-94717785D01*
X118298821Y-94881715D01*
X118298818Y-94881722D01*
X118268884Y-94973851D01*
X118240326Y-95061744D01*
X118220540Y-95250000D01*
X116729460Y-95250000D01*
X116709674Y-95061744D01*
X116651179Y-94881716D01*
X116556533Y-94717784D01*
X116429871Y-94577112D01*
X116429870Y-94577111D01*
X116276734Y-94465851D01*
X116276729Y-94465848D01*
X116103807Y-94388857D01*
X116103802Y-94388855D01*
X115958001Y-94357865D01*
X115918646Y-94349500D01*
X115729354Y-94349500D01*
X115696897Y-94356398D01*
X115544197Y-94388855D01*
X115544192Y-94388857D01*
X115371270Y-94465848D01*
X115371265Y-94465851D01*
X115218129Y-94577111D01*
X115091466Y-94717785D01*
X114996821Y-94881715D01*
X114996818Y-94881722D01*
X114966884Y-94973851D01*
X114938326Y-95061744D01*
X114918540Y-95250000D01*
X109982500Y-95250000D01*
X109982500Y-93980000D01*
X147176540Y-93980000D01*
X147196326Y-94168256D01*
X147196327Y-94168259D01*
X147254818Y-94348277D01*
X147254821Y-94348284D01*
X147349467Y-94512216D01*
X147407899Y-94577111D01*
X147476129Y-94652888D01*
X147629265Y-94764148D01*
X147629270Y-94764151D01*
X147802192Y-94841142D01*
X147802197Y-94841144D01*
X147987354Y-94880500D01*
X147987355Y-94880500D01*
X148176644Y-94880500D01*
X148176646Y-94880500D01*
X148361803Y-94841144D01*
X148534730Y-94764151D01*
X148687871Y-94652888D01*
X148814533Y-94512216D01*
X148909179Y-94348284D01*
X148967674Y-94168256D01*
X148987460Y-93980000D01*
X148967674Y-93791744D01*
X148946312Y-93726000D01*
X151748540Y-93726000D01*
X151768326Y-93914256D01*
X151768327Y-93914259D01*
X151826818Y-94094277D01*
X151826821Y-94094284D01*
X151921467Y-94258216D01*
X152002559Y-94348277D01*
X152048129Y-94398888D01*
X152201265Y-94510148D01*
X152201270Y-94510151D01*
X152374192Y-94587142D01*
X152374197Y-94587144D01*
X152559354Y-94626500D01*
X152559355Y-94626500D01*
X152748644Y-94626500D01*
X152748646Y-94626500D01*
X152933803Y-94587144D01*
X153106730Y-94510151D01*
X153259871Y-94398888D01*
X153386533Y-94258216D01*
X153481179Y-94094284D01*
X153539674Y-93914256D01*
X153559460Y-93726000D01*
X153539674Y-93537744D01*
X153481179Y-93357716D01*
X153386533Y-93193784D01*
X153259871Y-93053112D01*
X153259870Y-93053111D01*
X153255522Y-93048282D01*
X153257372Y-93046616D01*
X153226597Y-92996667D01*
X153227925Y-92926810D01*
X153257211Y-92881239D01*
X153255522Y-92879718D01*
X153259871Y-92874888D01*
X153386533Y-92734216D01*
X153481179Y-92570284D01*
X153539674Y-92390256D01*
X153559460Y-92202000D01*
X153539674Y-92013744D01*
X153481179Y-91833716D01*
X153386533Y-91669784D01*
X153259871Y-91529112D01*
X153259870Y-91529111D01*
X153106734Y-91417851D01*
X153106729Y-91417848D01*
X152933807Y-91340857D01*
X152933802Y-91340855D01*
X152788000Y-91309865D01*
X152748646Y-91301500D01*
X152559354Y-91301500D01*
X152526897Y-91308398D01*
X152374197Y-91340855D01*
X152374192Y-91340857D01*
X152201270Y-91417848D01*
X152201265Y-91417851D01*
X152048129Y-91529111D01*
X151921466Y-91669785D01*
X151826821Y-91833715D01*
X151826818Y-91833722D01*
X151768327Y-92013740D01*
X151768326Y-92013744D01*
X151748540Y-92202000D01*
X151768326Y-92390256D01*
X151768327Y-92390259D01*
X151826818Y-92570277D01*
X151826821Y-92570284D01*
X151921467Y-92734216D01*
X152002559Y-92824277D01*
X152052478Y-92879718D01*
X152050633Y-92881378D01*
X152081413Y-92931374D01*
X152080061Y-93001230D01*
X152050796Y-93046767D01*
X152052478Y-93048282D01*
X151921466Y-93193785D01*
X151826821Y-93357715D01*
X151826818Y-93357722D01*
X151781820Y-93496214D01*
X151768326Y-93537744D01*
X151748540Y-93726000D01*
X148946312Y-93726000D01*
X148909179Y-93611716D01*
X148814533Y-93447784D01*
X148687871Y-93307112D01*
X148687870Y-93307111D01*
X148534734Y-93195851D01*
X148534729Y-93195848D01*
X148361807Y-93118857D01*
X148361802Y-93118855D01*
X148216000Y-93087865D01*
X148176646Y-93079500D01*
X147987354Y-93079500D01*
X147954897Y-93086398D01*
X147802197Y-93118855D01*
X147802192Y-93118857D01*
X147629270Y-93195848D01*
X147629265Y-93195851D01*
X147476129Y-93307111D01*
X147349466Y-93447785D01*
X147254821Y-93611715D01*
X147254818Y-93611722D01*
X147210491Y-93748148D01*
X147196326Y-93791744D01*
X147176540Y-93980000D01*
X109982500Y-93980000D01*
X109982500Y-92456000D01*
X112378540Y-92456000D01*
X112398326Y-92644256D01*
X112398327Y-92644259D01*
X112456818Y-92824277D01*
X112456821Y-92824284D01*
X112551467Y-92988216D01*
X112604051Y-93046616D01*
X112678129Y-93128888D01*
X112831265Y-93240148D01*
X112831270Y-93240151D01*
X113004192Y-93317142D01*
X113004197Y-93317144D01*
X113189354Y-93356500D01*
X113189355Y-93356500D01*
X113378644Y-93356500D01*
X113378646Y-93356500D01*
X113563803Y-93317144D01*
X113736730Y-93240151D01*
X113889871Y-93128888D01*
X114016533Y-92988216D01*
X114030514Y-92964000D01*
X131682540Y-92964000D01*
X131702326Y-93152256D01*
X131702327Y-93152258D01*
X131702327Y-93152259D01*
X131760818Y-93332277D01*
X131760821Y-93332284D01*
X131855467Y-93496216D01*
X131982129Y-93636887D01*
X131982129Y-93636888D01*
X132135265Y-93748148D01*
X132135270Y-93748151D01*
X132308192Y-93825142D01*
X132308197Y-93825144D01*
X132493354Y-93864500D01*
X132493355Y-93864500D01*
X132682644Y-93864500D01*
X132682646Y-93864500D01*
X132867803Y-93825144D01*
X133040730Y-93748151D01*
X133193871Y-93636888D01*
X133320533Y-93496216D01*
X133415179Y-93332284D01*
X133473674Y-93152256D01*
X133477076Y-93119879D01*
X133503658Y-93055269D01*
X133560954Y-93015283D01*
X133630773Y-93012621D01*
X133653044Y-93021658D01*
X133653334Y-93021008D01*
X133832192Y-93100642D01*
X133832197Y-93100644D01*
X134017354Y-93140000D01*
X134017355Y-93140000D01*
X134206644Y-93140000D01*
X134206646Y-93140000D01*
X134391803Y-93100644D01*
X134564730Y-93023651D01*
X134717871Y-92912388D01*
X134844533Y-92771716D01*
X134939179Y-92607784D01*
X134997674Y-92427756D01*
X135017460Y-92239500D01*
X134997674Y-92051244D01*
X134939179Y-91871216D01*
X134844533Y-91707284D01*
X134717871Y-91566612D01*
X134702577Y-91555500D01*
X134564734Y-91455351D01*
X134564729Y-91455348D01*
X134391807Y-91378357D01*
X134391802Y-91378355D01*
X134246000Y-91347365D01*
X134206646Y-91339000D01*
X134017354Y-91339000D01*
X133984897Y-91345898D01*
X133832197Y-91378355D01*
X133832192Y-91378357D01*
X133659270Y-91455348D01*
X133659265Y-91455351D01*
X133506129Y-91566611D01*
X133379466Y-91707285D01*
X133284821Y-91871215D01*
X133284818Y-91871222D01*
X133226327Y-92051240D01*
X133226326Y-92051244D01*
X133222923Y-92083619D01*
X133196339Y-92148233D01*
X133139042Y-92188217D01*
X133069223Y-92190877D01*
X133046955Y-92181842D01*
X133046666Y-92182492D01*
X132867807Y-92102857D01*
X132867802Y-92102855D01*
X132722001Y-92071865D01*
X132682646Y-92063500D01*
X132493354Y-92063500D01*
X132460897Y-92070398D01*
X132308197Y-92102855D01*
X132308192Y-92102857D01*
X132135270Y-92179848D01*
X132135265Y-92179851D01*
X131982129Y-92291111D01*
X131855466Y-92431785D01*
X131760821Y-92595715D01*
X131760818Y-92595722D01*
X131702327Y-92775740D01*
X131702326Y-92775744D01*
X131682540Y-92964000D01*
X114030514Y-92964000D01*
X114111179Y-92824284D01*
X114169674Y-92644256D01*
X114189460Y-92456000D01*
X114169674Y-92267744D01*
X114111179Y-92087716D01*
X114016533Y-91923784D01*
X113889871Y-91783112D01*
X113889870Y-91783111D01*
X113736734Y-91671851D01*
X113736729Y-91671848D01*
X113563807Y-91594857D01*
X113563802Y-91594855D01*
X113418000Y-91563865D01*
X113378646Y-91555500D01*
X113189354Y-91555500D01*
X113156897Y-91562398D01*
X113004197Y-91594855D01*
X113004192Y-91594857D01*
X112831270Y-91671848D01*
X112831265Y-91671851D01*
X112678129Y-91783111D01*
X112551466Y-91923785D01*
X112456821Y-92087715D01*
X112456818Y-92087722D01*
X112407503Y-92239500D01*
X112398326Y-92267744D01*
X112378540Y-92456000D01*
X109982500Y-92456000D01*
X109982500Y-90932000D01*
X120506540Y-90932000D01*
X120526326Y-91120256D01*
X120526327Y-91120259D01*
X120584818Y-91300277D01*
X120584821Y-91300284D01*
X120679467Y-91464216D01*
X120737899Y-91529111D01*
X120806129Y-91604888D01*
X120959265Y-91716148D01*
X120959270Y-91716151D01*
X121132192Y-91793142D01*
X121132197Y-91793144D01*
X121317354Y-91832500D01*
X121317355Y-91832500D01*
X121506644Y-91832500D01*
X121506646Y-91832500D01*
X121691803Y-91793144D01*
X121864730Y-91716151D01*
X122017871Y-91604888D01*
X122144533Y-91464216D01*
X122239179Y-91300284D01*
X122297674Y-91120256D01*
X122317460Y-90932000D01*
X122297674Y-90743744D01*
X122276312Y-90678000D01*
X146414540Y-90678000D01*
X146434326Y-90866256D01*
X146434327Y-90866259D01*
X146492818Y-91046277D01*
X146492821Y-91046284D01*
X146587467Y-91210216D01*
X146668559Y-91300277D01*
X146714129Y-91350888D01*
X146867265Y-91462148D01*
X146867270Y-91462151D01*
X147040192Y-91539142D01*
X147040197Y-91539144D01*
X147225354Y-91578500D01*
X147225355Y-91578500D01*
X147414644Y-91578500D01*
X147414646Y-91578500D01*
X147599803Y-91539144D01*
X147772730Y-91462151D01*
X147925871Y-91350888D01*
X148052533Y-91210216D01*
X148147179Y-91046284D01*
X148205674Y-90866256D01*
X148225460Y-90678000D01*
X148205674Y-90489744D01*
X148147179Y-90309716D01*
X148052533Y-90145784D01*
X147925871Y-90005112D01*
X147925870Y-90005111D01*
X147772734Y-89893851D01*
X147772729Y-89893848D01*
X147599807Y-89816857D01*
X147599802Y-89816855D01*
X147454000Y-89785865D01*
X147414646Y-89777500D01*
X147225354Y-89777500D01*
X147192897Y-89784398D01*
X147040197Y-89816855D01*
X147040192Y-89816857D01*
X146867270Y-89893848D01*
X146867265Y-89893851D01*
X146714129Y-90005111D01*
X146587466Y-90145785D01*
X146492821Y-90309715D01*
X146492818Y-90309722D01*
X146434327Y-90489740D01*
X146434326Y-90489744D01*
X146414540Y-90678000D01*
X122276312Y-90678000D01*
X122239179Y-90563716D01*
X122196491Y-90489779D01*
X122180019Y-90421879D01*
X122202872Y-90355853D01*
X122257793Y-90312662D01*
X122278080Y-90306494D01*
X122453803Y-90269144D01*
X122453807Y-90269142D01*
X122453808Y-90269142D01*
X122512058Y-90243206D01*
X122626730Y-90192151D01*
X122779871Y-90080888D01*
X122906533Y-89940216D01*
X123001179Y-89776284D01*
X123016618Y-89728767D01*
X126865302Y-89728767D01*
X126885088Y-89917023D01*
X126885089Y-89917026D01*
X126943580Y-90097044D01*
X126943583Y-90097051D01*
X127038229Y-90260983D01*
X127123651Y-90355853D01*
X127164891Y-90401655D01*
X127318027Y-90512915D01*
X127318032Y-90512918D01*
X127490954Y-90589909D01*
X127490959Y-90589911D01*
X127676116Y-90629267D01*
X127676117Y-90629267D01*
X127865406Y-90629267D01*
X127865408Y-90629267D01*
X128050565Y-90589911D01*
X128223492Y-90512918D01*
X128376633Y-90401655D01*
X128503295Y-90260983D01*
X128597941Y-90097051D01*
X128656436Y-89917023D01*
X128676222Y-89728767D01*
X128656436Y-89540511D01*
X128613380Y-89408000D01*
X154034540Y-89408000D01*
X154054326Y-89596256D01*
X154054327Y-89596259D01*
X154112818Y-89776277D01*
X154112820Y-89776281D01*
X154112821Y-89776284D01*
X154207467Y-89940216D01*
X154325095Y-90070855D01*
X154334129Y-90080888D01*
X154487265Y-90192148D01*
X154487270Y-90192151D01*
X154660192Y-90269142D01*
X154660197Y-90269144D01*
X154845354Y-90308500D01*
X154845355Y-90308500D01*
X155034644Y-90308500D01*
X155034646Y-90308500D01*
X155219803Y-90269144D01*
X155392730Y-90192151D01*
X155545871Y-90080888D01*
X155672533Y-89940216D01*
X155767179Y-89776284D01*
X155825674Y-89596256D01*
X155845460Y-89408000D01*
X155825674Y-89219744D01*
X155767179Y-89039716D01*
X155672533Y-88875784D01*
X155545871Y-88735112D01*
X155545870Y-88735111D01*
X155392734Y-88623851D01*
X155392729Y-88623848D01*
X155219807Y-88546857D01*
X155219802Y-88546855D01*
X155074000Y-88515865D01*
X155034646Y-88507500D01*
X154845354Y-88507500D01*
X154812897Y-88514398D01*
X154660197Y-88546855D01*
X154660192Y-88546857D01*
X154487270Y-88623848D01*
X154487265Y-88623851D01*
X154334129Y-88735111D01*
X154207466Y-88875785D01*
X154112821Y-89039715D01*
X154112818Y-89039722D01*
X154054327Y-89219740D01*
X154054326Y-89219744D01*
X154034540Y-89408000D01*
X128613380Y-89408000D01*
X128597941Y-89360483D01*
X128503295Y-89196551D01*
X128376633Y-89055879D01*
X128354395Y-89039722D01*
X128223496Y-88944618D01*
X128223491Y-88944615D01*
X128050569Y-88867624D01*
X128050564Y-88867622D01*
X127904763Y-88836632D01*
X127865408Y-88828267D01*
X127676116Y-88828267D01*
X127643659Y-88835165D01*
X127490959Y-88867622D01*
X127490954Y-88867624D01*
X127318032Y-88944615D01*
X127318027Y-88944618D01*
X127164891Y-89055878D01*
X127038228Y-89196552D01*
X126943583Y-89360482D01*
X126943580Y-89360489D01*
X126885089Y-89540507D01*
X126885088Y-89540511D01*
X126865302Y-89728767D01*
X123016618Y-89728767D01*
X123059674Y-89596256D01*
X123079460Y-89408000D01*
X123059674Y-89219744D01*
X123001179Y-89039716D01*
X122906533Y-88875784D01*
X122779871Y-88735112D01*
X122779870Y-88735111D01*
X122626734Y-88623851D01*
X122626729Y-88623848D01*
X122453807Y-88546857D01*
X122453802Y-88546855D01*
X122308000Y-88515865D01*
X122268646Y-88507500D01*
X122079354Y-88507500D01*
X122046897Y-88514398D01*
X121894197Y-88546855D01*
X121894192Y-88546857D01*
X121721270Y-88623848D01*
X121721265Y-88623851D01*
X121568129Y-88735111D01*
X121441466Y-88875785D01*
X121346821Y-89039715D01*
X121346818Y-89039722D01*
X121288327Y-89219740D01*
X121288326Y-89219744D01*
X121268540Y-89408000D01*
X121288326Y-89596256D01*
X121288327Y-89596259D01*
X121346818Y-89776277D01*
X121346820Y-89776281D01*
X121346821Y-89776284D01*
X121370246Y-89816857D01*
X121389508Y-89850220D01*
X121405980Y-89918120D01*
X121383127Y-89984147D01*
X121328205Y-90027337D01*
X121307901Y-90033509D01*
X121132197Y-90070855D01*
X121132192Y-90070857D01*
X120959270Y-90147848D01*
X120959265Y-90147851D01*
X120806129Y-90259111D01*
X120679466Y-90399785D01*
X120584821Y-90563715D01*
X120584818Y-90563722D01*
X120526327Y-90743740D01*
X120526326Y-90743744D01*
X120506540Y-90932000D01*
X109982500Y-90932000D01*
X109982500Y-86106000D01*
X110854540Y-86106000D01*
X110874326Y-86294256D01*
X110874327Y-86294259D01*
X110932818Y-86474277D01*
X110932821Y-86474284D01*
X111027467Y-86638216D01*
X111154129Y-86778888D01*
X111307265Y-86890148D01*
X111307270Y-86890151D01*
X111480192Y-86967142D01*
X111480197Y-86967144D01*
X111665354Y-87006500D01*
X111665355Y-87006500D01*
X111854644Y-87006500D01*
X111854646Y-87006500D01*
X112039803Y-86967144D01*
X112212730Y-86890151D01*
X112365871Y-86778888D01*
X112492533Y-86638216D01*
X112541613Y-86553205D01*
X112592179Y-86504991D01*
X112660786Y-86491767D01*
X112725651Y-86517735D01*
X112756385Y-86553203D01*
X112791486Y-86614000D01*
X112805467Y-86638216D01*
X112932129Y-86778888D01*
X113090527Y-86893971D01*
X113088976Y-86896105D01*
X113129098Y-86938199D01*
X113142309Y-87006808D01*
X113116330Y-87071668D01*
X113089634Y-87094800D01*
X113090527Y-87096029D01*
X112932129Y-87211111D01*
X112805466Y-87351785D01*
X112710821Y-87515715D01*
X112710818Y-87515722D01*
X112666491Y-87652148D01*
X112652326Y-87695744D01*
X112632540Y-87884000D01*
X112652326Y-88072256D01*
X112652327Y-88072259D01*
X112710818Y-88252277D01*
X112710821Y-88252284D01*
X112805467Y-88416216D01*
X112886559Y-88506277D01*
X112932129Y-88556888D01*
X113085265Y-88668148D01*
X113085270Y-88668151D01*
X113258192Y-88745142D01*
X113258197Y-88745144D01*
X113443354Y-88784500D01*
X113443355Y-88784500D01*
X113632644Y-88784500D01*
X113632646Y-88784500D01*
X113817803Y-88745144D01*
X113990730Y-88668151D01*
X114143871Y-88556888D01*
X114270533Y-88416216D01*
X114365179Y-88252284D01*
X114402312Y-88138000D01*
X117458540Y-88138000D01*
X117478326Y-88326256D01*
X117478327Y-88326259D01*
X117536818Y-88506277D01*
X117536821Y-88506284D01*
X117631467Y-88670216D01*
X117689899Y-88735111D01*
X117758129Y-88810888D01*
X117911265Y-88922148D01*
X117911270Y-88922151D01*
X118084192Y-88999142D01*
X118084197Y-88999144D01*
X118269354Y-89038500D01*
X118269355Y-89038500D01*
X118458644Y-89038500D01*
X118458646Y-89038500D01*
X118643803Y-88999144D01*
X118816730Y-88922151D01*
X118969871Y-88810888D01*
X119096533Y-88670216D01*
X119191179Y-88506284D01*
X119249674Y-88326256D01*
X119269460Y-88138000D01*
X119249674Y-87949744D01*
X119191179Y-87769716D01*
X119096533Y-87605784D01*
X118969871Y-87465112D01*
X118969870Y-87465111D01*
X118816734Y-87353851D01*
X118816729Y-87353848D01*
X118643807Y-87276857D01*
X118643802Y-87276855D01*
X118498001Y-87245865D01*
X118458646Y-87237500D01*
X118269354Y-87237500D01*
X118236897Y-87244398D01*
X118084197Y-87276855D01*
X118084192Y-87276857D01*
X117911270Y-87353848D01*
X117911265Y-87353851D01*
X117758129Y-87465111D01*
X117631466Y-87605785D01*
X117536821Y-87769715D01*
X117536818Y-87769722D01*
X117492491Y-87906148D01*
X117478326Y-87949744D01*
X117458540Y-88138000D01*
X114402312Y-88138000D01*
X114423674Y-88072256D01*
X114443460Y-87884000D01*
X114423674Y-87695744D01*
X114365179Y-87515716D01*
X114270533Y-87351784D01*
X114143871Y-87211112D01*
X114143870Y-87211111D01*
X113985473Y-87096029D01*
X113987028Y-87093888D01*
X113946921Y-87051840D01*
X113933685Y-86983235D01*
X113959642Y-86918366D01*
X113986370Y-86895205D01*
X113985473Y-86893971D01*
X114111703Y-86802259D01*
X114143871Y-86778888D01*
X114270533Y-86638216D01*
X114284514Y-86614000D01*
X129396540Y-86614000D01*
X129416326Y-86802256D01*
X129416327Y-86802259D01*
X129474818Y-86982277D01*
X129474821Y-86982284D01*
X129569467Y-87146216D01*
X129627899Y-87211111D01*
X129696129Y-87286888D01*
X129849265Y-87398148D01*
X129849270Y-87398151D01*
X130022192Y-87475142D01*
X130022197Y-87475144D01*
X130207354Y-87514500D01*
X130207355Y-87514500D01*
X130396644Y-87514500D01*
X130396646Y-87514500D01*
X130581803Y-87475144D01*
X130754730Y-87398151D01*
X130907871Y-87286888D01*
X131034533Y-87146216D01*
X131129179Y-86982284D01*
X131187674Y-86802256D01*
X131207460Y-86614000D01*
X138286540Y-86614000D01*
X138306326Y-86802256D01*
X138306327Y-86802259D01*
X138364818Y-86982277D01*
X138364821Y-86982284D01*
X138459467Y-87146216D01*
X138517899Y-87211111D01*
X138586129Y-87286888D01*
X138739265Y-87398148D01*
X138739270Y-87398151D01*
X138912192Y-87475142D01*
X138912197Y-87475144D01*
X139097354Y-87514500D01*
X139097355Y-87514500D01*
X139286644Y-87514500D01*
X139286646Y-87514500D01*
X139471803Y-87475144D01*
X139644730Y-87398151D01*
X139797871Y-87286888D01*
X139924533Y-87146216D01*
X139938514Y-87122000D01*
X146414540Y-87122000D01*
X146434326Y-87310256D01*
X146434327Y-87310259D01*
X146492818Y-87490277D01*
X146492821Y-87490284D01*
X146587467Y-87654216D01*
X146714128Y-87794887D01*
X146714129Y-87794888D01*
X146867265Y-87906148D01*
X146867270Y-87906151D01*
X147040192Y-87983142D01*
X147040197Y-87983144D01*
X147225354Y-88022500D01*
X147225355Y-88022500D01*
X147414644Y-88022500D01*
X147414646Y-88022500D01*
X147599803Y-87983144D01*
X147772730Y-87906151D01*
X147925871Y-87794888D01*
X148052533Y-87654216D01*
X148147179Y-87490284D01*
X148205674Y-87310256D01*
X148225460Y-87122000D01*
X148205674Y-86933744D01*
X148184312Y-86868000D01*
X150224540Y-86868000D01*
X150244326Y-87056256D01*
X150244327Y-87056259D01*
X150302818Y-87236277D01*
X150302821Y-87236284D01*
X150397467Y-87400216D01*
X150524128Y-87540887D01*
X150524129Y-87540888D01*
X150677265Y-87652148D01*
X150677270Y-87652151D01*
X150850192Y-87729142D01*
X150850197Y-87729144D01*
X151035354Y-87768500D01*
X151035355Y-87768500D01*
X151224644Y-87768500D01*
X151224646Y-87768500D01*
X151409803Y-87729144D01*
X151582730Y-87652151D01*
X151735871Y-87540888D01*
X151862533Y-87400216D01*
X151957179Y-87236284D01*
X152015674Y-87056256D01*
X152035460Y-86868000D01*
X152015674Y-86679744D01*
X151957179Y-86499716D01*
X151862533Y-86335784D01*
X151735871Y-86195112D01*
X151735870Y-86195111D01*
X151582734Y-86083851D01*
X151582729Y-86083848D01*
X151409807Y-86006857D01*
X151409802Y-86006855D01*
X151264000Y-85975865D01*
X151224646Y-85967500D01*
X151035354Y-85967500D01*
X151002897Y-85974398D01*
X150850197Y-86006855D01*
X150850192Y-86006857D01*
X150677270Y-86083848D01*
X150677265Y-86083851D01*
X150524129Y-86195111D01*
X150397466Y-86335785D01*
X150302821Y-86499715D01*
X150302818Y-86499722D01*
X150257820Y-86638214D01*
X150244326Y-86679744D01*
X150224540Y-86868000D01*
X148184312Y-86868000D01*
X148147179Y-86753716D01*
X148052533Y-86589784D01*
X147925871Y-86449112D01*
X147893708Y-86425744D01*
X147772734Y-86337851D01*
X147772729Y-86337848D01*
X147599807Y-86260857D01*
X147599802Y-86260855D01*
X147454000Y-86229865D01*
X147414646Y-86221500D01*
X147225354Y-86221500D01*
X147192897Y-86228398D01*
X147040197Y-86260855D01*
X147040192Y-86260857D01*
X146867270Y-86337848D01*
X146867265Y-86337851D01*
X146714129Y-86449111D01*
X146587466Y-86589785D01*
X146492821Y-86753715D01*
X146492818Y-86753722D01*
X146434327Y-86933740D01*
X146434326Y-86933744D01*
X146414540Y-87122000D01*
X139938514Y-87122000D01*
X140019179Y-86982284D01*
X140077674Y-86802256D01*
X140097460Y-86614000D01*
X140077674Y-86425744D01*
X140019179Y-86245716D01*
X139924533Y-86081784D01*
X139797871Y-85941112D01*
X139765708Y-85917744D01*
X139644734Y-85829851D01*
X139644729Y-85829848D01*
X139471807Y-85752857D01*
X139471802Y-85752855D01*
X139318313Y-85720231D01*
X139286646Y-85713500D01*
X139097354Y-85713500D01*
X139065687Y-85720231D01*
X138912197Y-85752855D01*
X138912192Y-85752857D01*
X138739270Y-85829848D01*
X138739265Y-85829851D01*
X138586129Y-85941111D01*
X138459466Y-86081785D01*
X138364821Y-86245715D01*
X138364818Y-86245722D01*
X138334884Y-86337851D01*
X138306326Y-86425744D01*
X138286540Y-86614000D01*
X131207460Y-86614000D01*
X131187674Y-86425744D01*
X131129179Y-86245716D01*
X131034533Y-86081784D01*
X130907871Y-85941112D01*
X130875708Y-85917744D01*
X130754734Y-85829851D01*
X130754729Y-85829848D01*
X130581807Y-85752857D01*
X130581802Y-85752855D01*
X130428313Y-85720231D01*
X130396646Y-85713500D01*
X130207354Y-85713500D01*
X130175687Y-85720231D01*
X130022197Y-85752855D01*
X130022192Y-85752857D01*
X129849270Y-85829848D01*
X129849265Y-85829851D01*
X129696129Y-85941111D01*
X129569466Y-86081785D01*
X129474821Y-86245715D01*
X129474818Y-86245722D01*
X129444884Y-86337851D01*
X129416326Y-86425744D01*
X129396540Y-86614000D01*
X114284514Y-86614000D01*
X114365179Y-86474284D01*
X114423674Y-86294256D01*
X114443460Y-86106000D01*
X114423674Y-85917744D01*
X114365179Y-85737716D01*
X114270533Y-85573784D01*
X114143871Y-85433112D01*
X114143870Y-85433111D01*
X113990734Y-85321851D01*
X113990729Y-85321848D01*
X113817807Y-85244857D01*
X113817802Y-85244855D01*
X113672000Y-85213865D01*
X113632646Y-85205500D01*
X113443354Y-85205500D01*
X113410897Y-85212398D01*
X113258197Y-85244855D01*
X113258192Y-85244857D01*
X113085270Y-85321848D01*
X113085265Y-85321851D01*
X112932129Y-85433111D01*
X112805467Y-85573783D01*
X112756386Y-85658794D01*
X112705818Y-85707009D01*
X112637211Y-85720231D01*
X112572347Y-85694263D01*
X112541613Y-85658794D01*
X112492533Y-85573784D01*
X112365871Y-85433112D01*
X112365870Y-85433111D01*
X112212734Y-85321851D01*
X112212729Y-85321848D01*
X112039807Y-85244857D01*
X112039802Y-85244855D01*
X111894001Y-85213865D01*
X111854646Y-85205500D01*
X111665354Y-85205500D01*
X111632897Y-85212398D01*
X111480197Y-85244855D01*
X111480192Y-85244857D01*
X111307270Y-85321848D01*
X111307265Y-85321851D01*
X111154129Y-85433111D01*
X111027466Y-85573785D01*
X110932821Y-85737715D01*
X110932818Y-85737722D01*
X110902884Y-85829851D01*
X110874326Y-85917744D01*
X110854540Y-86106000D01*
X109982500Y-86106000D01*
X109982500Y-84074000D01*
X125332540Y-84074000D01*
X125352326Y-84262256D01*
X125352327Y-84262259D01*
X125410818Y-84442277D01*
X125410821Y-84442284D01*
X125505467Y-84606216D01*
X125595380Y-84706074D01*
X125632129Y-84746888D01*
X125785265Y-84858148D01*
X125785270Y-84858151D01*
X125958192Y-84935142D01*
X125958197Y-84935144D01*
X126143354Y-84974500D01*
X126143355Y-84974500D01*
X126332644Y-84974500D01*
X126332646Y-84974500D01*
X126496994Y-84939567D01*
X126566661Y-84944883D01*
X126622395Y-84987020D01*
X126646500Y-85052600D01*
X126640706Y-85099174D01*
X126622327Y-85155739D01*
X126622327Y-85155740D01*
X126622326Y-85155744D01*
X126602540Y-85344000D01*
X126622326Y-85532256D01*
X126622327Y-85532259D01*
X126680818Y-85712277D01*
X126680821Y-85712284D01*
X126775467Y-85876216D01*
X126857660Y-85967500D01*
X126902129Y-86016888D01*
X127055265Y-86128148D01*
X127055270Y-86128151D01*
X127228192Y-86205142D01*
X127228197Y-86205144D01*
X127413354Y-86244500D01*
X127413355Y-86244500D01*
X127602644Y-86244500D01*
X127602646Y-86244500D01*
X127787803Y-86205144D01*
X127960730Y-86128151D01*
X128113871Y-86016888D01*
X128240533Y-85876216D01*
X128335179Y-85712284D01*
X128393674Y-85532256D01*
X128413460Y-85344000D01*
X128393674Y-85155744D01*
X128335179Y-84975716D01*
X128258409Y-84842747D01*
X128241937Y-84774849D01*
X128264790Y-84708822D01*
X128315361Y-84667470D01*
X128356881Y-84648983D01*
X128477682Y-84595199D01*
X128630823Y-84483936D01*
X128757485Y-84343264D01*
X128852131Y-84179332D01*
X128910626Y-83999304D01*
X128930412Y-83811048D01*
X128910626Y-83622792D01*
X128852131Y-83442764D01*
X128757485Y-83278832D01*
X128630823Y-83138160D01*
X128630822Y-83138159D01*
X128520493Y-83058000D01*
X130412540Y-83058000D01*
X130432326Y-83246256D01*
X130432327Y-83246259D01*
X130490818Y-83426277D01*
X130490821Y-83426284D01*
X130585467Y-83590216D01*
X130712128Y-83730888D01*
X130712129Y-83730888D01*
X130865265Y-83842148D01*
X130865270Y-83842151D01*
X131038192Y-83919142D01*
X131038197Y-83919144D01*
X131223354Y-83958500D01*
X131223355Y-83958500D01*
X131412644Y-83958500D01*
X131412646Y-83958500D01*
X131597803Y-83919144D01*
X131770730Y-83842151D01*
X131923871Y-83730888D01*
X132050533Y-83590216D01*
X132145179Y-83426284D01*
X132203674Y-83246256D01*
X132223460Y-83058000D01*
X132203674Y-82869744D01*
X132145179Y-82689716D01*
X132050533Y-82525784D01*
X131923871Y-82385112D01*
X131923870Y-82385111D01*
X131770734Y-82273851D01*
X131770729Y-82273848D01*
X131597807Y-82196857D01*
X131597802Y-82196855D01*
X131452000Y-82165865D01*
X131412646Y-82157500D01*
X131223354Y-82157500D01*
X131190897Y-82164398D01*
X131038197Y-82196855D01*
X131038192Y-82196857D01*
X130865270Y-82273848D01*
X130865265Y-82273851D01*
X130712129Y-82385111D01*
X130585466Y-82525785D01*
X130490821Y-82689715D01*
X130490818Y-82689722D01*
X130432327Y-82869740D01*
X130432326Y-82869744D01*
X130412540Y-83058000D01*
X128520493Y-83058000D01*
X128477686Y-83026899D01*
X128477681Y-83026896D01*
X128304759Y-82949905D01*
X128304754Y-82949903D01*
X128158953Y-82918913D01*
X128119598Y-82910548D01*
X127930306Y-82910548D01*
X127897849Y-82917446D01*
X127745149Y-82949903D01*
X127745144Y-82949905D01*
X127572222Y-83026896D01*
X127572217Y-83026899D01*
X127419081Y-83138159D01*
X127292418Y-83278833D01*
X127197773Y-83442763D01*
X127197771Y-83442767D01*
X127180242Y-83496718D01*
X127140804Y-83554393D01*
X127076445Y-83581591D01*
X127007599Y-83569676D01*
X126970161Y-83541371D01*
X126843870Y-83401111D01*
X126690734Y-83289851D01*
X126690729Y-83289848D01*
X126517807Y-83212857D01*
X126517802Y-83212855D01*
X126372000Y-83181865D01*
X126332646Y-83173500D01*
X126143354Y-83173500D01*
X126110897Y-83180398D01*
X125958197Y-83212855D01*
X125958192Y-83212857D01*
X125785270Y-83289848D01*
X125785265Y-83289851D01*
X125632129Y-83401111D01*
X125505466Y-83541785D01*
X125410821Y-83705715D01*
X125410818Y-83705722D01*
X125376596Y-83811048D01*
X125352326Y-83885744D01*
X125332540Y-84074000D01*
X109982500Y-84074000D01*
X109982500Y-83058000D01*
X120252540Y-83058000D01*
X120272326Y-83246256D01*
X120272327Y-83246259D01*
X120330818Y-83426277D01*
X120330821Y-83426284D01*
X120425467Y-83590216D01*
X120552128Y-83730888D01*
X120552129Y-83730888D01*
X120705265Y-83842148D01*
X120705270Y-83842151D01*
X120878192Y-83919142D01*
X120878197Y-83919144D01*
X121063354Y-83958500D01*
X121063355Y-83958500D01*
X121252644Y-83958500D01*
X121252646Y-83958500D01*
X121437803Y-83919144D01*
X121610730Y-83842151D01*
X121763871Y-83730888D01*
X121890533Y-83590216D01*
X121985179Y-83426284D01*
X122043674Y-83246256D01*
X122063460Y-83058000D01*
X122043674Y-82869744D01*
X121985179Y-82689716D01*
X121890533Y-82525784D01*
X121763871Y-82385112D01*
X121763870Y-82385111D01*
X121610734Y-82273851D01*
X121610729Y-82273848D01*
X121437807Y-82196857D01*
X121437802Y-82196855D01*
X121292000Y-82165865D01*
X121252646Y-82157500D01*
X121063354Y-82157500D01*
X121030897Y-82164398D01*
X120878197Y-82196855D01*
X120878192Y-82196857D01*
X120705270Y-82273848D01*
X120705265Y-82273851D01*
X120552129Y-82385111D01*
X120425466Y-82525785D01*
X120330821Y-82689715D01*
X120330818Y-82689722D01*
X120272327Y-82869740D01*
X120272326Y-82869744D01*
X120252540Y-83058000D01*
X109982500Y-83058000D01*
X109982500Y-81534000D01*
X118474540Y-81534000D01*
X118494326Y-81722256D01*
X118494327Y-81722259D01*
X118552818Y-81902277D01*
X118552821Y-81902284D01*
X118647467Y-82066216D01*
X118729660Y-82157500D01*
X118774129Y-82206888D01*
X118927265Y-82318148D01*
X118927270Y-82318151D01*
X119100192Y-82395142D01*
X119100197Y-82395144D01*
X119285354Y-82434500D01*
X119285355Y-82434500D01*
X119474644Y-82434500D01*
X119474646Y-82434500D01*
X119659803Y-82395144D01*
X119832730Y-82318151D01*
X119985871Y-82206888D01*
X120112533Y-82066216D01*
X120207179Y-81902284D01*
X120265674Y-81722256D01*
X120285460Y-81534000D01*
X120265674Y-81345744D01*
X120207179Y-81165716D01*
X120112533Y-81001784D01*
X119985871Y-80861112D01*
X119985870Y-80861111D01*
X119832734Y-80749851D01*
X119832729Y-80749848D01*
X119659807Y-80672857D01*
X119659802Y-80672855D01*
X119514001Y-80641865D01*
X119474646Y-80633500D01*
X119285354Y-80633500D01*
X119252897Y-80640398D01*
X119100197Y-80672855D01*
X119100192Y-80672857D01*
X118927270Y-80749848D01*
X118927265Y-80749851D01*
X118774129Y-80861111D01*
X118647466Y-81001785D01*
X118552821Y-81165715D01*
X118552818Y-81165722D01*
X118494327Y-81345740D01*
X118494326Y-81345744D01*
X118474540Y-81534000D01*
X109982500Y-81534000D01*
X109982500Y-80010000D01*
X116696540Y-80010000D01*
X116716326Y-80198256D01*
X116716327Y-80198259D01*
X116774818Y-80378277D01*
X116774821Y-80378284D01*
X116869467Y-80542216D01*
X116951660Y-80633500D01*
X116996129Y-80682888D01*
X117149265Y-80794148D01*
X117149270Y-80794151D01*
X117322192Y-80871142D01*
X117322197Y-80871144D01*
X117507354Y-80910500D01*
X117507355Y-80910500D01*
X117696644Y-80910500D01*
X117696646Y-80910500D01*
X117881803Y-80871144D01*
X118054730Y-80794151D01*
X118207871Y-80682888D01*
X118334533Y-80542216D01*
X118429179Y-80378284D01*
X118487674Y-80198256D01*
X118507460Y-80010000D01*
X118487674Y-79821744D01*
X118429179Y-79641716D01*
X118334533Y-79477784D01*
X118207871Y-79337112D01*
X118207870Y-79337111D01*
X118054734Y-79225851D01*
X118054729Y-79225848D01*
X117881807Y-79148857D01*
X117881802Y-79148855D01*
X117727457Y-79116049D01*
X117696646Y-79109500D01*
X117507354Y-79109500D01*
X117476543Y-79116049D01*
X117322197Y-79148855D01*
X117322192Y-79148857D01*
X117149270Y-79225848D01*
X117149265Y-79225851D01*
X116996129Y-79337111D01*
X116869466Y-79477785D01*
X116774821Y-79641715D01*
X116774818Y-79641722D01*
X116716327Y-79821740D01*
X116716326Y-79821744D01*
X116696540Y-80010000D01*
X109982500Y-80010000D01*
X109982500Y-75870001D01*
X113972318Y-75870001D01*
X113992955Y-76026760D01*
X113992956Y-76026762D01*
X114053464Y-76172841D01*
X114149718Y-76298282D01*
X114275159Y-76394536D01*
X114421238Y-76455044D01*
X114538639Y-76470500D01*
X114538646Y-76470500D01*
X114617354Y-76470500D01*
X114617361Y-76470500D01*
X114734762Y-76455044D01*
X114880841Y-76394536D01*
X115006282Y-76298282D01*
X115102536Y-76172841D01*
X115163044Y-76026762D01*
X115183682Y-75870001D01*
X116972318Y-75870001D01*
X116992955Y-76026760D01*
X116992956Y-76026762D01*
X117053464Y-76172841D01*
X117149718Y-76298282D01*
X117275159Y-76394536D01*
X117421238Y-76455044D01*
X117538639Y-76470500D01*
X117538646Y-76470500D01*
X117617354Y-76470500D01*
X117617361Y-76470500D01*
X117734762Y-76455044D01*
X117820670Y-76419459D01*
X117890136Y-76411991D01*
X117952615Y-76443266D01*
X117986051Y-76495702D01*
X117990949Y-76510778D01*
X117990951Y-76510782D01*
X118085597Y-76674714D01*
X118160456Y-76757853D01*
X118212259Y-76815386D01*
X118365395Y-76926646D01*
X118365400Y-76926649D01*
X118538322Y-77003640D01*
X118538327Y-77003642D01*
X118723484Y-77042998D01*
X118723485Y-77042998D01*
X118912774Y-77042998D01*
X118912776Y-77042998D01*
X119097933Y-77003642D01*
X119270860Y-76926649D01*
X119424001Y-76815386D01*
X119550663Y-76674714D01*
X119645309Y-76510782D01*
X119703804Y-76330754D01*
X119723590Y-76142498D01*
X119703804Y-75954242D01*
X119645309Y-75774214D01*
X119550663Y-75610282D01*
X119424001Y-75469610D01*
X119424000Y-75469609D01*
X119270864Y-75358349D01*
X119270859Y-75358346D01*
X119097937Y-75281355D01*
X119097932Y-75281353D01*
X118952131Y-75250363D01*
X118912776Y-75241998D01*
X118723484Y-75241998D01*
X118691027Y-75248896D01*
X118538327Y-75281353D01*
X118538322Y-75281355D01*
X118365400Y-75358346D01*
X118365395Y-75358349D01*
X118212261Y-75469608D01*
X118207430Y-75473958D01*
X118206605Y-75473042D01*
X118152861Y-75506140D01*
X118083004Y-75504796D01*
X118024963Y-75465899D01*
X118021865Y-75462027D01*
X118006282Y-75441718D01*
X117880841Y-75345464D01*
X117734762Y-75284956D01*
X117734760Y-75284955D01*
X117617370Y-75269501D01*
X117617367Y-75269500D01*
X117617361Y-75269500D01*
X117538639Y-75269500D01*
X117538633Y-75269500D01*
X117538629Y-75269501D01*
X117421239Y-75284955D01*
X117421237Y-75284956D01*
X117275160Y-75345463D01*
X117149718Y-75441718D01*
X117053463Y-75567160D01*
X116992956Y-75713237D01*
X116992955Y-75713239D01*
X116972318Y-75869998D01*
X116972318Y-75870001D01*
X115183682Y-75870001D01*
X115183682Y-75870000D01*
X115182839Y-75863599D01*
X115163044Y-75713239D01*
X115163044Y-75713238D01*
X115102536Y-75567159D01*
X115006282Y-75441718D01*
X114880841Y-75345464D01*
X114734762Y-75284956D01*
X114734760Y-75284955D01*
X114617370Y-75269501D01*
X114617367Y-75269500D01*
X114617361Y-75269500D01*
X114538639Y-75269500D01*
X114538633Y-75269500D01*
X114538629Y-75269501D01*
X114421239Y-75284955D01*
X114421237Y-75284956D01*
X114275160Y-75345463D01*
X114149718Y-75441718D01*
X114053463Y-75567160D01*
X113992956Y-75713237D01*
X113992955Y-75713239D01*
X113972318Y-75869998D01*
X113972318Y-75870001D01*
X109982500Y-75870001D01*
X109982500Y-74038500D01*
X110002185Y-73971461D01*
X110054989Y-73925706D01*
X110106500Y-73914500D01*
X123761383Y-73914500D01*
X123828422Y-73934185D01*
G37*
%TD.AperFunction*%
%TD*%
M02*
