M48
; DRILL file {KiCad 7.0.7} date Mon Mar 18 15:08:13 2024
; FORMAT={-:-/ absolute / inch / decimal}
; #@! TF.CreationDate,2024-03-18T15:08:13-05:00
; #@! TF.GenerationSoftware,Kicad,Pcbnew,7.0.7
; #@! TF.FileFunction,Plated,1,4,PTH
FMAT,2
INCH
; #@! TA.AperFunction,Plated,PTH,ViaDrill
T1C0.0157
; #@! TA.AperFunction,Plated,PTH,ComponentDrill
T2C0.0236
; #@! TA.AperFunction,Plated,PTH,ComponentDrill
T3C0.0394
; #@! TA.AperFunction,Plated,PTH,ComponentDrill
T4C0.0433
%
G90
G05
T1
X4.4Y-3.39
X4.44Y-3.11
X4.46Y-3.64
X4.47Y-3.39
X4.47Y-3.46
X4.56Y-3.75
X4.59Y-4.61
X4.6104Y-4.2696
X4.63Y-3.15
X4.64Y-4.16
X4.6752Y-4.6063
X4.6779Y-2.9977
X4.69Y-3.75
X4.7Y-3.21
X4.7Y-4.04
X4.74Y-2.99
X4.75Y-3.75
X4.75Y-3.79
X4.75Y-3.95
X4.76Y-4.04
X4.77Y-3.27
X4.81Y-3.52
X4.85Y-4.59
X4.8597Y-3.1503
X4.88Y-3.38
X4.88Y-4.51
X4.8973Y-4.3542
X4.9098Y-3.7002
X4.91Y-2.93
X4.91Y-4.17
X4.91Y-4.21
X4.9102Y-4.1302
X4.92Y-4.07
X4.93Y-3.01
X4.95Y-2.94
X4.96Y-4.59
X4.97Y-3.31
X5.0Y-3.97
X5.02Y-3.36
X5.0303Y-3.5326
X5.0404Y-3.2996
X5.06Y-4.59
X5.13Y-3.37
X5.15Y-4.4
X5.16Y-4.59
X5.17Y-3.27
X5.21Y-4.46
X5.26Y-4.52
X5.26Y-4.59
X5.304Y-4.764
X5.31Y-4.4
X5.352Y-4.496
X5.3819Y-4.5315
X5.39Y-4.44
X5.428Y-4.522
X5.48Y-3.33
X5.48Y-3.41
X5.5Y-4.4
X5.53Y-4.47
X5.574Y-3.346
X5.612Y-4.524
X5.6201Y-3.937
X5.6299Y-4.1339
X5.64Y-4.73
X5.65Y-4.36
X5.656Y-4.67
X5.6654Y-4.5236
X5.67Y-4.46
X5.756Y-4.144
X5.7677Y-4.1043
X5.77Y-3.75
X5.77Y-3.89
X5.7776Y-3.9469
X5.8Y-3.43
X5.8Y-3.57
X5.8Y-4.34
X5.81Y-3.53
X5.83Y-3.7
X5.87Y-4.34
X5.9055Y-3.937
X5.95Y-3.42
X5.96Y-3.9
X6.01Y-3.63
X6.01Y-3.69
X6.02Y-3.84
X6.02Y-3.93
X6.02Y-4.43
X6.056Y-3.626
X6.11Y-4.15
X6.14Y-3.396
X6.14Y-3.7
X6.2Y-3.66
X6.23Y-3.93
X6.23Y-4.42
X6.26Y-3.88
T3
X4.42Y-4.0318
X4.42Y-4.1318
X5.578Y-3.304
X5.678Y-3.304
X5.778Y-3.304
X6.1713Y-4.6746
X6.1713Y-4.7746
X6.1811Y-3.0211
X6.1811Y-3.1211
X6.204Y-3.4422
X6.204Y-3.5422
T4
X4.435Y-4.685
X4.535Y-4.685
X4.635Y-4.685
X4.735Y-4.685
X4.9083Y-4.685
X4.9642Y-3.0906
X5.0083Y-4.685
X5.0642Y-3.0906
X5.1083Y-4.685
X5.1642Y-3.0906
X5.2083Y-4.685
X5.2642Y-3.0906
X5.3642Y-3.0906
X5.4642Y-3.0906
X5.5642Y-3.0906
X5.6642Y-3.0906
X5.8161Y-4.685
X5.9047Y-3.0906
X5.9161Y-4.685
X6.0047Y-3.0906
T2
G00X5.3499Y-4.5775
M15
G01X5.3499Y-4.6208
M16
G05
G00X5.3499Y-4.748
M15
G01X5.3499Y-4.7795
M16
G05
G00X5.6901Y-4.5775
M15
G01X5.6901Y-4.6208
M16
G05
G00X5.6901Y-4.748
M15
G01X5.6901Y-4.7795
M16
G05
T0
M30
