%TF.GenerationSoftware,KiCad,Pcbnew,7.0.7*%
%TF.CreationDate,2024-03-10T16:18:29-05:00*%
%TF.ProjectId,rev2,72657632-2e6b-4696-9361-645f70636258,rev?*%
%TF.SameCoordinates,Original*%
%TF.FileFunction,Legend,Bot*%
%TF.FilePolarity,Positive*%
%FSLAX46Y46*%
G04 Gerber Fmt 4.6, Leading zero omitted, Abs format (unit mm)*
G04 Created by KiCad (PCBNEW 7.0.7) date 2024-03-10 16:18:29*
%MOMM*%
%LPD*%
G01*
G04 APERTURE LIST*
%ADD10C,0.150000*%
%ADD11C,0.120000*%
G04 APERTURE END LIST*
D10*
X117411332Y-79807200D02*
X117268475Y-79854819D01*
X117268475Y-79854819D02*
X117030380Y-79854819D01*
X117030380Y-79854819D02*
X116935142Y-79807200D01*
X116935142Y-79807200D02*
X116887523Y-79759580D01*
X116887523Y-79759580D02*
X116839904Y-79664342D01*
X116839904Y-79664342D02*
X116839904Y-79569104D01*
X116839904Y-79569104D02*
X116887523Y-79473866D01*
X116887523Y-79473866D02*
X116935142Y-79426247D01*
X116935142Y-79426247D02*
X117030380Y-79378628D01*
X117030380Y-79378628D02*
X117220856Y-79331009D01*
X117220856Y-79331009D02*
X117316094Y-79283390D01*
X117316094Y-79283390D02*
X117363713Y-79235771D01*
X117363713Y-79235771D02*
X117411332Y-79140533D01*
X117411332Y-79140533D02*
X117411332Y-79045295D01*
X117411332Y-79045295D02*
X117363713Y-78950057D01*
X117363713Y-78950057D02*
X117316094Y-78902438D01*
X117316094Y-78902438D02*
X117220856Y-78854819D01*
X117220856Y-78854819D02*
X116982761Y-78854819D01*
X116982761Y-78854819D02*
X116839904Y-78902438D01*
X116506570Y-78854819D02*
X116268475Y-79854819D01*
X116268475Y-79854819D02*
X116077999Y-79140533D01*
X116077999Y-79140533D02*
X115887523Y-79854819D01*
X115887523Y-79854819D02*
X115649428Y-78854819D01*
X115316094Y-78950057D02*
X115268475Y-78902438D01*
X115268475Y-78902438D02*
X115173237Y-78854819D01*
X115173237Y-78854819D02*
X114935142Y-78854819D01*
X114935142Y-78854819D02*
X114839904Y-78902438D01*
X114839904Y-78902438D02*
X114792285Y-78950057D01*
X114792285Y-78950057D02*
X114744666Y-79045295D01*
X114744666Y-79045295D02*
X114744666Y-79140533D01*
X114744666Y-79140533D02*
X114792285Y-79283390D01*
X114792285Y-79283390D02*
X115363713Y-79854819D01*
X115363713Y-79854819D02*
X114744666Y-79854819D01*
D11*
%TO.C,J2*%
X148180000Y-75100000D02*
X148680000Y-75100000D01*
X148180000Y-75840000D02*
X148180000Y-75100000D01*
X148420000Y-75340000D02*
X149190000Y-75340000D01*
X148420000Y-75900000D02*
X149190000Y-75900000D01*
X148420000Y-81200000D02*
X154080000Y-81200000D01*
X148420000Y-81660000D02*
X148420000Y-75340000D01*
X148420000Y-81660000D02*
X154080000Y-81660000D01*
X150770000Y-75340000D02*
X151730000Y-75340000D01*
X150770000Y-75900000D02*
X151730000Y-75900000D01*
X153310000Y-75340000D02*
X154080000Y-75340000D01*
X153310000Y-75900000D02*
X154080000Y-75900000D01*
X154080000Y-81660000D02*
X154080000Y-75340000D01*
%TO.C,SW1*%
X119054000Y-90098000D02*
X119054000Y-90068000D01*
X119054000Y-90098000D02*
X112594000Y-90098000D01*
X119054000Y-85568000D02*
X119054000Y-88168000D01*
X119054000Y-83668000D02*
X119054000Y-83638000D01*
X119054000Y-83638000D02*
X112594000Y-83638000D01*
X112594000Y-90098000D02*
X112594000Y-90068000D01*
X112594000Y-85568000D02*
X112594000Y-88168000D01*
X112594000Y-83638000D02*
X112594000Y-83668000D01*
%TO.C,J3*%
X155420000Y-117405000D02*
X158080000Y-117405000D01*
X155420000Y-120005000D02*
X155420000Y-117405000D01*
X155420000Y-120005000D02*
X158080000Y-120005000D01*
X155420000Y-121275000D02*
X155420000Y-122605000D01*
X155420000Y-122605000D02*
X156750000Y-122605000D01*
X158080000Y-120005000D02*
X158080000Y-117405000D01*
%TO.C,J6*%
X122069000Y-122399000D02*
X121569000Y-122399000D01*
X122069000Y-121659000D02*
X122069000Y-122399000D01*
X121829000Y-122159000D02*
X111089000Y-122159000D01*
X121829000Y-121599000D02*
X111089000Y-121599000D01*
X121829000Y-116299000D02*
X111089000Y-116299000D01*
X121829000Y-115839000D02*
X121829000Y-122159000D01*
X121829000Y-115839000D02*
X111089000Y-115839000D01*
X111089000Y-115839000D02*
X111089000Y-122159000D01*
%TO.C,J4*%
X152070000Y-122400000D02*
X151570000Y-122400000D01*
X152070000Y-121660000D02*
X152070000Y-122400000D01*
X151830000Y-122160000D02*
X151060000Y-122160000D01*
X151830000Y-121600000D02*
X151060000Y-121600000D01*
X151830000Y-116300000D02*
X146170000Y-116300000D01*
X151830000Y-115840000D02*
X151830000Y-122160000D01*
X151830000Y-115840000D02*
X146170000Y-115840000D01*
X149480000Y-122160000D02*
X148520000Y-122160000D01*
X149480000Y-121600000D02*
X148520000Y-121600000D01*
X146940000Y-122160000D02*
X146170000Y-122160000D01*
X146940000Y-121600000D02*
X146170000Y-121600000D01*
X146170000Y-115840000D02*
X146170000Y-122160000D01*
%TO.C,J5*%
X116900000Y-113471000D02*
X111700000Y-113471000D01*
X116900000Y-103251000D02*
X116900000Y-113471000D01*
X116900000Y-103251000D02*
X114300000Y-103251000D01*
X116900000Y-101981000D02*
X116900000Y-100651000D01*
X116900000Y-100651000D02*
X115570000Y-100651000D01*
X114300000Y-103251000D02*
X114300000Y-100651000D01*
X114300000Y-100651000D02*
X111700000Y-100651000D01*
X111700000Y-100651000D02*
X111700000Y-113471000D01*
%TO.C,J1*%
X155670000Y-75405000D02*
X158330000Y-75405000D01*
X155670000Y-78005000D02*
X155670000Y-75405000D01*
X155670000Y-78005000D02*
X158330000Y-78005000D01*
X155670000Y-79275000D02*
X155670000Y-80605000D01*
X155670000Y-80605000D02*
X157000000Y-80605000D01*
X158330000Y-78005000D02*
X158330000Y-75405000D01*
%TO.C,J10*%
X124290000Y-75100000D02*
X124790000Y-75100000D01*
X124290000Y-75840000D02*
X124290000Y-75100000D01*
X124530000Y-75340000D02*
X145431000Y-75340000D01*
X124530000Y-75900000D02*
X145431000Y-75900000D01*
X124530000Y-81200000D02*
X145431000Y-81200000D01*
X124530000Y-81660000D02*
X124530000Y-75340000D01*
X124530000Y-81660000D02*
X145431000Y-81660000D01*
X145431000Y-81660000D02*
X145431000Y-75340000D01*
%TO.C,J7*%
X134090000Y-122400000D02*
X133590000Y-122400000D01*
X134090000Y-121660000D02*
X134090000Y-122400000D01*
X133850000Y-122160000D02*
X123110000Y-122160000D01*
X133850000Y-121600000D02*
X123110000Y-121600000D01*
X133850000Y-116300000D02*
X123110000Y-116300000D01*
X133850000Y-115840000D02*
X133850000Y-122160000D01*
X133850000Y-115840000D02*
X123110000Y-115840000D01*
X123110000Y-115840000D02*
X123110000Y-122160000D01*
%TO.C,SW2*%
X112628000Y-76270000D02*
X112628000Y-75480000D01*
X113228000Y-74470000D02*
X118928000Y-74470000D01*
X114478000Y-77320000D02*
X116178000Y-77320000D01*
X117478000Y-77320000D02*
X117678000Y-77320000D01*
X119528000Y-75480000D02*
X119528000Y-76270000D01*
%TD*%
M02*
