%TF.GenerationSoftware,KiCad,Pcbnew,7.0.7*%
%TF.CreationDate,2024-03-10T16:18:29-05:00*%
%TF.ProjectId,rev2,72657632-2e6b-4696-9361-645f70636258,rev?*%
%TF.SameCoordinates,Original*%
%TF.FileFunction,Soldermask,Bot*%
%TF.FilePolarity,Negative*%
%FSLAX46Y46*%
G04 Gerber Fmt 4.6, Leading zero omitted, Abs format (unit mm)*
G04 Created by KiCad (PCBNEW 7.0.7) date 2024-03-10 16:18:29*
%MOMM*%
%LPD*%
G01*
G04 APERTURE LIST*
%ADD10C,0.900000*%
%ADD11C,0.650000*%
%ADD12O,1.000000X2.100000*%
%ADD13O,1.000000X1.800000*%
%ADD14C,1.100000*%
%ADD15R,2.200000X2.200000*%
%ADD16C,2.200000*%
%ADD17R,1.550000X1.300000*%
%ADD18R,1.700000X1.700000*%
%ADD19O,1.700000X1.700000*%
%ADD20R,1.000000X0.800000*%
%ADD21R,0.700000X1.500000*%
G04 APERTURE END LIST*
D10*
%TO.C,J8*%
X155439000Y-108372000D03*
X155439000Y-103972000D03*
%TD*%
D11*
%TO.C,J9*%
X137318000Y-117319000D03*
X143098000Y-117319000D03*
D12*
X135888000Y-116819000D03*
D13*
X135888000Y-120999000D03*
D12*
X144528000Y-116819000D03*
D13*
X144528000Y-120999000D03*
%TD*%
D14*
%TO.C,J2*%
X149980000Y-75960000D03*
X152520000Y-75960000D03*
D15*
X149980000Y-78500000D03*
D16*
X152520000Y-78500000D03*
%TD*%
D17*
%TO.C,SW1*%
X119804000Y-84618000D03*
X111844000Y-84618000D03*
X119804000Y-89118000D03*
X111844000Y-89118000D03*
%TD*%
D18*
%TO.C,J3*%
X156750000Y-121275000D03*
D19*
X156750000Y-118735000D03*
%TD*%
D15*
%TO.C,J6*%
X120269000Y-118999000D03*
D16*
X117729000Y-118999000D03*
X115189000Y-118999000D03*
X112649000Y-118999000D03*
%TD*%
D14*
%TO.C,J4*%
X150270000Y-121540000D03*
X147730000Y-121540000D03*
D15*
X150270000Y-119000000D03*
D16*
X147730000Y-119000000D03*
%TD*%
D18*
%TO.C,J5*%
X115570000Y-101981000D03*
D19*
X113030000Y-101981000D03*
X115570000Y-104521000D03*
X113030000Y-104521000D03*
X115570000Y-107061000D03*
X113030000Y-107061000D03*
X115570000Y-109601000D03*
X113030000Y-109601000D03*
X115570000Y-112141000D03*
X113030000Y-112141000D03*
%TD*%
D18*
%TO.C,J1*%
X157000000Y-79275000D03*
D19*
X157000000Y-76735000D03*
%TD*%
D15*
%TO.C,J10*%
X126090000Y-78500000D03*
D16*
X128630000Y-78500000D03*
X131170000Y-78500000D03*
X133710000Y-78500000D03*
X136250000Y-78500000D03*
X138790000Y-78500000D03*
X141330000Y-78500000D03*
X143870000Y-78500000D03*
%TD*%
D15*
%TO.C,J7*%
X132290000Y-119000000D03*
D16*
X129750000Y-119000000D03*
X127210000Y-119000000D03*
X124670000Y-119000000D03*
%TD*%
D20*
%TO.C,SW2*%
X112428000Y-74770000D03*
X112428000Y-76980000D03*
D10*
X114578000Y-75870000D03*
X117578000Y-75870000D03*
D20*
X119728000Y-74770000D03*
X119728000Y-76980000D03*
D21*
X113828000Y-77630000D03*
X116828000Y-77630000D03*
X118328000Y-77630000D03*
%TD*%
M02*
