%TF.GenerationSoftware,KiCad,Pcbnew,7.0.7*%
%TF.CreationDate,2024-03-10T16:18:29-05:00*%
%TF.ProjectId,rev2,72657632-2e6b-4696-9361-645f70636258,rev?*%
%TF.SameCoordinates,Original*%
%TF.FileFunction,Copper,L3,Inr*%
%TF.FilePolarity,Positive*%
%FSLAX46Y46*%
G04 Gerber Fmt 4.6, Leading zero omitted, Abs format (unit mm)*
G04 Created by KiCad (PCBNEW 7.0.7) date 2024-03-10 16:18:29*
%MOMM*%
%LPD*%
G01*
G04 APERTURE LIST*
%TA.AperFunction,ComponentPad*%
%ADD10O,1.000000X2.100000*%
%TD*%
%TA.AperFunction,ComponentPad*%
%ADD11O,1.000000X1.800000*%
%TD*%
%TA.AperFunction,ComponentPad*%
%ADD12R,2.200000X2.200000*%
%TD*%
%TA.AperFunction,ComponentPad*%
%ADD13C,2.200000*%
%TD*%
%TA.AperFunction,ComponentPad*%
%ADD14R,1.700000X1.700000*%
%TD*%
%TA.AperFunction,ComponentPad*%
%ADD15O,1.700000X1.700000*%
%TD*%
%TA.AperFunction,ViaPad*%
%ADD16C,0.800000*%
%TD*%
G04 APERTURE END LIST*
D10*
%TO.N,GND*%
%TO.C,J9*%
X135888000Y-116819000D03*
D11*
X135888000Y-120999000D03*
D10*
X144528000Y-116819000D03*
D11*
X144528000Y-120999000D03*
%TD*%
D12*
%TO.N,/CAN1+*%
%TO.C,J2*%
X149980000Y-78500000D03*
D13*
%TO.N,/CAN1-*%
X152520000Y-78500000D03*
%TD*%
D14*
%TO.N,/CAN2-*%
%TO.C,J3*%
X156750000Y-121275000D03*
D15*
%TO.N,/CAN2+*%
X156750000Y-118735000D03*
%TD*%
D12*
%TO.N,linpot4*%
%TO.C,J6*%
X120269000Y-118999000D03*
D13*
%TO.N,linpot3*%
X117729000Y-118999000D03*
%TO.N,linpot2*%
X115189000Y-118999000D03*
%TO.N,linpot1*%
X112649000Y-118999000D03*
%TD*%
D12*
%TO.N,/CAN2+*%
%TO.C,J4*%
X150270000Y-119000000D03*
D13*
%TO.N,/CAN2-*%
X147730000Y-119000000D03*
%TD*%
D14*
%TO.N,+3.3V*%
%TO.C,J5*%
X115570000Y-101981000D03*
D15*
%TO.N,Net-(J5-Pin_2)*%
X113030000Y-101981000D03*
%TO.N,GND*%
X115570000Y-104521000D03*
%TO.N,Net-(J5-Pin_4)*%
X113030000Y-104521000D03*
%TO.N,GND*%
X115570000Y-107061000D03*
%TO.N,Net-(J5-Pin_6)*%
X113030000Y-107061000D03*
%TO.N,unconnected-(J5-Pin_7-Pad7)*%
X115570000Y-109601000D03*
%TO.N,unconnected-(J5-Pin_8-Pad8)*%
X113030000Y-109601000D03*
%TO.N,GND*%
X115570000Y-112141000D03*
%TO.N,Net-(J5-Pin_10)*%
X113030000Y-112141000D03*
%TD*%
D14*
%TO.N,/CAN1-*%
%TO.C,J1*%
X157000000Y-79275000D03*
D15*
%TO.N,/CAN1+*%
X157000000Y-76735000D03*
%TD*%
D12*
%TO.N,GPIO6*%
%TO.C,J10*%
X126090000Y-78500000D03*
D13*
%TO.N,GPIO5*%
X128630000Y-78500000D03*
%TO.N,GPIO4*%
X131170000Y-78500000D03*
%TO.N,GPIO3*%
X133710000Y-78500000D03*
%TO.N,GPIO2*%
X136250000Y-78500000D03*
%TO.N,GPIO1*%
X138790000Y-78500000D03*
%TO.N,GPIO8*%
X141330000Y-78500000D03*
%TO.N,GPIO7*%
X143870000Y-78500000D03*
%TD*%
D12*
%TO.N,A4*%
%TO.C,J7*%
X132290000Y-119000000D03*
D13*
%TO.N,A3*%
X129750000Y-119000000D03*
%TO.N,A2*%
X127210000Y-119000000D03*
%TO.N,A1*%
X124670000Y-119000000D03*
%TD*%
D16*
%TO.N,GND*%
X120650000Y-95250000D03*
X143256000Y-120142000D03*
X123190000Y-116586000D03*
X152908000Y-99822000D03*
X119126000Y-116840000D03*
X113284000Y-92456000D03*
X125730000Y-74676000D03*
X132334000Y-113284000D03*
X140462000Y-113538000D03*
X135940800Y-114198400D03*
X118818130Y-76142498D03*
X146558000Y-98806000D03*
X124714000Y-74422000D03*
X143662400Y-118618000D03*
X155194000Y-105410000D03*
X117856000Y-105664000D03*
X154940000Y-89408000D03*
X147320000Y-87122000D03*
X116586000Y-117094000D03*
X158242000Y-112268000D03*
X144018000Y-113284000D03*
X115824000Y-95250000D03*
X124392314Y-110595884D03*
X125984000Y-116586000D03*
X113538000Y-86106000D03*
X151130000Y-86868000D03*
X130810000Y-111760000D03*
X120650000Y-96266000D03*
X146500000Y-104250000D03*
X148082000Y-93980000D03*
X152654000Y-93726000D03*
X111760000Y-86106000D03*
X158242000Y-99822000D03*
X152908000Y-112522000D03*
X116840000Y-106426000D03*
X131064000Y-116586000D03*
X149098000Y-110236000D03*
X134721600Y-121005600D03*
X125222000Y-76454000D03*
X128524000Y-116586000D03*
X131318000Y-83058000D03*
X139192000Y-86614000D03*
X110490000Y-117602000D03*
X152654000Y-92202000D03*
X147320000Y-90678000D03*
X114300000Y-113792000D03*
X136906000Y-112776000D03*
X126238000Y-84074000D03*
X133604000Y-114808000D03*
X123437451Y-80016549D03*
X117103650Y-108448350D03*
X119126000Y-95250000D03*
X133604000Y-116586000D03*
%TO.N,NRST*%
X113538000Y-87884000D03*
X127000000Y-100838000D03*
X124968000Y-103378000D03*
X117602000Y-110744000D03*
%TO.N,+3.3V*%
X123952000Y-114554000D03*
X147574000Y-89662000D03*
X139192000Y-84582000D03*
X146750000Y-100250000D03*
X124718299Y-104906299D03*
X124714000Y-105918000D03*
X124709701Y-93984299D03*
X120396000Y-75946000D03*
X119380000Y-102616000D03*
X112014000Y-114808000D03*
X146558000Y-95250000D03*
X120904000Y-102616000D03*
X112776000Y-78994000D03*
X123952000Y-85852000D03*
X124714000Y-106934000D03*
X134874000Y-111760000D03*
X130302000Y-85598000D03*
X120650000Y-100330000D03*
X139700000Y-111760000D03*
X155956000Y-93980000D03*
X115570000Y-100584000D03*
X157480000Y-92964000D03*
X143510000Y-110744000D03*
%TO.N,+5V*%
X152908000Y-97536000D03*
X151384000Y-99060000D03*
X142544800Y-114909600D03*
X147320000Y-110236500D03*
X137871200Y-114858800D03*
X159004000Y-98552000D03*
%TO.N,/VBUS1*%
X153162000Y-108712000D03*
%TO.N,BOOT0*%
X122174000Y-89408000D03*
X127770762Y-89728767D03*
%TO.N,Net-(SW2-B)*%
X117602000Y-80010000D03*
%TO.N,SYS_JTMS_SWDIO*%
X121412000Y-90932000D03*
X132588000Y-92964000D03*
%TO.N,SYS_JTCK_SWCLK*%
X117602000Y-100838000D03*
X130810000Y-95758000D03*
X134112000Y-92239500D03*
X125222000Y-101092000D03*
%TO.N,SYS_JTDO_SWO*%
X130302000Y-86614000D03*
X118364000Y-88138000D03*
%TO.N,/STMPS2151STR_EN*%
X150000000Y-100000000D03*
X142750000Y-100000000D03*
%TO.N,/STMPS2151STR_FAULT*%
X146202400Y-105257600D03*
X143000000Y-105000000D03*
%TO.N,/LSM_SDO*%
X128024952Y-83811048D03*
X127508000Y-85344000D03*
%TO.N,/LSM_CS*%
X121158000Y-83058000D03*
X119380000Y-81534000D03*
%TD*%
%TA.AperFunction,Conductor*%
%TO.N,GND*%
G36*
X115747512Y-105020507D02*
G01*
X115800315Y-105066262D01*
X115820000Y-105133301D01*
X115820000Y-106448698D01*
X115800315Y-106515737D01*
X115747511Y-106561492D01*
X115678355Y-106571436D01*
X115605766Y-106561000D01*
X115605763Y-106561000D01*
X115534237Y-106561000D01*
X115534233Y-106561000D01*
X115461645Y-106571436D01*
X115392487Y-106561492D01*
X115339684Y-106515736D01*
X115320000Y-106448698D01*
X115320000Y-105133301D01*
X115339685Y-105066262D01*
X115392489Y-105020507D01*
X115461647Y-105010563D01*
X115534237Y-105021000D01*
X115534238Y-105021000D01*
X115605762Y-105021000D01*
X115605763Y-105021000D01*
X115678353Y-105010563D01*
X115747512Y-105020507D01*
G37*
%TD.AperFunction*%
%TA.AperFunction,Conductor*%
G36*
X159835539Y-73934185D02*
G01*
X159881294Y-73986989D01*
X159892500Y-74038500D01*
X159892500Y-97869972D01*
X159872815Y-97937011D01*
X159820011Y-97982766D01*
X159750853Y-97992710D01*
X159687297Y-97963685D01*
X159676350Y-97952944D01*
X159609870Y-97879111D01*
X159456734Y-97767851D01*
X159456729Y-97767848D01*
X159283807Y-97690857D01*
X159283802Y-97690855D01*
X159138000Y-97659865D01*
X159098646Y-97651500D01*
X158909354Y-97651500D01*
X158876897Y-97658398D01*
X158724197Y-97690855D01*
X158724192Y-97690857D01*
X158551270Y-97767848D01*
X158551265Y-97767851D01*
X158398129Y-97879111D01*
X158271466Y-98019785D01*
X158176821Y-98183715D01*
X158176818Y-98183722D01*
X158146884Y-98275851D01*
X158118326Y-98363744D01*
X158098540Y-98552000D01*
X158118326Y-98740256D01*
X158118327Y-98740259D01*
X158176818Y-98920277D01*
X158176821Y-98920284D01*
X158271467Y-99084216D01*
X158389989Y-99215848D01*
X158398129Y-99224888D01*
X158551265Y-99336148D01*
X158551270Y-99336151D01*
X158724192Y-99413142D01*
X158724197Y-99413144D01*
X158909354Y-99452500D01*
X158909355Y-99452500D01*
X159098644Y-99452500D01*
X159098646Y-99452500D01*
X159283803Y-99413144D01*
X159456730Y-99336151D01*
X159609871Y-99224888D01*
X159676351Y-99151054D01*
X159735836Y-99114406D01*
X159805693Y-99115736D01*
X159863742Y-99154623D01*
X159891552Y-99218720D01*
X159892500Y-99234027D01*
X159892500Y-123573500D01*
X159872815Y-123640539D01*
X159820011Y-123686294D01*
X159768500Y-123697500D01*
X110106500Y-123697500D01*
X110039461Y-123677815D01*
X109993706Y-123625011D01*
X109982500Y-123573500D01*
X109982500Y-121449713D01*
X134888000Y-121449713D01*
X134903418Y-121601338D01*
X134964299Y-121795381D01*
X134964304Y-121795391D01*
X135063005Y-121973215D01*
X135063005Y-121973216D01*
X135195478Y-122127530D01*
X135195479Y-122127531D01*
X135356304Y-122252018D01*
X135538907Y-122341589D01*
X135638000Y-122367244D01*
X135638000Y-121803978D01*
X135657685Y-121736939D01*
X135710489Y-121691184D01*
X135779647Y-121681240D01*
X135795926Y-121684709D01*
X135859840Y-121702895D01*
X135971521Y-121692546D01*
X135971526Y-121692543D01*
X135980063Y-121690115D01*
X136049930Y-121690701D01*
X136108390Y-121728966D01*
X136136881Y-121792763D01*
X136138000Y-121809381D01*
X136138000Y-122372366D01*
X136139944Y-122372069D01*
X136139945Y-122372069D01*
X136330660Y-122301436D01*
X136330664Y-122301434D01*
X136503267Y-122193850D01*
X136650668Y-122053735D01*
X136650669Y-122053733D01*
X136766856Y-121886804D01*
X136847059Y-121699907D01*
X136888000Y-121500690D01*
X136888000Y-121449713D01*
X143528000Y-121449713D01*
X143543418Y-121601338D01*
X143604299Y-121795381D01*
X143604304Y-121795391D01*
X143703005Y-121973215D01*
X143703005Y-121973216D01*
X143835478Y-122127530D01*
X143835479Y-122127531D01*
X143996304Y-122252018D01*
X144178907Y-122341589D01*
X144278000Y-122367244D01*
X144278000Y-121803978D01*
X144297685Y-121736939D01*
X144350489Y-121691184D01*
X144419647Y-121681240D01*
X144435926Y-121684709D01*
X144499840Y-121702895D01*
X144611521Y-121692546D01*
X144611526Y-121692543D01*
X144620063Y-121690115D01*
X144689930Y-121690701D01*
X144748390Y-121728966D01*
X144776881Y-121792763D01*
X144778000Y-121809381D01*
X144778000Y-122372366D01*
X144779944Y-122372069D01*
X144779945Y-122372069D01*
X144970660Y-122301436D01*
X144970664Y-122301434D01*
X145143267Y-122193850D01*
X145290668Y-122053735D01*
X145290669Y-122053733D01*
X145406856Y-121886804D01*
X145487059Y-121699907D01*
X145502442Y-121625056D01*
X147029500Y-121625056D01*
X147041120Y-121672201D01*
X147070210Y-121790226D01*
X147149263Y-121940849D01*
X147149266Y-121940852D01*
X147262071Y-122068183D01*
X147348049Y-122127530D01*
X147402068Y-122164817D01*
X147402069Y-122164817D01*
X147402070Y-122164818D01*
X147561128Y-122225140D01*
X147621603Y-122232483D01*
X147687626Y-122240500D01*
X147687628Y-122240500D01*
X147772374Y-122240500D01*
X147814538Y-122235380D01*
X147898872Y-122225140D01*
X148057930Y-122164818D01*
X148197929Y-122068183D01*
X148310734Y-121940852D01*
X148389790Y-121790225D01*
X148430500Y-121625056D01*
X148430500Y-121454944D01*
X148389790Y-121289775D01*
X148389789Y-121289773D01*
X148310736Y-121139150D01*
X148291560Y-121117505D01*
X148197929Y-121011817D01*
X148148177Y-120977475D01*
X148057931Y-120915182D01*
X147898874Y-120854860D01*
X147898868Y-120854859D01*
X147816930Y-120844910D01*
X147752752Y-120817288D01*
X147729965Y-120783486D01*
X147715175Y-120810119D01*
X147653614Y-120843165D01*
X147643069Y-120844910D01*
X147561131Y-120854859D01*
X147561125Y-120854860D01*
X147402068Y-120915182D01*
X147262072Y-121011816D01*
X147149263Y-121139150D01*
X147070210Y-121289773D01*
X147070210Y-121289775D01*
X147029500Y-121454944D01*
X147029500Y-121625056D01*
X145502442Y-121625056D01*
X145528000Y-121500690D01*
X145528000Y-121249000D01*
X144952000Y-121249000D01*
X144884961Y-121229315D01*
X144839206Y-121176511D01*
X144828000Y-121125000D01*
X144828000Y-120873000D01*
X144847685Y-120805961D01*
X144900489Y-120760206D01*
X144952000Y-120749000D01*
X145528000Y-120749000D01*
X145528000Y-120548286D01*
X145512581Y-120396661D01*
X145451700Y-120202618D01*
X145451695Y-120202608D01*
X145352994Y-120024784D01*
X145352994Y-120024783D01*
X145220521Y-119870469D01*
X145220520Y-119870468D01*
X145059695Y-119745981D01*
X144877093Y-119656411D01*
X144778000Y-119630753D01*
X144778000Y-120194021D01*
X144758315Y-120261060D01*
X144705511Y-120306815D01*
X144636353Y-120316759D01*
X144620066Y-120313287D01*
X144556162Y-120295105D01*
X144556162Y-120295104D01*
X144444475Y-120305454D01*
X144435931Y-120307885D01*
X144366064Y-120307297D01*
X144307606Y-120269028D01*
X144279118Y-120205230D01*
X144278000Y-120188618D01*
X144278000Y-119625633D01*
X144276053Y-119625931D01*
X144276047Y-119625933D01*
X144085342Y-119696562D01*
X144085335Y-119696565D01*
X143912732Y-119804149D01*
X143765331Y-119944264D01*
X143765330Y-119944266D01*
X143649143Y-120111195D01*
X143568940Y-120298092D01*
X143528000Y-120497309D01*
X143528000Y-120749000D01*
X144104000Y-120749000D01*
X144171039Y-120768685D01*
X144216794Y-120821489D01*
X144228000Y-120873000D01*
X144228000Y-121125000D01*
X144208315Y-121192039D01*
X144155511Y-121237794D01*
X144104000Y-121249000D01*
X143528000Y-121249000D01*
X143528000Y-121449713D01*
X136888000Y-121449713D01*
X136888000Y-121249000D01*
X136312000Y-121249000D01*
X136244961Y-121229315D01*
X136199206Y-121176511D01*
X136188000Y-121125000D01*
X136188000Y-120873000D01*
X136207685Y-120805961D01*
X136260489Y-120760206D01*
X136312000Y-120749000D01*
X136888000Y-120749000D01*
X136888000Y-120548286D01*
X136872581Y-120396661D01*
X136811700Y-120202618D01*
X136811695Y-120202608D01*
X136712994Y-120024784D01*
X136712994Y-120024783D01*
X136580521Y-119870469D01*
X136580520Y-119870468D01*
X136419695Y-119745981D01*
X136237093Y-119656411D01*
X136138000Y-119630753D01*
X136138000Y-120194021D01*
X136118315Y-120261060D01*
X136065511Y-120306815D01*
X135996353Y-120316759D01*
X135980066Y-120313287D01*
X135916162Y-120295105D01*
X135916162Y-120295104D01*
X135804475Y-120305454D01*
X135795931Y-120307885D01*
X135726064Y-120307297D01*
X135667606Y-120269028D01*
X135639118Y-120205230D01*
X135638000Y-120188618D01*
X135638000Y-119625633D01*
X135636053Y-119625931D01*
X135636047Y-119625933D01*
X135445342Y-119696562D01*
X135445335Y-119696565D01*
X135272732Y-119804149D01*
X135125331Y-119944264D01*
X135125330Y-119944266D01*
X135009143Y-120111195D01*
X134928940Y-120298092D01*
X134888000Y-120497309D01*
X134888000Y-120749000D01*
X135464000Y-120749000D01*
X135531039Y-120768685D01*
X135576794Y-120821489D01*
X135588000Y-120873000D01*
X135588000Y-121125000D01*
X135568315Y-121192039D01*
X135515511Y-121237794D01*
X135464000Y-121249000D01*
X134888000Y-121249000D01*
X134888000Y-121449713D01*
X109982500Y-121449713D01*
X109982500Y-118999000D01*
X111043551Y-118999000D01*
X111063317Y-119250151D01*
X111122126Y-119495110D01*
X111218533Y-119727859D01*
X111350160Y-119942653D01*
X111350161Y-119942656D01*
X111383086Y-119981206D01*
X111513776Y-120134224D01*
X111662066Y-120260875D01*
X111705343Y-120297838D01*
X111705346Y-120297839D01*
X111920140Y-120429466D01*
X112083929Y-120497309D01*
X112152889Y-120525873D01*
X112397852Y-120584683D01*
X112649000Y-120604449D01*
X112900148Y-120584683D01*
X113145111Y-120525873D01*
X113377859Y-120429466D01*
X113592659Y-120297836D01*
X113784224Y-120134224D01*
X113824711Y-120086819D01*
X113883214Y-120048628D01*
X113953082Y-120048128D01*
X114012129Y-120085481D01*
X114013289Y-120086820D01*
X114053776Y-120134224D01*
X114202066Y-120260875D01*
X114245343Y-120297838D01*
X114245346Y-120297839D01*
X114460140Y-120429466D01*
X114623929Y-120497309D01*
X114692889Y-120525873D01*
X114937852Y-120584683D01*
X115189000Y-120604449D01*
X115440148Y-120584683D01*
X115685111Y-120525873D01*
X115917859Y-120429466D01*
X116132659Y-120297836D01*
X116324224Y-120134224D01*
X116364710Y-120086819D01*
X116423216Y-120048627D01*
X116493084Y-120048128D01*
X116552130Y-120085482D01*
X116553235Y-120086756D01*
X116593775Y-120134223D01*
X116593776Y-120134224D01*
X116785343Y-120297838D01*
X116785346Y-120297839D01*
X117000140Y-120429466D01*
X117163929Y-120497309D01*
X117232889Y-120525873D01*
X117477852Y-120584683D01*
X117729000Y-120604449D01*
X117980148Y-120584683D01*
X118225111Y-120525873D01*
X118457859Y-120429466D01*
X118590019Y-120348477D01*
X118657461Y-120330234D01*
X118724064Y-120351350D01*
X118754072Y-120379894D01*
X118797820Y-120438334D01*
X118811455Y-120456547D01*
X118926664Y-120542793D01*
X118926671Y-120542797D01*
X119061517Y-120593091D01*
X119061516Y-120593091D01*
X119068444Y-120593835D01*
X119121127Y-120599500D01*
X121416872Y-120599499D01*
X121476483Y-120593091D01*
X121611331Y-120542796D01*
X121726546Y-120456546D01*
X121812796Y-120341331D01*
X121863091Y-120206483D01*
X121869500Y-120146873D01*
X121869500Y-119000000D01*
X123064551Y-119000000D01*
X123084317Y-119251151D01*
X123143126Y-119496110D01*
X123239533Y-119728859D01*
X123371160Y-119943653D01*
X123371161Y-119943656D01*
X123403230Y-119981204D01*
X123534776Y-120135224D01*
X123682111Y-120261060D01*
X123726343Y-120298838D01*
X123726346Y-120298839D01*
X123941140Y-120430466D01*
X124102515Y-120497309D01*
X124173889Y-120526873D01*
X124418852Y-120585683D01*
X124670000Y-120605449D01*
X124921148Y-120585683D01*
X125166111Y-120526873D01*
X125398859Y-120430466D01*
X125613659Y-120298836D01*
X125805224Y-120135224D01*
X125845710Y-120087819D01*
X125904216Y-120049627D01*
X125974084Y-120049128D01*
X126033130Y-120086482D01*
X126034235Y-120087756D01*
X126073921Y-120134223D01*
X126074776Y-120135224D01*
X126266343Y-120298838D01*
X126266346Y-120298839D01*
X126481140Y-120430466D01*
X126642515Y-120497309D01*
X126713889Y-120526873D01*
X126958852Y-120585683D01*
X127210000Y-120605449D01*
X127461148Y-120585683D01*
X127706111Y-120526873D01*
X127938859Y-120430466D01*
X128153659Y-120298836D01*
X128345224Y-120135224D01*
X128385710Y-120087819D01*
X128444216Y-120049627D01*
X128514084Y-120049128D01*
X128573130Y-120086482D01*
X128574235Y-120087756D01*
X128613921Y-120134223D01*
X128614776Y-120135224D01*
X128806343Y-120298838D01*
X128806346Y-120298839D01*
X129021140Y-120430466D01*
X129182515Y-120497309D01*
X129253889Y-120526873D01*
X129498852Y-120585683D01*
X129750000Y-120605449D01*
X130001148Y-120585683D01*
X130246111Y-120526873D01*
X130478859Y-120430466D01*
X130611019Y-120349477D01*
X130678461Y-120331234D01*
X130745064Y-120352350D01*
X130775072Y-120380894D01*
X130831705Y-120456546D01*
X130832455Y-120457547D01*
X130947664Y-120543793D01*
X130947671Y-120543797D01*
X131082517Y-120594091D01*
X131082516Y-120594091D01*
X131089444Y-120594835D01*
X131142127Y-120600500D01*
X133437872Y-120600499D01*
X133497483Y-120594091D01*
X133632331Y-120543796D01*
X133747546Y-120457546D01*
X133833796Y-120342331D01*
X133884091Y-120207483D01*
X133890500Y-120147873D01*
X133890499Y-119000000D01*
X146124551Y-119000000D01*
X146144317Y-119251151D01*
X146203126Y-119496110D01*
X146299533Y-119728859D01*
X146431160Y-119943653D01*
X146431161Y-119943656D01*
X146463230Y-119981204D01*
X146594776Y-120135224D01*
X146742111Y-120261060D01*
X146786343Y-120298838D01*
X146786346Y-120298839D01*
X147001140Y-120430466D01*
X147162515Y-120497309D01*
X147233889Y-120526873D01*
X147478852Y-120585683D01*
X147637853Y-120598196D01*
X147703139Y-120623080D01*
X147730285Y-120659888D01*
X147748636Y-120629907D01*
X147811539Y-120599493D01*
X147822131Y-120598198D01*
X147981148Y-120585683D01*
X148226111Y-120526873D01*
X148458859Y-120430466D01*
X148591019Y-120349477D01*
X148658461Y-120331234D01*
X148725064Y-120352350D01*
X148755072Y-120380894D01*
X148811705Y-120456546D01*
X148812455Y-120457547D01*
X148927664Y-120543793D01*
X148927671Y-120543797D01*
X149062517Y-120594091D01*
X149062516Y-120594091D01*
X149069444Y-120594835D01*
X149122127Y-120600500D01*
X150146008Y-120600499D01*
X150213046Y-120620183D01*
X150258801Y-120672987D01*
X150268745Y-120742146D01*
X150239720Y-120805702D01*
X150180942Y-120843476D01*
X150160955Y-120847595D01*
X150101130Y-120854859D01*
X150101125Y-120854860D01*
X149942068Y-120915182D01*
X149802072Y-121011816D01*
X149689263Y-121139150D01*
X149610210Y-121289773D01*
X149610210Y-121289775D01*
X149569500Y-121454944D01*
X149569500Y-121625056D01*
X149581120Y-121672201D01*
X149610210Y-121790226D01*
X149689263Y-121940849D01*
X149689266Y-121940852D01*
X149802071Y-122068183D01*
X149888049Y-122127530D01*
X149942068Y-122164817D01*
X149942069Y-122164817D01*
X149942070Y-122164818D01*
X150101128Y-122225140D01*
X150161603Y-122232483D01*
X150227626Y-122240500D01*
X150227628Y-122240500D01*
X150312374Y-122240500D01*
X150354538Y-122235380D01*
X150438872Y-122225140D01*
X150597930Y-122164818D01*
X150737929Y-122068183D01*
X150850734Y-121940852D01*
X150929790Y-121790225D01*
X150970500Y-121625056D01*
X150970500Y-121454944D01*
X150929790Y-121289775D01*
X150929789Y-121289773D01*
X150850736Y-121139150D01*
X150831560Y-121117505D01*
X150737929Y-121011817D01*
X150688177Y-120977475D01*
X150597931Y-120915182D01*
X150438874Y-120854860D01*
X150438869Y-120854859D01*
X150379043Y-120847595D01*
X150314866Y-120819972D01*
X150275810Y-120762038D01*
X150274275Y-120692185D01*
X150310750Y-120632592D01*
X150373653Y-120602178D01*
X150393985Y-120600499D01*
X151417872Y-120600499D01*
X151477483Y-120594091D01*
X151612331Y-120543796D01*
X151727546Y-120457546D01*
X151813796Y-120342331D01*
X151864091Y-120207483D01*
X151870500Y-120147873D01*
X151870499Y-118735000D01*
X155394341Y-118735000D01*
X155414936Y-118970403D01*
X155414938Y-118970413D01*
X155476094Y-119198655D01*
X155476096Y-119198659D01*
X155476097Y-119198663D01*
X155500573Y-119251151D01*
X155575965Y-119412830D01*
X155575967Y-119412834D01*
X155634278Y-119496110D01*
X155711501Y-119606396D01*
X155711506Y-119606402D01*
X155833430Y-119728326D01*
X155866915Y-119789649D01*
X155861931Y-119859341D01*
X155820059Y-119915274D01*
X155789083Y-119932189D01*
X155657669Y-119981203D01*
X155657664Y-119981206D01*
X155542455Y-120067452D01*
X155542452Y-120067455D01*
X155456206Y-120182664D01*
X155456202Y-120182671D01*
X155405908Y-120317517D01*
X155399501Y-120377116D01*
X155399501Y-120377123D01*
X155399500Y-120377135D01*
X155399500Y-122172870D01*
X155399501Y-122172876D01*
X155405908Y-122232483D01*
X155456202Y-122367328D01*
X155456206Y-122367335D01*
X155542452Y-122482544D01*
X155542455Y-122482547D01*
X155657664Y-122568793D01*
X155657671Y-122568797D01*
X155792517Y-122619091D01*
X155792516Y-122619091D01*
X155799444Y-122619835D01*
X155852127Y-122625500D01*
X157647872Y-122625499D01*
X157707483Y-122619091D01*
X157842331Y-122568796D01*
X157957546Y-122482546D01*
X158043796Y-122367331D01*
X158094091Y-122232483D01*
X158100500Y-122172873D01*
X158100499Y-120377128D01*
X158094091Y-120317517D01*
X158093808Y-120316759D01*
X158043797Y-120182671D01*
X158043793Y-120182664D01*
X157957547Y-120067455D01*
X157957544Y-120067452D01*
X157842335Y-119981206D01*
X157842328Y-119981202D01*
X157710917Y-119932189D01*
X157654983Y-119890318D01*
X157630566Y-119824853D01*
X157645418Y-119756580D01*
X157666563Y-119728332D01*
X157788495Y-119606401D01*
X157924035Y-119412830D01*
X158023903Y-119198663D01*
X158085063Y-118970408D01*
X158105659Y-118735000D01*
X158085063Y-118499592D01*
X158023903Y-118271337D01*
X157924035Y-118057171D01*
X157923458Y-118056346D01*
X157788494Y-117863597D01*
X157621402Y-117696506D01*
X157621395Y-117696501D01*
X157609254Y-117688000D01*
X157572903Y-117662546D01*
X157427834Y-117560967D01*
X157427830Y-117560965D01*
X157385991Y-117541455D01*
X157213663Y-117461097D01*
X157213659Y-117461096D01*
X157213655Y-117461094D01*
X156985413Y-117399938D01*
X156985403Y-117399936D01*
X156750001Y-117379341D01*
X156749999Y-117379341D01*
X156514596Y-117399936D01*
X156514586Y-117399938D01*
X156286344Y-117461094D01*
X156286335Y-117461098D01*
X156072171Y-117560964D01*
X156072169Y-117560965D01*
X155878597Y-117696505D01*
X155711505Y-117863597D01*
X155575965Y-118057169D01*
X155575964Y-118057171D01*
X155476098Y-118271335D01*
X155476094Y-118271344D01*
X155414938Y-118499586D01*
X155414936Y-118499596D01*
X155394341Y-118734999D01*
X155394341Y-118735000D01*
X151870499Y-118735000D01*
X151870499Y-117852128D01*
X151864091Y-117792517D01*
X151857176Y-117773978D01*
X151813797Y-117657671D01*
X151813793Y-117657664D01*
X151727547Y-117542455D01*
X151727544Y-117542452D01*
X151612335Y-117456206D01*
X151612328Y-117456202D01*
X151477482Y-117405908D01*
X151477483Y-117405908D01*
X151417883Y-117399501D01*
X151417881Y-117399500D01*
X151417873Y-117399500D01*
X151417864Y-117399500D01*
X149122129Y-117399500D01*
X149122123Y-117399501D01*
X149062516Y-117405908D01*
X148927671Y-117456202D01*
X148927664Y-117456206D01*
X148812455Y-117542452D01*
X148755072Y-117619105D01*
X148699138Y-117660976D01*
X148629446Y-117665959D01*
X148591016Y-117650520D01*
X148458859Y-117569533D01*
X148226110Y-117473126D01*
X147981151Y-117414317D01*
X147730000Y-117394551D01*
X147478848Y-117414317D01*
X147233889Y-117473126D01*
X147001140Y-117569533D01*
X146786346Y-117701160D01*
X146786343Y-117701161D01*
X146594776Y-117864776D01*
X146431161Y-118056343D01*
X146431160Y-118056346D01*
X146299533Y-118271140D01*
X146203126Y-118503889D01*
X146144317Y-118748848D01*
X146124551Y-119000000D01*
X133890499Y-119000000D01*
X133890499Y-117852128D01*
X133884091Y-117792517D01*
X133877176Y-117773978D01*
X133833797Y-117657671D01*
X133833793Y-117657664D01*
X133747547Y-117542455D01*
X133747544Y-117542452D01*
X133632335Y-117456206D01*
X133632328Y-117456202D01*
X133534495Y-117419713D01*
X134888000Y-117419713D01*
X134903418Y-117571338D01*
X134964299Y-117765381D01*
X134964304Y-117765391D01*
X135063005Y-117943215D01*
X135063005Y-117943216D01*
X135195478Y-118097530D01*
X135195479Y-118097531D01*
X135356304Y-118222018D01*
X135538907Y-118311589D01*
X135638000Y-118337244D01*
X135638000Y-117773978D01*
X135657685Y-117706939D01*
X135710489Y-117661184D01*
X135779647Y-117651240D01*
X135795926Y-117654709D01*
X135859840Y-117672895D01*
X135971521Y-117662546D01*
X135971526Y-117662543D01*
X135980063Y-117660115D01*
X136049930Y-117660701D01*
X136108390Y-117698966D01*
X136136881Y-117762763D01*
X136138000Y-117779381D01*
X136138000Y-118342366D01*
X136139944Y-118342069D01*
X136139945Y-118342069D01*
X136330660Y-118271436D01*
X136330664Y-118271434D01*
X136503267Y-118163850D01*
X136650668Y-118023735D01*
X136650669Y-118023733D01*
X136766856Y-117856804D01*
X136820748Y-117731220D01*
X136865274Y-117677376D01*
X136931843Y-117656153D01*
X136999318Y-117674288D01*
X137015895Y-117686401D01*
X137058282Y-117723130D01*
X137058283Y-117723130D01*
X137058285Y-117723132D01*
X137150794Y-117765379D01*
X137182658Y-117779931D01*
X137283989Y-117794500D01*
X137283992Y-117794500D01*
X137352008Y-117794500D01*
X137352011Y-117794500D01*
X137453342Y-117779931D01*
X137550887Y-117735383D01*
X137577714Y-117723132D01*
X137577714Y-117723131D01*
X137577718Y-117723130D01*
X137681055Y-117633589D01*
X137754978Y-117518561D01*
X137793500Y-117387367D01*
X142622500Y-117387367D01*
X142661021Y-117518559D01*
X142661020Y-117518559D01*
X142734942Y-117633586D01*
X142734946Y-117633590D01*
X142838278Y-117723127D01*
X142838285Y-117723132D01*
X142930794Y-117765379D01*
X142962658Y-117779931D01*
X143063989Y-117794500D01*
X143063992Y-117794500D01*
X143132008Y-117794500D01*
X143132011Y-117794500D01*
X143233342Y-117779931D01*
X143330887Y-117735383D01*
X143357714Y-117723132D01*
X143357714Y-117723131D01*
X143357718Y-117723130D01*
X143398262Y-117687998D01*
X143461815Y-117658974D01*
X143530973Y-117668917D01*
X143583778Y-117714671D01*
X143597775Y-117744588D01*
X143604299Y-117765379D01*
X143604304Y-117765391D01*
X143703005Y-117943215D01*
X143703005Y-117943216D01*
X143835478Y-118097530D01*
X143835479Y-118097531D01*
X143996304Y-118222018D01*
X144178907Y-118311589D01*
X144278000Y-118337244D01*
X144278000Y-117773978D01*
X144297685Y-117706939D01*
X144350489Y-117661184D01*
X144419647Y-117651240D01*
X144435926Y-117654709D01*
X144499840Y-117672895D01*
X144611521Y-117662546D01*
X144611526Y-117662543D01*
X144620063Y-117660115D01*
X144689930Y-117660701D01*
X144748390Y-117698966D01*
X144776881Y-117762763D01*
X144778000Y-117779381D01*
X144778000Y-118342366D01*
X144779944Y-118342069D01*
X144779945Y-118342069D01*
X144970660Y-118271436D01*
X144970664Y-118271434D01*
X145143267Y-118163850D01*
X145290668Y-118023735D01*
X145290669Y-118023733D01*
X145406856Y-117856804D01*
X145487059Y-117669907D01*
X145528000Y-117470690D01*
X145528000Y-117069000D01*
X144952000Y-117069000D01*
X144884961Y-117049315D01*
X144839206Y-116996511D01*
X144828000Y-116945000D01*
X144828000Y-116693000D01*
X144847685Y-116625961D01*
X144900489Y-116580206D01*
X144952000Y-116569000D01*
X145528000Y-116569000D01*
X145528000Y-116218286D01*
X145512581Y-116066661D01*
X145451700Y-115872618D01*
X145451695Y-115872608D01*
X145352994Y-115694784D01*
X145352994Y-115694783D01*
X145220521Y-115540469D01*
X145220520Y-115540468D01*
X145059695Y-115415981D01*
X144877093Y-115326411D01*
X144778000Y-115300753D01*
X144778000Y-115864021D01*
X144758315Y-115931060D01*
X144705511Y-115976815D01*
X144636353Y-115986759D01*
X144620066Y-115983287D01*
X144556162Y-115965105D01*
X144556162Y-115965104D01*
X144444475Y-115975454D01*
X144435931Y-115977885D01*
X144366064Y-115977297D01*
X144307606Y-115939028D01*
X144279118Y-115875230D01*
X144278000Y-115858618D01*
X144278000Y-115295633D01*
X144276053Y-115295931D01*
X144276047Y-115295933D01*
X144085342Y-115366562D01*
X144085335Y-115366565D01*
X143912732Y-115474149D01*
X143765331Y-115614264D01*
X143765330Y-115614266D01*
X143649143Y-115781195D01*
X143568940Y-115968092D01*
X143528000Y-116167309D01*
X143528000Y-116569000D01*
X144104000Y-116569000D01*
X144171039Y-116588685D01*
X144216794Y-116641489D01*
X144228000Y-116693000D01*
X144228000Y-116945000D01*
X144208315Y-117012039D01*
X144155511Y-117057794D01*
X144104000Y-117069000D01*
X143570273Y-117069000D01*
X143503234Y-117049315D01*
X143465957Y-117012039D01*
X143461054Y-117004410D01*
X143392490Y-116945000D01*
X143357718Y-116914870D01*
X143357716Y-116914869D01*
X143357714Y-116914867D01*
X143233345Y-116858070D01*
X143233343Y-116858069D01*
X143233342Y-116858069D01*
X143233337Y-116858068D01*
X143233336Y-116858068D01*
X143132011Y-116843500D01*
X143063989Y-116843500D01*
X143063988Y-116843500D01*
X142962663Y-116858068D01*
X142962654Y-116858070D01*
X142838285Y-116914867D01*
X142838278Y-116914872D01*
X142734946Y-117004409D01*
X142734942Y-117004413D01*
X142661021Y-117119440D01*
X142622500Y-117250632D01*
X142622500Y-117387367D01*
X137793500Y-117387367D01*
X137793500Y-117250633D01*
X137754978Y-117119440D01*
X137754979Y-117119440D01*
X137681057Y-117004413D01*
X137681053Y-117004409D01*
X137577721Y-116914872D01*
X137577714Y-116914867D01*
X137453345Y-116858070D01*
X137453343Y-116858069D01*
X137453342Y-116858069D01*
X137453337Y-116858068D01*
X137453336Y-116858068D01*
X137352011Y-116843500D01*
X137283989Y-116843500D01*
X137283988Y-116843500D01*
X137182663Y-116858068D01*
X137182654Y-116858070D01*
X137058285Y-116914867D01*
X137058282Y-116914870D01*
X136954945Y-117004410D01*
X136950043Y-117012039D01*
X136897239Y-117057794D01*
X136845727Y-117069000D01*
X136312000Y-117069000D01*
X136244961Y-117049315D01*
X136199206Y-116996511D01*
X136188000Y-116945000D01*
X136188000Y-116693000D01*
X136207685Y-116625961D01*
X136260489Y-116580206D01*
X136312000Y-116569000D01*
X136888000Y-116569000D01*
X136888000Y-116218286D01*
X136872581Y-116066661D01*
X136811700Y-115872618D01*
X136811695Y-115872608D01*
X136712994Y-115694784D01*
X136712994Y-115694783D01*
X136580521Y-115540469D01*
X136580520Y-115540468D01*
X136419695Y-115415981D01*
X136237093Y-115326411D01*
X136138000Y-115300753D01*
X136138000Y-115864021D01*
X136118315Y-115931060D01*
X136065511Y-115976815D01*
X135996353Y-115986759D01*
X135980066Y-115983287D01*
X135916162Y-115965105D01*
X135916162Y-115965104D01*
X135804475Y-115975454D01*
X135795931Y-115977885D01*
X135726064Y-115977297D01*
X135667606Y-115939028D01*
X135639118Y-115875230D01*
X135638000Y-115858618D01*
X135638000Y-115295633D01*
X135636053Y-115295931D01*
X135636047Y-115295933D01*
X135445342Y-115366562D01*
X135445335Y-115366565D01*
X135272732Y-115474149D01*
X135125331Y-115614264D01*
X135125330Y-115614266D01*
X135009143Y-115781195D01*
X134928940Y-115968092D01*
X134888000Y-116167309D01*
X134888000Y-116569000D01*
X135464000Y-116569000D01*
X135531039Y-116588685D01*
X135576794Y-116641489D01*
X135588000Y-116693000D01*
X135588000Y-116945000D01*
X135568315Y-117012039D01*
X135515511Y-117057794D01*
X135464000Y-117069000D01*
X134888000Y-117069000D01*
X134888000Y-117419713D01*
X133534495Y-117419713D01*
X133497482Y-117405908D01*
X133497483Y-117405908D01*
X133437883Y-117399501D01*
X133437881Y-117399500D01*
X133437873Y-117399500D01*
X133437864Y-117399500D01*
X131142129Y-117399500D01*
X131142123Y-117399501D01*
X131082516Y-117405908D01*
X130947671Y-117456202D01*
X130947664Y-117456206D01*
X130832455Y-117542452D01*
X130775072Y-117619105D01*
X130719138Y-117660976D01*
X130649446Y-117665959D01*
X130611016Y-117650520D01*
X130478859Y-117569533D01*
X130246110Y-117473126D01*
X130001151Y-117414317D01*
X129778601Y-117396802D01*
X129750000Y-117394551D01*
X129749999Y-117394551D01*
X129498848Y-117414317D01*
X129253889Y-117473126D01*
X129021140Y-117569533D01*
X128806346Y-117701160D01*
X128806343Y-117701161D01*
X128614776Y-117864776D01*
X128574290Y-117912179D01*
X128515783Y-117950372D01*
X128445915Y-117950870D01*
X128386869Y-117913516D01*
X128385710Y-117912179D01*
X128384855Y-117911178D01*
X128345224Y-117864776D01*
X128180035Y-117723691D01*
X128153656Y-117701161D01*
X128153653Y-117701160D01*
X127938859Y-117569533D01*
X127706110Y-117473126D01*
X127461151Y-117414317D01*
X127210000Y-117394551D01*
X126958848Y-117414317D01*
X126713889Y-117473126D01*
X126481140Y-117569533D01*
X126266346Y-117701160D01*
X126266343Y-117701161D01*
X126094217Y-117848171D01*
X126076157Y-117863597D01*
X126074775Y-117864777D01*
X126034288Y-117912180D01*
X125975780Y-117950372D01*
X125905913Y-117950870D01*
X125846867Y-117913515D01*
X125845792Y-117912275D01*
X125805224Y-117864776D01*
X125790409Y-117852123D01*
X125613656Y-117701161D01*
X125613653Y-117701160D01*
X125398859Y-117569533D01*
X125166110Y-117473126D01*
X124921151Y-117414317D01*
X124670000Y-117394551D01*
X124418848Y-117414317D01*
X124173889Y-117473126D01*
X123941140Y-117569533D01*
X123726346Y-117701160D01*
X123726343Y-117701161D01*
X123534776Y-117864776D01*
X123371161Y-118056343D01*
X123371160Y-118056346D01*
X123239533Y-118271140D01*
X123143126Y-118503889D01*
X123084317Y-118748848D01*
X123064551Y-119000000D01*
X121869500Y-119000000D01*
X121869499Y-117851128D01*
X121863412Y-117794499D01*
X121863091Y-117791516D01*
X121812797Y-117656671D01*
X121812793Y-117656664D01*
X121726547Y-117541455D01*
X121726544Y-117541452D01*
X121611335Y-117455206D01*
X121611328Y-117455202D01*
X121476482Y-117404908D01*
X121476483Y-117404908D01*
X121416883Y-117398501D01*
X121416881Y-117398500D01*
X121416873Y-117398500D01*
X121416864Y-117398500D01*
X119121129Y-117398500D01*
X119121123Y-117398501D01*
X119061516Y-117404908D01*
X118926671Y-117455202D01*
X118926664Y-117455206D01*
X118811455Y-117541452D01*
X118754072Y-117618105D01*
X118698138Y-117659976D01*
X118628446Y-117664959D01*
X118590016Y-117649520D01*
X118457859Y-117568533D01*
X118225110Y-117472126D01*
X117980151Y-117413317D01*
X117770307Y-117396802D01*
X117729000Y-117393551D01*
X117728999Y-117393551D01*
X117477848Y-117413317D01*
X117232889Y-117472126D01*
X117000140Y-117568533D01*
X116785346Y-117700160D01*
X116785343Y-117700161D01*
X116593775Y-117863777D01*
X116553288Y-117911180D01*
X116494780Y-117949372D01*
X116424913Y-117949870D01*
X116365867Y-117912515D01*
X116364792Y-117911275D01*
X116324224Y-117863776D01*
X116324017Y-117863599D01*
X116132656Y-117700161D01*
X116132653Y-117700160D01*
X115917859Y-117568533D01*
X115685110Y-117472126D01*
X115440151Y-117413317D01*
X115230307Y-117396802D01*
X115189000Y-117393551D01*
X115188999Y-117393551D01*
X114937848Y-117413317D01*
X114692889Y-117472126D01*
X114460140Y-117568533D01*
X114245346Y-117700160D01*
X114245343Y-117700161D01*
X114053776Y-117863776D01*
X114013290Y-117911179D01*
X113954783Y-117949372D01*
X113884915Y-117949870D01*
X113825869Y-117912516D01*
X113824710Y-117911179D01*
X113824709Y-117911178D01*
X113784224Y-117863776D01*
X113629021Y-117731220D01*
X113592656Y-117700161D01*
X113592653Y-117700160D01*
X113377859Y-117568533D01*
X113145110Y-117472126D01*
X112900151Y-117413317D01*
X112649000Y-117393551D01*
X112397848Y-117413317D01*
X112152889Y-117472126D01*
X111920140Y-117568533D01*
X111705346Y-117700160D01*
X111705343Y-117700161D01*
X111513776Y-117863776D01*
X111350161Y-118055343D01*
X111350160Y-118055346D01*
X111218533Y-118270140D01*
X111122126Y-118502889D01*
X111063317Y-118747848D01*
X111043551Y-118999000D01*
X109982500Y-118999000D01*
X109982500Y-114808000D01*
X111108540Y-114808000D01*
X111128326Y-114996256D01*
X111128327Y-114996259D01*
X111186818Y-115176277D01*
X111186821Y-115176284D01*
X111281467Y-115340216D01*
X111384369Y-115454500D01*
X111408129Y-115480888D01*
X111561265Y-115592148D01*
X111561270Y-115592151D01*
X111734192Y-115669142D01*
X111734197Y-115669144D01*
X111919354Y-115708500D01*
X111919355Y-115708500D01*
X112108644Y-115708500D01*
X112108646Y-115708500D01*
X112293803Y-115669144D01*
X112466730Y-115592151D01*
X112619871Y-115480888D01*
X112746533Y-115340216D01*
X112841179Y-115176284D01*
X112899674Y-114996256D01*
X112919460Y-114808000D01*
X112899674Y-114619744D01*
X112878312Y-114554000D01*
X123046540Y-114554000D01*
X123066326Y-114742256D01*
X123066327Y-114742259D01*
X123124818Y-114922277D01*
X123124821Y-114922284D01*
X123219467Y-115086216D01*
X123300559Y-115176277D01*
X123346129Y-115226888D01*
X123499265Y-115338148D01*
X123499270Y-115338151D01*
X123672192Y-115415142D01*
X123672197Y-115415144D01*
X123857354Y-115454500D01*
X123857355Y-115454500D01*
X124046644Y-115454500D01*
X124046646Y-115454500D01*
X124231803Y-115415144D01*
X124404730Y-115338151D01*
X124557871Y-115226888D01*
X124684533Y-115086216D01*
X124779179Y-114922284D01*
X124799806Y-114858800D01*
X136965740Y-114858800D01*
X136985526Y-115047056D01*
X136985527Y-115047059D01*
X137044018Y-115227077D01*
X137044021Y-115227084D01*
X137138667Y-115391016D01*
X137265328Y-115531688D01*
X137265329Y-115531688D01*
X137418465Y-115642948D01*
X137418470Y-115642951D01*
X137591392Y-115719942D01*
X137591397Y-115719944D01*
X137776554Y-115759300D01*
X137776555Y-115759300D01*
X137965844Y-115759300D01*
X137965846Y-115759300D01*
X138151003Y-115719944D01*
X138323930Y-115642951D01*
X138477071Y-115531688D01*
X138603733Y-115391016D01*
X138698379Y-115227084D01*
X138756874Y-115047056D01*
X138771321Y-114909600D01*
X141639340Y-114909600D01*
X141659126Y-115097856D01*
X141659127Y-115097859D01*
X141717618Y-115277877D01*
X141717621Y-115277884D01*
X141812267Y-115441816D01*
X141901094Y-115540468D01*
X141938929Y-115582488D01*
X142092065Y-115693748D01*
X142092070Y-115693751D01*
X142264992Y-115770742D01*
X142264997Y-115770744D01*
X142450154Y-115810100D01*
X142450155Y-115810100D01*
X142639444Y-115810100D01*
X142639446Y-115810100D01*
X142824603Y-115770744D01*
X142997530Y-115693751D01*
X143150671Y-115582488D01*
X143277333Y-115441816D01*
X143371979Y-115277884D01*
X143430474Y-115097856D01*
X143450260Y-114909600D01*
X143430474Y-114721344D01*
X143371979Y-114541316D01*
X143277333Y-114377384D01*
X143150671Y-114236712D01*
X143080751Y-114185912D01*
X142997534Y-114125451D01*
X142997529Y-114125448D01*
X142824607Y-114048457D01*
X142824602Y-114048455D01*
X142678800Y-114017465D01*
X142639446Y-114009100D01*
X142450154Y-114009100D01*
X142417697Y-114015998D01*
X142264997Y-114048455D01*
X142264992Y-114048457D01*
X142092070Y-114125448D01*
X142092065Y-114125451D01*
X141938929Y-114236711D01*
X141812266Y-114377385D01*
X141717621Y-114541315D01*
X141717618Y-114541322D01*
X141675633Y-114670540D01*
X141659126Y-114721344D01*
X141639340Y-114909600D01*
X138771321Y-114909600D01*
X138776660Y-114858800D01*
X138756874Y-114670544D01*
X138698379Y-114490516D01*
X138603733Y-114326584D01*
X138477071Y-114185912D01*
X138477070Y-114185911D01*
X138323934Y-114074651D01*
X138323929Y-114074648D01*
X138151007Y-113997657D01*
X138151002Y-113997655D01*
X138005200Y-113966665D01*
X137965846Y-113958300D01*
X137776554Y-113958300D01*
X137744097Y-113965198D01*
X137591397Y-113997655D01*
X137591392Y-113997657D01*
X137418470Y-114074648D01*
X137418465Y-114074651D01*
X137265329Y-114185911D01*
X137138666Y-114326585D01*
X137044021Y-114490515D01*
X137044018Y-114490522D01*
X137002033Y-114619740D01*
X136985526Y-114670544D01*
X136965740Y-114858800D01*
X124799806Y-114858800D01*
X124837674Y-114742256D01*
X124857460Y-114554000D01*
X124837674Y-114365744D01*
X124779179Y-114185716D01*
X124684533Y-114021784D01*
X124557871Y-113881112D01*
X124557870Y-113881111D01*
X124404734Y-113769851D01*
X124404729Y-113769848D01*
X124231807Y-113692857D01*
X124231802Y-113692855D01*
X124086001Y-113661865D01*
X124046646Y-113653500D01*
X123857354Y-113653500D01*
X123824897Y-113660398D01*
X123672197Y-113692855D01*
X123672192Y-113692857D01*
X123499270Y-113769848D01*
X123499265Y-113769851D01*
X123346129Y-113881111D01*
X123219466Y-114021785D01*
X123124821Y-114185715D01*
X123124818Y-114185722D01*
X123066327Y-114365740D01*
X123066326Y-114365744D01*
X123046540Y-114554000D01*
X112878312Y-114554000D01*
X112841179Y-114439716D01*
X112746533Y-114275784D01*
X112619871Y-114135112D01*
X112606570Y-114125448D01*
X112466734Y-114023851D01*
X112466729Y-114023848D01*
X112293807Y-113946857D01*
X112293802Y-113946855D01*
X112148001Y-113915865D01*
X112108646Y-113907500D01*
X111919354Y-113907500D01*
X111886897Y-113914398D01*
X111734197Y-113946855D01*
X111734192Y-113946857D01*
X111561270Y-114023848D01*
X111561265Y-114023851D01*
X111408129Y-114135111D01*
X111281466Y-114275785D01*
X111186821Y-114439715D01*
X111186818Y-114439722D01*
X111128327Y-114619740D01*
X111128326Y-114619744D01*
X111108540Y-114808000D01*
X109982500Y-114808000D01*
X109982500Y-112141000D01*
X111674341Y-112141000D01*
X111694936Y-112376403D01*
X111694938Y-112376413D01*
X111756094Y-112604655D01*
X111756096Y-112604659D01*
X111756097Y-112604663D01*
X111839155Y-112782781D01*
X111855965Y-112818830D01*
X111855967Y-112818834D01*
X111964281Y-112973521D01*
X111991505Y-113012401D01*
X112158599Y-113179495D01*
X112255384Y-113247265D01*
X112352165Y-113315032D01*
X112352167Y-113315033D01*
X112352170Y-113315035D01*
X112566337Y-113414903D01*
X112794592Y-113476063D01*
X112982918Y-113492539D01*
X113029999Y-113496659D01*
X113030000Y-113496659D01*
X113030001Y-113496659D01*
X113069234Y-113493226D01*
X113265408Y-113476063D01*
X113493663Y-113414903D01*
X113707830Y-113315035D01*
X113901401Y-113179495D01*
X114068495Y-113012401D01*
X114198730Y-112826405D01*
X114253307Y-112782781D01*
X114322805Y-112775587D01*
X114385160Y-112807110D01*
X114401879Y-112826405D01*
X114531890Y-113012078D01*
X114698917Y-113179105D01*
X114892421Y-113314600D01*
X115106507Y-113414429D01*
X115106516Y-113414433D01*
X115320000Y-113471634D01*
X115320000Y-112753301D01*
X115339685Y-112686262D01*
X115392489Y-112640507D01*
X115461647Y-112630563D01*
X115534237Y-112641000D01*
X115534238Y-112641000D01*
X115605762Y-112641000D01*
X115605763Y-112641000D01*
X115678352Y-112630563D01*
X115747510Y-112640507D01*
X115800314Y-112686261D01*
X115819999Y-112753301D01*
X115819999Y-113471634D01*
X116033483Y-113414433D01*
X116033492Y-113414429D01*
X116247578Y-113314600D01*
X116441082Y-113179105D01*
X116608105Y-113012082D01*
X116743600Y-112818578D01*
X116843429Y-112604492D01*
X116843432Y-112604486D01*
X116900636Y-112391000D01*
X116183347Y-112391000D01*
X116116308Y-112371315D01*
X116070553Y-112318511D01*
X116060609Y-112249353D01*
X116064369Y-112232067D01*
X116070000Y-112212888D01*
X116070000Y-112069111D01*
X116064369Y-112049933D01*
X116064370Y-111980064D01*
X116102145Y-111921286D01*
X116165701Y-111892262D01*
X116183347Y-111891000D01*
X116900636Y-111891000D01*
X116900635Y-111890999D01*
X116865534Y-111760000D01*
X133968540Y-111760000D01*
X133988326Y-111948256D01*
X133988327Y-111948259D01*
X134046818Y-112128277D01*
X134046821Y-112128284D01*
X134141467Y-112292216D01*
X134217270Y-112376403D01*
X134268129Y-112432888D01*
X134421265Y-112544148D01*
X134421270Y-112544151D01*
X134594192Y-112621142D01*
X134594197Y-112621144D01*
X134779354Y-112660500D01*
X134779355Y-112660500D01*
X134968644Y-112660500D01*
X134968646Y-112660500D01*
X135153803Y-112621144D01*
X135326730Y-112544151D01*
X135479871Y-112432888D01*
X135606533Y-112292216D01*
X135701179Y-112128284D01*
X135759674Y-111948256D01*
X135779460Y-111760000D01*
X138794540Y-111760000D01*
X138814326Y-111948256D01*
X138814327Y-111948259D01*
X138872818Y-112128277D01*
X138872821Y-112128284D01*
X138967467Y-112292216D01*
X139043270Y-112376403D01*
X139094129Y-112432888D01*
X139247265Y-112544148D01*
X139247270Y-112544151D01*
X139420192Y-112621142D01*
X139420197Y-112621144D01*
X139605354Y-112660500D01*
X139605355Y-112660500D01*
X139794644Y-112660500D01*
X139794646Y-112660500D01*
X139979803Y-112621144D01*
X140152730Y-112544151D01*
X140305871Y-112432888D01*
X140432533Y-112292216D01*
X140527179Y-112128284D01*
X140585674Y-111948256D01*
X140605460Y-111760000D01*
X140585674Y-111571744D01*
X140527179Y-111391716D01*
X140432533Y-111227784D01*
X140305871Y-111087112D01*
X140305870Y-111087111D01*
X140152734Y-110975851D01*
X140152729Y-110975848D01*
X139979807Y-110898857D01*
X139979802Y-110898855D01*
X139834000Y-110867865D01*
X139794646Y-110859500D01*
X139605354Y-110859500D01*
X139572897Y-110866398D01*
X139420197Y-110898855D01*
X139420192Y-110898857D01*
X139247270Y-110975848D01*
X139247265Y-110975851D01*
X139094129Y-111087111D01*
X138967466Y-111227785D01*
X138872821Y-111391715D01*
X138872818Y-111391722D01*
X138814327Y-111571740D01*
X138814326Y-111571744D01*
X138794540Y-111760000D01*
X135779460Y-111760000D01*
X135759674Y-111571744D01*
X135701179Y-111391716D01*
X135606533Y-111227784D01*
X135479871Y-111087112D01*
X135479870Y-111087111D01*
X135326734Y-110975851D01*
X135326729Y-110975848D01*
X135153807Y-110898857D01*
X135153802Y-110898855D01*
X135008000Y-110867865D01*
X134968646Y-110859500D01*
X134779354Y-110859500D01*
X134746897Y-110866398D01*
X134594197Y-110898855D01*
X134594192Y-110898857D01*
X134421270Y-110975848D01*
X134421265Y-110975851D01*
X134268129Y-111087111D01*
X134141466Y-111227785D01*
X134046821Y-111391715D01*
X134046818Y-111391722D01*
X133988327Y-111571740D01*
X133988326Y-111571744D01*
X133968540Y-111760000D01*
X116865534Y-111760000D01*
X116843432Y-111677513D01*
X116843429Y-111677507D01*
X116777972Y-111537133D01*
X116767480Y-111468056D01*
X116796000Y-111404271D01*
X116854476Y-111366032D01*
X116924344Y-111365477D01*
X116982502Y-111401753D01*
X116996129Y-111416888D01*
X116996132Y-111416890D01*
X117149265Y-111528148D01*
X117149270Y-111528151D01*
X117322192Y-111605142D01*
X117322197Y-111605144D01*
X117507354Y-111644500D01*
X117507355Y-111644500D01*
X117696644Y-111644500D01*
X117696646Y-111644500D01*
X117881803Y-111605144D01*
X118054730Y-111528151D01*
X118207871Y-111416888D01*
X118334533Y-111276216D01*
X118429179Y-111112284D01*
X118487674Y-110932256D01*
X118507460Y-110744000D01*
X142604540Y-110744000D01*
X142624326Y-110932256D01*
X142624327Y-110932259D01*
X142682818Y-111112277D01*
X142682821Y-111112284D01*
X142777467Y-111276216D01*
X142890503Y-111401755D01*
X142904129Y-111416888D01*
X143057265Y-111528148D01*
X143057270Y-111528151D01*
X143230192Y-111605142D01*
X143230197Y-111605144D01*
X143415354Y-111644500D01*
X143415355Y-111644500D01*
X143604644Y-111644500D01*
X143604646Y-111644500D01*
X143789803Y-111605144D01*
X143962730Y-111528151D01*
X144115871Y-111416888D01*
X144242533Y-111276216D01*
X144337179Y-111112284D01*
X144395674Y-110932256D01*
X144415460Y-110744000D01*
X144395674Y-110555744D01*
X144337179Y-110375716D01*
X144256803Y-110236500D01*
X146414540Y-110236500D01*
X146434326Y-110424756D01*
X146434327Y-110424759D01*
X146492818Y-110604777D01*
X146492821Y-110604784D01*
X146587467Y-110768716D01*
X146699823Y-110893500D01*
X146714129Y-110909388D01*
X146867265Y-111020648D01*
X146867270Y-111020651D01*
X147040192Y-111097642D01*
X147040197Y-111097644D01*
X147225354Y-111137000D01*
X147225355Y-111137000D01*
X147414644Y-111137000D01*
X147414646Y-111137000D01*
X147599803Y-111097644D01*
X147772730Y-111020651D01*
X147925871Y-110909388D01*
X148052533Y-110768716D01*
X148147179Y-110604784D01*
X148205674Y-110424756D01*
X148225460Y-110236500D01*
X148205674Y-110048244D01*
X148147179Y-109868216D01*
X148052533Y-109704284D01*
X147925871Y-109563612D01*
X147833019Y-109496151D01*
X147772734Y-109452351D01*
X147772729Y-109452348D01*
X147599807Y-109375357D01*
X147599802Y-109375355D01*
X147454000Y-109344365D01*
X147414646Y-109336000D01*
X147225354Y-109336000D01*
X147192897Y-109342898D01*
X147040197Y-109375355D01*
X147040192Y-109375357D01*
X146867270Y-109452348D01*
X146867265Y-109452351D01*
X146714129Y-109563611D01*
X146587466Y-109704285D01*
X146492821Y-109868215D01*
X146492818Y-109868222D01*
X146448642Y-110004184D01*
X146434326Y-110048244D01*
X146414540Y-110236500D01*
X144256803Y-110236500D01*
X144242533Y-110211784D01*
X144115871Y-110071112D01*
X144084396Y-110048244D01*
X143962734Y-109959851D01*
X143962729Y-109959848D01*
X143789807Y-109882857D01*
X143789802Y-109882855D01*
X143644000Y-109851865D01*
X143604646Y-109843500D01*
X143415354Y-109843500D01*
X143382897Y-109850398D01*
X143230197Y-109882855D01*
X143230192Y-109882857D01*
X143057270Y-109959848D01*
X143057265Y-109959851D01*
X142904129Y-110071111D01*
X142777466Y-110211785D01*
X142682821Y-110375715D01*
X142682818Y-110375722D01*
X142624327Y-110555740D01*
X142624326Y-110555744D01*
X142604540Y-110744000D01*
X118507460Y-110744000D01*
X118487674Y-110555744D01*
X118429179Y-110375716D01*
X118334533Y-110211784D01*
X118207871Y-110071112D01*
X118176396Y-110048244D01*
X118054734Y-109959851D01*
X118054729Y-109959848D01*
X117881807Y-109882857D01*
X117881802Y-109882855D01*
X117736000Y-109851865D01*
X117696646Y-109843500D01*
X117507354Y-109843500D01*
X117474897Y-109850398D01*
X117322197Y-109882855D01*
X117322192Y-109882857D01*
X117149270Y-109959848D01*
X117149265Y-109959851D01*
X117088247Y-110004184D01*
X117022441Y-110027664D01*
X116954387Y-110011838D01*
X116905692Y-109961732D01*
X116891817Y-109893254D01*
X116895587Y-109871773D01*
X116905063Y-109836408D01*
X116925659Y-109601000D01*
X116905063Y-109365592D01*
X116843903Y-109137337D01*
X116744035Y-108923171D01*
X116738425Y-108915158D01*
X116608494Y-108729597D01*
X116590897Y-108712000D01*
X152256540Y-108712000D01*
X152276326Y-108900256D01*
X152276327Y-108900259D01*
X152334818Y-109080277D01*
X152334821Y-109080284D01*
X152429467Y-109244216D01*
X152512110Y-109336000D01*
X152556129Y-109384888D01*
X152709265Y-109496148D01*
X152709270Y-109496151D01*
X152882192Y-109573142D01*
X152882197Y-109573144D01*
X153067354Y-109612500D01*
X153067355Y-109612500D01*
X153256644Y-109612500D01*
X153256646Y-109612500D01*
X153441803Y-109573144D01*
X153614730Y-109496151D01*
X153767871Y-109384888D01*
X153894533Y-109244216D01*
X153989179Y-109080284D01*
X154047674Y-108900256D01*
X154067460Y-108712000D01*
X154047674Y-108523744D01*
X153998369Y-108372001D01*
X154833318Y-108372001D01*
X154853955Y-108528760D01*
X154853956Y-108528762D01*
X154914464Y-108674841D01*
X155010718Y-108800282D01*
X155136159Y-108896536D01*
X155282238Y-108957044D01*
X155399639Y-108972500D01*
X155399646Y-108972500D01*
X155478354Y-108972500D01*
X155478361Y-108972500D01*
X155595762Y-108957044D01*
X155741841Y-108896536D01*
X155867282Y-108800282D01*
X155963536Y-108674841D01*
X156024044Y-108528762D01*
X156044682Y-108372000D01*
X156042246Y-108353500D01*
X156024044Y-108215239D01*
X156024044Y-108215238D01*
X155963536Y-108069159D01*
X155867282Y-107943718D01*
X155741841Y-107847464D01*
X155710543Y-107834500D01*
X155595762Y-107786956D01*
X155595760Y-107786955D01*
X155478370Y-107771501D01*
X155478367Y-107771500D01*
X155478361Y-107771500D01*
X155399639Y-107771500D01*
X155399633Y-107771500D01*
X155399629Y-107771501D01*
X155282239Y-107786955D01*
X155282237Y-107786956D01*
X155136160Y-107847463D01*
X155010718Y-107943718D01*
X154914463Y-108069160D01*
X154853956Y-108215237D01*
X154853955Y-108215239D01*
X154833318Y-108371998D01*
X154833318Y-108372001D01*
X153998369Y-108372001D01*
X153989179Y-108343716D01*
X153894533Y-108179784D01*
X153767871Y-108039112D01*
X153767870Y-108039111D01*
X153614734Y-107927851D01*
X153614729Y-107927848D01*
X153441807Y-107850857D01*
X153441802Y-107850855D01*
X153296001Y-107819865D01*
X153256646Y-107811500D01*
X153067354Y-107811500D01*
X153034897Y-107818398D01*
X152882197Y-107850855D01*
X152882192Y-107850857D01*
X152709270Y-107927848D01*
X152709265Y-107927851D01*
X152556129Y-108039111D01*
X152429466Y-108179785D01*
X152334821Y-108343715D01*
X152334818Y-108343722D01*
X152276327Y-108523740D01*
X152276326Y-108523744D01*
X152256540Y-108712000D01*
X116590897Y-108712000D01*
X116441402Y-108562506D01*
X116441401Y-108562505D01*
X116255405Y-108432269D01*
X116211781Y-108377692D01*
X116204588Y-108308193D01*
X116236110Y-108245839D01*
X116255405Y-108229119D01*
X116441082Y-108099105D01*
X116608105Y-107932082D01*
X116743600Y-107738578D01*
X116843429Y-107524492D01*
X116843432Y-107524486D01*
X116900636Y-107311000D01*
X116183347Y-107311000D01*
X116116308Y-107291315D01*
X116070553Y-107238511D01*
X116060609Y-107169353D01*
X116064369Y-107152067D01*
X116070000Y-107132888D01*
X116070000Y-106989111D01*
X116064369Y-106969933D01*
X116064370Y-106934000D01*
X123808540Y-106934000D01*
X123828326Y-107122256D01*
X123828327Y-107122259D01*
X123886818Y-107302277D01*
X123886821Y-107302284D01*
X123981467Y-107466216D01*
X124034094Y-107524664D01*
X124108129Y-107606888D01*
X124261265Y-107718148D01*
X124261270Y-107718151D01*
X124434192Y-107795142D01*
X124434197Y-107795144D01*
X124619354Y-107834500D01*
X124619355Y-107834500D01*
X124808644Y-107834500D01*
X124808646Y-107834500D01*
X124993803Y-107795144D01*
X125166730Y-107718151D01*
X125319871Y-107606888D01*
X125446533Y-107466216D01*
X125541179Y-107302284D01*
X125599674Y-107122256D01*
X125619460Y-106934000D01*
X125599674Y-106745744D01*
X125541179Y-106565716D01*
X125496308Y-106487996D01*
X125479836Y-106420100D01*
X125496307Y-106364003D01*
X125541179Y-106286284D01*
X125599674Y-106106256D01*
X125619460Y-105918000D01*
X125599674Y-105729744D01*
X125541179Y-105549716D01*
X125499698Y-105477868D01*
X125483226Y-105409972D01*
X125499697Y-105353876D01*
X125545478Y-105274583D01*
X125603973Y-105094555D01*
X125613911Y-105000000D01*
X142094540Y-105000000D01*
X142114326Y-105188256D01*
X142114327Y-105188259D01*
X142172818Y-105368277D01*
X142172821Y-105368284D01*
X142267467Y-105532216D01*
X142394128Y-105672887D01*
X142394129Y-105672888D01*
X142547265Y-105784148D01*
X142547270Y-105784151D01*
X142720192Y-105861142D01*
X142720197Y-105861144D01*
X142905354Y-105900500D01*
X142905355Y-105900500D01*
X143094644Y-105900500D01*
X143094646Y-105900500D01*
X143279803Y-105861144D01*
X143452730Y-105784151D01*
X143605871Y-105672888D01*
X143732533Y-105532216D01*
X143827179Y-105368284D01*
X143863143Y-105257600D01*
X145296940Y-105257600D01*
X145316726Y-105445856D01*
X145316727Y-105445859D01*
X145375218Y-105625877D01*
X145375221Y-105625884D01*
X145469867Y-105789816D01*
X145547337Y-105875855D01*
X145596529Y-105930488D01*
X145749665Y-106041748D01*
X145749670Y-106041751D01*
X145922592Y-106118742D01*
X145922597Y-106118744D01*
X146107754Y-106158100D01*
X146107755Y-106158100D01*
X146297044Y-106158100D01*
X146297046Y-106158100D01*
X146482203Y-106118744D01*
X146655130Y-106041751D01*
X146808271Y-105930488D01*
X146934933Y-105789816D01*
X147029579Y-105625884D01*
X147088074Y-105445856D01*
X147107860Y-105257600D01*
X147088074Y-105069344D01*
X147029579Y-104889316D01*
X146934933Y-104725384D01*
X146808271Y-104584712D01*
X146791460Y-104572498D01*
X146655134Y-104473451D01*
X146655129Y-104473448D01*
X146482207Y-104396457D01*
X146482202Y-104396455D01*
X146336400Y-104365465D01*
X146297046Y-104357100D01*
X146107754Y-104357100D01*
X146075297Y-104363998D01*
X145922597Y-104396455D01*
X145922592Y-104396457D01*
X145749670Y-104473448D01*
X145749665Y-104473451D01*
X145596529Y-104584711D01*
X145469866Y-104725385D01*
X145375221Y-104889315D01*
X145375218Y-104889322D01*
X145335825Y-105010563D01*
X145316726Y-105069344D01*
X145296940Y-105257600D01*
X143863143Y-105257600D01*
X143885674Y-105188256D01*
X143905460Y-105000000D01*
X143885674Y-104811744D01*
X143827179Y-104631716D01*
X143732533Y-104467784D01*
X143605871Y-104327112D01*
X143605870Y-104327111D01*
X143452734Y-104215851D01*
X143452729Y-104215848D01*
X143279807Y-104138857D01*
X143279802Y-104138855D01*
X143134000Y-104107865D01*
X143094646Y-104099500D01*
X142905354Y-104099500D01*
X142872897Y-104106398D01*
X142720197Y-104138855D01*
X142720192Y-104138857D01*
X142547270Y-104215848D01*
X142547265Y-104215851D01*
X142394129Y-104327111D01*
X142267466Y-104467785D01*
X142172821Y-104631715D01*
X142172818Y-104631722D01*
X142114327Y-104811740D01*
X142114326Y-104811744D01*
X142094540Y-105000000D01*
X125613911Y-105000000D01*
X125623759Y-104906299D01*
X125603973Y-104718043D01*
X125545478Y-104538015D01*
X125450832Y-104374083D01*
X125415718Y-104335085D01*
X125385488Y-104272094D01*
X125394113Y-104202758D01*
X125434979Y-104151797D01*
X125573871Y-104050888D01*
X125644901Y-103972001D01*
X154833318Y-103972001D01*
X154853955Y-104128760D01*
X154853956Y-104128762D01*
X154912872Y-104270999D01*
X154914464Y-104274841D01*
X155010718Y-104400282D01*
X155136159Y-104496536D01*
X155282238Y-104557044D01*
X155399639Y-104572500D01*
X155399646Y-104572500D01*
X155478354Y-104572500D01*
X155478361Y-104572500D01*
X155595762Y-104557044D01*
X155741841Y-104496536D01*
X155867282Y-104400282D01*
X155963536Y-104274841D01*
X156024044Y-104128762D01*
X156044682Y-103972000D01*
X156024044Y-103815238D01*
X155963536Y-103669159D01*
X155867282Y-103543718D01*
X155741841Y-103447464D01*
X155627617Y-103400151D01*
X155595762Y-103386956D01*
X155595760Y-103386955D01*
X155478370Y-103371501D01*
X155478367Y-103371500D01*
X155478361Y-103371500D01*
X155399639Y-103371500D01*
X155399633Y-103371500D01*
X155399629Y-103371501D01*
X155282239Y-103386955D01*
X155282237Y-103386956D01*
X155136160Y-103447463D01*
X155010718Y-103543718D01*
X154914463Y-103669160D01*
X154853956Y-103815237D01*
X154853955Y-103815239D01*
X154833318Y-103971998D01*
X154833318Y-103972001D01*
X125644901Y-103972001D01*
X125700533Y-103910216D01*
X125795179Y-103746284D01*
X125853674Y-103566256D01*
X125873460Y-103378000D01*
X125853674Y-103189744D01*
X125795179Y-103009716D01*
X125700533Y-102845784D01*
X125573871Y-102705112D01*
X125510175Y-102658834D01*
X125420734Y-102593851D01*
X125420729Y-102593848D01*
X125247807Y-102516857D01*
X125247802Y-102516855D01*
X125102000Y-102485865D01*
X125062646Y-102477500D01*
X124873354Y-102477500D01*
X124840897Y-102484398D01*
X124688197Y-102516855D01*
X124688192Y-102516857D01*
X124515270Y-102593848D01*
X124515265Y-102593851D01*
X124362129Y-102705111D01*
X124235466Y-102845785D01*
X124140821Y-103009715D01*
X124140818Y-103009722D01*
X124084675Y-103182514D01*
X124082326Y-103189744D01*
X124062540Y-103378000D01*
X124082326Y-103566256D01*
X124082327Y-103566259D01*
X124140818Y-103746277D01*
X124140821Y-103746284D01*
X124235467Y-103910216D01*
X124264825Y-103942822D01*
X124270580Y-103949213D01*
X124300810Y-104012205D01*
X124292185Y-104081540D01*
X124251316Y-104132503D01*
X124112426Y-104233412D01*
X123985765Y-104374084D01*
X123891120Y-104538014D01*
X123891117Y-104538021D01*
X123838971Y-104698511D01*
X123832625Y-104718043D01*
X123812839Y-104906299D01*
X123832625Y-105094555D01*
X123832626Y-105094558D01*
X123891117Y-105274576D01*
X123891120Y-105274583D01*
X123932598Y-105346425D01*
X123949071Y-105414326D01*
X123932599Y-105470424D01*
X123886820Y-105549716D01*
X123828327Y-105729740D01*
X123828326Y-105729744D01*
X123808540Y-105918000D01*
X123828326Y-106106256D01*
X123828327Y-106106259D01*
X123886821Y-106286285D01*
X123931689Y-106363999D01*
X123948162Y-106431899D01*
X123931690Y-106487997D01*
X123886821Y-106565713D01*
X123886820Y-106565717D01*
X123833376Y-106730202D01*
X123828326Y-106745744D01*
X123808540Y-106934000D01*
X116064370Y-106934000D01*
X116064370Y-106900064D01*
X116102145Y-106841286D01*
X116165701Y-106812262D01*
X116183347Y-106811000D01*
X116900636Y-106811000D01*
X116900635Y-106810999D01*
X116843432Y-106597513D01*
X116843429Y-106597507D01*
X116743600Y-106383422D01*
X116743599Y-106383420D01*
X116608113Y-106189926D01*
X116608108Y-106189920D01*
X116441082Y-106022894D01*
X116254968Y-105892575D01*
X116211344Y-105837998D01*
X116204151Y-105768499D01*
X116235673Y-105706145D01*
X116254968Y-105689425D01*
X116441082Y-105559105D01*
X116608105Y-105392082D01*
X116743600Y-105198578D01*
X116843429Y-104984492D01*
X116843432Y-104984486D01*
X116900636Y-104771000D01*
X116183347Y-104771000D01*
X116116308Y-104751315D01*
X116070553Y-104698511D01*
X116060609Y-104629353D01*
X116064369Y-104612067D01*
X116070000Y-104592888D01*
X116070000Y-104449111D01*
X116064369Y-104429933D01*
X116064370Y-104360064D01*
X116102145Y-104301286D01*
X116165701Y-104272262D01*
X116183347Y-104271000D01*
X116900636Y-104271000D01*
X116900635Y-104270999D01*
X116843432Y-104057513D01*
X116843429Y-104057507D01*
X116743600Y-103843422D01*
X116743599Y-103843420D01*
X116608113Y-103649926D01*
X116608108Y-103649920D01*
X116486053Y-103527865D01*
X116452568Y-103466542D01*
X116457552Y-103396850D01*
X116499424Y-103340917D01*
X116530400Y-103324002D01*
X116662331Y-103274796D01*
X116777546Y-103188546D01*
X116863796Y-103073331D01*
X116914091Y-102938483D01*
X116920500Y-102878873D01*
X116920500Y-102616000D01*
X118474540Y-102616000D01*
X118494326Y-102804256D01*
X118494327Y-102804259D01*
X118552818Y-102984277D01*
X118552821Y-102984284D01*
X118647467Y-103148216D01*
X118761441Y-103274797D01*
X118774129Y-103288888D01*
X118927265Y-103400148D01*
X118927270Y-103400151D01*
X119100192Y-103477142D01*
X119100197Y-103477144D01*
X119285354Y-103516500D01*
X119285355Y-103516500D01*
X119474644Y-103516500D01*
X119474646Y-103516500D01*
X119659803Y-103477144D01*
X119832730Y-103400151D01*
X119985871Y-103288888D01*
X120049850Y-103217831D01*
X120109337Y-103181183D01*
X120179194Y-103182514D01*
X120234149Y-103217831D01*
X120285441Y-103274797D01*
X120298129Y-103288888D01*
X120451265Y-103400148D01*
X120451270Y-103400151D01*
X120624192Y-103477142D01*
X120624197Y-103477144D01*
X120809354Y-103516500D01*
X120809355Y-103516500D01*
X120998644Y-103516500D01*
X120998646Y-103516500D01*
X121183803Y-103477144D01*
X121356730Y-103400151D01*
X121509871Y-103288888D01*
X121636533Y-103148216D01*
X121731179Y-102984284D01*
X121789674Y-102804256D01*
X121809460Y-102616000D01*
X121789674Y-102427744D01*
X121731179Y-102247716D01*
X121636533Y-102083784D01*
X121509871Y-101943112D01*
X121509870Y-101943111D01*
X121356734Y-101831851D01*
X121356729Y-101831848D01*
X121183807Y-101754857D01*
X121183802Y-101754855D01*
X121038000Y-101723865D01*
X120998646Y-101715500D01*
X120809354Y-101715500D01*
X120776897Y-101722398D01*
X120624197Y-101754855D01*
X120624192Y-101754857D01*
X120451270Y-101831848D01*
X120451265Y-101831851D01*
X120298129Y-101943111D01*
X120298128Y-101943112D01*
X120234149Y-102014168D01*
X120174663Y-102050816D01*
X120104806Y-102049485D01*
X120049851Y-102014168D01*
X119985871Y-101943112D01*
X119985870Y-101943111D01*
X119832734Y-101831851D01*
X119832729Y-101831848D01*
X119659807Y-101754857D01*
X119659802Y-101754855D01*
X119514001Y-101723865D01*
X119474646Y-101715500D01*
X119285354Y-101715500D01*
X119252897Y-101722398D01*
X119100197Y-101754855D01*
X119100192Y-101754857D01*
X118927270Y-101831848D01*
X118927265Y-101831851D01*
X118774129Y-101943111D01*
X118647466Y-102083785D01*
X118552821Y-102247715D01*
X118552818Y-102247722D01*
X118494327Y-102427740D01*
X118494326Y-102427744D01*
X118474540Y-102616000D01*
X116920500Y-102616000D01*
X116920499Y-101699302D01*
X116940184Y-101632264D01*
X116992987Y-101586509D01*
X117062146Y-101576565D01*
X117117384Y-101598985D01*
X117149265Y-101622148D01*
X117149270Y-101622151D01*
X117322192Y-101699142D01*
X117322197Y-101699144D01*
X117507354Y-101738500D01*
X117507355Y-101738500D01*
X117696644Y-101738500D01*
X117696646Y-101738500D01*
X117881803Y-101699144D01*
X118054730Y-101622151D01*
X118207871Y-101510888D01*
X118334533Y-101370216D01*
X118429179Y-101206284D01*
X118487674Y-101026256D01*
X118507460Y-100838000D01*
X118487674Y-100649744D01*
X118429179Y-100469716D01*
X118348514Y-100330000D01*
X119744540Y-100330000D01*
X119764326Y-100518256D01*
X119764327Y-100518259D01*
X119822818Y-100698277D01*
X119822821Y-100698284D01*
X119917467Y-100862216D01*
X119989756Y-100942501D01*
X120044129Y-101002888D01*
X120197265Y-101114148D01*
X120197270Y-101114151D01*
X120370192Y-101191142D01*
X120370197Y-101191144D01*
X120555354Y-101230500D01*
X120555355Y-101230500D01*
X120744644Y-101230500D01*
X120744646Y-101230500D01*
X120929803Y-101191144D01*
X121102730Y-101114151D01*
X121133218Y-101092000D01*
X124316540Y-101092000D01*
X124336326Y-101280256D01*
X124336327Y-101280259D01*
X124394818Y-101460277D01*
X124394820Y-101460281D01*
X124394821Y-101460284D01*
X124489467Y-101624216D01*
X124556931Y-101699142D01*
X124616129Y-101764888D01*
X124769265Y-101876148D01*
X124769270Y-101876151D01*
X124942192Y-101953142D01*
X124942197Y-101953144D01*
X125127354Y-101992500D01*
X125127355Y-101992500D01*
X125316644Y-101992500D01*
X125316646Y-101992500D01*
X125501803Y-101953144D01*
X125674730Y-101876151D01*
X125827871Y-101764888D01*
X125954533Y-101624216D01*
X126049179Y-101460284D01*
X126062198Y-101420213D01*
X126101634Y-101362540D01*
X126165992Y-101335341D01*
X126234839Y-101347254D01*
X126272278Y-101375559D01*
X126348559Y-101460277D01*
X126394129Y-101510888D01*
X126547265Y-101622148D01*
X126547270Y-101622151D01*
X126720192Y-101699142D01*
X126720197Y-101699144D01*
X126905354Y-101738500D01*
X126905355Y-101738500D01*
X127094644Y-101738500D01*
X127094646Y-101738500D01*
X127279803Y-101699144D01*
X127452730Y-101622151D01*
X127605871Y-101510888D01*
X127732533Y-101370216D01*
X127827179Y-101206284D01*
X127885674Y-101026256D01*
X127905460Y-100838000D01*
X127885674Y-100649744D01*
X127827179Y-100469716D01*
X127732533Y-100305784D01*
X127605871Y-100165112D01*
X127573708Y-100141744D01*
X127452734Y-100053851D01*
X127452729Y-100053848D01*
X127331786Y-100000000D01*
X141844540Y-100000000D01*
X141864326Y-100188256D01*
X141864327Y-100188259D01*
X141922818Y-100368277D01*
X141922821Y-100368284D01*
X142017467Y-100532216D01*
X142123290Y-100649744D01*
X142144129Y-100672888D01*
X142297265Y-100784148D01*
X142297270Y-100784151D01*
X142470192Y-100861142D01*
X142470197Y-100861144D01*
X142655354Y-100900500D01*
X142655355Y-100900500D01*
X142844644Y-100900500D01*
X142844646Y-100900500D01*
X143029803Y-100861144D01*
X143202730Y-100784151D01*
X143355871Y-100672888D01*
X143482533Y-100532216D01*
X143577179Y-100368284D01*
X143615612Y-100250000D01*
X145844540Y-100250000D01*
X145864326Y-100438256D01*
X145864327Y-100438259D01*
X145922818Y-100618277D01*
X145922821Y-100618284D01*
X146017467Y-100782216D01*
X146113318Y-100888669D01*
X146144129Y-100922888D01*
X146297265Y-101034148D01*
X146297270Y-101034151D01*
X146470192Y-101111142D01*
X146470197Y-101111144D01*
X146655354Y-101150500D01*
X146655355Y-101150500D01*
X146844644Y-101150500D01*
X146844646Y-101150500D01*
X147029803Y-101111144D01*
X147202730Y-101034151D01*
X147355871Y-100922888D01*
X147482533Y-100782216D01*
X147577179Y-100618284D01*
X147635674Y-100438256D01*
X147655460Y-100250000D01*
X147635674Y-100061744D01*
X147615612Y-100000000D01*
X149094540Y-100000000D01*
X149114326Y-100188256D01*
X149114327Y-100188259D01*
X149172818Y-100368277D01*
X149172821Y-100368284D01*
X149267467Y-100532216D01*
X149373290Y-100649744D01*
X149394129Y-100672888D01*
X149547265Y-100784148D01*
X149547270Y-100784151D01*
X149720192Y-100861142D01*
X149720197Y-100861144D01*
X149905354Y-100900500D01*
X149905355Y-100900500D01*
X150094644Y-100900500D01*
X150094646Y-100900500D01*
X150279803Y-100861144D01*
X150452730Y-100784151D01*
X150605871Y-100672888D01*
X150732533Y-100532216D01*
X150827179Y-100368284D01*
X150885674Y-100188256D01*
X150904422Y-100009875D01*
X150931005Y-99945263D01*
X150988303Y-99905278D01*
X151058122Y-99902618D01*
X151078178Y-99909560D01*
X151104192Y-99921142D01*
X151104197Y-99921144D01*
X151289354Y-99960500D01*
X151289355Y-99960500D01*
X151478644Y-99960500D01*
X151478646Y-99960500D01*
X151663803Y-99921144D01*
X151836730Y-99844151D01*
X151989871Y-99732888D01*
X152116533Y-99592216D01*
X152211179Y-99428284D01*
X152269674Y-99248256D01*
X152289460Y-99060000D01*
X152269674Y-98871744D01*
X152211179Y-98691716D01*
X152116533Y-98527784D01*
X151989871Y-98387112D01*
X151957708Y-98363744D01*
X151836734Y-98275851D01*
X151836729Y-98275848D01*
X151663807Y-98198857D01*
X151663802Y-98198855D01*
X151518001Y-98167865D01*
X151478646Y-98159500D01*
X151289354Y-98159500D01*
X151256897Y-98166398D01*
X151104197Y-98198855D01*
X151104192Y-98198857D01*
X150931270Y-98275848D01*
X150931265Y-98275851D01*
X150778129Y-98387111D01*
X150651466Y-98527785D01*
X150556821Y-98691715D01*
X150556818Y-98691722D01*
X150498327Y-98871740D01*
X150498326Y-98871744D01*
X150484266Y-99005517D01*
X150479578Y-99050122D01*
X150452993Y-99114736D01*
X150395696Y-99154721D01*
X150325877Y-99157381D01*
X150305822Y-99150440D01*
X150279802Y-99138855D01*
X150134001Y-99107865D01*
X150094646Y-99099500D01*
X149905354Y-99099500D01*
X149872897Y-99106398D01*
X149720197Y-99138855D01*
X149720192Y-99138857D01*
X149547270Y-99215848D01*
X149547265Y-99215851D01*
X149394129Y-99327111D01*
X149267466Y-99467785D01*
X149172821Y-99631715D01*
X149172818Y-99631722D01*
X149118191Y-99799848D01*
X149114326Y-99811744D01*
X149094540Y-100000000D01*
X147615612Y-100000000D01*
X147577179Y-99881716D01*
X147482533Y-99717784D01*
X147355871Y-99577112D01*
X147312844Y-99545851D01*
X147202734Y-99465851D01*
X147202729Y-99465848D01*
X147029807Y-99388857D01*
X147029802Y-99388855D01*
X146884000Y-99357865D01*
X146844646Y-99349500D01*
X146655354Y-99349500D01*
X146622897Y-99356398D01*
X146470197Y-99388855D01*
X146470192Y-99388857D01*
X146297270Y-99465848D01*
X146297265Y-99465851D01*
X146144129Y-99577111D01*
X146017466Y-99717785D01*
X145922821Y-99881715D01*
X145922818Y-99881722D01*
X145864327Y-100061740D01*
X145864326Y-100061744D01*
X145844540Y-100250000D01*
X143615612Y-100250000D01*
X143635674Y-100188256D01*
X143655460Y-100000000D01*
X143635674Y-99811744D01*
X143577179Y-99631716D01*
X143482533Y-99467784D01*
X143355871Y-99327112D01*
X143355870Y-99327111D01*
X143202734Y-99215851D01*
X143202729Y-99215848D01*
X143029807Y-99138857D01*
X143029802Y-99138855D01*
X142884000Y-99107865D01*
X142844646Y-99099500D01*
X142655354Y-99099500D01*
X142622897Y-99106398D01*
X142470197Y-99138855D01*
X142470192Y-99138857D01*
X142297270Y-99215848D01*
X142297265Y-99215851D01*
X142144129Y-99327111D01*
X142017466Y-99467785D01*
X141922821Y-99631715D01*
X141922818Y-99631722D01*
X141868191Y-99799848D01*
X141864326Y-99811744D01*
X141844540Y-100000000D01*
X127331786Y-100000000D01*
X127279807Y-99976857D01*
X127279802Y-99976855D01*
X127131168Y-99945263D01*
X127094646Y-99937500D01*
X126905354Y-99937500D01*
X126872897Y-99944398D01*
X126720197Y-99976855D01*
X126720192Y-99976857D01*
X126547270Y-100053848D01*
X126547265Y-100053851D01*
X126394129Y-100165111D01*
X126267466Y-100305785D01*
X126172821Y-100469715D01*
X126172819Y-100469719D01*
X126159801Y-100509786D01*
X126120363Y-100567461D01*
X126056004Y-100594659D01*
X125987158Y-100582744D01*
X125949720Y-100554439D01*
X125929710Y-100532216D01*
X125827871Y-100419112D01*
X125795708Y-100395744D01*
X125674734Y-100307851D01*
X125674729Y-100307848D01*
X125501807Y-100230857D01*
X125501802Y-100230855D01*
X125356001Y-100199865D01*
X125316646Y-100191500D01*
X125127354Y-100191500D01*
X125094897Y-100198398D01*
X124942197Y-100230855D01*
X124942192Y-100230857D01*
X124769270Y-100307848D01*
X124769265Y-100307851D01*
X124616129Y-100419111D01*
X124489466Y-100559785D01*
X124394821Y-100723715D01*
X124394818Y-100723722D01*
X124341224Y-100888669D01*
X124336326Y-100903744D01*
X124316540Y-101092000D01*
X121133218Y-101092000D01*
X121255871Y-101002888D01*
X121382533Y-100862216D01*
X121477179Y-100698284D01*
X121535674Y-100518256D01*
X121555460Y-100330000D01*
X121535674Y-100141744D01*
X121477179Y-99961716D01*
X121382533Y-99797784D01*
X121255871Y-99657112D01*
X121220925Y-99631722D01*
X121102734Y-99545851D01*
X121102729Y-99545848D01*
X120929807Y-99468857D01*
X120929802Y-99468855D01*
X120784000Y-99437865D01*
X120744646Y-99429500D01*
X120555354Y-99429500D01*
X120522897Y-99436398D01*
X120370197Y-99468855D01*
X120370192Y-99468857D01*
X120197270Y-99545848D01*
X120197265Y-99545851D01*
X120044129Y-99657111D01*
X119917466Y-99797785D01*
X119822821Y-99961715D01*
X119822818Y-99961722D01*
X119764327Y-100141740D01*
X119764326Y-100141744D01*
X119744540Y-100330000D01*
X118348514Y-100330000D01*
X118334533Y-100305784D01*
X118207871Y-100165112D01*
X118175708Y-100141744D01*
X118054734Y-100053851D01*
X118054729Y-100053848D01*
X117881807Y-99976857D01*
X117881802Y-99976855D01*
X117733168Y-99945263D01*
X117696646Y-99937500D01*
X117507354Y-99937500D01*
X117474897Y-99944398D01*
X117322197Y-99976855D01*
X117322192Y-99976857D01*
X117149270Y-100053848D01*
X117149265Y-100053851D01*
X116996129Y-100165111D01*
X116869466Y-100305785D01*
X116774821Y-100469715D01*
X116774819Y-100469719D01*
X116739629Y-100578023D01*
X116700191Y-100635698D01*
X116635832Y-100662896D01*
X116578366Y-100655886D01*
X116551085Y-100645711D01*
X116495151Y-100603840D01*
X116471097Y-100542494D01*
X116455674Y-100395744D01*
X116397179Y-100215716D01*
X116302533Y-100051784D01*
X116175871Y-99911112D01*
X116173735Y-99909560D01*
X116022734Y-99799851D01*
X116022729Y-99799848D01*
X115849807Y-99722857D01*
X115849802Y-99722855D01*
X115704001Y-99691865D01*
X115664646Y-99683500D01*
X115475354Y-99683500D01*
X115442897Y-99690398D01*
X115290197Y-99722855D01*
X115290192Y-99722857D01*
X115117270Y-99799848D01*
X115117265Y-99799851D01*
X114964129Y-99911111D01*
X114837466Y-100051785D01*
X114742821Y-100215715D01*
X114742818Y-100215722D01*
X114693248Y-100368284D01*
X114684326Y-100395744D01*
X114681870Y-100419111D01*
X114668902Y-100542491D01*
X114642317Y-100607106D01*
X114588915Y-100645711D01*
X114477669Y-100687203D01*
X114477664Y-100687206D01*
X114362455Y-100773452D01*
X114362452Y-100773455D01*
X114276206Y-100888664D01*
X114276203Y-100888669D01*
X114227189Y-101020083D01*
X114185317Y-101076016D01*
X114119853Y-101100433D01*
X114051580Y-101085581D01*
X114023326Y-101064430D01*
X113901402Y-100942506D01*
X113901395Y-100942501D01*
X113707834Y-100806967D01*
X113707830Y-100806965D01*
X113658899Y-100784148D01*
X113493663Y-100707097D01*
X113493659Y-100707096D01*
X113493655Y-100707094D01*
X113265413Y-100645938D01*
X113265403Y-100645936D01*
X113030001Y-100625341D01*
X113029999Y-100625341D01*
X112794596Y-100645936D01*
X112794586Y-100645938D01*
X112566344Y-100707094D01*
X112566335Y-100707098D01*
X112352171Y-100806964D01*
X112352169Y-100806965D01*
X112158597Y-100942505D01*
X111991505Y-101109597D01*
X111855965Y-101303169D01*
X111855964Y-101303171D01*
X111756098Y-101517335D01*
X111756094Y-101517344D01*
X111694938Y-101745586D01*
X111694936Y-101745596D01*
X111674341Y-101980999D01*
X111674341Y-101981000D01*
X111694936Y-102216403D01*
X111694938Y-102216413D01*
X111756094Y-102444655D01*
X111756096Y-102444659D01*
X111756097Y-102444663D01*
X111789762Y-102516857D01*
X111855965Y-102658830D01*
X111855967Y-102658834D01*
X111957793Y-102804256D01*
X111986872Y-102845785D01*
X111991501Y-102852395D01*
X111991506Y-102852402D01*
X112158597Y-103019493D01*
X112158603Y-103019498D01*
X112344158Y-103149425D01*
X112387783Y-103204002D01*
X112394977Y-103273500D01*
X112363454Y-103335855D01*
X112344158Y-103352575D01*
X112158597Y-103482505D01*
X111991505Y-103649597D01*
X111855965Y-103843169D01*
X111855964Y-103843171D01*
X111756098Y-104057335D01*
X111756094Y-104057344D01*
X111694938Y-104285586D01*
X111694936Y-104285596D01*
X111674341Y-104520999D01*
X111674341Y-104521000D01*
X111694936Y-104756403D01*
X111694938Y-104756413D01*
X111756094Y-104984655D01*
X111756096Y-104984659D01*
X111756097Y-104984663D01*
X111839155Y-105162781D01*
X111855965Y-105198830D01*
X111855967Y-105198834D01*
X111959312Y-105346425D01*
X111991501Y-105392396D01*
X111991506Y-105392402D01*
X112158597Y-105559493D01*
X112158603Y-105559498D01*
X112344158Y-105689425D01*
X112387783Y-105744002D01*
X112394977Y-105813500D01*
X112363454Y-105875855D01*
X112344158Y-105892575D01*
X112158597Y-106022505D01*
X111991505Y-106189597D01*
X111855965Y-106383169D01*
X111855964Y-106383171D01*
X111756098Y-106597335D01*
X111756094Y-106597344D01*
X111694938Y-106825586D01*
X111694936Y-106825596D01*
X111674341Y-107060999D01*
X111674341Y-107061000D01*
X111694936Y-107296403D01*
X111694938Y-107296413D01*
X111756094Y-107524655D01*
X111756096Y-107524659D01*
X111756097Y-107524663D01*
X111839155Y-107702781D01*
X111855965Y-107738830D01*
X111855967Y-107738834D01*
X111934407Y-107850857D01*
X111991501Y-107932396D01*
X111991506Y-107932402D01*
X112158597Y-108099493D01*
X112158603Y-108099498D01*
X112344158Y-108229425D01*
X112387783Y-108284002D01*
X112394977Y-108353500D01*
X112363454Y-108415855D01*
X112344158Y-108432575D01*
X112158597Y-108562505D01*
X111991505Y-108729597D01*
X111855965Y-108923169D01*
X111855964Y-108923171D01*
X111756098Y-109137335D01*
X111756094Y-109137344D01*
X111694938Y-109365586D01*
X111694936Y-109365596D01*
X111674341Y-109600999D01*
X111674341Y-109601000D01*
X111694936Y-109836403D01*
X111694938Y-109836413D01*
X111756094Y-110064655D01*
X111756096Y-110064659D01*
X111756097Y-110064663D01*
X111760000Y-110073032D01*
X111855965Y-110278830D01*
X111855967Y-110278834D01*
X111958144Y-110424756D01*
X111991501Y-110472396D01*
X111991506Y-110472402D01*
X112158597Y-110639493D01*
X112158603Y-110639498D01*
X112344158Y-110769425D01*
X112387783Y-110824002D01*
X112394977Y-110893500D01*
X112363454Y-110955855D01*
X112344158Y-110972575D01*
X112158597Y-111102505D01*
X111991505Y-111269597D01*
X111855965Y-111463169D01*
X111855964Y-111463171D01*
X111756098Y-111677335D01*
X111756094Y-111677344D01*
X111694938Y-111905586D01*
X111694936Y-111905596D01*
X111674341Y-112140999D01*
X111674341Y-112141000D01*
X109982500Y-112141000D01*
X109982500Y-97536000D01*
X152002540Y-97536000D01*
X152022326Y-97724256D01*
X152022327Y-97724259D01*
X152080818Y-97904277D01*
X152080821Y-97904284D01*
X152175467Y-98068216D01*
X152293095Y-98198855D01*
X152302129Y-98208888D01*
X152455265Y-98320148D01*
X152455270Y-98320151D01*
X152628192Y-98397142D01*
X152628197Y-98397144D01*
X152813354Y-98436500D01*
X152813355Y-98436500D01*
X153002644Y-98436500D01*
X153002646Y-98436500D01*
X153187803Y-98397144D01*
X153360730Y-98320151D01*
X153513871Y-98208888D01*
X153640533Y-98068216D01*
X153735179Y-97904284D01*
X153793674Y-97724256D01*
X153813460Y-97536000D01*
X153793674Y-97347744D01*
X153735179Y-97167716D01*
X153640533Y-97003784D01*
X153513871Y-96863112D01*
X153513870Y-96863111D01*
X153360734Y-96751851D01*
X153360729Y-96751848D01*
X153187807Y-96674857D01*
X153187802Y-96674855D01*
X153042001Y-96643865D01*
X153002646Y-96635500D01*
X152813354Y-96635500D01*
X152780897Y-96642398D01*
X152628197Y-96674855D01*
X152628192Y-96674857D01*
X152455270Y-96751848D01*
X152455265Y-96751851D01*
X152302129Y-96863111D01*
X152175466Y-97003785D01*
X152080821Y-97167715D01*
X152080818Y-97167722D01*
X152022327Y-97347740D01*
X152022326Y-97347744D01*
X152002540Y-97536000D01*
X109982500Y-97536000D01*
X109982500Y-95758000D01*
X129904540Y-95758000D01*
X129924326Y-95946256D01*
X129924327Y-95946259D01*
X129982818Y-96126277D01*
X129982821Y-96126284D01*
X130077467Y-96290216D01*
X130204128Y-96430888D01*
X130204129Y-96430888D01*
X130357265Y-96542148D01*
X130357270Y-96542151D01*
X130530192Y-96619142D01*
X130530197Y-96619144D01*
X130715354Y-96658500D01*
X130715355Y-96658500D01*
X130904644Y-96658500D01*
X130904646Y-96658500D01*
X131089803Y-96619144D01*
X131262730Y-96542151D01*
X131415871Y-96430888D01*
X131542533Y-96290216D01*
X131637179Y-96126284D01*
X131695674Y-95946256D01*
X131715460Y-95758000D01*
X131695674Y-95569744D01*
X131637179Y-95389716D01*
X131556514Y-95250000D01*
X145652540Y-95250000D01*
X145672326Y-95438256D01*
X145672327Y-95438259D01*
X145730818Y-95618277D01*
X145730821Y-95618284D01*
X145825467Y-95782216D01*
X145952128Y-95922887D01*
X145952129Y-95922888D01*
X146105265Y-96034148D01*
X146105270Y-96034151D01*
X146278192Y-96111142D01*
X146278197Y-96111144D01*
X146463354Y-96150500D01*
X146463355Y-96150500D01*
X146652644Y-96150500D01*
X146652646Y-96150500D01*
X146837803Y-96111144D01*
X147010730Y-96034151D01*
X147163871Y-95922888D01*
X147290533Y-95782216D01*
X147385179Y-95618284D01*
X147443674Y-95438256D01*
X147463460Y-95250000D01*
X147443674Y-95061744D01*
X147385179Y-94881716D01*
X147290533Y-94717784D01*
X147163871Y-94577112D01*
X147163870Y-94577111D01*
X147010734Y-94465851D01*
X147010729Y-94465848D01*
X146837807Y-94388857D01*
X146837802Y-94388855D01*
X146667150Y-94352583D01*
X146652646Y-94349500D01*
X146463354Y-94349500D01*
X146448850Y-94352583D01*
X146278197Y-94388855D01*
X146278192Y-94388857D01*
X146105270Y-94465848D01*
X146105265Y-94465851D01*
X145952129Y-94577111D01*
X145825466Y-94717785D01*
X145730821Y-94881715D01*
X145730818Y-94881722D01*
X145700884Y-94973851D01*
X145672326Y-95061744D01*
X145652540Y-95250000D01*
X131556514Y-95250000D01*
X131542533Y-95225784D01*
X131415871Y-95085112D01*
X131383708Y-95061744D01*
X131262734Y-94973851D01*
X131262729Y-94973848D01*
X131089807Y-94896857D01*
X131089802Y-94896855D01*
X130944000Y-94865865D01*
X130904646Y-94857500D01*
X130715354Y-94857500D01*
X130682897Y-94864398D01*
X130530197Y-94896855D01*
X130530192Y-94896857D01*
X130357270Y-94973848D01*
X130357265Y-94973851D01*
X130204129Y-95085111D01*
X130077466Y-95225785D01*
X129982821Y-95389715D01*
X129982818Y-95389722D01*
X129924327Y-95569740D01*
X129924326Y-95569744D01*
X129904540Y-95758000D01*
X109982500Y-95758000D01*
X109982500Y-93984299D01*
X123804241Y-93984299D01*
X123824027Y-94172555D01*
X123824028Y-94172558D01*
X123882519Y-94352576D01*
X123882522Y-94352583D01*
X123977168Y-94516515D01*
X124031729Y-94577111D01*
X124103830Y-94657187D01*
X124256966Y-94768447D01*
X124256971Y-94768450D01*
X124429893Y-94845441D01*
X124429898Y-94845443D01*
X124615055Y-94884799D01*
X124615056Y-94884799D01*
X124804345Y-94884799D01*
X124804347Y-94884799D01*
X124989504Y-94845443D01*
X125162431Y-94768450D01*
X125315572Y-94657187D01*
X125442234Y-94516515D01*
X125536880Y-94352583D01*
X125595375Y-94172555D01*
X125615161Y-93984299D01*
X125614709Y-93980000D01*
X155050540Y-93980000D01*
X155070326Y-94168256D01*
X155070327Y-94168259D01*
X155128818Y-94348277D01*
X155128821Y-94348284D01*
X155223467Y-94512216D01*
X155281899Y-94577111D01*
X155350129Y-94652888D01*
X155503265Y-94764148D01*
X155503270Y-94764151D01*
X155676192Y-94841142D01*
X155676197Y-94841144D01*
X155861354Y-94880500D01*
X155861355Y-94880500D01*
X156050644Y-94880500D01*
X156050646Y-94880500D01*
X156235803Y-94841144D01*
X156408730Y-94764151D01*
X156561871Y-94652888D01*
X156688533Y-94512216D01*
X156783179Y-94348284D01*
X156841674Y-94168256D01*
X156861460Y-93980000D01*
X156850205Y-93872914D01*
X156862773Y-93804190D01*
X156910505Y-93753165D01*
X156978245Y-93736047D01*
X157023961Y-93746678D01*
X157200192Y-93825142D01*
X157200197Y-93825144D01*
X157385354Y-93864500D01*
X157385355Y-93864500D01*
X157574644Y-93864500D01*
X157574646Y-93864500D01*
X157759803Y-93825144D01*
X157932730Y-93748151D01*
X158085871Y-93636888D01*
X158212533Y-93496216D01*
X158307179Y-93332284D01*
X158365674Y-93152256D01*
X158385460Y-92964000D01*
X158365674Y-92775744D01*
X158307179Y-92595716D01*
X158212533Y-92431784D01*
X158085871Y-92291112D01*
X158085870Y-92291111D01*
X157932734Y-92179851D01*
X157932729Y-92179848D01*
X157759807Y-92102857D01*
X157759802Y-92102855D01*
X157614001Y-92071865D01*
X157574646Y-92063500D01*
X157385354Y-92063500D01*
X157352897Y-92070398D01*
X157200197Y-92102855D01*
X157200192Y-92102857D01*
X157027270Y-92179848D01*
X157027265Y-92179851D01*
X156874129Y-92291111D01*
X156747466Y-92431785D01*
X156652821Y-92595715D01*
X156652818Y-92595722D01*
X156594327Y-92775740D01*
X156594326Y-92775744D01*
X156574540Y-92964000D01*
X156585794Y-93071082D01*
X156573226Y-93139810D01*
X156525494Y-93190834D01*
X156457753Y-93207952D01*
X156412038Y-93197321D01*
X156235807Y-93118857D01*
X156235802Y-93118855D01*
X156070871Y-93083799D01*
X156050646Y-93079500D01*
X155861354Y-93079500D01*
X155841129Y-93083799D01*
X155676197Y-93118855D01*
X155676192Y-93118857D01*
X155503270Y-93195848D01*
X155503265Y-93195851D01*
X155350129Y-93307111D01*
X155223466Y-93447785D01*
X155128821Y-93611715D01*
X155128818Y-93611722D01*
X155084491Y-93748148D01*
X155070326Y-93791744D01*
X155050540Y-93980000D01*
X125614709Y-93980000D01*
X125595375Y-93796043D01*
X125536880Y-93616015D01*
X125442234Y-93452083D01*
X125315572Y-93311411D01*
X125309654Y-93307111D01*
X125162435Y-93200150D01*
X125162430Y-93200147D01*
X124989508Y-93123156D01*
X124989503Y-93123154D01*
X124843701Y-93092164D01*
X124804347Y-93083799D01*
X124615055Y-93083799D01*
X124582598Y-93090697D01*
X124429898Y-93123154D01*
X124429893Y-93123156D01*
X124256971Y-93200147D01*
X124256966Y-93200150D01*
X124103830Y-93311410D01*
X123977167Y-93452084D01*
X123882522Y-93616014D01*
X123882519Y-93616021D01*
X123839589Y-93748148D01*
X123824027Y-93796043D01*
X123804241Y-93984299D01*
X109982500Y-93984299D01*
X109982500Y-92964000D01*
X131682540Y-92964000D01*
X131702326Y-93152256D01*
X131702327Y-93152258D01*
X131702327Y-93152259D01*
X131760818Y-93332277D01*
X131760821Y-93332284D01*
X131855467Y-93496216D01*
X131963334Y-93616014D01*
X131982129Y-93636888D01*
X132135265Y-93748148D01*
X132135270Y-93748151D01*
X132308192Y-93825142D01*
X132308197Y-93825144D01*
X132493354Y-93864500D01*
X132493355Y-93864500D01*
X132682644Y-93864500D01*
X132682646Y-93864500D01*
X132867803Y-93825144D01*
X133040730Y-93748151D01*
X133193871Y-93636888D01*
X133320533Y-93496216D01*
X133415179Y-93332284D01*
X133473674Y-93152256D01*
X133477076Y-93119879D01*
X133503658Y-93055269D01*
X133560954Y-93015283D01*
X133630773Y-93012621D01*
X133653044Y-93021658D01*
X133653334Y-93021008D01*
X133832192Y-93100642D01*
X133832197Y-93100644D01*
X134017354Y-93140000D01*
X134017355Y-93140000D01*
X134206644Y-93140000D01*
X134206646Y-93140000D01*
X134391803Y-93100644D01*
X134564730Y-93023651D01*
X134717871Y-92912388D01*
X134844533Y-92771716D01*
X134939179Y-92607784D01*
X134997674Y-92427756D01*
X135017460Y-92239500D01*
X134997674Y-92051244D01*
X134939179Y-91871216D01*
X134844533Y-91707284D01*
X134717871Y-91566612D01*
X134717870Y-91566611D01*
X134564734Y-91455351D01*
X134564729Y-91455348D01*
X134391807Y-91378357D01*
X134391802Y-91378355D01*
X134246000Y-91347365D01*
X134206646Y-91339000D01*
X134017354Y-91339000D01*
X133984897Y-91345898D01*
X133832197Y-91378355D01*
X133832192Y-91378357D01*
X133659270Y-91455348D01*
X133659265Y-91455351D01*
X133506129Y-91566611D01*
X133379466Y-91707285D01*
X133284821Y-91871215D01*
X133284818Y-91871222D01*
X133226327Y-92051240D01*
X133226326Y-92051244D01*
X133222923Y-92083619D01*
X133196339Y-92148233D01*
X133139042Y-92188217D01*
X133069223Y-92190877D01*
X133046955Y-92181842D01*
X133046666Y-92182492D01*
X132867807Y-92102857D01*
X132867802Y-92102855D01*
X132722001Y-92071865D01*
X132682646Y-92063500D01*
X132493354Y-92063500D01*
X132460897Y-92070398D01*
X132308197Y-92102855D01*
X132308192Y-92102857D01*
X132135270Y-92179848D01*
X132135265Y-92179851D01*
X131982129Y-92291111D01*
X131855466Y-92431785D01*
X131760821Y-92595715D01*
X131760818Y-92595722D01*
X131702327Y-92775740D01*
X131702326Y-92775744D01*
X131682540Y-92964000D01*
X109982500Y-92964000D01*
X109982500Y-90932000D01*
X120506540Y-90932000D01*
X120526326Y-91120256D01*
X120526327Y-91120259D01*
X120584818Y-91300277D01*
X120584821Y-91300284D01*
X120679467Y-91464216D01*
X120771664Y-91566611D01*
X120806129Y-91604888D01*
X120959265Y-91716148D01*
X120959270Y-91716151D01*
X121132192Y-91793142D01*
X121132197Y-91793144D01*
X121317354Y-91832500D01*
X121317355Y-91832500D01*
X121506644Y-91832500D01*
X121506646Y-91832500D01*
X121691803Y-91793144D01*
X121864730Y-91716151D01*
X122017871Y-91604888D01*
X122144533Y-91464216D01*
X122239179Y-91300284D01*
X122297674Y-91120256D01*
X122317460Y-90932000D01*
X122297674Y-90743744D01*
X122239179Y-90563716D01*
X122196491Y-90489779D01*
X122180019Y-90421879D01*
X122202872Y-90355853D01*
X122257793Y-90312662D01*
X122278080Y-90306494D01*
X122453803Y-90269144D01*
X122453807Y-90269142D01*
X122453808Y-90269142D01*
X122512058Y-90243206D01*
X122626730Y-90192151D01*
X122779871Y-90080888D01*
X122906533Y-89940216D01*
X123001179Y-89776284D01*
X123016618Y-89728767D01*
X126865302Y-89728767D01*
X126885088Y-89917023D01*
X126885089Y-89917026D01*
X126943580Y-90097044D01*
X126943583Y-90097051D01*
X127038229Y-90260983D01*
X127104774Y-90334888D01*
X127164891Y-90401655D01*
X127318027Y-90512915D01*
X127318032Y-90512918D01*
X127490954Y-90589909D01*
X127490959Y-90589911D01*
X127676116Y-90629267D01*
X127676117Y-90629267D01*
X127865406Y-90629267D01*
X127865408Y-90629267D01*
X128050565Y-90589911D01*
X128223492Y-90512918D01*
X128376633Y-90401655D01*
X128503295Y-90260983D01*
X128597941Y-90097051D01*
X128656436Y-89917023D01*
X128676222Y-89728767D01*
X128669205Y-89662000D01*
X146668540Y-89662000D01*
X146688326Y-89850256D01*
X146688327Y-89850259D01*
X146746818Y-90030277D01*
X146746821Y-90030284D01*
X146841467Y-90194216D01*
X146944369Y-90308500D01*
X146968129Y-90334888D01*
X147121265Y-90446148D01*
X147121270Y-90446151D01*
X147294192Y-90523142D01*
X147294197Y-90523144D01*
X147479354Y-90562500D01*
X147479355Y-90562500D01*
X147668644Y-90562500D01*
X147668646Y-90562500D01*
X147853803Y-90523144D01*
X148026730Y-90446151D01*
X148179871Y-90334888D01*
X148306533Y-90194216D01*
X148401179Y-90030284D01*
X148459674Y-89850256D01*
X148479460Y-89662000D01*
X148459674Y-89473744D01*
X148401179Y-89293716D01*
X148306533Y-89129784D01*
X148179871Y-88989112D01*
X148179870Y-88989111D01*
X148026734Y-88877851D01*
X148026729Y-88877848D01*
X147853807Y-88800857D01*
X147853802Y-88800855D01*
X147708000Y-88769865D01*
X147668646Y-88761500D01*
X147479354Y-88761500D01*
X147446897Y-88768398D01*
X147294197Y-88800855D01*
X147294192Y-88800857D01*
X147121270Y-88877848D01*
X147121265Y-88877851D01*
X146968129Y-88989111D01*
X146841466Y-89129785D01*
X146746821Y-89293715D01*
X146746818Y-89293722D01*
X146688327Y-89473740D01*
X146688326Y-89473744D01*
X146668540Y-89662000D01*
X128669205Y-89662000D01*
X128656436Y-89540511D01*
X128597941Y-89360483D01*
X128503295Y-89196551D01*
X128376633Y-89055879D01*
X128354395Y-89039722D01*
X128223496Y-88944618D01*
X128223491Y-88944615D01*
X128050569Y-88867624D01*
X128050564Y-88867622D01*
X127904763Y-88836632D01*
X127865408Y-88828267D01*
X127676116Y-88828267D01*
X127643659Y-88835165D01*
X127490959Y-88867622D01*
X127490954Y-88867624D01*
X127318032Y-88944615D01*
X127318027Y-88944618D01*
X127164891Y-89055878D01*
X127038228Y-89196552D01*
X126943583Y-89360482D01*
X126943580Y-89360489D01*
X126885089Y-89540507D01*
X126885088Y-89540511D01*
X126865302Y-89728767D01*
X123016618Y-89728767D01*
X123059674Y-89596256D01*
X123079460Y-89408000D01*
X123059674Y-89219744D01*
X123001179Y-89039716D01*
X122906533Y-88875784D01*
X122779871Y-88735112D01*
X122779870Y-88735111D01*
X122626734Y-88623851D01*
X122626729Y-88623848D01*
X122453807Y-88546857D01*
X122453802Y-88546855D01*
X122308000Y-88515865D01*
X122268646Y-88507500D01*
X122079354Y-88507500D01*
X122046897Y-88514398D01*
X121894197Y-88546855D01*
X121894192Y-88546857D01*
X121721270Y-88623848D01*
X121721265Y-88623851D01*
X121568129Y-88735111D01*
X121441466Y-88875785D01*
X121346821Y-89039715D01*
X121346818Y-89039722D01*
X121288327Y-89219740D01*
X121288326Y-89219744D01*
X121268540Y-89408000D01*
X121288326Y-89596256D01*
X121288327Y-89596259D01*
X121346818Y-89776277D01*
X121346820Y-89776281D01*
X121346821Y-89776284D01*
X121389508Y-89850220D01*
X121405980Y-89918120D01*
X121383127Y-89984147D01*
X121328205Y-90027337D01*
X121307901Y-90033509D01*
X121132197Y-90070855D01*
X121132192Y-90070857D01*
X120959270Y-90147848D01*
X120959265Y-90147851D01*
X120806129Y-90259111D01*
X120679466Y-90399785D01*
X120584821Y-90563715D01*
X120584818Y-90563722D01*
X120526327Y-90743740D01*
X120526326Y-90743744D01*
X120506540Y-90932000D01*
X109982500Y-90932000D01*
X109982500Y-87884000D01*
X112632540Y-87884000D01*
X112652326Y-88072256D01*
X112652327Y-88072259D01*
X112710818Y-88252277D01*
X112710821Y-88252284D01*
X112805467Y-88416216D01*
X112886559Y-88506277D01*
X112932129Y-88556888D01*
X113085265Y-88668148D01*
X113085270Y-88668151D01*
X113258192Y-88745142D01*
X113258197Y-88745144D01*
X113443354Y-88784500D01*
X113443355Y-88784500D01*
X113632644Y-88784500D01*
X113632646Y-88784500D01*
X113817803Y-88745144D01*
X113990730Y-88668151D01*
X114143871Y-88556888D01*
X114270533Y-88416216D01*
X114365179Y-88252284D01*
X114402312Y-88138000D01*
X117458540Y-88138000D01*
X117478326Y-88326256D01*
X117478327Y-88326259D01*
X117536818Y-88506277D01*
X117536821Y-88506284D01*
X117631467Y-88670216D01*
X117689899Y-88735111D01*
X117758129Y-88810888D01*
X117911265Y-88922148D01*
X117911270Y-88922151D01*
X118084192Y-88999142D01*
X118084197Y-88999144D01*
X118269354Y-89038500D01*
X118269355Y-89038500D01*
X118458644Y-89038500D01*
X118458646Y-89038500D01*
X118643803Y-88999144D01*
X118816730Y-88922151D01*
X118969871Y-88810888D01*
X119096533Y-88670216D01*
X119191179Y-88506284D01*
X119249674Y-88326256D01*
X119269460Y-88138000D01*
X119249674Y-87949744D01*
X119191179Y-87769716D01*
X119096533Y-87605784D01*
X118969871Y-87465112D01*
X118969870Y-87465111D01*
X118816734Y-87353851D01*
X118816729Y-87353848D01*
X118643807Y-87276857D01*
X118643802Y-87276855D01*
X118498001Y-87245865D01*
X118458646Y-87237500D01*
X118269354Y-87237500D01*
X118236897Y-87244398D01*
X118084197Y-87276855D01*
X118084192Y-87276857D01*
X117911270Y-87353848D01*
X117911265Y-87353851D01*
X117758129Y-87465111D01*
X117631466Y-87605785D01*
X117536821Y-87769715D01*
X117536818Y-87769722D01*
X117478327Y-87949740D01*
X117478326Y-87949744D01*
X117458540Y-88138000D01*
X114402312Y-88138000D01*
X114423674Y-88072256D01*
X114443460Y-87884000D01*
X114423674Y-87695744D01*
X114365179Y-87515716D01*
X114270533Y-87351784D01*
X114143871Y-87211112D01*
X114143870Y-87211111D01*
X113990734Y-87099851D01*
X113990729Y-87099848D01*
X113817807Y-87022857D01*
X113817802Y-87022855D01*
X113672001Y-86991865D01*
X113632646Y-86983500D01*
X113443354Y-86983500D01*
X113410897Y-86990398D01*
X113258197Y-87022855D01*
X113258192Y-87022857D01*
X113085270Y-87099848D01*
X113085265Y-87099851D01*
X112932129Y-87211111D01*
X112805466Y-87351785D01*
X112710821Y-87515715D01*
X112710818Y-87515722D01*
X112652327Y-87695740D01*
X112652326Y-87695744D01*
X112632540Y-87884000D01*
X109982500Y-87884000D01*
X109982500Y-85852000D01*
X123046540Y-85852000D01*
X123066326Y-86040256D01*
X123066327Y-86040259D01*
X123124818Y-86220277D01*
X123124821Y-86220284D01*
X123219467Y-86384216D01*
X123346129Y-86524887D01*
X123346129Y-86524888D01*
X123499265Y-86636148D01*
X123499270Y-86636151D01*
X123672192Y-86713142D01*
X123672197Y-86713144D01*
X123857354Y-86752500D01*
X123857355Y-86752500D01*
X124046644Y-86752500D01*
X124046646Y-86752500D01*
X124231803Y-86713144D01*
X124404730Y-86636151D01*
X124435218Y-86614000D01*
X129396540Y-86614000D01*
X129416326Y-86802256D01*
X129416327Y-86802259D01*
X129474818Y-86982277D01*
X129474821Y-86982284D01*
X129569467Y-87146216D01*
X129627899Y-87211111D01*
X129696129Y-87286888D01*
X129849265Y-87398148D01*
X129849270Y-87398151D01*
X130022192Y-87475142D01*
X130022197Y-87475144D01*
X130207354Y-87514500D01*
X130207355Y-87514500D01*
X130396644Y-87514500D01*
X130396646Y-87514500D01*
X130581803Y-87475144D01*
X130754730Y-87398151D01*
X130907871Y-87286888D01*
X131034533Y-87146216D01*
X131129179Y-86982284D01*
X131187674Y-86802256D01*
X131207460Y-86614000D01*
X131187674Y-86425744D01*
X131129179Y-86245716D01*
X131084308Y-86167996D01*
X131067836Y-86100100D01*
X131084307Y-86044003D01*
X131129179Y-85966284D01*
X131187674Y-85786256D01*
X131207460Y-85598000D01*
X131187674Y-85409744D01*
X131129179Y-85229716D01*
X131034533Y-85065784D01*
X130907871Y-84925112D01*
X130907870Y-84925111D01*
X130754734Y-84813851D01*
X130754729Y-84813848D01*
X130581807Y-84736857D01*
X130581802Y-84736855D01*
X130436000Y-84705865D01*
X130396646Y-84697500D01*
X130207354Y-84697500D01*
X130174897Y-84704398D01*
X130022197Y-84736855D01*
X130022192Y-84736857D01*
X129849270Y-84813848D01*
X129849265Y-84813851D01*
X129696129Y-84925111D01*
X129569466Y-85065785D01*
X129474821Y-85229715D01*
X129474818Y-85229722D01*
X129430491Y-85366148D01*
X129416326Y-85409744D01*
X129396540Y-85598000D01*
X129416326Y-85786256D01*
X129416327Y-85786259D01*
X129474821Y-85966285D01*
X129519689Y-86043999D01*
X129536162Y-86111899D01*
X129519690Y-86167998D01*
X129474820Y-86245715D01*
X129429819Y-86384216D01*
X129416326Y-86425744D01*
X129396540Y-86614000D01*
X124435218Y-86614000D01*
X124557871Y-86524888D01*
X124684533Y-86384216D01*
X124779179Y-86220284D01*
X124837674Y-86040256D01*
X124857460Y-85852000D01*
X124837674Y-85663744D01*
X124779179Y-85483716D01*
X124698514Y-85344000D01*
X126602540Y-85344000D01*
X126622326Y-85532256D01*
X126622327Y-85532259D01*
X126680818Y-85712277D01*
X126680821Y-85712284D01*
X126775467Y-85876216D01*
X126856565Y-85966284D01*
X126902129Y-86016888D01*
X127055265Y-86128148D01*
X127055270Y-86128151D01*
X127228192Y-86205142D01*
X127228197Y-86205144D01*
X127413354Y-86244500D01*
X127413355Y-86244500D01*
X127602644Y-86244500D01*
X127602646Y-86244500D01*
X127787803Y-86205144D01*
X127960730Y-86128151D01*
X128113871Y-86016888D01*
X128240533Y-85876216D01*
X128335179Y-85712284D01*
X128393674Y-85532256D01*
X128413460Y-85344000D01*
X128393674Y-85155744D01*
X128335179Y-84975716D01*
X128258409Y-84842747D01*
X128241937Y-84774849D01*
X128264790Y-84708822D01*
X128315361Y-84667470D01*
X128356881Y-84648983D01*
X128477682Y-84595199D01*
X128495849Y-84582000D01*
X138286540Y-84582000D01*
X138306326Y-84770256D01*
X138306327Y-84770259D01*
X138364818Y-84950277D01*
X138364821Y-84950284D01*
X138459467Y-85114216D01*
X138586128Y-85254888D01*
X138586129Y-85254888D01*
X138739265Y-85366148D01*
X138739270Y-85366151D01*
X138912192Y-85443142D01*
X138912197Y-85443144D01*
X139097354Y-85482500D01*
X139097355Y-85482500D01*
X139286644Y-85482500D01*
X139286646Y-85482500D01*
X139471803Y-85443144D01*
X139644730Y-85366151D01*
X139797871Y-85254888D01*
X139924533Y-85114216D01*
X140019179Y-84950284D01*
X140077674Y-84770256D01*
X140097460Y-84582000D01*
X140077674Y-84393744D01*
X140019179Y-84213716D01*
X139924533Y-84049784D01*
X139797871Y-83909112D01*
X139797870Y-83909111D01*
X139644734Y-83797851D01*
X139644729Y-83797848D01*
X139471807Y-83720857D01*
X139471802Y-83720855D01*
X139326000Y-83689865D01*
X139286646Y-83681500D01*
X139097354Y-83681500D01*
X139064897Y-83688398D01*
X138912197Y-83720855D01*
X138912192Y-83720857D01*
X138739270Y-83797848D01*
X138739265Y-83797851D01*
X138586129Y-83909111D01*
X138459466Y-84049785D01*
X138364821Y-84213715D01*
X138364818Y-84213722D01*
X138322728Y-84343264D01*
X138306326Y-84393744D01*
X138286540Y-84582000D01*
X128495849Y-84582000D01*
X128630823Y-84483936D01*
X128757485Y-84343264D01*
X128852131Y-84179332D01*
X128910626Y-83999304D01*
X128930412Y-83811048D01*
X128910626Y-83622792D01*
X128852131Y-83442764D01*
X128757485Y-83278832D01*
X128630823Y-83138160D01*
X128630822Y-83138159D01*
X128477686Y-83026899D01*
X128477681Y-83026896D01*
X128304759Y-82949905D01*
X128304754Y-82949903D01*
X128158953Y-82918913D01*
X128119598Y-82910548D01*
X127930306Y-82910548D01*
X127897849Y-82917446D01*
X127745149Y-82949903D01*
X127745144Y-82949905D01*
X127572222Y-83026896D01*
X127572217Y-83026899D01*
X127419081Y-83138159D01*
X127292418Y-83278833D01*
X127197773Y-83442763D01*
X127197770Y-83442770D01*
X127139279Y-83622788D01*
X127139278Y-83622792D01*
X127119492Y-83811048D01*
X127139278Y-83999304D01*
X127139279Y-83999307D01*
X127197770Y-84179325D01*
X127197773Y-84179332D01*
X127274541Y-84312298D01*
X127291014Y-84380198D01*
X127268161Y-84446225D01*
X127217591Y-84487577D01*
X127055267Y-84559850D01*
X127055265Y-84559851D01*
X126902129Y-84671111D01*
X126775466Y-84811785D01*
X126680821Y-84975715D01*
X126680818Y-84975722D01*
X126650884Y-85067851D01*
X126622326Y-85155744D01*
X126602540Y-85344000D01*
X124698514Y-85344000D01*
X124684533Y-85319784D01*
X124557871Y-85179112D01*
X124525708Y-85155744D01*
X124404734Y-85067851D01*
X124404729Y-85067848D01*
X124231807Y-84990857D01*
X124231802Y-84990855D01*
X124086001Y-84959865D01*
X124046646Y-84951500D01*
X123857354Y-84951500D01*
X123824897Y-84958398D01*
X123672197Y-84990855D01*
X123672192Y-84990857D01*
X123499270Y-85067848D01*
X123499265Y-85067851D01*
X123346129Y-85179111D01*
X123219466Y-85319785D01*
X123124821Y-85483715D01*
X123124818Y-85483722D01*
X123066327Y-85663740D01*
X123066326Y-85663744D01*
X123046540Y-85852000D01*
X109982500Y-85852000D01*
X109982500Y-83058000D01*
X120252540Y-83058000D01*
X120272326Y-83246256D01*
X120272327Y-83246259D01*
X120330818Y-83426277D01*
X120330821Y-83426284D01*
X120425467Y-83590216D01*
X120454799Y-83622792D01*
X120552129Y-83730888D01*
X120705265Y-83842148D01*
X120705270Y-83842151D01*
X120878192Y-83919142D01*
X120878197Y-83919144D01*
X121063354Y-83958500D01*
X121063355Y-83958500D01*
X121252644Y-83958500D01*
X121252646Y-83958500D01*
X121437803Y-83919144D01*
X121610730Y-83842151D01*
X121763871Y-83730888D01*
X121890533Y-83590216D01*
X121985179Y-83426284D01*
X122043674Y-83246256D01*
X122063460Y-83058000D01*
X122043674Y-82869744D01*
X121985179Y-82689716D01*
X121890533Y-82525784D01*
X121763871Y-82385112D01*
X121763870Y-82385111D01*
X121610734Y-82273851D01*
X121610729Y-82273848D01*
X121437807Y-82196857D01*
X121437802Y-82196855D01*
X121292000Y-82165865D01*
X121252646Y-82157500D01*
X121063354Y-82157500D01*
X121030897Y-82164398D01*
X120878197Y-82196855D01*
X120878192Y-82196857D01*
X120705270Y-82273848D01*
X120705265Y-82273851D01*
X120552129Y-82385111D01*
X120425466Y-82525785D01*
X120330821Y-82689715D01*
X120330818Y-82689722D01*
X120272327Y-82869740D01*
X120272326Y-82869744D01*
X120252540Y-83058000D01*
X109982500Y-83058000D01*
X109982500Y-81534000D01*
X118474540Y-81534000D01*
X118494326Y-81722256D01*
X118494327Y-81722259D01*
X118552818Y-81902277D01*
X118552821Y-81902284D01*
X118647467Y-82066216D01*
X118729660Y-82157500D01*
X118774129Y-82206888D01*
X118927265Y-82318148D01*
X118927270Y-82318151D01*
X119100192Y-82395142D01*
X119100197Y-82395144D01*
X119285354Y-82434500D01*
X119285355Y-82434500D01*
X119474644Y-82434500D01*
X119474646Y-82434500D01*
X119659803Y-82395144D01*
X119832730Y-82318151D01*
X119985871Y-82206888D01*
X120112533Y-82066216D01*
X120207179Y-81902284D01*
X120265674Y-81722256D01*
X120285460Y-81534000D01*
X120265674Y-81345744D01*
X120207179Y-81165716D01*
X120112533Y-81001784D01*
X119985871Y-80861112D01*
X119985870Y-80861111D01*
X119832734Y-80749851D01*
X119832729Y-80749848D01*
X119659807Y-80672857D01*
X119659802Y-80672855D01*
X119514001Y-80641865D01*
X119474646Y-80633500D01*
X119285354Y-80633500D01*
X119252897Y-80640398D01*
X119100197Y-80672855D01*
X119100192Y-80672857D01*
X118927270Y-80749848D01*
X118927265Y-80749851D01*
X118774129Y-80861111D01*
X118647466Y-81001785D01*
X118552821Y-81165715D01*
X118552818Y-81165722D01*
X118494327Y-81345740D01*
X118494326Y-81345744D01*
X118474540Y-81534000D01*
X109982500Y-81534000D01*
X109982500Y-80010000D01*
X116696540Y-80010000D01*
X116716326Y-80198256D01*
X116716327Y-80198259D01*
X116774818Y-80378277D01*
X116774821Y-80378284D01*
X116869467Y-80542216D01*
X116951660Y-80633500D01*
X116996129Y-80682888D01*
X117149265Y-80794148D01*
X117149270Y-80794151D01*
X117322192Y-80871142D01*
X117322197Y-80871144D01*
X117507354Y-80910500D01*
X117507355Y-80910500D01*
X117696644Y-80910500D01*
X117696646Y-80910500D01*
X117881803Y-80871144D01*
X118054730Y-80794151D01*
X118207871Y-80682888D01*
X118334533Y-80542216D01*
X118429179Y-80378284D01*
X118487674Y-80198256D01*
X118507460Y-80010000D01*
X118487674Y-79821744D01*
X118431179Y-79647870D01*
X124489500Y-79647870D01*
X124489501Y-79647876D01*
X124495908Y-79707483D01*
X124546202Y-79842328D01*
X124546206Y-79842335D01*
X124632452Y-79957544D01*
X124632455Y-79957547D01*
X124747664Y-80043793D01*
X124747671Y-80043797D01*
X124882517Y-80094091D01*
X124882516Y-80094091D01*
X124889444Y-80094835D01*
X124942127Y-80100500D01*
X127237872Y-80100499D01*
X127297483Y-80094091D01*
X127432331Y-80043796D01*
X127547546Y-79957546D01*
X127604928Y-79880893D01*
X127660860Y-79839024D01*
X127730552Y-79834040D01*
X127768983Y-79849479D01*
X127901140Y-79930466D01*
X128093154Y-80010000D01*
X128133889Y-80026873D01*
X128378852Y-80085683D01*
X128630000Y-80105449D01*
X128881148Y-80085683D01*
X129126111Y-80026873D01*
X129358859Y-79930466D01*
X129573659Y-79798836D01*
X129765224Y-79635224D01*
X129805710Y-79587819D01*
X129864216Y-79549627D01*
X129934084Y-79549128D01*
X129993130Y-79586482D01*
X129994235Y-79587756D01*
X130034772Y-79635219D01*
X130034776Y-79635224D01*
X130226343Y-79798838D01*
X130226346Y-79798839D01*
X130441140Y-79930466D01*
X130633154Y-80010000D01*
X130673889Y-80026873D01*
X130918852Y-80085683D01*
X131170000Y-80105449D01*
X131421148Y-80085683D01*
X131666111Y-80026873D01*
X131898859Y-79930466D01*
X132113659Y-79798836D01*
X132305224Y-79635224D01*
X132345709Y-79587820D01*
X132404215Y-79549628D01*
X132474083Y-79549128D01*
X132533130Y-79586481D01*
X132534211Y-79587728D01*
X132574772Y-79635219D01*
X132574776Y-79635224D01*
X132766343Y-79798838D01*
X132766346Y-79798839D01*
X132981140Y-79930466D01*
X133173154Y-80010000D01*
X133213889Y-80026873D01*
X133458852Y-80085683D01*
X133710000Y-80105449D01*
X133961148Y-80085683D01*
X134206111Y-80026873D01*
X134438859Y-79930466D01*
X134653659Y-79798836D01*
X134845224Y-79635224D01*
X134885710Y-79587819D01*
X134944216Y-79549627D01*
X135014084Y-79549128D01*
X135073130Y-79586482D01*
X135074235Y-79587756D01*
X135114772Y-79635219D01*
X135114776Y-79635224D01*
X135306343Y-79798838D01*
X135306346Y-79798839D01*
X135521140Y-79930466D01*
X135713154Y-80010000D01*
X135753889Y-80026873D01*
X135998852Y-80085683D01*
X136250000Y-80105449D01*
X136501148Y-80085683D01*
X136746111Y-80026873D01*
X136978859Y-79930466D01*
X137193659Y-79798836D01*
X137385224Y-79635224D01*
X137425710Y-79587819D01*
X137484216Y-79549627D01*
X137554084Y-79549128D01*
X137613130Y-79586482D01*
X137614235Y-79587756D01*
X137654772Y-79635219D01*
X137654776Y-79635224D01*
X137846343Y-79798838D01*
X137846346Y-79798839D01*
X138061140Y-79930466D01*
X138253154Y-80010000D01*
X138293889Y-80026873D01*
X138538852Y-80085683D01*
X138790000Y-80105449D01*
X139041148Y-80085683D01*
X139286111Y-80026873D01*
X139518859Y-79930466D01*
X139733659Y-79798836D01*
X139925224Y-79635224D01*
X139965710Y-79587819D01*
X140024216Y-79549627D01*
X140094084Y-79549128D01*
X140153130Y-79586482D01*
X140154235Y-79587756D01*
X140194772Y-79635219D01*
X140194776Y-79635224D01*
X140386343Y-79798838D01*
X140386346Y-79798839D01*
X140601140Y-79930466D01*
X140793154Y-80010000D01*
X140833889Y-80026873D01*
X141078852Y-80085683D01*
X141330000Y-80105449D01*
X141581148Y-80085683D01*
X141826111Y-80026873D01*
X142058859Y-79930466D01*
X142273659Y-79798836D01*
X142465224Y-79635224D01*
X142505710Y-79587819D01*
X142564216Y-79549627D01*
X142634084Y-79549128D01*
X142693130Y-79586482D01*
X142694235Y-79587756D01*
X142734772Y-79635219D01*
X142734776Y-79635224D01*
X142926343Y-79798838D01*
X142926346Y-79798839D01*
X143141140Y-79930466D01*
X143333154Y-80010000D01*
X143373889Y-80026873D01*
X143618852Y-80085683D01*
X143870000Y-80105449D01*
X144121148Y-80085683D01*
X144366111Y-80026873D01*
X144598859Y-79930466D01*
X144813659Y-79798836D01*
X144990417Y-79647870D01*
X148379500Y-79647870D01*
X148379501Y-79647876D01*
X148385908Y-79707483D01*
X148436202Y-79842328D01*
X148436206Y-79842335D01*
X148522452Y-79957544D01*
X148522455Y-79957547D01*
X148637664Y-80043793D01*
X148637671Y-80043797D01*
X148772517Y-80094091D01*
X148772516Y-80094091D01*
X148779444Y-80094835D01*
X148832127Y-80100500D01*
X151127872Y-80100499D01*
X151187483Y-80094091D01*
X151322331Y-80043796D01*
X151437546Y-79957546D01*
X151494928Y-79880893D01*
X151550860Y-79839024D01*
X151620552Y-79834040D01*
X151658983Y-79849479D01*
X151791140Y-79930466D01*
X151983154Y-80010000D01*
X152023889Y-80026873D01*
X152268852Y-80085683D01*
X152520000Y-80105449D01*
X152771148Y-80085683D01*
X153016111Y-80026873D01*
X153248859Y-79930466D01*
X153463659Y-79798836D01*
X153655224Y-79635224D01*
X153818836Y-79443659D01*
X153950466Y-79228859D01*
X154046873Y-78996111D01*
X154105683Y-78751148D01*
X154125449Y-78500000D01*
X154105683Y-78248852D01*
X154046873Y-78003889D01*
X154010168Y-77915274D01*
X153950466Y-77771140D01*
X153818839Y-77556346D01*
X153818838Y-77556343D01*
X153728755Y-77450870D01*
X153655224Y-77364776D01*
X153491206Y-77224691D01*
X153463656Y-77201161D01*
X153463653Y-77201160D01*
X153248859Y-77069533D01*
X153016110Y-76973126D01*
X152837066Y-76930142D01*
X152771148Y-76914317D01*
X152646210Y-76904484D01*
X152612147Y-76901803D01*
X152546859Y-76876918D01*
X152519713Y-76840110D01*
X152501364Y-76870091D01*
X152438462Y-76900505D01*
X152427852Y-76901803D01*
X152380915Y-76905497D01*
X152268852Y-76914317D01*
X152268847Y-76914318D01*
X152268848Y-76914318D01*
X152023889Y-76973126D01*
X151791140Y-77069533D01*
X151658983Y-77150520D01*
X151591537Y-77168765D01*
X151524935Y-77147649D01*
X151494927Y-77119104D01*
X151437547Y-77042455D01*
X151437544Y-77042452D01*
X151322335Y-76956206D01*
X151322328Y-76956202D01*
X151187482Y-76905908D01*
X151187483Y-76905908D01*
X151127883Y-76899501D01*
X151127881Y-76899500D01*
X151127873Y-76899500D01*
X151127865Y-76899500D01*
X150103992Y-76899500D01*
X150036953Y-76879815D01*
X149991198Y-76827011D01*
X149981254Y-76757853D01*
X149991691Y-76735000D01*
X155644341Y-76735000D01*
X155664936Y-76970403D01*
X155664938Y-76970413D01*
X155726094Y-77198655D01*
X155726096Y-77198659D01*
X155726097Y-77198663D01*
X155803557Y-77364776D01*
X155825965Y-77412830D01*
X155825967Y-77412834D01*
X155902811Y-77522578D01*
X155961501Y-77606396D01*
X155961506Y-77606402D01*
X156083430Y-77728326D01*
X156116915Y-77789649D01*
X156111931Y-77859341D01*
X156070059Y-77915274D01*
X156039083Y-77932189D01*
X155907669Y-77981203D01*
X155907664Y-77981206D01*
X155792455Y-78067452D01*
X155792452Y-78067455D01*
X155706206Y-78182664D01*
X155706202Y-78182671D01*
X155655908Y-78317517D01*
X155655522Y-78321112D01*
X155649501Y-78377123D01*
X155649500Y-78377135D01*
X155649500Y-80172870D01*
X155649501Y-80172876D01*
X155655908Y-80232483D01*
X155706202Y-80367328D01*
X155706206Y-80367335D01*
X155792452Y-80482544D01*
X155792455Y-80482547D01*
X155907664Y-80568793D01*
X155907671Y-80568797D01*
X156042517Y-80619091D01*
X156042516Y-80619091D01*
X156049444Y-80619835D01*
X156102127Y-80625500D01*
X157897872Y-80625499D01*
X157957483Y-80619091D01*
X158092331Y-80568796D01*
X158207546Y-80482546D01*
X158293796Y-80367331D01*
X158344091Y-80232483D01*
X158350500Y-80172873D01*
X158350499Y-78377128D01*
X158345299Y-78328757D01*
X158344091Y-78317516D01*
X158293797Y-78182671D01*
X158293793Y-78182664D01*
X158207547Y-78067455D01*
X158207544Y-78067452D01*
X158092335Y-77981206D01*
X158092328Y-77981202D01*
X157960917Y-77932189D01*
X157904983Y-77890318D01*
X157880566Y-77824853D01*
X157895418Y-77756580D01*
X157916563Y-77728332D01*
X158038495Y-77606401D01*
X158174035Y-77412830D01*
X158273903Y-77198663D01*
X158335063Y-76970408D01*
X158355659Y-76735000D01*
X158355234Y-76730148D01*
X158348793Y-76656523D01*
X158335063Y-76499592D01*
X158288626Y-76326285D01*
X158273905Y-76271344D01*
X158273904Y-76271343D01*
X158273903Y-76271337D01*
X158174035Y-76057171D01*
X158165552Y-76045055D01*
X158038494Y-75863597D01*
X157871402Y-75696506D01*
X157871395Y-75696501D01*
X157677834Y-75560967D01*
X157677830Y-75560965D01*
X157673933Y-75559148D01*
X157463663Y-75461097D01*
X157463659Y-75461096D01*
X157463655Y-75461094D01*
X157235413Y-75399938D01*
X157235403Y-75399936D01*
X157000001Y-75379341D01*
X156999999Y-75379341D01*
X156764596Y-75399936D01*
X156764586Y-75399938D01*
X156536344Y-75461094D01*
X156536335Y-75461098D01*
X156322171Y-75560964D01*
X156322169Y-75560965D01*
X156128597Y-75696505D01*
X155961505Y-75863597D01*
X155825965Y-76057169D01*
X155825964Y-76057171D01*
X155726098Y-76271335D01*
X155726094Y-76271344D01*
X155664938Y-76499586D01*
X155664936Y-76499596D01*
X155644341Y-76734999D01*
X155644341Y-76735000D01*
X149991691Y-76735000D01*
X150010279Y-76694297D01*
X150069057Y-76656523D01*
X150089043Y-76652404D01*
X150148872Y-76645140D01*
X150307930Y-76584818D01*
X150447929Y-76488183D01*
X150560734Y-76360852D01*
X150639790Y-76210225D01*
X150680500Y-76045056D01*
X150680500Y-76045055D01*
X151819500Y-76045055D01*
X151860210Y-76210226D01*
X151939263Y-76360849D01*
X151939266Y-76360852D01*
X152052071Y-76488183D01*
X152142318Y-76550476D01*
X152192068Y-76584817D01*
X152192069Y-76584817D01*
X152192070Y-76584818D01*
X152351128Y-76645140D01*
X152433069Y-76655089D01*
X152497246Y-76682710D01*
X152520034Y-76716512D01*
X152534825Y-76689879D01*
X152596386Y-76656834D01*
X152606919Y-76655090D01*
X152688872Y-76645140D01*
X152847930Y-76584818D01*
X152987929Y-76488183D01*
X153100734Y-76360852D01*
X153179790Y-76210225D01*
X153220500Y-76045056D01*
X153220500Y-75874944D01*
X153179790Y-75709775D01*
X153172823Y-75696501D01*
X153100736Y-75559150D01*
X153081560Y-75537505D01*
X152987929Y-75431817D01*
X152911905Y-75379341D01*
X152847931Y-75335182D01*
X152688874Y-75274860D01*
X152688868Y-75274859D01*
X152562374Y-75259500D01*
X152562372Y-75259500D01*
X152477628Y-75259500D01*
X152477626Y-75259500D01*
X152351131Y-75274859D01*
X152351125Y-75274860D01*
X152192068Y-75335182D01*
X152052072Y-75431816D01*
X151939263Y-75559150D01*
X151860210Y-75709773D01*
X151819500Y-75874944D01*
X151819500Y-76045055D01*
X150680500Y-76045055D01*
X150680500Y-75874944D01*
X150639790Y-75709775D01*
X150632823Y-75696501D01*
X150560736Y-75559150D01*
X150541560Y-75537505D01*
X150447929Y-75431817D01*
X150371905Y-75379341D01*
X150307931Y-75335182D01*
X150148874Y-75274860D01*
X150148868Y-75274859D01*
X150022374Y-75259500D01*
X150022372Y-75259500D01*
X149937628Y-75259500D01*
X149937626Y-75259500D01*
X149811131Y-75274859D01*
X149811125Y-75274860D01*
X149652068Y-75335182D01*
X149512072Y-75431816D01*
X149399263Y-75559150D01*
X149320210Y-75709773D01*
X149279500Y-75874944D01*
X149279500Y-76045055D01*
X149320210Y-76210226D01*
X149399263Y-76360849D01*
X149399266Y-76360852D01*
X149512071Y-76488183D01*
X149602318Y-76550476D01*
X149652068Y-76584817D01*
X149652069Y-76584817D01*
X149652070Y-76584818D01*
X149811128Y-76645140D01*
X149870954Y-76652404D01*
X149935132Y-76680026D01*
X149974189Y-76737959D01*
X149975724Y-76807812D01*
X149939250Y-76867406D01*
X149876348Y-76897820D01*
X149856008Y-76899500D01*
X148832129Y-76899500D01*
X148832123Y-76899501D01*
X148772516Y-76905908D01*
X148637671Y-76956202D01*
X148637664Y-76956206D01*
X148522455Y-77042452D01*
X148522452Y-77042455D01*
X148436206Y-77157664D01*
X148436202Y-77157671D01*
X148385908Y-77292517D01*
X148379501Y-77352116D01*
X148379500Y-77352135D01*
X148379500Y-79647870D01*
X144990417Y-79647870D01*
X145005224Y-79635224D01*
X145168836Y-79443659D01*
X145300466Y-79228859D01*
X145396873Y-78996111D01*
X145455683Y-78751148D01*
X145475449Y-78500000D01*
X145455683Y-78248852D01*
X145396873Y-78003889D01*
X145360168Y-77915274D01*
X145300466Y-77771140D01*
X145168839Y-77556346D01*
X145168838Y-77556343D01*
X145078755Y-77450870D01*
X145005224Y-77364776D01*
X144841206Y-77224691D01*
X144813656Y-77201161D01*
X144813653Y-77201160D01*
X144598859Y-77069533D01*
X144366110Y-76973126D01*
X144121151Y-76914317D01*
X143870000Y-76894551D01*
X143618848Y-76914317D01*
X143373889Y-76973126D01*
X143141140Y-77069533D01*
X142926346Y-77201160D01*
X142926343Y-77201161D01*
X142734776Y-77364776D01*
X142694290Y-77412179D01*
X142635783Y-77450372D01*
X142565915Y-77450870D01*
X142506869Y-77413516D01*
X142505710Y-77412179D01*
X142465224Y-77364776D01*
X142301206Y-77224691D01*
X142273656Y-77201161D01*
X142273653Y-77201160D01*
X142058859Y-77069533D01*
X141826110Y-76973126D01*
X141581151Y-76914317D01*
X141371536Y-76897820D01*
X141330000Y-76894551D01*
X141329999Y-76894551D01*
X141078848Y-76914317D01*
X140833889Y-76973126D01*
X140601140Y-77069533D01*
X140386346Y-77201160D01*
X140386343Y-77201161D01*
X140194776Y-77364776D01*
X140154290Y-77412179D01*
X140095783Y-77450372D01*
X140025915Y-77450870D01*
X139966869Y-77413516D01*
X139965710Y-77412179D01*
X139925224Y-77364776D01*
X139761206Y-77224691D01*
X139733656Y-77201161D01*
X139733653Y-77201160D01*
X139518859Y-77069533D01*
X139286110Y-76973126D01*
X139041151Y-76914317D01*
X138831536Y-76897820D01*
X138790000Y-76894551D01*
X138789999Y-76894551D01*
X138538848Y-76914317D01*
X138293889Y-76973126D01*
X138061140Y-77069533D01*
X137846346Y-77201160D01*
X137846343Y-77201161D01*
X137654776Y-77364776D01*
X137614290Y-77412179D01*
X137555783Y-77450372D01*
X137485915Y-77450870D01*
X137426869Y-77413516D01*
X137425710Y-77412179D01*
X137385224Y-77364776D01*
X137221206Y-77224691D01*
X137193656Y-77201161D01*
X137193653Y-77201160D01*
X136978859Y-77069533D01*
X136746110Y-76973126D01*
X136501151Y-76914317D01*
X136250000Y-76894551D01*
X135998848Y-76914317D01*
X135753889Y-76973126D01*
X135521140Y-77069533D01*
X135306346Y-77201160D01*
X135306343Y-77201161D01*
X135114776Y-77364776D01*
X135074290Y-77412179D01*
X135015783Y-77450372D01*
X134945915Y-77450870D01*
X134886869Y-77413516D01*
X134885710Y-77412179D01*
X134845224Y-77364776D01*
X134681206Y-77224691D01*
X134653656Y-77201161D01*
X134653653Y-77201160D01*
X134438859Y-77069533D01*
X134206110Y-76973126D01*
X133961151Y-76914317D01*
X133710000Y-76894551D01*
X133458848Y-76914317D01*
X133213889Y-76973126D01*
X132981140Y-77069533D01*
X132766346Y-77201160D01*
X132766343Y-77201161D01*
X132574776Y-77364776D01*
X132534290Y-77412179D01*
X132475783Y-77450372D01*
X132405915Y-77450870D01*
X132346869Y-77413516D01*
X132345710Y-77412179D01*
X132305224Y-77364776D01*
X132141206Y-77224691D01*
X132113656Y-77201161D01*
X132113653Y-77201160D01*
X131898859Y-77069533D01*
X131666110Y-76973126D01*
X131421151Y-76914317D01*
X131170000Y-76894551D01*
X130918848Y-76914317D01*
X130673889Y-76973126D01*
X130441140Y-77069533D01*
X130226346Y-77201160D01*
X130226343Y-77201161D01*
X130034776Y-77364776D01*
X129994290Y-77412179D01*
X129935783Y-77450372D01*
X129865915Y-77450870D01*
X129806869Y-77413516D01*
X129805710Y-77412179D01*
X129765224Y-77364776D01*
X129601206Y-77224691D01*
X129573656Y-77201161D01*
X129573653Y-77201160D01*
X129358859Y-77069533D01*
X129126110Y-76973126D01*
X128881151Y-76914317D01*
X128671536Y-76897820D01*
X128630000Y-76894551D01*
X128629999Y-76894551D01*
X128378848Y-76914317D01*
X128133889Y-76973126D01*
X127901140Y-77069533D01*
X127768983Y-77150520D01*
X127701537Y-77168765D01*
X127634935Y-77147649D01*
X127604927Y-77119104D01*
X127547547Y-77042455D01*
X127547544Y-77042452D01*
X127432335Y-76956206D01*
X127432328Y-76956202D01*
X127297482Y-76905908D01*
X127297483Y-76905908D01*
X127237883Y-76899501D01*
X127237881Y-76899500D01*
X127237873Y-76899500D01*
X127237864Y-76899500D01*
X124942129Y-76899500D01*
X124942123Y-76899501D01*
X124882516Y-76905908D01*
X124747671Y-76956202D01*
X124747664Y-76956206D01*
X124632455Y-77042452D01*
X124632452Y-77042455D01*
X124546206Y-77157664D01*
X124546202Y-77157671D01*
X124495908Y-77292517D01*
X124489501Y-77352116D01*
X124489500Y-77352135D01*
X124489500Y-79647870D01*
X118431179Y-79647870D01*
X118429179Y-79641716D01*
X118334533Y-79477784D01*
X118207871Y-79337112D01*
X118207870Y-79337111D01*
X118054734Y-79225851D01*
X118054729Y-79225848D01*
X117881807Y-79148857D01*
X117881802Y-79148855D01*
X117736001Y-79117865D01*
X117696646Y-79109500D01*
X117507354Y-79109500D01*
X117474897Y-79116398D01*
X117322197Y-79148855D01*
X117322192Y-79148857D01*
X117149270Y-79225848D01*
X117149265Y-79225851D01*
X116996129Y-79337111D01*
X116869466Y-79477785D01*
X116774821Y-79641715D01*
X116774818Y-79641722D01*
X116723768Y-79798839D01*
X116716326Y-79821744D01*
X116696540Y-80010000D01*
X109982500Y-80010000D01*
X109982500Y-78994000D01*
X111870540Y-78994000D01*
X111890326Y-79182256D01*
X111890327Y-79182259D01*
X111948818Y-79362277D01*
X111948821Y-79362284D01*
X112043467Y-79526216D01*
X112170129Y-79666888D01*
X112323265Y-79778148D01*
X112323270Y-79778151D01*
X112496192Y-79855142D01*
X112496197Y-79855144D01*
X112681354Y-79894500D01*
X112681355Y-79894500D01*
X112870644Y-79894500D01*
X112870646Y-79894500D01*
X113055803Y-79855144D01*
X113228730Y-79778151D01*
X113381871Y-79666888D01*
X113508533Y-79526216D01*
X113603179Y-79362284D01*
X113661674Y-79182256D01*
X113681460Y-78994000D01*
X113661674Y-78805744D01*
X113603179Y-78625716D01*
X113508533Y-78461784D01*
X113381871Y-78321112D01*
X113376922Y-78317516D01*
X113228734Y-78209851D01*
X113228729Y-78209848D01*
X113055807Y-78132857D01*
X113055802Y-78132855D01*
X112910001Y-78101865D01*
X112870646Y-78093500D01*
X112681354Y-78093500D01*
X112648897Y-78100398D01*
X112496197Y-78132855D01*
X112496192Y-78132857D01*
X112323270Y-78209848D01*
X112323265Y-78209851D01*
X112170129Y-78321111D01*
X112043466Y-78461785D01*
X111948821Y-78625715D01*
X111948818Y-78625722D01*
X111908065Y-78751148D01*
X111890326Y-78805744D01*
X111870540Y-78994000D01*
X109982500Y-78994000D01*
X109982500Y-75870001D01*
X113972318Y-75870001D01*
X113992955Y-76026760D01*
X113992956Y-76026762D01*
X114037481Y-76134256D01*
X114053464Y-76172841D01*
X114149718Y-76298282D01*
X114275159Y-76394536D01*
X114421238Y-76455044D01*
X114538639Y-76470500D01*
X114538646Y-76470500D01*
X114617354Y-76470500D01*
X114617361Y-76470500D01*
X114734762Y-76455044D01*
X114880841Y-76394536D01*
X115006282Y-76298282D01*
X115102536Y-76172841D01*
X115163044Y-76026762D01*
X115183682Y-75870001D01*
X116972318Y-75870001D01*
X116992955Y-76026760D01*
X116992956Y-76026762D01*
X117037481Y-76134256D01*
X117053464Y-76172841D01*
X117149718Y-76298282D01*
X117275159Y-76394536D01*
X117421238Y-76455044D01*
X117538639Y-76470500D01*
X117538646Y-76470500D01*
X117617354Y-76470500D01*
X117617361Y-76470500D01*
X117734762Y-76455044D01*
X117880841Y-76394536D01*
X118006282Y-76298282D01*
X118102536Y-76172841D01*
X118163044Y-76026762D01*
X118173676Y-75946000D01*
X119490540Y-75946000D01*
X119510326Y-76134256D01*
X119510327Y-76134259D01*
X119568818Y-76314277D01*
X119568821Y-76314284D01*
X119663467Y-76478216D01*
X119682718Y-76499596D01*
X119790129Y-76618888D01*
X119943265Y-76730148D01*
X119943270Y-76730151D01*
X120116192Y-76807142D01*
X120116197Y-76807144D01*
X120301354Y-76846500D01*
X120301355Y-76846500D01*
X120490644Y-76846500D01*
X120490646Y-76846500D01*
X120675803Y-76807144D01*
X120848730Y-76730151D01*
X121001871Y-76618888D01*
X121128533Y-76478216D01*
X121223179Y-76314284D01*
X121281674Y-76134256D01*
X121301460Y-75946000D01*
X121281674Y-75757744D01*
X121223179Y-75577716D01*
X121128533Y-75413784D01*
X121001871Y-75273112D01*
X120996901Y-75269501D01*
X120848734Y-75161851D01*
X120848729Y-75161848D01*
X120675807Y-75084857D01*
X120675802Y-75084855D01*
X120530001Y-75053865D01*
X120490646Y-75045500D01*
X120301354Y-75045500D01*
X120268897Y-75052398D01*
X120116197Y-75084855D01*
X120116192Y-75084857D01*
X119943270Y-75161848D01*
X119943265Y-75161851D01*
X119790129Y-75273111D01*
X119663466Y-75413785D01*
X119568821Y-75577715D01*
X119568818Y-75577722D01*
X119510327Y-75757740D01*
X119510326Y-75757744D01*
X119490540Y-75946000D01*
X118173676Y-75946000D01*
X118183682Y-75870000D01*
X118182839Y-75863599D01*
X118163044Y-75713239D01*
X118163044Y-75713238D01*
X118102536Y-75567159D01*
X118006282Y-75441718D01*
X117880841Y-75345464D01*
X117734762Y-75284956D01*
X117734760Y-75284955D01*
X117617370Y-75269501D01*
X117617367Y-75269500D01*
X117617361Y-75269500D01*
X117538639Y-75269500D01*
X117538633Y-75269500D01*
X117538629Y-75269501D01*
X117421239Y-75284955D01*
X117421237Y-75284956D01*
X117275160Y-75345463D01*
X117149718Y-75441718D01*
X117053463Y-75567160D01*
X116992956Y-75713237D01*
X116992955Y-75713239D01*
X116972318Y-75869998D01*
X116972318Y-75870001D01*
X115183682Y-75870001D01*
X115183682Y-75870000D01*
X115182839Y-75863599D01*
X115163044Y-75713239D01*
X115163044Y-75713238D01*
X115102536Y-75567159D01*
X115006282Y-75441718D01*
X114880841Y-75345464D01*
X114734762Y-75284956D01*
X114734760Y-75284955D01*
X114617370Y-75269501D01*
X114617367Y-75269500D01*
X114617361Y-75269500D01*
X114538639Y-75269500D01*
X114538633Y-75269500D01*
X114538629Y-75269501D01*
X114421239Y-75284955D01*
X114421237Y-75284956D01*
X114275160Y-75345463D01*
X114149718Y-75441718D01*
X114053463Y-75567160D01*
X113992956Y-75713237D01*
X113992955Y-75713239D01*
X113972318Y-75869998D01*
X113972318Y-75870001D01*
X109982500Y-75870001D01*
X109982500Y-74038500D01*
X110002185Y-73971461D01*
X110054989Y-73925706D01*
X110106500Y-73914500D01*
X159768500Y-73914500D01*
X159835539Y-73934185D01*
G37*
%TD.AperFunction*%
%TD*%
M02*
