M48
; DRILL file {KiCad 7.0.7} date Sun Mar 10 16:18:25 2024
; FORMAT={-:-/ absolute / metric / decimal}
; #@! TF.CreationDate,2024-03-10T16:18:25-05:00
; #@! TF.GenerationSoftware,Kicad,Pcbnew,7.0.7
; #@! TF.FileFunction,MixedPlating,1,4
FMAT,2
METRIC
; #@! TA.AperFunction,Plated,PTH,ViaDrill
T1C0.400
; #@! TA.AperFunction,Plated,PTH,ComponentDrill
T2C0.600
; #@! TA.AperFunction,Plated,PTH,ComponentDrill
T3C1.000
; #@! TA.AperFunction,Plated,PTH,ComponentDrill
T4C1.100
; #@! TA.AperFunction,NonPlated,NPTH,ComponentDrill
T5C0.650
; #@! TA.AperFunction,NonPlated,NPTH,ComponentDrill
T6C0.900
; #@! TA.AperFunction,NonPlated,NPTH,ComponentDrill
T7C1.100
%
G90
G05
T1
X110.49Y-117.602
X111.76Y-86.106
X112.014Y-114.808
X112.776Y-78.994
X113.284Y-92.456
X113.538Y-86.106
X113.538Y-87.884
X114.3Y-113.792
X115.57Y-100.584
X115.824Y-95.25
X116.586Y-117.094
X116.84Y-106.426
X117.104Y-108.448
X117.602Y-80.01
X117.602Y-100.838
X117.602Y-110.744
X117.856Y-105.664
X118.364Y-88.138
X118.818Y-76.142
X119.126Y-95.25
X119.126Y-116.84
X119.38Y-81.534
X119.38Y-102.616
X120.396Y-75.946
X120.65Y-95.25
X120.65Y-96.266
X120.65Y-100.33
X120.904Y-102.616
X121.158Y-83.058
X121.412Y-90.932
X122.174Y-89.408
X123.19Y-116.586
X123.437Y-80.017
X123.952Y-85.852
X123.952Y-114.554
X124.392Y-110.596
X124.71Y-93.984
X124.714Y-74.422
X124.714Y-105.918
X124.714Y-106.934
X124.718Y-104.906
X124.968Y-103.378
X125.222Y-76.454
X125.222Y-101.092
X125.73Y-74.676
X125.984Y-116.586
X126.238Y-84.074
X127.0Y-100.838
X127.508Y-85.344
X127.771Y-89.729
X128.025Y-83.811
X128.524Y-116.586
X130.302Y-85.598
X130.302Y-86.614
X130.81Y-95.758
X130.81Y-111.76
X131.064Y-116.586
X131.318Y-83.058
X132.334Y-113.284
X132.588Y-92.964
X133.604Y-114.808
X133.604Y-116.586
X134.112Y-92.239
X134.722Y-121.006
X134.874Y-111.76
X135.941Y-114.198
X136.906Y-112.776
X137.871Y-114.859
X139.192Y-84.582
X139.192Y-86.614
X139.7Y-111.76
X140.462Y-113.538
X142.545Y-114.91
X142.75Y-100.0
X143.0Y-105.0
X143.256Y-120.142
X143.51Y-110.744
X143.662Y-118.618
X144.018Y-113.284
X146.202Y-105.258
X146.5Y-104.25
X146.558Y-95.25
X146.558Y-98.806
X146.75Y-100.25
X147.32Y-87.122
X147.32Y-90.678
X147.32Y-110.236
X147.574Y-89.662
X148.082Y-93.98
X149.098Y-110.236
X150.0Y-100.0
X151.13Y-86.868
X151.384Y-99.06
X152.654Y-92.202
X152.654Y-93.726
X152.908Y-97.536
X152.908Y-99.822
X152.908Y-112.522
X153.162Y-108.712
X154.94Y-89.408
X155.194Y-105.41
X155.956Y-93.98
X157.48Y-92.964
X158.242Y-99.822
X158.242Y-112.268
X159.004Y-98.552
T3
X113.03Y-101.981
X113.03Y-104.521
X113.03Y-107.061
X113.03Y-109.601
X113.03Y-112.141
X115.57Y-101.981
X115.57Y-104.521
X115.57Y-107.061
X115.57Y-109.601
X115.57Y-112.141
X156.75Y-118.735
X156.75Y-121.275
X157.0Y-76.735
X157.0Y-79.275
T4
X112.649Y-118.999
X115.189Y-118.999
X117.729Y-118.999
X120.269Y-118.999
X124.67Y-119.0
X126.09Y-78.5
X127.21Y-119.0
X128.63Y-78.5
X129.75Y-119.0
X131.17Y-78.5
X132.29Y-119.0
X133.71Y-78.5
X136.25Y-78.5
X138.79Y-78.5
X141.33Y-78.5
X143.87Y-78.5
X147.73Y-119.0
X149.98Y-78.5
X150.27Y-119.0
X152.52Y-78.5
T5
X137.318Y-117.319
X143.098Y-117.319
T6
X114.578Y-75.87
X117.578Y-75.87
X155.439Y-103.972
X155.439Y-108.372
T7
X147.73Y-121.54
X149.98Y-75.96
X150.27Y-121.54
X152.52Y-75.96
T2
X135.888Y-116.269G85X135.888Y-117.369
G05
X135.888Y-120.599G85X135.888Y-121.399
G05
X144.528Y-116.269G85X144.528Y-117.369
G05
X144.528Y-120.599G85X144.528Y-121.399
G05
T0
M30
