%TF.GenerationSoftware,KiCad,Pcbnew,7.0.7*%
%TF.CreationDate,2024-03-10T16:18:29-05:00*%
%TF.ProjectId,rev2,72657632-2e6b-4696-9361-645f70636258,rev?*%
%TF.SameCoordinates,Original*%
%TF.FileFunction,Copper,L1,Top*%
%TF.FilePolarity,Positive*%
%FSLAX46Y46*%
G04 Gerber Fmt 4.6, Leading zero omitted, Abs format (unit mm)*
G04 Created by KiCad (PCBNEW 7.0.7) date 2024-03-10 16:18:29*
%MOMM*%
%LPD*%
G01*
G04 APERTURE LIST*
G04 Aperture macros list*
%AMRoundRect*
0 Rectangle with rounded corners*
0 $1 Rounding radius*
0 $2 $3 $4 $5 $6 $7 $8 $9 X,Y pos of 4 corners*
0 Add a 4 corners polygon primitive as box body*
4,1,4,$2,$3,$4,$5,$6,$7,$8,$9,$2,$3,0*
0 Add four circle primitives for the rounded corners*
1,1,$1+$1,$2,$3*
1,1,$1+$1,$4,$5*
1,1,$1+$1,$6,$7*
1,1,$1+$1,$8,$9*
0 Add four rect primitives between the rounded corners*
20,1,$1+$1,$2,$3,$4,$5,0*
20,1,$1+$1,$4,$5,$6,$7,0*
20,1,$1+$1,$6,$7,$8,$9,0*
20,1,$1+$1,$8,$9,$2,$3,0*%
G04 Aperture macros list end*
%TA.AperFunction,SMDPad,CuDef*%
%ADD10RoundRect,0.075000X-0.662500X-0.075000X0.662500X-0.075000X0.662500X0.075000X-0.662500X0.075000X0*%
%TD*%
%TA.AperFunction,SMDPad,CuDef*%
%ADD11RoundRect,0.075000X-0.075000X-0.662500X0.075000X-0.662500X0.075000X0.662500X-0.075000X0.662500X0*%
%TD*%
%TA.AperFunction,SMDPad,CuDef*%
%ADD12RoundRect,0.237500X-0.237500X0.300000X-0.237500X-0.300000X0.237500X-0.300000X0.237500X0.300000X0*%
%TD*%
%TA.AperFunction,SMDPad,CuDef*%
%ADD13RoundRect,0.237500X0.237500X-0.300000X0.237500X0.300000X-0.237500X0.300000X-0.237500X-0.300000X0*%
%TD*%
%TA.AperFunction,SMDPad,CuDef*%
%ADD14RoundRect,0.237500X-0.250000X-0.237500X0.250000X-0.237500X0.250000X0.237500X-0.250000X0.237500X0*%
%TD*%
%TA.AperFunction,SMDPad,CuDef*%
%ADD15R,2.500000X0.500000*%
%TD*%
%TA.AperFunction,SMDPad,CuDef*%
%ADD16R,2.500000X2.000000*%
%TD*%
%TA.AperFunction,SMDPad,CuDef*%
%ADD17RoundRect,0.237500X0.237500X-0.250000X0.237500X0.250000X-0.237500X0.250000X-0.237500X-0.250000X0*%
%TD*%
%TA.AperFunction,SMDPad,CuDef*%
%ADD18RoundRect,0.150000X0.150000X-0.825000X0.150000X0.825000X-0.150000X0.825000X-0.150000X-0.825000X0*%
%TD*%
%TA.AperFunction,SMDPad,CuDef*%
%ADD19RoundRect,0.237500X-0.237500X0.250000X-0.237500X-0.250000X0.237500X-0.250000X0.237500X0.250000X0*%
%TD*%
%TA.AperFunction,SMDPad,CuDef*%
%ADD20RoundRect,0.237500X0.300000X0.237500X-0.300000X0.237500X-0.300000X-0.237500X0.300000X-0.237500X0*%
%TD*%
%TA.AperFunction,SMDPad,CuDef*%
%ADD21R,1.400000X1.200000*%
%TD*%
%TA.AperFunction,SMDPad,CuDef*%
%ADD22R,2.000000X1.500000*%
%TD*%
%TA.AperFunction,SMDPad,CuDef*%
%ADD23R,2.000000X3.800000*%
%TD*%
%TA.AperFunction,SMDPad,CuDef*%
%ADD24RoundRect,0.237500X-0.300000X-0.237500X0.300000X-0.237500X0.300000X0.237500X-0.300000X0.237500X0*%
%TD*%
%TA.AperFunction,SMDPad,CuDef*%
%ADD25R,0.650000X1.560000*%
%TD*%
%TA.AperFunction,SMDPad,CuDef*%
%ADD26RoundRect,0.150000X-0.150000X0.825000X-0.150000X-0.825000X0.150000X-0.825000X0.150000X0.825000X0*%
%TD*%
%TA.AperFunction,SMDPad,CuDef*%
%ADD27R,0.300000X1.150000*%
%TD*%
%TA.AperFunction,SMDPad,CuDef*%
%ADD28R,0.600000X1.150000*%
%TD*%
%TA.AperFunction,ComponentPad*%
%ADD29O,1.000000X2.100000*%
%TD*%
%TA.AperFunction,ComponentPad*%
%ADD30O,1.000000X1.800000*%
%TD*%
%TA.AperFunction,SMDPad,CuDef*%
%ADD31R,0.250000X0.675000*%
%TD*%
%TA.AperFunction,SMDPad,CuDef*%
%ADD32R,0.675000X0.250000*%
%TD*%
%TA.AperFunction,ComponentPad*%
%ADD33R,2.200000X2.200000*%
%TD*%
%TA.AperFunction,ComponentPad*%
%ADD34C,2.200000*%
%TD*%
%TA.AperFunction,ComponentPad*%
%ADD35R,1.700000X1.700000*%
%TD*%
%TA.AperFunction,ComponentPad*%
%ADD36O,1.700000X1.700000*%
%TD*%
%TA.AperFunction,ViaPad*%
%ADD37C,0.800000*%
%TD*%
%TA.AperFunction,Conductor*%
%ADD38C,0.250000*%
%TD*%
%TA.AperFunction,Conductor*%
%ADD39C,0.500000*%
%TD*%
%TA.AperFunction,Conductor*%
%ADD40C,0.127000*%
%TD*%
%TA.AperFunction,Conductor*%
%ADD41C,0.200000*%
%TD*%
%TA.AperFunction,Conductor*%
%ADD42C,0.350000*%
%TD*%
G04 APERTURE END LIST*
D10*
%TO.P,U1,1,PE2*%
%TO.N,/STMPS2151STR_EN*%
X123195500Y-90310000D03*
%TO.P,U1,2,PE3*%
%TO.N,/STMPS2151STR_FAULT*%
X123195500Y-90810000D03*
%TO.P,U1,3,PE4*%
%TO.N,unconnected-(U1-PE4-Pad3)*%
X123195500Y-91310000D03*
%TO.P,U1,4,PE5*%
%TO.N,unconnected-(U1-PE5-Pad4)*%
X123195500Y-91810000D03*
%TO.P,U1,5,PE6*%
%TO.N,unconnected-(U1-PE6-Pad5)*%
X123195500Y-92310000D03*
%TO.P,U1,6,VBAT*%
%TO.N,+3.3V*%
X123195500Y-92810000D03*
%TO.P,U1,7,PC13*%
%TO.N,unconnected-(U1-PC13-Pad7)*%
X123195500Y-93310000D03*
%TO.P,U1,8,PC14*%
%TO.N,unconnected-(U1-PC14-Pad8)*%
X123195500Y-93810000D03*
%TO.P,U1,9,PC15*%
%TO.N,unconnected-(U1-PC15-Pad9)*%
X123195500Y-94310000D03*
%TO.P,U1,10,PF0*%
%TO.N,unconnected-(U1-PF0-Pad10)*%
X123195500Y-94810000D03*
%TO.P,U1,11,PF1*%
%TO.N,unconnected-(U1-PF1-Pad11)*%
X123195500Y-95310000D03*
%TO.P,U1,12,PF2*%
%TO.N,unconnected-(U1-PF2-Pad12)*%
X123195500Y-95810000D03*
%TO.P,U1,13,PF3*%
%TO.N,unconnected-(U1-PF3-Pad13)*%
X123195500Y-96310000D03*
%TO.P,U1,14,PF4*%
%TO.N,unconnected-(U1-PF4-Pad14)*%
X123195500Y-96810000D03*
%TO.P,U1,15,PF5*%
%TO.N,unconnected-(U1-PF5-Pad15)*%
X123195500Y-97310000D03*
%TO.P,U1,16,VSS*%
%TO.N,GND*%
X123195500Y-97810000D03*
%TO.P,U1,17,VDD*%
%TO.N,+3.3V*%
X123195500Y-98310000D03*
%TO.P,U1,18,PF6*%
%TO.N,unconnected-(U1-PF6-Pad18)*%
X123195500Y-98810000D03*
%TO.P,U1,19,PF7*%
%TO.N,unconnected-(U1-PF7-Pad19)*%
X123195500Y-99310000D03*
%TO.P,U1,20,PF8*%
%TO.N,unconnected-(U1-PF8-Pad20)*%
X123195500Y-99810000D03*
%TO.P,U1,21,PF9*%
%TO.N,unconnected-(U1-PF9-Pad21)*%
X123195500Y-100310000D03*
%TO.P,U1,22,PF10*%
%TO.N,unconnected-(U1-PF10-Pad22)*%
X123195500Y-100810000D03*
%TO.P,U1,23,PH0*%
%TO.N,/HSE_IN*%
X123195500Y-101310000D03*
%TO.P,U1,24,PH1*%
%TO.N,/HSE_OUT*%
X123195500Y-101810000D03*
%TO.P,U1,25,NRST*%
%TO.N,NRST*%
X123195500Y-102310000D03*
%TO.P,U1,26,PC0*%
%TO.N,unconnected-(U1-PC0-Pad26)*%
X123195500Y-102810000D03*
%TO.P,U1,27,PC1*%
%TO.N,unconnected-(U1-PC1-Pad27)*%
X123195500Y-103310000D03*
%TO.P,U1,28,PC2*%
%TO.N,unconnected-(U1-PC2-Pad28)*%
X123195500Y-103810000D03*
%TO.P,U1,29,PC3*%
%TO.N,unconnected-(U1-PC3-Pad29)*%
X123195500Y-104310000D03*
%TO.P,U1,30,VDD*%
%TO.N,+3.3V*%
X123195500Y-104810000D03*
%TO.P,U1,31,VSSA*%
%TO.N,GND*%
X123195500Y-105310000D03*
%TO.P,U1,32,VREF+*%
%TO.N,+3.3V*%
X123195500Y-105810000D03*
%TO.P,U1,33,VDDA*%
X123195500Y-106310000D03*
%TO.P,U1,34,PA0*%
%TO.N,linpot1*%
X123195500Y-106810000D03*
%TO.P,U1,35,PA1*%
%TO.N,linpot2*%
X123195500Y-107310000D03*
%TO.P,U1,36,PA2*%
%TO.N,linpot3*%
X123195500Y-107810000D03*
D11*
%TO.P,U1,37,PA3*%
%TO.N,linpot4*%
X125108000Y-109722500D03*
%TO.P,U1,38,VSS*%
%TO.N,GND*%
X125608000Y-109722500D03*
%TO.P,U1,39,VDD*%
%TO.N,+3.3V*%
X126108000Y-109722500D03*
%TO.P,U1,40,PA4*%
%TO.N,A1*%
X126608000Y-109722500D03*
%TO.P,U1,41,PA5*%
%TO.N,A2*%
X127108000Y-109722500D03*
%TO.P,U1,42,PA6*%
%TO.N,A3*%
X127608000Y-109722500D03*
%TO.P,U1,43,PA7*%
%TO.N,A4*%
X128108000Y-109722500D03*
%TO.P,U1,44,PC4*%
%TO.N,unconnected-(U1-PC4-Pad44)*%
X128608000Y-109722500D03*
%TO.P,U1,45,PC5*%
%TO.N,unconnected-(U1-PC5-Pad45)*%
X129108000Y-109722500D03*
%TO.P,U1,46,PB0*%
%TO.N,unconnected-(U1-PB0-Pad46)*%
X129608000Y-109722500D03*
%TO.P,U1,47,PB1*%
%TO.N,unconnected-(U1-PB1-Pad47)*%
X130108000Y-109722500D03*
%TO.P,U1,48,PB2*%
%TO.N,unconnected-(U1-PB2-Pad48)*%
X130608000Y-109722500D03*
%TO.P,U1,49,PF11*%
%TO.N,unconnected-(U1-PF11-Pad49)*%
X131108000Y-109722500D03*
%TO.P,U1,50,PF12*%
%TO.N,unconnected-(U1-PF12-Pad50)*%
X131608000Y-109722500D03*
%TO.P,U1,51,VSS*%
%TO.N,GND*%
X132108000Y-109722500D03*
%TO.P,U1,52,VDD*%
%TO.N,+3.3V*%
X132608000Y-109722500D03*
%TO.P,U1,53,PF13*%
%TO.N,unconnected-(U1-PF13-Pad53)*%
X133108000Y-109722500D03*
%TO.P,U1,54,PF14*%
%TO.N,unconnected-(U1-PF14-Pad54)*%
X133608000Y-109722500D03*
%TO.P,U1,55,PF15*%
%TO.N,unconnected-(U1-PF15-Pad55)*%
X134108000Y-109722500D03*
%TO.P,U1,56,PG0*%
%TO.N,unconnected-(U1-PG0-Pad56)*%
X134608000Y-109722500D03*
%TO.P,U1,57,PG1*%
%TO.N,unconnected-(U1-PG1-Pad57)*%
X135108000Y-109722500D03*
%TO.P,U1,58,PE7*%
%TO.N,unconnected-(U1-PE7-Pad58)*%
X135608000Y-109722500D03*
%TO.P,U1,59,PE8*%
%TO.N,unconnected-(U1-PE8-Pad59)*%
X136108000Y-109722500D03*
%TO.P,U1,60,PE9*%
%TO.N,unconnected-(U1-PE9-Pad60)*%
X136608000Y-109722500D03*
%TO.P,U1,61,VSS*%
%TO.N,GND*%
X137108000Y-109722500D03*
%TO.P,U1,62,VDD*%
%TO.N,+3.3V*%
X137608000Y-109722500D03*
%TO.P,U1,63,PE10*%
%TO.N,unconnected-(U1-PE10-Pad63)*%
X138108000Y-109722500D03*
%TO.P,U1,64,PE11*%
%TO.N,unconnected-(U1-PE11-Pad64)*%
X138608000Y-109722500D03*
%TO.P,U1,65,PE12*%
%TO.N,unconnected-(U1-PE12-Pad65)*%
X139108000Y-109722500D03*
%TO.P,U1,66,PE13*%
%TO.N,unconnected-(U1-PE13-Pad66)*%
X139608000Y-109722500D03*
%TO.P,U1,67,PE14*%
%TO.N,unconnected-(U1-PE14-Pad67)*%
X140108000Y-109722500D03*
%TO.P,U1,68,PE15*%
%TO.N,unconnected-(U1-PE15-Pad68)*%
X140608000Y-109722500D03*
%TO.P,U1,69,PB10*%
%TO.N,unconnected-(U1-PB10-Pad69)*%
X141108000Y-109722500D03*
%TO.P,U1,70,PB11*%
%TO.N,unconnected-(U1-PB11-Pad70)*%
X141608000Y-109722500D03*
%TO.P,U1,71,VCAP_1*%
%TO.N,Net-(U1-VCAP_1)*%
X142108000Y-109722500D03*
%TO.P,U1,72,VDD*%
%TO.N,+3.3V*%
X142608000Y-109722500D03*
D10*
%TO.P,U1,73,PB12*%
%TO.N,CAN2_RX*%
X144520500Y-107810000D03*
%TO.P,U1,74,PB13*%
%TO.N,CAN2_TX*%
X144520500Y-107310000D03*
%TO.P,U1,75,PB14*%
%TO.N,USB-*%
X144520500Y-106810000D03*
%TO.P,U1,76,PB15*%
%TO.N,USB+*%
X144520500Y-106310000D03*
%TO.P,U1,77,PD8*%
%TO.N,/Silent Mode 2*%
X144520500Y-105810000D03*
%TO.P,U1,78,PD9*%
%TO.N,unconnected-(U1-PD9-Pad78)*%
X144520500Y-105310000D03*
%TO.P,U1,79,PD10*%
%TO.N,unconnected-(U1-PD10-Pad79)*%
X144520500Y-104810000D03*
%TO.P,U1,80,PD11*%
%TO.N,unconnected-(U1-PD11-Pad80)*%
X144520500Y-104310000D03*
%TO.P,U1,81,PD12*%
%TO.N,unconnected-(U1-PD12-Pad81)*%
X144520500Y-103810000D03*
%TO.P,U1,82,PD13*%
%TO.N,unconnected-(U1-PD13-Pad82)*%
X144520500Y-103310000D03*
%TO.P,U1,83,VSS*%
%TO.N,GND*%
X144520500Y-102810000D03*
%TO.P,U1,84,VDD*%
%TO.N,+3.3V*%
X144520500Y-102310000D03*
%TO.P,U1,85,PD14*%
%TO.N,unconnected-(U1-PD14-Pad85)*%
X144520500Y-101810000D03*
%TO.P,U1,86,PD15*%
%TO.N,unconnected-(U1-PD15-Pad86)*%
X144520500Y-101310000D03*
%TO.P,U1,87,PG2*%
%TO.N,unconnected-(U1-PG2-Pad87)*%
X144520500Y-100810000D03*
%TO.P,U1,88,PG3*%
%TO.N,unconnected-(U1-PG3-Pad88)*%
X144520500Y-100310000D03*
%TO.P,U1,89,PG4*%
%TO.N,unconnected-(U1-PG4-Pad89)*%
X144520500Y-99810000D03*
%TO.P,U1,90,PG5*%
%TO.N,unconnected-(U1-PG5-Pad90)*%
X144520500Y-99310000D03*
%TO.P,U1,91,PG6*%
%TO.N,unconnected-(U1-PG6-Pad91)*%
X144520500Y-98810000D03*
%TO.P,U1,92,PG7*%
%TO.N,unconnected-(U1-PG7-Pad92)*%
X144520500Y-98310000D03*
%TO.P,U1,93,PG8*%
%TO.N,unconnected-(U1-PG8-Pad93)*%
X144520500Y-97810000D03*
%TO.P,U1,94,VSS*%
%TO.N,GND*%
X144520500Y-97310000D03*
%TO.P,U1,95,VDD*%
%TO.N,+3.3V*%
X144520500Y-96810000D03*
%TO.P,U1,96,PC6*%
%TO.N,unconnected-(U1-PC6-Pad96)*%
X144520500Y-96310000D03*
%TO.P,U1,97,PC7*%
%TO.N,unconnected-(U1-PC7-Pad97)*%
X144520500Y-95810000D03*
%TO.P,U1,98,PC8*%
%TO.N,unconnected-(U1-PC8-Pad98)*%
X144520500Y-95310000D03*
%TO.P,U1,99,PC9*%
%TO.N,unconnected-(U1-PC9-Pad99)*%
X144520500Y-94810000D03*
%TO.P,U1,100,PA8*%
%TO.N,unconnected-(U1-PA8-Pad100)*%
X144520500Y-94310000D03*
%TO.P,U1,101,PA9*%
%TO.N,unconnected-(U1-PA9-Pad101)*%
X144520500Y-93810000D03*
%TO.P,U1,102,PA10*%
%TO.N,unconnected-(U1-PA10-Pad102)*%
X144520500Y-93310000D03*
%TO.P,U1,103,PA11*%
%TO.N,CAN1_RX*%
X144520500Y-92810000D03*
%TO.P,U1,104,PA12*%
%TO.N,CAN1_TX*%
X144520500Y-92310000D03*
%TO.P,U1,105,PA13*%
%TO.N,SYS_JTMS_SWDIO*%
X144520500Y-91810000D03*
%TO.P,U1,106,VCAP_2*%
%TO.N,Net-(U1-VCAP_2)*%
X144520500Y-91310000D03*
%TO.P,U1,107,VSS*%
%TO.N,GND*%
X144520500Y-90810000D03*
%TO.P,U1,108,VDD*%
%TO.N,+3.3V*%
X144520500Y-90310000D03*
D11*
%TO.P,U1,109,PA14*%
%TO.N,SYS_JTCK_SWCLK*%
X142608000Y-88397500D03*
%TO.P,U1,110,PA15*%
%TO.N,/Silent Mode 1*%
X142108000Y-88397500D03*
%TO.P,U1,111,PC10*%
%TO.N,unconnected-(U1-PC10-Pad111)*%
X141608000Y-88397500D03*
%TO.P,U1,112,PC11*%
%TO.N,unconnected-(U1-PC11-Pad112)*%
X141108000Y-88397500D03*
%TO.P,U1,113,PC12*%
%TO.N,unconnected-(U1-PC12-Pad113)*%
X140608000Y-88397500D03*
%TO.P,U1,114,PD0*%
%TO.N,unconnected-(U1-PD0-Pad114)*%
X140108000Y-88397500D03*
%TO.P,U1,115,PD1*%
%TO.N,unconnected-(U1-PD1-Pad115)*%
X139608000Y-88397500D03*
%TO.P,U1,116,PD2*%
%TO.N,unconnected-(U1-PD2-Pad116)*%
X139108000Y-88397500D03*
%TO.P,U1,117,PD3*%
%TO.N,unconnected-(U1-PD3-Pad117)*%
X138608000Y-88397500D03*
%TO.P,U1,118,PD4*%
%TO.N,unconnected-(U1-PD4-Pad118)*%
X138108000Y-88397500D03*
%TO.P,U1,119,PD5*%
%TO.N,unconnected-(U1-PD5-Pad119)*%
X137608000Y-88397500D03*
%TO.P,U1,120,VSS*%
%TO.N,GND*%
X137108000Y-88397500D03*
%TO.P,U1,121,VDD*%
%TO.N,+3.3V*%
X136608000Y-88397500D03*
%TO.P,U1,122,PD6*%
%TO.N,GPIO7*%
X136108000Y-88397500D03*
%TO.P,U1,123,PD7*%
%TO.N,GPIO8*%
X135608000Y-88397500D03*
%TO.P,U1,124,PG9*%
%TO.N,GPIO1*%
X135108000Y-88397500D03*
%TO.P,U1,125,PG10*%
%TO.N,GPIO2*%
X134608000Y-88397500D03*
%TO.P,U1,126,PG11*%
%TO.N,GPIO3*%
X134108000Y-88397500D03*
%TO.P,U1,127,PG12*%
%TO.N,GPIO4*%
X133608000Y-88397500D03*
%TO.P,U1,128,PG13*%
%TO.N,GPIO5*%
X133108000Y-88397500D03*
%TO.P,U1,129,PG14*%
%TO.N,GPIO6*%
X132608000Y-88397500D03*
%TO.P,U1,130,VSS*%
%TO.N,GND*%
X132108000Y-88397500D03*
%TO.P,U1,131,VDD*%
%TO.N,+3.3V*%
X131608000Y-88397500D03*
%TO.P,U1,132,PG15*%
%TO.N,unconnected-(U1-PG15-Pad132)*%
X131108000Y-88397500D03*
%TO.P,U1,133,PB3*%
%TO.N,SYS_JTDO_SWO*%
X130608000Y-88397500D03*
%TO.P,U1,134,PB4*%
%TO.N,unconnected-(U1-PB4-Pad134)*%
X130108000Y-88397500D03*
%TO.P,U1,135,PB5*%
%TO.N,/INT1*%
X129608000Y-88397500D03*
%TO.P,U1,136,PB6*%
%TO.N,/LSM_SCL*%
X129108000Y-88397500D03*
%TO.P,U1,137,PB7*%
%TO.N,/LSM_SDA*%
X128608000Y-88397500D03*
%TO.P,U1,138,BOOT0*%
%TO.N,BOOT0*%
X128108000Y-88397500D03*
%TO.P,U1,139,PB8*%
%TO.N,/LSM_SDO*%
X127608000Y-88397500D03*
%TO.P,U1,140,PB9*%
%TO.N,/LSM_CS*%
X127108000Y-88397500D03*
%TO.P,U1,141,PE0*%
%TO.N,unconnected-(U1-PE0-Pad141)*%
X126608000Y-88397500D03*
%TO.P,U1,142,PE1*%
%TO.N,unconnected-(U1-PE1-Pad142)*%
X126108000Y-88397500D03*
%TO.P,U1,143,PDR_ON*%
%TO.N,+3.3V*%
X125608000Y-88397500D03*
%TO.P,U1,144,VDD*%
X125108000Y-88397500D03*
%TD*%
D12*
%TO.P,C46,1*%
%TO.N,+3.3V*%
X146552500Y-101387500D03*
%TO.P,C46,2*%
%TO.N,GND*%
X146552500Y-103112500D03*
%TD*%
D13*
%TO.P,C45,1*%
%TO.N,+3.3V*%
X131318000Y-85952500D03*
%TO.P,C45,2*%
%TO.N,GND*%
X131318000Y-84227500D03*
%TD*%
%TO.P,C26,1*%
%TO.N,/HSE_IN*%
X115824000Y-99160500D03*
%TO.P,C26,2*%
%TO.N,GND*%
X115824000Y-97435500D03*
%TD*%
D14*
%TO.P,R1,1*%
%TO.N,BOOT0*%
X115316000Y-81534000D03*
%TO.P,R1,2*%
%TO.N,Net-(SW2-B)*%
X117141000Y-81534000D03*
%TD*%
D15*
%TO.P,J8,1,VBUS*%
%TO.N,/VBUS1*%
X152839000Y-107772000D03*
%TO.P,J8,2,D-*%
%TO.N,USB-*%
X152839000Y-106972000D03*
%TO.P,J8,3,D+*%
%TO.N,USB+*%
X152839000Y-106172000D03*
%TO.P,J8,4,ID*%
%TO.N,unconnected-(J8-ID-Pad4)*%
X152839000Y-105372000D03*
%TO.P,J8,5,GND*%
%TO.N,GND*%
X152839000Y-104572000D03*
D16*
%TO.P,J8,6,Shield*%
X152839000Y-110572000D03*
X158339000Y-110572000D03*
X152839000Y-101772000D03*
X158339000Y-101772000D03*
%TD*%
D17*
%TO.P,R6,1*%
%TO.N,Net-(J5-Pin_4)*%
X117856000Y-103782500D03*
%TO.P,R6,2*%
%TO.N,SYS_JTCK_SWCLK*%
X117856000Y-101957500D03*
%TD*%
D13*
%TO.P,C38,1*%
%TO.N,+3.3V*%
X120650000Y-99060000D03*
%TO.P,C38,2*%
%TO.N,GND*%
X120650000Y-97335000D03*
%TD*%
D18*
%TO.P,U2,1,TXD*%
%TO.N,CAN1_TX*%
X149733000Y-88581000D03*
%TO.P,U2,2,GND*%
%TO.N,GND*%
X151003000Y-88581000D03*
%TO.P,U2,3,VCC*%
%TO.N,+5V*%
X152273000Y-88581000D03*
%TO.P,U2,4,RXD*%
%TO.N,CAN1_RX*%
X153543000Y-88581000D03*
%TO.P,U2,5,NC*%
%TO.N,unconnected-(U2-NC-Pad5)*%
X153543000Y-83631000D03*
%TO.P,U2,6,CANL*%
%TO.N,/CAN1-*%
X152273000Y-83631000D03*
%TO.P,U2,7,CANH*%
%TO.N,/CAN1+*%
X151003000Y-83631000D03*
%TO.P,U2,8,S*%
%TO.N,/Silent Mode 1*%
X149733000Y-83631000D03*
%TD*%
D13*
%TO.P,C29,1*%
%TO.N,+3.3V*%
X149098000Y-95096500D03*
%TO.P,C29,2*%
%TO.N,GND*%
X149098000Y-93371500D03*
%TD*%
D19*
%TO.P,R5,1*%
%TO.N,/CAN2-*%
X155750000Y-114337500D03*
%TO.P,R5,2*%
%TO.N,/CAN2+*%
X155750000Y-116162500D03*
%TD*%
D20*
%TO.P,C44,1*%
%TO.N,+3.3V*%
X138525000Y-111732000D03*
%TO.P,C44,2*%
%TO.N,GND*%
X136800000Y-111732000D03*
%TD*%
D12*
%TO.P,C49,1*%
%TO.N,+3.3V*%
X119837200Y-107087500D03*
%TO.P,C49,2*%
%TO.N,GND*%
X119837200Y-108812500D03*
%TD*%
D21*
%TO.P,Y1,1,1*%
%TO.N,/HSE_IN*%
X114470000Y-94068000D03*
%TO.P,Y1,2,2*%
%TO.N,GND*%
X116670000Y-94068000D03*
%TO.P,Y1,3,3*%
%TO.N,Net-(C27-Pad1)*%
X116670000Y-92368000D03*
%TO.P,Y1,4,4*%
%TO.N,GND*%
X114470000Y-92368000D03*
%TD*%
D13*
%TO.P,C32,1*%
%TO.N,+3.3V*%
X125222000Y-85952500D03*
%TO.P,C32,2*%
%TO.N,GND*%
X125222000Y-84227500D03*
%TD*%
D20*
%TO.P,C28,1*%
%TO.N,+5V*%
X155548500Y-90678000D03*
%TO.P,C28,2*%
%TO.N,GND*%
X153823500Y-90678000D03*
%TD*%
D12*
%TO.P,C41,1*%
%TO.N,+3.3V*%
X146552500Y-96137500D03*
%TO.P,C41,2*%
%TO.N,GND*%
X146552500Y-97862500D03*
%TD*%
D22*
%TO.P,U5,1,GND*%
%TO.N,GND*%
X151282000Y-92950000D03*
%TO.P,U5,2,VO*%
%TO.N,+3.3V*%
X151282000Y-95250000D03*
D23*
X157582000Y-95250000D03*
D22*
%TO.P,U5,3,VI*%
%TO.N,+5V*%
X151282000Y-97550000D03*
%TD*%
D14*
%TO.P,R2,1*%
%TO.N,Net-(J5-Pin_2)*%
X112117500Y-98552000D03*
%TO.P,R2,2*%
%TO.N,SYS_JTMS_SWDIO*%
X113942500Y-98552000D03*
%TD*%
D20*
%TO.P,C24,1*%
%TO.N,GND*%
X123290500Y-74930000D03*
%TO.P,C24,2*%
%TO.N,+3.3V*%
X121565500Y-74930000D03*
%TD*%
D24*
%TO.P,C22,1*%
%TO.N,Net-(U1-VCAP_2)*%
X145589500Y-88110000D03*
%TO.P,C22,2*%
%TO.N,GND*%
X147314500Y-88110000D03*
%TD*%
D12*
%TO.P,C30,1*%
%TO.N,+3.3V*%
X146558000Y-89637500D03*
%TO.P,C30,2*%
%TO.N,GND*%
X146558000Y-91362500D03*
%TD*%
%TO.P,C21,1*%
%TO.N,Net-(U1-VCAP_1)*%
X141478000Y-111659500D03*
%TO.P,C21,2*%
%TO.N,GND*%
X141478000Y-113384500D03*
%TD*%
D17*
%TO.P,R7,1*%
%TO.N,Net-(J5-Pin_6)*%
X110871000Y-107084500D03*
%TO.P,R7,2*%
%TO.N,SYS_JTDO_SWO*%
X110871000Y-105259500D03*
%TD*%
D13*
%TO.P,C42,1*%
%TO.N,+3.3V*%
X124714000Y-113511500D03*
%TO.P,C42,2*%
%TO.N,GND*%
X124714000Y-111786500D03*
%TD*%
D20*
%TO.P,C33,1*%
%TO.N,+3.3V*%
X133699000Y-111732000D03*
%TO.P,C33,2*%
%TO.N,GND*%
X131974000Y-111732000D03*
%TD*%
D12*
%TO.P,C25,1*%
%TO.N,+3.3V*%
X110871000Y-114707500D03*
%TO.P,C25,2*%
%TO.N,GND*%
X110871000Y-116432500D03*
%TD*%
%TO.P,C48,1*%
%TO.N,+3.3V*%
X118364000Y-107087500D03*
%TO.P,C48,2*%
%TO.N,GND*%
X118364000Y-108812500D03*
%TD*%
%TO.P,C39,1*%
%TO.N,+3.3V*%
X120898500Y-103757500D03*
%TO.P,C39,2*%
%TO.N,GND*%
X120898500Y-105482500D03*
%TD*%
D13*
%TO.P,C23,1*%
%TO.N,NRST*%
X114554000Y-87730500D03*
%TO.P,C23,2*%
%TO.N,GND*%
X114554000Y-86005500D03*
%TD*%
D12*
%TO.P,C31,1*%
%TO.N,+3.3V*%
X120644500Y-92327500D03*
%TO.P,C31,2*%
%TO.N,GND*%
X120644500Y-94052500D03*
%TD*%
%TO.P,C43,1*%
%TO.N,+3.3V*%
X143002000Y-111659500D03*
%TO.P,C43,2*%
%TO.N,GND*%
X143002000Y-113384500D03*
%TD*%
D17*
%TO.P,R8,1*%
%TO.N,Net-(J5-Pin_10)*%
X110871000Y-112672500D03*
%TO.P,R8,2*%
%TO.N,NRST*%
X110871000Y-110847500D03*
%TD*%
D25*
%TO.P,U6,1,OUT*%
%TO.N,/VBUS1*%
X148300000Y-104350000D03*
%TO.P,U6,2,GND*%
%TO.N,GND*%
X149250000Y-104350000D03*
%TO.P,U6,3,FAULT*%
%TO.N,/STMPS2151STR_FAULT*%
X150200000Y-104350000D03*
%TO.P,U6,4,EN*%
%TO.N,/STMPS2151STR_EN*%
X150200000Y-101650000D03*
%TO.P,U6,5,VIN*%
%TO.N,+5V*%
X148300000Y-101650000D03*
%TD*%
D12*
%TO.P,C40,1*%
%TO.N,+3.3V*%
X138176000Y-84735500D03*
%TO.P,C40,2*%
%TO.N,GND*%
X138176000Y-86460500D03*
%TD*%
D26*
%TO.P,U3,1,TXD*%
%TO.N,CAN2_TX*%
X150241000Y-108777000D03*
%TO.P,U3,2,GND*%
%TO.N,GND*%
X148971000Y-108777000D03*
%TO.P,U3,3,VCC*%
%TO.N,+5V*%
X147701000Y-108777000D03*
%TO.P,U3,4,RXD*%
%TO.N,CAN2_RX*%
X146431000Y-108777000D03*
%TO.P,U3,5,NC*%
%TO.N,unconnected-(U3-NC-Pad5)*%
X146431000Y-113727000D03*
%TO.P,U3,6,CANL*%
%TO.N,/CAN2-*%
X147701000Y-113727000D03*
%TO.P,U3,7,CANH*%
%TO.N,/CAN2+*%
X148971000Y-113727000D03*
%TO.P,U3,8,S*%
%TO.N,/Silent Mode 2*%
X150241000Y-113727000D03*
%TD*%
D19*
%TO.P,R4,1*%
%TO.N,/CAN1-*%
X157226000Y-81637500D03*
%TO.P,R4,2*%
%TO.N,/CAN1+*%
X157226000Y-83462500D03*
%TD*%
D17*
%TO.P,R3,1*%
%TO.N,/HSE_OUT*%
X117348000Y-99210500D03*
%TO.P,R3,2*%
%TO.N,Net-(C27-Pad1)*%
X117348000Y-97385500D03*
%TD*%
D12*
%TO.P,C47,1*%
%TO.N,+3.3V*%
X119380000Y-103785500D03*
%TO.P,C47,2*%
%TO.N,GND*%
X119380000Y-105510500D03*
%TD*%
%TO.P,C27,1*%
%TO.N,Net-(C27-Pad1)*%
X119126000Y-92355500D03*
%TO.P,C27,2*%
%TO.N,GND*%
X119126000Y-94080500D03*
%TD*%
D27*
%TO.P,J9,A5,CC1*%
%TO.N,unconnected-(J9-CC1-PadA5)*%
X138958000Y-116244000D03*
%TO.P,J9,A6*%
%TO.N,N/C*%
X139958000Y-116244000D03*
%TO.P,J9,A7*%
X140458000Y-116244000D03*
%TO.P,J9,A8*%
X141458000Y-116244000D03*
D28*
%TO.P,J9,A9,VBUS*%
%TO.N,+5V*%
X142608000Y-116244000D03*
%TO.P,J9,A12,GND*%
%TO.N,GND*%
X143408000Y-116244000D03*
D27*
%TO.P,J9,B5,CC2*%
%TO.N,unconnected-(J9-CC2-PadB5)*%
X141958000Y-116244000D03*
%TO.P,J9,B6*%
%TO.N,N/C*%
X140958000Y-116244000D03*
%TO.P,J9,B7*%
X139458000Y-116244000D03*
%TO.P,J9,B8*%
X138458000Y-116244000D03*
D28*
%TO.P,J9,B9,VBUS*%
%TO.N,+5V*%
X137808000Y-116244000D03*
%TO.P,J9,B12,GND*%
%TO.N,GND*%
X137008000Y-116244000D03*
D29*
%TO.P,J9,S1,SHIELD*%
X135888000Y-116819000D03*
D30*
X135888000Y-120999000D03*
D29*
X144528000Y-116819000D03*
D30*
X144528000Y-120999000D03*
%TD*%
D31*
%TO.P,U4,1,SD0*%
%TO.N,/LSM_SDO*%
X121932000Y-78986500D03*
%TO.P,U4,2,SDX*%
%TO.N,GND*%
X122432000Y-78986500D03*
%TO.P,U4,3,SCX*%
X122932000Y-78986500D03*
%TO.P,U4,4,INT1*%
%TO.N,/INT1*%
X123432000Y-78986500D03*
D32*
%TO.P,U4,5,VDDIO*%
%TO.N,unconnected-(U4-VDDIO-Pad5)*%
X123694500Y-78224000D03*
%TO.P,U4,6,GND*%
%TO.N,GND*%
X123694500Y-77724000D03*
%TO.P,U4,7,GND*%
X123694500Y-77224000D03*
D31*
%TO.P,U4,8,VDD*%
%TO.N,+3.3V*%
X123432000Y-76461500D03*
%TO.P,U4,9,INT2*%
%TO.N,unconnected-(U4-INT2-Pad9)*%
X122932000Y-76461500D03*
%TO.P,U4,10,OCS_AUX*%
%TO.N,unconnected-(U4-OCS_AUX-Pad10)*%
X122432000Y-76461500D03*
%TO.P,U4,11,SDO_AUX*%
%TO.N,unconnected-(U4-SDO_AUX-Pad11)*%
X121932000Y-76461500D03*
D32*
%TO.P,U4,12,CS*%
%TO.N,/LSM_CS*%
X121669500Y-77224000D03*
%TO.P,U4,13,SCL*%
%TO.N,/LSM_SCL*%
X121669500Y-77724000D03*
%TO.P,U4,14,SDA*%
%TO.N,/LSM_SDA*%
X121669500Y-78224000D03*
%TD*%
D33*
%TO.P,J2,1,Pin_1*%
%TO.N,/CAN1+*%
X149980000Y-78500000D03*
D34*
%TO.P,J2,2,Pin_2*%
%TO.N,/CAN1-*%
X152520000Y-78500000D03*
%TD*%
D35*
%TO.P,J3,1,Pin_1*%
%TO.N,/CAN2-*%
X156750000Y-121275000D03*
D36*
%TO.P,J3,2,Pin_2*%
%TO.N,/CAN2+*%
X156750000Y-118735000D03*
%TD*%
D33*
%TO.P,J6,1,Pin_1*%
%TO.N,linpot4*%
X120269000Y-118999000D03*
D34*
%TO.P,J6,2,Pin_2*%
%TO.N,linpot3*%
X117729000Y-118999000D03*
%TO.P,J6,3,Pin_3*%
%TO.N,linpot2*%
X115189000Y-118999000D03*
%TO.P,J6,4,Pin_4*%
%TO.N,linpot1*%
X112649000Y-118999000D03*
%TD*%
D33*
%TO.P,J4,1,Pin_1*%
%TO.N,/CAN2+*%
X150270000Y-119000000D03*
D34*
%TO.P,J4,2,Pin_2*%
%TO.N,/CAN2-*%
X147730000Y-119000000D03*
%TD*%
D35*
%TO.P,J5,1,Pin_1*%
%TO.N,+3.3V*%
X115570000Y-101981000D03*
D36*
%TO.P,J5,2,Pin_2*%
%TO.N,Net-(J5-Pin_2)*%
X113030000Y-101981000D03*
%TO.P,J5,3,Pin_3*%
%TO.N,GND*%
X115570000Y-104521000D03*
%TO.P,J5,4,Pin_4*%
%TO.N,Net-(J5-Pin_4)*%
X113030000Y-104521000D03*
%TO.P,J5,5,Pin_5*%
%TO.N,GND*%
X115570000Y-107061000D03*
%TO.P,J5,6,Pin_6*%
%TO.N,Net-(J5-Pin_6)*%
X113030000Y-107061000D03*
%TO.P,J5,7,Pin_7*%
%TO.N,unconnected-(J5-Pin_7-Pad7)*%
X115570000Y-109601000D03*
%TO.P,J5,8,Pin_8*%
%TO.N,unconnected-(J5-Pin_8-Pad8)*%
X113030000Y-109601000D03*
%TO.P,J5,9,Pin_9*%
%TO.N,GND*%
X115570000Y-112141000D03*
%TO.P,J5,10,Pin_10*%
%TO.N,Net-(J5-Pin_10)*%
X113030000Y-112141000D03*
%TD*%
D35*
%TO.P,J1,1,Pin_1*%
%TO.N,/CAN1-*%
X157000000Y-79275000D03*
D36*
%TO.P,J1,2,Pin_2*%
%TO.N,/CAN1+*%
X157000000Y-76735000D03*
%TD*%
D33*
%TO.P,J10,1,Pin_1*%
%TO.N,GPIO6*%
X126090000Y-78500000D03*
D34*
%TO.P,J10,2,Pin_2*%
%TO.N,GPIO5*%
X128630000Y-78500000D03*
%TO.P,J10,3,Pin_3*%
%TO.N,GPIO4*%
X131170000Y-78500000D03*
%TO.P,J10,4,Pin_4*%
%TO.N,GPIO3*%
X133710000Y-78500000D03*
%TO.P,J10,5,Pin_5*%
%TO.N,GPIO2*%
X136250000Y-78500000D03*
%TO.P,J10,6,Pin_6*%
%TO.N,GPIO1*%
X138790000Y-78500000D03*
%TO.P,J10,7,Pin_7*%
%TO.N,GPIO8*%
X141330000Y-78500000D03*
%TO.P,J10,8,Pin_8*%
%TO.N,GPIO7*%
X143870000Y-78500000D03*
%TD*%
D33*
%TO.P,J7,1,Pin_1*%
%TO.N,A4*%
X132290000Y-119000000D03*
D34*
%TO.P,J7,2,Pin_2*%
%TO.N,A3*%
X129750000Y-119000000D03*
%TO.P,J7,3,Pin_3*%
%TO.N,A2*%
X127210000Y-119000000D03*
%TO.P,J7,4,Pin_4*%
%TO.N,A1*%
X124670000Y-119000000D03*
%TD*%
D37*
%TO.N,GND*%
X120650000Y-95250000D03*
X143256000Y-120142000D03*
X123190000Y-116586000D03*
X152908000Y-99822000D03*
X119126000Y-116840000D03*
X113284000Y-92456000D03*
X125730000Y-74676000D03*
X132334000Y-113284000D03*
X140462000Y-113538000D03*
X135940800Y-114198400D03*
X118818130Y-76142498D03*
X146558000Y-98806000D03*
X124714000Y-74422000D03*
X143662400Y-118618000D03*
X155194000Y-105410000D03*
X117856000Y-105664000D03*
X154940000Y-89408000D03*
X147320000Y-87122000D03*
X116586000Y-117094000D03*
X158242000Y-112268000D03*
X144018000Y-113284000D03*
X115824000Y-95250000D03*
X124392314Y-110595884D03*
X125984000Y-116586000D03*
X113538000Y-86106000D03*
X151130000Y-86868000D03*
X130810000Y-111760000D03*
X120650000Y-96266000D03*
X146500000Y-104250000D03*
X148082000Y-93980000D03*
X152654000Y-93726000D03*
X111760000Y-86106000D03*
X158242000Y-99822000D03*
X152908000Y-112522000D03*
X116840000Y-106426000D03*
X131064000Y-116586000D03*
X149098000Y-110236000D03*
X134721600Y-121005600D03*
X125222000Y-76454000D03*
X128524000Y-116586000D03*
X131318000Y-83058000D03*
X139192000Y-86614000D03*
X110490000Y-117602000D03*
X152654000Y-92202000D03*
X147320000Y-90678000D03*
X114300000Y-113792000D03*
X136906000Y-112776000D03*
X126238000Y-84074000D03*
X133604000Y-114808000D03*
X123437451Y-80016549D03*
X117103650Y-108448350D03*
X119126000Y-95250000D03*
X133604000Y-116586000D03*
%TO.N,NRST*%
X113538000Y-87884000D03*
X127000000Y-100838000D03*
X124968000Y-103378000D03*
X117602000Y-110744000D03*
%TO.N,+3.3V*%
X123952000Y-114554000D03*
X147574000Y-89662000D03*
X139192000Y-84582000D03*
X146750000Y-100250000D03*
X124718299Y-104906299D03*
X124714000Y-105918000D03*
X124709701Y-93984299D03*
X120396000Y-75946000D03*
X119380000Y-102616000D03*
X112014000Y-114808000D03*
X146558000Y-95250000D03*
X120904000Y-102616000D03*
X112776000Y-78994000D03*
X123952000Y-85852000D03*
X124714000Y-106934000D03*
X134874000Y-111760000D03*
X130302000Y-85598000D03*
X120650000Y-100330000D03*
X139700000Y-111760000D03*
X155956000Y-93980000D03*
X115570000Y-100584000D03*
X157480000Y-92964000D03*
X143510000Y-110744000D03*
%TO.N,+5V*%
X152908000Y-97536000D03*
X151384000Y-99060000D03*
X142544800Y-114909600D03*
X147320000Y-110236500D03*
X137871200Y-114858800D03*
X159004000Y-98552000D03*
%TO.N,/VBUS1*%
X153162000Y-108712000D03*
%TO.N,BOOT0*%
X122174000Y-89408000D03*
X127770762Y-89728767D03*
%TO.N,Net-(SW2-B)*%
X117602000Y-80010000D03*
%TO.N,SYS_JTMS_SWDIO*%
X121412000Y-90932000D03*
X132588000Y-92964000D03*
%TO.N,SYS_JTCK_SWCLK*%
X117602000Y-100838000D03*
X130810000Y-95758000D03*
X134112000Y-92239500D03*
X125222000Y-101092000D03*
%TO.N,SYS_JTDO_SWO*%
X130302000Y-86614000D03*
X118364000Y-88138000D03*
%TO.N,/STMPS2151STR_EN*%
X150000000Y-100000000D03*
X142750000Y-100000000D03*
%TO.N,/STMPS2151STR_FAULT*%
X146202400Y-105257600D03*
X143000000Y-105000000D03*
%TO.N,/LSM_SDO*%
X128024952Y-83811048D03*
X127508000Y-85344000D03*
%TO.N,/LSM_CS*%
X121158000Y-83058000D03*
X119380000Y-81534000D03*
%TD*%
D38*
%TO.N,Net-(U1-VCAP_1)*%
X142108000Y-111029500D02*
X142108000Y-109722500D01*
X141478000Y-111659500D02*
X142108000Y-111029500D01*
%TO.N,GND*%
X124714000Y-74422000D02*
X124206000Y-74930000D01*
X116670000Y-94068000D02*
X116670000Y-94404000D01*
X116670000Y-96589500D02*
X116670000Y-94068000D01*
D39*
X119374500Y-105516000D02*
X119380000Y-105510500D01*
D38*
X146000000Y-97310000D02*
X144520500Y-97310000D01*
X137108000Y-111424000D02*
X137108000Y-109722500D01*
X146635500Y-91362500D02*
X147320000Y-90678000D01*
X118390500Y-108786000D02*
X118364000Y-108812500D01*
X115570000Y-112141000D02*
X114300000Y-113411000D01*
D40*
X149250000Y-105257000D02*
X149097000Y-105410000D01*
D38*
X118364000Y-108812500D02*
X119837200Y-108812500D01*
X143002000Y-113384500D02*
X143917500Y-113384500D01*
X153823500Y-90678000D02*
X153823500Y-90524500D01*
X137008000Y-116244000D02*
X136463000Y-116244000D01*
D39*
X152839000Y-112453000D02*
X152908000Y-112522000D01*
D38*
X124206000Y-76454000D02*
X125730000Y-74930000D01*
X126084500Y-84227500D02*
X126238000Y-84074000D01*
X136800000Y-112670000D02*
X136906000Y-112776000D01*
X144528000Y-116819000D02*
X144528000Y-117752400D01*
X136800000Y-111732000D02*
X136800000Y-112670000D01*
X131974000Y-111732000D02*
X130838000Y-111732000D01*
D39*
X158339000Y-101772000D02*
X158339000Y-99919000D01*
D38*
X114300000Y-113411000D02*
X114300000Y-113792000D01*
X125624000Y-109738500D02*
X125608000Y-109722500D01*
D39*
X149098000Y-93371500D02*
X150860500Y-93371500D01*
D38*
X135888000Y-114251200D02*
X135940800Y-114198400D01*
X120650000Y-97335000D02*
X121211000Y-97335000D01*
X124714000Y-111786500D02*
X125608000Y-110892500D01*
X136800000Y-111732000D02*
X137108000Y-111424000D01*
X146480500Y-91362500D02*
X145928000Y-90810000D01*
D39*
X148082000Y-93980000D02*
X148690500Y-93371500D01*
D40*
X149097000Y-105410000D02*
X147660000Y-105410000D01*
D38*
X144113000Y-120999000D02*
X143256000Y-120142000D01*
X144528000Y-120999000D02*
X144113000Y-120999000D01*
X151003000Y-86995000D02*
X151130000Y-86868000D01*
D39*
X152839000Y-101772000D02*
X152839000Y-99891000D01*
D38*
X154356000Y-104572000D02*
X155194000Y-105410000D01*
D39*
X114554000Y-86005500D02*
X113638500Y-86005500D01*
X158339000Y-101772000D02*
X158339000Y-110572000D01*
D38*
X114720000Y-92368000D02*
X114470000Y-92368000D01*
X121211000Y-97335000D02*
X121686000Y-97810000D01*
X138176000Y-86460500D02*
X138022500Y-86460500D01*
X125222000Y-84227500D02*
X126084500Y-84227500D01*
D39*
X152839000Y-101772000D02*
X158339000Y-101772000D01*
D38*
X116840000Y-106426000D02*
X116205000Y-106426000D01*
X123882000Y-77036500D02*
X123694500Y-77224000D01*
D39*
X152839000Y-110572000D02*
X152839000Y-112453000D01*
D38*
X137108000Y-87528500D02*
X137108000Y-88397500D01*
X139038500Y-86460500D02*
X139192000Y-86614000D01*
X141478000Y-113384500D02*
X140615500Y-113384500D01*
X147314500Y-88110000D02*
X147314500Y-87127500D01*
X135888000Y-116819000D02*
X135888000Y-114251200D01*
X116670000Y-94068000D02*
X116420000Y-94068000D01*
X123195500Y-105310000D02*
X121071000Y-105310000D01*
X125730000Y-74930000D02*
X125730000Y-74676000D01*
X132118000Y-85027500D02*
X132118000Y-88387500D01*
X123082000Y-77724000D02*
X122932000Y-77874000D01*
X138176000Y-86460500D02*
X137108000Y-87528500D01*
X148971000Y-108777000D02*
X148971000Y-110109000D01*
X121686000Y-97810000D02*
X123195500Y-97810000D01*
D40*
X149250000Y-104350000D02*
X149250000Y-105257000D01*
D38*
X115824000Y-97435500D02*
X116670000Y-96589500D01*
X146552500Y-104197500D02*
X146500000Y-104250000D01*
D39*
X152030000Y-92202000D02*
X152654000Y-92202000D01*
D38*
X122928000Y-77224000D02*
X122432000Y-77720000D01*
D39*
X118009500Y-105510500D02*
X119380000Y-105510500D01*
X114457500Y-92355500D02*
X114470000Y-92368000D01*
D38*
X123882000Y-76454000D02*
X123882000Y-77036500D01*
X116670000Y-94404000D02*
X115824000Y-95250000D01*
X135888000Y-120999000D02*
X144528000Y-120999000D01*
X110871000Y-117221000D02*
X110490000Y-117602000D01*
X146558000Y-91362500D02*
X146480500Y-91362500D01*
X123952000Y-77724000D02*
X125222000Y-76454000D01*
X123694500Y-77724000D02*
X123952000Y-77724000D01*
X122932000Y-79511098D02*
X123437451Y-80016549D01*
X136463000Y-116244000D02*
X135888000Y-116819000D01*
X146558000Y-91540500D02*
X146558000Y-91186000D01*
D39*
X152058000Y-93726000D02*
X151282000Y-92950000D01*
D38*
X151003000Y-88581000D02*
X151003000Y-86995000D01*
X141478000Y-113384500D02*
X143002000Y-113384500D01*
D39*
X158339000Y-112171000D02*
X158242000Y-112268000D01*
D38*
X143953000Y-116244000D02*
X144528000Y-116819000D01*
X135888000Y-116819000D02*
X135888000Y-120999000D01*
X120644500Y-95244500D02*
X120650000Y-95250000D01*
D39*
X113638500Y-86005500D02*
X113538000Y-86106000D01*
X151282000Y-92950000D02*
X152030000Y-92202000D01*
D38*
X122932000Y-78986500D02*
X122932000Y-79511098D01*
D39*
X148690500Y-93371500D02*
X149098000Y-93371500D01*
X120898500Y-105482500D02*
X119408000Y-105482500D01*
D38*
X143408000Y-116244000D02*
X143953000Y-116244000D01*
X120644500Y-94052500D02*
X120644500Y-95244500D01*
X123694500Y-77224000D02*
X122928000Y-77224000D01*
D39*
X158339000Y-99919000D02*
X158242000Y-99822000D01*
X119408000Y-105482500D02*
X119380000Y-105510500D01*
D38*
X132118000Y-88387500D02*
X132108000Y-88397500D01*
X143917500Y-113384500D02*
X144018000Y-113284000D01*
X153823500Y-90524500D02*
X154940000Y-89408000D01*
X146552500Y-97862500D02*
X146000000Y-97310000D01*
X123882000Y-75521500D02*
X123882000Y-76454000D01*
X123694500Y-77224000D02*
X123694500Y-77724000D01*
X152839000Y-104572000D02*
X154356000Y-104572000D01*
X146552500Y-103112500D02*
X146552500Y-104197500D01*
X122432000Y-77720000D02*
X122432000Y-78986500D01*
X124714000Y-110917570D02*
X124392314Y-110595884D01*
X140615500Y-113384500D02*
X140462000Y-113538000D01*
X134728200Y-120999000D02*
X134721600Y-121005600D01*
X120650000Y-97335000D02*
X120650000Y-96266000D01*
X138176000Y-86460500D02*
X139038500Y-86460500D01*
X146552500Y-98800500D02*
X146558000Y-98806000D01*
X118364000Y-108812500D02*
X117467800Y-108812500D01*
X123290500Y-74930000D02*
X123882000Y-75521500D01*
X130838000Y-111732000D02*
X130810000Y-111760000D01*
X131974000Y-111732000D02*
X132108000Y-111598000D01*
X131318000Y-84227500D02*
X132118000Y-85027500D01*
X116420000Y-94068000D02*
X114720000Y-92368000D01*
X148971000Y-110109000D02*
X149098000Y-110236000D01*
X113372000Y-92368000D02*
X113284000Y-92456000D01*
X146552500Y-97862500D02*
X146552500Y-98800500D01*
X146250000Y-102810000D02*
X144520500Y-102810000D01*
X146558000Y-91362500D02*
X146635500Y-91362500D01*
X123882000Y-76454000D02*
X124206000Y-76454000D01*
X132108000Y-111598000D02*
X132108000Y-109722500D01*
X125608000Y-110892500D02*
X125608000Y-109722500D01*
X135888000Y-120999000D02*
X134728200Y-120999000D01*
X122932000Y-77874000D02*
X122932000Y-78986500D01*
X144528000Y-120999000D02*
X144528000Y-116819000D01*
X145928000Y-90810000D02*
X144520500Y-90810000D01*
X144528000Y-117752400D02*
X143662400Y-118618000D01*
D39*
X152839000Y-110572000D02*
X158339000Y-110572000D01*
D38*
X146552500Y-103112500D02*
X146250000Y-102810000D01*
D39*
X158339000Y-110572000D02*
X158339000Y-112171000D01*
D38*
X114470000Y-92368000D02*
X113372000Y-92368000D01*
X124206000Y-74930000D02*
X123290500Y-74930000D01*
X124714000Y-111786500D02*
X124714000Y-110917570D01*
D39*
X117856000Y-105664000D02*
X118009500Y-105510500D01*
D38*
X123694500Y-77724000D02*
X123082000Y-77724000D01*
X121071000Y-105310000D02*
X120898500Y-105482500D01*
X110871000Y-116432500D02*
X110871000Y-117221000D01*
X117467800Y-108812500D02*
X117103650Y-108448350D01*
X131318000Y-84227500D02*
X131318000Y-83058000D01*
X116205000Y-106426000D02*
X115570000Y-107061000D01*
X119126000Y-94080500D02*
X119126000Y-95250000D01*
D40*
X147660000Y-105410000D02*
X146500000Y-104250000D01*
D38*
X147314500Y-87127500D02*
X147320000Y-87122000D01*
D39*
X152839000Y-99891000D02*
X152908000Y-99822000D01*
X152654000Y-93726000D02*
X152058000Y-93726000D01*
D38*
%TO.N,Net-(U1-VCAP_2)*%
X144520500Y-91310000D02*
X143717315Y-91310000D01*
X144526000Y-89662000D02*
X145589500Y-88598500D01*
X143458000Y-90069315D02*
X143865315Y-89662000D01*
X145589500Y-88598500D02*
X145589500Y-88110000D01*
X143717315Y-91310000D02*
X143458000Y-91050685D01*
X143458000Y-91050685D02*
X143458000Y-90069315D01*
X143865315Y-89662000D02*
X144526000Y-89662000D01*
%TO.N,NRST*%
X117602000Y-109971299D02*
X117602000Y-110744000D01*
X124968000Y-103378000D02*
X124968000Y-103229315D01*
X123195500Y-102310000D02*
X125528000Y-102310000D01*
X110871000Y-110847500D02*
X110871000Y-110098299D01*
X110871000Y-110098299D02*
X112543299Y-108426000D01*
X124048685Y-102310000D02*
X123195500Y-102310000D01*
X116056701Y-108426000D02*
X117602000Y-109971299D01*
X125528000Y-102310000D02*
X127000000Y-100838000D01*
D39*
X114554000Y-87730500D02*
X113691500Y-87730500D01*
D38*
X112543299Y-108426000D02*
X116056701Y-108426000D01*
X124968000Y-103229315D02*
X124048685Y-102310000D01*
D39*
X113691500Y-87730500D02*
X113538000Y-87884000D01*
D38*
%TO.N,+3.3V*%
X124622000Y-104810000D02*
X124718299Y-104906299D01*
X120650000Y-99060000D02*
X120650000Y-100330000D01*
D39*
X157226000Y-95250000D02*
X155956000Y-93980000D01*
D38*
X120644500Y-92327500D02*
X121127000Y-92810000D01*
X123998685Y-92810000D02*
X124709701Y-93521016D01*
X125222000Y-88283500D02*
X125108000Y-88397500D01*
X133699000Y-111732000D02*
X134846000Y-111732000D01*
X146552500Y-101387500D02*
X146552500Y-100447500D01*
X118390500Y-107061000D02*
X118364000Y-107087500D01*
X119863700Y-107061000D02*
X119837200Y-107087500D01*
X124714000Y-113511500D02*
X124714000Y-113792000D01*
X145656000Y-90310000D02*
X144520500Y-90310000D01*
X121565500Y-74930000D02*
X122434500Y-75799000D01*
X123195500Y-106310000D02*
X123195500Y-105810000D01*
X138176000Y-84735500D02*
X136608000Y-86303500D01*
X120870500Y-103785500D02*
X120898500Y-103757500D01*
X124090000Y-106310000D02*
X124714000Y-106934000D01*
X138525000Y-111732000D02*
X137608000Y-110815000D01*
X132608000Y-110641000D02*
X132608000Y-109722500D01*
X120898500Y-103757500D02*
X120898500Y-102621500D01*
X121368522Y-107061000D02*
X119863700Y-107061000D01*
X146552500Y-96137500D02*
X145880000Y-96810000D01*
X125222000Y-85952500D02*
X125222000Y-88283500D01*
X123195500Y-92810000D02*
X123998685Y-92810000D01*
X120549500Y-75946000D02*
X121565500Y-74930000D01*
X131318000Y-85952500D02*
X130656500Y-85952500D01*
X145880000Y-96810000D02*
X144520500Y-96810000D01*
D39*
X119837200Y-107087500D02*
X118364000Y-107087500D01*
D38*
X121127000Y-92810000D02*
X123195500Y-92810000D01*
X122434500Y-75799000D02*
X123382000Y-75799000D01*
X111913500Y-114707500D02*
X112014000Y-114808000D01*
X137608000Y-110815000D02*
X137608000Y-109722500D01*
X145630000Y-102310000D02*
X144520500Y-102310000D01*
X134846000Y-111732000D02*
X134874000Y-111760000D01*
X123195500Y-105810000D02*
X124606000Y-105810000D01*
X142608000Y-111265500D02*
X143002000Y-111659500D01*
X120396000Y-75946000D02*
X120549500Y-75946000D01*
X142608000Y-109722500D02*
X142608000Y-111265500D01*
X123432000Y-75849000D02*
X123432000Y-76461500D01*
D39*
X151282000Y-95250000D02*
X149251500Y-95250000D01*
D38*
X138525000Y-111732000D02*
X139672000Y-111732000D01*
X122119522Y-106310000D02*
X123195500Y-106310000D01*
X124714000Y-113511500D02*
X126108000Y-112117500D01*
X143002000Y-111252000D02*
X143510000Y-110744000D01*
X139672000Y-111732000D02*
X139700000Y-111760000D01*
D39*
X157582000Y-95250000D02*
X157226000Y-95250000D01*
D38*
X123998685Y-105810000D02*
X123195500Y-105810000D01*
X119380000Y-103785500D02*
X120870500Y-103785500D01*
X125222000Y-85952500D02*
X124052500Y-85952500D01*
X133699000Y-111732000D02*
X132608000Y-110641000D01*
X115570000Y-101981000D02*
X115570000Y-100584000D01*
X120898500Y-102621500D02*
X120904000Y-102616000D01*
X125608000Y-88397500D02*
X125108000Y-88397500D01*
X146558000Y-89637500D02*
X147549500Y-89637500D01*
X125222000Y-88011500D02*
X125608000Y-88397500D01*
X124714000Y-113792000D02*
X123952000Y-114554000D01*
X139038500Y-84735500D02*
X139192000Y-84582000D01*
X126108000Y-112117500D02*
X126108000Y-109722500D01*
X124606000Y-105810000D02*
X124714000Y-105918000D01*
D39*
X157582000Y-93066000D02*
X157480000Y-92964000D01*
D38*
X125222000Y-85952500D02*
X125222000Y-88011500D01*
X110871000Y-114707500D02*
X111913500Y-114707500D01*
X123998685Y-104810000D02*
X124622000Y-104810000D01*
X121951000Y-104810000D02*
X123195500Y-104810000D01*
D39*
X149251500Y-95250000D02*
X149098000Y-95096500D01*
D38*
X146552500Y-96137500D02*
X146552500Y-95255500D01*
X143002000Y-111659500D02*
X143002000Y-111252000D01*
X146552500Y-100447500D02*
X146750000Y-100250000D01*
X121400000Y-98310000D02*
X123195500Y-98310000D01*
X121368522Y-107061000D02*
X122119522Y-106310000D01*
X131608000Y-86242500D02*
X131608000Y-88397500D01*
D39*
X157582000Y-95250000D02*
X157582000Y-93066000D01*
D38*
X120650000Y-99060000D02*
X121400000Y-98310000D01*
X146552500Y-95255500D02*
X146558000Y-95250000D01*
X147549500Y-89637500D02*
X147574000Y-89662000D01*
X146558000Y-89637500D02*
X146328500Y-89637500D01*
X146552500Y-101387500D02*
X145630000Y-102310000D01*
X119380000Y-103785500D02*
X119380000Y-102616000D01*
X136608000Y-86303500D02*
X136608000Y-88397500D01*
X123195500Y-104810000D02*
X123998685Y-104810000D01*
X124052500Y-85952500D02*
X123952000Y-85852000D01*
X123195500Y-106310000D02*
X124090000Y-106310000D01*
X123382000Y-75799000D02*
X123432000Y-75849000D01*
X120898500Y-103757500D02*
X121951000Y-104810000D01*
X124709701Y-93521016D02*
X124709701Y-93984299D01*
X131318000Y-85952500D02*
X131608000Y-86242500D01*
X130656500Y-85952500D02*
X130302000Y-85598000D01*
X146328500Y-89637500D02*
X145656000Y-90310000D01*
D39*
X157582000Y-95250000D02*
X151282000Y-95250000D01*
D38*
X138176000Y-84735500D02*
X139038500Y-84735500D01*
%TO.N,/HSE_IN*%
X116840000Y-98298000D02*
X117856000Y-98298000D01*
X114755000Y-98091500D02*
X115824000Y-99160500D01*
X119888000Y-100838000D02*
X120360000Y-101310000D01*
X114755000Y-94353000D02*
X114755000Y-98091500D01*
X117856000Y-98298000D02*
X119888000Y-100330000D01*
X115977500Y-99160500D02*
X116840000Y-98298000D01*
D39*
X115824000Y-98945272D02*
X115824000Y-99160500D01*
D38*
X114470000Y-94068000D02*
X114755000Y-94353000D01*
X115824000Y-99160500D02*
X115977500Y-99160500D01*
X120360000Y-101310000D02*
X123195500Y-101310000D01*
X119888000Y-100330000D02*
X119888000Y-100838000D01*
D39*
%TO.N,Net-(C27-Pad1)*%
X117820000Y-96913500D02*
X117348000Y-97385500D01*
X117820000Y-93018000D02*
X117820000Y-96913500D01*
X117820000Y-93018000D02*
X117170000Y-92368000D01*
X117170000Y-92368000D02*
X116670000Y-92368000D01*
X119113500Y-92368000D02*
X119126000Y-92355500D01*
X116670000Y-92368000D02*
X119113500Y-92368000D01*
%TO.N,+5V*%
X152273000Y-88027472D02*
X153144471Y-87156000D01*
X158868764Y-92083236D02*
X159032000Y-92246472D01*
X152273000Y-88581000D02*
X152273000Y-88027472D01*
D38*
X147320000Y-110236500D02*
X147701000Y-109855500D01*
D39*
X152273000Y-89180500D02*
X152273000Y-88581000D01*
D38*
X149450000Y-97550000D02*
X151282000Y-97550000D01*
X157463528Y-90678000D02*
X158868764Y-92083236D01*
D39*
X152894000Y-97550000D02*
X152908000Y-97536000D01*
D38*
X142608000Y-114972800D02*
X142544800Y-114909600D01*
D39*
X153144471Y-87156000D02*
X153941528Y-87156000D01*
D38*
X137808000Y-116244000D02*
X137808000Y-114922000D01*
X142608000Y-116244000D02*
X142608000Y-114972800D01*
D39*
X159032000Y-92246472D02*
X159032000Y-98524000D01*
X151282000Y-98958000D02*
X151384000Y-99060000D01*
D38*
X137808000Y-114922000D02*
X137871200Y-114858800D01*
X147701000Y-109855500D02*
X147701000Y-108777000D01*
D39*
X153941528Y-87156000D02*
X158868764Y-92083236D01*
X151282000Y-97550000D02*
X151282000Y-98958000D01*
X159032000Y-98524000D02*
X159004000Y-98552000D01*
D38*
X148300000Y-98700000D02*
X149450000Y-97550000D01*
X155548500Y-90678000D02*
X157463528Y-90678000D01*
D39*
X151282000Y-97550000D02*
X152894000Y-97550000D01*
D38*
X148300000Y-101650000D02*
X148300000Y-98700000D01*
%TO.N,Net-(J5-Pin_2)*%
X112117500Y-101068500D02*
X112117500Y-98552000D01*
X113030000Y-101981000D02*
X112117500Y-101068500D01*
%TO.N,Net-(J5-Pin_4)*%
X117856000Y-103896701D02*
X116056701Y-105696000D01*
X114205000Y-105696000D02*
X113030000Y-104521000D01*
X117856000Y-103782500D02*
X117856000Y-103896701D01*
X116056701Y-105696000D02*
X114205000Y-105696000D01*
%TO.N,Net-(J5-Pin_6)*%
X113006500Y-107084500D02*
X113030000Y-107061000D01*
X110871000Y-107084500D02*
X113006500Y-107084500D01*
%TO.N,Net-(J5-Pin_10)*%
X110871000Y-112672500D02*
X112498500Y-112672500D01*
X112498500Y-112672500D02*
X113030000Y-112141000D01*
%TO.N,A4*%
X132290000Y-119000000D02*
X132290000Y-114707685D01*
X132290000Y-114707685D02*
X128108000Y-110525685D01*
X128108000Y-110525685D02*
X128108000Y-109722500D01*
%TO.N,A3*%
X129750000Y-119000000D02*
X129750000Y-113748000D01*
X127608000Y-111606000D02*
X127608000Y-109722500D01*
X129750000Y-113748000D02*
X127608000Y-111606000D01*
%TO.N,A2*%
X127210000Y-119000000D02*
X127108000Y-118898000D01*
X127108000Y-118898000D02*
X127108000Y-109722500D01*
%TO.N,A1*%
X124670000Y-115868000D02*
X126608000Y-113930000D01*
X126608000Y-113930000D02*
X126608000Y-109722500D01*
X124670000Y-119000000D02*
X124670000Y-115868000D01*
D39*
%TO.N,/VBUS1*%
X148300000Y-103295000D02*
X148300000Y-104350000D01*
D38*
X152839000Y-107772000D02*
X152839000Y-108339000D01*
D39*
X154365497Y-107772000D02*
X156972000Y-105165497D01*
X152839000Y-107772000D02*
X154365497Y-107772000D01*
X151037000Y-103120000D02*
X148475000Y-103120000D01*
X153924000Y-103632000D02*
X151549000Y-103632000D01*
X154940000Y-102616000D02*
X153924000Y-103632000D01*
X156972000Y-103378000D02*
X156210000Y-102616000D01*
X156210000Y-102616000D02*
X154940000Y-102616000D01*
X156972000Y-105165497D02*
X156972000Y-103378000D01*
X151549000Y-103632000D02*
X151037000Y-103120000D01*
D38*
X152839000Y-108339000D02*
X153000000Y-108500000D01*
D39*
X148475000Y-103120000D02*
X148300000Y-103295000D01*
D41*
%TO.N,USB-*%
X144520500Y-106810000D02*
X145759000Y-106810000D01*
D42*
X150963999Y-106972000D02*
X150838999Y-106847000D01*
D41*
X145759000Y-106810000D02*
X145796000Y-106847000D01*
D42*
X150838999Y-106847000D02*
X145796000Y-106847000D01*
X152839000Y-106972000D02*
X150963999Y-106972000D01*
X145796000Y-106847000D02*
X145717391Y-106847000D01*
%TO.N,USB+*%
X150963999Y-106172000D02*
X150838999Y-106297000D01*
D41*
X144520500Y-106310000D02*
X146037000Y-106310000D01*
D42*
X152839000Y-106172000D02*
X150963999Y-106172000D01*
D41*
X146037000Y-106310000D02*
X146050000Y-106297000D01*
D42*
X146050000Y-106297000D02*
X145717391Y-106297000D01*
X150838999Y-106297000D02*
X146050000Y-106297000D01*
D38*
%TO.N,GPIO5*%
X133108000Y-82562000D02*
X133108000Y-88397500D01*
X128630000Y-78500000D02*
X128630000Y-79354000D01*
X128630000Y-79354000D02*
X130556000Y-81280000D01*
X131826000Y-81280000D02*
X133108000Y-82562000D01*
X130556000Y-81280000D02*
X131826000Y-81280000D01*
%TO.N,GPIO6*%
X131576653Y-82042000D02*
X132608000Y-83073347D01*
X132608000Y-83073347D02*
X132608000Y-88397500D01*
X126090000Y-78500000D02*
X129632000Y-82042000D01*
X129632000Y-82042000D02*
X131576653Y-82042000D01*
%TO.N,GPIO4*%
X131170000Y-78500000D02*
X131170000Y-79608000D01*
X131170000Y-79608000D02*
X133604000Y-82042000D01*
X133604000Y-82288000D02*
X133608000Y-82292000D01*
X133604000Y-82042000D02*
X133604000Y-82288000D01*
X133608000Y-82292000D02*
X133608000Y-88397500D01*
%TO.N,GPIO3*%
X134112000Y-88393500D02*
X134108000Y-88397500D01*
X134112000Y-78902000D02*
X134112000Y-88393500D01*
X133710000Y-78500000D02*
X134112000Y-78902000D01*
%TO.N,GPIO7*%
X143870000Y-80158000D02*
X142748000Y-81280000D01*
X136108000Y-84618000D02*
X136108000Y-88397500D01*
X143870000Y-78500000D02*
X143870000Y-80158000D01*
X142748000Y-81280000D02*
X139446000Y-81280000D01*
X139446000Y-81280000D02*
X136108000Y-84618000D01*
%TO.N,GPIO8*%
X141330000Y-79904000D02*
X141224000Y-80010000D01*
X139379000Y-80010000D02*
X135608000Y-83781000D01*
X141330000Y-78500000D02*
X141330000Y-79904000D01*
X141224000Y-80010000D02*
X139379000Y-80010000D01*
X135608000Y-83781000D02*
X135608000Y-88397500D01*
%TO.N,BOOT0*%
X128108000Y-88397500D02*
X128108000Y-89391529D01*
X128108000Y-89391529D02*
X127770762Y-89728767D01*
X115316000Y-82550000D02*
X115316000Y-81534000D01*
X122174000Y-89408000D02*
X115316000Y-82550000D01*
%TO.N,Net-(SW2-B)*%
X117141000Y-81534000D02*
X117141000Y-80471000D01*
X117141000Y-80471000D02*
X117602000Y-80010000D01*
X117348000Y-81327000D02*
X117141000Y-81534000D01*
%TO.N,SYS_JTMS_SWDIO*%
X113942500Y-98552000D02*
X113942500Y-97028000D01*
X142124000Y-91810000D02*
X144520500Y-91810000D01*
X113030000Y-90932000D02*
X121412000Y-90932000D01*
X112522000Y-95250000D02*
X112522000Y-91440000D01*
X140970000Y-92964000D02*
X142124000Y-91810000D01*
X132588000Y-92964000D02*
X140970000Y-92964000D01*
X113942500Y-96670500D02*
X112522000Y-95250000D01*
X112522000Y-91440000D02*
X113030000Y-90932000D01*
X113942500Y-97028000D02*
X113942500Y-96670500D01*
%TO.N,/HSE_OUT*%
X119947500Y-101810000D02*
X123195500Y-101810000D01*
X117348000Y-99210500D02*
X119947500Y-101810000D01*
%TO.N,SYS_JTCK_SWCLK*%
X125476000Y-101092000D02*
X125222000Y-101092000D01*
X117856000Y-101092000D02*
X117602000Y-100838000D01*
X130810000Y-95758000D02*
X125476000Y-101092000D01*
X117856000Y-101957500D02*
X117856000Y-101092000D01*
X139569185Y-92239500D02*
X134112000Y-92239500D01*
X142608000Y-88397500D02*
X142608000Y-89200685D01*
X142608000Y-89200685D02*
X139569185Y-92239500D01*
%TO.N,SYS_JTDO_SWO*%
X114732604Y-88593000D02*
X117909000Y-88593000D01*
X110871000Y-92454604D02*
X114732604Y-88593000D01*
X130608000Y-86920000D02*
X130608000Y-88397500D01*
X110871000Y-105259500D02*
X110871000Y-92454604D01*
X130302000Y-86614000D02*
X130608000Y-86920000D01*
X117909000Y-88593000D02*
X118364000Y-88138000D01*
%TO.N,/STMPS2151STR_EN*%
X124135081Y-90310000D02*
X123195500Y-90310000D01*
X138354000Y-100000000D02*
X130106000Y-91752000D01*
X130106000Y-91752000D02*
X125577081Y-91752000D01*
X150200000Y-100200000D02*
X150000000Y-100000000D01*
X150200000Y-101650000D02*
X150200000Y-100200000D01*
X125577081Y-91752000D02*
X124135081Y-90310000D01*
X142750000Y-100000000D02*
X138354000Y-100000000D01*
%TO.N,/STMPS2151STR_FAULT*%
X141576000Y-105000000D02*
X128778000Y-92202000D01*
D40*
X150200000Y-104350000D02*
X150200000Y-105257000D01*
X150200000Y-105257000D02*
X149669200Y-105787800D01*
D38*
X125390685Y-92202000D02*
X123998685Y-90810000D01*
X128778000Y-92202000D02*
X125390685Y-92202000D01*
X143000000Y-105000000D02*
X141576000Y-105000000D01*
D40*
X149669200Y-105787800D02*
X146732600Y-105787800D01*
D38*
X123998685Y-90810000D02*
X123195500Y-90810000D01*
D40*
X146732600Y-105787800D02*
X146202400Y-105257600D01*
D38*
%TO.N,CAN2_RX*%
X145656000Y-107810000D02*
X144520500Y-107810000D01*
X146431000Y-108777000D02*
X146431000Y-108585000D01*
X146431000Y-108585000D02*
X145656000Y-107810000D01*
%TO.N,CAN2_TX*%
X149398305Y-110961000D02*
X146211000Y-110961000D01*
X143250000Y-107750000D02*
X143690000Y-107310000D01*
X143250000Y-108000000D02*
X143250000Y-107750000D01*
X150241000Y-110118305D02*
X149398305Y-110961000D01*
X150241000Y-108777000D02*
X150241000Y-108400249D01*
X150241000Y-108777000D02*
X150241000Y-110118305D01*
X143690000Y-107310000D02*
X144520500Y-107310000D01*
X146211000Y-110961000D02*
X143250000Y-108000000D01*
%TO.N,/Silent Mode 2*%
X143190000Y-105810000D02*
X144520500Y-105810000D01*
X142500000Y-108210000D02*
X142500000Y-106500000D01*
X142500000Y-106500000D02*
X143190000Y-105810000D01*
X148396751Y-111506000D02*
X145796000Y-111506000D01*
X145796000Y-111506000D02*
X142500000Y-108210000D01*
X150241000Y-113727000D02*
X150241000Y-113350249D01*
X150241000Y-113350249D02*
X148396751Y-111506000D01*
%TO.N,CAN1_RX*%
X147929701Y-93000000D02*
X150679701Y-90250000D01*
X146250000Y-93000000D02*
X147929701Y-93000000D01*
X150679701Y-90250000D02*
X152500000Y-90250000D01*
X153543000Y-89207000D02*
X153543000Y-88581000D01*
X146250000Y-93000000D02*
X146060000Y-92810000D01*
X152500000Y-90250000D02*
X153543000Y-89207000D01*
X146060000Y-92810000D02*
X144520500Y-92810000D01*
%TO.N,CAN1_TX*%
X149750000Y-88598000D02*
X149750000Y-89750000D01*
X149750000Y-89750000D02*
X147190000Y-92310000D01*
X149733000Y-88581000D02*
X149750000Y-88598000D01*
X147190000Y-92310000D02*
X144520500Y-92310000D01*
%TO.N,/Silent Mode 1*%
X146071315Y-83631000D02*
X142108000Y-87594315D01*
X149733000Y-83631000D02*
X146071315Y-83631000D01*
X142108000Y-87594315D02*
X142108000Y-88397500D01*
%TO.N,/INT1*%
X129540000Y-83312000D02*
X129540000Y-87526315D01*
X129540000Y-87526315D02*
X129608000Y-87594315D01*
X123432000Y-78986500D02*
X124963500Y-80518000D01*
X129608000Y-87594315D02*
X129608000Y-88397500D01*
X124963500Y-80518000D02*
X126746000Y-80518000D01*
X126746000Y-80518000D02*
X129540000Y-83312000D01*
%TO.N,/LSM_SCL*%
X121057000Y-77724000D02*
X120142000Y-78639000D01*
X127762000Y-90932000D02*
X129108000Y-89586000D01*
X121669500Y-77724000D02*
X121057000Y-77724000D01*
X129108000Y-89586000D02*
X129108000Y-88397500D01*
X125393477Y-90932000D02*
X127762000Y-90932000D01*
X120142000Y-78639000D02*
X120142000Y-85680523D01*
X120142000Y-85680523D02*
X125393477Y-90932000D01*
%TO.N,/LSM_SDA*%
X122137000Y-80976195D02*
X122137000Y-80989000D01*
X122137000Y-80989000D02*
X124497000Y-83349000D01*
X128608000Y-85418695D02*
X128608000Y-88397500D01*
X126538305Y-83349000D02*
X128608000Y-85418695D01*
X124497000Y-83349000D02*
X126538305Y-83349000D01*
X121669500Y-78224000D02*
X120904000Y-78989500D01*
X120904000Y-79756000D02*
X121699500Y-80551500D01*
X121699500Y-80551500D02*
X121712305Y-80551500D01*
X121712305Y-80551500D02*
X122137000Y-80976195D01*
X120904000Y-78989500D02*
X120904000Y-79756000D01*
%TO.N,/LSM_SDO*%
X127508000Y-85344000D02*
X127608000Y-85444000D01*
X126746000Y-82550000D02*
X128007048Y-83811048D01*
X124883000Y-82550000D02*
X126746000Y-82550000D01*
X121932000Y-79599000D02*
X124883000Y-82550000D01*
X127608000Y-85444000D02*
X127608000Y-88397500D01*
X128007048Y-83811048D02*
X128024952Y-83811048D01*
X121932000Y-78986500D02*
X121932000Y-79599000D01*
%TO.N,/LSM_CS*%
X126492000Y-89916000D02*
X127108000Y-89300000D01*
X120642000Y-77224000D02*
X119380000Y-78486000D01*
X121158000Y-85750685D02*
X125323315Y-89916000D01*
X121158000Y-83058000D02*
X121158000Y-85750685D01*
X121669500Y-77224000D02*
X120642000Y-77224000D01*
X127108000Y-89300000D02*
X127108000Y-88397500D01*
X125323315Y-89916000D02*
X126492000Y-89916000D01*
X119380000Y-78486000D02*
X119380000Y-81534000D01*
D41*
%TO.N,/CAN1-*%
X157000000Y-79275000D02*
X156005000Y-78280000D01*
X156005000Y-78280000D02*
X155361090Y-78280000D01*
X152273000Y-83631000D02*
X152273000Y-83138818D01*
X154157000Y-77075910D02*
X154157000Y-75297910D01*
X155361090Y-78280000D02*
X154157000Y-77075910D01*
X158862000Y-81048682D02*
X158273182Y-81637500D01*
X158273182Y-81637500D02*
X157226000Y-81637500D01*
X151525000Y-77505000D02*
X152520000Y-78500000D01*
X151525000Y-75268947D02*
X151525000Y-77505000D01*
X154157000Y-75297910D02*
X153556090Y-74697000D01*
X157000000Y-79275000D02*
X158762182Y-79275000D01*
X152273000Y-83138818D02*
X152520000Y-82891818D01*
X152096947Y-74697000D02*
X151525000Y-75268947D01*
X152520000Y-82891818D02*
X152520000Y-78500000D01*
X158862000Y-79374818D02*
X158862000Y-81048682D01*
X158762182Y-79275000D02*
X158862000Y-79374818D01*
X153556090Y-74697000D02*
X152096947Y-74697000D01*
%TO.N,/CAN1+*%
X151003000Y-83631000D02*
X151673000Y-82961000D01*
X154707000Y-75070090D02*
X153783910Y-74147000D01*
X155588910Y-77730000D02*
X154707000Y-76848090D01*
X150975000Y-77505000D02*
X149980000Y-78500000D01*
X154707000Y-76848090D02*
X154707000Y-75070090D01*
X159412000Y-79147000D02*
X159412000Y-81276500D01*
X156005000Y-77730000D02*
X155588910Y-77730000D01*
X150975000Y-75041127D02*
X150975000Y-77505000D01*
X159412000Y-81276500D02*
X157226000Y-83462500D01*
X151970000Y-82322604D02*
X151970000Y-80490000D01*
X151869127Y-74147000D02*
X150975000Y-75041127D01*
X151673000Y-82619604D02*
X151970000Y-82322604D01*
X153783910Y-74147000D02*
X151869127Y-74147000D01*
X151970000Y-80490000D02*
X149980000Y-78500000D01*
X157000000Y-76735000D02*
X156005000Y-77730000D01*
X151673000Y-82961000D02*
X151673000Y-82619604D01*
X157000000Y-76735000D02*
X159412000Y-79147000D01*
%TO.N,/CAN2-*%
X147730000Y-119000000D02*
X148775000Y-120045000D01*
X156481251Y-114337500D02*
X155750000Y-114337500D01*
X158537905Y-120230000D02*
X159229000Y-119538905D01*
X148775000Y-116304999D02*
X147730000Y-117349999D01*
X156750000Y-121275000D02*
X157795000Y-120230000D01*
X155705001Y-120230001D02*
X156750000Y-121275000D01*
X148775000Y-120045000D02*
X148775000Y-122423200D01*
X148719007Y-116215518D02*
X148775000Y-116271511D01*
X159229000Y-116238800D02*
X158015200Y-115025000D01*
X147701000Y-113727000D02*
X148110999Y-114136999D01*
X148110999Y-114901199D02*
X148719007Y-115509207D01*
X149766800Y-123415000D02*
X151985200Y-123415000D01*
X153387000Y-122013200D02*
X153387000Y-120997200D01*
X148110999Y-114136999D02*
X148110999Y-114901199D01*
X159229000Y-119538905D02*
X159229000Y-116238800D01*
X151985200Y-123415000D02*
X153387000Y-122013200D01*
X158015200Y-115025000D02*
X157168751Y-115025000D01*
X154154199Y-120230001D02*
X155705001Y-120230001D01*
X157168751Y-115025000D02*
X156481251Y-114337500D01*
X148719007Y-115509207D02*
X148719007Y-116215518D01*
X147730000Y-117349999D02*
X147730000Y-119000000D01*
X148775000Y-116271511D02*
X148775000Y-116304999D01*
X157795000Y-120230000D02*
X158537905Y-120230000D01*
X153387000Y-120997200D02*
X154154199Y-120230001D01*
X148775000Y-122423200D02*
X149766800Y-123415000D01*
%TO.N,/CAN2+*%
X150270000Y-117349999D02*
X150270000Y-119000000D01*
X157795000Y-119780000D02*
X158351505Y-119780000D01*
X158351505Y-119780000D02*
X158779000Y-119352505D01*
D42*
X148971000Y-114219182D02*
X148971000Y-113727000D01*
D41*
X157168751Y-115475000D02*
X156481251Y-116162500D01*
X158779000Y-119352505D02*
X158779000Y-116425200D01*
X149169007Y-116043312D02*
X149225000Y-116099305D01*
X150270000Y-119000000D02*
X149225000Y-120045000D01*
X149225000Y-116304999D02*
X150270000Y-117349999D01*
X152937000Y-121826800D02*
X152937000Y-120810800D01*
X156750000Y-118735000D02*
X157795000Y-119780000D01*
X153967801Y-119779999D02*
X155705001Y-119779999D01*
X156481251Y-116162500D02*
X155750000Y-116162500D01*
X158779000Y-116425200D02*
X157828800Y-115475000D01*
X151798800Y-122965000D02*
X152937000Y-121826800D01*
X149225000Y-120045000D02*
X149225000Y-122236800D01*
X149953200Y-122965000D02*
X151798800Y-122965000D01*
X157828800Y-115475000D02*
X157168751Y-115475000D01*
X149225000Y-116099305D02*
X149225000Y-116304999D01*
X155705001Y-119779999D02*
X156750000Y-118735000D01*
X152937000Y-120810800D02*
X153967801Y-119779999D01*
X149169007Y-115322807D02*
X149169007Y-116043312D01*
X148561001Y-114714801D02*
X149169007Y-115322807D01*
X148971000Y-113727000D02*
X148561001Y-114136999D01*
X149225000Y-122236800D02*
X149953200Y-122965000D01*
X148561001Y-114136999D02*
X148561001Y-114714801D01*
D38*
%TO.N,GPIO2*%
X136250000Y-80158000D02*
X134608000Y-81800000D01*
X134608000Y-81800000D02*
X134608000Y-88397500D01*
X136250000Y-78500000D02*
X136250000Y-80158000D01*
%TO.N,GPIO1*%
X135108000Y-82824000D02*
X135108000Y-88397500D01*
X138790000Y-79142000D02*
X135108000Y-82824000D01*
X138790000Y-78500000D02*
X138790000Y-79142000D01*
%TO.N,linpot4*%
X120269000Y-116967000D02*
X120269000Y-118999000D01*
X123957500Y-109722500D02*
X123444000Y-110236000D01*
X123444000Y-113792000D02*
X120269000Y-116967000D01*
X125108000Y-109722500D02*
X125108000Y-109106000D01*
X123444000Y-110236000D02*
X123444000Y-113792000D01*
X125108000Y-109722500D02*
X123957500Y-109722500D01*
%TO.N,linpot2*%
X115189000Y-116967000D02*
X121920000Y-110236000D01*
X122392314Y-107310000D02*
X123195500Y-107310000D01*
X121920000Y-110236000D02*
X121920000Y-107782314D01*
X121920000Y-107782314D02*
X122392314Y-107310000D01*
X115189000Y-118999000D02*
X115189000Y-116967000D01*
%TO.N,linpot3*%
X122682000Y-111750695D02*
X122682000Y-108323500D01*
X122682000Y-108323500D02*
X123195500Y-107810000D01*
X117729000Y-118999000D02*
X117729000Y-116703695D01*
X117729000Y-116703695D02*
X122682000Y-111750695D01*
%TO.N,linpot1*%
X120853200Y-109372400D02*
X112649000Y-117576600D01*
X112649000Y-118999000D02*
X112649000Y-118364000D01*
X123195500Y-106810000D02*
X122255918Y-106810000D01*
X112649000Y-117576600D02*
X112649000Y-118999000D01*
X122255918Y-106810000D02*
X120853200Y-108212718D01*
X120853200Y-108212718D02*
X120853200Y-109372400D01*
%TD*%
M02*
