%TF.GenerationSoftware,KiCad,Pcbnew,7.0.7*%
%TF.CreationDate,2024-03-18T15:08:08-05:00*%
%TF.ProjectId,rev2,72657632-2e6b-4696-9361-645f70636258,rev?*%
%TF.SameCoordinates,Original*%
%TF.FileFunction,Legend,Bot*%
%TF.FilePolarity,Positive*%
%FSLAX46Y46*%
G04 Gerber Fmt 4.6, Leading zero omitted, Abs format (unit mm)*
G04 Created by KiCad (PCBNEW 7.0.7) date 2024-03-18 15:08:08*
%MOMM*%
%LPD*%
G01*
G04 APERTURE LIST*
%ADD10C,0.150000*%
%ADD11C,0.120000*%
G04 APERTURE END LIST*
D10*
X118437030Y-115119819D02*
X118913220Y-115119819D01*
X118913220Y-115119819D02*
X118913220Y-114119819D01*
X118103696Y-115119819D02*
X118103696Y-114119819D01*
X117627506Y-115119819D02*
X117627506Y-114119819D01*
X117627506Y-114119819D02*
X117056078Y-115119819D01*
X117056078Y-115119819D02*
X117056078Y-114119819D01*
X115817982Y-115119819D02*
X115817982Y-114119819D01*
X115817982Y-114119819D02*
X115437030Y-114119819D01*
X115437030Y-114119819D02*
X115341792Y-114167438D01*
X115341792Y-114167438D02*
X115294173Y-114215057D01*
X115294173Y-114215057D02*
X115246554Y-114310295D01*
X115246554Y-114310295D02*
X115246554Y-114453152D01*
X115246554Y-114453152D02*
X115294173Y-114548390D01*
X115294173Y-114548390D02*
X115341792Y-114596009D01*
X115341792Y-114596009D02*
X115437030Y-114643628D01*
X115437030Y-114643628D02*
X115817982Y-114643628D01*
X114675125Y-115119819D02*
X114770363Y-115072200D01*
X114770363Y-115072200D02*
X114817982Y-115024580D01*
X114817982Y-115024580D02*
X114865601Y-114929342D01*
X114865601Y-114929342D02*
X114865601Y-114643628D01*
X114865601Y-114643628D02*
X114817982Y-114548390D01*
X114817982Y-114548390D02*
X114770363Y-114500771D01*
X114770363Y-114500771D02*
X114675125Y-114453152D01*
X114675125Y-114453152D02*
X114532268Y-114453152D01*
X114532268Y-114453152D02*
X114437030Y-114500771D01*
X114437030Y-114500771D02*
X114389411Y-114548390D01*
X114389411Y-114548390D02*
X114341792Y-114643628D01*
X114341792Y-114643628D02*
X114341792Y-114929342D01*
X114341792Y-114929342D02*
X114389411Y-115024580D01*
X114389411Y-115024580D02*
X114437030Y-115072200D01*
X114437030Y-115072200D02*
X114532268Y-115119819D01*
X114532268Y-115119819D02*
X114675125Y-115119819D01*
X114056077Y-114453152D02*
X113675125Y-114453152D01*
X113913220Y-114119819D02*
X113913220Y-114976961D01*
X113913220Y-114976961D02*
X113865601Y-115072200D01*
X113865601Y-115072200D02*
X113770363Y-115119819D01*
X113770363Y-115119819D02*
X113675125Y-115119819D01*
X113389410Y-115072200D02*
X113294172Y-115119819D01*
X113294172Y-115119819D02*
X113103696Y-115119819D01*
X113103696Y-115119819D02*
X113008458Y-115072200D01*
X113008458Y-115072200D02*
X112960839Y-114976961D01*
X112960839Y-114976961D02*
X112960839Y-114929342D01*
X112960839Y-114929342D02*
X113008458Y-114834104D01*
X113008458Y-114834104D02*
X113103696Y-114786485D01*
X113103696Y-114786485D02*
X113246553Y-114786485D01*
X113246553Y-114786485D02*
X113341791Y-114738866D01*
X113341791Y-114738866D02*
X113389410Y-114643628D01*
X113389410Y-114643628D02*
X113389410Y-114596009D01*
X113389410Y-114596009D02*
X113341791Y-114500771D01*
X113341791Y-114500771D02*
X113246553Y-114453152D01*
X113246553Y-114453152D02*
X113103696Y-114453152D01*
X113103696Y-114453152D02*
X113008458Y-114500771D01*
X149591792Y-115024580D02*
X149639411Y-115072200D01*
X149639411Y-115072200D02*
X149782268Y-115119819D01*
X149782268Y-115119819D02*
X149877506Y-115119819D01*
X149877506Y-115119819D02*
X150020363Y-115072200D01*
X150020363Y-115072200D02*
X150115601Y-114976961D01*
X150115601Y-114976961D02*
X150163220Y-114881723D01*
X150163220Y-114881723D02*
X150210839Y-114691247D01*
X150210839Y-114691247D02*
X150210839Y-114548390D01*
X150210839Y-114548390D02*
X150163220Y-114357914D01*
X150163220Y-114357914D02*
X150115601Y-114262676D01*
X150115601Y-114262676D02*
X150020363Y-114167438D01*
X150020363Y-114167438D02*
X149877506Y-114119819D01*
X149877506Y-114119819D02*
X149782268Y-114119819D01*
X149782268Y-114119819D02*
X149639411Y-114167438D01*
X149639411Y-114167438D02*
X149591792Y-114215057D01*
X149210839Y-114834104D02*
X148734649Y-114834104D01*
X149306077Y-115119819D02*
X148972744Y-114119819D01*
X148972744Y-114119819D02*
X148639411Y-115119819D01*
X148306077Y-115119819D02*
X148306077Y-114119819D01*
X148306077Y-114119819D02*
X147734649Y-115119819D01*
X147734649Y-115119819D02*
X147734649Y-114119819D01*
X133610588Y-83332561D02*
X133515350Y-83380180D01*
X133515350Y-83380180D02*
X133372493Y-83380180D01*
X133372493Y-83380180D02*
X133229636Y-83332561D01*
X133229636Y-83332561D02*
X133134398Y-83237323D01*
X133134398Y-83237323D02*
X133086779Y-83142085D01*
X133086779Y-83142085D02*
X133039160Y-82951609D01*
X133039160Y-82951609D02*
X133039160Y-82808752D01*
X133039160Y-82808752D02*
X133086779Y-82618276D01*
X133086779Y-82618276D02*
X133134398Y-82523038D01*
X133134398Y-82523038D02*
X133229636Y-82427800D01*
X133229636Y-82427800D02*
X133372493Y-82380180D01*
X133372493Y-82380180D02*
X133467731Y-82380180D01*
X133467731Y-82380180D02*
X133610588Y-82427800D01*
X133610588Y-82427800D02*
X133658207Y-82475419D01*
X133658207Y-82475419D02*
X133658207Y-82808752D01*
X133658207Y-82808752D02*
X133467731Y-82808752D01*
X134086779Y-82380180D02*
X134086779Y-83380180D01*
X134086779Y-83380180D02*
X134467731Y-83380180D01*
X134467731Y-83380180D02*
X134562969Y-83332561D01*
X134562969Y-83332561D02*
X134610588Y-83284942D01*
X134610588Y-83284942D02*
X134658207Y-83189704D01*
X134658207Y-83189704D02*
X134658207Y-83046847D01*
X134658207Y-83046847D02*
X134610588Y-82951609D01*
X134610588Y-82951609D02*
X134562969Y-82903990D01*
X134562969Y-82903990D02*
X134467731Y-82856371D01*
X134467731Y-82856371D02*
X134086779Y-82856371D01*
X135086779Y-82380180D02*
X135086779Y-83380180D01*
X135753445Y-83380180D02*
X135943921Y-83380180D01*
X135943921Y-83380180D02*
X136039159Y-83332561D01*
X136039159Y-83332561D02*
X136134397Y-83237323D01*
X136134397Y-83237323D02*
X136182016Y-83046847D01*
X136182016Y-83046847D02*
X136182016Y-82713514D01*
X136182016Y-82713514D02*
X136134397Y-82523038D01*
X136134397Y-82523038D02*
X136039159Y-82427800D01*
X136039159Y-82427800D02*
X135943921Y-82380180D01*
X135943921Y-82380180D02*
X135753445Y-82380180D01*
X135753445Y-82380180D02*
X135658207Y-82427800D01*
X135658207Y-82427800D02*
X135562969Y-82523038D01*
X135562969Y-82523038D02*
X135515350Y-82713514D01*
X135515350Y-82713514D02*
X135515350Y-83046847D01*
X135515350Y-83046847D02*
X135562969Y-83237323D01*
X135562969Y-83237323D02*
X135658207Y-83332561D01*
X135658207Y-83332561D02*
X135753445Y-83380180D01*
X116341792Y-83369819D02*
X116675125Y-82893628D01*
X116913220Y-83369819D02*
X116913220Y-82369819D01*
X116913220Y-82369819D02*
X116532268Y-82369819D01*
X116532268Y-82369819D02*
X116437030Y-82417438D01*
X116437030Y-82417438D02*
X116389411Y-82465057D01*
X116389411Y-82465057D02*
X116341792Y-82560295D01*
X116341792Y-82560295D02*
X116341792Y-82703152D01*
X116341792Y-82703152D02*
X116389411Y-82798390D01*
X116389411Y-82798390D02*
X116437030Y-82846009D01*
X116437030Y-82846009D02*
X116532268Y-82893628D01*
X116532268Y-82893628D02*
X116913220Y-82893628D01*
X115960839Y-83322200D02*
X115817982Y-83369819D01*
X115817982Y-83369819D02*
X115579887Y-83369819D01*
X115579887Y-83369819D02*
X115484649Y-83322200D01*
X115484649Y-83322200D02*
X115437030Y-83274580D01*
X115437030Y-83274580D02*
X115389411Y-83179342D01*
X115389411Y-83179342D02*
X115389411Y-83084104D01*
X115389411Y-83084104D02*
X115437030Y-82988866D01*
X115437030Y-82988866D02*
X115484649Y-82941247D01*
X115484649Y-82941247D02*
X115579887Y-82893628D01*
X115579887Y-82893628D02*
X115770363Y-82846009D01*
X115770363Y-82846009D02*
X115865601Y-82798390D01*
X115865601Y-82798390D02*
X115913220Y-82750771D01*
X115913220Y-82750771D02*
X115960839Y-82655533D01*
X115960839Y-82655533D02*
X115960839Y-82560295D01*
X115960839Y-82560295D02*
X115913220Y-82465057D01*
X115913220Y-82465057D02*
X115865601Y-82417438D01*
X115865601Y-82417438D02*
X115770363Y-82369819D01*
X115770363Y-82369819D02*
X115532268Y-82369819D01*
X115532268Y-82369819D02*
X115389411Y-82417438D01*
X115103696Y-82369819D02*
X114532268Y-82369819D01*
X114817982Y-83369819D02*
X114817982Y-82369819D01*
X115710839Y-100072200D02*
X115567982Y-100119819D01*
X115567982Y-100119819D02*
X115329887Y-100119819D01*
X115329887Y-100119819D02*
X115234649Y-100072200D01*
X115234649Y-100072200D02*
X115187030Y-100024580D01*
X115187030Y-100024580D02*
X115139411Y-99929342D01*
X115139411Y-99929342D02*
X115139411Y-99834104D01*
X115139411Y-99834104D02*
X115187030Y-99738866D01*
X115187030Y-99738866D02*
X115234649Y-99691247D01*
X115234649Y-99691247D02*
X115329887Y-99643628D01*
X115329887Y-99643628D02*
X115520363Y-99596009D01*
X115520363Y-99596009D02*
X115615601Y-99548390D01*
X115615601Y-99548390D02*
X115663220Y-99500771D01*
X115663220Y-99500771D02*
X115710839Y-99405533D01*
X115710839Y-99405533D02*
X115710839Y-99310295D01*
X115710839Y-99310295D02*
X115663220Y-99215057D01*
X115663220Y-99215057D02*
X115615601Y-99167438D01*
X115615601Y-99167438D02*
X115520363Y-99119819D01*
X115520363Y-99119819D02*
X115282268Y-99119819D01*
X115282268Y-99119819D02*
X115139411Y-99167438D01*
X114806077Y-99119819D02*
X114567982Y-100119819D01*
X114567982Y-100119819D02*
X114377506Y-99405533D01*
X114377506Y-99405533D02*
X114187030Y-100119819D01*
X114187030Y-100119819D02*
X113948935Y-99119819D01*
X113567982Y-100119819D02*
X113567982Y-99119819D01*
X113567982Y-99119819D02*
X113329887Y-99119819D01*
X113329887Y-99119819D02*
X113187030Y-99167438D01*
X113187030Y-99167438D02*
X113091792Y-99262676D01*
X113091792Y-99262676D02*
X113044173Y-99357914D01*
X113044173Y-99357914D02*
X112996554Y-99548390D01*
X112996554Y-99548390D02*
X112996554Y-99691247D01*
X112996554Y-99691247D02*
X113044173Y-99881723D01*
X113044173Y-99881723D02*
X113091792Y-99976961D01*
X113091792Y-99976961D02*
X113187030Y-100072200D01*
X113187030Y-100072200D02*
X113329887Y-100119819D01*
X113329887Y-100119819D02*
X113567982Y-100119819D01*
X132210839Y-114834104D02*
X131734649Y-114834104D01*
X132306077Y-115119819D02*
X131972744Y-114119819D01*
X131972744Y-114119819D02*
X131639411Y-115119819D01*
X131306077Y-114453152D02*
X131306077Y-115119819D01*
X131306077Y-114548390D02*
X131258458Y-114500771D01*
X131258458Y-114500771D02*
X131163220Y-114453152D01*
X131163220Y-114453152D02*
X131020363Y-114453152D01*
X131020363Y-114453152D02*
X130925125Y-114500771D01*
X130925125Y-114500771D02*
X130877506Y-114596009D01*
X130877506Y-114596009D02*
X130877506Y-115119819D01*
X129972744Y-115119819D02*
X129972744Y-114596009D01*
X129972744Y-114596009D02*
X130020363Y-114500771D01*
X130020363Y-114500771D02*
X130115601Y-114453152D01*
X130115601Y-114453152D02*
X130306077Y-114453152D01*
X130306077Y-114453152D02*
X130401315Y-114500771D01*
X129972744Y-115072200D02*
X130067982Y-115119819D01*
X130067982Y-115119819D02*
X130306077Y-115119819D01*
X130306077Y-115119819D02*
X130401315Y-115072200D01*
X130401315Y-115072200D02*
X130448934Y-114976961D01*
X130448934Y-114976961D02*
X130448934Y-114881723D01*
X130448934Y-114881723D02*
X130401315Y-114786485D01*
X130401315Y-114786485D02*
X130306077Y-114738866D01*
X130306077Y-114738866D02*
X130067982Y-114738866D01*
X130067982Y-114738866D02*
X129972744Y-114691247D01*
X129353696Y-115119819D02*
X129448934Y-115072200D01*
X129448934Y-115072200D02*
X129496553Y-114976961D01*
X129496553Y-114976961D02*
X129496553Y-114119819D01*
X128829886Y-115119819D02*
X128925124Y-115072200D01*
X128925124Y-115072200D02*
X128972743Y-115024580D01*
X128972743Y-115024580D02*
X129020362Y-114929342D01*
X129020362Y-114929342D02*
X129020362Y-114643628D01*
X129020362Y-114643628D02*
X128972743Y-114548390D01*
X128972743Y-114548390D02*
X128925124Y-114500771D01*
X128925124Y-114500771D02*
X128829886Y-114453152D01*
X128829886Y-114453152D02*
X128687029Y-114453152D01*
X128687029Y-114453152D02*
X128591791Y-114500771D01*
X128591791Y-114500771D02*
X128544172Y-114548390D01*
X128544172Y-114548390D02*
X128496553Y-114643628D01*
X128496553Y-114643628D02*
X128496553Y-114929342D01*
X128496553Y-114929342D02*
X128544172Y-115024580D01*
X128544172Y-115024580D02*
X128591791Y-115072200D01*
X128591791Y-115072200D02*
X128687029Y-115119819D01*
X128687029Y-115119819D02*
X128829886Y-115119819D01*
X127639410Y-114453152D02*
X127639410Y-115262676D01*
X127639410Y-115262676D02*
X127687029Y-115357914D01*
X127687029Y-115357914D02*
X127734648Y-115405533D01*
X127734648Y-115405533D02*
X127829886Y-115453152D01*
X127829886Y-115453152D02*
X127972743Y-115453152D01*
X127972743Y-115453152D02*
X128067981Y-115405533D01*
X127639410Y-115072200D02*
X127734648Y-115119819D01*
X127734648Y-115119819D02*
X127925124Y-115119819D01*
X127925124Y-115119819D02*
X128020362Y-115072200D01*
X128020362Y-115072200D02*
X128067981Y-115024580D01*
X128067981Y-115024580D02*
X128115600Y-114929342D01*
X128115600Y-114929342D02*
X128115600Y-114643628D01*
X128115600Y-114643628D02*
X128067981Y-114548390D01*
X128067981Y-114548390D02*
X128020362Y-114500771D01*
X128020362Y-114500771D02*
X127925124Y-114453152D01*
X127925124Y-114453152D02*
X127734648Y-114453152D01*
X127734648Y-114453152D02*
X127639410Y-114500771D01*
X126401314Y-115119819D02*
X126401314Y-114119819D01*
X126401314Y-114119819D02*
X126020362Y-114119819D01*
X126020362Y-114119819D02*
X125925124Y-114167438D01*
X125925124Y-114167438D02*
X125877505Y-114215057D01*
X125877505Y-114215057D02*
X125829886Y-114310295D01*
X125829886Y-114310295D02*
X125829886Y-114453152D01*
X125829886Y-114453152D02*
X125877505Y-114548390D01*
X125877505Y-114548390D02*
X125925124Y-114596009D01*
X125925124Y-114596009D02*
X126020362Y-114643628D01*
X126020362Y-114643628D02*
X126401314Y-114643628D01*
X125401314Y-115119819D02*
X125401314Y-114453152D01*
X125401314Y-114119819D02*
X125448933Y-114167438D01*
X125448933Y-114167438D02*
X125401314Y-114215057D01*
X125401314Y-114215057D02*
X125353695Y-114167438D01*
X125353695Y-114167438D02*
X125401314Y-114119819D01*
X125401314Y-114119819D02*
X125401314Y-114215057D01*
X124925124Y-114453152D02*
X124925124Y-115119819D01*
X124925124Y-114548390D02*
X124877505Y-114500771D01*
X124877505Y-114500771D02*
X124782267Y-114453152D01*
X124782267Y-114453152D02*
X124639410Y-114453152D01*
X124639410Y-114453152D02*
X124544172Y-114500771D01*
X124544172Y-114500771D02*
X124496553Y-114596009D01*
X124496553Y-114596009D02*
X124496553Y-115119819D01*
X158630180Y-78639411D02*
X158630180Y-79210839D01*
X158630180Y-78925125D02*
X159630180Y-78925125D01*
X159630180Y-78925125D02*
X159487323Y-79020363D01*
X159487323Y-79020363D02*
X159392085Y-79115601D01*
X159392085Y-79115601D02*
X159344466Y-79210839D01*
X159534942Y-78258458D02*
X159582561Y-78210839D01*
X159582561Y-78210839D02*
X159630180Y-78115601D01*
X159630180Y-78115601D02*
X159630180Y-77877506D01*
X159630180Y-77877506D02*
X159582561Y-77782268D01*
X159582561Y-77782268D02*
X159534942Y-77734649D01*
X159534942Y-77734649D02*
X159439704Y-77687030D01*
X159439704Y-77687030D02*
X159344466Y-77687030D01*
X159344466Y-77687030D02*
X159201609Y-77734649D01*
X159201609Y-77734649D02*
X158630180Y-78306077D01*
X158630180Y-78306077D02*
X158630180Y-77687030D01*
X159630180Y-77067982D02*
X159630180Y-76972744D01*
X159630180Y-76972744D02*
X159582561Y-76877506D01*
X159582561Y-76877506D02*
X159534942Y-76829887D01*
X159534942Y-76829887D02*
X159439704Y-76782268D01*
X159439704Y-76782268D02*
X159249228Y-76734649D01*
X159249228Y-76734649D02*
X159011133Y-76734649D01*
X159011133Y-76734649D02*
X158820657Y-76782268D01*
X158820657Y-76782268D02*
X158725419Y-76829887D01*
X158725419Y-76829887D02*
X158677800Y-76877506D01*
X158677800Y-76877506D02*
X158630180Y-76972744D01*
X158630180Y-76972744D02*
X158630180Y-77067982D01*
X158630180Y-77067982D02*
X158677800Y-77163220D01*
X158677800Y-77163220D02*
X158725419Y-77210839D01*
X158725419Y-77210839D02*
X158820657Y-77258458D01*
X158820657Y-77258458D02*
X159011133Y-77306077D01*
X159011133Y-77306077D02*
X159249228Y-77306077D01*
X159249228Y-77306077D02*
X159439704Y-77258458D01*
X159439704Y-77258458D02*
X159534942Y-77210839D01*
X159534942Y-77210839D02*
X159582561Y-77163220D01*
X159582561Y-77163220D02*
X159630180Y-77067982D01*
X158630180Y-120389411D02*
X158630180Y-120960839D01*
X158630180Y-120675125D02*
X159630180Y-120675125D01*
X159630180Y-120675125D02*
X159487323Y-120770363D01*
X159487323Y-120770363D02*
X159392085Y-120865601D01*
X159392085Y-120865601D02*
X159344466Y-120960839D01*
X159534942Y-120008458D02*
X159582561Y-119960839D01*
X159582561Y-119960839D02*
X159630180Y-119865601D01*
X159630180Y-119865601D02*
X159630180Y-119627506D01*
X159630180Y-119627506D02*
X159582561Y-119532268D01*
X159582561Y-119532268D02*
X159534942Y-119484649D01*
X159534942Y-119484649D02*
X159439704Y-119437030D01*
X159439704Y-119437030D02*
X159344466Y-119437030D01*
X159344466Y-119437030D02*
X159201609Y-119484649D01*
X159201609Y-119484649D02*
X158630180Y-120056077D01*
X158630180Y-120056077D02*
X158630180Y-119437030D01*
X159630180Y-118817982D02*
X159630180Y-118722744D01*
X159630180Y-118722744D02*
X159582561Y-118627506D01*
X159582561Y-118627506D02*
X159534942Y-118579887D01*
X159534942Y-118579887D02*
X159439704Y-118532268D01*
X159439704Y-118532268D02*
X159249228Y-118484649D01*
X159249228Y-118484649D02*
X159011133Y-118484649D01*
X159011133Y-118484649D02*
X158820657Y-118532268D01*
X158820657Y-118532268D02*
X158725419Y-118579887D01*
X158725419Y-118579887D02*
X158677800Y-118627506D01*
X158677800Y-118627506D02*
X158630180Y-118722744D01*
X158630180Y-118722744D02*
X158630180Y-118817982D01*
X158630180Y-118817982D02*
X158677800Y-118913220D01*
X158677800Y-118913220D02*
X158725419Y-118960839D01*
X158725419Y-118960839D02*
X158820657Y-119008458D01*
X158820657Y-119008458D02*
X159011133Y-119056077D01*
X159011133Y-119056077D02*
X159249228Y-119056077D01*
X159249228Y-119056077D02*
X159439704Y-119008458D01*
X159439704Y-119008458D02*
X159534942Y-118960839D01*
X159534942Y-118960839D02*
X159582561Y-118913220D01*
X159582561Y-118913220D02*
X159630180Y-118817982D01*
X150908207Y-82225419D02*
X150860588Y-82177800D01*
X150860588Y-82177800D02*
X150717731Y-82130180D01*
X150717731Y-82130180D02*
X150622493Y-82130180D01*
X150622493Y-82130180D02*
X150479636Y-82177800D01*
X150479636Y-82177800D02*
X150384398Y-82273038D01*
X150384398Y-82273038D02*
X150336779Y-82368276D01*
X150336779Y-82368276D02*
X150289160Y-82558752D01*
X150289160Y-82558752D02*
X150289160Y-82701609D01*
X150289160Y-82701609D02*
X150336779Y-82892085D01*
X150336779Y-82892085D02*
X150384398Y-82987323D01*
X150384398Y-82987323D02*
X150479636Y-83082561D01*
X150479636Y-83082561D02*
X150622493Y-83130180D01*
X150622493Y-83130180D02*
X150717731Y-83130180D01*
X150717731Y-83130180D02*
X150860588Y-83082561D01*
X150860588Y-83082561D02*
X150908207Y-83034942D01*
X151289160Y-82415895D02*
X151765350Y-82415895D01*
X151193922Y-82130180D02*
X151527255Y-83130180D01*
X151527255Y-83130180D02*
X151860588Y-82130180D01*
X152193922Y-82130180D02*
X152193922Y-83130180D01*
X152193922Y-83130180D02*
X152765350Y-82130180D01*
X152765350Y-82130180D02*
X152765350Y-83130180D01*
X158012680Y-114596516D02*
X158488871Y-114929849D01*
X158012680Y-115167944D02*
X159012680Y-115167944D01*
X159012680Y-115167944D02*
X159012680Y-114786992D01*
X159012680Y-114786992D02*
X158965061Y-114691754D01*
X158965061Y-114691754D02*
X158917442Y-114644135D01*
X158917442Y-114644135D02*
X158822204Y-114596516D01*
X158822204Y-114596516D02*
X158679347Y-114596516D01*
X158679347Y-114596516D02*
X158584109Y-114644135D01*
X158584109Y-114644135D02*
X158536490Y-114691754D01*
X158536490Y-114691754D02*
X158488871Y-114786992D01*
X158488871Y-114786992D02*
X158488871Y-115167944D01*
X158536490Y-114167944D02*
X158536490Y-113834611D01*
X158012680Y-113691754D02*
X158012680Y-114167944D01*
X158012680Y-114167944D02*
X159012680Y-114167944D01*
X159012680Y-114167944D02*
X159012680Y-113691754D01*
X159012680Y-113406039D02*
X158012680Y-113072706D01*
X158012680Y-113072706D02*
X159012680Y-112739373D01*
X158917442Y-111691753D02*
X158965061Y-111644134D01*
X158965061Y-111644134D02*
X159012680Y-111548896D01*
X159012680Y-111548896D02*
X159012680Y-111310801D01*
X159012680Y-111310801D02*
X158965061Y-111215563D01*
X158965061Y-111215563D02*
X158917442Y-111167944D01*
X158917442Y-111167944D02*
X158822204Y-111120325D01*
X158822204Y-111120325D02*
X158726966Y-111120325D01*
X158726966Y-111120325D02*
X158584109Y-111167944D01*
X158584109Y-111167944D02*
X158012680Y-111739372D01*
X158012680Y-111739372D02*
X158012680Y-111120325D01*
X157402680Y-115263182D02*
X157402680Y-114644135D01*
X157402680Y-114644135D02*
X157021728Y-114977468D01*
X157021728Y-114977468D02*
X157021728Y-114834611D01*
X157021728Y-114834611D02*
X156974109Y-114739373D01*
X156974109Y-114739373D02*
X156926490Y-114691754D01*
X156926490Y-114691754D02*
X156831252Y-114644135D01*
X156831252Y-114644135D02*
X156593157Y-114644135D01*
X156593157Y-114644135D02*
X156497919Y-114691754D01*
X156497919Y-114691754D02*
X156450300Y-114739373D01*
X156450300Y-114739373D02*
X156402680Y-114834611D01*
X156402680Y-114834611D02*
X156402680Y-115120325D01*
X156402680Y-115120325D02*
X156450300Y-115215563D01*
X156450300Y-115215563D02*
X156497919Y-115263182D01*
X157450300Y-113501278D02*
X156164585Y-114358420D01*
X156402680Y-112644135D02*
X156402680Y-113215563D01*
X156402680Y-112929849D02*
X157402680Y-112929849D01*
X157402680Y-112929849D02*
X157259823Y-113025087D01*
X157259823Y-113025087D02*
X157164585Y-113120325D01*
X157164585Y-113120325D02*
X157116966Y-113215563D01*
X157069347Y-111786992D02*
X156402680Y-111786992D01*
X157450300Y-112025087D02*
X156736014Y-112263182D01*
X156736014Y-112263182D02*
X156736014Y-111644135D01*
X157450300Y-110548897D02*
X156164585Y-111406039D01*
X157307442Y-110263182D02*
X157355061Y-110215563D01*
X157355061Y-110215563D02*
X157402680Y-110120325D01*
X157402680Y-110120325D02*
X157402680Y-109882230D01*
X157402680Y-109882230D02*
X157355061Y-109786992D01*
X157355061Y-109786992D02*
X157307442Y-109739373D01*
X157307442Y-109739373D02*
X157212204Y-109691754D01*
X157212204Y-109691754D02*
X157116966Y-109691754D01*
X157116966Y-109691754D02*
X156974109Y-109739373D01*
X156974109Y-109739373D02*
X156402680Y-110310801D01*
X156402680Y-110310801D02*
X156402680Y-109691754D01*
X157069347Y-108834611D02*
X156402680Y-108834611D01*
X157450300Y-109072706D02*
X156736014Y-109310801D01*
X156736014Y-109310801D02*
X156736014Y-108691754D01*
X115700133Y-101664419D02*
X115700133Y-102378704D01*
X115700133Y-102378704D02*
X115747752Y-102521561D01*
X115747752Y-102521561D02*
X115842990Y-102616800D01*
X115842990Y-102616800D02*
X115985847Y-102664419D01*
X115985847Y-102664419D02*
X116081085Y-102664419D01*
X114747752Y-101664419D02*
X115223942Y-101664419D01*
X115223942Y-101664419D02*
X115271561Y-102140609D01*
X115271561Y-102140609D02*
X115223942Y-102092990D01*
X115223942Y-102092990D02*
X115128704Y-102045371D01*
X115128704Y-102045371D02*
X114890609Y-102045371D01*
X114890609Y-102045371D02*
X114795371Y-102092990D01*
X114795371Y-102092990D02*
X114747752Y-102140609D01*
X114747752Y-102140609D02*
X114700133Y-102235847D01*
X114700133Y-102235847D02*
X114700133Y-102473942D01*
X114700133Y-102473942D02*
X114747752Y-102569180D01*
X114747752Y-102569180D02*
X114795371Y-102616800D01*
X114795371Y-102616800D02*
X114890609Y-102664419D01*
X114890609Y-102664419D02*
X115128704Y-102664419D01*
X115128704Y-102664419D02*
X115223942Y-102616800D01*
X115223942Y-102616800D02*
X115271561Y-102569180D01*
X154598019Y-87176076D02*
X155312304Y-87176076D01*
X155312304Y-87176076D02*
X155455161Y-87128457D01*
X155455161Y-87128457D02*
X155550400Y-87033219D01*
X155550400Y-87033219D02*
X155598019Y-86890362D01*
X155598019Y-86890362D02*
X155598019Y-86795124D01*
X155598019Y-88176076D02*
X155598019Y-87604648D01*
X155598019Y-87890362D02*
X154598019Y-87890362D01*
X154598019Y-87890362D02*
X154740876Y-87795124D01*
X154740876Y-87795124D02*
X154836114Y-87699886D01*
X154836114Y-87699886D02*
X154883733Y-87604648D01*
X154693257Y-88557029D02*
X154645638Y-88604648D01*
X154645638Y-88604648D02*
X154598019Y-88699886D01*
X154598019Y-88699886D02*
X154598019Y-88937981D01*
X154598019Y-88937981D02*
X154645638Y-89033219D01*
X154645638Y-89033219D02*
X154693257Y-89080838D01*
X154693257Y-89080838D02*
X154788495Y-89128457D01*
X154788495Y-89128457D02*
X154883733Y-89128457D01*
X154883733Y-89128457D02*
X155026590Y-89080838D01*
X155026590Y-89080838D02*
X155598019Y-88509410D01*
X155598019Y-88509410D02*
X155598019Y-89128457D01*
X144979923Y-85814819D02*
X144979923Y-86529104D01*
X144979923Y-86529104D02*
X145027542Y-86671961D01*
X145027542Y-86671961D02*
X145122780Y-86767200D01*
X145122780Y-86767200D02*
X145265637Y-86814819D01*
X145265637Y-86814819D02*
X145360875Y-86814819D01*
X143979923Y-86814819D02*
X144551351Y-86814819D01*
X144265637Y-86814819D02*
X144265637Y-85814819D01*
X144265637Y-85814819D02*
X144360875Y-85957676D01*
X144360875Y-85957676D02*
X144456113Y-86052914D01*
X144456113Y-86052914D02*
X144551351Y-86100533D01*
X143027542Y-86814819D02*
X143598970Y-86814819D01*
X143313256Y-86814819D02*
X143313256Y-85814819D01*
X143313256Y-85814819D02*
X143408494Y-85957676D01*
X143408494Y-85957676D02*
X143503732Y-86052914D01*
X143503732Y-86052914D02*
X143598970Y-86100533D01*
X117333332Y-79807200D02*
X117190475Y-79854819D01*
X117190475Y-79854819D02*
X116952380Y-79854819D01*
X116952380Y-79854819D02*
X116857142Y-79807200D01*
X116857142Y-79807200D02*
X116809523Y-79759580D01*
X116809523Y-79759580D02*
X116761904Y-79664342D01*
X116761904Y-79664342D02*
X116761904Y-79569104D01*
X116761904Y-79569104D02*
X116809523Y-79473866D01*
X116809523Y-79473866D02*
X116857142Y-79426247D01*
X116857142Y-79426247D02*
X116952380Y-79378628D01*
X116952380Y-79378628D02*
X117142856Y-79331009D01*
X117142856Y-79331009D02*
X117238094Y-79283390D01*
X117238094Y-79283390D02*
X117285713Y-79235771D01*
X117285713Y-79235771D02*
X117333332Y-79140533D01*
X117333332Y-79140533D02*
X117333332Y-79045295D01*
X117333332Y-79045295D02*
X117285713Y-78950057D01*
X117285713Y-78950057D02*
X117238094Y-78902438D01*
X117238094Y-78902438D02*
X117142856Y-78854819D01*
X117142856Y-78854819D02*
X116904761Y-78854819D01*
X116904761Y-78854819D02*
X116761904Y-78902438D01*
X116428570Y-78854819D02*
X116190475Y-79854819D01*
X116190475Y-79854819D02*
X115999999Y-79140533D01*
X115999999Y-79140533D02*
X115809523Y-79854819D01*
X115809523Y-79854819D02*
X115571428Y-78854819D01*
X115238094Y-78950057D02*
X115190475Y-78902438D01*
X115190475Y-78902438D02*
X115095237Y-78854819D01*
X115095237Y-78854819D02*
X114857142Y-78854819D01*
X114857142Y-78854819D02*
X114761904Y-78902438D01*
X114761904Y-78902438D02*
X114714285Y-78950057D01*
X114714285Y-78950057D02*
X114666666Y-79045295D01*
X114666666Y-79045295D02*
X114666666Y-79140533D01*
X114666666Y-79140533D02*
X114714285Y-79283390D01*
X114714285Y-79283390D02*
X115285713Y-79854819D01*
X115285713Y-79854819D02*
X114666666Y-79854819D01*
D11*
%TO.C,J2*%
X148180000Y-75100000D02*
X148680000Y-75100000D01*
X148180000Y-75840000D02*
X148180000Y-75100000D01*
X148420000Y-75340000D02*
X149190000Y-75340000D01*
X148420000Y-75900000D02*
X149190000Y-75900000D01*
X148420000Y-81200000D02*
X154080000Y-81200000D01*
X148420000Y-81660000D02*
X148420000Y-75340000D01*
X148420000Y-81660000D02*
X154080000Y-81660000D01*
X150770000Y-75340000D02*
X151730000Y-75340000D01*
X150770000Y-75900000D02*
X151730000Y-75900000D01*
X153310000Y-75340000D02*
X154080000Y-75340000D01*
X153310000Y-75900000D02*
X154080000Y-75900000D01*
X154080000Y-81660000D02*
X154080000Y-75340000D01*
%TO.C,SW1*%
X119054000Y-90098000D02*
X119054000Y-90068000D01*
X119054000Y-90098000D02*
X112594000Y-90098000D01*
X119054000Y-85568000D02*
X119054000Y-88168000D01*
X119054000Y-83668000D02*
X119054000Y-83638000D01*
X119054000Y-83638000D02*
X112594000Y-83638000D01*
X112594000Y-90098000D02*
X112594000Y-90068000D01*
X112594000Y-85568000D02*
X112594000Y-88168000D01*
X112594000Y-83638000D02*
X112594000Y-83668000D01*
%TO.C,J3*%
X155420000Y-117405000D02*
X158080000Y-117405000D01*
X155420000Y-120005000D02*
X155420000Y-117405000D01*
X155420000Y-120005000D02*
X158080000Y-120005000D01*
X155420000Y-121275000D02*
X155420000Y-122605000D01*
X155420000Y-122605000D02*
X156750000Y-122605000D01*
X158080000Y-120005000D02*
X158080000Y-117405000D01*
%TO.C,J6*%
X122069000Y-122399000D02*
X121569000Y-122399000D01*
X122069000Y-121659000D02*
X122069000Y-122399000D01*
X121829000Y-122159000D02*
X111089000Y-122159000D01*
X121829000Y-121599000D02*
X111089000Y-121599000D01*
X121829000Y-116299000D02*
X111089000Y-116299000D01*
X121829000Y-115839000D02*
X121829000Y-122159000D01*
X121829000Y-115839000D02*
X111089000Y-115839000D01*
X111089000Y-115839000D02*
X111089000Y-122159000D01*
%TO.C,J5*%
X113598000Y-106277800D02*
X110938000Y-106277800D01*
X113598000Y-103677800D02*
X113598000Y-106277800D01*
X113598000Y-103677800D02*
X110938000Y-103677800D01*
X113598000Y-102407800D02*
X113598000Y-101077800D01*
X113598000Y-101077800D02*
X112268000Y-101077800D01*
X110938000Y-103677800D02*
X110938000Y-106277800D01*
%TO.C,J4*%
X152070000Y-122400000D02*
X151570000Y-122400000D01*
X152070000Y-121660000D02*
X152070000Y-122400000D01*
X151830000Y-122160000D02*
X151060000Y-122160000D01*
X151830000Y-121600000D02*
X151060000Y-121600000D01*
X151830000Y-116300000D02*
X146170000Y-116300000D01*
X151830000Y-115840000D02*
X151830000Y-122160000D01*
X151830000Y-115840000D02*
X146170000Y-115840000D01*
X149480000Y-122160000D02*
X148520000Y-122160000D01*
X149480000Y-121600000D02*
X148520000Y-121600000D01*
X146940000Y-122160000D02*
X146170000Y-122160000D01*
X146940000Y-121600000D02*
X146170000Y-121600000D01*
X146170000Y-115840000D02*
X146170000Y-122160000D01*
%TO.C,J12*%
X156251600Y-86101800D02*
X158911600Y-86101800D01*
X156251600Y-88701800D02*
X156251600Y-86101800D01*
X156251600Y-88701800D02*
X158911600Y-88701800D01*
X156251600Y-89971800D02*
X156251600Y-91301800D01*
X156251600Y-91301800D02*
X157581600Y-91301800D01*
X158911600Y-88701800D02*
X158911600Y-86101800D01*
%TO.C,G\u002A\u002A\u002A*%
G36*
X143753156Y-101226605D02*
G01*
X143736336Y-101556228D01*
X143703423Y-101886161D01*
X143654399Y-102216034D01*
X143589246Y-102545477D01*
X143558665Y-102677188D01*
X143484111Y-102959069D01*
X143399927Y-103228533D01*
X143306189Y-103485382D01*
X143202971Y-103729421D01*
X143090347Y-103960451D01*
X142968394Y-104178276D01*
X142965861Y-104182491D01*
X142933442Y-104235408D01*
X142893498Y-104299079D01*
X142847615Y-104371078D01*
X142797381Y-104448979D01*
X142744381Y-104530357D01*
X142690203Y-104612785D01*
X142636432Y-104693838D01*
X142584655Y-104771091D01*
X142536459Y-104842117D01*
X142493431Y-104904490D01*
X142449523Y-104966777D01*
X142310740Y-105154585D01*
X142169901Y-105330936D01*
X142025008Y-105497879D01*
X141874067Y-105657464D01*
X141715080Y-105811739D01*
X141546052Y-105962754D01*
X141364986Y-106112558D01*
X141169887Y-106263200D01*
X141161851Y-106269205D01*
X140891815Y-106461054D01*
X140616654Y-106637445D01*
X140336334Y-106798389D01*
X140050821Y-106943898D01*
X139760082Y-107073984D01*
X139464084Y-107188660D01*
X139162794Y-107287936D01*
X138856177Y-107371826D01*
X138544201Y-107440341D01*
X138226833Y-107493494D01*
X137904039Y-107531295D01*
X137575785Y-107553757D01*
X137517929Y-107555729D01*
X137439489Y-107557140D01*
X137351475Y-107557683D01*
X137257459Y-107557401D01*
X137161009Y-107556335D01*
X137065697Y-107554525D01*
X136975092Y-107552014D01*
X136892764Y-107548843D01*
X136822283Y-107545052D01*
X136812088Y-107544384D01*
X136743955Y-107539484D01*
X136666753Y-107533316D01*
X136583646Y-107526179D01*
X136497799Y-107518376D01*
X136412376Y-107510209D01*
X136330541Y-107501977D01*
X136255461Y-107493983D01*
X136190298Y-107486528D01*
X136138218Y-107479913D01*
X136019955Y-107462314D01*
X135852093Y-107432031D01*
X135686955Y-107395507D01*
X135520665Y-107351777D01*
X135349347Y-107299878D01*
X135169125Y-107238845D01*
X135123010Y-107222320D01*
X134813316Y-107101787D01*
X134512698Y-106967782D01*
X134220865Y-106820133D01*
X133937531Y-106658668D01*
X133662406Y-106483214D01*
X133395201Y-106293597D01*
X133135629Y-106089646D01*
X132883400Y-105871187D01*
X132844398Y-105835644D01*
X132519533Y-105529469D01*
X132199538Y-105209866D01*
X131886698Y-104879242D01*
X131583298Y-104540005D01*
X131291624Y-104194563D01*
X131196317Y-104076749D01*
X131032681Y-103867703D01*
X130864810Y-103645133D01*
X130693455Y-103410182D01*
X130519368Y-103163996D01*
X130343301Y-102907721D01*
X130166005Y-102642502D01*
X129988231Y-102369483D01*
X129810731Y-102089811D01*
X129634256Y-101804630D01*
X129459558Y-101515085D01*
X129287389Y-101222322D01*
X129254690Y-101165238D01*
X131459720Y-101165238D01*
X131459816Y-101250666D01*
X131460373Y-101334063D01*
X131461393Y-101413054D01*
X131462875Y-101485264D01*
X131464820Y-101548319D01*
X131467228Y-101599843D01*
X131470099Y-101637461D01*
X131491857Y-101823989D01*
X131530530Y-102081367D01*
X131578665Y-102329208D01*
X131636992Y-102570176D01*
X131706245Y-102806938D01*
X131787156Y-103042159D01*
X131880457Y-103278505D01*
X131986880Y-103518641D01*
X132015811Y-103579547D01*
X132118862Y-103781095D01*
X132233832Y-103985058D01*
X132358555Y-104188006D01*
X132490862Y-104386511D01*
X132628584Y-104577143D01*
X132769554Y-104756474D01*
X132774514Y-104762499D01*
X132981600Y-105001362D01*
X133198654Y-105227685D01*
X133425362Y-105441213D01*
X133661411Y-105641695D01*
X133906485Y-105828875D01*
X134160271Y-106002501D01*
X134422455Y-106162319D01*
X134692722Y-106308075D01*
X134812586Y-106367062D01*
X135070847Y-106483049D01*
X135330641Y-106584353D01*
X135593560Y-106671431D01*
X135861193Y-106744739D01*
X136135130Y-106804734D01*
X136416960Y-106851872D01*
X136708272Y-106886609D01*
X136719873Y-106887505D01*
X136752425Y-106889136D01*
X136797850Y-106890736D01*
X136854065Y-106892279D01*
X136918987Y-106893742D01*
X136990534Y-106895098D01*
X137066623Y-106896324D01*
X137145172Y-106897394D01*
X137224098Y-106898284D01*
X137301320Y-106898969D01*
X137374753Y-106899424D01*
X137442316Y-106899624D01*
X137501927Y-106899544D01*
X137551502Y-106899160D01*
X137588959Y-106898447D01*
X137612216Y-106897380D01*
X137616702Y-106897021D01*
X137642010Y-106895060D01*
X137678260Y-106892308D01*
X137721292Y-106889080D01*
X137766945Y-106885690D01*
X137828412Y-106880696D01*
X138055966Y-106854772D01*
X138289255Y-106817056D01*
X138524774Y-106768252D01*
X138759021Y-106709064D01*
X138988490Y-106640196D01*
X139120281Y-106595403D01*
X139389907Y-106491782D01*
X139656687Y-106373329D01*
X139918850Y-106241018D01*
X140174628Y-106095826D01*
X140422251Y-105938731D01*
X140659951Y-105770709D01*
X140885957Y-105592737D01*
X141041531Y-105458924D01*
X141268677Y-105246365D01*
X141483575Y-105023749D01*
X141685874Y-104791557D01*
X141875223Y-104550271D01*
X142051269Y-104300370D01*
X142213664Y-104042336D01*
X142362054Y-103776649D01*
X142496090Y-103503791D01*
X142615421Y-103224241D01*
X142713400Y-102956669D01*
X142801370Y-102670730D01*
X142873869Y-102380715D01*
X142930859Y-102087254D01*
X142972304Y-101790977D01*
X142998165Y-101492515D01*
X143008406Y-101192497D01*
X143002989Y-100891554D01*
X142981878Y-100590316D01*
X142945035Y-100289413D01*
X142892423Y-99989475D01*
X142824004Y-99691132D01*
X142745952Y-99415759D01*
X142648177Y-99127949D01*
X142535669Y-98846392D01*
X142408789Y-98571625D01*
X142267895Y-98304185D01*
X142113347Y-98044609D01*
X141945505Y-97793432D01*
X141764730Y-97551191D01*
X141571379Y-97318423D01*
X141365814Y-97095665D01*
X141148394Y-96883452D01*
X140919479Y-96682321D01*
X140679429Y-96492808D01*
X140540432Y-96391967D01*
X140285902Y-96222515D01*
X140025019Y-96067895D01*
X139758095Y-95928225D01*
X139485440Y-95803624D01*
X139207365Y-95694208D01*
X138924182Y-95600097D01*
X138636201Y-95521408D01*
X138343734Y-95458260D01*
X138047092Y-95410770D01*
X137746586Y-95379057D01*
X137705484Y-95376094D01*
X137588969Y-95370052D01*
X137461262Y-95366373D01*
X137325910Y-95365016D01*
X137186460Y-95365941D01*
X137046461Y-95369106D01*
X136909461Y-95374471D01*
X136779007Y-95381994D01*
X136658648Y-95391634D01*
X136461781Y-95413602D01*
X136164942Y-95460185D01*
X135871174Y-95522483D01*
X135581229Y-95600223D01*
X135295856Y-95693132D01*
X135015807Y-95800933D01*
X134741833Y-95923354D01*
X134474684Y-96060120D01*
X134215112Y-96210957D01*
X133963867Y-96375591D01*
X133911541Y-96412363D01*
X133666621Y-96596413D01*
X133432424Y-96792496D01*
X133209332Y-97000107D01*
X132997725Y-97218740D01*
X132797983Y-97447888D01*
X132610486Y-97687045D01*
X132435615Y-97935705D01*
X132273750Y-98193361D01*
X132125271Y-98459507D01*
X131990560Y-98733637D01*
X131869995Y-99015244D01*
X131763959Y-99303823D01*
X131763836Y-99304187D01*
X131691829Y-99531672D01*
X131629876Y-99758918D01*
X131577359Y-99988920D01*
X131533661Y-100224668D01*
X131498162Y-100469155D01*
X131470244Y-100725374D01*
X131468822Y-100743023D01*
X131466155Y-100790761D01*
X131463948Y-100850718D01*
X131462200Y-100920519D01*
X131460913Y-100997790D01*
X131460086Y-101080154D01*
X131459720Y-101165238D01*
X129254690Y-101165238D01*
X129118500Y-100927486D01*
X128953642Y-100631722D01*
X128878987Y-100494777D01*
X128785419Y-100320312D01*
X128689297Y-100138221D01*
X128591519Y-99950310D01*
X128492983Y-99758386D01*
X128394587Y-99564258D01*
X128297229Y-99369732D01*
X128201806Y-99176615D01*
X128109217Y-98986715D01*
X128020358Y-98801840D01*
X127936128Y-98623796D01*
X127857425Y-98454391D01*
X127785147Y-98295432D01*
X127720191Y-98148727D01*
X127716884Y-98141022D01*
X127703840Y-98109160D01*
X127688127Y-98069106D01*
X127670593Y-98023200D01*
X127652089Y-97973781D01*
X127633464Y-97923191D01*
X127615568Y-97873769D01*
X127599250Y-97827855D01*
X127585360Y-97787790D01*
X127574747Y-97755914D01*
X127568262Y-97734567D01*
X127566753Y-97726089D01*
X127568948Y-97725994D01*
X127581926Y-97730476D01*
X127601941Y-97739840D01*
X127607508Y-97742988D01*
X127622780Y-97754617D01*
X127640947Y-97772886D01*
X127663522Y-97799538D01*
X127692018Y-97836314D01*
X127727948Y-97884958D01*
X127752320Y-97918199D01*
X127889043Y-98095634D01*
X128027401Y-98259420D01*
X128169554Y-98411774D01*
X128317659Y-98554914D01*
X128473875Y-98691057D01*
X128640360Y-98822421D01*
X128685363Y-98855851D01*
X128799800Y-98937261D01*
X128918115Y-99016707D01*
X129038327Y-99093052D01*
X129158454Y-99165164D01*
X129276514Y-99231908D01*
X129390526Y-99292148D01*
X129498508Y-99344751D01*
X129598479Y-99388582D01*
X129688458Y-99422507D01*
X129726711Y-99435112D01*
X129806532Y-99459349D01*
X129887828Y-99481556D01*
X129967811Y-99501115D01*
X130043697Y-99517406D01*
X130112700Y-99529809D01*
X130172034Y-99537705D01*
X130218913Y-99540475D01*
X130237353Y-99539812D01*
X130296430Y-99528212D01*
X130349061Y-99503202D01*
X130392948Y-99466141D01*
X130425788Y-99418385D01*
X130436467Y-99390827D01*
X130444452Y-99338680D01*
X130440793Y-99280279D01*
X130425493Y-99218801D01*
X130401672Y-99156584D01*
X130363761Y-99074348D01*
X130318833Y-98990667D01*
X130269584Y-98910868D01*
X130256508Y-98892235D01*
X130221707Y-98848003D01*
X130175651Y-98794547D01*
X130119156Y-98732685D01*
X130053041Y-98663231D01*
X129978126Y-98587004D01*
X129895228Y-98504819D01*
X129805165Y-98417492D01*
X129708757Y-98325840D01*
X129606822Y-98230681D01*
X129500178Y-98132829D01*
X129389644Y-98033101D01*
X129348100Y-97995903D01*
X129270275Y-97926011D01*
X129200491Y-97862977D01*
X129135925Y-97804204D01*
X129073758Y-97747094D01*
X129011169Y-97689049D01*
X128945336Y-97627472D01*
X128873439Y-97559765D01*
X128792658Y-97483330D01*
X128749518Y-97442072D01*
X128696602Y-97390828D01*
X128636068Y-97331721D01*
X128569400Y-97266229D01*
X128498080Y-97195832D01*
X128423591Y-97122011D01*
X128347416Y-97046245D01*
X128271036Y-96970014D01*
X128195936Y-96894798D01*
X128123598Y-96822077D01*
X128055504Y-96753330D01*
X127993137Y-96690038D01*
X127937980Y-96633681D01*
X127891515Y-96585738D01*
X127855226Y-96547689D01*
X127724512Y-96404357D01*
X127572990Y-96227375D01*
X127423437Y-96041477D01*
X127278767Y-95850408D01*
X127141892Y-95657917D01*
X127015725Y-95467750D01*
X126973344Y-95400056D01*
X126873414Y-95227843D01*
X126787687Y-95059714D01*
X126715541Y-94894156D01*
X126656349Y-94729655D01*
X126609488Y-94564698D01*
X126574333Y-94397769D01*
X126565618Y-94347654D01*
X126557818Y-94301453D01*
X126552573Y-94268009D01*
X126549657Y-94245554D01*
X126548848Y-94232320D01*
X126549921Y-94226538D01*
X126552653Y-94226440D01*
X126552742Y-94226500D01*
X126559243Y-94235278D01*
X126571639Y-94255389D01*
X126588183Y-94283899D01*
X126607130Y-94317880D01*
X126666246Y-94420105D01*
X126773619Y-94583253D01*
X126895836Y-94744677D01*
X127032008Y-94903230D01*
X127181247Y-95057769D01*
X127195529Y-95071684D01*
X127299447Y-95169181D01*
X127406371Y-95262695D01*
X127518752Y-95354161D01*
X127639041Y-95445514D01*
X127769689Y-95538689D01*
X127913146Y-95635620D01*
X128031658Y-95713041D01*
X128155006Y-95791488D01*
X128268376Y-95860956D01*
X128373164Y-95922153D01*
X128470766Y-95975786D01*
X128562576Y-96022565D01*
X128649991Y-96063195D01*
X128734407Y-96098384D01*
X128817218Y-96128841D01*
X128899820Y-96155273D01*
X128983609Y-96178387D01*
X129029657Y-96189148D01*
X129128807Y-96204557D01*
X129218608Y-96207045D01*
X129298899Y-96196677D01*
X129369522Y-96173515D01*
X129430317Y-96137621D01*
X129481124Y-96089059D01*
X129521785Y-96027891D01*
X129552139Y-95954181D01*
X129554830Y-95945432D01*
X129560742Y-95923457D01*
X129564943Y-95901218D01*
X129567709Y-95875511D01*
X129569318Y-95843132D01*
X129570045Y-95800876D01*
X129570168Y-95745541D01*
X129569739Y-95697407D01*
X129567311Y-95633545D01*
X129561995Y-95577578D01*
X129552952Y-95524994D01*
X129539339Y-95471283D01*
X129520318Y-95411933D01*
X129495046Y-95342431D01*
X129491205Y-95332308D01*
X129414568Y-95153369D01*
X129323341Y-94979911D01*
X129217053Y-94811113D01*
X129095231Y-94646150D01*
X129080872Y-94628650D01*
X129044411Y-94587055D01*
X128999105Y-94538037D01*
X128947188Y-94483826D01*
X128890894Y-94426650D01*
X128832460Y-94368738D01*
X128774121Y-94312319D01*
X128718110Y-94259620D01*
X128666665Y-94212872D01*
X128622018Y-94174301D01*
X128516576Y-94088926D01*
X128361717Y-93973004D01*
X128206443Y-93868541D01*
X128047234Y-93773213D01*
X127880571Y-93684696D01*
X127863782Y-93676322D01*
X127820066Y-93654871D01*
X127777882Y-93634835D01*
X127735542Y-93615532D01*
X127691355Y-93596281D01*
X127643630Y-93576402D01*
X127590679Y-93555213D01*
X127530810Y-93532033D01*
X127462334Y-93506182D01*
X127383561Y-93476978D01*
X127292800Y-93443740D01*
X127188362Y-93405788D01*
X127146646Y-93390660D01*
X127006367Y-93339653D01*
X126869719Y-93289767D01*
X126737767Y-93241397D01*
X126611575Y-93194940D01*
X126492207Y-93150792D01*
X126380727Y-93109350D01*
X126278199Y-93071011D01*
X126185688Y-93036169D01*
X126104258Y-93005222D01*
X126034972Y-92978567D01*
X125978896Y-92956599D01*
X125937093Y-92939716D01*
X125834503Y-92895634D01*
X125645815Y-92806368D01*
X125459545Y-92707904D01*
X125277675Y-92601545D01*
X125102186Y-92488592D01*
X124935060Y-92370351D01*
X124778277Y-92248123D01*
X124633818Y-92123211D01*
X124503665Y-91996920D01*
X124467259Y-91958651D01*
X124384742Y-91867336D01*
X124306798Y-91774790D01*
X124235578Y-91683716D01*
X124173229Y-91596816D01*
X124121902Y-91516794D01*
X124106870Y-91490226D01*
X124082603Y-91441751D01*
X124060881Y-91391799D01*
X124043204Y-91344205D01*
X124031070Y-91302807D01*
X124025981Y-91271439D01*
X124025600Y-91260513D01*
X124027147Y-91244746D01*
X124035180Y-91238101D01*
X124053522Y-91235605D01*
X124066389Y-91234951D01*
X124082752Y-91236278D01*
X124099845Y-91241318D01*
X124120096Y-91251324D01*
X124145933Y-91267550D01*
X124179785Y-91291249D01*
X124224079Y-91323676D01*
X124242954Y-91337576D01*
X124327380Y-91398342D01*
X124414357Y-91458570D01*
X124505404Y-91519203D01*
X124602038Y-91581185D01*
X124705779Y-91645462D01*
X124818145Y-91712977D01*
X124940655Y-91784675D01*
X125074826Y-91861500D01*
X125222177Y-91944396D01*
X125323497Y-92000539D01*
X125414004Y-92049623D01*
X125494415Y-92091852D01*
X125566622Y-92128086D01*
X125632514Y-92159183D01*
X125693981Y-92186004D01*
X125752912Y-92209406D01*
X125811199Y-92230250D01*
X125870731Y-92249395D01*
X125933397Y-92267698D01*
X125944146Y-92270696D01*
X125996307Y-92284735D01*
X126045294Y-92296796D01*
X126092726Y-92306993D01*
X126140225Y-92315441D01*
X126189413Y-92322254D01*
X126241909Y-92327547D01*
X126299335Y-92331434D01*
X126363311Y-92334030D01*
X126435460Y-92335450D01*
X126517400Y-92335808D01*
X126610754Y-92335219D01*
X126717142Y-92333798D01*
X126838186Y-92331658D01*
X126884945Y-92330783D01*
X126972745Y-92329238D01*
X127057492Y-92327868D01*
X127137296Y-92326694D01*
X127210268Y-92325743D01*
X127274517Y-92325037D01*
X127328153Y-92324600D01*
X127369286Y-92324456D01*
X127396025Y-92324629D01*
X127403150Y-92324772D01*
X127568869Y-92336365D01*
X127735701Y-92363573D01*
X127902027Y-92405988D01*
X128066225Y-92463198D01*
X128226676Y-92534795D01*
X128244583Y-92543861D01*
X128314782Y-92581690D01*
X128395999Y-92628511D01*
X128486880Y-92683452D01*
X128586067Y-92745641D01*
X128692204Y-92814204D01*
X128803934Y-92888269D01*
X128919902Y-92966964D01*
X129038750Y-93049414D01*
X129159122Y-93134748D01*
X129230369Y-93186093D01*
X129349845Y-93273754D01*
X129460992Y-93357578D01*
X129567489Y-93440401D01*
X129673013Y-93525058D01*
X129781241Y-93614385D01*
X129807749Y-93636443D01*
X129893184Y-93705882D01*
X129969194Y-93764550D01*
X130037240Y-93813187D01*
X130098783Y-93852534D01*
X130155282Y-93883333D01*
X130208199Y-93906323D01*
X130258992Y-93922247D01*
X130309124Y-93931844D01*
X130360054Y-93935856D01*
X130413242Y-93935023D01*
X130425231Y-93934246D01*
X130514693Y-93920702D01*
X130598585Y-93894659D01*
X130675720Y-93857381D01*
X130744912Y-93810132D01*
X130804974Y-93754176D01*
X130854720Y-93690776D01*
X130892963Y-93621195D01*
X130918518Y-93546698D01*
X130930196Y-93468548D01*
X130926813Y-93388009D01*
X130908746Y-93302458D01*
X130876410Y-93207199D01*
X130830741Y-93105839D01*
X130772284Y-92999138D01*
X130701584Y-92887858D01*
X130619188Y-92772759D01*
X130525640Y-92654602D01*
X130421487Y-92534148D01*
X130307273Y-92412157D01*
X130183546Y-92289391D01*
X130050850Y-92166611D01*
X130050595Y-92166383D01*
X130013449Y-92133501D01*
X129967249Y-92093140D01*
X129913773Y-92046813D01*
X129854801Y-91996032D01*
X129792113Y-91942311D01*
X129727489Y-91887162D01*
X129662708Y-91832098D01*
X129599551Y-91778632D01*
X129539796Y-91728276D01*
X129485224Y-91682543D01*
X129437615Y-91642947D01*
X129398747Y-91611000D01*
X129370401Y-91588215D01*
X129361031Y-91580644D01*
X129322207Y-91542750D01*
X129295260Y-91502706D01*
X129271858Y-91457916D01*
X129298962Y-91455547D01*
X129320105Y-91456363D01*
X129356096Y-91462270D01*
X129401780Y-91472732D01*
X129454250Y-91486956D01*
X129510599Y-91504147D01*
X129567922Y-91523508D01*
X129623309Y-91544246D01*
X129729738Y-91588725D01*
X129929426Y-91684981D01*
X130125358Y-91796238D01*
X130316205Y-91921715D01*
X130500640Y-92060629D01*
X130550727Y-92101941D01*
X130622205Y-92163522D01*
X130703847Y-92236323D01*
X130795196Y-92319901D01*
X130895798Y-92413813D01*
X131005197Y-92517613D01*
X131122937Y-92630860D01*
X131248564Y-92753108D01*
X131381621Y-92883915D01*
X131521654Y-93022837D01*
X131668206Y-93169430D01*
X131820823Y-93323251D01*
X131979048Y-93483856D01*
X132142428Y-93650801D01*
X132310505Y-93823643D01*
X132337626Y-93851595D01*
X132412605Y-93928541D01*
X132477559Y-93994588D01*
X132533311Y-94050486D01*
X132580686Y-94096991D01*
X132620504Y-94134852D01*
X132653590Y-94164825D01*
X132680767Y-94187660D01*
X132702856Y-94204110D01*
X132720681Y-94214929D01*
X132735066Y-94220868D01*
X132746832Y-94222681D01*
X132764565Y-94220672D01*
X132793682Y-94208850D01*
X132814127Y-94189462D01*
X132818327Y-94181342D01*
X132826906Y-94147566D01*
X132829831Y-94099978D01*
X132827177Y-94039643D01*
X132819019Y-93967626D01*
X132805429Y-93884992D01*
X132786483Y-93792807D01*
X132740493Y-93610413D01*
X132668616Y-93383024D01*
X132580645Y-93155621D01*
X132476683Y-92928444D01*
X132356835Y-92701737D01*
X132221203Y-92475739D01*
X132137258Y-92346130D01*
X131971007Y-92103207D01*
X131802888Y-91875800D01*
X131632470Y-91663428D01*
X131459323Y-91465613D01*
X131283017Y-91281871D01*
X131103122Y-91111724D01*
X130919207Y-90954690D01*
X130730844Y-90810288D01*
X130727734Y-90808033D01*
X130659003Y-90757748D01*
X130602767Y-90715542D01*
X130557998Y-90680516D01*
X130523671Y-90651768D01*
X130498759Y-90628398D01*
X130482235Y-90609505D01*
X130473073Y-90594187D01*
X130470247Y-90581544D01*
X130470652Y-90565958D01*
X130474434Y-90548439D01*
X130484873Y-90538705D01*
X130505168Y-90534512D01*
X130538517Y-90533614D01*
X130578562Y-90534385D01*
X130704210Y-90545893D01*
X130833348Y-90570421D01*
X130962800Y-90606973D01*
X131089386Y-90654554D01*
X131209928Y-90712168D01*
X131321246Y-90778818D01*
X131321261Y-90778828D01*
X131357498Y-90803897D01*
X131397691Y-90833227D01*
X131442335Y-90867248D01*
X131491924Y-90906392D01*
X131546951Y-90951090D01*
X131607913Y-91001772D01*
X131675303Y-91058869D01*
X131749615Y-91122812D01*
X131831345Y-91194033D01*
X131920987Y-91272961D01*
X132019035Y-91360028D01*
X132125983Y-91455665D01*
X132242327Y-91560303D01*
X132368560Y-91674372D01*
X132505177Y-91798303D01*
X132652673Y-91932528D01*
X132811543Y-92077477D01*
X132823379Y-92088286D01*
X132981290Y-92231837D01*
X133129792Y-92365486D01*
X133270780Y-92490806D01*
X133406151Y-92609371D01*
X133537801Y-92722755D01*
X133667626Y-92832532D01*
X133797522Y-92940276D01*
X133929386Y-93047561D01*
X134065113Y-93155961D01*
X134206599Y-93267049D01*
X134355742Y-93382399D01*
X134514436Y-93503586D01*
X134684579Y-93632183D01*
X134694972Y-93639998D01*
X134822217Y-93734446D01*
X134939524Y-93818951D01*
X135048706Y-93894608D01*
X135151578Y-93962515D01*
X135249956Y-94023768D01*
X135345654Y-94079463D01*
X135440486Y-94130697D01*
X135536268Y-94178565D01*
X135634814Y-94224165D01*
X135737939Y-94268593D01*
X135859004Y-94316756D01*
X136006669Y-94368995D01*
X136148776Y-94411981D01*
X136284339Y-94445538D01*
X136412373Y-94469486D01*
X136531894Y-94483649D01*
X136641917Y-94487848D01*
X136741456Y-94481906D01*
X136829526Y-94465645D01*
X136853772Y-94458684D01*
X136922070Y-94432471D01*
X136985280Y-94398756D01*
X137040601Y-94359433D01*
X137085234Y-94316398D01*
X137116380Y-94271543D01*
X137120826Y-94261911D01*
X137132152Y-94219693D01*
X137135998Y-94169971D01*
X137132244Y-94118260D01*
X137120771Y-94070074D01*
X137097766Y-94017720D01*
X137058153Y-93954707D01*
X137008088Y-93894385D01*
X136950513Y-93840228D01*
X136888371Y-93795710D01*
X136878284Y-93789568D01*
X136868243Y-93783569D01*
X136858066Y-93777845D01*
X136846850Y-93772087D01*
X136833688Y-93765989D01*
X136817678Y-93759241D01*
X136797913Y-93751536D01*
X136773491Y-93742565D01*
X136743506Y-93732021D01*
X136707053Y-93719595D01*
X136663229Y-93704979D01*
X136611128Y-93687866D01*
X136549846Y-93667946D01*
X136478478Y-93644912D01*
X136396121Y-93618456D01*
X136301868Y-93588270D01*
X136194817Y-93554046D01*
X136074062Y-93515475D01*
X135938699Y-93472249D01*
X135871767Y-93450573D01*
X135745471Y-93407567D01*
X135632470Y-93365691D01*
X135530897Y-93323923D01*
X135438885Y-93281239D01*
X135354567Y-93236618D01*
X135276079Y-93189037D01*
X135201553Y-93137472D01*
X135129123Y-93080902D01*
X135056922Y-93018305D01*
X134983085Y-92948656D01*
X134958169Y-92924085D01*
X134906954Y-92871394D01*
X134865764Y-92825093D01*
X134832577Y-92782675D01*
X134805369Y-92741632D01*
X134782119Y-92699456D01*
X134781056Y-92697321D01*
X134769131Y-92670969D01*
X134755516Y-92637520D01*
X134741319Y-92600147D01*
X134727648Y-92562023D01*
X134715612Y-92526322D01*
X134706319Y-92496216D01*
X134700877Y-92474879D01*
X134700395Y-92465484D01*
X134708072Y-92463463D01*
X134727810Y-92470404D01*
X134757163Y-92488343D01*
X134795269Y-92516731D01*
X134841267Y-92555021D01*
X134883616Y-92591083D01*
X135044475Y-92716597D01*
X135213874Y-92831064D01*
X135393287Y-92935358D01*
X135584185Y-93030353D01*
X135788041Y-93116922D01*
X135802075Y-93122374D01*
X135867232Y-93146588D01*
X135941644Y-93172549D01*
X136026624Y-93200682D01*
X136123484Y-93231416D01*
X136233537Y-93265177D01*
X136358096Y-93302392D01*
X136749236Y-93424443D01*
X137185493Y-93576247D01*
X137615960Y-93742936D01*
X138041132Y-93924721D01*
X138461502Y-94121816D01*
X138877562Y-94334431D01*
X139289805Y-94562778D01*
X139600293Y-94747142D01*
X139961662Y-94975828D01*
X140320071Y-95217712D01*
X140673189Y-95471163D01*
X141018682Y-95734551D01*
X141354216Y-96006244D01*
X141482233Y-96115598D01*
X141710989Y-96324591D01*
X141927714Y-96541264D01*
X142133273Y-96766685D01*
X142328535Y-97001923D01*
X142514368Y-97248046D01*
X142691638Y-97506122D01*
X142861213Y-97777219D01*
X143023961Y-98062405D01*
X143052270Y-98114682D01*
X143131106Y-98265204D01*
X143201060Y-98407135D01*
X143263402Y-98543327D01*
X143319401Y-98676632D01*
X143370329Y-98809902D01*
X143417456Y-98945990D01*
X143421754Y-98959070D01*
X143517095Y-99276143D01*
X143596466Y-99596120D01*
X143659850Y-99918631D01*
X143707228Y-100243306D01*
X143738584Y-100569774D01*
X143753899Y-100897664D01*
X143753233Y-101192497D01*
X143753156Y-101226605D01*
G37*
G36*
X139679612Y-97524832D02*
G01*
X139849838Y-97644996D01*
X140014980Y-97775302D01*
X140177742Y-97917704D01*
X140340832Y-98074154D01*
X140345425Y-98078751D01*
X140397126Y-98131834D01*
X140453693Y-98189914D01*
X140551185Y-98296132D01*
X140640821Y-98400947D01*
X140725523Y-98507902D01*
X140808210Y-98620538D01*
X140891804Y-98742399D01*
X140983789Y-98887272D01*
X141104829Y-99101127D01*
X141214453Y-99323543D01*
X141311243Y-99551580D01*
X141393783Y-99782303D01*
X141438320Y-99928921D01*
X141488277Y-100128698D01*
X141500951Y-100179381D01*
X141548046Y-100433712D01*
X141579611Y-100691292D01*
X141595652Y-100951502D01*
X141595991Y-101120842D01*
X141596177Y-101213722D01*
X141581190Y-101477331D01*
X141550698Y-101741710D01*
X141513538Y-101955449D01*
X141504708Y-102006238D01*
X141469586Y-102157080D01*
X141443225Y-102270295D01*
X141366256Y-102533261D01*
X141288336Y-102753392D01*
X141187371Y-102993028D01*
X141072148Y-103225485D01*
X140943098Y-103450224D01*
X140800655Y-103666703D01*
X140645251Y-103874384D01*
X140477319Y-104072726D01*
X140382049Y-104172461D01*
X140297293Y-104261189D01*
X140105604Y-104439233D01*
X139902686Y-104606319D01*
X139688971Y-104761905D01*
X139558247Y-104845649D01*
X139464893Y-104905453D01*
X139450216Y-104914164D01*
X139377862Y-104955200D01*
X139295354Y-104999447D01*
X139206686Y-105044931D01*
X139115851Y-105089675D01*
X139026841Y-105131703D01*
X138943650Y-105169039D01*
X138870271Y-105199707D01*
X138842223Y-105210746D01*
X138613554Y-105292824D01*
X138383398Y-105361130D01*
X138149791Y-105416073D01*
X137910769Y-105458063D01*
X137664369Y-105487510D01*
X137408625Y-105504824D01*
X137406365Y-105504916D01*
X137377547Y-105505525D01*
X137336501Y-105505729D01*
X137286881Y-105505542D01*
X137232340Y-105504975D01*
X137176531Y-105504042D01*
X137098236Y-105501866D01*
X136830018Y-105485167D01*
X136567411Y-105454371D01*
X136311009Y-105409632D01*
X136061407Y-105351102D01*
X135819202Y-105278935D01*
X135584988Y-105193283D01*
X135359359Y-105094299D01*
X135142912Y-104982134D01*
X134976992Y-104884579D01*
X134889038Y-104826889D01*
X136148018Y-104826889D01*
X136153078Y-104848573D01*
X136158226Y-104863615D01*
X136165815Y-104878127D01*
X136176899Y-104890356D01*
X136193270Y-104901036D01*
X136216719Y-104910904D01*
X136249037Y-104920693D01*
X136292015Y-104931140D01*
X136347445Y-104942978D01*
X136417117Y-104956945D01*
X136449179Y-104963248D01*
X136539852Y-104980709D01*
X136618094Y-104995064D01*
X136686519Y-105006691D01*
X136747744Y-105015966D01*
X136804383Y-105023268D01*
X136859052Y-105028973D01*
X136914366Y-105033458D01*
X136972940Y-105037100D01*
X136975745Y-105037254D01*
X137108691Y-105043501D01*
X137228899Y-105046780D01*
X137339621Y-105046871D01*
X137444107Y-105043550D01*
X137545610Y-105036598D01*
X137647381Y-105025792D01*
X137752673Y-105010911D01*
X137864736Y-104991733D01*
X137986823Y-104968037D01*
X138051933Y-104954723D01*
X138114271Y-104941640D01*
X138163906Y-104930660D01*
X138202611Y-104921279D01*
X138232159Y-104912994D01*
X138254323Y-104905301D01*
X138270877Y-104897696D01*
X138283593Y-104889676D01*
X138294245Y-104880738D01*
X138295199Y-104879833D01*
X138303593Y-104870225D01*
X138309367Y-104859153D01*
X138312089Y-104845649D01*
X138311327Y-104828745D01*
X138306649Y-104807474D01*
X138297623Y-104780866D01*
X138283815Y-104747953D01*
X138264795Y-104707768D01*
X138240130Y-104659342D01*
X138209387Y-104601707D01*
X138172134Y-104533894D01*
X138127940Y-104454936D01*
X138076371Y-104363865D01*
X138016996Y-104259712D01*
X137985003Y-104203768D01*
X137891959Y-104041797D01*
X137805837Y-103893020D01*
X137726711Y-103757556D01*
X137654651Y-103635525D01*
X137589731Y-103527046D01*
X137532022Y-103432236D01*
X137481595Y-103351214D01*
X137438524Y-103284101D01*
X137402881Y-103231013D01*
X137374736Y-103192070D01*
X137354164Y-103167391D01*
X137343990Y-103157158D01*
X137300575Y-103122636D01*
X137257593Y-103103739D01*
X137214669Y-103100561D01*
X137171430Y-103113195D01*
X137127501Y-103141735D01*
X137082508Y-103186274D01*
X137036079Y-103246906D01*
X137030387Y-103255450D01*
X137013210Y-103282661D01*
X136989432Y-103321581D01*
X136959727Y-103371037D01*
X136924769Y-103429859D01*
X136885233Y-103496876D01*
X136841793Y-103570916D01*
X136795123Y-103650810D01*
X136745897Y-103735385D01*
X136694789Y-103823471D01*
X136642475Y-103913898D01*
X136589628Y-104005493D01*
X136536922Y-104097086D01*
X136485032Y-104187506D01*
X136434631Y-104275582D01*
X136386394Y-104360144D01*
X136340996Y-104440019D01*
X136299111Y-104514038D01*
X136261412Y-104581029D01*
X136228574Y-104639821D01*
X136201272Y-104689243D01*
X136180179Y-104728124D01*
X136165970Y-104755294D01*
X136159319Y-104769582D01*
X136154524Y-104783566D01*
X136148314Y-104807566D01*
X136148018Y-104826889D01*
X134889038Y-104826889D01*
X134754213Y-104738456D01*
X134542053Y-104581233D01*
X134340890Y-104413456D01*
X134151103Y-104235672D01*
X134092805Y-104174357D01*
X134868947Y-104174357D01*
X134877187Y-104212538D01*
X134897526Y-104249620D01*
X134930731Y-104287354D01*
X134977575Y-104327492D01*
X135038827Y-104371786D01*
X135088592Y-104404813D01*
X135149479Y-104443290D01*
X135215274Y-104483237D01*
X135283907Y-104523514D01*
X135353309Y-104562984D01*
X135421409Y-104600506D01*
X135486139Y-104634943D01*
X135545428Y-104665156D01*
X135597208Y-104690006D01*
X135639408Y-104708354D01*
X135669959Y-104719061D01*
X135703657Y-104725428D01*
X135751435Y-104723114D01*
X135795219Y-104705799D01*
X135835897Y-104673072D01*
X135874357Y-104624523D01*
X135880081Y-104615311D01*
X135895232Y-104587884D01*
X135915849Y-104547598D01*
X135942042Y-104494222D01*
X135973919Y-104427521D01*
X136011590Y-104347263D01*
X136055164Y-104253214D01*
X136104749Y-104145141D01*
X136160456Y-104022811D01*
X136222392Y-103885991D01*
X136290667Y-103734447D01*
X136324174Y-103659886D01*
X136366564Y-103565278D01*
X136403011Y-103483281D01*
X136433966Y-103412583D01*
X136459878Y-103351874D01*
X136481197Y-103299841D01*
X136498372Y-103255173D01*
X136511854Y-103216559D01*
X136522092Y-103182687D01*
X136529535Y-103152245D01*
X136534634Y-103123922D01*
X136537838Y-103096407D01*
X136539596Y-103068388D01*
X136540359Y-103038554D01*
X136540410Y-103030816D01*
X137906590Y-103030816D01*
X137908228Y-103073403D01*
X137912533Y-103106285D01*
X137916204Y-103118473D01*
X137926337Y-103146172D01*
X137942086Y-103186415D01*
X137962886Y-103237901D01*
X137988175Y-103299327D01*
X138017388Y-103369393D01*
X138049962Y-103446795D01*
X138085333Y-103530233D01*
X138122938Y-103618405D01*
X138162213Y-103710008D01*
X138202594Y-103803742D01*
X138243518Y-103898304D01*
X138284422Y-103992392D01*
X138324740Y-104084706D01*
X138363911Y-104173943D01*
X138401370Y-104258801D01*
X138436553Y-104337979D01*
X138468898Y-104410174D01*
X138497840Y-104474086D01*
X138522815Y-104528413D01*
X138543261Y-104571851D01*
X138558613Y-104603101D01*
X138568308Y-104620860D01*
X138574817Y-104630721D01*
X138604652Y-104667814D01*
X138637256Y-104697919D01*
X138668345Y-104716919D01*
X138677493Y-104720385D01*
X138702663Y-104726327D01*
X138730769Y-104727467D01*
X138762995Y-104723344D01*
X138800528Y-104713495D01*
X138844551Y-104697458D01*
X138896251Y-104674772D01*
X138956811Y-104644974D01*
X139027418Y-104607602D01*
X139109256Y-104562195D01*
X139203511Y-104508290D01*
X139268204Y-104470705D01*
X139336707Y-104430238D01*
X139393353Y-104395722D01*
X139439503Y-104366151D01*
X139476520Y-104340520D01*
X139505768Y-104317824D01*
X139528608Y-104297058D01*
X139546403Y-104277218D01*
X139560517Y-104257297D01*
X139572311Y-104236293D01*
X139579682Y-104220840D01*
X139587548Y-104197637D01*
X139590494Y-104172461D01*
X139589779Y-104138242D01*
X139588605Y-104121059D01*
X139583626Y-104088534D01*
X139573633Y-104057714D01*
X139556483Y-104021060D01*
X139548323Y-104007121D01*
X139530527Y-103979708D01*
X139504815Y-103941741D01*
X139472151Y-103894591D01*
X139433501Y-103839630D01*
X139389830Y-103778228D01*
X139342102Y-103711756D01*
X139291283Y-103641586D01*
X139238339Y-103569088D01*
X139211465Y-103532430D01*
X139153373Y-103453094D01*
X139094574Y-103372679D01*
X139036547Y-103293215D01*
X138980772Y-103216730D01*
X138928727Y-103145253D01*
X138881891Y-103080814D01*
X138841743Y-103025440D01*
X138809763Y-102981161D01*
X138801951Y-102970324D01*
X138765263Y-102919750D01*
X138730741Y-102872654D01*
X138699844Y-102830993D01*
X138674031Y-102796722D01*
X138654759Y-102771798D01*
X138643487Y-102758177D01*
X138619417Y-102735441D01*
X138571248Y-102700623D01*
X138515011Y-102669735D01*
X138455721Y-102645780D01*
X138454647Y-102645427D01*
X138424075Y-102636108D01*
X138396565Y-102629881D01*
X138367284Y-102626119D01*
X138331396Y-102624192D01*
X138284066Y-102623472D01*
X138244159Y-102623381D01*
X138211356Y-102624064D01*
X138187402Y-102626147D01*
X138168368Y-102630218D01*
X138150323Y-102636869D01*
X138129337Y-102646687D01*
X138084675Y-102673471D01*
X138030781Y-102719824D01*
X137983380Y-102776769D01*
X137945478Y-102841128D01*
X137939202Y-102854361D01*
X137924812Y-102887645D01*
X137915992Y-102916083D01*
X137910921Y-102946705D01*
X137907774Y-102986539D01*
X137907376Y-103001408D01*
X137906590Y-103030816D01*
X136540410Y-103030816D01*
X136540576Y-103005592D01*
X136540585Y-103001408D01*
X136540259Y-102956165D01*
X136538775Y-102922838D01*
X136535654Y-102897390D01*
X136530417Y-102875778D01*
X136522584Y-102853964D01*
X136491705Y-102792107D01*
X136445650Y-102731971D01*
X136388678Y-102683620D01*
X136321297Y-102647389D01*
X136244012Y-102623613D01*
X136157329Y-102612624D01*
X136151771Y-102612359D01*
X136110063Y-102611234D01*
X136077848Y-102612720D01*
X136049130Y-102617384D01*
X136017909Y-102625793D01*
X135967288Y-102644992D01*
X135909829Y-102678177D01*
X135855082Y-102723727D01*
X135800468Y-102783510D01*
X135787668Y-102799663D01*
X135764069Y-102830705D01*
X135733320Y-102872076D01*
X135696256Y-102922598D01*
X135653710Y-102981096D01*
X135606515Y-103046391D01*
X135555507Y-103117308D01*
X135501517Y-103192668D01*
X135445381Y-103271296D01*
X135387932Y-103352014D01*
X135330003Y-103433644D01*
X135272429Y-103515011D01*
X135216043Y-103594936D01*
X135161679Y-103672244D01*
X135110171Y-103745756D01*
X135062353Y-103814297D01*
X135019058Y-103876688D01*
X134981120Y-103931754D01*
X134949372Y-103978316D01*
X134924650Y-104015198D01*
X134907786Y-104041224D01*
X134899614Y-104055215D01*
X134885676Y-104087690D01*
X134872033Y-104133325D01*
X134868947Y-104174357D01*
X134092805Y-104174357D01*
X133973070Y-104048427D01*
X133807169Y-103852268D01*
X133653780Y-103647742D01*
X133513280Y-103435395D01*
X133386049Y-103215774D01*
X133272465Y-102989426D01*
X133172906Y-102756897D01*
X133087751Y-102518733D01*
X133017379Y-102275482D01*
X132984528Y-102128046D01*
X133459712Y-102128046D01*
X133461569Y-102166510D01*
X133463558Y-102193560D01*
X133467874Y-102234491D01*
X133474168Y-102272172D01*
X133483374Y-102310228D01*
X133496424Y-102352283D01*
X133514248Y-102401962D01*
X133537780Y-102462889D01*
X133552626Y-102500260D01*
X133640139Y-102708116D01*
X133730353Y-102901173D01*
X133823949Y-103080605D01*
X133921606Y-103247588D01*
X134024005Y-103403296D01*
X134131826Y-103548904D01*
X134245749Y-103685586D01*
X134303047Y-103748987D01*
X134366989Y-103815539D01*
X134423023Y-103868652D01*
X134471432Y-103908605D01*
X134479590Y-103914455D01*
X134517199Y-103933777D01*
X134550847Y-103937436D01*
X134580808Y-103925476D01*
X134584648Y-103922565D01*
X134593694Y-103914106D01*
X134604434Y-103901779D01*
X134617447Y-103884650D01*
X134633317Y-103861787D01*
X134652625Y-103832256D01*
X134675952Y-103795123D01*
X134703880Y-103749456D01*
X134736991Y-103694319D01*
X134775866Y-103628781D01*
X134821087Y-103551908D01*
X134873236Y-103462766D01*
X134932894Y-103360422D01*
X135000640Y-103243979D01*
X135083599Y-103101147D01*
X135158628Y-102971661D01*
X135225942Y-102855144D01*
X135285756Y-102751215D01*
X135338285Y-102659498D01*
X135383744Y-102579612D01*
X135422349Y-102511181D01*
X135454316Y-102453825D01*
X135479858Y-102407165D01*
X135499191Y-102370824D01*
X135512531Y-102344423D01*
X135520092Y-102327583D01*
X135524530Y-102315411D01*
X135537473Y-102264663D01*
X135542552Y-102214113D01*
X135541819Y-102202849D01*
X138935557Y-102202849D01*
X138935888Y-102214113D01*
X138936551Y-102236686D01*
X138940635Y-102264881D01*
X138949375Y-102293575D01*
X138964340Y-102329670D01*
X138964361Y-102329718D01*
X138972496Y-102345891D01*
X138988121Y-102374825D01*
X139010560Y-102415351D01*
X139039136Y-102466299D01*
X139073171Y-102526500D01*
X139111990Y-102594783D01*
X139154915Y-102669979D01*
X139201269Y-102750918D01*
X139250376Y-102836431D01*
X139301558Y-102925347D01*
X139354139Y-103016497D01*
X139407442Y-103108710D01*
X139460790Y-103200818D01*
X139513506Y-103291650D01*
X139564914Y-103380037D01*
X139614336Y-103464808D01*
X139661096Y-103544794D01*
X139704516Y-103618826D01*
X139743921Y-103685732D01*
X139778633Y-103744345D01*
X139807974Y-103793493D01*
X139831270Y-103832007D01*
X139847842Y-103858718D01*
X139857013Y-103872455D01*
X139868129Y-103886075D01*
X139889077Y-103908268D01*
X139906892Y-103923299D01*
X139917346Y-103929413D01*
X139949485Y-103938031D01*
X139982184Y-103930942D01*
X140016601Y-103907983D01*
X140089968Y-103840367D01*
X140191659Y-103733952D01*
X140294829Y-103611531D01*
X140399386Y-103473216D01*
X140505233Y-103319122D01*
X140592933Y-103179160D01*
X140701730Y-102985377D01*
X140799961Y-102786278D01*
X140885081Y-102586770D01*
X140898739Y-102551644D01*
X140937318Y-102447876D01*
X140967902Y-102357278D01*
X140990552Y-102279108D01*
X141005330Y-102212623D01*
X141012297Y-102157080D01*
X141011514Y-102111738D01*
X141003043Y-102075853D01*
X140986945Y-102048682D01*
X140963281Y-102029484D01*
X140932114Y-102017514D01*
X140926985Y-102016758D01*
X140904618Y-102015317D01*
X140866382Y-102013985D01*
X140812556Y-102012764D01*
X140743421Y-102011658D01*
X140659254Y-102010670D01*
X140560336Y-102009802D01*
X140446945Y-102009059D01*
X140319361Y-102008443D01*
X140177864Y-102007956D01*
X140022732Y-102007603D01*
X139993840Y-102007552D01*
X139857505Y-102007336D01*
X139736319Y-102007191D01*
X139629332Y-102007130D01*
X139535595Y-102007166D01*
X139454157Y-102007312D01*
X139384068Y-102007579D01*
X139324379Y-102007980D01*
X139274140Y-102008528D01*
X139232401Y-102009234D01*
X139198211Y-102010112D01*
X139170622Y-102011173D01*
X139148683Y-102012430D01*
X139131444Y-102013895D01*
X139117955Y-102015581D01*
X139107267Y-102017501D01*
X139098429Y-102019666D01*
X139040703Y-102040639D01*
X138992023Y-102070464D01*
X138957769Y-102107612D01*
X138946955Y-102125673D01*
X138939711Y-102144930D01*
X138936367Y-102168700D01*
X138935557Y-102202849D01*
X135541819Y-102202849D01*
X135539574Y-102168338D01*
X135528345Y-102131915D01*
X135508465Y-102101415D01*
X135478673Y-102073729D01*
X135439232Y-102051911D01*
X135388565Y-102035307D01*
X135325094Y-102023261D01*
X135247240Y-102015117D01*
X135223555Y-102013830D01*
X135180590Y-102012470D01*
X135122421Y-102011322D01*
X135049640Y-102010391D01*
X134962839Y-102009680D01*
X134862608Y-102009193D01*
X134749540Y-102008933D01*
X134624226Y-102008904D01*
X134487257Y-102009109D01*
X134339225Y-102009552D01*
X134273969Y-102009788D01*
X134145850Y-102010243D01*
X134032624Y-102010683D01*
X133933338Y-102011170D01*
X133847043Y-102011764D01*
X133772789Y-102012529D01*
X133709624Y-102013525D01*
X133656598Y-102014816D01*
X133612760Y-102016462D01*
X133577160Y-102018526D01*
X133548847Y-102021069D01*
X133526871Y-102024154D01*
X133510280Y-102027842D01*
X133498125Y-102032196D01*
X133489454Y-102037277D01*
X133483317Y-102043147D01*
X133478764Y-102049867D01*
X133474843Y-102057501D01*
X133470605Y-102066109D01*
X133464105Y-102081764D01*
X133460424Y-102101279D01*
X133459712Y-102128046D01*
X132984528Y-102128046D01*
X132962167Y-102027690D01*
X132952163Y-101964196D01*
X136480769Y-101964196D01*
X136491248Y-102014571D01*
X136496120Y-102025832D01*
X136519279Y-102059203D01*
X136550706Y-102087157D01*
X136584862Y-102104382D01*
X136607836Y-102109865D01*
X136657156Y-102112874D01*
X136703460Y-102104648D01*
X136743136Y-102086078D01*
X136772569Y-102058055D01*
X136781606Y-102043338D01*
X136797737Y-101999254D01*
X136803818Y-101949417D01*
X136802994Y-101941068D01*
X137666977Y-101941068D01*
X137667487Y-101949417D01*
X137669219Y-101977776D01*
X137681517Y-102028033D01*
X137704597Y-102066248D01*
X137738541Y-102092593D01*
X137742957Y-102094751D01*
X137779598Y-102106410D01*
X137823950Y-102112290D01*
X137841235Y-102112618D01*
X137892076Y-102105138D01*
X137932900Y-102085021D01*
X137963014Y-102052927D01*
X137981726Y-102009516D01*
X137988345Y-101955449D01*
X137988029Y-101938979D01*
X137979982Y-101887725D01*
X137960677Y-101847860D01*
X137929526Y-101818771D01*
X137885942Y-101799850D01*
X137829336Y-101790486D01*
X137790808Y-101789570D01*
X137743892Y-101796756D01*
X137708808Y-101814796D01*
X137684799Y-101844393D01*
X137671108Y-101886250D01*
X137666977Y-101941068D01*
X136802994Y-101941068D01*
X136798898Y-101899548D01*
X136784120Y-101855690D01*
X136757906Y-101814221D01*
X136724156Y-101783514D01*
X136685191Y-101764271D01*
X136643332Y-101757198D01*
X136600897Y-101762997D01*
X136560206Y-101782372D01*
X136523580Y-101816028D01*
X136522745Y-101817050D01*
X136497343Y-101860366D01*
X136483075Y-101911105D01*
X136480769Y-101964196D01*
X132952163Y-101964196D01*
X132922496Y-101775903D01*
X132921919Y-101771281D01*
X132913406Y-101698132D01*
X132906366Y-101626383D01*
X132900710Y-101553826D01*
X132896352Y-101478253D01*
X132893203Y-101397453D01*
X132891177Y-101309220D01*
X132890187Y-101211343D01*
X132890148Y-101109510D01*
X133306317Y-101109510D01*
X133306767Y-101138590D01*
X133308571Y-101169583D01*
X133311585Y-101205848D01*
X133319122Y-101286850D01*
X133327602Y-101369608D01*
X133335791Y-101440678D01*
X133343547Y-101498914D01*
X133350727Y-101543173D01*
X133357189Y-101572312D01*
X133377949Y-101619657D01*
X133411236Y-101660555D01*
X133453805Y-101689870D01*
X133469898Y-101696296D01*
X133504926Y-101705568D01*
X133541359Y-101710753D01*
X133551778Y-101710744D01*
X133579422Y-101709170D01*
X133620708Y-101705906D01*
X133674152Y-101701119D01*
X133738265Y-101694975D01*
X133811562Y-101687640D01*
X133892556Y-101679280D01*
X133979761Y-101670060D01*
X134071689Y-101660147D01*
X134166854Y-101649707D01*
X134263771Y-101638907D01*
X134360951Y-101627911D01*
X134456909Y-101616886D01*
X134550158Y-101605999D01*
X134639212Y-101595415D01*
X134722583Y-101585300D01*
X134798786Y-101575820D01*
X134866334Y-101567142D01*
X134923740Y-101559431D01*
X134969518Y-101552854D01*
X135002181Y-101547576D01*
X135046028Y-101539359D01*
X135128606Y-101521023D01*
X135197623Y-101500963D01*
X135254930Y-101478385D01*
X135302378Y-101452494D01*
X135341817Y-101422498D01*
X135375098Y-101387602D01*
X135388253Y-101370412D01*
X135423790Y-101308050D01*
X135447510Y-101238901D01*
X135458873Y-101169731D01*
X136582308Y-101169731D01*
X136586509Y-101245347D01*
X136596966Y-101311716D01*
X136607371Y-101349412D01*
X136629331Y-101408707D01*
X136657036Y-101468435D01*
X136687844Y-101523073D01*
X136719111Y-101567096D01*
X136780125Y-101629646D01*
X136856760Y-101686463D01*
X136943416Y-101731661D01*
X137038529Y-101764275D01*
X137050599Y-101767162D01*
X137096257Y-101774928D01*
X137150656Y-101780750D01*
X137208851Y-101784386D01*
X137265899Y-101785595D01*
X137316854Y-101784136D01*
X137356774Y-101779770D01*
X137357809Y-101779583D01*
X137456819Y-101754831D01*
X137545618Y-101718017D01*
X137625735Y-101668359D01*
X137698697Y-101605076D01*
X137732572Y-101569408D01*
X137758920Y-101536967D01*
X137780849Y-101503039D01*
X137802609Y-101461763D01*
X137821601Y-101421576D01*
X137843636Y-101367218D01*
X137859062Y-101315384D01*
X137868900Y-101261419D01*
X137874174Y-101200671D01*
X137875493Y-101145749D01*
X139005367Y-101145749D01*
X139010499Y-101203445D01*
X139021140Y-101253038D01*
X139030303Y-101279085D01*
X139064628Y-101345923D01*
X139111034Y-101405504D01*
X139167095Y-101455059D01*
X139230385Y-101491820D01*
X139268898Y-101506662D01*
X139329547Y-101524554D01*
X139401274Y-101540974D01*
X139481180Y-101555191D01*
X139482785Y-101555437D01*
X139508991Y-101559111D01*
X139549512Y-101564394D01*
X139602637Y-101571084D01*
X139666651Y-101578978D01*
X139739840Y-101587875D01*
X139820493Y-101597573D01*
X139906894Y-101607870D01*
X139997332Y-101618563D01*
X140090092Y-101629452D01*
X140183461Y-101640334D01*
X140275726Y-101651007D01*
X140365174Y-101661269D01*
X140450090Y-101670919D01*
X140528762Y-101679754D01*
X140599477Y-101687573D01*
X140660521Y-101694174D01*
X140690129Y-101697256D01*
X140747526Y-101702853D01*
X140801221Y-101707619D01*
X140848096Y-101711302D01*
X140885030Y-101713648D01*
X140908902Y-101714401D01*
X140970607Y-101708184D01*
X141023512Y-101689673D01*
X141066404Y-101658456D01*
X141099858Y-101614110D01*
X141124450Y-101556213D01*
X141126316Y-101550188D01*
X141131806Y-101530531D01*
X141135873Y-101510889D01*
X141138713Y-101488546D01*
X141140524Y-101460785D01*
X141141503Y-101424889D01*
X141141848Y-101378140D01*
X141141754Y-101317823D01*
X141141721Y-101303199D01*
X141142003Y-101247966D01*
X141142905Y-101201917D01*
X141144361Y-101166828D01*
X141146302Y-101144474D01*
X141148662Y-101136628D01*
X141150893Y-101134597D01*
X141152884Y-101120842D01*
X141151515Y-101097945D01*
X141149604Y-101078046D01*
X141147034Y-101044939D01*
X141144064Y-101002191D01*
X141140926Y-100953145D01*
X141137851Y-100901143D01*
X141137137Y-100888780D01*
X141132259Y-100818448D01*
X141126483Y-100761949D01*
X141119279Y-100717161D01*
X141110113Y-100681964D01*
X141098454Y-100654237D01*
X141083771Y-100631858D01*
X141065531Y-100612706D01*
X141056556Y-100604820D01*
X141039325Y-100591686D01*
X141021243Y-100581871D01*
X141000114Y-100575115D01*
X140973744Y-100571162D01*
X140939937Y-100569753D01*
X140896499Y-100570630D01*
X140841233Y-100573536D01*
X140771947Y-100578213D01*
X140768823Y-100578436D01*
X140698606Y-100583743D01*
X140618819Y-100590238D01*
X140535770Y-100597379D01*
X140455769Y-100604625D01*
X140385124Y-100611433D01*
X140352969Y-100614646D01*
X140283009Y-100621562D01*
X140206832Y-100629008D01*
X140126679Y-100636771D01*
X140044794Y-100644640D01*
X139963420Y-100652402D01*
X139884798Y-100659843D01*
X139811172Y-100666751D01*
X139744785Y-100672914D01*
X139687878Y-100678119D01*
X139642695Y-100682152D01*
X139611478Y-100684802D01*
X139564175Y-100689176D01*
X139456280Y-100703942D01*
X139359687Y-100724284D01*
X139275840Y-100749863D01*
X139206186Y-100780338D01*
X139173396Y-100800388D01*
X139131192Y-100836220D01*
X139119099Y-100846487D01*
X139072459Y-100902732D01*
X139036343Y-100965399D01*
X139013616Y-101030760D01*
X139012621Y-101035282D01*
X139005992Y-101087258D01*
X139005720Y-101112678D01*
X139005367Y-101145749D01*
X137875493Y-101145749D01*
X137875907Y-101128484D01*
X137875928Y-101112678D01*
X137874799Y-101051613D01*
X137870974Y-101001317D01*
X137863503Y-100957350D01*
X137851436Y-100915272D01*
X137833825Y-100870644D01*
X137811964Y-100823834D01*
X138023469Y-100823834D01*
X138024150Y-100854916D01*
X138027380Y-100878077D01*
X138034763Y-100896849D01*
X138047900Y-100917361D01*
X138055949Y-100927623D01*
X138079901Y-100951352D01*
X138104171Y-100968396D01*
X138119951Y-100975171D01*
X138162229Y-100985016D01*
X138207233Y-100986799D01*
X138246934Y-100979876D01*
X138249066Y-100979132D01*
X138281202Y-100961382D01*
X138312387Y-100934037D01*
X138337809Y-100902075D01*
X138352656Y-100870476D01*
X138357018Y-100836220D01*
X138350555Y-100789827D01*
X138332131Y-100744822D01*
X138303560Y-100705316D01*
X138266655Y-100675423D01*
X138260716Y-100672087D01*
X138213276Y-100654739D01*
X138165443Y-100652055D01*
X138120047Y-100663388D01*
X138079923Y-100688089D01*
X138047900Y-100725510D01*
X138036948Y-100744445D01*
X138028350Y-100765841D01*
X138024412Y-100790070D01*
X138023469Y-100823834D01*
X137811964Y-100823834D01*
X137809719Y-100819026D01*
X137796595Y-100793060D01*
X137778253Y-100761184D01*
X137758064Y-100732868D01*
X137732532Y-100703380D01*
X137698162Y-100667987D01*
X137690992Y-100660860D01*
X137654132Y-100625995D01*
X137621785Y-100599482D01*
X137589079Y-100577633D01*
X137551139Y-100556762D01*
X137529441Y-100545988D01*
X137443602Y-100510888D01*
X137359447Y-100489643D01*
X137272907Y-100481472D01*
X137179915Y-100485598D01*
X137080451Y-100501269D01*
X136979404Y-100530384D01*
X136888778Y-100571509D01*
X136808958Y-100624334D01*
X136740331Y-100688551D01*
X136683282Y-100763849D01*
X136644569Y-100837753D01*
X136638196Y-100849920D01*
X136605459Y-100946454D01*
X136592143Y-101013686D01*
X136584230Y-101090599D01*
X136584220Y-101091023D01*
X136582308Y-101169731D01*
X135458873Y-101169731D01*
X135459542Y-101165660D01*
X135460011Y-101091023D01*
X135449047Y-101017685D01*
X135426777Y-100948341D01*
X135393327Y-100885688D01*
X135348826Y-100832420D01*
X135335621Y-100820471D01*
X136106691Y-100820471D01*
X136108191Y-100859886D01*
X136117645Y-100891906D01*
X136133319Y-100914312D01*
X136161765Y-100942072D01*
X136194869Y-100965788D01*
X136226645Y-100980591D01*
X136259006Y-100987686D01*
X136309873Y-100988449D01*
X136356494Y-100977051D01*
X136396630Y-100954885D01*
X136428043Y-100923350D01*
X136448492Y-100883841D01*
X136455740Y-100837753D01*
X136449987Y-100794695D01*
X136431196Y-100747909D01*
X136401817Y-100706735D01*
X136364399Y-100674643D01*
X136321494Y-100655102D01*
X136316158Y-100653790D01*
X136271442Y-100651549D01*
X136225875Y-100662685D01*
X136183151Y-100685312D01*
X136146962Y-100717544D01*
X136121003Y-100757494D01*
X136112978Y-100780383D01*
X136106691Y-100820471D01*
X135335621Y-100820471D01*
X135330298Y-100815654D01*
X135289394Y-100785143D01*
X135243935Y-100760543D01*
X135190997Y-100740653D01*
X135127657Y-100724275D01*
X135050991Y-100710208D01*
X135040646Y-100708663D01*
X135005867Y-100704064D01*
X134957957Y-100698278D01*
X134898460Y-100691460D01*
X134828919Y-100683762D01*
X134750878Y-100675340D01*
X134665880Y-100666346D01*
X134575468Y-100656934D01*
X134481187Y-100647259D01*
X134384579Y-100637473D01*
X134287187Y-100627732D01*
X134190556Y-100618188D01*
X134096229Y-100608996D01*
X134005748Y-100600310D01*
X133920659Y-100592282D01*
X133842503Y-100585067D01*
X133772824Y-100578820D01*
X133713167Y-100573692D01*
X133665073Y-100569840D01*
X133630087Y-100567415D01*
X133609753Y-100566573D01*
X133573591Y-100567250D01*
X133518636Y-100572285D01*
X133474395Y-100583014D01*
X133437642Y-100600362D01*
X133405153Y-100625254D01*
X133395927Y-100634105D01*
X133382860Y-100648903D01*
X133372075Y-100665636D01*
X133363012Y-100686342D01*
X133355110Y-100713060D01*
X133347809Y-100747828D01*
X133340548Y-100792686D01*
X133332768Y-100849671D01*
X133323908Y-100920821D01*
X133320969Y-100945127D01*
X133314548Y-101000152D01*
X133310062Y-101043651D01*
X133307367Y-101078984D01*
X133306317Y-101109510D01*
X132890148Y-101109510D01*
X132890145Y-101101615D01*
X132890964Y-100977827D01*
X132890985Y-100975575D01*
X132891847Y-100886994D01*
X132892703Y-100812740D01*
X132893648Y-100750896D01*
X132894775Y-100699544D01*
X132896178Y-100656770D01*
X132897950Y-100620656D01*
X132900185Y-100589286D01*
X132902976Y-100560744D01*
X132906417Y-100533113D01*
X132910602Y-100504478D01*
X132915624Y-100472921D01*
X132946637Y-100299148D01*
X132980201Y-100146767D01*
X133451485Y-100146767D01*
X133453561Y-100173625D01*
X133461314Y-100193969D01*
X133474734Y-100209625D01*
X133493813Y-100222420D01*
X133494963Y-100223027D01*
X133500329Y-100225295D01*
X133507604Y-100227304D01*
X133517745Y-100229070D01*
X133531711Y-100230611D01*
X133550461Y-100231944D01*
X133574954Y-100233086D01*
X133606148Y-100234056D01*
X133645002Y-100234869D01*
X133692474Y-100235544D01*
X133749524Y-100236099D01*
X133817108Y-100236549D01*
X133896187Y-100236913D01*
X133987719Y-100237208D01*
X134092663Y-100237451D01*
X134211976Y-100237660D01*
X134346618Y-100237852D01*
X134412440Y-100237919D01*
X134527686Y-100237937D01*
X134639125Y-100237832D01*
X134745508Y-100237611D01*
X134845587Y-100237281D01*
X134938115Y-100236850D01*
X135021844Y-100236325D01*
X135095525Y-100235712D01*
X135157911Y-100235020D01*
X135207754Y-100234255D01*
X135243805Y-100233425D01*
X135264817Y-100232536D01*
X135321318Y-100227014D01*
X135393345Y-100213688D01*
X135451064Y-100194047D01*
X135495002Y-100167829D01*
X135508182Y-100153631D01*
X137059476Y-100153631D01*
X137072179Y-100197179D01*
X137097462Y-100234601D01*
X137133973Y-100263314D01*
X137180362Y-100280733D01*
X137195441Y-100283674D01*
X137255407Y-100288659D01*
X137306106Y-100281384D01*
X137346810Y-100262316D01*
X137376787Y-100231924D01*
X137395309Y-100190673D01*
X137401645Y-100139032D01*
X137400868Y-100120540D01*
X137391561Y-100079646D01*
X138932332Y-100079646D01*
X138939265Y-100113645D01*
X138951101Y-100135993D01*
X138953666Y-100139032D01*
X138978378Y-100168306D01*
X139013635Y-100197098D01*
X139052236Y-100218084D01*
X139098429Y-100236756D01*
X139973870Y-100238311D01*
X139977991Y-100238318D01*
X140095967Y-100238498D01*
X140209367Y-100238619D01*
X140317126Y-100238681D01*
X140418180Y-100238687D01*
X140511463Y-100238637D01*
X140595912Y-100238535D01*
X140670462Y-100238381D01*
X140734047Y-100238177D01*
X140785603Y-100237925D01*
X140824067Y-100237627D01*
X140848372Y-100237284D01*
X140857455Y-100236898D01*
X140865825Y-100235062D01*
X140886727Y-100231861D01*
X140914025Y-100228449D01*
X140919814Y-100227762D01*
X140948960Y-100222268D01*
X140969835Y-100212693D01*
X140989353Y-100196066D01*
X140991404Y-100194000D01*
X141007354Y-100174937D01*
X141014566Y-100155853D01*
X141016256Y-100128698D01*
X141012438Y-100073537D01*
X140999849Y-100001677D01*
X140979123Y-99919605D01*
X140950935Y-99828928D01*
X140915958Y-99731254D01*
X140874867Y-99628192D01*
X140828335Y-99521349D01*
X140777036Y-99412334D01*
X140721644Y-99302754D01*
X140662834Y-99194217D01*
X140601278Y-99088333D01*
X140537652Y-98986708D01*
X140516902Y-98955294D01*
X140465896Y-98881207D01*
X140410940Y-98805134D01*
X140353620Y-98729039D01*
X140295526Y-98654887D01*
X140238245Y-98584644D01*
X140183366Y-98520275D01*
X140132476Y-98463744D01*
X140087164Y-98417018D01*
X140049018Y-98382062D01*
X140048913Y-98381974D01*
X140011299Y-98354406D01*
X139978863Y-98340004D01*
X139948460Y-98337943D01*
X139916943Y-98347397D01*
X139916677Y-98347517D01*
X139906210Y-98352328D01*
X139896504Y-98357390D01*
X139887002Y-98363567D01*
X139877147Y-98371725D01*
X139866381Y-98382730D01*
X139854147Y-98397447D01*
X139839888Y-98416742D01*
X139823045Y-98441479D01*
X139803063Y-98472525D01*
X139779384Y-98510745D01*
X139751449Y-98557005D01*
X139718702Y-98612169D01*
X139680586Y-98677104D01*
X139636543Y-98752674D01*
X139586016Y-98839747D01*
X139528446Y-98939185D01*
X139463278Y-99051857D01*
X139407284Y-99148691D01*
X139338863Y-99267059D01*
X139277837Y-99372706D01*
X139223759Y-99466416D01*
X139176185Y-99548973D01*
X139134669Y-99621163D01*
X139098766Y-99683770D01*
X139068030Y-99737578D01*
X139042017Y-99783372D01*
X139020280Y-99821936D01*
X139002376Y-99854054D01*
X138987859Y-99880512D01*
X138976282Y-99902093D01*
X138967202Y-99919582D01*
X138960173Y-99933764D01*
X138954749Y-99945423D01*
X138950486Y-99955344D01*
X138938926Y-99992991D01*
X138932366Y-100037357D01*
X138932332Y-100079646D01*
X137391561Y-100079646D01*
X137389421Y-100070245D01*
X137365182Y-100029182D01*
X137329291Y-99998439D01*
X137282885Y-99979105D01*
X137227105Y-99972266D01*
X137180016Y-99977412D01*
X137134049Y-99996031D01*
X137097413Y-100027660D01*
X137077939Y-100060193D01*
X137071053Y-100071697D01*
X137060703Y-100106541D01*
X137059476Y-100153631D01*
X135508182Y-100153631D01*
X135525688Y-100134773D01*
X135543647Y-100094619D01*
X135546891Y-100080195D01*
X135548994Y-100060193D01*
X135548037Y-100038360D01*
X135543502Y-100013474D01*
X135534871Y-99984314D01*
X135521627Y-99949656D01*
X135503253Y-99908280D01*
X135479230Y-99858962D01*
X135449042Y-99800482D01*
X135412170Y-99731616D01*
X135368097Y-99651142D01*
X135316306Y-99557840D01*
X135315512Y-99556417D01*
X135284937Y-99501857D01*
X135249545Y-99439157D01*
X135210093Y-99369628D01*
X135167340Y-99294580D01*
X135122044Y-99215326D01*
X135074962Y-99133176D01*
X135026851Y-99049441D01*
X134978471Y-98965433D01*
X134930578Y-98882463D01*
X134883929Y-98801843D01*
X134839284Y-98724882D01*
X134797400Y-98652894D01*
X134759034Y-98587188D01*
X134724944Y-98529077D01*
X134695888Y-98479871D01*
X134672624Y-98440881D01*
X134655909Y-98413420D01*
X134646501Y-98398797D01*
X134636237Y-98385251D01*
X134600000Y-98350646D01*
X134560532Y-98331902D01*
X134518069Y-98329094D01*
X134472844Y-98342301D01*
X134451177Y-98355743D01*
X134418816Y-98383114D01*
X134379824Y-98421769D01*
X134335258Y-98470331D01*
X134286173Y-98527427D01*
X134233626Y-98591682D01*
X134178671Y-98661720D01*
X134122366Y-98736167D01*
X134065765Y-98813647D01*
X134009926Y-98892787D01*
X133955903Y-98972212D01*
X133904753Y-99050546D01*
X133857532Y-99126414D01*
X133815296Y-99198442D01*
X133735888Y-99345405D01*
X133665360Y-99491108D01*
X133603143Y-99637826D01*
X133547096Y-99790615D01*
X133495080Y-99954527D01*
X133479399Y-100008828D01*
X133464395Y-100066195D01*
X133455093Y-100111566D01*
X133451485Y-100146767D01*
X132980201Y-100146767D01*
X132999813Y-100057730D01*
X133063275Y-99826917D01*
X133137580Y-99605091D01*
X133223286Y-99390633D01*
X133320951Y-99181925D01*
X133431132Y-98977348D01*
X133462342Y-98923984D01*
X133596903Y-98713017D01*
X133745298Y-98508334D01*
X133906436Y-98310909D01*
X134079226Y-98121716D01*
X134089779Y-98111357D01*
X134850861Y-98111357D01*
X134853969Y-98132238D01*
X134860688Y-98155904D01*
X134871451Y-98183091D01*
X134886694Y-98214535D01*
X134906851Y-98250971D01*
X134932357Y-98293136D01*
X134963646Y-98341766D01*
X135001152Y-98397597D01*
X135045310Y-98461364D01*
X135096554Y-98533804D01*
X135155319Y-98615653D01*
X135222040Y-98707647D01*
X135297150Y-98810521D01*
X135381084Y-98925013D01*
X135474277Y-99051857D01*
X135480590Y-99060444D01*
X135549858Y-99154526D01*
X135610439Y-99236438D01*
X135663132Y-99307122D01*
X135708738Y-99367519D01*
X135748055Y-99418570D01*
X135781885Y-99461215D01*
X135811026Y-99496397D01*
X135836279Y-99525055D01*
X135858442Y-99548131D01*
X135878316Y-99566567D01*
X135896701Y-99581302D01*
X135914396Y-99593278D01*
X135932200Y-99603436D01*
X135950914Y-99612717D01*
X135956600Y-99615362D01*
X135974098Y-99622681D01*
X135991529Y-99627875D01*
X136012164Y-99631382D01*
X136039274Y-99633641D01*
X136076130Y-99635088D01*
X136126002Y-99636162D01*
X136150424Y-99636549D01*
X136196739Y-99636763D01*
X136231368Y-99635840D01*
X136257510Y-99633552D01*
X136278362Y-99629671D01*
X136297125Y-99623969D01*
X136354198Y-99598864D01*
X136416202Y-99556889D01*
X136466590Y-99503527D01*
X136505472Y-99438679D01*
X136507108Y-99435148D01*
X136531261Y-99363322D01*
X136540771Y-99285432D01*
X136537612Y-99233404D01*
X137923664Y-99233404D01*
X137925362Y-99285432D01*
X137926309Y-99314427D01*
X137941586Y-99388674D01*
X137969171Y-99455225D01*
X138008736Y-99513158D01*
X138059957Y-99561554D01*
X138122507Y-99599492D01*
X138196060Y-99626051D01*
X138208681Y-99628786D01*
X138244808Y-99633514D01*
X138289281Y-99636523D01*
X138338009Y-99637816D01*
X138386902Y-99637394D01*
X138431869Y-99635261D01*
X138468819Y-99631420D01*
X138493662Y-99625871D01*
X138501164Y-99622907D01*
X138541596Y-99601496D01*
X138583102Y-99572071D01*
X138619047Y-99539216D01*
X138619340Y-99538903D01*
X138635259Y-99520372D01*
X138659554Y-99490146D01*
X138691360Y-99449403D01*
X138729814Y-99399320D01*
X138774049Y-99341072D01*
X138823200Y-99275837D01*
X138876404Y-99204791D01*
X138932794Y-99129112D01*
X138991505Y-99049976D01*
X139051674Y-98968560D01*
X139112434Y-98886041D01*
X139172921Y-98803595D01*
X139232270Y-98722400D01*
X139289616Y-98643631D01*
X139344094Y-98568467D01*
X139394839Y-98498083D01*
X139440986Y-98433657D01*
X139481670Y-98376364D01*
X139516026Y-98327383D01*
X139543189Y-98287890D01*
X139562294Y-98259062D01*
X139572476Y-98242075D01*
X139592364Y-98189216D01*
X139598334Y-98131834D01*
X139588239Y-98074615D01*
X139562190Y-98017898D01*
X139520298Y-97962025D01*
X139462675Y-97907333D01*
X139445840Y-97894663D01*
X139410063Y-97871074D01*
X139363279Y-97842720D01*
X139307760Y-97810796D01*
X139245775Y-97776496D01*
X139179595Y-97741012D01*
X139111490Y-97705541D01*
X139043730Y-97671274D01*
X138978585Y-97639408D01*
X138918326Y-97611134D01*
X138865223Y-97587648D01*
X138821546Y-97570143D01*
X138798950Y-97563048D01*
X138761773Y-97554988D01*
X138729267Y-97551682D01*
X138701052Y-97554160D01*
X138660987Y-97569156D01*
X138623683Y-97598544D01*
X138587678Y-97643272D01*
X138586057Y-97645955D01*
X138577110Y-97663319D01*
X138562378Y-97693804D01*
X138542456Y-97736086D01*
X138517941Y-97788839D01*
X138489428Y-97850738D01*
X138457514Y-97920459D01*
X138422793Y-97996676D01*
X138385863Y-98078065D01*
X138347318Y-98163301D01*
X138307755Y-98251059D01*
X138267770Y-98340014D01*
X138227958Y-98428841D01*
X138188914Y-98516215D01*
X138151236Y-98600811D01*
X138115519Y-98681305D01*
X138082358Y-98756371D01*
X138052350Y-98824685D01*
X138026091Y-98884921D01*
X138004175Y-98935756D01*
X137987200Y-98975863D01*
X137975760Y-99003918D01*
X137957578Y-99054714D01*
X137933978Y-99146527D01*
X137923664Y-99233404D01*
X136537612Y-99233404D01*
X136535650Y-99201097D01*
X136515910Y-99109938D01*
X136515696Y-99109198D01*
X136507978Y-99086312D01*
X136494563Y-99051175D01*
X136475342Y-99003530D01*
X136450206Y-98943124D01*
X136419045Y-98869700D01*
X136381749Y-98783005D01*
X136338209Y-98682782D01*
X136288313Y-98568776D01*
X136231954Y-98440733D01*
X136169021Y-98298397D01*
X136099405Y-98141513D01*
X136091975Y-98124797D01*
X136046667Y-98023030D01*
X136007235Y-97934938D01*
X135973093Y-97859447D01*
X135943659Y-97795481D01*
X135918347Y-97741966D01*
X135896573Y-97697828D01*
X135877754Y-97661991D01*
X135861305Y-97633382D01*
X135846642Y-97610925D01*
X135833181Y-97593546D01*
X135820337Y-97580169D01*
X135807527Y-97569721D01*
X135794166Y-97561127D01*
X135779671Y-97553312D01*
X135770565Y-97549211D01*
X135730070Y-97539441D01*
X135685719Y-97538914D01*
X135645269Y-97547940D01*
X135643758Y-97548540D01*
X135623158Y-97557872D01*
X135590868Y-97573699D01*
X135549204Y-97594800D01*
X135500479Y-97619959D01*
X135447009Y-97647956D01*
X135391107Y-97677573D01*
X135335090Y-97707591D01*
X135281270Y-97736793D01*
X135231963Y-97763960D01*
X135189484Y-97787872D01*
X135121919Y-97826793D01*
X135060642Y-97863047D01*
X135010911Y-97893915D01*
X134971227Y-97920536D01*
X134940088Y-97944050D01*
X134915995Y-97965597D01*
X134897448Y-97986316D01*
X134882945Y-98007348D01*
X134870989Y-98029831D01*
X134865848Y-98040957D01*
X134858858Y-98058060D01*
X134853740Y-98075003D01*
X134850930Y-98092524D01*
X134850861Y-98111357D01*
X134089779Y-98111357D01*
X134262577Y-97941729D01*
X134455398Y-97771921D01*
X134656598Y-97613267D01*
X134865087Y-97466740D01*
X134870312Y-97463493D01*
X136157047Y-97463493D01*
X136157506Y-97467253D01*
X136159411Y-97477942D01*
X136162687Y-97490033D01*
X136167860Y-97504501D01*
X136175457Y-97522319D01*
X136186003Y-97544461D01*
X136200026Y-97571902D01*
X136218052Y-97605615D01*
X136240607Y-97646575D01*
X136268217Y-97695755D01*
X136301409Y-97754129D01*
X136340710Y-97822672D01*
X136386645Y-97902357D01*
X136439741Y-97994159D01*
X136500525Y-98099051D01*
X136547566Y-98180182D01*
X136621986Y-98308502D01*
X136688961Y-98423882D01*
X136748956Y-98527045D01*
X136802433Y-98618714D01*
X136849857Y-98699612D01*
X136891691Y-98770463D01*
X136928397Y-98831989D01*
X136960440Y-98884914D01*
X136988283Y-98929961D01*
X137012390Y-98967853D01*
X137033224Y-98999313D01*
X137051248Y-99025064D01*
X137066925Y-99045830D01*
X137080720Y-99062334D01*
X137093096Y-99075298D01*
X137104516Y-99085447D01*
X137115443Y-99093502D01*
X137126342Y-99100188D01*
X137137675Y-99106228D01*
X137149906Y-99112344D01*
X137197551Y-99129400D01*
X137249631Y-99132700D01*
X137301034Y-99119878D01*
X137351428Y-99091024D01*
X137400481Y-99046225D01*
X137404346Y-99041873D01*
X137426511Y-99013779D01*
X137452806Y-98976587D01*
X137480264Y-98934629D01*
X137505919Y-98892238D01*
X137519371Y-98868934D01*
X137610571Y-98710708D01*
X137697506Y-98559481D01*
X137779892Y-98415756D01*
X137857446Y-98280037D01*
X137929885Y-98152829D01*
X137996926Y-98034636D01*
X138058286Y-97925961D01*
X138113682Y-97827310D01*
X138162830Y-97739184D01*
X138205447Y-97662090D01*
X138241251Y-97596531D01*
X138269957Y-97543010D01*
X138291283Y-97502033D01*
X138304946Y-97474102D01*
X138310662Y-97459723D01*
X138311677Y-97454801D01*
X138313325Y-97414307D01*
X138301977Y-97381489D01*
X138278186Y-97358072D01*
X138272380Y-97354891D01*
X138243210Y-97343165D01*
X138200751Y-97330120D01*
X138147228Y-97316202D01*
X138084865Y-97301858D01*
X138015887Y-97287535D01*
X137942516Y-97273679D01*
X137866977Y-97260737D01*
X137791493Y-97249155D01*
X137718290Y-97239379D01*
X137649590Y-97231857D01*
X137580601Y-97226457D01*
X137480146Y-97221604D01*
X137369940Y-97219057D01*
X137253557Y-97218752D01*
X137134576Y-97220627D01*
X137016573Y-97224617D01*
X136903125Y-97230659D01*
X136797808Y-97238690D01*
X136704200Y-97248646D01*
X136670634Y-97252951D01*
X136559587Y-97268604D01*
X136463849Y-97284655D01*
X136382652Y-97301404D01*
X136315230Y-97319153D01*
X136260817Y-97338202D01*
X136218646Y-97358853D01*
X136187949Y-97381407D01*
X136167962Y-97406164D01*
X136157917Y-97433425D01*
X136157047Y-97463493D01*
X134870312Y-97463493D01*
X135079773Y-97333314D01*
X135299565Y-97213963D01*
X135523373Y-97109660D01*
X135669752Y-97050373D01*
X135911844Y-96966304D01*
X136158468Y-96897419D01*
X136408857Y-96843688D01*
X136662241Y-96805084D01*
X136917851Y-96781579D01*
X137174918Y-96773143D01*
X137432673Y-96779749D01*
X137690347Y-96801369D01*
X137947171Y-96837973D01*
X138202377Y-96889534D01*
X138455195Y-96956023D01*
X138704856Y-97037413D01*
X138950591Y-97133674D01*
X139191631Y-97244778D01*
X139313078Y-97307120D01*
X139501594Y-97412858D01*
X139503898Y-97414307D01*
X139679612Y-97524832D01*
G37*
G36*
X154237309Y-100680214D02*
G01*
X154290961Y-100688855D01*
X154295918Y-100701205D01*
X154254427Y-100715784D01*
X154168738Y-100731114D01*
X154041098Y-100745714D01*
X153957947Y-100751475D01*
X153882425Y-100749272D01*
X153856765Y-100735189D01*
X153856772Y-100734435D01*
X153872066Y-100706283D01*
X153921033Y-100688166D01*
X154010117Y-100678784D01*
X154145764Y-100676833D01*
X154237309Y-100680214D01*
G37*
G36*
X153073289Y-100629441D02*
G01*
X153130374Y-100650065D01*
X153203088Y-100646927D01*
X153245588Y-100631441D01*
X153285331Y-100626104D01*
X153283130Y-100648461D01*
X153279361Y-100659947D01*
X153300613Y-100675142D01*
X153318381Y-100682918D01*
X153295518Y-100713064D01*
X153263505Y-100736815D01*
X153175789Y-100761395D01*
X153081238Y-100748519D01*
X153000315Y-100699154D01*
X152967617Y-100655525D01*
X152967147Y-100618256D01*
X153004873Y-100607171D01*
X153073289Y-100629441D01*
G37*
G36*
X151557706Y-99647936D02*
G01*
X151548147Y-99669019D01*
X151520141Y-99729153D01*
X151482968Y-99808020D01*
X151468209Y-99841849D01*
X151420742Y-100015293D01*
X151403369Y-100212112D01*
X151415383Y-100415879D01*
X151456076Y-100610168D01*
X151524741Y-100778555D01*
X151561193Y-100847867D01*
X151584617Y-100905871D01*
X151579973Y-100929553D01*
X151548179Y-100924645D01*
X151521510Y-100906873D01*
X151469854Y-100842220D01*
X151417329Y-100745941D01*
X151370603Y-100631069D01*
X151336346Y-100510637D01*
X151312556Y-100383985D01*
X151299994Y-100234407D01*
X151311701Y-100096689D01*
X151348114Y-99949864D01*
X151407240Y-99805214D01*
X151485029Y-99700258D01*
X151510161Y-99677441D01*
X151547992Y-99647634D01*
X151557706Y-99647936D01*
G37*
G36*
X156380472Y-98843448D02*
G01*
X156401424Y-98897049D01*
X156427620Y-98945000D01*
X156499992Y-98990903D01*
X156548706Y-99016102D01*
X156564373Y-99046779D01*
X156536241Y-99066680D01*
X156469069Y-99064483D01*
X156423290Y-99057766D01*
X156402051Y-99071942D01*
X156407912Y-99123365D01*
X156411128Y-99148573D01*
X156402582Y-99195999D01*
X156368363Y-99251695D01*
X156301414Y-99329306D01*
X156243871Y-99389093D01*
X156196733Y-99430232D01*
X156180762Y-99432563D01*
X156198096Y-99396393D01*
X156250870Y-99322030D01*
X156282754Y-99276356D01*
X156308927Y-99218334D01*
X156321082Y-99145798D01*
X156324242Y-99039397D01*
X156328390Y-98948759D01*
X156341053Y-98874657D01*
X156359381Y-98837769D01*
X156380472Y-98843448D01*
G37*
G36*
X156732732Y-101042492D02*
G01*
X156756273Y-101064707D01*
X156756500Y-101066684D01*
X156733081Y-101091291D01*
X156673961Y-101128276D01*
X156591552Y-101171481D01*
X156498268Y-101214749D01*
X156406519Y-101251921D01*
X156328717Y-101276839D01*
X156275143Y-101310878D01*
X156225110Y-101387529D01*
X156190751Y-101492339D01*
X156177983Y-101612143D01*
X156171397Y-101679129D01*
X156152360Y-101758898D01*
X156126290Y-101830791D01*
X156098675Y-101879926D01*
X156075002Y-101891423D01*
X156072985Y-101888682D01*
X156065700Y-101848262D01*
X156061096Y-101771343D01*
X156060095Y-101671542D01*
X156061782Y-101618611D01*
X156080995Y-101463243D01*
X156118729Y-101332987D01*
X156171657Y-101237030D01*
X156236453Y-101184559D01*
X156315360Y-101153591D01*
X156477310Y-101093718D01*
X156597814Y-101055946D01*
X156681434Y-101039221D01*
X156732732Y-101042492D01*
G37*
G36*
X157494446Y-102739043D02*
G01*
X157631357Y-102760886D01*
X157778824Y-102802159D01*
X157814929Y-102815505D01*
X157910997Y-102861318D01*
X158015534Y-102926864D01*
X158133798Y-103016295D01*
X158271044Y-103133764D01*
X158432528Y-103283423D01*
X158623506Y-103469424D01*
X158660102Y-103505756D01*
X158815600Y-103662495D01*
X158934902Y-103787602D01*
X159020882Y-103884459D01*
X159076410Y-103956446D01*
X159104359Y-104006945D01*
X159107600Y-104039337D01*
X159094364Y-104039171D01*
X159058500Y-104005988D01*
X159009827Y-103944676D01*
X158972794Y-103896874D01*
X158906647Y-103824567D01*
X158850424Y-103777372D01*
X158806639Y-103745509D01*
X158733140Y-103683460D01*
X158656102Y-103611508D01*
X158479396Y-103438181D01*
X158327359Y-103291422D01*
X158204918Y-103176337D01*
X158108301Y-103089452D01*
X158033737Y-103027293D01*
X157977455Y-102986386D01*
X157889394Y-102939566D01*
X157762694Y-102891743D01*
X157624147Y-102854165D01*
X157488715Y-102830102D01*
X157371358Y-102822821D01*
X157287038Y-102835589D01*
X157269734Y-102841811D01*
X157229204Y-102847505D01*
X157218529Y-102823214D01*
X157231116Y-102786933D01*
X157285919Y-102752382D01*
X157376498Y-102736313D01*
X157494446Y-102739043D01*
G37*
G36*
X154896117Y-94833051D02*
G01*
X154912225Y-94847857D01*
X154894286Y-94892106D01*
X154892852Y-94894789D01*
X154852187Y-94958612D01*
X154799965Y-95027556D01*
X154754554Y-95092806D01*
X154740041Y-95155760D01*
X154770578Y-95205171D01*
X154877984Y-95290507D01*
X155038153Y-95396592D01*
X155183465Y-95467501D01*
X155295778Y-95520026D01*
X155441071Y-95608299D01*
X155593940Y-95718021D01*
X155743341Y-95840097D01*
X155878228Y-95965432D01*
X155987557Y-96084932D01*
X156060283Y-96189502D01*
X156082688Y-96229934D01*
X156145725Y-96337390D01*
X156208166Y-96437262D01*
X156239228Y-96489640D01*
X156271613Y-96561286D01*
X156280439Y-96608721D01*
X156264769Y-96610366D01*
X156223437Y-96567879D01*
X156157427Y-96480664D01*
X156067498Y-96349643D01*
X155970477Y-96209167D01*
X155873623Y-96084272D01*
X155780525Y-95983899D01*
X155680628Y-95895660D01*
X155643260Y-95866067D01*
X155503240Y-95764229D01*
X155363644Y-95675058D01*
X155237401Y-95606396D01*
X155137437Y-95566088D01*
X155137105Y-95565993D01*
X155082392Y-95540193D01*
X155003462Y-95491259D01*
X154917286Y-95429702D01*
X154910939Y-95424870D01*
X154831389Y-95367986D01*
X154766287Y-95327651D01*
X154729187Y-95312326D01*
X154709790Y-95308765D01*
X154662521Y-95280310D01*
X154653114Y-95265313D01*
X154636913Y-95204055D01*
X154630504Y-95122168D01*
X154630739Y-95096527D01*
X154639087Y-95023669D01*
X154668202Y-94971134D01*
X154729966Y-94914059D01*
X154762255Y-94889306D01*
X154829290Y-94848281D01*
X154877648Y-94832074D01*
X154896117Y-94833051D01*
G37*
G36*
X154291855Y-102596520D02*
G01*
X154325546Y-102619142D01*
X154382859Y-102669890D01*
X154452714Y-102739052D01*
X154534323Y-102817020D01*
X154617685Y-102885730D01*
X154683866Y-102929421D01*
X154712559Y-102944384D01*
X154811164Y-103000882D01*
X154903584Y-103060501D01*
X154979691Y-103116002D01*
X155029359Y-103160150D01*
X155042460Y-103185706D01*
X155023417Y-103201285D01*
X154960760Y-103208638D01*
X154872329Y-103191134D01*
X154770938Y-103150435D01*
X154759019Y-103144088D01*
X154678800Y-103089462D01*
X154585319Y-103011437D01*
X154496430Y-102924694D01*
X154340798Y-102758324D01*
X154322857Y-102840009D01*
X154319883Y-102876713D01*
X154332512Y-102954529D01*
X154367851Y-103061846D01*
X154427739Y-103203924D01*
X154514019Y-103386021D01*
X154554688Y-103468855D01*
X154897064Y-103486930D01*
X154997040Y-103490981D01*
X155234975Y-103487616D01*
X155430971Y-103462661D01*
X155590433Y-103415179D01*
X155718767Y-103344231D01*
X155740502Y-103328755D01*
X155831440Y-103269213D01*
X155914164Y-103222320D01*
X155976981Y-103194259D01*
X156008197Y-103191210D01*
X156008036Y-103195012D01*
X155983994Y-103226590D01*
X155931137Y-103281271D01*
X155858015Y-103350015D01*
X155785855Y-103411920D01*
X155689343Y-103480073D01*
X155588830Y-103529323D01*
X155474511Y-103562250D01*
X155336581Y-103581437D01*
X155165236Y-103589463D01*
X154950672Y-103588912D01*
X154537122Y-103582037D01*
X154463017Y-103496104D01*
X154453840Y-103484902D01*
X154398869Y-103396190D01*
X154362395Y-103303318D01*
X154358229Y-103287487D01*
X154325004Y-103186589D01*
X154284741Y-103089742D01*
X154273009Y-103063919D01*
X154244339Y-102986498D01*
X154232181Y-102929658D01*
X154234256Y-102855132D01*
X154243628Y-102765324D01*
X154257789Y-102681781D01*
X154274039Y-102620168D01*
X154289676Y-102596150D01*
X154291855Y-102596520D01*
G37*
G36*
X155253033Y-101286542D02*
G01*
X155441715Y-101356282D01*
X155518779Y-101399686D01*
X155598914Y-101455272D01*
X155649107Y-101502761D01*
X155663135Y-101525852D01*
X155697742Y-101613793D01*
X155731543Y-101737321D01*
X155762118Y-101883921D01*
X155787050Y-102041078D01*
X155803921Y-102196277D01*
X155810311Y-102337002D01*
X155808135Y-102450181D01*
X155795492Y-102550462D01*
X155766538Y-102620505D01*
X155715602Y-102672845D01*
X155637010Y-102720019D01*
X155607046Y-102732939D01*
X155606497Y-102733176D01*
X155496148Y-102760073D01*
X155356960Y-102774201D01*
X155281082Y-102774300D01*
X155205903Y-102774399D01*
X155139012Y-102767574D01*
X155059945Y-102759506D01*
X154962553Y-102738694D01*
X154946223Y-102732235D01*
X154811781Y-102679055D01*
X154695046Y-102587939D01*
X154608668Y-102460779D01*
X154548966Y-102293009D01*
X154512258Y-102080063D01*
X154506590Y-102024940D01*
X154501146Y-101955814D01*
X155057395Y-101955814D01*
X155057427Y-101956565D01*
X155082135Y-101974904D01*
X155139012Y-101982495D01*
X155141804Y-101982482D01*
X155193713Y-101974710D01*
X155204139Y-101955814D01*
X155179016Y-101938971D01*
X155122522Y-101929133D01*
X155080179Y-101935583D01*
X155057395Y-101955814D01*
X154501146Y-101955814D01*
X154494806Y-101875317D01*
X154493239Y-101843868D01*
X155484286Y-101843868D01*
X155502640Y-101903092D01*
X155549650Y-101942939D01*
X155607046Y-101945131D01*
X155626807Y-101935937D01*
X155635843Y-101913841D01*
X155610868Y-101868774D01*
X155574745Y-101827980D01*
X155527789Y-101800444D01*
X155500338Y-101803501D01*
X155484286Y-101843868D01*
X154493239Y-101843868D01*
X154487479Y-101728278D01*
X154486012Y-101608965D01*
X154487028Y-101557827D01*
X154898159Y-101557827D01*
X154898182Y-101569132D01*
X154903467Y-101634923D01*
X154915098Y-101671220D01*
X154946223Y-101688732D01*
X154969309Y-101671682D01*
X154976988Y-101627866D01*
X154967273Y-101570803D01*
X154938181Y-101514012D01*
X154933716Y-101508146D01*
X154910201Y-101483042D01*
X154900484Y-101497265D01*
X154898159Y-101557827D01*
X154487028Y-101557827D01*
X154488725Y-101472413D01*
X155244160Y-101472413D01*
X155245156Y-101480239D01*
X155270840Y-101515583D01*
X155281082Y-101519857D01*
X155297521Y-101505392D01*
X155296525Y-101497566D01*
X155270840Y-101462221D01*
X155260598Y-101457947D01*
X155244160Y-101472413D01*
X154488725Y-101472413D01*
X154489987Y-101408860D01*
X154700319Y-101334926D01*
X154846449Y-101291966D01*
X155056595Y-101265161D01*
X155253033Y-101286542D01*
G37*
G36*
X155360369Y-97056200D02*
G01*
X155407513Y-97101119D01*
X155460869Y-97189240D01*
X155525466Y-97324372D01*
X155564101Y-97412306D01*
X155605615Y-97512303D01*
X155633911Y-97587299D01*
X155644370Y-97625593D01*
X155645990Y-97637748D01*
X155664735Y-97694349D01*
X155697731Y-97766948D01*
X155699826Y-97771118D01*
X155743366Y-97912126D01*
X155752647Y-98078906D01*
X155729344Y-98258276D01*
X155675130Y-98437055D01*
X155591679Y-98602062D01*
X155572484Y-98631300D01*
X155544268Y-98666787D01*
X155526647Y-98688949D01*
X155471038Y-98735991D01*
X155392342Y-98782425D01*
X155277246Y-98838250D01*
X155267259Y-98842833D01*
X155200101Y-98870290D01*
X155142937Y-98893661D01*
X155021669Y-98934986D01*
X155007675Y-98939755D01*
X154873528Y-98977990D01*
X154752546Y-99005240D01*
X154710546Y-99011004D01*
X154656784Y-99018382D01*
X154598294Y-99014289D01*
X154575902Y-98985022D01*
X154550233Y-98914759D01*
X154527349Y-98817105D01*
X154518586Y-98769942D01*
X154830609Y-98769942D01*
X154908582Y-98803148D01*
X154968331Y-98820733D01*
X155021669Y-98821934D01*
X155049534Y-98806827D01*
X155038568Y-98777996D01*
X155036658Y-98776280D01*
X154990038Y-98760930D01*
X154920714Y-98760094D01*
X154907384Y-98761551D01*
X154830609Y-98769942D01*
X154518586Y-98769942D01*
X154509737Y-98722313D01*
X154487132Y-98600239D01*
X154470081Y-98507769D01*
X154873482Y-98507769D01*
X154876720Y-98548132D01*
X154907384Y-98567368D01*
X154931678Y-98561392D01*
X154977091Y-98527663D01*
X154995338Y-98492648D01*
X154968295Y-98471938D01*
X154945769Y-98466497D01*
X154898589Y-98473196D01*
X154873482Y-98507769D01*
X154470081Y-98507769D01*
X154468771Y-98500667D01*
X154460504Y-98455865D01*
X154454593Y-98424203D01*
X154688585Y-98424203D01*
X154710546Y-98433965D01*
X154724671Y-98432040D01*
X154728333Y-98416178D01*
X154724423Y-98412985D01*
X154700619Y-98415385D01*
X154692759Y-98416178D01*
X154688585Y-98424203D01*
X154454593Y-98424203D01*
X154444695Y-98371182D01*
X154433757Y-98313902D01*
X154430375Y-98266277D01*
X154638654Y-98266277D01*
X154650110Y-98309757D01*
X154700619Y-98327242D01*
X154704166Y-98326567D01*
X154730435Y-98295957D01*
X154760298Y-98231170D01*
X154784104Y-98160488D01*
X155168932Y-98160488D01*
X155170314Y-98199412D01*
X155200101Y-98220520D01*
X155236456Y-98217734D01*
X155300844Y-98189594D01*
X155322771Y-98139144D01*
X155486392Y-98139144D01*
X155508952Y-98199970D01*
X155544268Y-98221233D01*
X155576756Y-98201467D01*
X155591008Y-98140478D01*
X155584354Y-98081724D01*
X155560007Y-98062650D01*
X155516303Y-98092452D01*
X155500805Y-98110142D01*
X155486392Y-98139144D01*
X155322771Y-98139144D01*
X155324202Y-98135851D01*
X155323551Y-98122876D01*
X155305134Y-98093898D01*
X155250830Y-98092014D01*
X155194532Y-98110750D01*
X155168932Y-98160488D01*
X154784104Y-98160488D01*
X154788337Y-98147919D01*
X154809133Y-98061922D01*
X154817269Y-97988891D01*
X154816346Y-97974625D01*
X154793723Y-97933558D01*
X154754024Y-97932381D01*
X154714997Y-97973724D01*
X154711899Y-97980225D01*
X154690822Y-98042812D01*
X154672473Y-98122362D01*
X154669582Y-98137951D01*
X154654219Y-98210644D01*
X154641450Y-98257159D01*
X154638654Y-98266277D01*
X154430375Y-98266277D01*
X154425564Y-98198520D01*
X154450951Y-98034829D01*
X154512751Y-97868121D01*
X154606601Y-97713554D01*
X154623110Y-97692007D01*
X154731283Y-97561838D01*
X154848318Y-97436316D01*
X154961320Y-97328643D01*
X155057395Y-97252020D01*
X155100137Y-97221679D01*
X155179810Y-97159337D01*
X155237887Y-97106638D01*
X155264594Y-97080737D01*
X155314406Y-97050676D01*
X155360369Y-97056200D01*
G37*
G36*
X152715954Y-90956543D02*
G01*
X152736880Y-90983980D01*
X152786959Y-91063208D01*
X152850498Y-91174332D01*
X152922016Y-91306862D01*
X152996030Y-91450306D01*
X153067059Y-91594176D01*
X153129622Y-91727981D01*
X153178237Y-91841231D01*
X153243833Y-91988853D01*
X153332072Y-92139920D01*
X153447801Y-92291982D01*
X153545716Y-92422228D01*
X153643341Y-92574904D01*
X153733625Y-92736792D01*
X153809988Y-92895239D01*
X153865848Y-93037590D01*
X153894626Y-93151192D01*
X153900724Y-93192054D01*
X153920119Y-93303797D01*
X153941954Y-93413162D01*
X153953065Y-93460757D01*
X153977582Y-93528244D01*
X154015841Y-93571507D01*
X154081536Y-93609841D01*
X154089724Y-93614145D01*
X154166200Y-93663845D01*
X154259172Y-93735776D01*
X154350357Y-93815922D01*
X154439361Y-93892472D01*
X154597376Y-94000708D01*
X154796183Y-94108710D01*
X154863663Y-94143229D01*
X155083823Y-94273670D01*
X155263094Y-94409761D01*
X155301920Y-94444324D01*
X155376602Y-94513142D01*
X155430077Y-94565690D01*
X155452729Y-94592694D01*
X155455906Y-94596295D01*
X155491817Y-94595053D01*
X155551875Y-94572811D01*
X155565422Y-94566574D01*
X155609194Y-94551077D01*
X155660124Y-94543296D01*
X155729655Y-94542983D01*
X155829233Y-94549890D01*
X155970302Y-94563770D01*
X156005156Y-94567400D01*
X156137506Y-94580759D01*
X156244083Y-94589932D01*
X156338067Y-94595206D01*
X156432638Y-94596873D01*
X156540975Y-94595220D01*
X156676258Y-94590537D01*
X156851666Y-94583113D01*
X156886428Y-94581494D01*
X157021734Y-94573135D01*
X157137939Y-94562827D01*
X157223629Y-94551728D01*
X157267393Y-94540994D01*
X157276102Y-94535893D01*
X157343010Y-94478657D01*
X157427848Y-94382786D01*
X157524839Y-94255770D01*
X157628207Y-94105102D01*
X157732175Y-93938272D01*
X157864220Y-93729999D01*
X158022500Y-93507568D01*
X158190355Y-93295215D01*
X158359778Y-93102520D01*
X158522760Y-92939068D01*
X158671294Y-92814441D01*
X158756845Y-92756968D01*
X158864760Y-92707429D01*
X158950464Y-92701883D01*
X159017569Y-92739547D01*
X159039756Y-92763602D01*
X159054358Y-92793561D01*
X159051897Y-92834131D01*
X159031030Y-92898113D01*
X158990412Y-92998308D01*
X158957230Y-93080072D01*
X158904748Y-93214550D01*
X158858635Y-93337957D01*
X158802485Y-93490030D01*
X158735724Y-93665500D01*
X158663853Y-93850300D01*
X158591584Y-94032551D01*
X158523629Y-94200372D01*
X158464700Y-94341884D01*
X158419507Y-94445205D01*
X158372143Y-94551320D01*
X158311615Y-94692230D01*
X158259494Y-94818734D01*
X158228205Y-94897101D01*
X158176772Y-95025756D01*
X158119063Y-95169980D01*
X158062656Y-95310827D01*
X157999741Y-95475497D01*
X157939878Y-95660317D01*
X157897862Y-95837079D01*
X157870915Y-96021031D01*
X157856256Y-96227421D01*
X157851107Y-96471498D01*
X157848997Y-96899826D01*
X157932956Y-97033230D01*
X157963522Y-97086850D01*
X158014539Y-97198110D01*
X158048240Y-97300037D01*
X158071525Y-97388165D01*
X158106742Y-97506350D01*
X158144703Y-97622732D01*
X158163518Y-97679413D01*
X158183996Y-97753734D01*
X158196648Y-97827888D01*
X158202820Y-97915242D01*
X158203858Y-98029165D01*
X158201107Y-98183026D01*
X158199209Y-98286731D01*
X158199815Y-98430587D01*
X158206120Y-98541603D01*
X158219053Y-98632652D01*
X158239539Y-98716611D01*
X158263060Y-98810261D01*
X158281154Y-98927368D01*
X158288358Y-99059983D01*
X158285247Y-99220459D01*
X158272399Y-99421150D01*
X158270501Y-99446147D01*
X158263820Y-99571723D01*
X158266520Y-99667440D01*
X158280166Y-99753007D01*
X158306324Y-99848132D01*
X158310191Y-99860991D01*
X158341125Y-100027410D01*
X158339804Y-100211179D01*
X158305566Y-100420158D01*
X158237751Y-100662206D01*
X158182089Y-100870223D01*
X158141449Y-101169139D01*
X158137729Y-101219669D01*
X158123305Y-101383433D01*
X158105187Y-101558841D01*
X158086416Y-101715688D01*
X158082254Y-101747303D01*
X158059813Y-101917888D01*
X158043970Y-102044376D01*
X158034774Y-102134417D01*
X158032275Y-102195659D01*
X158036523Y-102235754D01*
X158047568Y-102262349D01*
X158065458Y-102283093D01*
X158090244Y-102305637D01*
X158114632Y-102329042D01*
X158143544Y-102360514D01*
X158177369Y-102402655D01*
X158221033Y-102462217D01*
X158279462Y-102545956D01*
X158357584Y-102660623D01*
X158460324Y-102812973D01*
X158635684Y-103063967D01*
X158842692Y-103337755D01*
X159042517Y-103578540D01*
X159083951Y-103628097D01*
X159164747Y-103737676D01*
X159238149Y-103852738D01*
X159299129Y-103963729D01*
X159342658Y-104061092D01*
X159363710Y-104135271D01*
X159357255Y-104176710D01*
X159324264Y-104190154D01*
X159248478Y-104200018D01*
X159146754Y-104201734D01*
X159063383Y-104196928D01*
X158969744Y-104180810D01*
X158872347Y-104148241D01*
X158750313Y-104093521D01*
X158734097Y-104085756D01*
X158636693Y-104040045D01*
X158573667Y-104014897D01*
X158532951Y-104007991D01*
X158502474Y-104017004D01*
X158470166Y-104039613D01*
X158378427Y-104083251D01*
X158249225Y-104091672D01*
X158094916Y-104058328D01*
X157919272Y-103983601D01*
X157841897Y-103945916D01*
X157708940Y-103894467D01*
X157610315Y-103876879D01*
X157591653Y-103876655D01*
X157522080Y-103869266D01*
X157456926Y-103846485D01*
X157381412Y-103801638D01*
X157280760Y-103728050D01*
X157238736Y-103698796D01*
X157135040Y-103640736D01*
X157037306Y-103601076D01*
X157033163Y-103599878D01*
X156888020Y-103578871D01*
X156722443Y-103586389D01*
X156558499Y-103619751D01*
X156418257Y-103676276D01*
X156351192Y-103713154D01*
X156217121Y-103783178D01*
X156096400Y-103838648D01*
X155975837Y-103884256D01*
X155842239Y-103924692D01*
X155682413Y-103964649D01*
X155483167Y-104008818D01*
X155396142Y-104027315D01*
X155165115Y-104074367D01*
X154967239Y-104110526D01*
X154788665Y-104137739D01*
X154615548Y-104157957D01*
X154434040Y-104173129D01*
X154230294Y-104185205D01*
X154120892Y-104189847D01*
X153979050Y-104191238D01*
X153879791Y-104184617D01*
X153816744Y-104169746D01*
X153799401Y-104163841D01*
X153721671Y-104146124D01*
X153614809Y-104128988D01*
X153496576Y-104115447D01*
X153454236Y-104111447D01*
X153337578Y-104099025D01*
X153238299Y-104086560D01*
X153174303Y-104076231D01*
X153134535Y-104069898D01*
X153098163Y-104077950D01*
X153066555Y-104113884D01*
X153026099Y-104187962D01*
X153015952Y-104207752D01*
X152972634Y-104291867D01*
X152913434Y-104406490D01*
X152844816Y-104539117D01*
X152773241Y-104677242D01*
X152752154Y-104718082D01*
X152678952Y-104862384D01*
X152609867Y-105002069D01*
X152551848Y-105122953D01*
X152511842Y-105210856D01*
X152501131Y-105235393D01*
X152461125Y-105318021D01*
X152436624Y-105352592D01*
X152427857Y-105341640D01*
X152435054Y-105287700D01*
X152458444Y-105193309D01*
X152498259Y-105061000D01*
X152523165Y-104987273D01*
X152600217Y-104788720D01*
X152692528Y-104581037D01*
X152790750Y-104384537D01*
X152885533Y-104219533D01*
X152890630Y-104211452D01*
X152932331Y-104142250D01*
X152944141Y-104106178D01*
X152925131Y-104092447D01*
X152874368Y-104090268D01*
X152868601Y-104090115D01*
X152805789Y-104082689D01*
X152708282Y-104066243D01*
X152590930Y-104043736D01*
X152468583Y-104018128D01*
X152356092Y-103992380D01*
X152268308Y-103969452D01*
X152237335Y-103966386D01*
X152202824Y-103990185D01*
X152165860Y-104055299D01*
X152129560Y-104126187D01*
X152101405Y-104172378D01*
X152026402Y-104295426D01*
X151900217Y-104472004D01*
X151763979Y-104638424D01*
X151630659Y-104777190D01*
X151495293Y-104895363D01*
X151326699Y-105027787D01*
X151148923Y-105155348D01*
X150977468Y-105266954D01*
X150827835Y-105351516D01*
X150693800Y-105409470D01*
X150523273Y-105467351D01*
X150348534Y-105513985D01*
X150194842Y-105541781D01*
X150171294Y-105544324D01*
X150097182Y-105547317D01*
X150070702Y-105539190D01*
X150088969Y-105523232D01*
X150149098Y-105502730D01*
X150248204Y-105480972D01*
X150342525Y-105459243D01*
X150550095Y-105385845D01*
X150773408Y-105278181D01*
X151002775Y-105142725D01*
X151228507Y-104985955D01*
X151440917Y-104814344D01*
X151630314Y-104634368D01*
X151787010Y-104452504D01*
X151801055Y-104433754D01*
X151874104Y-104328965D01*
X151943533Y-104218777D01*
X152003967Y-104113027D01*
X152050029Y-104021552D01*
X152076346Y-103954190D01*
X152077541Y-103920778D01*
X152075568Y-103919903D01*
X152044348Y-103934425D01*
X151987199Y-103976788D01*
X151914830Y-104039197D01*
X151769560Y-104154293D01*
X151538705Y-104287183D01*
X151260829Y-104399736D01*
X151250051Y-104403947D01*
X151179186Y-104431633D01*
X151032666Y-104511296D01*
X150873959Y-104627215D01*
X150769193Y-104709548D01*
X150450558Y-104932149D01*
X150134811Y-105109644D01*
X150032209Y-105158168D01*
X149912111Y-105210453D01*
X149798321Y-105255915D01*
X149701336Y-105290588D01*
X149631655Y-105310508D01*
X149599776Y-105311710D01*
X149610277Y-105300178D01*
X149659675Y-105269638D01*
X149740646Y-105225959D01*
X149843928Y-105174353D01*
X150003411Y-105092408D01*
X150246524Y-104951886D01*
X150482226Y-104798817D01*
X150688593Y-104646891D01*
X150828508Y-104535508D01*
X150735126Y-104553744D01*
X150575419Y-104581449D01*
X150366410Y-104607261D01*
X150173413Y-104619524D01*
X150005279Y-104618057D01*
X149870860Y-104602682D01*
X149779007Y-104573218D01*
X149743113Y-104550970D01*
X149728842Y-104530667D01*
X149758175Y-104528562D01*
X149826346Y-104547266D01*
X149856008Y-104555402D01*
X149967945Y-104567180D01*
X150116450Y-104564224D01*
X150291003Y-104547419D01*
X150481082Y-104517650D01*
X150676168Y-104475802D01*
X150785171Y-104448102D01*
X150892787Y-104416271D01*
X150971121Y-104384760D01*
X151033333Y-104348030D01*
X151088629Y-104303713D01*
X151250051Y-104303713D01*
X151277164Y-104298438D01*
X151347211Y-104270886D01*
X151441263Y-104225062D01*
X151549064Y-104166970D01*
X151660358Y-104102613D01*
X151764889Y-104037993D01*
X151852402Y-103979114D01*
X151912641Y-103931978D01*
X151935351Y-103902588D01*
X151926970Y-103894289D01*
X151881467Y-103870802D01*
X151809571Y-103841565D01*
X151683387Y-103794797D01*
X151589766Y-103909182D01*
X151533322Y-103975991D01*
X151448782Y-104072077D01*
X151365232Y-104163639D01*
X151356103Y-104173449D01*
X151296901Y-104239448D01*
X151258932Y-104286054D01*
X151250051Y-104303713D01*
X151088629Y-104303713D01*
X151092583Y-104300544D01*
X151143415Y-104251769D01*
X151214350Y-104177897D01*
X151295981Y-104089216D01*
X151380431Y-103994672D01*
X151459825Y-103903211D01*
X151526287Y-103823779D01*
X151571940Y-103765323D01*
X151588908Y-103736788D01*
X151580499Y-103726194D01*
X151554242Y-103698865D01*
X151748992Y-103698865D01*
X151752910Y-103708766D01*
X151792646Y-103739805D01*
X151862805Y-103774955D01*
X151947945Y-103808519D01*
X152032625Y-103834798D01*
X152101405Y-103848095D01*
X152138843Y-103842713D01*
X152143024Y-103837096D01*
X152166254Y-103787227D01*
X152200391Y-103697379D01*
X152242560Y-103576405D01*
X152289881Y-103433158D01*
X152339476Y-103276489D01*
X152388468Y-103115252D01*
X152433978Y-102958299D01*
X152473129Y-102814483D01*
X152487697Y-102758244D01*
X152524157Y-102611785D01*
X152547098Y-102506766D01*
X152557737Y-102435796D01*
X152557294Y-102391485D01*
X152546986Y-102366442D01*
X152535031Y-102358718D01*
X152514853Y-102367762D01*
X152485915Y-102403163D01*
X152444606Y-102470344D01*
X152387314Y-102574729D01*
X152310429Y-102721743D01*
X152289522Y-102762177D01*
X152190753Y-102951636D01*
X152109292Y-103104358D01*
X152039846Y-103229708D01*
X151977121Y-103337051D01*
X151915825Y-103435753D01*
X151850663Y-103535180D01*
X151849363Y-103537125D01*
X151798751Y-103614420D01*
X151762719Y-103672479D01*
X151748992Y-103698865D01*
X151554242Y-103698865D01*
X151539096Y-103683101D01*
X151467863Y-103611992D01*
X151372109Y-103518099D01*
X151257140Y-103406652D01*
X151128266Y-103282881D01*
X150667624Y-102842404D01*
X150214453Y-102935092D01*
X150180397Y-102941940D01*
X149897194Y-102990274D01*
X149614870Y-103024140D01*
X149341788Y-103043364D01*
X149086312Y-103047774D01*
X148856805Y-103037197D01*
X148661629Y-103011458D01*
X148509149Y-102970386D01*
X148465226Y-102948613D01*
X148439748Y-102917346D01*
X148461395Y-102897908D01*
X148527300Y-102901224D01*
X148611970Y-102917513D01*
X148846555Y-102949708D01*
X149092490Y-102967532D01*
X149334203Y-102970604D01*
X149556122Y-102958543D01*
X149742674Y-102930967D01*
X149847216Y-102908857D01*
X149997726Y-102878496D01*
X150149436Y-102849284D01*
X150291660Y-102823171D01*
X150413709Y-102802106D01*
X150504897Y-102788037D01*
X150554535Y-102782915D01*
X150574618Y-102780133D01*
X150578908Y-102763391D01*
X150552795Y-102724655D01*
X150492489Y-102656181D01*
X150478307Y-102641067D01*
X150319945Y-102507077D01*
X150133901Y-102399495D01*
X149941294Y-102330785D01*
X149845534Y-102303690D01*
X149791684Y-102278757D01*
X149787916Y-102260648D01*
X149834578Y-102252179D01*
X149932021Y-102256162D01*
X149965340Y-102259728D01*
X150042014Y-102273497D01*
X150117376Y-102297400D01*
X150196245Y-102334948D01*
X150283442Y-102389649D01*
X150383786Y-102465013D01*
X150502098Y-102564551D01*
X150643197Y-102691770D01*
X150811903Y-102850182D01*
X151013036Y-103043295D01*
X151098908Y-103125954D01*
X151243187Y-103263221D01*
X151373174Y-103384877D01*
X151484102Y-103486575D01*
X151571206Y-103563971D01*
X151629720Y-103612720D01*
X151654877Y-103628476D01*
X151682413Y-103603170D01*
X151731739Y-103536964D01*
X151797482Y-103437241D01*
X151875365Y-103311110D01*
X151961109Y-103165682D01*
X152050436Y-103008067D01*
X152139069Y-102845375D01*
X152222728Y-102684716D01*
X152428101Y-102279689D01*
X152191512Y-102044379D01*
X152122262Y-101973944D01*
X152000216Y-101836296D01*
X151913685Y-101711734D01*
X151856707Y-101588723D01*
X151823323Y-101455724D01*
X151807571Y-101301202D01*
X151806314Y-101276487D01*
X151803797Y-101183031D01*
X151808988Y-101107463D01*
X151825262Y-101033069D01*
X151855994Y-100943135D01*
X151904560Y-100820950D01*
X151947043Y-100715829D01*
X152007166Y-100561994D01*
X152049485Y-100444326D01*
X152076583Y-100354804D01*
X152091045Y-100285406D01*
X152095452Y-100228109D01*
X152094451Y-100214413D01*
X152079838Y-100144450D01*
X152050500Y-100040304D01*
X152009895Y-99913642D01*
X151961482Y-99776133D01*
X151939249Y-99715173D01*
X151870065Y-99514122D01*
X151822046Y-99349341D01*
X151793647Y-99211497D01*
X151783321Y-99091260D01*
X151789522Y-98979299D01*
X151810704Y-98866282D01*
X151811740Y-98861976D01*
X151833933Y-98764091D01*
X151849710Y-98683977D01*
X151855714Y-98638609D01*
X151855713Y-98638304D01*
X151837079Y-98578500D01*
X151789013Y-98494006D01*
X151784403Y-98485902D01*
X151761808Y-98452893D01*
X151701690Y-98365066D01*
X151683267Y-98340583D01*
X151775672Y-98340583D01*
X151789013Y-98353923D01*
X151802353Y-98340583D01*
X151789013Y-98327242D01*
X151775672Y-98340583D01*
X151683267Y-98340583D01*
X151592946Y-98220551D01*
X151462174Y-98056913D01*
X151313381Y-97878710D01*
X151150571Y-97690500D01*
X150977749Y-97496839D01*
X150798921Y-97302284D01*
X150618090Y-97111394D01*
X150439264Y-96928725D01*
X150266445Y-96758835D01*
X150103640Y-96606281D01*
X149954853Y-96475620D01*
X149801576Y-96346624D01*
X149749008Y-96409780D01*
X149703158Y-96473787D01*
X149657779Y-96552978D01*
X149653655Y-96562087D01*
X149625840Y-96650076D01*
X149597584Y-96780333D01*
X149570204Y-96943264D01*
X149545022Y-97129276D01*
X149523358Y-97328778D01*
X149506530Y-97532176D01*
X149495858Y-97729876D01*
X149492819Y-97800666D01*
X149483050Y-97964771D01*
X149470424Y-98119786D01*
X149456240Y-98250958D01*
X149441798Y-98343532D01*
X149435372Y-98379612D01*
X149421855Y-98508256D01*
X149415066Y-98663724D01*
X149414828Y-98830044D01*
X149420965Y-98991243D01*
X149433299Y-99131348D01*
X149451655Y-99234385D01*
X149474666Y-99306908D01*
X149521177Y-99430131D01*
X149581267Y-99574412D01*
X149648755Y-99725036D01*
X149717464Y-99867290D01*
X149764880Y-99963383D01*
X149792106Y-100026907D01*
X149793791Y-100050792D01*
X149770037Y-100038747D01*
X149720946Y-99994483D01*
X149655859Y-99923393D01*
X149569677Y-99807008D01*
X149490976Y-99678889D01*
X149429734Y-99555632D01*
X149395925Y-99453832D01*
X149383997Y-99377900D01*
X149369602Y-99262744D01*
X149354476Y-99124743D01*
X149340110Y-98979053D01*
X149327998Y-98840831D01*
X149319631Y-98725231D01*
X149316504Y-98647410D01*
X149316714Y-98590865D01*
X149318780Y-98444746D01*
X149322719Y-98286417D01*
X149328116Y-98125244D01*
X149334558Y-97970592D01*
X149341633Y-97831829D01*
X149348927Y-97718319D01*
X149356026Y-97639428D01*
X149362518Y-97604523D01*
X149367403Y-97592100D01*
X149379982Y-97532112D01*
X149392986Y-97439396D01*
X149404266Y-97328165D01*
X149426661Y-97096430D01*
X149456511Y-96875162D01*
X149492122Y-96696615D01*
X149534913Y-96555150D01*
X149586304Y-96445125D01*
X149647715Y-96360900D01*
X149667529Y-96336995D01*
X149686546Y-96292384D01*
X149685498Y-96289287D01*
X149830611Y-96289287D01*
X150077681Y-96493032D01*
X150126664Y-96533925D01*
X150347000Y-96728305D01*
X150580971Y-96949476D01*
X150819197Y-97187628D01*
X151052300Y-97432947D01*
X151270900Y-97675623D01*
X151465616Y-97905844D01*
X151627070Y-98113797D01*
X151694913Y-98205829D01*
X151742517Y-98267557D01*
X151761808Y-98286125D01*
X151753453Y-98260623D01*
X151718119Y-98190143D01*
X151656476Y-98073776D01*
X151628788Y-98022654D01*
X151519699Y-97830317D01*
X151382750Y-97599967D01*
X151220453Y-97335658D01*
X151035324Y-97041449D01*
X150829876Y-96721395D01*
X150606623Y-96379553D01*
X150587722Y-96350843D01*
X150470950Y-96173733D01*
X150379592Y-96036383D01*
X150310225Y-95934571D01*
X150259432Y-95864076D01*
X150223790Y-95820675D01*
X150199880Y-95800145D01*
X150184282Y-95798266D01*
X150173575Y-95810814D01*
X150164339Y-95833567D01*
X150129301Y-95910100D01*
X150081450Y-95989968D01*
X150057385Y-96022318D01*
X149996453Y-96098465D01*
X149929350Y-96177323D01*
X149830611Y-96289287D01*
X149685498Y-96289287D01*
X149671581Y-96248155D01*
X149618157Y-96196018D01*
X149521799Y-96127682D01*
X149471133Y-96093050D01*
X149406449Y-96043358D01*
X149385897Y-96018931D01*
X149406999Y-96020890D01*
X149467273Y-96050359D01*
X149564242Y-96108461D01*
X149732037Y-96215145D01*
X149813361Y-96146855D01*
X149842976Y-96119034D01*
X149908955Y-96040532D01*
X149974680Y-95944579D01*
X150033578Y-95843034D01*
X150079075Y-95747753D01*
X150104596Y-95670594D01*
X150103684Y-95628741D01*
X150283253Y-95628741D01*
X150291549Y-95651196D01*
X150325641Y-95713905D01*
X150381425Y-95806123D01*
X150453859Y-95919590D01*
X150537902Y-96046045D01*
X150668535Y-96240995D01*
X150863632Y-96539552D01*
X151053471Y-96838539D01*
X151234339Y-97131715D01*
X151402524Y-97412839D01*
X151554311Y-97675671D01*
X151685989Y-97913970D01*
X151793844Y-98121496D01*
X151874164Y-98292008D01*
X151875830Y-98295825D01*
X151914094Y-98378900D01*
X151944896Y-98437778D01*
X151961704Y-98459928D01*
X151970175Y-98453413D01*
X152000968Y-98413348D01*
X152042479Y-98349016D01*
X152085810Y-98286207D01*
X152159652Y-98194501D01*
X152239085Y-98107707D01*
X152368990Y-97976592D01*
X152355615Y-97304806D01*
X152352457Y-97173107D01*
X152346091Y-96983962D01*
X152338165Y-96810065D01*
X152329929Y-96673041D01*
X152449921Y-96673041D01*
X152450637Y-96683326D01*
X152453026Y-96741483D01*
X152456261Y-96841102D01*
X152460097Y-96973914D01*
X152464291Y-97131647D01*
X152468598Y-97306031D01*
X152482710Y-97899001D01*
X152656121Y-97778281D01*
X152666228Y-97771227D01*
X152750682Y-97709301D01*
X152798868Y-97664444D01*
X152819231Y-97626785D01*
X152820214Y-97586453D01*
X152807740Y-97522986D01*
X152774273Y-97403838D01*
X152726762Y-97261645D01*
X152670451Y-97110970D01*
X152610579Y-96966375D01*
X152552390Y-96842422D01*
X152527623Y-96794822D01*
X152486341Y-96720107D01*
X152458782Y-96676772D01*
X152449921Y-96673041D01*
X152329929Y-96673041D01*
X152329202Y-96660945D01*
X152319721Y-96546128D01*
X152310245Y-96475143D01*
X152287530Y-96393065D01*
X152220641Y-96233567D01*
X152116867Y-96040612D01*
X152084806Y-95985028D01*
X152023366Y-95873467D01*
X151985609Y-95796928D01*
X151972053Y-95757694D01*
X151983219Y-95758050D01*
X152019627Y-95800278D01*
X152081798Y-95886663D01*
X152082646Y-95887894D01*
X152134898Y-95960114D01*
X152174885Y-96008799D01*
X152194010Y-96023471D01*
X152194679Y-96022502D01*
X152190325Y-95987922D01*
X152167605Y-95916559D01*
X152130659Y-95818870D01*
X152083626Y-95705312D01*
X152030645Y-95586339D01*
X151975857Y-95472410D01*
X151846732Y-95239445D01*
X151706549Y-95034035D01*
X151565760Y-94874263D01*
X151557277Y-94866083D01*
X151497291Y-94811077D01*
X151454383Y-94786375D01*
X151409364Y-94785878D01*
X151343045Y-94803491D01*
X151323562Y-94809411D01*
X151143554Y-94880689D01*
X150963582Y-94983886D01*
X150775620Y-95124242D01*
X150571640Y-95306995D01*
X150522167Y-95355069D01*
X150427324Y-95451363D01*
X150351379Y-95534107D01*
X150301099Y-95595750D01*
X150283253Y-95628741D01*
X150103684Y-95628741D01*
X150103568Y-95623414D01*
X150070438Y-95571850D01*
X150000584Y-95473966D01*
X149909234Y-95352964D01*
X149804222Y-95218676D01*
X149693381Y-95080937D01*
X149584544Y-94949583D01*
X149485543Y-94834446D01*
X149404212Y-94745362D01*
X149398295Y-94739193D01*
X149314971Y-94650701D01*
X149249744Y-94578457D01*
X149209021Y-94529760D01*
X149199210Y-94511906D01*
X149200537Y-94512094D01*
X149233381Y-94530323D01*
X149294656Y-94572489D01*
X149372248Y-94630304D01*
X149440145Y-94685653D01*
X149589946Y-94824359D01*
X149748253Y-94989513D01*
X149902827Y-95168011D01*
X150041429Y-95346749D01*
X150077735Y-95396275D01*
X150137320Y-95474954D01*
X150181099Y-95529314D01*
X150201513Y-95549769D01*
X150216200Y-95538381D01*
X150255622Y-95494646D01*
X150308235Y-95429234D01*
X150321423Y-95412716D01*
X150408430Y-95318436D01*
X150523524Y-95209478D01*
X150653852Y-95096623D01*
X150786563Y-94990651D01*
X150908802Y-94902344D01*
X151007719Y-94842482D01*
X151036191Y-94828540D01*
X151138385Y-94782293D01*
X151262225Y-94729950D01*
X151386982Y-94680371D01*
X151415299Y-94669529D01*
X151562847Y-94612761D01*
X151719479Y-94552147D01*
X151855714Y-94499090D01*
X151864839Y-94495529D01*
X151971008Y-94456082D01*
X152071000Y-94424036D01*
X152174708Y-94397418D01*
X152292023Y-94374253D01*
X152432838Y-94352567D01*
X152607045Y-94330384D01*
X152824535Y-94305733D01*
X152834930Y-94304607D01*
X153008723Y-94288893D01*
X153198853Y-94276645D01*
X153396627Y-94267933D01*
X153593352Y-94262829D01*
X153780334Y-94261404D01*
X153948880Y-94263731D01*
X154090298Y-94269881D01*
X154195894Y-94279926D01*
X154256975Y-94293936D01*
X154272353Y-94304076D01*
X154258611Y-94311697D01*
X154205667Y-94314712D01*
X154108849Y-94313344D01*
X153963487Y-94307813D01*
X153878461Y-94304748D01*
X153567158Y-94307321D01*
X153256450Y-94333944D01*
X153113293Y-94350786D01*
X152960591Y-94367835D01*
X152824360Y-94382171D01*
X152722836Y-94391815D01*
X152690355Y-94394696D01*
X152373470Y-94437721D01*
X152087041Y-94506990D01*
X151814475Y-94606423D01*
X151713903Y-94648735D01*
X151616041Y-94688458D01*
X151545500Y-94715418D01*
X151513084Y-94725352D01*
X151517789Y-94738301D01*
X151552810Y-94782025D01*
X151613391Y-94849326D01*
X151692934Y-94932602D01*
X151763627Y-95009017D01*
X151951045Y-95256323D01*
X152116129Y-95542615D01*
X152254232Y-95859093D01*
X152360708Y-96196959D01*
X152366132Y-96216851D01*
X152408837Y-96341919D01*
X152467018Y-96480588D01*
X152529724Y-96606339D01*
X152593876Y-96728879D01*
X152681066Y-96915828D01*
X152761166Y-97109314D01*
X152827139Y-97292058D01*
X152871949Y-97446780D01*
X152886938Y-97508884D01*
X152903452Y-97573494D01*
X152912035Y-97601896D01*
X152919575Y-97600046D01*
X152961708Y-97576694D01*
X153031613Y-97533185D01*
X153118913Y-97476329D01*
X153213234Y-97412936D01*
X153304201Y-97349817D01*
X153381440Y-97293781D01*
X153409269Y-97271633D01*
X153462971Y-97220118D01*
X153488163Y-97182174D01*
X153502319Y-97159496D01*
X153549937Y-97136952D01*
X153569476Y-97133665D01*
X153641072Y-97118480D01*
X153726943Y-97097612D01*
X153752745Y-97090700D01*
X153819401Y-97065380D01*
X153856251Y-97028084D01*
X153881317Y-96963112D01*
X153884050Y-96954497D01*
X153925652Y-96864244D01*
X153979917Y-96786806D01*
X154047789Y-96713062D01*
X154031848Y-96779763D01*
X154008076Y-96907154D01*
X153996674Y-97047160D01*
X154002354Y-97166622D01*
X154025323Y-97250606D01*
X154032508Y-97265601D01*
X154055056Y-97355756D01*
X154052439Y-97475919D01*
X154050110Y-97507225D01*
X154051273Y-97601648D01*
X154061880Y-97694366D01*
X154079329Y-97772465D01*
X154101022Y-97823034D01*
X154124360Y-97833163D01*
X154130006Y-97828696D01*
X154166542Y-97784610D01*
X154221458Y-97705236D01*
X154288987Y-97599774D01*
X154363360Y-97477421D01*
X154438809Y-97347376D01*
X154509568Y-97218839D01*
X154545883Y-97151435D01*
X154599248Y-97055030D01*
X154641570Y-96981778D01*
X154665990Y-96943738D01*
X154719657Y-96901649D01*
X154800489Y-96873148D01*
X154874542Y-96874387D01*
X154880586Y-96876496D01*
X154909683Y-96901932D01*
X154895515Y-96927929D01*
X154844747Y-96939847D01*
X154791229Y-96961186D01*
X154721836Y-97030286D01*
X154643497Y-97143612D01*
X154559160Y-97297472D01*
X154554123Y-97307503D01*
X154499631Y-97410499D01*
X154446175Y-97503281D01*
X154404658Y-97566843D01*
X154389855Y-97587529D01*
X154336287Y-97671804D01*
X154286418Y-97761345D01*
X154248271Y-97824284D01*
X154182798Y-97892305D01*
X154116937Y-97920026D01*
X154059122Y-97902221D01*
X154037633Y-97877610D01*
X153998156Y-97799039D01*
X153965362Y-97694477D01*
X153944318Y-97581921D01*
X153940090Y-97479372D01*
X153932281Y-97370018D01*
X153897363Y-97251690D01*
X153842988Y-97158473D01*
X153820363Y-97160038D01*
X153763266Y-97183838D01*
X153684732Y-97224738D01*
X153597012Y-97275899D01*
X153512361Y-97330484D01*
X153443033Y-97381655D01*
X153436136Y-97387266D01*
X153348061Y-97455060D01*
X153239211Y-97534069D01*
X153131520Y-97608332D01*
X152943946Y-97733449D01*
X152948040Y-98094696D01*
X152948324Y-98130231D01*
X152947240Y-98259569D01*
X152943080Y-98366312D01*
X152936395Y-98440213D01*
X152927739Y-98471021D01*
X152909507Y-98458482D01*
X152893404Y-98399841D01*
X152880775Y-98301923D01*
X152872530Y-98171837D01*
X152869580Y-98016691D01*
X152869276Y-97977965D01*
X152865612Y-97884002D01*
X152858675Y-97818864D01*
X152849569Y-97794814D01*
X152843387Y-97796905D01*
X152800826Y-97820756D01*
X152730131Y-97865486D01*
X152642794Y-97923922D01*
X152482710Y-98033571D01*
X152456029Y-98051846D01*
X152460606Y-98417855D01*
X152461304Y-98494373D01*
X152460393Y-98627952D01*
X152455780Y-98715614D01*
X152447084Y-98762430D01*
X152433925Y-98773468D01*
X152405801Y-98743998D01*
X152385001Y-98672057D01*
X152371881Y-98554351D01*
X152365804Y-98387274D01*
X152364967Y-98351314D01*
X152359294Y-98257296D01*
X152350038Y-98191765D01*
X152338730Y-98167158D01*
X152315999Y-98177962D01*
X152266298Y-98224127D01*
X152204264Y-98296422D01*
X152139247Y-98383704D01*
X152080594Y-98474832D01*
X152050901Y-98527296D01*
X152026227Y-98586833D01*
X152024435Y-98639787D01*
X152041676Y-98709348D01*
X152045975Y-98723352D01*
X152082483Y-98825873D01*
X152122920Y-98920827D01*
X152134057Y-98945834D01*
X152152202Y-99004540D01*
X152148888Y-99034474D01*
X152119285Y-99026298D01*
X152075880Y-98981939D01*
X152028973Y-98913115D01*
X151988209Y-98831981D01*
X151961704Y-98767994D01*
X151953240Y-98747560D01*
X151904185Y-98902453D01*
X151896655Y-98926738D01*
X151873039Y-99024085D01*
X151869391Y-99109934D01*
X151883702Y-99214913D01*
X151910205Y-99322236D01*
X151971322Y-99495946D01*
X152060800Y-99703952D01*
X152176691Y-99941423D01*
X152203895Y-99992931D01*
X152253933Y-100072971D01*
X152303102Y-100120923D01*
X152357688Y-100135702D01*
X152423974Y-100116222D01*
X152508247Y-100061397D01*
X152616792Y-99970142D01*
X152755893Y-99841371D01*
X152844581Y-99758296D01*
X152978215Y-99637737D01*
X153083801Y-99550719D01*
X153166737Y-99493755D01*
X153232419Y-99463361D01*
X153286245Y-99456053D01*
X153333613Y-99468345D01*
X153355157Y-99481145D01*
X153415484Y-99535506D01*
X153472645Y-99607285D01*
X153493277Y-99643315D01*
X153538967Y-99770075D01*
X153568814Y-99927817D01*
X153581430Y-100101559D01*
X153575429Y-100276316D01*
X153549425Y-100437106D01*
X153541775Y-100467476D01*
X153512617Y-100563944D01*
X153488609Y-100608248D01*
X153469630Y-100600186D01*
X153455557Y-100539558D01*
X153446268Y-100426164D01*
X153441641Y-100259802D01*
X153434863Y-100055992D01*
X153418804Y-99893150D01*
X153392615Y-99774784D01*
X153355356Y-99696705D01*
X153306090Y-99654726D01*
X153295754Y-99650416D01*
X153251669Y-99644403D01*
X153197588Y-99662668D01*
X153117744Y-99709822D01*
X153063505Y-99747920D01*
X152967127Y-99827134D01*
X152868764Y-99919266D01*
X152777115Y-100015029D01*
X152700881Y-100105132D01*
X152648761Y-100180287D01*
X152629454Y-100231204D01*
X152636790Y-100286554D01*
X152676150Y-100396164D01*
X152741711Y-100518002D01*
X152824563Y-100638196D01*
X152915796Y-100742875D01*
X153006498Y-100818166D01*
X153051963Y-100840225D01*
X153164484Y-100854093D01*
X153292551Y-100825006D01*
X153427219Y-100754319D01*
X153474263Y-100723446D01*
X153542598Y-100685138D01*
X153579133Y-100678115D01*
X153589958Y-100700356D01*
X153588074Y-100706830D01*
X153556988Y-100744766D01*
X153496716Y-100800307D01*
X153418964Y-100864139D01*
X153335440Y-100926947D01*
X153257853Y-100979419D01*
X153197909Y-101012241D01*
X153135265Y-101032091D01*
X153073385Y-101029436D01*
X153004343Y-100996972D01*
X152913194Y-100930403D01*
X152893073Y-100912628D01*
X152830406Y-100842591D01*
X152760734Y-100749476D01*
X152692261Y-100646120D01*
X152633193Y-100545361D01*
X152591735Y-100460037D01*
X152576092Y-100402985D01*
X152574120Y-100388196D01*
X152539654Y-100347981D01*
X152473385Y-100328157D01*
X152389837Y-100331066D01*
X152303539Y-100359050D01*
X152290435Y-100365854D01*
X152248225Y-100394059D01*
X152209715Y-100434645D01*
X152168619Y-100496734D01*
X152118654Y-100589447D01*
X152053535Y-100721904D01*
X152050343Y-100728549D01*
X151991077Y-100856970D01*
X151939549Y-100977536D01*
X151901192Y-101076985D01*
X151881438Y-101142053D01*
X151873613Y-101212683D01*
X151882871Y-101359952D01*
X151918553Y-101517442D01*
X151976890Y-101664522D01*
X152006883Y-101711782D01*
X152065928Y-101786179D01*
X152141647Y-101871062D01*
X152225478Y-101957926D01*
X152308861Y-102038266D01*
X152383234Y-102103578D01*
X152440035Y-102145355D01*
X152470705Y-102155094D01*
X152480076Y-102141614D01*
X152500857Y-102087603D01*
X152522711Y-102009257D01*
X152536311Y-101959748D01*
X152559507Y-101899350D01*
X152578754Y-101875772D01*
X152582463Y-101876499D01*
X152597802Y-101907228D01*
X152601803Y-101971984D01*
X152594606Y-102055292D01*
X152576351Y-102141679D01*
X152575641Y-102144183D01*
X152563943Y-102215748D01*
X152573867Y-102257748D01*
X152584050Y-102259581D01*
X152600177Y-102232185D01*
X152619308Y-102165441D01*
X152642662Y-102054817D01*
X152671462Y-101895782D01*
X152675102Y-101877426D01*
X152694564Y-101819200D01*
X152716293Y-101795730D01*
X152716655Y-101795756D01*
X152725378Y-101821446D01*
X152729095Y-101886057D01*
X152728406Y-101975876D01*
X152723914Y-102077192D01*
X152716218Y-102176291D01*
X152705920Y-102259460D01*
X152693620Y-102312989D01*
X152699022Y-102337434D01*
X152742107Y-102388121D01*
X152820410Y-102452483D01*
X152836263Y-102464222D01*
X152903406Y-102518592D01*
X152928360Y-102550766D01*
X152914471Y-102564737D01*
X152902976Y-102565379D01*
X152843412Y-102550971D01*
X152771967Y-102517147D01*
X152747833Y-102503257D01*
X152694492Y-102475647D01*
X152670640Y-102468333D01*
X152664439Y-102489873D01*
X152650380Y-102550883D01*
X152632252Y-102636171D01*
X152600349Y-102775501D01*
X152553991Y-102954134D01*
X152499555Y-103147976D01*
X152441934Y-103340198D01*
X152386021Y-103513970D01*
X152336712Y-103652463D01*
X152323542Y-103687661D01*
X152292957Y-103779935D01*
X152276024Y-103848466D01*
X152276137Y-103880480D01*
X152303961Y-103896720D01*
X152384979Y-103920389D01*
X152504196Y-103941958D01*
X152652432Y-103960856D01*
X152820505Y-103976516D01*
X152999233Y-103988368D01*
X153179433Y-103995844D01*
X153351925Y-103998376D01*
X153507527Y-103995394D01*
X153637057Y-103986329D01*
X153731333Y-103970614D01*
X153821077Y-103949426D01*
X153919311Y-103934109D01*
X153977459Y-103935868D01*
X153992558Y-103953503D01*
X153961649Y-103985814D01*
X153881769Y-104031600D01*
X153773371Y-104085231D01*
X153893789Y-104110914D01*
X153947852Y-104118199D01*
X154066082Y-104122427D01*
X154218468Y-104119328D01*
X154393901Y-104109835D01*
X154581276Y-104094878D01*
X154769482Y-104075389D01*
X154947413Y-104052299D01*
X155103961Y-104026540D01*
X155228018Y-103999042D01*
X155264635Y-103989334D01*
X155400077Y-103955547D01*
X155532451Y-103925250D01*
X155637639Y-103904036D01*
X155652569Y-103901256D01*
X155815144Y-103858218D01*
X155993439Y-103792676D01*
X156164524Y-103713985D01*
X156305469Y-103631504D01*
X156343497Y-103607597D01*
X156434811Y-103562544D01*
X156513962Y-103537745D01*
X156540797Y-103532003D01*
X156647748Y-103476510D01*
X156735146Y-103373967D01*
X156800092Y-103227516D01*
X156848945Y-103111953D01*
X156909192Y-103044557D01*
X156983320Y-103023449D01*
X157004029Y-103027158D01*
X156985092Y-103045023D01*
X156959762Y-103077968D01*
X156923726Y-103146623D01*
X156885406Y-103235503D01*
X156849307Y-103322726D01*
X156809538Y-103409381D01*
X156779069Y-103465840D01*
X156739086Y-103526862D01*
X156878755Y-103522441D01*
X156970641Y-103527070D01*
X157095177Y-103559304D01*
X157230818Y-103625317D01*
X157388197Y-103729429D01*
X157437336Y-103762954D01*
X157531591Y-103809523D01*
X157619668Y-103823461D01*
X157684179Y-103832117D01*
X157800255Y-103868478D01*
X157942182Y-103930184D01*
X157980942Y-103948512D01*
X158129278Y-104007815D01*
X158246768Y-104032863D01*
X158340900Y-104024494D01*
X158419160Y-103983545D01*
X158425937Y-103978343D01*
X158489532Y-103942520D01*
X158556260Y-103935728D01*
X158639154Y-103959165D01*
X158751245Y-104014025D01*
X158824135Y-104050210D01*
X158947750Y-104091559D01*
X159090815Y-104111087D01*
X159275587Y-104124308D01*
X159228309Y-104020575D01*
X159199612Y-103962040D01*
X159128111Y-103839124D01*
X159050497Y-103728924D01*
X158979267Y-103650037D01*
X158975360Y-103646432D01*
X158926658Y-103592969D01*
X158856847Y-103507071D01*
X158773786Y-103399297D01*
X158685332Y-103280206D01*
X158599344Y-103160359D01*
X158523682Y-103050315D01*
X158466203Y-102960633D01*
X158437010Y-102913229D01*
X158391781Y-102844288D01*
X158337474Y-102767367D01*
X158267955Y-102674100D01*
X158177088Y-102556123D01*
X158058739Y-102405071D01*
X157939815Y-102254014D01*
X157966965Y-101967469D01*
X157976522Y-101872992D01*
X157988714Y-101768647D01*
X157999451Y-101693605D01*
X158007172Y-101659798D01*
X158008779Y-101655162D01*
X158015984Y-101608458D01*
X158025098Y-101521857D01*
X158035115Y-101405693D01*
X158045031Y-101270299D01*
X158051946Y-101175515D01*
X158067209Y-101021082D01*
X158087320Y-100893476D01*
X158115373Y-100775125D01*
X158154458Y-100648461D01*
X158159396Y-100633551D01*
X158225119Y-100395880D01*
X158254262Y-100192098D01*
X158247106Y-100017780D01*
X158203931Y-99868503D01*
X158187670Y-99829688D01*
X158160133Y-99740599D01*
X158147440Y-99642918D01*
X158145968Y-99514532D01*
X158146539Y-99484913D01*
X158150358Y-99269611D01*
X158152414Y-99099727D01*
X158152443Y-98968199D01*
X158150174Y-98867961D01*
X158145342Y-98791950D01*
X158137678Y-98733104D01*
X158126915Y-98684356D01*
X158112785Y-98638645D01*
X158095027Y-98577103D01*
X158083699Y-98507459D01*
X158078937Y-98420115D01*
X158080114Y-98303252D01*
X158086602Y-98145053D01*
X158091590Y-98036471D01*
X158095181Y-97916219D01*
X158093687Y-97829582D01*
X158086238Y-97764945D01*
X158071968Y-97710694D01*
X158050009Y-97655213D01*
X158030597Y-97605714D01*
X157994158Y-97490286D01*
X157967312Y-97377188D01*
X157967075Y-97375915D01*
X157939785Y-97272834D01*
X157895907Y-97149942D01*
X157844824Y-97033565D01*
X157810014Y-96962092D01*
X157778190Y-96887425D01*
X157765043Y-96830445D01*
X157767238Y-96773552D01*
X157781439Y-96699149D01*
X157790699Y-96643578D01*
X157800047Y-96502129D01*
X157795015Y-96348549D01*
X157793323Y-96326547D01*
X157790232Y-96185177D01*
X157802102Y-96034385D01*
X157830394Y-95853743D01*
X157843820Y-95783784D01*
X157863273Y-95695532D01*
X157886840Y-95605561D01*
X157916666Y-95507969D01*
X157954898Y-95396855D01*
X158003680Y-95266316D01*
X158065157Y-95110449D01*
X158141475Y-94923353D01*
X158234780Y-94699126D01*
X158347216Y-94431864D01*
X158387741Y-94334898D01*
X158443629Y-94197861D01*
X158490378Y-94079290D01*
X158524002Y-93989366D01*
X158540513Y-93938272D01*
X158540964Y-93936379D01*
X158560920Y-93869988D01*
X158594100Y-93775053D01*
X158633566Y-93671465D01*
X158665344Y-93591594D01*
X158716632Y-93462697D01*
X158774119Y-93318224D01*
X158830322Y-93176987D01*
X158832063Y-93172605D01*
X158879002Y-93050859D01*
X158917376Y-92944553D01*
X158943271Y-92864988D01*
X158952773Y-92823468D01*
X158940448Y-92788113D01*
X158897774Y-92782375D01*
X158821495Y-92810656D01*
X158708418Y-92873614D01*
X158690584Y-92884737D01*
X158621612Y-92934245D01*
X158549957Y-92997946D01*
X158468523Y-93083141D01*
X158370213Y-93197124D01*
X158247932Y-93347196D01*
X158188928Y-93421805D01*
X158066817Y-93581086D01*
X157944423Y-93746233D01*
X157833231Y-93901629D01*
X157744721Y-94031654D01*
X157738246Y-94041524D01*
X157531812Y-94323774D01*
X157307461Y-94568198D01*
X157216311Y-94660397D01*
X157127596Y-94757617D01*
X157058147Y-94841741D01*
X157017970Y-94901256D01*
X156975907Y-94980391D01*
X156899439Y-95114270D01*
X156818497Y-95246593D01*
X156742590Y-95362002D01*
X156681229Y-95445139D01*
X156660631Y-95471377D01*
X156620725Y-95531383D01*
X156604874Y-95570387D01*
X156599228Y-95587754D01*
X156566214Y-95639058D01*
X156513499Y-95702586D01*
X156422124Y-95802327D01*
X156480148Y-95878483D01*
X156495322Y-95897814D01*
X156550609Y-95965039D01*
X156624517Y-96052326D01*
X156705344Y-96145784D01*
X156805574Y-96270744D01*
X156879840Y-96395316D01*
X156916491Y-96511203D01*
X156919919Y-96628275D01*
X156919170Y-96635377D01*
X156904424Y-96693646D01*
X156882920Y-96703165D01*
X156860121Y-96666784D01*
X156841486Y-96587351D01*
X156837806Y-96564099D01*
X156798829Y-96417550D01*
X156729995Y-96285284D01*
X156622069Y-96148847D01*
X156620471Y-96147074D01*
X156558791Y-96075027D01*
X156514880Y-96016971D01*
X156498151Y-95985330D01*
X156497579Y-95982090D01*
X156469263Y-95954162D01*
X156411439Y-95924046D01*
X156359379Y-95899693D01*
X156346417Y-95892689D01*
X156270623Y-95851736D01*
X156177983Y-95796409D01*
X156108166Y-95752095D01*
X155904007Y-95617578D01*
X155741861Y-95500185D01*
X155617377Y-95394624D01*
X155526208Y-95295605D01*
X155464005Y-95197834D01*
X155426418Y-95096020D01*
X155409099Y-94984871D01*
X155407699Y-94859096D01*
X155409442Y-94813103D01*
X155460945Y-94813103D01*
X155469237Y-94912787D01*
X155500701Y-95071266D01*
X155549766Y-95200087D01*
X155582228Y-95246489D01*
X155658603Y-95327097D01*
X155761170Y-95418783D01*
X155878368Y-95512441D01*
X155998640Y-95598962D01*
X156110426Y-95669238D01*
X156202169Y-95714161D01*
X156346417Y-95768273D01*
X156435427Y-95682001D01*
X156459119Y-95657728D01*
X156512421Y-95592597D01*
X156541839Y-95540740D01*
X156552611Y-95516653D01*
X156589827Y-95450383D01*
X156645261Y-95360374D01*
X156711484Y-95258965D01*
X156751438Y-95198780D01*
X156818954Y-95094143D01*
X156874607Y-95004307D01*
X156909234Y-94943873D01*
X156928485Y-94910634D01*
X156985671Y-94828684D01*
X157051668Y-94748282D01*
X157148594Y-94640996D01*
X157051697Y-94659174D01*
X156973431Y-94668939D01*
X156844105Y-94676303D01*
X156689647Y-94679225D01*
X156525262Y-94677863D01*
X156366159Y-94672372D01*
X156227543Y-94662910D01*
X156124622Y-94649633D01*
X156039556Y-94633474D01*
X155929541Y-94612408D01*
X155844475Y-94595936D01*
X155755328Y-94586769D01*
X155623611Y-94608075D01*
X155516802Y-94672280D01*
X155480706Y-94718807D01*
X155460945Y-94813103D01*
X155409442Y-94813103D01*
X155415515Y-94652823D01*
X155269806Y-94509531D01*
X155152595Y-94404304D01*
X155014825Y-94302808D01*
X154849104Y-94201463D01*
X154643845Y-94092549D01*
X154530678Y-94027655D01*
X154402924Y-93941434D01*
X154293091Y-93855162D01*
X154134712Y-93737081D01*
X153906221Y-93616785D01*
X153857902Y-93595290D01*
X153690326Y-93504244D01*
X153563277Y-93406624D01*
X153555640Y-93399350D01*
X153506883Y-93355785D01*
X153453464Y-93314567D01*
X153389094Y-93272243D01*
X153307481Y-93225357D01*
X153202337Y-93170457D01*
X153067371Y-93104087D01*
X152896294Y-93022795D01*
X152682815Y-92923126D01*
X152678192Y-92920978D01*
X152360836Y-92774679D01*
X152084379Y-92649765D01*
X151842278Y-92543413D01*
X151627989Y-92452796D01*
X151434967Y-92375089D01*
X151256668Y-92307468D01*
X151179278Y-92278641D01*
X151029034Y-92218090D01*
X150909940Y-92160241D01*
X150807869Y-92096775D01*
X150708694Y-92019372D01*
X150598287Y-91919710D01*
X150518498Y-91848634D01*
X150408149Y-91758375D01*
X150308235Y-91684215D01*
X150204086Y-91608007D01*
X150123557Y-91538273D01*
X150079155Y-91485126D01*
X150075938Y-91453587D01*
X150100683Y-91456433D01*
X150158657Y-91487865D01*
X150240327Y-91543173D01*
X150337273Y-91616001D01*
X150441074Y-91699992D01*
X150543310Y-91788791D01*
X150635560Y-91876040D01*
X150646679Y-91887144D01*
X150714087Y-91953540D01*
X150772203Y-92006471D01*
X150829422Y-92050716D01*
X150894139Y-92091056D01*
X150974749Y-92132270D01*
X151079647Y-92179138D01*
X151217228Y-92236442D01*
X151395888Y-92308960D01*
X151428151Y-92322015D01*
X151745626Y-92450878D01*
X152015837Y-92561364D01*
X152241020Y-92654410D01*
X152423410Y-92730953D01*
X152565242Y-92791932D01*
X152668752Y-92838283D01*
X152736177Y-92870944D01*
X152789821Y-92898183D01*
X152890426Y-92947809D01*
X153011530Y-93006490D01*
X153137417Y-93066563D01*
X153163365Y-93079022D01*
X153318753Y-93161201D01*
X153454586Y-93245544D01*
X153555329Y-93322537D01*
X153629311Y-93383944D01*
X153715842Y-93445609D01*
X153784683Y-93484172D01*
X153877302Y-93522871D01*
X153855891Y-93423743D01*
X153842568Y-93357078D01*
X153823385Y-93252443D01*
X153804464Y-93141941D01*
X153803325Y-93135189D01*
X153753229Y-92948872D01*
X153668432Y-92748502D01*
X153557093Y-92550732D01*
X153427371Y-92372215D01*
X153409400Y-92349900D01*
X153324553Y-92228758D01*
X153237001Y-92082327D01*
X153159072Y-91930886D01*
X153118151Y-91846287D01*
X153052380Y-91718770D01*
X152989439Y-91605418D01*
X152938701Y-91523552D01*
X152904327Y-91469324D01*
X152840389Y-91350258D01*
X152790965Y-91236400D01*
X152765202Y-91168799D01*
X152725908Y-91075439D01*
X152693236Y-91008221D01*
X152676385Y-90975488D01*
X152662527Y-90930103D01*
X152676512Y-90921979D01*
X152715954Y-90956543D01*
G37*
%TO.C,J1*%
X155670000Y-75405000D02*
X158330000Y-75405000D01*
X155670000Y-78005000D02*
X155670000Y-75405000D01*
X155670000Y-78005000D02*
X158330000Y-78005000D01*
X155670000Y-79275000D02*
X155670000Y-80605000D01*
X155670000Y-80605000D02*
X157000000Y-80605000D01*
X158330000Y-78005000D02*
X158330000Y-75405000D01*
%TO.C,J10*%
X124290000Y-75100000D02*
X124790000Y-75100000D01*
X124290000Y-75840000D02*
X124290000Y-75100000D01*
X124530000Y-75340000D02*
X145431000Y-75340000D01*
X124530000Y-75900000D02*
X145431000Y-75900000D01*
X124530000Y-81200000D02*
X145431000Y-81200000D01*
X124530000Y-81660000D02*
X124530000Y-75340000D01*
X124530000Y-81660000D02*
X145431000Y-81660000D01*
X145431000Y-81660000D02*
X145431000Y-75340000D01*
%TO.C,J7*%
X134090000Y-122400000D02*
X133590000Y-122400000D01*
X134090000Y-121660000D02*
X134090000Y-122400000D01*
X133850000Y-122160000D02*
X123110000Y-122160000D01*
X133850000Y-121600000D02*
X123110000Y-121600000D01*
X133850000Y-116300000D02*
X123110000Y-116300000D01*
X133850000Y-115840000D02*
X133850000Y-122160000D01*
X133850000Y-115840000D02*
X123110000Y-115840000D01*
X123110000Y-115840000D02*
X123110000Y-122160000D01*
%TO.C,J11*%
X140351200Y-85251600D02*
X140351200Y-82591600D01*
X145491200Y-85251600D02*
X140351200Y-85251600D01*
X145491200Y-85251600D02*
X145491200Y-82591600D01*
X146761200Y-85251600D02*
X148091200Y-85251600D01*
X148091200Y-85251600D02*
X148091200Y-83921600D01*
X145491200Y-82591600D02*
X140351200Y-82591600D01*
%TO.C,SW2*%
X112628000Y-76270000D02*
X112628000Y-75480000D01*
X113228000Y-74470000D02*
X118928000Y-74470000D01*
X114478000Y-77320000D02*
X116178000Y-77320000D01*
X117478000Y-77320000D02*
X117678000Y-77320000D01*
X119528000Y-75480000D02*
X119528000Y-76270000D01*
%TD*%
M02*
