%TF.GenerationSoftware,KiCad,Pcbnew,7.0.7*%
%TF.CreationDate,2024-03-10T16:18:29-05:00*%
%TF.ProjectId,rev2,72657632-2e6b-4696-9361-645f70636258,rev?*%
%TF.SameCoordinates,Original*%
%TF.FileFunction,Paste,Top*%
%TF.FilePolarity,Positive*%
%FSLAX46Y46*%
G04 Gerber Fmt 4.6, Leading zero omitted, Abs format (unit mm)*
G04 Created by KiCad (PCBNEW 7.0.7) date 2024-03-10 16:18:29*
%MOMM*%
%LPD*%
G01*
G04 APERTURE LIST*
G04 Aperture macros list*
%AMRoundRect*
0 Rectangle with rounded corners*
0 $1 Rounding radius*
0 $2 $3 $4 $5 $6 $7 $8 $9 X,Y pos of 4 corners*
0 Add a 4 corners polygon primitive as box body*
4,1,4,$2,$3,$4,$5,$6,$7,$8,$9,$2,$3,0*
0 Add four circle primitives for the rounded corners*
1,1,$1+$1,$2,$3*
1,1,$1+$1,$4,$5*
1,1,$1+$1,$6,$7*
1,1,$1+$1,$8,$9*
0 Add four rect primitives between the rounded corners*
20,1,$1+$1,$2,$3,$4,$5,0*
20,1,$1+$1,$4,$5,$6,$7,0*
20,1,$1+$1,$6,$7,$8,$9,0*
20,1,$1+$1,$8,$9,$2,$3,0*%
G04 Aperture macros list end*
%ADD10RoundRect,0.075000X-0.662500X-0.075000X0.662500X-0.075000X0.662500X0.075000X-0.662500X0.075000X0*%
%ADD11RoundRect,0.075000X-0.075000X-0.662500X0.075000X-0.662500X0.075000X0.662500X-0.075000X0.662500X0*%
%ADD12RoundRect,0.237500X-0.237500X0.300000X-0.237500X-0.300000X0.237500X-0.300000X0.237500X0.300000X0*%
%ADD13RoundRect,0.237500X0.237500X-0.300000X0.237500X0.300000X-0.237500X0.300000X-0.237500X-0.300000X0*%
%ADD14RoundRect,0.237500X-0.250000X-0.237500X0.250000X-0.237500X0.250000X0.237500X-0.250000X0.237500X0*%
%ADD15R,2.500000X0.500000*%
%ADD16R,2.500000X2.000000*%
%ADD17RoundRect,0.237500X0.237500X-0.250000X0.237500X0.250000X-0.237500X0.250000X-0.237500X-0.250000X0*%
%ADD18RoundRect,0.150000X0.150000X-0.825000X0.150000X0.825000X-0.150000X0.825000X-0.150000X-0.825000X0*%
%ADD19RoundRect,0.237500X-0.237500X0.250000X-0.237500X-0.250000X0.237500X-0.250000X0.237500X0.250000X0*%
%ADD20RoundRect,0.237500X0.300000X0.237500X-0.300000X0.237500X-0.300000X-0.237500X0.300000X-0.237500X0*%
%ADD21R,1.400000X1.200000*%
%ADD22R,2.000000X1.500000*%
%ADD23R,2.000000X3.800000*%
%ADD24RoundRect,0.237500X-0.300000X-0.237500X0.300000X-0.237500X0.300000X0.237500X-0.300000X0.237500X0*%
%ADD25R,0.650000X1.560000*%
%ADD26RoundRect,0.150000X-0.150000X0.825000X-0.150000X-0.825000X0.150000X-0.825000X0.150000X0.825000X0*%
%ADD27R,0.300000X1.150000*%
%ADD28R,0.600000X1.150000*%
%ADD29O,1.000000X2.100000*%
%ADD30O,1.000000X1.800000*%
%ADD31R,0.250000X0.675000*%
%ADD32R,0.675000X0.250000*%
G04 APERTURE END LIST*
D10*
%TO.C,U1*%
X123195500Y-90310000D03*
X123195500Y-90810000D03*
X123195500Y-91310000D03*
X123195500Y-91810000D03*
X123195500Y-92310000D03*
X123195500Y-92810000D03*
X123195500Y-93310000D03*
X123195500Y-93810000D03*
X123195500Y-94310000D03*
X123195500Y-94810000D03*
X123195500Y-95310000D03*
X123195500Y-95810000D03*
X123195500Y-96310000D03*
X123195500Y-96810000D03*
X123195500Y-97310000D03*
X123195500Y-97810000D03*
X123195500Y-98310000D03*
X123195500Y-98810000D03*
X123195500Y-99310000D03*
X123195500Y-99810000D03*
X123195500Y-100310000D03*
X123195500Y-100810000D03*
X123195500Y-101310000D03*
X123195500Y-101810000D03*
X123195500Y-102310000D03*
X123195500Y-102810000D03*
X123195500Y-103310000D03*
X123195500Y-103810000D03*
X123195500Y-104310000D03*
X123195500Y-104810000D03*
X123195500Y-105310000D03*
X123195500Y-105810000D03*
X123195500Y-106310000D03*
X123195500Y-106810000D03*
X123195500Y-107310000D03*
X123195500Y-107810000D03*
D11*
X125108000Y-109722500D03*
X125608000Y-109722500D03*
X126108000Y-109722500D03*
X126608000Y-109722500D03*
X127108000Y-109722500D03*
X127608000Y-109722500D03*
X128108000Y-109722500D03*
X128608000Y-109722500D03*
X129108000Y-109722500D03*
X129608000Y-109722500D03*
X130108000Y-109722500D03*
X130608000Y-109722500D03*
X131108000Y-109722500D03*
X131608000Y-109722500D03*
X132108000Y-109722500D03*
X132608000Y-109722500D03*
X133108000Y-109722500D03*
X133608000Y-109722500D03*
X134108000Y-109722500D03*
X134608000Y-109722500D03*
X135108000Y-109722500D03*
X135608000Y-109722500D03*
X136108000Y-109722500D03*
X136608000Y-109722500D03*
X137108000Y-109722500D03*
X137608000Y-109722500D03*
X138108000Y-109722500D03*
X138608000Y-109722500D03*
X139108000Y-109722500D03*
X139608000Y-109722500D03*
X140108000Y-109722500D03*
X140608000Y-109722500D03*
X141108000Y-109722500D03*
X141608000Y-109722500D03*
X142108000Y-109722500D03*
X142608000Y-109722500D03*
D10*
X144520500Y-107810000D03*
X144520500Y-107310000D03*
X144520500Y-106810000D03*
X144520500Y-106310000D03*
X144520500Y-105810000D03*
X144520500Y-105310000D03*
X144520500Y-104810000D03*
X144520500Y-104310000D03*
X144520500Y-103810000D03*
X144520500Y-103310000D03*
X144520500Y-102810000D03*
X144520500Y-102310000D03*
X144520500Y-101810000D03*
X144520500Y-101310000D03*
X144520500Y-100810000D03*
X144520500Y-100310000D03*
X144520500Y-99810000D03*
X144520500Y-99310000D03*
X144520500Y-98810000D03*
X144520500Y-98310000D03*
X144520500Y-97810000D03*
X144520500Y-97310000D03*
X144520500Y-96810000D03*
X144520500Y-96310000D03*
X144520500Y-95810000D03*
X144520500Y-95310000D03*
X144520500Y-94810000D03*
X144520500Y-94310000D03*
X144520500Y-93810000D03*
X144520500Y-93310000D03*
X144520500Y-92810000D03*
X144520500Y-92310000D03*
X144520500Y-91810000D03*
X144520500Y-91310000D03*
X144520500Y-90810000D03*
X144520500Y-90310000D03*
D11*
X142608000Y-88397500D03*
X142108000Y-88397500D03*
X141608000Y-88397500D03*
X141108000Y-88397500D03*
X140608000Y-88397500D03*
X140108000Y-88397500D03*
X139608000Y-88397500D03*
X139108000Y-88397500D03*
X138608000Y-88397500D03*
X138108000Y-88397500D03*
X137608000Y-88397500D03*
X137108000Y-88397500D03*
X136608000Y-88397500D03*
X136108000Y-88397500D03*
X135608000Y-88397500D03*
X135108000Y-88397500D03*
X134608000Y-88397500D03*
X134108000Y-88397500D03*
X133608000Y-88397500D03*
X133108000Y-88397500D03*
X132608000Y-88397500D03*
X132108000Y-88397500D03*
X131608000Y-88397500D03*
X131108000Y-88397500D03*
X130608000Y-88397500D03*
X130108000Y-88397500D03*
X129608000Y-88397500D03*
X129108000Y-88397500D03*
X128608000Y-88397500D03*
X128108000Y-88397500D03*
X127608000Y-88397500D03*
X127108000Y-88397500D03*
X126608000Y-88397500D03*
X126108000Y-88397500D03*
X125608000Y-88397500D03*
X125108000Y-88397500D03*
%TD*%
D12*
%TO.C,C46*%
X146552500Y-101387500D03*
X146552500Y-103112500D03*
%TD*%
D13*
%TO.C,C45*%
X131318000Y-85952500D03*
X131318000Y-84227500D03*
%TD*%
%TO.C,C26*%
X115824000Y-99160500D03*
X115824000Y-97435500D03*
%TD*%
D14*
%TO.C,R1*%
X115316000Y-81534000D03*
X117141000Y-81534000D03*
%TD*%
D15*
%TO.C,J8*%
X152839000Y-107772000D03*
X152839000Y-106972000D03*
X152839000Y-106172000D03*
X152839000Y-105372000D03*
X152839000Y-104572000D03*
D16*
X152839000Y-110572000D03*
X158339000Y-110572000D03*
X152839000Y-101772000D03*
X158339000Y-101772000D03*
%TD*%
D17*
%TO.C,R6*%
X117856000Y-103782500D03*
X117856000Y-101957500D03*
%TD*%
D13*
%TO.C,C38*%
X120650000Y-99060000D03*
X120650000Y-97335000D03*
%TD*%
D18*
%TO.C,U2*%
X149733000Y-88581000D03*
X151003000Y-88581000D03*
X152273000Y-88581000D03*
X153543000Y-88581000D03*
X153543000Y-83631000D03*
X152273000Y-83631000D03*
X151003000Y-83631000D03*
X149733000Y-83631000D03*
%TD*%
D13*
%TO.C,C29*%
X149098000Y-95096500D03*
X149098000Y-93371500D03*
%TD*%
D19*
%TO.C,R5*%
X155750000Y-114337500D03*
X155750000Y-116162500D03*
%TD*%
D20*
%TO.C,C44*%
X138525000Y-111732000D03*
X136800000Y-111732000D03*
%TD*%
D12*
%TO.C,C49*%
X119837200Y-107087500D03*
X119837200Y-108812500D03*
%TD*%
D21*
%TO.C,Y1*%
X114470000Y-94068000D03*
X116670000Y-94068000D03*
X116670000Y-92368000D03*
X114470000Y-92368000D03*
%TD*%
D13*
%TO.C,C32*%
X125222000Y-85952500D03*
X125222000Y-84227500D03*
%TD*%
D20*
%TO.C,C28*%
X155548500Y-90678000D03*
X153823500Y-90678000D03*
%TD*%
D12*
%TO.C,C41*%
X146552500Y-96137500D03*
X146552500Y-97862500D03*
%TD*%
D22*
%TO.C,U5*%
X151282000Y-92950000D03*
X151282000Y-95250000D03*
D23*
X157582000Y-95250000D03*
D22*
X151282000Y-97550000D03*
%TD*%
D14*
%TO.C,R2*%
X112117500Y-98552000D03*
X113942500Y-98552000D03*
%TD*%
D20*
%TO.C,C24*%
X123290500Y-74930000D03*
X121565500Y-74930000D03*
%TD*%
D24*
%TO.C,C22*%
X145589500Y-88110000D03*
X147314500Y-88110000D03*
%TD*%
D12*
%TO.C,C30*%
X146558000Y-89637500D03*
X146558000Y-91362500D03*
%TD*%
%TO.C,C21*%
X141478000Y-111659500D03*
X141478000Y-113384500D03*
%TD*%
D17*
%TO.C,R7*%
X110871000Y-107084500D03*
X110871000Y-105259500D03*
%TD*%
D13*
%TO.C,C42*%
X124714000Y-113511500D03*
X124714000Y-111786500D03*
%TD*%
D20*
%TO.C,C33*%
X133699000Y-111732000D03*
X131974000Y-111732000D03*
%TD*%
D12*
%TO.C,C25*%
X110871000Y-114707500D03*
X110871000Y-116432500D03*
%TD*%
%TO.C,C48*%
X118364000Y-107087500D03*
X118364000Y-108812500D03*
%TD*%
%TO.C,C39*%
X120898500Y-103757500D03*
X120898500Y-105482500D03*
%TD*%
D13*
%TO.C,C23*%
X114554000Y-87730500D03*
X114554000Y-86005500D03*
%TD*%
D12*
%TO.C,C31*%
X120644500Y-92327500D03*
X120644500Y-94052500D03*
%TD*%
%TO.C,C43*%
X143002000Y-111659500D03*
X143002000Y-113384500D03*
%TD*%
D17*
%TO.C,R8*%
X110871000Y-112672500D03*
X110871000Y-110847500D03*
%TD*%
D25*
%TO.C,U6*%
X148300000Y-104350000D03*
X149250000Y-104350000D03*
X150200000Y-104350000D03*
X150200000Y-101650000D03*
X148300000Y-101650000D03*
%TD*%
D12*
%TO.C,C40*%
X138176000Y-84735500D03*
X138176000Y-86460500D03*
%TD*%
D26*
%TO.C,U3*%
X150241000Y-108777000D03*
X148971000Y-108777000D03*
X147701000Y-108777000D03*
X146431000Y-108777000D03*
X146431000Y-113727000D03*
X147701000Y-113727000D03*
X148971000Y-113727000D03*
X150241000Y-113727000D03*
%TD*%
D19*
%TO.C,R4*%
X157226000Y-81637500D03*
X157226000Y-83462500D03*
%TD*%
D17*
%TO.C,R3*%
X117348000Y-99210500D03*
X117348000Y-97385500D03*
%TD*%
D12*
%TO.C,C47*%
X119380000Y-103785500D03*
X119380000Y-105510500D03*
%TD*%
%TO.C,C27*%
X119126000Y-92355500D03*
X119126000Y-94080500D03*
%TD*%
D27*
%TO.C,J9*%
X138958000Y-116244000D03*
X139958000Y-116244000D03*
X140458000Y-116244000D03*
X141458000Y-116244000D03*
D28*
X142608000Y-116244000D03*
X143408000Y-116244000D03*
D27*
X141958000Y-116244000D03*
X140958000Y-116244000D03*
X139458000Y-116244000D03*
X138458000Y-116244000D03*
D28*
X137808000Y-116244000D03*
X137008000Y-116244000D03*
D29*
X135888000Y-116819000D03*
D30*
X135888000Y-120999000D03*
D29*
X144528000Y-116819000D03*
D30*
X144528000Y-120999000D03*
%TD*%
D31*
%TO.C,U4*%
X121932000Y-78986500D03*
X122432000Y-78986500D03*
X122932000Y-78986500D03*
X123432000Y-78986500D03*
D32*
X123694500Y-78224000D03*
X123694500Y-77724000D03*
X123694500Y-77224000D03*
D31*
X123432000Y-76461500D03*
X122932000Y-76461500D03*
X122432000Y-76461500D03*
X121932000Y-76461500D03*
D32*
X121669500Y-77224000D03*
X121669500Y-77724000D03*
X121669500Y-78224000D03*
%TD*%
M02*
