%TF.GenerationSoftware,KiCad,Pcbnew,7.0.7*%
%TF.CreationDate,2024-03-10T16:18:29-05:00*%
%TF.ProjectId,rev2,72657632-2e6b-4696-9361-645f70636258,rev?*%
%TF.SameCoordinates,Original*%
%TF.FileFunction,Copper,L4,Bot*%
%TF.FilePolarity,Positive*%
%FSLAX46Y46*%
G04 Gerber Fmt 4.6, Leading zero omitted, Abs format (unit mm)*
G04 Created by KiCad (PCBNEW 7.0.7) date 2024-03-10 16:18:29*
%MOMM*%
%LPD*%
G01*
G04 APERTURE LIST*
%TA.AperFunction,ComponentPad*%
%ADD10O,1.000000X2.100000*%
%TD*%
%TA.AperFunction,ComponentPad*%
%ADD11O,1.000000X1.800000*%
%TD*%
%TA.AperFunction,ComponentPad*%
%ADD12R,2.200000X2.200000*%
%TD*%
%TA.AperFunction,ComponentPad*%
%ADD13C,2.200000*%
%TD*%
%TA.AperFunction,SMDPad,CuDef*%
%ADD14R,1.550000X1.300000*%
%TD*%
%TA.AperFunction,ComponentPad*%
%ADD15R,1.700000X1.700000*%
%TD*%
%TA.AperFunction,ComponentPad*%
%ADD16O,1.700000X1.700000*%
%TD*%
%TA.AperFunction,SMDPad,CuDef*%
%ADD17R,1.000000X0.800000*%
%TD*%
%TA.AperFunction,SMDPad,CuDef*%
%ADD18R,0.700000X1.500000*%
%TD*%
%TA.AperFunction,ViaPad*%
%ADD19C,0.800000*%
%TD*%
%TA.AperFunction,Conductor*%
%ADD20C,0.500000*%
%TD*%
%TA.AperFunction,Conductor*%
%ADD21C,0.250000*%
%TD*%
%TA.AperFunction,Conductor*%
%ADD22C,0.127000*%
%TD*%
G04 APERTURE END LIST*
D10*
%TO.P,J9,S1,SHIELD*%
%TO.N,GND*%
X135888000Y-116819000D03*
D11*
X135888000Y-120999000D03*
D10*
X144528000Y-116819000D03*
D11*
X144528000Y-120999000D03*
%TD*%
D12*
%TO.P,J2,1,Pin_1*%
%TO.N,/CAN1+*%
X149980000Y-78500000D03*
D13*
%TO.P,J2,2,Pin_2*%
%TO.N,/CAN1-*%
X152520000Y-78500000D03*
%TD*%
D14*
%TO.P,SW1,1,1*%
%TO.N,GND*%
X119804000Y-84618000D03*
X111844000Y-84618000D03*
%TO.P,SW1,2,2*%
%TO.N,NRST*%
X119804000Y-89118000D03*
X111844000Y-89118000D03*
%TD*%
D15*
%TO.P,J3,1,Pin_1*%
%TO.N,/CAN2-*%
X156750000Y-121275000D03*
D16*
%TO.P,J3,2,Pin_2*%
%TO.N,/CAN2+*%
X156750000Y-118735000D03*
%TD*%
D12*
%TO.P,J6,1,Pin_1*%
%TO.N,linpot4*%
X120269000Y-118999000D03*
D13*
%TO.P,J6,2,Pin_2*%
%TO.N,linpot3*%
X117729000Y-118999000D03*
%TO.P,J6,3,Pin_3*%
%TO.N,linpot2*%
X115189000Y-118999000D03*
%TO.P,J6,4,Pin_4*%
%TO.N,linpot1*%
X112649000Y-118999000D03*
%TD*%
D12*
%TO.P,J4,1,Pin_1*%
%TO.N,/CAN2+*%
X150270000Y-119000000D03*
D13*
%TO.P,J4,2,Pin_2*%
%TO.N,/CAN2-*%
X147730000Y-119000000D03*
%TD*%
D15*
%TO.P,J5,1,Pin_1*%
%TO.N,+3.3V*%
X115570000Y-101981000D03*
D16*
%TO.P,J5,2,Pin_2*%
%TO.N,Net-(J5-Pin_2)*%
X113030000Y-101981000D03*
%TO.P,J5,3,Pin_3*%
%TO.N,GND*%
X115570000Y-104521000D03*
%TO.P,J5,4,Pin_4*%
%TO.N,Net-(J5-Pin_4)*%
X113030000Y-104521000D03*
%TO.P,J5,5,Pin_5*%
%TO.N,GND*%
X115570000Y-107061000D03*
%TO.P,J5,6,Pin_6*%
%TO.N,Net-(J5-Pin_6)*%
X113030000Y-107061000D03*
%TO.P,J5,7,Pin_7*%
%TO.N,unconnected-(J5-Pin_7-Pad7)*%
X115570000Y-109601000D03*
%TO.P,J5,8,Pin_8*%
%TO.N,unconnected-(J5-Pin_8-Pad8)*%
X113030000Y-109601000D03*
%TO.P,J5,9,Pin_9*%
%TO.N,GND*%
X115570000Y-112141000D03*
%TO.P,J5,10,Pin_10*%
%TO.N,Net-(J5-Pin_10)*%
X113030000Y-112141000D03*
%TD*%
D15*
%TO.P,J1,1,Pin_1*%
%TO.N,/CAN1-*%
X157000000Y-79275000D03*
D16*
%TO.P,J1,2,Pin_2*%
%TO.N,/CAN1+*%
X157000000Y-76735000D03*
%TD*%
D12*
%TO.P,J10,1,Pin_1*%
%TO.N,GPIO6*%
X126090000Y-78500000D03*
D13*
%TO.P,J10,2,Pin_2*%
%TO.N,GPIO5*%
X128630000Y-78500000D03*
%TO.P,J10,3,Pin_3*%
%TO.N,GPIO4*%
X131170000Y-78500000D03*
%TO.P,J10,4,Pin_4*%
%TO.N,GPIO3*%
X133710000Y-78500000D03*
%TO.P,J10,5,Pin_5*%
%TO.N,GPIO2*%
X136250000Y-78500000D03*
%TO.P,J10,6,Pin_6*%
%TO.N,GPIO1*%
X138790000Y-78500000D03*
%TO.P,J10,7,Pin_7*%
%TO.N,GPIO8*%
X141330000Y-78500000D03*
%TO.P,J10,8,Pin_8*%
%TO.N,GPIO7*%
X143870000Y-78500000D03*
%TD*%
D12*
%TO.P,J7,1,Pin_1*%
%TO.N,A4*%
X132290000Y-119000000D03*
D13*
%TO.P,J7,2,Pin_2*%
%TO.N,A3*%
X129750000Y-119000000D03*
%TO.P,J7,3,Pin_3*%
%TO.N,A2*%
X127210000Y-119000000D03*
%TO.P,J7,4,Pin_4*%
%TO.N,A1*%
X124670000Y-119000000D03*
%TD*%
D17*
%TO.P,SW2,*%
%TO.N,*%
X112428000Y-74770000D03*
X112428000Y-76980000D03*
X119728000Y-74770000D03*
X119728000Y-76980000D03*
D18*
%TO.P,SW2,1,A*%
%TO.N,+3.3V*%
X113828000Y-77630000D03*
%TO.P,SW2,2,B*%
%TO.N,Net-(SW2-B)*%
X116828000Y-77630000D03*
%TO.P,SW2,3,C*%
%TO.N,GND*%
X118328000Y-77630000D03*
%TD*%
D19*
%TO.N,GND*%
X120650000Y-95250000D03*
X143256000Y-120142000D03*
X123190000Y-116586000D03*
X152908000Y-99822000D03*
X119126000Y-116840000D03*
X113284000Y-92456000D03*
X125730000Y-74676000D03*
X132334000Y-113284000D03*
X140462000Y-113538000D03*
X135940800Y-114198400D03*
X118818130Y-76142498D03*
X146558000Y-98806000D03*
X124714000Y-74422000D03*
X143662400Y-118618000D03*
X155194000Y-105410000D03*
X117856000Y-105664000D03*
X154940000Y-89408000D03*
X147320000Y-87122000D03*
X116586000Y-117094000D03*
X158242000Y-112268000D03*
X144018000Y-113284000D03*
X115824000Y-95250000D03*
X124392314Y-110595884D03*
X125984000Y-116586000D03*
X113538000Y-86106000D03*
X151130000Y-86868000D03*
X130810000Y-111760000D03*
X120650000Y-96266000D03*
X146500000Y-104250000D03*
X148082000Y-93980000D03*
X152654000Y-93726000D03*
X111760000Y-86106000D03*
X158242000Y-99822000D03*
X152908000Y-112522000D03*
X116840000Y-106426000D03*
X131064000Y-116586000D03*
X149098000Y-110236000D03*
X134721600Y-121005600D03*
X125222000Y-76454000D03*
X128524000Y-116586000D03*
X131318000Y-83058000D03*
X139192000Y-86614000D03*
X110490000Y-117602000D03*
X152654000Y-92202000D03*
X147320000Y-90678000D03*
X114300000Y-113792000D03*
X136906000Y-112776000D03*
X126238000Y-84074000D03*
X133604000Y-114808000D03*
X123437451Y-80016549D03*
X117103650Y-108448350D03*
X119126000Y-95250000D03*
X133604000Y-116586000D03*
%TO.N,NRST*%
X113538000Y-87884000D03*
X127000000Y-100838000D03*
X124968000Y-103378000D03*
X117602000Y-110744000D03*
%TO.N,+3.3V*%
X123952000Y-114554000D03*
X147574000Y-89662000D03*
X139192000Y-84582000D03*
X146750000Y-100250000D03*
X124718299Y-104906299D03*
X124714000Y-105918000D03*
X124709701Y-93984299D03*
X120396000Y-75946000D03*
X119380000Y-102616000D03*
X112014000Y-114808000D03*
X146558000Y-95250000D03*
X120904000Y-102616000D03*
X112776000Y-78994000D03*
X123952000Y-85852000D03*
X124714000Y-106934000D03*
X134874000Y-111760000D03*
X130302000Y-85598000D03*
X120650000Y-100330000D03*
X139700000Y-111760000D03*
X155956000Y-93980000D03*
X115570000Y-100584000D03*
X157480000Y-92964000D03*
X143510000Y-110744000D03*
%TO.N,+5V*%
X152908000Y-97536000D03*
X151384000Y-99060000D03*
X142544800Y-114909600D03*
X147320000Y-110236500D03*
X137871200Y-114858800D03*
X159004000Y-98552000D03*
%TO.N,/VBUS1*%
X153162000Y-108712000D03*
%TO.N,BOOT0*%
X122174000Y-89408000D03*
X127770762Y-89728767D03*
%TO.N,Net-(SW2-B)*%
X117602000Y-80010000D03*
%TO.N,SYS_JTMS_SWDIO*%
X121412000Y-90932000D03*
X132588000Y-92964000D03*
%TO.N,SYS_JTCK_SWCLK*%
X117602000Y-100838000D03*
X130810000Y-95758000D03*
X134112000Y-92239500D03*
X125222000Y-101092000D03*
%TO.N,SYS_JTDO_SWO*%
X130302000Y-86614000D03*
X118364000Y-88138000D03*
%TO.N,/STMPS2151STR_EN*%
X150000000Y-100000000D03*
X142750000Y-100000000D03*
%TO.N,/STMPS2151STR_FAULT*%
X146202400Y-105257600D03*
X143000000Y-105000000D03*
%TO.N,/LSM_SDO*%
X128024952Y-83811048D03*
X127508000Y-85344000D03*
%TO.N,/LSM_CS*%
X121158000Y-83058000D03*
X119380000Y-81534000D03*
%TD*%
D20*
%TO.N,GND*%
X111844000Y-84618000D02*
X119804000Y-84618000D01*
X111844000Y-84618000D02*
X111844000Y-86022000D01*
D21*
X118818130Y-76142498D02*
X118818130Y-77139870D01*
D20*
X111844000Y-86022000D02*
X111760000Y-86106000D01*
X113332000Y-86106000D02*
X111844000Y-84618000D01*
X113538000Y-86106000D02*
X113332000Y-86106000D01*
D21*
X118818130Y-77139870D02*
X118328000Y-77630000D01*
%TO.N,NRST*%
X124968000Y-103632000D02*
X124968000Y-103378000D01*
X127000000Y-100838000D02*
X127000000Y-95250000D01*
D20*
X113078000Y-87884000D02*
X111844000Y-89118000D01*
D21*
X117856000Y-110744000D02*
X124968000Y-103632000D01*
X117602000Y-110744000D02*
X117856000Y-110744000D01*
X121375000Y-91657000D02*
X121111695Y-91657000D01*
D20*
X119804000Y-89118000D02*
X111844000Y-89118000D01*
D21*
X121111695Y-91657000D02*
X119804000Y-90349305D01*
X127000000Y-95250000D02*
X123952000Y-92202000D01*
X121920000Y-92202000D02*
X121375000Y-91657000D01*
X123952000Y-92202000D02*
X121920000Y-92202000D01*
X119804000Y-90349305D02*
X119804000Y-89118000D01*
D20*
X113538000Y-87884000D02*
X113078000Y-87884000D01*
D21*
%TO.N,+3.3V*%
X112776000Y-78994000D02*
X112776000Y-78682000D01*
X112776000Y-78682000D02*
X113828000Y-77630000D01*
%TO.N,BOOT0*%
X127770762Y-89728767D02*
X127449995Y-89408000D01*
X127449995Y-89408000D02*
X122174000Y-89408000D01*
%TO.N,Net-(SW2-B)*%
X116828000Y-79236000D02*
X116828000Y-77630000D01*
X117602000Y-80010000D02*
X116828000Y-79236000D01*
%TO.N,SYS_JTMS_SWDIO*%
X129032000Y-93218000D02*
X132334000Y-93218000D01*
X122174000Y-91694000D02*
X124206000Y-91694000D01*
X132334000Y-93218000D02*
X132588000Y-92964000D01*
X124206000Y-91694000D02*
X127508000Y-91694000D01*
X121412000Y-90932000D02*
X122174000Y-91694000D01*
X127508000Y-91694000D02*
X129032000Y-93218000D01*
%TO.N,SYS_JTCK_SWCLK*%
X130819305Y-95758000D02*
X130810000Y-95758000D01*
X134112000Y-92239500D02*
X134112000Y-92465305D01*
X125222000Y-101092000D02*
X117856000Y-101092000D01*
X117856000Y-101092000D02*
X117602000Y-100838000D01*
X134112000Y-92465305D02*
X130819305Y-95758000D01*
%TO.N,SYS_JTDO_SWO*%
X118364000Y-88138000D02*
X119888000Y-86614000D01*
X119888000Y-86614000D02*
X130302000Y-86614000D01*
%TO.N,/STMPS2151STR_EN*%
X150000000Y-100000000D02*
X149025000Y-100975000D01*
X149025000Y-100975000D02*
X143725000Y-100975000D01*
X143725000Y-100975000D02*
X142750000Y-100000000D01*
D22*
%TO.N,/STMPS2151STR_FAULT*%
X146202400Y-105257600D02*
X143257600Y-105257600D01*
X143257600Y-105257600D02*
X143000000Y-105000000D01*
D21*
%TO.N,/LSM_SDO*%
X128024952Y-84827048D02*
X127508000Y-85344000D01*
X128024952Y-83811048D02*
X128024952Y-84827048D01*
%TO.N,/LSM_CS*%
X119380000Y-81534000D02*
X119634000Y-81534000D01*
X119634000Y-81534000D02*
X121158000Y-83058000D01*
%TD*%
M02*
