%TF.GenerationSoftware,KiCad,Pcbnew,7.0.7*%
%TF.CreationDate,2023-10-17T18:40:51-05:00*%
%TF.ProjectId,stm32f405rgt6,73746d33-3266-4343-9035-726774362e6b,rev?*%
%TF.SameCoordinates,Original*%
%TF.FileFunction,Legend,Top*%
%TF.FilePolarity,Positive*%
%FSLAX46Y46*%
G04 Gerber Fmt 4.6, Leading zero omitted, Abs format (unit mm)*
G04 Created by KiCad (PCBNEW 7.0.7) date 2023-10-17 18:40:51*
%MOMM*%
%LPD*%
G01*
G04 APERTURE LIST*
%ADD10C,0.150000*%
%ADD11C,0.120000*%
G04 APERTURE END LIST*
D10*
X159490112Y-100702057D02*
X159490112Y-101344914D01*
X159490112Y-101344914D02*
X159447255Y-101473485D01*
X159447255Y-101473485D02*
X159361541Y-101559200D01*
X159361541Y-101559200D02*
X159232969Y-101602057D01*
X159232969Y-101602057D02*
X159147255Y-101602057D01*
X160347255Y-101602057D02*
X159918683Y-101602057D01*
X159918683Y-101602057D02*
X159918683Y-100702057D01*
X161161540Y-101516342D02*
X161118683Y-101559200D01*
X161118683Y-101559200D02*
X160990111Y-101602057D01*
X160990111Y-101602057D02*
X160904397Y-101602057D01*
X160904397Y-101602057D02*
X160775826Y-101559200D01*
X160775826Y-101559200D02*
X160690111Y-101473485D01*
X160690111Y-101473485D02*
X160647254Y-101387771D01*
X160647254Y-101387771D02*
X160604397Y-101216342D01*
X160604397Y-101216342D02*
X160604397Y-101087771D01*
X160604397Y-101087771D02*
X160647254Y-100916342D01*
X160647254Y-100916342D02*
X160690111Y-100830628D01*
X160690111Y-100830628D02*
X160775826Y-100744914D01*
X160775826Y-100744914D02*
X160904397Y-100702057D01*
X160904397Y-100702057D02*
X160990111Y-100702057D01*
X160990111Y-100702057D02*
X161118683Y-100744914D01*
X161118683Y-100744914D02*
X161161540Y-100787771D01*
X161804397Y-100702057D02*
X161804397Y-101344914D01*
X161804397Y-101344914D02*
X161761540Y-101473485D01*
X161761540Y-101473485D02*
X161675826Y-101559200D01*
X161675826Y-101559200D02*
X161547254Y-101602057D01*
X161547254Y-101602057D02*
X161461540Y-101602057D01*
X162661540Y-101602057D02*
X162232968Y-101602057D01*
X162232968Y-101602057D02*
X162232968Y-100702057D01*
X163475825Y-101516342D02*
X163432968Y-101559200D01*
X163432968Y-101559200D02*
X163304396Y-101602057D01*
X163304396Y-101602057D02*
X163218682Y-101602057D01*
X163218682Y-101602057D02*
X163090111Y-101559200D01*
X163090111Y-101559200D02*
X163004396Y-101473485D01*
X163004396Y-101473485D02*
X162961539Y-101387771D01*
X162961539Y-101387771D02*
X162918682Y-101216342D01*
X162918682Y-101216342D02*
X162918682Y-101087771D01*
X162918682Y-101087771D02*
X162961539Y-100916342D01*
X162961539Y-100916342D02*
X163004396Y-100830628D01*
X163004396Y-100830628D02*
X163090111Y-100744914D01*
X163090111Y-100744914D02*
X163218682Y-100702057D01*
X163218682Y-100702057D02*
X163304396Y-100702057D01*
X163304396Y-100702057D02*
X163432968Y-100744914D01*
X163432968Y-100744914D02*
X163475825Y-100787771D01*
X164118682Y-100702057D02*
X164118682Y-101344914D01*
X164118682Y-101344914D02*
X164075825Y-101473485D01*
X164075825Y-101473485D02*
X163990111Y-101559200D01*
X163990111Y-101559200D02*
X163861539Y-101602057D01*
X163861539Y-101602057D02*
X163775825Y-101602057D01*
X164975825Y-101602057D02*
X164547253Y-101602057D01*
X164547253Y-101602057D02*
X164547253Y-100702057D01*
X165790110Y-101516342D02*
X165747253Y-101559200D01*
X165747253Y-101559200D02*
X165618681Y-101602057D01*
X165618681Y-101602057D02*
X165532967Y-101602057D01*
X165532967Y-101602057D02*
X165404396Y-101559200D01*
X165404396Y-101559200D02*
X165318681Y-101473485D01*
X165318681Y-101473485D02*
X165275824Y-101387771D01*
X165275824Y-101387771D02*
X165232967Y-101216342D01*
X165232967Y-101216342D02*
X165232967Y-101087771D01*
X165232967Y-101087771D02*
X165275824Y-100916342D01*
X165275824Y-100916342D02*
X165318681Y-100830628D01*
X165318681Y-100830628D02*
X165404396Y-100744914D01*
X165404396Y-100744914D02*
X165532967Y-100702057D01*
X165532967Y-100702057D02*
X165618681Y-100702057D01*
X165618681Y-100702057D02*
X165747253Y-100744914D01*
X165747253Y-100744914D02*
X165790110Y-100787771D01*
X166432967Y-100702057D02*
X166432967Y-101344914D01*
X166432967Y-101344914D02*
X166390110Y-101473485D01*
X166390110Y-101473485D02*
X166304396Y-101559200D01*
X166304396Y-101559200D02*
X166175824Y-101602057D01*
X166175824Y-101602057D02*
X166090110Y-101602057D01*
X167290110Y-101602057D02*
X166861538Y-101602057D01*
X166861538Y-101602057D02*
X166861538Y-100702057D01*
X168104395Y-101516342D02*
X168061538Y-101559200D01*
X168061538Y-101559200D02*
X167932966Y-101602057D01*
X167932966Y-101602057D02*
X167847252Y-101602057D01*
X167847252Y-101602057D02*
X167718681Y-101559200D01*
X167718681Y-101559200D02*
X167632966Y-101473485D01*
X167632966Y-101473485D02*
X167590109Y-101387771D01*
X167590109Y-101387771D02*
X167547252Y-101216342D01*
X167547252Y-101216342D02*
X167547252Y-101087771D01*
X167547252Y-101087771D02*
X167590109Y-100916342D01*
X167590109Y-100916342D02*
X167632966Y-100830628D01*
X167632966Y-100830628D02*
X167718681Y-100744914D01*
X167718681Y-100744914D02*
X167847252Y-100702057D01*
X167847252Y-100702057D02*
X167932966Y-100702057D01*
X167932966Y-100702057D02*
X168061538Y-100744914D01*
X168061538Y-100744914D02*
X168104395Y-100787771D01*
X129538207Y-96929819D02*
X129204874Y-96453628D01*
X128966779Y-96929819D02*
X128966779Y-95929819D01*
X128966779Y-95929819D02*
X129347731Y-95929819D01*
X129347731Y-95929819D02*
X129442969Y-95977438D01*
X129442969Y-95977438D02*
X129490588Y-96025057D01*
X129490588Y-96025057D02*
X129538207Y-96120295D01*
X129538207Y-96120295D02*
X129538207Y-96263152D01*
X129538207Y-96263152D02*
X129490588Y-96358390D01*
X129490588Y-96358390D02*
X129442969Y-96406009D01*
X129442969Y-96406009D02*
X129347731Y-96453628D01*
X129347731Y-96453628D02*
X128966779Y-96453628D01*
X129966779Y-95929819D02*
X129966779Y-96739342D01*
X129966779Y-96739342D02*
X130014398Y-96834580D01*
X130014398Y-96834580D02*
X130062017Y-96882200D01*
X130062017Y-96882200D02*
X130157255Y-96929819D01*
X130157255Y-96929819D02*
X130347731Y-96929819D01*
X130347731Y-96929819D02*
X130442969Y-96882200D01*
X130442969Y-96882200D02*
X130490588Y-96834580D01*
X130490588Y-96834580D02*
X130538207Y-96739342D01*
X130538207Y-96739342D02*
X130538207Y-95929819D01*
X131014398Y-96929819D02*
X131014398Y-95929819D01*
X131014398Y-95929819D02*
X131585826Y-96929819D01*
X131585826Y-96929819D02*
X131585826Y-95929819D01*
X209255826Y-76747200D02*
X210398684Y-76747200D01*
X209827255Y-77318628D02*
X209827255Y-76175771D01*
X209245826Y-83137200D02*
X210388684Y-83137200D01*
X209817255Y-83708628D02*
X209817255Y-82565771D01*
X209000000Y-93090000D02*
X208660000Y-93090000D01*
X208660000Y-93600000D01*
X208460000Y-93600000D01*
X208460000Y-93100000D01*
X208100000Y-93100000D01*
X208560000Y-92560000D01*
X209000000Y-93090000D01*
G36*
X209000000Y-93090000D02*
G01*
X208660000Y-93090000D01*
X208660000Y-93600000D01*
X208460000Y-93600000D01*
X208460000Y-93100000D01*
X208100000Y-93100000D01*
X208560000Y-92560000D01*
X209000000Y-93090000D01*
G37*
X169679160Y-63019533D02*
X170288684Y-63019533D01*
X169983922Y-63324295D02*
X169983922Y-62714771D01*
X152302361Y-99510000D02*
G75*
G03*
X152302361Y-99510000I-22361J0D01*
G01*
X197092111Y-72770000D02*
G75*
G03*
X197092111Y-72770000I-72111J0D01*
G01*
X192206158Y-101170000D02*
G75*
G03*
X192206158Y-101170000I-76158J0D01*
G01*
X196386056Y-106190000D02*
G75*
G03*
X196386056Y-106190000I-36056J0D01*
G01*
X200790623Y-101690000D02*
G75*
G03*
X200790623Y-101690000I-80623J0D01*
G01*
X141737082Y-132310000D02*
G75*
G03*
X141737082Y-132310000I-67082J0D01*
G01*
X148690623Y-122640000D02*
G75*
G03*
X148690623Y-122640000I-80623J0D01*
G01*
X170504853Y-122470000D02*
G75*
G03*
X170504853Y-122470000I-84853J0D01*
G01*
X136847697Y-104180000D02*
G75*
G03*
X136847697Y-104180000I-237697J0D01*
G01*
X128780830Y-91990000D02*
G75*
G03*
X128780830Y-91990000I-120830J0D01*
G01*
X124462801Y-79510000D02*
G75*
G03*
X124462801Y-79510000I-72801J0D01*
G01*
X159032111Y-97950000D02*
G75*
G03*
X159032111Y-97950000I-72111J0D01*
G01*
X135734588Y-127949438D02*
X135639350Y-127901819D01*
X135639350Y-127901819D02*
X135496493Y-127901819D01*
X135496493Y-127901819D02*
X135353636Y-127949438D01*
X135353636Y-127949438D02*
X135258398Y-128044676D01*
X135258398Y-128044676D02*
X135210779Y-128139914D01*
X135210779Y-128139914D02*
X135163160Y-128330390D01*
X135163160Y-128330390D02*
X135163160Y-128473247D01*
X135163160Y-128473247D02*
X135210779Y-128663723D01*
X135210779Y-128663723D02*
X135258398Y-128758961D01*
X135258398Y-128758961D02*
X135353636Y-128854200D01*
X135353636Y-128854200D02*
X135496493Y-128901819D01*
X135496493Y-128901819D02*
X135591731Y-128901819D01*
X135591731Y-128901819D02*
X135734588Y-128854200D01*
X135734588Y-128854200D02*
X135782207Y-128806580D01*
X135782207Y-128806580D02*
X135782207Y-128473247D01*
X135782207Y-128473247D02*
X135591731Y-128473247D01*
X136210779Y-128901819D02*
X136210779Y-127901819D01*
X136210779Y-127901819D02*
X136782207Y-128901819D01*
X136782207Y-128901819D02*
X136782207Y-127901819D01*
X137258398Y-128901819D02*
X137258398Y-127901819D01*
X137258398Y-127901819D02*
X137496493Y-127901819D01*
X137496493Y-127901819D02*
X137639350Y-127949438D01*
X137639350Y-127949438D02*
X137734588Y-128044676D01*
X137734588Y-128044676D02*
X137782207Y-128139914D01*
X137782207Y-128139914D02*
X137829826Y-128330390D01*
X137829826Y-128330390D02*
X137829826Y-128473247D01*
X137829826Y-128473247D02*
X137782207Y-128663723D01*
X137782207Y-128663723D02*
X137734588Y-128758961D01*
X137734588Y-128758961D02*
X137639350Y-128854200D01*
X137639350Y-128854200D02*
X137496493Y-128901819D01*
X137496493Y-128901819D02*
X137258398Y-128901819D01*
X134353541Y-131965819D02*
X134972588Y-131965819D01*
X134972588Y-131965819D02*
X134639255Y-132346771D01*
X134639255Y-132346771D02*
X134782112Y-132346771D01*
X134782112Y-132346771D02*
X134877350Y-132394390D01*
X134877350Y-132394390D02*
X134924969Y-132442009D01*
X134924969Y-132442009D02*
X134972588Y-132537247D01*
X134972588Y-132537247D02*
X134972588Y-132775342D01*
X134972588Y-132775342D02*
X134924969Y-132870580D01*
X134924969Y-132870580D02*
X134877350Y-132918200D01*
X134877350Y-132918200D02*
X134782112Y-132965819D01*
X134782112Y-132965819D02*
X134496398Y-132965819D01*
X134496398Y-132965819D02*
X134401160Y-132918200D01*
X134401160Y-132918200D02*
X134353541Y-132870580D01*
X135401160Y-132870580D02*
X135448779Y-132918200D01*
X135448779Y-132918200D02*
X135401160Y-132965819D01*
X135401160Y-132965819D02*
X135353541Y-132918200D01*
X135353541Y-132918200D02*
X135401160Y-132870580D01*
X135401160Y-132870580D02*
X135401160Y-132965819D01*
X135782112Y-131965819D02*
X136401159Y-131965819D01*
X136401159Y-131965819D02*
X136067826Y-132346771D01*
X136067826Y-132346771D02*
X136210683Y-132346771D01*
X136210683Y-132346771D02*
X136305921Y-132394390D01*
X136305921Y-132394390D02*
X136353540Y-132442009D01*
X136353540Y-132442009D02*
X136401159Y-132537247D01*
X136401159Y-132537247D02*
X136401159Y-132775342D01*
X136401159Y-132775342D02*
X136353540Y-132870580D01*
X136353540Y-132870580D02*
X136305921Y-132918200D01*
X136305921Y-132918200D02*
X136210683Y-132965819D01*
X136210683Y-132965819D02*
X135924969Y-132965819D01*
X135924969Y-132965819D02*
X135829731Y-132918200D01*
X135829731Y-132918200D02*
X135782112Y-132870580D01*
X136686874Y-131965819D02*
X137020207Y-132965819D01*
X137020207Y-132965819D02*
X137353540Y-131965819D01*
X136544207Y-131441819D02*
X136210874Y-130965628D01*
X135972779Y-131441819D02*
X135972779Y-130441819D01*
X135972779Y-130441819D02*
X136353731Y-130441819D01*
X136353731Y-130441819D02*
X136448969Y-130489438D01*
X136448969Y-130489438D02*
X136496588Y-130537057D01*
X136496588Y-130537057D02*
X136544207Y-130632295D01*
X136544207Y-130632295D02*
X136544207Y-130775152D01*
X136544207Y-130775152D02*
X136496588Y-130870390D01*
X136496588Y-130870390D02*
X136448969Y-130918009D01*
X136448969Y-130918009D02*
X136353731Y-130965628D01*
X136353731Y-130965628D02*
X135972779Y-130965628D01*
X136877541Y-130441819D02*
X137544207Y-131441819D01*
X137544207Y-130441819D02*
X136877541Y-131441819D01*
X135829922Y-129171819D02*
X136401350Y-129171819D01*
X136115636Y-130171819D02*
X136115636Y-129171819D01*
X136639446Y-129171819D02*
X137306112Y-130171819D01*
X137306112Y-129171819D02*
X136639446Y-130171819D01*
X137750779Y-125615819D02*
X137750779Y-126425342D01*
X137750779Y-126425342D02*
X137798398Y-126520580D01*
X137798398Y-126520580D02*
X137846017Y-126568200D01*
X137846017Y-126568200D02*
X137941255Y-126615819D01*
X137941255Y-126615819D02*
X138131731Y-126615819D01*
X138131731Y-126615819D02*
X138226969Y-126568200D01*
X138226969Y-126568200D02*
X138274588Y-126520580D01*
X138274588Y-126520580D02*
X138322207Y-126425342D01*
X138322207Y-126425342D02*
X138322207Y-125615819D01*
X138750779Y-126330104D02*
X139226969Y-126330104D01*
X138655541Y-126615819D02*
X138988874Y-125615819D01*
X138988874Y-125615819D02*
X139322207Y-126615819D01*
X140226969Y-126615819D02*
X139893636Y-126139628D01*
X139655541Y-126615819D02*
X139655541Y-125615819D01*
X139655541Y-125615819D02*
X140036493Y-125615819D01*
X140036493Y-125615819D02*
X140131731Y-125663438D01*
X140131731Y-125663438D02*
X140179350Y-125711057D01*
X140179350Y-125711057D02*
X140226969Y-125806295D01*
X140226969Y-125806295D02*
X140226969Y-125949152D01*
X140226969Y-125949152D02*
X140179350Y-126044390D01*
X140179350Y-126044390D02*
X140131731Y-126092009D01*
X140131731Y-126092009D02*
X140036493Y-126139628D01*
X140036493Y-126139628D02*
X139655541Y-126139628D01*
X140512684Y-125615819D02*
X141084112Y-125615819D01*
X140798398Y-126615819D02*
X140798398Y-125615819D01*
X129290112Y-91926009D02*
X129432969Y-91973628D01*
X129432969Y-91973628D02*
X129480588Y-92021247D01*
X129480588Y-92021247D02*
X129528207Y-92116485D01*
X129528207Y-92116485D02*
X129528207Y-92259342D01*
X129528207Y-92259342D02*
X129480588Y-92354580D01*
X129480588Y-92354580D02*
X129432969Y-92402200D01*
X129432969Y-92402200D02*
X129337731Y-92449819D01*
X129337731Y-92449819D02*
X128956779Y-92449819D01*
X128956779Y-92449819D02*
X128956779Y-91449819D01*
X128956779Y-91449819D02*
X129290112Y-91449819D01*
X129290112Y-91449819D02*
X129385350Y-91497438D01*
X129385350Y-91497438D02*
X129432969Y-91545057D01*
X129432969Y-91545057D02*
X129480588Y-91640295D01*
X129480588Y-91640295D02*
X129480588Y-91735533D01*
X129480588Y-91735533D02*
X129432969Y-91830771D01*
X129432969Y-91830771D02*
X129385350Y-91878390D01*
X129385350Y-91878390D02*
X129290112Y-91926009D01*
X129290112Y-91926009D02*
X128956779Y-91926009D01*
X130147255Y-91449819D02*
X130337731Y-91449819D01*
X130337731Y-91449819D02*
X130432969Y-91497438D01*
X130432969Y-91497438D02*
X130528207Y-91592676D01*
X130528207Y-91592676D02*
X130575826Y-91783152D01*
X130575826Y-91783152D02*
X130575826Y-92116485D01*
X130575826Y-92116485D02*
X130528207Y-92306961D01*
X130528207Y-92306961D02*
X130432969Y-92402200D01*
X130432969Y-92402200D02*
X130337731Y-92449819D01*
X130337731Y-92449819D02*
X130147255Y-92449819D01*
X130147255Y-92449819D02*
X130052017Y-92402200D01*
X130052017Y-92402200D02*
X129956779Y-92306961D01*
X129956779Y-92306961D02*
X129909160Y-92116485D01*
X129909160Y-92116485D02*
X129909160Y-91783152D01*
X129909160Y-91783152D02*
X129956779Y-91592676D01*
X129956779Y-91592676D02*
X130052017Y-91497438D01*
X130052017Y-91497438D02*
X130147255Y-91449819D01*
X131194874Y-91449819D02*
X131385350Y-91449819D01*
X131385350Y-91449819D02*
X131480588Y-91497438D01*
X131480588Y-91497438D02*
X131575826Y-91592676D01*
X131575826Y-91592676D02*
X131623445Y-91783152D01*
X131623445Y-91783152D02*
X131623445Y-92116485D01*
X131623445Y-92116485D02*
X131575826Y-92306961D01*
X131575826Y-92306961D02*
X131480588Y-92402200D01*
X131480588Y-92402200D02*
X131385350Y-92449819D01*
X131385350Y-92449819D02*
X131194874Y-92449819D01*
X131194874Y-92449819D02*
X131099636Y-92402200D01*
X131099636Y-92402200D02*
X131004398Y-92306961D01*
X131004398Y-92306961D02*
X130956779Y-92116485D01*
X130956779Y-92116485D02*
X130956779Y-91783152D01*
X130956779Y-91783152D02*
X131004398Y-91592676D01*
X131004398Y-91592676D02*
X131099636Y-91497438D01*
X131099636Y-91497438D02*
X131194874Y-91449819D01*
X131909160Y-91449819D02*
X132480588Y-91449819D01*
X132194874Y-92449819D02*
X132194874Y-91449819D01*
X126638207Y-77085819D02*
X126304874Y-76609628D01*
X126066779Y-77085819D02*
X126066779Y-76085819D01*
X126066779Y-76085819D02*
X126447731Y-76085819D01*
X126447731Y-76085819D02*
X126542969Y-76133438D01*
X126542969Y-76133438D02*
X126590588Y-76181057D01*
X126590588Y-76181057D02*
X126638207Y-76276295D01*
X126638207Y-76276295D02*
X126638207Y-76419152D01*
X126638207Y-76419152D02*
X126590588Y-76514390D01*
X126590588Y-76514390D02*
X126542969Y-76562009D01*
X126542969Y-76562009D02*
X126447731Y-76609628D01*
X126447731Y-76609628D02*
X126066779Y-76609628D01*
X127019160Y-77038200D02*
X127162017Y-77085819D01*
X127162017Y-77085819D02*
X127400112Y-77085819D01*
X127400112Y-77085819D02*
X127495350Y-77038200D01*
X127495350Y-77038200D02*
X127542969Y-76990580D01*
X127542969Y-76990580D02*
X127590588Y-76895342D01*
X127590588Y-76895342D02*
X127590588Y-76800104D01*
X127590588Y-76800104D02*
X127542969Y-76704866D01*
X127542969Y-76704866D02*
X127495350Y-76657247D01*
X127495350Y-76657247D02*
X127400112Y-76609628D01*
X127400112Y-76609628D02*
X127209636Y-76562009D01*
X127209636Y-76562009D02*
X127114398Y-76514390D01*
X127114398Y-76514390D02*
X127066779Y-76466771D01*
X127066779Y-76466771D02*
X127019160Y-76371533D01*
X127019160Y-76371533D02*
X127019160Y-76276295D01*
X127019160Y-76276295D02*
X127066779Y-76181057D01*
X127066779Y-76181057D02*
X127114398Y-76133438D01*
X127114398Y-76133438D02*
X127209636Y-76085819D01*
X127209636Y-76085819D02*
X127447731Y-76085819D01*
X127447731Y-76085819D02*
X127590588Y-76133438D01*
X127876303Y-76085819D02*
X128447731Y-76085819D01*
X128162017Y-77085819D02*
X128162017Y-76085819D01*
X137575895Y-103413160D02*
X137575895Y-103889350D01*
X137290180Y-103317922D02*
X138290180Y-103651255D01*
X138290180Y-103651255D02*
X137290180Y-103984588D01*
X138290180Y-104222684D02*
X138290180Y-104841731D01*
X138290180Y-104841731D02*
X137909228Y-104508398D01*
X137909228Y-104508398D02*
X137909228Y-104651255D01*
X137909228Y-104651255D02*
X137861609Y-104746493D01*
X137861609Y-104746493D02*
X137813990Y-104794112D01*
X137813990Y-104794112D02*
X137718752Y-104841731D01*
X137718752Y-104841731D02*
X137480657Y-104841731D01*
X137480657Y-104841731D02*
X137385419Y-104794112D01*
X137385419Y-104794112D02*
X137337800Y-104746493D01*
X137337800Y-104746493D02*
X137290180Y-104651255D01*
X137290180Y-104651255D02*
X137290180Y-104365541D01*
X137290180Y-104365541D02*
X137337800Y-104270303D01*
X137337800Y-104270303D02*
X137385419Y-104222684D01*
X137575895Y-108747160D02*
X137575895Y-109223350D01*
X137290180Y-108651922D02*
X138290180Y-108985255D01*
X138290180Y-108985255D02*
X137290180Y-109318588D01*
X138194942Y-109604303D02*
X138242561Y-109651922D01*
X138242561Y-109651922D02*
X138290180Y-109747160D01*
X138290180Y-109747160D02*
X138290180Y-109985255D01*
X138290180Y-109985255D02*
X138242561Y-110080493D01*
X138242561Y-110080493D02*
X138194942Y-110128112D01*
X138194942Y-110128112D02*
X138099704Y-110175731D01*
X138099704Y-110175731D02*
X138004466Y-110175731D01*
X138004466Y-110175731D02*
X137861609Y-110128112D01*
X137861609Y-110128112D02*
X137290180Y-109556684D01*
X137290180Y-109556684D02*
X137290180Y-110175731D01*
X137575895Y-113573160D02*
X137575895Y-114049350D01*
X137290180Y-113477922D02*
X138290180Y-113811255D01*
X138290180Y-113811255D02*
X137290180Y-114144588D01*
X137290180Y-115001731D02*
X137290180Y-114430303D01*
X137290180Y-114716017D02*
X138290180Y-114716017D01*
X138290180Y-114716017D02*
X138147323Y-114620779D01*
X138147323Y-114620779D02*
X138052085Y-114525541D01*
X138052085Y-114525541D02*
X138004466Y-114430303D01*
X137575895Y-118653160D02*
X137575895Y-119129350D01*
X137290180Y-118557922D02*
X138290180Y-118891255D01*
X138290180Y-118891255D02*
X137290180Y-119224588D01*
X138290180Y-119748398D02*
X138290180Y-119843636D01*
X138290180Y-119843636D02*
X138242561Y-119938874D01*
X138242561Y-119938874D02*
X138194942Y-119986493D01*
X138194942Y-119986493D02*
X138099704Y-120034112D01*
X138099704Y-120034112D02*
X137909228Y-120081731D01*
X137909228Y-120081731D02*
X137671133Y-120081731D01*
X137671133Y-120081731D02*
X137480657Y-120034112D01*
X137480657Y-120034112D02*
X137385419Y-119986493D01*
X137385419Y-119986493D02*
X137337800Y-119938874D01*
X137337800Y-119938874D02*
X137290180Y-119843636D01*
X137290180Y-119843636D02*
X137290180Y-119748398D01*
X137290180Y-119748398D02*
X137337800Y-119653160D01*
X137337800Y-119653160D02*
X137385419Y-119605541D01*
X137385419Y-119605541D02*
X137480657Y-119557922D01*
X137480657Y-119557922D02*
X137671133Y-119510303D01*
X137671133Y-119510303D02*
X137909228Y-119510303D01*
X137909228Y-119510303D02*
X138099704Y-119557922D01*
X138099704Y-119557922D02*
X138194942Y-119605541D01*
X138194942Y-119605541D02*
X138242561Y-119653160D01*
X138242561Y-119653160D02*
X138290180Y-119748398D01*
X162801541Y-120789819D02*
X163420588Y-120789819D01*
X163420588Y-120789819D02*
X163087255Y-121170771D01*
X163087255Y-121170771D02*
X163230112Y-121170771D01*
X163230112Y-121170771D02*
X163325350Y-121218390D01*
X163325350Y-121218390D02*
X163372969Y-121266009D01*
X163372969Y-121266009D02*
X163420588Y-121361247D01*
X163420588Y-121361247D02*
X163420588Y-121599342D01*
X163420588Y-121599342D02*
X163372969Y-121694580D01*
X163372969Y-121694580D02*
X163325350Y-121742200D01*
X163325350Y-121742200D02*
X163230112Y-121789819D01*
X163230112Y-121789819D02*
X162944398Y-121789819D01*
X162944398Y-121789819D02*
X162849160Y-121742200D01*
X162849160Y-121742200D02*
X162801541Y-121694580D01*
X163849160Y-121694580D02*
X163896779Y-121742200D01*
X163896779Y-121742200D02*
X163849160Y-121789819D01*
X163849160Y-121789819D02*
X163801541Y-121742200D01*
X163801541Y-121742200D02*
X163849160Y-121694580D01*
X163849160Y-121694580D02*
X163849160Y-121789819D01*
X164230112Y-120789819D02*
X164849159Y-120789819D01*
X164849159Y-120789819D02*
X164515826Y-121170771D01*
X164515826Y-121170771D02*
X164658683Y-121170771D01*
X164658683Y-121170771D02*
X164753921Y-121218390D01*
X164753921Y-121218390D02*
X164801540Y-121266009D01*
X164801540Y-121266009D02*
X164849159Y-121361247D01*
X164849159Y-121361247D02*
X164849159Y-121599342D01*
X164849159Y-121599342D02*
X164801540Y-121694580D01*
X164801540Y-121694580D02*
X164753921Y-121742200D01*
X164753921Y-121742200D02*
X164658683Y-121789819D01*
X164658683Y-121789819D02*
X164372969Y-121789819D01*
X164372969Y-121789819D02*
X164277731Y-121742200D01*
X164277731Y-121742200D02*
X164230112Y-121694580D01*
X165134874Y-120789819D02*
X165468207Y-121789819D01*
X165468207Y-121789819D02*
X165801540Y-120789819D01*
X157769160Y-121742200D02*
X157912017Y-121789819D01*
X157912017Y-121789819D02*
X158150112Y-121789819D01*
X158150112Y-121789819D02*
X158245350Y-121742200D01*
X158245350Y-121742200D02*
X158292969Y-121694580D01*
X158292969Y-121694580D02*
X158340588Y-121599342D01*
X158340588Y-121599342D02*
X158340588Y-121504104D01*
X158340588Y-121504104D02*
X158292969Y-121408866D01*
X158292969Y-121408866D02*
X158245350Y-121361247D01*
X158245350Y-121361247D02*
X158150112Y-121313628D01*
X158150112Y-121313628D02*
X157959636Y-121266009D01*
X157959636Y-121266009D02*
X157864398Y-121218390D01*
X157864398Y-121218390D02*
X157816779Y-121170771D01*
X157816779Y-121170771D02*
X157769160Y-121075533D01*
X157769160Y-121075533D02*
X157769160Y-120980295D01*
X157769160Y-120980295D02*
X157816779Y-120885057D01*
X157816779Y-120885057D02*
X157864398Y-120837438D01*
X157864398Y-120837438D02*
X157959636Y-120789819D01*
X157959636Y-120789819D02*
X158197731Y-120789819D01*
X158197731Y-120789819D02*
X158340588Y-120837438D01*
X158769160Y-121789819D02*
X158769160Y-120789819D01*
X158769160Y-120789819D02*
X159007255Y-120789819D01*
X159007255Y-120789819D02*
X159150112Y-120837438D01*
X159150112Y-120837438D02*
X159245350Y-120932676D01*
X159245350Y-120932676D02*
X159292969Y-121027914D01*
X159292969Y-121027914D02*
X159340588Y-121218390D01*
X159340588Y-121218390D02*
X159340588Y-121361247D01*
X159340588Y-121361247D02*
X159292969Y-121551723D01*
X159292969Y-121551723D02*
X159245350Y-121646961D01*
X159245350Y-121646961D02*
X159150112Y-121742200D01*
X159150112Y-121742200D02*
X159007255Y-121789819D01*
X159007255Y-121789819D02*
X158769160Y-121789819D01*
X159721541Y-121504104D02*
X160197731Y-121504104D01*
X159626303Y-121789819D02*
X159959636Y-120789819D01*
X159959636Y-120789819D02*
X160292969Y-121789819D01*
X152689160Y-121742200D02*
X152832017Y-121789819D01*
X152832017Y-121789819D02*
X153070112Y-121789819D01*
X153070112Y-121789819D02*
X153165350Y-121742200D01*
X153165350Y-121742200D02*
X153212969Y-121694580D01*
X153212969Y-121694580D02*
X153260588Y-121599342D01*
X153260588Y-121599342D02*
X153260588Y-121504104D01*
X153260588Y-121504104D02*
X153212969Y-121408866D01*
X153212969Y-121408866D02*
X153165350Y-121361247D01*
X153165350Y-121361247D02*
X153070112Y-121313628D01*
X153070112Y-121313628D02*
X152879636Y-121266009D01*
X152879636Y-121266009D02*
X152784398Y-121218390D01*
X152784398Y-121218390D02*
X152736779Y-121170771D01*
X152736779Y-121170771D02*
X152689160Y-121075533D01*
X152689160Y-121075533D02*
X152689160Y-120980295D01*
X152689160Y-120980295D02*
X152736779Y-120885057D01*
X152736779Y-120885057D02*
X152784398Y-120837438D01*
X152784398Y-120837438D02*
X152879636Y-120789819D01*
X152879636Y-120789819D02*
X153117731Y-120789819D01*
X153117731Y-120789819D02*
X153260588Y-120837438D01*
X154260588Y-121694580D02*
X154212969Y-121742200D01*
X154212969Y-121742200D02*
X154070112Y-121789819D01*
X154070112Y-121789819D02*
X153974874Y-121789819D01*
X153974874Y-121789819D02*
X153832017Y-121742200D01*
X153832017Y-121742200D02*
X153736779Y-121646961D01*
X153736779Y-121646961D02*
X153689160Y-121551723D01*
X153689160Y-121551723D02*
X153641541Y-121361247D01*
X153641541Y-121361247D02*
X153641541Y-121218390D01*
X153641541Y-121218390D02*
X153689160Y-121027914D01*
X153689160Y-121027914D02*
X153736779Y-120932676D01*
X153736779Y-120932676D02*
X153832017Y-120837438D01*
X153832017Y-120837438D02*
X153974874Y-120789819D01*
X153974874Y-120789819D02*
X154070112Y-120789819D01*
X154070112Y-120789819D02*
X154212969Y-120837438D01*
X154212969Y-120837438D02*
X154260588Y-120885057D01*
X155165350Y-121789819D02*
X154689160Y-121789819D01*
X154689160Y-121789819D02*
X154689160Y-120789819D01*
X148180588Y-120837438D02*
X148085350Y-120789819D01*
X148085350Y-120789819D02*
X147942493Y-120789819D01*
X147942493Y-120789819D02*
X147799636Y-120837438D01*
X147799636Y-120837438D02*
X147704398Y-120932676D01*
X147704398Y-120932676D02*
X147656779Y-121027914D01*
X147656779Y-121027914D02*
X147609160Y-121218390D01*
X147609160Y-121218390D02*
X147609160Y-121361247D01*
X147609160Y-121361247D02*
X147656779Y-121551723D01*
X147656779Y-121551723D02*
X147704398Y-121646961D01*
X147704398Y-121646961D02*
X147799636Y-121742200D01*
X147799636Y-121742200D02*
X147942493Y-121789819D01*
X147942493Y-121789819D02*
X148037731Y-121789819D01*
X148037731Y-121789819D02*
X148180588Y-121742200D01*
X148180588Y-121742200D02*
X148228207Y-121694580D01*
X148228207Y-121694580D02*
X148228207Y-121361247D01*
X148228207Y-121361247D02*
X148037731Y-121361247D01*
X148656779Y-121789819D02*
X148656779Y-120789819D01*
X148656779Y-120789819D02*
X149228207Y-121789819D01*
X149228207Y-121789819D02*
X149228207Y-120789819D01*
X149704398Y-121789819D02*
X149704398Y-120789819D01*
X149704398Y-120789819D02*
X149942493Y-120789819D01*
X149942493Y-120789819D02*
X150085350Y-120837438D01*
X150085350Y-120837438D02*
X150180588Y-120932676D01*
X150180588Y-120932676D02*
X150228207Y-121027914D01*
X150228207Y-121027914D02*
X150275826Y-121218390D01*
X150275826Y-121218390D02*
X150275826Y-121361247D01*
X150275826Y-121361247D02*
X150228207Y-121551723D01*
X150228207Y-121551723D02*
X150180588Y-121646961D01*
X150180588Y-121646961D02*
X150085350Y-121742200D01*
X150085350Y-121742200D02*
X149942493Y-121789819D01*
X149942493Y-121789819D02*
X149704398Y-121789819D01*
X189519160Y-121742200D02*
X189662017Y-121789819D01*
X189662017Y-121789819D02*
X189900112Y-121789819D01*
X189900112Y-121789819D02*
X189995350Y-121742200D01*
X189995350Y-121742200D02*
X190042969Y-121694580D01*
X190042969Y-121694580D02*
X190090588Y-121599342D01*
X190090588Y-121599342D02*
X190090588Y-121504104D01*
X190090588Y-121504104D02*
X190042969Y-121408866D01*
X190042969Y-121408866D02*
X189995350Y-121361247D01*
X189995350Y-121361247D02*
X189900112Y-121313628D01*
X189900112Y-121313628D02*
X189709636Y-121266009D01*
X189709636Y-121266009D02*
X189614398Y-121218390D01*
X189614398Y-121218390D02*
X189566779Y-121170771D01*
X189566779Y-121170771D02*
X189519160Y-121075533D01*
X189519160Y-121075533D02*
X189519160Y-120980295D01*
X189519160Y-120980295D02*
X189566779Y-120885057D01*
X189566779Y-120885057D02*
X189614398Y-120837438D01*
X189614398Y-120837438D02*
X189709636Y-120789819D01*
X189709636Y-120789819D02*
X189947731Y-120789819D01*
X189947731Y-120789819D02*
X190090588Y-120837438D01*
X191090588Y-121694580D02*
X191042969Y-121742200D01*
X191042969Y-121742200D02*
X190900112Y-121789819D01*
X190900112Y-121789819D02*
X190804874Y-121789819D01*
X190804874Y-121789819D02*
X190662017Y-121742200D01*
X190662017Y-121742200D02*
X190566779Y-121646961D01*
X190566779Y-121646961D02*
X190519160Y-121551723D01*
X190519160Y-121551723D02*
X190471541Y-121361247D01*
X190471541Y-121361247D02*
X190471541Y-121218390D01*
X190471541Y-121218390D02*
X190519160Y-121027914D01*
X190519160Y-121027914D02*
X190566779Y-120932676D01*
X190566779Y-120932676D02*
X190662017Y-120837438D01*
X190662017Y-120837438D02*
X190804874Y-120789819D01*
X190804874Y-120789819D02*
X190900112Y-120789819D01*
X190900112Y-120789819D02*
X191042969Y-120837438D01*
X191042969Y-120837438D02*
X191090588Y-120885057D01*
X191519160Y-121789819D02*
X191519160Y-120789819D01*
X192090588Y-121789819D02*
X191662017Y-121218390D01*
X192090588Y-120789819D02*
X191519160Y-121361247D01*
X184232779Y-121789819D02*
X184232779Y-120789819D01*
X184232779Y-120789819D02*
X184566112Y-121504104D01*
X184566112Y-121504104D02*
X184899445Y-120789819D01*
X184899445Y-120789819D02*
X184899445Y-121789819D01*
X185375636Y-121789819D02*
X185375636Y-120789819D01*
X185804207Y-121742200D02*
X185947064Y-121789819D01*
X185947064Y-121789819D02*
X186185159Y-121789819D01*
X186185159Y-121789819D02*
X186280397Y-121742200D01*
X186280397Y-121742200D02*
X186328016Y-121694580D01*
X186328016Y-121694580D02*
X186375635Y-121599342D01*
X186375635Y-121599342D02*
X186375635Y-121504104D01*
X186375635Y-121504104D02*
X186328016Y-121408866D01*
X186328016Y-121408866D02*
X186280397Y-121361247D01*
X186280397Y-121361247D02*
X186185159Y-121313628D01*
X186185159Y-121313628D02*
X185994683Y-121266009D01*
X185994683Y-121266009D02*
X185899445Y-121218390D01*
X185899445Y-121218390D02*
X185851826Y-121170771D01*
X185851826Y-121170771D02*
X185804207Y-121075533D01*
X185804207Y-121075533D02*
X185804207Y-120980295D01*
X185804207Y-120980295D02*
X185851826Y-120885057D01*
X185851826Y-120885057D02*
X185899445Y-120837438D01*
X185899445Y-120837438D02*
X185994683Y-120789819D01*
X185994683Y-120789819D02*
X186232778Y-120789819D01*
X186232778Y-120789819D02*
X186375635Y-120837438D01*
X186994683Y-120789819D02*
X187185159Y-120789819D01*
X187185159Y-120789819D02*
X187280397Y-120837438D01*
X187280397Y-120837438D02*
X187375635Y-120932676D01*
X187375635Y-120932676D02*
X187423254Y-121123152D01*
X187423254Y-121123152D02*
X187423254Y-121456485D01*
X187423254Y-121456485D02*
X187375635Y-121646961D01*
X187375635Y-121646961D02*
X187280397Y-121742200D01*
X187280397Y-121742200D02*
X187185159Y-121789819D01*
X187185159Y-121789819D02*
X186994683Y-121789819D01*
X186994683Y-121789819D02*
X186899445Y-121742200D01*
X186899445Y-121742200D02*
X186804207Y-121646961D01*
X186804207Y-121646961D02*
X186756588Y-121456485D01*
X186756588Y-121456485D02*
X186756588Y-121123152D01*
X186756588Y-121123152D02*
X186804207Y-120932676D01*
X186804207Y-120932676D02*
X186899445Y-120837438D01*
X186899445Y-120837438D02*
X186994683Y-120789819D01*
X178644779Y-121789819D02*
X178644779Y-120789819D01*
X178644779Y-120789819D02*
X178978112Y-121504104D01*
X178978112Y-121504104D02*
X179311445Y-120789819D01*
X179311445Y-120789819D02*
X179311445Y-121789819D01*
X179978112Y-120789819D02*
X180168588Y-120789819D01*
X180168588Y-120789819D02*
X180263826Y-120837438D01*
X180263826Y-120837438D02*
X180359064Y-120932676D01*
X180359064Y-120932676D02*
X180406683Y-121123152D01*
X180406683Y-121123152D02*
X180406683Y-121456485D01*
X180406683Y-121456485D02*
X180359064Y-121646961D01*
X180359064Y-121646961D02*
X180263826Y-121742200D01*
X180263826Y-121742200D02*
X180168588Y-121789819D01*
X180168588Y-121789819D02*
X179978112Y-121789819D01*
X179978112Y-121789819D02*
X179882874Y-121742200D01*
X179882874Y-121742200D02*
X179787636Y-121646961D01*
X179787636Y-121646961D02*
X179740017Y-121456485D01*
X179740017Y-121456485D02*
X179740017Y-121123152D01*
X179740017Y-121123152D02*
X179787636Y-120932676D01*
X179787636Y-120932676D02*
X179882874Y-120837438D01*
X179882874Y-120837438D02*
X179978112Y-120789819D01*
X180787636Y-121742200D02*
X180930493Y-121789819D01*
X180930493Y-121789819D02*
X181168588Y-121789819D01*
X181168588Y-121789819D02*
X181263826Y-121742200D01*
X181263826Y-121742200D02*
X181311445Y-121694580D01*
X181311445Y-121694580D02*
X181359064Y-121599342D01*
X181359064Y-121599342D02*
X181359064Y-121504104D01*
X181359064Y-121504104D02*
X181311445Y-121408866D01*
X181311445Y-121408866D02*
X181263826Y-121361247D01*
X181263826Y-121361247D02*
X181168588Y-121313628D01*
X181168588Y-121313628D02*
X180978112Y-121266009D01*
X180978112Y-121266009D02*
X180882874Y-121218390D01*
X180882874Y-121218390D02*
X180835255Y-121170771D01*
X180835255Y-121170771D02*
X180787636Y-121075533D01*
X180787636Y-121075533D02*
X180787636Y-120980295D01*
X180787636Y-120980295D02*
X180835255Y-120885057D01*
X180835255Y-120885057D02*
X180882874Y-120837438D01*
X180882874Y-120837438D02*
X180978112Y-120789819D01*
X180978112Y-120789819D02*
X181216207Y-120789819D01*
X181216207Y-120789819D02*
X181359064Y-120837438D01*
X181787636Y-121789819D02*
X181787636Y-120789819D01*
X175406207Y-121694580D02*
X175358588Y-121742200D01*
X175358588Y-121742200D02*
X175215731Y-121789819D01*
X175215731Y-121789819D02*
X175120493Y-121789819D01*
X175120493Y-121789819D02*
X174977636Y-121742200D01*
X174977636Y-121742200D02*
X174882398Y-121646961D01*
X174882398Y-121646961D02*
X174834779Y-121551723D01*
X174834779Y-121551723D02*
X174787160Y-121361247D01*
X174787160Y-121361247D02*
X174787160Y-121218390D01*
X174787160Y-121218390D02*
X174834779Y-121027914D01*
X174834779Y-121027914D02*
X174882398Y-120932676D01*
X174882398Y-120932676D02*
X174977636Y-120837438D01*
X174977636Y-120837438D02*
X175120493Y-120789819D01*
X175120493Y-120789819D02*
X175215731Y-120789819D01*
X175215731Y-120789819D02*
X175358588Y-120837438D01*
X175358588Y-120837438D02*
X175406207Y-120885057D01*
X175787160Y-121742200D02*
X175930017Y-121789819D01*
X175930017Y-121789819D02*
X176168112Y-121789819D01*
X176168112Y-121789819D02*
X176263350Y-121742200D01*
X176263350Y-121742200D02*
X176310969Y-121694580D01*
X176310969Y-121694580D02*
X176358588Y-121599342D01*
X176358588Y-121599342D02*
X176358588Y-121504104D01*
X176358588Y-121504104D02*
X176310969Y-121408866D01*
X176310969Y-121408866D02*
X176263350Y-121361247D01*
X176263350Y-121361247D02*
X176168112Y-121313628D01*
X176168112Y-121313628D02*
X175977636Y-121266009D01*
X175977636Y-121266009D02*
X175882398Y-121218390D01*
X175882398Y-121218390D02*
X175834779Y-121170771D01*
X175834779Y-121170771D02*
X175787160Y-121075533D01*
X175787160Y-121075533D02*
X175787160Y-120980295D01*
X175787160Y-120980295D02*
X175834779Y-120885057D01*
X175834779Y-120885057D02*
X175882398Y-120837438D01*
X175882398Y-120837438D02*
X175977636Y-120789819D01*
X175977636Y-120789819D02*
X176215731Y-120789819D01*
X176215731Y-120789819D02*
X176358588Y-120837438D01*
X169405541Y-120789819D02*
X170024588Y-120789819D01*
X170024588Y-120789819D02*
X169691255Y-121170771D01*
X169691255Y-121170771D02*
X169834112Y-121170771D01*
X169834112Y-121170771D02*
X169929350Y-121218390D01*
X169929350Y-121218390D02*
X169976969Y-121266009D01*
X169976969Y-121266009D02*
X170024588Y-121361247D01*
X170024588Y-121361247D02*
X170024588Y-121599342D01*
X170024588Y-121599342D02*
X169976969Y-121694580D01*
X169976969Y-121694580D02*
X169929350Y-121742200D01*
X169929350Y-121742200D02*
X169834112Y-121789819D01*
X169834112Y-121789819D02*
X169548398Y-121789819D01*
X169548398Y-121789819D02*
X169453160Y-121742200D01*
X169453160Y-121742200D02*
X169405541Y-121694580D01*
X170453160Y-121694580D02*
X170500779Y-121742200D01*
X170500779Y-121742200D02*
X170453160Y-121789819D01*
X170453160Y-121789819D02*
X170405541Y-121742200D01*
X170405541Y-121742200D02*
X170453160Y-121694580D01*
X170453160Y-121694580D02*
X170453160Y-121789819D01*
X170834112Y-120789819D02*
X171453159Y-120789819D01*
X171453159Y-120789819D02*
X171119826Y-121170771D01*
X171119826Y-121170771D02*
X171262683Y-121170771D01*
X171262683Y-121170771D02*
X171357921Y-121218390D01*
X171357921Y-121218390D02*
X171405540Y-121266009D01*
X171405540Y-121266009D02*
X171453159Y-121361247D01*
X171453159Y-121361247D02*
X171453159Y-121599342D01*
X171453159Y-121599342D02*
X171405540Y-121694580D01*
X171405540Y-121694580D02*
X171357921Y-121742200D01*
X171357921Y-121742200D02*
X171262683Y-121789819D01*
X171262683Y-121789819D02*
X170976969Y-121789819D01*
X170976969Y-121789819D02*
X170881731Y-121742200D01*
X170881731Y-121742200D02*
X170834112Y-121694580D01*
X171738874Y-120789819D02*
X172072207Y-121789819D01*
X172072207Y-121789819D02*
X172405540Y-120789819D01*
X195170588Y-120837438D02*
X195075350Y-120789819D01*
X195075350Y-120789819D02*
X194932493Y-120789819D01*
X194932493Y-120789819D02*
X194789636Y-120837438D01*
X194789636Y-120837438D02*
X194694398Y-120932676D01*
X194694398Y-120932676D02*
X194646779Y-121027914D01*
X194646779Y-121027914D02*
X194599160Y-121218390D01*
X194599160Y-121218390D02*
X194599160Y-121361247D01*
X194599160Y-121361247D02*
X194646779Y-121551723D01*
X194646779Y-121551723D02*
X194694398Y-121646961D01*
X194694398Y-121646961D02*
X194789636Y-121742200D01*
X194789636Y-121742200D02*
X194932493Y-121789819D01*
X194932493Y-121789819D02*
X195027731Y-121789819D01*
X195027731Y-121789819D02*
X195170588Y-121742200D01*
X195170588Y-121742200D02*
X195218207Y-121694580D01*
X195218207Y-121694580D02*
X195218207Y-121361247D01*
X195218207Y-121361247D02*
X195027731Y-121361247D01*
X195646779Y-121789819D02*
X195646779Y-120789819D01*
X195646779Y-120789819D02*
X196218207Y-121789819D01*
X196218207Y-121789819D02*
X196218207Y-120789819D01*
X196694398Y-121789819D02*
X196694398Y-120789819D01*
X196694398Y-120789819D02*
X196932493Y-120789819D01*
X196932493Y-120789819D02*
X197075350Y-120837438D01*
X197075350Y-120837438D02*
X197170588Y-120932676D01*
X197170588Y-120932676D02*
X197218207Y-121027914D01*
X197218207Y-121027914D02*
X197265826Y-121218390D01*
X197265826Y-121218390D02*
X197265826Y-121361247D01*
X197265826Y-121361247D02*
X197218207Y-121551723D01*
X197218207Y-121551723D02*
X197170588Y-121646961D01*
X197170588Y-121646961D02*
X197075350Y-121742200D01*
X197075350Y-121742200D02*
X196932493Y-121789819D01*
X196932493Y-121789819D02*
X196694398Y-121789819D01*
X205940207Y-73046390D02*
X205864017Y-73008295D01*
X205864017Y-73008295D02*
X205749731Y-73008295D01*
X205749731Y-73008295D02*
X205635445Y-73046390D01*
X205635445Y-73046390D02*
X205559255Y-73122580D01*
X205559255Y-73122580D02*
X205521160Y-73198771D01*
X205521160Y-73198771D02*
X205483064Y-73351152D01*
X205483064Y-73351152D02*
X205483064Y-73465438D01*
X205483064Y-73465438D02*
X205521160Y-73617819D01*
X205521160Y-73617819D02*
X205559255Y-73694009D01*
X205559255Y-73694009D02*
X205635445Y-73770200D01*
X205635445Y-73770200D02*
X205749731Y-73808295D01*
X205749731Y-73808295D02*
X205825922Y-73808295D01*
X205825922Y-73808295D02*
X205940207Y-73770200D01*
X205940207Y-73770200D02*
X205978303Y-73732104D01*
X205978303Y-73732104D02*
X205978303Y-73465438D01*
X205978303Y-73465438D02*
X205825922Y-73465438D01*
X206321160Y-73808295D02*
X206321160Y-73008295D01*
X206321160Y-73008295D02*
X206778303Y-73808295D01*
X206778303Y-73808295D02*
X206778303Y-73008295D01*
X207159255Y-73808295D02*
X207159255Y-73008295D01*
X207159255Y-73008295D02*
X207349731Y-73008295D01*
X207349731Y-73008295D02*
X207464017Y-73046390D01*
X207464017Y-73046390D02*
X207540207Y-73122580D01*
X207540207Y-73122580D02*
X207578302Y-73198771D01*
X207578302Y-73198771D02*
X207616398Y-73351152D01*
X207616398Y-73351152D02*
X207616398Y-73465438D01*
X207616398Y-73465438D02*
X207578302Y-73617819D01*
X207578302Y-73617819D02*
X207540207Y-73694009D01*
X207540207Y-73694009D02*
X207464017Y-73770200D01*
X207464017Y-73770200D02*
X207349731Y-73808295D01*
X207349731Y-73808295D02*
X207159255Y-73808295D01*
X205940207Y-79396390D02*
X205864017Y-79358295D01*
X205864017Y-79358295D02*
X205749731Y-79358295D01*
X205749731Y-79358295D02*
X205635445Y-79396390D01*
X205635445Y-79396390D02*
X205559255Y-79472580D01*
X205559255Y-79472580D02*
X205521160Y-79548771D01*
X205521160Y-79548771D02*
X205483064Y-79701152D01*
X205483064Y-79701152D02*
X205483064Y-79815438D01*
X205483064Y-79815438D02*
X205521160Y-79967819D01*
X205521160Y-79967819D02*
X205559255Y-80044009D01*
X205559255Y-80044009D02*
X205635445Y-80120200D01*
X205635445Y-80120200D02*
X205749731Y-80158295D01*
X205749731Y-80158295D02*
X205825922Y-80158295D01*
X205825922Y-80158295D02*
X205940207Y-80120200D01*
X205940207Y-80120200D02*
X205978303Y-80082104D01*
X205978303Y-80082104D02*
X205978303Y-79815438D01*
X205978303Y-79815438D02*
X205825922Y-79815438D01*
X206321160Y-80158295D02*
X206321160Y-79358295D01*
X206321160Y-79358295D02*
X206778303Y-80158295D01*
X206778303Y-80158295D02*
X206778303Y-79358295D01*
X207159255Y-80158295D02*
X207159255Y-79358295D01*
X207159255Y-79358295D02*
X207349731Y-79358295D01*
X207349731Y-79358295D02*
X207464017Y-79396390D01*
X207464017Y-79396390D02*
X207540207Y-79472580D01*
X207540207Y-79472580D02*
X207578302Y-79548771D01*
X207578302Y-79548771D02*
X207616398Y-79701152D01*
X207616398Y-79701152D02*
X207616398Y-79815438D01*
X207616398Y-79815438D02*
X207578302Y-79967819D01*
X207578302Y-79967819D02*
X207540207Y-80044009D01*
X207540207Y-80044009D02*
X207464017Y-80120200D01*
X207464017Y-80120200D02*
X207349731Y-80158295D01*
X207349731Y-80158295D02*
X207159255Y-80158295D01*
X195932588Y-73593438D02*
X195837350Y-73545819D01*
X195837350Y-73545819D02*
X195694493Y-73545819D01*
X195694493Y-73545819D02*
X195551636Y-73593438D01*
X195551636Y-73593438D02*
X195456398Y-73688676D01*
X195456398Y-73688676D02*
X195408779Y-73783914D01*
X195408779Y-73783914D02*
X195361160Y-73974390D01*
X195361160Y-73974390D02*
X195361160Y-74117247D01*
X195361160Y-74117247D02*
X195408779Y-74307723D01*
X195408779Y-74307723D02*
X195456398Y-74402961D01*
X195456398Y-74402961D02*
X195551636Y-74498200D01*
X195551636Y-74498200D02*
X195694493Y-74545819D01*
X195694493Y-74545819D02*
X195789731Y-74545819D01*
X195789731Y-74545819D02*
X195932588Y-74498200D01*
X195932588Y-74498200D02*
X195980207Y-74450580D01*
X195980207Y-74450580D02*
X195980207Y-74117247D01*
X195980207Y-74117247D02*
X195789731Y-74117247D01*
X196408779Y-74545819D02*
X196408779Y-73545819D01*
X196408779Y-73545819D02*
X196980207Y-74545819D01*
X196980207Y-74545819D02*
X196980207Y-73545819D01*
X197456398Y-74545819D02*
X197456398Y-73545819D01*
X197456398Y-73545819D02*
X197694493Y-73545819D01*
X197694493Y-73545819D02*
X197837350Y-73593438D01*
X197837350Y-73593438D02*
X197932588Y-73688676D01*
X197932588Y-73688676D02*
X197980207Y-73783914D01*
X197980207Y-73783914D02*
X198027826Y-73974390D01*
X198027826Y-73974390D02*
X198027826Y-74117247D01*
X198027826Y-74117247D02*
X197980207Y-74307723D01*
X197980207Y-74307723D02*
X197932588Y-74402961D01*
X197932588Y-74402961D02*
X197837350Y-74498200D01*
X197837350Y-74498200D02*
X197694493Y-74545819D01*
X197694493Y-74545819D02*
X197456398Y-74545819D01*
X181406969Y-73545819D02*
X180930779Y-73545819D01*
X180930779Y-73545819D02*
X180883160Y-74022009D01*
X180883160Y-74022009D02*
X180930779Y-73974390D01*
X180930779Y-73974390D02*
X181026017Y-73926771D01*
X181026017Y-73926771D02*
X181264112Y-73926771D01*
X181264112Y-73926771D02*
X181359350Y-73974390D01*
X181359350Y-73974390D02*
X181406969Y-74022009D01*
X181406969Y-74022009D02*
X181454588Y-74117247D01*
X181454588Y-74117247D02*
X181454588Y-74355342D01*
X181454588Y-74355342D02*
X181406969Y-74450580D01*
X181406969Y-74450580D02*
X181359350Y-74498200D01*
X181359350Y-74498200D02*
X181264112Y-74545819D01*
X181264112Y-74545819D02*
X181026017Y-74545819D01*
X181026017Y-74545819D02*
X180930779Y-74498200D01*
X180930779Y-74498200D02*
X180883160Y-74450580D01*
X181740303Y-73545819D02*
X182073636Y-74545819D01*
X182073636Y-74545819D02*
X182406969Y-73545819D01*
X191201922Y-73545819D02*
X191773350Y-73545819D01*
X191487636Y-74545819D02*
X191487636Y-73545819D01*
X192011446Y-73545819D02*
X192678112Y-74545819D01*
X192678112Y-73545819D02*
X192011446Y-74545819D01*
X186836207Y-74545819D02*
X186502874Y-74069628D01*
X186264779Y-74545819D02*
X186264779Y-73545819D01*
X186264779Y-73545819D02*
X186645731Y-73545819D01*
X186645731Y-73545819D02*
X186740969Y-73593438D01*
X186740969Y-73593438D02*
X186788588Y-73641057D01*
X186788588Y-73641057D02*
X186836207Y-73736295D01*
X186836207Y-73736295D02*
X186836207Y-73879152D01*
X186836207Y-73879152D02*
X186788588Y-73974390D01*
X186788588Y-73974390D02*
X186740969Y-74022009D01*
X186740969Y-74022009D02*
X186645731Y-74069628D01*
X186645731Y-74069628D02*
X186264779Y-74069628D01*
X187169541Y-73545819D02*
X187836207Y-74545819D01*
X187836207Y-73545819D02*
X187169541Y-74545819D01*
X189376207Y-76482580D02*
X189328588Y-76530200D01*
X189328588Y-76530200D02*
X189185731Y-76577819D01*
X189185731Y-76577819D02*
X189090493Y-76577819D01*
X189090493Y-76577819D02*
X188947636Y-76530200D01*
X188947636Y-76530200D02*
X188852398Y-76434961D01*
X188852398Y-76434961D02*
X188804779Y-76339723D01*
X188804779Y-76339723D02*
X188757160Y-76149247D01*
X188757160Y-76149247D02*
X188757160Y-76006390D01*
X188757160Y-76006390D02*
X188804779Y-75815914D01*
X188804779Y-75815914D02*
X188852398Y-75720676D01*
X188852398Y-75720676D02*
X188947636Y-75625438D01*
X188947636Y-75625438D02*
X189090493Y-75577819D01*
X189090493Y-75577819D02*
X189185731Y-75577819D01*
X189185731Y-75577819D02*
X189328588Y-75625438D01*
X189328588Y-75625438D02*
X189376207Y-75673057D01*
X189757160Y-76292104D02*
X190233350Y-76292104D01*
X189661922Y-76577819D02*
X189995255Y-75577819D01*
X189995255Y-75577819D02*
X190328588Y-76577819D01*
X190661922Y-76577819D02*
X190661922Y-75577819D01*
X190661922Y-75577819D02*
X191233350Y-76577819D01*
X191233350Y-76577819D02*
X191233350Y-75577819D01*
X204711541Y-74815819D02*
X205330588Y-74815819D01*
X205330588Y-74815819D02*
X204997255Y-75196771D01*
X204997255Y-75196771D02*
X205140112Y-75196771D01*
X205140112Y-75196771D02*
X205235350Y-75244390D01*
X205235350Y-75244390D02*
X205282969Y-75292009D01*
X205282969Y-75292009D02*
X205330588Y-75387247D01*
X205330588Y-75387247D02*
X205330588Y-75625342D01*
X205330588Y-75625342D02*
X205282969Y-75720580D01*
X205282969Y-75720580D02*
X205235350Y-75768200D01*
X205235350Y-75768200D02*
X205140112Y-75815819D01*
X205140112Y-75815819D02*
X204854398Y-75815819D01*
X204854398Y-75815819D02*
X204759160Y-75768200D01*
X204759160Y-75768200D02*
X204711541Y-75720580D01*
X205759160Y-75720580D02*
X205806779Y-75768200D01*
X205806779Y-75768200D02*
X205759160Y-75815819D01*
X205759160Y-75815819D02*
X205711541Y-75768200D01*
X205711541Y-75768200D02*
X205759160Y-75720580D01*
X205759160Y-75720580D02*
X205759160Y-75815819D01*
X206140112Y-74815819D02*
X206759159Y-74815819D01*
X206759159Y-74815819D02*
X206425826Y-75196771D01*
X206425826Y-75196771D02*
X206568683Y-75196771D01*
X206568683Y-75196771D02*
X206663921Y-75244390D01*
X206663921Y-75244390D02*
X206711540Y-75292009D01*
X206711540Y-75292009D02*
X206759159Y-75387247D01*
X206759159Y-75387247D02*
X206759159Y-75625342D01*
X206759159Y-75625342D02*
X206711540Y-75720580D01*
X206711540Y-75720580D02*
X206663921Y-75768200D01*
X206663921Y-75768200D02*
X206568683Y-75815819D01*
X206568683Y-75815819D02*
X206282969Y-75815819D01*
X206282969Y-75815819D02*
X206187731Y-75768200D01*
X206187731Y-75768200D02*
X206140112Y-75720580D01*
X207044874Y-74815819D02*
X207378207Y-75815819D01*
X207378207Y-75815819D02*
X207711540Y-74815819D01*
X206552969Y-80911819D02*
X206076779Y-80911819D01*
X206076779Y-80911819D02*
X206029160Y-81388009D01*
X206029160Y-81388009D02*
X206076779Y-81340390D01*
X206076779Y-81340390D02*
X206172017Y-81292771D01*
X206172017Y-81292771D02*
X206410112Y-81292771D01*
X206410112Y-81292771D02*
X206505350Y-81340390D01*
X206505350Y-81340390D02*
X206552969Y-81388009D01*
X206552969Y-81388009D02*
X206600588Y-81483247D01*
X206600588Y-81483247D02*
X206600588Y-81721342D01*
X206600588Y-81721342D02*
X206552969Y-81816580D01*
X206552969Y-81816580D02*
X206505350Y-81864200D01*
X206505350Y-81864200D02*
X206410112Y-81911819D01*
X206410112Y-81911819D02*
X206172017Y-81911819D01*
X206172017Y-81911819D02*
X206076779Y-81864200D01*
X206076779Y-81864200D02*
X206029160Y-81816580D01*
X206886303Y-80911819D02*
X207219636Y-81911819D01*
X207219636Y-81911819D02*
X207552969Y-80911819D01*
X155741810Y-119326819D02*
X155741810Y-118326819D01*
X156170381Y-118422057D02*
X156218000Y-118374438D01*
X156218000Y-118374438D02*
X156313238Y-118326819D01*
X156313238Y-118326819D02*
X156551333Y-118326819D01*
X156551333Y-118326819D02*
X156646571Y-118374438D01*
X156646571Y-118374438D02*
X156694190Y-118422057D01*
X156694190Y-118422057D02*
X156741809Y-118517295D01*
X156741809Y-118517295D02*
X156741809Y-118612533D01*
X156741809Y-118612533D02*
X156694190Y-118755390D01*
X156694190Y-118755390D02*
X156122762Y-119326819D01*
X156122762Y-119326819D02*
X156741809Y-119326819D01*
X157741809Y-119231580D02*
X157694190Y-119279200D01*
X157694190Y-119279200D02*
X157551333Y-119326819D01*
X157551333Y-119326819D02*
X157456095Y-119326819D01*
X157456095Y-119326819D02*
X157313238Y-119279200D01*
X157313238Y-119279200D02*
X157218000Y-119183961D01*
X157218000Y-119183961D02*
X157170381Y-119088723D01*
X157170381Y-119088723D02*
X157122762Y-118898247D01*
X157122762Y-118898247D02*
X157122762Y-118755390D01*
X157122762Y-118755390D02*
X157170381Y-118564914D01*
X157170381Y-118564914D02*
X157218000Y-118469676D01*
X157218000Y-118469676D02*
X157313238Y-118374438D01*
X157313238Y-118374438D02*
X157456095Y-118326819D01*
X157456095Y-118326819D02*
X157551333Y-118326819D01*
X157551333Y-118326819D02*
X157694190Y-118374438D01*
X157694190Y-118374438D02*
X157741809Y-118422057D01*
X139869104Y-116482190D02*
X139869104Y-116006000D01*
X140154819Y-116577428D02*
X139154819Y-116244095D01*
X139154819Y-116244095D02*
X140154819Y-115910762D01*
X139488152Y-115577428D02*
X140154819Y-115577428D01*
X139583390Y-115577428D02*
X139535771Y-115529809D01*
X139535771Y-115529809D02*
X139488152Y-115434571D01*
X139488152Y-115434571D02*
X139488152Y-115291714D01*
X139488152Y-115291714D02*
X139535771Y-115196476D01*
X139535771Y-115196476D02*
X139631009Y-115148857D01*
X139631009Y-115148857D02*
X140154819Y-115148857D01*
X140154819Y-114244095D02*
X139631009Y-114244095D01*
X139631009Y-114244095D02*
X139535771Y-114291714D01*
X139535771Y-114291714D02*
X139488152Y-114386952D01*
X139488152Y-114386952D02*
X139488152Y-114577428D01*
X139488152Y-114577428D02*
X139535771Y-114672666D01*
X140107200Y-114244095D02*
X140154819Y-114339333D01*
X140154819Y-114339333D02*
X140154819Y-114577428D01*
X140154819Y-114577428D02*
X140107200Y-114672666D01*
X140107200Y-114672666D02*
X140011961Y-114720285D01*
X140011961Y-114720285D02*
X139916723Y-114720285D01*
X139916723Y-114720285D02*
X139821485Y-114672666D01*
X139821485Y-114672666D02*
X139773866Y-114577428D01*
X139773866Y-114577428D02*
X139773866Y-114339333D01*
X139773866Y-114339333D02*
X139726247Y-114244095D01*
X140154819Y-113625047D02*
X140107200Y-113720285D01*
X140107200Y-113720285D02*
X140011961Y-113767904D01*
X140011961Y-113767904D02*
X139154819Y-113767904D01*
X140154819Y-113101237D02*
X140107200Y-113196475D01*
X140107200Y-113196475D02*
X140059580Y-113244094D01*
X140059580Y-113244094D02*
X139964342Y-113291713D01*
X139964342Y-113291713D02*
X139678628Y-113291713D01*
X139678628Y-113291713D02*
X139583390Y-113244094D01*
X139583390Y-113244094D02*
X139535771Y-113196475D01*
X139535771Y-113196475D02*
X139488152Y-113101237D01*
X139488152Y-113101237D02*
X139488152Y-112958380D01*
X139488152Y-112958380D02*
X139535771Y-112863142D01*
X139535771Y-112863142D02*
X139583390Y-112815523D01*
X139583390Y-112815523D02*
X139678628Y-112767904D01*
X139678628Y-112767904D02*
X139964342Y-112767904D01*
X139964342Y-112767904D02*
X140059580Y-112815523D01*
X140059580Y-112815523D02*
X140107200Y-112863142D01*
X140107200Y-112863142D02*
X140154819Y-112958380D01*
X140154819Y-112958380D02*
X140154819Y-113101237D01*
X139488152Y-111910761D02*
X140297676Y-111910761D01*
X140297676Y-111910761D02*
X140392914Y-111958380D01*
X140392914Y-111958380D02*
X140440533Y-112005999D01*
X140440533Y-112005999D02*
X140488152Y-112101237D01*
X140488152Y-112101237D02*
X140488152Y-112244094D01*
X140488152Y-112244094D02*
X140440533Y-112339332D01*
X140107200Y-111910761D02*
X140154819Y-112005999D01*
X140154819Y-112005999D02*
X140154819Y-112196475D01*
X140154819Y-112196475D02*
X140107200Y-112291713D01*
X140107200Y-112291713D02*
X140059580Y-112339332D01*
X140059580Y-112339332D02*
X139964342Y-112386951D01*
X139964342Y-112386951D02*
X139678628Y-112386951D01*
X139678628Y-112386951D02*
X139583390Y-112339332D01*
X139583390Y-112339332D02*
X139535771Y-112291713D01*
X139535771Y-112291713D02*
X139488152Y-112196475D01*
X139488152Y-112196475D02*
X139488152Y-112005999D01*
X139488152Y-112005999D02*
X139535771Y-111910761D01*
X140154819Y-110672665D02*
X139154819Y-110672665D01*
X139488152Y-110196475D02*
X140154819Y-110196475D01*
X139583390Y-110196475D02*
X139535771Y-110148856D01*
X139535771Y-110148856D02*
X139488152Y-110053618D01*
X139488152Y-110053618D02*
X139488152Y-109910761D01*
X139488152Y-109910761D02*
X139535771Y-109815523D01*
X139535771Y-109815523D02*
X139631009Y-109767904D01*
X139631009Y-109767904D02*
X140154819Y-109767904D01*
X139488152Y-109291713D02*
X140488152Y-109291713D01*
X139535771Y-109291713D02*
X139488152Y-109196475D01*
X139488152Y-109196475D02*
X139488152Y-109005999D01*
X139488152Y-109005999D02*
X139535771Y-108910761D01*
X139535771Y-108910761D02*
X139583390Y-108863142D01*
X139583390Y-108863142D02*
X139678628Y-108815523D01*
X139678628Y-108815523D02*
X139964342Y-108815523D01*
X139964342Y-108815523D02*
X140059580Y-108863142D01*
X140059580Y-108863142D02*
X140107200Y-108910761D01*
X140107200Y-108910761D02*
X140154819Y-109005999D01*
X140154819Y-109005999D02*
X140154819Y-109196475D01*
X140154819Y-109196475D02*
X140107200Y-109291713D01*
X139488152Y-107958380D02*
X140154819Y-107958380D01*
X139488152Y-108386951D02*
X140011961Y-108386951D01*
X140011961Y-108386951D02*
X140107200Y-108339332D01*
X140107200Y-108339332D02*
X140154819Y-108244094D01*
X140154819Y-108244094D02*
X140154819Y-108101237D01*
X140154819Y-108101237D02*
X140107200Y-108005999D01*
X140107200Y-108005999D02*
X140059580Y-107958380D01*
X139488152Y-107625046D02*
X139488152Y-107244094D01*
X139154819Y-107482189D02*
X140011961Y-107482189D01*
X140011961Y-107482189D02*
X140107200Y-107434570D01*
X140107200Y-107434570D02*
X140154819Y-107339332D01*
X140154819Y-107339332D02*
X140154819Y-107244094D01*
X140107200Y-106958379D02*
X140154819Y-106863141D01*
X140154819Y-106863141D02*
X140154819Y-106672665D01*
X140154819Y-106672665D02*
X140107200Y-106577427D01*
X140107200Y-106577427D02*
X140011961Y-106529808D01*
X140011961Y-106529808D02*
X139964342Y-106529808D01*
X139964342Y-106529808D02*
X139869104Y-106577427D01*
X139869104Y-106577427D02*
X139821485Y-106672665D01*
X139821485Y-106672665D02*
X139821485Y-106815522D01*
X139821485Y-106815522D02*
X139773866Y-106910760D01*
X139773866Y-106910760D02*
X139678628Y-106958379D01*
X139678628Y-106958379D02*
X139631009Y-106958379D01*
X139631009Y-106958379D02*
X139535771Y-106910760D01*
X139535771Y-106910760D02*
X139488152Y-106815522D01*
X139488152Y-106815522D02*
X139488152Y-106672665D01*
X139488152Y-106672665D02*
X139535771Y-106577427D01*
X182110191Y-119025200D02*
X182253048Y-119072819D01*
X182253048Y-119072819D02*
X182491143Y-119072819D01*
X182491143Y-119072819D02*
X182586381Y-119025200D01*
X182586381Y-119025200D02*
X182634000Y-118977580D01*
X182634000Y-118977580D02*
X182681619Y-118882342D01*
X182681619Y-118882342D02*
X182681619Y-118787104D01*
X182681619Y-118787104D02*
X182634000Y-118691866D01*
X182634000Y-118691866D02*
X182586381Y-118644247D01*
X182586381Y-118644247D02*
X182491143Y-118596628D01*
X182491143Y-118596628D02*
X182300667Y-118549009D01*
X182300667Y-118549009D02*
X182205429Y-118501390D01*
X182205429Y-118501390D02*
X182157810Y-118453771D01*
X182157810Y-118453771D02*
X182110191Y-118358533D01*
X182110191Y-118358533D02*
X182110191Y-118263295D01*
X182110191Y-118263295D02*
X182157810Y-118168057D01*
X182157810Y-118168057D02*
X182205429Y-118120438D01*
X182205429Y-118120438D02*
X182300667Y-118072819D01*
X182300667Y-118072819D02*
X182538762Y-118072819D01*
X182538762Y-118072819D02*
X182681619Y-118120438D01*
X183110191Y-119072819D02*
X183110191Y-118072819D01*
X183110191Y-118072819D02*
X183491143Y-118072819D01*
X183491143Y-118072819D02*
X183586381Y-118120438D01*
X183586381Y-118120438D02*
X183634000Y-118168057D01*
X183634000Y-118168057D02*
X183681619Y-118263295D01*
X183681619Y-118263295D02*
X183681619Y-118406152D01*
X183681619Y-118406152D02*
X183634000Y-118501390D01*
X183634000Y-118501390D02*
X183586381Y-118549009D01*
X183586381Y-118549009D02*
X183491143Y-118596628D01*
X183491143Y-118596628D02*
X183110191Y-118596628D01*
X184110191Y-119072819D02*
X184110191Y-118072819D01*
X139620666Y-133483819D02*
X139620666Y-134198104D01*
X139620666Y-134198104D02*
X139573047Y-134340961D01*
X139573047Y-134340961D02*
X139477809Y-134436200D01*
X139477809Y-134436200D02*
X139334952Y-134483819D01*
X139334952Y-134483819D02*
X139239714Y-134483819D01*
X140620666Y-134483819D02*
X140049238Y-134483819D01*
X140334952Y-134483819D02*
X140334952Y-133483819D01*
X140334952Y-133483819D02*
X140239714Y-133626676D01*
X140239714Y-133626676D02*
X140144476Y-133721914D01*
X140144476Y-133721914D02*
X140049238Y-133769533D01*
D11*
%TO.C,R3*%
X144425641Y-96138000D02*
X144118359Y-96138000D01*
X144425641Y-95378000D02*
X144118359Y-95378000D01*
%TO.C,D1*%
X167171000Y-61495000D02*
X167171000Y-62965000D01*
X167171000Y-62965000D02*
X169456000Y-62965000D01*
X169456000Y-61495000D02*
X167171000Y-61495000D01*
%TO.C,XC6206P332MR1*%
X196560000Y-104140000D02*
X196560000Y-105940000D01*
X196560000Y-104140000D02*
X196560000Y-103340000D01*
X199680000Y-104140000D02*
X199680000Y-104940000D01*
X199680000Y-104140000D02*
X199680000Y-103340000D01*
%TO.C,R1*%
X167004000Y-112876359D02*
X167004000Y-113183641D01*
X166244000Y-112876359D02*
X166244000Y-113183641D01*
%TO.C,C9*%
X127111836Y-83672000D02*
X126896164Y-83672000D01*
X127111836Y-82952000D02*
X126896164Y-82952000D01*
%TO.C,R2*%
X164974000Y-113183641D02*
X164974000Y-112876359D01*
X165734000Y-113183641D02*
X165734000Y-112876359D01*
%TO.C,R4*%
X154585641Y-100964000D02*
X154278359Y-100964000D01*
X154585641Y-100204000D02*
X154278359Y-100204000D01*
%TO.C,J7*%
X210914000Y-82040000D02*
X209804000Y-82040000D01*
X210914000Y-81280000D02*
X210914000Y-82040000D01*
X210914000Y-80520000D02*
X210914000Y-79315000D01*
X210914000Y-80520000D02*
X210367471Y-80520000D01*
X210914000Y-79315000D02*
X210111530Y-79315000D01*
X209496470Y-79315000D02*
X208694000Y-79315000D01*
X209240529Y-80520000D02*
X208694000Y-80520000D01*
X208694000Y-80520000D02*
X208694000Y-79315000D01*
%TO.C,SW1*%
X125350000Y-78102000D02*
X128650000Y-78102000D01*
X125350000Y-78402000D02*
X125350000Y-78102000D01*
X125350000Y-80602000D02*
X125350000Y-80902000D01*
X125350000Y-80902000D02*
X128650000Y-80902000D01*
X128650000Y-78102000D02*
X128650000Y-78402000D01*
X128650000Y-80902000D02*
X128650000Y-80602000D01*
%TO.C,SW2*%
X126021000Y-90784000D02*
X125231000Y-90784000D01*
X124221000Y-91384000D02*
X124221000Y-97084000D01*
X127071000Y-92634000D02*
X127071000Y-94334000D01*
X127071000Y-95634000D02*
X127071000Y-95834000D01*
X125231000Y-97684000D02*
X126021000Y-97684000D01*
%TO.C,C6*%
X160138164Y-92604000D02*
X160353836Y-92604000D01*
X160138164Y-93324000D02*
X160353836Y-93324000D01*
%TO.C,C5*%
X156316000Y-98444164D02*
X156316000Y-98659836D01*
X155596000Y-98444164D02*
X155596000Y-98659836D01*
%TO.C,I2C*%
X146030000Y-132430000D02*
X146030000Y-133170000D01*
X146030000Y-133170000D02*
X146530000Y-133170000D01*
X146270000Y-123009000D02*
X146270000Y-132930000D01*
X146270000Y-123009000D02*
X166391000Y-123009000D01*
X146270000Y-125969000D02*
X166391000Y-125969000D01*
X146270000Y-130870000D02*
X166391000Y-130870000D01*
X146270000Y-132370000D02*
X166391000Y-132370000D01*
X146270000Y-132930000D02*
X166391000Y-132930000D01*
X152603000Y-129293000D02*
X152556000Y-129339000D01*
X152796000Y-129509000D02*
X152761000Y-129544000D01*
X154900000Y-126995000D02*
X154865000Y-127031000D01*
X155105000Y-127201000D02*
X155058000Y-127247000D01*
X157603000Y-129293000D02*
X157556000Y-129339000D01*
X157796000Y-129509000D02*
X157761000Y-129544000D01*
X159900000Y-126995000D02*
X159865000Y-127031000D01*
X160105000Y-127201000D02*
X160058000Y-127247000D01*
X162603000Y-129293000D02*
X162556000Y-129339000D01*
X162796000Y-129509000D02*
X162761000Y-129544000D01*
X164900000Y-126995000D02*
X164865000Y-127031000D01*
X165105000Y-127201000D02*
X165058000Y-127247000D01*
X166391000Y-123009000D02*
X166391000Y-132930000D01*
X147295001Y-127586001D02*
G75*
G03*
X147294574Y-128953042I1534992J-684000D01*
G01*
X149513999Y-126735001D02*
G75*
G03*
X148146958Y-126734574I-684000J-1534992D01*
G01*
X148146000Y-129804999D02*
G75*
G03*
X148858805Y-129950252I683999J1535000D01*
G01*
X148830000Y-129949999D02*
G75*
G03*
X149513318Y-129804755I0J1679999D01*
G01*
X150365000Y-128954000D02*
G75*
G03*
X150365426Y-127586958I-1535000J684000D01*
G01*
X155510000Y-128270000D02*
G75*
G03*
X155510000Y-128270000I-1680000J0D01*
G01*
X160510000Y-128270000D02*
G75*
G03*
X160510000Y-128270000I-1680000J0D01*
G01*
X165510000Y-128270000D02*
G75*
G03*
X165510000Y-128270000I-1680000J0D01*
G01*
%TO.C,J2*%
X209592000Y-91816000D02*
X208267000Y-91816000D01*
X208267000Y-91881000D02*
X208267000Y-91816000D01*
X208267000Y-91881000D02*
X204737000Y-91881000D01*
X208267000Y-85476000D02*
X208267000Y-85411000D01*
X208267000Y-85411000D02*
X204737000Y-85411000D01*
X204737000Y-91881000D02*
X204737000Y-91816000D01*
X204737000Y-85476000D02*
X204737000Y-85411000D01*
%TO.C,J8*%
X199570000Y-62388000D02*
X199570000Y-61648000D01*
X199570000Y-61648000D02*
X199070000Y-61648000D01*
X199330000Y-71809000D02*
X199330000Y-61888000D01*
X199330000Y-71809000D02*
X179209000Y-71809000D01*
X199330000Y-68849000D02*
X179209000Y-68849000D01*
X199330000Y-63948000D02*
X179209000Y-63948000D01*
X199330000Y-62448000D02*
X179209000Y-62448000D01*
X199330000Y-61888000D02*
X179209000Y-61888000D01*
X192997000Y-65525000D02*
X193044000Y-65479000D01*
X192804000Y-65309000D02*
X192839000Y-65274000D01*
X190700000Y-67823000D02*
X190735000Y-67787000D01*
X190495000Y-67617000D02*
X190542000Y-67571000D01*
X187997000Y-65525000D02*
X188044000Y-65479000D01*
X187804000Y-65309000D02*
X187839000Y-65274000D01*
X185700000Y-67823000D02*
X185735000Y-67787000D01*
X185495000Y-67617000D02*
X185542000Y-67571000D01*
X182997000Y-65525000D02*
X183044000Y-65479000D01*
X182804000Y-65309000D02*
X182839000Y-65274000D01*
X180700000Y-67823000D02*
X180735000Y-67787000D01*
X180495000Y-67617000D02*
X180542000Y-67571000D01*
X179209000Y-71809000D02*
X179209000Y-61888000D01*
X198304999Y-67231999D02*
G75*
G03*
X198305426Y-65864958I-1534992J684000D01*
G01*
X196086001Y-68082999D02*
G75*
G03*
X197453042Y-68083426I684000J1534992D01*
G01*
X197454000Y-65013001D02*
G75*
G03*
X196741195Y-64867748I-683999J-1535000D01*
G01*
X196770000Y-64868001D02*
G75*
G03*
X196086682Y-65013245I0J-1679999D01*
G01*
X195235000Y-65864000D02*
G75*
G03*
X195234574Y-67231042I1535000J-684000D01*
G01*
X193450000Y-66548000D02*
G75*
G03*
X193450000Y-66548000I-1680000J0D01*
G01*
X188450000Y-66548000D02*
G75*
G03*
X188450000Y-66548000I-1680000J0D01*
G01*
X183450000Y-66548000D02*
G75*
G03*
X183450000Y-66548000I-1680000J0D01*
G01*
%TO.C,C2*%
X160166164Y-93874000D02*
X160381836Y-93874000D01*
X160166164Y-94594000D02*
X160381836Y-94594000D01*
%TO.C,C8*%
X155088000Y-103739836D02*
X155088000Y-103524164D01*
X155808000Y-103739836D02*
X155808000Y-103524164D01*
%TO.C,Y1*%
X152792000Y-102996000D02*
X152792000Y-99696000D01*
X152792000Y-99696000D02*
X148792000Y-99696000D01*
%TO.C,U1*%
X190246000Y-101382000D02*
X192046000Y-101382000D01*
X190246000Y-101382000D02*
X189446000Y-101382000D01*
X190246000Y-98262000D02*
X191046000Y-98262000D01*
X190246000Y-98262000D02*
X189446000Y-98262000D01*
%TO.C,C3*%
X171302000Y-97174164D02*
X171302000Y-97389836D01*
X170582000Y-97174164D02*
X170582000Y-97389836D01*
%TO.C,G\u002A\u002A\u002A*%
G36*
X158155305Y-69635613D02*
G01*
X158262451Y-69703367D01*
X158363351Y-69779335D01*
X158471917Y-69859100D01*
X158635357Y-69973692D01*
X158840762Y-70114500D01*
X159075225Y-70272915D01*
X159325836Y-70440326D01*
X159579687Y-70608123D01*
X159823868Y-70767694D01*
X160045471Y-70910431D01*
X160231587Y-71027722D01*
X160275820Y-71054977D01*
X160429656Y-71143134D01*
X160637846Y-71254000D01*
X160883299Y-71379279D01*
X161148922Y-71510672D01*
X161417625Y-71639883D01*
X161672314Y-71758613D01*
X161895899Y-71858567D01*
X162071287Y-71931446D01*
X162115601Y-71948113D01*
X162211034Y-71980479D01*
X162302391Y-72004672D01*
X162403661Y-72021982D01*
X162528833Y-72033698D01*
X162691897Y-72041110D01*
X162906842Y-72045507D01*
X163187659Y-72048177D01*
X163202447Y-72048280D01*
X163518574Y-72052858D01*
X163869343Y-72061915D01*
X164223796Y-72074403D01*
X164550979Y-72089270D01*
X164752210Y-72100854D01*
X164987323Y-72112835D01*
X165284111Y-72122919D01*
X165623757Y-72130760D01*
X165987444Y-72136010D01*
X166356355Y-72138322D01*
X166711672Y-72137349D01*
X166724634Y-72137243D01*
X167103690Y-72134541D01*
X167418394Y-72134390D01*
X167684893Y-72138202D01*
X167919333Y-72147388D01*
X168137863Y-72163362D01*
X168356628Y-72187536D01*
X168591776Y-72221321D01*
X168859453Y-72266130D01*
X169175808Y-72323377D01*
X169461877Y-72376660D01*
X169835424Y-72443193D01*
X170146687Y-72489334D01*
X170411269Y-72515065D01*
X170644774Y-72520369D01*
X170862803Y-72505227D01*
X171080960Y-72469622D01*
X171314848Y-72413535D01*
X171454428Y-72374363D01*
X171674673Y-72305149D01*
X171940648Y-72213656D01*
X172224357Y-72109951D01*
X172497807Y-72004097D01*
X172601655Y-71961917D01*
X172842847Y-71862378D01*
X173085867Y-71762231D01*
X173309292Y-71670297D01*
X173491700Y-71595391D01*
X173567741Y-71564253D01*
X173960843Y-71397475D01*
X174293369Y-71242337D01*
X174582682Y-71090323D01*
X174815601Y-70952196D01*
X175082542Y-70793819D01*
X175311778Y-70676025D01*
X175495324Y-70602512D01*
X175625192Y-70576981D01*
X175625789Y-70576980D01*
X175750692Y-70612177D01*
X175836832Y-70703328D01*
X175866835Y-70828776D01*
X175861982Y-70871440D01*
X175833051Y-70998892D01*
X175794203Y-71135431D01*
X175742351Y-71288199D01*
X175674405Y-71464340D01*
X175587277Y-71670996D01*
X175477880Y-71915308D01*
X175343125Y-72204420D01*
X175179923Y-72545473D01*
X174985187Y-72945611D01*
X174817971Y-73285967D01*
X174530207Y-73864387D01*
X174260425Y-74395412D01*
X174010634Y-74875366D01*
X173782843Y-75300572D01*
X173579061Y-75667355D01*
X173401298Y-75972039D01*
X173251560Y-76210948D01*
X173131859Y-76380407D01*
X173115629Y-76400829D01*
X173037994Y-76500752D01*
X173005316Y-76566023D01*
X173010568Y-76623463D01*
X173040440Y-76687779D01*
X173115006Y-76851442D01*
X173199838Y-77068937D01*
X173286168Y-77315875D01*
X173365229Y-77567863D01*
X173396942Y-77679491D01*
X173425230Y-77790086D01*
X173446921Y-77897011D01*
X173462928Y-78013280D01*
X173474168Y-78151903D01*
X173481556Y-78325892D01*
X173486007Y-78548259D01*
X173488438Y-78832014D01*
X173489141Y-78989975D01*
X173491659Y-79331974D01*
X173496853Y-79605279D01*
X173505384Y-79821675D01*
X173517910Y-79992950D01*
X173535093Y-80130891D01*
X173557590Y-80247285D01*
X173560102Y-80257962D01*
X173636606Y-80636584D01*
X173676129Y-80992418D01*
X173678321Y-81346552D01*
X173642832Y-81720075D01*
X173569310Y-82134072D01*
X173525628Y-82331021D01*
X173454538Y-82624775D01*
X173391187Y-82854653D01*
X173329594Y-83036108D01*
X173263775Y-83184593D01*
X173187749Y-83315561D01*
X173095533Y-83444464D01*
X173093572Y-83447011D01*
X172793309Y-83782941D01*
X172452582Y-84060997D01*
X172065310Y-84284384D01*
X171625413Y-84456306D01*
X171126810Y-84579968D01*
X170860994Y-84623667D01*
X170678891Y-84647584D01*
X170429439Y-84677889D01*
X170125421Y-84713214D01*
X169779620Y-84752191D01*
X169404820Y-84793453D01*
X169013804Y-84835634D01*
X168619355Y-84877365D01*
X168234257Y-84917279D01*
X167871293Y-84954009D01*
X167543247Y-84986188D01*
X167262901Y-85012449D01*
X167066790Y-85029496D01*
X166803931Y-85045105D01*
X166479945Y-85054905D01*
X166113998Y-85058944D01*
X165725259Y-85057273D01*
X165332893Y-85049939D01*
X164956068Y-85036992D01*
X164691829Y-85023427D01*
X164025961Y-84977971D01*
X163431437Y-84925639D01*
X162899281Y-84864983D01*
X162420514Y-84794551D01*
X161986157Y-84712894D01*
X161587232Y-84618562D01*
X161214760Y-84510106D01*
X160948248Y-84418944D01*
X160683399Y-84307144D01*
X160446003Y-84170803D01*
X160226622Y-84000785D01*
X160015819Y-83787956D01*
X159804157Y-83523180D01*
X159582197Y-83197321D01*
X159426311Y-82945739D01*
X159307408Y-82733729D01*
X159223262Y-82541858D01*
X159159604Y-82333286D01*
X159117923Y-82149564D01*
X159091695Y-82018402D01*
X159072477Y-81902969D01*
X159061096Y-81792527D01*
X159058383Y-81676335D01*
X159065167Y-81543657D01*
X159082277Y-81383755D01*
X159110542Y-81185888D01*
X159150791Y-80939320D01*
X159203854Y-80633312D01*
X159259075Y-80321692D01*
X159269786Y-80221132D01*
X159279364Y-80053916D01*
X159287378Y-79833892D01*
X159293400Y-79574908D01*
X159296999Y-79290811D01*
X159297851Y-79070859D01*
X159300564Y-78639067D01*
X159308945Y-78279088D01*
X159323356Y-77982402D01*
X159344162Y-77740490D01*
X159359824Y-77618380D01*
X159393938Y-77425887D01*
X159446405Y-77176779D01*
X159512131Y-76891462D01*
X159586021Y-76590338D01*
X159662983Y-76293811D01*
X159737921Y-76022285D01*
X159805743Y-75796163D01*
X159841464Y-75689183D01*
X159888431Y-75540700D01*
X159940032Y-75351842D01*
X159991532Y-75143343D01*
X160038191Y-74935935D01*
X160075272Y-74750352D01*
X160098037Y-74607324D01*
X160102923Y-74545025D01*
X160092502Y-74477666D01*
X160056548Y-74394613D01*
X159988020Y-74284443D01*
X159879877Y-74135735D01*
X159739178Y-73954854D01*
X159502147Y-73650895D01*
X159307250Y-73389026D01*
X159142834Y-73151433D01*
X158997247Y-72920303D01*
X158858834Y-72677823D01*
X158715945Y-72406179D01*
X158680958Y-72337180D01*
X158490176Y-71946759D01*
X158339492Y-71607479D01*
X158224141Y-71303632D01*
X158139362Y-71019508D01*
X158080393Y-70739398D01*
X158042471Y-70447594D01*
X158022570Y-70165483D01*
X158013733Y-69935870D01*
X158174617Y-69935870D01*
X158174922Y-70031060D01*
X158187828Y-70188821D01*
X158210210Y-70417856D01*
X158211074Y-70426724D01*
X158276891Y-70818989D01*
X158400488Y-71254335D01*
X158578380Y-71723618D01*
X158807080Y-72217691D01*
X159083103Y-72727406D01*
X159096823Y-72750979D01*
X159229605Y-72962818D01*
X159401318Y-73213881D01*
X159596782Y-73483783D01*
X159800817Y-73752138D01*
X159998241Y-73998561D01*
X160173874Y-74202667D01*
X160195457Y-74226269D01*
X160263388Y-74307661D01*
X160293790Y-74379877D01*
X160295366Y-74476198D01*
X160284937Y-74568424D01*
X160262499Y-74701964D01*
X160224734Y-74886413D01*
X160176778Y-75100310D01*
X160123765Y-75322194D01*
X160070831Y-75530604D01*
X160023111Y-75704079D01*
X159985741Y-75821159D01*
X159984205Y-75825230D01*
X159928818Y-75988929D01*
X159863189Y-76212295D01*
X159792145Y-76475915D01*
X159720514Y-76760371D01*
X159653122Y-77046249D01*
X159594796Y-77314132D01*
X159550364Y-77544605D01*
X159537658Y-77621354D01*
X159510404Y-77816899D01*
X159489910Y-78014954D01*
X159475363Y-78231198D01*
X159465952Y-78481313D01*
X159460865Y-78780977D01*
X159459292Y-79134370D01*
X159456101Y-79564165D01*
X159446103Y-79928666D01*
X159428067Y-80242891D01*
X159400762Y-80521858D01*
X159362958Y-80780586D01*
X159313424Y-81034095D01*
X159297950Y-81103287D01*
X159264047Y-81330669D01*
X159251980Y-81598587D01*
X159260886Y-81876534D01*
X159289906Y-82134007D01*
X159332367Y-82322561D01*
X159418254Y-82540979D01*
X159547219Y-82796375D01*
X159706392Y-83067838D01*
X159882897Y-83334460D01*
X160063864Y-83575331D01*
X160200355Y-83732434D01*
X160440112Y-83939724D01*
X160747379Y-84125098D01*
X161123529Y-84288893D01*
X161569935Y-84431442D01*
X162087968Y-84553081D01*
X162679002Y-84654144D01*
X163344410Y-84734966D01*
X164085563Y-84795883D01*
X164695972Y-84828883D01*
X164980174Y-84841933D01*
X165237210Y-84855091D01*
X165456338Y-84867696D01*
X165626813Y-84879088D01*
X165737894Y-84888608D01*
X165778676Y-84895370D01*
X165828355Y-84903609D01*
X165946278Y-84905372D01*
X166120497Y-84901324D01*
X166339067Y-84892129D01*
X166590040Y-84878452D01*
X166861469Y-84860957D01*
X167141409Y-84840309D01*
X167417912Y-84817172D01*
X167679032Y-84792211D01*
X167730974Y-84786781D01*
X168018551Y-84756360D01*
X168355502Y-84720964D01*
X168711110Y-84683806D01*
X169054658Y-84648096D01*
X169280736Y-84624731D01*
X169780148Y-84571914D01*
X170207513Y-84523317D01*
X170571085Y-84477382D01*
X170879116Y-84432553D01*
X171139860Y-84387276D01*
X171361570Y-84339993D01*
X171552498Y-84289148D01*
X171720898Y-84233187D01*
X171875023Y-84170552D01*
X171997851Y-84112466D01*
X172237842Y-83974246D01*
X172472756Y-83806173D01*
X172690101Y-83620318D01*
X172877387Y-83428750D01*
X173022124Y-83243538D01*
X173111819Y-83076751D01*
X173129184Y-83019305D01*
X173152967Y-82932817D01*
X173195774Y-82796345D01*
X173249434Y-82635682D01*
X173264317Y-82592669D01*
X173413687Y-82059106D01*
X173488466Y-81523469D01*
X173489138Y-80976067D01*
X173416184Y-80407211D01*
X173381542Y-80237835D01*
X173343014Y-80052433D01*
X173316623Y-79890311D01*
X173301579Y-79732692D01*
X173297092Y-79560797D01*
X173302372Y-79355851D01*
X173316627Y-79099075D01*
X173327034Y-78943044D01*
X173325462Y-78385792D01*
X173244047Y-77825599D01*
X173082611Y-77261566D01*
X172914214Y-76847062D01*
X172772132Y-76535687D01*
X172912456Y-76364019D01*
X173004454Y-76243373D01*
X173115548Y-76086134D01*
X173223039Y-75924519D01*
X173231941Y-75910577D01*
X173346328Y-75721576D01*
X173486408Y-75475269D01*
X173647676Y-75180703D01*
X173825623Y-74846926D01*
X174015742Y-74482984D01*
X174213528Y-74097924D01*
X174414472Y-73700793D01*
X174614068Y-73300637D01*
X174807808Y-72906504D01*
X174991186Y-72527440D01*
X175159694Y-72172491D01*
X175308826Y-71850706D01*
X175434075Y-71571130D01*
X175530933Y-71342810D01*
X175594893Y-71174794D01*
X175602153Y-71152934D01*
X175653597Y-70978153D01*
X175674106Y-70856448D01*
X175657889Y-70786491D01*
X175599151Y-70766957D01*
X175492102Y-70796517D01*
X175330950Y-70873847D01*
X175109901Y-70997619D01*
X175057418Y-71028166D01*
X174793641Y-71178408D01*
X174533197Y-71317811D01*
X174262802Y-71452540D01*
X173969173Y-71588761D01*
X173639027Y-71732639D01*
X173259081Y-71890340D01*
X172823050Y-72065257D01*
X172637298Y-72139700D01*
X172457826Y-72213069D01*
X172312006Y-72274115D01*
X172259418Y-72296877D01*
X172020362Y-72390509D01*
X171738734Y-72481875D01*
X171438805Y-72564699D01*
X171144843Y-72632704D01*
X170881117Y-72679614D01*
X170709737Y-72697652D01*
X170603782Y-72702639D01*
X170504407Y-72704118D01*
X170401980Y-72700757D01*
X170286870Y-72691224D01*
X170149448Y-72674189D01*
X169980081Y-72648319D01*
X169769138Y-72612284D01*
X169506990Y-72564750D01*
X169184004Y-72504388D01*
X168837947Y-72438867D01*
X168698731Y-72413019D01*
X168572945Y-72391807D01*
X168450645Y-72374715D01*
X168321890Y-72361226D01*
X168176739Y-72350823D01*
X168005247Y-72342987D01*
X167797475Y-72337203D01*
X167543480Y-72332952D01*
X167233319Y-72329718D01*
X166857051Y-72326983D01*
X166664254Y-72325782D01*
X166286698Y-72322454D01*
X165914916Y-72317244D01*
X165561066Y-72310460D01*
X165237308Y-72302411D01*
X164955798Y-72293403D01*
X164728696Y-72283745D01*
X164568159Y-72273745D01*
X164550942Y-72272268D01*
X164354619Y-72258452D01*
X164100349Y-72246369D01*
X163810687Y-72236768D01*
X163508187Y-72230399D01*
X163219159Y-72228013D01*
X162926102Y-72226975D01*
X162699816Y-72223662D01*
X162526575Y-72217031D01*
X162392653Y-72206038D01*
X162284323Y-72189641D01*
X162187858Y-72166797D01*
X162112186Y-72143884D01*
X161966802Y-72089360D01*
X161766231Y-72003645D01*
X161525880Y-71894247D01*
X161261156Y-71768679D01*
X160987466Y-71634451D01*
X160720217Y-71499074D01*
X160474816Y-71370058D01*
X160266669Y-71254914D01*
X160162513Y-71193436D01*
X159982732Y-71082030D01*
X159801183Y-70967162D01*
X159631909Y-70857983D01*
X159488952Y-70763646D01*
X159386352Y-70693305D01*
X159338152Y-70656110D01*
X159338105Y-70656059D01*
X159297535Y-70627412D01*
X159202947Y-70566413D01*
X159069148Y-70482480D01*
X158935569Y-70400089D01*
X158755270Y-70285682D01*
X158578351Y-70166589D01*
X158429912Y-70060021D01*
X158361956Y-70006762D01*
X158280584Y-69938698D01*
X158224321Y-69898393D01*
X158190041Y-69894549D01*
X158174617Y-69935870D01*
X158013733Y-69935870D01*
X158013255Y-69923441D01*
X158016510Y-69755508D01*
X158037696Y-69655610D01*
X158082174Y-69617669D01*
X158155305Y-69635613D01*
G37*
G36*
X167237399Y-64762252D02*
G01*
X168189534Y-64846973D01*
X169122113Y-65008787D01*
X170039128Y-65248542D01*
X170944571Y-65567088D01*
X171756330Y-65923510D01*
X172601916Y-66374129D01*
X173404163Y-66890826D01*
X174159797Y-67469848D01*
X174865541Y-68107441D01*
X175518119Y-68799852D01*
X176114257Y-69543328D01*
X176650678Y-70334116D01*
X177124106Y-71168462D01*
X177531266Y-72042613D01*
X177855411Y-72911686D01*
X178096864Y-73766032D01*
X178271732Y-74654511D01*
X178379622Y-75565429D01*
X178420140Y-76487093D01*
X178392892Y-77407807D01*
X178297485Y-78315878D01*
X178133525Y-79199612D01*
X178075239Y-79441255D01*
X178041189Y-79573433D01*
X178010297Y-79686719D01*
X177976746Y-79799969D01*
X177934717Y-79932040D01*
X177878394Y-80101789D01*
X177801958Y-80328072D01*
X177798432Y-80338469D01*
X177638690Y-80787869D01*
X177479588Y-81187989D01*
X177308861Y-81569017D01*
X177242308Y-81707091D01*
X176891704Y-82374878D01*
X176514422Y-82997049D01*
X176092351Y-83602095D01*
X175783923Y-84001544D01*
X175644612Y-84167670D01*
X175469049Y-84364769D01*
X175269010Y-84580777D01*
X175056270Y-84803628D01*
X174842605Y-85021258D01*
X174639792Y-85221602D01*
X174459605Y-85392595D01*
X174313821Y-85522172D01*
X174249177Y-85573964D01*
X174130108Y-85666467D01*
X174020397Y-85757229D01*
X173990403Y-85783698D01*
X173915206Y-85844955D01*
X173789248Y-85940198D01*
X173628343Y-86058147D01*
X173448308Y-86187522D01*
X173264955Y-86317041D01*
X173094102Y-86435426D01*
X172951561Y-86531396D01*
X172863303Y-86587628D01*
X172710865Y-86677067D01*
X172525767Y-86781962D01*
X172324202Y-86893552D01*
X172122367Y-87003079D01*
X171936456Y-87101784D01*
X171782664Y-87180908D01*
X171677188Y-87231692D01*
X171655696Y-87240757D01*
X171552240Y-87284710D01*
X171480849Y-87321412D01*
X171474555Y-87325692D01*
X171413967Y-87357185D01*
X171293203Y-87409813D01*
X171127817Y-87477389D01*
X170933361Y-87553723D01*
X170725388Y-87632629D01*
X170519451Y-87707916D01*
X170468216Y-87726115D01*
X169704430Y-87963403D01*
X168881020Y-88158178D01*
X168254270Y-88271105D01*
X168107637Y-88288030D01*
X167896132Y-88304032D01*
X167634660Y-88318709D01*
X167338127Y-88331663D01*
X167021439Y-88342492D01*
X166699500Y-88350796D01*
X166387218Y-88356175D01*
X166099497Y-88358229D01*
X165851244Y-88356557D01*
X165657363Y-88350759D01*
X165557281Y-88343535D01*
X165193212Y-88297257D01*
X164796436Y-88234836D01*
X164386045Y-88160168D01*
X163981127Y-88077148D01*
X163600776Y-87989671D01*
X163264080Y-87901632D01*
X163010548Y-87823915D01*
X162641049Y-87691312D01*
X162252059Y-87538422D01*
X161859862Y-87372590D01*
X161480741Y-87201161D01*
X161130978Y-87031481D01*
X160826856Y-86870895D01*
X160599213Y-86736123D01*
X160484657Y-86664654D01*
X160399207Y-86614718D01*
X160363607Y-86597899D01*
X160320410Y-86575325D01*
X160224796Y-86513300D01*
X160088982Y-86420368D01*
X159925186Y-86305074D01*
X159745628Y-86175964D01*
X159562524Y-86041581D01*
X159478993Y-85979238D01*
X158759993Y-85390845D01*
X158083404Y-84739382D01*
X157457807Y-84034514D01*
X156891780Y-83285909D01*
X156395096Y-82505286D01*
X155934990Y-81631606D01*
X155550699Y-80730854D01*
X155242281Y-79803201D01*
X155009792Y-78848817D01*
X154862519Y-77943382D01*
X154835802Y-77655916D01*
X154818268Y-77307343D01*
X154809665Y-76916506D01*
X154809741Y-76502251D01*
X154818243Y-76083422D01*
X154834921Y-75678863D01*
X154859522Y-75307421D01*
X154891794Y-74987938D01*
X154903164Y-74903449D01*
X154979213Y-74452836D01*
X155078937Y-73977705D01*
X155197203Y-73496773D01*
X155328882Y-73028760D01*
X155468840Y-72592382D01*
X155611947Y-72206360D01*
X155697515Y-72005981D01*
X155863267Y-71644739D01*
X156005322Y-71343373D01*
X156131246Y-71087572D01*
X156248607Y-70863022D01*
X156364972Y-70655412D01*
X156487907Y-70450429D01*
X156624979Y-70233763D01*
X156676523Y-70154317D01*
X156842033Y-69921374D01*
X157634445Y-69921374D01*
X157641629Y-70227096D01*
X157678469Y-70564936D01*
X157745270Y-70927655D01*
X157842336Y-71308016D01*
X157929284Y-71583319D01*
X158042390Y-71891530D01*
X158164026Y-72183078D01*
X158282816Y-72431235D01*
X158317733Y-72495979D01*
X158402582Y-72650423D01*
X158490147Y-72813738D01*
X158521545Y-72873576D01*
X158597833Y-73004383D01*
X158679625Y-73121313D01*
X158710207Y-73157647D01*
X158792968Y-73260224D01*
X158854535Y-73356772D01*
X158909514Y-73446328D01*
X158999670Y-73576499D01*
X159109119Y-73725656D01*
X159221980Y-73872170D01*
X159322366Y-73994414D01*
X159325341Y-73997851D01*
X159405469Y-74097992D01*
X159494677Y-74220089D01*
X159515242Y-74249985D01*
X159600096Y-74372988D01*
X159682744Y-74489144D01*
X159699328Y-74511788D01*
X159753718Y-74607411D01*
X159754493Y-74697806D01*
X159741491Y-74743378D01*
X159716538Y-74828304D01*
X159677641Y-74971766D01*
X159630016Y-75154104D01*
X159578878Y-75355659D01*
X159576197Y-75366393D01*
X159520148Y-75576534D01*
X159460590Y-75775928D01*
X159404686Y-75941887D01*
X159360111Y-76050703D01*
X159314837Y-76163317D01*
X159260671Y-76331139D01*
X159204768Y-76530484D01*
X159159254Y-76715648D01*
X159112510Y-76917283D01*
X159068027Y-77103330D01*
X159031008Y-77252368D01*
X159007667Y-77339579D01*
X158996919Y-77414728D01*
X158986421Y-77560383D01*
X158976545Y-77766542D01*
X158967665Y-78023204D01*
X158960154Y-78320368D01*
X158954385Y-78648032D01*
X158952227Y-78824369D01*
X158947692Y-79151087D01*
X158941310Y-79456682D01*
X158933465Y-79730631D01*
X158924540Y-79962412D01*
X158914920Y-80141504D01*
X158904989Y-80257383D01*
X158898612Y-80293625D01*
X158854632Y-80463383D01*
X158809314Y-80690033D01*
X158766112Y-80950100D01*
X158728484Y-81220112D01*
X158699885Y-81476594D01*
X158683773Y-81696073D01*
X158681607Y-81767471D01*
X158681586Y-81953354D01*
X158691249Y-82092247D01*
X158716743Y-82215061D01*
X158764215Y-82352707D01*
X158829689Y-82512162D01*
X159039741Y-82962049D01*
X159274097Y-83379060D01*
X159525202Y-83752307D01*
X159785500Y-84070901D01*
X160047438Y-84323954D01*
X160133936Y-84391952D01*
X160303083Y-84496367D01*
X160533610Y-84609488D01*
X160807806Y-84724983D01*
X161107961Y-84836520D01*
X161416366Y-84937766D01*
X161715309Y-85022388D01*
X161987081Y-85084053D01*
X162137669Y-85108431D01*
X162313035Y-85133540D01*
X162485335Y-85162535D01*
X162600585Y-85185557D01*
X162729856Y-85208171D01*
X162925825Y-85233523D01*
X163176765Y-85260761D01*
X163470944Y-85289032D01*
X163796636Y-85317483D01*
X164142110Y-85345261D01*
X164495637Y-85371513D01*
X164845488Y-85395387D01*
X165179935Y-85416028D01*
X165487248Y-85432586D01*
X165755697Y-85444206D01*
X165973555Y-85450036D01*
X166129091Y-85449223D01*
X166181211Y-85445917D01*
X166267410Y-85437620D01*
X166417361Y-85423903D01*
X166614605Y-85406242D01*
X166842683Y-85386114D01*
X167026536Y-85370073D01*
X167791045Y-85301192D01*
X168526378Y-85229465D01*
X169259865Y-85152011D01*
X170018836Y-85065947D01*
X170802304Y-84971873D01*
X171322890Y-84888468D01*
X171778393Y-84772162D01*
X172178981Y-84618675D01*
X172534820Y-84423723D01*
X172856075Y-84183026D01*
X173008300Y-84042823D01*
X173125162Y-83929965D01*
X173240000Y-83821921D01*
X173290802Y-83775486D01*
X173379188Y-83685481D01*
X173457944Y-83578394D01*
X173531503Y-83443809D01*
X173604302Y-83271312D01*
X173680774Y-83050487D01*
X173765355Y-82770919D01*
X173854442Y-82451782D01*
X173977326Y-81895563D01*
X174032482Y-81372128D01*
X174019975Y-80870834D01*
X173939867Y-80381039D01*
X173868366Y-80117075D01*
X173852123Y-80013695D01*
X173843300Y-79832721D01*
X173841886Y-79573388D01*
X173847866Y-79234932D01*
X173851931Y-79090171D01*
X173860336Y-78789635D01*
X173864542Y-78553925D01*
X173863868Y-78367432D01*
X173857635Y-78214553D01*
X173845160Y-78079681D01*
X173825765Y-77947211D01*
X173798768Y-77801537D01*
X173794887Y-77781930D01*
X173731717Y-77492981D01*
X173662864Y-77227627D01*
X173592880Y-77001023D01*
X173526320Y-76828321D01*
X173483972Y-76747255D01*
X173446917Y-76682616D01*
X173434974Y-76626149D01*
X173453713Y-76560414D01*
X173508699Y-76467967D01*
X173605501Y-76331368D01*
X173625493Y-76303905D01*
X173693483Y-76199381D01*
X173790772Y-76034093D01*
X173911084Y-75819501D01*
X174048143Y-75567062D01*
X174195673Y-75288234D01*
X174347399Y-74994474D01*
X174407147Y-74876767D01*
X174553940Y-74586799D01*
X174693523Y-74312456D01*
X174820607Y-74064029D01*
X174929901Y-73851808D01*
X175016118Y-73686084D01*
X175073969Y-73577146D01*
X175089906Y-73548400D01*
X175155333Y-73423622D01*
X175204757Y-73310295D01*
X175216801Y-73273969D01*
X175243930Y-73202343D01*
X175299767Y-73074813D01*
X175376991Y-72907471D01*
X175468279Y-72716409D01*
X175500663Y-72650038D01*
X175673166Y-72295554D01*
X175812580Y-72001935D01*
X175923330Y-71758817D01*
X176009844Y-71555833D01*
X176076548Y-71382619D01*
X176127869Y-71228809D01*
X176166489Y-71090902D01*
X176212804Y-70876589D01*
X176224414Y-70710999D01*
X176199456Y-70569349D01*
X176136071Y-70426859D01*
X176113668Y-70387635D01*
X176004003Y-70255619D01*
X175863697Y-70185299D01*
X175687405Y-70176503D01*
X175469783Y-70229059D01*
X175205486Y-70342795D01*
X175176475Y-70357429D01*
X175016878Y-70441044D01*
X174880097Y-70516697D01*
X174785147Y-70573668D01*
X174756352Y-70594261D01*
X174642194Y-70670749D01*
X174452159Y-70766558D01*
X174185448Y-70882074D01*
X174010154Y-70952431D01*
X173812350Y-71032063D01*
X173605512Y-71118435D01*
X173426315Y-71196153D01*
X173383691Y-71215360D01*
X173196328Y-71294826D01*
X172985216Y-71375529D01*
X172840268Y-71425449D01*
X172665439Y-71487642D01*
X172459222Y-71570047D01*
X172262003Y-71656409D01*
X172234214Y-71669397D01*
X171836411Y-71843645D01*
X171479828Y-71968650D01*
X171146309Y-72049539D01*
X170817699Y-72091436D01*
X170719250Y-72097088D01*
X170516185Y-72101788D01*
X170358269Y-72097468D01*
X170259438Y-72084758D01*
X170236207Y-72075196D01*
X170164132Y-72041427D01*
X170027414Y-72006248D01*
X169822141Y-71968950D01*
X169544401Y-71928826D01*
X169190279Y-71885166D01*
X169180102Y-71883987D01*
X168935072Y-71854836D01*
X168680321Y-71823170D01*
X168445395Y-71792737D01*
X168259839Y-71767289D01*
X168254270Y-71766486D01*
X168146981Y-71754264D01*
X168006351Y-71744284D01*
X167826394Y-71736463D01*
X167601121Y-71730714D01*
X167324543Y-71726953D01*
X166990672Y-71725096D01*
X166593521Y-71725055D01*
X166127101Y-71726748D01*
X165657915Y-71729579D01*
X165228168Y-71731826D01*
X164812319Y-71732635D01*
X164419250Y-71732080D01*
X164057843Y-71730235D01*
X163736979Y-71727174D01*
X163465542Y-71722970D01*
X163252412Y-71717699D01*
X163106472Y-71711433D01*
X163061560Y-71707960D01*
X162887019Y-71681565D01*
X162672998Y-71636387D01*
X162439124Y-71577979D01*
X162205023Y-71511895D01*
X161990321Y-71443690D01*
X161814643Y-71378918D01*
X161697617Y-71323133D01*
X161694133Y-71320979D01*
X161588148Y-71267870D01*
X161511798Y-71239847D01*
X161424468Y-71208104D01*
X161293122Y-71153831D01*
X161149516Y-71090273D01*
X161003957Y-71024626D01*
X160875541Y-70968393D01*
X160793336Y-70934258D01*
X160721123Y-70897595D01*
X160591425Y-70822524D01*
X160413880Y-70715084D01*
X160198126Y-70581316D01*
X159953803Y-70427259D01*
X159690549Y-70258952D01*
X159418003Y-70082437D01*
X159145804Y-69903753D01*
X159093420Y-69869060D01*
X158894243Y-69732359D01*
X158700420Y-69591216D01*
X158531108Y-69460116D01*
X158405462Y-69353543D01*
X158381183Y-69330532D01*
X158259925Y-69218617D01*
X158167931Y-69156253D01*
X158083392Y-69130756D01*
X158032700Y-69127851D01*
X157896175Y-69164417D01*
X157787783Y-69269291D01*
X157707827Y-69435233D01*
X157656613Y-69655007D01*
X157634445Y-69921374D01*
X156842033Y-69921374D01*
X157244669Y-69354696D01*
X157869649Y-68609685D01*
X158548047Y-67921933D01*
X159276445Y-67294085D01*
X160051428Y-66728791D01*
X160869578Y-66228695D01*
X161727479Y-65796447D01*
X162621714Y-65434692D01*
X162885264Y-65344037D01*
X163551000Y-65141186D01*
X164187001Y-64985476D01*
X164818711Y-64872457D01*
X165471576Y-64797682D01*
X166171040Y-64756702D01*
X166261718Y-64753773D01*
X167237399Y-64762252D01*
G37*
G36*
X162166749Y-78534577D02*
G01*
X162241000Y-78631442D01*
X162267357Y-78678010D01*
X162349647Y-78808589D01*
X162458594Y-78952349D01*
X162520833Y-79024037D01*
X162597007Y-79103197D01*
X162662125Y-79153128D01*
X162730934Y-79172713D01*
X162818179Y-79160839D01*
X162938606Y-79116389D01*
X163106961Y-79038249D01*
X163248824Y-78968988D01*
X163443263Y-78876045D01*
X163577531Y-78819326D01*
X163662157Y-78796552D01*
X163707674Y-78805443D01*
X163724611Y-78843721D01*
X163725744Y-78865762D01*
X163692275Y-78928105D01*
X163605332Y-79008564D01*
X163485108Y-79092781D01*
X163351795Y-79166400D01*
X163240494Y-79210772D01*
X163145192Y-79244188D01*
X163015244Y-79294949D01*
X162949426Y-79322187D01*
X162756785Y-79403661D01*
X162768285Y-79766993D01*
X162779785Y-80130324D01*
X163001180Y-80280169D01*
X163144166Y-80369182D01*
X163339937Y-80480137D01*
X163574042Y-80605863D01*
X163832028Y-80739192D01*
X164099443Y-80872954D01*
X164361836Y-80999980D01*
X164604753Y-81113101D01*
X164813744Y-81205147D01*
X164974355Y-81268949D01*
X165033985Y-81288593D01*
X165208629Y-81328775D01*
X165424657Y-81364171D01*
X165642957Y-81388677D01*
X165702921Y-81392985D01*
X165889269Y-81402234D01*
X166017570Y-81401387D01*
X166109935Y-81387813D01*
X166188475Y-81358880D01*
X166246746Y-81328260D01*
X166362991Y-81243797D01*
X166456968Y-81143451D01*
X166473291Y-81118449D01*
X166543539Y-81032485D01*
X166610441Y-81009734D01*
X166676311Y-81041529D01*
X166683549Y-81105361D01*
X166631130Y-81209085D01*
X166574025Y-81289253D01*
X166403607Y-81448811D01*
X166179800Y-81553491D01*
X165909747Y-81601494D01*
X165600590Y-81591024D01*
X165462409Y-81569069D01*
X165307414Y-81555323D01*
X165188462Y-81586737D01*
X165180635Y-81590700D01*
X165038708Y-81632059D01*
X164836584Y-81637497D01*
X164568441Y-81607140D01*
X164550942Y-81604316D01*
X164443356Y-81580134D01*
X164278049Y-81534927D01*
X164073355Y-81474068D01*
X163847609Y-81402929D01*
X163715754Y-81359576D01*
X163081833Y-81147761D01*
X162689288Y-81195398D01*
X162420678Y-81219785D01*
X162213524Y-81216520D01*
X162052393Y-81181818D01*
X161921853Y-81111889D01*
X161806470Y-81002947D01*
X161780851Y-80972463D01*
X161687329Y-80902122D01*
X161555136Y-80881893D01*
X161340495Y-80856223D01*
X161179314Y-80781539D01*
X161084487Y-80671635D01*
X161046052Y-80559884D01*
X161063707Y-80500675D01*
X161126965Y-80502123D01*
X161219694Y-80567020D01*
X161344803Y-80658824D01*
X161477225Y-80697044D01*
X161637735Y-80684207D01*
X161803059Y-80637966D01*
X162072095Y-80536540D01*
X162271537Y-80429149D01*
X162412040Y-80303366D01*
X162504258Y-80146766D01*
X162558844Y-79946921D01*
X162584100Y-79726996D01*
X162595108Y-79554551D01*
X162596368Y-79443281D01*
X162584819Y-79374134D01*
X162557400Y-79328056D01*
X162513586Y-79288068D01*
X162391202Y-79169707D01*
X162273796Y-79025098D01*
X162172347Y-78872081D01*
X162097835Y-78728495D01*
X162061241Y-78612182D01*
X162063804Y-78557249D01*
X162106036Y-78508868D01*
X162166749Y-78534577D01*
G37*
G36*
X161932604Y-81764569D02*
G01*
X161965862Y-81865047D01*
X161970248Y-81889505D01*
X162030897Y-82130473D01*
X162130057Y-82373531D01*
X162254015Y-82589748D01*
X162369294Y-82731470D01*
X162480158Y-82822527D01*
X162642473Y-82932168D01*
X162834180Y-83046142D01*
X162964950Y-83116234D01*
X163184134Y-83223518D01*
X163364133Y-83297940D01*
X163533869Y-83349559D01*
X163722266Y-83388437D01*
X163770846Y-83396565D01*
X163972502Y-83424769D01*
X164178196Y-83446152D01*
X164352082Y-83457188D01*
X164395053Y-83457959D01*
X164752128Y-83428307D01*
X165118293Y-83344145D01*
X165473487Y-83213343D01*
X165797651Y-83043771D01*
X166070722Y-82843298D01*
X166147386Y-82770496D01*
X166258450Y-82650265D01*
X166347155Y-82541786D01*
X166397477Y-82464974D01*
X166401785Y-82454367D01*
X166446448Y-82395786D01*
X166512221Y-82372086D01*
X166567728Y-82387805D01*
X166583747Y-82428040D01*
X166558716Y-82489342D01*
X166492484Y-82592190D01*
X166398342Y-82718869D01*
X166289579Y-82851665D01*
X166179486Y-82972860D01*
X166160743Y-82991887D01*
X166047863Y-83079985D01*
X165878958Y-83181630D01*
X165674913Y-83286572D01*
X165456612Y-83384559D01*
X165244940Y-83465338D01*
X165114492Y-83505465D01*
X164935762Y-83543291D01*
X164719912Y-83574198D01*
X164492807Y-83595978D01*
X164280312Y-83606428D01*
X164108291Y-83603342D01*
X164047772Y-83596418D01*
X163957113Y-83581743D01*
X163817616Y-83559919D01*
X163665363Y-83536568D01*
X163439199Y-83481632D01*
X163177948Y-83385547D01*
X162904807Y-83259902D01*
X162642973Y-83116287D01*
X162415645Y-82966291D01*
X162257562Y-82833263D01*
X162138151Y-82701420D01*
X162051125Y-82568352D01*
X161977342Y-82402109D01*
X161944053Y-82309967D01*
X161876079Y-82088173D01*
X161840453Y-81912697D01*
X161837912Y-81791349D01*
X161869193Y-81731939D01*
X161889062Y-81727217D01*
X161932604Y-81764569D01*
G37*
G36*
X167095828Y-76434910D02*
G01*
X167314623Y-76481537D01*
X167465539Y-76522583D01*
X167560413Y-76563731D01*
X167611083Y-76610665D01*
X167629385Y-76669067D01*
X167630340Y-76691537D01*
X167624295Y-76736271D01*
X167599036Y-76778385D01*
X167543874Y-76825458D01*
X167448120Y-76885069D01*
X167301085Y-76964797D01*
X167096980Y-77069731D01*
X166889592Y-77174486D01*
X166736863Y-77247904D01*
X166621812Y-77295374D01*
X166527457Y-77322285D01*
X166436815Y-77334027D01*
X166332905Y-77335990D01*
X166261718Y-77334808D01*
X166058760Y-77324671D01*
X165837487Y-77304531D01*
X165678042Y-77283531D01*
X165528642Y-77256575D01*
X165441508Y-77229955D01*
X165398862Y-77195374D01*
X165383114Y-77145869D01*
X165404380Y-77029183D01*
X165490356Y-76899676D01*
X165628798Y-76768193D01*
X165702340Y-76717723D01*
X166268328Y-76717723D01*
X166284202Y-76835029D01*
X166326339Y-76884741D01*
X166381638Y-76923977D01*
X166421299Y-76932117D01*
X166484311Y-76911776D01*
X166520746Y-76897786D01*
X166603732Y-76831318D01*
X166630871Y-76734970D01*
X166602208Y-76636813D01*
X166520240Y-76566012D01*
X166401330Y-76543531D01*
X166314705Y-76592610D01*
X166269649Y-76707660D01*
X166268328Y-76717723D01*
X165702340Y-76717723D01*
X165807465Y-76645579D01*
X166014115Y-76542680D01*
X166101253Y-76509681D01*
X166482089Y-76416672D01*
X166857901Y-76402912D01*
X167095828Y-76434910D01*
G37*
G36*
X170218587Y-78318613D02*
G01*
X170239041Y-78335889D01*
X170241311Y-78363058D01*
X170239385Y-78374931D01*
X170208511Y-78418127D01*
X170125905Y-78453579D01*
X169978386Y-78486546D01*
X169944595Y-78492507D01*
X169369966Y-78593543D01*
X168866917Y-78687679D01*
X168427050Y-78777219D01*
X168041964Y-78864468D01*
X167703262Y-78951732D01*
X167402545Y-79041314D01*
X167131412Y-79135520D01*
X166881466Y-79236655D01*
X166644307Y-79347024D01*
X166436663Y-79455170D01*
X166257495Y-79550318D01*
X166136742Y-79607012D01*
X166063942Y-79628481D01*
X166028635Y-79617954D01*
X166020269Y-79583715D01*
X166055993Y-79527739D01*
X166154880Y-79449964D01*
X166304687Y-79356793D01*
X166493171Y-79254628D01*
X166708087Y-79149870D01*
X166937193Y-79048922D01*
X167168246Y-78958186D01*
X167312030Y-78908253D01*
X167502452Y-78848492D01*
X167698152Y-78792722D01*
X167911277Y-78738143D01*
X168153977Y-78681956D01*
X168438401Y-78621362D01*
X168776698Y-78553562D01*
X169181017Y-78475757D01*
X169227354Y-78466977D01*
X169539405Y-78408295D01*
X169781131Y-78364250D01*
X169961221Y-78334049D01*
X170088367Y-78316903D01*
X170171259Y-78312021D01*
X170218587Y-78318613D01*
G37*
G36*
X161269398Y-76068320D02*
G01*
X161407694Y-76084453D01*
X161721038Y-76145172D01*
X161963003Y-76238720D01*
X162136857Y-76367777D01*
X162245868Y-76535018D01*
X162293304Y-76743123D01*
X162296012Y-76812268D01*
X162296742Y-77037677D01*
X162014967Y-77045736D01*
X161864862Y-77045935D01*
X161741982Y-77038717D01*
X161672883Y-77025642D01*
X161672812Y-77025609D01*
X161556731Y-76950868D01*
X161422243Y-76832936D01*
X161282916Y-76687911D01*
X161152317Y-76531890D01*
X161121440Y-76488863D01*
X161601658Y-76488863D01*
X161634163Y-76556568D01*
X161716902Y-76611261D01*
X161803758Y-76585996D01*
X161825775Y-76566710D01*
X161871188Y-76472559D01*
X161847412Y-76372610D01*
X161810325Y-76330439D01*
X161730240Y-76301772D01*
X161657997Y-76332444D01*
X161609752Y-76401720D01*
X161601658Y-76488863D01*
X161121440Y-76488863D01*
X161044013Y-76380969D01*
X160971570Y-76251248D01*
X160948248Y-76165918D01*
X160962519Y-76105787D01*
X161013067Y-76070849D01*
X161111493Y-76059045D01*
X161269398Y-76068320D01*
G37*
G36*
X168241908Y-79940546D02*
G01*
X168661408Y-79974815D01*
X168817820Y-79990801D01*
X169156449Y-80029318D01*
X169420136Y-80065087D01*
X169614353Y-80099288D01*
X169744569Y-80133099D01*
X169816256Y-80167700D01*
X169834882Y-80204269D01*
X169833536Y-80209705D01*
X169821596Y-80234572D01*
X169797345Y-80249870D01*
X169748624Y-80255171D01*
X169663275Y-80250048D01*
X169529140Y-80234073D01*
X169334060Y-80206818D01*
X169200229Y-80187424D01*
X168919173Y-80152405D01*
X168619322Y-80127505D01*
X168281720Y-80111594D01*
X167887414Y-80103537D01*
X167781290Y-80102641D01*
X167466404Y-80099154D01*
X167226827Y-80093096D01*
X167057391Y-80084163D01*
X166952932Y-80072050D01*
X166908281Y-80056451D01*
X166905775Y-80050938D01*
X166920021Y-80012841D01*
X166969553Y-79984001D01*
X167064559Y-79962484D01*
X167215231Y-79946358D01*
X167431757Y-79933689D01*
X167549832Y-79928738D01*
X167877157Y-79925469D01*
X168241908Y-79940546D01*
G37*
G36*
X167554448Y-80844201D02*
G01*
X167686678Y-80880331D01*
X167864726Y-80932946D01*
X168073433Y-80997201D01*
X168297638Y-81068255D01*
X168522184Y-81141267D01*
X168731910Y-81211393D01*
X168911658Y-81273791D01*
X169046269Y-81323620D01*
X169099595Y-81345709D01*
X169222218Y-81399068D01*
X169357744Y-81455476D01*
X169368066Y-81459646D01*
X169467091Y-81513206D01*
X169541820Y-81577214D01*
X169580950Y-81636435D01*
X169573181Y-81675635D01*
X169533737Y-81682999D01*
X169465456Y-81665672D01*
X169345762Y-81622925D01*
X169196479Y-81562767D01*
X169139848Y-81538456D01*
X168957258Y-81464319D01*
X168719559Y-81375821D01*
X168449100Y-81280546D01*
X168168228Y-81186082D01*
X167899293Y-81100014D01*
X167664643Y-81029929D01*
X167550257Y-80998872D01*
X167421977Y-80957660D01*
X167363789Y-80915393D01*
X167358789Y-80883983D01*
X167406518Y-80835838D01*
X167483194Y-80829395D01*
X167554448Y-80844201D01*
G37*
G36*
X159724651Y-78331935D02*
G01*
X159836315Y-78401857D01*
X159969646Y-78502090D01*
X160107046Y-78619295D01*
X160230913Y-78740136D01*
X160243810Y-78754006D01*
X160485351Y-79018784D01*
X160675229Y-79231490D01*
X160817881Y-79397794D01*
X160917743Y-79523366D01*
X160979251Y-79613877D01*
X161006842Y-79674998D01*
X161004954Y-79712397D01*
X160999410Y-79719732D01*
X160941343Y-79731638D01*
X160903394Y-79703763D01*
X160855262Y-79652668D01*
X160766240Y-79555913D01*
X160649305Y-79427670D01*
X160525585Y-79291135D01*
X160289615Y-79034490D01*
X160081139Y-78816865D01*
X159906580Y-78644674D01*
X159772366Y-78524332D01*
X159710451Y-78477381D01*
X159647841Y-78416256D01*
X159618979Y-78351918D01*
X159632625Y-78310217D01*
X159652253Y-78305664D01*
X159724651Y-78331935D01*
G37*
G36*
X160346155Y-80814242D02*
G01*
X160348342Y-80852618D01*
X160274829Y-80916222D01*
X160125896Y-81004763D01*
X160020106Y-81059873D01*
X159849037Y-81146114D01*
X159736484Y-81201233D01*
X159668801Y-81229802D01*
X159632343Y-81236392D01*
X159613463Y-81225574D01*
X159598515Y-81201920D01*
X159598098Y-81201243D01*
X159604957Y-81146996D01*
X159646039Y-81101025D01*
X159741344Y-81038754D01*
X159872189Y-80966705D01*
X160015011Y-80896230D01*
X160146246Y-80838682D01*
X160242331Y-80805412D01*
X160267991Y-80801385D01*
X160346155Y-80814242D01*
G37*
G36*
X159750704Y-79494549D02*
G01*
X159902809Y-79539999D01*
X160064911Y-79620465D01*
X160219585Y-79723001D01*
X160349408Y-79834661D01*
X160436956Y-79942502D01*
X160465205Y-80025398D01*
X160456653Y-80063526D01*
X160423892Y-80065442D01*
X160356265Y-80026133D01*
X160243115Y-79940587D01*
X160183430Y-79892870D01*
X160038127Y-79789392D01*
X159883022Y-79699849D01*
X159770831Y-79650861D01*
X159642681Y-79595600D01*
X159579007Y-79542903D01*
X159581113Y-79502904D01*
X159650304Y-79485736D01*
X159750704Y-79494549D01*
G37*
%TO.C,C1*%
X155046000Y-98444164D02*
X155046000Y-98659836D01*
X154326000Y-98444164D02*
X154326000Y-98659836D01*
%TO.C,C13*%
X171956000Y-96914580D02*
X171956000Y-96633420D01*
X172976000Y-96914580D02*
X172976000Y-96633420D01*
%TO.C,Analog Inputs*%
X126091000Y-101714000D02*
X125351000Y-101714000D01*
X125351000Y-101714000D02*
X125351000Y-102214000D01*
X135512000Y-101954000D02*
X125591000Y-101954000D01*
X135512000Y-101954000D02*
X135512000Y-122075000D01*
X132552000Y-101954000D02*
X132552000Y-122075000D01*
X127651000Y-101954000D02*
X127651000Y-122075000D01*
X126151000Y-101954000D02*
X126151000Y-122075000D01*
X125591000Y-101954000D02*
X125591000Y-122075000D01*
X129228000Y-108287000D02*
X129182000Y-108240000D01*
X129012000Y-108480000D02*
X128977000Y-108445000D01*
X131526000Y-110584000D02*
X131490000Y-110549000D01*
X131320000Y-110789000D02*
X131274000Y-110742000D01*
X129228000Y-113287000D02*
X129182000Y-113240000D01*
X129012000Y-113480000D02*
X128977000Y-113445000D01*
X131526000Y-115584000D02*
X131490000Y-115549000D01*
X131320000Y-115789000D02*
X131274000Y-115742000D01*
X129228000Y-118287000D02*
X129182000Y-118240000D01*
X129012000Y-118480000D02*
X128977000Y-118445000D01*
X131526000Y-120584000D02*
X131490000Y-120549000D01*
X131320000Y-120789000D02*
X131274000Y-120742000D01*
X135512000Y-122075000D02*
X125591000Y-122075000D01*
X130934999Y-102979001D02*
G75*
G03*
X129567958Y-102978574I-684000J-1534992D01*
G01*
X131785999Y-105197999D02*
G75*
G03*
X131786426Y-103830958I-1534992J684000D01*
G01*
X128716001Y-103830000D02*
G75*
G03*
X128570748Y-104542805I1535000J-683999D01*
G01*
X128571001Y-104514000D02*
G75*
G03*
X128716245Y-105197318I1679999J0D01*
G01*
X129567000Y-106049000D02*
G75*
G03*
X130934042Y-106049426I684000J1535000D01*
G01*
X131931000Y-109514000D02*
G75*
G03*
X131931000Y-109514000I-1680000J0D01*
G01*
X131931000Y-114514000D02*
G75*
G03*
X131931000Y-114514000I-1680000J0D01*
G01*
X131931000Y-119514000D02*
G75*
G03*
X131931000Y-119514000I-1680000J0D01*
G01*
%TO.C,SPI*%
X167594000Y-132430000D02*
X167594000Y-133170000D01*
X167594000Y-133170000D02*
X168094000Y-133170000D01*
X167834000Y-123009000D02*
X167834000Y-132930000D01*
X167834000Y-123009000D02*
X198434000Y-123009000D01*
X167834000Y-125969000D02*
X198434000Y-125969000D01*
X167834000Y-130870000D02*
X198434000Y-130870000D01*
X167834000Y-132370000D02*
X198434000Y-132370000D01*
X167834000Y-132930000D02*
X198434000Y-132930000D01*
X174287000Y-129293000D02*
X174240000Y-129339000D01*
X174480000Y-129509000D02*
X174445000Y-129544000D01*
X176584000Y-126995000D02*
X176549000Y-127031000D01*
X176789000Y-127201000D02*
X176742000Y-127247000D01*
X179367000Y-129293000D02*
X179320000Y-129339000D01*
X179560000Y-129509000D02*
X179525000Y-129544000D01*
X181664000Y-126995000D02*
X181629000Y-127031000D01*
X181869000Y-127201000D02*
X181822000Y-127247000D01*
X184447000Y-129293000D02*
X184400000Y-129339000D01*
X184640000Y-129509000D02*
X184605000Y-129544000D01*
X186744000Y-126995000D02*
X186709000Y-127031000D01*
X186949000Y-127201000D02*
X186902000Y-127247000D01*
X189527000Y-129293000D02*
X189480000Y-129339000D01*
X189720000Y-129509000D02*
X189685000Y-129544000D01*
X191824000Y-126995000D02*
X191789000Y-127031000D01*
X192029000Y-127201000D02*
X191982000Y-127247000D01*
X194607000Y-129293000D02*
X194560000Y-129339000D01*
X194800000Y-129509000D02*
X194765000Y-129544000D01*
X196904000Y-126995000D02*
X196869000Y-127031000D01*
X197109000Y-127201000D02*
X197062000Y-127247000D01*
X198434000Y-123009000D02*
X198434000Y-132930000D01*
X168899001Y-127586001D02*
G75*
G03*
X168898574Y-128953042I1534992J-684000D01*
G01*
X171117999Y-126735001D02*
G75*
G03*
X169750958Y-126734574I-684000J-1534992D01*
G01*
X169750000Y-129804999D02*
G75*
G03*
X170462805Y-129950252I683999J1535000D01*
G01*
X170434000Y-129949999D02*
G75*
G03*
X171117318Y-129804755I0J1679999D01*
G01*
X171969000Y-128954000D02*
G75*
G03*
X171969426Y-127586958I-1535000J684000D01*
G01*
X177194000Y-128270000D02*
G75*
G03*
X177194000Y-128270000I-1680000J0D01*
G01*
X182274000Y-128270000D02*
G75*
G03*
X182274000Y-128270000I-1680000J0D01*
G01*
X187354000Y-128270000D02*
G75*
G03*
X187354000Y-128270000I-1680000J0D01*
G01*
X192434000Y-128270000D02*
G75*
G03*
X192434000Y-128270000I-1680000J0D01*
G01*
X197514000Y-128270000D02*
G75*
G03*
X197514000Y-128270000I-1680000J0D01*
G01*
%TO.C,C10*%
X150883252Y-98525000D02*
X150360748Y-98525000D01*
X150883252Y-97055000D02*
X150360748Y-97055000D01*
%TO.C,J1*%
X141064000Y-133094000D02*
X139954000Y-133094000D01*
X141064000Y-132334000D02*
X141064000Y-133094000D01*
X141064000Y-131574000D02*
X141064000Y-127829000D01*
X141064000Y-131574000D02*
X140517471Y-131574000D01*
X141064000Y-127829000D02*
X140261530Y-127829000D01*
X139646470Y-127829000D02*
X138844000Y-127829000D01*
X139390529Y-131574000D02*
X138844000Y-131574000D01*
X138844000Y-131574000D02*
X138844000Y-127829000D01*
%TO.C,U2*%
X158400000Y-96628000D02*
X158400000Y-97578000D01*
X158400000Y-97578000D02*
X157060000Y-97578000D01*
X158400000Y-106848000D02*
X158400000Y-105898000D01*
X159350000Y-96628000D02*
X158400000Y-96628000D01*
X159350000Y-106848000D02*
X158400000Y-106848000D01*
X167670000Y-96628000D02*
X168620000Y-96628000D01*
X167670000Y-106848000D02*
X168620000Y-106848000D01*
X168620000Y-96628000D02*
X168620000Y-97578000D01*
X168620000Y-106848000D02*
X168620000Y-105898000D01*
%TO.C,C4*%
X160635836Y-110088000D02*
X160420164Y-110088000D01*
X160635836Y-109368000D02*
X160420164Y-109368000D01*
%TO.C,C11*%
X150614748Y-103913000D02*
X151137252Y-103913000D01*
X150614748Y-105383000D02*
X151137252Y-105383000D01*
%TO.C,J9*%
X210914000Y-75690000D02*
X209804000Y-75690000D01*
X210914000Y-74930000D02*
X210914000Y-75690000D01*
X210914000Y-74170000D02*
X210914000Y-72965000D01*
X210914000Y-74170000D02*
X210367471Y-74170000D01*
X210914000Y-72965000D02*
X210111530Y-72965000D01*
X209496470Y-72965000D02*
X208694000Y-72965000D01*
X209240529Y-74170000D02*
X208694000Y-74170000D01*
X208694000Y-74170000D02*
X208694000Y-72965000D01*
%TO.C,R5*%
X165337258Y-62752500D02*
X164862742Y-62752500D01*
X165337258Y-61707500D02*
X164862742Y-61707500D01*
%TO.C,J4*%
X207167000Y-103986000D02*
X203937000Y-103986000D01*
X211337000Y-103986000D02*
X209387000Y-103986000D01*
X202017000Y-103266000D02*
X202017000Y-102186000D01*
X202017000Y-102186000D02*
X201587000Y-102186000D01*
X202017000Y-97966000D02*
X202017000Y-96886000D01*
X207167000Y-96166000D02*
X203937000Y-96166000D01*
X211337000Y-96166000D02*
X211337000Y-103986000D01*
X211337000Y-96166000D02*
X209387000Y-96166000D01*
%TO.C,C7*%
X154688000Y-103491420D02*
X154688000Y-103772580D01*
X153668000Y-103491420D02*
X153668000Y-103772580D01*
%TO.C,C12*%
X168261420Y-108964000D02*
X168542580Y-108964000D01*
X168261420Y-109984000D02*
X168542580Y-109984000D01*
%TD*%
M02*
