M48
; DRILL file {KiCad 7.0.7} date Tue Oct 17 18:40:42 2023
; FORMAT={-:-/ absolute / inch / decimal}
; #@! TF.CreationDate,2023-10-17T18:40:42-05:00
; #@! TF.GenerationSoftware,Kicad,Pcbnew,7.0.7
; #@! TF.FileFunction,Plated,1,4,PTH
FMAT,2
INCH
; #@! TA.AperFunction,Plated,PTH,ViaDrill
T1C0.0157
; #@! TA.AperFunction,Plated,PTH,ComponentDrill
T2C0.0236
; #@! TA.AperFunction,Plated,PTH,ComponentDrill
T3C0.0256
; #@! TA.AperFunction,Plated,PTH,ComponentDrill
T4C0.0512
; #@! TA.AperFunction,Plated,PTH,ComponentDrill
T5C0.1693
%
G90
G05
T1
X4.91Y-3.07
X5.03Y-3.58
X5.03Y-3.83
X5.45Y-5.06
X5.46Y-5.21
X5.82Y-4.55
X5.84Y-3.96
X5.86Y-4.12
X5.88Y-4.25
X5.92Y-5.12
X6.01Y-3.85
X6.06Y-3.86
X6.0605Y-4.1805
X6.07Y-4.0
X6.13Y-3.9847
X6.16Y-4.1531
X6.24Y-4.28
X6.26Y-3.66
X6.26Y-3.71
X6.29Y-4.01
X6.32Y-4.17
X6.32Y-4.36
X6.32Y-4.63
X6.33Y-4.46
X6.33Y-4.55
X6.36Y-3.66
X6.36Y-3.71
X6.43Y-2.45
X6.51Y-4.5
X6.51Y-5.11
X6.56Y-4.5
X6.61Y-4.23
X6.68Y-3.71
X6.7Y-4.24
X6.7Y-4.31
X6.71Y-2.45
X6.73Y-3.78
X6.76Y-5.13
X6.83Y-3.79
X6.87Y-4.18
X6.87Y-4.23
X6.89Y-3.75
X6.89Y-3.8
X6.99Y-4.73
X7.03Y-4.67
X7.05Y-4.61
X7.12Y-3.28
X7.2Y-3.31
X7.49Y-3.85
X7.65Y-5.12
X7.68Y-2.68
X7.76Y-4.19
X7.84Y-4.19
X7.98Y-3.85
X8.14Y-3.4
X8.14Y-3.48
X8.14Y-3.54
X8.14Y-3.6
X8.16Y-3.83
X8.1956Y-2.9
X8.2Y-3.15
X8.2Y-4.01
X8.22Y-2.9544
T2
X5.003Y-2.66
X5.003Y-5.06
X5.0402Y-2.5702
X5.0402Y-2.7498
X5.0402Y-4.9702
X5.0402Y-5.1498
X5.13Y-2.533
X5.13Y-2.787
X5.13Y-4.933
X5.13Y-5.187
X5.2198Y-2.5702
X5.2198Y-2.7498
X5.2198Y-4.9702
X5.2198Y-5.1498
X5.257Y-2.66
X5.257Y-5.06
X7.953Y-2.66
X7.953Y-5.06
X7.9902Y-2.5702
X7.9902Y-2.7498
X7.9902Y-4.9702
X7.9902Y-5.1498
X8.08Y-2.533
X8.08Y-2.787
X8.08Y-4.933
X8.08Y-5.187
X8.1698Y-2.5702
X8.1698Y-2.7498
X8.1698Y-4.9702
X8.1698Y-5.1498
X8.207Y-2.66
X8.207Y-5.06
T3
X5.51Y-5.06
X5.51Y-5.11
X5.51Y-5.16
X5.51Y-5.21
X8.26Y-2.9
X8.26Y-2.95
X8.26Y-3.15
X8.26Y-3.2
T4
X5.128Y-4.1147
X5.128Y-4.3116
X5.128Y-4.5084
X5.128Y-4.7053
X5.8594Y-5.05
X6.0563Y-5.05
X6.2531Y-5.05
X6.45Y-5.05
X6.71Y-5.05
X6.91Y-5.05
X7.11Y-5.05
X7.1563Y-2.62
X7.31Y-5.05
X7.3531Y-2.62
X7.51Y-5.05
X7.55Y-2.62
X7.71Y-5.05
X7.7469Y-2.62
T5
X5.13Y-2.66
X5.13Y-5.06
X8.08Y-2.66
X8.08Y-5.06
T0
M30
