%TF.GenerationSoftware,KiCad,Pcbnew,7.0.7*%
%TF.CreationDate,2023-10-17T18:40:51-05:00*%
%TF.ProjectId,stm32f405rgt6,73746d33-3266-4343-9035-726774362e6b,rev?*%
%TF.SameCoordinates,Original*%
%TF.FileFunction,Paste,Top*%
%TF.FilePolarity,Positive*%
%FSLAX46Y46*%
G04 Gerber Fmt 4.6, Leading zero omitted, Abs format (unit mm)*
G04 Created by KiCad (PCBNEW 7.0.7) date 2023-10-17 18:40:51*
%MOMM*%
%LPD*%
G01*
G04 APERTURE LIST*
G04 Aperture macros list*
%AMRoundRect*
0 Rectangle with rounded corners*
0 $1 Rounding radius*
0 $2 $3 $4 $5 $6 $7 $8 $9 X,Y pos of 4 corners*
0 Add a 4 corners polygon primitive as box body*
4,1,4,$2,$3,$4,$5,$6,$7,$8,$9,$2,$3,0*
0 Add four circle primitives for the rounded corners*
1,1,$1+$1,$2,$3*
1,1,$1+$1,$4,$5*
1,1,$1+$1,$6,$7*
1,1,$1+$1,$8,$9*
0 Add four rect primitives between the rounded corners*
20,1,$1+$1,$2,$3,$4,$5,0*
20,1,$1+$1,$4,$5,$6,$7,0*
20,1,$1+$1,$6,$7,$8,$9,0*
20,1,$1+$1,$8,$9,$2,$3,0*%
G04 Aperture macros list end*
%ADD10RoundRect,0.135000X0.135000X0.185000X-0.135000X0.185000X-0.135000X-0.185000X0.135000X-0.185000X0*%
%ADD11RoundRect,0.147500X-0.147500X-0.172500X0.147500X-0.172500X0.147500X0.172500X-0.147500X0.172500X0*%
%ADD12RoundRect,0.218750X-0.218750X-0.256250X0.218750X-0.256250X0.218750X0.256250X-0.218750X0.256250X0*%
%ADD13RoundRect,0.150000X0.150000X-0.512500X0.150000X0.512500X-0.150000X0.512500X-0.150000X-0.512500X0*%
%ADD14RoundRect,0.135000X-0.185000X0.135000X-0.185000X-0.135000X0.185000X-0.135000X0.185000X0.135000X0*%
%ADD15RoundRect,0.140000X0.140000X0.170000X-0.140000X0.170000X-0.140000X-0.170000X0.140000X-0.170000X0*%
%ADD16RoundRect,0.135000X0.185000X-0.135000X0.185000X0.135000X-0.185000X0.135000X-0.185000X-0.135000X0*%
%ADD17R,0.900000X1.700000*%
%ADD18R,0.800000X1.000000*%
%ADD19R,1.500000X0.700000*%
%ADD20RoundRect,0.140000X-0.140000X-0.170000X0.140000X-0.170000X0.140000X0.170000X-0.140000X0.170000X0*%
%ADD21RoundRect,0.140000X-0.170000X0.140000X-0.170000X-0.140000X0.170000X-0.140000X0.170000X0.140000X0*%
%ADD22R,2.400000X0.740000*%
%ADD23RoundRect,0.140000X0.170000X-0.140000X0.170000X0.140000X-0.170000X0.140000X-0.170000X-0.140000X0*%
%ADD24R,1.400000X1.200000*%
%ADD25RoundRect,0.150000X0.512500X0.150000X-0.512500X0.150000X-0.512500X-0.150000X0.512500X-0.150000X0*%
%ADD26RoundRect,0.225000X0.250000X-0.225000X0.250000X0.225000X-0.250000X0.225000X-0.250000X-0.225000X0*%
%ADD27RoundRect,0.250000X0.250000X0.475000X-0.250000X0.475000X-0.250000X-0.475000X0.250000X-0.475000X0*%
%ADD28RoundRect,0.075000X-0.700000X-0.075000X0.700000X-0.075000X0.700000X0.075000X-0.700000X0.075000X0*%
%ADD29RoundRect,0.075000X-0.075000X-0.700000X0.075000X-0.700000X0.075000X0.700000X-0.075000X0.700000X0*%
%ADD30RoundRect,0.250000X-0.250000X-0.475000X0.250000X-0.475000X0.250000X0.475000X-0.250000X0.475000X0*%
%ADD31RoundRect,0.200000X0.200000X0.275000X-0.200000X0.275000X-0.200000X-0.275000X0.200000X-0.275000X0*%
%ADD32R,2.000000X0.500000*%
%ADD33R,1.700000X2.000000*%
%ADD34RoundRect,0.225000X-0.250000X0.225000X-0.250000X-0.225000X0.250000X-0.225000X0.250000X0.225000X0*%
%ADD35RoundRect,0.225000X-0.225000X-0.250000X0.225000X-0.250000X0.225000X0.250000X-0.225000X0.250000X0*%
G04 APERTURE END LIST*
D10*
%TO.C,R3*%
X144782000Y-95758000D03*
X143762000Y-95758000D03*
%TD*%
D11*
%TO.C,L1*%
X154455000Y-105664000D03*
X155425000Y-105664000D03*
%TD*%
D12*
%TO.C,D1*%
X167868500Y-62230000D03*
X169443500Y-62230000D03*
%TD*%
D13*
%TO.C,XC6206P332MR1*%
X197170000Y-105277500D03*
X199070000Y-105277500D03*
X198120000Y-103002500D03*
%TD*%
D14*
%TO.C,R1*%
X166624000Y-112520000D03*
X166624000Y-113540000D03*
%TD*%
D15*
%TO.C,C9*%
X127484000Y-83312000D03*
X126524000Y-83312000D03*
%TD*%
D16*
%TO.C,R2*%
X165354000Y-113540000D03*
X165354000Y-112520000D03*
%TD*%
D10*
%TO.C,R4*%
X154942000Y-100584000D03*
X153922000Y-100584000D03*
%TD*%
D17*
%TO.C,SW1*%
X125300000Y-79502000D03*
X128700000Y-79502000D03*
%TD*%
D18*
%TO.C,SW2*%
X126731000Y-90584000D03*
X124521000Y-90584000D03*
X126731000Y-97884000D03*
X124521000Y-97884000D03*
D19*
X127381000Y-91984000D03*
X127381000Y-94984000D03*
X127381000Y-96484000D03*
%TD*%
D20*
%TO.C,C6*%
X159766000Y-92964000D03*
X160726000Y-92964000D03*
%TD*%
D21*
%TO.C,C5*%
X155956000Y-98072000D03*
X155956000Y-99032000D03*
%TD*%
D22*
%TO.C,J2*%
X208452000Y-91186000D03*
X204552000Y-91186000D03*
X208452000Y-89916000D03*
X204552000Y-89916000D03*
X208452000Y-88646000D03*
X204552000Y-88646000D03*
X208452000Y-87376000D03*
X204552000Y-87376000D03*
X208452000Y-86106000D03*
X204552000Y-86106000D03*
%TD*%
D20*
%TO.C,C2*%
X159794000Y-94234000D03*
X160754000Y-94234000D03*
%TD*%
D23*
%TO.C,C8*%
X155448000Y-104112000D03*
X155448000Y-103152000D03*
%TD*%
D24*
%TO.C,Y1*%
X151892000Y-100496000D03*
X149692000Y-100496000D03*
X149692000Y-102196000D03*
X151892000Y-102196000D03*
%TD*%
D25*
%TO.C,U1*%
X191383500Y-100772000D03*
X191383500Y-99822000D03*
X191383500Y-98872000D03*
X189108500Y-98872000D03*
X189108500Y-99822000D03*
X189108500Y-100772000D03*
%TD*%
D21*
%TO.C,C3*%
X170942000Y-96802000D03*
X170942000Y-97762000D03*
%TD*%
%TO.C,C1*%
X154686000Y-98072000D03*
X154686000Y-99032000D03*
%TD*%
D26*
%TO.C,C13*%
X172466000Y-97549000D03*
X172466000Y-95999000D03*
%TD*%
D27*
%TO.C,C10*%
X151572000Y-97790000D03*
X149672000Y-97790000D03*
%TD*%
D28*
%TO.C,U2*%
X157835000Y-97988000D03*
X157835000Y-98488000D03*
X157835000Y-98988000D03*
X157835000Y-99488000D03*
X157835000Y-99988000D03*
X157835000Y-100488000D03*
X157835000Y-100988000D03*
X157835000Y-101488000D03*
X157835000Y-101988000D03*
X157835000Y-102488000D03*
X157835000Y-102988000D03*
X157835000Y-103488000D03*
X157835000Y-103988000D03*
X157835000Y-104488000D03*
X157835000Y-104988000D03*
X157835000Y-105488000D03*
D29*
X159760000Y-107413000D03*
X160260000Y-107413000D03*
X160760000Y-107413000D03*
X161260000Y-107413000D03*
X161760000Y-107413000D03*
X162260000Y-107413000D03*
X162760000Y-107413000D03*
X163260000Y-107413000D03*
X163760000Y-107413000D03*
X164260000Y-107413000D03*
X164760000Y-107413000D03*
X165260000Y-107413000D03*
X165760000Y-107413000D03*
X166260000Y-107413000D03*
X166760000Y-107413000D03*
X167260000Y-107413000D03*
D28*
X169185000Y-105488000D03*
X169185000Y-104988000D03*
X169185000Y-104488000D03*
X169185000Y-103988000D03*
X169185000Y-103488000D03*
X169185000Y-102988000D03*
X169185000Y-102488000D03*
X169185000Y-101988000D03*
X169185000Y-101488000D03*
X169185000Y-100988000D03*
X169185000Y-100488000D03*
X169185000Y-99988000D03*
X169185000Y-99488000D03*
X169185000Y-98988000D03*
X169185000Y-98488000D03*
X169185000Y-97988000D03*
D29*
X167260000Y-96063000D03*
X166760000Y-96063000D03*
X166260000Y-96063000D03*
X165760000Y-96063000D03*
X165260000Y-96063000D03*
X164760000Y-96063000D03*
X164260000Y-96063000D03*
X163760000Y-96063000D03*
X163260000Y-96063000D03*
X162760000Y-96063000D03*
X162260000Y-96063000D03*
X161760000Y-96063000D03*
X161260000Y-96063000D03*
X160760000Y-96063000D03*
X160260000Y-96063000D03*
X159760000Y-96063000D03*
%TD*%
D15*
%TO.C,C4*%
X161008000Y-109728000D03*
X160048000Y-109728000D03*
%TD*%
D30*
%TO.C,C11*%
X149926000Y-104648000D03*
X151826000Y-104648000D03*
%TD*%
D31*
%TO.C,R5*%
X165925000Y-62230000D03*
X164275000Y-62230000D03*
%TD*%
D32*
%TO.C,J4*%
X202727000Y-101676000D03*
X202727000Y-100876000D03*
X202727000Y-100076000D03*
X202727000Y-99276000D03*
X202727000Y-98476000D03*
D33*
X202827000Y-104526000D03*
X208277000Y-104526000D03*
X202827000Y-95626000D03*
X208277000Y-95626000D03*
%TD*%
D34*
%TO.C,C7*%
X154178000Y-102857000D03*
X154178000Y-104407000D03*
%TD*%
D35*
%TO.C,C12*%
X167627000Y-109474000D03*
X169177000Y-109474000D03*
%TD*%
M02*
