%TF.GenerationSoftware,KiCad,Pcbnew,7.0.7*%
%TF.CreationDate,2023-10-17T18:40:51-05:00*%
%TF.ProjectId,stm32f405rgt6,73746d33-3266-4343-9035-726774362e6b,rev?*%
%TF.SameCoordinates,Original*%
%TF.FileFunction,Copper,L4,Bot*%
%TF.FilePolarity,Positive*%
%FSLAX46Y46*%
G04 Gerber Fmt 4.6, Leading zero omitted, Abs format (unit mm)*
G04 Created by KiCad (PCBNEW 7.0.7) date 2023-10-17 18:40:51*
%MOMM*%
%LPD*%
G01*
G04 APERTURE LIST*
%TA.AperFunction,ComponentPad*%
%ADD10C,0.900000*%
%TD*%
%TA.AperFunction,ComponentPad*%
%ADD11C,8.600000*%
%TD*%
%TA.AperFunction,ComponentPad*%
%ADD12R,1.000000X1.000000*%
%TD*%
%TA.AperFunction,ComponentPad*%
%ADD13O,1.000000X1.000000*%
%TD*%
%TA.AperFunction,ComponentPad*%
%ADD14R,2.600000X2.600000*%
%TD*%
%TA.AperFunction,ComponentPad*%
%ADD15C,2.600000*%
%TD*%
%TA.AperFunction,ViaPad*%
%ADD16C,0.800000*%
%TD*%
%TA.AperFunction,Conductor*%
%ADD17C,0.250000*%
%TD*%
%TA.AperFunction,Conductor*%
%ADD18C,0.500000*%
%TD*%
G04 APERTURE END LIST*
D10*
%TO.P,H4,1,1*%
%TO.N,GND*%
X202007000Y-128524000D03*
X202951581Y-126243581D03*
X202951581Y-130804419D03*
X205232000Y-125299000D03*
D11*
X205232000Y-128524000D03*
D10*
X205232000Y-131749000D03*
X207512419Y-126243581D03*
X207512419Y-130804419D03*
X208457000Y-128524000D03*
%TD*%
D12*
%TO.P,J7,1,Pin_1*%
%TO.N,+5V*%
X209804000Y-81280000D03*
D13*
%TO.P,J7,2,Pin_2*%
%TO.N,GND*%
X209804000Y-80010000D03*
%TD*%
D10*
%TO.P,H3,1,1*%
%TO.N,GND*%
X127077000Y-128524000D03*
X128021581Y-126243581D03*
X128021581Y-130804419D03*
X130302000Y-125299000D03*
D11*
X130302000Y-128524000D03*
D10*
X130302000Y-131749000D03*
X132582419Y-126243581D03*
X132582419Y-130804419D03*
X133527000Y-128524000D03*
%TD*%
D14*
%TO.P,I2C,1,Pin_1*%
%TO.N,GND*%
X148830000Y-128270000D03*
D15*
%TO.P,I2C,2,Pin_2*%
%TO.N,I2C2_SCL*%
X153830000Y-128270000D03*
%TO.P,I2C,3,Pin_3*%
%TO.N,I2C2_SDA*%
X158830000Y-128270000D03*
%TO.P,I2C,4,Pin_4*%
%TO.N,+3.3V*%
X163830000Y-128270000D03*
%TD*%
D10*
%TO.P,H1,1,1*%
%TO.N,GND*%
X202007000Y-67564000D03*
X202951581Y-65283581D03*
X202951581Y-69844419D03*
X205232000Y-64339000D03*
D11*
X205232000Y-67564000D03*
D10*
X205232000Y-70789000D03*
X207512419Y-65283581D03*
X207512419Y-69844419D03*
X208457000Y-67564000D03*
%TD*%
D14*
%TO.P,J8,1,Pin_1*%
%TO.N,GND*%
X196770000Y-66548000D03*
D15*
%TO.P,J8,2,Pin_2*%
%TO.N,CAN_TX*%
X191770000Y-66548000D03*
%TO.P,J8,3,Pin_3*%
%TO.N,CAN_RX*%
X186770000Y-66548000D03*
%TO.P,J8,4,Pin_4*%
%TO.N,+5V*%
X181770000Y-66548000D03*
%TD*%
D14*
%TO.P,Analog Inputs,1,Pin_1*%
%TO.N,LinPot4*%
X130251000Y-104514000D03*
D15*
%TO.P,Analog Inputs,2,Pin_2*%
%TO.N,LinPot3*%
X130251000Y-109514000D03*
%TO.P,Analog Inputs,3,Pin_3*%
%TO.N,LinPot2*%
X130251000Y-114514000D03*
%TO.P,Analog Inputs,4,Pin_4*%
%TO.N,LinPot1*%
X130251000Y-119514000D03*
%TD*%
D14*
%TO.P,SPI,1,Pin_1*%
%TO.N,+3.3V*%
X170434000Y-128270000D03*
D15*
%TO.P,SPI,2,Pin_2*%
%TO.N,SPI1_CS*%
X175514000Y-128270000D03*
%TO.P,SPI,3,Pin_3*%
%TO.N,SPI1_MOSI*%
X180594000Y-128270000D03*
%TO.P,SPI,4,Pin_4*%
%TO.N,SPI1_MISO*%
X185674000Y-128270000D03*
%TO.P,SPI,5,Pin_5*%
%TO.N,SPI1_SCK*%
X190754000Y-128270000D03*
%TO.P,SPI,6,Pin_6*%
%TO.N,GND*%
X195834000Y-128270000D03*
%TD*%
D12*
%TO.P,J1,1,Pin_1*%
%TO.N,+3.3V*%
X139954000Y-132334000D03*
D13*
%TO.P,J1,2,Pin_2*%
%TO.N,USART2_RX*%
X139954000Y-131064000D03*
%TO.P,J1,3,Pin_3*%
%TO.N,USART2_TX*%
X139954000Y-129794000D03*
%TO.P,J1,4,Pin_4*%
%TO.N,GND*%
X139954000Y-128524000D03*
%TD*%
D10*
%TO.P,H2,1,1*%
%TO.N,GND*%
X127077000Y-67564000D03*
X128021581Y-65283581D03*
X128021581Y-69844419D03*
X130302000Y-64339000D03*
D11*
X130302000Y-67564000D03*
D10*
X130302000Y-70789000D03*
X132582419Y-65283581D03*
X132582419Y-69844419D03*
X133527000Y-67564000D03*
%TD*%
D12*
%TO.P,J9,1,Pin_1*%
%TO.N,+3.3V*%
X209804000Y-74930000D03*
D13*
%TO.P,J9,2,Pin_2*%
%TO.N,GND*%
X209804000Y-73660000D03*
%TD*%
D16*
%TO.N,GND*%
X208280000Y-80010000D03*
%TO.N,+3.3V*%
X171704000Y-130302000D03*
X208788000Y-75042000D03*
X153935500Y-106183500D03*
X159004000Y-94234000D03*
X159004000Y-92964000D03*
X160528000Y-110744000D03*
X127762000Y-90932000D03*
X138684000Y-132334000D03*
X167894000Y-107442000D03*
X206756000Y-91440000D03*
X153924000Y-98044000D03*
X165354000Y-129794000D03*
X165354000Y-114300000D03*
X170434000Y-62230000D03*
X199136000Y-106426000D03*
X166624000Y-114300000D03*
X170942000Y-96012000D03*
%TO.N,GND*%
X170180000Y-109474000D03*
X206756000Y-86360000D03*
X154178000Y-101600000D03*
X206756000Y-88392000D03*
X173482000Y-96266000D03*
X194310000Y-130048000D03*
X163322000Y-62230000D03*
X148844000Y-104648000D03*
X161544000Y-92964000D03*
X206756000Y-89916000D03*
X148336000Y-100584000D03*
X124714000Y-77978000D03*
X160528000Y-105918000D03*
X197104000Y-106426000D03*
X208168000Y-73660000D03*
X195072000Y-68072000D03*
X127762000Y-97282000D03*
X161544000Y-94234000D03*
X138430000Y-128524000D03*
X190246000Y-97790000D03*
X152654000Y-97790000D03*
X150368000Y-130048000D03*
X202692000Y-97790000D03*
%TO.N,USART2_TX*%
X156464000Y-105488000D03*
X147828000Y-115570000D03*
%TO.N,SWCLK*%
X175006000Y-96520000D03*
X169672000Y-94234000D03*
%TO.N,SWO*%
X175006000Y-95250000D03*
X170180000Y-107696000D03*
%TO.N,unconnected-(J4-Shield-Pad6)*%
X208280000Y-101854000D03*
X207264000Y-97282000D03*
%TO.N,SPI1_MOSI*%
X177546000Y-120142000D03*
X160528000Y-117602000D03*
%TO.N,SPI1_MISO*%
X178562000Y-118618000D03*
X160782000Y-115570000D03*
%TO.N,SPI1_SCK*%
X179070000Y-117094000D03*
X160782000Y-113284000D03*
%TO.N,LinPot2*%
X155702000Y-101212500D03*
X149352000Y-107950000D03*
%TO.N,LinPot1*%
X159766000Y-101854000D03*
X158496000Y-108712000D03*
%TO.N,CAN_TX*%
X180848000Y-83312000D03*
X174498000Y-106172000D03*
%TO.N,CAN_RX*%
X174498000Y-107442000D03*
X182880000Y-84074000D03*
%TD*%
D17*
%TO.N,USART2_TX*%
X156464000Y-106934000D02*
X147828000Y-115570000D01*
X156464000Y-105488000D02*
X156464000Y-106934000D01*
%TO.N,SWCLK*%
X175006000Y-96520000D02*
X172720000Y-94234000D01*
X172720000Y-94234000D02*
X169672000Y-94234000D01*
%TO.N,SWO*%
X177038000Y-97282000D02*
X175006000Y-95250000D01*
X170180000Y-107696000D02*
X170434000Y-107696000D01*
X170434000Y-107696000D02*
X177038000Y-101092000D01*
X177038000Y-101092000D02*
X177038000Y-97282000D01*
D18*
%TO.N,unconnected-(J4-Shield-Pad6)*%
X207264000Y-100838000D02*
X208280000Y-101854000D01*
X207264000Y-97282000D02*
X207264000Y-100838000D01*
D17*
%TO.N,SPI1_MOSI*%
X163068000Y-120142000D02*
X160528000Y-117602000D01*
X177546000Y-120142000D02*
X173990000Y-120142000D01*
X173990000Y-120142000D02*
X163068000Y-120142000D01*
%TO.N,SPI1_MISO*%
X163830000Y-118618000D02*
X160782000Y-115570000D01*
X178562000Y-118618000D02*
X163830000Y-118618000D01*
%TO.N,SPI1_SCK*%
X179070000Y-117094000D02*
X164592000Y-117094000D01*
X164592000Y-117094000D02*
X160782000Y-113284000D01*
%TO.N,LinPot2*%
X155702000Y-101600000D02*
X155702000Y-101212500D01*
X149352000Y-107950000D02*
X155702000Y-101600000D01*
%TO.N,LinPot1*%
X159766000Y-107442000D02*
X159766000Y-101854000D01*
X158496000Y-108712000D02*
X159766000Y-107442000D01*
%TO.N,CAN_TX*%
X180848000Y-99822000D02*
X174498000Y-106172000D01*
X180848000Y-83312000D02*
X180848000Y-99822000D01*
%TO.N,CAN_RX*%
X182880000Y-84074000D02*
X182880000Y-99060000D01*
X182880000Y-99060000D02*
X174498000Y-107442000D01*
%TD*%
M02*
