%TF.GenerationSoftware,KiCad,Pcbnew,7.0.7*%
%TF.CreationDate,2023-11-03T00:22:48-05:00*%
%TF.ProjectId,STM32F030,53544d33-3246-4303-9330-2e6b69636164,rev?*%
%TF.SameCoordinates,Original*%
%TF.FileFunction,Legend,Top*%
%TF.FilePolarity,Positive*%
%FSLAX46Y46*%
G04 Gerber Fmt 4.6, Leading zero omitted, Abs format (unit mm)*
G04 Created by KiCad (PCBNEW 7.0.7) date 2023-11-03 00:22:48*
%MOMM*%
%LPD*%
G01*
G04 APERTURE LIST*
%ADD10C,0.150000*%
%ADD11C,0.120000*%
G04 APERTURE END LIST*
D10*
X101631845Y-62136069D02*
X101631845Y-61136069D01*
X101631845Y-61612259D02*
X102203273Y-61612259D01*
X102203273Y-62136069D02*
X102203273Y-61136069D01*
X103203273Y-62136069D02*
X102631845Y-62136069D01*
X102917559Y-62136069D02*
X102917559Y-61136069D01*
X102917559Y-61136069D02*
X102822321Y-61278926D01*
X102822321Y-61278926D02*
X102727083Y-61374164D01*
X102727083Y-61374164D02*
X102631845Y-61421783D01*
X164298512Y-62161069D02*
X164298512Y-62970592D01*
X164298512Y-62970592D02*
X164346131Y-63065830D01*
X164346131Y-63065830D02*
X164393750Y-63113450D01*
X164393750Y-63113450D02*
X164488988Y-63161069D01*
X164488988Y-63161069D02*
X164679464Y-63161069D01*
X164679464Y-63161069D02*
X164774702Y-63113450D01*
X164774702Y-63113450D02*
X164822321Y-63065830D01*
X164822321Y-63065830D02*
X164869940Y-62970592D01*
X164869940Y-62970592D02*
X164869940Y-62161069D01*
X165298512Y-62875354D02*
X165774702Y-62875354D01*
X165203274Y-63161069D02*
X165536607Y-62161069D01*
X165536607Y-62161069D02*
X165869940Y-63161069D01*
X166774702Y-63161069D02*
X166441369Y-62684878D01*
X166203274Y-63161069D02*
X166203274Y-62161069D01*
X166203274Y-62161069D02*
X166584226Y-62161069D01*
X166584226Y-62161069D02*
X166679464Y-62208688D01*
X166679464Y-62208688D02*
X166727083Y-62256307D01*
X166727083Y-62256307D02*
X166774702Y-62351545D01*
X166774702Y-62351545D02*
X166774702Y-62494402D01*
X166774702Y-62494402D02*
X166727083Y-62589640D01*
X166727083Y-62589640D02*
X166679464Y-62637259D01*
X166679464Y-62637259D02*
X166584226Y-62684878D01*
X166584226Y-62684878D02*
X166203274Y-62684878D01*
X167060417Y-62161069D02*
X167631845Y-62161069D01*
X167346131Y-63161069D02*
X167346131Y-62161069D01*
X146788393Y-62367319D02*
X146788393Y-61367319D01*
X146788393Y-61367319D02*
X147359821Y-62367319D01*
X147359821Y-62367319D02*
X147359821Y-61367319D01*
X148407440Y-62367319D02*
X148074107Y-61891128D01*
X147836012Y-62367319D02*
X147836012Y-61367319D01*
X147836012Y-61367319D02*
X148216964Y-61367319D01*
X148216964Y-61367319D02*
X148312202Y-61414938D01*
X148312202Y-61414938D02*
X148359821Y-61462557D01*
X148359821Y-61462557D02*
X148407440Y-61557795D01*
X148407440Y-61557795D02*
X148407440Y-61700652D01*
X148407440Y-61700652D02*
X148359821Y-61795890D01*
X148359821Y-61795890D02*
X148312202Y-61843509D01*
X148312202Y-61843509D02*
X148216964Y-61891128D01*
X148216964Y-61891128D02*
X147836012Y-61891128D01*
X148788393Y-62319700D02*
X148931250Y-62367319D01*
X148931250Y-62367319D02*
X149169345Y-62367319D01*
X149169345Y-62367319D02*
X149264583Y-62319700D01*
X149264583Y-62319700D02*
X149312202Y-62272080D01*
X149312202Y-62272080D02*
X149359821Y-62176842D01*
X149359821Y-62176842D02*
X149359821Y-62081604D01*
X149359821Y-62081604D02*
X149312202Y-61986366D01*
X149312202Y-61986366D02*
X149264583Y-61938747D01*
X149264583Y-61938747D02*
X149169345Y-61891128D01*
X149169345Y-61891128D02*
X148978869Y-61843509D01*
X148978869Y-61843509D02*
X148883631Y-61795890D01*
X148883631Y-61795890D02*
X148836012Y-61748271D01*
X148836012Y-61748271D02*
X148788393Y-61653033D01*
X148788393Y-61653033D02*
X148788393Y-61557795D01*
X148788393Y-61557795D02*
X148836012Y-61462557D01*
X148836012Y-61462557D02*
X148883631Y-61414938D01*
X148883631Y-61414938D02*
X148978869Y-61367319D01*
X148978869Y-61367319D02*
X149216964Y-61367319D01*
X149216964Y-61367319D02*
X149359821Y-61414938D01*
X149645536Y-61367319D02*
X150216964Y-61367319D01*
X149931250Y-62367319D02*
X149931250Y-61367319D01*
X169656250Y-62208688D02*
X169561012Y-62161069D01*
X169561012Y-62161069D02*
X169418155Y-62161069D01*
X169418155Y-62161069D02*
X169275298Y-62208688D01*
X169275298Y-62208688D02*
X169180060Y-62303926D01*
X169180060Y-62303926D02*
X169132441Y-62399164D01*
X169132441Y-62399164D02*
X169084822Y-62589640D01*
X169084822Y-62589640D02*
X169084822Y-62732497D01*
X169084822Y-62732497D02*
X169132441Y-62922973D01*
X169132441Y-62922973D02*
X169180060Y-63018211D01*
X169180060Y-63018211D02*
X169275298Y-63113450D01*
X169275298Y-63113450D02*
X169418155Y-63161069D01*
X169418155Y-63161069D02*
X169513393Y-63161069D01*
X169513393Y-63161069D02*
X169656250Y-63113450D01*
X169656250Y-63113450D02*
X169703869Y-63065830D01*
X169703869Y-63065830D02*
X169703869Y-62732497D01*
X169703869Y-62732497D02*
X169513393Y-62732497D01*
X170132441Y-63161069D02*
X170132441Y-62161069D01*
X170132441Y-62161069D02*
X170513393Y-62161069D01*
X170513393Y-62161069D02*
X170608631Y-62208688D01*
X170608631Y-62208688D02*
X170656250Y-62256307D01*
X170656250Y-62256307D02*
X170703869Y-62351545D01*
X170703869Y-62351545D02*
X170703869Y-62494402D01*
X170703869Y-62494402D02*
X170656250Y-62589640D01*
X170656250Y-62589640D02*
X170608631Y-62637259D01*
X170608631Y-62637259D02*
X170513393Y-62684878D01*
X170513393Y-62684878D02*
X170132441Y-62684878D01*
X171132441Y-63161069D02*
X171132441Y-62161069D01*
X171799107Y-62161069D02*
X171989583Y-62161069D01*
X171989583Y-62161069D02*
X172084821Y-62208688D01*
X172084821Y-62208688D02*
X172180059Y-62303926D01*
X172180059Y-62303926D02*
X172227678Y-62494402D01*
X172227678Y-62494402D02*
X172227678Y-62827735D01*
X172227678Y-62827735D02*
X172180059Y-63018211D01*
X172180059Y-63018211D02*
X172084821Y-63113450D01*
X172084821Y-63113450D02*
X171989583Y-63161069D01*
X171989583Y-63161069D02*
X171799107Y-63161069D01*
X171799107Y-63161069D02*
X171703869Y-63113450D01*
X171703869Y-63113450D02*
X171608631Y-63018211D01*
X171608631Y-63018211D02*
X171561012Y-62827735D01*
X171561012Y-62827735D02*
X171561012Y-62494402D01*
X171561012Y-62494402D02*
X171608631Y-62303926D01*
X171608631Y-62303926D02*
X171703869Y-62208688D01*
X171703869Y-62208688D02*
X171799107Y-62161069D01*
X97800354Y-101684523D02*
X97800354Y-101208333D01*
X98086069Y-101779761D02*
X97086069Y-101446428D01*
X97086069Y-101446428D02*
X98086069Y-101113095D01*
X97419402Y-100779761D02*
X98086069Y-100779761D01*
X97514640Y-100779761D02*
X97467021Y-100732142D01*
X97467021Y-100732142D02*
X97419402Y-100636904D01*
X97419402Y-100636904D02*
X97419402Y-100494047D01*
X97419402Y-100494047D02*
X97467021Y-100398809D01*
X97467021Y-100398809D02*
X97562259Y-100351190D01*
X97562259Y-100351190D02*
X98086069Y-100351190D01*
X98086069Y-99446428D02*
X97562259Y-99446428D01*
X97562259Y-99446428D02*
X97467021Y-99494047D01*
X97467021Y-99494047D02*
X97419402Y-99589285D01*
X97419402Y-99589285D02*
X97419402Y-99779761D01*
X97419402Y-99779761D02*
X97467021Y-99874999D01*
X98038450Y-99446428D02*
X98086069Y-99541666D01*
X98086069Y-99541666D02*
X98086069Y-99779761D01*
X98086069Y-99779761D02*
X98038450Y-99874999D01*
X98038450Y-99874999D02*
X97943211Y-99922618D01*
X97943211Y-99922618D02*
X97847973Y-99922618D01*
X97847973Y-99922618D02*
X97752735Y-99874999D01*
X97752735Y-99874999D02*
X97705116Y-99779761D01*
X97705116Y-99779761D02*
X97705116Y-99541666D01*
X97705116Y-99541666D02*
X97657497Y-99446428D01*
X98086069Y-98827380D02*
X98038450Y-98922618D01*
X98038450Y-98922618D02*
X97943211Y-98970237D01*
X97943211Y-98970237D02*
X97086069Y-98970237D01*
X98086069Y-98303570D02*
X98038450Y-98398808D01*
X98038450Y-98398808D02*
X97990830Y-98446427D01*
X97990830Y-98446427D02*
X97895592Y-98494046D01*
X97895592Y-98494046D02*
X97609878Y-98494046D01*
X97609878Y-98494046D02*
X97514640Y-98446427D01*
X97514640Y-98446427D02*
X97467021Y-98398808D01*
X97467021Y-98398808D02*
X97419402Y-98303570D01*
X97419402Y-98303570D02*
X97419402Y-98160713D01*
X97419402Y-98160713D02*
X97467021Y-98065475D01*
X97467021Y-98065475D02*
X97514640Y-98017856D01*
X97514640Y-98017856D02*
X97609878Y-97970237D01*
X97609878Y-97970237D02*
X97895592Y-97970237D01*
X97895592Y-97970237D02*
X97990830Y-98017856D01*
X97990830Y-98017856D02*
X98038450Y-98065475D01*
X98038450Y-98065475D02*
X98086069Y-98160713D01*
X98086069Y-98160713D02*
X98086069Y-98303570D01*
X97419402Y-97113094D02*
X98228926Y-97113094D01*
X98228926Y-97113094D02*
X98324164Y-97160713D01*
X98324164Y-97160713D02*
X98371783Y-97208332D01*
X98371783Y-97208332D02*
X98419402Y-97303570D01*
X98419402Y-97303570D02*
X98419402Y-97446427D01*
X98419402Y-97446427D02*
X98371783Y-97541665D01*
X98038450Y-97113094D02*
X98086069Y-97208332D01*
X98086069Y-97208332D02*
X98086069Y-97398808D01*
X98086069Y-97398808D02*
X98038450Y-97494046D01*
X98038450Y-97494046D02*
X97990830Y-97541665D01*
X97990830Y-97541665D02*
X97895592Y-97589284D01*
X97895592Y-97589284D02*
X97609878Y-97589284D01*
X97609878Y-97589284D02*
X97514640Y-97541665D01*
X97514640Y-97541665D02*
X97467021Y-97494046D01*
X97467021Y-97494046D02*
X97419402Y-97398808D01*
X97419402Y-97398808D02*
X97419402Y-97208332D01*
X97419402Y-97208332D02*
X97467021Y-97113094D01*
X176134789Y-62136069D02*
X176134789Y-61136069D01*
X176134789Y-61612259D02*
X176706217Y-61612259D01*
X176706217Y-62136069D02*
X176706217Y-61136069D01*
X177134789Y-61231307D02*
X177182408Y-61183688D01*
X177182408Y-61183688D02*
X177277646Y-61136069D01*
X177277646Y-61136069D02*
X177515741Y-61136069D01*
X177515741Y-61136069D02*
X177610979Y-61183688D01*
X177610979Y-61183688D02*
X177658598Y-61231307D01*
X177658598Y-61231307D02*
X177706217Y-61326545D01*
X177706217Y-61326545D02*
X177706217Y-61421783D01*
X177706217Y-61421783D02*
X177658598Y-61564640D01*
X177658598Y-61564640D02*
X177087170Y-62136069D01*
X177087170Y-62136069D02*
X177706217Y-62136069D01*
X109944700Y-62452082D02*
X109992319Y-62309225D01*
X109992319Y-62309225D02*
X109992319Y-62071130D01*
X109992319Y-62071130D02*
X109944700Y-61975892D01*
X109944700Y-61975892D02*
X109897080Y-61928273D01*
X109897080Y-61928273D02*
X109801842Y-61880654D01*
X109801842Y-61880654D02*
X109706604Y-61880654D01*
X109706604Y-61880654D02*
X109611366Y-61928273D01*
X109611366Y-61928273D02*
X109563747Y-61975892D01*
X109563747Y-61975892D02*
X109516128Y-62071130D01*
X109516128Y-62071130D02*
X109468509Y-62261606D01*
X109468509Y-62261606D02*
X109420890Y-62356844D01*
X109420890Y-62356844D02*
X109373271Y-62404463D01*
X109373271Y-62404463D02*
X109278033Y-62452082D01*
X109278033Y-62452082D02*
X109182795Y-62452082D01*
X109182795Y-62452082D02*
X109087557Y-62404463D01*
X109087557Y-62404463D02*
X109039938Y-62356844D01*
X109039938Y-62356844D02*
X108992319Y-62261606D01*
X108992319Y-62261606D02*
X108992319Y-62023511D01*
X108992319Y-62023511D02*
X109039938Y-61880654D01*
X108992319Y-61547320D02*
X109992319Y-61309225D01*
X109992319Y-61309225D02*
X109278033Y-61118749D01*
X109278033Y-61118749D02*
X109992319Y-60928273D01*
X109992319Y-60928273D02*
X108992319Y-60690178D01*
X109087557Y-60356844D02*
X109039938Y-60309225D01*
X109039938Y-60309225D02*
X108992319Y-60213987D01*
X108992319Y-60213987D02*
X108992319Y-59975892D01*
X108992319Y-59975892D02*
X109039938Y-59880654D01*
X109039938Y-59880654D02*
X109087557Y-59833035D01*
X109087557Y-59833035D02*
X109182795Y-59785416D01*
X109182795Y-59785416D02*
X109278033Y-59785416D01*
X109278033Y-59785416D02*
X109420890Y-59833035D01*
X109420890Y-59833035D02*
X109992319Y-60404463D01*
X109992319Y-60404463D02*
X109992319Y-59785416D01*
X156892857Y-62332200D02*
X157035714Y-62379819D01*
X157035714Y-62379819D02*
X157273809Y-62379819D01*
X157273809Y-62379819D02*
X157369047Y-62332200D01*
X157369047Y-62332200D02*
X157416666Y-62284580D01*
X157416666Y-62284580D02*
X157464285Y-62189342D01*
X157464285Y-62189342D02*
X157464285Y-62094104D01*
X157464285Y-62094104D02*
X157416666Y-61998866D01*
X157416666Y-61998866D02*
X157369047Y-61951247D01*
X157369047Y-61951247D02*
X157273809Y-61903628D01*
X157273809Y-61903628D02*
X157083333Y-61856009D01*
X157083333Y-61856009D02*
X156988095Y-61808390D01*
X156988095Y-61808390D02*
X156940476Y-61760771D01*
X156940476Y-61760771D02*
X156892857Y-61665533D01*
X156892857Y-61665533D02*
X156892857Y-61570295D01*
X156892857Y-61570295D02*
X156940476Y-61475057D01*
X156940476Y-61475057D02*
X156988095Y-61427438D01*
X156988095Y-61427438D02*
X157083333Y-61379819D01*
X157083333Y-61379819D02*
X157321428Y-61379819D01*
X157321428Y-61379819D02*
X157464285Y-61427438D01*
X157797619Y-61379819D02*
X158035714Y-62379819D01*
X158035714Y-62379819D02*
X158226190Y-61665533D01*
X158226190Y-61665533D02*
X158416666Y-62379819D01*
X158416666Y-62379819D02*
X158654762Y-61379819D01*
X159035714Y-62379819D02*
X159035714Y-61379819D01*
X159035714Y-61379819D02*
X159273809Y-61379819D01*
X159273809Y-61379819D02*
X159416666Y-61427438D01*
X159416666Y-61427438D02*
X159511904Y-61522676D01*
X159511904Y-61522676D02*
X159559523Y-61617914D01*
X159559523Y-61617914D02*
X159607142Y-61808390D01*
X159607142Y-61808390D02*
X159607142Y-61951247D01*
X159607142Y-61951247D02*
X159559523Y-62141723D01*
X159559523Y-62141723D02*
X159511904Y-62236961D01*
X159511904Y-62236961D02*
X159416666Y-62332200D01*
X159416666Y-62332200D02*
X159273809Y-62379819D01*
X159273809Y-62379819D02*
X159035714Y-62379819D01*
X131532441Y-125819700D02*
X131675298Y-125867319D01*
X131675298Y-125867319D02*
X131913393Y-125867319D01*
X131913393Y-125867319D02*
X132008631Y-125819700D01*
X132008631Y-125819700D02*
X132056250Y-125772080D01*
X132056250Y-125772080D02*
X132103869Y-125676842D01*
X132103869Y-125676842D02*
X132103869Y-125581604D01*
X132103869Y-125581604D02*
X132056250Y-125486366D01*
X132056250Y-125486366D02*
X132008631Y-125438747D01*
X132008631Y-125438747D02*
X131913393Y-125391128D01*
X131913393Y-125391128D02*
X131722917Y-125343509D01*
X131722917Y-125343509D02*
X131627679Y-125295890D01*
X131627679Y-125295890D02*
X131580060Y-125248271D01*
X131580060Y-125248271D02*
X131532441Y-125153033D01*
X131532441Y-125153033D02*
X131532441Y-125057795D01*
X131532441Y-125057795D02*
X131580060Y-124962557D01*
X131580060Y-124962557D02*
X131627679Y-124914938D01*
X131627679Y-124914938D02*
X131722917Y-124867319D01*
X131722917Y-124867319D02*
X131961012Y-124867319D01*
X131961012Y-124867319D02*
X132103869Y-124914938D01*
X132532441Y-125867319D02*
X132532441Y-124867319D01*
X132532441Y-124867319D02*
X132913393Y-124867319D01*
X132913393Y-124867319D02*
X133008631Y-124914938D01*
X133008631Y-124914938D02*
X133056250Y-124962557D01*
X133056250Y-124962557D02*
X133103869Y-125057795D01*
X133103869Y-125057795D02*
X133103869Y-125200652D01*
X133103869Y-125200652D02*
X133056250Y-125295890D01*
X133056250Y-125295890D02*
X133008631Y-125343509D01*
X133008631Y-125343509D02*
X132913393Y-125391128D01*
X132913393Y-125391128D02*
X132532441Y-125391128D01*
X133532441Y-125867319D02*
X133532441Y-124867319D01*
X130786310Y-62367319D02*
X130786310Y-61367319D01*
X131214881Y-61462557D02*
X131262500Y-61414938D01*
X131262500Y-61414938D02*
X131357738Y-61367319D01*
X131357738Y-61367319D02*
X131595833Y-61367319D01*
X131595833Y-61367319D02*
X131691071Y-61414938D01*
X131691071Y-61414938D02*
X131738690Y-61462557D01*
X131738690Y-61462557D02*
X131786309Y-61557795D01*
X131786309Y-61557795D02*
X131786309Y-61653033D01*
X131786309Y-61653033D02*
X131738690Y-61795890D01*
X131738690Y-61795890D02*
X131167262Y-62367319D01*
X131167262Y-62367319D02*
X131786309Y-62367319D01*
X132786309Y-62272080D02*
X132738690Y-62319700D01*
X132738690Y-62319700D02*
X132595833Y-62367319D01*
X132595833Y-62367319D02*
X132500595Y-62367319D01*
X132500595Y-62367319D02*
X132357738Y-62319700D01*
X132357738Y-62319700D02*
X132262500Y-62224461D01*
X132262500Y-62224461D02*
X132214881Y-62129223D01*
X132214881Y-62129223D02*
X132167262Y-61938747D01*
X132167262Y-61938747D02*
X132167262Y-61795890D01*
X132167262Y-61795890D02*
X132214881Y-61605414D01*
X132214881Y-61605414D02*
X132262500Y-61510176D01*
X132262500Y-61510176D02*
X132357738Y-61414938D01*
X132357738Y-61414938D02*
X132500595Y-61367319D01*
X132500595Y-61367319D02*
X132595833Y-61367319D01*
X132595833Y-61367319D02*
X132738690Y-61414938D01*
X132738690Y-61414938D02*
X132786309Y-61462557D01*
D11*
%TO.C,C15*%
X165190580Y-110191250D02*
X164909420Y-110191250D01*
X165190580Y-109171250D02*
X164909420Y-109171250D01*
%TO.C,R3*%
X145750242Y-100283750D02*
X146224758Y-100283750D01*
X145750242Y-101328750D02*
X146224758Y-101328750D01*
%TO.C,UART*%
X167223750Y-69280000D02*
X165893750Y-69280000D01*
X167223750Y-67950000D02*
X167223750Y-69280000D01*
X167223750Y-66680000D02*
X167223750Y-64080000D01*
X167223750Y-66680000D02*
X164563750Y-66680000D01*
X167223750Y-64080000D02*
X164563750Y-64080000D01*
X164563750Y-66680000D02*
X164563750Y-64080000D01*
%TO.C,NRST*%
X145190000Y-63145000D02*
X151650000Y-63145000D01*
X145190000Y-63175000D02*
X145190000Y-63145000D01*
X145190000Y-65075000D02*
X145190000Y-67675000D01*
X145190000Y-69605000D02*
X145190000Y-69575000D01*
X145190000Y-69605000D02*
X151650000Y-69605000D01*
X151650000Y-63145000D02*
X151650000Y-63175000D01*
X151650000Y-65075000D02*
X151650000Y-67675000D01*
X151650000Y-69605000D02*
X151650000Y-69575000D01*
%TO.C,GPIO*%
X171986250Y-84197500D02*
X170656250Y-84197500D01*
X171986250Y-82867500D02*
X171986250Y-84197500D01*
X171986250Y-81597500D02*
X171986250Y-63757500D01*
X171986250Y-81597500D02*
X169326250Y-81597500D01*
X171986250Y-63757500D02*
X169326250Y-63757500D01*
X169326250Y-81597500D02*
X169326250Y-63757500D01*
%TO.C,U1*%
X125465000Y-95790000D02*
X125465000Y-96740000D01*
X125465000Y-96740000D02*
X124125000Y-96740000D01*
X125465000Y-106010000D02*
X125465000Y-105060000D01*
X126415000Y-95790000D02*
X125465000Y-95790000D01*
X126415000Y-106010000D02*
X125465000Y-106010000D01*
X134735000Y-95790000D02*
X135685000Y-95790000D01*
X134735000Y-106010000D02*
X135685000Y-106010000D01*
X135685000Y-95790000D02*
X135685000Y-96740000D01*
X135685000Y-106010000D02*
X135685000Y-105060000D01*
%TO.C,C14*%
X150078080Y-89410000D02*
X149796920Y-89410000D01*
X150078080Y-88390000D02*
X149796920Y-88390000D01*
%TO.C,R7*%
X145750242Y-98696250D02*
X146224758Y-98696250D01*
X145750242Y-99741250D02*
X146224758Y-99741250D01*
%TO.C,C2*%
X126684420Y-90365000D02*
X126965580Y-90365000D01*
X126684420Y-91385000D02*
X126965580Y-91385000D01*
%TO.C,Analog*%
X100110000Y-84075000D02*
X99370000Y-84075000D01*
X99370000Y-84075000D02*
X99370000Y-84575000D01*
X109531000Y-84315000D02*
X99610000Y-84315000D01*
X109531000Y-84315000D02*
X109531000Y-114435000D01*
X106571000Y-84315000D02*
X106571000Y-114435000D01*
X101670000Y-84315000D02*
X101670000Y-114435000D01*
X100170000Y-84315000D02*
X100170000Y-114435000D01*
X99610000Y-84315000D02*
X99610000Y-114435000D01*
X103247000Y-90648000D02*
X103201000Y-90601000D01*
X103031000Y-90841000D02*
X102996000Y-90806000D01*
X105545000Y-92945000D02*
X105509000Y-92910000D01*
X105339000Y-93150000D02*
X105293000Y-93103000D01*
X103247000Y-95648000D02*
X103201000Y-95601000D01*
X103031000Y-95841000D02*
X102996000Y-95806000D01*
X105545000Y-97945000D02*
X105509000Y-97910000D01*
X105339000Y-98150000D02*
X105293000Y-98103000D01*
X103247000Y-100648000D02*
X103201000Y-100601000D01*
X103031000Y-100841000D02*
X102996000Y-100806000D01*
X105545000Y-102945000D02*
X105509000Y-102910000D01*
X105339000Y-103150000D02*
X105293000Y-103103000D01*
X103247000Y-105648000D02*
X103201000Y-105601000D01*
X103031000Y-105841000D02*
X102996000Y-105806000D01*
X105545000Y-107945000D02*
X105509000Y-107910000D01*
X105339000Y-108150000D02*
X105293000Y-108103000D01*
X103247000Y-110648000D02*
X103201000Y-110601000D01*
X103031000Y-110841000D02*
X102996000Y-110806000D01*
X105545000Y-112945000D02*
X105509000Y-112910000D01*
X105339000Y-113150000D02*
X105293000Y-113103000D01*
X109531000Y-114435000D02*
X99610000Y-114435000D01*
X104953999Y-85340001D02*
G75*
G03*
X103586958Y-85339574I-684000J-1534992D01*
G01*
X105804999Y-87558999D02*
G75*
G03*
X105805426Y-86191958I-1534992J684000D01*
G01*
X102735001Y-86191000D02*
G75*
G03*
X102589748Y-86903805I1535000J-683999D01*
G01*
X102590001Y-86875000D02*
G75*
G03*
X102735245Y-87558318I1679999J0D01*
G01*
X103586000Y-88410000D02*
G75*
G03*
X104953042Y-88410426I684000J1535000D01*
G01*
X105950000Y-91875000D02*
G75*
G03*
X105950000Y-91875000I-1680000J0D01*
G01*
X105950000Y-96875000D02*
G75*
G03*
X105950000Y-96875000I-1680000J0D01*
G01*
X105950000Y-101875000D02*
G75*
G03*
X105950000Y-101875000I-1680000J0D01*
G01*
X105950000Y-106875000D02*
G75*
G03*
X105950000Y-106875000I-1680000J0D01*
G01*
X105950000Y-111875000D02*
G75*
G03*
X105950000Y-111875000I-1680000J0D01*
G01*
%TO.C,D1*%
X148465000Y-100115000D02*
X148465000Y-101585000D01*
X148465000Y-101585000D02*
X150750000Y-101585000D01*
X150750000Y-100115000D02*
X148465000Y-100115000D01*
%TO.C,C8*%
X119540000Y-105015580D02*
X119540000Y-104734420D01*
X120560000Y-105015580D02*
X120560000Y-104734420D01*
%TO.C,J1*%
X181127500Y-97572500D02*
X177897500Y-97572500D01*
X175977500Y-96852500D02*
X175977500Y-95772500D01*
X175977500Y-95772500D02*
X175547500Y-95772500D01*
X175977500Y-91552500D02*
X175977500Y-90472500D01*
X181127500Y-89752500D02*
X177897500Y-89752500D01*
%TO.C,R2*%
X132018125Y-111362258D02*
X132018125Y-110887742D01*
X133063125Y-111362258D02*
X133063125Y-110887742D01*
%TO.C,R8*%
X150193508Y-97360000D02*
X149718992Y-97360000D01*
X150193508Y-96315000D02*
X149718992Y-96315000D01*
%TO.C,C1*%
X126684420Y-84365000D02*
X126965580Y-84365000D01*
X126684420Y-85385000D02*
X126965580Y-85385000D01*
%TO.C,R6*%
X133621250Y-111362258D02*
X133621250Y-110887742D01*
X134666250Y-111362258D02*
X134666250Y-110887742D01*
%TO.C,U3*%
X166025000Y-117710000D02*
X160015000Y-117710000D01*
X163775000Y-110890000D02*
X160015000Y-110890000D01*
X160015000Y-117710000D02*
X160015000Y-116450000D01*
X160015000Y-110890000D02*
X160015000Y-112150000D01*
%TO.C,SW2*%
X120487500Y-63018750D02*
X119087500Y-63018750D01*
X120487500Y-59218750D02*
X120487500Y-63018750D01*
X120487500Y-59218750D02*
X120487500Y-59218750D01*
X118787500Y-59218750D02*
X120487500Y-59218750D01*
X118787500Y-58918750D02*
X118787500Y-59218750D01*
X117987500Y-59218750D02*
X117987500Y-58918750D01*
X117987500Y-58918750D02*
X118787500Y-58918750D01*
X117887500Y-58618750D02*
X117887500Y-58618750D01*
X117887500Y-58118750D02*
X117887500Y-58618750D01*
X117887500Y-57818750D02*
X117887500Y-57818750D01*
X117887500Y-57318750D02*
X117887500Y-57818750D01*
X117887500Y-57318750D02*
X117387500Y-57318750D01*
X117687500Y-63018750D02*
X117687500Y-63018750D01*
X117387500Y-57318750D02*
X117387500Y-57318750D01*
X117087500Y-57318750D02*
X116587500Y-57318750D01*
X116587500Y-63018750D02*
X117687500Y-63018750D01*
X116587500Y-57318750D02*
X116587500Y-57318750D01*
X116287500Y-59218750D02*
X117987500Y-59218750D01*
X116287500Y-58918750D02*
X116287500Y-59218750D01*
X116287500Y-57318750D02*
X116287500Y-57318750D01*
X115487500Y-59218750D02*
X115487500Y-58918750D01*
X115487500Y-58918750D02*
X116287500Y-58918750D01*
X115487500Y-57318750D02*
X116287500Y-57318750D01*
X115187500Y-63018750D02*
X115187500Y-63018750D01*
X115187500Y-57318750D02*
X115187500Y-57318750D01*
X114687500Y-57318750D02*
X115187500Y-57318750D01*
X114387500Y-57318750D02*
X114387500Y-57318750D01*
X114087500Y-63018750D02*
X115187500Y-63018750D01*
X113887500Y-58618750D02*
X113887500Y-58618750D01*
X113887500Y-58118750D02*
X113887500Y-58618750D01*
X113887500Y-57818750D02*
X113887500Y-57818750D01*
X113887500Y-57318750D02*
X114387500Y-57318750D01*
X113887500Y-57318750D02*
X113887500Y-57818750D01*
X113787500Y-59218750D02*
X115487500Y-59218750D01*
X113787500Y-58918750D02*
X113787500Y-59218750D01*
X112987500Y-59218750D02*
X112987500Y-58918750D01*
X112987500Y-58918750D02*
X113787500Y-58918750D01*
X112687500Y-63018750D02*
X111287500Y-63018750D01*
X111287500Y-63018750D02*
X111287500Y-59218750D01*
X111287500Y-59218750D02*
X112987500Y-59218750D01*
%TO.C,U2*%
X159590000Y-91915000D02*
X159590000Y-92150000D01*
X159590000Y-92150000D02*
X157775000Y-92150000D01*
X159590000Y-104935000D02*
X159590000Y-104700000D01*
X163450000Y-91915000D02*
X159590000Y-91915000D01*
X163450000Y-91915000D02*
X167310000Y-91915000D01*
X163450000Y-104935000D02*
X159590000Y-104935000D01*
X163450000Y-104935000D02*
X167310000Y-104935000D01*
X167310000Y-91915000D02*
X167310000Y-92150000D01*
X167310000Y-104935000D02*
X167310000Y-104700000D01*
%TO.C,SWD*%
X161046250Y-69845000D02*
X159721250Y-69845000D01*
X159721250Y-69910000D02*
X159721250Y-69845000D01*
X159721250Y-69910000D02*
X156191250Y-69910000D01*
X159721250Y-63505000D02*
X159721250Y-63440000D01*
X159721250Y-63440000D02*
X156191250Y-63440000D01*
X156191250Y-69910000D02*
X156191250Y-69845000D01*
X156191250Y-63505000D02*
X156191250Y-63440000D01*
%TO.C,Y2*%
X148306250Y-94075000D02*
X151606250Y-94075000D01*
X151606250Y-94075000D02*
X151606250Y-90075000D01*
%TO.C,SPI*%
X112693750Y-123222500D02*
X112693750Y-123962500D01*
X112693750Y-123962500D02*
X113193750Y-123962500D01*
X112933750Y-113801500D02*
X112933750Y-123722500D01*
X112933750Y-113801500D02*
X148053750Y-113801500D01*
X112933750Y-116761500D02*
X148053750Y-116761500D01*
X112933750Y-121662500D02*
X148053750Y-121662500D01*
X112933750Y-123162500D02*
X148053750Y-123162500D01*
X112933750Y-123722500D02*
X148053750Y-123722500D01*
X119266750Y-120085500D02*
X119219750Y-120131500D01*
X119459750Y-120301500D02*
X119424750Y-120336500D01*
X121563750Y-117787500D02*
X121528750Y-117823500D01*
X121768750Y-117993500D02*
X121721750Y-118039500D01*
X124266750Y-120085500D02*
X124219750Y-120131500D01*
X124459750Y-120301500D02*
X124424750Y-120336500D01*
X126563750Y-117787500D02*
X126528750Y-117823500D01*
X126768750Y-117993500D02*
X126721750Y-118039500D01*
X129266750Y-120085500D02*
X129219750Y-120131500D01*
X129459750Y-120301500D02*
X129424750Y-120336500D01*
X131563750Y-117787500D02*
X131528750Y-117823500D01*
X131768750Y-117993500D02*
X131721750Y-118039500D01*
X134266750Y-120085500D02*
X134219750Y-120131500D01*
X134459750Y-120301500D02*
X134424750Y-120336500D01*
X136563750Y-117787500D02*
X136528750Y-117823500D01*
X136768750Y-117993500D02*
X136721750Y-118039500D01*
X139266750Y-120085500D02*
X139219750Y-120131500D01*
X139459750Y-120301500D02*
X139424750Y-120336500D01*
X141563750Y-117787500D02*
X141528750Y-117823500D01*
X141768750Y-117993500D02*
X141721750Y-118039500D01*
X144266750Y-120085500D02*
X144219750Y-120131500D01*
X144459750Y-120301500D02*
X144424750Y-120336500D01*
X146563750Y-117787500D02*
X146528750Y-117823500D01*
X146768750Y-117993500D02*
X146721750Y-118039500D01*
X148053750Y-113801500D02*
X148053750Y-123722500D01*
X113958751Y-118378501D02*
G75*
G03*
X113958324Y-119745542I1534992J-684000D01*
G01*
X116177749Y-117527501D02*
G75*
G03*
X114810708Y-117527074I-684000J-1534992D01*
G01*
X114809750Y-120597499D02*
G75*
G03*
X115522555Y-120742752I683999J1535000D01*
G01*
X115493750Y-120742499D02*
G75*
G03*
X116177068Y-120597255I0J1679999D01*
G01*
X117028750Y-119746500D02*
G75*
G03*
X117029176Y-118379458I-1535000J684000D01*
G01*
X122173750Y-119062500D02*
G75*
G03*
X122173750Y-119062500I-1680000J0D01*
G01*
X127173750Y-119062500D02*
G75*
G03*
X127173750Y-119062500I-1680000J0D01*
G01*
X132173750Y-119062500D02*
G75*
G03*
X132173750Y-119062500I-1680000J0D01*
G01*
X137173750Y-119062500D02*
G75*
G03*
X137173750Y-119062500I-1680000J0D01*
G01*
X142173750Y-119062500D02*
G75*
G03*
X142173750Y-119062500I-1680000J0D01*
G01*
X147173750Y-119062500D02*
G75*
G03*
X147173750Y-119062500I-1680000J0D01*
G01*
%TO.C,D2*%
X148471250Y-98483750D02*
X148471250Y-99953750D01*
X148471250Y-99953750D02*
X150756250Y-99953750D01*
X150756250Y-98483750D02*
X148471250Y-98483750D01*
%TO.C,I2C*%
X142500000Y-63308750D02*
X142500000Y-62568750D01*
X142500000Y-62568750D02*
X142000000Y-62568750D01*
X142260000Y-72729750D02*
X142260000Y-62808750D01*
X142260000Y-72729750D02*
X122139000Y-72729750D01*
X142260000Y-69769750D02*
X122139000Y-69769750D01*
X142260000Y-64868750D02*
X122139000Y-64868750D01*
X142260000Y-63368750D02*
X122139000Y-63368750D01*
X142260000Y-62808750D02*
X122139000Y-62808750D01*
X135927000Y-66445750D02*
X135974000Y-66399750D01*
X135734000Y-66229750D02*
X135769000Y-66194750D01*
X133630000Y-68743750D02*
X133665000Y-68707750D01*
X133425000Y-68537750D02*
X133472000Y-68491750D01*
X130927000Y-66445750D02*
X130974000Y-66399750D01*
X130734000Y-66229750D02*
X130769000Y-66194750D01*
X128630000Y-68743750D02*
X128665000Y-68707750D01*
X128425000Y-68537750D02*
X128472000Y-68491750D01*
X125927000Y-66445750D02*
X125974000Y-66399750D01*
X125734000Y-66229750D02*
X125769000Y-66194750D01*
X123630000Y-68743750D02*
X123665000Y-68707750D01*
X123425000Y-68537750D02*
X123472000Y-68491750D01*
X122139000Y-72729750D02*
X122139000Y-62808750D01*
X141234999Y-68152749D02*
G75*
G03*
X141235426Y-66785708I-1534992J684000D01*
G01*
X139016001Y-69003749D02*
G75*
G03*
X140383042Y-69004176I684000J1534992D01*
G01*
X140384000Y-65933751D02*
G75*
G03*
X139671195Y-65788498I-683999J-1535000D01*
G01*
X139700000Y-65788751D02*
G75*
G03*
X139016682Y-65933995I0J-1679999D01*
G01*
X138165000Y-66784750D02*
G75*
G03*
X138164574Y-68151792I1535000J-684000D01*
G01*
X136380000Y-67468750D02*
G75*
G03*
X136380000Y-67468750I-1680000J0D01*
G01*
X131380000Y-67468750D02*
G75*
G03*
X131380000Y-67468750I-1680000J0D01*
G01*
X126380000Y-67468750D02*
G75*
G03*
X126380000Y-67468750I-1680000J0D01*
G01*
%TO.C,R9*%
X161352500Y-120237258D02*
X161352500Y-119762742D01*
X162397500Y-120237258D02*
X162397500Y-119762742D01*
%TO.C,D3*%
X163565000Y-118471250D02*
X163565000Y-119941250D01*
X163565000Y-119941250D02*
X165850000Y-119941250D01*
X165850000Y-118471250D02*
X163565000Y-118471250D01*
%TO.C,C7*%
X121040000Y-105015580D02*
X121040000Y-104734420D01*
X122060000Y-105015580D02*
X122060000Y-104734420D01*
%TO.C,R5*%
X133906492Y-74752500D02*
X134381008Y-74752500D01*
X133906492Y-75797500D02*
X134381008Y-75797500D01*
%TO.C,C9*%
X145909420Y-72415000D02*
X146190580Y-72415000D01*
X145909420Y-73435000D02*
X146190580Y-73435000D01*
%TO.C,C10*%
X118284330Y-90091250D02*
X118003170Y-90091250D01*
X118284330Y-89071250D02*
X118003170Y-89071250D01*
%TO.C,C3*%
X126684420Y-91865000D02*
X126965580Y-91865000D01*
X126684420Y-92885000D02*
X126965580Y-92885000D01*
%TO.C,C6*%
X126684420Y-85865000D02*
X126965580Y-85865000D01*
X126684420Y-86885000D02*
X126965580Y-86885000D01*
%TO.C,C4*%
X126684420Y-88865000D02*
X126965580Y-88865000D01*
X126684420Y-89885000D02*
X126965580Y-89885000D01*
%TO.C,R4*%
X140731008Y-75747500D02*
X140256492Y-75747500D01*
X140731008Y-74702500D02*
X140256492Y-74702500D01*
%TO.C,C12*%
X172753750Y-97490670D02*
X172753750Y-97771830D01*
X171733750Y-97490670D02*
X171733750Y-97771830D01*
%TO.C,C13*%
X150096830Y-95760000D02*
X149815670Y-95760000D01*
X150096830Y-94740000D02*
X149815670Y-94740000D01*
%TO.C,C11*%
X118303080Y-97235000D02*
X118021920Y-97235000D01*
X118303080Y-96215000D02*
X118021920Y-96215000D01*
%TO.C,C16*%
X165190580Y-121303750D02*
X164909420Y-121303750D01*
X165190580Y-120283750D02*
X164909420Y-120283750D01*
%TO.C,R1*%
X117975242Y-97958750D02*
X118449758Y-97958750D01*
X117975242Y-99003750D02*
X118449758Y-99003750D01*
%TO.C,Y1*%
X119918750Y-91062500D02*
X116618750Y-91062500D01*
X116618750Y-91062500D02*
X116618750Y-95062500D01*
%TO.C,C5*%
X126684420Y-87365000D02*
X126965580Y-87365000D01*
X126684420Y-88385000D02*
X126965580Y-88385000D01*
%TD*%
M02*
