%TF.GenerationSoftware,KiCad,Pcbnew,7.0.7*%
%TF.CreationDate,2024-03-24T23:16:09-05:00*%
%TF.ProjectId,lsm6dsoxCANEnabled,6c736d36-6473-46f7-9843-414e456e6162,rev?*%
%TF.SameCoordinates,Original*%
%TF.FileFunction,Copper,L3,Inr*%
%TF.FilePolarity,Positive*%
%FSLAX46Y46*%
G04 Gerber Fmt 4.6, Leading zero omitted, Abs format (unit mm)*
G04 Created by KiCad (PCBNEW 7.0.7) date 2024-03-24 23:16:09*
%MOMM*%
%LPD*%
G01*
G04 APERTURE LIST*
%TA.AperFunction,ComponentPad*%
%ADD10R,1.700000X1.700000*%
%TD*%
%TA.AperFunction,ComponentPad*%
%ADD11O,1.700000X1.700000*%
%TD*%
%TA.AperFunction,ComponentPad*%
%ADD12R,2.600000X2.600000*%
%TD*%
%TA.AperFunction,ComponentPad*%
%ADD13C,2.600000*%
%TD*%
%TA.AperFunction,ComponentPad*%
%ADD14C,0.900000*%
%TD*%
%TA.AperFunction,ComponentPad*%
%ADD15C,8.000000*%
%TD*%
%TA.AperFunction,ViaPad*%
%ADD16C,0.800000*%
%TD*%
G04 APERTURE END LIST*
D10*
%TO.N,+3.3V*%
%TO.C,J4*%
X97210000Y-38730000D03*
D11*
%TO.N,SYS_JTMS_SWDIO*%
X99750000Y-38730000D03*
%TO.N,GND*%
X97210000Y-41270000D03*
%TO.N,SYS_JTCK_SWCL*%
X99750000Y-41270000D03*
%TO.N,GND*%
X97210000Y-43810000D03*
%TO.N,SYS_JTDO_TRACESWO*%
X99750000Y-43810000D03*
%TO.N,+5V*%
X97210000Y-46350000D03*
%TO.N,unconnected-(J4-Pin_8-Pad8)*%
X99750000Y-46350000D03*
%TO.N,GND*%
X97210000Y-48890000D03*
%TO.N,NRST*%
X99750000Y-48890000D03*
%TD*%
D12*
%TO.N,GND*%
%TO.C,J3*%
X84700000Y-61600000D03*
D13*
%TO.N,+5V*%
X89700000Y-61600000D03*
%TD*%
D12*
%TO.N,GPIO1*%
%TO.C,J2*%
X69000000Y-61600000D03*
D13*
%TO.N,GPIO2*%
X74000000Y-61600000D03*
%TD*%
D14*
%TO.N,N/C*%
%TO.C,H2*%
X57028680Y-61671320D03*
X57907360Y-59550000D03*
X57907360Y-63792640D03*
X60028680Y-58671320D03*
D15*
X60028680Y-61671320D03*
D14*
X60028680Y-64671320D03*
X62150000Y-59550000D03*
X62150000Y-63792640D03*
X63028680Y-61671320D03*
%TD*%
%TO.N,N/C*%
%TO.C,H1*%
X57028680Y-25421320D03*
X57907360Y-23300000D03*
X57907360Y-27542640D03*
X60028680Y-22421320D03*
D15*
X60028680Y-25421320D03*
D14*
X60028680Y-28421320D03*
X62150000Y-23300000D03*
X62150000Y-27542640D03*
X63028680Y-25421320D03*
%TD*%
D12*
%TO.N,CAN_IN-*%
%TO.C,J5*%
X85600000Y-25045000D03*
D13*
%TO.N,CAN_IN+*%
X80600000Y-25045000D03*
X75600000Y-25045000D03*
%TO.N,CAN_IN-*%
X70600000Y-25045000D03*
%TD*%
D14*
%TO.N,N/C*%
%TO.C,H4*%
X94698680Y-61681320D03*
X95577360Y-59560000D03*
X95577360Y-63802640D03*
X97698680Y-58681320D03*
D15*
X97698680Y-61681320D03*
D14*
X97698680Y-64681320D03*
X99820000Y-59560000D03*
X99820000Y-63802640D03*
X100698680Y-61681320D03*
%TD*%
%TO.N,N/C*%
%TO.C,H3*%
X94718680Y-25421320D03*
X95597360Y-23300000D03*
X95597360Y-27542640D03*
X97718680Y-22421320D03*
D15*
X97718680Y-25421320D03*
D14*
X97718680Y-28421320D03*
X99840000Y-23300000D03*
X99840000Y-27542640D03*
X100718680Y-25421320D03*
%TD*%
D10*
%TO.N,CAN_IN+*%
%TO.C,J1*%
X98200000Y-34925000D03*
D11*
%TO.N,CAN_IN-*%
X98200000Y-32385000D03*
%TD*%
D16*
%TO.N,GND*%
X94700000Y-43450000D03*
%TO.N,+5V*%
X94150000Y-45000000D03*
%TO.N,GND*%
X85150000Y-48550000D03*
X84950000Y-50050000D03*
X93350000Y-49100000D03*
%TO.N,+3.3V*%
X85850000Y-55100000D03*
X85300000Y-53950000D03*
%TO.N,+5V*%
X89050000Y-45750000D03*
%TO.N,GND*%
X93400000Y-45900000D03*
%TO.N,NRST*%
X101200000Y-55250000D03*
X101450500Y-52626089D03*
%TO.N,GND*%
X79250000Y-51000000D03*
X79350000Y-52600000D03*
X95700000Y-42250000D03*
X88700000Y-35350000D03*
X71600000Y-41000000D03*
X84700000Y-58550000D03*
X58700000Y-44950000D03*
X88650000Y-34400000D03*
X70400000Y-43900000D03*
X84700000Y-64850000D03*
X80950000Y-61600000D03*
X81200000Y-47200000D03*
X99250000Y-52800000D03*
X65850000Y-50300000D03*
X64950000Y-46900000D03*
X77024982Y-44866761D03*
X86700000Y-31200000D03*
X55450000Y-48050000D03*
X87600000Y-42750000D03*
X97200000Y-50750000D03*
X68500000Y-40500000D03*
X61900000Y-37350000D03*
X85100000Y-31150000D03*
X77150000Y-34950000D03*
X91350000Y-35950000D03*
X55500000Y-56100000D03*
X77596017Y-39139222D03*
%TO.N,+5V*%
X92950000Y-61600000D03*
X92750000Y-36050000D03*
X89700000Y-58550000D03*
X89700000Y-64800000D03*
%TO.N,+3.3V*%
X78750000Y-34950000D03*
X82300000Y-32300000D03*
X81650000Y-46350000D03*
X80400000Y-35000000D03*
X84000000Y-30450000D03*
X83400000Y-51100000D03*
X85500000Y-40200000D03*
X76850000Y-45800000D03*
X62050000Y-32350000D03*
X83300000Y-52650000D03*
X76300000Y-38100000D03*
X73350000Y-40950000D03*
%TO.N,SYS_JTCK_SWCL*%
X83926793Y-39126793D03*
%TO.N,SYS_JTDO_TRACESWO*%
X98700000Y-42600000D03*
X88850000Y-41050000D03*
X80796892Y-41674305D03*
X86550000Y-39726293D03*
%TO.N,CS*%
X84650000Y-36950000D03*
X82800000Y-35450000D03*
%TO.N,INT1*%
X84250000Y-35850000D03*
X83500000Y-36900000D03*
X82700000Y-38750000D03*
X88760941Y-33457001D03*
%TO.N,INT2*%
X81700000Y-38662000D03*
X81700000Y-37463000D03*
%TD*%
%TA.AperFunction,Conductor*%
%TO.N,+3.3V*%
G36*
X86469111Y-19611505D02*
G01*
X86514866Y-19664309D01*
X86526071Y-19716152D01*
X86525774Y-19826723D01*
X86516894Y-23120834D01*
X86497028Y-23187820D01*
X86444101Y-23233433D01*
X86392894Y-23244500D01*
X84252129Y-23244500D01*
X84252123Y-23244501D01*
X84192516Y-23250908D01*
X84057671Y-23301202D01*
X84057664Y-23301206D01*
X83942455Y-23387452D01*
X83942452Y-23387455D01*
X83856206Y-23502664D01*
X83856202Y-23502671D01*
X83805908Y-23637517D01*
X83799501Y-23697116D01*
X83799500Y-23697135D01*
X83799500Y-26392870D01*
X83799501Y-26392876D01*
X83805908Y-26452483D01*
X83856202Y-26587328D01*
X83856206Y-26587335D01*
X83942452Y-26702544D01*
X83942455Y-26702547D01*
X84057664Y-26788793D01*
X84057671Y-26788797D01*
X84192517Y-26839091D01*
X84192516Y-26839091D01*
X84199444Y-26839835D01*
X84252127Y-26845500D01*
X86382519Y-26845499D01*
X86449558Y-26865184D01*
X86495313Y-26917987D01*
X86506519Y-26969833D01*
X86497747Y-30224135D01*
X86477881Y-30291121D01*
X86424954Y-30336734D01*
X86424184Y-30337080D01*
X86247267Y-30415850D01*
X86247265Y-30415851D01*
X86094129Y-30527111D01*
X86094128Y-30527112D01*
X86014659Y-30615371D01*
X85955172Y-30652019D01*
X85885315Y-30650688D01*
X85830360Y-30615371D01*
X85705871Y-30477112D01*
X85705867Y-30477109D01*
X85552734Y-30365851D01*
X85552729Y-30365848D01*
X85379807Y-30288857D01*
X85379802Y-30288855D01*
X85234000Y-30257865D01*
X85194646Y-30249500D01*
X85005354Y-30249500D01*
X84972897Y-30256398D01*
X84820197Y-30288855D01*
X84820192Y-30288857D01*
X84647270Y-30365848D01*
X84647265Y-30365851D01*
X84494129Y-30477111D01*
X84367466Y-30617785D01*
X84272821Y-30781715D01*
X84272818Y-30781722D01*
X84227299Y-30921816D01*
X84214326Y-30961744D01*
X84194540Y-31150000D01*
X84214326Y-31338256D01*
X84214327Y-31338259D01*
X84272818Y-31518277D01*
X84272821Y-31518284D01*
X84367467Y-31682216D01*
X84494128Y-31822888D01*
X84494129Y-31822888D01*
X84647265Y-31934148D01*
X84647270Y-31934151D01*
X84820192Y-32011142D01*
X84820197Y-32011144D01*
X85005354Y-32050500D01*
X85005355Y-32050500D01*
X85194644Y-32050500D01*
X85194646Y-32050500D01*
X85379803Y-32011144D01*
X85552730Y-31934151D01*
X85705871Y-31822888D01*
X85785341Y-31734627D01*
X85844825Y-31697980D01*
X85914682Y-31699310D01*
X85969638Y-31734627D01*
X86094129Y-31872888D01*
X86094132Y-31872890D01*
X86247265Y-31984148D01*
X86247270Y-31984151D01*
X86418927Y-32060579D01*
X86472164Y-32105829D01*
X86492485Y-32172678D01*
X86492491Y-32174192D01*
X86474843Y-38721571D01*
X86454977Y-38788557D01*
X86402050Y-38834170D01*
X86376624Y-38842527D01*
X86270197Y-38865148D01*
X86270192Y-38865150D01*
X86097270Y-38942141D01*
X86097265Y-38942144D01*
X85944129Y-39053404D01*
X85817466Y-39194078D01*
X85722821Y-39358008D01*
X85722818Y-39358015D01*
X85664327Y-39538033D01*
X85664326Y-39538037D01*
X85644540Y-39726293D01*
X85664326Y-39914549D01*
X85664327Y-39914552D01*
X85722818Y-40094570D01*
X85722821Y-40094577D01*
X85817467Y-40258509D01*
X85879237Y-40327111D01*
X85944129Y-40399181D01*
X86097265Y-40510441D01*
X86097270Y-40510444D01*
X86270191Y-40587435D01*
X86270193Y-40587435D01*
X86270197Y-40587437D01*
X86371213Y-40608908D01*
X86432691Y-40642098D01*
X86466468Y-40703261D01*
X86469429Y-40730531D01*
X86418180Y-59743567D01*
X86398314Y-59810553D01*
X86345387Y-59856166D01*
X86276202Y-59865923D01*
X86251271Y-59857612D01*
X86250641Y-59859303D01*
X86107482Y-59805908D01*
X86107483Y-59805908D01*
X86047883Y-59799501D01*
X86047881Y-59799500D01*
X86047873Y-59799500D01*
X86047864Y-59799500D01*
X83352129Y-59799500D01*
X83352123Y-59799501D01*
X83292516Y-59805908D01*
X83157671Y-59856202D01*
X83157664Y-59856206D01*
X83042455Y-59942452D01*
X83042452Y-59942455D01*
X82956206Y-60057664D01*
X82956202Y-60057671D01*
X82905908Y-60192517D01*
X82899501Y-60252116D01*
X82899501Y-60252123D01*
X82899500Y-60252135D01*
X82899500Y-62947870D01*
X82899501Y-62947876D01*
X82905908Y-63007483D01*
X82956202Y-63142328D01*
X82956206Y-63142335D01*
X83042452Y-63257544D01*
X83042455Y-63257547D01*
X83157664Y-63343793D01*
X83157671Y-63343797D01*
X83292517Y-63394091D01*
X83292516Y-63394091D01*
X83299444Y-63394835D01*
X83352127Y-63400500D01*
X86047872Y-63400499D01*
X86107483Y-63394091D01*
X86240830Y-63344355D01*
X86310519Y-63339372D01*
X86371842Y-63372857D01*
X86405327Y-63434180D01*
X86408161Y-63460872D01*
X86397586Y-67384160D01*
X86377720Y-67451146D01*
X86324793Y-67496759D01*
X86273553Y-67507826D01*
X60087485Y-67500835D01*
X60029180Y-67500820D01*
X60029164Y-67500820D01*
X60028069Y-67500498D01*
X60026247Y-67500724D01*
X59787139Y-67491328D01*
X59567865Y-67482258D01*
X59563138Y-67481881D01*
X59323763Y-67453548D01*
X59101427Y-67425832D01*
X59096999Y-67425117D01*
X58861382Y-67378250D01*
X58641069Y-67332054D01*
X58636962Y-67331045D01*
X58406015Y-67265911D01*
X58189808Y-67201543D01*
X58186039Y-67200288D01*
X57960985Y-67117261D01*
X57750528Y-67035140D01*
X57747108Y-67033686D01*
X57609674Y-66970329D01*
X57529288Y-66933270D01*
X57430628Y-66885038D01*
X57326083Y-66833928D01*
X57323019Y-66832323D01*
X57113770Y-66715139D01*
X56919227Y-66599217D01*
X56916534Y-66597516D01*
X56717024Y-66464207D01*
X56532654Y-66332570D01*
X56530297Y-66330801D01*
X56341764Y-66182173D01*
X56167750Y-66034791D01*
X55990405Y-65870855D01*
X55829144Y-65709594D01*
X55665208Y-65532249D01*
X55517826Y-65358235D01*
X55369197Y-65169701D01*
X55367445Y-65167367D01*
X55235792Y-64982975D01*
X55189081Y-64913067D01*
X55102475Y-64783453D01*
X55100794Y-64780792D01*
X54984885Y-64586272D01*
X54867675Y-64376979D01*
X54866085Y-64373946D01*
X54766733Y-64170719D01*
X54666309Y-63952883D01*
X54664869Y-63949496D01*
X54582743Y-63739028D01*
X54499705Y-63513944D01*
X54498462Y-63510212D01*
X54434085Y-63293974D01*
X54430351Y-63280736D01*
X54368951Y-63063031D01*
X54367944Y-63058929D01*
X54344658Y-62947876D01*
X54321760Y-62838673D01*
X54274878Y-62602984D01*
X54274166Y-62598571D01*
X54246451Y-62376236D01*
X54244192Y-62357150D01*
X54218114Y-62136829D01*
X54217741Y-62132156D01*
X54208671Y-61912860D01*
X54199180Y-61671320D01*
X55523373Y-61671320D01*
X55542592Y-62087017D01*
X55542592Y-62087022D01*
X55542593Y-62087027D01*
X55600083Y-62499165D01*
X55600085Y-62499173D01*
X55695359Y-62904253D01*
X55827609Y-63298834D01*
X55995690Y-63679497D01*
X55995700Y-63679518D01*
X56198186Y-64043051D01*
X56198189Y-64043055D01*
X56198191Y-64043059D01*
X56433367Y-64386374D01*
X56433369Y-64386376D01*
X56433376Y-64386386D01*
X56662028Y-64661740D01*
X56699218Y-64706526D01*
X56993474Y-65000782D01*
X56993485Y-65000791D01*
X57313613Y-65266623D01*
X57313619Y-65266627D01*
X57313626Y-65266633D01*
X57656941Y-65501809D01*
X57656947Y-65501812D01*
X57656948Y-65501813D01*
X57894535Y-65634148D01*
X58020492Y-65704305D01*
X58125113Y-65750500D01*
X58401165Y-65872390D01*
X58401168Y-65872391D01*
X58401175Y-65872394D01*
X58795744Y-66004640D01*
X59200832Y-66099916D01*
X59612983Y-66157408D01*
X60028680Y-66176627D01*
X60444377Y-66157408D01*
X60856528Y-66099916D01*
X61261616Y-66004640D01*
X61656185Y-65872394D01*
X62036868Y-65704305D01*
X62400419Y-65501809D01*
X62743734Y-65266633D01*
X63063886Y-65000782D01*
X63214668Y-64850000D01*
X83794540Y-64850000D01*
X83814326Y-65038256D01*
X83814327Y-65038259D01*
X83872818Y-65218277D01*
X83872821Y-65218284D01*
X83967467Y-65382216D01*
X84035048Y-65457272D01*
X84094129Y-65522888D01*
X84247265Y-65634148D01*
X84247270Y-65634151D01*
X84420192Y-65711142D01*
X84420197Y-65711144D01*
X84605354Y-65750500D01*
X84605355Y-65750500D01*
X84794644Y-65750500D01*
X84794646Y-65750500D01*
X84979803Y-65711144D01*
X85152730Y-65634151D01*
X85305871Y-65522888D01*
X85432533Y-65382216D01*
X85527179Y-65218284D01*
X85585674Y-65038256D01*
X85605460Y-64850000D01*
X85585674Y-64661744D01*
X85527179Y-64481716D01*
X85432533Y-64317784D01*
X85305871Y-64177112D01*
X85296985Y-64170656D01*
X85152734Y-64065851D01*
X85152729Y-64065848D01*
X84979807Y-63988857D01*
X84979802Y-63988855D01*
X84834000Y-63957865D01*
X84794646Y-63949500D01*
X84605354Y-63949500D01*
X84572897Y-63956398D01*
X84420197Y-63988855D01*
X84420192Y-63988857D01*
X84247270Y-64065848D01*
X84247265Y-64065851D01*
X84094129Y-64177111D01*
X83967466Y-64317785D01*
X83872821Y-64481715D01*
X83872818Y-64481722D01*
X83859595Y-64522420D01*
X83814326Y-64661744D01*
X83794540Y-64850000D01*
X63214668Y-64850000D01*
X63358142Y-64706526D01*
X63623993Y-64386374D01*
X63859169Y-64043059D01*
X64061665Y-63679508D01*
X64229754Y-63298825D01*
X64347382Y-62947870D01*
X67199500Y-62947870D01*
X67199501Y-62947876D01*
X67205908Y-63007483D01*
X67256202Y-63142328D01*
X67256206Y-63142335D01*
X67342452Y-63257544D01*
X67342455Y-63257547D01*
X67457664Y-63343793D01*
X67457671Y-63343797D01*
X67592517Y-63394091D01*
X67592516Y-63394091D01*
X67599444Y-63394835D01*
X67652127Y-63400500D01*
X70347872Y-63400499D01*
X70407483Y-63394091D01*
X70542331Y-63343796D01*
X70657546Y-63257546D01*
X70743796Y-63142331D01*
X70794091Y-63007483D01*
X70800500Y-62947873D01*
X70800500Y-61600004D01*
X72194451Y-61600004D01*
X72214616Y-61869101D01*
X72274664Y-62132188D01*
X72274666Y-62132195D01*
X72329884Y-62272888D01*
X72373257Y-62383398D01*
X72508185Y-62617102D01*
X72644080Y-62787509D01*
X72676442Y-62828089D01*
X72863183Y-63001358D01*
X72874259Y-63011635D01*
X73097226Y-63163651D01*
X73340359Y-63280738D01*
X73598228Y-63360280D01*
X73598229Y-63360280D01*
X73598232Y-63360281D01*
X73865063Y-63400499D01*
X73865068Y-63400499D01*
X73865071Y-63400500D01*
X73865072Y-63400500D01*
X74134928Y-63400500D01*
X74134929Y-63400500D01*
X74134936Y-63400499D01*
X74401767Y-63360281D01*
X74401768Y-63360280D01*
X74401772Y-63360280D01*
X74659641Y-63280738D01*
X74902775Y-63163651D01*
X75125741Y-63011635D01*
X75323561Y-62828085D01*
X75491815Y-62617102D01*
X75626743Y-62383398D01*
X75725334Y-62132195D01*
X75785383Y-61869103D01*
X75792104Y-61779401D01*
X75805549Y-61600004D01*
X75805549Y-61600000D01*
X80044540Y-61600000D01*
X80064326Y-61788256D01*
X80064327Y-61788259D01*
X80122818Y-61968277D01*
X80122821Y-61968284D01*
X80217467Y-62132216D01*
X80344128Y-62272887D01*
X80344129Y-62272888D01*
X80497265Y-62384148D01*
X80497270Y-62384151D01*
X80670192Y-62461142D01*
X80670197Y-62461144D01*
X80855354Y-62500500D01*
X80855355Y-62500500D01*
X81044644Y-62500500D01*
X81044646Y-62500500D01*
X81229803Y-62461144D01*
X81402730Y-62384151D01*
X81555871Y-62272888D01*
X81682533Y-62132216D01*
X81777179Y-61968284D01*
X81835674Y-61788256D01*
X81855460Y-61600000D01*
X81835674Y-61411744D01*
X81777179Y-61231716D01*
X81682533Y-61067784D01*
X81555871Y-60927112D01*
X81555870Y-60927111D01*
X81402734Y-60815851D01*
X81402729Y-60815848D01*
X81229807Y-60738857D01*
X81229802Y-60738855D01*
X81084000Y-60707865D01*
X81044646Y-60699500D01*
X80855354Y-60699500D01*
X80822897Y-60706398D01*
X80670197Y-60738855D01*
X80670192Y-60738857D01*
X80497270Y-60815848D01*
X80497265Y-60815851D01*
X80344129Y-60927111D01*
X80217466Y-61067785D01*
X80122821Y-61231715D01*
X80122818Y-61231722D01*
X80064327Y-61411740D01*
X80064326Y-61411744D01*
X80044540Y-61600000D01*
X75805549Y-61600000D01*
X75805549Y-61599995D01*
X75785383Y-61330898D01*
X75768202Y-61255623D01*
X75725334Y-61067805D01*
X75626743Y-60816602D01*
X75491815Y-60582898D01*
X75323561Y-60371915D01*
X75323560Y-60371914D01*
X75323557Y-60371910D01*
X75125741Y-60188365D01*
X74902775Y-60036349D01*
X74902769Y-60036346D01*
X74902768Y-60036345D01*
X74902767Y-60036344D01*
X74659643Y-59919263D01*
X74659645Y-59919263D01*
X74401773Y-59839720D01*
X74401767Y-59839718D01*
X74134936Y-59799500D01*
X74134929Y-59799500D01*
X73865071Y-59799500D01*
X73865063Y-59799500D01*
X73598232Y-59839718D01*
X73598226Y-59839720D01*
X73340358Y-59919262D01*
X73097230Y-60036346D01*
X72874258Y-60188365D01*
X72676442Y-60371910D01*
X72508185Y-60582898D01*
X72373258Y-60816599D01*
X72373256Y-60816603D01*
X72274666Y-61067804D01*
X72274664Y-61067811D01*
X72214616Y-61330898D01*
X72194451Y-61599995D01*
X72194451Y-61600004D01*
X70800500Y-61600004D01*
X70800499Y-60252128D01*
X70794091Y-60192517D01*
X70792542Y-60188365D01*
X70743797Y-60057671D01*
X70743793Y-60057664D01*
X70657547Y-59942455D01*
X70657544Y-59942452D01*
X70542335Y-59856206D01*
X70542328Y-59856202D01*
X70407482Y-59805908D01*
X70407483Y-59805908D01*
X70347883Y-59799501D01*
X70347881Y-59799500D01*
X70347873Y-59799500D01*
X70347864Y-59799500D01*
X67652129Y-59799500D01*
X67652123Y-59799501D01*
X67592516Y-59805908D01*
X67457671Y-59856202D01*
X67457664Y-59856206D01*
X67342455Y-59942452D01*
X67342452Y-59942455D01*
X67256206Y-60057664D01*
X67256202Y-60057671D01*
X67205908Y-60192517D01*
X67199501Y-60252116D01*
X67199501Y-60252123D01*
X67199500Y-60252135D01*
X67199500Y-62947870D01*
X64347382Y-62947870D01*
X64362000Y-62904256D01*
X64457276Y-62499168D01*
X64514768Y-62087017D01*
X64533987Y-61671320D01*
X64514768Y-61255623D01*
X64457276Y-60843472D01*
X64362000Y-60438384D01*
X64229754Y-60043815D01*
X64226457Y-60036349D01*
X64126758Y-59810553D01*
X64061665Y-59663132D01*
X63859169Y-59299581D01*
X63623993Y-58956266D01*
X63623987Y-58956259D01*
X63623983Y-58956253D01*
X63358151Y-58636125D01*
X63358142Y-58636114D01*
X63272028Y-58550000D01*
X83794540Y-58550000D01*
X83814326Y-58738256D01*
X83814327Y-58738259D01*
X83872818Y-58918277D01*
X83872821Y-58918284D01*
X83967467Y-59082216D01*
X84094128Y-59222888D01*
X84094129Y-59222888D01*
X84247265Y-59334148D01*
X84247270Y-59334151D01*
X84420192Y-59411142D01*
X84420197Y-59411144D01*
X84605354Y-59450500D01*
X84605355Y-59450500D01*
X84794644Y-59450500D01*
X84794646Y-59450500D01*
X84979803Y-59411144D01*
X85152730Y-59334151D01*
X85305871Y-59222888D01*
X85432533Y-59082216D01*
X85527179Y-58918284D01*
X85585674Y-58738256D01*
X85605460Y-58550000D01*
X85585674Y-58361744D01*
X85527179Y-58181716D01*
X85432533Y-58017784D01*
X85305871Y-57877112D01*
X85305870Y-57877111D01*
X85152734Y-57765851D01*
X85152729Y-57765848D01*
X84979807Y-57688857D01*
X84979802Y-57688855D01*
X84834001Y-57657865D01*
X84794646Y-57649500D01*
X84605354Y-57649500D01*
X84572897Y-57656398D01*
X84420197Y-57688855D01*
X84420192Y-57688857D01*
X84247270Y-57765848D01*
X84247265Y-57765851D01*
X84094129Y-57877111D01*
X83967466Y-58017785D01*
X83872821Y-58181715D01*
X83872818Y-58181722D01*
X83814327Y-58361740D01*
X83814326Y-58361744D01*
X83794540Y-58550000D01*
X63272028Y-58550000D01*
X63063886Y-58341858D01*
X62871042Y-58181722D01*
X62743746Y-58076016D01*
X62743736Y-58076009D01*
X62743734Y-58076007D01*
X62400419Y-57840831D01*
X62400415Y-57840829D01*
X62400411Y-57840826D01*
X62036878Y-57638340D01*
X62036857Y-57638330D01*
X61656194Y-57470249D01*
X61261613Y-57337999D01*
X60856533Y-57242725D01*
X60856525Y-57242723D01*
X60444387Y-57185233D01*
X60444382Y-57185232D01*
X60444377Y-57185232D01*
X60028680Y-57166013D01*
X59612983Y-57185232D01*
X59612977Y-57185232D01*
X59612972Y-57185233D01*
X59200834Y-57242723D01*
X59200826Y-57242725D01*
X58795746Y-57337999D01*
X58401165Y-57470249D01*
X58020502Y-57638330D01*
X58020481Y-57638340D01*
X57656948Y-57840826D01*
X57656942Y-57840830D01*
X57313623Y-58076009D01*
X57313613Y-58076016D01*
X56993485Y-58341848D01*
X56993465Y-58341866D01*
X56699226Y-58636105D01*
X56699208Y-58636125D01*
X56433376Y-58956253D01*
X56433369Y-58956263D01*
X56198190Y-59299582D01*
X56198186Y-59299588D01*
X55995700Y-59663121D01*
X55995690Y-59663142D01*
X55827609Y-60043805D01*
X55695359Y-60438386D01*
X55600085Y-60843466D01*
X55600083Y-60843474D01*
X55542593Y-61255612D01*
X55542592Y-61255617D01*
X55542592Y-61255623D01*
X55523373Y-61671320D01*
X54199180Y-61671320D01*
X54199180Y-56100000D01*
X54594540Y-56100000D01*
X54614326Y-56288256D01*
X54614327Y-56288259D01*
X54672818Y-56468277D01*
X54672821Y-56468284D01*
X54767467Y-56632216D01*
X54894129Y-56772888D01*
X55047265Y-56884148D01*
X55047270Y-56884151D01*
X55220192Y-56961142D01*
X55220197Y-56961144D01*
X55405354Y-57000500D01*
X55405355Y-57000500D01*
X55594644Y-57000500D01*
X55594646Y-57000500D01*
X55779803Y-56961144D01*
X55952730Y-56884151D01*
X56105871Y-56772888D01*
X56232533Y-56632216D01*
X56327179Y-56468284D01*
X56385674Y-56288256D01*
X56405460Y-56100000D01*
X56385674Y-55911744D01*
X56327179Y-55731716D01*
X56232533Y-55567784D01*
X56105871Y-55427112D01*
X56105870Y-55427111D01*
X55952734Y-55315851D01*
X55952729Y-55315848D01*
X55779807Y-55238857D01*
X55779802Y-55238855D01*
X55634001Y-55207865D01*
X55594646Y-55199500D01*
X55405354Y-55199500D01*
X55372897Y-55206398D01*
X55220197Y-55238855D01*
X55220192Y-55238857D01*
X55047270Y-55315848D01*
X55047265Y-55315851D01*
X54894129Y-55427111D01*
X54767466Y-55567785D01*
X54672821Y-55731715D01*
X54672818Y-55731722D01*
X54614327Y-55911740D01*
X54614326Y-55911744D01*
X54594540Y-56100000D01*
X54199180Y-56100000D01*
X54199180Y-50300000D01*
X64944540Y-50300000D01*
X64964326Y-50488256D01*
X64964327Y-50488259D01*
X65022818Y-50668277D01*
X65022821Y-50668284D01*
X65117467Y-50832216D01*
X65223971Y-50950500D01*
X65244129Y-50972888D01*
X65397265Y-51084148D01*
X65397270Y-51084151D01*
X65570192Y-51161142D01*
X65570197Y-51161144D01*
X65755354Y-51200500D01*
X65755355Y-51200500D01*
X65944644Y-51200500D01*
X65944646Y-51200500D01*
X66129803Y-51161144D01*
X66302730Y-51084151D01*
X66418554Y-51000000D01*
X78344540Y-51000000D01*
X78364326Y-51188256D01*
X78364327Y-51188259D01*
X78422818Y-51368277D01*
X78422821Y-51368284D01*
X78517467Y-51532216D01*
X78644128Y-51672887D01*
X78644129Y-51672888D01*
X78731847Y-51736619D01*
X78774513Y-51791949D01*
X78780492Y-51861562D01*
X78748460Y-51922267D01*
X78748477Y-51922282D01*
X78748419Y-51922345D01*
X78747886Y-51923357D01*
X78745053Y-51926083D01*
X78617466Y-52067785D01*
X78522821Y-52231715D01*
X78522818Y-52231722D01*
X78464327Y-52411740D01*
X78464326Y-52411744D01*
X78444540Y-52600000D01*
X78464326Y-52788256D01*
X78464327Y-52788259D01*
X78522818Y-52968277D01*
X78522821Y-52968284D01*
X78617467Y-53132216D01*
X78744128Y-53272887D01*
X78744129Y-53272888D01*
X78897265Y-53384148D01*
X78897270Y-53384151D01*
X79070192Y-53461142D01*
X79070197Y-53461144D01*
X79255354Y-53500500D01*
X79255355Y-53500500D01*
X79444644Y-53500500D01*
X79444646Y-53500500D01*
X79629803Y-53461144D01*
X79802730Y-53384151D01*
X79955871Y-53272888D01*
X80082533Y-53132216D01*
X80177179Y-52968284D01*
X80235674Y-52788256D01*
X80255460Y-52600000D01*
X80235674Y-52411744D01*
X80177179Y-52231716D01*
X80082533Y-52067784D01*
X79955871Y-51927112D01*
X79868150Y-51863379D01*
X79825486Y-51808050D01*
X79819507Y-51738437D01*
X79851537Y-51677732D01*
X79851522Y-51677718D01*
X79851578Y-51677655D01*
X79852113Y-51676642D01*
X79854948Y-51673912D01*
X79855868Y-51672890D01*
X79855871Y-51672888D01*
X79982533Y-51532216D01*
X80077179Y-51368284D01*
X80135674Y-51188256D01*
X80155460Y-51000000D01*
X80135674Y-50811744D01*
X80077179Y-50631716D01*
X79982533Y-50467784D01*
X79855871Y-50327112D01*
X79855870Y-50327111D01*
X79702734Y-50215851D01*
X79702729Y-50215848D01*
X79529807Y-50138857D01*
X79529802Y-50138855D01*
X79384000Y-50107865D01*
X79344646Y-50099500D01*
X79155354Y-50099500D01*
X79122897Y-50106398D01*
X78970197Y-50138855D01*
X78970192Y-50138857D01*
X78797270Y-50215848D01*
X78797265Y-50215851D01*
X78644129Y-50327111D01*
X78517466Y-50467785D01*
X78422821Y-50631715D01*
X78422818Y-50631722D01*
X78393197Y-50722888D01*
X78364326Y-50811744D01*
X78344540Y-51000000D01*
X66418554Y-51000000D01*
X66455871Y-50972888D01*
X66582533Y-50832216D01*
X66677179Y-50668284D01*
X66735674Y-50488256D01*
X66755460Y-50300000D01*
X66735674Y-50111744D01*
X66715612Y-50050000D01*
X84044540Y-50050000D01*
X84064326Y-50238256D01*
X84064327Y-50238259D01*
X84122818Y-50418277D01*
X84122821Y-50418284D01*
X84217467Y-50582216D01*
X84344128Y-50722888D01*
X84344129Y-50722888D01*
X84497265Y-50834148D01*
X84497270Y-50834151D01*
X84670192Y-50911142D01*
X84670197Y-50911144D01*
X84855354Y-50950500D01*
X84855355Y-50950500D01*
X85044644Y-50950500D01*
X85044646Y-50950500D01*
X85229803Y-50911144D01*
X85402730Y-50834151D01*
X85555871Y-50722888D01*
X85682533Y-50582216D01*
X85777179Y-50418284D01*
X85835674Y-50238256D01*
X85855460Y-50050000D01*
X85835674Y-49861744D01*
X85777179Y-49681716D01*
X85682533Y-49517784D01*
X85660073Y-49492840D01*
X85643167Y-49474063D01*
X85612938Y-49411072D01*
X85621564Y-49341736D01*
X85662430Y-49290776D01*
X85755871Y-49222888D01*
X85882533Y-49082216D01*
X85977179Y-48918284D01*
X86035674Y-48738256D01*
X86055460Y-48550000D01*
X86035674Y-48361744D01*
X85977179Y-48181716D01*
X85882533Y-48017784D01*
X85755871Y-47877112D01*
X85755870Y-47877111D01*
X85602734Y-47765851D01*
X85602729Y-47765848D01*
X85429807Y-47688857D01*
X85429802Y-47688855D01*
X85284001Y-47657865D01*
X85244646Y-47649500D01*
X85055354Y-47649500D01*
X85022897Y-47656398D01*
X84870197Y-47688855D01*
X84870192Y-47688857D01*
X84697270Y-47765848D01*
X84697265Y-47765851D01*
X84544129Y-47877111D01*
X84417466Y-48017785D01*
X84322821Y-48181715D01*
X84322818Y-48181722D01*
X84264327Y-48361740D01*
X84264326Y-48361744D01*
X84244540Y-48550000D01*
X84264326Y-48738256D01*
X84264327Y-48738259D01*
X84322818Y-48918277D01*
X84322821Y-48918284D01*
X84417467Y-49082216D01*
X84456832Y-49125935D01*
X84487062Y-49188926D01*
X84478437Y-49258261D01*
X84437567Y-49309225D01*
X84344129Y-49377111D01*
X84217466Y-49517785D01*
X84122821Y-49681715D01*
X84122818Y-49681722D01*
X84094855Y-49767785D01*
X84064326Y-49861744D01*
X84044540Y-50050000D01*
X66715612Y-50050000D01*
X66677179Y-49931716D01*
X66582533Y-49767784D01*
X66455871Y-49627112D01*
X66455870Y-49627111D01*
X66302734Y-49515851D01*
X66302729Y-49515848D01*
X66129807Y-49438857D01*
X66129802Y-49438855D01*
X65984000Y-49407865D01*
X65944646Y-49399500D01*
X65755354Y-49399500D01*
X65722897Y-49406398D01*
X65570197Y-49438855D01*
X65570192Y-49438857D01*
X65397270Y-49515848D01*
X65397265Y-49515851D01*
X65244129Y-49627111D01*
X65117466Y-49767785D01*
X65022821Y-49931715D01*
X65022818Y-49931722D01*
X64968304Y-50099500D01*
X64964326Y-50111744D01*
X64944540Y-50300000D01*
X54199180Y-50300000D01*
X54199180Y-48050000D01*
X54544540Y-48050000D01*
X54564326Y-48238256D01*
X54564327Y-48238259D01*
X54622818Y-48418277D01*
X54622821Y-48418284D01*
X54717467Y-48582216D01*
X54844128Y-48722888D01*
X54844129Y-48722888D01*
X54997265Y-48834148D01*
X54997270Y-48834151D01*
X55170192Y-48911142D01*
X55170197Y-48911144D01*
X55355354Y-48950500D01*
X55355355Y-48950500D01*
X55544644Y-48950500D01*
X55544646Y-48950500D01*
X55729803Y-48911144D01*
X55902730Y-48834151D01*
X56055871Y-48722888D01*
X56182533Y-48582216D01*
X56277179Y-48418284D01*
X56335674Y-48238256D01*
X56355460Y-48050000D01*
X56335674Y-47861744D01*
X56277179Y-47681716D01*
X56182533Y-47517784D01*
X56055871Y-47377112D01*
X56055870Y-47377111D01*
X55902734Y-47265851D01*
X55902729Y-47265848D01*
X55729807Y-47188857D01*
X55729802Y-47188855D01*
X55584001Y-47157865D01*
X55544646Y-47149500D01*
X55355354Y-47149500D01*
X55322897Y-47156398D01*
X55170197Y-47188855D01*
X55170192Y-47188857D01*
X54997270Y-47265848D01*
X54997265Y-47265851D01*
X54844129Y-47377111D01*
X54717466Y-47517785D01*
X54622821Y-47681715D01*
X54622818Y-47681722D01*
X54564327Y-47861740D01*
X54564326Y-47861744D01*
X54544540Y-48050000D01*
X54199180Y-48050000D01*
X54199180Y-46900000D01*
X64044540Y-46900000D01*
X64064326Y-47088256D01*
X64064327Y-47088259D01*
X64122818Y-47268277D01*
X64122821Y-47268284D01*
X64217467Y-47432216D01*
X64294513Y-47517784D01*
X64344129Y-47572888D01*
X64497265Y-47684148D01*
X64497270Y-47684151D01*
X64670192Y-47761142D01*
X64670197Y-47761144D01*
X64855354Y-47800500D01*
X64855355Y-47800500D01*
X65044644Y-47800500D01*
X65044646Y-47800500D01*
X65229803Y-47761144D01*
X65402730Y-47684151D01*
X65555871Y-47572888D01*
X65682533Y-47432216D01*
X65777179Y-47268284D01*
X65799366Y-47200000D01*
X80294540Y-47200000D01*
X80314326Y-47388256D01*
X80314327Y-47388259D01*
X80372818Y-47568277D01*
X80372821Y-47568284D01*
X80467467Y-47732216D01*
X80584091Y-47861740D01*
X80594129Y-47872888D01*
X80747265Y-47984148D01*
X80747270Y-47984151D01*
X80920192Y-48061142D01*
X80920197Y-48061144D01*
X81105354Y-48100500D01*
X81105355Y-48100500D01*
X81294644Y-48100500D01*
X81294646Y-48100500D01*
X81479803Y-48061144D01*
X81652730Y-47984151D01*
X81805871Y-47872888D01*
X81932533Y-47732216D01*
X82027179Y-47568284D01*
X82085674Y-47388256D01*
X82105460Y-47200000D01*
X82085674Y-47011744D01*
X82027179Y-46831716D01*
X81932533Y-46667784D01*
X81805871Y-46527112D01*
X81805870Y-46527111D01*
X81652734Y-46415851D01*
X81652729Y-46415848D01*
X81479807Y-46338857D01*
X81479802Y-46338855D01*
X81334000Y-46307865D01*
X81294646Y-46299500D01*
X81105354Y-46299500D01*
X81072897Y-46306398D01*
X80920197Y-46338855D01*
X80920192Y-46338857D01*
X80747270Y-46415848D01*
X80747265Y-46415851D01*
X80594129Y-46527111D01*
X80467466Y-46667785D01*
X80372821Y-46831715D01*
X80372818Y-46831722D01*
X80314327Y-47011740D01*
X80314326Y-47011744D01*
X80294540Y-47200000D01*
X65799366Y-47200000D01*
X65835674Y-47088256D01*
X65855460Y-46900000D01*
X65835674Y-46711744D01*
X65777179Y-46531716D01*
X65682533Y-46367784D01*
X65555871Y-46227112D01*
X65555870Y-46227111D01*
X65402734Y-46115851D01*
X65402729Y-46115848D01*
X65229807Y-46038857D01*
X65229802Y-46038855D01*
X65084001Y-46007865D01*
X65044646Y-45999500D01*
X64855354Y-45999500D01*
X64822897Y-46006398D01*
X64670197Y-46038855D01*
X64670192Y-46038857D01*
X64497270Y-46115848D01*
X64497265Y-46115851D01*
X64344129Y-46227111D01*
X64217466Y-46367785D01*
X64122821Y-46531715D01*
X64122818Y-46531722D01*
X64078609Y-46667785D01*
X64064326Y-46711744D01*
X64044540Y-46900000D01*
X54199180Y-46900000D01*
X54199180Y-44950000D01*
X57794540Y-44950000D01*
X57814326Y-45138256D01*
X57814327Y-45138259D01*
X57872818Y-45318277D01*
X57872821Y-45318284D01*
X57967467Y-45482216D01*
X58094128Y-45622888D01*
X58094129Y-45622888D01*
X58247265Y-45734148D01*
X58247270Y-45734151D01*
X58420192Y-45811142D01*
X58420197Y-45811144D01*
X58605354Y-45850500D01*
X58605355Y-45850500D01*
X58794644Y-45850500D01*
X58794646Y-45850500D01*
X58979803Y-45811144D01*
X59152730Y-45734151D01*
X59305871Y-45622888D01*
X59432533Y-45482216D01*
X59527179Y-45318284D01*
X59585674Y-45138256D01*
X59605460Y-44950000D01*
X59596711Y-44866761D01*
X76119522Y-44866761D01*
X76139308Y-45055017D01*
X76139309Y-45055020D01*
X76197800Y-45235038D01*
X76197803Y-45235045D01*
X76292449Y-45398977D01*
X76367396Y-45482214D01*
X76419111Y-45539649D01*
X76572247Y-45650909D01*
X76572252Y-45650912D01*
X76745174Y-45727903D01*
X76745179Y-45727905D01*
X76930336Y-45767261D01*
X76930337Y-45767261D01*
X77119626Y-45767261D01*
X77119628Y-45767261D01*
X77304785Y-45727905D01*
X77477712Y-45650912D01*
X77630853Y-45539649D01*
X77757515Y-45398977D01*
X77852161Y-45235045D01*
X77910656Y-45055017D01*
X77930442Y-44866761D01*
X77910656Y-44678505D01*
X77852161Y-44498477D01*
X77757515Y-44334545D01*
X77630853Y-44193873D01*
X77592284Y-44165851D01*
X77477716Y-44082612D01*
X77477711Y-44082609D01*
X77304789Y-44005618D01*
X77304784Y-44005616D01*
X77158983Y-43974626D01*
X77119628Y-43966261D01*
X76930336Y-43966261D01*
X76897879Y-43973159D01*
X76745179Y-44005616D01*
X76745174Y-44005618D01*
X76572252Y-44082609D01*
X76572247Y-44082612D01*
X76419111Y-44193872D01*
X76292448Y-44334546D01*
X76197803Y-44498476D01*
X76197800Y-44498483D01*
X76139309Y-44678501D01*
X76139308Y-44678505D01*
X76119522Y-44866761D01*
X59596711Y-44866761D01*
X59585674Y-44761744D01*
X59527179Y-44581716D01*
X59432533Y-44417784D01*
X59305871Y-44277112D01*
X59305870Y-44277111D01*
X59152734Y-44165851D01*
X59152729Y-44165848D01*
X58979807Y-44088857D01*
X58979802Y-44088855D01*
X58834001Y-44057865D01*
X58794646Y-44049500D01*
X58605354Y-44049500D01*
X58572897Y-44056398D01*
X58420197Y-44088855D01*
X58420192Y-44088857D01*
X58247270Y-44165848D01*
X58247265Y-44165851D01*
X58094129Y-44277111D01*
X57967466Y-44417785D01*
X57872821Y-44581715D01*
X57872818Y-44581722D01*
X57814521Y-44761144D01*
X57814326Y-44761744D01*
X57794540Y-44950000D01*
X54199180Y-44950000D01*
X54199180Y-43900000D01*
X69494540Y-43900000D01*
X69514326Y-44088256D01*
X69514327Y-44088259D01*
X69572818Y-44268277D01*
X69572821Y-44268284D01*
X69667467Y-44432216D01*
X69794128Y-44572887D01*
X69794129Y-44572888D01*
X69947265Y-44684148D01*
X69947270Y-44684151D01*
X70120192Y-44761142D01*
X70120197Y-44761144D01*
X70305354Y-44800500D01*
X70305355Y-44800500D01*
X70494644Y-44800500D01*
X70494646Y-44800500D01*
X70679803Y-44761144D01*
X70852730Y-44684151D01*
X71005871Y-44572888D01*
X71132533Y-44432216D01*
X71227179Y-44268284D01*
X71285674Y-44088256D01*
X71305460Y-43900000D01*
X71285674Y-43711744D01*
X71227179Y-43531716D01*
X71132533Y-43367784D01*
X71005871Y-43227112D01*
X71005870Y-43227111D01*
X70852734Y-43115851D01*
X70852729Y-43115848D01*
X70679807Y-43038857D01*
X70679802Y-43038855D01*
X70534001Y-43007865D01*
X70494646Y-42999500D01*
X70305354Y-42999500D01*
X70272897Y-43006398D01*
X70120197Y-43038855D01*
X70120192Y-43038857D01*
X69947270Y-43115848D01*
X69947265Y-43115851D01*
X69794129Y-43227111D01*
X69667466Y-43367785D01*
X69572821Y-43531715D01*
X69572818Y-43531722D01*
X69514327Y-43711740D01*
X69514326Y-43711744D01*
X69494540Y-43900000D01*
X54199180Y-43900000D01*
X54199180Y-40500000D01*
X67594540Y-40500000D01*
X67614326Y-40688256D01*
X67614327Y-40688259D01*
X67672818Y-40868277D01*
X67672821Y-40868284D01*
X67767467Y-41032216D01*
X67866398Y-41142090D01*
X67894129Y-41172888D01*
X68047265Y-41284148D01*
X68047270Y-41284151D01*
X68220192Y-41361142D01*
X68220197Y-41361144D01*
X68405354Y-41400500D01*
X68405355Y-41400500D01*
X68594644Y-41400500D01*
X68594646Y-41400500D01*
X68779803Y-41361144D01*
X68952730Y-41284151D01*
X69105871Y-41172888D01*
X69232533Y-41032216D01*
X69251133Y-41000000D01*
X70694540Y-41000000D01*
X70714326Y-41188256D01*
X70714327Y-41188259D01*
X70772818Y-41368277D01*
X70772821Y-41368284D01*
X70867467Y-41532216D01*
X70994128Y-41672887D01*
X70994129Y-41672888D01*
X71147265Y-41784148D01*
X71147270Y-41784151D01*
X71320192Y-41861142D01*
X71320197Y-41861144D01*
X71505354Y-41900500D01*
X71505355Y-41900500D01*
X71694644Y-41900500D01*
X71694646Y-41900500D01*
X71879803Y-41861144D01*
X72052730Y-41784151D01*
X72203921Y-41674305D01*
X79891432Y-41674305D01*
X79911218Y-41862561D01*
X79911219Y-41862564D01*
X79969710Y-42042582D01*
X79969713Y-42042589D01*
X80064359Y-42206521D01*
X80191020Y-42347192D01*
X80191021Y-42347193D01*
X80344157Y-42458453D01*
X80344162Y-42458456D01*
X80517084Y-42535447D01*
X80517089Y-42535449D01*
X80702246Y-42574805D01*
X80702247Y-42574805D01*
X80891536Y-42574805D01*
X80891538Y-42574805D01*
X81076695Y-42535449D01*
X81249622Y-42458456D01*
X81402763Y-42347193D01*
X81529425Y-42206521D01*
X81624071Y-42042589D01*
X81682566Y-41862561D01*
X81702352Y-41674305D01*
X81682566Y-41486049D01*
X81624071Y-41306021D01*
X81529425Y-41142089D01*
X81402763Y-41001417D01*
X81400813Y-41000000D01*
X81249626Y-40890156D01*
X81249621Y-40890153D01*
X81076699Y-40813162D01*
X81076694Y-40813160D01*
X80930892Y-40782170D01*
X80891538Y-40773805D01*
X80702246Y-40773805D01*
X80669789Y-40780703D01*
X80517089Y-40813160D01*
X80517084Y-40813162D01*
X80344162Y-40890153D01*
X80344157Y-40890156D01*
X80191021Y-41001416D01*
X80064358Y-41142090D01*
X79969713Y-41306020D01*
X79969710Y-41306027D01*
X79911219Y-41486045D01*
X79911218Y-41486049D01*
X79891432Y-41674305D01*
X72203921Y-41674305D01*
X72205871Y-41672888D01*
X72332533Y-41532216D01*
X72427179Y-41368284D01*
X72485674Y-41188256D01*
X72505460Y-41000000D01*
X72485674Y-40811744D01*
X72427179Y-40631716D01*
X72332533Y-40467784D01*
X72205871Y-40327112D01*
X72184719Y-40311744D01*
X72052734Y-40215851D01*
X72052729Y-40215848D01*
X71879807Y-40138857D01*
X71879802Y-40138855D01*
X71734001Y-40107865D01*
X71694646Y-40099500D01*
X71505354Y-40099500D01*
X71472897Y-40106398D01*
X71320197Y-40138855D01*
X71320192Y-40138857D01*
X71147270Y-40215848D01*
X71147265Y-40215851D01*
X70994129Y-40327111D01*
X70867466Y-40467785D01*
X70772821Y-40631715D01*
X70772818Y-40631722D01*
X70726653Y-40773805D01*
X70714326Y-40811744D01*
X70694540Y-41000000D01*
X69251133Y-41000000D01*
X69327179Y-40868284D01*
X69385674Y-40688256D01*
X69405460Y-40500000D01*
X69385674Y-40311744D01*
X69327179Y-40131716D01*
X69232533Y-39967784D01*
X69105871Y-39827112D01*
X69105870Y-39827111D01*
X68952734Y-39715851D01*
X68952729Y-39715848D01*
X68779807Y-39638857D01*
X68779802Y-39638855D01*
X68634000Y-39607865D01*
X68594646Y-39599500D01*
X68405354Y-39599500D01*
X68372897Y-39606398D01*
X68220197Y-39638855D01*
X68220192Y-39638857D01*
X68047270Y-39715848D01*
X68047265Y-39715851D01*
X67894129Y-39827111D01*
X67767466Y-39967785D01*
X67672821Y-40131715D01*
X67672818Y-40131722D01*
X67631623Y-40258509D01*
X67614326Y-40311744D01*
X67594540Y-40500000D01*
X54199180Y-40500000D01*
X54199180Y-39139222D01*
X76690557Y-39139222D01*
X76710343Y-39327478D01*
X76710344Y-39327481D01*
X76768835Y-39507499D01*
X76768838Y-39507506D01*
X76863484Y-39671438D01*
X76903474Y-39715851D01*
X76990146Y-39812110D01*
X77143282Y-39923370D01*
X77143287Y-39923373D01*
X77316209Y-40000364D01*
X77316214Y-40000366D01*
X77501371Y-40039722D01*
X77501372Y-40039722D01*
X77690661Y-40039722D01*
X77690663Y-40039722D01*
X77875820Y-40000366D01*
X78048747Y-39923373D01*
X78201888Y-39812110D01*
X78328550Y-39671438D01*
X78423196Y-39507506D01*
X78481691Y-39327478D01*
X78501477Y-39139222D01*
X78481691Y-38950966D01*
X78423196Y-38770938D01*
X78360301Y-38662000D01*
X80794540Y-38662000D01*
X80814326Y-38850256D01*
X80814327Y-38850259D01*
X80872818Y-39030277D01*
X80872821Y-39030284D01*
X80967467Y-39194216D01*
X81076266Y-39315049D01*
X81094129Y-39334888D01*
X81247265Y-39446148D01*
X81247270Y-39446151D01*
X81420192Y-39523142D01*
X81420197Y-39523144D01*
X81605354Y-39562500D01*
X81605355Y-39562500D01*
X81794644Y-39562500D01*
X81794646Y-39562500D01*
X81979803Y-39523144D01*
X82070847Y-39482607D01*
X82140093Y-39473322D01*
X82194165Y-39495568D01*
X82232120Y-39523144D01*
X82247270Y-39534151D01*
X82420192Y-39611142D01*
X82420197Y-39611144D01*
X82605354Y-39650500D01*
X82605355Y-39650500D01*
X82794644Y-39650500D01*
X82794646Y-39650500D01*
X82979803Y-39611144D01*
X82979809Y-39611142D01*
X83026421Y-39590388D01*
X83095671Y-39581101D01*
X83158948Y-39610728D01*
X83184245Y-39641664D01*
X83194259Y-39659007D01*
X83194258Y-39659007D01*
X83320922Y-39799681D01*
X83474058Y-39910941D01*
X83474063Y-39910944D01*
X83646985Y-39987935D01*
X83646990Y-39987937D01*
X83832147Y-40027293D01*
X83832148Y-40027293D01*
X84021437Y-40027293D01*
X84021439Y-40027293D01*
X84206596Y-39987937D01*
X84379523Y-39910944D01*
X84532664Y-39799681D01*
X84659326Y-39659009D01*
X84753972Y-39495077D01*
X84812467Y-39315049D01*
X84832253Y-39126793D01*
X84812467Y-38938537D01*
X84753972Y-38758509D01*
X84659326Y-38594577D01*
X84532664Y-38453905D01*
X84532663Y-38453904D01*
X84379527Y-38342644D01*
X84379522Y-38342641D01*
X84206600Y-38265650D01*
X84206595Y-38265648D01*
X84060794Y-38234658D01*
X84021439Y-38226293D01*
X83832147Y-38226293D01*
X83799690Y-38233191D01*
X83646990Y-38265648D01*
X83646989Y-38265648D01*
X83600368Y-38286406D01*
X83531118Y-38295690D01*
X83467841Y-38266061D01*
X83442546Y-38235127D01*
X83441774Y-38233791D01*
X83432533Y-38217784D01*
X83305871Y-38077112D01*
X83305870Y-38077111D01*
X83198519Y-37999116D01*
X83155853Y-37943786D01*
X83149874Y-37874173D01*
X83182480Y-37812378D01*
X83243318Y-37778021D01*
X83297184Y-37777508D01*
X83405354Y-37800500D01*
X83405355Y-37800500D01*
X83594644Y-37800500D01*
X83594646Y-37800500D01*
X83779803Y-37761144D01*
X83903179Y-37706213D01*
X83952728Y-37684152D01*
X83952728Y-37684151D01*
X83952730Y-37684151D01*
X83967704Y-37673271D01*
X84033509Y-37649791D01*
X84101563Y-37665615D01*
X84113475Y-37673271D01*
X84197265Y-37734148D01*
X84197270Y-37734151D01*
X84370192Y-37811142D01*
X84370197Y-37811144D01*
X84555354Y-37850500D01*
X84555355Y-37850500D01*
X84744644Y-37850500D01*
X84744646Y-37850500D01*
X84929803Y-37811144D01*
X85102730Y-37734151D01*
X85255871Y-37622888D01*
X85382533Y-37482216D01*
X85477179Y-37318284D01*
X85535674Y-37138256D01*
X85555460Y-36950000D01*
X85535674Y-36761744D01*
X85477179Y-36581716D01*
X85382533Y-36417784D01*
X85255871Y-36277112D01*
X85196736Y-36234148D01*
X85168727Y-36213798D01*
X85126062Y-36158468D01*
X85120083Y-36088854D01*
X85123679Y-36075171D01*
X85135674Y-36038256D01*
X85155460Y-35850000D01*
X85135674Y-35661744D01*
X85081112Y-35493823D01*
X85077181Y-35481722D01*
X85077180Y-35481721D01*
X85077179Y-35481716D01*
X84982533Y-35317784D01*
X84855871Y-35177112D01*
X84855870Y-35177111D01*
X84702734Y-35065851D01*
X84702729Y-35065848D01*
X84529807Y-34988857D01*
X84529802Y-34988855D01*
X84384001Y-34957865D01*
X84344646Y-34949500D01*
X84155354Y-34949500D01*
X84122897Y-34956398D01*
X83970197Y-34988855D01*
X83970192Y-34988857D01*
X83797271Y-35065848D01*
X83782401Y-35076652D01*
X83716594Y-35100130D01*
X83648541Y-35084303D01*
X83602131Y-35038332D01*
X83573566Y-34988856D01*
X83532533Y-34917784D01*
X83405871Y-34777112D01*
X83384719Y-34761744D01*
X83252734Y-34665851D01*
X83252729Y-34665848D01*
X83079807Y-34588857D01*
X83079802Y-34588855D01*
X82934001Y-34557865D01*
X82894646Y-34549500D01*
X82705354Y-34549500D01*
X82672897Y-34556398D01*
X82520197Y-34588855D01*
X82520192Y-34588857D01*
X82347270Y-34665848D01*
X82347265Y-34665851D01*
X82194129Y-34777111D01*
X82067466Y-34917785D01*
X81972821Y-35081715D01*
X81972818Y-35081722D01*
X81914327Y-35261740D01*
X81914326Y-35261744D01*
X81894540Y-35450000D01*
X81914326Y-35638256D01*
X81914327Y-35638259D01*
X81972818Y-35818277D01*
X81972821Y-35818284D01*
X82067467Y-35982216D01*
X82163485Y-36088854D01*
X82194129Y-36122888D01*
X82347265Y-36234148D01*
X82347270Y-36234151D01*
X82520192Y-36311142D01*
X82520193Y-36311142D01*
X82520197Y-36311144D01*
X82602623Y-36328664D01*
X82664105Y-36361856D01*
X82697882Y-36423019D01*
X82693230Y-36492733D01*
X82684232Y-36511951D01*
X82672821Y-36531715D01*
X82672818Y-36531722D01*
X82614327Y-36711740D01*
X82614326Y-36711744D01*
X82609071Y-36761744D01*
X82603820Y-36811703D01*
X82577235Y-36876318D01*
X82519937Y-36916302D01*
X82450118Y-36918962D01*
X82389945Y-36883452D01*
X82388349Y-36881713D01*
X82305870Y-36790111D01*
X82152734Y-36678851D01*
X82152729Y-36678848D01*
X81979807Y-36601857D01*
X81979802Y-36601855D01*
X81810411Y-36565851D01*
X81794646Y-36562500D01*
X81605354Y-36562500D01*
X81589589Y-36565851D01*
X81420197Y-36601855D01*
X81420192Y-36601857D01*
X81247270Y-36678848D01*
X81247265Y-36678851D01*
X81094129Y-36790111D01*
X80967466Y-36930785D01*
X80872821Y-37094715D01*
X80872818Y-37094722D01*
X80816425Y-37268284D01*
X80814326Y-37274744D01*
X80794540Y-37463000D01*
X80814326Y-37651256D01*
X80814327Y-37651259D01*
X80872818Y-37831277D01*
X80872823Y-37831289D01*
X80970517Y-38000501D01*
X80986990Y-38068401D01*
X80970517Y-38124499D01*
X80872823Y-38293710D01*
X80872818Y-38293722D01*
X80814327Y-38473740D01*
X80814326Y-38473744D01*
X80794540Y-38662000D01*
X78360301Y-38662000D01*
X78328550Y-38607006D01*
X78201888Y-38466334D01*
X78184780Y-38453904D01*
X78048751Y-38355073D01*
X78048746Y-38355070D01*
X77875824Y-38278079D01*
X77875819Y-38278077D01*
X77730018Y-38247087D01*
X77690663Y-38238722D01*
X77501371Y-38238722D01*
X77468914Y-38245620D01*
X77316214Y-38278077D01*
X77316209Y-38278079D01*
X77143287Y-38355070D01*
X77143282Y-38355073D01*
X76990146Y-38466333D01*
X76863483Y-38607007D01*
X76768838Y-38770937D01*
X76768835Y-38770944D01*
X76714381Y-38938537D01*
X76710343Y-38950966D01*
X76690557Y-39139222D01*
X54199180Y-39139222D01*
X54199180Y-38335055D01*
X55899499Y-38335055D01*
X55940210Y-38500226D01*
X56019263Y-38650849D01*
X56019266Y-38650852D01*
X56132071Y-38778183D01*
X56201046Y-38825793D01*
X56272068Y-38874817D01*
X56272069Y-38874817D01*
X56272070Y-38874818D01*
X56431128Y-38935140D01*
X56488811Y-38942144D01*
X56557626Y-38950500D01*
X56557628Y-38950500D01*
X56642374Y-38950500D01*
X56684538Y-38945380D01*
X56768872Y-38935140D01*
X56927930Y-38874818D01*
X57067929Y-38778183D01*
X57180734Y-38650852D01*
X57203747Y-38607006D01*
X57259789Y-38500226D01*
X57259790Y-38500225D01*
X57300500Y-38335056D01*
X57300500Y-38164944D01*
X57259790Y-37999775D01*
X57241984Y-37965849D01*
X57180736Y-37849150D01*
X57148159Y-37812378D01*
X57067929Y-37721817D01*
X56997600Y-37673272D01*
X56927931Y-37625182D01*
X56768874Y-37564860D01*
X56768868Y-37564859D01*
X56642374Y-37549500D01*
X56642372Y-37549500D01*
X56557628Y-37549500D01*
X56557626Y-37549500D01*
X56431131Y-37564859D01*
X56431125Y-37564860D01*
X56272068Y-37625182D01*
X56132072Y-37721816D01*
X56019263Y-37849150D01*
X55940210Y-37999773D01*
X55899499Y-38164944D01*
X55899499Y-38335055D01*
X54199180Y-38335055D01*
X54199180Y-37350000D01*
X60994540Y-37350000D01*
X61014326Y-37538256D01*
X61014327Y-37538259D01*
X61072818Y-37718277D01*
X61072821Y-37718284D01*
X61167467Y-37882216D01*
X61173446Y-37888856D01*
X61294129Y-38022888D01*
X61447265Y-38134148D01*
X61447270Y-38134151D01*
X61620192Y-38211142D01*
X61620197Y-38211144D01*
X61805354Y-38250500D01*
X61805355Y-38250500D01*
X61994644Y-38250500D01*
X61994646Y-38250500D01*
X62179803Y-38211144D01*
X62352730Y-38134151D01*
X62505871Y-38022888D01*
X62632533Y-37882216D01*
X62727179Y-37718284D01*
X62785674Y-37538256D01*
X62805460Y-37350000D01*
X62785674Y-37161744D01*
X62727179Y-36981716D01*
X62632533Y-36817784D01*
X62505871Y-36677112D01*
X62505870Y-36677111D01*
X62352734Y-36565851D01*
X62352729Y-36565848D01*
X62179807Y-36488857D01*
X62179802Y-36488855D01*
X62034001Y-36457865D01*
X61994646Y-36449500D01*
X61805354Y-36449500D01*
X61772897Y-36456398D01*
X61620197Y-36488855D01*
X61620192Y-36488857D01*
X61447270Y-36565848D01*
X61447265Y-36565851D01*
X61294129Y-36677111D01*
X61167466Y-36817785D01*
X61072821Y-36981715D01*
X61072818Y-36981722D01*
X61014327Y-37161740D01*
X61014326Y-37161744D01*
X60994540Y-37350000D01*
X54199180Y-37350000D01*
X54199180Y-34950000D01*
X76244540Y-34950000D01*
X76264326Y-35138256D01*
X76264327Y-35138259D01*
X76322818Y-35318277D01*
X76322821Y-35318284D01*
X76417467Y-35482216D01*
X76544128Y-35622888D01*
X76544129Y-35622888D01*
X76697265Y-35734148D01*
X76697270Y-35734151D01*
X76870192Y-35811142D01*
X76870197Y-35811144D01*
X77055354Y-35850500D01*
X77055355Y-35850500D01*
X77244644Y-35850500D01*
X77244646Y-35850500D01*
X77429803Y-35811144D01*
X77602730Y-35734151D01*
X77755871Y-35622888D01*
X77882533Y-35482216D01*
X77977179Y-35318284D01*
X78035674Y-35138256D01*
X78055460Y-34950000D01*
X78035674Y-34761744D01*
X77977179Y-34581716D01*
X77882533Y-34417784D01*
X77755871Y-34277112D01*
X77755870Y-34277111D01*
X77602734Y-34165851D01*
X77602729Y-34165848D01*
X77429807Y-34088857D01*
X77429802Y-34088855D01*
X77284001Y-34057865D01*
X77244646Y-34049500D01*
X77055354Y-34049500D01*
X77022897Y-34056398D01*
X76870197Y-34088855D01*
X76870192Y-34088857D01*
X76697270Y-34165848D01*
X76697265Y-34165851D01*
X76544129Y-34277111D01*
X76417466Y-34417785D01*
X76322821Y-34581715D01*
X76322818Y-34581722D01*
X76264327Y-34761740D01*
X76264326Y-34761744D01*
X76262711Y-34777111D01*
X76244593Y-34949500D01*
X76244540Y-34950000D01*
X54199180Y-34950000D01*
X54199180Y-31535055D01*
X55899499Y-31535055D01*
X55940210Y-31700226D01*
X56019263Y-31850849D01*
X56019266Y-31850852D01*
X56132071Y-31978183D01*
X56179820Y-32011142D01*
X56272068Y-32074817D01*
X56272069Y-32074817D01*
X56272070Y-32074818D01*
X56431128Y-32135140D01*
X56507028Y-32144356D01*
X56557626Y-32150500D01*
X56557628Y-32150500D01*
X56642374Y-32150500D01*
X56684538Y-32145380D01*
X56768872Y-32135140D01*
X56927930Y-32074818D01*
X57067929Y-31978183D01*
X57180734Y-31850852D01*
X57259790Y-31700225D01*
X57300500Y-31535056D01*
X57300500Y-31364944D01*
X57259790Y-31199775D01*
X57233666Y-31150000D01*
X57180736Y-31049150D01*
X57147597Y-31011744D01*
X57067929Y-30921817D01*
X57018177Y-30887475D01*
X56927931Y-30825182D01*
X56768874Y-30764860D01*
X56768868Y-30764859D01*
X56642374Y-30749500D01*
X56642372Y-30749500D01*
X56557628Y-30749500D01*
X56557626Y-30749500D01*
X56431131Y-30764859D01*
X56431125Y-30764860D01*
X56272068Y-30825182D01*
X56132072Y-30921816D01*
X56019263Y-31049150D01*
X55940210Y-31199773D01*
X55899499Y-31364944D01*
X55899499Y-31535055D01*
X54199180Y-31535055D01*
X54199180Y-25421320D01*
X55523373Y-25421320D01*
X55542592Y-25837017D01*
X55542592Y-25837022D01*
X55542593Y-25837027D01*
X55600083Y-26249165D01*
X55600085Y-26249173D01*
X55695359Y-26654253D01*
X55827609Y-27048834D01*
X55995690Y-27429497D01*
X55995700Y-27429518D01*
X56198186Y-27793051D01*
X56198189Y-27793055D01*
X56198191Y-27793059D01*
X56433367Y-28136374D01*
X56433369Y-28136376D01*
X56433376Y-28136386D01*
X56699208Y-28456514D01*
X56699218Y-28456526D01*
X56993474Y-28750782D01*
X56993485Y-28750791D01*
X57313613Y-29016623D01*
X57313619Y-29016627D01*
X57313626Y-29016633D01*
X57656941Y-29251809D01*
X58020492Y-29454305D01*
X58210833Y-29538349D01*
X58401165Y-29622390D01*
X58401168Y-29622391D01*
X58401175Y-29622394D01*
X58795744Y-29754640D01*
X59200832Y-29849916D01*
X59612983Y-29907408D01*
X60028680Y-29926627D01*
X60444377Y-29907408D01*
X60856528Y-29849916D01*
X61261616Y-29754640D01*
X61656185Y-29622394D01*
X62036868Y-29454305D01*
X62400419Y-29251809D01*
X62743734Y-29016633D01*
X63063886Y-28750782D01*
X63358142Y-28456526D01*
X63623993Y-28136374D01*
X63859169Y-27793059D01*
X64061665Y-27429508D01*
X64229754Y-27048825D01*
X64362000Y-26654256D01*
X64457276Y-26249168D01*
X64514768Y-25837017D01*
X64533987Y-25421320D01*
X64516589Y-25045004D01*
X68794451Y-25045004D01*
X68814616Y-25314101D01*
X68874664Y-25577188D01*
X68874666Y-25577195D01*
X68973257Y-25828398D01*
X69108185Y-26062102D01*
X69244080Y-26232509D01*
X69276442Y-26273089D01*
X69405543Y-26392876D01*
X69474259Y-26456635D01*
X69697226Y-26608651D01*
X69940359Y-26725738D01*
X70198228Y-26805280D01*
X70198229Y-26805280D01*
X70198232Y-26805281D01*
X70465063Y-26845499D01*
X70465068Y-26845499D01*
X70465071Y-26845500D01*
X70465072Y-26845500D01*
X70734928Y-26845500D01*
X70734929Y-26845500D01*
X70734936Y-26845499D01*
X71001767Y-26805281D01*
X71001768Y-26805280D01*
X71001772Y-26805280D01*
X71259641Y-26725738D01*
X71502775Y-26608651D01*
X71725741Y-26456635D01*
X71923561Y-26273085D01*
X72091815Y-26062102D01*
X72226743Y-25828398D01*
X72325334Y-25577195D01*
X72385383Y-25314103D01*
X72405549Y-25045004D01*
X73794451Y-25045004D01*
X73814616Y-25314101D01*
X73874664Y-25577188D01*
X73874666Y-25577195D01*
X73973257Y-25828398D01*
X74108185Y-26062102D01*
X74244080Y-26232509D01*
X74276442Y-26273089D01*
X74405543Y-26392876D01*
X74474259Y-26456635D01*
X74697226Y-26608651D01*
X74940359Y-26725738D01*
X75198228Y-26805280D01*
X75198229Y-26805280D01*
X75198232Y-26805281D01*
X75465063Y-26845499D01*
X75465068Y-26845499D01*
X75465071Y-26845500D01*
X75465072Y-26845500D01*
X75734928Y-26845500D01*
X75734929Y-26845500D01*
X75734936Y-26845499D01*
X76001767Y-26805281D01*
X76001768Y-26805280D01*
X76001772Y-26805280D01*
X76259641Y-26725738D01*
X76502775Y-26608651D01*
X76725741Y-26456635D01*
X76923561Y-26273085D01*
X77091815Y-26062102D01*
X77226743Y-25828398D01*
X77325334Y-25577195D01*
X77385383Y-25314103D01*
X77405549Y-25045004D01*
X78794451Y-25045004D01*
X78814616Y-25314101D01*
X78874664Y-25577188D01*
X78874666Y-25577195D01*
X78973257Y-25828398D01*
X79108185Y-26062102D01*
X79244080Y-26232509D01*
X79276442Y-26273089D01*
X79405543Y-26392876D01*
X79474259Y-26456635D01*
X79697226Y-26608651D01*
X79940359Y-26725738D01*
X80198228Y-26805280D01*
X80198229Y-26805280D01*
X80198232Y-26805281D01*
X80465063Y-26845499D01*
X80465068Y-26845499D01*
X80465071Y-26845500D01*
X80465072Y-26845500D01*
X80734928Y-26845500D01*
X80734929Y-26845500D01*
X80734936Y-26845499D01*
X81001767Y-26805281D01*
X81001768Y-26805280D01*
X81001772Y-26805280D01*
X81259641Y-26725738D01*
X81502775Y-26608651D01*
X81725741Y-26456635D01*
X81923561Y-26273085D01*
X82091815Y-26062102D01*
X82226743Y-25828398D01*
X82325334Y-25577195D01*
X82385383Y-25314103D01*
X82405549Y-25045000D01*
X82402597Y-25005612D01*
X82385383Y-24775898D01*
X82343746Y-24593474D01*
X82325334Y-24512805D01*
X82226743Y-24261602D01*
X82091815Y-24027898D01*
X81923561Y-23816915D01*
X81923560Y-23816914D01*
X81923557Y-23816910D01*
X81725741Y-23633365D01*
X81645514Y-23578667D01*
X81502775Y-23481349D01*
X81502769Y-23481346D01*
X81502768Y-23481345D01*
X81502767Y-23481344D01*
X81259643Y-23364263D01*
X81259645Y-23364263D01*
X81001773Y-23284720D01*
X81001767Y-23284718D01*
X80734936Y-23244500D01*
X80734929Y-23244500D01*
X80465071Y-23244500D01*
X80465063Y-23244500D01*
X80198232Y-23284718D01*
X80198226Y-23284720D01*
X79940358Y-23364262D01*
X79697230Y-23481346D01*
X79474258Y-23633365D01*
X79276442Y-23816910D01*
X79108185Y-24027898D01*
X78973258Y-24261599D01*
X78973256Y-24261603D01*
X78874666Y-24512804D01*
X78874664Y-24512811D01*
X78814616Y-24775898D01*
X78794451Y-25044995D01*
X78794451Y-25045004D01*
X77405549Y-25045004D01*
X77405549Y-25045000D01*
X77402597Y-25005612D01*
X77385383Y-24775898D01*
X77343746Y-24593474D01*
X77325334Y-24512805D01*
X77226743Y-24261602D01*
X77091815Y-24027898D01*
X76923561Y-23816915D01*
X76923560Y-23816914D01*
X76923557Y-23816910D01*
X76725741Y-23633365D01*
X76645514Y-23578667D01*
X76502775Y-23481349D01*
X76502769Y-23481346D01*
X76502768Y-23481345D01*
X76502767Y-23481344D01*
X76259643Y-23364263D01*
X76259645Y-23364263D01*
X76001773Y-23284720D01*
X76001767Y-23284718D01*
X75734936Y-23244500D01*
X75734929Y-23244500D01*
X75465071Y-23244500D01*
X75465063Y-23244500D01*
X75198232Y-23284718D01*
X75198226Y-23284720D01*
X74940358Y-23364262D01*
X74697230Y-23481346D01*
X74474258Y-23633365D01*
X74276442Y-23816910D01*
X74108185Y-24027898D01*
X73973258Y-24261599D01*
X73973256Y-24261603D01*
X73874666Y-24512804D01*
X73874664Y-24512811D01*
X73814616Y-24775898D01*
X73794451Y-25044995D01*
X73794451Y-25045004D01*
X72405549Y-25045004D01*
X72405549Y-25045000D01*
X72402597Y-25005612D01*
X72385383Y-24775898D01*
X72343746Y-24593474D01*
X72325334Y-24512805D01*
X72226743Y-24261602D01*
X72091815Y-24027898D01*
X71923561Y-23816915D01*
X71923560Y-23816914D01*
X71923557Y-23816910D01*
X71725741Y-23633365D01*
X71645514Y-23578667D01*
X71502775Y-23481349D01*
X71502769Y-23481346D01*
X71502768Y-23481345D01*
X71502767Y-23481344D01*
X71259643Y-23364263D01*
X71259645Y-23364263D01*
X71001773Y-23284720D01*
X71001767Y-23284718D01*
X70734936Y-23244500D01*
X70734929Y-23244500D01*
X70465071Y-23244500D01*
X70465063Y-23244500D01*
X70198232Y-23284718D01*
X70198226Y-23284720D01*
X69940358Y-23364262D01*
X69697230Y-23481346D01*
X69474258Y-23633365D01*
X69276442Y-23816910D01*
X69108185Y-24027898D01*
X68973258Y-24261599D01*
X68973256Y-24261603D01*
X68874666Y-24512804D01*
X68874664Y-24512811D01*
X68814616Y-24775898D01*
X68794451Y-25044995D01*
X68794451Y-25045004D01*
X64516589Y-25045004D01*
X64514768Y-25005623D01*
X64457276Y-24593472D01*
X64362000Y-24188384D01*
X64229754Y-23793815D01*
X64187065Y-23697135D01*
X64134756Y-23578667D01*
X64061665Y-23413132D01*
X64055312Y-23401727D01*
X63859173Y-23049588D01*
X63859172Y-23049587D01*
X63859169Y-23049581D01*
X63623993Y-22706266D01*
X63623987Y-22706259D01*
X63623983Y-22706253D01*
X63358151Y-22386125D01*
X63358142Y-22386114D01*
X63063886Y-22091858D01*
X62863218Y-21925225D01*
X62743746Y-21826016D01*
X62743736Y-21826009D01*
X62743734Y-21826007D01*
X62400419Y-21590831D01*
X62400415Y-21590829D01*
X62400411Y-21590826D01*
X62036878Y-21388340D01*
X62036857Y-21388330D01*
X61656194Y-21220249D01*
X61261613Y-21087999D01*
X60856533Y-20992725D01*
X60856525Y-20992723D01*
X60444387Y-20935233D01*
X60444382Y-20935232D01*
X60444377Y-20935232D01*
X60028680Y-20916013D01*
X60028679Y-20916013D01*
X59992933Y-20917665D01*
X59612983Y-20935232D01*
X59612977Y-20935232D01*
X59612972Y-20935233D01*
X59200834Y-20992723D01*
X59200826Y-20992725D01*
X58795746Y-21087999D01*
X58401165Y-21220249D01*
X58020502Y-21388330D01*
X58020481Y-21388340D01*
X57656948Y-21590826D01*
X57656942Y-21590830D01*
X57313623Y-21826009D01*
X57313613Y-21826016D01*
X56993485Y-22091848D01*
X56993465Y-22091866D01*
X56699226Y-22386105D01*
X56699208Y-22386125D01*
X56433376Y-22706253D01*
X56433369Y-22706263D01*
X56198190Y-23049582D01*
X56198186Y-23049588D01*
X55995700Y-23413121D01*
X55995690Y-23413142D01*
X55827609Y-23793805D01*
X55695359Y-24188386D01*
X55600085Y-24593466D01*
X55600083Y-24593474D01*
X55542593Y-25005612D01*
X55542592Y-25005617D01*
X55542592Y-25005623D01*
X55523373Y-25421320D01*
X54199180Y-25421320D01*
X54199180Y-25421319D01*
X54203392Y-25314103D01*
X54208687Y-25179328D01*
X54217740Y-24960477D01*
X54218111Y-24955816D01*
X54246448Y-24716407D01*
X54271828Y-24512804D01*
X54274167Y-24494038D01*
X54274872Y-24489669D01*
X54321750Y-24253997D01*
X54367941Y-24033703D01*
X54368946Y-24029616D01*
X54369431Y-24027898D01*
X54434098Y-23798600D01*
X54498459Y-23582419D01*
X54499709Y-23578667D01*
X54582731Y-23353627D01*
X54664879Y-23143101D01*
X54666293Y-23139774D01*
X54766721Y-22921928D01*
X54866101Y-22718644D01*
X54867636Y-22715713D01*
X54984881Y-22506358D01*
X55100792Y-22311834D01*
X55102434Y-22309234D01*
X55235792Y-22109648D01*
X55367469Y-21925225D01*
X55369171Y-21922957D01*
X55517817Y-21734401D01*
X55665190Y-21560397D01*
X55829150Y-21383026D01*
X55990386Y-21221790D01*
X56167757Y-21057830D01*
X56341761Y-20910457D01*
X56530317Y-20761811D01*
X56532585Y-20760109D01*
X56717008Y-20628432D01*
X56916594Y-20495074D01*
X56919194Y-20493432D01*
X57113696Y-20377534D01*
X57323073Y-20260276D01*
X57326004Y-20258741D01*
X57529288Y-20159361D01*
X57747134Y-20058933D01*
X57750461Y-20057519D01*
X57960987Y-19975371D01*
X58186040Y-19892344D01*
X58189779Y-19891099D01*
X58405960Y-19826738D01*
X58636977Y-19761585D01*
X58641063Y-19760581D01*
X58861357Y-19714390D01*
X59097029Y-19667512D01*
X59101398Y-19666807D01*
X59323763Y-19639088D01*
X59563174Y-19610752D01*
X59567837Y-19610380D01*
X59786745Y-19601325D01*
X60028680Y-19591820D01*
X60029180Y-19591820D01*
X86402072Y-19591820D01*
X86469111Y-19611505D01*
G37*
%TD.AperFunction*%
%TD*%
%TA.AperFunction,Conductor*%
%TO.N,+5V*%
G36*
X97737411Y-19592140D02*
G01*
X97958434Y-19600890D01*
X98183163Y-19610256D01*
X98187863Y-19610633D01*
X98427894Y-19639261D01*
X98653179Y-19667560D01*
X98657540Y-19668270D01*
X98894173Y-19715708D01*
X99116877Y-19762771D01*
X99121010Y-19763795D01*
X99353030Y-19829757D01*
X99571400Y-19895294D01*
X99575121Y-19896543D01*
X99801251Y-19980661D01*
X100013561Y-20064201D01*
X100017002Y-20065677D01*
X100235776Y-20167409D01*
X100440619Y-20268434D01*
X100443647Y-20270035D01*
X100653761Y-20388783D01*
X100849621Y-20506583D01*
X100852315Y-20508299D01*
X101045120Y-20638387D01*
X101052481Y-20643354D01*
X101237966Y-20777120D01*
X101240309Y-20778895D01*
X101406318Y-20911145D01*
X101429250Y-20929414D01*
X101604088Y-21079114D01*
X101781607Y-21245098D01*
X101943380Y-21408826D01*
X102107224Y-21588329D01*
X102254803Y-21764938D01*
X102403050Y-21955682D01*
X102404816Y-21958070D01*
X102536322Y-22145115D01*
X102668951Y-22346870D01*
X102670654Y-22349613D01*
X102786087Y-22546862D01*
X102902293Y-22758367D01*
X102903878Y-22761453D01*
X102987920Y-22937147D01*
X103002436Y-22967493D01*
X103101530Y-23187464D01*
X103102964Y-23190923D01*
X103183964Y-23404259D01*
X103265328Y-23631294D01*
X103266556Y-23635104D01*
X103329470Y-23854250D01*
X103392628Y-24086998D01*
X103393602Y-24091146D01*
X103437996Y-24314432D01*
X103482576Y-24551554D01*
X103483249Y-24556024D01*
X103508854Y-24781748D01*
X103534574Y-25021887D01*
X103534900Y-25026654D01*
X103541572Y-25251610D01*
X103548180Y-25491314D01*
X103547622Y-25537726D01*
X103548150Y-25542786D01*
X103528180Y-61680855D01*
X103527852Y-61681967D01*
X103528080Y-61683812D01*
X103518307Y-61926665D01*
X103508740Y-62152971D01*
X103508344Y-62157816D01*
X103478323Y-62405461D01*
X103449601Y-62630416D01*
X103448851Y-62634947D01*
X103399383Y-62877651D01*
X103351322Y-63101328D01*
X103350265Y-63105527D01*
X103281647Y-63342823D01*
X103214573Y-63562523D01*
X103213258Y-63566372D01*
X103125924Y-63797053D01*
X103040292Y-64010843D01*
X103038770Y-64014331D01*
X102933248Y-64237116D01*
X102829685Y-64443222D01*
X102828004Y-64446341D01*
X102704941Y-64659901D01*
X102584169Y-64856759D01*
X102582380Y-64859509D01*
X102442553Y-65062497D01*
X102305436Y-65248616D01*
X102303587Y-65251002D01*
X102147864Y-65442152D01*
X101994464Y-65617193D01*
X101822864Y-65796282D01*
X101655211Y-65957727D01*
X101469767Y-66122458D01*
X101289086Y-66269132D01*
X101092184Y-66417545D01*
X101089731Y-66419302D01*
X100898578Y-66549299D01*
X100690448Y-66681378D01*
X100687632Y-66683062D01*
X100486349Y-66796329D01*
X100268326Y-66911235D01*
X100265146Y-66912797D01*
X100055279Y-67008515D01*
X99828645Y-67105570D01*
X99825102Y-67106960D01*
X99608270Y-67184454D01*
X99374449Y-67263030D01*
X99370553Y-67264198D01*
X99148442Y-67322948D01*
X98908766Y-67382559D01*
X98904530Y-67383457D01*
X98679189Y-67423049D01*
X98434807Y-67463326D01*
X98430250Y-67463904D01*
X98204367Y-67484123D01*
X97953217Y-67504994D01*
X97948889Y-67505202D01*
X97924276Y-67505523D01*
X97882456Y-67505627D01*
X97478856Y-67506633D01*
X97478855Y-67506633D01*
X97477825Y-67506636D01*
X97453715Y-67505768D01*
X97449021Y-67508263D01*
X97424008Y-67510805D01*
X88006759Y-67508290D01*
X87939725Y-67488588D01*
X87893984Y-67435771D01*
X87882792Y-67383956D01*
X87895855Y-62537562D01*
X87915720Y-62470582D01*
X87968647Y-62424969D01*
X88037832Y-62415212D01*
X88101309Y-62444408D01*
X88127241Y-62475902D01*
X88208602Y-62616822D01*
X88262294Y-62684151D01*
X88982331Y-61964114D01*
X89043654Y-61930629D01*
X89113345Y-61935613D01*
X89169279Y-61977485D01*
X89174707Y-61985350D01*
X89195187Y-62017620D01*
X89195188Y-62017621D01*
X89314904Y-62130041D01*
X89318266Y-62132484D01*
X89320264Y-62135074D01*
X89320590Y-62135381D01*
X89320540Y-62135433D01*
X89360934Y-62187812D01*
X89366915Y-62257425D01*
X89334311Y-62319221D01*
X89333065Y-62320485D01*
X88614848Y-63038702D01*
X88797483Y-63163220D01*
X88797485Y-63163221D01*
X89040539Y-63280269D01*
X89040537Y-63280269D01*
X89298337Y-63359790D01*
X89298343Y-63359792D01*
X89565101Y-63399999D01*
X89565110Y-63400000D01*
X89834890Y-63400000D01*
X89834898Y-63399999D01*
X90101656Y-63359792D01*
X90101662Y-63359790D01*
X90359461Y-63280269D01*
X90602521Y-63163218D01*
X90785150Y-63038702D01*
X90063234Y-62316787D01*
X90029749Y-62255464D01*
X90034733Y-62185773D01*
X90076605Y-62129839D01*
X90077953Y-62128844D01*
X90148492Y-62077595D01*
X90234871Y-61973180D01*
X90292768Y-61934074D01*
X90362620Y-61932478D01*
X90418094Y-61964541D01*
X91137703Y-62684151D01*
X91137704Y-62684150D01*
X91191393Y-62616828D01*
X91191400Y-62616817D01*
X91326290Y-62383181D01*
X91424851Y-62132052D01*
X91424857Y-62132033D01*
X91484886Y-61869028D01*
X91484886Y-61869026D01*
X91498953Y-61681320D01*
X93193373Y-61681320D01*
X93212592Y-62097017D01*
X93212592Y-62097022D01*
X93212593Y-62097027D01*
X93270083Y-62509165D01*
X93270085Y-62509173D01*
X93365359Y-62914253D01*
X93497609Y-63308834D01*
X93665690Y-63689497D01*
X93665700Y-63689518D01*
X93868186Y-64053051D01*
X93868189Y-64053055D01*
X93868191Y-64053059D01*
X94103367Y-64396374D01*
X94103369Y-64396376D01*
X94103376Y-64396386D01*
X94322197Y-64659901D01*
X94369218Y-64716526D01*
X94663474Y-65010782D01*
X94663485Y-65010791D01*
X94983613Y-65276623D01*
X94983619Y-65276627D01*
X94983626Y-65276633D01*
X95326941Y-65511809D01*
X95690492Y-65714305D01*
X95699744Y-65718390D01*
X96071165Y-65882390D01*
X96071168Y-65882391D01*
X96071175Y-65882394D01*
X96465744Y-66014640D01*
X96870832Y-66109916D01*
X97282983Y-66167408D01*
X97698680Y-66186627D01*
X98114377Y-66167408D01*
X98526528Y-66109916D01*
X98931616Y-66014640D01*
X99326185Y-65882394D01*
X99706868Y-65714305D01*
X100070419Y-65511809D01*
X100413734Y-65276633D01*
X100733886Y-65010782D01*
X101028142Y-64716526D01*
X101293993Y-64396374D01*
X101529169Y-64053059D01*
X101731665Y-63689508D01*
X101899754Y-63308825D01*
X102032000Y-62914256D01*
X102127276Y-62509168D01*
X102184768Y-62097017D01*
X102203987Y-61681320D01*
X102184768Y-61265623D01*
X102127276Y-60853472D01*
X102032000Y-60448384D01*
X101899754Y-60053815D01*
X101892231Y-60036778D01*
X101731669Y-59673142D01*
X101731665Y-59673132D01*
X101529169Y-59309581D01*
X101293993Y-58966266D01*
X101293987Y-58966259D01*
X101293983Y-58966253D01*
X101028151Y-58646125D01*
X101028142Y-58646114D01*
X100733886Y-58351858D01*
X100733874Y-58351848D01*
X100413746Y-58086016D01*
X100413736Y-58086009D01*
X100413734Y-58086007D01*
X100070419Y-57850831D01*
X100070415Y-57850829D01*
X100070411Y-57850826D01*
X99706878Y-57648340D01*
X99706857Y-57648330D01*
X99326194Y-57480249D01*
X98931613Y-57347999D01*
X98526533Y-57252725D01*
X98526525Y-57252723D01*
X98114387Y-57195233D01*
X98114382Y-57195232D01*
X98114377Y-57195232D01*
X97698680Y-57176013D01*
X97282983Y-57195232D01*
X97282977Y-57195232D01*
X97282972Y-57195233D01*
X96870834Y-57252723D01*
X96870826Y-57252725D01*
X96465746Y-57347999D01*
X96071165Y-57480249D01*
X95690502Y-57648330D01*
X95690481Y-57648340D01*
X95326948Y-57850826D01*
X95326942Y-57850830D01*
X94983623Y-58086009D01*
X94983613Y-58086016D01*
X94663485Y-58351848D01*
X94663465Y-58351866D01*
X94369226Y-58646105D01*
X94369208Y-58646125D01*
X94103376Y-58966253D01*
X94103369Y-58966263D01*
X93868190Y-59309582D01*
X93868186Y-59309588D01*
X93665700Y-59673121D01*
X93665690Y-59673142D01*
X93497609Y-60053805D01*
X93365359Y-60448386D01*
X93270085Y-60853466D01*
X93270083Y-60853474D01*
X93212593Y-61265612D01*
X93212592Y-61265617D01*
X93212592Y-61265623D01*
X93193373Y-61681320D01*
X91498953Y-61681320D01*
X91505047Y-61600004D01*
X91505047Y-61599995D01*
X91484886Y-61330973D01*
X91484886Y-61330971D01*
X91424857Y-61067966D01*
X91424851Y-61067947D01*
X91326290Y-60816818D01*
X91326291Y-60816818D01*
X91191397Y-60583177D01*
X91137704Y-60515847D01*
X90417667Y-61235884D01*
X90356344Y-61269369D01*
X90286652Y-61264385D01*
X90230719Y-61222513D01*
X90225290Y-61214646D01*
X90223771Y-61212252D01*
X90204814Y-61182381D01*
X90140942Y-61122402D01*
X90085097Y-61069960D01*
X90081732Y-61067515D01*
X90079731Y-61064920D01*
X90079410Y-61064619D01*
X90079458Y-61064567D01*
X90039064Y-61012187D01*
X90033082Y-60942574D01*
X90065685Y-60880778D01*
X90066932Y-60879513D01*
X90785150Y-60161296D01*
X90602517Y-60036779D01*
X90602516Y-60036778D01*
X90359460Y-59919730D01*
X90359462Y-59919730D01*
X90101662Y-59840209D01*
X90101656Y-59840207D01*
X89834898Y-59800000D01*
X89565101Y-59800000D01*
X89298343Y-59840207D01*
X89298337Y-59840209D01*
X89040538Y-59919730D01*
X88797485Y-60036778D01*
X88797476Y-60036783D01*
X88614848Y-60161296D01*
X89336765Y-60883212D01*
X89370250Y-60944535D01*
X89365266Y-61014226D01*
X89323394Y-61070160D01*
X89321970Y-61071210D01*
X89251510Y-61122402D01*
X89251508Y-61122405D01*
X89165130Y-61226818D01*
X89107230Y-61265925D01*
X89037378Y-61267521D01*
X88981905Y-61235458D01*
X88262295Y-60515848D01*
X88208600Y-60583180D01*
X88132321Y-60715299D01*
X88081754Y-60763515D01*
X88013146Y-60776737D01*
X87948282Y-60750769D01*
X87907754Y-60693855D01*
X87900935Y-60652972D01*
X87915498Y-55250000D01*
X100294540Y-55250000D01*
X100314326Y-55438256D01*
X100314327Y-55438259D01*
X100372818Y-55618277D01*
X100372821Y-55618284D01*
X100467467Y-55782216D01*
X100594129Y-55922888D01*
X100747265Y-56034148D01*
X100747270Y-56034151D01*
X100920192Y-56111142D01*
X100920197Y-56111144D01*
X101105354Y-56150500D01*
X101105355Y-56150500D01*
X101294644Y-56150500D01*
X101294646Y-56150500D01*
X101479803Y-56111144D01*
X101652730Y-56034151D01*
X101805871Y-55922888D01*
X101932533Y-55782216D01*
X102027179Y-55618284D01*
X102085674Y-55438256D01*
X102105460Y-55250000D01*
X102085674Y-55061744D01*
X102027179Y-54881716D01*
X101932533Y-54717784D01*
X101805871Y-54577112D01*
X101805870Y-54577111D01*
X101652734Y-54465851D01*
X101652729Y-54465848D01*
X101479807Y-54388857D01*
X101479802Y-54388855D01*
X101334001Y-54357865D01*
X101294646Y-54349500D01*
X101105354Y-54349500D01*
X101072897Y-54356398D01*
X100920197Y-54388855D01*
X100920192Y-54388857D01*
X100747270Y-54465848D01*
X100747265Y-54465851D01*
X100594129Y-54577111D01*
X100467466Y-54717785D01*
X100372821Y-54881715D01*
X100372818Y-54881722D01*
X100314327Y-55061740D01*
X100314326Y-55061744D01*
X100294540Y-55250000D01*
X87915498Y-55250000D01*
X87922102Y-52800000D01*
X98344540Y-52800000D01*
X98364326Y-52988256D01*
X98364327Y-52988259D01*
X98422818Y-53168277D01*
X98422821Y-53168284D01*
X98517467Y-53332216D01*
X98644128Y-53472887D01*
X98644129Y-53472888D01*
X98797265Y-53584148D01*
X98797270Y-53584151D01*
X98970192Y-53661142D01*
X98970197Y-53661144D01*
X99155354Y-53700500D01*
X99155355Y-53700500D01*
X99344644Y-53700500D01*
X99344646Y-53700500D01*
X99529803Y-53661144D01*
X99702730Y-53584151D01*
X99855871Y-53472888D01*
X99982533Y-53332216D01*
X100077179Y-53168284D01*
X100135674Y-52988256D01*
X100155460Y-52800000D01*
X100137182Y-52626089D01*
X100545040Y-52626089D01*
X100564826Y-52814345D01*
X100564827Y-52814348D01*
X100623318Y-52994366D01*
X100623321Y-52994373D01*
X100717967Y-53158305D01*
X100844629Y-53298976D01*
X100844629Y-53298977D01*
X100997765Y-53410237D01*
X100997770Y-53410240D01*
X101170692Y-53487231D01*
X101170697Y-53487233D01*
X101355854Y-53526589D01*
X101355855Y-53526589D01*
X101545144Y-53526589D01*
X101545146Y-53526589D01*
X101730303Y-53487233D01*
X101903230Y-53410240D01*
X102056371Y-53298977D01*
X102183033Y-53158305D01*
X102277679Y-52994373D01*
X102336174Y-52814345D01*
X102355960Y-52626089D01*
X102336174Y-52437833D01*
X102277679Y-52257805D01*
X102183033Y-52093873D01*
X102056371Y-51953201D01*
X102056370Y-51953200D01*
X101903234Y-51841940D01*
X101903229Y-51841937D01*
X101730307Y-51764946D01*
X101730302Y-51764944D01*
X101584500Y-51733954D01*
X101545146Y-51725589D01*
X101355854Y-51725589D01*
X101323397Y-51732487D01*
X101170697Y-51764944D01*
X101170692Y-51764946D01*
X100997770Y-51841937D01*
X100997765Y-51841940D01*
X100844629Y-51953200D01*
X100717966Y-52093874D01*
X100623321Y-52257804D01*
X100623318Y-52257811D01*
X100564827Y-52437829D01*
X100564826Y-52437833D01*
X100545040Y-52626089D01*
X100137182Y-52626089D01*
X100135674Y-52611744D01*
X100077179Y-52431716D01*
X99982533Y-52267784D01*
X99855871Y-52127112D01*
X99810123Y-52093874D01*
X99702734Y-52015851D01*
X99702729Y-52015848D01*
X99529807Y-51938857D01*
X99529802Y-51938855D01*
X99384000Y-51907865D01*
X99344646Y-51899500D01*
X99155354Y-51899500D01*
X99122897Y-51906398D01*
X98970197Y-51938855D01*
X98970192Y-51938857D01*
X98797270Y-52015848D01*
X98797265Y-52015851D01*
X98644129Y-52127111D01*
X98517466Y-52267785D01*
X98422821Y-52431715D01*
X98422818Y-52431722D01*
X98364327Y-52611740D01*
X98364326Y-52611744D01*
X98344540Y-52800000D01*
X87922102Y-52800000D01*
X87932075Y-49100000D01*
X92444540Y-49100000D01*
X92464326Y-49288256D01*
X92464327Y-49288259D01*
X92522818Y-49468277D01*
X92522821Y-49468284D01*
X92617467Y-49632216D01*
X92733781Y-49761395D01*
X92744129Y-49772888D01*
X92897265Y-49884148D01*
X92897270Y-49884151D01*
X93070192Y-49961142D01*
X93070197Y-49961144D01*
X93255354Y-50000500D01*
X93255355Y-50000500D01*
X93444644Y-50000500D01*
X93444646Y-50000500D01*
X93629803Y-49961144D01*
X93802730Y-49884151D01*
X93955871Y-49772888D01*
X94082533Y-49632216D01*
X94177179Y-49468284D01*
X94235674Y-49288256D01*
X94255460Y-49100000D01*
X94235674Y-48911744D01*
X94177179Y-48731716D01*
X94082533Y-48567784D01*
X93955871Y-48427112D01*
X93954814Y-48426344D01*
X93802734Y-48315851D01*
X93802729Y-48315848D01*
X93629807Y-48238857D01*
X93629802Y-48238855D01*
X93466560Y-48204158D01*
X93444646Y-48199500D01*
X93255354Y-48199500D01*
X93233440Y-48204158D01*
X93070197Y-48238855D01*
X93070192Y-48238857D01*
X92897270Y-48315848D01*
X92897265Y-48315851D01*
X92744129Y-48427111D01*
X92617466Y-48567785D01*
X92522821Y-48731715D01*
X92522818Y-48731722D01*
X92471391Y-48889999D01*
X92464326Y-48911744D01*
X92444540Y-49100000D01*
X87932075Y-49100000D01*
X87940700Y-45900000D01*
X92494540Y-45900000D01*
X92514326Y-46088256D01*
X92514327Y-46088259D01*
X92572818Y-46268277D01*
X92572821Y-46268284D01*
X92667467Y-46432216D01*
X92738347Y-46510936D01*
X92794129Y-46572888D01*
X92947265Y-46684148D01*
X92947270Y-46684151D01*
X93120192Y-46761142D01*
X93120197Y-46761144D01*
X93305354Y-46800500D01*
X93305355Y-46800500D01*
X93494644Y-46800500D01*
X93494646Y-46800500D01*
X93679803Y-46761144D01*
X93852730Y-46684151D01*
X94005871Y-46572888D01*
X94132533Y-46432216D01*
X94227179Y-46268284D01*
X94285674Y-46088256D01*
X94305460Y-45900000D01*
X94285674Y-45711744D01*
X94227179Y-45531716D01*
X94132533Y-45367784D01*
X94005871Y-45227112D01*
X94005870Y-45227111D01*
X93852734Y-45115851D01*
X93852729Y-45115848D01*
X93679807Y-45038857D01*
X93679802Y-45038855D01*
X93534001Y-45007865D01*
X93494646Y-44999500D01*
X93305354Y-44999500D01*
X93272897Y-45006398D01*
X93120197Y-45038855D01*
X93120192Y-45038857D01*
X92947270Y-45115848D01*
X92947265Y-45115851D01*
X92794129Y-45227111D01*
X92667466Y-45367785D01*
X92572821Y-45531715D01*
X92572818Y-45531722D01*
X92523376Y-45683890D01*
X92514326Y-45711744D01*
X92494540Y-45900000D01*
X87940700Y-45900000D01*
X87946734Y-43661530D01*
X87966599Y-43594550D01*
X88019526Y-43548937D01*
X88020084Y-43548685D01*
X88052730Y-43534151D01*
X88168554Y-43450000D01*
X93794540Y-43450000D01*
X93814326Y-43638256D01*
X93814327Y-43638259D01*
X93872818Y-43818277D01*
X93872821Y-43818284D01*
X93967467Y-43982216D01*
X94024370Y-44045413D01*
X94094129Y-44122888D01*
X94247265Y-44234148D01*
X94247270Y-44234151D01*
X94420192Y-44311142D01*
X94420197Y-44311144D01*
X94605354Y-44350500D01*
X94605355Y-44350500D01*
X94794644Y-44350500D01*
X94794646Y-44350500D01*
X94979803Y-44311144D01*
X95152730Y-44234151D01*
X95305871Y-44122888D01*
X95432533Y-43982216D01*
X95527179Y-43818284D01*
X95585674Y-43638256D01*
X95605460Y-43450000D01*
X95588376Y-43287458D01*
X95600945Y-43218732D01*
X95648677Y-43167708D01*
X95711697Y-43150500D01*
X95794643Y-43150500D01*
X95794646Y-43150500D01*
X95809755Y-43147288D01*
X95879420Y-43152601D01*
X95935155Y-43194736D01*
X95959262Y-43260315D01*
X95947921Y-43320980D01*
X95936098Y-43346335D01*
X95936094Y-43346344D01*
X95874938Y-43574586D01*
X95874936Y-43574596D01*
X95854341Y-43809999D01*
X95854341Y-43810000D01*
X95874936Y-44045403D01*
X95874938Y-44045413D01*
X95936094Y-44273655D01*
X95936096Y-44273659D01*
X95936097Y-44273663D01*
X95940000Y-44282032D01*
X96035965Y-44487830D01*
X96035967Y-44487834D01*
X96144281Y-44642521D01*
X96171501Y-44681396D01*
X96171506Y-44681402D01*
X96338597Y-44848493D01*
X96338603Y-44848498D01*
X96524594Y-44978730D01*
X96568219Y-45033307D01*
X96575413Y-45102805D01*
X96543890Y-45165160D01*
X96524595Y-45181880D01*
X96338922Y-45311890D01*
X96338920Y-45311891D01*
X96171891Y-45478920D01*
X96171886Y-45478926D01*
X96036400Y-45672420D01*
X96036399Y-45672422D01*
X95936570Y-45886507D01*
X95936567Y-45886513D01*
X95879364Y-46099999D01*
X95879364Y-46100000D01*
X96596653Y-46100000D01*
X96663692Y-46119685D01*
X96709447Y-46172489D01*
X96719391Y-46241647D01*
X96715631Y-46258933D01*
X96710000Y-46278111D01*
X96710000Y-46421888D01*
X96715631Y-46441067D01*
X96715630Y-46510936D01*
X96677855Y-46569714D01*
X96614299Y-46598738D01*
X96596653Y-46600000D01*
X95879364Y-46600000D01*
X95936567Y-46813486D01*
X95936570Y-46813492D01*
X96036399Y-47027578D01*
X96171894Y-47221082D01*
X96338917Y-47388105D01*
X96524595Y-47518119D01*
X96568219Y-47572696D01*
X96575412Y-47642195D01*
X96543890Y-47704549D01*
X96524595Y-47721269D01*
X96338594Y-47851508D01*
X96171505Y-48018597D01*
X96035965Y-48212169D01*
X96035964Y-48212171D01*
X95936098Y-48426335D01*
X95936094Y-48426344D01*
X95874938Y-48654586D01*
X95874936Y-48654596D01*
X95854341Y-48889999D01*
X95854341Y-48890000D01*
X95874936Y-49125403D01*
X95874938Y-49125413D01*
X95936094Y-49353655D01*
X95936096Y-49353659D01*
X95936097Y-49353663D01*
X95940000Y-49362032D01*
X96035965Y-49567830D01*
X96035967Y-49567834D01*
X96144281Y-49722521D01*
X96171501Y-49761396D01*
X96171506Y-49761402D01*
X96338597Y-49928493D01*
X96338603Y-49928498D01*
X96462581Y-50015308D01*
X96506206Y-50069885D01*
X96513400Y-50139383D01*
X96483611Y-50199852D01*
X96467470Y-50217778D01*
X96467465Y-50217785D01*
X96372821Y-50381715D01*
X96372818Y-50381722D01*
X96314327Y-50561740D01*
X96314326Y-50561744D01*
X96294540Y-50750000D01*
X96314326Y-50938256D01*
X96314327Y-50938259D01*
X96372818Y-51118277D01*
X96372821Y-51118284D01*
X96467467Y-51282216D01*
X96594128Y-51422888D01*
X96594129Y-51422888D01*
X96747265Y-51534148D01*
X96747270Y-51534151D01*
X96920192Y-51611142D01*
X96920197Y-51611144D01*
X97105354Y-51650500D01*
X97105355Y-51650500D01*
X97294644Y-51650500D01*
X97294646Y-51650500D01*
X97479803Y-51611144D01*
X97652730Y-51534151D01*
X97805871Y-51422888D01*
X97932533Y-51282216D01*
X98027179Y-51118284D01*
X98085674Y-50938256D01*
X98105460Y-50750000D01*
X98085674Y-50561744D01*
X98027179Y-50381716D01*
X97932533Y-50217784D01*
X97924123Y-50208444D01*
X97893894Y-50145454D01*
X97902519Y-50076119D01*
X97945150Y-50023898D01*
X98081401Y-49928495D01*
X98248495Y-49761401D01*
X98378424Y-49575842D01*
X98433002Y-49532217D01*
X98502500Y-49525023D01*
X98564855Y-49556546D01*
X98581575Y-49575842D01*
X98711500Y-49761395D01*
X98711505Y-49761401D01*
X98878599Y-49928495D01*
X98925224Y-49961142D01*
X99072165Y-50064032D01*
X99072167Y-50064033D01*
X99072170Y-50064035D01*
X99286337Y-50163903D01*
X99514592Y-50225063D01*
X99702918Y-50241539D01*
X99749999Y-50245659D01*
X99750000Y-50245659D01*
X99750001Y-50245659D01*
X99789234Y-50242226D01*
X99985408Y-50225063D01*
X100213663Y-50163903D01*
X100427830Y-50064035D01*
X100621401Y-49928495D01*
X100788495Y-49761401D01*
X100924035Y-49567830D01*
X101023903Y-49353663D01*
X101085063Y-49125408D01*
X101105659Y-48890000D01*
X101085063Y-48654592D01*
X101024111Y-48427112D01*
X101023905Y-48426344D01*
X101023904Y-48426343D01*
X101023903Y-48426337D01*
X100924035Y-48212171D01*
X100918425Y-48204158D01*
X100788494Y-48018597D01*
X100621402Y-47851506D01*
X100621396Y-47851501D01*
X100435842Y-47721575D01*
X100392217Y-47666998D01*
X100385023Y-47597500D01*
X100416546Y-47535145D01*
X100435842Y-47518425D01*
X100458026Y-47502891D01*
X100621401Y-47388495D01*
X100788495Y-47221401D01*
X100924035Y-47027830D01*
X101023903Y-46813663D01*
X101085063Y-46585408D01*
X101105659Y-46350000D01*
X101085063Y-46114592D01*
X101023903Y-45886337D01*
X100924035Y-45672171D01*
X100918731Y-45664595D01*
X100788494Y-45478597D01*
X100621402Y-45311506D01*
X100621396Y-45311501D01*
X100435842Y-45181575D01*
X100392217Y-45126998D01*
X100385023Y-45057500D01*
X100416546Y-44995145D01*
X100435842Y-44978425D01*
X100458026Y-44962891D01*
X100621401Y-44848495D01*
X100788495Y-44681401D01*
X100924035Y-44487830D01*
X101023903Y-44273663D01*
X101085063Y-44045408D01*
X101105659Y-43810000D01*
X101085063Y-43574592D01*
X101023903Y-43346337D01*
X100924035Y-43132171D01*
X100914312Y-43118284D01*
X100788494Y-42938597D01*
X100621402Y-42771506D01*
X100621396Y-42771501D01*
X100435842Y-42641575D01*
X100392217Y-42586998D01*
X100385023Y-42517500D01*
X100416546Y-42455145D01*
X100435842Y-42438425D01*
X100516822Y-42381722D01*
X100621401Y-42308495D01*
X100788495Y-42141401D01*
X100924035Y-41947830D01*
X101023903Y-41733663D01*
X101085063Y-41505408D01*
X101105659Y-41270000D01*
X101085063Y-41034592D01*
X101023903Y-40806337D01*
X100924035Y-40592171D01*
X100918425Y-40584158D01*
X100788494Y-40398597D01*
X100621402Y-40231506D01*
X100621396Y-40231501D01*
X100435842Y-40101575D01*
X100392217Y-40046998D01*
X100385023Y-39977500D01*
X100416546Y-39915145D01*
X100435842Y-39898425D01*
X100458026Y-39882891D01*
X100621401Y-39768495D01*
X100788495Y-39601401D01*
X100924035Y-39407830D01*
X101023903Y-39193663D01*
X101085063Y-38965408D01*
X101105659Y-38730000D01*
X101085063Y-38494592D01*
X101023903Y-38266337D01*
X100924035Y-38052171D01*
X100788495Y-37858599D01*
X100788494Y-37858597D01*
X100621402Y-37691506D01*
X100621395Y-37691501D01*
X100427834Y-37555967D01*
X100427830Y-37555965D01*
X100427829Y-37555964D01*
X100213663Y-37456097D01*
X100213659Y-37456096D01*
X100213655Y-37456094D01*
X99985413Y-37394938D01*
X99985403Y-37394936D01*
X99750001Y-37374341D01*
X99749999Y-37374341D01*
X99514596Y-37394936D01*
X99514586Y-37394938D01*
X99286344Y-37456094D01*
X99286335Y-37456098D01*
X99072171Y-37555964D01*
X99072169Y-37555965D01*
X98878600Y-37691503D01*
X98756673Y-37813430D01*
X98695350Y-37846914D01*
X98625658Y-37841930D01*
X98569725Y-37800058D01*
X98552810Y-37769081D01*
X98503797Y-37637671D01*
X98503793Y-37637664D01*
X98417547Y-37522455D01*
X98417544Y-37522452D01*
X98302335Y-37436206D01*
X98302328Y-37436202D01*
X98167482Y-37385908D01*
X98167483Y-37385908D01*
X98107883Y-37379501D01*
X98107881Y-37379500D01*
X98107873Y-37379500D01*
X98107864Y-37379500D01*
X96312129Y-37379500D01*
X96312123Y-37379501D01*
X96252516Y-37385908D01*
X96117671Y-37436202D01*
X96117664Y-37436206D01*
X96002455Y-37522452D01*
X96002452Y-37522455D01*
X95916206Y-37637664D01*
X95916202Y-37637671D01*
X95865908Y-37772517D01*
X95859501Y-37832116D01*
X95859500Y-37832135D01*
X95859500Y-39627870D01*
X95859501Y-39627876D01*
X95865908Y-39687483D01*
X95916202Y-39822328D01*
X95916206Y-39822335D01*
X96002452Y-39937544D01*
X96002455Y-39937547D01*
X96117664Y-40023793D01*
X96117671Y-40023797D01*
X96249081Y-40072810D01*
X96305015Y-40114681D01*
X96329432Y-40180145D01*
X96314580Y-40248418D01*
X96293430Y-40276673D01*
X96171503Y-40398600D01*
X96035965Y-40592169D01*
X96035964Y-40592171D01*
X95936098Y-40806335D01*
X95936094Y-40806344D01*
X95874938Y-41034586D01*
X95874936Y-41034597D01*
X95857289Y-41236307D01*
X95831836Y-41301376D01*
X95775246Y-41342355D01*
X95733761Y-41349500D01*
X95605354Y-41349500D01*
X95572897Y-41356398D01*
X95420197Y-41388855D01*
X95420192Y-41388857D01*
X95247270Y-41465848D01*
X95247265Y-41465851D01*
X95094129Y-41577111D01*
X94967466Y-41717785D01*
X94872821Y-41881715D01*
X94872818Y-41881722D01*
X94845484Y-41965849D01*
X94814326Y-42061744D01*
X94794540Y-42250000D01*
X94811623Y-42412541D01*
X94799055Y-42481268D01*
X94751323Y-42532292D01*
X94688303Y-42549500D01*
X94605354Y-42549500D01*
X94572897Y-42556398D01*
X94420197Y-42588855D01*
X94420192Y-42588857D01*
X94247270Y-42665848D01*
X94247265Y-42665851D01*
X94094129Y-42777111D01*
X93967466Y-42917785D01*
X93872821Y-43081715D01*
X93872818Y-43081722D01*
X93814790Y-43260315D01*
X93814326Y-43261744D01*
X93794540Y-43450000D01*
X88168554Y-43450000D01*
X88205871Y-43422888D01*
X88332533Y-43282216D01*
X88427179Y-43118284D01*
X88485674Y-42938256D01*
X88505460Y-42750000D01*
X88485674Y-42561744D01*
X88427179Y-42381716D01*
X88332533Y-42217784D01*
X88205871Y-42077112D01*
X88184719Y-42061744D01*
X88052735Y-41965852D01*
X88052732Y-41965850D01*
X88052730Y-41965849D01*
X88025204Y-41953593D01*
X87971970Y-41908345D01*
X87951649Y-41841496D01*
X87951643Y-41840194D01*
X87951964Y-41721095D01*
X87971828Y-41654116D01*
X88024755Y-41608503D01*
X88093940Y-41598746D01*
X88157418Y-41627942D01*
X88168113Y-41638464D01*
X88244129Y-41722888D01*
X88397265Y-41834148D01*
X88397270Y-41834151D01*
X88570192Y-41911142D01*
X88570197Y-41911144D01*
X88755354Y-41950500D01*
X88755355Y-41950500D01*
X88944644Y-41950500D01*
X88944646Y-41950500D01*
X89129803Y-41911144D01*
X89302730Y-41834151D01*
X89455871Y-41722888D01*
X89582533Y-41582216D01*
X89677179Y-41418284D01*
X89735674Y-41238256D01*
X89755460Y-41050000D01*
X89735674Y-40861744D01*
X89677179Y-40681716D01*
X89582533Y-40517784D01*
X89455871Y-40377112D01*
X89451888Y-40374218D01*
X89302734Y-40265851D01*
X89302729Y-40265848D01*
X89129807Y-40188857D01*
X89129802Y-40188855D01*
X88984000Y-40157865D01*
X88944646Y-40149500D01*
X88755354Y-40149500D01*
X88722897Y-40156398D01*
X88570197Y-40188855D01*
X88570192Y-40188857D01*
X88397270Y-40265848D01*
X88397265Y-40265851D01*
X88244132Y-40377109D01*
X88244129Y-40377111D01*
X88244129Y-40377112D01*
X88224787Y-40398594D01*
X88171744Y-40457504D01*
X88112257Y-40494152D01*
X88042400Y-40492821D01*
X87984352Y-40453934D01*
X87956542Y-40389838D01*
X87955595Y-40374218D01*
X87966918Y-36173488D01*
X87986783Y-36106506D01*
X88039710Y-36060893D01*
X88108895Y-36051136D01*
X88163800Y-36073506D01*
X88209220Y-36106506D01*
X88247270Y-36134151D01*
X88420192Y-36211142D01*
X88420197Y-36211144D01*
X88605354Y-36250500D01*
X88605355Y-36250500D01*
X88794644Y-36250500D01*
X88794646Y-36250500D01*
X88979803Y-36211144D01*
X89152730Y-36134151D01*
X89305871Y-36022888D01*
X89371500Y-35950000D01*
X90444540Y-35950000D01*
X90464326Y-36138256D01*
X90464327Y-36138259D01*
X90522818Y-36318277D01*
X90522821Y-36318284D01*
X90617467Y-36482216D01*
X90744128Y-36622888D01*
X90744129Y-36622888D01*
X90897265Y-36734148D01*
X90897270Y-36734151D01*
X91070192Y-36811142D01*
X91070197Y-36811144D01*
X91255354Y-36850500D01*
X91255355Y-36850500D01*
X91444644Y-36850500D01*
X91444646Y-36850500D01*
X91629803Y-36811144D01*
X91802730Y-36734151D01*
X91955871Y-36622888D01*
X92082533Y-36482216D01*
X92177179Y-36318284D01*
X92235674Y-36138256D01*
X92255460Y-35950000D01*
X92235674Y-35761744D01*
X92177179Y-35581716D01*
X92082533Y-35417784D01*
X91955871Y-35277112D01*
X91955870Y-35277111D01*
X91802734Y-35165851D01*
X91802729Y-35165848D01*
X91629807Y-35088857D01*
X91629802Y-35088855D01*
X91484000Y-35057865D01*
X91444646Y-35049500D01*
X91255354Y-35049500D01*
X91222897Y-35056398D01*
X91070197Y-35088855D01*
X91070192Y-35088857D01*
X90897270Y-35165848D01*
X90897265Y-35165851D01*
X90744129Y-35277111D01*
X90617466Y-35417785D01*
X90522821Y-35581715D01*
X90522818Y-35581722D01*
X90478449Y-35718277D01*
X90464326Y-35761744D01*
X90444540Y-35950000D01*
X89371500Y-35950000D01*
X89432533Y-35882216D01*
X89527179Y-35718284D01*
X89585674Y-35538256D01*
X89605460Y-35350000D01*
X89585674Y-35161744D01*
X89527179Y-34981716D01*
X89476362Y-34893698D01*
X89459889Y-34825797D01*
X89474979Y-34774415D01*
X89474537Y-34774219D01*
X89476006Y-34770918D01*
X89476368Y-34769688D01*
X89477179Y-34768284D01*
X89535674Y-34588256D01*
X89555460Y-34400000D01*
X89535674Y-34211744D01*
X89491271Y-34075086D01*
X89489276Y-34005245D01*
X89501812Y-33974774D01*
X89588120Y-33825285D01*
X89646615Y-33645257D01*
X89666401Y-33457001D01*
X89646615Y-33268745D01*
X89588120Y-33088717D01*
X89493474Y-32924785D01*
X89366812Y-32784113D01*
X89366811Y-32784112D01*
X89213675Y-32672852D01*
X89213670Y-32672849D01*
X89040748Y-32595858D01*
X89040743Y-32595856D01*
X88894941Y-32564866D01*
X88855587Y-32556501D01*
X88666295Y-32556501D01*
X88633838Y-32563399D01*
X88481138Y-32595856D01*
X88481133Y-32595858D01*
X88308211Y-32672849D01*
X88308206Y-32672852D01*
X88173245Y-32770907D01*
X88107438Y-32794387D01*
X88039385Y-32778561D01*
X87990690Y-32728455D01*
X87976360Y-32670258D01*
X87977129Y-32385000D01*
X96844341Y-32385000D01*
X96864936Y-32620403D01*
X96864938Y-32620413D01*
X96926094Y-32848655D01*
X96926096Y-32848659D01*
X96926097Y-32848663D01*
X96961594Y-32924786D01*
X97025965Y-33062830D01*
X97025967Y-33062834D01*
X97044091Y-33088717D01*
X97161501Y-33256396D01*
X97161506Y-33256402D01*
X97283430Y-33378326D01*
X97316915Y-33439649D01*
X97311931Y-33509341D01*
X97270059Y-33565274D01*
X97239083Y-33582189D01*
X97107669Y-33631203D01*
X97107664Y-33631206D01*
X96992455Y-33717452D01*
X96992452Y-33717455D01*
X96906206Y-33832664D01*
X96906202Y-33832671D01*
X96855908Y-33967517D01*
X96850605Y-34016847D01*
X96849501Y-34027123D01*
X96849500Y-34027135D01*
X96849500Y-35822870D01*
X96849501Y-35822876D01*
X96855908Y-35882483D01*
X96906202Y-36017328D01*
X96906206Y-36017335D01*
X96992452Y-36132544D01*
X96992455Y-36132547D01*
X97107664Y-36218793D01*
X97107671Y-36218797D01*
X97242517Y-36269091D01*
X97242516Y-36269091D01*
X97249444Y-36269835D01*
X97302127Y-36275500D01*
X99097872Y-36275499D01*
X99157483Y-36269091D01*
X99292331Y-36218796D01*
X99407546Y-36132546D01*
X99493796Y-36017331D01*
X99544091Y-35882483D01*
X99550500Y-35822873D01*
X99550499Y-34027128D01*
X99544091Y-33967517D01*
X99496587Y-33840153D01*
X99493797Y-33832671D01*
X99493793Y-33832664D01*
X99407547Y-33717455D01*
X99407544Y-33717452D01*
X99292335Y-33631206D01*
X99292328Y-33631202D01*
X99160917Y-33582189D01*
X99104983Y-33540318D01*
X99080566Y-33474853D01*
X99095418Y-33406580D01*
X99116563Y-33378332D01*
X99238495Y-33256401D01*
X99374035Y-33062830D01*
X99473903Y-32848663D01*
X99535063Y-32620408D01*
X99555659Y-32385000D01*
X99535063Y-32149592D01*
X99473903Y-31921337D01*
X99374035Y-31707171D01*
X99238495Y-31513599D01*
X99238494Y-31513597D01*
X99071402Y-31346506D01*
X99071395Y-31346501D01*
X98877834Y-31210967D01*
X98877830Y-31210965D01*
X98877830Y-31210964D01*
X98663663Y-31111097D01*
X98663659Y-31111096D01*
X98663655Y-31111094D01*
X98435413Y-31049938D01*
X98435403Y-31049936D01*
X98200001Y-31029341D01*
X98199999Y-31029341D01*
X97964596Y-31049936D01*
X97964586Y-31049938D01*
X97736344Y-31111094D01*
X97736335Y-31111098D01*
X97522171Y-31210964D01*
X97522169Y-31210965D01*
X97328597Y-31346505D01*
X97161505Y-31513597D01*
X97025965Y-31707169D01*
X97025964Y-31707171D01*
X96926098Y-31921335D01*
X96926094Y-31921344D01*
X96864938Y-32149586D01*
X96864936Y-32149596D01*
X96844341Y-32384999D01*
X96844341Y-32385000D01*
X87977129Y-32385000D01*
X87995899Y-25421320D01*
X93213373Y-25421320D01*
X93232592Y-25837017D01*
X93232592Y-25837022D01*
X93232593Y-25837027D01*
X93290083Y-26249165D01*
X93290085Y-26249173D01*
X93385359Y-26654253D01*
X93517609Y-27048834D01*
X93685690Y-27429497D01*
X93685700Y-27429518D01*
X93888186Y-27793051D01*
X93888189Y-27793055D01*
X93888191Y-27793059D01*
X94123367Y-28136374D01*
X94123369Y-28136376D01*
X94123376Y-28136386D01*
X94389208Y-28456514D01*
X94389218Y-28456526D01*
X94683474Y-28750782D01*
X94683485Y-28750791D01*
X95003613Y-29016623D01*
X95003619Y-29016627D01*
X95003626Y-29016633D01*
X95346941Y-29251809D01*
X95710492Y-29454305D01*
X95900833Y-29538349D01*
X96091165Y-29622390D01*
X96091168Y-29622391D01*
X96091175Y-29622394D01*
X96485744Y-29754640D01*
X96890832Y-29849916D01*
X97302983Y-29907408D01*
X97718680Y-29926627D01*
X98134377Y-29907408D01*
X98546528Y-29849916D01*
X98951616Y-29754640D01*
X99346185Y-29622394D01*
X99726868Y-29454305D01*
X100090419Y-29251809D01*
X100433734Y-29016633D01*
X100753886Y-28750782D01*
X101048142Y-28456526D01*
X101313993Y-28136374D01*
X101549169Y-27793059D01*
X101751665Y-27429508D01*
X101919754Y-27048825D01*
X102052000Y-26654256D01*
X102147276Y-26249168D01*
X102204768Y-25837017D01*
X102223987Y-25421320D01*
X102204768Y-25005623D01*
X102147276Y-24593472D01*
X102052000Y-24188384D01*
X101919754Y-23793815D01*
X101751665Y-23413132D01*
X101549169Y-23049581D01*
X101313993Y-22706266D01*
X101313987Y-22706259D01*
X101313983Y-22706253D01*
X101048151Y-22386125D01*
X101048142Y-22386114D01*
X100753886Y-22091858D01*
X100753874Y-22091848D01*
X100433746Y-21826016D01*
X100433736Y-21826009D01*
X100433734Y-21826007D01*
X100090419Y-21590831D01*
X100090415Y-21590829D01*
X100090411Y-21590826D01*
X99726878Y-21388340D01*
X99726857Y-21388330D01*
X99346194Y-21220249D01*
X98951613Y-21087999D01*
X98546533Y-20992725D01*
X98546525Y-20992723D01*
X98134387Y-20935233D01*
X98134382Y-20935232D01*
X98134377Y-20935232D01*
X97718680Y-20916013D01*
X97302983Y-20935232D01*
X97302977Y-20935232D01*
X97302972Y-20935233D01*
X96890834Y-20992723D01*
X96890826Y-20992725D01*
X96485746Y-21087999D01*
X96091165Y-21220249D01*
X95710502Y-21388330D01*
X95710481Y-21388340D01*
X95346948Y-21590826D01*
X95346942Y-21590830D01*
X95003623Y-21826009D01*
X95003613Y-21826016D01*
X94683485Y-22091848D01*
X94683465Y-22091866D01*
X94389226Y-22386105D01*
X94389208Y-22386125D01*
X94123376Y-22706253D01*
X94123369Y-22706263D01*
X93888190Y-23049582D01*
X93888186Y-23049588D01*
X93685700Y-23413121D01*
X93685690Y-23413142D01*
X93517609Y-23793805D01*
X93385359Y-24188386D01*
X93290085Y-24593466D01*
X93290083Y-24593474D01*
X93232593Y-25005612D01*
X93232592Y-25005617D01*
X93232592Y-25005623D01*
X93213373Y-25421320D01*
X87995899Y-25421320D01*
X87999496Y-24086998D01*
X88011280Y-19715486D01*
X88031146Y-19648500D01*
X88084073Y-19602887D01*
X88135280Y-19591820D01*
X97729307Y-19591820D01*
X97737411Y-19592140D01*
G37*
%TD.AperFunction*%
%TD*%
M02*
