%TF.GenerationSoftware,KiCad,Pcbnew,7.0.7*%
%TF.CreationDate,2024-03-24T23:16:09-05:00*%
%TF.ProjectId,lsm6dsoxCANEnabled,6c736d36-6473-46f7-9843-414e456e6162,rev?*%
%TF.SameCoordinates,Original*%
%TF.FileFunction,Legend,Top*%
%TF.FilePolarity,Positive*%
%FSLAX46Y46*%
G04 Gerber Fmt 4.6, Leading zero omitted, Abs format (unit mm)*
G04 Created by KiCad (PCBNEW 7.0.7) date 2024-03-24 23:16:09*
%MOMM*%
%LPD*%
G01*
G04 APERTURE LIST*
%ADD10C,0.150000*%
%ADD11C,0.500000*%
%ADD12C,0.100000*%
%ADD13C,0.120000*%
G04 APERTURE END LIST*
D10*
X94794295Y-46329887D02*
X94794295Y-46710839D01*
X94794295Y-46710839D02*
X95175247Y-46748935D01*
X95175247Y-46748935D02*
X95137152Y-46710839D01*
X95137152Y-46710839D02*
X95099057Y-46634649D01*
X95099057Y-46634649D02*
X95099057Y-46444173D01*
X95099057Y-46444173D02*
X95137152Y-46367982D01*
X95137152Y-46367982D02*
X95175247Y-46329887D01*
X95175247Y-46329887D02*
X95251438Y-46291792D01*
X95251438Y-46291792D02*
X95441914Y-46291792D01*
X95441914Y-46291792D02*
X95518104Y-46329887D01*
X95518104Y-46329887D02*
X95556200Y-46367982D01*
X95556200Y-46367982D02*
X95594295Y-46444173D01*
X95594295Y-46444173D02*
X95594295Y-46634649D01*
X95594295Y-46634649D02*
X95556200Y-46710839D01*
X95556200Y-46710839D02*
X95518104Y-46748935D01*
X95060961Y-46025125D02*
X95594295Y-45834649D01*
X95594295Y-45834649D02*
X95060961Y-45644172D01*
D11*
X81200000Y-60300000D02*
G75*
G03*
X81200000Y-60300000I-50000J0D01*
G01*
X65650000Y-59350000D02*
G75*
G03*
X65650000Y-59350000I-50000J0D01*
G01*
X55200000Y-54650000D02*
G75*
G03*
X55200000Y-54650000I-50000J0D01*
G01*
X88950000Y-38350000D02*
G75*
G03*
X88950000Y-38350000I-50000J0D01*
G01*
X74950000Y-41000000D02*
G75*
G03*
X74950000Y-41000000I-50000J0D01*
G01*
X87900000Y-36850000D02*
G75*
G03*
X87900000Y-36850000I-50000J0D01*
G01*
X60450000Y-30800000D02*
G75*
G03*
X60450000Y-30800000I-50000J0D01*
G01*
X89350000Y-21900000D02*
G75*
G03*
X89350000Y-21900000I-50000J0D01*
G01*
X64900000Y-42200000D02*
G75*
G03*
X64900000Y-42200000I-50000J0D01*
G01*
X93800000Y-43950000D02*
G75*
G03*
X93800000Y-43950000I-50000J0D01*
G01*
D10*
X54680180Y-51258207D02*
X55156371Y-50924874D01*
X54680180Y-50686779D02*
X55680180Y-50686779D01*
X55680180Y-50686779D02*
X55680180Y-51067731D01*
X55680180Y-51067731D02*
X55632561Y-51162969D01*
X55632561Y-51162969D02*
X55584942Y-51210588D01*
X55584942Y-51210588D02*
X55489704Y-51258207D01*
X55489704Y-51258207D02*
X55346847Y-51258207D01*
X55346847Y-51258207D02*
X55251609Y-51210588D01*
X55251609Y-51210588D02*
X55203990Y-51162969D01*
X55203990Y-51162969D02*
X55156371Y-51067731D01*
X55156371Y-51067731D02*
X55156371Y-50686779D01*
X54727800Y-51639160D02*
X54680180Y-51782017D01*
X54680180Y-51782017D02*
X54680180Y-52020112D01*
X54680180Y-52020112D02*
X54727800Y-52115350D01*
X54727800Y-52115350D02*
X54775419Y-52162969D01*
X54775419Y-52162969D02*
X54870657Y-52210588D01*
X54870657Y-52210588D02*
X54965895Y-52210588D01*
X54965895Y-52210588D02*
X55061133Y-52162969D01*
X55061133Y-52162969D02*
X55108752Y-52115350D01*
X55108752Y-52115350D02*
X55156371Y-52020112D01*
X55156371Y-52020112D02*
X55203990Y-51829636D01*
X55203990Y-51829636D02*
X55251609Y-51734398D01*
X55251609Y-51734398D02*
X55299228Y-51686779D01*
X55299228Y-51686779D02*
X55394466Y-51639160D01*
X55394466Y-51639160D02*
X55489704Y-51639160D01*
X55489704Y-51639160D02*
X55584942Y-51686779D01*
X55584942Y-51686779D02*
X55632561Y-51734398D01*
X55632561Y-51734398D02*
X55680180Y-51829636D01*
X55680180Y-51829636D02*
X55680180Y-52067731D01*
X55680180Y-52067731D02*
X55632561Y-52210588D01*
X55680180Y-52496303D02*
X55680180Y-53067731D01*
X54680180Y-52782017D02*
X55680180Y-52782017D01*
D12*
X95650312Y-48609990D02*
X95574122Y-48571895D01*
X95574122Y-48571895D02*
X95459836Y-48571895D01*
X95459836Y-48571895D02*
X95345550Y-48609990D01*
X95345550Y-48609990D02*
X95269360Y-48686180D01*
X95269360Y-48686180D02*
X95231265Y-48762371D01*
X95231265Y-48762371D02*
X95193169Y-48914752D01*
X95193169Y-48914752D02*
X95193169Y-49029038D01*
X95193169Y-49029038D02*
X95231265Y-49181419D01*
X95231265Y-49181419D02*
X95269360Y-49257609D01*
X95269360Y-49257609D02*
X95345550Y-49333800D01*
X95345550Y-49333800D02*
X95459836Y-49371895D01*
X95459836Y-49371895D02*
X95536027Y-49371895D01*
X95536027Y-49371895D02*
X95650312Y-49333800D01*
X95650312Y-49333800D02*
X95688408Y-49295704D01*
X95688408Y-49295704D02*
X95688408Y-49029038D01*
X95688408Y-49029038D02*
X95536027Y-49029038D01*
D10*
X95586779Y-51538866D02*
X96348684Y-51538866D01*
X95967731Y-51919819D02*
X95967731Y-51157914D01*
X80119819Y-62913220D02*
X79119819Y-62913220D01*
X79119819Y-62913220D02*
X79119819Y-62532268D01*
X79119819Y-62532268D02*
X79167438Y-62437030D01*
X79167438Y-62437030D02*
X79215057Y-62389411D01*
X79215057Y-62389411D02*
X79310295Y-62341792D01*
X79310295Y-62341792D02*
X79453152Y-62341792D01*
X79453152Y-62341792D02*
X79548390Y-62389411D01*
X79548390Y-62389411D02*
X79596009Y-62437030D01*
X79596009Y-62437030D02*
X79643628Y-62532268D01*
X79643628Y-62532268D02*
X79643628Y-62913220D01*
X79119819Y-62008458D02*
X80119819Y-61770363D01*
X80119819Y-61770363D02*
X79405533Y-61579887D01*
X79405533Y-61579887D02*
X80119819Y-61389411D01*
X80119819Y-61389411D02*
X79119819Y-61151316D01*
X80119819Y-60198935D02*
X79643628Y-60532268D01*
X80119819Y-60770363D02*
X79119819Y-60770363D01*
X79119819Y-60770363D02*
X79119819Y-60389411D01*
X79119819Y-60389411D02*
X79167438Y-60294173D01*
X79167438Y-60294173D02*
X79215057Y-60246554D01*
X79215057Y-60246554D02*
X79310295Y-60198935D01*
X79310295Y-60198935D02*
X79453152Y-60198935D01*
X79453152Y-60198935D02*
X79548390Y-60246554D01*
X79548390Y-60246554D02*
X79596009Y-60294173D01*
X79596009Y-60294173D02*
X79643628Y-60389411D01*
X79643628Y-60389411D02*
X79643628Y-60770363D01*
D12*
X95625312Y-43484990D02*
X95549122Y-43446895D01*
X95549122Y-43446895D02*
X95434836Y-43446895D01*
X95434836Y-43446895D02*
X95320550Y-43484990D01*
X95320550Y-43484990D02*
X95244360Y-43561180D01*
X95244360Y-43561180D02*
X95206265Y-43637371D01*
X95206265Y-43637371D02*
X95168169Y-43789752D01*
X95168169Y-43789752D02*
X95168169Y-43904038D01*
X95168169Y-43904038D02*
X95206265Y-44056419D01*
X95206265Y-44056419D02*
X95244360Y-44132609D01*
X95244360Y-44132609D02*
X95320550Y-44208800D01*
X95320550Y-44208800D02*
X95434836Y-44246895D01*
X95434836Y-44246895D02*
X95511027Y-44246895D01*
X95511027Y-44246895D02*
X95625312Y-44208800D01*
X95625312Y-44208800D02*
X95663408Y-44170704D01*
X95663408Y-44170704D02*
X95663408Y-43904038D01*
X95663408Y-43904038D02*
X95511027Y-43904038D01*
X95675312Y-40934990D02*
X95599122Y-40896895D01*
X95599122Y-40896895D02*
X95484836Y-40896895D01*
X95484836Y-40896895D02*
X95370550Y-40934990D01*
X95370550Y-40934990D02*
X95294360Y-41011180D01*
X95294360Y-41011180D02*
X95256265Y-41087371D01*
X95256265Y-41087371D02*
X95218169Y-41239752D01*
X95218169Y-41239752D02*
X95218169Y-41354038D01*
X95218169Y-41354038D02*
X95256265Y-41506419D01*
X95256265Y-41506419D02*
X95294360Y-41582609D01*
X95294360Y-41582609D02*
X95370550Y-41658800D01*
X95370550Y-41658800D02*
X95484836Y-41696895D01*
X95484836Y-41696895D02*
X95561027Y-41696895D01*
X95561027Y-41696895D02*
X95675312Y-41658800D01*
X95675312Y-41658800D02*
X95713408Y-41620704D01*
X95713408Y-41620704D02*
X95713408Y-41354038D01*
X95713408Y-41354038D02*
X95561027Y-41354038D01*
X102241200Y-43218169D02*
X102203104Y-43332455D01*
X102203104Y-43332455D02*
X102203104Y-43522931D01*
X102203104Y-43522931D02*
X102241200Y-43599122D01*
X102241200Y-43599122D02*
X102279295Y-43637217D01*
X102279295Y-43637217D02*
X102355485Y-43675312D01*
X102355485Y-43675312D02*
X102431676Y-43675312D01*
X102431676Y-43675312D02*
X102507866Y-43637217D01*
X102507866Y-43637217D02*
X102545961Y-43599122D01*
X102545961Y-43599122D02*
X102584057Y-43522931D01*
X102584057Y-43522931D02*
X102622152Y-43370550D01*
X102622152Y-43370550D02*
X102660247Y-43294360D01*
X102660247Y-43294360D02*
X102698342Y-43256265D01*
X102698342Y-43256265D02*
X102774533Y-43218169D01*
X102774533Y-43218169D02*
X102850723Y-43218169D01*
X102850723Y-43218169D02*
X102926914Y-43256265D01*
X102926914Y-43256265D02*
X102965009Y-43294360D01*
X102965009Y-43294360D02*
X103003104Y-43370550D01*
X103003104Y-43370550D02*
X103003104Y-43561027D01*
X103003104Y-43561027D02*
X102965009Y-43675312D01*
X103003104Y-43941979D02*
X102203104Y-44132455D01*
X102203104Y-44132455D02*
X102774533Y-44284836D01*
X102774533Y-44284836D02*
X102203104Y-44437217D01*
X102203104Y-44437217D02*
X103003104Y-44627694D01*
X103003104Y-45084837D02*
X103003104Y-45237218D01*
X103003104Y-45237218D02*
X102965009Y-45313408D01*
X102965009Y-45313408D02*
X102888819Y-45389599D01*
X102888819Y-45389599D02*
X102736438Y-45427694D01*
X102736438Y-45427694D02*
X102469771Y-45427694D01*
X102469771Y-45427694D02*
X102317390Y-45389599D01*
X102317390Y-45389599D02*
X102241200Y-45313408D01*
X102241200Y-45313408D02*
X102203104Y-45237218D01*
X102203104Y-45237218D02*
X102203104Y-45084837D01*
X102203104Y-45084837D02*
X102241200Y-45008646D01*
X102241200Y-45008646D02*
X102317390Y-44932456D01*
X102317390Y-44932456D02*
X102469771Y-44894360D01*
X102469771Y-44894360D02*
X102736438Y-44894360D01*
X102736438Y-44894360D02*
X102888819Y-44932456D01*
X102888819Y-44932456D02*
X102965009Y-45008646D01*
X102965009Y-45008646D02*
X103003104Y-45084837D01*
X102203104Y-48056265D02*
X103003104Y-48056265D01*
X103003104Y-48056265D02*
X102203104Y-48513408D01*
X102203104Y-48513408D02*
X103003104Y-48513408D01*
X102203104Y-49351503D02*
X102584057Y-49084836D01*
X102203104Y-48894360D02*
X103003104Y-48894360D01*
X103003104Y-48894360D02*
X103003104Y-49199122D01*
X103003104Y-49199122D02*
X102965009Y-49275312D01*
X102965009Y-49275312D02*
X102926914Y-49313407D01*
X102926914Y-49313407D02*
X102850723Y-49351503D01*
X102850723Y-49351503D02*
X102736438Y-49351503D01*
X102736438Y-49351503D02*
X102660247Y-49313407D01*
X102660247Y-49313407D02*
X102622152Y-49275312D01*
X102622152Y-49275312D02*
X102584057Y-49199122D01*
X102584057Y-49199122D02*
X102584057Y-48894360D01*
X102241200Y-49656264D02*
X102203104Y-49770550D01*
X102203104Y-49770550D02*
X102203104Y-49961026D01*
X102203104Y-49961026D02*
X102241200Y-50037217D01*
X102241200Y-50037217D02*
X102279295Y-50075312D01*
X102279295Y-50075312D02*
X102355485Y-50113407D01*
X102355485Y-50113407D02*
X102431676Y-50113407D01*
X102431676Y-50113407D02*
X102507866Y-50075312D01*
X102507866Y-50075312D02*
X102545961Y-50037217D01*
X102545961Y-50037217D02*
X102584057Y-49961026D01*
X102584057Y-49961026D02*
X102622152Y-49808645D01*
X102622152Y-49808645D02*
X102660247Y-49732455D01*
X102660247Y-49732455D02*
X102698342Y-49694360D01*
X102698342Y-49694360D02*
X102774533Y-49656264D01*
X102774533Y-49656264D02*
X102850723Y-49656264D01*
X102850723Y-49656264D02*
X102926914Y-49694360D01*
X102926914Y-49694360D02*
X102965009Y-49732455D01*
X102965009Y-49732455D02*
X103003104Y-49808645D01*
X103003104Y-49808645D02*
X103003104Y-49999122D01*
X103003104Y-49999122D02*
X102965009Y-50113407D01*
X103003104Y-50341979D02*
X103003104Y-50799122D01*
X102203104Y-50570550D02*
X103003104Y-50570550D01*
D10*
X101280180Y-32043922D02*
X101280180Y-32615350D01*
X100280180Y-32329636D02*
X101280180Y-32329636D01*
X100327800Y-33329636D02*
X100280180Y-33234398D01*
X100280180Y-33234398D02*
X100280180Y-33043922D01*
X100280180Y-33043922D02*
X100327800Y-32948684D01*
X100327800Y-32948684D02*
X100423038Y-32901065D01*
X100423038Y-32901065D02*
X100803990Y-32901065D01*
X100803990Y-32901065D02*
X100899228Y-32948684D01*
X100899228Y-32948684D02*
X100946847Y-33043922D01*
X100946847Y-33043922D02*
X100946847Y-33234398D01*
X100946847Y-33234398D02*
X100899228Y-33329636D01*
X100899228Y-33329636D02*
X100803990Y-33377255D01*
X100803990Y-33377255D02*
X100708752Y-33377255D01*
X100708752Y-33377255D02*
X100613514Y-32901065D01*
X100280180Y-33805827D02*
X100946847Y-33805827D01*
X100756371Y-33805827D02*
X100851609Y-33853446D01*
X100851609Y-33853446D02*
X100899228Y-33901065D01*
X100899228Y-33901065D02*
X100946847Y-33996303D01*
X100946847Y-33996303D02*
X100946847Y-34091541D01*
X100280180Y-34424875D02*
X100946847Y-34424875D01*
X100851609Y-34424875D02*
X100899228Y-34472494D01*
X100899228Y-34472494D02*
X100946847Y-34567732D01*
X100946847Y-34567732D02*
X100946847Y-34710589D01*
X100946847Y-34710589D02*
X100899228Y-34805827D01*
X100899228Y-34805827D02*
X100803990Y-34853446D01*
X100803990Y-34853446D02*
X100280180Y-34853446D01*
X100803990Y-34853446D02*
X100899228Y-34901065D01*
X100899228Y-34901065D02*
X100946847Y-34996303D01*
X100946847Y-34996303D02*
X100946847Y-35139160D01*
X100946847Y-35139160D02*
X100899228Y-35234399D01*
X100899228Y-35234399D02*
X100803990Y-35282018D01*
X100803990Y-35282018D02*
X100280180Y-35282018D01*
D12*
X102291200Y-40418169D02*
X102253104Y-40532455D01*
X102253104Y-40532455D02*
X102253104Y-40722931D01*
X102253104Y-40722931D02*
X102291200Y-40799122D01*
X102291200Y-40799122D02*
X102329295Y-40837217D01*
X102329295Y-40837217D02*
X102405485Y-40875312D01*
X102405485Y-40875312D02*
X102481676Y-40875312D01*
X102481676Y-40875312D02*
X102557866Y-40837217D01*
X102557866Y-40837217D02*
X102595961Y-40799122D01*
X102595961Y-40799122D02*
X102634057Y-40722931D01*
X102634057Y-40722931D02*
X102672152Y-40570550D01*
X102672152Y-40570550D02*
X102710247Y-40494360D01*
X102710247Y-40494360D02*
X102748342Y-40456265D01*
X102748342Y-40456265D02*
X102824533Y-40418169D01*
X102824533Y-40418169D02*
X102900723Y-40418169D01*
X102900723Y-40418169D02*
X102976914Y-40456265D01*
X102976914Y-40456265D02*
X103015009Y-40494360D01*
X103015009Y-40494360D02*
X103053104Y-40570550D01*
X103053104Y-40570550D02*
X103053104Y-40761027D01*
X103053104Y-40761027D02*
X103015009Y-40875312D01*
X102329295Y-41675313D02*
X102291200Y-41637217D01*
X102291200Y-41637217D02*
X102253104Y-41522932D01*
X102253104Y-41522932D02*
X102253104Y-41446741D01*
X102253104Y-41446741D02*
X102291200Y-41332455D01*
X102291200Y-41332455D02*
X102367390Y-41256265D01*
X102367390Y-41256265D02*
X102443580Y-41218170D01*
X102443580Y-41218170D02*
X102595961Y-41180074D01*
X102595961Y-41180074D02*
X102710247Y-41180074D01*
X102710247Y-41180074D02*
X102862628Y-41218170D01*
X102862628Y-41218170D02*
X102938819Y-41256265D01*
X102938819Y-41256265D02*
X103015009Y-41332455D01*
X103015009Y-41332455D02*
X103053104Y-41446741D01*
X103053104Y-41446741D02*
X103053104Y-41522932D01*
X103053104Y-41522932D02*
X103015009Y-41637217D01*
X103015009Y-41637217D02*
X102976914Y-41675313D01*
X102253104Y-42399122D02*
X102253104Y-42018170D01*
X102253104Y-42018170D02*
X103053104Y-42018170D01*
D10*
X77558207Y-31974580D02*
X77510588Y-32022200D01*
X77510588Y-32022200D02*
X77367731Y-32069819D01*
X77367731Y-32069819D02*
X77272493Y-32069819D01*
X77272493Y-32069819D02*
X77129636Y-32022200D01*
X77129636Y-32022200D02*
X77034398Y-31926961D01*
X77034398Y-31926961D02*
X76986779Y-31831723D01*
X76986779Y-31831723D02*
X76939160Y-31641247D01*
X76939160Y-31641247D02*
X76939160Y-31498390D01*
X76939160Y-31498390D02*
X76986779Y-31307914D01*
X76986779Y-31307914D02*
X77034398Y-31212676D01*
X77034398Y-31212676D02*
X77129636Y-31117438D01*
X77129636Y-31117438D02*
X77272493Y-31069819D01*
X77272493Y-31069819D02*
X77367731Y-31069819D01*
X77367731Y-31069819D02*
X77510588Y-31117438D01*
X77510588Y-31117438D02*
X77558207Y-31165057D01*
X77939160Y-31784104D02*
X78415350Y-31784104D01*
X77843922Y-32069819D02*
X78177255Y-31069819D01*
X78177255Y-31069819D02*
X78510588Y-32069819D01*
X78843922Y-32069819D02*
X78843922Y-31069819D01*
X78843922Y-31069819D02*
X79415350Y-32069819D01*
X79415350Y-32069819D02*
X79415350Y-31069819D01*
D12*
X102303104Y-37906265D02*
X103103104Y-37906265D01*
X103103104Y-37906265D02*
X103103104Y-38096741D01*
X103103104Y-38096741D02*
X103065009Y-38211027D01*
X103065009Y-38211027D02*
X102988819Y-38287217D01*
X102988819Y-38287217D02*
X102912628Y-38325312D01*
X102912628Y-38325312D02*
X102760247Y-38363408D01*
X102760247Y-38363408D02*
X102645961Y-38363408D01*
X102645961Y-38363408D02*
X102493580Y-38325312D01*
X102493580Y-38325312D02*
X102417390Y-38287217D01*
X102417390Y-38287217D02*
X102341200Y-38211027D01*
X102341200Y-38211027D02*
X102303104Y-38096741D01*
X102303104Y-38096741D02*
X102303104Y-37906265D01*
X102303104Y-38706265D02*
X103103104Y-38706265D01*
X103103104Y-39239598D02*
X103103104Y-39391979D01*
X103103104Y-39391979D02*
X103065009Y-39468169D01*
X103065009Y-39468169D02*
X102988819Y-39544360D01*
X102988819Y-39544360D02*
X102836438Y-39582455D01*
X102836438Y-39582455D02*
X102569771Y-39582455D01*
X102569771Y-39582455D02*
X102417390Y-39544360D01*
X102417390Y-39544360D02*
X102341200Y-39468169D01*
X102341200Y-39468169D02*
X102303104Y-39391979D01*
X102303104Y-39391979D02*
X102303104Y-39239598D01*
X102303104Y-39239598D02*
X102341200Y-39163407D01*
X102341200Y-39163407D02*
X102417390Y-39087217D01*
X102417390Y-39087217D02*
X102569771Y-39049121D01*
X102569771Y-39049121D02*
X102836438Y-39049121D01*
X102836438Y-39049121D02*
X102988819Y-39087217D01*
X102988819Y-39087217D02*
X103065009Y-39163407D01*
X103065009Y-39163407D02*
X103103104Y-39239598D01*
X95730074Y-36296895D02*
X96225312Y-36296895D01*
X96225312Y-36296895D02*
X95958646Y-36601657D01*
X95958646Y-36601657D02*
X96072931Y-36601657D01*
X96072931Y-36601657D02*
X96149122Y-36639752D01*
X96149122Y-36639752D02*
X96187217Y-36677847D01*
X96187217Y-36677847D02*
X96225312Y-36754038D01*
X96225312Y-36754038D02*
X96225312Y-36944514D01*
X96225312Y-36944514D02*
X96187217Y-37020704D01*
X96187217Y-37020704D02*
X96149122Y-37058800D01*
X96149122Y-37058800D02*
X96072931Y-37096895D01*
X96072931Y-37096895D02*
X95844360Y-37096895D01*
X95844360Y-37096895D02*
X95768169Y-37058800D01*
X95768169Y-37058800D02*
X95730074Y-37020704D01*
X96568170Y-37020704D02*
X96606265Y-37058800D01*
X96606265Y-37058800D02*
X96568170Y-37096895D01*
X96568170Y-37096895D02*
X96530074Y-37058800D01*
X96530074Y-37058800D02*
X96568170Y-37020704D01*
X96568170Y-37020704D02*
X96568170Y-37096895D01*
X96872931Y-36296895D02*
X97368169Y-36296895D01*
X97368169Y-36296895D02*
X97101503Y-36601657D01*
X97101503Y-36601657D02*
X97215788Y-36601657D01*
X97215788Y-36601657D02*
X97291979Y-36639752D01*
X97291979Y-36639752D02*
X97330074Y-36677847D01*
X97330074Y-36677847D02*
X97368169Y-36754038D01*
X97368169Y-36754038D02*
X97368169Y-36944514D01*
X97368169Y-36944514D02*
X97330074Y-37020704D01*
X97330074Y-37020704D02*
X97291979Y-37058800D01*
X97291979Y-37058800D02*
X97215788Y-37096895D01*
X97215788Y-37096895D02*
X96987217Y-37096895D01*
X96987217Y-37096895D02*
X96911026Y-37058800D01*
X96911026Y-37058800D02*
X96872931Y-37020704D01*
D10*
X55036779Y-41269819D02*
X55036779Y-40269819D01*
X55036779Y-40269819D02*
X55417731Y-40269819D01*
X55417731Y-40269819D02*
X55512969Y-40317438D01*
X55512969Y-40317438D02*
X55560588Y-40365057D01*
X55560588Y-40365057D02*
X55608207Y-40460295D01*
X55608207Y-40460295D02*
X55608207Y-40603152D01*
X55608207Y-40603152D02*
X55560588Y-40698390D01*
X55560588Y-40698390D02*
X55512969Y-40746009D01*
X55512969Y-40746009D02*
X55417731Y-40793628D01*
X55417731Y-40793628D02*
X55036779Y-40793628D01*
X56036779Y-41269819D02*
X56036779Y-40603152D01*
X56036779Y-40793628D02*
X56084398Y-40698390D01*
X56084398Y-40698390D02*
X56132017Y-40650771D01*
X56132017Y-40650771D02*
X56227255Y-40603152D01*
X56227255Y-40603152D02*
X56322493Y-40603152D01*
X56798684Y-41269819D02*
X56703446Y-41222200D01*
X56703446Y-41222200D02*
X56655827Y-41174580D01*
X56655827Y-41174580D02*
X56608208Y-41079342D01*
X56608208Y-41079342D02*
X56608208Y-40793628D01*
X56608208Y-40793628D02*
X56655827Y-40698390D01*
X56655827Y-40698390D02*
X56703446Y-40650771D01*
X56703446Y-40650771D02*
X56798684Y-40603152D01*
X56798684Y-40603152D02*
X56941541Y-40603152D01*
X56941541Y-40603152D02*
X57036779Y-40650771D01*
X57036779Y-40650771D02*
X57084398Y-40698390D01*
X57084398Y-40698390D02*
X57132017Y-40793628D01*
X57132017Y-40793628D02*
X57132017Y-41079342D01*
X57132017Y-41079342D02*
X57084398Y-41174580D01*
X57084398Y-41174580D02*
X57036779Y-41222200D01*
X57036779Y-41222200D02*
X56941541Y-41269819D01*
X56941541Y-41269819D02*
X56798684Y-41269819D01*
X57989160Y-40603152D02*
X57989160Y-41412676D01*
X57989160Y-41412676D02*
X57941541Y-41507914D01*
X57941541Y-41507914D02*
X57893922Y-41555533D01*
X57893922Y-41555533D02*
X57798684Y-41603152D01*
X57798684Y-41603152D02*
X57655827Y-41603152D01*
X57655827Y-41603152D02*
X57560589Y-41555533D01*
X57989160Y-41222200D02*
X57893922Y-41269819D01*
X57893922Y-41269819D02*
X57703446Y-41269819D01*
X57703446Y-41269819D02*
X57608208Y-41222200D01*
X57608208Y-41222200D02*
X57560589Y-41174580D01*
X57560589Y-41174580D02*
X57512970Y-41079342D01*
X57512970Y-41079342D02*
X57512970Y-40793628D01*
X57512970Y-40793628D02*
X57560589Y-40698390D01*
X57560589Y-40698390D02*
X57608208Y-40650771D01*
X57608208Y-40650771D02*
X57703446Y-40603152D01*
X57703446Y-40603152D02*
X57893922Y-40603152D01*
X57893922Y-40603152D02*
X57989160Y-40650771D01*
X64717438Y-62789411D02*
X64669819Y-62884649D01*
X64669819Y-62884649D02*
X64669819Y-63027506D01*
X64669819Y-63027506D02*
X64717438Y-63170363D01*
X64717438Y-63170363D02*
X64812676Y-63265601D01*
X64812676Y-63265601D02*
X64907914Y-63313220D01*
X64907914Y-63313220D02*
X65098390Y-63360839D01*
X65098390Y-63360839D02*
X65241247Y-63360839D01*
X65241247Y-63360839D02*
X65431723Y-63313220D01*
X65431723Y-63313220D02*
X65526961Y-63265601D01*
X65526961Y-63265601D02*
X65622200Y-63170363D01*
X65622200Y-63170363D02*
X65669819Y-63027506D01*
X65669819Y-63027506D02*
X65669819Y-62932268D01*
X65669819Y-62932268D02*
X65622200Y-62789411D01*
X65622200Y-62789411D02*
X65574580Y-62741792D01*
X65574580Y-62741792D02*
X65241247Y-62741792D01*
X65241247Y-62741792D02*
X65241247Y-62932268D01*
X65669819Y-62313220D02*
X64669819Y-62313220D01*
X64669819Y-62313220D02*
X64669819Y-61932268D01*
X64669819Y-61932268D02*
X64717438Y-61837030D01*
X64717438Y-61837030D02*
X64765057Y-61789411D01*
X64765057Y-61789411D02*
X64860295Y-61741792D01*
X64860295Y-61741792D02*
X65003152Y-61741792D01*
X65003152Y-61741792D02*
X65098390Y-61789411D01*
X65098390Y-61789411D02*
X65146009Y-61837030D01*
X65146009Y-61837030D02*
X65193628Y-61932268D01*
X65193628Y-61932268D02*
X65193628Y-62313220D01*
X65669819Y-61313220D02*
X64669819Y-61313220D01*
X64669819Y-60646554D02*
X64669819Y-60456078D01*
X64669819Y-60456078D02*
X64717438Y-60360840D01*
X64717438Y-60360840D02*
X64812676Y-60265602D01*
X64812676Y-60265602D02*
X65003152Y-60217983D01*
X65003152Y-60217983D02*
X65336485Y-60217983D01*
X65336485Y-60217983D02*
X65526961Y-60265602D01*
X65526961Y-60265602D02*
X65622200Y-60360840D01*
X65622200Y-60360840D02*
X65669819Y-60456078D01*
X65669819Y-60456078D02*
X65669819Y-60646554D01*
X65669819Y-60646554D02*
X65622200Y-60741792D01*
X65622200Y-60741792D02*
X65526961Y-60837030D01*
X65526961Y-60837030D02*
X65336485Y-60884649D01*
X65336485Y-60884649D02*
X65003152Y-60884649D01*
X65003152Y-60884649D02*
X64812676Y-60837030D01*
X64812676Y-60837030D02*
X64717438Y-60741792D01*
X64717438Y-60741792D02*
X64669819Y-60646554D01*
D13*
%TO.C,C4*%
X87210000Y-47553733D02*
X87210000Y-47846267D01*
X86190000Y-47553733D02*
X86190000Y-47846267D01*
%TO.C,U5*%
X94510000Y-46650000D02*
X94510000Y-52660000D01*
X87690000Y-48900000D02*
X87690000Y-52660000D01*
X87690000Y-52660000D02*
X88950000Y-52660000D01*
X94510000Y-52660000D02*
X93250000Y-52660000D01*
%TO.C,C5*%
X85715000Y-51511252D02*
X85715000Y-50988748D01*
X87185000Y-51511252D02*
X87185000Y-50988748D01*
%TO.C,R1*%
X80922500Y-36895276D02*
X80922500Y-37404724D01*
X79877500Y-36895276D02*
X79877500Y-37404724D01*
%TO.C,Y1*%
X69800000Y-42550000D02*
X65300000Y-42550000D01*
X65300000Y-42550000D02*
X65300000Y-47950000D01*
%TO.C,C13*%
X84103733Y-31790000D02*
X84396267Y-31790000D01*
X84103733Y-32810000D02*
X84396267Y-32810000D01*
%TO.C,C7*%
X81471267Y-51560000D02*
X81178733Y-51560000D01*
X81471267Y-50540000D02*
X81178733Y-50540000D01*
%TO.C,U2*%
X89440000Y-35200000D02*
X89440000Y-38650000D01*
X89440000Y-35200000D02*
X89440000Y-33250000D01*
X94560000Y-35200000D02*
X94560000Y-37150000D01*
X94560000Y-35200000D02*
X94560000Y-33250000D01*
%TO.C,U3*%
X76027500Y-40940000D02*
X76027500Y-41390000D01*
X76027500Y-41390000D02*
X74737500Y-41390000D01*
X76027500Y-48160000D02*
X76027500Y-47710000D01*
X76477500Y-40940000D02*
X76027500Y-40940000D01*
X76477500Y-48160000D02*
X76027500Y-48160000D01*
X82797500Y-40940000D02*
X83247500Y-40940000D01*
X82797500Y-48160000D02*
X83247500Y-48160000D01*
X83247500Y-40940000D02*
X83247500Y-41390000D01*
X83247500Y-48160000D02*
X83247500Y-47710000D01*
%TO.C,C2*%
X67553733Y-41040000D02*
X67846267Y-41040000D01*
X67553733Y-42060000D02*
X67846267Y-42060000D01*
%TO.C,R4*%
X101527500Y-33904724D02*
X101527500Y-33395276D01*
X102572500Y-33904724D02*
X102572500Y-33395276D01*
%TO.C,J4*%
X95880000Y-37400000D02*
X97210000Y-37400000D01*
X95880000Y-38730000D02*
X95880000Y-37400000D01*
X95880000Y-40000000D02*
X95880000Y-50220000D01*
X95880000Y-40000000D02*
X98480000Y-40000000D01*
X95880000Y-50220000D02*
X101080000Y-50220000D01*
X98480000Y-37400000D02*
X101080000Y-37400000D01*
X98480000Y-40000000D02*
X98480000Y-37400000D01*
X101080000Y-37400000D02*
X101080000Y-50220000D01*
%TO.C,G\u002A\u002A\u002A*%
G36*
X66616967Y-36237099D02*
G01*
X66820095Y-36261473D01*
X66933208Y-36284760D01*
X66941567Y-36290645D01*
X66872316Y-36325273D01*
X66712156Y-36350719D01*
X66532475Y-36358681D01*
X66434379Y-36349629D01*
X66300100Y-36302737D01*
X66304402Y-36259074D01*
X66423949Y-36233023D01*
X66616967Y-36237099D01*
G37*
G36*
X67501141Y-37838000D02*
G01*
X67649128Y-37936279D01*
X67778812Y-38048181D01*
X67837152Y-38131979D01*
X67833007Y-38145212D01*
X67751593Y-38124843D01*
X67598143Y-38025973D01*
X67550193Y-37988864D01*
X67415938Y-37867155D01*
X67375841Y-37799856D01*
X67387893Y-37795067D01*
X67501141Y-37838000D01*
G37*
G36*
X67410979Y-39486107D02*
G01*
X67445207Y-39655452D01*
X67445778Y-39659314D01*
X67451582Y-39829031D01*
X67416239Y-39902673D01*
X67414414Y-39902764D01*
X67367288Y-39832191D01*
X67347323Y-39662171D01*
X67347318Y-39659314D01*
X67356423Y-39488225D01*
X67378352Y-39415877D01*
X67378683Y-39415863D01*
X67410979Y-39486107D01*
G37*
G36*
X70904350Y-35186847D02*
G01*
X70905717Y-35236630D01*
X70867524Y-35490637D01*
X70787719Y-35682956D01*
X70713452Y-35789872D01*
X70710693Y-35752783D01*
X70720401Y-35723531D01*
X70777070Y-35531367D01*
X70835920Y-35288691D01*
X70838399Y-35277205D01*
X70878868Y-35097294D01*
X70897110Y-35069430D01*
X70904350Y-35186847D01*
G37*
G36*
X69747231Y-35621314D02*
G01*
X69749605Y-35723046D01*
X69678100Y-35888941D01*
X69566018Y-36061283D01*
X69446656Y-36182356D01*
X69413011Y-36200598D01*
X69293908Y-36241143D01*
X69272517Y-36221064D01*
X69354364Y-36119028D01*
X69465239Y-35998974D01*
X69611550Y-35823582D01*
X69693986Y-35688356D01*
X69700673Y-35660849D01*
X69731676Y-35610730D01*
X69747231Y-35621314D01*
G37*
G36*
X67632343Y-38871097D02*
G01*
X67747470Y-38949353D01*
X67886175Y-39117882D01*
X68033632Y-39334713D01*
X68183210Y-39560583D01*
X68304045Y-39739256D01*
X68347653Y-39801326D01*
X68392299Y-39889653D01*
X68382487Y-39902764D01*
X68315547Y-39843999D01*
X68182428Y-39691602D01*
X68047950Y-39524271D01*
X67890002Y-39312857D01*
X67782986Y-39153003D01*
X67753069Y-39090346D01*
X67688828Y-39017238D01*
X67570481Y-38946855D01*
X67469496Y-38880406D01*
X67509618Y-38854547D01*
X67632343Y-38871097D01*
G37*
G36*
X69646331Y-32365706D02*
G01*
X69687226Y-32436949D01*
X69698793Y-32515217D01*
X69625075Y-32474151D01*
X69599235Y-32453185D01*
X69482359Y-32392901D01*
X69330088Y-32412412D01*
X69190194Y-32465193D01*
X68990900Y-32565043D01*
X68863754Y-32658964D01*
X68853713Y-32672120D01*
X68760288Y-32738859D01*
X68636856Y-32764129D01*
X68565693Y-32733055D01*
X68564570Y-32724396D01*
X68628306Y-32666061D01*
X68791635Y-32556872D01*
X68926864Y-32474923D01*
X69235245Y-32333302D01*
X69483255Y-32296487D01*
X69646331Y-32365706D01*
G37*
G36*
X65817436Y-34750528D02*
G01*
X65988461Y-34969264D01*
X66048516Y-35301755D01*
X66048515Y-35303289D01*
X66048114Y-35642381D01*
X65703627Y-35656773D01*
X65438981Y-35645222D01*
X65214019Y-35598551D01*
X65174787Y-35582722D01*
X64993532Y-35411215D01*
X64956200Y-35277205D01*
X65805465Y-35277205D01*
X65835157Y-35344001D01*
X65859565Y-35331305D01*
X65869277Y-35234999D01*
X65859565Y-35223105D01*
X65811321Y-35234244D01*
X65805465Y-35277205D01*
X64956200Y-35277205D01*
X64917473Y-35138186D01*
X64920431Y-35074330D01*
X65562014Y-35074330D01*
X65602590Y-35114905D01*
X65643165Y-35074330D01*
X65602590Y-35033755D01*
X65562014Y-35074330D01*
X64920431Y-35074330D01*
X64926375Y-34946034D01*
X65023221Y-34775051D01*
X65196839Y-34693262D01*
X65549031Y-34655282D01*
X65817436Y-34750528D01*
G37*
G36*
X69174267Y-31148020D02*
G01*
X69454652Y-31278015D01*
X69556770Y-31347629D01*
X69878508Y-31557524D01*
X70226733Y-31741978D01*
X70553474Y-31878841D01*
X70810763Y-31945963D01*
X70859669Y-31949256D01*
X71047514Y-31974674D01*
X71273824Y-32036847D01*
X71483697Y-32116233D01*
X71622233Y-32193294D01*
X71648276Y-32229933D01*
X71608755Y-32266403D01*
X71473495Y-32231441D01*
X71283101Y-32149993D01*
X71023554Y-32067065D01*
X70787999Y-32034859D01*
X70550955Y-31987194D01*
X70243737Y-31867875D01*
X69924623Y-31704449D01*
X69651893Y-31524464D01*
X69578947Y-31463355D01*
X69257766Y-31272624D01*
X68854240Y-31187765D01*
X68415461Y-31216733D01*
X68293253Y-31246168D01*
X67711024Y-31400536D01*
X67255500Y-31500181D01*
X66937543Y-31542802D01*
X66886302Y-31544298D01*
X66735844Y-31528989D01*
X66731088Y-31492563D01*
X66859338Y-31449270D01*
X66991359Y-31426397D01*
X67175123Y-31393545D01*
X67465347Y-31333072D01*
X67810816Y-31255831D01*
X67955217Y-31222148D01*
X68460137Y-31122874D01*
X68854624Y-31097236D01*
X69174267Y-31148020D01*
G37*
G36*
X68396056Y-35142296D02*
G01*
X68694212Y-35206514D01*
X68935839Y-35290834D01*
X69017424Y-35384848D01*
X68941160Y-35493659D01*
X68844114Y-35555433D01*
X68659818Y-35664676D01*
X68471241Y-35784394D01*
X68187810Y-35891200D01*
X67831974Y-35912121D01*
X67570481Y-35870467D01*
X67488526Y-35804681D01*
X68077669Y-35804681D01*
X68118245Y-35845256D01*
X68158820Y-35804681D01*
X68118245Y-35764106D01*
X68077669Y-35804681D01*
X67488526Y-35804681D01*
X67450088Y-35773826D01*
X67449358Y-35642381D01*
X67834219Y-35642381D01*
X67874794Y-35682956D01*
X67915369Y-35642381D01*
X67874794Y-35601806D01*
X67834219Y-35642381D01*
X67449358Y-35642381D01*
X67449107Y-35597256D01*
X67530088Y-35439505D01*
X68645721Y-35439505D01*
X68703964Y-35518333D01*
X68722081Y-35520655D01*
X68831986Y-35461668D01*
X68848596Y-35439505D01*
X68830199Y-35370033D01*
X68772235Y-35358355D01*
X68661204Y-35400724D01*
X68645721Y-35439505D01*
X67530088Y-35439505D01*
X67566161Y-35369234D01*
X67596658Y-35328724D01*
X67781465Y-35176431D01*
X68039694Y-35115205D01*
X68396056Y-35142296D01*
G37*
G36*
X66893551Y-31291725D02*
G01*
X66904075Y-31305835D01*
X66873679Y-31363199D01*
X66759711Y-31381997D01*
X66577460Y-31408523D01*
X66491184Y-31449430D01*
X66377739Y-31504213D01*
X66155983Y-31581908D01*
X65886615Y-31662074D01*
X65462938Y-31779861D01*
X65168662Y-31865865D01*
X64976328Y-31929957D01*
X64858472Y-31982009D01*
X64787634Y-32031892D01*
X64752064Y-32069904D01*
X64683643Y-32221727D01*
X64683372Y-32288916D01*
X64641650Y-32393608D01*
X64509682Y-32577799D01*
X64312945Y-32807198D01*
X64241986Y-32882970D01*
X64022566Y-33131932D01*
X63859671Y-33354275D01*
X63780325Y-33512009D01*
X63776711Y-33536949D01*
X63728433Y-33735113D01*
X63657567Y-33861855D01*
X63571089Y-34079639D01*
X63540415Y-34391842D01*
X63565464Y-34740502D01*
X63646161Y-35067660D01*
X63659232Y-35101853D01*
X63748894Y-35280164D01*
X63877208Y-35419869D01*
X64084007Y-35555049D01*
X64345640Y-35689126D01*
X64617863Y-35833678D01*
X64781689Y-35947033D01*
X64817365Y-36015174D01*
X64811758Y-36019858D01*
X64760418Y-36126231D01*
X64812897Y-36272595D01*
X64936180Y-36411666D01*
X65097251Y-36496155D01*
X65149689Y-36503871D01*
X65268560Y-36519454D01*
X65227027Y-36547718D01*
X65217126Y-36550396D01*
X65096808Y-36615872D01*
X65075114Y-36659853D01*
X65127125Y-36739738D01*
X65240955Y-36819702D01*
X65353291Y-36864313D01*
X65400957Y-36842201D01*
X65434936Y-36835127D01*
X65461819Y-36868863D01*
X65570714Y-36945348D01*
X65770647Y-37026616D01*
X66008395Y-37097916D01*
X66230732Y-37144493D01*
X66384433Y-37151597D01*
X66419818Y-37134392D01*
X66407256Y-37026420D01*
X66317812Y-36855896D01*
X66296835Y-36825334D01*
X66162724Y-36576546D01*
X66080094Y-36318699D01*
X66062149Y-36188382D01*
X66082423Y-36174493D01*
X66152302Y-36287656D01*
X66253461Y-36480480D01*
X66475473Y-36912829D01*
X66802835Y-36602206D01*
X66984712Y-36431345D01*
X67061961Y-36368406D01*
X67047274Y-36409161D01*
X66953342Y-36549383D01*
X66950953Y-36552866D01*
X66816141Y-36733775D01*
X66709620Y-36850447D01*
X66694338Y-36861968D01*
X66616240Y-36977736D01*
X66666693Y-37105589D01*
X66821313Y-37191854D01*
X67018855Y-37211260D01*
X67297710Y-37204204D01*
X67465946Y-37188132D01*
X67719810Y-37147953D01*
X67842944Y-37099568D01*
X67866763Y-37027624D01*
X67858282Y-36996377D01*
X67839821Y-36906776D01*
X67908453Y-36950777D01*
X67919656Y-36961071D01*
X68063769Y-37055793D01*
X68131144Y-37016449D01*
X68114592Y-36879921D01*
X68088617Y-36758921D01*
X68134889Y-36770662D01*
X68165929Y-36798770D01*
X68308616Y-36884219D01*
X68435202Y-36890169D01*
X68483420Y-36822735D01*
X68412466Y-36758405D01*
X68237797Y-36699923D01*
X68198498Y-36691811D01*
X68165896Y-36683808D01*
X68672771Y-36683808D01*
X68683910Y-36732051D01*
X68726871Y-36737908D01*
X68793666Y-36708216D01*
X68780971Y-36683808D01*
X68684665Y-36674096D01*
X68672771Y-36683808D01*
X68165896Y-36683808D01*
X67964011Y-36634251D01*
X67912219Y-36602658D01*
X68267020Y-36602658D01*
X68278159Y-36650901D01*
X68321120Y-36656758D01*
X68387916Y-36627066D01*
X68375220Y-36602658D01*
X68278914Y-36592946D01*
X68267020Y-36602658D01*
X67912219Y-36602658D01*
X67883174Y-36584941D01*
X67947335Y-36552103D01*
X68147844Y-36543959D01*
X68342056Y-36555361D01*
X68680529Y-36577132D01*
X69095659Y-36593761D01*
X69501813Y-36601881D01*
X69530361Y-36602057D01*
X69854050Y-36613324D01*
X70022677Y-36638469D01*
X70042139Y-36670518D01*
X69918329Y-36702499D01*
X69657142Y-36727439D01*
X69416647Y-36736568D01*
X68929746Y-36746636D01*
X69376072Y-36890665D01*
X69686407Y-37001061D01*
X69969400Y-37119507D01*
X70191139Y-37229622D01*
X70317710Y-37315021D01*
X70330925Y-37351958D01*
X70244399Y-37340832D01*
X70066445Y-37272837D01*
X69978495Y-37232294D01*
X69631764Y-37083311D01*
X69297732Y-36971483D01*
X68995948Y-36897617D01*
X68745965Y-36862516D01*
X68567332Y-36866986D01*
X68479599Y-36911832D01*
X68502318Y-36997860D01*
X68655038Y-37125873D01*
X68744025Y-37181459D01*
X68911936Y-37304098D01*
X69154554Y-37510592D01*
X69434068Y-37767830D01*
X69616389Y-37945330D01*
X69841934Y-38173159D01*
X69993531Y-38332345D01*
X70056886Y-38407374D01*
X70025273Y-38389007D01*
X69806961Y-38218496D01*
X69691675Y-38155521D01*
X69663847Y-38196817D01*
X69700918Y-38320981D01*
X69760878Y-38568734D01*
X69773516Y-38751657D01*
X69764487Y-38880331D01*
X69744730Y-38867747D01*
X69702774Y-38705329D01*
X69700893Y-38697377D01*
X69562602Y-38258404D01*
X69361292Y-37912658D01*
X69060428Y-37606756D01*
X68836269Y-37433983D01*
X68560080Y-37252154D01*
X68349270Y-37144854D01*
X68220686Y-37114871D01*
X68191174Y-37164994D01*
X68277580Y-37298013D01*
X68323519Y-37349088D01*
X68435095Y-37516196D01*
X68438809Y-37637091D01*
X68423318Y-37699552D01*
X68460036Y-37685587D01*
X68571282Y-37697997D01*
X68668615Y-37774486D01*
X68766068Y-37909843D01*
X68900827Y-38130346D01*
X69053094Y-38398990D01*
X69203071Y-38678768D01*
X69330958Y-38932674D01*
X69416959Y-39123702D01*
X69441274Y-39214847D01*
X69440128Y-39216557D01*
X69388229Y-39166259D01*
X69277335Y-39001982D01*
X69125956Y-38752348D01*
X69017720Y-38563403D01*
X68846124Y-38264597D01*
X68699986Y-38022801D01*
X68599578Y-37870912D01*
X68569910Y-37836735D01*
X68552690Y-37883925D01*
X68575666Y-38046003D01*
X68606930Y-38181369D01*
X68661980Y-38430128D01*
X68709747Y-38706020D01*
X68746620Y-38975402D01*
X68768986Y-39204626D01*
X68773236Y-39360047D01*
X68755757Y-39408018D01*
X68735079Y-39375288D01*
X68688145Y-39217076D01*
X68631157Y-38952898D01*
X68575844Y-38637618D01*
X68571831Y-38611756D01*
X68493755Y-38248072D01*
X68379600Y-37893794D01*
X68245098Y-37583502D01*
X68105977Y-37351780D01*
X67977970Y-37233211D01*
X67940963Y-37224809D01*
X67878161Y-37250683D01*
X67900263Y-37353114D01*
X67955221Y-37466861D01*
X68041326Y-37700719D01*
X68106575Y-37995612D01*
X68119716Y-38095775D01*
X68159041Y-38482636D01*
X68053636Y-38036310D01*
X67954372Y-37697292D01*
X67838927Y-37428023D01*
X67723801Y-37261879D01*
X67652398Y-37224809D01*
X67592460Y-37287097D01*
X67590768Y-37305959D01*
X67520796Y-37458612D01*
X67349270Y-37602283D01*
X67133779Y-37696129D01*
X67018687Y-37711710D01*
X66795137Y-37679601D01*
X66563776Y-37599543D01*
X66522502Y-37576460D01*
X66806317Y-37576460D01*
X66817456Y-37624703D01*
X66860417Y-37630560D01*
X66927213Y-37600868D01*
X66914517Y-37576460D01*
X66818211Y-37566747D01*
X66806317Y-37576460D01*
X66522502Y-37576460D01*
X66378528Y-37495940D01*
X66293317Y-37393194D01*
X66292366Y-37383017D01*
X66269037Y-37354825D01*
X66410059Y-37354825D01*
X66454666Y-37427684D01*
X66576857Y-37529974D01*
X66636839Y-37549409D01*
X66661574Y-37500544D01*
X66616967Y-37427684D01*
X66494776Y-37325394D01*
X66434793Y-37305959D01*
X66410059Y-37354825D01*
X66269037Y-37354825D01*
X66213776Y-37288046D01*
X65987837Y-37191469D01*
X65677367Y-37110031D01*
X65487776Y-37092260D01*
X65378487Y-37166180D01*
X65334635Y-37241705D01*
X65268505Y-37368280D01*
X65260023Y-37345968D01*
X65284742Y-37221258D01*
X65265065Y-36995027D01*
X65181148Y-36888705D01*
X65037496Y-36787080D01*
X64892079Y-36713640D01*
X64792464Y-36687989D01*
X64782831Y-36724548D01*
X64743171Y-36802179D01*
X64602894Y-36955358D01*
X64387547Y-37157532D01*
X64257441Y-37270617D01*
X63963689Y-37532259D01*
X63775752Y-37736687D01*
X63665790Y-37918766D01*
X63614213Y-38076120D01*
X63545732Y-38334244D01*
X63449089Y-38662283D01*
X63372892Y-38903596D01*
X63286151Y-39199645D01*
X63226631Y-39461796D01*
X63208660Y-39608871D01*
X63177506Y-39784076D01*
X63122334Y-39865388D01*
X63073369Y-39843244D01*
X63081693Y-39676583D01*
X63093599Y-39606439D01*
X63163006Y-39314033D01*
X63257502Y-39007351D01*
X63271119Y-38969537D01*
X63366766Y-38662019D01*
X63442589Y-38337781D01*
X63449160Y-38300896D01*
X63478433Y-38093171D01*
X63465778Y-38016012D01*
X63403571Y-38041350D01*
X63383030Y-38057445D01*
X63345762Y-38066175D01*
X63398620Y-37969431D01*
X63443129Y-37906107D01*
X63578399Y-37637728D01*
X63600653Y-37432651D01*
X63593975Y-37377489D01*
X63710800Y-37377489D01*
X63728684Y-37612196D01*
X64192567Y-37195645D01*
X64409302Y-36996111D01*
X64565811Y-36842551D01*
X64634319Y-36762486D01*
X64634805Y-36757450D01*
X64555650Y-36776188D01*
X64370992Y-36846561D01*
X64153038Y-36939294D01*
X63898807Y-37059339D01*
X63762892Y-37154461D01*
X63711998Y-37257652D01*
X63710800Y-37377489D01*
X63593975Y-37377489D01*
X63573836Y-37211124D01*
X63249235Y-37431052D01*
X63073268Y-37543063D01*
X63020049Y-37556352D01*
X63068622Y-37490184D01*
X63239715Y-37341427D01*
X63463626Y-37194457D01*
X63485134Y-37182625D01*
X63740234Y-36964752D01*
X63868192Y-36964752D01*
X64349928Y-36756893D01*
X64597081Y-36640575D01*
X64770859Y-36540309D01*
X64831663Y-36481171D01*
X64761560Y-36437905D01*
X64592249Y-36417690D01*
X64385231Y-36420884D01*
X64202003Y-36447847D01*
X64126676Y-36477064D01*
X64027657Y-36594233D01*
X63949254Y-36751544D01*
X63868192Y-36964752D01*
X63740234Y-36964752D01*
X63741517Y-36963656D01*
X63840005Y-36767551D01*
X63922352Y-36499240D01*
X63646656Y-36618574D01*
X63373217Y-36736859D01*
X63089701Y-36859403D01*
X63078163Y-36864387D01*
X62884793Y-36936919D01*
X62764694Y-36961419D01*
X62751725Y-36957224D01*
X62802872Y-36912596D01*
X62962903Y-36825487D01*
X63190468Y-36714831D01*
X63444217Y-36599557D01*
X63682801Y-36498598D01*
X63864871Y-36430886D01*
X63939725Y-36413307D01*
X64018054Y-36364614D01*
X64020161Y-36350300D01*
X64091619Y-36317789D01*
X64270288Y-36312831D01*
X64344762Y-36318249D01*
X64574074Y-36318845D01*
X64667994Y-36267257D01*
X64669363Y-36256616D01*
X64612898Y-36214250D01*
X64434010Y-36193030D01*
X64118455Y-36192087D01*
X63796999Y-36203554D01*
X63396023Y-36218919D01*
X63154310Y-36221655D01*
X63072426Y-36212025D01*
X63150937Y-36190290D01*
X63390410Y-36156713D01*
X63634698Y-36128436D01*
X63885115Y-36090496D01*
X63981631Y-36064582D01*
X64233130Y-36064582D01*
X64344762Y-36075893D01*
X64459965Y-36063141D01*
X64446200Y-36034962D01*
X64280057Y-36024244D01*
X64243324Y-36034962D01*
X64233130Y-36064582D01*
X63981631Y-36064582D01*
X64054478Y-36045023D01*
X64101312Y-36011207D01*
X64028088Y-35966981D01*
X64588213Y-35966981D01*
X64628788Y-36007556D01*
X64669363Y-35966981D01*
X64628788Y-35926406D01*
X64588213Y-35966981D01*
X64028088Y-35966981D01*
X64027729Y-35966764D01*
X63834506Y-35912730D01*
X63562931Y-35860571D01*
X63553548Y-35859083D01*
X63005784Y-35772781D01*
X63472398Y-35803155D01*
X63737920Y-35807684D01*
X63902673Y-35784201D01*
X63939011Y-35753641D01*
X63994026Y-35734866D01*
X64119368Y-35800080D01*
X64299745Y-35895792D01*
X64423681Y-35925906D01*
X64435755Y-35895650D01*
X64347280Y-35824475D01*
X64204439Y-35740830D01*
X64053410Y-35673164D01*
X63979586Y-35652330D01*
X63861734Y-35593518D01*
X63662352Y-35460321D01*
X63422932Y-35284220D01*
X63184964Y-35096693D01*
X62989940Y-34929220D01*
X62886419Y-34822948D01*
X62825895Y-34736392D01*
X62865666Y-34755521D01*
X62967665Y-34840427D01*
X63192220Y-35016262D01*
X63393298Y-35155417D01*
X63618512Y-35298559D01*
X63540249Y-35092711D01*
X63450950Y-34767038D01*
X63412452Y-34427083D01*
X63427519Y-34130654D01*
X63485841Y-33953948D01*
X63587259Y-33738142D01*
X63649207Y-33531589D01*
X63733054Y-33346894D01*
X63906410Y-33098601D01*
X64137937Y-32831452D01*
X64144073Y-32825050D01*
X64355195Y-32586408D01*
X64511925Y-32373173D01*
X64585860Y-32224911D01*
X64588213Y-32206356D01*
X64663416Y-32029358D01*
X64891558Y-31868883D01*
X65276433Y-31722600D01*
X65458440Y-31671834D01*
X65782877Y-31579268D01*
X66096488Y-31476179D01*
X66255550Y-31415772D01*
X66579138Y-31294686D01*
X66784883Y-31254510D01*
X66893551Y-31291725D01*
G37*
%TO.C,J3*%
X81900000Y-65760000D02*
X81900000Y-66500000D01*
X81900000Y-66500000D02*
X82400000Y-66500000D01*
X82140000Y-56339000D02*
X82140000Y-66260000D01*
X82140000Y-56339000D02*
X92260000Y-56339000D01*
X82140000Y-59299000D02*
X92260000Y-59299000D01*
X82140000Y-64200000D02*
X92260000Y-64200000D01*
X82140000Y-65700000D02*
X92260000Y-65700000D01*
X82140000Y-66260000D02*
X92260000Y-66260000D01*
X88473000Y-62623000D02*
X88426000Y-62669000D01*
X88666000Y-62839000D02*
X88631000Y-62874000D01*
X90770000Y-60325000D02*
X90735000Y-60361000D01*
X90975000Y-60531000D02*
X90928000Y-60577000D01*
X92260000Y-56339000D02*
X92260000Y-66260000D01*
X83165001Y-60916001D02*
G75*
G03*
X83164574Y-62283042I1534992J-684000D01*
G01*
X85383999Y-60065001D02*
G75*
G03*
X84016958Y-60064574I-684000J-1534992D01*
G01*
X84016000Y-63134999D02*
G75*
G03*
X84728805Y-63280252I683999J1535000D01*
G01*
X84700000Y-63279999D02*
G75*
G03*
X85383318Y-63134755I0J1679999D01*
G01*
X86235000Y-62284000D02*
G75*
G03*
X86235426Y-60916958I-1535000J684000D01*
G01*
X91380000Y-61600000D02*
G75*
G03*
X91380000Y-61600000I-1680000J0D01*
G01*
%TO.C,J2*%
X66200000Y-65760000D02*
X66200000Y-66500000D01*
X66200000Y-66500000D02*
X66700000Y-66500000D01*
X66440000Y-56339000D02*
X66440000Y-66260000D01*
X66440000Y-56339000D02*
X76560000Y-56339000D01*
X66440000Y-59299000D02*
X76560000Y-59299000D01*
X66440000Y-64200000D02*
X76560000Y-64200000D01*
X66440000Y-65700000D02*
X76560000Y-65700000D01*
X66440000Y-66260000D02*
X76560000Y-66260000D01*
X72773000Y-62623000D02*
X72726000Y-62669000D01*
X72966000Y-62839000D02*
X72931000Y-62874000D01*
X75070000Y-60325000D02*
X75035000Y-60361000D01*
X75275000Y-60531000D02*
X75228000Y-60577000D01*
X76560000Y-56339000D02*
X76560000Y-66260000D01*
X67465001Y-60916001D02*
G75*
G03*
X67464574Y-62283042I1534992J-684000D01*
G01*
X69683999Y-60065001D02*
G75*
G03*
X68316958Y-60064574I-684000J-1534992D01*
G01*
X68316000Y-63134999D02*
G75*
G03*
X69028805Y-63280252I683999J1535000D01*
G01*
X69000000Y-63279999D02*
G75*
G03*
X69683318Y-63134755I0J1679999D01*
G01*
X70535000Y-62284000D02*
G75*
G03*
X70535426Y-60916958I-1535000J684000D01*
G01*
X75680000Y-61600000D02*
G75*
G03*
X75680000Y-61600000I-1680000J0D01*
G01*
%TO.C,C8*%
X76740000Y-37246267D02*
X76740000Y-36953733D01*
X77760000Y-37246267D02*
X77760000Y-36953733D01*
%TO.C,R2*%
X79372500Y-36895276D02*
X79372500Y-37404724D01*
X78327500Y-36895276D02*
X78327500Y-37404724D01*
%TO.C,J5*%
X88400000Y-20885000D02*
X88400000Y-20145000D01*
X88400000Y-20145000D02*
X87900000Y-20145000D01*
X88160000Y-30306000D02*
X88160000Y-20385000D01*
X88160000Y-30306000D02*
X68039000Y-30306000D01*
X88160000Y-27346000D02*
X68039000Y-27346000D01*
X88160000Y-22445000D02*
X68039000Y-22445000D01*
X88160000Y-20945000D02*
X68039000Y-20945000D01*
X88160000Y-20385000D02*
X68039000Y-20385000D01*
X81827000Y-24022000D02*
X81874000Y-23976000D01*
X81634000Y-23806000D02*
X81669000Y-23771000D01*
X79530000Y-26320000D02*
X79565000Y-26284000D01*
X79325000Y-26114000D02*
X79372000Y-26068000D01*
X76827000Y-24022000D02*
X76874000Y-23976000D01*
X76634000Y-23806000D02*
X76669000Y-23771000D01*
X74530000Y-26320000D02*
X74565000Y-26284000D01*
X74325000Y-26114000D02*
X74372000Y-26068000D01*
X71827000Y-24022000D02*
X71874000Y-23976000D01*
X71634000Y-23806000D02*
X71669000Y-23771000D01*
X69530000Y-26320000D02*
X69565000Y-26284000D01*
X69325000Y-26114000D02*
X69372000Y-26068000D01*
X68039000Y-30306000D02*
X68039000Y-20385000D01*
X87134999Y-25728999D02*
G75*
G03*
X87135426Y-24361958I-1534992J684000D01*
G01*
X84916001Y-26579999D02*
G75*
G03*
X86283042Y-26580426I684000J1534992D01*
G01*
X86284000Y-23510001D02*
G75*
G03*
X85571195Y-23364748I-683999J-1535000D01*
G01*
X85600000Y-23365001D02*
G75*
G03*
X84916682Y-23510245I0J-1679999D01*
G01*
X84065000Y-24361000D02*
G75*
G03*
X84064574Y-25728042I1535000J-684000D01*
G01*
X82280000Y-25045000D02*
G75*
G03*
X82280000Y-25045000I-1680000J0D01*
G01*
X77280000Y-25045000D02*
G75*
G03*
X77280000Y-25045000I-1680000J0D01*
G01*
X72280000Y-25045000D02*
G75*
G03*
X72280000Y-25045000I-1680000J0D01*
G01*
%TO.C,C1*%
X59746267Y-46710000D02*
X59453733Y-46710000D01*
X59746267Y-45690000D02*
X59453733Y-45690000D01*
%TO.C,R3*%
X68004724Y-49372500D02*
X67495276Y-49372500D01*
X68004724Y-48327500D02*
X67495276Y-48327500D01*
%TO.C,U1*%
X88060000Y-33590000D02*
X88060000Y-33765000D01*
X87385000Y-36310000D02*
X88060000Y-36310000D01*
X87385000Y-33590000D02*
X88060000Y-33590000D01*
X85515000Y-36310000D02*
X84840000Y-36310000D01*
X85515000Y-33590000D02*
X84840000Y-33590000D01*
X84840000Y-36310000D02*
X84840000Y-36135000D01*
X84840000Y-33590000D02*
X84840000Y-33765000D01*
%TO.C,C6*%
X72596267Y-42610000D02*
X72303733Y-42610000D01*
X72596267Y-41590000D02*
X72303733Y-41590000D01*
%TO.C,C11*%
X72840000Y-49396267D02*
X72840000Y-49103733D01*
X73860000Y-49396267D02*
X73860000Y-49103733D01*
%TO.C,C9*%
X87110000Y-41703733D02*
X87110000Y-41996267D01*
X86090000Y-41703733D02*
X86090000Y-41996267D01*
%TO.C,D1*%
X95265000Y-55410000D02*
X96735000Y-55410000D01*
X96735000Y-55410000D02*
X96735000Y-52950000D01*
X95265000Y-52950000D02*
X95265000Y-55410000D01*
%TO.C,R5*%
X97127500Y-54004724D02*
X97127500Y-53495276D01*
X98172500Y-54004724D02*
X98172500Y-53495276D01*
%TO.C,C12*%
X71290000Y-49396267D02*
X71290000Y-49103733D01*
X72310000Y-49396267D02*
X72310000Y-49103733D01*
%TO.C,C10*%
X81483767Y-53110000D02*
X81191233Y-53110000D01*
X81483767Y-52090000D02*
X81191233Y-52090000D01*
%TO.C,C3*%
X67946267Y-50860000D02*
X67653733Y-50860000D01*
X67946267Y-49840000D02*
X67653733Y-49840000D01*
%TO.C,SW1*%
X56070000Y-55280000D02*
X56070000Y-48820000D01*
X56100000Y-55280000D02*
X56070000Y-55280000D01*
X58000000Y-55280000D02*
X60600000Y-55280000D01*
X62530000Y-55280000D02*
X62500000Y-55280000D01*
X62530000Y-55280000D02*
X62530000Y-48820000D01*
X56070000Y-48820000D02*
X56100000Y-48820000D01*
X58000000Y-48820000D02*
X60600000Y-48820000D01*
X62530000Y-48820000D02*
X62500000Y-48820000D01*
%TO.C,C14*%
X87696267Y-32810000D02*
X87403733Y-32810000D01*
X87696267Y-31790000D02*
X87403733Y-31790000D01*
%TO.C,SW2*%
X58500000Y-30250000D02*
X58500000Y-31650000D01*
X54700000Y-30250000D02*
X58500000Y-30250000D01*
X54700000Y-30250000D02*
X54700000Y-30250000D01*
X54700000Y-31950000D02*
X54700000Y-30250000D01*
X54400000Y-31950000D02*
X54700000Y-31950000D01*
X54700000Y-32750000D02*
X54400000Y-32750000D01*
X54400000Y-32750000D02*
X54400000Y-31950000D01*
X54100000Y-32850000D02*
X54100000Y-32850000D01*
X53600000Y-32850000D02*
X54100000Y-32850000D01*
X53300000Y-32850000D02*
X53300000Y-32850000D01*
X52800000Y-32850000D02*
X53300000Y-32850000D01*
X52800000Y-32850000D02*
X52800000Y-33350000D01*
X58500000Y-33050000D02*
X58500000Y-33050000D01*
X52800000Y-33350000D02*
X52800000Y-33350000D01*
X52800000Y-33650000D02*
X52800000Y-34150000D01*
X58500000Y-34150000D02*
X58500000Y-33050000D01*
X52800000Y-34150000D02*
X52800000Y-34150000D01*
X54700000Y-34450000D02*
X54700000Y-32750000D01*
X54400000Y-34450000D02*
X54700000Y-34450000D01*
X52800000Y-34450000D02*
X52800000Y-34450000D01*
X54700000Y-35250000D02*
X54400000Y-35250000D01*
X54400000Y-35250000D02*
X54400000Y-34450000D01*
X52800000Y-35250000D02*
X52800000Y-34450000D01*
X58500000Y-35550000D02*
X58500000Y-35550000D01*
X52800000Y-35550000D02*
X52800000Y-35550000D01*
X52800000Y-36050000D02*
X52800000Y-35550000D01*
X52800000Y-36350000D02*
X52800000Y-36350000D01*
X58500000Y-36650000D02*
X58500000Y-35550000D01*
X54100000Y-36850000D02*
X54100000Y-36850000D01*
X53600000Y-36850000D02*
X54100000Y-36850000D01*
X53300000Y-36850000D02*
X53300000Y-36850000D01*
X52800000Y-36850000D02*
X52800000Y-36350000D01*
X52800000Y-36850000D02*
X53300000Y-36850000D01*
X54700000Y-36950000D02*
X54700000Y-35250000D01*
X54400000Y-36950000D02*
X54700000Y-36950000D01*
X54700000Y-37750000D02*
X54400000Y-37750000D01*
X54400000Y-37750000D02*
X54400000Y-36950000D01*
X58500000Y-38050000D02*
X58500000Y-39450000D01*
X58500000Y-39450000D02*
X54700000Y-39450000D01*
X54700000Y-39450000D02*
X54700000Y-37750000D01*
%TO.C,J1*%
X99530000Y-36255000D02*
X98200000Y-36255000D01*
X99530000Y-34925000D02*
X99530000Y-36255000D01*
X99530000Y-33655000D02*
X99530000Y-31055000D01*
X99530000Y-33655000D02*
X96870000Y-33655000D01*
X99530000Y-31055000D02*
X96870000Y-31055000D01*
X96870000Y-33655000D02*
X96870000Y-31055000D01*
%TD*%
M02*
