M48
; DRILL file {KiCad 7.0.7} date Sun Mar 24 23:16:13 2024
; FORMAT={-:-/ absolute / metric / decimal}
; #@! TF.CreationDate,2024-03-24T23:16:13-05:00
; #@! TF.GenerationSoftware,Kicad,Pcbnew,7.0.7
; #@! TF.FileFunction,MixedPlating,1,4
FMAT,2
METRIC
; #@! TA.AperFunction,Plated,PTH,ViaDrill
T1C0.400
; #@! TA.AperFunction,Plated,PTH,ComponentDrill
T2C0.600
; #@! TA.AperFunction,Plated,PTH,ComponentDrill
T3C1.000
; #@! TA.AperFunction,Plated,PTH,ComponentDrill
T4C1.300
; #@! TA.AperFunction,Plated,PTH,ComponentDrill
T5C4.000
; #@! TA.AperFunction,NonPlated,NPTH,ComponentDrill
T6C0.900
%
G90
G05
T1
X55.45Y-48.05
X55.5Y-56.1
X58.7Y-44.95
X61.9Y-37.35
X62.05Y-32.35
X64.95Y-46.9
X65.85Y-50.3
X68.5Y-40.5
X70.4Y-43.9
X71.6Y-41.0
X73.35Y-40.95
X76.3Y-38.1
X76.85Y-45.8
X77.025Y-44.867
X77.15Y-34.95
X77.596Y-39.139
X78.75Y-34.95
X79.25Y-51.0
X79.35Y-52.6
X80.4Y-35.0
X80.797Y-41.674
X80.95Y-61.6
X81.2Y-47.2
X81.65Y-46.35
X81.7Y-37.463
X81.7Y-38.662
X82.3Y-32.3
X82.7Y-38.75
X82.8Y-35.45
X83.3Y-52.65
X83.4Y-51.1
X83.5Y-36.9
X83.927Y-39.127
X84.0Y-30.45
X84.25Y-35.85
X84.65Y-36.95
X84.7Y-58.55
X84.7Y-64.85
X84.95Y-50.05
X85.1Y-31.15
X85.15Y-48.55
X85.3Y-53.95
X85.5Y-40.2
X85.85Y-55.1
X86.55Y-39.726
X86.7Y-31.2
X87.6Y-42.75
X88.65Y-34.4
X88.7Y-35.35
X88.761Y-33.457
X88.85Y-41.05
X89.05Y-45.75
X89.7Y-58.55
X89.7Y-64.8
X91.35Y-35.95
X92.75Y-36.05
X92.95Y-61.6
X93.35Y-49.1
X93.4Y-45.9
X94.15Y-45.0
X94.7Y-43.45
X95.7Y-42.25
X97.2Y-50.75
X98.7Y-42.6
X99.25Y-52.8
X101.2Y-55.25
X101.45Y-52.626
T2
X57.029Y-25.421
X57.029Y-61.671
X57.907Y-23.3
X57.907Y-27.543
X57.907Y-59.55
X57.907Y-63.793
X60.029Y-22.421
X60.029Y-28.421
X60.029Y-58.671
X60.029Y-64.671
X62.15Y-23.3
X62.15Y-27.543
X62.15Y-59.55
X62.15Y-63.793
X63.029Y-25.421
X63.029Y-61.671
X94.699Y-61.681
X94.719Y-25.421
X95.577Y-59.56
X95.577Y-63.803
X95.597Y-23.3
X95.597Y-27.543
X97.699Y-58.681
X97.699Y-64.681
X97.719Y-22.421
X97.719Y-28.421
X99.82Y-59.56
X99.82Y-63.803
X99.84Y-23.3
X99.84Y-27.543
X100.699Y-61.681
X100.719Y-25.421
T3
X97.21Y-38.73
X97.21Y-41.27
X97.21Y-43.81
X97.21Y-46.35
X97.21Y-48.89
X98.2Y-32.385
X98.2Y-34.925
X99.75Y-38.73
X99.75Y-41.27
X99.75Y-43.81
X99.75Y-46.35
X99.75Y-48.89
T4
X69.0Y-61.6
X70.6Y-25.045
X74.0Y-61.6
X75.6Y-25.045
X80.6Y-25.045
X84.7Y-61.6
X85.6Y-25.045
X89.7Y-61.6
T5
X60.029Y-25.421
X60.029Y-61.671
X97.699Y-61.681
X97.719Y-25.421
T6
X56.6Y-31.45
X56.6Y-38.25
T0
M30
