%TF.GenerationSoftware,KiCad,Pcbnew,7.0.7*%
%TF.CreationDate,2024-03-24T23:16:09-05:00*%
%TF.ProjectId,lsm6dsoxCANEnabled,6c736d36-6473-46f7-9843-414e456e6162,rev?*%
%TF.SameCoordinates,Original*%
%TF.FileFunction,Copper,L4,Bot*%
%TF.FilePolarity,Positive*%
%FSLAX46Y46*%
G04 Gerber Fmt 4.6, Leading zero omitted, Abs format (unit mm)*
G04 Created by KiCad (PCBNEW 7.0.7) date 2024-03-24 23:16:09*
%MOMM*%
%LPD*%
G01*
G04 APERTURE LIST*
%TA.AperFunction,ComponentPad*%
%ADD10R,1.700000X1.700000*%
%TD*%
%TA.AperFunction,ComponentPad*%
%ADD11O,1.700000X1.700000*%
%TD*%
%TA.AperFunction,ComponentPad*%
%ADD12R,2.600000X2.600000*%
%TD*%
%TA.AperFunction,ComponentPad*%
%ADD13C,2.600000*%
%TD*%
%TA.AperFunction,ComponentPad*%
%ADD14C,0.900000*%
%TD*%
%TA.AperFunction,ComponentPad*%
%ADD15C,8.000000*%
%TD*%
%TA.AperFunction,ViaPad*%
%ADD16C,0.800000*%
%TD*%
%TA.AperFunction,Conductor*%
%ADD17C,0.100000*%
%TD*%
G04 APERTURE END LIST*
D10*
%TO.P,J4,1,Pin_1*%
%TO.N,+3.3V*%
X97210000Y-38730000D03*
D11*
%TO.P,J4,2,Pin_2*%
%TO.N,SYS_JTMS_SWDIO*%
X99750000Y-38730000D03*
%TO.P,J4,3,Pin_3*%
%TO.N,GND*%
X97210000Y-41270000D03*
%TO.P,J4,4,Pin_4*%
%TO.N,SYS_JTCK_SWCL*%
X99750000Y-41270000D03*
%TO.P,J4,5,Pin_5*%
%TO.N,GND*%
X97210000Y-43810000D03*
%TO.P,J4,6,Pin_6*%
%TO.N,SYS_JTDO_TRACESWO*%
X99750000Y-43810000D03*
%TO.P,J4,7,Pin_7*%
%TO.N,+5V*%
X97210000Y-46350000D03*
%TO.P,J4,8,Pin_8*%
%TO.N,unconnected-(J4-Pin_8-Pad8)*%
X99750000Y-46350000D03*
%TO.P,J4,9,Pin_9*%
%TO.N,GND*%
X97210000Y-48890000D03*
%TO.P,J4,10,Pin_10*%
%TO.N,NRST*%
X99750000Y-48890000D03*
%TD*%
D12*
%TO.P,J3,1,Pin_1*%
%TO.N,GND*%
X84700000Y-61600000D03*
D13*
%TO.P,J3,2,Pin_2*%
%TO.N,+5V*%
X89700000Y-61600000D03*
%TD*%
D12*
%TO.P,J2,1,Pin_1*%
%TO.N,GPIO1*%
X69000000Y-61600000D03*
D13*
%TO.P,J2,2,Pin_2*%
%TO.N,GPIO2*%
X74000000Y-61600000D03*
%TD*%
D14*
%TO.P,H2,1*%
%TO.N,N/C*%
X57028680Y-61671320D03*
X57907360Y-59550000D03*
X57907360Y-63792640D03*
X60028680Y-58671320D03*
D15*
X60028680Y-61671320D03*
D14*
X60028680Y-64671320D03*
X62150000Y-59550000D03*
X62150000Y-63792640D03*
X63028680Y-61671320D03*
%TD*%
%TO.P,H1,1*%
%TO.N,N/C*%
X57028680Y-25421320D03*
X57907360Y-23300000D03*
X57907360Y-27542640D03*
X60028680Y-22421320D03*
D15*
X60028680Y-25421320D03*
D14*
X60028680Y-28421320D03*
X62150000Y-23300000D03*
X62150000Y-27542640D03*
X63028680Y-25421320D03*
%TD*%
D12*
%TO.P,J5,1,Pin_1*%
%TO.N,CAN_IN-*%
X85600000Y-25045000D03*
D13*
%TO.P,J5,2,Pin_2*%
%TO.N,CAN_IN+*%
X80600000Y-25045000D03*
%TO.P,J5,3,Pin_3*%
X75600000Y-25045000D03*
%TO.P,J5,4,Pin_4*%
%TO.N,CAN_IN-*%
X70600000Y-25045000D03*
%TD*%
D14*
%TO.P,H4,1*%
%TO.N,N/C*%
X94698680Y-61681320D03*
X95577360Y-59560000D03*
X95577360Y-63802640D03*
X97698680Y-58681320D03*
D15*
X97698680Y-61681320D03*
D14*
X97698680Y-64681320D03*
X99820000Y-59560000D03*
X99820000Y-63802640D03*
X100698680Y-61681320D03*
%TD*%
%TO.P,H3,1*%
%TO.N,N/C*%
X94718680Y-25421320D03*
X95597360Y-23300000D03*
X95597360Y-27542640D03*
X97718680Y-22421320D03*
D15*
X97718680Y-25421320D03*
D14*
X97718680Y-28421320D03*
X99840000Y-23300000D03*
X99840000Y-27542640D03*
X100718680Y-25421320D03*
%TD*%
D10*
%TO.P,J1,1,Pin_1*%
%TO.N,CAN_IN+*%
X98200000Y-34925000D03*
D11*
%TO.P,J1,2,Pin_2*%
%TO.N,CAN_IN-*%
X98200000Y-32385000D03*
%TD*%
D16*
%TO.N,GND*%
X94700000Y-43450000D03*
%TO.N,+5V*%
X94150000Y-45000000D03*
%TO.N,GND*%
X85150000Y-48550000D03*
X84950000Y-50050000D03*
X93350000Y-49100000D03*
%TO.N,+3.3V*%
X85850000Y-55100000D03*
X85300000Y-53950000D03*
%TO.N,+5V*%
X89050000Y-45750000D03*
%TO.N,GND*%
X93400000Y-45900000D03*
%TO.N,NRST*%
X101200000Y-55250000D03*
X101450500Y-52626089D03*
%TO.N,GND*%
X79250000Y-51000000D03*
X79350000Y-52600000D03*
X95700000Y-42250000D03*
X88700000Y-35350000D03*
X71600000Y-41000000D03*
X84700000Y-58550000D03*
X58700000Y-44950000D03*
X88650000Y-34400000D03*
X70400000Y-43900000D03*
X84700000Y-64850000D03*
X80950000Y-61600000D03*
X81200000Y-47200000D03*
X99250000Y-52800000D03*
X65850000Y-50300000D03*
X64950000Y-46900000D03*
X77024982Y-44866761D03*
X86700000Y-31200000D03*
X55450000Y-48050000D03*
X87600000Y-42750000D03*
X97200000Y-50750000D03*
X68500000Y-40500000D03*
X61900000Y-37350000D03*
X85100000Y-31150000D03*
X77150000Y-34950000D03*
X91350000Y-35950000D03*
X55500000Y-56100000D03*
X77596017Y-39139222D03*
%TO.N,+5V*%
X92950000Y-61600000D03*
X92750000Y-36050000D03*
X89700000Y-58550000D03*
X89700000Y-64800000D03*
%TO.N,+3.3V*%
X78750000Y-34950000D03*
X82300000Y-32300000D03*
X81650000Y-46350000D03*
X80400000Y-35000000D03*
X84000000Y-30450000D03*
X83400000Y-51100000D03*
X85500000Y-40200000D03*
X76850000Y-45800000D03*
X62050000Y-32350000D03*
X83300000Y-52650000D03*
X76300000Y-38100000D03*
X73350000Y-40950000D03*
%TO.N,SYS_JTCK_SWCL*%
X83926793Y-39126793D03*
%TO.N,SYS_JTDO_TRACESWO*%
X98700000Y-42600000D03*
X88850000Y-41050000D03*
X80796892Y-41674305D03*
X86550000Y-39726293D03*
%TO.N,CS*%
X84650000Y-36950000D03*
X82800000Y-35450000D03*
%TO.N,INT1*%
X84250000Y-35850000D03*
X83500000Y-36900000D03*
X82700000Y-38750000D03*
X88760941Y-33457001D03*
%TO.N,INT2*%
X81700000Y-38662000D03*
X81700000Y-37463000D03*
%TD*%
D17*
%TO.N,NRST*%
X101450500Y-52626089D02*
X101450500Y-54999500D01*
X101450500Y-54999500D02*
X101200000Y-55250000D01*
%TO.N,SYS_JTCK_SWCL*%
X83926793Y-39126793D02*
X86820379Y-39126793D01*
X86820379Y-39126793D02*
X87913586Y-40220000D01*
X87913586Y-40220000D02*
X98700000Y-40220000D01*
X98700000Y-40220000D02*
X99750000Y-41270000D01*
%TO.N,SYS_JTDO_TRACESWO*%
X82525695Y-41674305D02*
X84600000Y-39600000D01*
X84600000Y-39600000D02*
X86423707Y-39600000D01*
X86423707Y-39600000D02*
X86550000Y-39726293D01*
X80796892Y-41674305D02*
X82525695Y-41674305D01*
X98700000Y-42600000D02*
X96198529Y-42600000D01*
X90650000Y-42850000D02*
X88850000Y-41050000D01*
X96198529Y-42600000D02*
X95948529Y-42850000D01*
X95948529Y-42850000D02*
X90650000Y-42850000D01*
%TO.N,CS*%
X84398529Y-36950000D02*
X82898529Y-35450000D01*
X82898529Y-35450000D02*
X82800000Y-35450000D01*
X84650000Y-36950000D02*
X84398529Y-36950000D01*
%TO.N,INT1*%
X82700000Y-38750000D02*
X83500000Y-37950000D01*
X83500000Y-37950000D02*
X83500000Y-36900000D01*
X84250000Y-35850000D02*
X86642999Y-33457001D01*
X86642999Y-33457001D02*
X88760941Y-33457001D01*
%TO.N,INT2*%
X81700000Y-37463000D02*
X81700000Y-38662000D01*
%TD*%
M02*
