%TF.GenerationSoftware,KiCad,Pcbnew,7.0.7*%
%TF.CreationDate,2024-03-24T23:16:10-05:00*%
%TF.ProjectId,lsm6dsoxCANEnabled,6c736d36-6473-46f7-9843-414e456e6162,rev?*%
%TF.SameCoordinates,Original*%
%TF.FileFunction,Legend,Bot*%
%TF.FilePolarity,Positive*%
%FSLAX46Y46*%
G04 Gerber Fmt 4.6, Leading zero omitted, Abs format (unit mm)*
G04 Created by KiCad (PCBNEW 7.0.7) date 2024-03-24 23:16:10*
%MOMM*%
%LPD*%
G01*
G04 APERTURE LIST*
%ADD10C,0.150000*%
G04 APERTURE END LIST*
D10*
X70313220Y-58619819D02*
X70313220Y-57619819D01*
X70313220Y-57619819D02*
X69932268Y-57619819D01*
X69932268Y-57619819D02*
X69837030Y-57667438D01*
X69837030Y-57667438D02*
X69789411Y-57715057D01*
X69789411Y-57715057D02*
X69741792Y-57810295D01*
X69741792Y-57810295D02*
X69741792Y-57953152D01*
X69741792Y-57953152D02*
X69789411Y-58048390D01*
X69789411Y-58048390D02*
X69837030Y-58096009D01*
X69837030Y-58096009D02*
X69932268Y-58143628D01*
X69932268Y-58143628D02*
X70313220Y-58143628D01*
X69360839Y-58334104D02*
X68884649Y-58334104D01*
X69456077Y-58619819D02*
X69122744Y-57619819D01*
X69122744Y-57619819D02*
X68789411Y-58619819D01*
X68551315Y-57619819D02*
X67932268Y-57619819D01*
X67932268Y-57619819D02*
X68265601Y-58000771D01*
X68265601Y-58000771D02*
X68122744Y-58000771D01*
X68122744Y-58000771D02*
X68027506Y-58048390D01*
X68027506Y-58048390D02*
X67979887Y-58096009D01*
X67979887Y-58096009D02*
X67932268Y-58191247D01*
X67932268Y-58191247D02*
X67932268Y-58429342D01*
X67932268Y-58429342D02*
X67979887Y-58524580D01*
X67979887Y-58524580D02*
X68027506Y-58572200D01*
X68027506Y-58572200D02*
X68122744Y-58619819D01*
X68122744Y-58619819D02*
X68408458Y-58619819D01*
X68408458Y-58619819D02*
X68503696Y-58572200D01*
X68503696Y-58572200D02*
X68551315Y-58524580D01*
X74913220Y-58569819D02*
X74913220Y-57569819D01*
X74913220Y-57569819D02*
X74532268Y-57569819D01*
X74532268Y-57569819D02*
X74437030Y-57617438D01*
X74437030Y-57617438D02*
X74389411Y-57665057D01*
X74389411Y-57665057D02*
X74341792Y-57760295D01*
X74341792Y-57760295D02*
X74341792Y-57903152D01*
X74341792Y-57903152D02*
X74389411Y-57998390D01*
X74389411Y-57998390D02*
X74437030Y-58046009D01*
X74437030Y-58046009D02*
X74532268Y-58093628D01*
X74532268Y-58093628D02*
X74913220Y-58093628D01*
X73960839Y-58284104D02*
X73484649Y-58284104D01*
X74056077Y-58569819D02*
X73722744Y-57569819D01*
X73722744Y-57569819D02*
X73389411Y-58569819D01*
X72627506Y-57903152D02*
X72627506Y-58569819D01*
X72865601Y-57522200D02*
X73103696Y-58236485D01*
X73103696Y-58236485D02*
X72484649Y-58236485D01*
X69960839Y-21915057D02*
X69913220Y-21867438D01*
X69913220Y-21867438D02*
X69817982Y-21819819D01*
X69817982Y-21819819D02*
X69579887Y-21819819D01*
X69579887Y-21819819D02*
X69484649Y-21867438D01*
X69484649Y-21867438D02*
X69437030Y-21915057D01*
X69437030Y-21915057D02*
X69389411Y-22010295D01*
X69389411Y-22010295D02*
X69389411Y-22105533D01*
X69389411Y-22105533D02*
X69437030Y-22248390D01*
X69437030Y-22248390D02*
X70008458Y-22819819D01*
X70008458Y-22819819D02*
X69389411Y-22819819D01*
X68246554Y-21772200D02*
X69103696Y-23057914D01*
X67437030Y-21819819D02*
X67913220Y-21819819D01*
X67913220Y-21819819D02*
X67960839Y-22296009D01*
X67960839Y-22296009D02*
X67913220Y-22248390D01*
X67913220Y-22248390D02*
X67817982Y-22200771D01*
X67817982Y-22200771D02*
X67579887Y-22200771D01*
X67579887Y-22200771D02*
X67484649Y-22248390D01*
X67484649Y-22248390D02*
X67437030Y-22296009D01*
X67437030Y-22296009D02*
X67389411Y-22391247D01*
X67389411Y-22391247D02*
X67389411Y-22629342D01*
X67389411Y-22629342D02*
X67437030Y-22724580D01*
X67437030Y-22724580D02*
X67484649Y-22772200D01*
X67484649Y-22772200D02*
X67579887Y-22819819D01*
X67579887Y-22819819D02*
X67817982Y-22819819D01*
X67817982Y-22819819D02*
X67913220Y-22772200D01*
X67913220Y-22772200D02*
X67960839Y-22724580D01*
X66246554Y-21772200D02*
X67103696Y-23057914D01*
X65960839Y-21915057D02*
X65913220Y-21867438D01*
X65913220Y-21867438D02*
X65817982Y-21819819D01*
X65817982Y-21819819D02*
X65579887Y-21819819D01*
X65579887Y-21819819D02*
X65484649Y-21867438D01*
X65484649Y-21867438D02*
X65437030Y-21915057D01*
X65437030Y-21915057D02*
X65389411Y-22010295D01*
X65389411Y-22010295D02*
X65389411Y-22105533D01*
X65389411Y-22105533D02*
X65437030Y-22248390D01*
X65437030Y-22248390D02*
X66008458Y-22819819D01*
X66008458Y-22819819D02*
X65389411Y-22819819D01*
X64532268Y-22153152D02*
X64532268Y-22819819D01*
X64770363Y-21772200D02*
X65008458Y-22486485D01*
X65008458Y-22486485D02*
X64389411Y-22486485D01*
X68441792Y-21169819D02*
X68775125Y-20693628D01*
X69013220Y-21169819D02*
X69013220Y-20169819D01*
X69013220Y-20169819D02*
X68632268Y-20169819D01*
X68632268Y-20169819D02*
X68537030Y-20217438D01*
X68537030Y-20217438D02*
X68489411Y-20265057D01*
X68489411Y-20265057D02*
X68441792Y-20360295D01*
X68441792Y-20360295D02*
X68441792Y-20503152D01*
X68441792Y-20503152D02*
X68489411Y-20598390D01*
X68489411Y-20598390D02*
X68537030Y-20646009D01*
X68537030Y-20646009D02*
X68632268Y-20693628D01*
X68632268Y-20693628D02*
X69013220Y-20693628D01*
X68013220Y-20646009D02*
X67679887Y-20646009D01*
X67537030Y-21169819D02*
X68013220Y-21169819D01*
X68013220Y-21169819D02*
X68013220Y-20169819D01*
X68013220Y-20169819D02*
X67537030Y-20169819D01*
X67251315Y-20169819D02*
X66917982Y-21169819D01*
X66917982Y-21169819D02*
X66584649Y-20169819D01*
X64965601Y-21169819D02*
X65537029Y-21169819D01*
X65251315Y-21169819D02*
X65251315Y-20169819D01*
X65251315Y-20169819D02*
X65346553Y-20312676D01*
X65346553Y-20312676D02*
X65441791Y-20407914D01*
X65441791Y-20407914D02*
X65537029Y-20455533D01*
X74663220Y-27769819D02*
X74663220Y-26769819D01*
X74187030Y-27769819D02*
X74187030Y-26769819D01*
X74187030Y-26769819D02*
X73615602Y-27769819D01*
X73615602Y-27769819D02*
X73615602Y-26769819D01*
X73139411Y-27769819D02*
X73139411Y-26769819D01*
X73139411Y-26769819D02*
X72758459Y-26769819D01*
X72758459Y-26769819D02*
X72663221Y-26817438D01*
X72663221Y-26817438D02*
X72615602Y-26865057D01*
X72615602Y-26865057D02*
X72567983Y-26960295D01*
X72567983Y-26960295D02*
X72567983Y-27103152D01*
X72567983Y-27103152D02*
X72615602Y-27198390D01*
X72615602Y-27198390D02*
X72663221Y-27246009D01*
X72663221Y-27246009D02*
X72758459Y-27293628D01*
X72758459Y-27293628D02*
X73139411Y-27293628D01*
X72139411Y-26769819D02*
X72139411Y-27579342D01*
X72139411Y-27579342D02*
X72091792Y-27674580D01*
X72091792Y-27674580D02*
X72044173Y-27722200D01*
X72044173Y-27722200D02*
X71948935Y-27769819D01*
X71948935Y-27769819D02*
X71758459Y-27769819D01*
X71758459Y-27769819D02*
X71663221Y-27722200D01*
X71663221Y-27722200D02*
X71615602Y-27674580D01*
X71615602Y-27674580D02*
X71567983Y-27579342D01*
X71567983Y-27579342D02*
X71567983Y-26769819D01*
X71234649Y-26769819D02*
X70663221Y-26769819D01*
X70948935Y-27769819D02*
X70948935Y-26769819D01*
X85137030Y-29219819D02*
X85613220Y-29219819D01*
X85613220Y-29219819D02*
X85613220Y-28219819D01*
X75363220Y-29219819D02*
X75363220Y-28219819D01*
X75363220Y-28696009D02*
X74791792Y-28696009D01*
X74791792Y-29219819D02*
X74791792Y-28219819D01*
X85322744Y-26919819D02*
X85132268Y-26919819D01*
X85132268Y-26919819D02*
X85037030Y-26967438D01*
X85037030Y-26967438D02*
X84941792Y-27062676D01*
X84941792Y-27062676D02*
X84894173Y-27253152D01*
X84894173Y-27253152D02*
X84894173Y-27586485D01*
X84894173Y-27586485D02*
X84941792Y-27776961D01*
X84941792Y-27776961D02*
X85037030Y-27872200D01*
X85037030Y-27872200D02*
X85132268Y-27919819D01*
X85132268Y-27919819D02*
X85322744Y-27919819D01*
X85322744Y-27919819D02*
X85417982Y-27872200D01*
X85417982Y-27872200D02*
X85513220Y-27776961D01*
X85513220Y-27776961D02*
X85560839Y-27586485D01*
X85560839Y-27586485D02*
X85560839Y-27253152D01*
X85560839Y-27253152D02*
X85513220Y-27062676D01*
X85513220Y-27062676D02*
X85417982Y-26967438D01*
X85417982Y-26967438D02*
X85322744Y-26919819D01*
X84465601Y-26919819D02*
X84465601Y-27729342D01*
X84465601Y-27729342D02*
X84417982Y-27824580D01*
X84417982Y-27824580D02*
X84370363Y-27872200D01*
X84370363Y-27872200D02*
X84275125Y-27919819D01*
X84275125Y-27919819D02*
X84084649Y-27919819D01*
X84084649Y-27919819D02*
X83989411Y-27872200D01*
X83989411Y-27872200D02*
X83941792Y-27824580D01*
X83941792Y-27824580D02*
X83894173Y-27729342D01*
X83894173Y-27729342D02*
X83894173Y-26919819D01*
X83560839Y-26919819D02*
X82989411Y-26919819D01*
X83275125Y-27919819D02*
X83275125Y-26919819D01*
X82656077Y-27919819D02*
X82656077Y-26919819D01*
X82656077Y-26919819D02*
X82275125Y-26919819D01*
X82275125Y-26919819D02*
X82179887Y-26967438D01*
X82179887Y-26967438D02*
X82132268Y-27015057D01*
X82132268Y-27015057D02*
X82084649Y-27110295D01*
X82084649Y-27110295D02*
X82084649Y-27253152D01*
X82084649Y-27253152D02*
X82132268Y-27348390D01*
X82132268Y-27348390D02*
X82179887Y-27396009D01*
X82179887Y-27396009D02*
X82275125Y-27443628D01*
X82275125Y-27443628D02*
X82656077Y-27443628D01*
X81656077Y-26919819D02*
X81656077Y-27729342D01*
X81656077Y-27729342D02*
X81608458Y-27824580D01*
X81608458Y-27824580D02*
X81560839Y-27872200D01*
X81560839Y-27872200D02*
X81465601Y-27919819D01*
X81465601Y-27919819D02*
X81275125Y-27919819D01*
X81275125Y-27919819D02*
X81179887Y-27872200D01*
X81179887Y-27872200D02*
X81132268Y-27824580D01*
X81132268Y-27824580D02*
X81084649Y-27729342D01*
X81084649Y-27729342D02*
X81084649Y-26919819D01*
X80751315Y-26919819D02*
X80179887Y-26919819D01*
X80465601Y-27919819D02*
X80465601Y-26919819D01*
X80136779Y-28330180D02*
X80136779Y-29330180D01*
X80136779Y-28853990D02*
X80708207Y-28853990D01*
X80708207Y-28330180D02*
X80708207Y-29330180D01*
X69837030Y-29219819D02*
X70313220Y-29219819D01*
X70313220Y-29219819D02*
X70313220Y-28219819D01*
%TO.C,G\u002A\u002A\u002A*%
G36*
X86045156Y-44066605D02*
G01*
X86028336Y-44396228D01*
X85995423Y-44726161D01*
X85946399Y-45056034D01*
X85881246Y-45385477D01*
X85850665Y-45517188D01*
X85776111Y-45799069D01*
X85691927Y-46068533D01*
X85598189Y-46325382D01*
X85494971Y-46569421D01*
X85382347Y-46800451D01*
X85260394Y-47018276D01*
X85257861Y-47022491D01*
X85225442Y-47075408D01*
X85185498Y-47139079D01*
X85139615Y-47211078D01*
X85089381Y-47288979D01*
X85036381Y-47370357D01*
X84982203Y-47452785D01*
X84928432Y-47533838D01*
X84876655Y-47611091D01*
X84828459Y-47682117D01*
X84785431Y-47744490D01*
X84741523Y-47806777D01*
X84602740Y-47994585D01*
X84461901Y-48170936D01*
X84317008Y-48337879D01*
X84166067Y-48497464D01*
X84007080Y-48651739D01*
X83838052Y-48802754D01*
X83656986Y-48952558D01*
X83461887Y-49103200D01*
X83453851Y-49109205D01*
X83183815Y-49301054D01*
X82908654Y-49477445D01*
X82628334Y-49638389D01*
X82342821Y-49783898D01*
X82052082Y-49913984D01*
X81756084Y-50028660D01*
X81454794Y-50127936D01*
X81148177Y-50211826D01*
X80836201Y-50280341D01*
X80518833Y-50333494D01*
X80196039Y-50371295D01*
X79867785Y-50393757D01*
X79809929Y-50395729D01*
X79731489Y-50397140D01*
X79643475Y-50397683D01*
X79549459Y-50397401D01*
X79453009Y-50396335D01*
X79357697Y-50394525D01*
X79267092Y-50392014D01*
X79184764Y-50388843D01*
X79114283Y-50385052D01*
X79104088Y-50384384D01*
X79035955Y-50379484D01*
X78958753Y-50373316D01*
X78875646Y-50366179D01*
X78789799Y-50358376D01*
X78704376Y-50350209D01*
X78622541Y-50341977D01*
X78547461Y-50333983D01*
X78482298Y-50326528D01*
X78430218Y-50319913D01*
X78311955Y-50302314D01*
X78144093Y-50272031D01*
X77978955Y-50235507D01*
X77812665Y-50191777D01*
X77641347Y-50139878D01*
X77461125Y-50078845D01*
X77415010Y-50062320D01*
X77105316Y-49941787D01*
X76804698Y-49807782D01*
X76512865Y-49660133D01*
X76229531Y-49498668D01*
X75954406Y-49323214D01*
X75687201Y-49133597D01*
X75427629Y-48929646D01*
X75175400Y-48711187D01*
X75136398Y-48675644D01*
X74811533Y-48369469D01*
X74491538Y-48049866D01*
X74178698Y-47719242D01*
X73875298Y-47380005D01*
X73583624Y-47034563D01*
X73488317Y-46916749D01*
X73324681Y-46707703D01*
X73156810Y-46485133D01*
X72985455Y-46250182D01*
X72811368Y-46003996D01*
X72635301Y-45747721D01*
X72458005Y-45482502D01*
X72280231Y-45209483D01*
X72102731Y-44929811D01*
X71926256Y-44644630D01*
X71751558Y-44355085D01*
X71579389Y-44062322D01*
X71546690Y-44005238D01*
X73751720Y-44005238D01*
X73751816Y-44090666D01*
X73752373Y-44174063D01*
X73753393Y-44253054D01*
X73754875Y-44325264D01*
X73756820Y-44388319D01*
X73759228Y-44439843D01*
X73762099Y-44477461D01*
X73783857Y-44663989D01*
X73822530Y-44921367D01*
X73870665Y-45169208D01*
X73928992Y-45410176D01*
X73998245Y-45646938D01*
X74079156Y-45882159D01*
X74172457Y-46118505D01*
X74278880Y-46358641D01*
X74307811Y-46419547D01*
X74410862Y-46621095D01*
X74525832Y-46825058D01*
X74650555Y-47028006D01*
X74782862Y-47226511D01*
X74920584Y-47417143D01*
X75061554Y-47596474D01*
X75066514Y-47602499D01*
X75273600Y-47841362D01*
X75490654Y-48067685D01*
X75717362Y-48281213D01*
X75953411Y-48481695D01*
X76198485Y-48668875D01*
X76452271Y-48842501D01*
X76714455Y-49002319D01*
X76984722Y-49148075D01*
X77104586Y-49207062D01*
X77362847Y-49323049D01*
X77622641Y-49424353D01*
X77885560Y-49511431D01*
X78153193Y-49584739D01*
X78427130Y-49644734D01*
X78708960Y-49691872D01*
X79000272Y-49726609D01*
X79011873Y-49727505D01*
X79044425Y-49729136D01*
X79089850Y-49730736D01*
X79146065Y-49732279D01*
X79210987Y-49733742D01*
X79282534Y-49735098D01*
X79358623Y-49736324D01*
X79437172Y-49737394D01*
X79516098Y-49738284D01*
X79593320Y-49738969D01*
X79666753Y-49739424D01*
X79734316Y-49739624D01*
X79793927Y-49739544D01*
X79843502Y-49739160D01*
X79880959Y-49738447D01*
X79904216Y-49737380D01*
X79908702Y-49737021D01*
X79934010Y-49735060D01*
X79970260Y-49732308D01*
X80013292Y-49729080D01*
X80058945Y-49725690D01*
X80120412Y-49720696D01*
X80347966Y-49694772D01*
X80581255Y-49657056D01*
X80816774Y-49608252D01*
X81051021Y-49549064D01*
X81280490Y-49480196D01*
X81412281Y-49435403D01*
X81681907Y-49331782D01*
X81948687Y-49213329D01*
X82210850Y-49081018D01*
X82466628Y-48935826D01*
X82714251Y-48778731D01*
X82951951Y-48610709D01*
X83177957Y-48432737D01*
X83333531Y-48298924D01*
X83560677Y-48086365D01*
X83775575Y-47863749D01*
X83977874Y-47631557D01*
X84167223Y-47390271D01*
X84343269Y-47140370D01*
X84505664Y-46882336D01*
X84654054Y-46616649D01*
X84788090Y-46343791D01*
X84907421Y-46064241D01*
X85005400Y-45796669D01*
X85093370Y-45510730D01*
X85165869Y-45220715D01*
X85222859Y-44927254D01*
X85264304Y-44630977D01*
X85290165Y-44332515D01*
X85300406Y-44032497D01*
X85294989Y-43731554D01*
X85273878Y-43430316D01*
X85237035Y-43129413D01*
X85184423Y-42829475D01*
X85116004Y-42531132D01*
X85037952Y-42255759D01*
X84940177Y-41967949D01*
X84827669Y-41686392D01*
X84700789Y-41411625D01*
X84559895Y-41144185D01*
X84405347Y-40884609D01*
X84237505Y-40633432D01*
X84056730Y-40391191D01*
X83863379Y-40158423D01*
X83657814Y-39935665D01*
X83440394Y-39723452D01*
X83211479Y-39522321D01*
X82971429Y-39332808D01*
X82832432Y-39231967D01*
X82577902Y-39062515D01*
X82317019Y-38907895D01*
X82050095Y-38768225D01*
X81777440Y-38643624D01*
X81499365Y-38534208D01*
X81216182Y-38440097D01*
X80928201Y-38361408D01*
X80635734Y-38298260D01*
X80339092Y-38250770D01*
X80038586Y-38219057D01*
X79997484Y-38216094D01*
X79880969Y-38210052D01*
X79753262Y-38206373D01*
X79617910Y-38205016D01*
X79478460Y-38205941D01*
X79338461Y-38209106D01*
X79201461Y-38214471D01*
X79071007Y-38221994D01*
X78950648Y-38231634D01*
X78753781Y-38253602D01*
X78456942Y-38300185D01*
X78163174Y-38362483D01*
X77873229Y-38440223D01*
X77587856Y-38533132D01*
X77307807Y-38640933D01*
X77033833Y-38763354D01*
X76766684Y-38900120D01*
X76507112Y-39050957D01*
X76255867Y-39215591D01*
X76203541Y-39252363D01*
X75958621Y-39436413D01*
X75724424Y-39632496D01*
X75501332Y-39840107D01*
X75289725Y-40058740D01*
X75089983Y-40287888D01*
X74902486Y-40527045D01*
X74727615Y-40775705D01*
X74565750Y-41033361D01*
X74417271Y-41299507D01*
X74282560Y-41573637D01*
X74161995Y-41855244D01*
X74055959Y-42143823D01*
X74055836Y-42144187D01*
X73983829Y-42371672D01*
X73921876Y-42598918D01*
X73869359Y-42828920D01*
X73825661Y-43064668D01*
X73790162Y-43309155D01*
X73762244Y-43565374D01*
X73760822Y-43583023D01*
X73758155Y-43630761D01*
X73755948Y-43690718D01*
X73754200Y-43760519D01*
X73752913Y-43837790D01*
X73752086Y-43920154D01*
X73751720Y-44005238D01*
X71546690Y-44005238D01*
X71410500Y-43767486D01*
X71245642Y-43471722D01*
X71170987Y-43334777D01*
X71077419Y-43160312D01*
X70981297Y-42978221D01*
X70883519Y-42790310D01*
X70784983Y-42598386D01*
X70686587Y-42404258D01*
X70589229Y-42209732D01*
X70493806Y-42016615D01*
X70401217Y-41826715D01*
X70312358Y-41641840D01*
X70228128Y-41463796D01*
X70149425Y-41294391D01*
X70077147Y-41135432D01*
X70012191Y-40988727D01*
X70008884Y-40981022D01*
X69995840Y-40949160D01*
X69980127Y-40909106D01*
X69962593Y-40863200D01*
X69944089Y-40813781D01*
X69925464Y-40763191D01*
X69907568Y-40713769D01*
X69891250Y-40667855D01*
X69877360Y-40627790D01*
X69866747Y-40595914D01*
X69860262Y-40574567D01*
X69858753Y-40566089D01*
X69860948Y-40565994D01*
X69873926Y-40570476D01*
X69893941Y-40579840D01*
X69899508Y-40582988D01*
X69914780Y-40594617D01*
X69932947Y-40612886D01*
X69955522Y-40639538D01*
X69984018Y-40676314D01*
X70019948Y-40724958D01*
X70044320Y-40758199D01*
X70181043Y-40935634D01*
X70319401Y-41099420D01*
X70461554Y-41251774D01*
X70609659Y-41394914D01*
X70765875Y-41531057D01*
X70932360Y-41662421D01*
X70977363Y-41695851D01*
X71091800Y-41777261D01*
X71210115Y-41856707D01*
X71330327Y-41933052D01*
X71450454Y-42005164D01*
X71568514Y-42071908D01*
X71682526Y-42132148D01*
X71790508Y-42184751D01*
X71890479Y-42228582D01*
X71980458Y-42262507D01*
X72018711Y-42275112D01*
X72098532Y-42299349D01*
X72179828Y-42321556D01*
X72259811Y-42341115D01*
X72335697Y-42357406D01*
X72404700Y-42369809D01*
X72464034Y-42377705D01*
X72510913Y-42380475D01*
X72529353Y-42379812D01*
X72588430Y-42368212D01*
X72641061Y-42343202D01*
X72684948Y-42306141D01*
X72717788Y-42258385D01*
X72728467Y-42230827D01*
X72736452Y-42178680D01*
X72732793Y-42120279D01*
X72717493Y-42058801D01*
X72693672Y-41996584D01*
X72655761Y-41914348D01*
X72610833Y-41830667D01*
X72561584Y-41750868D01*
X72548508Y-41732235D01*
X72513707Y-41688003D01*
X72467651Y-41634547D01*
X72411156Y-41572685D01*
X72345041Y-41503231D01*
X72270126Y-41427004D01*
X72187228Y-41344819D01*
X72097165Y-41257492D01*
X72000757Y-41165840D01*
X71898822Y-41070681D01*
X71792178Y-40972829D01*
X71681644Y-40873101D01*
X71640100Y-40835903D01*
X71562275Y-40766011D01*
X71492491Y-40702977D01*
X71427925Y-40644204D01*
X71365758Y-40587094D01*
X71303169Y-40529049D01*
X71237336Y-40467472D01*
X71165439Y-40399765D01*
X71084658Y-40323330D01*
X71041518Y-40282072D01*
X70988602Y-40230828D01*
X70928068Y-40171721D01*
X70861400Y-40106229D01*
X70790080Y-40035832D01*
X70715591Y-39962011D01*
X70639416Y-39886245D01*
X70563036Y-39810014D01*
X70487936Y-39734798D01*
X70415598Y-39662077D01*
X70347504Y-39593330D01*
X70285137Y-39530038D01*
X70229980Y-39473681D01*
X70183515Y-39425738D01*
X70147226Y-39387689D01*
X70016512Y-39244357D01*
X69864990Y-39067375D01*
X69715437Y-38881477D01*
X69570767Y-38690408D01*
X69433892Y-38497917D01*
X69307725Y-38307750D01*
X69265344Y-38240056D01*
X69165414Y-38067843D01*
X69079687Y-37899714D01*
X69007541Y-37734156D01*
X68948349Y-37569655D01*
X68901488Y-37404698D01*
X68866333Y-37237769D01*
X68857618Y-37187654D01*
X68849818Y-37141453D01*
X68844573Y-37108009D01*
X68841657Y-37085554D01*
X68840848Y-37072320D01*
X68841921Y-37066538D01*
X68844653Y-37066440D01*
X68844742Y-37066500D01*
X68851243Y-37075278D01*
X68863639Y-37095389D01*
X68880183Y-37123899D01*
X68899130Y-37157880D01*
X68958246Y-37260105D01*
X69065619Y-37423253D01*
X69187836Y-37584677D01*
X69324008Y-37743230D01*
X69473247Y-37897769D01*
X69487529Y-37911684D01*
X69591447Y-38009181D01*
X69698371Y-38102695D01*
X69810752Y-38194161D01*
X69931041Y-38285514D01*
X70061689Y-38378689D01*
X70205146Y-38475620D01*
X70323658Y-38553041D01*
X70447006Y-38631488D01*
X70560376Y-38700956D01*
X70665164Y-38762153D01*
X70762766Y-38815786D01*
X70854576Y-38862565D01*
X70941991Y-38903195D01*
X71026407Y-38938384D01*
X71109218Y-38968841D01*
X71191820Y-38995273D01*
X71275609Y-39018387D01*
X71321657Y-39029148D01*
X71420807Y-39044557D01*
X71510608Y-39047045D01*
X71590899Y-39036677D01*
X71661522Y-39013515D01*
X71722317Y-38977621D01*
X71773124Y-38929059D01*
X71813785Y-38867891D01*
X71844139Y-38794181D01*
X71846830Y-38785432D01*
X71852742Y-38763457D01*
X71856943Y-38741218D01*
X71859709Y-38715511D01*
X71861318Y-38683132D01*
X71862045Y-38640876D01*
X71862168Y-38585541D01*
X71861739Y-38537407D01*
X71859311Y-38473545D01*
X71853995Y-38417578D01*
X71844952Y-38364994D01*
X71831339Y-38311283D01*
X71812318Y-38251933D01*
X71787046Y-38182431D01*
X71783205Y-38172308D01*
X71706568Y-37993369D01*
X71615341Y-37819911D01*
X71509053Y-37651113D01*
X71387231Y-37486150D01*
X71372872Y-37468650D01*
X71336411Y-37427055D01*
X71291105Y-37378037D01*
X71239188Y-37323826D01*
X71182894Y-37266650D01*
X71124460Y-37208738D01*
X71066121Y-37152319D01*
X71010110Y-37099620D01*
X70958665Y-37052872D01*
X70914018Y-37014301D01*
X70808576Y-36928926D01*
X70653717Y-36813004D01*
X70498443Y-36708541D01*
X70339234Y-36613213D01*
X70172571Y-36524696D01*
X70155782Y-36516322D01*
X70112066Y-36494871D01*
X70069882Y-36474835D01*
X70027542Y-36455532D01*
X69983355Y-36436281D01*
X69935630Y-36416402D01*
X69882679Y-36395213D01*
X69822810Y-36372033D01*
X69754334Y-36346182D01*
X69675561Y-36316978D01*
X69584800Y-36283740D01*
X69480362Y-36245788D01*
X69438646Y-36230660D01*
X69298367Y-36179653D01*
X69161719Y-36129767D01*
X69029767Y-36081397D01*
X68903575Y-36034940D01*
X68784207Y-35990792D01*
X68672727Y-35949350D01*
X68570199Y-35911011D01*
X68477688Y-35876169D01*
X68396258Y-35845222D01*
X68326972Y-35818567D01*
X68270896Y-35796599D01*
X68229093Y-35779716D01*
X68126503Y-35735634D01*
X67937815Y-35646368D01*
X67751545Y-35547904D01*
X67569675Y-35441545D01*
X67394186Y-35328592D01*
X67227060Y-35210351D01*
X67070277Y-35088123D01*
X66925818Y-34963211D01*
X66795665Y-34836920D01*
X66759259Y-34798651D01*
X66676742Y-34707336D01*
X66598798Y-34614790D01*
X66527578Y-34523716D01*
X66465229Y-34436816D01*
X66413902Y-34356794D01*
X66398870Y-34330226D01*
X66374603Y-34281751D01*
X66352881Y-34231799D01*
X66335204Y-34184205D01*
X66323070Y-34142807D01*
X66317981Y-34111439D01*
X66317600Y-34100513D01*
X66319147Y-34084746D01*
X66327180Y-34078101D01*
X66345522Y-34075605D01*
X66358389Y-34074951D01*
X66374752Y-34076278D01*
X66391845Y-34081318D01*
X66412096Y-34091324D01*
X66437933Y-34107550D01*
X66471785Y-34131249D01*
X66516079Y-34163676D01*
X66534954Y-34177576D01*
X66619380Y-34238342D01*
X66706357Y-34298570D01*
X66797404Y-34359203D01*
X66894038Y-34421185D01*
X66997779Y-34485462D01*
X67110145Y-34552977D01*
X67232655Y-34624675D01*
X67366826Y-34701500D01*
X67514177Y-34784396D01*
X67615497Y-34840539D01*
X67706004Y-34889623D01*
X67786415Y-34931852D01*
X67858622Y-34968086D01*
X67924514Y-34999183D01*
X67985981Y-35026004D01*
X68044912Y-35049406D01*
X68103199Y-35070250D01*
X68162731Y-35089395D01*
X68225397Y-35107698D01*
X68236146Y-35110696D01*
X68288307Y-35124735D01*
X68337294Y-35136796D01*
X68384726Y-35146993D01*
X68432225Y-35155441D01*
X68481413Y-35162254D01*
X68533909Y-35167547D01*
X68591335Y-35171434D01*
X68655311Y-35174030D01*
X68727460Y-35175450D01*
X68809400Y-35175808D01*
X68902754Y-35175219D01*
X69009142Y-35173798D01*
X69130186Y-35171658D01*
X69176945Y-35170783D01*
X69264745Y-35169238D01*
X69349492Y-35167868D01*
X69429296Y-35166694D01*
X69502268Y-35165743D01*
X69566517Y-35165037D01*
X69620153Y-35164600D01*
X69661286Y-35164456D01*
X69688025Y-35164629D01*
X69695150Y-35164772D01*
X69860869Y-35176365D01*
X70027701Y-35203573D01*
X70194027Y-35245988D01*
X70358225Y-35303198D01*
X70518676Y-35374795D01*
X70536583Y-35383861D01*
X70606782Y-35421690D01*
X70687999Y-35468511D01*
X70778880Y-35523452D01*
X70878067Y-35585641D01*
X70984204Y-35654204D01*
X71095934Y-35728269D01*
X71211902Y-35806964D01*
X71330750Y-35889414D01*
X71451122Y-35974748D01*
X71522369Y-36026093D01*
X71641845Y-36113754D01*
X71752992Y-36197578D01*
X71859489Y-36280401D01*
X71965013Y-36365058D01*
X72073241Y-36454385D01*
X72099749Y-36476443D01*
X72185184Y-36545882D01*
X72261194Y-36604550D01*
X72329240Y-36653187D01*
X72390783Y-36692534D01*
X72447282Y-36723333D01*
X72500199Y-36746323D01*
X72550992Y-36762247D01*
X72601124Y-36771844D01*
X72652054Y-36775856D01*
X72705242Y-36775023D01*
X72717231Y-36774246D01*
X72806693Y-36760702D01*
X72890585Y-36734659D01*
X72967720Y-36697381D01*
X73036912Y-36650132D01*
X73096974Y-36594176D01*
X73146720Y-36530776D01*
X73184963Y-36461195D01*
X73210518Y-36386698D01*
X73222196Y-36308548D01*
X73218813Y-36228009D01*
X73200746Y-36142458D01*
X73168410Y-36047199D01*
X73122741Y-35945839D01*
X73064284Y-35839138D01*
X72993584Y-35727858D01*
X72911188Y-35612759D01*
X72817640Y-35494602D01*
X72713487Y-35374148D01*
X72599273Y-35252157D01*
X72475546Y-35129391D01*
X72342850Y-35006611D01*
X72342595Y-35006383D01*
X72305449Y-34973501D01*
X72259249Y-34933140D01*
X72205773Y-34886813D01*
X72146801Y-34836032D01*
X72084113Y-34782311D01*
X72019489Y-34727162D01*
X71954708Y-34672098D01*
X71891551Y-34618632D01*
X71831796Y-34568276D01*
X71777224Y-34522543D01*
X71729615Y-34482947D01*
X71690747Y-34451000D01*
X71662401Y-34428215D01*
X71653031Y-34420644D01*
X71614207Y-34382750D01*
X71587260Y-34342706D01*
X71563858Y-34297916D01*
X71590962Y-34295547D01*
X71612105Y-34296363D01*
X71648096Y-34302270D01*
X71693780Y-34312732D01*
X71746250Y-34326956D01*
X71802599Y-34344147D01*
X71859922Y-34363508D01*
X71915309Y-34384246D01*
X72021738Y-34428725D01*
X72221426Y-34524981D01*
X72417358Y-34636238D01*
X72608205Y-34761715D01*
X72792640Y-34900629D01*
X72842727Y-34941941D01*
X72914205Y-35003522D01*
X72995847Y-35076323D01*
X73087196Y-35159901D01*
X73187798Y-35253813D01*
X73297197Y-35357613D01*
X73414937Y-35470860D01*
X73540564Y-35593108D01*
X73673621Y-35723915D01*
X73813654Y-35862837D01*
X73960206Y-36009430D01*
X74112823Y-36163251D01*
X74271048Y-36323856D01*
X74434428Y-36490801D01*
X74602505Y-36663643D01*
X74629626Y-36691595D01*
X74704605Y-36768541D01*
X74769559Y-36834588D01*
X74825311Y-36890486D01*
X74872686Y-36936991D01*
X74912504Y-36974852D01*
X74945590Y-37004825D01*
X74972767Y-37027660D01*
X74994856Y-37044110D01*
X75012681Y-37054929D01*
X75027066Y-37060868D01*
X75038832Y-37062681D01*
X75056565Y-37060672D01*
X75085682Y-37048850D01*
X75106127Y-37029462D01*
X75110327Y-37021342D01*
X75118906Y-36987566D01*
X75121831Y-36939978D01*
X75119177Y-36879643D01*
X75111019Y-36807626D01*
X75097429Y-36724992D01*
X75078483Y-36632807D01*
X75032493Y-36450413D01*
X74960616Y-36223024D01*
X74872645Y-35995621D01*
X74768683Y-35768444D01*
X74648835Y-35541737D01*
X74513203Y-35315739D01*
X74429258Y-35186130D01*
X74263007Y-34943207D01*
X74094888Y-34715800D01*
X73924470Y-34503428D01*
X73751323Y-34305613D01*
X73575017Y-34121871D01*
X73395122Y-33951724D01*
X73211207Y-33794690D01*
X73022844Y-33650288D01*
X73019734Y-33648033D01*
X72951003Y-33597748D01*
X72894767Y-33555542D01*
X72849998Y-33520516D01*
X72815671Y-33491768D01*
X72790759Y-33468398D01*
X72774235Y-33449505D01*
X72765073Y-33434187D01*
X72762247Y-33421544D01*
X72762652Y-33405958D01*
X72766434Y-33388439D01*
X72776873Y-33378705D01*
X72797168Y-33374512D01*
X72830517Y-33373614D01*
X72870562Y-33374385D01*
X72996210Y-33385893D01*
X73125348Y-33410421D01*
X73254800Y-33446973D01*
X73381386Y-33494554D01*
X73501928Y-33552168D01*
X73613246Y-33618818D01*
X73613261Y-33618828D01*
X73649498Y-33643897D01*
X73689691Y-33673227D01*
X73734335Y-33707248D01*
X73783924Y-33746392D01*
X73838951Y-33791090D01*
X73899913Y-33841772D01*
X73967303Y-33898869D01*
X74041615Y-33962812D01*
X74123345Y-34034033D01*
X74212987Y-34112961D01*
X74311035Y-34200028D01*
X74417983Y-34295665D01*
X74534327Y-34400303D01*
X74660560Y-34514372D01*
X74797177Y-34638303D01*
X74944673Y-34772528D01*
X75103543Y-34917477D01*
X75115379Y-34928286D01*
X75273290Y-35071837D01*
X75421792Y-35205486D01*
X75562780Y-35330806D01*
X75698151Y-35449371D01*
X75829801Y-35562755D01*
X75959626Y-35672532D01*
X76089522Y-35780276D01*
X76221386Y-35887561D01*
X76357113Y-35995961D01*
X76498599Y-36107049D01*
X76647742Y-36222399D01*
X76806436Y-36343586D01*
X76976579Y-36472183D01*
X76986972Y-36479998D01*
X77114217Y-36574446D01*
X77231524Y-36658951D01*
X77340706Y-36734608D01*
X77443578Y-36802515D01*
X77541956Y-36863768D01*
X77637654Y-36919463D01*
X77732486Y-36970697D01*
X77828268Y-37018565D01*
X77926814Y-37064165D01*
X78029939Y-37108593D01*
X78151004Y-37156756D01*
X78298669Y-37208995D01*
X78440776Y-37251981D01*
X78576339Y-37285538D01*
X78704373Y-37309486D01*
X78823894Y-37323649D01*
X78933917Y-37327848D01*
X79033456Y-37321906D01*
X79121526Y-37305645D01*
X79145772Y-37298684D01*
X79214070Y-37272471D01*
X79277280Y-37238756D01*
X79332601Y-37199433D01*
X79377234Y-37156398D01*
X79408380Y-37111543D01*
X79412826Y-37101911D01*
X79424152Y-37059693D01*
X79427998Y-37009971D01*
X79424244Y-36958260D01*
X79412771Y-36910074D01*
X79389766Y-36857720D01*
X79350153Y-36794707D01*
X79300088Y-36734385D01*
X79242513Y-36680228D01*
X79180371Y-36635710D01*
X79170284Y-36629568D01*
X79160243Y-36623569D01*
X79150066Y-36617845D01*
X79138850Y-36612087D01*
X79125688Y-36605989D01*
X79109678Y-36599241D01*
X79089913Y-36591536D01*
X79065491Y-36582565D01*
X79035506Y-36572021D01*
X78999053Y-36559595D01*
X78955229Y-36544979D01*
X78903128Y-36527866D01*
X78841846Y-36507946D01*
X78770478Y-36484912D01*
X78688121Y-36458456D01*
X78593868Y-36428270D01*
X78486817Y-36394046D01*
X78366062Y-36355475D01*
X78230699Y-36312249D01*
X78163767Y-36290573D01*
X78037471Y-36247567D01*
X77924470Y-36205691D01*
X77822897Y-36163923D01*
X77730885Y-36121239D01*
X77646567Y-36076618D01*
X77568079Y-36029037D01*
X77493553Y-35977472D01*
X77421123Y-35920902D01*
X77348922Y-35858305D01*
X77275085Y-35788656D01*
X77250169Y-35764085D01*
X77198954Y-35711394D01*
X77157764Y-35665093D01*
X77124577Y-35622675D01*
X77097369Y-35581632D01*
X77074119Y-35539456D01*
X77073056Y-35537321D01*
X77061131Y-35510969D01*
X77047516Y-35477520D01*
X77033319Y-35440147D01*
X77019648Y-35402023D01*
X77007612Y-35366322D01*
X76998319Y-35336216D01*
X76992877Y-35314879D01*
X76992395Y-35305484D01*
X77000072Y-35303463D01*
X77019810Y-35310404D01*
X77049163Y-35328343D01*
X77087269Y-35356731D01*
X77133267Y-35395021D01*
X77175616Y-35431083D01*
X77336475Y-35556597D01*
X77505874Y-35671064D01*
X77685287Y-35775358D01*
X77876185Y-35870353D01*
X78080041Y-35956922D01*
X78094075Y-35962374D01*
X78159232Y-35986588D01*
X78233644Y-36012549D01*
X78318624Y-36040682D01*
X78415484Y-36071416D01*
X78525537Y-36105177D01*
X78650096Y-36142392D01*
X79041236Y-36264443D01*
X79477493Y-36416247D01*
X79907960Y-36582936D01*
X80333132Y-36764721D01*
X80753502Y-36961816D01*
X81169562Y-37174431D01*
X81581805Y-37402778D01*
X81892293Y-37587142D01*
X82253662Y-37815828D01*
X82612071Y-38057712D01*
X82965189Y-38311163D01*
X83310682Y-38574551D01*
X83646216Y-38846244D01*
X83774233Y-38955598D01*
X84002989Y-39164591D01*
X84219714Y-39381264D01*
X84425273Y-39606685D01*
X84620535Y-39841923D01*
X84806368Y-40088046D01*
X84983638Y-40346122D01*
X85153213Y-40617219D01*
X85315961Y-40902405D01*
X85344270Y-40954682D01*
X85423106Y-41105204D01*
X85493060Y-41247135D01*
X85555402Y-41383327D01*
X85611401Y-41516632D01*
X85662329Y-41649902D01*
X85709456Y-41785990D01*
X85713754Y-41799070D01*
X85809095Y-42116143D01*
X85888466Y-42436120D01*
X85951850Y-42758631D01*
X85999228Y-43083306D01*
X86030584Y-43409774D01*
X86045899Y-43737664D01*
X86045233Y-44032497D01*
X86045156Y-44066605D01*
G37*
G36*
X81971612Y-40364832D02*
G01*
X82141838Y-40484996D01*
X82306980Y-40615302D01*
X82469742Y-40757704D01*
X82632832Y-40914154D01*
X82637425Y-40918751D01*
X82689126Y-40971834D01*
X82745693Y-41029914D01*
X82843185Y-41136132D01*
X82932821Y-41240947D01*
X83017523Y-41347902D01*
X83100210Y-41460538D01*
X83183804Y-41582399D01*
X83275789Y-41727272D01*
X83396829Y-41941127D01*
X83506453Y-42163543D01*
X83603243Y-42391580D01*
X83685783Y-42622303D01*
X83730320Y-42768921D01*
X83780277Y-42968698D01*
X83792951Y-43019381D01*
X83840046Y-43273712D01*
X83871611Y-43531292D01*
X83887652Y-43791502D01*
X83887991Y-43960842D01*
X83888177Y-44053722D01*
X83873190Y-44317331D01*
X83842698Y-44581710D01*
X83805538Y-44795449D01*
X83796708Y-44846238D01*
X83761586Y-44997080D01*
X83735225Y-45110295D01*
X83658256Y-45373261D01*
X83580336Y-45593392D01*
X83479371Y-45833028D01*
X83364148Y-46065485D01*
X83235098Y-46290224D01*
X83092655Y-46506703D01*
X82937251Y-46714384D01*
X82769319Y-46912726D01*
X82674049Y-47012461D01*
X82589293Y-47101189D01*
X82397604Y-47279233D01*
X82194686Y-47446319D01*
X81980971Y-47601905D01*
X81850247Y-47685649D01*
X81756893Y-47745453D01*
X81742216Y-47754164D01*
X81669862Y-47795200D01*
X81587354Y-47839447D01*
X81498686Y-47884931D01*
X81407851Y-47929675D01*
X81318841Y-47971703D01*
X81235650Y-48009039D01*
X81162271Y-48039707D01*
X81134223Y-48050746D01*
X80905554Y-48132824D01*
X80675398Y-48201130D01*
X80441791Y-48256073D01*
X80202769Y-48298063D01*
X79956369Y-48327510D01*
X79700625Y-48344824D01*
X79698365Y-48344916D01*
X79669547Y-48345525D01*
X79628501Y-48345729D01*
X79578881Y-48345542D01*
X79524340Y-48344975D01*
X79468531Y-48344042D01*
X79390236Y-48341866D01*
X79122018Y-48325167D01*
X78859411Y-48294371D01*
X78603009Y-48249632D01*
X78353407Y-48191102D01*
X78111202Y-48118935D01*
X77876988Y-48033283D01*
X77651359Y-47934299D01*
X77434912Y-47822134D01*
X77268992Y-47724579D01*
X77181038Y-47666889D01*
X78440018Y-47666889D01*
X78445078Y-47688573D01*
X78450226Y-47703615D01*
X78457815Y-47718127D01*
X78468899Y-47730356D01*
X78485270Y-47741036D01*
X78508719Y-47750904D01*
X78541037Y-47760693D01*
X78584015Y-47771140D01*
X78639445Y-47782978D01*
X78709117Y-47796945D01*
X78741179Y-47803248D01*
X78831852Y-47820709D01*
X78910094Y-47835064D01*
X78978519Y-47846691D01*
X79039744Y-47855966D01*
X79096383Y-47863268D01*
X79151052Y-47868973D01*
X79206366Y-47873458D01*
X79264940Y-47877100D01*
X79267745Y-47877254D01*
X79400691Y-47883501D01*
X79520899Y-47886780D01*
X79631621Y-47886871D01*
X79736107Y-47883550D01*
X79837610Y-47876598D01*
X79939381Y-47865792D01*
X80044673Y-47850911D01*
X80156736Y-47831733D01*
X80278823Y-47808037D01*
X80343933Y-47794723D01*
X80406271Y-47781640D01*
X80455906Y-47770660D01*
X80494611Y-47761279D01*
X80524159Y-47752994D01*
X80546323Y-47745301D01*
X80562877Y-47737696D01*
X80575593Y-47729676D01*
X80586245Y-47720738D01*
X80587199Y-47719833D01*
X80595593Y-47710225D01*
X80601367Y-47699153D01*
X80604089Y-47685649D01*
X80603327Y-47668745D01*
X80598649Y-47647474D01*
X80589623Y-47620866D01*
X80575815Y-47587953D01*
X80556795Y-47547768D01*
X80532130Y-47499342D01*
X80501387Y-47441707D01*
X80464134Y-47373894D01*
X80419940Y-47294936D01*
X80368371Y-47203865D01*
X80308996Y-47099712D01*
X80277003Y-47043768D01*
X80183959Y-46881797D01*
X80097837Y-46733020D01*
X80018711Y-46597556D01*
X79946651Y-46475525D01*
X79881731Y-46367046D01*
X79824022Y-46272236D01*
X79773595Y-46191214D01*
X79730524Y-46124101D01*
X79694881Y-46071013D01*
X79666736Y-46032070D01*
X79646164Y-46007391D01*
X79635990Y-45997158D01*
X79592575Y-45962636D01*
X79549593Y-45943739D01*
X79506669Y-45940561D01*
X79463430Y-45953195D01*
X79419501Y-45981735D01*
X79374508Y-46026274D01*
X79328079Y-46086906D01*
X79322387Y-46095450D01*
X79305210Y-46122661D01*
X79281432Y-46161581D01*
X79251727Y-46211037D01*
X79216769Y-46269859D01*
X79177233Y-46336876D01*
X79133793Y-46410916D01*
X79087123Y-46490810D01*
X79037897Y-46575385D01*
X78986789Y-46663471D01*
X78934475Y-46753898D01*
X78881628Y-46845493D01*
X78828922Y-46937086D01*
X78777032Y-47027506D01*
X78726631Y-47115582D01*
X78678394Y-47200144D01*
X78632996Y-47280019D01*
X78591111Y-47354038D01*
X78553412Y-47421029D01*
X78520574Y-47479821D01*
X78493272Y-47529243D01*
X78472179Y-47568124D01*
X78457970Y-47595294D01*
X78451319Y-47609582D01*
X78446524Y-47623566D01*
X78440314Y-47647566D01*
X78440018Y-47666889D01*
X77181038Y-47666889D01*
X77046213Y-47578456D01*
X76834053Y-47421233D01*
X76632890Y-47253456D01*
X76443103Y-47075672D01*
X76384805Y-47014357D01*
X77160947Y-47014357D01*
X77169187Y-47052538D01*
X77189526Y-47089620D01*
X77222731Y-47127354D01*
X77269575Y-47167492D01*
X77330827Y-47211786D01*
X77380592Y-47244813D01*
X77441479Y-47283290D01*
X77507274Y-47323237D01*
X77575907Y-47363514D01*
X77645309Y-47402984D01*
X77713409Y-47440506D01*
X77778139Y-47474943D01*
X77837428Y-47505156D01*
X77889208Y-47530006D01*
X77931408Y-47548354D01*
X77961959Y-47559061D01*
X77995657Y-47565428D01*
X78043435Y-47563114D01*
X78087219Y-47545799D01*
X78127897Y-47513072D01*
X78166357Y-47464523D01*
X78172081Y-47455311D01*
X78187232Y-47427884D01*
X78207849Y-47387598D01*
X78234042Y-47334222D01*
X78265919Y-47267521D01*
X78303590Y-47187263D01*
X78347164Y-47093214D01*
X78396749Y-46985141D01*
X78452456Y-46862811D01*
X78514392Y-46725991D01*
X78582667Y-46574447D01*
X78616174Y-46499886D01*
X78658564Y-46405278D01*
X78695011Y-46323281D01*
X78725966Y-46252583D01*
X78751878Y-46191874D01*
X78773197Y-46139841D01*
X78790372Y-46095173D01*
X78803854Y-46056559D01*
X78814092Y-46022687D01*
X78821535Y-45992245D01*
X78826634Y-45963922D01*
X78829838Y-45936407D01*
X78831596Y-45908388D01*
X78832359Y-45878554D01*
X78832410Y-45870816D01*
X80198590Y-45870816D01*
X80200228Y-45913403D01*
X80204533Y-45946285D01*
X80208204Y-45958473D01*
X80218337Y-45986172D01*
X80234086Y-46026415D01*
X80254886Y-46077901D01*
X80280175Y-46139327D01*
X80309388Y-46209393D01*
X80341962Y-46286795D01*
X80377333Y-46370233D01*
X80414938Y-46458405D01*
X80454213Y-46550008D01*
X80494594Y-46643742D01*
X80535518Y-46738304D01*
X80576422Y-46832392D01*
X80616740Y-46924706D01*
X80655911Y-47013943D01*
X80693370Y-47098801D01*
X80728553Y-47177979D01*
X80760898Y-47250174D01*
X80789840Y-47314086D01*
X80814815Y-47368413D01*
X80835261Y-47411851D01*
X80850613Y-47443101D01*
X80860308Y-47460860D01*
X80866817Y-47470721D01*
X80896652Y-47507814D01*
X80929256Y-47537919D01*
X80960345Y-47556919D01*
X80969493Y-47560385D01*
X80994663Y-47566327D01*
X81022769Y-47567467D01*
X81054995Y-47563344D01*
X81092528Y-47553495D01*
X81136551Y-47537458D01*
X81188251Y-47514772D01*
X81248811Y-47484974D01*
X81319418Y-47447602D01*
X81401256Y-47402195D01*
X81495511Y-47348290D01*
X81560204Y-47310705D01*
X81628707Y-47270238D01*
X81685353Y-47235722D01*
X81731503Y-47206151D01*
X81768520Y-47180520D01*
X81797768Y-47157824D01*
X81820608Y-47137058D01*
X81838403Y-47117218D01*
X81852517Y-47097297D01*
X81864311Y-47076293D01*
X81871682Y-47060840D01*
X81879548Y-47037637D01*
X81882494Y-47012461D01*
X81881779Y-46978242D01*
X81880605Y-46961059D01*
X81875626Y-46928534D01*
X81865633Y-46897714D01*
X81848483Y-46861060D01*
X81840323Y-46847121D01*
X81822527Y-46819708D01*
X81796815Y-46781741D01*
X81764151Y-46734591D01*
X81725501Y-46679630D01*
X81681830Y-46618228D01*
X81634102Y-46551756D01*
X81583283Y-46481586D01*
X81530339Y-46409088D01*
X81503465Y-46372430D01*
X81445373Y-46293094D01*
X81386574Y-46212679D01*
X81328547Y-46133215D01*
X81272772Y-46056730D01*
X81220727Y-45985253D01*
X81173891Y-45920814D01*
X81133743Y-45865440D01*
X81101763Y-45821161D01*
X81093951Y-45810324D01*
X81057263Y-45759750D01*
X81022741Y-45712654D01*
X80991844Y-45670993D01*
X80966031Y-45636722D01*
X80946759Y-45611798D01*
X80935487Y-45598177D01*
X80911417Y-45575441D01*
X80863248Y-45540623D01*
X80807011Y-45509735D01*
X80747721Y-45485780D01*
X80746647Y-45485427D01*
X80716075Y-45476108D01*
X80688565Y-45469881D01*
X80659284Y-45466119D01*
X80623396Y-45464192D01*
X80576066Y-45463472D01*
X80536159Y-45463381D01*
X80503356Y-45464064D01*
X80479402Y-45466147D01*
X80460368Y-45470218D01*
X80442323Y-45476869D01*
X80421337Y-45486687D01*
X80376675Y-45513471D01*
X80322781Y-45559824D01*
X80275380Y-45616769D01*
X80237478Y-45681128D01*
X80231202Y-45694361D01*
X80216812Y-45727645D01*
X80207992Y-45756083D01*
X80202921Y-45786705D01*
X80199774Y-45826539D01*
X80199376Y-45841408D01*
X80198590Y-45870816D01*
X78832410Y-45870816D01*
X78832576Y-45845592D01*
X78832585Y-45841408D01*
X78832259Y-45796165D01*
X78830775Y-45762838D01*
X78827654Y-45737390D01*
X78822417Y-45715778D01*
X78814584Y-45693964D01*
X78783705Y-45632107D01*
X78737650Y-45571971D01*
X78680678Y-45523620D01*
X78613297Y-45487389D01*
X78536012Y-45463613D01*
X78449329Y-45452624D01*
X78443771Y-45452359D01*
X78402063Y-45451234D01*
X78369848Y-45452720D01*
X78341130Y-45457384D01*
X78309909Y-45465793D01*
X78259288Y-45484992D01*
X78201829Y-45518177D01*
X78147082Y-45563727D01*
X78092468Y-45623510D01*
X78079668Y-45639663D01*
X78056069Y-45670705D01*
X78025320Y-45712076D01*
X77988256Y-45762598D01*
X77945710Y-45821096D01*
X77898515Y-45886391D01*
X77847507Y-45957308D01*
X77793517Y-46032668D01*
X77737381Y-46111296D01*
X77679932Y-46192014D01*
X77622003Y-46273644D01*
X77564429Y-46355011D01*
X77508043Y-46434936D01*
X77453679Y-46512244D01*
X77402171Y-46585756D01*
X77354353Y-46654297D01*
X77311058Y-46716688D01*
X77273120Y-46771754D01*
X77241372Y-46818316D01*
X77216650Y-46855198D01*
X77199786Y-46881224D01*
X77191614Y-46895215D01*
X77177676Y-46927690D01*
X77164033Y-46973325D01*
X77160947Y-47014357D01*
X76384805Y-47014357D01*
X76265070Y-46888427D01*
X76099169Y-46692268D01*
X75945780Y-46487742D01*
X75805280Y-46275395D01*
X75678049Y-46055774D01*
X75564465Y-45829426D01*
X75464906Y-45596897D01*
X75379751Y-45358733D01*
X75309379Y-45115482D01*
X75276528Y-44968046D01*
X75751712Y-44968046D01*
X75753569Y-45006510D01*
X75755558Y-45033560D01*
X75759874Y-45074491D01*
X75766168Y-45112172D01*
X75775374Y-45150228D01*
X75788424Y-45192283D01*
X75806248Y-45241962D01*
X75829780Y-45302889D01*
X75844626Y-45340260D01*
X75932139Y-45548116D01*
X76022353Y-45741173D01*
X76115949Y-45920605D01*
X76213606Y-46087588D01*
X76316005Y-46243296D01*
X76423826Y-46388904D01*
X76537749Y-46525586D01*
X76595047Y-46588987D01*
X76658989Y-46655539D01*
X76715023Y-46708652D01*
X76763432Y-46748605D01*
X76771590Y-46754455D01*
X76809199Y-46773777D01*
X76842847Y-46777436D01*
X76872808Y-46765476D01*
X76876648Y-46762565D01*
X76885694Y-46754106D01*
X76896434Y-46741779D01*
X76909447Y-46724650D01*
X76925317Y-46701787D01*
X76944625Y-46672256D01*
X76967952Y-46635123D01*
X76995880Y-46589456D01*
X77028991Y-46534319D01*
X77067866Y-46468781D01*
X77113087Y-46391908D01*
X77165236Y-46302766D01*
X77224894Y-46200422D01*
X77292640Y-46083979D01*
X77375599Y-45941147D01*
X77450628Y-45811661D01*
X77517942Y-45695144D01*
X77577756Y-45591215D01*
X77630285Y-45499498D01*
X77675744Y-45419612D01*
X77714349Y-45351181D01*
X77746316Y-45293825D01*
X77771858Y-45247165D01*
X77791191Y-45210824D01*
X77804531Y-45184423D01*
X77812092Y-45167583D01*
X77816530Y-45155411D01*
X77829473Y-45104663D01*
X77834552Y-45054113D01*
X77833819Y-45042849D01*
X81227557Y-45042849D01*
X81227888Y-45054113D01*
X81228551Y-45076686D01*
X81232635Y-45104881D01*
X81241375Y-45133575D01*
X81256340Y-45169670D01*
X81256361Y-45169718D01*
X81264496Y-45185891D01*
X81280121Y-45214825D01*
X81302560Y-45255351D01*
X81331136Y-45306299D01*
X81365171Y-45366500D01*
X81403990Y-45434783D01*
X81446915Y-45509979D01*
X81493269Y-45590918D01*
X81542376Y-45676431D01*
X81593558Y-45765347D01*
X81646139Y-45856497D01*
X81699442Y-45948710D01*
X81752790Y-46040818D01*
X81805506Y-46131650D01*
X81856914Y-46220037D01*
X81906336Y-46304808D01*
X81953096Y-46384794D01*
X81996516Y-46458826D01*
X82035921Y-46525732D01*
X82070633Y-46584345D01*
X82099974Y-46633493D01*
X82123270Y-46672007D01*
X82139842Y-46698718D01*
X82149013Y-46712455D01*
X82160129Y-46726075D01*
X82181077Y-46748268D01*
X82198892Y-46763299D01*
X82209346Y-46769413D01*
X82241485Y-46778031D01*
X82274184Y-46770942D01*
X82308601Y-46747983D01*
X82381968Y-46680367D01*
X82483659Y-46573952D01*
X82586829Y-46451531D01*
X82691386Y-46313216D01*
X82797233Y-46159122D01*
X82884933Y-46019160D01*
X82993730Y-45825377D01*
X83091961Y-45626278D01*
X83177081Y-45426770D01*
X83190739Y-45391644D01*
X83229318Y-45287876D01*
X83259902Y-45197278D01*
X83282552Y-45119108D01*
X83297330Y-45052623D01*
X83304297Y-44997080D01*
X83303514Y-44951738D01*
X83295043Y-44915853D01*
X83278945Y-44888682D01*
X83255281Y-44869484D01*
X83224114Y-44857514D01*
X83218985Y-44856758D01*
X83196618Y-44855317D01*
X83158382Y-44853985D01*
X83104556Y-44852764D01*
X83035421Y-44851658D01*
X82951254Y-44850670D01*
X82852336Y-44849802D01*
X82738945Y-44849059D01*
X82611361Y-44848443D01*
X82469864Y-44847956D01*
X82314732Y-44847603D01*
X82285840Y-44847552D01*
X82149505Y-44847336D01*
X82028319Y-44847191D01*
X81921332Y-44847130D01*
X81827595Y-44847166D01*
X81746157Y-44847312D01*
X81676068Y-44847579D01*
X81616379Y-44847980D01*
X81566140Y-44848528D01*
X81524401Y-44849234D01*
X81490211Y-44850112D01*
X81462622Y-44851173D01*
X81440683Y-44852430D01*
X81423444Y-44853895D01*
X81409955Y-44855581D01*
X81399267Y-44857501D01*
X81390429Y-44859666D01*
X81332703Y-44880639D01*
X81284023Y-44910464D01*
X81249769Y-44947612D01*
X81238955Y-44965673D01*
X81231711Y-44984930D01*
X81228367Y-45008700D01*
X81227557Y-45042849D01*
X77833819Y-45042849D01*
X77831574Y-45008338D01*
X77820345Y-44971915D01*
X77800465Y-44941415D01*
X77770673Y-44913729D01*
X77731232Y-44891911D01*
X77680565Y-44875307D01*
X77617094Y-44863261D01*
X77539240Y-44855117D01*
X77515555Y-44853830D01*
X77472590Y-44852470D01*
X77414421Y-44851322D01*
X77341640Y-44850391D01*
X77254839Y-44849680D01*
X77154608Y-44849193D01*
X77041540Y-44848933D01*
X76916226Y-44848904D01*
X76779257Y-44849109D01*
X76631225Y-44849552D01*
X76565969Y-44849788D01*
X76437850Y-44850243D01*
X76324624Y-44850683D01*
X76225338Y-44851170D01*
X76139043Y-44851764D01*
X76064789Y-44852529D01*
X76001624Y-44853525D01*
X75948598Y-44854816D01*
X75904760Y-44856462D01*
X75869160Y-44858526D01*
X75840847Y-44861069D01*
X75818871Y-44864154D01*
X75802280Y-44867842D01*
X75790125Y-44872196D01*
X75781454Y-44877277D01*
X75775317Y-44883147D01*
X75770764Y-44889867D01*
X75766843Y-44897501D01*
X75762605Y-44906109D01*
X75756105Y-44921764D01*
X75752424Y-44941279D01*
X75751712Y-44968046D01*
X75276528Y-44968046D01*
X75254167Y-44867690D01*
X75244163Y-44804196D01*
X78772769Y-44804196D01*
X78783248Y-44854571D01*
X78788120Y-44865832D01*
X78811279Y-44899203D01*
X78842706Y-44927157D01*
X78876862Y-44944382D01*
X78899836Y-44949865D01*
X78949156Y-44952874D01*
X78995460Y-44944648D01*
X79035136Y-44926078D01*
X79064569Y-44898055D01*
X79073606Y-44883338D01*
X79089737Y-44839254D01*
X79095818Y-44789417D01*
X79094994Y-44781068D01*
X79958977Y-44781068D01*
X79959487Y-44789417D01*
X79961219Y-44817776D01*
X79973517Y-44868033D01*
X79996597Y-44906248D01*
X80030541Y-44932593D01*
X80034957Y-44934751D01*
X80071598Y-44946410D01*
X80115950Y-44952290D01*
X80133235Y-44952618D01*
X80184076Y-44945138D01*
X80224900Y-44925021D01*
X80255014Y-44892927D01*
X80273726Y-44849516D01*
X80280345Y-44795449D01*
X80280029Y-44778979D01*
X80271982Y-44727725D01*
X80252677Y-44687860D01*
X80221526Y-44658771D01*
X80177942Y-44639850D01*
X80121336Y-44630486D01*
X80082808Y-44629570D01*
X80035892Y-44636756D01*
X80000808Y-44654796D01*
X79976799Y-44684393D01*
X79963108Y-44726250D01*
X79958977Y-44781068D01*
X79094994Y-44781068D01*
X79090898Y-44739548D01*
X79076120Y-44695690D01*
X79049906Y-44654221D01*
X79016156Y-44623514D01*
X78977191Y-44604271D01*
X78935332Y-44597198D01*
X78892897Y-44602997D01*
X78852206Y-44622372D01*
X78815580Y-44656028D01*
X78814745Y-44657050D01*
X78789343Y-44700366D01*
X78775075Y-44751105D01*
X78772769Y-44804196D01*
X75244163Y-44804196D01*
X75214496Y-44615903D01*
X75213919Y-44611281D01*
X75205406Y-44538132D01*
X75198366Y-44466383D01*
X75192710Y-44393826D01*
X75188352Y-44318253D01*
X75185203Y-44237453D01*
X75183177Y-44149220D01*
X75182187Y-44051343D01*
X75182148Y-43949510D01*
X75598317Y-43949510D01*
X75598767Y-43978590D01*
X75600571Y-44009583D01*
X75603585Y-44045848D01*
X75611122Y-44126850D01*
X75619602Y-44209608D01*
X75627791Y-44280678D01*
X75635547Y-44338914D01*
X75642727Y-44383173D01*
X75649189Y-44412312D01*
X75669949Y-44459657D01*
X75703236Y-44500555D01*
X75745805Y-44529870D01*
X75761898Y-44536296D01*
X75796926Y-44545568D01*
X75833359Y-44550753D01*
X75843778Y-44550744D01*
X75871422Y-44549170D01*
X75912708Y-44545906D01*
X75966152Y-44541119D01*
X76030265Y-44534975D01*
X76103562Y-44527640D01*
X76184556Y-44519280D01*
X76271761Y-44510060D01*
X76363689Y-44500147D01*
X76458854Y-44489707D01*
X76555771Y-44478907D01*
X76652951Y-44467911D01*
X76748909Y-44456886D01*
X76842158Y-44445999D01*
X76931212Y-44435415D01*
X77014583Y-44425300D01*
X77090786Y-44415820D01*
X77158334Y-44407142D01*
X77215740Y-44399431D01*
X77261518Y-44392854D01*
X77294181Y-44387576D01*
X77338028Y-44379359D01*
X77420606Y-44361023D01*
X77489623Y-44340963D01*
X77546930Y-44318385D01*
X77594378Y-44292494D01*
X77633817Y-44262498D01*
X77667098Y-44227602D01*
X77680253Y-44210412D01*
X77715790Y-44148050D01*
X77739510Y-44078901D01*
X77750873Y-44009731D01*
X78874308Y-44009731D01*
X78878509Y-44085347D01*
X78888966Y-44151716D01*
X78899371Y-44189412D01*
X78921331Y-44248707D01*
X78949036Y-44308435D01*
X78979844Y-44363073D01*
X79011111Y-44407096D01*
X79072125Y-44469646D01*
X79148760Y-44526463D01*
X79235416Y-44571661D01*
X79330529Y-44604275D01*
X79342599Y-44607162D01*
X79388257Y-44614928D01*
X79442656Y-44620750D01*
X79500851Y-44624386D01*
X79557899Y-44625595D01*
X79608854Y-44624136D01*
X79648774Y-44619770D01*
X79649809Y-44619583D01*
X79748819Y-44594831D01*
X79837618Y-44558017D01*
X79917735Y-44508359D01*
X79990697Y-44445076D01*
X80024572Y-44409408D01*
X80050920Y-44376967D01*
X80072849Y-44343039D01*
X80094609Y-44301763D01*
X80113601Y-44261576D01*
X80135636Y-44207218D01*
X80151062Y-44155384D01*
X80160900Y-44101419D01*
X80166174Y-44040671D01*
X80167493Y-43985749D01*
X81297367Y-43985749D01*
X81302499Y-44043445D01*
X81313140Y-44093038D01*
X81322303Y-44119085D01*
X81356628Y-44185923D01*
X81403034Y-44245504D01*
X81459095Y-44295059D01*
X81522385Y-44331820D01*
X81560898Y-44346662D01*
X81621547Y-44364554D01*
X81693274Y-44380974D01*
X81773180Y-44395191D01*
X81774785Y-44395437D01*
X81800991Y-44399111D01*
X81841512Y-44404394D01*
X81894637Y-44411084D01*
X81958651Y-44418978D01*
X82031840Y-44427875D01*
X82112493Y-44437573D01*
X82198894Y-44447870D01*
X82289332Y-44458563D01*
X82382092Y-44469452D01*
X82475461Y-44480334D01*
X82567726Y-44491007D01*
X82657174Y-44501269D01*
X82742090Y-44510919D01*
X82820762Y-44519754D01*
X82891477Y-44527573D01*
X82952521Y-44534174D01*
X82982129Y-44537256D01*
X83039526Y-44542853D01*
X83093221Y-44547619D01*
X83140096Y-44551302D01*
X83177030Y-44553648D01*
X83200902Y-44554401D01*
X83262607Y-44548184D01*
X83315512Y-44529673D01*
X83358404Y-44498456D01*
X83391858Y-44454110D01*
X83416450Y-44396213D01*
X83418316Y-44390188D01*
X83423806Y-44370531D01*
X83427873Y-44350889D01*
X83430713Y-44328546D01*
X83432524Y-44300785D01*
X83433503Y-44264889D01*
X83433848Y-44218140D01*
X83433754Y-44157823D01*
X83433721Y-44143199D01*
X83434003Y-44087966D01*
X83434905Y-44041917D01*
X83436361Y-44006828D01*
X83438302Y-43984474D01*
X83440662Y-43976628D01*
X83442893Y-43974597D01*
X83444884Y-43960842D01*
X83443515Y-43937945D01*
X83441604Y-43918046D01*
X83439034Y-43884939D01*
X83436064Y-43842191D01*
X83432926Y-43793145D01*
X83429851Y-43741143D01*
X83429137Y-43728780D01*
X83424259Y-43658448D01*
X83418483Y-43601949D01*
X83411279Y-43557161D01*
X83402113Y-43521964D01*
X83390454Y-43494237D01*
X83375771Y-43471858D01*
X83357531Y-43452706D01*
X83348556Y-43444820D01*
X83331325Y-43431686D01*
X83313243Y-43421871D01*
X83292114Y-43415115D01*
X83265744Y-43411162D01*
X83231937Y-43409753D01*
X83188499Y-43410630D01*
X83133233Y-43413536D01*
X83063947Y-43418213D01*
X83060823Y-43418436D01*
X82990606Y-43423743D01*
X82910819Y-43430238D01*
X82827770Y-43437379D01*
X82747769Y-43444625D01*
X82677124Y-43451433D01*
X82644969Y-43454646D01*
X82575009Y-43461562D01*
X82498832Y-43469008D01*
X82418679Y-43476771D01*
X82336794Y-43484640D01*
X82255420Y-43492402D01*
X82176798Y-43499843D01*
X82103172Y-43506751D01*
X82036785Y-43512914D01*
X81979878Y-43518119D01*
X81934695Y-43522152D01*
X81903478Y-43524802D01*
X81856175Y-43529176D01*
X81748280Y-43543942D01*
X81651687Y-43564284D01*
X81567840Y-43589863D01*
X81498186Y-43620338D01*
X81465396Y-43640388D01*
X81423192Y-43676220D01*
X81411099Y-43686487D01*
X81364459Y-43742732D01*
X81328343Y-43805399D01*
X81305616Y-43870760D01*
X81304621Y-43875282D01*
X81297992Y-43927258D01*
X81297720Y-43952678D01*
X81297367Y-43985749D01*
X80167493Y-43985749D01*
X80167907Y-43968484D01*
X80167928Y-43952678D01*
X80166799Y-43891613D01*
X80162974Y-43841317D01*
X80155503Y-43797350D01*
X80143436Y-43755272D01*
X80125825Y-43710644D01*
X80103964Y-43663834D01*
X80315469Y-43663834D01*
X80316150Y-43694916D01*
X80319380Y-43718077D01*
X80326763Y-43736849D01*
X80339900Y-43757361D01*
X80347949Y-43767623D01*
X80371901Y-43791352D01*
X80396171Y-43808396D01*
X80411951Y-43815171D01*
X80454229Y-43825016D01*
X80499233Y-43826799D01*
X80538934Y-43819876D01*
X80541066Y-43819132D01*
X80573202Y-43801382D01*
X80604387Y-43774037D01*
X80629809Y-43742075D01*
X80644656Y-43710476D01*
X80649018Y-43676220D01*
X80642555Y-43629827D01*
X80624131Y-43584822D01*
X80595560Y-43545316D01*
X80558655Y-43515423D01*
X80552716Y-43512087D01*
X80505276Y-43494739D01*
X80457443Y-43492055D01*
X80412047Y-43503388D01*
X80371923Y-43528089D01*
X80339900Y-43565510D01*
X80328948Y-43584445D01*
X80320350Y-43605841D01*
X80316412Y-43630070D01*
X80315469Y-43663834D01*
X80103964Y-43663834D01*
X80101719Y-43659026D01*
X80088595Y-43633060D01*
X80070253Y-43601184D01*
X80050064Y-43572868D01*
X80024532Y-43543380D01*
X79990162Y-43507987D01*
X79982992Y-43500860D01*
X79946132Y-43465995D01*
X79913785Y-43439482D01*
X79881079Y-43417633D01*
X79843139Y-43396762D01*
X79821441Y-43385988D01*
X79735602Y-43350888D01*
X79651447Y-43329643D01*
X79564907Y-43321472D01*
X79471915Y-43325598D01*
X79372451Y-43341269D01*
X79271404Y-43370384D01*
X79180778Y-43411509D01*
X79100958Y-43464334D01*
X79032331Y-43528551D01*
X78975282Y-43603849D01*
X78936569Y-43677753D01*
X78930196Y-43689920D01*
X78897459Y-43786454D01*
X78884143Y-43853686D01*
X78876230Y-43930599D01*
X78876220Y-43931023D01*
X78874308Y-44009731D01*
X77750873Y-44009731D01*
X77751542Y-44005660D01*
X77752011Y-43931023D01*
X77741047Y-43857685D01*
X77718777Y-43788341D01*
X77685327Y-43725688D01*
X77640826Y-43672420D01*
X77627621Y-43660471D01*
X78398691Y-43660471D01*
X78400191Y-43699886D01*
X78409645Y-43731906D01*
X78425319Y-43754312D01*
X78453765Y-43782072D01*
X78486869Y-43805788D01*
X78518645Y-43820591D01*
X78551006Y-43827686D01*
X78601873Y-43828449D01*
X78648494Y-43817051D01*
X78688630Y-43794885D01*
X78720043Y-43763350D01*
X78740492Y-43723841D01*
X78747740Y-43677753D01*
X78741987Y-43634695D01*
X78723196Y-43587909D01*
X78693817Y-43546735D01*
X78656399Y-43514643D01*
X78613494Y-43495102D01*
X78608158Y-43493790D01*
X78563442Y-43491549D01*
X78517875Y-43502685D01*
X78475151Y-43525312D01*
X78438962Y-43557544D01*
X78413003Y-43597494D01*
X78404978Y-43620383D01*
X78398691Y-43660471D01*
X77627621Y-43660471D01*
X77622298Y-43655654D01*
X77581394Y-43625143D01*
X77535935Y-43600543D01*
X77482997Y-43580653D01*
X77419657Y-43564275D01*
X77342991Y-43550208D01*
X77332646Y-43548663D01*
X77297867Y-43544064D01*
X77249957Y-43538278D01*
X77190460Y-43531460D01*
X77120919Y-43523762D01*
X77042878Y-43515340D01*
X76957880Y-43506346D01*
X76867468Y-43496934D01*
X76773187Y-43487259D01*
X76676579Y-43477473D01*
X76579187Y-43467732D01*
X76482556Y-43458188D01*
X76388229Y-43448996D01*
X76297748Y-43440310D01*
X76212659Y-43432282D01*
X76134503Y-43425067D01*
X76064824Y-43418820D01*
X76005167Y-43413692D01*
X75957073Y-43409840D01*
X75922087Y-43407415D01*
X75901753Y-43406573D01*
X75865591Y-43407250D01*
X75810636Y-43412285D01*
X75766395Y-43423014D01*
X75729642Y-43440362D01*
X75697153Y-43465254D01*
X75687927Y-43474105D01*
X75674860Y-43488903D01*
X75664075Y-43505636D01*
X75655012Y-43526342D01*
X75647110Y-43553060D01*
X75639809Y-43587828D01*
X75632548Y-43632686D01*
X75624768Y-43689671D01*
X75615908Y-43760821D01*
X75612969Y-43785127D01*
X75606548Y-43840152D01*
X75602062Y-43883651D01*
X75599367Y-43918984D01*
X75598317Y-43949510D01*
X75182148Y-43949510D01*
X75182145Y-43941615D01*
X75182964Y-43817827D01*
X75182985Y-43815575D01*
X75183847Y-43726994D01*
X75184703Y-43652740D01*
X75185648Y-43590896D01*
X75186775Y-43539544D01*
X75188178Y-43496770D01*
X75189950Y-43460656D01*
X75192185Y-43429286D01*
X75194976Y-43400744D01*
X75198417Y-43373113D01*
X75202602Y-43344478D01*
X75207624Y-43312921D01*
X75238637Y-43139148D01*
X75272201Y-42986767D01*
X75743485Y-42986767D01*
X75745561Y-43013625D01*
X75753314Y-43033969D01*
X75766734Y-43049625D01*
X75785813Y-43062420D01*
X75786963Y-43063027D01*
X75792329Y-43065295D01*
X75799604Y-43067304D01*
X75809745Y-43069070D01*
X75823711Y-43070611D01*
X75842461Y-43071944D01*
X75866954Y-43073086D01*
X75898148Y-43074056D01*
X75937002Y-43074869D01*
X75984474Y-43075544D01*
X76041524Y-43076099D01*
X76109108Y-43076549D01*
X76188187Y-43076913D01*
X76279719Y-43077208D01*
X76384663Y-43077451D01*
X76503976Y-43077660D01*
X76638618Y-43077852D01*
X76704440Y-43077919D01*
X76819686Y-43077937D01*
X76931125Y-43077832D01*
X77037508Y-43077611D01*
X77137587Y-43077281D01*
X77230115Y-43076850D01*
X77313844Y-43076325D01*
X77387525Y-43075712D01*
X77449911Y-43075020D01*
X77499754Y-43074255D01*
X77535805Y-43073425D01*
X77556817Y-43072536D01*
X77613318Y-43067014D01*
X77685345Y-43053688D01*
X77743064Y-43034047D01*
X77787002Y-43007829D01*
X77800182Y-42993631D01*
X79351476Y-42993631D01*
X79364179Y-43037179D01*
X79389462Y-43074601D01*
X79425973Y-43103314D01*
X79472362Y-43120733D01*
X79487441Y-43123674D01*
X79547407Y-43128659D01*
X79598106Y-43121384D01*
X79638810Y-43102316D01*
X79668787Y-43071924D01*
X79687309Y-43030673D01*
X79693645Y-42979032D01*
X79692868Y-42960540D01*
X79683561Y-42919646D01*
X81224332Y-42919646D01*
X81231265Y-42953645D01*
X81243101Y-42975993D01*
X81245666Y-42979032D01*
X81270378Y-43008306D01*
X81305635Y-43037098D01*
X81344236Y-43058084D01*
X81390429Y-43076756D01*
X82265870Y-43078311D01*
X82269991Y-43078318D01*
X82387967Y-43078498D01*
X82501367Y-43078619D01*
X82609126Y-43078681D01*
X82710180Y-43078687D01*
X82803463Y-43078637D01*
X82887912Y-43078535D01*
X82962462Y-43078381D01*
X83026047Y-43078177D01*
X83077603Y-43077925D01*
X83116067Y-43077627D01*
X83140372Y-43077284D01*
X83149455Y-43076898D01*
X83157825Y-43075062D01*
X83178727Y-43071861D01*
X83206025Y-43068449D01*
X83211814Y-43067762D01*
X83240960Y-43062268D01*
X83261835Y-43052693D01*
X83281353Y-43036066D01*
X83283404Y-43034000D01*
X83299354Y-43014937D01*
X83306566Y-42995853D01*
X83308256Y-42968698D01*
X83304438Y-42913537D01*
X83291849Y-42841677D01*
X83271123Y-42759605D01*
X83242935Y-42668928D01*
X83207958Y-42571254D01*
X83166867Y-42468192D01*
X83120335Y-42361349D01*
X83069036Y-42252334D01*
X83013644Y-42142754D01*
X82954834Y-42034217D01*
X82893278Y-41928333D01*
X82829652Y-41826708D01*
X82808902Y-41795294D01*
X82757896Y-41721207D01*
X82702940Y-41645134D01*
X82645620Y-41569039D01*
X82587526Y-41494887D01*
X82530245Y-41424644D01*
X82475366Y-41360275D01*
X82424476Y-41303744D01*
X82379164Y-41257018D01*
X82341018Y-41222062D01*
X82340913Y-41221974D01*
X82303299Y-41194406D01*
X82270863Y-41180004D01*
X82240460Y-41177943D01*
X82208943Y-41187397D01*
X82208677Y-41187517D01*
X82198210Y-41192328D01*
X82188504Y-41197390D01*
X82179002Y-41203567D01*
X82169147Y-41211725D01*
X82158381Y-41222730D01*
X82146147Y-41237447D01*
X82131888Y-41256742D01*
X82115045Y-41281479D01*
X82095063Y-41312525D01*
X82071384Y-41350745D01*
X82043449Y-41397005D01*
X82010702Y-41452169D01*
X81972586Y-41517104D01*
X81928543Y-41592674D01*
X81878016Y-41679747D01*
X81820446Y-41779185D01*
X81755278Y-41891857D01*
X81699284Y-41988691D01*
X81630863Y-42107059D01*
X81569837Y-42212706D01*
X81515759Y-42306416D01*
X81468185Y-42388973D01*
X81426669Y-42461163D01*
X81390766Y-42523770D01*
X81360030Y-42577578D01*
X81334017Y-42623372D01*
X81312280Y-42661936D01*
X81294376Y-42694054D01*
X81279859Y-42720512D01*
X81268282Y-42742093D01*
X81259202Y-42759582D01*
X81252173Y-42773764D01*
X81246749Y-42785423D01*
X81242486Y-42795344D01*
X81230926Y-42832991D01*
X81224366Y-42877357D01*
X81224332Y-42919646D01*
X79683561Y-42919646D01*
X79681421Y-42910245D01*
X79657182Y-42869182D01*
X79621291Y-42838439D01*
X79574885Y-42819105D01*
X79519105Y-42812266D01*
X79472016Y-42817412D01*
X79426049Y-42836031D01*
X79389413Y-42867660D01*
X79369939Y-42900193D01*
X79363053Y-42911697D01*
X79352703Y-42946541D01*
X79351476Y-42993631D01*
X77800182Y-42993631D01*
X77817688Y-42974773D01*
X77835647Y-42934619D01*
X77838891Y-42920195D01*
X77840994Y-42900193D01*
X77840037Y-42878360D01*
X77835502Y-42853474D01*
X77826871Y-42824314D01*
X77813627Y-42789656D01*
X77795253Y-42748280D01*
X77771230Y-42698962D01*
X77741042Y-42640482D01*
X77704170Y-42571616D01*
X77660097Y-42491142D01*
X77608306Y-42397840D01*
X77607512Y-42396417D01*
X77576937Y-42341857D01*
X77541545Y-42279157D01*
X77502093Y-42209628D01*
X77459340Y-42134580D01*
X77414044Y-42055326D01*
X77366962Y-41973176D01*
X77318851Y-41889441D01*
X77270471Y-41805433D01*
X77222578Y-41722463D01*
X77175929Y-41641843D01*
X77131284Y-41564882D01*
X77089400Y-41492894D01*
X77051034Y-41427188D01*
X77016944Y-41369077D01*
X76987888Y-41319871D01*
X76964624Y-41280881D01*
X76947909Y-41253420D01*
X76938501Y-41238797D01*
X76928237Y-41225251D01*
X76892000Y-41190646D01*
X76852532Y-41171902D01*
X76810069Y-41169094D01*
X76764844Y-41182301D01*
X76743177Y-41195743D01*
X76710816Y-41223114D01*
X76671824Y-41261769D01*
X76627258Y-41310331D01*
X76578173Y-41367427D01*
X76525626Y-41431682D01*
X76470671Y-41501720D01*
X76414366Y-41576167D01*
X76357765Y-41653647D01*
X76301926Y-41732787D01*
X76247903Y-41812212D01*
X76196753Y-41890546D01*
X76149532Y-41966414D01*
X76107296Y-42038442D01*
X76027888Y-42185405D01*
X75957360Y-42331108D01*
X75895143Y-42477826D01*
X75839096Y-42630615D01*
X75787080Y-42794527D01*
X75771399Y-42848828D01*
X75756395Y-42906195D01*
X75747093Y-42951566D01*
X75743485Y-42986767D01*
X75272201Y-42986767D01*
X75291813Y-42897730D01*
X75355275Y-42666917D01*
X75429580Y-42445091D01*
X75515286Y-42230633D01*
X75612951Y-42021925D01*
X75723132Y-41817348D01*
X75754342Y-41763984D01*
X75888903Y-41553017D01*
X76037298Y-41348334D01*
X76198436Y-41150909D01*
X76371226Y-40961716D01*
X76381779Y-40951357D01*
X77142861Y-40951357D01*
X77145969Y-40972238D01*
X77152688Y-40995904D01*
X77163451Y-41023091D01*
X77178694Y-41054535D01*
X77198851Y-41090971D01*
X77224357Y-41133136D01*
X77255646Y-41181766D01*
X77293152Y-41237597D01*
X77337310Y-41301364D01*
X77388554Y-41373804D01*
X77447319Y-41455653D01*
X77514040Y-41547647D01*
X77589150Y-41650521D01*
X77673084Y-41765013D01*
X77766277Y-41891857D01*
X77772590Y-41900444D01*
X77841858Y-41994526D01*
X77902439Y-42076438D01*
X77955132Y-42147122D01*
X78000738Y-42207519D01*
X78040055Y-42258570D01*
X78073885Y-42301215D01*
X78103026Y-42336397D01*
X78128279Y-42365055D01*
X78150442Y-42388131D01*
X78170316Y-42406567D01*
X78188701Y-42421302D01*
X78206396Y-42433278D01*
X78224200Y-42443436D01*
X78242914Y-42452717D01*
X78248600Y-42455362D01*
X78266098Y-42462681D01*
X78283529Y-42467875D01*
X78304164Y-42471382D01*
X78331274Y-42473641D01*
X78368130Y-42475088D01*
X78418002Y-42476162D01*
X78442424Y-42476549D01*
X78488739Y-42476763D01*
X78523368Y-42475840D01*
X78549510Y-42473552D01*
X78570362Y-42469671D01*
X78589125Y-42463969D01*
X78646198Y-42438864D01*
X78708202Y-42396889D01*
X78758590Y-42343527D01*
X78797472Y-42278679D01*
X78799108Y-42275148D01*
X78823261Y-42203322D01*
X78832771Y-42125432D01*
X78829612Y-42073404D01*
X80215664Y-42073404D01*
X80217362Y-42125432D01*
X80218309Y-42154427D01*
X80233586Y-42228674D01*
X80261171Y-42295225D01*
X80300736Y-42353158D01*
X80351957Y-42401554D01*
X80414507Y-42439492D01*
X80488060Y-42466051D01*
X80500681Y-42468786D01*
X80536808Y-42473514D01*
X80581281Y-42476523D01*
X80630009Y-42477816D01*
X80678902Y-42477394D01*
X80723869Y-42475261D01*
X80760819Y-42471420D01*
X80785662Y-42465871D01*
X80793164Y-42462907D01*
X80833596Y-42441496D01*
X80875102Y-42412071D01*
X80911047Y-42379216D01*
X80911340Y-42378903D01*
X80927259Y-42360372D01*
X80951554Y-42330146D01*
X80983360Y-42289403D01*
X81021814Y-42239320D01*
X81066049Y-42181072D01*
X81115200Y-42115837D01*
X81168404Y-42044791D01*
X81224794Y-41969112D01*
X81283505Y-41889976D01*
X81343674Y-41808560D01*
X81404434Y-41726041D01*
X81464921Y-41643595D01*
X81524270Y-41562400D01*
X81581616Y-41483631D01*
X81636094Y-41408467D01*
X81686839Y-41338083D01*
X81732986Y-41273657D01*
X81773670Y-41216364D01*
X81808026Y-41167383D01*
X81835189Y-41127890D01*
X81854294Y-41099062D01*
X81864476Y-41082075D01*
X81884364Y-41029216D01*
X81890334Y-40971834D01*
X81880239Y-40914615D01*
X81854190Y-40857898D01*
X81812298Y-40802025D01*
X81754675Y-40747333D01*
X81737840Y-40734663D01*
X81702063Y-40711074D01*
X81655279Y-40682720D01*
X81599760Y-40650796D01*
X81537775Y-40616496D01*
X81471595Y-40581012D01*
X81403490Y-40545541D01*
X81335730Y-40511274D01*
X81270585Y-40479408D01*
X81210326Y-40451134D01*
X81157223Y-40427648D01*
X81113546Y-40410143D01*
X81090950Y-40403048D01*
X81053773Y-40394988D01*
X81021267Y-40391682D01*
X80993052Y-40394160D01*
X80952987Y-40409156D01*
X80915683Y-40438544D01*
X80879678Y-40483272D01*
X80878057Y-40485955D01*
X80869110Y-40503319D01*
X80854378Y-40533804D01*
X80834456Y-40576086D01*
X80809941Y-40628839D01*
X80781428Y-40690738D01*
X80749514Y-40760459D01*
X80714793Y-40836676D01*
X80677863Y-40918065D01*
X80639318Y-41003301D01*
X80599755Y-41091059D01*
X80559770Y-41180014D01*
X80519958Y-41268841D01*
X80480914Y-41356215D01*
X80443236Y-41440811D01*
X80407519Y-41521305D01*
X80374358Y-41596371D01*
X80344350Y-41664685D01*
X80318091Y-41724921D01*
X80296175Y-41775756D01*
X80279200Y-41815863D01*
X80267760Y-41843918D01*
X80249578Y-41894714D01*
X80225978Y-41986527D01*
X80215664Y-42073404D01*
X78829612Y-42073404D01*
X78827650Y-42041097D01*
X78807910Y-41949938D01*
X78807696Y-41949198D01*
X78799978Y-41926312D01*
X78786563Y-41891175D01*
X78767342Y-41843530D01*
X78742206Y-41783124D01*
X78711045Y-41709700D01*
X78673749Y-41623005D01*
X78630209Y-41522782D01*
X78580313Y-41408776D01*
X78523954Y-41280733D01*
X78461021Y-41138397D01*
X78391405Y-40981513D01*
X78383975Y-40964797D01*
X78338667Y-40863030D01*
X78299235Y-40774938D01*
X78265093Y-40699447D01*
X78235659Y-40635481D01*
X78210347Y-40581966D01*
X78188573Y-40537828D01*
X78169754Y-40501991D01*
X78153305Y-40473382D01*
X78138642Y-40450925D01*
X78125181Y-40433546D01*
X78112337Y-40420169D01*
X78099527Y-40409721D01*
X78086166Y-40401127D01*
X78071671Y-40393312D01*
X78062565Y-40389211D01*
X78022070Y-40379441D01*
X77977719Y-40378914D01*
X77937269Y-40387940D01*
X77935758Y-40388540D01*
X77915158Y-40397872D01*
X77882868Y-40413699D01*
X77841204Y-40434800D01*
X77792479Y-40459959D01*
X77739009Y-40487956D01*
X77683107Y-40517573D01*
X77627090Y-40547591D01*
X77573270Y-40576793D01*
X77523963Y-40603960D01*
X77481484Y-40627872D01*
X77413919Y-40666793D01*
X77352642Y-40703047D01*
X77302911Y-40733915D01*
X77263227Y-40760536D01*
X77232088Y-40784050D01*
X77207995Y-40805597D01*
X77189448Y-40826316D01*
X77174945Y-40847348D01*
X77162989Y-40869831D01*
X77157848Y-40880957D01*
X77150858Y-40898060D01*
X77145740Y-40915003D01*
X77142930Y-40932524D01*
X77142861Y-40951357D01*
X76381779Y-40951357D01*
X76554577Y-40781729D01*
X76747398Y-40611921D01*
X76948598Y-40453267D01*
X77157087Y-40306740D01*
X77162312Y-40303493D01*
X78449047Y-40303493D01*
X78449506Y-40307253D01*
X78451411Y-40317942D01*
X78454687Y-40330033D01*
X78459860Y-40344501D01*
X78467457Y-40362319D01*
X78478003Y-40384461D01*
X78492026Y-40411902D01*
X78510052Y-40445615D01*
X78532607Y-40486575D01*
X78560217Y-40535755D01*
X78593409Y-40594129D01*
X78632710Y-40662672D01*
X78678645Y-40742357D01*
X78731741Y-40834159D01*
X78792525Y-40939051D01*
X78839566Y-41020182D01*
X78913986Y-41148502D01*
X78980961Y-41263882D01*
X79040956Y-41367045D01*
X79094433Y-41458714D01*
X79141857Y-41539612D01*
X79183691Y-41610463D01*
X79220397Y-41671989D01*
X79252440Y-41724914D01*
X79280283Y-41769961D01*
X79304390Y-41807853D01*
X79325224Y-41839313D01*
X79343248Y-41865064D01*
X79358925Y-41885830D01*
X79372720Y-41902334D01*
X79385096Y-41915298D01*
X79396516Y-41925447D01*
X79407443Y-41933502D01*
X79418342Y-41940188D01*
X79429675Y-41946228D01*
X79441906Y-41952344D01*
X79489551Y-41969400D01*
X79541631Y-41972700D01*
X79593034Y-41959878D01*
X79643428Y-41931024D01*
X79692481Y-41886225D01*
X79696346Y-41881873D01*
X79718511Y-41853779D01*
X79744806Y-41816587D01*
X79772264Y-41774629D01*
X79797919Y-41732238D01*
X79811371Y-41708934D01*
X79902571Y-41550708D01*
X79989506Y-41399481D01*
X80071892Y-41255756D01*
X80149446Y-41120037D01*
X80221885Y-40992829D01*
X80288926Y-40874636D01*
X80350286Y-40765961D01*
X80405682Y-40667310D01*
X80454830Y-40579184D01*
X80497447Y-40502090D01*
X80533251Y-40436531D01*
X80561957Y-40383010D01*
X80583283Y-40342033D01*
X80596946Y-40314102D01*
X80602662Y-40299723D01*
X80603677Y-40294801D01*
X80605325Y-40254307D01*
X80593977Y-40221489D01*
X80570186Y-40198072D01*
X80564380Y-40194891D01*
X80535210Y-40183165D01*
X80492751Y-40170120D01*
X80439228Y-40156202D01*
X80376865Y-40141858D01*
X80307887Y-40127535D01*
X80234516Y-40113679D01*
X80158977Y-40100737D01*
X80083493Y-40089155D01*
X80010290Y-40079379D01*
X79941590Y-40071857D01*
X79872601Y-40066457D01*
X79772146Y-40061604D01*
X79661940Y-40059057D01*
X79545557Y-40058752D01*
X79426576Y-40060627D01*
X79308573Y-40064617D01*
X79195125Y-40070659D01*
X79089808Y-40078690D01*
X78996200Y-40088646D01*
X78962634Y-40092951D01*
X78851587Y-40108604D01*
X78755849Y-40124655D01*
X78674652Y-40141404D01*
X78607230Y-40159153D01*
X78552817Y-40178202D01*
X78510646Y-40198853D01*
X78479949Y-40221407D01*
X78459962Y-40246164D01*
X78449917Y-40273425D01*
X78449047Y-40303493D01*
X77162312Y-40303493D01*
X77371773Y-40173314D01*
X77591565Y-40053963D01*
X77815373Y-39949660D01*
X77961752Y-39890373D01*
X78203844Y-39806304D01*
X78450468Y-39737419D01*
X78700857Y-39683688D01*
X78954241Y-39645084D01*
X79209851Y-39621579D01*
X79466918Y-39613143D01*
X79724673Y-39619749D01*
X79982347Y-39641369D01*
X80239171Y-39677973D01*
X80494377Y-39729534D01*
X80747195Y-39796023D01*
X80996856Y-39877413D01*
X81242591Y-39973674D01*
X81483631Y-40084778D01*
X81605078Y-40147120D01*
X81793594Y-40252858D01*
X81795898Y-40254307D01*
X81971612Y-40364832D01*
G37*
%TD*%
M02*
