%TF.GenerationSoftware,KiCad,Pcbnew,7.0.7*%
%TF.CreationDate,2024-03-24T23:16:09-05:00*%
%TF.ProjectId,lsm6dsoxCANEnabled,6c736d36-6473-46f7-9843-414e456e6162,rev?*%
%TF.SameCoordinates,Original*%
%TF.FileFunction,Copper,L1,Top*%
%TF.FilePolarity,Positive*%
%FSLAX46Y46*%
G04 Gerber Fmt 4.6, Leading zero omitted, Abs format (unit mm)*
G04 Created by KiCad (PCBNEW 7.0.7) date 2024-03-24 23:16:09*
%MOMM*%
%LPD*%
G01*
G04 APERTURE LIST*
G04 Aperture macros list*
%AMRoundRect*
0 Rectangle with rounded corners*
0 $1 Rounding radius*
0 $2 $3 $4 $5 $6 $7 $8 $9 X,Y pos of 4 corners*
0 Add a 4 corners polygon primitive as box body*
4,1,4,$2,$3,$4,$5,$6,$7,$8,$9,$2,$3,0*
0 Add four circle primitives for the rounded corners*
1,1,$1+$1,$2,$3*
1,1,$1+$1,$4,$5*
1,1,$1+$1,$6,$7*
1,1,$1+$1,$8,$9*
0 Add four rect primitives between the rounded corners*
20,1,$1+$1,$2,$3,$4,$5,0*
20,1,$1+$1,$4,$5,$6,$7,0*
20,1,$1+$1,$6,$7,$8,$9,0*
20,1,$1+$1,$8,$9,$2,$3,0*%
G04 Aperture macros list end*
%TA.AperFunction,SMDPad,CuDef*%
%ADD10RoundRect,0.237500X-0.237500X0.300000X-0.237500X-0.300000X0.237500X-0.300000X0.237500X0.300000X0*%
%TD*%
%TA.AperFunction,SMDPad,CuDef*%
%ADD11R,1.500000X2.000000*%
%TD*%
%TA.AperFunction,SMDPad,CuDef*%
%ADD12R,3.800000X2.000000*%
%TD*%
%TA.AperFunction,SMDPad,CuDef*%
%ADD13RoundRect,0.250000X0.475000X-0.337500X0.475000X0.337500X-0.475000X0.337500X-0.475000X-0.337500X0*%
%TD*%
%TA.AperFunction,SMDPad,CuDef*%
%ADD14RoundRect,0.237500X-0.237500X0.250000X-0.237500X-0.250000X0.237500X-0.250000X0.237500X0.250000X0*%
%TD*%
%TA.AperFunction,SMDPad,CuDef*%
%ADD15R,1.800000X2.100000*%
%TD*%
%TA.AperFunction,SMDPad,CuDef*%
%ADD16RoundRect,0.237500X-0.300000X-0.237500X0.300000X-0.237500X0.300000X0.237500X-0.300000X0.237500X0*%
%TD*%
%TA.AperFunction,SMDPad,CuDef*%
%ADD17RoundRect,0.237500X0.300000X0.237500X-0.300000X0.237500X-0.300000X-0.237500X0.300000X-0.237500X0*%
%TD*%
%TA.AperFunction,SMDPad,CuDef*%
%ADD18RoundRect,0.150000X0.150000X-0.825000X0.150000X0.825000X-0.150000X0.825000X-0.150000X-0.825000X0*%
%TD*%
%TA.AperFunction,SMDPad,CuDef*%
%ADD19RoundRect,0.075000X-0.662500X-0.075000X0.662500X-0.075000X0.662500X0.075000X-0.662500X0.075000X0*%
%TD*%
%TA.AperFunction,SMDPad,CuDef*%
%ADD20RoundRect,0.075000X-0.075000X-0.662500X0.075000X-0.662500X0.075000X0.662500X-0.075000X0.662500X0*%
%TD*%
%TA.AperFunction,SMDPad,CuDef*%
%ADD21RoundRect,0.237500X0.237500X-0.250000X0.237500X0.250000X-0.237500X0.250000X-0.237500X-0.250000X0*%
%TD*%
%TA.AperFunction,ComponentPad*%
%ADD22R,1.700000X1.700000*%
%TD*%
%TA.AperFunction,ComponentPad*%
%ADD23O,1.700000X1.700000*%
%TD*%
%TA.AperFunction,ComponentPad*%
%ADD24R,2.600000X2.600000*%
%TD*%
%TA.AperFunction,ComponentPad*%
%ADD25C,2.600000*%
%TD*%
%TA.AperFunction,ComponentPad*%
%ADD26C,0.900000*%
%TD*%
%TA.AperFunction,ComponentPad*%
%ADD27C,8.000000*%
%TD*%
%TA.AperFunction,SMDPad,CuDef*%
%ADD28RoundRect,0.237500X0.237500X-0.300000X0.237500X0.300000X-0.237500X0.300000X-0.237500X-0.300000X0*%
%TD*%
%TA.AperFunction,SMDPad,CuDef*%
%ADD29RoundRect,0.237500X0.250000X0.237500X-0.250000X0.237500X-0.250000X-0.237500X0.250000X-0.237500X0*%
%TD*%
%TA.AperFunction,SMDPad,CuDef*%
%ADD30RoundRect,0.087500X0.225000X0.087500X-0.225000X0.087500X-0.225000X-0.087500X0.225000X-0.087500X0*%
%TD*%
%TA.AperFunction,SMDPad,CuDef*%
%ADD31RoundRect,0.087500X0.087500X0.225000X-0.087500X0.225000X-0.087500X-0.225000X0.087500X-0.225000X0*%
%TD*%
%TA.AperFunction,SMDPad,CuDef*%
%ADD32RoundRect,0.237500X0.237500X-0.287500X0.237500X0.287500X-0.237500X0.287500X-0.237500X-0.287500X0*%
%TD*%
%TA.AperFunction,SMDPad,CuDef*%
%ADD33R,1.300000X1.550000*%
%TD*%
%TA.AperFunction,SMDPad,CuDef*%
%ADD34R,2.500000X1.250000*%
%TD*%
%TA.AperFunction,ViaPad*%
%ADD35C,0.800000*%
%TD*%
%TA.AperFunction,Conductor*%
%ADD36C,1.000000*%
%TD*%
%TA.AperFunction,Conductor*%
%ADD37C,0.100000*%
%TD*%
%TA.AperFunction,Conductor*%
%ADD38C,0.250000*%
%TD*%
%TA.AperFunction,Conductor*%
%ADD39C,0.300000*%
%TD*%
%TA.AperFunction,Conductor*%
%ADD40C,0.200000*%
%TD*%
G04 APERTURE END LIST*
D10*
%TO.P,C4,1*%
%TO.N,+5V*%
X86700000Y-46837500D03*
%TO.P,C4,2*%
%TO.N,GND*%
X86700000Y-48562500D03*
%TD*%
D11*
%TO.P,U5,1,GND*%
%TO.N,GND*%
X93400000Y-47600000D03*
D12*
%TO.P,U5,2,VO*%
%TO.N,+3.3V*%
X91100000Y-53900000D03*
D11*
X91100000Y-47600000D03*
%TO.P,U5,3,VI*%
%TO.N,+5V*%
X88800000Y-47600000D03*
%TD*%
D13*
%TO.P,C5,1*%
%TO.N,+3.3V*%
X86450000Y-52287500D03*
%TO.P,C5,2*%
%TO.N,GND*%
X86450000Y-50212500D03*
%TD*%
D14*
%TO.P,R1,1*%
%TO.N,+3.3V*%
X80400000Y-36237500D03*
%TO.P,R1,2*%
%TO.N,I2C1_SCL*%
X80400000Y-38062500D03*
%TD*%
D15*
%TO.P,Y1,1,1*%
%TO.N,HSE_In*%
X66400000Y-43800000D03*
%TO.P,Y1,2,2*%
%TO.N,GND*%
X66400000Y-46700000D03*
%TO.P,Y1,3,3*%
%TO.N,Net-(C3-Pad1)*%
X68700000Y-46700000D03*
%TO.P,Y1,4,4*%
%TO.N,GND*%
X68700000Y-43800000D03*
%TD*%
D16*
%TO.P,C13,1*%
%TO.N,+3.3V*%
X83387500Y-32300000D03*
%TO.P,C13,2*%
%TO.N,GND*%
X85112500Y-32300000D03*
%TD*%
D17*
%TO.P,C7,1*%
%TO.N,+3.3V*%
X82187500Y-51050000D03*
%TO.P,C7,2*%
%TO.N,GND*%
X80462500Y-51050000D03*
%TD*%
D18*
%TO.P,U2,1,TXD*%
%TO.N,CAN_TX*%
X90095000Y-37675000D03*
%TO.P,U2,2,GND*%
%TO.N,GND*%
X91365000Y-37675000D03*
%TO.P,U2,3,VCC*%
%TO.N,+5V*%
X92635000Y-37675000D03*
%TO.P,U2,4,RXD*%
%TO.N,CAN_RX*%
X93905000Y-37675000D03*
%TO.P,U2,5,NC*%
%TO.N,unconnected-(U2-NC-Pad5)*%
X93905000Y-32725000D03*
%TO.P,U2,6,CANL*%
%TO.N,CAN_IN-*%
X92635000Y-32725000D03*
%TO.P,U2,7,CANH*%
%TO.N,CAN_IN+*%
X91365000Y-32725000D03*
%TO.P,U2,8,S*%
%TO.N,Silent_Mode*%
X90095000Y-32725000D03*
%TD*%
D19*
%TO.P,U3,1,VBAT*%
%TO.N,+3.3V*%
X75475000Y-41800000D03*
%TO.P,U3,2,PC13*%
%TO.N,unconnected-(U3-PC13-Pad2)*%
X75475000Y-42300000D03*
%TO.P,U3,3,PC14*%
%TO.N,unconnected-(U3-PC14-Pad3)*%
X75475000Y-42800000D03*
%TO.P,U3,4,PC15*%
%TO.N,unconnected-(U3-PC15-Pad4)*%
X75475000Y-43300000D03*
%TO.P,U3,5,PD0*%
%TO.N,HSE_In*%
X75475000Y-43800000D03*
%TO.P,U3,6,PD1*%
%TO.N,HSE_OUT*%
X75475000Y-44300000D03*
%TO.P,U3,7,NRST*%
%TO.N,NRST*%
X75475000Y-44800000D03*
%TO.P,U3,8,VSSA*%
%TO.N,GND*%
X75475000Y-45300000D03*
%TO.P,U3,9,VDDA*%
%TO.N,+3.3V*%
X75475000Y-45800000D03*
%TO.P,U3,10,PA0*%
%TO.N,unconnected-(U3-PA0-Pad10)*%
X75475000Y-46300000D03*
%TO.P,U3,11,PA1*%
%TO.N,unconnected-(U3-PA1-Pad11)*%
X75475000Y-46800000D03*
%TO.P,U3,12,PA2*%
%TO.N,unconnected-(U3-PA2-Pad12)*%
X75475000Y-47300000D03*
D20*
%TO.P,U3,13,PA3*%
%TO.N,GPIO1*%
X76887500Y-48712500D03*
%TO.P,U3,14,PA4*%
%TO.N,GPIO2*%
X77387500Y-48712500D03*
%TO.P,U3,15,PA5*%
%TO.N,unconnected-(U3-PA5-Pad15)*%
X77887500Y-48712500D03*
%TO.P,U3,16,PA6*%
%TO.N,SDO*%
X78387500Y-48712500D03*
%TO.P,U3,17,PA7*%
%TO.N,unconnected-(U3-PA7-Pad17)*%
X78887500Y-48712500D03*
%TO.P,U3,18,PB0*%
%TO.N,unconnected-(U3-PB0-Pad18)*%
X79387500Y-48712500D03*
%TO.P,U3,19,PB1*%
%TO.N,unconnected-(U3-PB1-Pad19)*%
X79887500Y-48712500D03*
%TO.P,U3,20,PB2*%
%TO.N,unconnected-(U3-PB2-Pad20)*%
X80387500Y-48712500D03*
%TO.P,U3,21,PB10*%
%TO.N,unconnected-(U3-PB10-Pad21)*%
X80887500Y-48712500D03*
%TO.P,U3,22,PB11*%
%TO.N,unconnected-(U3-PB11-Pad22)*%
X81387500Y-48712500D03*
%TO.P,U3,23,VSS*%
%TO.N,GND*%
X81887500Y-48712500D03*
%TO.P,U3,24,VDD*%
%TO.N,+3.3V*%
X82387500Y-48712500D03*
D19*
%TO.P,U3,25,PB12*%
%TO.N,unconnected-(U3-PB12-Pad25)*%
X83800000Y-47300000D03*
%TO.P,U3,26,PB13*%
%TO.N,unconnected-(U3-PB13-Pad26)*%
X83800000Y-46800000D03*
%TO.P,U3,27,PB14*%
%TO.N,unconnected-(U3-PB14-Pad27)*%
X83800000Y-46300000D03*
%TO.P,U3,28,PB15*%
%TO.N,unconnected-(U3-PB15-Pad28)*%
X83800000Y-45800000D03*
%TO.P,U3,29,PA8*%
%TO.N,unconnected-(U3-PA8-Pad29)*%
X83800000Y-45300000D03*
%TO.P,U3,30,PA9*%
%TO.N,Silent_Mode*%
X83800000Y-44800000D03*
%TO.P,U3,31,PA10*%
%TO.N,unconnected-(U3-PA10-Pad31)*%
X83800000Y-44300000D03*
%TO.P,U3,32,PA11*%
%TO.N,CAN_RX*%
X83800000Y-43800000D03*
%TO.P,U3,33,PA12*%
%TO.N,CAN_TX*%
X83800000Y-43300000D03*
%TO.P,U3,34,PA13*%
%TO.N,SYS_JTMS_SWDIO*%
X83800000Y-42800000D03*
%TO.P,U3,35,VSS*%
%TO.N,GND*%
X83800000Y-42300000D03*
%TO.P,U3,36,VDD*%
%TO.N,+3.3V*%
X83800000Y-41800000D03*
D20*
%TO.P,U3,37,PA14*%
%TO.N,SYS_JTCK_SWCL*%
X82387500Y-40387500D03*
%TO.P,U3,38,PA15*%
%TO.N,unconnected-(U3-PA15-Pad38)*%
X81887500Y-40387500D03*
%TO.P,U3,39,PB3*%
%TO.N,SYS_JTDO_TRACESWO*%
X81387500Y-40387500D03*
%TO.P,U3,40,PB4*%
%TO.N,INT1*%
X80887500Y-40387500D03*
%TO.P,U3,41,PB5*%
%TO.N,INT2*%
X80387500Y-40387500D03*
%TO.P,U3,42,PB6*%
%TO.N,I2C1_SCL*%
X79887500Y-40387500D03*
%TO.P,U3,43,PB7*%
%TO.N,I2C1_SDA*%
X79387500Y-40387500D03*
%TO.P,U3,44,BOOT0*%
%TO.N,BOOT0*%
X78887500Y-40387500D03*
%TO.P,U3,45,PB8*%
%TO.N,unconnected-(U3-PB8-Pad45)*%
X78387500Y-40387500D03*
%TO.P,U3,46,PB9*%
%TO.N,CS*%
X77887500Y-40387500D03*
%TO.P,U3,47,VSS*%
%TO.N,GND*%
X77387500Y-40387500D03*
%TO.P,U3,48,VDD*%
%TO.N,+3.3V*%
X76887500Y-40387500D03*
%TD*%
D16*
%TO.P,C2,1*%
%TO.N,HSE_In*%
X66837500Y-41550000D03*
%TO.P,C2,2*%
%TO.N,GND*%
X68562500Y-41550000D03*
%TD*%
D21*
%TO.P,R4,1*%
%TO.N,CAN_IN+*%
X102050000Y-34562500D03*
%TO.P,R4,2*%
%TO.N,CAN_IN-*%
X102050000Y-32737500D03*
%TD*%
D22*
%TO.P,J4,1,Pin_1*%
%TO.N,+3.3V*%
X97210000Y-38730000D03*
D23*
%TO.P,J4,2,Pin_2*%
%TO.N,SYS_JTMS_SWDIO*%
X99750000Y-38730000D03*
%TO.P,J4,3,Pin_3*%
%TO.N,GND*%
X97210000Y-41270000D03*
%TO.P,J4,4,Pin_4*%
%TO.N,SYS_JTCK_SWCL*%
X99750000Y-41270000D03*
%TO.P,J4,5,Pin_5*%
%TO.N,GND*%
X97210000Y-43810000D03*
%TO.P,J4,6,Pin_6*%
%TO.N,SYS_JTDO_TRACESWO*%
X99750000Y-43810000D03*
%TO.P,J4,7,Pin_7*%
%TO.N,+5V*%
X97210000Y-46350000D03*
%TO.P,J4,8,Pin_8*%
%TO.N,unconnected-(J4-Pin_8-Pad8)*%
X99750000Y-46350000D03*
%TO.P,J4,9,Pin_9*%
%TO.N,GND*%
X97210000Y-48890000D03*
%TO.P,J4,10,Pin_10*%
%TO.N,NRST*%
X99750000Y-48890000D03*
%TD*%
D24*
%TO.P,J3,1,Pin_1*%
%TO.N,GND*%
X84700000Y-61600000D03*
D25*
%TO.P,J3,2,Pin_2*%
%TO.N,+5V*%
X89700000Y-61600000D03*
%TD*%
D24*
%TO.P,J2,1,Pin_1*%
%TO.N,GPIO1*%
X69000000Y-61600000D03*
D25*
%TO.P,J2,2,Pin_2*%
%TO.N,GPIO2*%
X74000000Y-61600000D03*
%TD*%
D26*
%TO.P,H2,1*%
%TO.N,N/C*%
X57028680Y-61671320D03*
X57907360Y-59550000D03*
X57907360Y-63792640D03*
X60028680Y-58671320D03*
D27*
X60028680Y-61671320D03*
D26*
X60028680Y-64671320D03*
X62150000Y-59550000D03*
X62150000Y-63792640D03*
X63028680Y-61671320D03*
%TD*%
D28*
%TO.P,C8,1*%
%TO.N,+3.3V*%
X77250000Y-37962500D03*
%TO.P,C8,2*%
%TO.N,GND*%
X77250000Y-36237500D03*
%TD*%
D26*
%TO.P,H1,1*%
%TO.N,N/C*%
X57028680Y-25421320D03*
X57907360Y-23300000D03*
X57907360Y-27542640D03*
X60028680Y-22421320D03*
D27*
X60028680Y-25421320D03*
D26*
X60028680Y-28421320D03*
X62150000Y-23300000D03*
X62150000Y-27542640D03*
X63028680Y-25421320D03*
%TD*%
D14*
%TO.P,R2,1*%
%TO.N,+3.3V*%
X78850000Y-36237500D03*
%TO.P,R2,2*%
%TO.N,I2C1_SDA*%
X78850000Y-38062500D03*
%TD*%
D24*
%TO.P,J5,1,Pin_1*%
%TO.N,CAN_IN-*%
X85600000Y-25045000D03*
D25*
%TO.P,J5,2,Pin_2*%
%TO.N,CAN_IN+*%
X80600000Y-25045000D03*
%TO.P,J5,3,Pin_3*%
X75600000Y-25045000D03*
%TO.P,J5,4,Pin_4*%
%TO.N,CAN_IN-*%
X70600000Y-25045000D03*
%TD*%
D17*
%TO.P,C1,1*%
%TO.N,NRST*%
X60462500Y-46200000D03*
%TO.P,C1,2*%
%TO.N,GND*%
X58737500Y-46200000D03*
%TD*%
D29*
%TO.P,R3,1*%
%TO.N,HSE_OUT*%
X68662500Y-48850000D03*
%TO.P,R3,2*%
%TO.N,Net-(C3-Pad1)*%
X66837500Y-48850000D03*
%TD*%
D30*
%TO.P,U1,1,SD0*%
%TO.N,SDO*%
X87612500Y-35700000D03*
%TO.P,U1,2,SDX*%
%TO.N,GND*%
X87612500Y-35200000D03*
%TO.P,U1,3,SCX*%
X87612500Y-34700000D03*
%TO.P,U1,4,INT1*%
%TO.N,INT1*%
X87612500Y-34200000D03*
D31*
%TO.P,U1,5,VDDIO*%
%TO.N,+3.3V*%
X86950000Y-34037500D03*
%TO.P,U1,6,GND*%
%TO.N,GND*%
X86450000Y-34037500D03*
%TO.P,U1,7,GND*%
X85950000Y-34037500D03*
D30*
%TO.P,U1,8,VDD*%
%TO.N,+3.3V*%
X85287500Y-34200000D03*
%TO.P,U1,9,INT2*%
%TO.N,INT2*%
X85287500Y-34700000D03*
%TO.P,U1,10,OCS_AUX*%
%TO.N,unconnected-(U1-OCS_AUX-Pad10)*%
X85287500Y-35200000D03*
%TO.P,U1,11,SDO_AUX*%
%TO.N,unconnected-(U1-SDO_AUX-Pad11)*%
X85287500Y-35700000D03*
D31*
%TO.P,U1,12,CS*%
%TO.N,CS*%
X85950000Y-35862500D03*
%TO.P,U1,13,SCL*%
%TO.N,I2C1_SCL*%
X86450000Y-35862500D03*
%TO.P,U1,14,SDA*%
%TO.N,I2C1_SDA*%
X86950000Y-35862500D03*
%TD*%
D17*
%TO.P,C6,1*%
%TO.N,+3.3V*%
X73312500Y-42100000D03*
%TO.P,C6,2*%
%TO.N,GND*%
X71587500Y-42100000D03*
%TD*%
D28*
%TO.P,C11,1*%
%TO.N,+3.3V*%
X73350000Y-50112500D03*
%TO.P,C11,2*%
%TO.N,GND*%
X73350000Y-48387500D03*
%TD*%
D10*
%TO.P,C9,1*%
%TO.N,+3.3V*%
X86600000Y-40987500D03*
%TO.P,C9,2*%
%TO.N,GND*%
X86600000Y-42712500D03*
%TD*%
D32*
%TO.P,D1,1,K*%
%TO.N,Net-(D1-K)*%
X96000000Y-54625000D03*
%TO.P,D1,2,A*%
%TO.N,+3.3V*%
X96000000Y-52875000D03*
%TD*%
D26*
%TO.P,H4,1*%
%TO.N,N/C*%
X94698680Y-61681320D03*
X95577360Y-59560000D03*
X95577360Y-63802640D03*
X97698680Y-58681320D03*
D27*
X97698680Y-61681320D03*
D26*
X97698680Y-64681320D03*
X99820000Y-59560000D03*
X99820000Y-63802640D03*
X100698680Y-61681320D03*
%TD*%
D21*
%TO.P,R5,1*%
%TO.N,Net-(D1-K)*%
X97650000Y-54662500D03*
%TO.P,R5,2*%
%TO.N,GND*%
X97650000Y-52837500D03*
%TD*%
D28*
%TO.P,C12,1*%
%TO.N,+3.3V*%
X71800000Y-50112500D03*
%TO.P,C12,2*%
%TO.N,GND*%
X71800000Y-48387500D03*
%TD*%
D26*
%TO.P,H3,1*%
%TO.N,N/C*%
X94718680Y-25421320D03*
X95597360Y-23300000D03*
X95597360Y-27542640D03*
X97718680Y-22421320D03*
D27*
X97718680Y-25421320D03*
D26*
X97718680Y-28421320D03*
X99840000Y-23300000D03*
X99840000Y-27542640D03*
X100718680Y-25421320D03*
%TD*%
D17*
%TO.P,C10,1*%
%TO.N,+3.3V*%
X82200000Y-52600000D03*
%TO.P,C10,2*%
%TO.N,GND*%
X80475000Y-52600000D03*
%TD*%
%TO.P,C3,1*%
%TO.N,Net-(C3-Pad1)*%
X68662500Y-50350000D03*
%TO.P,C3,2*%
%TO.N,GND*%
X66937500Y-50350000D03*
%TD*%
D33*
%TO.P,SW1,1,1*%
%TO.N,GND*%
X57050000Y-56030000D03*
X57050000Y-48070000D03*
%TO.P,SW1,2,2*%
%TO.N,NRST*%
X61550000Y-56030000D03*
X61550000Y-48070000D03*
%TD*%
D17*
%TO.P,C14,1*%
%TO.N,+3.3V*%
X88412500Y-32300000D03*
%TO.P,C14,2*%
%TO.N,GND*%
X86687500Y-32300000D03*
%TD*%
D34*
%TO.P,SW2,1,A*%
%TO.N,+3.3V*%
X59350000Y-32350000D03*
%TO.P,SW2,2,B*%
%TO.N,BOOT0*%
X59350000Y-34850000D03*
%TO.P,SW2,3,C*%
%TO.N,GND*%
X59350000Y-37350000D03*
%TD*%
D22*
%TO.P,J1,1,Pin_1*%
%TO.N,CAN_IN+*%
X98200000Y-34925000D03*
D23*
%TO.P,J1,2,Pin_2*%
%TO.N,CAN_IN-*%
X98200000Y-32385000D03*
%TD*%
D35*
%TO.N,GND*%
X94700000Y-43450000D03*
%TO.N,+5V*%
X94150000Y-45000000D03*
%TO.N,GND*%
X85150000Y-48550000D03*
X84950000Y-50050000D03*
X93350000Y-49100000D03*
%TO.N,+3.3V*%
X85850000Y-55100000D03*
X85300000Y-53950000D03*
%TO.N,+5V*%
X89050000Y-45750000D03*
%TO.N,GND*%
X93400000Y-45900000D03*
%TO.N,NRST*%
X101200000Y-55250000D03*
X101450500Y-52626089D03*
%TO.N,GND*%
X79250000Y-51000000D03*
X79350000Y-52600000D03*
X95700000Y-42250000D03*
X88700000Y-35350000D03*
X71600000Y-41000000D03*
X84700000Y-58550000D03*
X58700000Y-44950000D03*
X88650000Y-34400000D03*
X70400000Y-43900000D03*
X84700000Y-64850000D03*
X80950000Y-61600000D03*
X81200000Y-47200000D03*
X99250000Y-52800000D03*
X65850000Y-50300000D03*
X64950000Y-46900000D03*
X77024982Y-44866761D03*
X86700000Y-31200000D03*
X55450000Y-48050000D03*
X87600000Y-42750000D03*
X97200000Y-50750000D03*
X68500000Y-40500000D03*
X61900000Y-37350000D03*
X85100000Y-31150000D03*
X77150000Y-34950000D03*
X91350000Y-35950000D03*
X55500000Y-56100000D03*
X77596017Y-39139222D03*
%TO.N,+5V*%
X92950000Y-61600000D03*
X92750000Y-36050000D03*
X89700000Y-58550000D03*
X89700000Y-64800000D03*
%TO.N,+3.3V*%
X78750000Y-34950000D03*
X82300000Y-32300000D03*
X81650000Y-46350000D03*
X80400000Y-35000000D03*
X84000000Y-30450000D03*
X83400000Y-51100000D03*
X85500000Y-40200000D03*
X76850000Y-45800000D03*
X62050000Y-32350000D03*
X83300000Y-52650000D03*
X76300000Y-38100000D03*
X73350000Y-40950000D03*
%TO.N,SYS_JTCK_SWCL*%
X83926793Y-39126793D03*
%TO.N,SYS_JTDO_TRACESWO*%
X98700000Y-42600000D03*
X88850000Y-41050000D03*
X80796892Y-41674305D03*
X86550000Y-39726293D03*
%TO.N,CS*%
X84650000Y-36950000D03*
X82800000Y-35450000D03*
%TO.N,INT1*%
X84250000Y-35850000D03*
X83500000Y-36900000D03*
X82700000Y-38750000D03*
X88760941Y-33457001D03*
%TO.N,INT2*%
X81700000Y-38662000D03*
X81700000Y-37463000D03*
%TD*%
D36*
%TO.N,GND*%
X95060000Y-43810000D02*
X94700000Y-43450000D01*
X97210000Y-43810000D02*
X95060000Y-43810000D01*
%TO.N,+5V*%
X95500000Y-46350000D02*
X97210000Y-46350000D01*
X94150000Y-45000000D02*
X95500000Y-46350000D01*
%TO.N,+3.3V*%
X95725000Y-52875000D02*
X94700000Y-53900000D01*
X94700000Y-53900000D02*
X91100000Y-53900000D01*
X96000000Y-52875000D02*
X95725000Y-52875000D01*
%TO.N,GND*%
X85162500Y-48562500D02*
X85150000Y-48550000D01*
X86700000Y-48562500D02*
X85162500Y-48562500D01*
X85112500Y-50212500D02*
X84950000Y-50050000D01*
X86450000Y-50212500D02*
X85112500Y-50212500D01*
%TO.N,+3.3V*%
X91100000Y-47600000D02*
X91100000Y-53900000D01*
%TO.N,GND*%
X93400000Y-49050000D02*
X93350000Y-49100000D01*
X93400000Y-47600000D02*
X93400000Y-49050000D01*
%TO.N,+3.3V*%
X87050000Y-53900000D02*
X85850000Y-55100000D01*
X91100000Y-53900000D02*
X87050000Y-53900000D01*
X86537500Y-52200000D02*
X86450000Y-52287500D01*
X89400000Y-52200000D02*
X86537500Y-52200000D01*
X91100000Y-53900000D02*
X89400000Y-52200000D01*
X86450000Y-52800000D02*
X85300000Y-53950000D01*
X86450000Y-52287500D02*
X86450000Y-52800000D01*
%TO.N,GND*%
X86700000Y-49962500D02*
X86450000Y-50212500D01*
X86700000Y-48562500D02*
X86700000Y-49962500D01*
%TO.N,+5V*%
X88800000Y-46000000D02*
X89050000Y-45750000D01*
X88800000Y-47600000D02*
X88800000Y-46000000D01*
X88800000Y-47600000D02*
X88037500Y-46837500D01*
X88037500Y-46837500D02*
X86700000Y-46837500D01*
%TO.N,GND*%
X93400000Y-47600000D02*
X93400000Y-45900000D01*
%TO.N,+3.3V*%
X91100000Y-44840000D02*
X91100000Y-47600000D01*
X97210000Y-38730000D02*
X91100000Y-44840000D01*
D37*
%TO.N,NRST*%
X61930000Y-56030000D02*
X61550000Y-56030000D01*
X77273511Y-44266761D02*
X77650000Y-44643250D01*
X98968680Y-57481320D02*
X82968680Y-57481320D01*
D38*
X61550000Y-47287500D02*
X60462500Y-46200000D01*
D37*
X75650000Y-64800000D02*
X69200000Y-64800000D01*
D38*
X61550000Y-48070000D02*
X61550000Y-56030000D01*
D37*
X82968680Y-57481320D02*
X75650000Y-64800000D01*
X69200000Y-64800000D02*
X66550000Y-62150000D01*
X74350000Y-50123591D02*
X74350000Y-50300000D01*
X68620000Y-56030000D02*
X61550000Y-56030000D01*
X77650000Y-46823591D02*
X74350000Y-50123591D01*
X99750000Y-50925589D02*
X101450500Y-52626089D01*
X99750000Y-48890000D02*
X99750000Y-50925589D01*
X66550000Y-62150000D02*
X66550000Y-60650000D01*
D38*
X61550000Y-48070000D02*
X61550000Y-47287500D01*
D37*
X76243214Y-44800000D02*
X76776453Y-44266761D01*
X77650000Y-44643250D02*
X77650000Y-46823591D01*
X101200000Y-55250000D02*
X98968680Y-57481320D01*
X66550000Y-60650000D02*
X61930000Y-56030000D01*
X76776453Y-44266761D02*
X77273511Y-44266761D01*
X74350000Y-50300000D02*
X68620000Y-56030000D01*
X75475000Y-44800000D02*
X76243214Y-44800000D01*
D38*
%TO.N,HSE_In*%
X72000000Y-43800000D02*
X75475000Y-43800000D01*
X66837500Y-43362500D02*
X66400000Y-43800000D01*
X70650000Y-42450000D02*
X72000000Y-43800000D01*
X66837500Y-41550000D02*
X67737500Y-42450000D01*
X66837500Y-41550000D02*
X66837500Y-43362500D01*
X67737500Y-42450000D02*
X70650000Y-42450000D01*
D39*
%TO.N,GND*%
X85112500Y-32300000D02*
X85950000Y-33137500D01*
D38*
X68562500Y-40562500D02*
X68500000Y-40500000D01*
D40*
X80475000Y-52600000D02*
X80475000Y-51062500D01*
X81887500Y-48712500D02*
X81887500Y-47887500D01*
D38*
X65150000Y-46700000D02*
X64950000Y-46900000D01*
D40*
X91365000Y-35965000D02*
X91350000Y-35950000D01*
D38*
X77250000Y-36237500D02*
X77250000Y-35050000D01*
X68700000Y-43800000D02*
X70300000Y-43800000D01*
D40*
X80462500Y-50834619D02*
X80462500Y-51050000D01*
D36*
X99212500Y-52837500D02*
X99250000Y-52800000D01*
D40*
X77387500Y-40387500D02*
X77387500Y-39347739D01*
D38*
X57050000Y-47887500D02*
X58737500Y-46200000D01*
X55470000Y-48070000D02*
X55450000Y-48050000D01*
X58737500Y-44987500D02*
X58700000Y-44950000D01*
D36*
X84700000Y-61600000D02*
X84700000Y-64850000D01*
D38*
X74150000Y-45300000D02*
X75475000Y-45300000D01*
D40*
X91365000Y-37675000D02*
X91365000Y-35965000D01*
X80475000Y-51062500D02*
X80462500Y-51050000D01*
D36*
X84700000Y-61600000D02*
X84700000Y-58550000D01*
D38*
X57050000Y-56030000D02*
X55570000Y-56030000D01*
X75475000Y-45300000D02*
X76395405Y-45300000D01*
X71587500Y-41012500D02*
X71600000Y-41000000D01*
X57050000Y-48070000D02*
X55470000Y-48070000D01*
D40*
X77387500Y-39347739D02*
X77596017Y-39139222D01*
D38*
X65900000Y-50350000D02*
X65850000Y-50300000D01*
D40*
X86187500Y-42300000D02*
X83800000Y-42300000D01*
D38*
X57050000Y-48070000D02*
X57050000Y-47887500D01*
X71800000Y-48387500D02*
X71800000Y-47650000D01*
D39*
X88650000Y-34400000D02*
X88650000Y-35300000D01*
D36*
X97210000Y-41270000D02*
X96680000Y-41270000D01*
D38*
X71587500Y-42100000D02*
X71587500Y-41012500D01*
D39*
X86687500Y-32300000D02*
X86687500Y-31212500D01*
X86687500Y-31212500D02*
X86700000Y-31200000D01*
D38*
X68700000Y-43950000D02*
X66400000Y-46250000D01*
X71800000Y-48387500D02*
X73350000Y-48387500D01*
D40*
X79300000Y-51050000D02*
X79250000Y-51000000D01*
D39*
X87612500Y-35200000D02*
X88550000Y-35200000D01*
X85112500Y-31162500D02*
X85100000Y-31150000D01*
D40*
X87562500Y-42712500D02*
X87600000Y-42750000D01*
D38*
X70300000Y-43800000D02*
X70400000Y-43900000D01*
X76395405Y-45300000D02*
X76828644Y-44866761D01*
D40*
X81887500Y-47887500D02*
X81200000Y-47200000D01*
D39*
X85112500Y-32300000D02*
X85112500Y-31162500D01*
D38*
X68562500Y-41550000D02*
X68562500Y-40562500D01*
D40*
X86600000Y-42712500D02*
X86187500Y-42300000D01*
X59350000Y-37350000D02*
X61900000Y-37350000D01*
D36*
X97650000Y-52837500D02*
X99212500Y-52837500D01*
X97210000Y-48890000D02*
X97210000Y-50740000D01*
D38*
X66400000Y-46250000D02*
X66400000Y-46700000D01*
D40*
X80475000Y-52600000D02*
X79350000Y-52600000D01*
D38*
X66937500Y-50350000D02*
X65900000Y-50350000D01*
D39*
X88350000Y-34700000D02*
X88650000Y-34400000D01*
D36*
X84700000Y-61600000D02*
X80950000Y-61600000D01*
D38*
X55570000Y-56030000D02*
X55500000Y-56100000D01*
D39*
X85950000Y-33137500D02*
X85950000Y-34037500D01*
D36*
X97210000Y-43810000D02*
X97210000Y-41270000D01*
D38*
X77250000Y-35050000D02*
X77150000Y-34950000D01*
D39*
X86450000Y-32537500D02*
X86687500Y-32300000D01*
D40*
X80462500Y-51050000D02*
X79300000Y-51050000D01*
D39*
X88650000Y-35300000D02*
X88700000Y-35350000D01*
D38*
X66400000Y-46700000D02*
X65150000Y-46700000D01*
D40*
X86600000Y-42712500D02*
X87562500Y-42712500D01*
D39*
X88550000Y-35200000D02*
X88700000Y-35350000D01*
D38*
X76828644Y-44866761D02*
X77024982Y-44866761D01*
X71800000Y-47650000D02*
X74150000Y-45300000D01*
D39*
X86450000Y-34037500D02*
X86450000Y-32537500D01*
D38*
X57050000Y-48070000D02*
X57050000Y-56030000D01*
D40*
X81887500Y-49409619D02*
X80462500Y-50834619D01*
X81887500Y-48712500D02*
X81887500Y-49409619D01*
D38*
X68700000Y-43800000D02*
X68700000Y-43950000D01*
D36*
X96680000Y-41270000D02*
X95700000Y-42250000D01*
D39*
X87612500Y-34700000D02*
X88350000Y-34700000D01*
D38*
X58737500Y-46200000D02*
X58737500Y-44987500D01*
D36*
X97210000Y-50740000D02*
X97200000Y-50750000D01*
D39*
X85112500Y-32300000D02*
X86687500Y-32300000D01*
D38*
%TO.N,Net-(C3-Pad1)*%
X68337500Y-50350000D02*
X66837500Y-48850000D01*
X69162500Y-47162500D02*
X68700000Y-46700000D01*
X68700000Y-46987500D02*
X68700000Y-46700000D01*
X66837500Y-48850000D02*
X68700000Y-46987500D01*
X68662500Y-50350000D02*
X68337500Y-50350000D01*
D36*
%TO.N,+5V*%
X89700000Y-61600000D02*
X89700000Y-58550000D01*
D40*
X92635000Y-37675000D02*
X92635000Y-36165000D01*
X92635000Y-36165000D02*
X92750000Y-36050000D01*
D36*
X89700000Y-61600000D02*
X89700000Y-64800000D01*
X89700000Y-61600000D02*
X92950000Y-61600000D01*
D38*
%TO.N,+3.3V*%
X74100000Y-49362500D02*
X73350000Y-50112500D01*
X78850000Y-36237500D02*
X78850000Y-35050000D01*
X73312500Y-40987500D02*
X73350000Y-40950000D01*
D39*
X86950000Y-33762500D02*
X88412500Y-32300000D01*
D40*
X82387500Y-50850000D02*
X82387500Y-48712500D01*
X82350000Y-48675000D02*
X82350000Y-47050000D01*
D38*
X74100000Y-46350000D02*
X74100000Y-49362500D01*
D40*
X82200000Y-52600000D02*
X83250000Y-52600000D01*
X82187500Y-51050000D02*
X83350000Y-51050000D01*
D39*
X86950000Y-34037500D02*
X86950000Y-33762500D01*
D38*
X73312500Y-42100000D02*
X73312500Y-40987500D01*
D40*
X82350000Y-47050000D02*
X81650000Y-46350000D01*
D38*
X78850000Y-35050000D02*
X78750000Y-34950000D01*
X80400000Y-36237500D02*
X80400000Y-35000000D01*
X75475000Y-45800000D02*
X74650000Y-45800000D01*
X75475000Y-45800000D02*
X76850000Y-45800000D01*
D40*
X82187500Y-51050000D02*
X82387500Y-50850000D01*
D38*
X71800000Y-50112500D02*
X73350000Y-50112500D01*
D40*
X82200000Y-51062500D02*
X82187500Y-51050000D01*
X82200000Y-52600000D02*
X82200000Y-51062500D01*
D38*
X73612500Y-41800000D02*
X73312500Y-42100000D01*
X74650000Y-45800000D02*
X74100000Y-46350000D01*
X76437500Y-37962500D02*
X76300000Y-38100000D01*
D40*
X86600000Y-40987500D02*
X86600000Y-40700000D01*
X86100000Y-40200000D02*
X85500000Y-40200000D01*
X86600000Y-40987500D02*
X84612500Y-40987500D01*
X83350000Y-51050000D02*
X83400000Y-51100000D01*
X86600000Y-40700000D02*
X86100000Y-40200000D01*
D39*
X86939950Y-30450000D02*
X84000000Y-30450000D01*
D40*
X59350000Y-32350000D02*
X62050000Y-32350000D01*
D39*
X85287500Y-34200000D02*
X83387500Y-32300000D01*
D38*
X76887500Y-38325000D02*
X76887500Y-40387500D01*
X77250000Y-37962500D02*
X76887500Y-38325000D01*
D39*
X83387500Y-32300000D02*
X82300000Y-32300000D01*
X88412500Y-32300000D02*
X88412500Y-31922550D01*
D40*
X83250000Y-52600000D02*
X83300000Y-52650000D01*
X84612500Y-40987500D02*
X83800000Y-41800000D01*
D38*
X75475000Y-41800000D02*
X73612500Y-41800000D01*
X77250000Y-37962500D02*
X76437500Y-37962500D01*
D40*
X82387500Y-48712500D02*
X82350000Y-48675000D01*
D39*
X88412500Y-31922550D02*
X86939950Y-30450000D01*
D40*
%TO.N,GPIO2*%
X77387500Y-51662500D02*
X77387500Y-48712500D01*
X74000000Y-55050000D02*
X77387500Y-51662500D01*
X74000000Y-61600000D02*
X74000000Y-55050000D01*
%TO.N,GPIO1*%
X69000000Y-59050000D02*
X76887500Y-51162500D01*
X76887500Y-51162500D02*
X76887500Y-48712500D01*
X69000000Y-61600000D02*
X69000000Y-59050000D01*
D37*
%TO.N,I2C1_SCL*%
X86450000Y-35862500D02*
X86450000Y-36081586D01*
X86450000Y-36081586D02*
X84469086Y-38062500D01*
D38*
X79887500Y-38575000D02*
X79887500Y-40387500D01*
X80400000Y-38062500D02*
X79887500Y-38575000D01*
D37*
X84469086Y-38062500D02*
X80400000Y-38062500D01*
%TO.N,I2C1_SDA*%
X86950000Y-36951409D02*
X81451409Y-42450000D01*
D38*
X79387500Y-39655025D02*
X79387500Y-40387500D01*
D37*
X79387500Y-41687500D02*
X79387500Y-40387500D01*
D38*
X78850000Y-39117525D02*
X79387500Y-39655025D01*
D37*
X86950000Y-35862500D02*
X86950000Y-36951409D01*
X80150000Y-42450000D02*
X79387500Y-41687500D01*
X81451409Y-42450000D02*
X80150000Y-42450000D01*
D38*
X78850000Y-38062500D02*
X78850000Y-39117525D01*
%TO.N,HSE_OUT*%
X68662500Y-48850000D02*
X69350000Y-48850000D01*
X69350000Y-48850000D02*
X73900000Y-44300000D01*
X73900000Y-44300000D02*
X75475000Y-44300000D01*
D37*
%TO.N,BOOT0*%
X76475000Y-41575000D02*
X69750000Y-34850000D01*
X78326409Y-41575000D02*
X76475000Y-41575000D01*
X78887500Y-41013909D02*
X78326409Y-41575000D01*
X69750000Y-34850000D02*
X59350000Y-34850000D01*
X78887500Y-40387500D02*
X78887500Y-41013909D01*
%TO.N,SYS_JTMS_SWDIO*%
X82650000Y-43323590D02*
X83173590Y-42800000D01*
X102050000Y-41030000D02*
X102050000Y-52900000D01*
X82650000Y-47276409D02*
X82650000Y-43323590D01*
X98750000Y-56200000D02*
X85400000Y-56200000D01*
X84000000Y-48626409D02*
X82650000Y-47276409D01*
X102050000Y-52900000D02*
X98750000Y-56200000D01*
X85400000Y-56200000D02*
X84000000Y-54800000D01*
X83173590Y-42800000D02*
X83800000Y-42800000D01*
X84000000Y-54800000D02*
X84000000Y-48626409D01*
X99750000Y-38730000D02*
X102050000Y-41030000D01*
%TO.N,SYS_JTCK_SWCL*%
X82387500Y-40387500D02*
X82666086Y-40387500D01*
X82666086Y-40387500D02*
X83926793Y-39126793D01*
%TO.N,SYS_JTDO_TRACESWO*%
X87526293Y-39726293D02*
X86550000Y-39726293D01*
X98700000Y-42760000D02*
X98700000Y-42600000D01*
X81387500Y-41083697D02*
X80796892Y-41674305D01*
X81387500Y-40387500D02*
X81387500Y-41083697D01*
X99750000Y-43810000D02*
X98700000Y-42760000D01*
X88850000Y-41050000D02*
X87526293Y-39726293D01*
D40*
%TO.N,CAN_TX*%
X90095000Y-41255000D02*
X87750000Y-43600000D01*
X87750000Y-43600000D02*
X84797119Y-43600000D01*
X90095000Y-37675000D02*
X90095000Y-41255000D01*
X84797119Y-43600000D02*
X84497119Y-43300000D01*
X84497119Y-43300000D02*
X83800000Y-43300000D01*
%TO.N,CAN_RX*%
X88150000Y-44150000D02*
X84847119Y-44150000D01*
X84847119Y-44150000D02*
X84497119Y-43800000D01*
X93905000Y-37675000D02*
X93905000Y-38395000D01*
X93905000Y-38395000D02*
X88150000Y-44150000D01*
X84497119Y-43800000D02*
X83800000Y-43800000D01*
%TO.N,Silent_Mode*%
X89340000Y-44360000D02*
X88434975Y-44360000D01*
X95250000Y-38450000D02*
X89340000Y-44360000D01*
X91250000Y-35100000D02*
X93900000Y-35100000D01*
X93900000Y-35100000D02*
X95250000Y-36450000D01*
X95250000Y-36450000D02*
X95250000Y-38450000D01*
X88434975Y-44360000D02*
X87994975Y-44800000D01*
X90095000Y-32725000D02*
X90095000Y-33945000D01*
X90095000Y-33945000D02*
X91250000Y-35100000D01*
X87994975Y-44800000D02*
X83800000Y-44800000D01*
D37*
%TO.N,SDO*%
X87612500Y-36861091D02*
X87612500Y-35700000D01*
X82862500Y-41611091D02*
X87612500Y-36861091D01*
X82862500Y-41787500D02*
X82862500Y-41611091D01*
X78387500Y-48712500D02*
X78387500Y-46262500D01*
X78387500Y-46262500D02*
X82862500Y-41787500D01*
%TO.N,CS*%
X76901471Y-34350000D02*
X75700000Y-35551471D01*
X84862500Y-36950000D02*
X84650000Y-36950000D01*
X76698591Y-41325000D02*
X77576409Y-41325000D01*
X77576409Y-41325000D02*
X77887500Y-41013909D01*
X75700000Y-40326409D02*
X76698591Y-41325000D01*
X75700000Y-35551471D02*
X75700000Y-40326409D01*
X85950000Y-35862500D02*
X84862500Y-36950000D01*
X77887500Y-41013909D02*
X77887500Y-40387500D01*
X81700000Y-34350000D02*
X76901471Y-34350000D01*
X82800000Y-35450000D02*
X81700000Y-34350000D01*
%TO.N,INT1*%
X82188000Y-39262000D02*
X82700000Y-38750000D01*
X83500000Y-36600000D02*
X84250000Y-35850000D01*
X88355499Y-33457001D02*
X87612500Y-34200000D01*
X80887500Y-39761091D02*
X81386591Y-39262000D01*
X88760941Y-33457001D02*
X88355499Y-33457001D01*
X81386591Y-39262000D02*
X82188000Y-39262000D01*
X83500000Y-36900000D02*
X83500000Y-36600000D01*
X80887500Y-40387500D02*
X80887500Y-39761091D01*
%TO.N,INT2*%
X85287500Y-34700000D02*
X84463000Y-34700000D01*
X80387500Y-39461091D02*
X80387500Y-40387500D01*
X84463000Y-34700000D02*
X81700000Y-37463000D01*
X81700000Y-38662000D02*
X81186591Y-38662000D01*
X81186591Y-38662000D02*
X80387500Y-39461091D01*
D36*
%TO.N,Net-(D1-K)*%
X96000000Y-54625000D02*
X97612500Y-54625000D01*
X97612500Y-54625000D02*
X97650000Y-54662500D01*
D40*
%TO.N,CAN_IN-*%
X94220685Y-33950000D02*
X94740685Y-33430000D01*
X102050000Y-32737500D02*
X101318749Y-32737500D01*
X100172795Y-33429999D02*
X99244999Y-33429999D01*
X83325000Y-21756800D02*
X82193200Y-20625000D01*
X101318749Y-32737500D02*
X100631249Y-33425000D01*
X92635000Y-33358603D02*
X93226397Y-33950000D01*
X72875000Y-22770000D02*
X70600000Y-25045000D01*
X85600000Y-25045000D02*
X83325001Y-27319999D01*
X100631249Y-33425000D02*
X100177794Y-33425000D01*
X83325001Y-27356801D02*
X84443200Y-28475000D01*
X93226397Y-33950000D02*
X94220685Y-33950000D01*
X96728530Y-32581472D02*
X96728529Y-32581471D01*
X96728529Y-32581471D02*
X96924999Y-32385000D01*
X92225000Y-30852499D02*
X92635000Y-31262499D01*
X83325000Y-22770000D02*
X83325000Y-21756800D01*
X95656647Y-32358120D02*
X95656649Y-32358119D01*
X92225000Y-30056800D02*
X92225000Y-30852499D01*
X99244999Y-33429999D02*
X98200000Y-32385000D01*
X84443200Y-28475000D02*
X90643200Y-28475000D01*
X92635000Y-31262499D02*
X92635000Y-32725000D01*
X94740685Y-33430000D02*
X95879999Y-33430000D01*
X100177794Y-33425000D02*
X100172795Y-33429999D01*
X92635000Y-32725000D02*
X92635000Y-33358603D01*
X90643200Y-28475000D02*
X92225000Y-30056800D01*
X74106800Y-20625000D02*
X72875000Y-21856800D01*
X83325001Y-27319999D02*
X83325001Y-27356801D01*
X95879999Y-33005736D02*
X95656647Y-32782384D01*
X82193200Y-20625000D02*
X74106800Y-20625000D01*
X72875000Y-21856800D02*
X72875000Y-22770000D01*
X96924999Y-32385000D02*
X98200000Y-32385000D01*
X85600000Y-25045000D02*
X83325000Y-22770000D01*
X96080913Y-32358119D02*
X96304266Y-32581472D01*
X96080912Y-32358120D02*
G75*
G03*
X95656650Y-32358120I-212131J-212131D01*
G01*
X95656696Y-32358169D02*
G75*
G03*
X95656648Y-32782383I212104J-212131D01*
G01*
X95880031Y-33430032D02*
G75*
G03*
X95879999Y-33005736I-212131J212132D01*
G01*
X96304267Y-32581471D02*
G75*
G03*
X96728529Y-32581471I212131J212131D01*
G01*
%TO.N,CAN_IN+*%
X82875000Y-22770000D02*
X80600000Y-25045000D01*
X73325000Y-22770000D02*
X73325000Y-22043200D01*
X92085000Y-33445000D02*
X91365000Y-32725000D01*
X74293200Y-21075000D02*
X77450000Y-21075000D01*
X79550000Y-21405321D02*
X79550000Y-21375000D01*
X73325000Y-22043200D02*
X74293200Y-21075000D01*
X99244999Y-33880001D02*
X98200000Y-34925000D01*
X94407073Y-34399980D02*
X92769295Y-34399980D01*
X78350000Y-21405321D02*
X78350000Y-21375000D01*
X100350000Y-33875000D02*
X100344999Y-33880001D01*
X78950000Y-21375000D02*
X78950000Y-21405321D01*
X102050000Y-34562500D02*
X101318749Y-34562500D01*
X92085000Y-33715685D02*
X92085000Y-33445000D01*
X92769295Y-34399980D02*
X92085000Y-33715685D01*
X79972478Y-21075000D02*
X82006800Y-21075000D01*
X90456800Y-28925000D02*
X91775000Y-30243200D01*
X82006800Y-21075000D02*
X82875000Y-21943200D01*
X84256800Y-28925000D02*
X90456800Y-28925000D01*
X100631249Y-33875000D02*
X100350000Y-33875000D01*
X101318749Y-34562500D02*
X100631249Y-33875000D01*
X91775000Y-30243200D02*
X91775000Y-30852499D01*
X96924999Y-34925000D02*
X95879999Y-33880000D01*
X100344999Y-33880001D02*
X99244999Y-33880001D01*
X82875000Y-21943200D02*
X82875000Y-22770000D01*
X91365000Y-31262499D02*
X91365000Y-32725000D01*
X79850000Y-21075000D02*
X79972478Y-21075000D01*
X95879999Y-33880000D02*
X94927053Y-33880000D01*
X98200000Y-34925000D02*
X96924999Y-34925000D01*
X80600000Y-25045000D02*
X82874999Y-27319999D01*
X82874999Y-27319999D02*
X82874999Y-27543199D01*
X91775000Y-30852499D02*
X91365000Y-31262499D01*
X94927053Y-33880000D02*
X94407073Y-34399980D01*
X75600000Y-25045000D02*
X73325000Y-22770000D01*
X82874999Y-27543199D02*
X84256800Y-28925000D01*
X77750000Y-21375000D02*
X77750000Y-21405321D01*
X77749979Y-21405321D02*
G75*
G03*
X78050000Y-21705321I300021J21D01*
G01*
X78949979Y-21405321D02*
G75*
G03*
X79250000Y-21705321I300021J21D01*
G01*
X79250000Y-21705300D02*
G75*
G03*
X79550000Y-21405321I0J300000D01*
G01*
X78050000Y-21705300D02*
G75*
G03*
X78350000Y-21405321I0J300000D01*
G01*
X78950000Y-21375000D02*
G75*
G03*
X78650000Y-21075000I-300000J0D01*
G01*
X78650000Y-21075000D02*
G75*
G03*
X78350000Y-21375000I0J-300000D01*
G01*
X79850000Y-21075000D02*
G75*
G03*
X79550000Y-21375000I0J-300000D01*
G01*
X77750000Y-21375000D02*
G75*
G03*
X77450000Y-21075000I-300000J0D01*
G01*
%TD*%
M02*
