%TF.GenerationSoftware,KiCad,Pcbnew,7.0.7*%
%TF.CreationDate,2024-03-24T23:16:09-05:00*%
%TF.ProjectId,lsm6dsoxCANEnabled,6c736d36-6473-46f7-9843-414e456e6162,rev?*%
%TF.SameCoordinates,Original*%
%TF.FileFunction,Copper,L2,Inr*%
%TF.FilePolarity,Positive*%
%FSLAX46Y46*%
G04 Gerber Fmt 4.6, Leading zero omitted, Abs format (unit mm)*
G04 Created by KiCad (PCBNEW 7.0.7) date 2024-03-24 23:16:09*
%MOMM*%
%LPD*%
G01*
G04 APERTURE LIST*
%TA.AperFunction,ComponentPad*%
%ADD10R,1.700000X1.700000*%
%TD*%
%TA.AperFunction,ComponentPad*%
%ADD11O,1.700000X1.700000*%
%TD*%
%TA.AperFunction,ComponentPad*%
%ADD12R,2.600000X2.600000*%
%TD*%
%TA.AperFunction,ComponentPad*%
%ADD13C,2.600000*%
%TD*%
%TA.AperFunction,ComponentPad*%
%ADD14C,0.900000*%
%TD*%
%TA.AperFunction,ComponentPad*%
%ADD15C,8.000000*%
%TD*%
%TA.AperFunction,ViaPad*%
%ADD16C,0.800000*%
%TD*%
G04 APERTURE END LIST*
D10*
%TO.N,+3.3V*%
%TO.C,J4*%
X97210000Y-38730000D03*
D11*
%TO.N,SYS_JTMS_SWDIO*%
X99750000Y-38730000D03*
%TO.N,GND*%
X97210000Y-41270000D03*
%TO.N,SYS_JTCK_SWCL*%
X99750000Y-41270000D03*
%TO.N,GND*%
X97210000Y-43810000D03*
%TO.N,SYS_JTDO_TRACESWO*%
X99750000Y-43810000D03*
%TO.N,+5V*%
X97210000Y-46350000D03*
%TO.N,unconnected-(J4-Pin_8-Pad8)*%
X99750000Y-46350000D03*
%TO.N,GND*%
X97210000Y-48890000D03*
%TO.N,NRST*%
X99750000Y-48890000D03*
%TD*%
D12*
%TO.N,GND*%
%TO.C,J3*%
X84700000Y-61600000D03*
D13*
%TO.N,+5V*%
X89700000Y-61600000D03*
%TD*%
D12*
%TO.N,GPIO1*%
%TO.C,J2*%
X69000000Y-61600000D03*
D13*
%TO.N,GPIO2*%
X74000000Y-61600000D03*
%TD*%
D14*
%TO.N,N/C*%
%TO.C,H2*%
X57028680Y-61671320D03*
X57907360Y-59550000D03*
X57907360Y-63792640D03*
X60028680Y-58671320D03*
D15*
X60028680Y-61671320D03*
D14*
X60028680Y-64671320D03*
X62150000Y-59550000D03*
X62150000Y-63792640D03*
X63028680Y-61671320D03*
%TD*%
%TO.N,N/C*%
%TO.C,H1*%
X57028680Y-25421320D03*
X57907360Y-23300000D03*
X57907360Y-27542640D03*
X60028680Y-22421320D03*
D15*
X60028680Y-25421320D03*
D14*
X60028680Y-28421320D03*
X62150000Y-23300000D03*
X62150000Y-27542640D03*
X63028680Y-25421320D03*
%TD*%
D12*
%TO.N,CAN_IN-*%
%TO.C,J5*%
X85600000Y-25045000D03*
D13*
%TO.N,CAN_IN+*%
X80600000Y-25045000D03*
X75600000Y-25045000D03*
%TO.N,CAN_IN-*%
X70600000Y-25045000D03*
%TD*%
D14*
%TO.N,N/C*%
%TO.C,H4*%
X94698680Y-61681320D03*
X95577360Y-59560000D03*
X95577360Y-63802640D03*
X97698680Y-58681320D03*
D15*
X97698680Y-61681320D03*
D14*
X97698680Y-64681320D03*
X99820000Y-59560000D03*
X99820000Y-63802640D03*
X100698680Y-61681320D03*
%TD*%
%TO.N,N/C*%
%TO.C,H3*%
X94718680Y-25421320D03*
X95597360Y-23300000D03*
X95597360Y-27542640D03*
X97718680Y-22421320D03*
D15*
X97718680Y-25421320D03*
D14*
X97718680Y-28421320D03*
X99840000Y-23300000D03*
X99840000Y-27542640D03*
X100718680Y-25421320D03*
%TD*%
D10*
%TO.N,CAN_IN+*%
%TO.C,J1*%
X98200000Y-34925000D03*
D11*
%TO.N,CAN_IN-*%
X98200000Y-32385000D03*
%TD*%
D16*
%TO.N,GND*%
X94700000Y-43450000D03*
%TO.N,+5V*%
X94150000Y-45000000D03*
%TO.N,GND*%
X85150000Y-48550000D03*
X84950000Y-50050000D03*
X93350000Y-49100000D03*
%TO.N,+3.3V*%
X85850000Y-55100000D03*
X85300000Y-53950000D03*
%TO.N,+5V*%
X89050000Y-45750000D03*
%TO.N,GND*%
X93400000Y-45900000D03*
%TO.N,NRST*%
X101200000Y-55250000D03*
X101450500Y-52626089D03*
%TO.N,GND*%
X79250000Y-51000000D03*
X79350000Y-52600000D03*
X95700000Y-42250000D03*
X88700000Y-35350000D03*
X71600000Y-41000000D03*
X84700000Y-58550000D03*
X58700000Y-44950000D03*
X88650000Y-34400000D03*
X70400000Y-43900000D03*
X84700000Y-64850000D03*
X80950000Y-61600000D03*
X81200000Y-47200000D03*
X99250000Y-52800000D03*
X65850000Y-50300000D03*
X64950000Y-46900000D03*
X77024982Y-44866761D03*
X86700000Y-31200000D03*
X55450000Y-48050000D03*
X87600000Y-42750000D03*
X97200000Y-50750000D03*
X68500000Y-40500000D03*
X61900000Y-37350000D03*
X85100000Y-31150000D03*
X77150000Y-34950000D03*
X91350000Y-35950000D03*
X55500000Y-56100000D03*
X77596017Y-39139222D03*
%TO.N,+5V*%
X92950000Y-61600000D03*
X92750000Y-36050000D03*
X89700000Y-58550000D03*
X89700000Y-64800000D03*
%TO.N,+3.3V*%
X78750000Y-34950000D03*
X82300000Y-32300000D03*
X81650000Y-46350000D03*
X80400000Y-35000000D03*
X84000000Y-30450000D03*
X83400000Y-51100000D03*
X85500000Y-40200000D03*
X76850000Y-45800000D03*
X62050000Y-32350000D03*
X83300000Y-52650000D03*
X76300000Y-38100000D03*
X73350000Y-40950000D03*
%TO.N,SYS_JTCK_SWCL*%
X83926793Y-39126793D03*
%TO.N,SYS_JTDO_TRACESWO*%
X98700000Y-42600000D03*
X88850000Y-41050000D03*
X80796892Y-41674305D03*
X86550000Y-39726293D03*
%TO.N,CS*%
X84650000Y-36950000D03*
X82800000Y-35450000D03*
%TO.N,INT1*%
X84250000Y-35850000D03*
X83500000Y-36900000D03*
X82700000Y-38750000D03*
X88760941Y-33457001D03*
%TO.N,INT2*%
X81700000Y-38662000D03*
X81700000Y-37463000D03*
%TD*%
%TA.AperFunction,Conductor*%
%TO.N,GND*%
G36*
X97387510Y-41769507D02*
G01*
X97440314Y-41815261D01*
X97459999Y-41882301D01*
X97460000Y-42420000D01*
X97459999Y-43197698D01*
X97440314Y-43264738D01*
X97387510Y-43310492D01*
X97318353Y-43320436D01*
X97245764Y-43310000D01*
X97245763Y-43310000D01*
X97174237Y-43310000D01*
X97174233Y-43310000D01*
X97101645Y-43320436D01*
X97032487Y-43310492D01*
X96979684Y-43264736D01*
X96960000Y-43197698D01*
X96960000Y-41882301D01*
X96979685Y-41815262D01*
X97032489Y-41769507D01*
X97101647Y-41759563D01*
X97174237Y-41770000D01*
X97174238Y-41770000D01*
X97245762Y-41770000D01*
X97245763Y-41770000D01*
X97318352Y-41759563D01*
X97387510Y-41769507D01*
G37*
%TD.AperFunction*%
%TA.AperFunction,Conductor*%
G36*
X97737411Y-19592140D02*
G01*
X97958434Y-19600890D01*
X98183163Y-19610256D01*
X98187863Y-19610633D01*
X98427894Y-19639261D01*
X98653179Y-19667560D01*
X98657540Y-19668270D01*
X98894173Y-19715708D01*
X99116877Y-19762771D01*
X99121010Y-19763795D01*
X99353030Y-19829757D01*
X99571400Y-19895294D01*
X99575121Y-19896543D01*
X99801251Y-19980661D01*
X99996533Y-20057501D01*
X100013561Y-20064201D01*
X100017002Y-20065677D01*
X100235776Y-20167409D01*
X100440619Y-20268434D01*
X100443647Y-20270035D01*
X100653761Y-20388783D01*
X100849621Y-20506583D01*
X100852315Y-20508299D01*
X101030340Y-20628415D01*
X101052481Y-20643354D01*
X101237966Y-20777120D01*
X101240309Y-20778895D01*
X101405425Y-20910434D01*
X101429250Y-20929414D01*
X101604088Y-21079114D01*
X101781607Y-21245098D01*
X101943380Y-21408826D01*
X102107224Y-21588329D01*
X102254803Y-21764938D01*
X102403050Y-21955682D01*
X102404816Y-21958070D01*
X102536319Y-22145111D01*
X102582767Y-22215767D01*
X102668951Y-22346870D01*
X102670654Y-22349613D01*
X102786087Y-22546862D01*
X102902293Y-22758367D01*
X102903878Y-22761453D01*
X102980655Y-22921959D01*
X103002436Y-22967493D01*
X103101530Y-23187464D01*
X103102964Y-23190923D01*
X103183964Y-23404259D01*
X103265328Y-23631294D01*
X103266556Y-23635104D01*
X103329470Y-23854250D01*
X103392628Y-24086998D01*
X103393602Y-24091146D01*
X103437996Y-24314432D01*
X103482576Y-24551554D01*
X103483249Y-24556024D01*
X103508854Y-24781748D01*
X103534574Y-25021887D01*
X103534900Y-25026654D01*
X103541572Y-25251610D01*
X103548180Y-25491314D01*
X103547622Y-25537726D01*
X103548150Y-25542786D01*
X103528180Y-61680855D01*
X103527852Y-61681967D01*
X103528079Y-61683810D01*
X103526512Y-61722766D01*
X103518307Y-61926665D01*
X103508740Y-62152971D01*
X103508344Y-62157816D01*
X103478323Y-62405461D01*
X103449601Y-62630416D01*
X103448851Y-62634947D01*
X103399383Y-62877651D01*
X103351322Y-63101328D01*
X103350265Y-63105527D01*
X103281647Y-63342823D01*
X103214573Y-63562523D01*
X103213258Y-63566372D01*
X103125924Y-63797053D01*
X103040292Y-64010843D01*
X103038770Y-64014331D01*
X102933248Y-64237116D01*
X102829685Y-64443222D01*
X102828004Y-64446341D01*
X102704941Y-64659901D01*
X102584169Y-64856759D01*
X102582380Y-64859509D01*
X102442553Y-65062497D01*
X102305436Y-65248616D01*
X102303587Y-65251002D01*
X102147864Y-65442152D01*
X101994464Y-65617193D01*
X101822864Y-65796282D01*
X101655211Y-65957727D01*
X101469767Y-66122458D01*
X101289086Y-66269132D01*
X101092184Y-66417545D01*
X101089731Y-66419302D01*
X100898578Y-66549299D01*
X100690448Y-66681378D01*
X100687632Y-66683062D01*
X100486349Y-66796329D01*
X100268326Y-66911235D01*
X100265146Y-66912797D01*
X100055279Y-67008515D01*
X99828645Y-67105570D01*
X99825102Y-67106960D01*
X99608270Y-67184454D01*
X99374449Y-67263030D01*
X99370553Y-67264198D01*
X99148442Y-67322948D01*
X98908766Y-67382559D01*
X98904530Y-67383457D01*
X98679189Y-67423049D01*
X98434807Y-67463326D01*
X98430250Y-67463904D01*
X98204367Y-67484123D01*
X97953217Y-67504994D01*
X97948889Y-67505202D01*
X97924276Y-67505523D01*
X97882456Y-67505627D01*
X97478856Y-67506633D01*
X97478855Y-67506633D01*
X97477825Y-67506636D01*
X97453715Y-67505768D01*
X97449021Y-67508263D01*
X97424008Y-67510805D01*
X60450692Y-67500932D01*
X60029180Y-67500820D01*
X60029164Y-67500820D01*
X60028069Y-67500498D01*
X60026247Y-67500724D01*
X59787139Y-67491328D01*
X59567865Y-67482258D01*
X59563138Y-67481881D01*
X59323763Y-67453548D01*
X59101427Y-67425832D01*
X59096999Y-67425117D01*
X58861382Y-67378250D01*
X58641069Y-67332054D01*
X58636962Y-67331045D01*
X58406015Y-67265911D01*
X58189808Y-67201543D01*
X58186039Y-67200288D01*
X57960985Y-67117261D01*
X57750528Y-67035140D01*
X57747108Y-67033686D01*
X57609674Y-66970329D01*
X57529288Y-66933270D01*
X57417361Y-66878552D01*
X57326083Y-66833928D01*
X57323019Y-66832323D01*
X57113770Y-66715139D01*
X56919227Y-66599217D01*
X56916534Y-66597516D01*
X56717024Y-66464207D01*
X56532654Y-66332570D01*
X56530297Y-66330801D01*
X56341764Y-66182173D01*
X56167750Y-66034791D01*
X55990405Y-65870855D01*
X55829144Y-65709594D01*
X55665208Y-65532249D01*
X55517826Y-65358235D01*
X55369197Y-65169701D01*
X55367445Y-65167367D01*
X55235792Y-64982975D01*
X55113531Y-64800000D01*
X55102475Y-64783453D01*
X55100794Y-64780792D01*
X54984885Y-64586272D01*
X54878538Y-64396376D01*
X54867675Y-64376979D01*
X54866085Y-64373946D01*
X54766733Y-64170719D01*
X54666309Y-63952883D01*
X54664869Y-63949496D01*
X54582743Y-63739028D01*
X54499705Y-63513944D01*
X54498462Y-63510212D01*
X54434085Y-63293974D01*
X54430351Y-63280736D01*
X54368951Y-63063031D01*
X54367944Y-63058929D01*
X54344658Y-62947876D01*
X54321760Y-62838673D01*
X54274878Y-62602984D01*
X54274166Y-62598571D01*
X54246451Y-62376236D01*
X54244192Y-62357150D01*
X54218114Y-62136829D01*
X54217741Y-62132156D01*
X54208671Y-61912860D01*
X54199180Y-61671320D01*
X55523373Y-61671320D01*
X55542592Y-62087017D01*
X55542592Y-62087022D01*
X55542593Y-62087027D01*
X55600083Y-62499165D01*
X55600085Y-62499173D01*
X55695359Y-62904253D01*
X55827609Y-63298834D01*
X55995690Y-63679497D01*
X55995700Y-63679518D01*
X56198186Y-64043051D01*
X56198189Y-64043055D01*
X56198191Y-64043059D01*
X56433367Y-64386374D01*
X56433369Y-64386376D01*
X56433376Y-64386386D01*
X56620512Y-64611744D01*
X56699218Y-64706526D01*
X56993474Y-65000782D01*
X56993485Y-65000791D01*
X57313613Y-65266623D01*
X57313619Y-65266627D01*
X57313626Y-65266633D01*
X57656941Y-65501809D01*
X57656947Y-65501812D01*
X57656948Y-65501813D01*
X58013660Y-65700500D01*
X58020492Y-65704305D01*
X58210833Y-65788349D01*
X58401165Y-65872390D01*
X58401168Y-65872391D01*
X58401175Y-65872394D01*
X58795744Y-66004640D01*
X59200832Y-66099916D01*
X59612983Y-66157408D01*
X60028680Y-66176627D01*
X60444377Y-66157408D01*
X60856528Y-66099916D01*
X61261616Y-66004640D01*
X61656185Y-65872394D01*
X62036868Y-65704305D01*
X62400419Y-65501809D01*
X62743734Y-65266633D01*
X63063886Y-65000782D01*
X63264668Y-64800000D01*
X88794540Y-64800000D01*
X88814326Y-64988256D01*
X88814327Y-64988259D01*
X88872818Y-65168277D01*
X88872821Y-65168284D01*
X88967467Y-65332216D01*
X88990895Y-65358235D01*
X89094129Y-65472888D01*
X89247265Y-65584148D01*
X89247270Y-65584151D01*
X89420192Y-65661142D01*
X89420197Y-65661144D01*
X89605354Y-65700500D01*
X89605355Y-65700500D01*
X89794644Y-65700500D01*
X89794646Y-65700500D01*
X89979803Y-65661144D01*
X90152730Y-65584151D01*
X90305871Y-65472888D01*
X90432533Y-65332216D01*
X90527179Y-65168284D01*
X90585674Y-64988256D01*
X90605460Y-64800000D01*
X90585674Y-64611744D01*
X90527179Y-64431716D01*
X90432533Y-64267784D01*
X90305871Y-64127112D01*
X90288094Y-64114196D01*
X90152734Y-64015851D01*
X90152729Y-64015848D01*
X89979807Y-63938857D01*
X89979802Y-63938855D01*
X89807207Y-63902170D01*
X89794646Y-63899500D01*
X89605354Y-63899500D01*
X89592793Y-63902170D01*
X89420197Y-63938855D01*
X89420192Y-63938857D01*
X89247270Y-64015848D01*
X89247265Y-64015851D01*
X89094129Y-64127111D01*
X88967466Y-64267785D01*
X88872821Y-64431715D01*
X88872818Y-64431722D01*
X88843349Y-64522420D01*
X88814326Y-64611744D01*
X88794540Y-64800000D01*
X63264668Y-64800000D01*
X63358142Y-64706526D01*
X63623993Y-64386374D01*
X63859169Y-64043059D01*
X64061665Y-63679508D01*
X64229754Y-63298825D01*
X64347382Y-62947870D01*
X67199500Y-62947870D01*
X67199501Y-62947876D01*
X67205908Y-63007483D01*
X67256202Y-63142328D01*
X67256206Y-63142335D01*
X67342452Y-63257544D01*
X67342455Y-63257547D01*
X67457664Y-63343793D01*
X67457671Y-63343797D01*
X67592517Y-63394091D01*
X67592516Y-63394091D01*
X67599444Y-63394835D01*
X67652127Y-63400500D01*
X70347872Y-63400499D01*
X70407483Y-63394091D01*
X70542331Y-63343796D01*
X70657546Y-63257546D01*
X70743796Y-63142331D01*
X70794091Y-63007483D01*
X70800500Y-62947873D01*
X70800500Y-61600004D01*
X72194451Y-61600004D01*
X72214616Y-61869101D01*
X72274664Y-62132188D01*
X72274666Y-62132195D01*
X72365735Y-62364234D01*
X72373257Y-62383398D01*
X72508185Y-62617102D01*
X72644080Y-62787509D01*
X72676442Y-62828089D01*
X72863183Y-63001358D01*
X72874259Y-63011635D01*
X73097226Y-63163651D01*
X73340359Y-63280738D01*
X73598228Y-63360280D01*
X73598229Y-63360280D01*
X73598232Y-63360281D01*
X73865063Y-63400499D01*
X73865068Y-63400499D01*
X73865071Y-63400500D01*
X73865072Y-63400500D01*
X74134928Y-63400500D01*
X74134929Y-63400500D01*
X74134936Y-63400499D01*
X74401767Y-63360281D01*
X74401768Y-63360280D01*
X74401772Y-63360280D01*
X74659641Y-63280738D01*
X74902775Y-63163651D01*
X75125741Y-63011635D01*
X75194491Y-62947844D01*
X82900000Y-62947844D01*
X82906401Y-63007372D01*
X82906403Y-63007379D01*
X82956645Y-63142086D01*
X82956649Y-63142093D01*
X83042809Y-63257187D01*
X83042812Y-63257190D01*
X83157906Y-63343350D01*
X83157913Y-63343354D01*
X83292620Y-63393596D01*
X83292627Y-63393598D01*
X83352155Y-63399999D01*
X83352172Y-63400000D01*
X84450000Y-63400000D01*
X84450000Y-62366753D01*
X84469685Y-62299714D01*
X84522489Y-62253959D01*
X84591647Y-62244015D01*
X84604816Y-62246644D01*
X84617886Y-62250000D01*
X84617890Y-62250000D01*
X84740892Y-62250000D01*
X84740894Y-62250000D01*
X84740899Y-62249999D01*
X84740903Y-62249999D01*
X84788270Y-62244015D01*
X84810458Y-62241212D01*
X84879436Y-62252338D01*
X84931448Y-62298991D01*
X84950000Y-62364234D01*
X84950000Y-63400000D01*
X86047828Y-63400000D01*
X86047844Y-63399999D01*
X86107372Y-63393598D01*
X86107379Y-63393596D01*
X86242086Y-63343354D01*
X86242093Y-63343350D01*
X86357187Y-63257190D01*
X86357190Y-63257187D01*
X86443350Y-63142093D01*
X86443354Y-63142086D01*
X86493596Y-63007379D01*
X86493598Y-63007372D01*
X86499999Y-62947844D01*
X86500000Y-62947827D01*
X86500000Y-61850000D01*
X85463921Y-61850000D01*
X85396882Y-61830315D01*
X85351127Y-61777511D01*
X85341183Y-61708353D01*
X85342117Y-61702766D01*
X85342659Y-61699919D01*
X85353873Y-61641138D01*
X85351285Y-61600004D01*
X87894451Y-61600004D01*
X87914616Y-61869101D01*
X87974664Y-62132188D01*
X87974666Y-62132195D01*
X88065735Y-62364234D01*
X88073257Y-62383398D01*
X88208185Y-62617102D01*
X88344080Y-62787509D01*
X88376442Y-62828089D01*
X88563183Y-63001358D01*
X88574259Y-63011635D01*
X88797226Y-63163651D01*
X89040359Y-63280738D01*
X89298228Y-63360280D01*
X89298229Y-63360280D01*
X89298232Y-63360281D01*
X89565063Y-63400499D01*
X89565068Y-63400499D01*
X89565071Y-63400500D01*
X89565072Y-63400500D01*
X89834928Y-63400500D01*
X89834929Y-63400500D01*
X89834936Y-63400499D01*
X90101767Y-63360281D01*
X90101768Y-63360280D01*
X90101772Y-63360280D01*
X90359641Y-63280738D01*
X90602775Y-63163651D01*
X90825741Y-63011635D01*
X91023561Y-62828085D01*
X91191815Y-62617102D01*
X91326743Y-62383398D01*
X91425334Y-62132195D01*
X91485383Y-61869103D01*
X91499493Y-61680820D01*
X91505549Y-61600004D01*
X91505549Y-61600000D01*
X92044540Y-61600000D01*
X92064326Y-61788256D01*
X92064327Y-61788259D01*
X92122818Y-61968277D01*
X92122821Y-61968284D01*
X92217467Y-62132216D01*
X92325626Y-62252338D01*
X92344129Y-62272888D01*
X92497265Y-62384148D01*
X92497270Y-62384151D01*
X92670192Y-62461142D01*
X92670197Y-62461144D01*
X92855354Y-62500500D01*
X92855355Y-62500500D01*
X93044644Y-62500500D01*
X93044646Y-62500500D01*
X93138706Y-62480507D01*
X93208372Y-62485823D01*
X93264106Y-62527960D01*
X93285192Y-62573407D01*
X93365359Y-62914253D01*
X93497609Y-63308834D01*
X93665690Y-63689497D01*
X93665700Y-63689518D01*
X93868186Y-64053051D01*
X93868189Y-64053055D01*
X93868191Y-64053059D01*
X94103367Y-64396374D01*
X94103369Y-64396376D01*
X94103376Y-64396386D01*
X94282208Y-64611744D01*
X94369218Y-64716526D01*
X94663474Y-65010782D01*
X94663485Y-65010791D01*
X94983613Y-65276623D01*
X94983619Y-65276627D01*
X94983626Y-65276633D01*
X95326941Y-65511809D01*
X95326947Y-65511812D01*
X95326948Y-65511813D01*
X95672545Y-65704309D01*
X95690492Y-65714305D01*
X95699744Y-65718390D01*
X96071165Y-65882390D01*
X96071168Y-65882391D01*
X96071175Y-65882394D01*
X96465744Y-66014640D01*
X96870832Y-66109916D01*
X97282983Y-66167408D01*
X97698680Y-66186627D01*
X98114377Y-66167408D01*
X98526528Y-66109916D01*
X98931616Y-66014640D01*
X99326185Y-65882394D01*
X99706868Y-65714305D01*
X100070419Y-65511809D01*
X100413734Y-65276633D01*
X100733886Y-65010782D01*
X101028142Y-64716526D01*
X101293993Y-64396374D01*
X101529169Y-64053059D01*
X101731665Y-63689508D01*
X101899754Y-63308825D01*
X102032000Y-62914256D01*
X102127276Y-62509168D01*
X102184768Y-62097017D01*
X102203987Y-61681320D01*
X102184768Y-61265623D01*
X102127276Y-60853472D01*
X102032000Y-60448384D01*
X101899754Y-60053815D01*
X101895334Y-60043805D01*
X101731669Y-59673142D01*
X101731665Y-59673132D01*
X101529169Y-59309581D01*
X101293993Y-58966266D01*
X101293987Y-58966259D01*
X101293983Y-58966253D01*
X101028151Y-58646125D01*
X101028142Y-58646114D01*
X100733886Y-58351858D01*
X100721853Y-58341866D01*
X100413746Y-58086016D01*
X100413736Y-58086009D01*
X100413734Y-58086007D01*
X100070419Y-57850831D01*
X100070415Y-57850829D01*
X100070411Y-57850826D01*
X99706878Y-57648340D01*
X99706857Y-57648330D01*
X99326194Y-57480249D01*
X98931613Y-57347999D01*
X98526533Y-57252725D01*
X98526525Y-57252723D01*
X98114387Y-57195233D01*
X98114382Y-57195232D01*
X98114377Y-57195232D01*
X97698680Y-57176013D01*
X97282983Y-57195232D01*
X97282977Y-57195232D01*
X97282972Y-57195233D01*
X96870834Y-57252723D01*
X96870826Y-57252725D01*
X96465746Y-57347999D01*
X96071165Y-57480249D01*
X95690502Y-57648330D01*
X95690481Y-57648340D01*
X95326948Y-57850826D01*
X95326942Y-57850830D01*
X94983623Y-58086009D01*
X94983613Y-58086016D01*
X94663485Y-58351848D01*
X94663465Y-58351866D01*
X94369226Y-58646105D01*
X94369208Y-58646125D01*
X94103376Y-58966253D01*
X94103369Y-58966263D01*
X93868190Y-59309582D01*
X93868186Y-59309588D01*
X93665700Y-59673121D01*
X93665690Y-59673142D01*
X93497609Y-60053805D01*
X93365360Y-60448384D01*
X93321623Y-60634337D01*
X93287112Y-60695088D01*
X93225235Y-60727538D01*
X93175137Y-60727236D01*
X93044646Y-60699500D01*
X92855354Y-60699500D01*
X92822897Y-60706398D01*
X92670197Y-60738855D01*
X92670192Y-60738857D01*
X92497270Y-60815848D01*
X92497265Y-60815851D01*
X92344129Y-60927111D01*
X92217466Y-61067785D01*
X92122821Y-61231715D01*
X92122818Y-61231722D01*
X92068940Y-61397543D01*
X92064326Y-61411744D01*
X92044540Y-61600000D01*
X91505549Y-61600000D01*
X91505549Y-61599995D01*
X91487913Y-61364663D01*
X91485383Y-61330897D01*
X91425334Y-61067805D01*
X91326743Y-60816602D01*
X91191815Y-60582898D01*
X91023561Y-60371915D01*
X91023560Y-60371914D01*
X91023557Y-60371910D01*
X90825741Y-60188365D01*
X90602775Y-60036349D01*
X90602769Y-60036346D01*
X90602768Y-60036345D01*
X90602767Y-60036344D01*
X90359643Y-59919263D01*
X90359645Y-59919263D01*
X90101773Y-59839720D01*
X90101767Y-59839718D01*
X89834936Y-59799500D01*
X89834929Y-59799500D01*
X89565071Y-59799500D01*
X89565063Y-59799500D01*
X89298232Y-59839718D01*
X89298226Y-59839720D01*
X89040358Y-59919262D01*
X88797230Y-60036346D01*
X88574258Y-60188365D01*
X88376442Y-60371910D01*
X88208185Y-60582898D01*
X88073258Y-60816599D01*
X88073256Y-60816603D01*
X87974666Y-61067804D01*
X87974664Y-61067811D01*
X87914616Y-61330898D01*
X87894451Y-61599995D01*
X87894451Y-61600004D01*
X85351285Y-61600004D01*
X85343847Y-61481784D01*
X85359283Y-61413643D01*
X85409109Y-61364663D01*
X85467602Y-61350000D01*
X86500000Y-61350000D01*
X86500000Y-60252172D01*
X86499999Y-60252155D01*
X86493598Y-60192627D01*
X86493596Y-60192620D01*
X86443354Y-60057913D01*
X86443350Y-60057906D01*
X86357190Y-59942812D01*
X86357187Y-59942809D01*
X86242093Y-59856649D01*
X86242086Y-59856645D01*
X86107379Y-59806403D01*
X86107372Y-59806401D01*
X86047844Y-59800000D01*
X84950000Y-59800000D01*
X84950000Y-60833246D01*
X84930315Y-60900285D01*
X84877511Y-60946040D01*
X84808353Y-60955984D01*
X84795165Y-60953351D01*
X84782115Y-60950000D01*
X84782114Y-60950000D01*
X84659106Y-60950000D01*
X84659094Y-60950000D01*
X84589541Y-60958787D01*
X84520563Y-60947660D01*
X84468551Y-60901006D01*
X84450000Y-60835765D01*
X84450000Y-59800000D01*
X83352155Y-59800000D01*
X83292627Y-59806401D01*
X83292620Y-59806403D01*
X83157913Y-59856645D01*
X83157906Y-59856649D01*
X83042812Y-59942809D01*
X83042809Y-59942812D01*
X82956649Y-60057906D01*
X82956645Y-60057913D01*
X82906403Y-60192620D01*
X82906401Y-60192627D01*
X82900000Y-60252155D01*
X82900000Y-61350000D01*
X83936079Y-61350000D01*
X84003118Y-61369685D01*
X84048873Y-61422489D01*
X84058817Y-61491647D01*
X84057883Y-61497234D01*
X84046127Y-61558862D01*
X84055532Y-61708353D01*
X84056153Y-61718214D01*
X84040717Y-61786357D01*
X83990891Y-61835337D01*
X83932398Y-61850000D01*
X82900000Y-61850000D01*
X82900000Y-62947844D01*
X75194491Y-62947844D01*
X75323561Y-62828085D01*
X75491815Y-62617102D01*
X75626743Y-62383398D01*
X75725334Y-62132195D01*
X75785383Y-61869103D01*
X75799493Y-61680820D01*
X75805549Y-61600004D01*
X75805549Y-61599995D01*
X75787913Y-61364663D01*
X75785383Y-61330897D01*
X75725334Y-61067805D01*
X75626743Y-60816602D01*
X75491815Y-60582898D01*
X75323561Y-60371915D01*
X75323560Y-60371914D01*
X75323557Y-60371910D01*
X75125741Y-60188365D01*
X74902775Y-60036349D01*
X74902769Y-60036346D01*
X74902768Y-60036345D01*
X74902767Y-60036344D01*
X74659643Y-59919263D01*
X74659645Y-59919263D01*
X74401773Y-59839720D01*
X74401767Y-59839718D01*
X74134936Y-59799500D01*
X74134929Y-59799500D01*
X73865071Y-59799500D01*
X73865063Y-59799500D01*
X73598232Y-59839718D01*
X73598226Y-59839720D01*
X73340358Y-59919262D01*
X73097230Y-60036346D01*
X72874258Y-60188365D01*
X72676442Y-60371910D01*
X72508185Y-60582898D01*
X72373258Y-60816599D01*
X72373256Y-60816603D01*
X72274666Y-61067804D01*
X72274664Y-61067811D01*
X72214616Y-61330898D01*
X72194451Y-61599995D01*
X72194451Y-61600004D01*
X70800500Y-61600004D01*
X70800499Y-60252128D01*
X70794091Y-60192517D01*
X70792542Y-60188365D01*
X70743797Y-60057671D01*
X70743793Y-60057664D01*
X70657547Y-59942455D01*
X70657544Y-59942452D01*
X70542335Y-59856206D01*
X70542328Y-59856202D01*
X70407482Y-59805908D01*
X70407483Y-59805908D01*
X70347883Y-59799501D01*
X70347881Y-59799500D01*
X70347873Y-59799500D01*
X70347864Y-59799500D01*
X67652129Y-59799500D01*
X67652123Y-59799501D01*
X67592516Y-59805908D01*
X67457671Y-59856202D01*
X67457664Y-59856206D01*
X67342455Y-59942452D01*
X67342452Y-59942455D01*
X67256206Y-60057664D01*
X67256202Y-60057671D01*
X67205908Y-60192517D01*
X67199501Y-60252116D01*
X67199501Y-60252123D01*
X67199500Y-60252135D01*
X67199500Y-62947870D01*
X64347382Y-62947870D01*
X64362000Y-62904256D01*
X64457276Y-62499168D01*
X64514768Y-62087017D01*
X64533987Y-61671320D01*
X64514768Y-61255623D01*
X64457276Y-60843472D01*
X64362000Y-60438384D01*
X64229754Y-60043815D01*
X64226457Y-60036349D01*
X64124925Y-59806401D01*
X64061665Y-59663132D01*
X63859169Y-59299581D01*
X63623993Y-58956266D01*
X63623987Y-58956259D01*
X63623983Y-58956253D01*
X63358151Y-58636125D01*
X63358142Y-58636114D01*
X63272028Y-58550000D01*
X88794540Y-58550000D01*
X88814326Y-58738256D01*
X88814327Y-58738259D01*
X88872818Y-58918277D01*
X88872821Y-58918284D01*
X88967467Y-59082216D01*
X89094128Y-59222888D01*
X89094129Y-59222888D01*
X89247265Y-59334148D01*
X89247270Y-59334151D01*
X89420192Y-59411142D01*
X89420197Y-59411144D01*
X89605354Y-59450500D01*
X89605355Y-59450500D01*
X89794644Y-59450500D01*
X89794646Y-59450500D01*
X89979803Y-59411144D01*
X90152730Y-59334151D01*
X90305871Y-59222888D01*
X90432533Y-59082216D01*
X90527179Y-58918284D01*
X90585674Y-58738256D01*
X90605460Y-58550000D01*
X90585674Y-58361744D01*
X90527179Y-58181716D01*
X90432533Y-58017784D01*
X90305871Y-57877112D01*
X90305870Y-57877111D01*
X90152734Y-57765851D01*
X90152729Y-57765848D01*
X89979807Y-57688857D01*
X89979802Y-57688855D01*
X89834001Y-57657865D01*
X89794646Y-57649500D01*
X89605354Y-57649500D01*
X89572897Y-57656398D01*
X89420197Y-57688855D01*
X89420192Y-57688857D01*
X89247270Y-57765848D01*
X89247265Y-57765851D01*
X89094129Y-57877111D01*
X88967466Y-58017785D01*
X88872821Y-58181715D01*
X88872818Y-58181722D01*
X88814327Y-58361740D01*
X88814326Y-58361744D01*
X88794540Y-58550000D01*
X63272028Y-58550000D01*
X63063886Y-58341858D01*
X62871042Y-58181722D01*
X62743746Y-58076016D01*
X62743736Y-58076009D01*
X62743734Y-58076007D01*
X62400419Y-57840831D01*
X62400415Y-57840829D01*
X62400411Y-57840826D01*
X62036878Y-57638340D01*
X62036857Y-57638330D01*
X61656194Y-57470249D01*
X61261613Y-57337999D01*
X60856533Y-57242725D01*
X60856525Y-57242723D01*
X60444387Y-57185233D01*
X60444382Y-57185232D01*
X60444377Y-57185232D01*
X60028680Y-57166013D01*
X59612983Y-57185232D01*
X59612977Y-57185232D01*
X59612972Y-57185233D01*
X59200834Y-57242723D01*
X59200826Y-57242725D01*
X58795746Y-57337999D01*
X58401165Y-57470249D01*
X58020502Y-57638330D01*
X58020481Y-57638340D01*
X57656948Y-57840826D01*
X57656942Y-57840830D01*
X57313623Y-58076009D01*
X57313613Y-58076016D01*
X56993485Y-58341848D01*
X56993465Y-58341866D01*
X56699226Y-58636105D01*
X56699208Y-58636125D01*
X56433376Y-58956253D01*
X56433369Y-58956263D01*
X56198190Y-59299582D01*
X56198186Y-59299588D01*
X55995700Y-59663121D01*
X55995690Y-59663142D01*
X55827609Y-60043805D01*
X55695359Y-60438386D01*
X55600085Y-60843466D01*
X55600083Y-60843474D01*
X55542593Y-61255612D01*
X55542592Y-61255617D01*
X55542592Y-61255623D01*
X55523373Y-61671320D01*
X54199180Y-61671320D01*
X54199180Y-53950000D01*
X84394540Y-53950000D01*
X84414326Y-54138256D01*
X84414327Y-54138259D01*
X84472818Y-54318277D01*
X84472821Y-54318284D01*
X84567467Y-54482216D01*
X84644513Y-54567784D01*
X84694129Y-54622888D01*
X84847265Y-54734148D01*
X84847267Y-54734149D01*
X84847270Y-54734151D01*
X84897947Y-54756714D01*
X84951182Y-54801962D01*
X84971504Y-54868811D01*
X84965445Y-54908298D01*
X84964328Y-54911735D01*
X84964327Y-54911740D01*
X84964326Y-54911744D01*
X84944540Y-55100000D01*
X84964326Y-55288256D01*
X84964327Y-55288259D01*
X85022818Y-55468277D01*
X85022821Y-55468284D01*
X85117467Y-55632216D01*
X85244128Y-55772887D01*
X85244129Y-55772888D01*
X85397265Y-55884148D01*
X85397270Y-55884151D01*
X85570192Y-55961142D01*
X85570197Y-55961144D01*
X85755354Y-56000500D01*
X85755355Y-56000500D01*
X85944644Y-56000500D01*
X85944646Y-56000500D01*
X86129803Y-55961144D01*
X86302730Y-55884151D01*
X86455871Y-55772888D01*
X86582533Y-55632216D01*
X86677179Y-55468284D01*
X86735674Y-55288256D01*
X86739695Y-55250000D01*
X100294540Y-55250000D01*
X100314326Y-55438256D01*
X100314327Y-55438259D01*
X100372818Y-55618277D01*
X100372821Y-55618284D01*
X100467467Y-55782216D01*
X100559247Y-55884148D01*
X100594129Y-55922888D01*
X100747265Y-56034148D01*
X100747270Y-56034151D01*
X100920192Y-56111142D01*
X100920197Y-56111144D01*
X101105354Y-56150500D01*
X101105355Y-56150500D01*
X101294644Y-56150500D01*
X101294646Y-56150500D01*
X101479803Y-56111144D01*
X101652730Y-56034151D01*
X101805871Y-55922888D01*
X101932533Y-55782216D01*
X102027179Y-55618284D01*
X102085674Y-55438256D01*
X102105460Y-55250000D01*
X102085674Y-55061744D01*
X102027179Y-54881716D01*
X101932533Y-54717784D01*
X101805871Y-54577112D01*
X101805870Y-54577111D01*
X101652734Y-54465851D01*
X101652729Y-54465848D01*
X101479807Y-54388857D01*
X101479802Y-54388855D01*
X101334001Y-54357865D01*
X101294646Y-54349500D01*
X101105354Y-54349500D01*
X101072897Y-54356398D01*
X100920197Y-54388855D01*
X100920192Y-54388857D01*
X100747270Y-54465848D01*
X100747265Y-54465851D01*
X100594129Y-54577111D01*
X100467466Y-54717785D01*
X100372821Y-54881715D01*
X100372818Y-54881722D01*
X100314327Y-55061740D01*
X100314326Y-55061744D01*
X100294540Y-55250000D01*
X86739695Y-55250000D01*
X86755460Y-55100000D01*
X86735674Y-54911744D01*
X86677179Y-54731716D01*
X86582533Y-54567784D01*
X86455871Y-54427112D01*
X86455870Y-54427111D01*
X86302732Y-54315849D01*
X86252052Y-54293285D01*
X86198816Y-54248034D01*
X86178495Y-54181185D01*
X86184560Y-54141684D01*
X86185674Y-54138256D01*
X86205460Y-53950000D01*
X86185674Y-53761744D01*
X86127179Y-53581716D01*
X86032533Y-53417784D01*
X85905871Y-53277112D01*
X85905870Y-53277111D01*
X85752734Y-53165851D01*
X85752729Y-53165848D01*
X85579807Y-53088857D01*
X85579802Y-53088855D01*
X85434001Y-53057865D01*
X85394646Y-53049500D01*
X85205354Y-53049500D01*
X85172897Y-53056398D01*
X85020197Y-53088855D01*
X85020192Y-53088857D01*
X84847270Y-53165848D01*
X84847265Y-53165851D01*
X84694129Y-53277111D01*
X84567466Y-53417785D01*
X84472821Y-53581715D01*
X84472818Y-53581722D01*
X84414327Y-53761740D01*
X84414326Y-53761744D01*
X84394540Y-53950000D01*
X54199180Y-53950000D01*
X54199180Y-52650000D01*
X82394540Y-52650000D01*
X82414326Y-52838256D01*
X82414327Y-52838259D01*
X82472818Y-53018277D01*
X82472821Y-53018284D01*
X82567467Y-53182216D01*
X82694129Y-53322888D01*
X82847265Y-53434148D01*
X82847270Y-53434151D01*
X83020192Y-53511142D01*
X83020197Y-53511144D01*
X83205354Y-53550500D01*
X83205355Y-53550500D01*
X83394644Y-53550500D01*
X83394646Y-53550500D01*
X83579803Y-53511144D01*
X83752730Y-53434151D01*
X83905871Y-53322888D01*
X84032533Y-53182216D01*
X84127179Y-53018284D01*
X84185674Y-52838256D01*
X84205460Y-52650000D01*
X84202947Y-52626089D01*
X100545040Y-52626089D01*
X100564826Y-52814345D01*
X100564827Y-52814348D01*
X100623318Y-52994366D01*
X100623321Y-52994373D01*
X100717967Y-53158305D01*
X100739495Y-53182214D01*
X100844629Y-53298977D01*
X100997765Y-53410237D01*
X100997770Y-53410240D01*
X101170692Y-53487231D01*
X101170697Y-53487233D01*
X101355854Y-53526589D01*
X101355855Y-53526589D01*
X101545144Y-53526589D01*
X101545146Y-53526589D01*
X101730303Y-53487233D01*
X101903230Y-53410240D01*
X102056371Y-53298977D01*
X102183033Y-53158305D01*
X102277679Y-52994373D01*
X102336174Y-52814345D01*
X102355960Y-52626089D01*
X102336174Y-52437833D01*
X102277679Y-52257805D01*
X102183033Y-52093873D01*
X102056371Y-51953201D01*
X102033969Y-51936925D01*
X101903234Y-51841940D01*
X101903229Y-51841937D01*
X101730307Y-51764946D01*
X101730302Y-51764944D01*
X101584500Y-51733954D01*
X101545146Y-51725589D01*
X101355854Y-51725589D01*
X101323397Y-51732487D01*
X101170697Y-51764944D01*
X101170692Y-51764946D01*
X100997770Y-51841937D01*
X100997765Y-51841940D01*
X100844629Y-51953200D01*
X100717966Y-52093874D01*
X100623321Y-52257804D01*
X100623318Y-52257811D01*
X100564827Y-52437829D01*
X100564826Y-52437833D01*
X100545040Y-52626089D01*
X84202947Y-52626089D01*
X84185674Y-52461744D01*
X84127179Y-52281716D01*
X84032533Y-52117784D01*
X83926404Y-51999916D01*
X83896174Y-51936925D01*
X83904799Y-51867589D01*
X83945667Y-51816628D01*
X84005871Y-51772888D01*
X84132533Y-51632216D01*
X84227179Y-51468284D01*
X84285674Y-51288256D01*
X84305460Y-51100000D01*
X84285674Y-50911744D01*
X84227179Y-50731716D01*
X84132533Y-50567784D01*
X84005871Y-50427112D01*
X84005870Y-50427111D01*
X83852734Y-50315851D01*
X83852729Y-50315848D01*
X83679807Y-50238857D01*
X83679802Y-50238855D01*
X83534001Y-50207865D01*
X83494646Y-50199500D01*
X83305354Y-50199500D01*
X83272897Y-50206398D01*
X83120197Y-50238855D01*
X83120192Y-50238857D01*
X82947270Y-50315848D01*
X82947265Y-50315851D01*
X82794129Y-50427111D01*
X82667466Y-50567785D01*
X82572821Y-50731715D01*
X82572818Y-50731722D01*
X82514327Y-50911740D01*
X82514326Y-50911744D01*
X82494540Y-51100000D01*
X82514326Y-51288256D01*
X82514327Y-51288259D01*
X82572818Y-51468277D01*
X82572821Y-51468284D01*
X82667467Y-51632216D01*
X82750152Y-51724047D01*
X82773595Y-51750083D01*
X82803825Y-51813074D01*
X82795200Y-51882410D01*
X82754331Y-51933373D01*
X82694127Y-51977113D01*
X82567466Y-52117785D01*
X82472821Y-52281715D01*
X82472818Y-52281722D01*
X82422095Y-52437833D01*
X82414326Y-52461744D01*
X82394540Y-52650000D01*
X54199180Y-52650000D01*
X54199180Y-45800000D01*
X75944540Y-45800000D01*
X75964326Y-45988256D01*
X75964327Y-45988259D01*
X76022818Y-46168277D01*
X76022821Y-46168284D01*
X76117467Y-46332216D01*
X76199109Y-46422888D01*
X76244129Y-46472888D01*
X76397265Y-46584148D01*
X76397270Y-46584151D01*
X76570192Y-46661142D01*
X76570197Y-46661144D01*
X76755354Y-46700500D01*
X76755355Y-46700500D01*
X76944644Y-46700500D01*
X76944646Y-46700500D01*
X77129803Y-46661144D01*
X77302730Y-46584151D01*
X77455871Y-46472888D01*
X77566520Y-46350000D01*
X80744540Y-46350000D01*
X80764326Y-46538256D01*
X80764327Y-46538259D01*
X80822818Y-46718277D01*
X80822821Y-46718284D01*
X80917467Y-46882216D01*
X81010035Y-46985023D01*
X81044129Y-47022888D01*
X81197265Y-47134148D01*
X81197270Y-47134151D01*
X81370192Y-47211142D01*
X81370197Y-47211144D01*
X81555354Y-47250500D01*
X81555355Y-47250500D01*
X81744644Y-47250500D01*
X81744646Y-47250500D01*
X81929803Y-47211144D01*
X82102730Y-47134151D01*
X82255871Y-47022888D01*
X82382533Y-46882216D01*
X82477179Y-46718284D01*
X82535674Y-46538256D01*
X82555460Y-46350000D01*
X82535674Y-46161744D01*
X82477179Y-45981716D01*
X82382533Y-45817784D01*
X82321500Y-45750000D01*
X88144540Y-45750000D01*
X88164326Y-45938256D01*
X88164327Y-45938259D01*
X88222818Y-46118277D01*
X88222821Y-46118284D01*
X88317467Y-46282216D01*
X88444128Y-46422888D01*
X88444129Y-46422888D01*
X88597265Y-46534148D01*
X88597270Y-46534151D01*
X88770192Y-46611142D01*
X88770197Y-46611144D01*
X88955354Y-46650500D01*
X88955355Y-46650500D01*
X89144644Y-46650500D01*
X89144646Y-46650500D01*
X89329803Y-46611144D01*
X89502730Y-46534151D01*
X89655871Y-46422888D01*
X89721500Y-46350000D01*
X95854341Y-46350000D01*
X95874936Y-46585403D01*
X95874938Y-46585413D01*
X95936094Y-46813655D01*
X95936096Y-46813659D01*
X95936097Y-46813663D01*
X95940000Y-46822032D01*
X96035965Y-47027830D01*
X96035967Y-47027834D01*
X96110412Y-47134151D01*
X96171501Y-47221396D01*
X96171506Y-47221402D01*
X96338597Y-47388493D01*
X96338603Y-47388498D01*
X96524594Y-47518730D01*
X96568219Y-47573307D01*
X96575413Y-47642805D01*
X96543890Y-47705160D01*
X96524595Y-47721880D01*
X96338922Y-47851890D01*
X96338920Y-47851891D01*
X96171891Y-48018920D01*
X96171886Y-48018926D01*
X96036400Y-48212420D01*
X96036399Y-48212422D01*
X95936570Y-48426507D01*
X95936567Y-48426513D01*
X95879364Y-48639999D01*
X95879364Y-48640000D01*
X96596653Y-48640000D01*
X96663692Y-48659685D01*
X96709447Y-48712489D01*
X96719391Y-48781647D01*
X96715631Y-48798933D01*
X96710000Y-48818111D01*
X96710000Y-48961888D01*
X96715631Y-48981067D01*
X96715630Y-49050936D01*
X96677855Y-49109714D01*
X96614299Y-49138738D01*
X96596653Y-49140000D01*
X95879364Y-49140000D01*
X95936567Y-49353486D01*
X95936570Y-49353492D01*
X96036399Y-49567578D01*
X96171894Y-49761082D01*
X96338917Y-49928105D01*
X96532421Y-50063600D01*
X96746507Y-50163429D01*
X96746516Y-50163433D01*
X96960000Y-50220634D01*
X96960000Y-49502301D01*
X96979685Y-49435262D01*
X97032489Y-49389507D01*
X97101647Y-49379563D01*
X97174237Y-49390000D01*
X97174238Y-49390000D01*
X97245762Y-49390000D01*
X97245763Y-49390000D01*
X97318352Y-49379563D01*
X97387510Y-49389507D01*
X97440314Y-49435261D01*
X97459999Y-49502301D01*
X97459999Y-50220634D01*
X97673483Y-50163433D01*
X97673492Y-50163429D01*
X97887578Y-50063600D01*
X98081082Y-49928105D01*
X98248105Y-49761082D01*
X98378119Y-49575405D01*
X98432696Y-49531781D01*
X98502195Y-49524588D01*
X98564549Y-49556110D01*
X98581269Y-49575405D01*
X98711505Y-49761401D01*
X98878599Y-49928495D01*
X98975384Y-49996265D01*
X99072165Y-50064032D01*
X99072167Y-50064033D01*
X99072170Y-50064035D01*
X99286337Y-50163903D01*
X99514592Y-50225063D01*
X99672255Y-50238857D01*
X99749999Y-50245659D01*
X99750000Y-50245659D01*
X99750001Y-50245659D01*
X99789234Y-50242226D01*
X99985408Y-50225063D01*
X100213663Y-50163903D01*
X100427830Y-50064035D01*
X100621401Y-49928495D01*
X100788495Y-49761401D01*
X100924035Y-49567830D01*
X101023903Y-49353663D01*
X101085063Y-49125408D01*
X101105659Y-48890000D01*
X101085063Y-48654592D01*
X101023903Y-48426337D01*
X100924035Y-48212171D01*
X100918731Y-48204595D01*
X100788494Y-48018597D01*
X100621402Y-47851506D01*
X100621396Y-47851501D01*
X100435842Y-47721575D01*
X100392217Y-47666998D01*
X100385023Y-47597500D01*
X100416546Y-47535145D01*
X100435842Y-47518425D01*
X100458026Y-47502891D01*
X100621401Y-47388495D01*
X100788495Y-47221401D01*
X100924035Y-47027830D01*
X101023903Y-46813663D01*
X101085063Y-46585408D01*
X101105659Y-46350000D01*
X101085063Y-46114592D01*
X101023903Y-45886337D01*
X100924035Y-45672171D01*
X100918425Y-45664158D01*
X100788494Y-45478597D01*
X100621402Y-45311506D01*
X100621396Y-45311501D01*
X100435842Y-45181575D01*
X100392217Y-45126998D01*
X100385023Y-45057500D01*
X100416546Y-44995145D01*
X100435842Y-44978425D01*
X100563758Y-44888857D01*
X100621401Y-44848495D01*
X100788495Y-44681401D01*
X100924035Y-44487830D01*
X101023903Y-44273663D01*
X101085063Y-44045408D01*
X101105659Y-43810000D01*
X101085063Y-43574592D01*
X101023903Y-43346337D01*
X100924035Y-43132171D01*
X100788495Y-42938599D01*
X100788494Y-42938597D01*
X100621402Y-42771506D01*
X100621396Y-42771501D01*
X100435842Y-42641575D01*
X100392217Y-42586998D01*
X100385023Y-42517500D01*
X100416546Y-42455145D01*
X100435842Y-42438425D01*
X100458026Y-42422891D01*
X100621401Y-42308495D01*
X100788495Y-42141401D01*
X100924035Y-41947830D01*
X101023903Y-41733663D01*
X101085063Y-41505408D01*
X101105659Y-41270000D01*
X101085063Y-41034592D01*
X101025732Y-40813162D01*
X101023905Y-40806344D01*
X101023904Y-40806343D01*
X101023903Y-40806337D01*
X100924035Y-40592171D01*
X100920721Y-40587437D01*
X100788494Y-40398597D01*
X100621402Y-40231506D01*
X100621396Y-40231501D01*
X100435842Y-40101575D01*
X100392217Y-40046998D01*
X100385023Y-39977500D01*
X100416546Y-39915145D01*
X100435842Y-39898425D01*
X100472151Y-39873001D01*
X100621401Y-39768495D01*
X100788495Y-39601401D01*
X100924035Y-39407830D01*
X101023903Y-39193663D01*
X101085063Y-38965408D01*
X101105659Y-38730000D01*
X101085063Y-38494592D01*
X101031239Y-38293716D01*
X101023905Y-38266344D01*
X101023904Y-38266343D01*
X101023903Y-38266337D01*
X100924035Y-38052171D01*
X100887856Y-38000501D01*
X100788494Y-37858597D01*
X100621402Y-37691506D01*
X100621395Y-37691501D01*
X100427834Y-37555967D01*
X100427830Y-37555965D01*
X100413966Y-37549500D01*
X100213663Y-37456097D01*
X100213659Y-37456096D01*
X100213655Y-37456094D01*
X99985413Y-37394938D01*
X99985403Y-37394936D01*
X99750001Y-37374341D01*
X99749999Y-37374341D01*
X99514596Y-37394936D01*
X99514586Y-37394938D01*
X99286344Y-37456094D01*
X99286335Y-37456098D01*
X99072171Y-37555964D01*
X99072169Y-37555965D01*
X98878600Y-37691503D01*
X98756673Y-37813430D01*
X98695350Y-37846914D01*
X98625658Y-37841930D01*
X98569725Y-37800058D01*
X98552810Y-37769081D01*
X98503797Y-37637671D01*
X98503793Y-37637664D01*
X98417547Y-37522455D01*
X98417544Y-37522452D01*
X98302335Y-37436206D01*
X98302328Y-37436202D01*
X98167482Y-37385908D01*
X98167483Y-37385908D01*
X98107883Y-37379501D01*
X98107881Y-37379500D01*
X98107873Y-37379500D01*
X98107864Y-37379500D01*
X96312129Y-37379500D01*
X96312123Y-37379501D01*
X96252516Y-37385908D01*
X96117671Y-37436202D01*
X96117664Y-37436206D01*
X96002455Y-37522452D01*
X96002452Y-37522455D01*
X95916206Y-37637664D01*
X95916202Y-37637671D01*
X95865908Y-37772517D01*
X95859501Y-37832116D01*
X95859500Y-37832135D01*
X95859500Y-39627870D01*
X95859501Y-39627876D01*
X95865908Y-39687483D01*
X95916202Y-39822328D01*
X95916206Y-39822335D01*
X96002452Y-39937544D01*
X96002455Y-39937547D01*
X96117664Y-40023793D01*
X96117671Y-40023797D01*
X96179877Y-40046998D01*
X96249598Y-40073002D01*
X96305531Y-40114873D01*
X96329949Y-40180337D01*
X96315098Y-40248610D01*
X96293947Y-40276865D01*
X96171886Y-40398926D01*
X96036400Y-40592420D01*
X96036399Y-40592422D01*
X95936570Y-40806507D01*
X95936567Y-40806513D01*
X95879364Y-41019999D01*
X95879364Y-41020000D01*
X96596653Y-41020000D01*
X96663692Y-41039685D01*
X96709447Y-41092489D01*
X96719391Y-41161647D01*
X96715631Y-41178933D01*
X96710000Y-41198111D01*
X96710000Y-41341888D01*
X96715631Y-41361067D01*
X96715630Y-41430936D01*
X96677855Y-41489714D01*
X96614299Y-41518738D01*
X96596653Y-41520000D01*
X95879364Y-41520000D01*
X95936567Y-41733486D01*
X95936570Y-41733492D01*
X96036399Y-41947578D01*
X96171894Y-42141082D01*
X96338917Y-42308105D01*
X96525031Y-42438425D01*
X96568656Y-42493003D01*
X96575848Y-42562501D01*
X96544326Y-42624856D01*
X96525031Y-42641575D01*
X96338922Y-42771890D01*
X96338920Y-42771891D01*
X96171891Y-42938920D01*
X96171886Y-42938926D01*
X96036400Y-43132420D01*
X96036399Y-43132422D01*
X95936570Y-43346507D01*
X95936567Y-43346513D01*
X95879364Y-43559999D01*
X95879364Y-43560000D01*
X96596653Y-43560000D01*
X96663692Y-43579685D01*
X96709447Y-43632489D01*
X96719391Y-43701647D01*
X96715631Y-43718933D01*
X96710000Y-43738111D01*
X96710000Y-43881888D01*
X96715631Y-43901067D01*
X96715630Y-43970936D01*
X96677855Y-44029714D01*
X96614299Y-44058738D01*
X96596653Y-44060000D01*
X95879364Y-44060000D01*
X95936567Y-44273486D01*
X95936570Y-44273492D01*
X96036399Y-44487578D01*
X96171894Y-44681082D01*
X96338917Y-44848105D01*
X96524595Y-44978119D01*
X96568219Y-45032696D01*
X96575412Y-45102195D01*
X96543890Y-45164549D01*
X96524595Y-45181269D01*
X96338594Y-45311508D01*
X96171505Y-45478597D01*
X96035965Y-45672169D01*
X96035964Y-45672171D01*
X95936098Y-45886335D01*
X95936094Y-45886344D01*
X95874938Y-46114586D01*
X95874936Y-46114596D01*
X95854341Y-46349999D01*
X95854341Y-46350000D01*
X89721500Y-46350000D01*
X89782533Y-46282216D01*
X89877179Y-46118284D01*
X89935674Y-45938256D01*
X89955460Y-45750000D01*
X89935674Y-45561744D01*
X89877179Y-45381716D01*
X89782533Y-45217784D01*
X89655871Y-45077112D01*
X89654474Y-45076097D01*
X89549736Y-45000000D01*
X93244540Y-45000000D01*
X93264326Y-45188256D01*
X93264327Y-45188259D01*
X93322818Y-45368277D01*
X93322821Y-45368284D01*
X93417467Y-45532216D01*
X93489071Y-45611740D01*
X93544129Y-45672888D01*
X93697265Y-45784148D01*
X93697270Y-45784151D01*
X93870192Y-45861142D01*
X93870197Y-45861144D01*
X94055354Y-45900500D01*
X94055355Y-45900500D01*
X94244644Y-45900500D01*
X94244646Y-45900500D01*
X94429803Y-45861144D01*
X94602730Y-45784151D01*
X94755871Y-45672888D01*
X94882533Y-45532216D01*
X94977179Y-45368284D01*
X95035674Y-45188256D01*
X95055460Y-45000000D01*
X95035674Y-44811744D01*
X94977179Y-44631716D01*
X94882533Y-44467784D01*
X94755871Y-44327112D01*
X94755870Y-44327111D01*
X94602734Y-44215851D01*
X94602729Y-44215848D01*
X94429807Y-44138857D01*
X94429802Y-44138855D01*
X94284000Y-44107865D01*
X94244646Y-44099500D01*
X94055354Y-44099500D01*
X94022897Y-44106398D01*
X93870197Y-44138855D01*
X93870192Y-44138857D01*
X93697270Y-44215848D01*
X93697265Y-44215851D01*
X93544129Y-44327111D01*
X93417466Y-44467785D01*
X93322821Y-44631715D01*
X93322818Y-44631722D01*
X93264327Y-44811740D01*
X93264326Y-44811744D01*
X93244540Y-45000000D01*
X89549736Y-45000000D01*
X89502734Y-44965851D01*
X89502729Y-44965848D01*
X89329807Y-44888857D01*
X89329802Y-44888855D01*
X89184000Y-44857865D01*
X89144646Y-44849500D01*
X88955354Y-44849500D01*
X88922897Y-44856398D01*
X88770197Y-44888855D01*
X88770192Y-44888857D01*
X88597270Y-44965848D01*
X88597265Y-44965851D01*
X88444129Y-45077111D01*
X88317466Y-45217785D01*
X88222821Y-45381715D01*
X88222818Y-45381722D01*
X88173921Y-45532214D01*
X88164326Y-45561744D01*
X88144540Y-45750000D01*
X82321500Y-45750000D01*
X82255871Y-45677112D01*
X82255870Y-45677111D01*
X82102734Y-45565851D01*
X82102729Y-45565848D01*
X81929807Y-45488857D01*
X81929802Y-45488855D01*
X81784000Y-45457865D01*
X81744646Y-45449500D01*
X81555354Y-45449500D01*
X81522897Y-45456398D01*
X81370197Y-45488855D01*
X81370192Y-45488857D01*
X81197270Y-45565848D01*
X81197265Y-45565851D01*
X81044129Y-45677111D01*
X80917466Y-45817785D01*
X80822821Y-45981715D01*
X80822818Y-45981722D01*
X80779645Y-46114596D01*
X80764326Y-46161744D01*
X80744540Y-46350000D01*
X77566520Y-46350000D01*
X77582533Y-46332216D01*
X77677179Y-46168284D01*
X77735674Y-45988256D01*
X77755460Y-45800000D01*
X77735674Y-45611744D01*
X77677179Y-45431716D01*
X77582533Y-45267784D01*
X77455871Y-45127112D01*
X77455293Y-45126692D01*
X77302734Y-45015851D01*
X77302729Y-45015848D01*
X77129807Y-44938857D01*
X77129802Y-44938855D01*
X76984000Y-44907865D01*
X76944646Y-44899500D01*
X76755354Y-44899500D01*
X76722897Y-44906398D01*
X76570197Y-44938855D01*
X76570192Y-44938857D01*
X76397270Y-45015848D01*
X76397265Y-45015851D01*
X76244129Y-45127111D01*
X76117466Y-45267785D01*
X76022821Y-45431715D01*
X76022818Y-45431722D01*
X75964327Y-45611740D01*
X75964326Y-45611744D01*
X75944540Y-45800000D01*
X54199180Y-45800000D01*
X54199180Y-40950000D01*
X72444540Y-40950000D01*
X72464326Y-41138256D01*
X72464327Y-41138259D01*
X72522818Y-41318277D01*
X72522821Y-41318284D01*
X72617467Y-41482216D01*
X72707506Y-41582214D01*
X72744129Y-41622888D01*
X72897265Y-41734148D01*
X72897270Y-41734151D01*
X73070192Y-41811142D01*
X73070197Y-41811144D01*
X73255354Y-41850500D01*
X73255355Y-41850500D01*
X73444644Y-41850500D01*
X73444646Y-41850500D01*
X73629803Y-41811144D01*
X73802730Y-41734151D01*
X73885101Y-41674305D01*
X79891432Y-41674305D01*
X79911218Y-41862561D01*
X79911219Y-41862564D01*
X79969710Y-42042582D01*
X79969713Y-42042589D01*
X80064359Y-42206521D01*
X80087045Y-42231716D01*
X80191021Y-42347193D01*
X80344157Y-42458453D01*
X80344162Y-42458456D01*
X80517084Y-42535447D01*
X80517089Y-42535449D01*
X80702246Y-42574805D01*
X80702247Y-42574805D01*
X80891536Y-42574805D01*
X80891538Y-42574805D01*
X81076695Y-42535449D01*
X81249622Y-42458456D01*
X81402763Y-42347193D01*
X81529425Y-42206521D01*
X81624071Y-42042589D01*
X81682566Y-41862561D01*
X81702352Y-41674305D01*
X81682566Y-41486049D01*
X81624071Y-41306021D01*
X81529425Y-41142089D01*
X81402763Y-41001417D01*
X81402762Y-41001416D01*
X81249626Y-40890156D01*
X81249621Y-40890153D01*
X81076699Y-40813162D01*
X81076694Y-40813160D01*
X80930892Y-40782170D01*
X80891538Y-40773805D01*
X80702246Y-40773805D01*
X80669789Y-40780703D01*
X80517089Y-40813160D01*
X80517084Y-40813162D01*
X80344162Y-40890153D01*
X80344157Y-40890156D01*
X80191021Y-41001416D01*
X80064358Y-41142090D01*
X79969713Y-41306020D01*
X79969710Y-41306027D01*
X79933236Y-41418284D01*
X79911218Y-41486049D01*
X79891432Y-41674305D01*
X73885101Y-41674305D01*
X73955871Y-41622888D01*
X74082533Y-41482216D01*
X74177179Y-41318284D01*
X74235674Y-41138256D01*
X74255460Y-40950000D01*
X74235674Y-40761744D01*
X74177179Y-40581716D01*
X74082533Y-40417784D01*
X73955871Y-40277112D01*
X73940369Y-40265849D01*
X73802734Y-40165851D01*
X73802729Y-40165848D01*
X73629807Y-40088857D01*
X73629802Y-40088855D01*
X73484000Y-40057865D01*
X73444646Y-40049500D01*
X73255354Y-40049500D01*
X73222897Y-40056398D01*
X73070197Y-40088855D01*
X73070192Y-40088857D01*
X72897270Y-40165848D01*
X72897265Y-40165851D01*
X72744129Y-40277111D01*
X72617466Y-40417785D01*
X72522821Y-40581715D01*
X72522818Y-40581722D01*
X72473921Y-40732214D01*
X72464326Y-40761744D01*
X72444540Y-40950000D01*
X54199180Y-40950000D01*
X54199180Y-38335055D01*
X55899499Y-38335055D01*
X55940210Y-38500226D01*
X56019263Y-38650849D01*
X56019266Y-38650852D01*
X56132071Y-38778183D01*
X56201046Y-38825793D01*
X56272068Y-38874817D01*
X56272069Y-38874817D01*
X56272070Y-38874818D01*
X56431128Y-38935140D01*
X56488811Y-38942144D01*
X56557626Y-38950500D01*
X56557628Y-38950500D01*
X56642374Y-38950500D01*
X56684538Y-38945380D01*
X56768872Y-38935140D01*
X56927930Y-38874818D01*
X57067929Y-38778183D01*
X57180734Y-38650852D01*
X57259790Y-38500225D01*
X57300500Y-38335056D01*
X57300500Y-38164944D01*
X57284493Y-38100000D01*
X75394540Y-38100000D01*
X75414326Y-38288256D01*
X75414327Y-38288259D01*
X75472818Y-38468277D01*
X75472821Y-38468284D01*
X75567467Y-38632216D01*
X75694129Y-38772887D01*
X75694129Y-38772888D01*
X75847265Y-38884148D01*
X75847270Y-38884151D01*
X76020192Y-38961142D01*
X76020197Y-38961144D01*
X76205354Y-39000500D01*
X76205355Y-39000500D01*
X76394644Y-39000500D01*
X76394646Y-39000500D01*
X76579803Y-38961144D01*
X76752730Y-38884151D01*
X76905871Y-38772888D01*
X77005715Y-38662000D01*
X80794540Y-38662000D01*
X80814326Y-38850256D01*
X80814327Y-38850259D01*
X80872818Y-39030277D01*
X80872821Y-39030284D01*
X80967467Y-39194216D01*
X81063036Y-39300356D01*
X81094129Y-39334888D01*
X81247265Y-39446148D01*
X81247270Y-39446151D01*
X81420192Y-39523142D01*
X81420197Y-39523144D01*
X81605354Y-39562500D01*
X81605355Y-39562500D01*
X81794644Y-39562500D01*
X81794646Y-39562500D01*
X81979803Y-39523144D01*
X82070847Y-39482607D01*
X82140093Y-39473322D01*
X82194165Y-39495568D01*
X82232120Y-39523144D01*
X82247270Y-39534151D01*
X82420192Y-39611142D01*
X82420197Y-39611144D01*
X82605354Y-39650500D01*
X82605355Y-39650500D01*
X82794644Y-39650500D01*
X82794646Y-39650500D01*
X82979803Y-39611144D01*
X82979809Y-39611142D01*
X83026421Y-39590388D01*
X83095671Y-39581101D01*
X83158948Y-39610728D01*
X83184245Y-39641664D01*
X83194259Y-39659007D01*
X83194258Y-39659007D01*
X83320922Y-39799681D01*
X83474058Y-39910941D01*
X83474063Y-39910944D01*
X83646985Y-39987935D01*
X83646990Y-39987937D01*
X83832147Y-40027293D01*
X83832148Y-40027293D01*
X84021437Y-40027293D01*
X84021439Y-40027293D01*
X84206596Y-39987937D01*
X84379523Y-39910944D01*
X84421212Y-39880655D01*
X84487016Y-39857176D01*
X84555070Y-39873001D01*
X84603765Y-39923107D01*
X84617641Y-39991585D01*
X84615388Y-40006748D01*
X84614327Y-40011740D01*
X84614326Y-40011744D01*
X84594540Y-40200000D01*
X84614326Y-40388256D01*
X84614327Y-40388259D01*
X84672818Y-40568277D01*
X84672821Y-40568284D01*
X84767467Y-40732216D01*
X84869062Y-40845048D01*
X84894129Y-40872888D01*
X85047265Y-40984148D01*
X85047270Y-40984151D01*
X85220192Y-41061142D01*
X85220197Y-41061144D01*
X85405354Y-41100500D01*
X85405355Y-41100500D01*
X85594644Y-41100500D01*
X85594646Y-41100500D01*
X85779803Y-41061144D01*
X85804833Y-41050000D01*
X87944540Y-41050000D01*
X87964326Y-41238256D01*
X87964327Y-41238259D01*
X88022818Y-41418277D01*
X88022821Y-41418284D01*
X88117467Y-41582216D01*
X88200384Y-41674304D01*
X88244129Y-41722888D01*
X88397265Y-41834148D01*
X88397270Y-41834151D01*
X88570192Y-41911142D01*
X88570197Y-41911144D01*
X88755354Y-41950500D01*
X88755355Y-41950500D01*
X88944644Y-41950500D01*
X88944646Y-41950500D01*
X89129803Y-41911144D01*
X89302730Y-41834151D01*
X89455871Y-41722888D01*
X89582533Y-41582216D01*
X89677179Y-41418284D01*
X89735674Y-41238256D01*
X89755460Y-41050000D01*
X89735674Y-40861744D01*
X89677179Y-40681716D01*
X89582533Y-40517784D01*
X89455871Y-40377112D01*
X89455870Y-40377111D01*
X89302734Y-40265851D01*
X89302729Y-40265848D01*
X89129807Y-40188857D01*
X89129802Y-40188855D01*
X88984000Y-40157865D01*
X88944646Y-40149500D01*
X88755354Y-40149500D01*
X88722897Y-40156398D01*
X88570197Y-40188855D01*
X88570192Y-40188857D01*
X88397270Y-40265848D01*
X88397265Y-40265851D01*
X88244129Y-40377111D01*
X88117466Y-40517785D01*
X88022821Y-40681715D01*
X88022818Y-40681722D01*
X87980111Y-40813162D01*
X87964326Y-40861744D01*
X87944540Y-41050000D01*
X85804833Y-41050000D01*
X85952730Y-40984151D01*
X86105871Y-40872888D01*
X86232533Y-40732216D01*
X86266055Y-40674152D01*
X86316622Y-40625937D01*
X86385229Y-40612713D01*
X86399221Y-40614861D01*
X86455354Y-40626793D01*
X86644644Y-40626793D01*
X86644646Y-40626793D01*
X86829803Y-40587437D01*
X87002730Y-40510444D01*
X87155871Y-40399181D01*
X87282533Y-40258509D01*
X87377179Y-40094577D01*
X87435674Y-39914549D01*
X87455460Y-39726293D01*
X87435674Y-39538037D01*
X87377179Y-39358009D01*
X87282533Y-39194077D01*
X87155871Y-39053405D01*
X87124038Y-39030277D01*
X87002734Y-38942144D01*
X87002729Y-38942141D01*
X86829807Y-38865150D01*
X86829802Y-38865148D01*
X86684000Y-38834158D01*
X86644646Y-38825793D01*
X86455354Y-38825793D01*
X86422897Y-38832691D01*
X86270197Y-38865148D01*
X86270192Y-38865150D01*
X86097270Y-38942141D01*
X86097265Y-38942144D01*
X85944129Y-39053404D01*
X85817465Y-39194078D01*
X85817463Y-39194081D01*
X85783942Y-39252141D01*
X85733375Y-39300356D01*
X85664768Y-39313578D01*
X85650784Y-39311432D01*
X85594646Y-39299500D01*
X85405354Y-39299500D01*
X85372897Y-39306398D01*
X85220197Y-39338855D01*
X85220192Y-39338857D01*
X85047270Y-39415848D01*
X85047266Y-39415851D01*
X85005580Y-39446137D01*
X84939773Y-39469616D01*
X84871719Y-39453789D01*
X84823025Y-39403683D01*
X84809151Y-39335205D01*
X84811407Y-39320031D01*
X84812463Y-39315059D01*
X84812467Y-39315049D01*
X84832253Y-39126793D01*
X84812467Y-38938537D01*
X84753972Y-38758509D01*
X84659326Y-38594577D01*
X84532664Y-38453905D01*
X84532663Y-38453904D01*
X84379527Y-38342644D01*
X84379522Y-38342641D01*
X84206600Y-38265650D01*
X84206595Y-38265648D01*
X84060794Y-38234658D01*
X84021439Y-38226293D01*
X83832147Y-38226293D01*
X83799690Y-38233191D01*
X83646990Y-38265648D01*
X83646989Y-38265648D01*
X83600368Y-38286406D01*
X83531118Y-38295690D01*
X83467841Y-38266061D01*
X83442546Y-38235127D01*
X83441774Y-38233791D01*
X83432533Y-38217784D01*
X83305871Y-38077112D01*
X83305870Y-38077111D01*
X83198519Y-37999116D01*
X83155853Y-37943786D01*
X83149874Y-37874173D01*
X83182480Y-37812378D01*
X83243318Y-37778021D01*
X83297184Y-37777508D01*
X83405354Y-37800500D01*
X83405355Y-37800500D01*
X83594644Y-37800500D01*
X83594646Y-37800500D01*
X83779803Y-37761144D01*
X83936213Y-37691505D01*
X83952728Y-37684152D01*
X83952728Y-37684151D01*
X83952730Y-37684151D01*
X83967704Y-37673271D01*
X84033509Y-37649791D01*
X84101563Y-37665615D01*
X84113475Y-37673271D01*
X84197265Y-37734148D01*
X84197270Y-37734151D01*
X84370192Y-37811142D01*
X84370197Y-37811144D01*
X84555354Y-37850500D01*
X84555355Y-37850500D01*
X84744644Y-37850500D01*
X84744646Y-37850500D01*
X84929803Y-37811144D01*
X85102730Y-37734151D01*
X85255871Y-37622888D01*
X85382533Y-37482216D01*
X85477179Y-37318284D01*
X85535674Y-37138256D01*
X85555460Y-36950000D01*
X85535674Y-36761744D01*
X85481112Y-36593823D01*
X85477181Y-36581722D01*
X85477180Y-36581721D01*
X85477179Y-36581716D01*
X85382533Y-36417784D01*
X85255871Y-36277112D01*
X85175606Y-36218796D01*
X85168727Y-36213798D01*
X85126062Y-36158468D01*
X85120083Y-36088854D01*
X85123679Y-36075171D01*
X85131858Y-36050000D01*
X91844540Y-36050000D01*
X91864326Y-36238256D01*
X91864327Y-36238259D01*
X91922818Y-36418277D01*
X91922821Y-36418284D01*
X92017467Y-36582216D01*
X92104475Y-36678848D01*
X92144129Y-36722888D01*
X92297265Y-36834148D01*
X92297270Y-36834151D01*
X92470192Y-36911142D01*
X92470197Y-36911144D01*
X92655354Y-36950500D01*
X92655355Y-36950500D01*
X92844644Y-36950500D01*
X92844646Y-36950500D01*
X93029803Y-36911144D01*
X93202730Y-36834151D01*
X93355871Y-36722888D01*
X93482533Y-36582216D01*
X93577179Y-36418284D01*
X93635674Y-36238256D01*
X93655460Y-36050000D01*
X93635674Y-35861744D01*
X93577179Y-35681716D01*
X93482533Y-35517784D01*
X93355871Y-35377112D01*
X93355870Y-35377111D01*
X93202734Y-35265851D01*
X93202729Y-35265848D01*
X93029807Y-35188857D01*
X93029802Y-35188855D01*
X92884001Y-35157865D01*
X92844646Y-35149500D01*
X92655354Y-35149500D01*
X92622897Y-35156398D01*
X92470197Y-35188855D01*
X92470192Y-35188857D01*
X92297270Y-35265848D01*
X92297265Y-35265851D01*
X92144129Y-35377111D01*
X92017466Y-35517785D01*
X91922821Y-35681715D01*
X91922818Y-35681722D01*
X91864521Y-35861144D01*
X91864326Y-35861744D01*
X91844540Y-36050000D01*
X85131858Y-36050000D01*
X85135674Y-36038256D01*
X85155460Y-35850000D01*
X85135674Y-35661744D01*
X85081112Y-35493823D01*
X85077181Y-35481722D01*
X85077180Y-35481721D01*
X85077179Y-35481716D01*
X84982533Y-35317784D01*
X84855871Y-35177112D01*
X84855870Y-35177111D01*
X84702734Y-35065851D01*
X84702729Y-35065848D01*
X84529807Y-34988857D01*
X84529802Y-34988855D01*
X84384001Y-34957865D01*
X84344646Y-34949500D01*
X84155354Y-34949500D01*
X84122897Y-34956398D01*
X83970197Y-34988855D01*
X83970192Y-34988857D01*
X83797271Y-35065848D01*
X83782401Y-35076652D01*
X83716594Y-35100130D01*
X83648541Y-35084303D01*
X83602131Y-35038332D01*
X83580000Y-35000000D01*
X83532533Y-34917784D01*
X83405871Y-34777112D01*
X83384719Y-34761744D01*
X83252734Y-34665851D01*
X83252729Y-34665848D01*
X83079807Y-34588857D01*
X83079802Y-34588855D01*
X82934001Y-34557865D01*
X82894646Y-34549500D01*
X82705354Y-34549500D01*
X82672897Y-34556398D01*
X82520197Y-34588855D01*
X82520192Y-34588857D01*
X82347270Y-34665848D01*
X82347265Y-34665851D01*
X82194129Y-34777111D01*
X82067466Y-34917785D01*
X81972821Y-35081715D01*
X81972818Y-35081722D01*
X81914327Y-35261740D01*
X81914326Y-35261744D01*
X81894540Y-35450000D01*
X81914326Y-35638256D01*
X81914327Y-35638259D01*
X81972818Y-35818277D01*
X81972821Y-35818284D01*
X82067467Y-35982216D01*
X82163485Y-36088854D01*
X82194129Y-36122888D01*
X82347265Y-36234148D01*
X82347270Y-36234151D01*
X82520192Y-36311142D01*
X82520193Y-36311142D01*
X82520197Y-36311144D01*
X82602623Y-36328664D01*
X82664105Y-36361856D01*
X82697882Y-36423019D01*
X82693230Y-36492733D01*
X82684232Y-36511951D01*
X82672821Y-36531715D01*
X82672818Y-36531722D01*
X82614327Y-36711740D01*
X82614326Y-36711744D01*
X82609071Y-36761744D01*
X82603820Y-36811703D01*
X82577235Y-36876318D01*
X82519937Y-36916302D01*
X82450118Y-36918962D01*
X82389945Y-36883452D01*
X82388349Y-36881713D01*
X82305870Y-36790111D01*
X82152734Y-36678851D01*
X82152729Y-36678848D01*
X81979807Y-36601857D01*
X81979802Y-36601855D01*
X81834000Y-36570865D01*
X81794646Y-36562500D01*
X81605354Y-36562500D01*
X81572897Y-36569398D01*
X81420197Y-36601855D01*
X81420192Y-36601857D01*
X81247270Y-36678848D01*
X81247265Y-36678851D01*
X81094129Y-36790111D01*
X80967466Y-36930785D01*
X80872821Y-37094715D01*
X80872818Y-37094722D01*
X80825986Y-37238857D01*
X80814326Y-37274744D01*
X80794540Y-37463000D01*
X80814326Y-37651256D01*
X80814327Y-37651259D01*
X80872818Y-37831277D01*
X80872823Y-37831289D01*
X80970517Y-38000501D01*
X80986990Y-38068401D01*
X80970517Y-38124499D01*
X80872823Y-38293710D01*
X80872818Y-38293722D01*
X80820772Y-38453904D01*
X80814326Y-38473744D01*
X80794540Y-38662000D01*
X77005715Y-38662000D01*
X77032533Y-38632216D01*
X77127179Y-38468284D01*
X77185674Y-38288256D01*
X77205460Y-38100000D01*
X77185674Y-37911744D01*
X77127179Y-37731716D01*
X77032533Y-37567784D01*
X76905871Y-37427112D01*
X76905870Y-37427111D01*
X76752734Y-37315851D01*
X76752729Y-37315848D01*
X76579807Y-37238857D01*
X76579802Y-37238855D01*
X76434000Y-37207865D01*
X76394646Y-37199500D01*
X76205354Y-37199500D01*
X76172897Y-37206398D01*
X76020197Y-37238855D01*
X76020192Y-37238857D01*
X75847270Y-37315848D01*
X75847265Y-37315851D01*
X75694129Y-37427111D01*
X75567466Y-37567785D01*
X75472821Y-37731715D01*
X75472818Y-37731722D01*
X75414327Y-37911740D01*
X75414326Y-37911744D01*
X75394540Y-38100000D01*
X57284493Y-38100000D01*
X57259790Y-37999775D01*
X57241984Y-37965849D01*
X57180736Y-37849150D01*
X57148159Y-37812378D01*
X57067929Y-37721817D01*
X56997600Y-37673272D01*
X56927931Y-37625182D01*
X56768874Y-37564860D01*
X56768868Y-37564859D01*
X56642374Y-37549500D01*
X56642372Y-37549500D01*
X56557628Y-37549500D01*
X56557626Y-37549500D01*
X56431131Y-37564859D01*
X56431125Y-37564860D01*
X56272068Y-37625182D01*
X56132072Y-37721816D01*
X56019263Y-37849150D01*
X55940210Y-37999773D01*
X55899499Y-38164944D01*
X55899499Y-38335055D01*
X54199180Y-38335055D01*
X54199180Y-34950000D01*
X77844540Y-34950000D01*
X77864326Y-35138256D01*
X77864327Y-35138259D01*
X77922818Y-35318277D01*
X77922821Y-35318284D01*
X78017467Y-35482216D01*
X78144128Y-35622888D01*
X78144129Y-35622888D01*
X78297265Y-35734148D01*
X78297270Y-35734151D01*
X78470192Y-35811142D01*
X78470197Y-35811144D01*
X78655354Y-35850500D01*
X78655355Y-35850500D01*
X78844644Y-35850500D01*
X78844646Y-35850500D01*
X79029803Y-35811144D01*
X79202730Y-35734151D01*
X79355871Y-35622888D01*
X79463424Y-35503438D01*
X79522910Y-35466790D01*
X79592767Y-35468121D01*
X79650815Y-35507007D01*
X79662959Y-35524408D01*
X79667467Y-35532216D01*
X79794129Y-35672888D01*
X79947265Y-35784148D01*
X79947270Y-35784151D01*
X80120192Y-35861142D01*
X80120197Y-35861144D01*
X80305354Y-35900500D01*
X80305355Y-35900500D01*
X80494644Y-35900500D01*
X80494646Y-35900500D01*
X80679803Y-35861144D01*
X80852730Y-35784151D01*
X81005871Y-35672888D01*
X81132533Y-35532216D01*
X81227179Y-35368284D01*
X81285674Y-35188256D01*
X81305460Y-35000000D01*
X81285674Y-34811744D01*
X81227179Y-34631716D01*
X81132533Y-34467784D01*
X81005871Y-34327112D01*
X80993529Y-34318145D01*
X80852734Y-34215851D01*
X80852729Y-34215848D01*
X80679807Y-34138857D01*
X80679802Y-34138855D01*
X80534001Y-34107865D01*
X80494646Y-34099500D01*
X80305354Y-34099500D01*
X80272897Y-34106398D01*
X80120197Y-34138855D01*
X80120192Y-34138857D01*
X79947270Y-34215848D01*
X79947265Y-34215851D01*
X79794129Y-34327111D01*
X79794128Y-34327112D01*
X79686575Y-34446561D01*
X79627088Y-34483209D01*
X79557231Y-34481878D01*
X79499183Y-34442991D01*
X79487039Y-34425588D01*
X79485287Y-34422554D01*
X79482533Y-34417784D01*
X79355871Y-34277112D01*
X79355870Y-34277111D01*
X79202734Y-34165851D01*
X79202729Y-34165848D01*
X79029807Y-34088857D01*
X79029802Y-34088855D01*
X78884001Y-34057865D01*
X78844646Y-34049500D01*
X78655354Y-34049500D01*
X78622897Y-34056398D01*
X78470197Y-34088855D01*
X78470192Y-34088857D01*
X78297270Y-34165848D01*
X78297265Y-34165851D01*
X78144129Y-34277111D01*
X78017466Y-34417785D01*
X77922821Y-34581715D01*
X77922818Y-34581722D01*
X77864327Y-34761740D01*
X77864326Y-34761744D01*
X77859071Y-34811744D01*
X77844593Y-34949500D01*
X77844540Y-34950000D01*
X54199180Y-34950000D01*
X54199180Y-33457001D01*
X87855481Y-33457001D01*
X87875267Y-33645257D01*
X87875268Y-33645260D01*
X87933759Y-33825278D01*
X87933762Y-33825285D01*
X88028408Y-33989217D01*
X88118123Y-34088855D01*
X88155070Y-34129889D01*
X88308206Y-34241149D01*
X88308211Y-34241152D01*
X88481133Y-34318143D01*
X88481138Y-34318145D01*
X88666295Y-34357501D01*
X88666296Y-34357501D01*
X88855585Y-34357501D01*
X88855587Y-34357501D01*
X89040744Y-34318145D01*
X89213671Y-34241152D01*
X89366812Y-34129889D01*
X89493474Y-33989217D01*
X89588120Y-33825285D01*
X89646615Y-33645257D01*
X89666401Y-33457001D01*
X89646615Y-33268745D01*
X89588120Y-33088717D01*
X89493474Y-32924785D01*
X89366812Y-32784113D01*
X89366811Y-32784112D01*
X89213675Y-32672852D01*
X89213670Y-32672849D01*
X89040748Y-32595858D01*
X89040743Y-32595856D01*
X88894941Y-32564866D01*
X88855587Y-32556501D01*
X88666295Y-32556501D01*
X88633838Y-32563399D01*
X88481138Y-32595856D01*
X88481133Y-32595858D01*
X88308211Y-32672849D01*
X88308206Y-32672852D01*
X88155070Y-32784112D01*
X88028407Y-32924786D01*
X87933762Y-33088716D01*
X87933759Y-33088723D01*
X87875268Y-33268741D01*
X87875267Y-33268745D01*
X87855481Y-33457001D01*
X54199180Y-33457001D01*
X54199180Y-32350000D01*
X61144540Y-32350000D01*
X61164326Y-32538256D01*
X61164327Y-32538259D01*
X61222818Y-32718277D01*
X61222821Y-32718284D01*
X61317467Y-32882216D01*
X61399109Y-32972888D01*
X61444129Y-33022888D01*
X61597265Y-33134148D01*
X61597270Y-33134151D01*
X61770192Y-33211142D01*
X61770197Y-33211144D01*
X61955354Y-33250500D01*
X61955355Y-33250500D01*
X62144644Y-33250500D01*
X62144646Y-33250500D01*
X62329803Y-33211144D01*
X62502730Y-33134151D01*
X62655871Y-33022888D01*
X62782533Y-32882216D01*
X62877179Y-32718284D01*
X62935674Y-32538256D01*
X62955460Y-32350000D01*
X62950205Y-32300000D01*
X81394540Y-32300000D01*
X81414326Y-32488256D01*
X81414327Y-32488259D01*
X81472818Y-32668277D01*
X81472821Y-32668284D01*
X81567467Y-32832216D01*
X81650817Y-32924785D01*
X81694129Y-32972888D01*
X81847265Y-33084148D01*
X81847270Y-33084151D01*
X82020192Y-33161142D01*
X82020197Y-33161144D01*
X82205354Y-33200500D01*
X82205355Y-33200500D01*
X82394644Y-33200500D01*
X82394646Y-33200500D01*
X82579803Y-33161144D01*
X82752730Y-33084151D01*
X82905871Y-32972888D01*
X83032533Y-32832216D01*
X83127179Y-32668284D01*
X83185674Y-32488256D01*
X83196526Y-32385000D01*
X96844341Y-32385000D01*
X96864936Y-32620403D01*
X96864938Y-32620413D01*
X96926094Y-32848655D01*
X96926096Y-32848659D01*
X96926097Y-32848663D01*
X96961594Y-32924786D01*
X97025965Y-33062830D01*
X97025967Y-33062834D01*
X97094804Y-33161142D01*
X97161501Y-33256396D01*
X97161506Y-33256402D01*
X97283430Y-33378326D01*
X97316915Y-33439649D01*
X97311931Y-33509341D01*
X97270059Y-33565274D01*
X97239083Y-33582189D01*
X97107669Y-33631203D01*
X97107664Y-33631206D01*
X96992455Y-33717452D01*
X96992452Y-33717455D01*
X96906206Y-33832664D01*
X96906202Y-33832671D01*
X96855908Y-33967517D01*
X96849501Y-34027116D01*
X96849501Y-34027123D01*
X96849500Y-34027135D01*
X96849500Y-35822870D01*
X96849501Y-35822876D01*
X96855908Y-35882483D01*
X96906202Y-36017328D01*
X96906206Y-36017335D01*
X96992452Y-36132544D01*
X96992455Y-36132547D01*
X97107664Y-36218793D01*
X97107671Y-36218797D01*
X97242517Y-36269091D01*
X97242516Y-36269091D01*
X97249444Y-36269835D01*
X97302127Y-36275500D01*
X99097872Y-36275499D01*
X99157483Y-36269091D01*
X99292331Y-36218796D01*
X99407546Y-36132546D01*
X99493796Y-36017331D01*
X99544091Y-35882483D01*
X99550500Y-35822873D01*
X99550499Y-34027128D01*
X99544091Y-33967517D01*
X99493796Y-33832669D01*
X99493795Y-33832668D01*
X99493793Y-33832664D01*
X99407547Y-33717455D01*
X99407544Y-33717452D01*
X99292335Y-33631206D01*
X99292328Y-33631202D01*
X99160917Y-33582189D01*
X99104983Y-33540318D01*
X99080566Y-33474853D01*
X99095418Y-33406580D01*
X99116563Y-33378332D01*
X99238495Y-33256401D01*
X99374035Y-33062830D01*
X99473903Y-32848663D01*
X99535063Y-32620408D01*
X99555659Y-32385000D01*
X99535063Y-32149592D01*
X99473903Y-31921337D01*
X99374035Y-31707171D01*
X99369172Y-31700225D01*
X99238494Y-31513597D01*
X99071402Y-31346506D01*
X99071395Y-31346501D01*
X98877834Y-31210967D01*
X98877830Y-31210965D01*
X98853829Y-31199773D01*
X98663663Y-31111097D01*
X98663659Y-31111096D01*
X98663655Y-31111094D01*
X98435413Y-31049938D01*
X98435403Y-31049936D01*
X98200001Y-31029341D01*
X98199999Y-31029341D01*
X97964596Y-31049936D01*
X97964586Y-31049938D01*
X97736344Y-31111094D01*
X97736335Y-31111098D01*
X97522171Y-31210964D01*
X97522169Y-31210965D01*
X97328597Y-31346505D01*
X97161505Y-31513597D01*
X97025965Y-31707169D01*
X97025964Y-31707171D01*
X96926098Y-31921335D01*
X96926094Y-31921344D01*
X96864938Y-32149586D01*
X96864936Y-32149596D01*
X96844341Y-32384999D01*
X96844341Y-32385000D01*
X83196526Y-32385000D01*
X83205460Y-32300000D01*
X83185674Y-32111744D01*
X83127179Y-31931716D01*
X83032533Y-31767784D01*
X82905871Y-31627112D01*
X82905870Y-31627111D01*
X82752734Y-31515851D01*
X82752729Y-31515848D01*
X82579807Y-31438857D01*
X82579802Y-31438855D01*
X82434000Y-31407865D01*
X82394646Y-31399500D01*
X82205354Y-31399500D01*
X82172897Y-31406398D01*
X82020197Y-31438855D01*
X82020192Y-31438857D01*
X81847270Y-31515848D01*
X81847265Y-31515851D01*
X81694129Y-31627111D01*
X81567466Y-31767785D01*
X81472821Y-31931715D01*
X81472818Y-31931722D01*
X81426324Y-32074817D01*
X81414326Y-32111744D01*
X81394540Y-32300000D01*
X62950205Y-32300000D01*
X62935674Y-32161744D01*
X62877179Y-31981716D01*
X62782533Y-31817784D01*
X62655871Y-31677112D01*
X62587052Y-31627112D01*
X62502734Y-31565851D01*
X62502729Y-31565848D01*
X62329807Y-31488857D01*
X62329802Y-31488855D01*
X62184000Y-31457865D01*
X62144646Y-31449500D01*
X61955354Y-31449500D01*
X61922897Y-31456398D01*
X61770197Y-31488855D01*
X61770192Y-31488857D01*
X61597270Y-31565848D01*
X61597265Y-31565851D01*
X61444129Y-31677111D01*
X61317466Y-31817785D01*
X61222821Y-31981715D01*
X61222818Y-31981722D01*
X61172970Y-32135140D01*
X61164326Y-32161744D01*
X61144540Y-32350000D01*
X54199180Y-32350000D01*
X54199180Y-31535055D01*
X55899499Y-31535055D01*
X55940210Y-31700226D01*
X56019263Y-31850849D01*
X56019266Y-31850852D01*
X56132071Y-31978183D01*
X56222318Y-32040476D01*
X56272068Y-32074817D01*
X56272069Y-32074817D01*
X56272070Y-32074818D01*
X56431128Y-32135140D01*
X56507028Y-32144356D01*
X56557626Y-32150500D01*
X56557628Y-32150500D01*
X56642374Y-32150500D01*
X56684538Y-32145380D01*
X56768872Y-32135140D01*
X56927930Y-32074818D01*
X57067929Y-31978183D01*
X57180734Y-31850852D01*
X57259790Y-31700225D01*
X57300500Y-31535056D01*
X57300500Y-31364944D01*
X57259790Y-31199775D01*
X57259789Y-31199773D01*
X57180736Y-31049150D01*
X57161560Y-31027505D01*
X57067929Y-30921817D01*
X57018177Y-30887475D01*
X56927931Y-30825182D01*
X56768874Y-30764860D01*
X56768868Y-30764859D01*
X56642374Y-30749500D01*
X56642372Y-30749500D01*
X56557628Y-30749500D01*
X56557626Y-30749500D01*
X56431131Y-30764859D01*
X56431125Y-30764860D01*
X56272068Y-30825182D01*
X56132072Y-30921816D01*
X56019263Y-31049150D01*
X55940210Y-31199773D01*
X55899499Y-31364944D01*
X55899499Y-31535055D01*
X54199180Y-31535055D01*
X54199180Y-30450000D01*
X83094540Y-30450000D01*
X83114326Y-30638256D01*
X83114327Y-30638259D01*
X83172818Y-30818277D01*
X83172821Y-30818284D01*
X83267467Y-30982216D01*
X83383510Y-31111094D01*
X83394129Y-31122888D01*
X83547265Y-31234148D01*
X83547270Y-31234151D01*
X83720192Y-31311142D01*
X83720197Y-31311144D01*
X83905354Y-31350500D01*
X83905355Y-31350500D01*
X84094644Y-31350500D01*
X84094646Y-31350500D01*
X84279803Y-31311144D01*
X84452730Y-31234151D01*
X84605871Y-31122888D01*
X84732533Y-30982216D01*
X84827179Y-30818284D01*
X84885674Y-30638256D01*
X84905460Y-30450000D01*
X84885674Y-30261744D01*
X84827179Y-30081716D01*
X84732533Y-29917784D01*
X84605871Y-29777112D01*
X84574941Y-29754640D01*
X84452734Y-29665851D01*
X84452729Y-29665848D01*
X84279807Y-29588857D01*
X84279802Y-29588855D01*
X84134001Y-29557865D01*
X84094646Y-29549500D01*
X83905354Y-29549500D01*
X83872897Y-29556398D01*
X83720197Y-29588855D01*
X83720192Y-29588857D01*
X83547270Y-29665848D01*
X83547265Y-29665851D01*
X83394129Y-29777111D01*
X83267466Y-29917785D01*
X83172821Y-30081715D01*
X83172818Y-30081722D01*
X83114327Y-30261740D01*
X83114326Y-30261744D01*
X83094540Y-30450000D01*
X54199180Y-30450000D01*
X54199180Y-25421320D01*
X55523373Y-25421320D01*
X55542592Y-25837017D01*
X55542592Y-25837022D01*
X55542593Y-25837027D01*
X55600083Y-26249165D01*
X55600085Y-26249173D01*
X55695359Y-26654253D01*
X55827609Y-27048834D01*
X55995690Y-27429497D01*
X55995700Y-27429518D01*
X56198186Y-27793051D01*
X56198189Y-27793055D01*
X56198191Y-27793059D01*
X56433367Y-28136374D01*
X56433369Y-28136376D01*
X56433376Y-28136386D01*
X56699208Y-28456514D01*
X56699218Y-28456526D01*
X56993474Y-28750782D01*
X56993485Y-28750791D01*
X57313613Y-29016623D01*
X57313619Y-29016627D01*
X57313626Y-29016633D01*
X57656941Y-29251809D01*
X58020492Y-29454305D01*
X58210833Y-29538349D01*
X58401165Y-29622390D01*
X58401168Y-29622391D01*
X58401175Y-29622394D01*
X58795744Y-29754640D01*
X59200832Y-29849916D01*
X59612983Y-29907408D01*
X60028680Y-29926627D01*
X60444377Y-29907408D01*
X60856528Y-29849916D01*
X61261616Y-29754640D01*
X61656185Y-29622394D01*
X62036868Y-29454305D01*
X62400419Y-29251809D01*
X62743734Y-29016633D01*
X63063886Y-28750782D01*
X63358142Y-28456526D01*
X63623993Y-28136374D01*
X63859169Y-27793059D01*
X64061665Y-27429508D01*
X64229754Y-27048825D01*
X64362000Y-26654256D01*
X64457276Y-26249168D01*
X64514768Y-25837017D01*
X64533987Y-25421320D01*
X64516589Y-25045004D01*
X68794451Y-25045004D01*
X68814616Y-25314101D01*
X68855043Y-25491221D01*
X68874666Y-25577195D01*
X68973257Y-25828398D01*
X69108185Y-26062102D01*
X69244080Y-26232509D01*
X69276442Y-26273089D01*
X69463183Y-26446358D01*
X69474259Y-26456635D01*
X69697226Y-26608651D01*
X69940359Y-26725738D01*
X70198228Y-26805280D01*
X70198229Y-26805280D01*
X70198232Y-26805281D01*
X70465063Y-26845499D01*
X70465068Y-26845499D01*
X70465071Y-26845500D01*
X70465072Y-26845500D01*
X70734928Y-26845500D01*
X70734929Y-26845500D01*
X70734936Y-26845499D01*
X71001767Y-26805281D01*
X71001768Y-26805280D01*
X71001772Y-26805280D01*
X71259641Y-26725738D01*
X71502775Y-26608651D01*
X71725741Y-26456635D01*
X71923561Y-26273085D01*
X72091815Y-26062102D01*
X72226743Y-25828398D01*
X72325334Y-25577195D01*
X72385383Y-25314103D01*
X72405549Y-25045004D01*
X73794451Y-25045004D01*
X73814616Y-25314101D01*
X73855043Y-25491221D01*
X73874666Y-25577195D01*
X73973257Y-25828398D01*
X74108185Y-26062102D01*
X74244080Y-26232509D01*
X74276442Y-26273089D01*
X74463183Y-26446358D01*
X74474259Y-26456635D01*
X74697226Y-26608651D01*
X74940359Y-26725738D01*
X75198228Y-26805280D01*
X75198229Y-26805280D01*
X75198232Y-26805281D01*
X75465063Y-26845499D01*
X75465068Y-26845499D01*
X75465071Y-26845500D01*
X75465072Y-26845500D01*
X75734928Y-26845500D01*
X75734929Y-26845500D01*
X75734936Y-26845499D01*
X76001767Y-26805281D01*
X76001768Y-26805280D01*
X76001772Y-26805280D01*
X76259641Y-26725738D01*
X76502775Y-26608651D01*
X76725741Y-26456635D01*
X76923561Y-26273085D01*
X77091815Y-26062102D01*
X77226743Y-25828398D01*
X77325334Y-25577195D01*
X77385383Y-25314103D01*
X77405549Y-25045004D01*
X78794451Y-25045004D01*
X78814616Y-25314101D01*
X78855043Y-25491221D01*
X78874666Y-25577195D01*
X78973257Y-25828398D01*
X79108185Y-26062102D01*
X79244080Y-26232509D01*
X79276442Y-26273089D01*
X79463183Y-26446358D01*
X79474259Y-26456635D01*
X79697226Y-26608651D01*
X79940359Y-26725738D01*
X80198228Y-26805280D01*
X80198229Y-26805280D01*
X80198232Y-26805281D01*
X80465063Y-26845499D01*
X80465068Y-26845499D01*
X80465071Y-26845500D01*
X80465072Y-26845500D01*
X80734928Y-26845500D01*
X80734929Y-26845500D01*
X80734936Y-26845499D01*
X81001767Y-26805281D01*
X81001768Y-26805280D01*
X81001772Y-26805280D01*
X81259641Y-26725738D01*
X81502775Y-26608651D01*
X81725741Y-26456635D01*
X81794463Y-26392870D01*
X83799500Y-26392870D01*
X83799501Y-26392876D01*
X83805908Y-26452483D01*
X83856202Y-26587328D01*
X83856206Y-26587335D01*
X83942452Y-26702544D01*
X83942455Y-26702547D01*
X84057664Y-26788793D01*
X84057671Y-26788797D01*
X84192517Y-26839091D01*
X84192516Y-26839091D01*
X84199444Y-26839835D01*
X84252127Y-26845500D01*
X86947872Y-26845499D01*
X87007483Y-26839091D01*
X87142331Y-26788796D01*
X87257546Y-26702546D01*
X87343796Y-26587331D01*
X87394091Y-26452483D01*
X87400500Y-26392873D01*
X87400500Y-25421320D01*
X93213373Y-25421320D01*
X93232592Y-25837017D01*
X93232592Y-25837022D01*
X93232593Y-25837027D01*
X93290083Y-26249165D01*
X93290085Y-26249173D01*
X93385359Y-26654253D01*
X93517609Y-27048834D01*
X93685690Y-27429497D01*
X93685700Y-27429518D01*
X93888186Y-27793051D01*
X93888189Y-27793055D01*
X93888191Y-27793059D01*
X94123367Y-28136374D01*
X94123369Y-28136376D01*
X94123376Y-28136386D01*
X94389208Y-28456514D01*
X94389218Y-28456526D01*
X94683474Y-28750782D01*
X94683485Y-28750791D01*
X95003613Y-29016623D01*
X95003619Y-29016627D01*
X95003626Y-29016633D01*
X95346941Y-29251809D01*
X95710492Y-29454305D01*
X95900833Y-29538349D01*
X96091165Y-29622390D01*
X96091168Y-29622391D01*
X96091175Y-29622394D01*
X96485744Y-29754640D01*
X96890832Y-29849916D01*
X97302983Y-29907408D01*
X97718680Y-29926627D01*
X98134377Y-29907408D01*
X98546528Y-29849916D01*
X98951616Y-29754640D01*
X99346185Y-29622394D01*
X99726868Y-29454305D01*
X100090419Y-29251809D01*
X100433734Y-29016633D01*
X100753886Y-28750782D01*
X101048142Y-28456526D01*
X101313993Y-28136374D01*
X101549169Y-27793059D01*
X101751665Y-27429508D01*
X101919754Y-27048825D01*
X102052000Y-26654256D01*
X102147276Y-26249168D01*
X102204768Y-25837017D01*
X102223987Y-25421320D01*
X102204768Y-25005623D01*
X102147276Y-24593472D01*
X102052000Y-24188384D01*
X101919754Y-23793815D01*
X101877065Y-23697135D01*
X101824756Y-23578667D01*
X101751665Y-23413132D01*
X101745312Y-23401727D01*
X101549173Y-23049588D01*
X101549172Y-23049587D01*
X101549169Y-23049581D01*
X101313993Y-22706266D01*
X101313987Y-22706259D01*
X101313983Y-22706253D01*
X101048151Y-22386125D01*
X101048142Y-22386114D01*
X100753886Y-22091858D01*
X100753874Y-22091848D01*
X100433746Y-21826016D01*
X100433736Y-21826009D01*
X100433734Y-21826007D01*
X100090419Y-21590831D01*
X100090415Y-21590829D01*
X100090411Y-21590826D01*
X99726878Y-21388340D01*
X99726857Y-21388330D01*
X99346194Y-21220249D01*
X98951613Y-21087999D01*
X98546533Y-20992725D01*
X98546525Y-20992723D01*
X98134387Y-20935233D01*
X98134382Y-20935232D01*
X98134377Y-20935232D01*
X97718680Y-20916013D01*
X97302983Y-20935232D01*
X97302977Y-20935232D01*
X97302972Y-20935233D01*
X96890834Y-20992723D01*
X96890826Y-20992725D01*
X96485746Y-21087999D01*
X96091165Y-21220249D01*
X95710502Y-21388330D01*
X95710481Y-21388340D01*
X95346948Y-21590826D01*
X95346942Y-21590830D01*
X95003623Y-21826009D01*
X95003613Y-21826016D01*
X94683485Y-22091848D01*
X94683465Y-22091866D01*
X94389226Y-22386105D01*
X94389208Y-22386125D01*
X94123376Y-22706253D01*
X94123369Y-22706263D01*
X93888190Y-23049582D01*
X93888186Y-23049588D01*
X93685700Y-23413121D01*
X93685690Y-23413142D01*
X93517609Y-23793805D01*
X93385359Y-24188386D01*
X93290085Y-24593466D01*
X93290083Y-24593474D01*
X93232593Y-25005612D01*
X93232592Y-25005617D01*
X93232592Y-25005623D01*
X93213373Y-25421320D01*
X87400500Y-25421320D01*
X87400499Y-23697128D01*
X87394091Y-23637517D01*
X87392542Y-23633365D01*
X87343797Y-23502671D01*
X87343793Y-23502664D01*
X87257547Y-23387455D01*
X87257544Y-23387452D01*
X87142335Y-23301206D01*
X87142328Y-23301202D01*
X87007482Y-23250908D01*
X87007483Y-23250908D01*
X86947883Y-23244501D01*
X86947881Y-23244500D01*
X86947873Y-23244500D01*
X86947864Y-23244500D01*
X84252129Y-23244500D01*
X84252123Y-23244501D01*
X84192516Y-23250908D01*
X84057671Y-23301202D01*
X84057664Y-23301206D01*
X83942455Y-23387452D01*
X83942452Y-23387455D01*
X83856206Y-23502664D01*
X83856202Y-23502671D01*
X83805908Y-23637517D01*
X83802082Y-23673111D01*
X83799501Y-23697123D01*
X83799500Y-23697135D01*
X83799500Y-26392870D01*
X81794463Y-26392870D01*
X81923561Y-26273085D01*
X82091815Y-26062102D01*
X82226743Y-25828398D01*
X82325334Y-25577195D01*
X82385383Y-25314103D01*
X82405549Y-25045000D01*
X82404174Y-25026654D01*
X82385383Y-24775898D01*
X82343746Y-24593474D01*
X82325334Y-24512805D01*
X82226743Y-24261602D01*
X82091815Y-24027898D01*
X81923561Y-23816915D01*
X81923560Y-23816914D01*
X81923557Y-23816910D01*
X81725741Y-23633365D01*
X81645514Y-23578667D01*
X81502775Y-23481349D01*
X81502769Y-23481346D01*
X81502768Y-23481345D01*
X81502767Y-23481344D01*
X81259643Y-23364263D01*
X81259645Y-23364263D01*
X81001773Y-23284720D01*
X81001767Y-23284718D01*
X80734936Y-23244500D01*
X80734929Y-23244500D01*
X80465071Y-23244500D01*
X80465063Y-23244500D01*
X80198232Y-23284718D01*
X80198226Y-23284720D01*
X79940358Y-23364262D01*
X79697230Y-23481346D01*
X79474258Y-23633365D01*
X79276442Y-23816910D01*
X79108185Y-24027898D01*
X78973258Y-24261599D01*
X78973256Y-24261603D01*
X78874666Y-24512804D01*
X78874664Y-24512811D01*
X78814616Y-24775898D01*
X78794451Y-25044995D01*
X78794451Y-25045004D01*
X77405549Y-25045004D01*
X77405549Y-25045000D01*
X77404174Y-25026654D01*
X77385383Y-24775898D01*
X77343746Y-24593474D01*
X77325334Y-24512805D01*
X77226743Y-24261602D01*
X77091815Y-24027898D01*
X76923561Y-23816915D01*
X76923560Y-23816914D01*
X76923557Y-23816910D01*
X76725741Y-23633365D01*
X76645514Y-23578667D01*
X76502775Y-23481349D01*
X76502769Y-23481346D01*
X76502768Y-23481345D01*
X76502767Y-23481344D01*
X76259643Y-23364263D01*
X76259645Y-23364263D01*
X76001773Y-23284720D01*
X76001767Y-23284718D01*
X75734936Y-23244500D01*
X75734929Y-23244500D01*
X75465071Y-23244500D01*
X75465063Y-23244500D01*
X75198232Y-23284718D01*
X75198226Y-23284720D01*
X74940358Y-23364262D01*
X74697230Y-23481346D01*
X74474258Y-23633365D01*
X74276442Y-23816910D01*
X74108185Y-24027898D01*
X73973258Y-24261599D01*
X73973256Y-24261603D01*
X73874666Y-24512804D01*
X73874664Y-24512811D01*
X73814616Y-24775898D01*
X73794451Y-25044995D01*
X73794451Y-25045004D01*
X72405549Y-25045004D01*
X72405549Y-25045000D01*
X72404174Y-25026654D01*
X72385383Y-24775898D01*
X72343746Y-24593474D01*
X72325334Y-24512805D01*
X72226743Y-24261602D01*
X72091815Y-24027898D01*
X71923561Y-23816915D01*
X71923560Y-23816914D01*
X71923557Y-23816910D01*
X71725741Y-23633365D01*
X71645514Y-23578667D01*
X71502775Y-23481349D01*
X71502769Y-23481346D01*
X71502768Y-23481345D01*
X71502767Y-23481344D01*
X71259643Y-23364263D01*
X71259645Y-23364263D01*
X71001773Y-23284720D01*
X71001767Y-23284718D01*
X70734936Y-23244500D01*
X70734929Y-23244500D01*
X70465071Y-23244500D01*
X70465063Y-23244500D01*
X70198232Y-23284718D01*
X70198226Y-23284720D01*
X69940358Y-23364262D01*
X69697230Y-23481346D01*
X69474258Y-23633365D01*
X69276442Y-23816910D01*
X69108185Y-24027898D01*
X68973258Y-24261599D01*
X68973256Y-24261603D01*
X68874666Y-24512804D01*
X68874664Y-24512811D01*
X68814616Y-24775898D01*
X68794451Y-25044995D01*
X68794451Y-25045004D01*
X64516589Y-25045004D01*
X64514768Y-25005623D01*
X64457276Y-24593472D01*
X64362000Y-24188384D01*
X64229754Y-23793815D01*
X64187065Y-23697135D01*
X64134756Y-23578667D01*
X64061665Y-23413132D01*
X64055312Y-23401727D01*
X63859173Y-23049588D01*
X63859172Y-23049587D01*
X63859169Y-23049581D01*
X63623993Y-22706266D01*
X63623987Y-22706259D01*
X63623983Y-22706253D01*
X63358151Y-22386125D01*
X63358142Y-22386114D01*
X63063886Y-22091858D01*
X63063874Y-22091848D01*
X62743746Y-21826016D01*
X62743736Y-21826009D01*
X62743734Y-21826007D01*
X62400419Y-21590831D01*
X62400415Y-21590829D01*
X62400411Y-21590826D01*
X62036878Y-21388340D01*
X62036857Y-21388330D01*
X61656194Y-21220249D01*
X61261613Y-21087999D01*
X60856533Y-20992725D01*
X60856525Y-20992723D01*
X60444387Y-20935233D01*
X60444382Y-20935232D01*
X60444377Y-20935232D01*
X60028680Y-20916013D01*
X60028679Y-20916013D01*
X59992933Y-20917665D01*
X59612983Y-20935232D01*
X59612977Y-20935232D01*
X59612972Y-20935233D01*
X59200834Y-20992723D01*
X59200826Y-20992725D01*
X58795746Y-21087999D01*
X58401165Y-21220249D01*
X58020502Y-21388330D01*
X58020481Y-21388340D01*
X57656948Y-21590826D01*
X57656942Y-21590830D01*
X57313623Y-21826009D01*
X57313613Y-21826016D01*
X56993485Y-22091848D01*
X56993465Y-22091866D01*
X56699226Y-22386105D01*
X56699208Y-22386125D01*
X56433376Y-22706253D01*
X56433369Y-22706263D01*
X56198190Y-23049582D01*
X56198186Y-23049588D01*
X55995700Y-23413121D01*
X55995690Y-23413142D01*
X55827609Y-23793805D01*
X55695359Y-24188386D01*
X55600085Y-24593466D01*
X55600083Y-24593474D01*
X55542593Y-25005612D01*
X55542592Y-25005617D01*
X55542592Y-25005623D01*
X55523373Y-25421320D01*
X54199180Y-25421320D01*
X54199180Y-25421319D01*
X54203392Y-25314103D01*
X54208687Y-25179328D01*
X54217740Y-24960477D01*
X54218111Y-24955816D01*
X54246448Y-24716407D01*
X54261773Y-24593466D01*
X54274167Y-24494038D01*
X54274872Y-24489669D01*
X54321750Y-24253997D01*
X54367941Y-24033703D01*
X54368946Y-24029616D01*
X54369431Y-24027898D01*
X54434098Y-23798600D01*
X54498459Y-23582419D01*
X54499709Y-23578667D01*
X54582731Y-23353627D01*
X54664879Y-23143101D01*
X54666293Y-23139774D01*
X54766721Y-22921928D01*
X54866101Y-22718644D01*
X54867636Y-22715713D01*
X54984881Y-22506358D01*
X55100792Y-22311834D01*
X55102434Y-22309234D01*
X55235792Y-22109648D01*
X55367469Y-21925225D01*
X55369171Y-21922957D01*
X55517817Y-21734401D01*
X55665190Y-21560397D01*
X55829150Y-21383026D01*
X55990386Y-21221790D01*
X56167757Y-21057830D01*
X56341761Y-20910457D01*
X56530317Y-20761811D01*
X56532585Y-20760109D01*
X56717008Y-20628432D01*
X56916594Y-20495074D01*
X56919194Y-20493432D01*
X57113696Y-20377534D01*
X57323073Y-20260276D01*
X57326004Y-20258741D01*
X57529288Y-20159361D01*
X57747134Y-20058933D01*
X57750461Y-20057519D01*
X57960987Y-19975371D01*
X58186040Y-19892344D01*
X58189779Y-19891099D01*
X58405960Y-19826738D01*
X58636977Y-19761585D01*
X58641063Y-19760581D01*
X58861357Y-19714390D01*
X59097029Y-19667512D01*
X59101398Y-19666807D01*
X59323763Y-19639088D01*
X59563174Y-19610752D01*
X59567837Y-19610380D01*
X59786745Y-19601325D01*
X60028680Y-19591820D01*
X60029180Y-19591820D01*
X97718779Y-19591820D01*
X97729307Y-19591820D01*
X97737411Y-19592140D01*
G37*
%TD.AperFunction*%
%TD*%
M02*
