%TF.GenerationSoftware,KiCad,Pcbnew,7.0.7*%
%TF.CreationDate,2024-02-07T15:25:17-06:00*%
%TF.ProjectId,stm32f429z,73746d33-3266-4343-9239-7a2e6b696361,rev?*%
%TF.SameCoordinates,Original*%
%TF.FileFunction,Copper,L1,Top*%
%TF.FilePolarity,Positive*%
%FSLAX46Y46*%
G04 Gerber Fmt 4.6, Leading zero omitted, Abs format (unit mm)*
G04 Created by KiCad (PCBNEW 7.0.7) date 2024-02-07 15:25:18*
%MOMM*%
%LPD*%
G01*
G04 APERTURE LIST*
G04 Aperture macros list*
%AMRoundRect*
0 Rectangle with rounded corners*
0 $1 Rounding radius*
0 $2 $3 $4 $5 $6 $7 $8 $9 X,Y pos of 4 corners*
0 Add a 4 corners polygon primitive as box body*
4,1,4,$2,$3,$4,$5,$6,$7,$8,$9,$2,$3,0*
0 Add four circle primitives for the rounded corners*
1,1,$1+$1,$2,$3*
1,1,$1+$1,$4,$5*
1,1,$1+$1,$6,$7*
1,1,$1+$1,$8,$9*
0 Add four rect primitives between the rounded corners*
20,1,$1+$1,$2,$3,$4,$5,0*
20,1,$1+$1,$4,$5,$6,$7,0*
20,1,$1+$1,$6,$7,$8,$9,0*
20,1,$1+$1,$8,$9,$2,$3,0*%
%AMOutline4P*
0 Free polygon, 4 corners , with rotation*
0 The origin of the aperture is its center*
0 number of corners: always 4*
0 $1 to $8 corner X, Y*
0 $9 Rotation angle, in degrees counterclockwise*
0 create outline with 4 corners*
4,1,4,$1,$2,$3,$4,$5,$6,$7,$8,$1,$2,$9*%
G04 Aperture macros list end*
%TA.AperFunction,ComponentPad*%
%ADD10R,1.500000X1.500000*%
%TD*%
%TA.AperFunction,ComponentPad*%
%ADD11C,1.500000*%
%TD*%
%TA.AperFunction,ComponentPad*%
%ADD12C,3.000000*%
%TD*%
%TA.AperFunction,SMDPad,CuDef*%
%ADD13R,2.000000X1.500000*%
%TD*%
%TA.AperFunction,SMDPad,CuDef*%
%ADD14R,2.000000X3.800000*%
%TD*%
%TA.AperFunction,SMDPad,CuDef*%
%ADD15RoundRect,0.237500X-0.237500X0.250000X-0.237500X-0.250000X0.237500X-0.250000X0.237500X0.250000X0*%
%TD*%
%TA.AperFunction,ComponentPad*%
%ADD16R,3.750000X3.750000*%
%TD*%
%TA.AperFunction,ComponentPad*%
%ADD17C,3.750000*%
%TD*%
%TA.AperFunction,SMDPad,CuDef*%
%ADD18RoundRect,0.237500X0.237500X-0.250000X0.237500X0.250000X-0.237500X0.250000X-0.237500X-0.250000X0*%
%TD*%
%TA.AperFunction,SMDPad,CuDef*%
%ADD19RoundRect,0.237500X0.300000X0.237500X-0.300000X0.237500X-0.300000X-0.237500X0.300000X-0.237500X0*%
%TD*%
%TA.AperFunction,SMDPad,CuDef*%
%ADD20Outline4P,-1.800000X-1.150000X1.800000X-0.550000X1.800000X0.550000X-1.800000X1.150000X0.000000*%
%TD*%
%TA.AperFunction,SMDPad,CuDef*%
%ADD21Outline4P,-1.800000X-1.150000X1.800000X-0.550000X1.800000X0.550000X-1.800000X1.150000X180.000000*%
%TD*%
%TA.AperFunction,ComponentPad*%
%ADD22R,1.700000X1.700000*%
%TD*%
%TA.AperFunction,ComponentPad*%
%ADD23O,1.700000X1.700000*%
%TD*%
%TA.AperFunction,ComponentPad*%
%ADD24R,2.600000X2.600000*%
%TD*%
%TA.AperFunction,ComponentPad*%
%ADD25C,2.600000*%
%TD*%
%TA.AperFunction,SMDPad,CuDef*%
%ADD26RoundRect,0.237500X-0.237500X0.300000X-0.237500X-0.300000X0.237500X-0.300000X0.237500X0.300000X0*%
%TD*%
%TA.AperFunction,SMDPad,CuDef*%
%ADD27RoundRect,0.237500X-0.287500X-0.237500X0.287500X-0.237500X0.287500X0.237500X-0.287500X0.237500X0*%
%TD*%
%TA.AperFunction,SMDPad,CuDef*%
%ADD28RoundRect,0.237500X0.237500X-0.287500X0.237500X0.287500X-0.237500X0.287500X-0.237500X-0.287500X0*%
%TD*%
%TA.AperFunction,SMDPad,CuDef*%
%ADD29R,1.250000X2.500000*%
%TD*%
%TA.AperFunction,SMDPad,CuDef*%
%ADD30R,1.550000X1.300000*%
%TD*%
%TA.AperFunction,SMDPad,CuDef*%
%ADD31RoundRect,0.237500X-0.300000X-0.237500X0.300000X-0.237500X0.300000X0.237500X-0.300000X0.237500X0*%
%TD*%
%TA.AperFunction,SMDPad,CuDef*%
%ADD32RoundRect,0.237500X0.237500X-0.300000X0.237500X0.300000X-0.237500X0.300000X-0.237500X-0.300000X0*%
%TD*%
%TA.AperFunction,SMDPad,CuDef*%
%ADD33RoundRect,0.237500X0.250000X0.237500X-0.250000X0.237500X-0.250000X-0.237500X0.250000X-0.237500X0*%
%TD*%
%TA.AperFunction,SMDPad,CuDef*%
%ADD34RoundRect,0.075000X-0.662500X-0.075000X0.662500X-0.075000X0.662500X0.075000X-0.662500X0.075000X0*%
%TD*%
%TA.AperFunction,SMDPad,CuDef*%
%ADD35RoundRect,0.075000X-0.075000X-0.662500X0.075000X-0.662500X0.075000X0.662500X-0.075000X0.662500X0*%
%TD*%
%TA.AperFunction,SMDPad,CuDef*%
%ADD36RoundRect,0.237500X-0.250000X-0.237500X0.250000X-0.237500X0.250000X0.237500X-0.250000X0.237500X0*%
%TD*%
%TA.AperFunction,SMDPad,CuDef*%
%ADD37R,1.800000X2.100000*%
%TD*%
%TA.AperFunction,SMDPad,CuDef*%
%ADD38Outline4P,-1.800000X-1.150000X1.800000X-0.550000X1.800000X0.550000X-1.800000X1.150000X270.000000*%
%TD*%
%TA.AperFunction,SMDPad,CuDef*%
%ADD39Outline4P,-1.800000X-1.150000X1.800000X-0.550000X1.800000X0.550000X-1.800000X1.150000X90.000000*%
%TD*%
%TA.AperFunction,ComponentPad*%
%ADD40C,0.700000*%
%TD*%
%TA.AperFunction,ComponentPad*%
%ADD41O,2.400000X0.900000*%
%TD*%
%TA.AperFunction,ComponentPad*%
%ADD42O,1.700000X0.900000*%
%TD*%
%TA.AperFunction,SMDPad,CuDef*%
%ADD43RoundRect,0.150000X0.150000X-0.875000X0.150000X0.875000X-0.150000X0.875000X-0.150000X-0.875000X0*%
%TD*%
%TA.AperFunction,SMDPad,CuDef*%
%ADD44R,2.100000X1.800000*%
%TD*%
%TA.AperFunction,SMDPad,CuDef*%
%ADD45RoundRect,0.150000X-0.825000X-0.150000X0.825000X-0.150000X0.825000X0.150000X-0.825000X0.150000X0*%
%TD*%
%TA.AperFunction,ComponentPad*%
%ADD46C,0.900000*%
%TD*%
%TA.AperFunction,ComponentPad*%
%ADD47C,8.600000*%
%TD*%
%TA.AperFunction,SMDPad,CuDef*%
%ADD48R,0.500000X2.500000*%
%TD*%
%TA.AperFunction,SMDPad,CuDef*%
%ADD49R,2.000000X2.500000*%
%TD*%
%TA.AperFunction,SMDPad,CuDef*%
%ADD50RoundRect,0.150000X0.150000X-0.825000X0.150000X0.825000X-0.150000X0.825000X-0.150000X-0.825000X0*%
%TD*%
%TA.AperFunction,ViaPad*%
%ADD51C,0.800000*%
%TD*%
%TA.AperFunction,Conductor*%
%ADD52C,0.500000*%
%TD*%
%TA.AperFunction,Conductor*%
%ADD53C,0.250000*%
%TD*%
%TA.AperFunction,Conductor*%
%ADD54C,0.350000*%
%TD*%
%TA.AperFunction,Conductor*%
%ADD55C,0.600000*%
%TD*%
%TA.AperFunction,Conductor*%
%ADD56C,0.200000*%
%TD*%
G04 APERTURE END LIST*
D10*
%TO.P,J6,1,VBUS*%
%TO.N,+5V*%
X211048000Y-88844000D03*
D11*
%TO.P,J6,2,D-*%
%TO.N,USB_OTG_FS_DP-*%
X211048000Y-86344000D03*
%TO.P,J6,3,D+*%
%TO.N,USB_OTG_FS_DP+*%
X211048000Y-84344000D03*
%TO.P,J6,4,ID*%
%TO.N,unconnected-(J6-ID-Pad4)*%
X211048000Y-81844000D03*
%TO.P,J6,5,GND*%
%TO.N,GND*%
X213668000Y-88844000D03*
%TO.P,J6,6,Shield*%
%TO.N,unconnected-(J6-Shield-Pad6)*%
X213668000Y-86344000D03*
%TO.P,J6,7*%
%TO.N,N/C*%
X213668000Y-84344000D03*
%TO.P,J6,8*%
X213668000Y-81844000D03*
D12*
%TO.P,J6,9*%
X210698000Y-91914000D03*
X216378000Y-91914000D03*
X210698000Y-78774000D03*
X216378000Y-78774000D03*
%TD*%
D13*
%TO.P,U6,1,GND*%
%TO.N,GND*%
X187707500Y-126068750D03*
%TO.P,U6,2,VO*%
%TO.N,+3.3V*%
X187707500Y-128368750D03*
D14*
X194007500Y-128368750D03*
D13*
%TO.P,U6,3,VI*%
%TO.N,+5V*%
X187707500Y-130668750D03*
%TD*%
D15*
%TO.P,R5,1*%
%TO.N,Net-(J8-Pin_10)*%
X192024000Y-57507500D03*
%TO.P,R5,2*%
%TO.N,NRST*%
X192024000Y-59332500D03*
%TD*%
D16*
%TO.P,J1,1,Pin_1*%
%TO.N,ADC1_IN9*%
X170800000Y-134180000D03*
D17*
%TO.P,J1,2,Pin_2*%
%TO.N,ADC1_IN15*%
X165100000Y-134180000D03*
%TO.P,J1,3,Pin_3*%
%TO.N,ADC1_IN14*%
X159400000Y-134180000D03*
%TO.P,J1,4,Pin_4*%
%TO.N,+5V*%
X170800000Y-128680000D03*
%TO.P,J1,5,Pin_5*%
%TO.N,ADC1_IN8*%
X165100000Y-128680000D03*
%TO.P,J1,6,Pin_6*%
%TO.N,GND*%
X159400000Y-128680000D03*
%TD*%
D18*
%TO.P,R14,1*%
%TO.N,GND*%
X108966000Y-75276250D03*
%TO.P,R14,2*%
%TO.N,Net-(D2-K)*%
X108966000Y-73451250D03*
%TD*%
D19*
%TO.P,C29,1*%
%TO.N,Net-(U1-VCAP_2)*%
X174852500Y-88900000D03*
%TO.P,C29,2*%
%TO.N,GND*%
X173127500Y-88900000D03*
%TD*%
D20*
%TO.P,D5,1,K*%
%TO.N,+5V*%
X187092000Y-134620000D03*
D21*
%TO.P,D5,2,A*%
%TO.N,Net-(D5-A)*%
X192892000Y-134620000D03*
%TD*%
D22*
%TO.P,J8,1,Pin_1*%
%TO.N,+5V*%
X199613750Y-62487500D03*
D23*
%TO.P,J8,2,Pin_2*%
%TO.N,Net-(J8-Pin_2)*%
X197073750Y-62487500D03*
%TO.P,J8,3,Pin_3*%
%TO.N,GND*%
X199613750Y-59947500D03*
%TO.P,J8,4,Pin_4*%
%TO.N,Net-(J8-Pin_4)*%
X197073750Y-59947500D03*
%TO.P,J8,5,Pin_5*%
%TO.N,GND*%
X199613750Y-57407500D03*
%TO.P,J8,6,Pin_6*%
%TO.N,Net-(J8-Pin_6)*%
X197073750Y-57407500D03*
%TO.P,J8,7,Pin_7*%
%TO.N,unconnected-(J8-Pin_7-Pad7)*%
X199613750Y-54867500D03*
%TO.P,J8,8,Pin_8*%
%TO.N,unconnected-(J8-Pin_8-Pad8)*%
X197073750Y-54867500D03*
%TO.P,J8,9,Pin_9*%
%TO.N,GND*%
X199613750Y-52327500D03*
%TO.P,J8,10,Pin_10*%
%TO.N,Net-(J8-Pin_10)*%
X197073750Y-52327500D03*
%TD*%
D24*
%TO.P,J16,1,Pin_1*%
%TO.N,MCU_GPIO6*%
X92315000Y-145085000D03*
D25*
%TO.P,J16,2,Pin_2*%
%TO.N,MCU_GPIO7*%
X97315000Y-145085000D03*
%TO.P,J16,3,Pin_3*%
%TO.N,MCU_GPIO8*%
X102315000Y-145085000D03*
%TO.P,J16,4,Pin_4*%
%TO.N,MCU_GPIO9*%
X107315000Y-145085000D03*
%TO.P,J16,5,Pin_5*%
%TO.N,MCU_GPIO10*%
X112315000Y-145085000D03*
%TD*%
D26*
%TO.P,C2,1*%
%TO.N,HSE_IN  *%
X124460000Y-98832500D03*
%TO.P,C2,2*%
%TO.N,GND*%
X124460000Y-100557500D03*
%TD*%
D16*
%TO.P,J3,1,Pin_1*%
%TO.N,SPI5_MOSI*%
X84895000Y-113793750D03*
D17*
%TO.P,J3,2,Pin_2*%
%TO.N,SPI5_MISO*%
X84895000Y-108093750D03*
%TO.P,J3,3,Pin_3*%
%TO.N,SPI5_SCK *%
X84895000Y-102393750D03*
%TO.P,J3,4,Pin_4*%
%TO.N,+5V*%
X90395000Y-113793750D03*
%TO.P,J3,5,Pin_5*%
%TO.N,SPI5_CS  *%
X90395000Y-108093750D03*
%TO.P,J3,6,Pin_6*%
%TO.N,GND*%
X90395000Y-102393750D03*
%TD*%
D27*
%TO.P,D4,1,K*%
%TO.N,Net-(D4-K)*%
X187085000Y-121920000D03*
%TO.P,D4,2,A*%
%TO.N,+3.3V*%
X188835000Y-121920000D03*
%TD*%
D28*
%TO.P,D3,1,K*%
%TO.N,Net-(D3-K)*%
X106584750Y-71270000D03*
%TO.P,D3,2,A*%
%TO.N,Net-(D3-A)*%
X106584750Y-69520000D03*
%TD*%
D29*
%TO.P,SW1,1,A*%
%TO.N,+3.3V*%
X202398000Y-41688200D03*
%TO.P,SW1,2,B*%
%TO.N,BOOT0*%
X199898000Y-41688200D03*
%TO.P,SW1,3,C*%
%TO.N,GND*%
X197398000Y-41688200D03*
%TD*%
D26*
%TO.P,C12,1*%
%TO.N,+3.3V*%
X169451250Y-100518750D03*
%TO.P,C12,2*%
%TO.N,GND*%
X169451250Y-102243750D03*
%TD*%
D18*
%TO.P,R7,1*%
%TO.N,+3.3V*%
X131351250Y-75306250D03*
%TO.P,R7,2*%
%TO.N,I2C1_SDA*%
X131351250Y-73481250D03*
%TD*%
D15*
%TO.P,R3,1*%
%TO.N,Net-(J8-Pin_4)*%
X192024000Y-65127500D03*
%TO.P,R3,2*%
%TO.N,SYS_JTCLK-SWCLK*%
X192024000Y-66952500D03*
%TD*%
D30*
%TO.P,SW2,1,1*%
%TO.N,GND*%
X127360000Y-144851250D03*
X135320000Y-144851250D03*
%TO.P,SW2,2,2*%
%TO.N,NRST*%
X127360000Y-149351250D03*
X135320000Y-149351250D03*
%TD*%
D18*
%TO.P,R10,1*%
%TO.N,CAN2-*%
X190500000Y-106576500D03*
%TO.P,R10,2*%
%TO.N,CAN2+*%
X190500000Y-104751500D03*
%TD*%
D15*
%TO.P,R4,1*%
%TO.N,Net-(J8-Pin_6)*%
X194310000Y-57507500D03*
%TO.P,R4,2*%
%TO.N,SYS_JTDO-SWO*%
X194310000Y-59332500D03*
%TD*%
D19*
%TO.P,C3,1*%
%TO.N,+3.3V*%
X138657500Y-96520000D03*
%TO.P,C3,2*%
%TO.N,GND*%
X136932500Y-96520000D03*
%TD*%
D31*
%TO.P,C1,1*%
%TO.N,Net-(C1-Pad1)*%
X126772500Y-104140000D03*
%TO.P,C1,2*%
%TO.N,GND*%
X128497500Y-104140000D03*
%TD*%
D18*
%TO.P,R6,1*%
%TO.N,+3.3V*%
X119445000Y-75306250D03*
%TO.P,R6,2*%
%TO.N,I2C1_SCL*%
X119445000Y-73481250D03*
%TD*%
D26*
%TO.P,C14,1*%
%TO.N,+3.3V*%
X169451250Y-87818750D03*
%TO.P,C14,2*%
%TO.N,GND*%
X169451250Y-89543750D03*
%TD*%
D32*
%TO.P,C22,1*%
%TO.N,NRST*%
X124968000Y-148182500D03*
%TO.P,C22,2*%
%TO.N,GND*%
X124968000Y-146457500D03*
%TD*%
%TO.P,C28,1*%
%TO.N,logging*%
X86360000Y-128725000D03*
%TO.P,C28,2*%
%TO.N,GND*%
X86360000Y-127000000D03*
%TD*%
D33*
%TO.P,R17,1*%
%TO.N,GND*%
X136525000Y-85725000D03*
%TO.P,R17,2*%
%TO.N,Net-(D1-K)*%
X134700000Y-85725000D03*
%TD*%
D34*
%TO.P,U1,1,PE2*%
%TO.N,Net-(D1-A)*%
X143007500Y-89675000D03*
%TO.P,U1,2,PE3*%
%TO.N,unconnected-(U1-PE3-Pad2)*%
X143007500Y-90175000D03*
%TO.P,U1,3,PE4*%
%TO.N,unconnected-(U1-PE4-Pad3)*%
X143007500Y-90675000D03*
%TO.P,U1,4,PE5*%
%TO.N,unconnected-(U1-PE5-Pad4)*%
X143007500Y-91175000D03*
%TO.P,U1,5,PE6*%
%TO.N,unconnected-(U1-PE6-Pad5)*%
X143007500Y-91675000D03*
%TO.P,U1,6,VBAT*%
%TO.N,+3.3V*%
X143007500Y-92175000D03*
%TO.P,U1,7,PC13*%
%TO.N,unconnected-(U1-PC13-Pad7)*%
X143007500Y-92675000D03*
%TO.P,U1,8,PC14*%
%TO.N,unconnected-(U1-PC14-Pad8)*%
X143007500Y-93175000D03*
%TO.P,U1,9,PC15*%
%TO.N,unconnected-(U1-PC15-Pad9)*%
X143007500Y-93675000D03*
%TO.P,U1,10,PF0*%
%TO.N,I2C2_SDA*%
X143007500Y-94175000D03*
%TO.P,U1,11,PF1*%
%TO.N,I2C2_SCL*%
X143007500Y-94675000D03*
%TO.P,U1,12,PF2*%
%TO.N,unconnected-(U1-PF2-Pad12)*%
X143007500Y-95175000D03*
%TO.P,U1,13,PF3*%
%TO.N,unconnected-(U1-PF3-Pad13)*%
X143007500Y-95675000D03*
%TO.P,U1,14,PF4*%
%TO.N,unconnected-(U1-PF4-Pad14)*%
X143007500Y-96175000D03*
%TO.P,U1,15,PF5*%
%TO.N,unconnected-(U1-PF5-Pad15)*%
X143007500Y-96675000D03*
%TO.P,U1,16,VSS*%
%TO.N,GND*%
X143007500Y-97175000D03*
%TO.P,U1,17,VDD*%
%TO.N,+3.3V*%
X143007500Y-97675000D03*
%TO.P,U1,18,PF6*%
%TO.N,SPI5_CS  *%
X143007500Y-98175000D03*
%TO.P,U1,19,PF7*%
%TO.N,SPI5_SCK *%
X143007500Y-98675000D03*
%TO.P,U1,20,PF8*%
%TO.N,SPI5_MISO*%
X143007500Y-99175000D03*
%TO.P,U1,21,PF9*%
%TO.N,SPI5_MOSI*%
X143007500Y-99675000D03*
%TO.P,U1,22,PF10*%
%TO.N,unconnected-(U1-PF10-Pad22)*%
X143007500Y-100175000D03*
%TO.P,U1,23,PH0*%
%TO.N,HSE_IN  *%
X143007500Y-100675000D03*
%TO.P,U1,24,PH1*%
%TO.N,HSE_OUT*%
X143007500Y-101175000D03*
%TO.P,U1,25,NRST*%
%TO.N,NRST*%
X143007500Y-101675000D03*
%TO.P,U1,26,PC0*%
%TO.N,unconnected-(U1-PC0-Pad26)*%
X143007500Y-102175000D03*
%TO.P,U1,27,PC1*%
%TO.N,unconnected-(U1-PC1-Pad27)*%
X143007500Y-102675000D03*
%TO.P,U1,28,PC2*%
%TO.N,unconnected-(U1-PC2-Pad28)*%
X143007500Y-103175000D03*
%TO.P,U1,29,PC3*%
%TO.N,unconnected-(U1-PC3-Pad29)*%
X143007500Y-103675000D03*
%TO.P,U1,30,VDD*%
%TO.N,+3.3V*%
X143007500Y-104175000D03*
%TO.P,U1,31,VSSA*%
%TO.N,GND*%
X143007500Y-104675000D03*
%TO.P,U1,32,VREF+*%
%TO.N,+3.3V*%
X143007500Y-105175000D03*
%TO.P,U1,33,VDDA*%
X143007500Y-105675000D03*
%TO.P,U1,34,PA0*%
%TO.N,unconnected-(U1-PA0-Pad34)*%
X143007500Y-106175000D03*
%TO.P,U1,35,PA1*%
%TO.N,unconnected-(U1-PA1-Pad35)*%
X143007500Y-106675000D03*
%TO.P,U1,36,PA2*%
%TO.N,logging*%
X143007500Y-107175000D03*
D35*
%TO.P,U1,37,PA3*%
%TO.N,unconnected-(U1-PA3-Pad37)*%
X144920000Y-109087500D03*
%TO.P,U1,38,VSS*%
%TO.N,GND*%
X145420000Y-109087500D03*
%TO.P,U1,39,VDD*%
%TO.N,+3.3V*%
X145920000Y-109087500D03*
%TO.P,U1,40,PA4*%
%TO.N,ADC2_IN4*%
X146420000Y-109087500D03*
%TO.P,U1,41,PA5*%
%TO.N,ADC2_IN5*%
X146920000Y-109087500D03*
%TO.P,U1,42,PA6*%
%TO.N,ADC2_IN6*%
X147420000Y-109087500D03*
%TO.P,U1,43,PA7*%
%TO.N,ADC2_IN7*%
X147920000Y-109087500D03*
%TO.P,U1,44,PC4*%
%TO.N,ADC1_IN14*%
X148420000Y-109087500D03*
%TO.P,U1,45,PC5*%
%TO.N,ADC1_IN15*%
X148920000Y-109087500D03*
%TO.P,U1,46,PB0*%
%TO.N,ADC1_IN8*%
X149420000Y-109087500D03*
%TO.P,U1,47,PB1*%
%TO.N,ADC1_IN9*%
X149920000Y-109087500D03*
%TO.P,U1,48,PB2*%
%TO.N,unconnected-(U1-PB2-Pad48)*%
X150420000Y-109087500D03*
%TO.P,U1,49,PF11*%
%TO.N,unconnected-(U1-PF11-Pad49)*%
X150920000Y-109087500D03*
%TO.P,U1,50,PF12*%
%TO.N,unconnected-(U1-PF12-Pad50)*%
X151420000Y-109087500D03*
%TO.P,U1,51,VSS*%
%TO.N,GND*%
X151920000Y-109087500D03*
%TO.P,U1,52,VDD*%
%TO.N,+3.3V*%
X152420000Y-109087500D03*
%TO.P,U1,53,PF13*%
%TO.N,unconnected-(U1-PF13-Pad53)*%
X152920000Y-109087500D03*
%TO.P,U1,54,PF14*%
%TO.N,unconnected-(U1-PF14-Pad54)*%
X153420000Y-109087500D03*
%TO.P,U1,55,PF15*%
%TO.N,unconnected-(U1-PF15-Pad55)*%
X153920000Y-109087500D03*
%TO.P,U1,56,PG0*%
%TO.N,unconnected-(U1-PG0-Pad56)*%
X154420000Y-109087500D03*
%TO.P,U1,57,PG1*%
%TO.N,unconnected-(U1-PG1-Pad57)*%
X154920000Y-109087500D03*
%TO.P,U1,58,PE7*%
%TO.N,unconnected-(U1-PE7-Pad58)*%
X155420000Y-109087500D03*
%TO.P,U1,59,PE8*%
%TO.N,unconnected-(U1-PE8-Pad59)*%
X155920000Y-109087500D03*
%TO.P,U1,60,PE9*%
%TO.N,unconnected-(U1-PE9-Pad60)*%
X156420000Y-109087500D03*
%TO.P,U1,61,VSS*%
%TO.N,GND*%
X156920000Y-109087500D03*
%TO.P,U1,62,VDD*%
%TO.N,+3.3V*%
X157420000Y-109087500D03*
%TO.P,U1,63,PE10*%
%TO.N,unconnected-(U1-PE10-Pad63)*%
X157920000Y-109087500D03*
%TO.P,U1,64,PE11*%
%TO.N,unconnected-(U1-PE11-Pad64)*%
X158420000Y-109087500D03*
%TO.P,U1,65,PE12*%
%TO.N,unconnected-(U1-PE12-Pad65)*%
X158920000Y-109087500D03*
%TO.P,U1,66,PE13*%
%TO.N,unconnected-(U1-PE13-Pad66)*%
X159420000Y-109087500D03*
%TO.P,U1,67,PE14*%
%TO.N,unconnected-(U1-PE14-Pad67)*%
X159920000Y-109087500D03*
%TO.P,U1,68,PE15*%
%TO.N,unconnected-(U1-PE15-Pad68)*%
X160420000Y-109087500D03*
%TO.P,U1,69,PB10*%
%TO.N,unconnected-(U1-PB10-Pad69)*%
X160920000Y-109087500D03*
%TO.P,U1,70,PB11*%
%TO.N,unconnected-(U1-PB11-Pad70)*%
X161420000Y-109087500D03*
%TO.P,U1,71,VCAP_1*%
%TO.N,Net-(U1-VCAP_1)*%
X161920000Y-109087500D03*
%TO.P,U1,72,VDD*%
%TO.N,+3.3V*%
X162420000Y-109087500D03*
D34*
%TO.P,U1,73,PB12*%
%TO.N,CAN2_RX*%
X164332500Y-107175000D03*
%TO.P,U1,74,PB13*%
%TO.N,CAN2_TX*%
X164332500Y-106675000D03*
%TO.P,U1,75,PB14*%
%TO.N,unconnected-(U1-PB14-Pad75)*%
X164332500Y-106175000D03*
%TO.P,U1,76,PB15*%
%TO.N,CAN SIlent Mode 2*%
X164332500Y-105675000D03*
%TO.P,U1,77,PD8*%
%TO.N,unconnected-(U1-PD8-Pad77)*%
X164332500Y-105175000D03*
%TO.P,U1,78,PD9*%
%TO.N,unconnected-(U1-PD9-Pad78)*%
X164332500Y-104675000D03*
%TO.P,U1,79,PD10*%
%TO.N,unconnected-(U1-PD10-Pad79)*%
X164332500Y-104175000D03*
%TO.P,U1,80,PD11*%
%TO.N,unconnected-(U1-PD11-Pad80)*%
X164332500Y-103675000D03*
%TO.P,U1,81,PD12*%
%TO.N,unconnected-(U1-PD12-Pad81)*%
X164332500Y-103175000D03*
%TO.P,U1,82,PD13*%
%TO.N,MCU_GPIO10*%
X164332500Y-102675000D03*
%TO.P,U1,83,VSS*%
%TO.N,GND*%
X164332500Y-102175000D03*
%TO.P,U1,84,VDD*%
%TO.N,+3.3V*%
X164332500Y-101675000D03*
%TO.P,U1,85,PD14*%
%TO.N,MCU_GPIO9*%
X164332500Y-101175000D03*
%TO.P,U1,86,PD15*%
%TO.N,MCU_GPIO8*%
X164332500Y-100675000D03*
%TO.P,U1,87,PG2*%
%TO.N,MCU_GPIO7*%
X164332500Y-100175000D03*
%TO.P,U1,88,PG3*%
%TO.N,MCU_GPIO6*%
X164332500Y-99675000D03*
%TO.P,U1,89,PG4*%
%TO.N,MCU_GPIO5*%
X164332500Y-99175000D03*
%TO.P,U1,90,PG5*%
%TO.N,MCU_GPIO4*%
X164332500Y-98675000D03*
%TO.P,U1,91,PG6*%
%TO.N,MCU_GPIO3*%
X164332500Y-98175000D03*
%TO.P,U1,92,PG7*%
%TO.N,MCU_GPIO2*%
X164332500Y-97675000D03*
%TO.P,U1,93,PG8*%
%TO.N,MCU_GPIO1*%
X164332500Y-97175000D03*
%TO.P,U1,94,VSS*%
%TO.N,GND*%
X164332500Y-96675000D03*
%TO.P,U1,95,VDD*%
%TO.N,+3.3V*%
X164332500Y-96175000D03*
%TO.P,U1,96,PC6*%
%TO.N,unconnected-(U1-PC6-Pad96)*%
X164332500Y-95675000D03*
%TO.P,U1,97,PC7*%
%TO.N,unconnected-(U1-PC7-Pad97)*%
X164332500Y-95175000D03*
%TO.P,U1,98,PC8*%
%TO.N,unconnected-(U1-PC8-Pad98)*%
X164332500Y-94675000D03*
%TO.P,U1,99,PC9*%
%TO.N,unconnected-(U1-PC9-Pad99)*%
X164332500Y-94175000D03*
%TO.P,U1,100,PA8*%
%TO.N,unconnected-(U1-PA8-Pad100)*%
X164332500Y-93675000D03*
%TO.P,U1,101,PA9*%
%TO.N,unconnected-(U1-PA9-Pad101)*%
X164332500Y-93175000D03*
%TO.P,U1,102,PA10*%
%TO.N,unconnected-(U1-PA10-Pad102)*%
X164332500Y-92675000D03*
%TO.P,U1,103,PA11*%
%TO.N,USB_OTG_FS_DP-*%
X164332500Y-92175000D03*
%TO.P,U1,104,PA12*%
%TO.N,USB_OTG_FS_DP+*%
X164332500Y-91675000D03*
%TO.P,U1,105,PA13*%
%TO.N,SYS_JTMS-SWDIO*%
X164332500Y-91175000D03*
%TO.P,U1,106,VCAP_2*%
%TO.N,Net-(U1-VCAP_2)*%
X164332500Y-90675000D03*
%TO.P,U1,107,VSS*%
%TO.N,GND*%
X164332500Y-90175000D03*
%TO.P,U1,108,VDD*%
%TO.N,+3.3V*%
X164332500Y-89675000D03*
D35*
%TO.P,U1,109,PA14*%
%TO.N,SYS_JTCLK-SWCLK*%
X162420000Y-87762500D03*
%TO.P,U1,110,PA15*%
%TO.N,unconnected-(U1-PA15-Pad110)*%
X161920000Y-87762500D03*
%TO.P,U1,111,PC10*%
%TO.N,SPI3_SCK*%
X161420000Y-87762500D03*
%TO.P,U1,112,PC11*%
%TO.N,SPI3_MISO*%
X160920000Y-87762500D03*
%TO.P,U1,113,PC12*%
%TO.N,SPI3_MOSI*%
X160420000Y-87762500D03*
%TO.P,U1,114,PD0*%
%TO.N,CAN1_RX*%
X159920000Y-87762500D03*
%TO.P,U1,115,PD1*%
%TO.N,CAN1_TX*%
X159420000Y-87762500D03*
%TO.P,U1,116,PD2*%
%TO.N,CAN SIlent Mode 1*%
X158920000Y-87762500D03*
%TO.P,U1,117,PD3*%
%TO.N,unconnected-(U1-PD3-Pad117)*%
X158420000Y-87762500D03*
%TO.P,U1,118,PD4*%
%TO.N,unconnected-(U1-PD4-Pad118)*%
X157920000Y-87762500D03*
%TO.P,U1,119,PD5*%
%TO.N,unconnected-(U1-PD5-Pad119)*%
X157420000Y-87762500D03*
%TO.P,U1,120,VSS*%
%TO.N,GND*%
X156920000Y-87762500D03*
%TO.P,U1,121,VDD*%
%TO.N,+3.3V*%
X156420000Y-87762500D03*
%TO.P,U1,122,PD6*%
%TO.N,unconnected-(U1-PD6-Pad122)*%
X155920000Y-87762500D03*
%TO.P,U1,123,PD7*%
%TO.N,unconnected-(U1-PD7-Pad123)*%
X155420000Y-87762500D03*
%TO.P,U1,124,PG9*%
%TO.N,SPI3_CS  *%
X154920000Y-87762500D03*
%TO.P,U1,125,PG10*%
%TO.N,unconnected-(U1-PG10-Pad125)*%
X154420000Y-87762500D03*
%TO.P,U1,126,PG11*%
%TO.N,unconnected-(U1-PG11-Pad126)*%
X153920000Y-87762500D03*
%TO.P,U1,127,PG12*%
%TO.N,unconnected-(U1-PG12-Pad127)*%
X153420000Y-87762500D03*
%TO.P,U1,128,PG13*%
%TO.N,unconnected-(U1-PG13-Pad128)*%
X152920000Y-87762500D03*
%TO.P,U1,129,PG14*%
%TO.N,unconnected-(U1-PG14-Pad129)*%
X152420000Y-87762500D03*
%TO.P,U1,130,VSS*%
%TO.N,GND*%
X151920000Y-87762500D03*
%TO.P,U1,131,VDD*%
%TO.N,+3.3V*%
X151420000Y-87762500D03*
%TO.P,U1,132,PG15*%
%TO.N,unconnected-(U1-PG15-Pad132)*%
X150920000Y-87762500D03*
%TO.P,U1,133,PB3*%
%TO.N,SYS_JTDO-SWO*%
X150420000Y-87762500D03*
%TO.P,U1,134,PB4*%
%TO.N,unconnected-(U1-PB4-Pad134)*%
X149920000Y-87762500D03*
%TO.P,U1,135,PB5*%
%TO.N,unconnected-(U1-PB5-Pad135)*%
X149420000Y-87762500D03*
%TO.P,U1,136,PB6*%
%TO.N,USART1_TX*%
X148920000Y-87762500D03*
%TO.P,U1,137,PB7*%
%TO.N,USART1_RX*%
X148420000Y-87762500D03*
%TO.P,U1,138,BOOT0*%
%TO.N,BOOT0*%
X147920000Y-87762500D03*
%TO.P,U1,139,PB8*%
%TO.N,I2C1_SCL*%
X147420000Y-87762500D03*
%TO.P,U1,140,PB9*%
%TO.N,I2C1_SDA*%
X146920000Y-87762500D03*
%TO.P,U1,141,PE0*%
%TO.N,unconnected-(U1-PE0-Pad141)*%
X146420000Y-87762500D03*
%TO.P,U1,142,PE1*%
%TO.N,unconnected-(U1-PE1-Pad142)*%
X145920000Y-87762500D03*
%TO.P,U1,143,PDR_ON*%
%TO.N,+3.3V*%
X145420000Y-87762500D03*
%TO.P,U1,144,VDD*%
X144920000Y-87762500D03*
%TD*%
D19*
%TO.P,C10,1*%
%TO.N,+3.3V*%
X157613750Y-114081250D03*
%TO.P,C10,2*%
%TO.N,GND*%
X155888750Y-114081250D03*
%TD*%
D36*
%TO.P,R16,1*%
%TO.N,Net-(D4-K)*%
X187047500Y-123825000D03*
%TO.P,R16,2*%
%TO.N,GND*%
X188872500Y-123825000D03*
%TD*%
D15*
%TO.P,R8,1*%
%TO.N,+3.3V*%
X98782500Y-92432500D03*
%TO.P,R8,2*%
%TO.N,I2C2_SCL*%
X98782500Y-94257500D03*
%TD*%
D37*
%TO.P,Y1,1,1*%
%TO.N,Net-(U5-OSC2)*%
X100591000Y-73432500D03*
%TO.P,Y1,2,2*%
%TO.N,GND*%
X100591000Y-70532500D03*
%TO.P,Y1,3,3*%
%TO.N,Net-(U5-OSC1)*%
X98291000Y-70532500D03*
%TO.P,Y1,4,4*%
%TO.N,GND*%
X98291000Y-73432500D03*
%TD*%
D38*
%TO.P,D6,1,K*%
%TO.N,+5V*%
X108712000Y-40788000D03*
D39*
%TO.P,D6,2,A*%
%TO.N,Net-(D6-A)*%
X108712000Y-46588000D03*
%TD*%
D19*
%TO.P,C8,1*%
%TO.N,+3.3V*%
X145007500Y-114081250D03*
%TO.P,C8,2*%
%TO.N,GND*%
X143282500Y-114081250D03*
%TD*%
%TO.P,C9,1*%
%TO.N,+3.3V*%
X152851250Y-114081250D03*
%TO.P,C9,2*%
%TO.N,GND*%
X151126250Y-114081250D03*
%TD*%
D32*
%TO.P,C25,1*%
%TO.N,Net-(U5-OSC2)*%
X102616000Y-72845000D03*
%TO.P,C25,2*%
%TO.N,GND*%
X102616000Y-71120000D03*
%TD*%
D19*
%TO.P,C7,1*%
%TO.N,+3.3V*%
X137770000Y-91856250D03*
%TO.P,C7,2*%
%TO.N,GND*%
X136045000Y-91856250D03*
%TD*%
D24*
%TO.P,J15,1,Pin_1*%
%TO.N,MCU_GPIO1*%
X181295000Y-144780000D03*
D25*
%TO.P,J15,2,Pin_2*%
%TO.N,MCU_GPIO2*%
X186295000Y-144780000D03*
%TO.P,J15,3,Pin_3*%
%TO.N,MCU_GPIO3*%
X191295000Y-144780000D03*
%TO.P,J15,4,Pin_4*%
%TO.N,MCU_GPIO4*%
X196295000Y-144780000D03*
%TO.P,J15,5,Pin_5*%
%TO.N,MCU_GPIO5*%
X201295000Y-144780000D03*
%TD*%
D16*
%TO.P,J2,1,Pin_1*%
%TO.N,ADC2_IN7*%
X151750000Y-134180000D03*
D17*
%TO.P,J2,2,Pin_2*%
%TO.N,ADC2_IN5*%
X146050000Y-134180000D03*
%TO.P,J2,3,Pin_3*%
%TO.N,ADC2_IN4*%
X140350000Y-134180000D03*
%TO.P,J2,4,Pin_4*%
%TO.N,+5V*%
X151750000Y-128680000D03*
%TO.P,J2,5,Pin_5*%
%TO.N,ADC2_IN6*%
X146050000Y-128680000D03*
%TO.P,J2,6,Pin_6*%
%TO.N,GND*%
X140350000Y-128680000D03*
%TD*%
D16*
%TO.P,J10,1,Pin_1*%
%TO.N,USART1_RX*%
X175340000Y-53527500D03*
D17*
%TO.P,J10,2,Pin_2*%
%TO.N,unconnected-(J10-Pin_2-Pad2)*%
X181040000Y-53527500D03*
%TO.P,J10,3,Pin_3*%
%TO.N,USART1_TX*%
X186740000Y-53527500D03*
%TO.P,J10,4,Pin_4*%
%TO.N,+5V*%
X175340000Y-59027500D03*
%TO.P,J10,5,Pin_5*%
%TO.N,unconnected-(J10-Pin_5-Pad5)*%
X181040000Y-59027500D03*
%TO.P,J10,6,Pin_6*%
%TO.N,GND*%
X186740000Y-59027500D03*
%TD*%
D32*
%TO.P,C26,1*%
%TO.N,+5V*%
X182945000Y-130818750D03*
%TO.P,C26,2*%
%TO.N,GND*%
X182945000Y-129093750D03*
%TD*%
D40*
%TO.P,P2,A1,GND*%
%TO.N,GND*%
X214825000Y-127975000D03*
%TO.P,P2,A4,VBUS*%
%TO.N,Net-(D5-A)*%
X214825000Y-127125000D03*
%TO.P,P2,A5,CC*%
%TO.N,unconnected-(P2-CC-PadA5)*%
X214825000Y-126275000D03*
%TO.P,P2,A6,D+*%
%TO.N,unconnected-(P2-D+-PadA6)*%
X214825000Y-125425000D03*
%TO.P,P2,A7,D-*%
%TO.N,unconnected-(P2-D--PadA7)*%
X214825000Y-124575000D03*
%TO.P,P2,A8*%
%TO.N,N/C*%
X214825000Y-123725000D03*
%TO.P,P2,A9,VBUS*%
%TO.N,Net-(D5-A)*%
X214825000Y-122875000D03*
%TO.P,P2,A12,GND*%
%TO.N,GND*%
X214825000Y-122025000D03*
%TO.P,P2,B1,GND*%
X216175000Y-122025000D03*
%TO.P,P2,B4,VBUS*%
%TO.N,Net-(D5-A)*%
X216175000Y-122875000D03*
%TO.P,P2,B5,VCONN*%
%TO.N,unconnected-(P2-VCONN-PadB5)*%
X216175000Y-123725000D03*
%TO.P,P2,B6*%
%TO.N,N/C*%
X216175000Y-124575000D03*
%TO.P,P2,B7*%
X216175000Y-125425000D03*
%TO.P,P2,B8*%
X216175000Y-126275000D03*
%TO.P,P2,B9,VBUS*%
%TO.N,Net-(D5-A)*%
X216175000Y-127125000D03*
%TO.P,P2,B12,GND*%
%TO.N,GND*%
X216175000Y-127975000D03*
D41*
%TO.P,P2,S1,SHIELD*%
X215805000Y-129325000D03*
D42*
X219185000Y-129325000D03*
D41*
X215805000Y-120675000D03*
D42*
X219185000Y-120675000D03*
%TD*%
D32*
%TO.P,C23,1*%
%TO.N,+3.3V*%
X96520000Y-59790500D03*
%TO.P,C23,2*%
%TO.N,GND*%
X96520000Y-58065500D03*
%TD*%
D33*
%TO.P,R1,1*%
%TO.N,HSE_OUT*%
X134008500Y-102235000D03*
%TO.P,R1,2*%
%TO.N,Net-(C1-Pad1)*%
X132183500Y-102235000D03*
%TD*%
D19*
%TO.P,C5,1*%
%TO.N,+3.3V*%
X144120000Y-82331250D03*
%TO.P,C5,2*%
%TO.N,GND*%
X142395000Y-82331250D03*
%TD*%
D43*
%TO.P,U5,1,VDD*%
%TO.N,+3.3V*%
X98933000Y-63070000D03*
%TO.P,U5,2,OSC1*%
%TO.N,Net-(U5-OSC1)*%
X100203000Y-63070000D03*
%TO.P,U5,3,OSC2*%
%TO.N,Net-(U5-OSC2)*%
X101473000Y-63070000D03*
%TO.P,U5,4,RST*%
%TO.N,Net-(U5-RST)*%
X102743000Y-63070000D03*
%TO.P,U5,5,GP7/TxLED*%
%TO.N,Net-(D3-A)*%
X104013000Y-63070000D03*
%TO.P,U5,6,GP6/RxLED*%
%TO.N,Net-(D2-A)*%
X105283000Y-63070000D03*
%TO.P,U5,7,GP5*%
%TO.N,GP5*%
X106553000Y-63070000D03*
%TO.P,U5,8,GP4*%
%TO.N,GP4*%
X107823000Y-63070000D03*
%TO.P,U5,9,GP3*%
%TO.N,GP3*%
X109093000Y-63070000D03*
%TO.P,U5,10,TX*%
%TO.N,USART1_RX*%
X110363000Y-63070000D03*
%TO.P,U5,11,RTS*%
%TO.N,RTS*%
X110363000Y-53770000D03*
%TO.P,U5,12,RX*%
%TO.N,USART1_TX*%
X109093000Y-53770000D03*
%TO.P,U5,13,CTS*%
%TO.N,CTS*%
X107823000Y-53770000D03*
%TO.P,U5,14,GP2*%
%TO.N,GP2*%
X106553000Y-53770000D03*
%TO.P,U5,15,GP1/USB-CFG*%
%TO.N,GP1*%
X105283000Y-53770000D03*
%TO.P,U5,16,GP0/SSPND*%
%TO.N,GP0*%
X104013000Y-53770000D03*
%TO.P,U5,17,V_USB*%
%TO.N,+3.3V*%
X102743000Y-53770000D03*
%TO.P,U5,18,D-*%
%TO.N,USB_DP-*%
X101473000Y-53770000D03*
%TO.P,U5,19,D+*%
%TO.N,USB_DP+*%
X100203000Y-53770000D03*
%TO.P,U5,20,VSS*%
%TO.N,GND*%
X98933000Y-53770000D03*
%TD*%
D26*
%TO.P,C13,1*%
%TO.N,+3.3V*%
X169451250Y-95756250D03*
%TO.P,C13,2*%
%TO.N,GND*%
X169451250Y-97481250D03*
%TD*%
D15*
%TO.P,R9,1*%
%TO.N,+3.3V*%
X98782500Y-82272500D03*
%TO.P,R9,2*%
%TO.N,I2C2_SDA*%
X98782500Y-84097500D03*
%TD*%
D44*
%TO.P,X1,1,1*%
%TO.N,Net-(C1-Pad1)*%
X126885000Y-101578750D03*
%TO.P,X1,2,2*%
%TO.N,GND*%
X129785000Y-101578750D03*
%TO.P,X1,3,3*%
%TO.N,HSE_IN  *%
X129785000Y-99278750D03*
%TO.P,X1,4,4*%
%TO.N,GND*%
X126885000Y-99278750D03*
%TD*%
D26*
%TO.P,C24,1*%
%TO.N,Net-(U5-OSC1)*%
X96266000Y-71120000D03*
%TO.P,C24,2*%
%TO.N,GND*%
X96266000Y-72845000D03*
%TD*%
D15*
%TO.P,R12,1*%
%TO.N,+3.3V*%
X105410000Y-114022500D03*
%TO.P,R12,2*%
%TO.N,logging*%
X105410000Y-115847500D03*
%TD*%
D19*
%TO.P,C6,1*%
%TO.N,+3.3V*%
X137838750Y-102968750D03*
%TO.P,C6,2*%
%TO.N,GND*%
X136113750Y-102968750D03*
%TD*%
D31*
%TO.P,C27,1*%
%TO.N,+3.3V*%
X190907500Y-123825000D03*
%TO.P,C27,2*%
%TO.N,GND*%
X192632500Y-123825000D03*
%TD*%
D26*
%TO.P,C21,1*%
%TO.N,+5V*%
X206248000Y-94133500D03*
%TO.P,C21,2*%
%TO.N,GND*%
X206248000Y-95858500D03*
%TD*%
D16*
%TO.P,J5,1,Pin_1*%
%TO.N,I2C2_SCL*%
X84895000Y-94600000D03*
D17*
%TO.P,J5,2,Pin_2*%
%TO.N,unconnected-(J5-Pin_2-Pad2)*%
X84895000Y-88900000D03*
%TO.P,J5,3,Pin_3*%
%TO.N,I2C2_SDA*%
X84895000Y-83200000D03*
%TO.P,J5,4,Pin_4*%
%TO.N,+5V*%
X90395000Y-94600000D03*
%TO.P,J5,5,Pin_5*%
%TO.N,unconnected-(J5-Pin_5-Pad5)*%
X90395000Y-88900000D03*
%TO.P,J5,6,Pin_6*%
%TO.N,GND*%
X90395000Y-83200000D03*
%TD*%
D45*
%TO.P,U2,1,TXD*%
%TO.N,CAN2_TX*%
X180405000Y-103251000D03*
%TO.P,U2,2,GND*%
%TO.N,GND*%
X180405000Y-104521000D03*
%TO.P,U2,3,VCC*%
%TO.N,+5V*%
X180405000Y-105791000D03*
%TO.P,U2,4,RXD*%
%TO.N,CAN2_RX*%
X180405000Y-107061000D03*
%TO.P,U2,5,NC*%
%TO.N,unconnected-(U2-NC-Pad5)*%
X185355000Y-107061000D03*
%TO.P,U2,6,CANL*%
%TO.N,CAN2-*%
X185355000Y-105791000D03*
%TO.P,U2,7,CANH*%
%TO.N,CAN2+*%
X185355000Y-104521000D03*
%TO.P,U2,8,S*%
%TO.N,CAN SIlent Mode 2*%
X185355000Y-103251000D03*
%TD*%
D22*
%TO.P,J12,1,Pin_1*%
%TO.N,GP5*%
X70232500Y-54232500D03*
D23*
%TO.P,J12,2,Pin_2*%
%TO.N,GP4*%
X70232500Y-56772500D03*
%TO.P,J12,3,Pin_3*%
%TO.N,GP3*%
X70232500Y-59312500D03*
%TO.P,J12,4,Pin_4*%
%TO.N,GP0*%
X70232500Y-61852500D03*
%TO.P,J12,5,Pin_5*%
%TO.N,GP1*%
X70232500Y-64392500D03*
%TO.P,J12,6,Pin_6*%
%TO.N,GP2*%
X70232500Y-66932500D03*
%TO.P,J12,7,Pin_7*%
%TO.N,CTS*%
X70232500Y-69472500D03*
%TO.P,J12,8,Pin_8*%
%TO.N,RTS*%
X70232500Y-72012500D03*
%TD*%
D33*
%TO.P,R2,1*%
%TO.N,Net-(J8-Pin_2)*%
X197508500Y-70612000D03*
%TO.P,R2,2*%
%TO.N,SYS_JTMS-SWDIO*%
X195683500Y-70612000D03*
%TD*%
D16*
%TO.P,J7,1,Pin_1*%
%TO.N,CAN2+*%
X204095000Y-102031250D03*
D17*
%TO.P,J7,2,Pin_2*%
%TO.N,CAN2-*%
X204095000Y-107731250D03*
%TO.P,J7,3,Pin_3*%
%TO.N,unconnected-(J7-Pin_3-Pad3)*%
X204095000Y-113431250D03*
%TO.P,J7,4,Pin_4*%
%TO.N,+5V*%
X198595000Y-102031250D03*
%TO.P,J7,5,Pin_5*%
%TO.N,unconnected-(J7-Pin_5-Pad5)*%
X198595000Y-107731250D03*
%TO.P,J7,6,Pin_6*%
%TO.N,GND*%
X198595000Y-113431250D03*
%TD*%
D46*
%TO.P,H3,1*%
%TO.N,N/C*%
X208930000Y-45501250D03*
X209874581Y-43220831D03*
X209874581Y-47781669D03*
X212155000Y-42276250D03*
D47*
X212155000Y-45501250D03*
D46*
X212155000Y-48726250D03*
X214435419Y-43220831D03*
X214435419Y-47781669D03*
X215380000Y-45501250D03*
%TD*%
D30*
%TO.P,SW4,1,1*%
%TO.N,GND*%
X71585000Y-125385000D03*
X79545000Y-125385000D03*
%TO.P,SW4,2,2*%
%TO.N,logging*%
X71585000Y-129885000D03*
X79545000Y-129885000D03*
%TD*%
D28*
%TO.P,D2,1,K*%
%TO.N,Net-(D2-K)*%
X108966000Y-71270000D03*
%TO.P,D2,2,A*%
%TO.N,Net-(D2-A)*%
X108966000Y-69520000D03*
%TD*%
D16*
%TO.P,J4,1,Pin_1*%
%TO.N,SPI3_MOSI*%
X135970000Y-53527500D03*
D17*
%TO.P,J4,2,Pin_2*%
%TO.N,SPI3_MISO*%
X141670000Y-53527500D03*
%TO.P,J4,3,Pin_3*%
%TO.N,SPI3_SCK*%
X147370000Y-53527500D03*
%TO.P,J4,4,Pin_4*%
%TO.N,+5V*%
X135970000Y-59027500D03*
%TO.P,J4,5,Pin_5*%
%TO.N,SPI3_CS  *%
X141670000Y-59027500D03*
%TO.P,J4,6,Pin_6*%
%TO.N,GND*%
X147370000Y-59027500D03*
%TD*%
D31*
%TO.P,C15,1*%
%TO.N,+3.3V*%
X155888750Y-83125000D03*
%TO.P,C15,2*%
%TO.N,GND*%
X157613750Y-83125000D03*
%TD*%
D26*
%TO.P,C20,1*%
%TO.N,+5V*%
X204660500Y-94133500D03*
%TO.P,C20,2*%
%TO.N,GND*%
X204660500Y-95858500D03*
%TD*%
D46*
%TO.P,H2,1*%
%TO.N,N/C*%
X73675000Y-142021250D03*
X74619581Y-139740831D03*
X74619581Y-144301669D03*
X76900000Y-138796250D03*
D47*
X76900000Y-142021250D03*
D46*
X76900000Y-145246250D03*
X79180419Y-139740831D03*
X79180419Y-144301669D03*
X80125000Y-142021250D03*
%TD*%
D19*
%TO.P,C4,1*%
%TO.N,+3.3V*%
X144120000Y-83918750D03*
%TO.P,C4,2*%
%TO.N,GND*%
X142395000Y-83918750D03*
%TD*%
D18*
%TO.P,R15,1*%
%TO.N,GND*%
X106584750Y-75276250D03*
%TO.P,R15,2*%
%TO.N,Net-(D3-K)*%
X106584750Y-73451250D03*
%TD*%
D46*
%TO.P,H1,1*%
%TO.N,N/C*%
X73675000Y-45501250D03*
X74619581Y-43220831D03*
X74619581Y-47781669D03*
X76900000Y-42276250D03*
D47*
X76900000Y-45501250D03*
D46*
X76900000Y-48726250D03*
X79180419Y-43220831D03*
X79180419Y-47781669D03*
X80125000Y-45501250D03*
%TD*%
D16*
%TO.P,J14,1,Pin_1*%
%TO.N,I2C1_SCL*%
X116220000Y-53655000D03*
D17*
%TO.P,J14,2,Pin_2*%
%TO.N,unconnected-(J14-Pin_2-Pad2)*%
X121920000Y-53655000D03*
%TO.P,J14,3,Pin_3*%
%TO.N,I2C1_SDA*%
X127620000Y-53655000D03*
%TO.P,J14,4,Pin_4*%
%TO.N,+5V*%
X116220000Y-59155000D03*
%TO.P,J14,5,Pin_5*%
%TO.N,unconnected-(J14-Pin_5-Pad5)*%
X121920000Y-59155000D03*
%TO.P,J14,6,Pin_6*%
%TO.N,GND*%
X127620000Y-59155000D03*
%TD*%
D31*
%TO.P,C16,1*%
%TO.N,+3.3V*%
X149538750Y-83125000D03*
%TO.P,C16,2*%
%TO.N,GND*%
X151263750Y-83125000D03*
%TD*%
D46*
%TO.P,H4,1*%
%TO.N,N/C*%
X208930000Y-142021250D03*
X209874581Y-139740831D03*
X209874581Y-144301669D03*
X212155000Y-138796250D03*
D47*
X212155000Y-142021250D03*
D46*
X212155000Y-145246250D03*
X214435419Y-139740831D03*
X214435419Y-144301669D03*
X215380000Y-142021250D03*
%TD*%
D26*
%TO.P,C18,1*%
%TO.N,+3.3V*%
X136113750Y-106868750D03*
%TO.P,C18,2*%
%TO.N,GND*%
X136113750Y-108593750D03*
%TD*%
D19*
%TO.P,C11,1*%
%TO.N,+3.3V*%
X162376250Y-114081250D03*
%TO.P,C11,2*%
%TO.N,GND*%
X160651250Y-114081250D03*
%TD*%
D27*
%TO.P,D1,1,K*%
%TO.N,Net-(D1-K)*%
X134782500Y-83175000D03*
%TO.P,D1,2,A*%
%TO.N,Net-(D1-A)*%
X136532500Y-83175000D03*
%TD*%
D26*
%TO.P,C17,1*%
%TO.N,+3.3V*%
X137701250Y-106868750D03*
%TO.P,C17,2*%
%TO.N,GND*%
X137701250Y-108593750D03*
%TD*%
D48*
%TO.P,J13,1,VBUS*%
%TO.N,Net-(D6-A)*%
X101700000Y-44046250D03*
%TO.P,J13,2,D-*%
%TO.N,USB_DP-*%
X100900000Y-44046250D03*
%TO.P,J13,3,D+*%
%TO.N,USB_DP+*%
X100100000Y-44046250D03*
%TO.P,J13,4,ID*%
%TO.N,unconnected-(J13-ID-Pad4)*%
X99300000Y-44046250D03*
%TO.P,J13,5,GND*%
%TO.N,GND*%
X98500000Y-44046250D03*
D49*
%TO.P,J13,6,Shield*%
X104500000Y-44046250D03*
X104500000Y-38546250D03*
X95700000Y-44046250D03*
X95700000Y-38546250D03*
%TD*%
D50*
%TO.P,U3,1,TXD*%
%TO.N,CAN1_TX*%
X161196250Y-80837500D03*
%TO.P,U3,2,GND*%
%TO.N,GND*%
X162466250Y-80837500D03*
%TO.P,U3,3,VCC*%
%TO.N,+5V*%
X163736250Y-80837500D03*
%TO.P,U3,4,RXD*%
%TO.N,CAN1_RX*%
X165006250Y-80837500D03*
%TO.P,U3,5,NC*%
%TO.N,unconnected-(U3-NC-Pad5)*%
X165006250Y-75887500D03*
%TO.P,U3,6,CANL*%
%TO.N,CAN1-*%
X163736250Y-75887500D03*
%TO.P,U3,7,CANH*%
%TO.N,CAN1+*%
X162466250Y-75887500D03*
%TO.P,U3,8,S*%
%TO.N,CAN SIlent Mode 1*%
X161196250Y-75887500D03*
%TD*%
D19*
%TO.P,C30,1*%
%TO.N,Net-(U1-VCAP_1)*%
X160882500Y-111125000D03*
%TO.P,C30,2*%
%TO.N,GND*%
X159157500Y-111125000D03*
%TD*%
D31*
%TO.P,C19,1*%
%TO.N,+5V*%
X205895000Y-67250000D03*
%TO.P,C19,2*%
%TO.N,GND*%
X207620000Y-67250000D03*
%TD*%
D15*
%TO.P,R13,1*%
%TO.N,Net-(U5-RST)*%
X104203500Y-71070000D03*
%TO.P,R13,2*%
%TO.N,+3.3V*%
X104203500Y-72895000D03*
%TD*%
D33*
%TO.P,R11,1*%
%TO.N,CAN1-*%
X164013750Y-72012500D03*
%TO.P,R11,2*%
%TO.N,CAN1+*%
X162188750Y-72012500D03*
%TD*%
D16*
%TO.P,J11,1,Pin_1*%
%TO.N,CAN1+*%
X155655000Y-53561250D03*
D17*
%TO.P,J11,2,Pin_2*%
%TO.N,CAN1-*%
X161355000Y-53561250D03*
%TO.P,J11,3,Pin_3*%
%TO.N,unconnected-(J11-Pin_3-Pad3)*%
X167055000Y-53561250D03*
%TO.P,J11,4,Pin_4*%
%TO.N,+5V*%
X155655000Y-59061250D03*
%TO.P,J11,5,Pin_5*%
%TO.N,unconnected-(J11-Pin_5-Pad5)*%
X161355000Y-59061250D03*
%TO.P,J11,6,Pin_6*%
%TO.N,GND*%
X167055000Y-59061250D03*
%TD*%
D51*
%TO.N,GND*%
X208650000Y-134600000D03*
X206150000Y-150020000D03*
X220100000Y-134490000D03*
X206180000Y-138740000D03*
X211020000Y-134580000D03*
X206130000Y-145560000D03*
X206140000Y-143360000D03*
X213420000Y-134560000D03*
X217740000Y-134490000D03*
X215420000Y-134560000D03*
X206130000Y-134650000D03*
X206110000Y-147930000D03*
X206150000Y-136670000D03*
X206150000Y-141040000D03*
X206370000Y-50030000D03*
X206260000Y-38580000D03*
X210510000Y-52500000D03*
X206350000Y-47660000D03*
X217330000Y-52550000D03*
X215130000Y-52540000D03*
X206330000Y-45260000D03*
X206260000Y-40940000D03*
X206330000Y-43260000D03*
X206420000Y-52550000D03*
X219700000Y-52570000D03*
X208440000Y-52530000D03*
X212810000Y-52530000D03*
X80400000Y-51130000D03*
X68950000Y-51240000D03*
X82870000Y-46990000D03*
X78030000Y-51150000D03*
X82920000Y-40170000D03*
X82910000Y-42370000D03*
X75630000Y-51170000D03*
X71310000Y-51240000D03*
X73630000Y-51170000D03*
X82920000Y-51080000D03*
X82940000Y-37800000D03*
X82900000Y-49060000D03*
X82900000Y-44690000D03*
X84760000Y-150300000D03*
X84760000Y-147940000D03*
X84690000Y-145620000D03*
X84690000Y-143620000D03*
X84670000Y-141220000D03*
X84650000Y-138850000D03*
X84600000Y-136330000D03*
X82580000Y-136350000D03*
X80510000Y-136380000D03*
X78210000Y-136350000D03*
X75890000Y-136340000D03*
X73690000Y-136330000D03*
X71320000Y-136310000D03*
X69230000Y-136350000D03*
X98552000Y-76200000D03*
X102616000Y-69596000D03*
X160655000Y-115570000D03*
X140970000Y-114300000D03*
X162560000Y-79248000D03*
X125984000Y-62484000D03*
X195580000Y-111760000D03*
X94742000Y-56642000D03*
X87884000Y-84836000D03*
X186436000Y-62484000D03*
X135128000Y-143256000D03*
X93472000Y-102108000D03*
X182880000Y-127508000D03*
X122936000Y-101600000D03*
X215900000Y-130810000D03*
X138430000Y-86995000D03*
X87376000Y-104648000D03*
X88392000Y-100584000D03*
X219075000Y-130810000D03*
X151765000Y-115570000D03*
X91440000Y-85852000D03*
X167132000Y-62992000D03*
X135128000Y-109728000D03*
X170815000Y-89535000D03*
X106680000Y-76200000D03*
X135128000Y-90424000D03*
X127508000Y-62992000D03*
X101600000Y-114300000D03*
X187960000Y-61468000D03*
X156972000Y-126492000D03*
X202692000Y-97028000D03*
X155575000Y-115570000D03*
X161036000Y-131572000D03*
X106680000Y-37592000D03*
X127508000Y-142748000D03*
X207772000Y-97028000D03*
X169926000Y-103378000D03*
X141224000Y-83820000D03*
X165608000Y-61976000D03*
X192201800Y-42748200D03*
X170688000Y-98552000D03*
X140208000Y-123952000D03*
X168656000Y-61976000D03*
X207518000Y-65532000D03*
X215900000Y-118872000D03*
X153416000Y-82804000D03*
X93472000Y-82296000D03*
X102616000Y-43180000D03*
X138176000Y-123952000D03*
X182372000Y-104648000D03*
X151988750Y-89475000D03*
X194564000Y-115824000D03*
X141732000Y-123444000D03*
X192278000Y-50038000D03*
X148844000Y-62484000D03*
X202184000Y-57404000D03*
X147828000Y-63500000D03*
X202184000Y-59690000D03*
X136652000Y-94996000D03*
X218948000Y-118872000D03*
X92964000Y-38608000D03*
X185420000Y-61468000D03*
X157988000Y-84836000D03*
X93472000Y-44196000D03*
X129032000Y-62484000D03*
X146304000Y-62484000D03*
X195072000Y-113284000D03*
X216080000Y-88780000D03*
%TO.N,+3.3V*%
X144145000Y-115570000D03*
X138684000Y-90424000D03*
X131064000Y-77216000D03*
X150368000Y-81788000D03*
X163830000Y-113665000D03*
X185928000Y-116332000D03*
X182372000Y-116332000D03*
X99060000Y-80645000D03*
X170180000Y-94488000D03*
X99060000Y-90805000D03*
X204070000Y-41810000D03*
X154305000Y-114300000D03*
X139700000Y-102870000D03*
X95250000Y-59690000D03*
X154940000Y-84455000D03*
X119380000Y-77724000D03*
X158750000Y-113665000D03*
X142240000Y-85852000D03*
X138684000Y-97950500D03*
X105410000Y-112395000D03*
X104140000Y-74168000D03*
X168402000Y-99568000D03*
X139192000Y-107188000D03*
X170434000Y-86868000D03*
X102616000Y-59944000D03*
%TO.N,+5V*%
X154432000Y-131572000D03*
X117348000Y-61976000D03*
X201168000Y-99568000D03*
X154432000Y-61976000D03*
X198120000Y-118364000D03*
X114300000Y-61976000D03*
X198120000Y-131572000D03*
X136144000Y-62992000D03*
X175768000Y-62992000D03*
X205740000Y-88900000D03*
X90424000Y-117856000D03*
X92050000Y-91950000D03*
X155448000Y-62992000D03*
X134620000Y-61976000D03*
X108712000Y-38100000D03*
X172212000Y-63500000D03*
X90440000Y-91800000D03*
X174244000Y-61976000D03*
X154940000Y-128524000D03*
X197104000Y-99568000D03*
X87884000Y-116840000D03*
X174244000Y-126492000D03*
X207772000Y-93980000D03*
X173228000Y-131064000D03*
X181356000Y-131064000D03*
X182880000Y-134620000D03*
X156972000Y-61976000D03*
X176784000Y-61976000D03*
X88392000Y-91948000D03*
X174244000Y-128524000D03*
X197612000Y-97028000D03*
X205232000Y-79756000D03*
X92456000Y-116332000D03*
X151384000Y-125476000D03*
X115824000Y-62992000D03*
X137668000Y-61976000D03*
%TO.N,NRST*%
X159004000Y-94996000D03*
X184404000Y-69596000D03*
%TO.N,SPI5_CS  *%
X146812000Y-98044000D03*
X132080000Y-109220000D03*
X94615000Y-106045000D03*
X99060000Y-106045000D03*
%TO.N,SPI3_CS  *%
X153924000Y-90932000D03*
X143256000Y-65532000D03*
%TO.N,I2C1_SDA*%
X146695500Y-84836000D03*
X146812000Y-77724000D03*
%TO.N,USART1_RX*%
X116332000Y-69088000D03*
X150876000Y-79756000D03*
X140208000Y-78232000D03*
X163068000Y-68580000D03*
%TO.N,USART1_TX*%
X149860000Y-85344000D03*
X144272000Y-79756000D03*
X166116000Y-69088000D03*
%TO.N,GP5*%
X99060000Y-67056000D03*
X105664000Y-60452000D03*
%TO.N,GP4*%
X107188000Y-66548000D03*
X96520000Y-68072000D03*
%TO.N,GP3*%
X109220000Y-67564000D03*
X92964000Y-69088000D03*
%TO.N,GP2*%
X82742250Y-66675000D03*
X106680000Y-58928000D03*
%TO.N,GP1*%
X105156000Y-57404000D03*
X82296000Y-64516000D03*
%TO.N,GP0*%
X83820000Y-61976000D03*
X104140000Y-55880000D03*
%TO.N,CTS*%
X99568000Y-60960000D03*
X84836000Y-69088000D03*
%TO.N,RTS*%
X112268000Y-64008000D03*
X84328000Y-72136000D03*
%TO.N,SYS_JTCLK-SWCLK*%
X165862000Y-83820000D03*
X163830000Y-83820000D03*
%TO.N,SYS_JTDO-SWO*%
X168148000Y-82550000D03*
X150876000Y-92456000D03*
%TO.N,BOOT0*%
X203200000Y-66548000D03*
X167635701Y-85339701D03*
X205740000Y-63754000D03*
X148844000Y-93472000D03*
%TO.N,MCU_GPIO10*%
X125730000Y-129540000D03*
X160025194Y-103826306D03*
%TO.N,MCU_GPIO9*%
X161308487Y-102900303D03*
X125730000Y-127635000D03*
%TO.N,MCU_GPIO8*%
X159474500Y-102324500D03*
X109220000Y-139700000D03*
%TO.N,MCU_GPIO7*%
X160655000Y-101600000D03*
X108585000Y-137160000D03*
%TO.N,MCU_GPIO6*%
X109220000Y-134620000D03*
X161290000Y-100330000D03*
%TO.N,MCU_GPIO5*%
X161925000Y-104556500D03*
X171450000Y-111760000D03*
%TO.N,MCU_GPIO4*%
X168910000Y-110490000D03*
X160020000Y-105231000D03*
%TO.N,MCU_GPIO3*%
X167005000Y-109855000D03*
X158750000Y-105955500D03*
%TO.N,CAN1_TX*%
X160020000Y-78232000D03*
X159512000Y-90424000D03*
%TO.N,CAN SIlent Mode 1*%
X159004000Y-80264000D03*
X157988000Y-89408000D03*
%TD*%
D52*
%TO.N,+5V*%
X208142000Y-88844000D02*
X211048000Y-88844000D01*
%TO.N,Net-(D5-A)*%
X212085000Y-127125000D02*
X213235000Y-127125000D01*
X204590000Y-134620000D02*
X212085000Y-127125000D01*
X192892000Y-134620000D02*
X204590000Y-134620000D01*
%TO.N,GND*%
X79545000Y-125385000D02*
X86360000Y-125385000D01*
D53*
%TO.N,Net-(C1-Pad1)*%
X126772500Y-104140000D02*
X126885000Y-104027500D01*
X127572500Y-104940000D02*
X129478500Y-104940000D01*
X126772500Y-104140000D02*
X127572500Y-104940000D01*
X127035000Y-101578750D02*
X126885000Y-101578750D01*
X129478500Y-104940000D02*
X132183500Y-102235000D01*
X126885000Y-104027500D02*
X126885000Y-101578750D01*
D52*
%TO.N,GND*%
X167055000Y-60529000D02*
X167055000Y-59061250D01*
X90395000Y-102393750D02*
X90138250Y-102393750D01*
D54*
X135544250Y-91856250D02*
X135128000Y-91440000D01*
D52*
X103482250Y-44046250D02*
X102616000Y-43180000D01*
D53*
X96520000Y-58065500D02*
X96520000Y-56183000D01*
D52*
X93186250Y-102393750D02*
X93472000Y-102108000D01*
X71585000Y-125385000D02*
X79545000Y-125385000D01*
D53*
X98591000Y-72682500D02*
X98591000Y-73082500D01*
X157613750Y-84461750D02*
X157988000Y-84836000D01*
X182245000Y-104521000D02*
X182372000Y-104648000D01*
D54*
X215805000Y-129325000D02*
X219185000Y-129325000D01*
D52*
X192632500Y-123825000D02*
X190388750Y-126068750D01*
D53*
X129785000Y-101578750D02*
X129935000Y-101578750D01*
D52*
X104500000Y-38546250D02*
X95700000Y-38546250D01*
D53*
X106584750Y-75276250D02*
X106584750Y-76104750D01*
X136932500Y-96520000D02*
X137732500Y-95720000D01*
D52*
X125984000Y-62484000D02*
X127620000Y-60848000D01*
D53*
X169617250Y-97481250D02*
X170688000Y-98552000D01*
X86360000Y-127000000D02*
X86360000Y-125385000D01*
D52*
X213668000Y-88844000D02*
X216016000Y-88844000D01*
X140350000Y-128680000D02*
X140350000Y-124094000D01*
X141732000Y-124968000D02*
X141732000Y-123444000D01*
X135320000Y-143448000D02*
X135128000Y-143256000D01*
X198595000Y-113431250D02*
X198595000Y-113317000D01*
D53*
X127035000Y-99278750D02*
X129335000Y-101578750D01*
X124460000Y-100557500D02*
X125738750Y-99278750D01*
X197324250Y-50038000D02*
X192278000Y-50038000D01*
X199613750Y-59947500D02*
X199613750Y-57407500D01*
D54*
X216175000Y-127975000D02*
X216175000Y-128955000D01*
D52*
X141732000Y-127298000D02*
X141732000Y-124968000D01*
X185970000Y-126068750D02*
X187707500Y-126068750D01*
D53*
X137732500Y-95720000D02*
X140170000Y-95720000D01*
D52*
X193261800Y-41688200D02*
X192201800Y-42748200D01*
X127620000Y-61072000D02*
X127620000Y-59155000D01*
X203861500Y-95858500D02*
X202692000Y-97028000D01*
X185420000Y-61468000D02*
X186740000Y-60148000D01*
X197398000Y-41688200D02*
X193261800Y-41688200D01*
D53*
X142395000Y-83918750D02*
X141322750Y-83918750D01*
D52*
X204660500Y-95858500D02*
X206248000Y-95858500D01*
D53*
X199613750Y-52327500D02*
X197324250Y-50038000D01*
X156920000Y-110737500D02*
X155888750Y-111768750D01*
D52*
X90515000Y-125385000D02*
X101600000Y-114300000D01*
D54*
X216175000Y-128955000D02*
X215805000Y-129325000D01*
D52*
X90395000Y-83200000D02*
X92568000Y-83200000D01*
D53*
X219185000Y-129325000D02*
X219185000Y-120675000D01*
X96520000Y-58065500D02*
X96165500Y-58065500D01*
X136932500Y-96520000D02*
X136932500Y-95276500D01*
X202180500Y-57407500D02*
X202184000Y-57404000D01*
D52*
X196202250Y-115824000D02*
X194564000Y-115824000D01*
D54*
X214825000Y-128345000D02*
X215805000Y-129325000D01*
D52*
X186740000Y-59027500D02*
X186740000Y-58624000D01*
D53*
X155888750Y-111768750D02*
X155888750Y-114081250D01*
X199613750Y-57407500D02*
X202180500Y-57407500D01*
X151263750Y-83125000D02*
X153095000Y-83125000D01*
X169451250Y-102243750D02*
X169451250Y-102903250D01*
D52*
X140350000Y-128680000D02*
X140052000Y-128680000D01*
X159400000Y-128680000D02*
X159160000Y-128680000D01*
X195219250Y-113431250D02*
X195072000Y-113284000D01*
D53*
X129785000Y-101578750D02*
X129785000Y-102852500D01*
D54*
X214825000Y-121655000D02*
X215805000Y-120675000D01*
D52*
X186740000Y-62180000D02*
X186740000Y-59027500D01*
D53*
X137701250Y-108593750D02*
X136113750Y-108593750D01*
X98353500Y-72845000D02*
X98591000Y-73082500D01*
X129785000Y-102852500D02*
X128497500Y-104140000D01*
D52*
X127620000Y-60848000D02*
X127620000Y-59155000D01*
X216016000Y-88844000D02*
X216080000Y-88780000D01*
X207620000Y-67250000D02*
X207620000Y-65634000D01*
D53*
X96520000Y-56183000D02*
X98933000Y-53770000D01*
D52*
X104500000Y-44046250D02*
X103482250Y-44046250D01*
D53*
X96266000Y-72845000D02*
X98353500Y-72845000D01*
D52*
X186740000Y-60248000D02*
X187960000Y-61468000D01*
X89630250Y-102393750D02*
X87376000Y-104648000D01*
X204660500Y-95858500D02*
X206602500Y-95858500D01*
X147828000Y-63500000D02*
X147370000Y-63042000D01*
X188872500Y-124903750D02*
X187707500Y-126068750D01*
D53*
X129935000Y-101578750D02*
X129956250Y-101600000D01*
X143282500Y-114081250D02*
X145420000Y-111943750D01*
D52*
X182945000Y-127573000D02*
X182880000Y-127508000D01*
D53*
X169451250Y-102243750D02*
X169382500Y-102175000D01*
D52*
X190388750Y-126068750D02*
X187707500Y-126068750D01*
D53*
X160651250Y-113026250D02*
X160651250Y-114081250D01*
X141322750Y-83918750D02*
X141224000Y-83820000D01*
D52*
X182945000Y-129093750D02*
X182945000Y-127573000D01*
X167055000Y-60375000D02*
X167055000Y-59061250D01*
D53*
X159157500Y-111532500D02*
X160651250Y-113026250D01*
X140170000Y-95720000D02*
X141625000Y-97175000D01*
X139407500Y-104675000D02*
X143007500Y-104675000D01*
X168645000Y-96675000D02*
X164332500Y-96675000D01*
X136525000Y-85725000D02*
X137160000Y-85725000D01*
X169451250Y-102903250D02*
X169926000Y-103378000D01*
X160651250Y-114081250D02*
X160651250Y-115566250D01*
D54*
X215805000Y-120675000D02*
X215805000Y-118967000D01*
D52*
X140350000Y-124094000D02*
X140208000Y-123952000D01*
D53*
X141625000Y-97175000D02*
X143007500Y-97175000D01*
D52*
X159400000Y-128680000D02*
X159400000Y-129936000D01*
X127360000Y-142896000D02*
X127508000Y-142748000D01*
X90395000Y-102393750D02*
X89630250Y-102393750D01*
X168656000Y-61976000D02*
X167055000Y-60375000D01*
X198595000Y-113431250D02*
X196202250Y-115824000D01*
D54*
X214825000Y-127975000D02*
X214825000Y-128345000D01*
D52*
X186740000Y-60756000D02*
X186740000Y-59027500D01*
D53*
X139282500Y-104550000D02*
X139407500Y-104675000D01*
D52*
X124968000Y-146457500D02*
X125753750Y-146457500D01*
X186740000Y-60148000D02*
X186740000Y-59027500D01*
D53*
X151920000Y-89406250D02*
X151920000Y-87762500D01*
D52*
X95700000Y-44046250D02*
X98500000Y-44046250D01*
D53*
X151126250Y-114081250D02*
X151126250Y-114931250D01*
X126885000Y-99278750D02*
X127035000Y-99278750D01*
X151126250Y-113356250D02*
X151920000Y-112562500D01*
D54*
X216175000Y-122025000D02*
X214825000Y-122025000D01*
D52*
X182945000Y-129093750D02*
X185970000Y-126068750D01*
D53*
X137695000Y-104550000D02*
X139282500Y-104550000D01*
X170815000Y-89535000D02*
X171450000Y-88900000D01*
D52*
X93621750Y-44046250D02*
X93472000Y-44196000D01*
D53*
X123978500Y-100557500D02*
X122936000Y-101600000D01*
X151126250Y-114081250D02*
X151126250Y-113356250D01*
D52*
X147370000Y-61418000D02*
X146304000Y-62484000D01*
X188872500Y-123825000D02*
X188872500Y-124903750D01*
X127620000Y-62880000D02*
X127620000Y-59155000D01*
X198595000Y-113431250D02*
X196923750Y-111760000D01*
X127508000Y-62992000D02*
X127620000Y-62880000D01*
X105725750Y-38546250D02*
X106680000Y-37592000D01*
D53*
X102616000Y-71120000D02*
X102616000Y-69596000D01*
D52*
X93025750Y-38546250D02*
X92964000Y-38608000D01*
D53*
X136113750Y-108593750D02*
X135313750Y-107793750D01*
D52*
X129032000Y-62484000D02*
X127620000Y-61072000D01*
D53*
X98552000Y-76200000D02*
X98591000Y-76161000D01*
X135313750Y-103768750D02*
X136113750Y-102968750D01*
D52*
X90395000Y-102393750D02*
X93186250Y-102393750D01*
X127360000Y-144851250D02*
X135320000Y-144851250D01*
D54*
X215805000Y-120675000D02*
X219185000Y-120675000D01*
D53*
X159851250Y-114881250D02*
X156688750Y-114881250D01*
D54*
X136045000Y-91856250D02*
X135544250Y-91856250D01*
D53*
X137160000Y-85725000D02*
X138430000Y-86995000D01*
D52*
X95700000Y-44046250D02*
X95700000Y-38546250D01*
X88759000Y-84836000D02*
X90395000Y-83200000D01*
D53*
X98591000Y-73082500D02*
X98591000Y-72832500D01*
D52*
X104500000Y-44046250D02*
X104500000Y-38546250D01*
D53*
X168820000Y-90175000D02*
X169451250Y-89543750D01*
D52*
X95700000Y-44046250D02*
X93621750Y-44046250D01*
D53*
X124460000Y-100557500D02*
X123978500Y-100557500D01*
X145420000Y-111943750D02*
X145420000Y-109087500D01*
X106584750Y-76104750D02*
X106680000Y-76200000D01*
D52*
X207620000Y-65634000D02*
X207518000Y-65532000D01*
D53*
X136932500Y-95276500D02*
X136652000Y-94996000D01*
X170815000Y-89535000D02*
X170806250Y-89543750D01*
X98591000Y-72832500D02*
X100291000Y-71132500D01*
D52*
X148844000Y-62484000D02*
X147370000Y-61010000D01*
D53*
X136113750Y-102968750D02*
X137695000Y-104550000D01*
D52*
X167132000Y-62992000D02*
X167055000Y-62915000D01*
X162466250Y-80837500D02*
X162466250Y-79341750D01*
D53*
X160651250Y-114081250D02*
X159851250Y-114881250D01*
X171450000Y-88900000D02*
X173127500Y-88900000D01*
X157545000Y-83193750D02*
X156920000Y-83818750D01*
X141188750Y-114081250D02*
X143282500Y-114081250D01*
X96165500Y-58065500D02*
X94742000Y-56642000D01*
X140970000Y-114300000D02*
X141188750Y-114081250D01*
D52*
X206602500Y-95858500D02*
X207772000Y-97028000D01*
D53*
X151263750Y-83125000D02*
X151920000Y-83781250D01*
D52*
X98500000Y-44046250D02*
X98500000Y-53337000D01*
D53*
X151920000Y-83781250D02*
X151920000Y-87762500D01*
X219075000Y-129435000D02*
X219185000Y-129325000D01*
D52*
X215805000Y-130715000D02*
X215900000Y-130810000D01*
X165608000Y-61976000D02*
X167055000Y-60529000D01*
X162466250Y-79341750D02*
X162560000Y-79248000D01*
D53*
X170806250Y-89543750D02*
X169451250Y-89543750D01*
D54*
X214825000Y-122025000D02*
X214825000Y-121655000D01*
X135128000Y-91440000D02*
X135128000Y-90424000D01*
D52*
X140350000Y-128680000D02*
X141732000Y-127298000D01*
D53*
X201926500Y-59947500D02*
X202184000Y-59690000D01*
D52*
X159400000Y-129936000D02*
X161036000Y-131572000D01*
X147370000Y-59027500D02*
X147370000Y-61418000D01*
D53*
X98591000Y-76161000D02*
X98591000Y-73082500D01*
D52*
X147370000Y-63042000D02*
X147370000Y-59027500D01*
X138176000Y-126506000D02*
X138176000Y-123952000D01*
X90201750Y-102393750D02*
X88392000Y-100584000D01*
D53*
X136113750Y-108593750D02*
X136113750Y-108742250D01*
D54*
X215805000Y-118967000D02*
X215900000Y-118872000D01*
D53*
X151988750Y-89475000D02*
X151920000Y-89406250D01*
X160651250Y-115566250D02*
X160655000Y-115570000D01*
X151920000Y-112562500D02*
X151920000Y-109087500D01*
D52*
X71585000Y-124925000D02*
X71585000Y-125672500D01*
D54*
X216175000Y-121045000D02*
X215805000Y-120675000D01*
D53*
X135313750Y-107793750D02*
X135313750Y-103768750D01*
D52*
X127360000Y-144851250D02*
X127360000Y-142896000D01*
D53*
X155888750Y-114081250D02*
X155888750Y-115256250D01*
D52*
X159160000Y-128680000D02*
X156972000Y-126492000D01*
X90395000Y-102393750D02*
X90201750Y-102393750D01*
D53*
X157613750Y-83125000D02*
X157613750Y-84461750D01*
X129335000Y-101578750D02*
X129785000Y-101578750D01*
X199613750Y-59947500D02*
X201926500Y-59947500D01*
X219185000Y-119109000D02*
X218948000Y-118872000D01*
D52*
X204660500Y-95858500D02*
X203861500Y-95858500D01*
X90395000Y-83200000D02*
X90395000Y-84807000D01*
X95700000Y-38546250D02*
X93025750Y-38546250D01*
D53*
X100528500Y-71120000D02*
X100291000Y-70882500D01*
X156688750Y-114881250D02*
X155888750Y-114081250D01*
D52*
X186740000Y-59027500D02*
X186740000Y-60248000D01*
D53*
X159157500Y-111125000D02*
X159157500Y-111532500D01*
D52*
X92568000Y-83200000D02*
X93472000Y-82296000D01*
D53*
X136113750Y-108742250D02*
X135128000Y-109728000D01*
X106584750Y-75276250D02*
X108966000Y-75276250D01*
X156920000Y-83818750D02*
X156920000Y-87762500D01*
D54*
X214825000Y-127975000D02*
X216175000Y-127975000D01*
D53*
X125738750Y-99278750D02*
X126885000Y-99278750D01*
X153095000Y-83125000D02*
X153416000Y-82804000D01*
X219185000Y-120675000D02*
X219185000Y-119109000D01*
D52*
X86360000Y-125385000D02*
X90515000Y-125385000D01*
X167055000Y-62915000D02*
X167055000Y-59061250D01*
D53*
X169451250Y-97481250D02*
X169617250Y-97481250D01*
D52*
X135320000Y-144851250D02*
X135320000Y-143448000D01*
D53*
X169451250Y-97481250D02*
X168645000Y-96675000D01*
D52*
X125753750Y-146457500D02*
X127360000Y-144851250D01*
D53*
X151126250Y-114931250D02*
X151765000Y-115570000D01*
X126772500Y-99166250D02*
X126885000Y-99278750D01*
D52*
X104500000Y-38546250D02*
X105725750Y-38546250D01*
D54*
X216175000Y-122025000D02*
X216175000Y-121045000D01*
D52*
X198595000Y-113431250D02*
X195219250Y-113431250D01*
X87884000Y-84836000D02*
X88759000Y-84836000D01*
X98500000Y-53337000D02*
X98933000Y-53770000D01*
X196923750Y-111760000D02*
X195580000Y-111760000D01*
D53*
X100291000Y-71132500D02*
X100291000Y-70882500D01*
X180405000Y-104521000D02*
X182245000Y-104521000D01*
D52*
X140350000Y-128680000D02*
X138176000Y-126506000D01*
X186436000Y-62484000D02*
X186740000Y-62180000D01*
D53*
X169382500Y-102175000D02*
X164332500Y-102175000D01*
X156920000Y-109087500D02*
X156920000Y-110737500D01*
X164332500Y-90175000D02*
X168820000Y-90175000D01*
X219185000Y-130700000D02*
X219075000Y-130810000D01*
X142395000Y-82331250D02*
X142395000Y-83918750D01*
D52*
X90395000Y-83200000D02*
X90395000Y-83341000D01*
X147370000Y-61010000D02*
X147370000Y-59027500D01*
X90395000Y-84807000D02*
X91440000Y-85852000D01*
D53*
X155888750Y-115256250D02*
X155575000Y-115570000D01*
%TO.N,HSE_IN  *%
X130393750Y-99278750D02*
X132080000Y-100965000D01*
X138485000Y-100965000D02*
X138775000Y-100675000D01*
X125238750Y-98053750D02*
X128560000Y-98053750D01*
X132080000Y-100965000D02*
X138485000Y-100965000D01*
X129785000Y-99278750D02*
X130393750Y-99278750D01*
X124460000Y-98832500D02*
X125238750Y-98053750D01*
X138775000Y-100675000D02*
X143007500Y-100675000D01*
X128560000Y-98053750D02*
X129785000Y-99278750D01*
X129785000Y-99222500D02*
X129785000Y-99278750D01*
%TO.N,+3.3V*%
X169451250Y-87818750D02*
X169483250Y-87818750D01*
X131351250Y-76928750D02*
X131064000Y-77216000D01*
D52*
X194007500Y-123395500D02*
X186944000Y-116332000D01*
D53*
X155888750Y-83125000D02*
X155888750Y-83506250D01*
X105410000Y-114022500D02*
X105410000Y-112395000D01*
X157613750Y-114081250D02*
X157420000Y-113887500D01*
X144120000Y-83918750D02*
X144120000Y-83972000D01*
X202398000Y-41688200D02*
X202728200Y-41688200D01*
X156420000Y-83656250D02*
X156420000Y-87762500D01*
X138088750Y-92175000D02*
X143007500Y-92175000D01*
X169352750Y-100518750D02*
X168402000Y-99568000D01*
X169451250Y-95756250D02*
X169451250Y-95216750D01*
X95350500Y-59790500D02*
X95250000Y-59690000D01*
X203948200Y-41688200D02*
X204070000Y-41810000D01*
X167595000Y-89675000D02*
X169451250Y-87818750D01*
X157420000Y-113887500D02*
X157420000Y-109087500D01*
X102743000Y-53770000D02*
X102743000Y-59817000D01*
X168295000Y-101675000D02*
X169451250Y-100518750D01*
X98782500Y-80922500D02*
X99060000Y-80645000D01*
X202398000Y-41688200D02*
X203948200Y-41688200D01*
X145007500Y-114081250D02*
X145007500Y-114707500D01*
X119445000Y-77659000D02*
X119445000Y-75306250D01*
X162420000Y-114037500D02*
X162420000Y-109087500D01*
X155888750Y-83506250D02*
X154940000Y-84455000D01*
X137838750Y-102968750D02*
X137838750Y-103106250D01*
X152851250Y-114081250D02*
X154086250Y-114081250D01*
D52*
X188835000Y-121920000D02*
X183247000Y-116332000D01*
D53*
X157613750Y-114081250D02*
X158333750Y-114081250D01*
X131351250Y-75306250D02*
X131351250Y-76928750D01*
D52*
X183247000Y-116332000D02*
X182372000Y-116332000D01*
D53*
X163413750Y-114081250D02*
X163830000Y-113665000D01*
D52*
X189002500Y-121920000D02*
X190907500Y-123825000D01*
D53*
X158333750Y-114081250D02*
X158750000Y-113665000D01*
X138657500Y-96520000D02*
X139812500Y-97675000D01*
X144120000Y-82331250D02*
X144120000Y-83918750D01*
X154086250Y-114081250D02*
X154305000Y-114300000D01*
D52*
X187707500Y-128368750D02*
X194007500Y-128368750D01*
D53*
X102743000Y-59817000D02*
X102616000Y-59944000D01*
X137770000Y-91338000D02*
X138684000Y-90424000D01*
X98782500Y-82272500D02*
X98782500Y-80922500D01*
X98782500Y-92432500D02*
X98782500Y-91082500D01*
X169451250Y-95216750D02*
X170180000Y-94488000D01*
X137770000Y-91856250D02*
X137770000Y-91338000D01*
X138895000Y-105675000D02*
X143007500Y-105675000D01*
X138495000Y-103762500D02*
X141791815Y-103762500D01*
X98782500Y-91082500D02*
X99060000Y-90805000D01*
X142240000Y-85798750D02*
X142240000Y-85852000D01*
X169032500Y-96175000D02*
X169451250Y-95756250D01*
X138657500Y-96520000D02*
X138657500Y-97924000D01*
X104203500Y-74104500D02*
X104140000Y-74168000D01*
X139812500Y-97675000D02*
X143007500Y-97675000D01*
X151420000Y-85006250D02*
X151420000Y-87762500D01*
X144120000Y-83972000D02*
X142240000Y-85852000D01*
X145007500Y-114707500D02*
X144145000Y-115570000D01*
X169483250Y-87818750D02*
X170434000Y-86868000D01*
X152420000Y-109890685D02*
X152420000Y-109087500D01*
D52*
X188835000Y-121920000D02*
X189002500Y-121920000D01*
D53*
X141791815Y-103762500D02*
X142204315Y-104175000D01*
D52*
X194007500Y-128368750D02*
X194007500Y-123395500D01*
D53*
X164332500Y-96175000D02*
X169032500Y-96175000D01*
X145007500Y-114081250D02*
X145920000Y-113168750D01*
X104203500Y-72895000D02*
X104203500Y-74104500D01*
D52*
X186944000Y-116332000D02*
X185928000Y-116332000D01*
D53*
X137701250Y-106868750D02*
X138895000Y-105675000D01*
X162376250Y-114081250D02*
X163413750Y-114081250D01*
X164332500Y-101675000D02*
X168295000Y-101675000D01*
X144120000Y-83918750D02*
X144920000Y-84718750D01*
X138657500Y-97924000D02*
X138684000Y-97950500D01*
X138872750Y-106868750D02*
X139192000Y-107188000D01*
X144920000Y-84718750D02*
X144920000Y-87762500D01*
X96520000Y-59790500D02*
X95350500Y-59790500D01*
X137701250Y-106868750D02*
X138872750Y-106868750D01*
X149538750Y-82617250D02*
X150368000Y-81788000D01*
X143007500Y-105675000D02*
X143007500Y-105175000D01*
X136113750Y-106868750D02*
X137701250Y-106868750D01*
X137838750Y-103106250D02*
X138495000Y-103762500D01*
X139601250Y-102968750D02*
X139700000Y-102870000D01*
X137770000Y-91856250D02*
X138088750Y-92175000D01*
X145920000Y-113168750D02*
X145920000Y-109087500D01*
X137838750Y-102968750D02*
X139601250Y-102968750D01*
X162376250Y-114081250D02*
X162420000Y-114037500D01*
X152851250Y-114081250D02*
X152851250Y-110321935D01*
X169451250Y-100518750D02*
X169352750Y-100518750D01*
X152851250Y-110321935D02*
X152420000Y-109890685D01*
X155888750Y-83125000D02*
X156420000Y-83656250D01*
X149538750Y-83125000D02*
X151420000Y-85006250D01*
X145420000Y-83631250D02*
X145420000Y-87762500D01*
X164332500Y-89675000D02*
X167595000Y-89675000D01*
X142204315Y-104175000D02*
X143007500Y-104175000D01*
X119380000Y-77724000D02*
X119445000Y-77659000D01*
X149538750Y-83125000D02*
X149538750Y-82617250D01*
X144120000Y-82331250D02*
X145420000Y-83631250D01*
X96520000Y-60657000D02*
X98933000Y-63070000D01*
X96520000Y-59790500D02*
X96520000Y-60657000D01*
D54*
%TO.N,+5V*%
X165341000Y-69409016D02*
X165794984Y-69863000D01*
D52*
X108712000Y-40788000D02*
X108712000Y-38100000D01*
X197216750Y-130668750D02*
X198120000Y-131572000D01*
X170800000Y-128680000D02*
X170800000Y-127112000D01*
X205796000Y-88844000D02*
X205740000Y-88900000D01*
X90395000Y-113793750D02*
X90395000Y-114271000D01*
X90395000Y-94600000D02*
X90395000Y-93951000D01*
D54*
X172212000Y-63500000D02*
X172212000Y-64008000D01*
D52*
X116220000Y-60848000D02*
X117348000Y-61976000D01*
X201132500Y-62487500D02*
X205895000Y-67250000D01*
X174244000Y-60960000D02*
X175340000Y-59864000D01*
X154784000Y-128680000D02*
X154940000Y-128524000D01*
X170844000Y-128680000D02*
X173228000Y-131064000D01*
X198595000Y-102031250D02*
X198595000Y-101059000D01*
X205895000Y-67250000D02*
X205232000Y-67913000D01*
X198595000Y-102031250D02*
X198704750Y-102031250D01*
X182945000Y-130818750D02*
X182945000Y-131891000D01*
X90395000Y-94600000D02*
X90395000Y-91845000D01*
X135970000Y-60626000D02*
X135970000Y-59027500D01*
X183095000Y-130668750D02*
X182945000Y-130818750D01*
X90395000Y-114271000D02*
X92456000Y-116332000D01*
X116220000Y-59155000D02*
X116220000Y-60848000D01*
X205232000Y-67913000D02*
X205232000Y-79756000D01*
D54*
X165794984Y-77791016D02*
X163736250Y-79849750D01*
D52*
X90395000Y-91845000D02*
X90440000Y-91800000D01*
X176784000Y-60471500D02*
X175340000Y-59027500D01*
D54*
X165794984Y-69863000D02*
X165794984Y-77791016D01*
D52*
X187707500Y-130668750D02*
X183095000Y-130668750D01*
X90395000Y-114329000D02*
X87884000Y-116840000D01*
X116220000Y-62596000D02*
X116220000Y-59155000D01*
X90395000Y-113793750D02*
X90395000Y-114329000D01*
X193531528Y-118364000D02*
X198120000Y-118364000D01*
D54*
X172212000Y-64008000D02*
X168410000Y-67810000D01*
X166297984Y-67810000D02*
X165341000Y-68766984D01*
D52*
X90395000Y-94600000D02*
X90395000Y-93605000D01*
X154432000Y-61976000D02*
X155655000Y-60753000D01*
X170800000Y-128680000D02*
X174088000Y-128680000D01*
X151750000Y-128680000D02*
X151750000Y-125842000D01*
D54*
X163736250Y-79849750D02*
X163736250Y-80837500D01*
D52*
X182945000Y-131891000D02*
X183896000Y-132842000D01*
X151750000Y-125842000D02*
X151384000Y-125476000D01*
X180405000Y-105791000D02*
X180958528Y-105791000D01*
X116220000Y-60056000D02*
X116220000Y-59155000D01*
X174088000Y-128680000D02*
X174244000Y-128524000D01*
X175768000Y-62992000D02*
X175340000Y-62564000D01*
X151750000Y-128680000D02*
X152556000Y-128680000D01*
X155655000Y-59061250D02*
X155655000Y-62785000D01*
X115824000Y-62992000D02*
X116220000Y-62596000D01*
X90395000Y-93605000D02*
X92050000Y-91950000D01*
X151750000Y-128680000D02*
X151750000Y-128890000D01*
X183896000Y-132842000D02*
X185314000Y-132842000D01*
X198704750Y-102031250D02*
X201168000Y-99568000D01*
X90395000Y-117827000D02*
X90424000Y-117856000D01*
X90395000Y-94600000D02*
X90395000Y-94517000D01*
X155655000Y-60753000D02*
X155655000Y-59061250D01*
X176784000Y-61976000D02*
X176784000Y-60471500D01*
X90395000Y-93951000D02*
X88392000Y-91948000D01*
X170800000Y-128680000D02*
X170844000Y-128680000D01*
X137668000Y-61976000D02*
X135970000Y-60278000D01*
X198595000Y-102031250D02*
X198595000Y-98011000D01*
X205740000Y-88900000D02*
X208086000Y-88900000D01*
X181601250Y-130818750D02*
X181356000Y-131064000D01*
X170800000Y-128680000D02*
X172988000Y-126492000D01*
X207618500Y-94133500D02*
X207772000Y-93980000D01*
X182945000Y-130818750D02*
X181601250Y-130818750D01*
X172988000Y-126492000D02*
X173228000Y-126492000D01*
X182880000Y-134620000D02*
X187092000Y-134620000D01*
X173228000Y-126492000D02*
X174244000Y-126492000D01*
X206248000Y-94133500D02*
X204660500Y-94133500D01*
X206248000Y-94133500D02*
X206248000Y-90738000D01*
X175340000Y-59864000D02*
X175340000Y-59027500D01*
X185314000Y-132842000D02*
X187092000Y-134620000D01*
D54*
X168410000Y-67810000D02*
X166297984Y-67810000D01*
D52*
X136144000Y-62992000D02*
X135970000Y-62818000D01*
D54*
X165341000Y-68766984D02*
X165341000Y-69409016D01*
D52*
X151750000Y-128890000D02*
X154432000Y-131572000D01*
X198595000Y-98011000D02*
X197612000Y-97028000D01*
X170800000Y-128680000D02*
X170800000Y-127396000D01*
X206248000Y-94133500D02*
X207618500Y-94133500D01*
X135970000Y-60278000D02*
X135970000Y-59027500D01*
X135970000Y-62818000D02*
X135970000Y-59027500D01*
X155655000Y-60659000D02*
X155655000Y-59061250D01*
X175340000Y-62564000D02*
X175340000Y-59027500D01*
X187707500Y-130668750D02*
X197216750Y-130668750D01*
X156972000Y-61976000D02*
X155655000Y-60659000D01*
X151750000Y-128680000D02*
X154784000Y-128680000D01*
X174244000Y-61976000D02*
X174244000Y-60960000D01*
X134620000Y-61976000D02*
X135970000Y-60626000D01*
X199613750Y-62487500D02*
X201132500Y-62487500D01*
X208086000Y-88900000D02*
X208142000Y-88844000D01*
X198595000Y-101059000D02*
X197104000Y-99568000D01*
X180958528Y-105791000D02*
X193531528Y-118364000D01*
X90395000Y-113793750D02*
X90395000Y-117827000D01*
X155655000Y-62785000D02*
X155448000Y-62992000D01*
X206248000Y-90738000D02*
X208142000Y-88844000D01*
X114300000Y-61976000D02*
X116220000Y-60056000D01*
D53*
%TO.N,NRST*%
X137160000Y-114325685D02*
X137160000Y-147511250D01*
X159004000Y-94996000D02*
X152325000Y-101675000D01*
X143007500Y-101675000D02*
X143810685Y-101675000D01*
X144780000Y-106705685D02*
X137160000Y-114325685D01*
X143810685Y-101675000D02*
X144220000Y-101675000D01*
X144780000Y-102235000D02*
X144780000Y-106705685D01*
D52*
X126191250Y-148182500D02*
X127360000Y-149351250D01*
X127360000Y-149351250D02*
X135320000Y-149351250D01*
X124968000Y-148182500D02*
X126191250Y-148182500D01*
D53*
X192024000Y-59332500D02*
X192024000Y-60960000D01*
X152325000Y-101675000D02*
X143810685Y-101675000D01*
X192024000Y-60960000D02*
X184404000Y-68580000D01*
X144220000Y-101675000D02*
X144780000Y-102235000D01*
X184404000Y-68580000D02*
X184404000Y-69596000D01*
X137160000Y-147511250D02*
X135320000Y-149351250D01*
%TO.N,Net-(U5-OSC1)*%
X98591000Y-70882500D02*
X98591000Y-69684000D01*
X96266000Y-71120000D02*
X98353500Y-71120000D01*
X98591000Y-69684000D02*
X100203000Y-68072000D01*
X100203000Y-68072000D02*
X100203000Y-63070000D01*
X98353500Y-71120000D02*
X98591000Y-70882500D01*
%TO.N,Net-(U5-OSC2)*%
X102616000Y-72845000D02*
X101866000Y-72095000D01*
X100291000Y-73082500D02*
X102378500Y-73082500D01*
X101866000Y-72095000D02*
X101866000Y-68211000D01*
X101866000Y-68211000D02*
X101473000Y-67818000D01*
X100528500Y-72845000D02*
X100291000Y-73082500D01*
X101473000Y-67818000D02*
X101473000Y-63070000D01*
X102378500Y-73082500D02*
X102616000Y-72845000D01*
%TO.N,Net-(D2-K)*%
X108966000Y-73451250D02*
X108966000Y-71270000D01*
%TO.N,Net-(D2-A)*%
X105283000Y-63070000D02*
X105283000Y-65837000D01*
X105283000Y-65837000D02*
X108966000Y-69520000D01*
%TO.N,Net-(D3-K)*%
X106584750Y-73451250D02*
X106584750Y-71270000D01*
%TO.N,Net-(D3-A)*%
X104013000Y-66948250D02*
X106584750Y-69520000D01*
X104013000Y-63070000D02*
X104013000Y-66948250D01*
D52*
%TO.N,Net-(D4-K)*%
X187085000Y-121920000D02*
X187085000Y-123787500D01*
X187085000Y-123787500D02*
X187047500Y-123825000D01*
D54*
%TO.N,Net-(D5-A)*%
X213235000Y-123970026D02*
X213235000Y-127125000D01*
X214825000Y-122875000D02*
X214330026Y-122875000D01*
X214825000Y-122875000D02*
X216175000Y-122875000D01*
X214825000Y-127125000D02*
X213235000Y-127125000D01*
X214825000Y-127125000D02*
X216175000Y-127125000D01*
X214330026Y-122875000D02*
X213235000Y-123970026D01*
D52*
%TO.N,Net-(D6-A)*%
X108712000Y-46588000D02*
X103241750Y-46588000D01*
X103241750Y-46588000D02*
X101700000Y-45046250D01*
X101700000Y-45046250D02*
X101700000Y-44046250D01*
D53*
%TO.N,ADC1_IN8*%
X165100000Y-128016000D02*
X161544000Y-124460000D01*
X161544000Y-124460000D02*
X156972000Y-124460000D01*
X149420000Y-116908000D02*
X149420000Y-109087500D01*
X156972000Y-124460000D02*
X149420000Y-116908000D01*
X165100000Y-128680000D02*
X165100000Y-128016000D01*
%TO.N,ADC1_IN9*%
X149920000Y-115884000D02*
X149920000Y-109087500D01*
X164084000Y-123444000D02*
X157480000Y-123444000D01*
X170800000Y-134180000D02*
X168148000Y-131528000D01*
X168148000Y-127508000D02*
X164084000Y-123444000D01*
X157480000Y-123444000D02*
X149920000Y-115884000D01*
X168148000Y-131528000D02*
X168148000Y-127508000D01*
%TO.N,ADC1_IN14*%
X155956000Y-126492000D02*
X155956000Y-129540000D01*
X155956000Y-129540000D02*
X159400000Y-132984000D01*
X148420000Y-109087500D02*
X148420000Y-118956000D01*
X159400000Y-132984000D02*
X159400000Y-134180000D01*
X148420000Y-118956000D02*
X155956000Y-126492000D01*
%TO.N,ADC1_IN15*%
X156464000Y-125476000D02*
X148920000Y-117932000D01*
X161036000Y-125476000D02*
X162052000Y-126492000D01*
X148920000Y-117932000D02*
X148920000Y-109087500D01*
X165100000Y-134180000D02*
X162052000Y-131132000D01*
X162052000Y-126492000D02*
X162052000Y-131132000D01*
X161036000Y-125476000D02*
X156464000Y-125476000D01*
%TO.N,ADC2_IN4*%
X146570000Y-114551745D02*
X146570000Y-113610755D01*
X146420000Y-109890685D02*
X146420000Y-109087500D01*
X142875000Y-118246745D02*
X146570000Y-114551745D01*
X146370000Y-113410755D02*
X146370000Y-109940685D01*
X140350000Y-134180000D02*
X142875000Y-131655000D01*
X142875000Y-131655000D02*
X142875000Y-118246745D01*
X146570000Y-113610755D02*
X146370000Y-113410755D01*
X146370000Y-109940685D02*
X146420000Y-109890685D01*
%TO.N,ADC2_IN5*%
X143850000Y-118280785D02*
X147020000Y-115110785D01*
X146050000Y-134180000D02*
X143850000Y-131980000D01*
X143850000Y-131980000D02*
X143850000Y-118280785D01*
X147020000Y-115110785D02*
X147020000Y-113424359D01*
X146920000Y-113324359D02*
X146920000Y-109087500D01*
X147020000Y-113424359D02*
X146920000Y-113324359D01*
%TO.N,ADC2_IN6*%
X145415000Y-128045000D02*
X145415000Y-118110000D01*
X147470000Y-113237963D02*
X147420000Y-113187963D01*
X145415000Y-118110000D02*
X147470000Y-116055000D01*
X147420000Y-113187963D02*
X147420000Y-109087500D01*
X147470000Y-116055000D02*
X147470000Y-113237963D01*
X146050000Y-128680000D02*
X145415000Y-128045000D01*
%TO.N,ADC2_IN7*%
X147955000Y-109925685D02*
X147920000Y-109890685D01*
X147920000Y-109890685D02*
X147920000Y-109087500D01*
X147955000Y-116840000D02*
X147955000Y-109925685D01*
X151750000Y-134180000D02*
X148590000Y-131020000D01*
X146685000Y-124460000D02*
X146685000Y-118110000D01*
X146685000Y-118110000D02*
X147955000Y-116840000D01*
X148590000Y-131020000D02*
X148590000Y-126365000D01*
X148590000Y-126365000D02*
X146685000Y-124460000D01*
%TO.N,SPI5_SCK *%
X137410000Y-98675000D02*
X143007500Y-98675000D01*
X84895000Y-102393750D02*
X88228750Y-99060000D01*
X97155000Y-99060000D02*
X100965000Y-95250000D01*
X100965000Y-95250000D02*
X133985000Y-95250000D01*
X133985000Y-95250000D02*
X137410000Y-98675000D01*
X88228750Y-99060000D02*
X97155000Y-99060000D01*
%TO.N,SPI5_MISO*%
X136640000Y-99175000D02*
X143007500Y-99175000D01*
X87095000Y-105893750D02*
X92226250Y-105893750D01*
X92226250Y-105893750D02*
X101600000Y-96520000D01*
X84895000Y-108093750D02*
X87095000Y-105893750D01*
X133985000Y-96520000D02*
X136640000Y-99175000D01*
X101600000Y-96520000D02*
X133985000Y-96520000D01*
%TO.N,SPI5_MOSI*%
X142987500Y-99695000D02*
X143007500Y-99675000D01*
X135890000Y-99695000D02*
X142987500Y-99695000D01*
X104961250Y-97603750D02*
X133798750Y-97603750D01*
X92271250Y-110293750D02*
X104961250Y-97603750D01*
X133798750Y-97603750D02*
X135890000Y-99695000D01*
X84895000Y-113793750D02*
X88395000Y-110293750D01*
X88395000Y-110293750D02*
X92271250Y-110293750D01*
%TO.N,SPI5_CS  *%
X146681000Y-98175000D02*
X143007500Y-98175000D01*
X90395000Y-108093750D02*
X92566250Y-108093750D01*
X102471250Y-109456250D02*
X131843750Y-109456250D01*
X146812000Y-98044000D02*
X146681000Y-98175000D01*
X92566250Y-108093750D02*
X94615000Y-106045000D01*
X131843750Y-109456250D02*
X132080000Y-109220000D01*
X99060000Y-106045000D02*
X102471250Y-109456250D01*
%TO.N,SPI3_SCK*%
X147370000Y-53527500D02*
X145170000Y-55727500D01*
X161420000Y-84325463D02*
X161420000Y-87762500D01*
X145170000Y-55727500D02*
X145170000Y-67700000D01*
X145170000Y-67700000D02*
X158519537Y-81049537D01*
X158519537Y-81049537D02*
X158519537Y-81425000D01*
X158519537Y-81425000D02*
X161420000Y-84325463D01*
%TO.N,SPI3_MISO*%
X160920000Y-84461859D02*
X160920000Y-87762500D01*
X158333141Y-81875000D02*
X160920000Y-84461859D01*
X141670000Y-53527500D02*
X139470000Y-55727500D01*
X139470000Y-55727500D02*
X139470000Y-63587500D01*
X139470000Y-63587500D02*
X157757500Y-81875000D01*
X157757500Y-81875000D02*
X158333141Y-81875000D01*
%TO.N,SPI3_MOSI*%
X138684000Y-64230250D02*
X156778750Y-82325000D01*
X135970000Y-53527500D02*
X138684000Y-56241500D01*
X156778750Y-82325000D02*
X158146745Y-82325000D01*
X158146745Y-82325000D02*
X160420000Y-84598255D01*
X138684000Y-56241500D02*
X138684000Y-64230250D01*
X160420000Y-84598255D02*
X160420000Y-87762500D01*
%TO.N,SPI3_CS  *%
X154920000Y-89936000D02*
X154920000Y-87762500D01*
X141670000Y-63946000D02*
X143256000Y-65532000D01*
X141670000Y-59027500D02*
X141670000Y-63946000D01*
X153924000Y-90932000D02*
X154920000Y-89936000D01*
%TO.N,I2C1_SCL*%
X147420500Y-87762000D02*
X147420000Y-87762500D01*
X144780000Y-80772000D02*
X147420500Y-83412500D01*
X118420000Y-60066270D02*
X118364000Y-60122270D01*
X119445000Y-73481250D02*
X126735750Y-80772000D01*
X118364000Y-72400250D02*
X119445000Y-73481250D01*
X126735750Y-80772000D02*
X144780000Y-80772000D01*
X118364000Y-60122270D02*
X118364000Y-72400250D01*
X147420500Y-83412500D02*
X147420500Y-87762000D01*
X118420000Y-55855000D02*
X118420000Y-60066270D01*
X116220000Y-53655000D02*
X118420000Y-55855000D01*
%TO.N,I2C1_SDA*%
X146920000Y-85060500D02*
X146920000Y-87762500D01*
X127620000Y-53655000D02*
X130556000Y-56591000D01*
X142569250Y-73481250D02*
X146812000Y-77724000D01*
X140208000Y-73481250D02*
X142569250Y-73481250D01*
X146695500Y-84836000D02*
X146920000Y-85060500D01*
X130556000Y-72686000D02*
X131351250Y-73481250D01*
X130556000Y-56591000D02*
X130556000Y-72686000D01*
X131351250Y-73481250D02*
X140208000Y-73481250D01*
D55*
%TO.N,USB_OTG_FS_DP+*%
X211048000Y-84344000D02*
X210425000Y-84967000D01*
D56*
X164332500Y-91675000D02*
X165373000Y-91675000D01*
X165373000Y-91675000D02*
X165608000Y-91440000D01*
D55*
X210425000Y-84967000D02*
X190851840Y-84967000D01*
X190851840Y-84967000D02*
X184201303Y-91617537D01*
X165785537Y-91617537D02*
X165608000Y-91440000D01*
X184201303Y-91617537D02*
X165785537Y-91617537D01*
D53*
%TO.N,Net-(J8-Pin_2)*%
X197508500Y-70612000D02*
X197508500Y-63543646D01*
X197508500Y-70612000D02*
X197088750Y-70192250D01*
X197508500Y-63543646D02*
X196763052Y-62798198D01*
%TO.N,Net-(J8-Pin_4)*%
X192024000Y-65127500D02*
X192124000Y-65027500D01*
X192024000Y-65127500D02*
X192024000Y-64008000D01*
X196084500Y-59947500D02*
X197073750Y-59947500D01*
X192024000Y-64008000D02*
X196084500Y-59947500D01*
%TO.N,Net-(J8-Pin_6)*%
X194310000Y-57507500D02*
X194410000Y-57407500D01*
X194410000Y-57407500D02*
X197073750Y-57407500D01*
%TO.N,Net-(J8-Pin_10)*%
X197073750Y-52327500D02*
X194052500Y-52327500D01*
X194052500Y-52327500D02*
X192024000Y-54356000D01*
X192024000Y-57507500D02*
X192124000Y-57407500D01*
X192024000Y-54356000D02*
X192024000Y-57507500D01*
%TO.N,I2C2_SDA*%
X98782500Y-84097500D02*
X125730000Y-84097500D01*
X142204315Y-94175000D02*
X143007500Y-94175000D01*
X87450000Y-80645000D02*
X95330000Y-80645000D01*
X125730000Y-84097500D02*
X134977500Y-93345000D01*
X84895000Y-83200000D02*
X87450000Y-80645000D01*
X134977500Y-93345000D02*
X141374315Y-93345000D01*
X95330000Y-80645000D02*
X98782500Y-84097500D01*
X141374315Y-93345000D02*
X142204315Y-94175000D01*
%TO.N,I2C2_SCL*%
X98782500Y-94257500D02*
X99060000Y-93980000D01*
X95885000Y-97155000D02*
X98782500Y-94257500D01*
X87450000Y-97155000D02*
X95885000Y-97155000D01*
X98782500Y-94257500D02*
X98865000Y-94175000D01*
X141372919Y-93980000D02*
X142067919Y-94675000D01*
X142067919Y-94675000D02*
X143007500Y-94675000D01*
X99060000Y-93980000D02*
X141372919Y-93980000D01*
X84895000Y-94600000D02*
X87450000Y-97155000D01*
%TO.N,USART1_RX*%
X171958000Y-56909500D02*
X175340000Y-53527500D01*
X110363000Y-63128305D02*
X116322695Y-69088000D01*
X166624000Y-67310000D02*
X171958000Y-61976000D01*
X148420000Y-82212000D02*
X150876000Y-79756000D01*
X163068000Y-68580000D02*
X164338000Y-67310000D01*
X148420000Y-87762500D02*
X148420000Y-82212000D01*
X116322695Y-69088000D02*
X116332000Y-69088000D01*
X140208000Y-78232000D02*
X140425000Y-78449000D01*
X164338000Y-67310000D02*
X166624000Y-67310000D01*
X171958000Y-61976000D02*
X171958000Y-56909500D01*
X110363000Y-63070000D02*
X110363000Y-63128305D01*
X144657000Y-78449000D02*
X148420000Y-82212000D01*
X140425000Y-78449000D02*
X144657000Y-78449000D01*
%TO.N,USART1_TX*%
X166116000Y-69088000D02*
X179832000Y-69088000D01*
X109093000Y-53343249D02*
X112652249Y-49784000D01*
X117856000Y-49784000D02*
X119380000Y-51308000D01*
X128524000Y-79248000D02*
X143764000Y-79248000D01*
X179832000Y-69088000D02*
X183896000Y-65024000D01*
X148920000Y-87762500D02*
X148920000Y-86284000D01*
X112652249Y-49784000D02*
X117856000Y-49784000D01*
X183896000Y-56371500D02*
X186740000Y-53527500D01*
X119380000Y-70104000D02*
X128524000Y-79248000D01*
X119380000Y-51308000D02*
X119380000Y-70104000D01*
X109093000Y-53770000D02*
X109093000Y-53343249D01*
X143764000Y-79248000D02*
X144272000Y-79756000D01*
X148920000Y-86284000D02*
X149860000Y-85344000D01*
X183896000Y-65024000D02*
X183896000Y-56371500D01*
%TO.N,GP5*%
X86236500Y-54232500D02*
X99060000Y-67056000D01*
X70232500Y-54232500D02*
X86236500Y-54232500D01*
X105664000Y-60452000D02*
X106553000Y-61341000D01*
X106553000Y-61341000D02*
X106553000Y-63070000D01*
%TO.N,GP4*%
X85220500Y-56772500D02*
X96520000Y-68072000D01*
X107188000Y-66548000D02*
X107823000Y-65913000D01*
X70232500Y-56772500D02*
X85220500Y-56772500D01*
X107823000Y-65913000D02*
X107823000Y-63070000D01*
%TO.N,GP3*%
X83188500Y-59312500D02*
X92964000Y-69088000D01*
X109220000Y-63197000D02*
X109093000Y-63070000D01*
X70232500Y-59312500D02*
X83188500Y-59312500D01*
X109220000Y-67564000D02*
X109220000Y-63197000D01*
%TO.N,GP2*%
X106680000Y-53897000D02*
X106553000Y-53770000D01*
X70232500Y-66932500D02*
X82484750Y-66932500D01*
X82484750Y-66932500D02*
X82742250Y-66675000D01*
X106680000Y-58928000D02*
X106680000Y-53897000D01*
%TO.N,GP1*%
X105156000Y-53897000D02*
X105283000Y-53770000D01*
X70232500Y-64392500D02*
X81156500Y-64392500D01*
X82172500Y-64392500D02*
X82296000Y-64516000D01*
X105156000Y-57404000D02*
X105156000Y-53897000D01*
X81156500Y-64392500D02*
X82172500Y-64392500D01*
%TO.N,GP0*%
X70232500Y-61852500D02*
X81788000Y-61852500D01*
X104013000Y-55753000D02*
X104140000Y-55880000D01*
X83696500Y-61852500D02*
X83820000Y-61976000D01*
X104013000Y-53770000D02*
X104013000Y-55753000D01*
X81788000Y-61852500D02*
X83696500Y-61852500D01*
%TO.N,CTS*%
X106980305Y-59653000D02*
X107823000Y-58810305D01*
X84451500Y-69472500D02*
X84836000Y-69088000D01*
X104939000Y-59653000D02*
X106980305Y-59653000D01*
X70232500Y-69472500D02*
X84451500Y-69472500D01*
X99568000Y-60960000D02*
X103632000Y-60960000D01*
X107823000Y-58810305D02*
X107823000Y-53770000D01*
X103632000Y-60960000D02*
X104939000Y-59653000D01*
%TO.N,RTS*%
X111035000Y-62775000D02*
X111035000Y-54442000D01*
X70232500Y-72012500D02*
X84204500Y-72012500D01*
X111035000Y-54442000D02*
X110363000Y-53770000D01*
X112268000Y-64008000D02*
X111035000Y-62775000D01*
X84204500Y-72012500D02*
X84328000Y-72136000D01*
D55*
%TO.N,USB_OTG_FS_DP-*%
X211048000Y-86344000D02*
X210425000Y-85721000D01*
D56*
X164332500Y-92175000D02*
X165327000Y-92175000D01*
D55*
X191164160Y-85721000D02*
X184513623Y-92371537D01*
X184513623Y-92371537D02*
X165692463Y-92371537D01*
X165692463Y-92371537D02*
X165608000Y-92456000D01*
X210425000Y-85721000D02*
X191164160Y-85721000D01*
D56*
X165327000Y-92175000D02*
X165608000Y-92456000D01*
%TO.N,USB_DP+*%
X100100000Y-44046250D02*
X100100000Y-45696000D01*
X100203000Y-53770000D02*
X100203000Y-52451000D01*
X100100000Y-45696000D02*
X99822000Y-45974000D01*
D55*
X99822000Y-45974000D02*
X99822000Y-52070000D01*
D56*
X100203000Y-52451000D02*
X100076000Y-52324000D01*
D55*
X99822000Y-52070000D02*
X100076000Y-52324000D01*
D53*
%TO.N,HSE_OUT*%
X133627500Y-102235000D02*
X133693750Y-102168750D01*
X134643500Y-101600000D02*
X139192000Y-101600000D01*
X139192000Y-101600000D02*
X139617000Y-101175000D01*
X141555000Y-101175000D02*
X143007500Y-101175000D01*
X134008500Y-102235000D02*
X134643500Y-101600000D01*
X139617000Y-101175000D02*
X141555000Y-101175000D01*
%TO.N,SYS_JTMS-SWDIO*%
X162803000Y-89901315D02*
X162803000Y-91175000D01*
X195683500Y-70612000D02*
X181680799Y-84614701D01*
X166116000Y-86588315D02*
X162803000Y-89901315D01*
X162803000Y-91175000D02*
X164332500Y-91175000D01*
X167099299Y-84614701D02*
X166116000Y-85598000D01*
X181680799Y-84614701D02*
X167099299Y-84614701D01*
X166116000Y-85598000D02*
X166116000Y-86588315D01*
%TO.N,SYS_JTCLK-SWCLK*%
X163830000Y-83820000D02*
X162420000Y-85230000D01*
X162420000Y-85230000D02*
X162420000Y-87762500D01*
X192024000Y-66952500D02*
X175156500Y-83820000D01*
X175156500Y-83820000D02*
X165862000Y-83820000D01*
%TO.N,SYS_JTDO-SWO*%
X190246000Y-64516000D02*
X190246000Y-64779305D01*
X190246000Y-64779305D02*
X190246000Y-67056000D01*
X190246000Y-67056000D02*
X174752000Y-82550000D01*
X150876000Y-92456000D02*
X150420000Y-92000000D01*
X194310000Y-59332500D02*
X194310000Y-60452000D01*
X150420000Y-92000000D02*
X150420000Y-87762500D01*
X194310000Y-60452000D02*
X190246000Y-64516000D01*
X174752000Y-82550000D02*
X168148000Y-82550000D01*
%TO.N,Net-(U5-RST)*%
X104203500Y-68643500D02*
X104203500Y-71070000D01*
X102743000Y-63070000D02*
X102743000Y-67183000D01*
X102743000Y-67183000D02*
X104203500Y-68643500D01*
%TO.N,BOOT0*%
X199898000Y-48298000D02*
X199898000Y-41688200D01*
X205740000Y-63754000D02*
X205740000Y-54140000D01*
X184408299Y-85339701D02*
X167635701Y-85339701D01*
X205740000Y-54140000D02*
X199898000Y-48298000D01*
X148844000Y-93472000D02*
X147920000Y-92548000D01*
X147920000Y-92548000D02*
X147920000Y-87762500D01*
X203200000Y-66548000D02*
X184408299Y-85339701D01*
%TO.N,Net-(D1-K)*%
X134700000Y-85725000D02*
X134700000Y-83257500D01*
X134700000Y-83257500D02*
X134782500Y-83175000D01*
D52*
%TO.N,logging*%
X71585000Y-129885000D02*
X79545000Y-129885000D01*
D53*
X141110000Y-107175000D02*
X118400000Y-129885000D01*
X86360000Y-129885000D02*
X79545000Y-129885000D01*
X118400000Y-129885000D02*
X93980000Y-129885000D01*
X105410000Y-118455000D02*
X93980000Y-129885000D01*
X143007500Y-107175000D02*
X141110000Y-107175000D01*
X105410000Y-115847500D02*
X105410000Y-118455000D01*
X93980000Y-129885000D02*
X86360000Y-129885000D01*
X79545000Y-129370000D02*
X79545000Y-129885000D01*
X86360000Y-128725000D02*
X86360000Y-129885000D01*
D52*
X80010000Y-130350000D02*
X79545000Y-129885000D01*
D53*
%TO.N,CAN2_RX*%
X180291000Y-107175000D02*
X164332500Y-107175000D01*
X180405000Y-107061000D02*
X180291000Y-107175000D01*
%TO.N,CAN2_TX*%
X176604249Y-106675000D02*
X180028248Y-103251000D01*
X164332500Y-106675000D02*
X176604249Y-106675000D01*
X180028248Y-103251000D02*
X180405000Y-103251000D01*
%TO.N,MCU_GPIO10*%
X112315000Y-142320000D02*
X125095000Y-129540000D01*
X112315000Y-145085000D02*
X112315000Y-142320000D01*
X161603694Y-103826306D02*
X162755000Y-102675000D01*
X165135685Y-102675000D02*
X164332500Y-102675000D01*
X125095000Y-129540000D02*
X125730000Y-129540000D01*
X160025194Y-103826306D02*
X161603694Y-103826306D01*
X162755000Y-102675000D02*
X164332500Y-102675000D01*
%TO.N,MCU_GPIO9*%
X124765000Y-127635000D02*
X125730000Y-127635000D01*
X161519697Y-102900303D02*
X163245000Y-101175000D01*
X163245000Y-101175000D02*
X164332500Y-101175000D01*
X107315000Y-145085000D02*
X124765000Y-127635000D01*
X161308487Y-102900303D02*
X161519697Y-102900303D01*
%TO.N,MCU_GPIO8*%
X159474500Y-102324500D02*
X160957201Y-102324500D01*
X160957201Y-102324500D02*
X162606701Y-100675000D01*
X107950000Y-139700000D02*
X109220000Y-139700000D01*
X107700000Y-139700000D02*
X107950000Y-139700000D01*
X102315000Y-145085000D02*
X107700000Y-139700000D01*
X162606701Y-100675000D02*
X164332500Y-100675000D01*
%TO.N,MCU_GPIO7*%
X161045305Y-101600000D02*
X162470305Y-100175000D01*
X160655000Y-101600000D02*
X161045305Y-101600000D01*
X105410000Y-137160000D02*
X108585000Y-137160000D01*
X97315000Y-145085000D02*
X105240000Y-137160000D01*
X162470305Y-100175000D02*
X164332500Y-100175000D01*
X105240000Y-137160000D02*
X105410000Y-137160000D01*
%TO.N,MCU_GPIO6*%
X102235000Y-135255000D02*
X102870000Y-134620000D01*
X94030000Y-143460000D02*
X102235000Y-135255000D01*
X161290000Y-100330000D02*
X161945000Y-99675000D01*
X93940000Y-143460000D02*
X94030000Y-143460000D01*
X102870000Y-134620000D02*
X109220000Y-134620000D01*
X161945000Y-99675000D02*
X164332500Y-99675000D01*
X92315000Y-145085000D02*
X93940000Y-143460000D01*
%TO.N,MCU_GPIO5*%
X180340000Y-120650000D02*
X171450000Y-111760000D01*
X161925000Y-104556500D02*
X161874500Y-104506000D01*
X158750000Y-101600000D02*
X161175000Y-99175000D01*
X161175000Y-99175000D02*
X164332500Y-99175000D01*
X161874500Y-104506000D02*
X159751000Y-104506000D01*
X199390000Y-144780000D02*
X191770000Y-137160000D01*
X201295000Y-144780000D02*
X199390000Y-144780000D01*
X191770000Y-137160000D02*
X180975000Y-137160000D01*
X159751000Y-104506000D02*
X158750000Y-103505000D01*
X180975000Y-137160000D02*
X180340000Y-136525000D01*
X180340000Y-136525000D02*
X180340000Y-120650000D01*
X158750000Y-103505000D02*
X158750000Y-101600000D01*
%TO.N,MCU_GPIO4*%
X160020000Y-105231000D02*
X159206000Y-105231000D01*
X196295000Y-144780000D02*
X194945000Y-144780000D01*
X179324000Y-120904000D02*
X168910000Y-110490000D01*
X194945000Y-144780000D02*
X188341000Y-138176000D01*
X158115000Y-104140000D02*
X158115000Y-100965000D01*
X180721000Y-138176000D02*
X179324000Y-136779000D01*
X158115000Y-100965000D02*
X160405000Y-98675000D01*
X179324000Y-136779000D02*
X179324000Y-120904000D01*
X159206000Y-105231000D02*
X158115000Y-104140000D01*
X188341000Y-138176000D02*
X180721000Y-138176000D01*
X160405000Y-98675000D02*
X164332500Y-98675000D01*
%TO.N,MCU_GPIO3*%
X191295000Y-144780000D02*
X189230000Y-144780000D01*
X180340000Y-139192000D02*
X178435000Y-137287000D01*
X157480000Y-100330000D02*
X159635000Y-98175000D01*
X158750000Y-105955500D02*
X157480000Y-104685500D01*
X178435000Y-121285000D02*
X167005000Y-109855000D01*
X183642000Y-139192000D02*
X180340000Y-139192000D01*
X189230000Y-144780000D02*
X183642000Y-139192000D01*
X159635000Y-98175000D02*
X164332500Y-98175000D01*
X178435000Y-137287000D02*
X178435000Y-121285000D01*
X157480000Y-104685500D02*
X157480000Y-100330000D01*
%TO.N,MCU_GPIO2*%
X157480000Y-106680000D02*
X156845000Y-106045000D01*
X179324000Y-140208000D02*
X177292000Y-138176000D01*
X181723000Y-140208000D02*
X179324000Y-140208000D01*
X162256739Y-106680000D02*
X157480000Y-106680000D01*
X159183198Y-97675000D02*
X164332500Y-97675000D01*
X156845000Y-100013198D02*
X159183198Y-97675000D01*
X177292000Y-121715261D02*
X162256739Y-106680000D01*
X156845000Y-106045000D02*
X156845000Y-100013198D01*
X177292000Y-138176000D02*
X177292000Y-121715261D01*
X186295000Y-144780000D02*
X181723000Y-140208000D01*
%TO.N,MCU_GPIO1*%
X181295000Y-144780000D02*
X181295000Y-143830000D01*
X162895000Y-108259315D02*
X161950685Y-107315000D01*
X181295000Y-144780000D02*
X181295000Y-144465000D01*
X158730000Y-97175000D02*
X164332500Y-97175000D01*
X156845000Y-107315000D02*
X156210000Y-106680000D01*
X156210000Y-99695000D02*
X158730000Y-97175000D01*
X162895000Y-108437329D02*
X162895000Y-108259315D01*
X156210000Y-106680000D02*
X156210000Y-99695000D01*
X181295000Y-144465000D02*
X176276000Y-139446000D01*
X176276000Y-139446000D02*
X176276000Y-121818329D01*
X161950685Y-107315000D02*
X156845000Y-107315000D01*
X176276000Y-121818329D02*
X162895000Y-108437329D01*
%TO.N,CAN1_RX*%
X165006250Y-86479435D02*
X165006250Y-80837500D01*
X162660685Y-88825000D02*
X165006250Y-86479435D01*
X159920000Y-88565685D02*
X160179315Y-88825000D01*
X160179315Y-88825000D02*
X162660685Y-88825000D01*
X159920000Y-87762500D02*
X159920000Y-88565685D01*
%TO.N,CAN1_TX*%
X159420000Y-87762500D02*
X159420000Y-90332000D01*
X160020000Y-78232000D02*
X161196250Y-79408250D01*
X161196250Y-79408250D02*
X161196250Y-80837500D01*
X159420000Y-90332000D02*
X159512000Y-90424000D01*
%TO.N,CAN SIlent Mode 2*%
X176334249Y-105675000D02*
X179393249Y-102616000D01*
X179393249Y-102616000D02*
X184720000Y-102616000D01*
X164332500Y-105675000D02*
X176334249Y-105675000D01*
X184720000Y-102616000D02*
X185355000Y-103251000D01*
%TO.N,CAN SIlent Mode 1*%
X159004000Y-80264000D02*
X159004000Y-76581000D01*
X159697500Y-75887500D02*
X161196250Y-75887500D01*
X157988000Y-89408000D02*
X158077685Y-89408000D01*
X158077685Y-89408000D02*
X158920000Y-88565685D01*
X159004000Y-76581000D02*
X159697500Y-75887500D01*
X158920000Y-88565685D02*
X158920000Y-87762500D01*
D55*
%TO.N,USB_DP-*%
X100900000Y-51624000D02*
X101600000Y-52324000D01*
X100900000Y-46036000D02*
X100900000Y-51624000D01*
D56*
X101473000Y-53770000D02*
X101473000Y-52451000D01*
X100900000Y-44046250D02*
X100900000Y-46036000D01*
X101473000Y-52451000D02*
X101600000Y-52324000D01*
D52*
%TO.N,CAN1-*%
X161355000Y-56736250D02*
X161355000Y-53561250D01*
X163736250Y-74424999D02*
X163501250Y-74189999D01*
X164013750Y-72743751D02*
X164013750Y-72012500D01*
X159030000Y-58098203D02*
X160391953Y-56736250D01*
X163501250Y-70768749D02*
X163501250Y-70215332D01*
X163501250Y-70215332D02*
X159030000Y-65744082D01*
X163501250Y-74189999D02*
X163501250Y-73256251D01*
X164013750Y-71281249D02*
X163501250Y-70768749D01*
X163501250Y-73256251D02*
X164013750Y-72743751D01*
X159030000Y-65744082D02*
X159030000Y-58098203D01*
X164013750Y-72012500D02*
X164013750Y-71281249D01*
X163736250Y-75887500D02*
X163736250Y-74424999D01*
D53*
X163736250Y-72290000D02*
X164013750Y-72012500D01*
D52*
X160391953Y-56736250D02*
X161355000Y-56736250D01*
%TO.N,CAN2+*%
X190500000Y-104751500D02*
X189768749Y-104751500D01*
X189256249Y-105264000D02*
X186651528Y-105264000D01*
X191463879Y-104481250D02*
X191193629Y-104751500D01*
X201282499Y-102031250D02*
X200920000Y-102393749D01*
X186651528Y-105264000D02*
X186428528Y-105041000D01*
X204095000Y-102031250D02*
X201282499Y-102031250D01*
X199433047Y-104481250D02*
X191463879Y-104481250D01*
X189768749Y-104751500D02*
X189256249Y-105264000D01*
X200920000Y-102994297D02*
X199433047Y-104481250D01*
X191193629Y-104751500D02*
X190500000Y-104751500D01*
X200920000Y-102393749D02*
X200920000Y-102994297D01*
D56*
X185585500Y-104751500D02*
X185355000Y-104521000D01*
D52*
X185875000Y-105041000D02*
X185355000Y-104521000D01*
X186428528Y-105041000D02*
X185875000Y-105041000D01*
%TO.N,CAN1+*%
X162188750Y-72743751D02*
X162188750Y-72012500D01*
X158230020Y-57766841D02*
X159045305Y-56951555D01*
X158230020Y-66075444D02*
X158230020Y-57766841D01*
D53*
X162466250Y-72290000D02*
X162188750Y-72012500D01*
D52*
X162466250Y-74424999D02*
X162701250Y-74189999D01*
X159045305Y-56951555D02*
X155655000Y-53561250D01*
X162701250Y-73256251D02*
X162188750Y-72743751D01*
X162188750Y-71281249D02*
X162701250Y-70768749D01*
X162188750Y-72012500D02*
X162188750Y-71281249D01*
X162701250Y-74189999D02*
X162701250Y-73256251D01*
X162466250Y-75887500D02*
X162466250Y-74424999D01*
X162701250Y-70768749D02*
X162701250Y-70546674D01*
X162701250Y-70546674D02*
X158230020Y-66075444D01*
%TO.N,CAN2-*%
X189256249Y-106064000D02*
X185766629Y-106064000D01*
X199433047Y-105281250D02*
X191795250Y-105281250D01*
X191795250Y-105281250D02*
X190500000Y-106576500D01*
X204095000Y-107731250D02*
X201282499Y-107731250D01*
X185766629Y-106064000D02*
X185493629Y-105791000D01*
X200920000Y-107368751D02*
X200920000Y-106768203D01*
X201282499Y-107731250D02*
X200920000Y-107368751D01*
X200920000Y-106768203D02*
X199433047Y-105281250D01*
X185493629Y-105791000D02*
X185355000Y-105791000D01*
X189768749Y-106576500D02*
X189256249Y-106064000D01*
X190500000Y-106576500D02*
X189768749Y-106576500D01*
D53*
%TO.N,Net-(D1-A)*%
X137150000Y-83175000D02*
X143007500Y-89032500D01*
X143007500Y-89032500D02*
X143007500Y-89675000D01*
X136532500Y-83175000D02*
X137150000Y-83175000D01*
%TO.N,Net-(U1-VCAP_2)*%
X174852500Y-88900000D02*
X173077500Y-90675000D01*
X173077500Y-90675000D02*
X164332500Y-90675000D01*
%TO.N,Net-(U1-VCAP_1)*%
X160882500Y-111125000D02*
X161920000Y-110087500D01*
X161920000Y-110087500D02*
X161920000Y-109087500D01*
%TD*%
M02*
