%TF.GenerationSoftware,KiCad,Pcbnew,7.0.7*%
%TF.CreationDate,2024-01-22T16:42:18-06:00*%
%TF.ProjectId,stm32f429z,73746d33-3266-4343-9239-7a2e6b696361,rev?*%
%TF.SameCoordinates,Original*%
%TF.FileFunction,Legend,Bot*%
%TF.FilePolarity,Positive*%
%FSLAX46Y46*%
G04 Gerber Fmt 4.6, Leading zero omitted, Abs format (unit mm)*
G04 Created by KiCad (PCBNEW 7.0.7) date 2024-01-22 16:42:18*
%MOMM*%
%LPD*%
G01*
G04 APERTURE LIST*
%ADD10C,0.150000*%
G04 APERTURE END LIST*
D10*
X89817506Y-46311438D02*
X90960363Y-46311438D01*
X90388935Y-46311438D02*
X90388935Y-44311438D01*
X90388935Y-44311438D02*
X90579411Y-44597152D01*
X90579411Y-44597152D02*
X90769887Y-44787628D01*
X90769887Y-44787628D02*
X90960363Y-44882866D01*
X87531792Y-44216200D02*
X89246077Y-46787628D01*
X85817506Y-46311438D02*
X86960363Y-46311438D01*
X86388935Y-46311438D02*
X86388935Y-44311438D01*
X86388935Y-44311438D02*
X86579411Y-44597152D01*
X86579411Y-44597152D02*
X86769887Y-44787628D01*
X86769887Y-44787628D02*
X86960363Y-44882866D01*
X84865125Y-46311438D02*
X84484173Y-46311438D01*
X84484173Y-46311438D02*
X84293696Y-46216200D01*
X84293696Y-46216200D02*
X84198458Y-46120961D01*
X84198458Y-46120961D02*
X84007982Y-45835247D01*
X84007982Y-45835247D02*
X83912744Y-45454295D01*
X83912744Y-45454295D02*
X83912744Y-44692390D01*
X83912744Y-44692390D02*
X84007982Y-44501914D01*
X84007982Y-44501914D02*
X84103220Y-44406676D01*
X84103220Y-44406676D02*
X84293696Y-44311438D01*
X84293696Y-44311438D02*
X84674649Y-44311438D01*
X84674649Y-44311438D02*
X84865125Y-44406676D01*
X84865125Y-44406676D02*
X84960363Y-44501914D01*
X84960363Y-44501914D02*
X85055601Y-44692390D01*
X85055601Y-44692390D02*
X85055601Y-45168580D01*
X85055601Y-45168580D02*
X84960363Y-45359057D01*
X84960363Y-45359057D02*
X84865125Y-45454295D01*
X84865125Y-45454295D02*
X84674649Y-45549533D01*
X84674649Y-45549533D02*
X84293696Y-45549533D01*
X84293696Y-45549533D02*
X84103220Y-45454295D01*
X84103220Y-45454295D02*
X84007982Y-45359057D01*
X84007982Y-45359057D02*
X83912744Y-45168580D01*
X91150839Y-47531438D02*
X90484173Y-49531438D01*
X90484173Y-49531438D02*
X89817506Y-47531438D01*
X88103220Y-49531438D02*
X89246077Y-49531438D01*
X88674649Y-49531438D02*
X88674649Y-47531438D01*
X88674649Y-47531438D02*
X88865125Y-47817152D01*
X88865125Y-47817152D02*
X89055601Y-48007628D01*
X89055601Y-48007628D02*
X89246077Y-48102866D01*
M02*
