M48
; DRILL file {KiCad 7.0.7} date Wed Feb  7 15:25:23 2024
; FORMAT={-:-/ absolute / inch / decimal}
; #@! TF.CreationDate,2024-02-07T15:25:23-06:00
; #@! TF.GenerationSoftware,Kicad,Pcbnew,7.0.7
; #@! TF.FileFunction,Plated,1,4,PTH
FMAT,2
INCH
; #@! TA.AperFunction,Plated,PTH,ViaDrill
T1C0.0157
; #@! TA.AperFunction,Plated,PTH,ComponentDrill
T2C0.0157
; #@! TA.AperFunction,Plated,PTH,ComponentDrill
T3C0.0236
; #@! TA.AperFunction,Plated,PTH,ComponentDrill
T4C0.0362
; #@! TA.AperFunction,Plated,PTH,ComponentDrill
T5C0.0394
; #@! TA.AperFunction,Plated,PTH,ComponentDrill
T6C0.0512
; #@! TA.AperFunction,Plated,PTH,ComponentDrill
T7C0.0709
; #@! TA.AperFunction,Plated,PTH,ComponentDrill
T8C0.0906
; #@! TA.AperFunction,Plated,PTH,ComponentDrill
T9C0.1693
%
G90
G05
T1
X2.7146Y-2.0173
X2.7256Y-5.3681
X2.8075Y-2.0173
X2.8079Y-5.3665
X2.8988Y-2.0146
X2.9012Y-5.3673
X2.9776Y-2.0146
X2.9878Y-5.3677
X3.072Y-2.0138
X3.0791Y-5.3681
X3.1654Y-2.013
X3.1697Y-5.3693
X3.24Y-2.54
X3.2512Y-5.3681
X3.2576Y-2.625
X3.2626Y-1.85
X3.2638Y-1.7594
X3.2638Y-1.9315
X3.2642Y-1.6681
X3.2646Y-1.5815
X3.2646Y-2.011
X3.2654Y-1.4882
X3.3Y-2.44
X3.32Y-2.84
X3.3307Y-5.3673
X3.3327Y-5.4665
X3.3335Y-5.5598
X3.3343Y-5.6543
X3.3343Y-5.7331
X3.337Y-5.8244
X3.337Y-5.9173
X3.34Y-2.72
X3.44Y-4.12
X3.46Y-3.34
X3.46Y-4.6
X3.48Y-3.62
X3.48Y-3.96
X3.56Y-4.64
X3.5606Y-3.6142
X3.6Y-3.38
X3.624Y-3.6201
X3.64Y-4.58
X3.66Y-1.52
X3.66Y-2.72
X3.68Y-1.74
X3.68Y-3.24
X3.68Y-4.02
X3.725Y-4.175
X3.73Y-2.23
X3.75Y-2.35
X3.8Y-2.68
X3.88Y-3.0
X3.9Y-2.64
X3.9Y-3.175
X3.9Y-3.575
X3.9Y-4.175
X3.92Y-2.4
X4.0Y-4.5
X4.04Y-1.7
X4.04Y-2.36
X4.04Y-2.74
X4.1Y-2.2
X4.1Y-2.92
X4.14Y-2.26
X4.15Y-4.425
X4.16Y-2.38
X4.2Y-1.48
X4.2Y-2.32
X4.2Y-3.0
X4.22Y-2.62
X4.275Y-5.4
X4.28Y-1.5
X4.3Y-2.66
X4.3Y-5.3
X4.3Y-5.5
X4.42Y-2.52
X4.5Y-2.44
X4.56Y-2.48
X4.58Y-2.72
X4.62Y-2.44
X4.7Y-3.06
X4.84Y-4.0
X4.95Y-5.025
X4.95Y-5.1
X4.96Y-2.46
X5.02Y-2.48
X5.02Y-5.62
X5.08Y-2.46
X5.16Y-3.04
X5.2Y-4.3
X5.3Y-2.44
X5.32Y-3.56
X5.32Y-4.32
X5.32Y-5.64
X5.36Y-2.48
X5.38Y-3.74
X5.42Y-2.44
X5.44Y-4.88
X5.45Y-3.425
X5.46Y-3.56
X5.46Y-3.8563
X5.48Y-4.22
X5.5Y-4.05
X5.52Y-3.08
X5.52Y-4.88
X5.55Y-4.5
X5.56Y-3.3
X5.58Y-4.86
X5.6Y-3.38
X5.64Y-2.58
X5.675Y-4.55
X5.68Y-3.14
X5.76Y-2.46
X5.7754Y-3.34
X5.78Y-3.06
X5.78Y-3.86
X5.82Y-2.5
X5.86Y-2.46
X5.86Y-3.68
X5.9Y-3.36
X5.92Y-3.22
X5.94Y-3.14
X5.94Y-3.64
X5.96Y-4.94
X5.975Y-4.55
X5.9838Y-3.5226
X6.04Y-3.26
X6.06Y-3.58
X6.075Y-4.5
X6.08Y-2.44
X6.08Y-5.18
X6.1Y-3.325
X6.1Y-5.06
X6.12Y-2.48
X6.125Y-4.55
X6.18Y-2.44
X6.18Y-4.98
X6.22Y-3.34
X6.22Y-3.52
X6.25Y-4.1715
X6.25Y-4.475
X6.26Y-3.16
X6.26Y-3.74
X6.2785Y-4.0285
X6.28Y-3.56
X6.3Y-3.08
X6.3Y-4.143
X6.3002Y-4.0876
X6.325Y-4.0
X6.325Y-4.55
X6.34Y-5.18
X6.35Y-3.95
X6.3507Y-4.0512
X6.375Y-4.1164
X6.4Y-3.12
X6.42Y-2.7
X6.45Y-3.3
X6.45Y-4.475
X6.52Y-2.44
X6.53Y-3.3
X6.54Y-2.72
X6.575Y-4.325
X6.58Y-2.48
X6.5998Y-3.3598
X6.62Y-3.25
X6.63Y-3.92
X6.64Y-2.44
X6.65Y-4.35
X6.69Y-4.07
X6.7Y-3.72
X6.71Y-3.42
X6.72Y-3.88
X6.725Y-3.525
X6.75Y-4.4
X6.78Y-2.5
X6.82Y-5.16
X6.86Y-2.44
X6.86Y-4.98
X6.86Y-5.06
X6.92Y-2.48
X6.96Y-2.44
X7.14Y-5.16
X7.18Y-4.12
X7.18Y-4.58
X7.2Y-5.02
X7.2Y-5.3
X7.26Y-2.74
X7.3Y-2.42
X7.32Y-4.58
X7.34Y-2.46
X7.4Y-2.42
X7.567Y-1.683
X7.57Y-1.97
X7.66Y-4.56
X7.68Y-4.46
X7.7Y-4.4
X7.76Y-3.92
X7.78Y-3.82
X7.8Y-4.66
X7.8Y-5.18
X7.92Y-3.92
X7.96Y-2.26
X7.96Y-2.35
X7.98Y-3.82
X8.0Y-2.62
X8.0343Y-1.6461
X8.08Y-3.14
X8.1Y-2.51
X8.1Y-3.5
X8.1146Y-5.824
X8.1154Y-5.3012
X8.1154Y-5.7307
X8.1157Y-5.6441
X8.1161Y-5.3807
X8.1161Y-5.5528
X8.1161Y-5.9063
X8.1173Y-5.4622
X8.1205Y-1.5189
X8.1205Y-1.6118
X8.1232Y-1.7031
X8.1232Y-1.7819
X8.124Y-1.8764
X8.1248Y-1.9697
X8.1268Y-2.0689
X8.17Y-2.58
X8.18Y-3.7
X8.18Y-3.82
X8.2063Y-2.0681
X8.2146Y-5.2992
X8.2878Y-2.0669
X8.3079Y-5.2984
X8.3783Y-2.0681
X8.4024Y-5.2976
X8.4697Y-2.0685
X8.4811Y-5.2976
X8.5Y-4.68
X8.5Y-5.15
X8.5071Y-3.4953
X8.5563Y-2.0689
X8.5724Y-5.2949
X8.62Y-4.68
X8.625Y-5.15
X8.6496Y-2.0697
X8.6654Y-5.2949
T2
X8.4577Y-4.8041
X8.4577Y-4.8376
X8.4577Y-4.8711
X8.4577Y-4.9045
X8.4577Y-4.938
X8.4577Y-4.9715
X8.4577Y-5.0049
X8.4577Y-5.0384
X8.5108Y-4.8041
X8.5108Y-4.8376
X8.5108Y-4.8711
X8.5108Y-4.9045
X8.5108Y-4.938
X8.5108Y-4.9715
X8.5108Y-5.0049
X8.5108Y-5.0384
T3
X2.9006Y-1.7914
X2.9006Y-5.5914
X2.9378Y-1.7016
X2.9378Y-1.8812
X2.9378Y-5.5016
X2.9378Y-5.6812
X3.0276Y-1.6644
X3.0276Y-1.9184
X3.0276Y-5.4644
X3.0276Y-5.7184
X3.1173Y-1.7016
X3.1173Y-1.8812
X3.1173Y-5.5016
X3.1173Y-5.6812
X3.1545Y-1.7914
X3.1545Y-5.5914
X8.2256Y-1.7914
X8.2256Y-5.5914
X8.2628Y-1.7016
X8.2628Y-1.8812
X8.2628Y-5.5016
X8.2628Y-5.6812
X8.3526Y-1.6644
X8.3526Y-1.9184
X8.3526Y-5.4644
X8.3526Y-5.7184
X8.4423Y-1.7016
X8.4423Y-1.8812
X8.4423Y-5.5016
X8.4423Y-5.6812
X8.4795Y-1.7914
X8.4795Y-5.5914
T4
X8.309Y-3.2222
X8.309Y-3.3206
X8.309Y-3.3994
X8.309Y-3.4978
X8.4121Y-3.2222
X8.4121Y-3.3206
X8.4121Y-3.3994
X8.4121Y-3.4978
T5
X2.7651Y-2.1351
X2.7651Y-2.2351
X2.7651Y-2.3351
X2.7651Y-2.4351
X2.7651Y-2.5351
X2.7651Y-2.6351
X2.7651Y-2.7351
X2.7651Y-2.8351
X7.7588Y-2.0601
X7.7588Y-2.1601
X7.7588Y-2.2601
X7.7588Y-2.3601
X7.7588Y-2.4601
X7.8588Y-2.0601
X7.8588Y-2.1601
X7.8588Y-2.2601
X7.8588Y-2.3601
X7.8588Y-2.4601
T6
X3.6344Y-5.712
X3.8313Y-5.712
X4.0281Y-5.712
X4.225Y-5.712
X4.4219Y-5.712
X7.1376Y-5.7
X7.3344Y-5.7
X7.5313Y-5.7
X7.7281Y-5.7
X7.925Y-5.7
T7
X3.3423Y-3.2756
X3.3423Y-3.5
X3.3423Y-3.7244
X3.3423Y-4.0312
X3.3423Y-4.2557
X3.3423Y-4.4801
X3.5589Y-3.2756
X3.5589Y-3.5
X3.5589Y-3.7244
X3.5589Y-4.0312
X3.5589Y-4.2557
X3.5589Y-4.4801
X4.5756Y-2.1124
X4.5756Y-2.3289
X4.8Y-2.1124
X4.8Y-2.3289
X5.0244Y-2.1124
X5.0244Y-2.3289
X5.3531Y-2.1074
X5.3531Y-2.3239
X5.5256Y-5.0661
X5.5256Y-5.2827
X5.5776Y-2.1074
X5.5776Y-2.3239
X5.75Y-5.0661
X5.75Y-5.2827
X5.802Y-2.1074
X5.802Y-2.3239
X5.9744Y-5.0661
X5.9744Y-5.2827
X6.1281Y-2.1087
X6.1281Y-2.3252
X6.2756Y-5.0661
X6.2756Y-5.2827
X6.3526Y-2.1087
X6.3526Y-2.3252
X6.5Y-5.0661
X6.5Y-5.2827
X6.577Y-2.1087
X6.577Y-2.3252
X6.7244Y-5.0661
X6.7244Y-5.2827
X6.9031Y-2.1074
X6.9031Y-2.3239
X7.1276Y-2.1074
X7.1276Y-2.3239
X7.352Y-2.1074
X7.352Y-2.3239
X7.8187Y-4.017
X7.8187Y-4.2414
X7.8187Y-4.4658
X8.0352Y-4.017
X8.0352Y-4.2414
X8.0352Y-4.4658
T8
X8.2952Y-3.1013
X8.2952Y-3.6187
X8.5188Y-3.1013
X8.5188Y-3.6187
T9
X3.0276Y-1.7914
X3.0276Y-5.5914
X8.3526Y-1.7914
X8.3526Y-5.5914
T3
G00X8.4667Y-4.751
M15
G01X8.5258Y-4.751
M16
G05
G00X8.4667Y-5.0915
M15
G01X8.5258Y-5.0915
M16
G05
G00X8.6136Y-4.751
M15
G01X8.6451Y-4.751
M16
G05
G00X8.6136Y-5.0915
M15
G01X8.6451Y-5.0915
M16
G05
T0
M30
