%TF.GenerationSoftware,KiCad,Pcbnew,7.0.7*%
%TF.CreationDate,2024-02-07T15:25:18-06:00*%
%TF.ProjectId,stm32f429z,73746d33-3266-4343-9239-7a2e6b696361,rev?*%
%TF.SameCoordinates,Original*%
%TF.FileFunction,Soldermask,Top*%
%TF.FilePolarity,Negative*%
%FSLAX46Y46*%
G04 Gerber Fmt 4.6, Leading zero omitted, Abs format (unit mm)*
G04 Created by KiCad (PCBNEW 7.0.7) date 2024-02-07 15:25:18*
%MOMM*%
%LPD*%
G01*
G04 APERTURE LIST*
G04 Aperture macros list*
%AMRoundRect*
0 Rectangle with rounded corners*
0 $1 Rounding radius*
0 $2 $3 $4 $5 $6 $7 $8 $9 X,Y pos of 4 corners*
0 Add a 4 corners polygon primitive as box body*
4,1,4,$2,$3,$4,$5,$6,$7,$8,$9,$2,$3,0*
0 Add four circle primitives for the rounded corners*
1,1,$1+$1,$2,$3*
1,1,$1+$1,$4,$5*
1,1,$1+$1,$6,$7*
1,1,$1+$1,$8,$9*
0 Add four rect primitives between the rounded corners*
20,1,$1+$1,$2,$3,$4,$5,0*
20,1,$1+$1,$4,$5,$6,$7,0*
20,1,$1+$1,$6,$7,$8,$9,0*
20,1,$1+$1,$8,$9,$2,$3,0*%
%AMOutline4P*
0 Free polygon, 4 corners , with rotation*
0 The origin of the aperture is its center*
0 number of corners: always 4*
0 $1 to $8 corner X, Y*
0 $9 Rotation angle, in degrees counterclockwise*
0 create outline with 4 corners*
4,1,4,$1,$2,$3,$4,$5,$6,$7,$8,$1,$2,$9*%
G04 Aperture macros list end*
%ADD10R,1.500000X1.500000*%
%ADD11C,1.500000*%
%ADD12C,3.000000*%
%ADD13R,2.000000X1.500000*%
%ADD14R,2.000000X3.800000*%
%ADD15RoundRect,0.237500X-0.237500X0.250000X-0.237500X-0.250000X0.237500X-0.250000X0.237500X0.250000X0*%
%ADD16R,3.750000X3.750000*%
%ADD17C,3.750000*%
%ADD18RoundRect,0.237500X0.237500X-0.250000X0.237500X0.250000X-0.237500X0.250000X-0.237500X-0.250000X0*%
%ADD19RoundRect,0.237500X0.300000X0.237500X-0.300000X0.237500X-0.300000X-0.237500X0.300000X-0.237500X0*%
%ADD20Outline4P,-1.800000X-1.150000X1.800000X-0.550000X1.800000X0.550000X-1.800000X1.150000X0.000000*%
%ADD21Outline4P,-1.800000X-1.150000X1.800000X-0.550000X1.800000X0.550000X-1.800000X1.150000X180.000000*%
%ADD22R,1.700000X1.700000*%
%ADD23O,1.700000X1.700000*%
%ADD24R,2.600000X2.600000*%
%ADD25C,2.600000*%
%ADD26RoundRect,0.237500X-0.237500X0.300000X-0.237500X-0.300000X0.237500X-0.300000X0.237500X0.300000X0*%
%ADD27RoundRect,0.237500X-0.287500X-0.237500X0.287500X-0.237500X0.287500X0.237500X-0.287500X0.237500X0*%
%ADD28RoundRect,0.237500X0.237500X-0.287500X0.237500X0.287500X-0.237500X0.287500X-0.237500X-0.287500X0*%
%ADD29C,0.900000*%
%ADD30R,1.250000X2.500000*%
%ADD31R,1.550000X1.300000*%
%ADD32RoundRect,0.237500X-0.300000X-0.237500X0.300000X-0.237500X0.300000X0.237500X-0.300000X0.237500X0*%
%ADD33RoundRect,0.237500X0.237500X-0.300000X0.237500X0.300000X-0.237500X0.300000X-0.237500X-0.300000X0*%
%ADD34RoundRect,0.237500X0.250000X0.237500X-0.250000X0.237500X-0.250000X-0.237500X0.250000X-0.237500X0*%
%ADD35RoundRect,0.075000X-0.662500X-0.075000X0.662500X-0.075000X0.662500X0.075000X-0.662500X0.075000X0*%
%ADD36RoundRect,0.075000X-0.075000X-0.662500X0.075000X-0.662500X0.075000X0.662500X-0.075000X0.662500X0*%
%ADD37RoundRect,0.237500X-0.250000X-0.237500X0.250000X-0.237500X0.250000X0.237500X-0.250000X0.237500X0*%
%ADD38R,1.800000X2.100000*%
%ADD39Outline4P,-1.800000X-1.150000X1.800000X-0.550000X1.800000X0.550000X-1.800000X1.150000X270.000000*%
%ADD40Outline4P,-1.800000X-1.150000X1.800000X-0.550000X1.800000X0.550000X-1.800000X1.150000X90.000000*%
%ADD41C,0.700000*%
%ADD42O,2.400000X0.900000*%
%ADD43O,1.700000X0.900000*%
%ADD44RoundRect,0.150000X0.150000X-0.875000X0.150000X0.875000X-0.150000X0.875000X-0.150000X-0.875000X0*%
%ADD45R,2.100000X1.800000*%
%ADD46RoundRect,0.150000X-0.825000X-0.150000X0.825000X-0.150000X0.825000X0.150000X-0.825000X0.150000X0*%
%ADD47C,8.600000*%
%ADD48R,0.500000X2.500000*%
%ADD49R,2.000000X2.500000*%
%ADD50RoundRect,0.150000X0.150000X-0.825000X0.150000X0.825000X-0.150000X0.825000X-0.150000X-0.825000X0*%
G04 APERTURE END LIST*
D10*
%TO.C,J6*%
X211048000Y-88844000D03*
D11*
X211048000Y-86344000D03*
X211048000Y-84344000D03*
X211048000Y-81844000D03*
X213668000Y-88844000D03*
X213668000Y-86344000D03*
X213668000Y-84344000D03*
X213668000Y-81844000D03*
D12*
X210698000Y-91914000D03*
X216378000Y-91914000D03*
X210698000Y-78774000D03*
X216378000Y-78774000D03*
%TD*%
D13*
%TO.C,U6*%
X187707500Y-126068750D03*
X187707500Y-128368750D03*
D14*
X194007500Y-128368750D03*
D13*
X187707500Y-130668750D03*
%TD*%
D15*
%TO.C,R5*%
X192024000Y-57507500D03*
X192024000Y-59332500D03*
%TD*%
D12*
%TO.C,J1*%
X170800000Y-141480000D03*
X159400000Y-141480000D03*
D16*
X170800000Y-134180000D03*
D17*
X165100000Y-134180000D03*
X159400000Y-134180000D03*
X170800000Y-128680000D03*
X165100000Y-128680000D03*
X159400000Y-128680000D03*
%TD*%
D18*
%TO.C,R14*%
X108966000Y-75276250D03*
X108966000Y-73451250D03*
%TD*%
D19*
%TO.C,C29*%
X174852500Y-88900000D03*
X173127500Y-88900000D03*
%TD*%
D20*
%TO.C,D5*%
X187092000Y-134620000D03*
D21*
X192892000Y-134620000D03*
%TD*%
D22*
%TO.C,J8*%
X199613750Y-62487500D03*
D23*
X197073750Y-62487500D03*
X199613750Y-59947500D03*
X197073750Y-59947500D03*
X199613750Y-57407500D03*
X197073750Y-57407500D03*
X199613750Y-54867500D03*
X197073750Y-54867500D03*
X199613750Y-52327500D03*
X197073750Y-52327500D03*
%TD*%
D24*
%TO.C,J16*%
X92315000Y-145085000D03*
D25*
X97315000Y-145085000D03*
X102315000Y-145085000D03*
X107315000Y-145085000D03*
X112315000Y-145085000D03*
%TD*%
D26*
%TO.C,C2*%
X124460000Y-98832500D03*
X124460000Y-100557500D03*
%TD*%
D12*
%TO.C,J3*%
X77595000Y-113793750D03*
X77595000Y-102393750D03*
D16*
X84895000Y-113793750D03*
D17*
X84895000Y-108093750D03*
X84895000Y-102393750D03*
X90395000Y-113793750D03*
X90395000Y-108093750D03*
X90395000Y-102393750D03*
%TD*%
D27*
%TO.C,D4*%
X187085000Y-121920000D03*
X188835000Y-121920000D03*
%TD*%
D28*
%TO.C,D3*%
X106584750Y-71270000D03*
X106584750Y-69520000D03*
%TD*%
D29*
%TO.C,SW1*%
X203298000Y-38938200D03*
X196498000Y-38938200D03*
D30*
X202398000Y-41688200D03*
X199898000Y-41688200D03*
X197398000Y-41688200D03*
%TD*%
D26*
%TO.C,C12*%
X169451250Y-100518750D03*
X169451250Y-102243750D03*
%TD*%
D18*
%TO.C,R7*%
X131351250Y-75306250D03*
X131351250Y-73481250D03*
%TD*%
D15*
%TO.C,R3*%
X192024000Y-65127500D03*
X192024000Y-66952500D03*
%TD*%
D31*
%TO.C,SW2*%
X127360000Y-144851250D03*
X135320000Y-144851250D03*
X127360000Y-149351250D03*
X135320000Y-149351250D03*
%TD*%
D18*
%TO.C,R10*%
X190500000Y-106576500D03*
X190500000Y-104751500D03*
%TD*%
D15*
%TO.C,R4*%
X194310000Y-57507500D03*
X194310000Y-59332500D03*
%TD*%
D19*
%TO.C,C3*%
X138657500Y-96520000D03*
X136932500Y-96520000D03*
%TD*%
D32*
%TO.C,C1*%
X126772500Y-104140000D03*
X128497500Y-104140000D03*
%TD*%
D18*
%TO.C,R6*%
X119445000Y-75306250D03*
X119445000Y-73481250D03*
%TD*%
D26*
%TO.C,C14*%
X169451250Y-87818750D03*
X169451250Y-89543750D03*
%TD*%
D33*
%TO.C,C22*%
X124968000Y-148182500D03*
X124968000Y-146457500D03*
%TD*%
%TO.C,C28*%
X86360000Y-128725000D03*
X86360000Y-127000000D03*
%TD*%
D34*
%TO.C,R17*%
X136525000Y-85725000D03*
X134700000Y-85725000D03*
%TD*%
D35*
%TO.C,U1*%
X143007500Y-89675000D03*
X143007500Y-90175000D03*
X143007500Y-90675000D03*
X143007500Y-91175000D03*
X143007500Y-91675000D03*
X143007500Y-92175000D03*
X143007500Y-92675000D03*
X143007500Y-93175000D03*
X143007500Y-93675000D03*
X143007500Y-94175000D03*
X143007500Y-94675000D03*
X143007500Y-95175000D03*
X143007500Y-95675000D03*
X143007500Y-96175000D03*
X143007500Y-96675000D03*
X143007500Y-97175000D03*
X143007500Y-97675000D03*
X143007500Y-98175000D03*
X143007500Y-98675000D03*
X143007500Y-99175000D03*
X143007500Y-99675000D03*
X143007500Y-100175000D03*
X143007500Y-100675000D03*
X143007500Y-101175000D03*
X143007500Y-101675000D03*
X143007500Y-102175000D03*
X143007500Y-102675000D03*
X143007500Y-103175000D03*
X143007500Y-103675000D03*
X143007500Y-104175000D03*
X143007500Y-104675000D03*
X143007500Y-105175000D03*
X143007500Y-105675000D03*
X143007500Y-106175000D03*
X143007500Y-106675000D03*
X143007500Y-107175000D03*
D36*
X144920000Y-109087500D03*
X145420000Y-109087500D03*
X145920000Y-109087500D03*
X146420000Y-109087500D03*
X146920000Y-109087500D03*
X147420000Y-109087500D03*
X147920000Y-109087500D03*
X148420000Y-109087500D03*
X148920000Y-109087500D03*
X149420000Y-109087500D03*
X149920000Y-109087500D03*
X150420000Y-109087500D03*
X150920000Y-109087500D03*
X151420000Y-109087500D03*
X151920000Y-109087500D03*
X152420000Y-109087500D03*
X152920000Y-109087500D03*
X153420000Y-109087500D03*
X153920000Y-109087500D03*
X154420000Y-109087500D03*
X154920000Y-109087500D03*
X155420000Y-109087500D03*
X155920000Y-109087500D03*
X156420000Y-109087500D03*
X156920000Y-109087500D03*
X157420000Y-109087500D03*
X157920000Y-109087500D03*
X158420000Y-109087500D03*
X158920000Y-109087500D03*
X159420000Y-109087500D03*
X159920000Y-109087500D03*
X160420000Y-109087500D03*
X160920000Y-109087500D03*
X161420000Y-109087500D03*
X161920000Y-109087500D03*
X162420000Y-109087500D03*
D35*
X164332500Y-107175000D03*
X164332500Y-106675000D03*
X164332500Y-106175000D03*
X164332500Y-105675000D03*
X164332500Y-105175000D03*
X164332500Y-104675000D03*
X164332500Y-104175000D03*
X164332500Y-103675000D03*
X164332500Y-103175000D03*
X164332500Y-102675000D03*
X164332500Y-102175000D03*
X164332500Y-101675000D03*
X164332500Y-101175000D03*
X164332500Y-100675000D03*
X164332500Y-100175000D03*
X164332500Y-99675000D03*
X164332500Y-99175000D03*
X164332500Y-98675000D03*
X164332500Y-98175000D03*
X164332500Y-97675000D03*
X164332500Y-97175000D03*
X164332500Y-96675000D03*
X164332500Y-96175000D03*
X164332500Y-95675000D03*
X164332500Y-95175000D03*
X164332500Y-94675000D03*
X164332500Y-94175000D03*
X164332500Y-93675000D03*
X164332500Y-93175000D03*
X164332500Y-92675000D03*
X164332500Y-92175000D03*
X164332500Y-91675000D03*
X164332500Y-91175000D03*
X164332500Y-90675000D03*
X164332500Y-90175000D03*
X164332500Y-89675000D03*
D36*
X162420000Y-87762500D03*
X161920000Y-87762500D03*
X161420000Y-87762500D03*
X160920000Y-87762500D03*
X160420000Y-87762500D03*
X159920000Y-87762500D03*
X159420000Y-87762500D03*
X158920000Y-87762500D03*
X158420000Y-87762500D03*
X157920000Y-87762500D03*
X157420000Y-87762500D03*
X156920000Y-87762500D03*
X156420000Y-87762500D03*
X155920000Y-87762500D03*
X155420000Y-87762500D03*
X154920000Y-87762500D03*
X154420000Y-87762500D03*
X153920000Y-87762500D03*
X153420000Y-87762500D03*
X152920000Y-87762500D03*
X152420000Y-87762500D03*
X151920000Y-87762500D03*
X151420000Y-87762500D03*
X150920000Y-87762500D03*
X150420000Y-87762500D03*
X149920000Y-87762500D03*
X149420000Y-87762500D03*
X148920000Y-87762500D03*
X148420000Y-87762500D03*
X147920000Y-87762500D03*
X147420000Y-87762500D03*
X146920000Y-87762500D03*
X146420000Y-87762500D03*
X145920000Y-87762500D03*
X145420000Y-87762500D03*
X144920000Y-87762500D03*
%TD*%
D19*
%TO.C,C10*%
X157613750Y-114081250D03*
X155888750Y-114081250D03*
%TD*%
D37*
%TO.C,R16*%
X187047500Y-123825000D03*
X188872500Y-123825000D03*
%TD*%
D15*
%TO.C,R8*%
X98782500Y-92432500D03*
X98782500Y-94257500D03*
%TD*%
D38*
%TO.C,Y1*%
X100591000Y-73432500D03*
X100591000Y-70532500D03*
X98291000Y-70532500D03*
X98291000Y-73432500D03*
%TD*%
D39*
%TO.C,D6*%
X108712000Y-40788000D03*
D40*
X108712000Y-46588000D03*
%TD*%
D19*
%TO.C,C8*%
X145007500Y-114081250D03*
X143282500Y-114081250D03*
%TD*%
%TO.C,C9*%
X152851250Y-114081250D03*
X151126250Y-114081250D03*
%TD*%
D33*
%TO.C,C25*%
X102616000Y-72845000D03*
X102616000Y-71120000D03*
%TD*%
D19*
%TO.C,C7*%
X137770000Y-91856250D03*
X136045000Y-91856250D03*
%TD*%
D24*
%TO.C,J15*%
X181295000Y-144780000D03*
D25*
X186295000Y-144780000D03*
X191295000Y-144780000D03*
X196295000Y-144780000D03*
X201295000Y-144780000D03*
%TD*%
D12*
%TO.C,J2*%
X151750000Y-141480000D03*
X140350000Y-141480000D03*
D16*
X151750000Y-134180000D03*
D17*
X146050000Y-134180000D03*
X140350000Y-134180000D03*
X151750000Y-128680000D03*
X146050000Y-128680000D03*
X140350000Y-128680000D03*
%TD*%
D12*
%TO.C,J10*%
X175340000Y-46227500D03*
X186740000Y-46227500D03*
D16*
X175340000Y-53527500D03*
D17*
X181040000Y-53527500D03*
X186740000Y-53527500D03*
X175340000Y-59027500D03*
X181040000Y-59027500D03*
X186740000Y-59027500D03*
%TD*%
D33*
%TO.C,C26*%
X182945000Y-130818750D03*
X182945000Y-129093750D03*
%TD*%
D41*
%TO.C,P2*%
X214825000Y-127975000D03*
X214825000Y-127125000D03*
X214825000Y-126275000D03*
X214825000Y-125425000D03*
X214825000Y-124575000D03*
X214825000Y-123725000D03*
X214825000Y-122875000D03*
X214825000Y-122025000D03*
X216175000Y-122025000D03*
X216175000Y-122875000D03*
X216175000Y-123725000D03*
X216175000Y-124575000D03*
X216175000Y-125425000D03*
X216175000Y-126275000D03*
X216175000Y-127125000D03*
X216175000Y-127975000D03*
D42*
X215805000Y-129325000D03*
D43*
X219185000Y-129325000D03*
D42*
X215805000Y-120675000D03*
D43*
X219185000Y-120675000D03*
%TD*%
D33*
%TO.C,C23*%
X96520000Y-59790500D03*
X96520000Y-58065500D03*
%TD*%
D34*
%TO.C,R1*%
X134008500Y-102235000D03*
X132183500Y-102235000D03*
%TD*%
D19*
%TO.C,C5*%
X144120000Y-82331250D03*
X142395000Y-82331250D03*
%TD*%
D44*
%TO.C,U5*%
X98933000Y-63070000D03*
X100203000Y-63070000D03*
X101473000Y-63070000D03*
X102743000Y-63070000D03*
X104013000Y-63070000D03*
X105283000Y-63070000D03*
X106553000Y-63070000D03*
X107823000Y-63070000D03*
X109093000Y-63070000D03*
X110363000Y-63070000D03*
X110363000Y-53770000D03*
X109093000Y-53770000D03*
X107823000Y-53770000D03*
X106553000Y-53770000D03*
X105283000Y-53770000D03*
X104013000Y-53770000D03*
X102743000Y-53770000D03*
X101473000Y-53770000D03*
X100203000Y-53770000D03*
X98933000Y-53770000D03*
%TD*%
D26*
%TO.C,C13*%
X169451250Y-95756250D03*
X169451250Y-97481250D03*
%TD*%
D15*
%TO.C,R9*%
X98782500Y-82272500D03*
X98782500Y-84097500D03*
%TD*%
D45*
%TO.C,X1*%
X126885000Y-101578750D03*
X129785000Y-101578750D03*
X129785000Y-99278750D03*
X126885000Y-99278750D03*
%TD*%
D26*
%TO.C,C24*%
X96266000Y-71120000D03*
X96266000Y-72845000D03*
%TD*%
D15*
%TO.C,R12*%
X105410000Y-114022500D03*
X105410000Y-115847500D03*
%TD*%
D19*
%TO.C,C6*%
X137838750Y-102968750D03*
X136113750Y-102968750D03*
%TD*%
D32*
%TO.C,C27*%
X190907500Y-123825000D03*
X192632500Y-123825000D03*
%TD*%
D26*
%TO.C,C21*%
X206248000Y-94133500D03*
X206248000Y-95858500D03*
%TD*%
D12*
%TO.C,J5*%
X77595000Y-94600000D03*
X77595000Y-83200000D03*
D16*
X84895000Y-94600000D03*
D17*
X84895000Y-88900000D03*
X84895000Y-83200000D03*
X90395000Y-94600000D03*
X90395000Y-88900000D03*
X90395000Y-83200000D03*
%TD*%
D46*
%TO.C,U2*%
X180405000Y-103251000D03*
X180405000Y-104521000D03*
X180405000Y-105791000D03*
X180405000Y-107061000D03*
X185355000Y-107061000D03*
X185355000Y-105791000D03*
X185355000Y-104521000D03*
X185355000Y-103251000D03*
%TD*%
D22*
%TO.C,J12*%
X70232500Y-54232500D03*
D23*
X70232500Y-56772500D03*
X70232500Y-59312500D03*
X70232500Y-61852500D03*
X70232500Y-64392500D03*
X70232500Y-66932500D03*
X70232500Y-69472500D03*
X70232500Y-72012500D03*
%TD*%
D34*
%TO.C,R2*%
X197508500Y-70612000D03*
X195683500Y-70612000D03*
%TD*%
D12*
%TO.C,J7*%
X211395000Y-102031250D03*
X211395000Y-113431250D03*
D16*
X204095000Y-102031250D03*
D17*
X204095000Y-107731250D03*
X204095000Y-113431250D03*
X198595000Y-102031250D03*
X198595000Y-107731250D03*
X198595000Y-113431250D03*
%TD*%
D29*
%TO.C,H3*%
X208930000Y-45501250D03*
X209874581Y-43220831D03*
X209874581Y-47781669D03*
X212155000Y-42276250D03*
D47*
X212155000Y-45501250D03*
D29*
X212155000Y-48726250D03*
X214435419Y-43220831D03*
X214435419Y-47781669D03*
X215380000Y-45501250D03*
%TD*%
D31*
%TO.C,SW4*%
X71585000Y-125385000D03*
X79545000Y-125385000D03*
X71585000Y-129885000D03*
X79545000Y-129885000D03*
%TD*%
D28*
%TO.C,D2*%
X108966000Y-71270000D03*
X108966000Y-69520000D03*
%TD*%
D12*
%TO.C,J4*%
X135970000Y-46227500D03*
X147370000Y-46227500D03*
D16*
X135970000Y-53527500D03*
D17*
X141670000Y-53527500D03*
X147370000Y-53527500D03*
X135970000Y-59027500D03*
X141670000Y-59027500D03*
X147370000Y-59027500D03*
%TD*%
D32*
%TO.C,C15*%
X155888750Y-83125000D03*
X157613750Y-83125000D03*
%TD*%
D26*
%TO.C,C20*%
X204660500Y-94133500D03*
X204660500Y-95858500D03*
%TD*%
D29*
%TO.C,H2*%
X73675000Y-142021250D03*
X74619581Y-139740831D03*
X74619581Y-144301669D03*
X76900000Y-138796250D03*
D47*
X76900000Y-142021250D03*
D29*
X76900000Y-145246250D03*
X79180419Y-139740831D03*
X79180419Y-144301669D03*
X80125000Y-142021250D03*
%TD*%
D19*
%TO.C,C4*%
X144120000Y-83918750D03*
X142395000Y-83918750D03*
%TD*%
D18*
%TO.C,R15*%
X106584750Y-75276250D03*
X106584750Y-73451250D03*
%TD*%
D29*
%TO.C,H1*%
X73675000Y-45501250D03*
X74619581Y-43220831D03*
X74619581Y-47781669D03*
X76900000Y-42276250D03*
D47*
X76900000Y-45501250D03*
D29*
X76900000Y-48726250D03*
X79180419Y-43220831D03*
X79180419Y-47781669D03*
X80125000Y-45501250D03*
%TD*%
D12*
%TO.C,J14*%
X116220000Y-46355000D03*
X127620000Y-46355000D03*
D16*
X116220000Y-53655000D03*
D17*
X121920000Y-53655000D03*
X127620000Y-53655000D03*
X116220000Y-59155000D03*
X121920000Y-59155000D03*
X127620000Y-59155000D03*
%TD*%
D32*
%TO.C,C16*%
X149538750Y-83125000D03*
X151263750Y-83125000D03*
%TD*%
D29*
%TO.C,H4*%
X208930000Y-142021250D03*
X209874581Y-139740831D03*
X209874581Y-144301669D03*
X212155000Y-138796250D03*
D47*
X212155000Y-142021250D03*
D29*
X212155000Y-145246250D03*
X214435419Y-139740831D03*
X214435419Y-144301669D03*
X215380000Y-142021250D03*
%TD*%
D26*
%TO.C,C18*%
X136113750Y-106868750D03*
X136113750Y-108593750D03*
%TD*%
D19*
%TO.C,C11*%
X162376250Y-114081250D03*
X160651250Y-114081250D03*
%TD*%
D27*
%TO.C,D1*%
X134782500Y-83175000D03*
X136532500Y-83175000D03*
%TD*%
D26*
%TO.C,C17*%
X137701250Y-106868750D03*
X137701250Y-108593750D03*
%TD*%
D29*
%TO.C,J13*%
X102300000Y-41446250D03*
X97900000Y-41446250D03*
D48*
X101700000Y-44046250D03*
X100900000Y-44046250D03*
X100100000Y-44046250D03*
X99300000Y-44046250D03*
X98500000Y-44046250D03*
D49*
X104500000Y-44046250D03*
X104500000Y-38546250D03*
X95700000Y-44046250D03*
X95700000Y-38546250D03*
%TD*%
D50*
%TO.C,U3*%
X161196250Y-80837500D03*
X162466250Y-80837500D03*
X163736250Y-80837500D03*
X165006250Y-80837500D03*
X165006250Y-75887500D03*
X163736250Y-75887500D03*
X162466250Y-75887500D03*
X161196250Y-75887500D03*
%TD*%
D19*
%TO.C,C30*%
X160882500Y-111125000D03*
X159157500Y-111125000D03*
%TD*%
D32*
%TO.C,C19*%
X205895000Y-67250000D03*
X207620000Y-67250000D03*
%TD*%
D15*
%TO.C,R13*%
X104203500Y-71070000D03*
X104203500Y-72895000D03*
%TD*%
D34*
%TO.C,R11*%
X164013750Y-72012500D03*
X162188750Y-72012500D03*
%TD*%
D12*
%TO.C,J11*%
X155655000Y-46261250D03*
X167055000Y-46261250D03*
D16*
X155655000Y-53561250D03*
D17*
X161355000Y-53561250D03*
X167055000Y-53561250D03*
X155655000Y-59061250D03*
X161355000Y-59061250D03*
X167055000Y-59061250D03*
%TD*%
M02*
