%TF.GenerationSoftware,KiCad,Pcbnew,7.0.7*%
%TF.CreationDate,2024-01-22T16:42:18-06:00*%
%TF.ProjectId,stm32f429z,73746d33-3266-4343-9239-7a2e6b696361,rev?*%
%TF.SameCoordinates,Original*%
%TF.FileFunction,Copper,L4,Bot*%
%TF.FilePolarity,Positive*%
%FSLAX46Y46*%
G04 Gerber Fmt 4.6, Leading zero omitted, Abs format (unit mm)*
G04 Created by KiCad (PCBNEW 7.0.7) date 2024-01-22 16:42:18*
%MOMM*%
%LPD*%
G01*
G04 APERTURE LIST*
%TA.AperFunction,ComponentPad*%
%ADD10R,3.750000X3.750000*%
%TD*%
%TA.AperFunction,ComponentPad*%
%ADD11C,3.750000*%
%TD*%
%TA.AperFunction,ComponentPad*%
%ADD12R,1.700000X1.700000*%
%TD*%
%TA.AperFunction,ComponentPad*%
%ADD13O,1.700000X1.700000*%
%TD*%
%TA.AperFunction,ComponentPad*%
%ADD14R,2.600000X2.600000*%
%TD*%
%TA.AperFunction,ComponentPad*%
%ADD15C,2.600000*%
%TD*%
%TA.AperFunction,ComponentPad*%
%ADD16C,0.700000*%
%TD*%
%TA.AperFunction,ComponentPad*%
%ADD17O,2.400000X0.900000*%
%TD*%
%TA.AperFunction,ComponentPad*%
%ADD18O,1.700000X0.900000*%
%TD*%
%TA.AperFunction,ComponentPad*%
%ADD19C,0.900000*%
%TD*%
%TA.AperFunction,ComponentPad*%
%ADD20C,8.600000*%
%TD*%
%TA.AperFunction,ComponentPad*%
%ADD21R,1.500000X1.600000*%
%TD*%
%TA.AperFunction,ComponentPad*%
%ADD22C,1.600000*%
%TD*%
%TA.AperFunction,ComponentPad*%
%ADD23C,3.000000*%
%TD*%
%TA.AperFunction,ViaPad*%
%ADD24C,0.800000*%
%TD*%
%TA.AperFunction,Conductor*%
%ADD25C,0.250000*%
%TD*%
G04 APERTURE END LIST*
D10*
%TO.P,J1,1,Pin_1*%
%TO.N,ADC1_IN9*%
X170800000Y-134180000D03*
D11*
%TO.P,J1,2,Pin_2*%
%TO.N,ADC1_IN15*%
X165100000Y-134180000D03*
%TO.P,J1,3,Pin_3*%
%TO.N,ADC1_IN14*%
X159400000Y-134180000D03*
%TO.P,J1,4,Pin_4*%
%TO.N,+5V*%
X170800000Y-128680000D03*
%TO.P,J1,5,Pin_5*%
%TO.N,ADC1_IN8*%
X165100000Y-128680000D03*
%TO.P,J1,6,Pin_6*%
%TO.N,GND*%
X159400000Y-128680000D03*
%TD*%
D12*
%TO.P,J8,1,Pin_1*%
%TO.N,+5V*%
X199613750Y-62487500D03*
D13*
%TO.P,J8,2,Pin_2*%
%TO.N,Net-(J8-Pin_2)*%
X197073750Y-62487500D03*
%TO.P,J8,3,Pin_3*%
%TO.N,GND*%
X199613750Y-59947500D03*
%TO.P,J8,4,Pin_4*%
%TO.N,Net-(J8-Pin_4)*%
X197073750Y-59947500D03*
%TO.P,J8,5,Pin_5*%
%TO.N,GND*%
X199613750Y-57407500D03*
%TO.P,J8,6,Pin_6*%
%TO.N,Net-(J8-Pin_6)*%
X197073750Y-57407500D03*
%TO.P,J8,7,Pin_7*%
%TO.N,unconnected-(J8-Pin_7-Pad7)*%
X199613750Y-54867500D03*
%TO.P,J8,8,Pin_8*%
%TO.N,unconnected-(J8-Pin_8-Pad8)*%
X197073750Y-54867500D03*
%TO.P,J8,9,Pin_9*%
%TO.N,GND*%
X199613750Y-52327500D03*
%TO.P,J8,10,Pin_10*%
%TO.N,Net-(J8-Pin_10)*%
X197073750Y-52327500D03*
%TD*%
D14*
%TO.P,J16,1,Pin_1*%
%TO.N,MCU_GPIO6*%
X92315000Y-145085000D03*
D15*
%TO.P,J16,2,Pin_2*%
%TO.N,MCU_GPIO7*%
X97315000Y-145085000D03*
%TO.P,J16,3,Pin_3*%
%TO.N,MCU_GPIO8*%
X102315000Y-145085000D03*
%TO.P,J16,4,Pin_4*%
%TO.N,MCU_GPIO9*%
X107315000Y-145085000D03*
%TO.P,J16,5,Pin_5*%
%TO.N,MCU_GPIO10*%
X112315000Y-145085000D03*
%TD*%
D10*
%TO.P,J3,1,Pin_1*%
%TO.N,SPI5_MOSI*%
X84895000Y-113793750D03*
D11*
%TO.P,J3,2,Pin_2*%
%TO.N,SPI5_MISO*%
X84895000Y-108093750D03*
%TO.P,J3,3,Pin_3*%
%TO.N,SPI5_SCK *%
X84895000Y-102393750D03*
%TO.P,J3,4,Pin_4*%
%TO.N,+5V*%
X90395000Y-113793750D03*
%TO.P,J3,5,Pin_5*%
%TO.N,SPI5_CS  *%
X90395000Y-108093750D03*
%TO.P,J3,6,Pin_6*%
%TO.N,GND*%
X90395000Y-102393750D03*
%TD*%
D14*
%TO.P,J15,1,Pin_1*%
%TO.N,MCU_GPIO1*%
X181295000Y-144780000D03*
D15*
%TO.P,J15,2,Pin_2*%
%TO.N,MCU_GPIO2*%
X186295000Y-144780000D03*
%TO.P,J15,3,Pin_3*%
%TO.N,MCU_GPIO3*%
X191295000Y-144780000D03*
%TO.P,J15,4,Pin_4*%
%TO.N,MCU_GPIO4*%
X196295000Y-144780000D03*
%TO.P,J15,5,Pin_5*%
%TO.N,MCU_GPIO5*%
X201295000Y-144780000D03*
%TD*%
D10*
%TO.P,J2,1,Pin_1*%
%TO.N,ADC2_IN7*%
X151750000Y-134180000D03*
D11*
%TO.P,J2,2,Pin_2*%
%TO.N,ADC2_IN5*%
X146050000Y-134180000D03*
%TO.P,J2,3,Pin_3*%
%TO.N,ADC2_IN4*%
X140350000Y-134180000D03*
%TO.P,J2,4,Pin_4*%
%TO.N,+5V*%
X151750000Y-128680000D03*
%TO.P,J2,5,Pin_5*%
%TO.N,ADC2_IN6*%
X146050000Y-128680000D03*
%TO.P,J2,6,Pin_6*%
%TO.N,GND*%
X140350000Y-128680000D03*
%TD*%
D10*
%TO.P,J10,1,Pin_1*%
%TO.N,USART1_RX*%
X175340000Y-53527500D03*
D11*
%TO.P,J10,2,Pin_2*%
%TO.N,unconnected-(J10-Pin_2-Pad2)*%
X181040000Y-53527500D03*
%TO.P,J10,3,Pin_3*%
%TO.N,USART1_TX*%
X186740000Y-53527500D03*
%TO.P,J10,4,Pin_4*%
%TO.N,+5V*%
X175340000Y-59027500D03*
%TO.P,J10,5,Pin_5*%
%TO.N,unconnected-(J10-Pin_5-Pad5)*%
X181040000Y-59027500D03*
%TO.P,J10,6,Pin_6*%
%TO.N,GND*%
X186740000Y-59027500D03*
%TD*%
D16*
%TO.P,P2,A1,GND*%
%TO.N,GND*%
X214825000Y-127975000D03*
%TO.P,P2,A4,VBUS*%
%TO.N,Net-(D5-A)*%
X214825000Y-127125000D03*
%TO.P,P2,A5,CC*%
%TO.N,unconnected-(P2-CC-PadA5)*%
X214825000Y-126275000D03*
%TO.P,P2,A6,D+*%
%TO.N,unconnected-(P2-D+-PadA6)*%
X214825000Y-125425000D03*
%TO.P,P2,A7,D-*%
%TO.N,unconnected-(P2-D--PadA7)*%
X214825000Y-124575000D03*
%TO.P,P2,A8*%
%TO.N,N/C*%
X214825000Y-123725000D03*
%TO.P,P2,A9,VBUS*%
%TO.N,Net-(D5-A)*%
X214825000Y-122875000D03*
%TO.P,P2,A12,GND*%
%TO.N,GND*%
X214825000Y-122025000D03*
%TO.P,P2,B1,GND*%
X216175000Y-122025000D03*
%TO.P,P2,B4,VBUS*%
%TO.N,Net-(D5-A)*%
X216175000Y-122875000D03*
%TO.P,P2,B5,VCONN*%
%TO.N,unconnected-(P2-VCONN-PadB5)*%
X216175000Y-123725000D03*
%TO.P,P2,B6*%
%TO.N,N/C*%
X216175000Y-124575000D03*
%TO.P,P2,B7*%
X216175000Y-125425000D03*
%TO.P,P2,B8*%
X216175000Y-126275000D03*
%TO.P,P2,B9,VBUS*%
%TO.N,Net-(D5-A)*%
X216175000Y-127125000D03*
%TO.P,P2,B12,GND*%
%TO.N,GND*%
X216175000Y-127975000D03*
D17*
%TO.P,P2,S1,SHIELD*%
X215805000Y-129325000D03*
D18*
X219185000Y-129325000D03*
D17*
X215805000Y-120675000D03*
D18*
X219185000Y-120675000D03*
%TD*%
D10*
%TO.P,J5,1,Pin_1*%
%TO.N,I2C2_SCL*%
X84895000Y-94600000D03*
D11*
%TO.P,J5,2,Pin_2*%
%TO.N,unconnected-(J5-Pin_2-Pad2)*%
X84895000Y-88900000D03*
%TO.P,J5,3,Pin_3*%
%TO.N,I2C2_SDA*%
X84895000Y-83200000D03*
%TO.P,J5,4,Pin_4*%
%TO.N,+5V*%
X90395000Y-94600000D03*
%TO.P,J5,5,Pin_5*%
%TO.N,unconnected-(J5-Pin_5-Pad5)*%
X90395000Y-88900000D03*
%TO.P,J5,6,Pin_6*%
%TO.N,GND*%
X90395000Y-83200000D03*
%TD*%
D12*
%TO.P,J12,1,Pin_1*%
%TO.N,GP5*%
X70232500Y-54232500D03*
D13*
%TO.P,J12,2,Pin_2*%
%TO.N,GP4*%
X70232500Y-56772500D03*
%TO.P,J12,3,Pin_3*%
%TO.N,GP3*%
X70232500Y-59312500D03*
%TO.P,J12,4,Pin_4*%
%TO.N,GP0*%
X70232500Y-61852500D03*
%TO.P,J12,5,Pin_5*%
%TO.N,GP1*%
X70232500Y-64392500D03*
%TO.P,J12,6,Pin_6*%
%TO.N,GP2*%
X70232500Y-66932500D03*
%TO.P,J12,7,Pin_7*%
%TO.N,CTS*%
X70232500Y-69472500D03*
%TO.P,J12,8,Pin_8*%
%TO.N,RTS*%
X70232500Y-72012500D03*
%TD*%
D10*
%TO.P,J7,1,Pin_1*%
%TO.N,CAN2+*%
X204095000Y-102031250D03*
D11*
%TO.P,J7,2,Pin_2*%
%TO.N,CAN2-*%
X204095000Y-107731250D03*
%TO.P,J7,3,Pin_3*%
%TO.N,unconnected-(J7-Pin_3-Pad3)*%
X204095000Y-113431250D03*
%TO.P,J7,4,Pin_4*%
%TO.N,+5V*%
X198595000Y-102031250D03*
%TO.P,J7,5,Pin_5*%
%TO.N,unconnected-(J7-Pin_5-Pad5)*%
X198595000Y-107731250D03*
%TO.P,J7,6,Pin_6*%
%TO.N,GND*%
X198595000Y-113431250D03*
%TD*%
D19*
%TO.P,H3,1*%
%TO.N,N/C*%
X208930000Y-45501250D03*
X209874581Y-43220831D03*
X209874581Y-47781669D03*
X212155000Y-42276250D03*
D20*
X212155000Y-45501250D03*
D19*
X212155000Y-48726250D03*
X214435419Y-43220831D03*
X214435419Y-47781669D03*
X215380000Y-45501250D03*
%TD*%
D10*
%TO.P,J4,1,Pin_1*%
%TO.N,SPI3_MOSI*%
X135970000Y-53527500D03*
D11*
%TO.P,J4,2,Pin_2*%
%TO.N,SPI3_MISO*%
X141670000Y-53527500D03*
%TO.P,J4,3,Pin_3*%
%TO.N,SPI3_SCK*%
X147370000Y-53527500D03*
%TO.P,J4,4,Pin_4*%
%TO.N,+5V*%
X135970000Y-59027500D03*
%TO.P,J4,5,Pin_5*%
%TO.N,SPI3_CS  *%
X141670000Y-59027500D03*
%TO.P,J4,6,Pin_6*%
%TO.N,GND*%
X147370000Y-59027500D03*
%TD*%
D19*
%TO.P,H2,1*%
%TO.N,N/C*%
X73675000Y-142021250D03*
X74619581Y-139740831D03*
X74619581Y-144301669D03*
X76900000Y-138796250D03*
D20*
X76900000Y-142021250D03*
D19*
X76900000Y-145246250D03*
X79180419Y-139740831D03*
X79180419Y-144301669D03*
X80125000Y-142021250D03*
%TD*%
D21*
%TO.P,J6,1,VBUS*%
%TO.N,+5V*%
X211048000Y-88844000D03*
D22*
%TO.P,J6,2,D-*%
%TO.N,USB_OTG_FS_DP-*%
X211048000Y-86344000D03*
%TO.P,J6,3,D+*%
%TO.N,USB_OTG_FS_DP+*%
X211048000Y-84344000D03*
%TO.P,J6,4,ID*%
%TO.N,unconnected-(J6-ID-Pad4)*%
X211048000Y-81844000D03*
D23*
%TO.P,J6,5,GND*%
%TO.N,GND*%
X213758000Y-91914000D03*
X213758000Y-78774000D03*
%TD*%
D19*
%TO.P,H1,1*%
%TO.N,N/C*%
X73675000Y-45501250D03*
X74619581Y-43220831D03*
X74619581Y-47781669D03*
X76900000Y-42276250D03*
D20*
X76900000Y-45501250D03*
D19*
X76900000Y-48726250D03*
X79180419Y-43220831D03*
X79180419Y-47781669D03*
X80125000Y-45501250D03*
%TD*%
D10*
%TO.P,J14,1,Pin_1*%
%TO.N,I2C1_SCL*%
X116220000Y-53655000D03*
D11*
%TO.P,J14,2,Pin_2*%
%TO.N,unconnected-(J14-Pin_2-Pad2)*%
X121920000Y-53655000D03*
%TO.P,J14,3,Pin_3*%
%TO.N,I2C1_SDA*%
X127620000Y-53655000D03*
%TO.P,J14,4,Pin_4*%
%TO.N,+5V*%
X116220000Y-59155000D03*
%TO.P,J14,5,Pin_5*%
%TO.N,unconnected-(J14-Pin_5-Pad5)*%
X121920000Y-59155000D03*
%TO.P,J14,6,Pin_6*%
%TO.N,GND*%
X127620000Y-59155000D03*
%TD*%
D19*
%TO.P,H4,1*%
%TO.N,N/C*%
X208930000Y-142021250D03*
X209874581Y-139740831D03*
X209874581Y-144301669D03*
X212155000Y-138796250D03*
D20*
X212155000Y-142021250D03*
D19*
X212155000Y-145246250D03*
X214435419Y-139740831D03*
X214435419Y-144301669D03*
X215380000Y-142021250D03*
%TD*%
D10*
%TO.P,J11,1,Pin_1*%
%TO.N,CAN1+*%
X155655000Y-53561250D03*
D11*
%TO.P,J11,2,Pin_2*%
%TO.N,CAN1-*%
X161355000Y-53561250D03*
%TO.P,J11,3,Pin_3*%
%TO.N,unconnected-(J11-Pin_3-Pad3)*%
X167055000Y-53561250D03*
%TO.P,J11,4,Pin_4*%
%TO.N,+5V*%
X155655000Y-59061250D03*
%TO.P,J11,5,Pin_5*%
%TO.N,unconnected-(J11-Pin_5-Pad5)*%
X161355000Y-59061250D03*
%TO.P,J11,6,Pin_6*%
%TO.N,GND*%
X167055000Y-59061250D03*
%TD*%
D24*
%TO.N,GND*%
X98552000Y-76200000D03*
X102616000Y-69596000D03*
X160655000Y-115570000D03*
X140970000Y-114300000D03*
X162560000Y-79248000D03*
X125984000Y-62484000D03*
X195580000Y-111760000D03*
X94742000Y-56642000D03*
X87884000Y-84836000D03*
X186436000Y-62484000D03*
X135128000Y-143256000D03*
X93472000Y-102108000D03*
X182880000Y-127508000D03*
X122936000Y-101600000D03*
X213614000Y-75946000D03*
X215900000Y-130810000D03*
X138430000Y-86995000D03*
X87376000Y-104648000D03*
X88392000Y-100584000D03*
X219075000Y-130810000D03*
X151765000Y-115570000D03*
X91440000Y-85852000D03*
X211836000Y-77216000D03*
X167132000Y-62992000D03*
X135128000Y-109728000D03*
X170815000Y-89535000D03*
X106680000Y-76200000D03*
X135128000Y-90424000D03*
X127508000Y-62992000D03*
X101600000Y-114300000D03*
X187960000Y-61468000D03*
X156972000Y-126492000D03*
X202692000Y-97028000D03*
X155575000Y-115570000D03*
X161036000Y-131572000D03*
X106680000Y-37592000D03*
X127508000Y-142748000D03*
X207772000Y-97028000D03*
X169926000Y-103378000D03*
X213614000Y-94488000D03*
X141224000Y-83820000D03*
X165608000Y-61976000D03*
X192201800Y-42748200D03*
X216154000Y-94234000D03*
X170688000Y-98552000D03*
X140208000Y-123952000D03*
X168656000Y-61976000D03*
X207518000Y-65532000D03*
X216154000Y-77216000D03*
X215900000Y-118872000D03*
X153416000Y-82804000D03*
X93472000Y-82296000D03*
X102616000Y-43180000D03*
X138176000Y-123952000D03*
X182372000Y-104648000D03*
X151988750Y-89475000D03*
X211074000Y-93472000D03*
X194564000Y-115824000D03*
X141732000Y-123444000D03*
X192278000Y-50038000D03*
X148844000Y-62484000D03*
X202184000Y-57404000D03*
X147828000Y-63500000D03*
X202184000Y-59690000D03*
X136652000Y-94996000D03*
X218948000Y-118872000D03*
X92964000Y-38608000D03*
X185420000Y-61468000D03*
X157988000Y-84836000D03*
X93472000Y-44196000D03*
X129032000Y-62484000D03*
X146304000Y-62484000D03*
X195072000Y-113284000D03*
%TO.N,+3.3V*%
X199898000Y-44958000D03*
X144145000Y-115570000D03*
X138684000Y-90424000D03*
X131064000Y-77216000D03*
X150368000Y-81788000D03*
X163830000Y-113665000D03*
X185928000Y-116332000D03*
X182372000Y-116332000D03*
X99060000Y-80645000D03*
X170180000Y-94488000D03*
X99060000Y-90805000D03*
X154305000Y-114300000D03*
X139700000Y-102870000D03*
X95250000Y-59690000D03*
X154940000Y-84455000D03*
X119380000Y-77724000D03*
X158750000Y-113665000D03*
X142240000Y-85852000D03*
X138684000Y-97950500D03*
X105410000Y-112395000D03*
X104140000Y-74168000D03*
X168402000Y-99568000D03*
X139192000Y-107188000D03*
X170434000Y-86868000D03*
X102616000Y-59944000D03*
%TO.N,+5V*%
X154432000Y-131572000D03*
X117348000Y-61976000D03*
X93472000Y-91440000D03*
X201168000Y-99568000D03*
X154432000Y-61976000D03*
X198120000Y-118364000D03*
X114300000Y-61976000D03*
X198120000Y-131572000D03*
X136144000Y-62992000D03*
X175768000Y-62992000D03*
X205740000Y-88900000D03*
X93472000Y-94488000D03*
X90424000Y-117856000D03*
X155448000Y-62992000D03*
X134620000Y-61976000D03*
X108712000Y-38100000D03*
X172212000Y-63500000D03*
X174244000Y-61976000D03*
X154940000Y-128524000D03*
X197104000Y-99568000D03*
X87884000Y-116840000D03*
X174244000Y-126492000D03*
X207772000Y-93980000D03*
X173228000Y-131064000D03*
X181356000Y-131064000D03*
X182880000Y-134620000D03*
X156972000Y-61976000D03*
X176784000Y-61976000D03*
X88392000Y-91948000D03*
X174244000Y-128524000D03*
X197612000Y-97028000D03*
X205232000Y-79756000D03*
X92456000Y-116332000D03*
X151384000Y-125476000D03*
X115824000Y-62992000D03*
X137668000Y-61976000D03*
%TO.N,NRST*%
X159004000Y-94996000D03*
X184404000Y-69596000D03*
%TO.N,SPI5_CS  *%
X146812000Y-98044000D03*
X132080000Y-109220000D03*
X94615000Y-106045000D03*
X99060000Y-106045000D03*
%TO.N,SPI3_CS  *%
X153924000Y-90932000D03*
X143256000Y-65532000D03*
%TO.N,I2C1_SDA*%
X146695500Y-84836000D03*
X146812000Y-77724000D03*
%TO.N,USART1_RX*%
X116332000Y-69088000D03*
X150876000Y-79756000D03*
X140208000Y-78232000D03*
X163068000Y-68580000D03*
%TO.N,USART1_TX*%
X149860000Y-85344000D03*
X144272000Y-79756000D03*
X166116000Y-69088000D03*
%TO.N,GP5*%
X99060000Y-67056000D03*
X105664000Y-60452000D03*
%TO.N,GP4*%
X107188000Y-66548000D03*
X96520000Y-68072000D03*
%TO.N,GP3*%
X109220000Y-67564000D03*
X92964000Y-69088000D03*
%TO.N,GP2*%
X82742250Y-66675000D03*
X106680000Y-58928000D03*
%TO.N,GP1*%
X105156000Y-57404000D03*
X82296000Y-64516000D03*
%TO.N,GP0*%
X83820000Y-61976000D03*
X104140000Y-55880000D03*
%TO.N,CTS*%
X99568000Y-60960000D03*
X84836000Y-69088000D03*
%TO.N,RTS*%
X112268000Y-64008000D03*
X84328000Y-72136000D03*
%TO.N,SYS_JTCLK-SWCLK*%
X165862000Y-83820000D03*
X163830000Y-83820000D03*
%TO.N,SYS_JTDO-SWO*%
X168148000Y-82550000D03*
X150876000Y-92456000D03*
%TO.N,BOOT0*%
X203200000Y-66548000D03*
X167635701Y-85339701D03*
X205740000Y-63754000D03*
X148844000Y-93472000D03*
%TO.N,MCU_GPIO10*%
X125730000Y-129540000D03*
X160025194Y-103826306D03*
%TO.N,MCU_GPIO9*%
X161308487Y-102900303D03*
X125730000Y-127635000D03*
%TO.N,MCU_GPIO8*%
X159474500Y-102324500D03*
X109220000Y-139700000D03*
%TO.N,MCU_GPIO7*%
X160655000Y-101600000D03*
X108585000Y-137160000D03*
%TO.N,MCU_GPIO6*%
X109220000Y-134620000D03*
X161290000Y-100330000D03*
%TO.N,MCU_GPIO5*%
X161925000Y-104556500D03*
X171450000Y-111760000D03*
%TO.N,MCU_GPIO4*%
X168910000Y-110490000D03*
X160020000Y-105231000D03*
%TO.N,MCU_GPIO3*%
X167005000Y-109855000D03*
X158750000Y-105955500D03*
%TO.N,CAN1_TX*%
X160020000Y-78232000D03*
X159512000Y-90424000D03*
%TO.N,CAN SIlent Mode 1*%
X159004000Y-80264000D03*
X157988000Y-89408000D03*
%TD*%
D25*
%TO.N,NRST*%
X184404000Y-69596000D02*
X159004000Y-94996000D01*
%TO.N,SPI5_CS  *%
X132080000Y-109220000D02*
X143256000Y-98044000D01*
X94615000Y-106045000D02*
X99060000Y-106045000D01*
X143256000Y-98044000D02*
X146812000Y-98044000D01*
%TO.N,SPI3_CS  *%
X146812000Y-90932000D02*
X153924000Y-90932000D01*
X143256000Y-65532000D02*
X143256000Y-87376000D01*
X143256000Y-87376000D02*
X146812000Y-90932000D01*
%TO.N,I2C1_SDA*%
X146695500Y-77840500D02*
X146695500Y-84836000D01*
X146812000Y-84719500D02*
X146695500Y-84836000D01*
X146812000Y-77724000D02*
X146695500Y-77840500D01*
%TO.N,USART1_RX*%
X150876000Y-79756000D02*
X151393305Y-79756000D01*
X125476000Y-78232000D02*
X140208000Y-78232000D01*
X116332000Y-69088000D02*
X125476000Y-78232000D01*
X162569305Y-68580000D02*
X163068000Y-68580000D01*
X151393305Y-79756000D02*
X162569305Y-68580000D01*
%TO.N,USART1_TX*%
X149860000Y-85334695D02*
X166106695Y-69088000D01*
X149860000Y-85344000D02*
X149860000Y-85334695D01*
X145796000Y-85852000D02*
X149352000Y-85852000D01*
X149352000Y-85852000D02*
X149860000Y-85344000D01*
X144272000Y-84328000D02*
X145796000Y-85852000D01*
X144272000Y-79756000D02*
X144272000Y-84328000D01*
X166106695Y-69088000D02*
X166116000Y-69088000D01*
%TO.N,GP5*%
X99060000Y-67056000D02*
X105664000Y-60452000D01*
%TO.N,GP4*%
X105664000Y-68072000D02*
X107188000Y-66548000D01*
X96520000Y-68072000D02*
X105664000Y-68072000D01*
%TO.N,GP3*%
X92964000Y-69088000D02*
X93181000Y-68871000D01*
X93181000Y-68871000D02*
X107913000Y-68871000D01*
X107913000Y-68871000D02*
X109220000Y-67564000D01*
%TO.N,GP2*%
X94488000Y-58928000D02*
X106680000Y-58928000D01*
X86741000Y-66675000D02*
X94488000Y-58928000D01*
X82742250Y-66675000D02*
X86741000Y-66675000D01*
%TO.N,GP1*%
X92456000Y-57404000D02*
X105156000Y-57404000D01*
X85344000Y-64516000D02*
X92456000Y-57404000D01*
X82296000Y-64516000D02*
X85344000Y-64516000D01*
%TO.N,GP0*%
X89916000Y-55880000D02*
X104140000Y-55880000D01*
X83820000Y-61976000D02*
X89916000Y-55880000D01*
%TO.N,CTS*%
X84836000Y-69088000D02*
X91440000Y-69088000D01*
X91440000Y-69088000D02*
X99568000Y-60960000D01*
%TO.N,RTS*%
X112268000Y-65541305D02*
X112268000Y-64008000D01*
X105673305Y-72136000D02*
X112268000Y-65541305D01*
X84328000Y-72136000D02*
X105673305Y-72136000D01*
%TO.N,SYS_JTCLK-SWCLK*%
X165862000Y-83820000D02*
X163830000Y-83820000D01*
%TO.N,SYS_JTDO-SWO*%
X168148000Y-82550000D02*
X168148000Y-82813305D01*
X168148000Y-82813305D02*
X158505305Y-92456000D01*
X158505305Y-92456000D02*
X150876000Y-92456000D01*
%TO.N,BOOT0*%
X205740000Y-63754000D02*
X203200000Y-66294000D01*
X167635701Y-85339701D02*
X159503402Y-93472000D01*
X203200000Y-66294000D02*
X203200000Y-66548000D01*
X159503402Y-93472000D02*
X148844000Y-93472000D01*
%TO.N,MCU_GPIO10*%
X127000000Y-125730000D02*
X148903694Y-103826306D01*
X148903694Y-103826306D02*
X160025194Y-103826306D01*
X125730000Y-129540000D02*
X127000000Y-128270000D01*
X127000000Y-128270000D02*
X127000000Y-125730000D01*
%TO.N,MCU_GPIO9*%
X161308487Y-102900303D02*
X161209290Y-102999500D01*
X125730000Y-125095000D02*
X125730000Y-127635000D01*
X147825500Y-102999500D02*
X125730000Y-125095000D01*
X161209290Y-102999500D02*
X147825500Y-102999500D01*
%TO.N,MCU_GPIO8*%
X146595500Y-102324500D02*
X159474500Y-102324500D01*
X109220000Y-139700000D02*
X146595500Y-102324500D01*
%TO.N,MCU_GPIO7*%
X110245305Y-137160000D02*
X145805305Y-101600000D01*
X145805305Y-101600000D02*
X160655000Y-101600000D01*
X108585000Y-137160000D02*
X110245305Y-137160000D01*
%TO.N,MCU_GPIO6*%
X109220000Y-134620000D02*
X109220000Y-134610695D01*
X143500695Y-100330000D02*
X161290000Y-100330000D01*
X109220000Y-134610695D02*
X143500695Y-100330000D01*
%TO.N,MCU_GPIO5*%
X161925000Y-104556500D02*
X164246500Y-104556500D01*
X164246500Y-104556500D02*
X171450000Y-111760000D01*
%TO.N,MCU_GPIO4*%
X163651000Y-105231000D02*
X168910000Y-110490000D01*
X160020000Y-105231000D02*
X163651000Y-105231000D01*
%TO.N,MCU_GPIO3*%
X163105500Y-105955500D02*
X158750000Y-105955500D01*
X167005000Y-109855000D02*
X163105500Y-105955500D01*
%TO.N,CAN1_TX*%
X160020000Y-89916000D02*
X160020000Y-78232000D01*
X159512000Y-90424000D02*
X160020000Y-89916000D01*
%TO.N,CAN SIlent Mode 1*%
X159004000Y-80264000D02*
X159004000Y-88392000D01*
X159004000Y-88392000D02*
X157988000Y-89408000D01*
%TD*%
M02*
