M48
; DRILL file {KiCad 7.0.7} date Mon Jan 22 22:28:12 2024
; FORMAT={-:-/ absolute / metric / decimal}
; #@! TF.CreationDate,2024-01-22T22:28:12-06:00
; #@! TF.GenerationSoftware,Kicad,Pcbnew,7.0.7
; #@! TF.FileFunction,MixedPlating,1,4
FMAT,2
METRIC
; #@! TA.AperFunction,Plated,PTH,ViaDrill
T1C0.400
; #@! TA.AperFunction,Plated,PTH,ComponentDrill
T2C0.400
; #@! TA.AperFunction,Plated,PTH,ComponentDrill
T3C0.600
; #@! TA.AperFunction,Plated,PTH,ComponentDrill
T4C0.950
; #@! TA.AperFunction,Plated,PTH,ComponentDrill
T5C1.000
; #@! TA.AperFunction,Plated,PTH,ComponentDrill
T6C1.300
; #@! TA.AperFunction,Plated,PTH,ComponentDrill
T7C1.800
; #@! TA.AperFunction,Plated,PTH,ComponentDrill
T8C2.300
; #@! TA.AperFunction,Plated,PTH,ComponentDrill
T9C4.300
; #@! TA.AperFunction,NonPlated,NPTH,ComponentDrill
T10C0.900
; #@! TA.AperFunction,NonPlated,NPTH,ComponentDrill
T11C3.000
%
G90
G05
T1
X82.296Y-64.516
X82.742Y-66.675
X83.82Y-61.976
X84.328Y-72.136
X84.836Y-69.088
X87.376Y-104.648
X87.884Y-84.836
X87.884Y-116.84
X88.392Y-91.948
X88.392Y-100.584
X90.424Y-117.856
X91.44Y-85.852
X92.456Y-116.332
X92.964Y-38.608
X92.964Y-69.088
X93.472Y-44.196
X93.472Y-82.296
X93.472Y-91.44
X93.472Y-94.488
X93.472Y-102.108
X94.615Y-106.045
X94.742Y-56.642
X95.25Y-59.69
X96.52Y-68.072
X98.552Y-76.2
X99.06Y-67.056
X99.06Y-80.645
X99.06Y-90.805
X99.06Y-106.045
X99.568Y-60.96
X101.6Y-114.3
X102.616Y-43.18
X102.616Y-59.944
X102.616Y-69.596
X104.14Y-55.88
X104.14Y-74.168
X105.156Y-57.404
X105.41Y-112.395
X105.664Y-60.452
X106.68Y-37.592
X106.68Y-58.928
X106.68Y-76.2
X107.188Y-66.548
X108.585Y-137.16
X108.712Y-38.1
X109.22Y-67.564
X109.22Y-134.62
X109.22Y-139.7
X112.268Y-64.008
X114.3Y-61.976
X115.824Y-62.992
X116.332Y-69.088
X117.348Y-61.976
X119.38Y-77.724
X122.936Y-101.6
X125.73Y-127.635
X125.73Y-129.54
X125.984Y-62.484
X127.508Y-62.992
X127.508Y-142.748
X129.032Y-62.484
X131.064Y-77.216
X132.08Y-109.22
X134.62Y-61.976
X135.128Y-90.424
X135.128Y-109.728
X135.128Y-143.256
X136.144Y-62.992
X136.652Y-94.996
X137.668Y-61.976
X138.176Y-123.952
X138.43Y-86.995
X138.684Y-90.424
X138.684Y-97.95
X139.192Y-107.188
X139.7Y-102.87
X140.208Y-78.232
X140.208Y-123.952
X140.97Y-114.3
X141.224Y-83.82
X141.732Y-123.444
X142.24Y-85.852
X143.256Y-65.532
X144.145Y-115.57
X144.272Y-79.756
X146.304Y-62.484
X146.695Y-84.836
X146.812Y-77.724
X146.812Y-98.044
X147.828Y-63.5
X148.844Y-62.484
X148.844Y-93.472
X149.86Y-85.344
X150.368Y-81.788
X150.876Y-79.756
X150.876Y-92.456
X151.384Y-125.476
X151.765Y-115.57
X151.989Y-89.475
X153.416Y-82.804
X153.924Y-90.932
X154.305Y-114.3
X154.432Y-61.976
X154.432Y-131.572
X154.94Y-84.455
X154.94Y-128.524
X155.448Y-62.992
X155.575Y-115.57
X156.972Y-61.976
X156.972Y-126.492
X157.988Y-84.836
X157.988Y-89.408
X158.75Y-105.956
X158.75Y-113.665
X159.004Y-80.264
X159.004Y-94.996
X159.475Y-102.325
X159.512Y-90.424
X160.02Y-78.232
X160.02Y-105.231
X160.025Y-103.826
X160.655Y-101.6
X160.655Y-115.57
X161.036Y-131.572
X161.29Y-100.33
X161.308Y-102.9
X161.925Y-104.556
X162.56Y-79.248
X163.068Y-68.58
X163.83Y-83.82
X163.83Y-113.665
X165.608Y-61.976
X165.862Y-83.82
X166.116Y-69.088
X167.005Y-109.855
X167.132Y-62.992
X167.636Y-85.34
X168.148Y-82.55
X168.402Y-99.568
X168.656Y-61.976
X168.91Y-110.49
X169.926Y-103.378
X170.18Y-94.488
X170.434Y-86.868
X170.688Y-98.552
X170.815Y-89.535
X171.45Y-111.76
X172.212Y-63.5
X173.228Y-131.064
X174.244Y-61.976
X174.244Y-126.492
X174.244Y-128.524
X175.768Y-62.992
X176.784Y-61.976
X181.356Y-131.064
X182.372Y-104.648
X182.372Y-116.332
X182.88Y-127.508
X182.88Y-134.62
X184.404Y-69.596
X185.42Y-61.468
X185.928Y-116.332
X186.436Y-62.484
X187.96Y-61.468
X192.202Y-42.748
X192.278Y-50.038
X194.564Y-115.824
X195.072Y-113.284
X195.58Y-111.76
X197.104Y-99.568
X197.612Y-97.028
X198.12Y-118.364
X198.12Y-131.572
X199.898Y-44.958
X201.168Y-99.568
X202.184Y-57.404
X202.184Y-59.69
X202.692Y-97.028
X203.2Y-66.548
X205.232Y-79.756
X205.74Y-63.754
X205.74Y-88.9
X207.518Y-65.532
X207.772Y-93.98
X207.772Y-97.028
X211.074Y-93.472
X211.836Y-77.216
X213.614Y-75.946
X213.614Y-94.488
X215.9Y-118.872
X215.9Y-130.81
X216.154Y-77.216
X216.154Y-94.234
X218.948Y-118.872
X219.075Y-130.81
T2
X214.825Y-122.025
X214.825Y-122.875
X214.825Y-123.725
X214.825Y-124.575
X214.825Y-125.425
X214.825Y-126.275
X214.825Y-127.125
X214.825Y-127.975
X216.175Y-122.025
X216.175Y-122.875
X216.175Y-123.725
X216.175Y-124.575
X216.175Y-125.425
X216.175Y-126.275
X216.175Y-127.125
X216.175Y-127.975
T3
X73.675Y-45.501
X73.675Y-142.021
X74.62Y-43.221
X74.62Y-47.782
X74.62Y-139.741
X74.62Y-144.302
X76.9Y-42.276
X76.9Y-48.726
X76.9Y-138.796
X76.9Y-145.246
X79.18Y-43.221
X79.18Y-47.782
X79.18Y-139.741
X79.18Y-144.302
X80.125Y-45.501
X80.125Y-142.021
X208.93Y-45.501
X208.93Y-142.021
X209.875Y-43.221
X209.875Y-47.782
X209.875Y-139.741
X209.875Y-144.302
X212.155Y-42.276
X212.155Y-48.726
X212.155Y-138.796
X212.155Y-145.246
X214.435Y-43.221
X214.435Y-47.782
X214.435Y-139.741
X214.435Y-144.302
X215.38Y-45.501
X215.38Y-142.021
T4
X211.048Y-81.844
X211.048Y-84.344
X211.048Y-86.344
X211.048Y-88.844
T5
X70.233Y-54.232
X70.233Y-56.773
X70.233Y-59.312
X70.233Y-61.852
X70.233Y-64.392
X70.233Y-66.932
X70.233Y-69.472
X70.233Y-72.013
X197.074Y-52.328
X197.074Y-54.867
X197.074Y-57.407
X197.074Y-59.947
X197.074Y-62.487
X199.614Y-52.328
X199.614Y-54.867
X199.614Y-57.407
X199.614Y-59.947
X199.614Y-62.487
T6
X92.315Y-145.085
X97.315Y-145.085
X102.315Y-145.085
X107.315Y-145.085
X112.315Y-145.085
X181.295Y-144.78
X186.295Y-144.78
X191.295Y-144.78
X196.295Y-144.78
X201.295Y-144.78
T7
X84.895Y-83.2
X84.895Y-88.9
X84.895Y-94.6
X84.895Y-102.394
X84.895Y-108.094
X84.895Y-113.794
X90.395Y-83.2
X90.395Y-88.9
X90.395Y-94.6
X90.395Y-102.394
X90.395Y-108.094
X90.395Y-113.794
X116.22Y-53.655
X116.22Y-59.155
X121.92Y-53.655
X121.92Y-59.155
X127.62Y-53.655
X127.62Y-59.155
X135.97Y-53.527
X135.97Y-59.027
X140.35Y-128.68
X140.35Y-134.18
X141.67Y-53.527
X141.67Y-59.027
X146.05Y-128.68
X146.05Y-134.18
X147.37Y-53.527
X147.37Y-59.027
X151.75Y-128.68
X151.75Y-134.18
X155.655Y-53.561
X155.655Y-59.061
X159.4Y-128.68
X159.4Y-134.18
X161.355Y-53.561
X161.355Y-59.061
X165.1Y-128.68
X165.1Y-134.18
X167.055Y-53.561
X167.055Y-59.061
X170.8Y-128.68
X170.8Y-134.18
X175.34Y-53.527
X175.34Y-59.027
X181.04Y-53.527
X181.04Y-59.027
X186.74Y-53.527
X186.74Y-59.027
X198.595Y-102.031
X198.595Y-107.731
X198.595Y-113.431
X204.095Y-102.031
X204.095Y-107.731
X204.095Y-113.431
T8
X213.758Y-78.774
X213.758Y-91.914
T9
X76.9Y-45.501
X76.9Y-142.021
X212.155Y-45.501
X212.155Y-142.021
T10
X97.9Y-41.446
X102.3Y-41.446
X196.498Y-38.938
X203.298Y-38.938
T11
X77.595Y-83.2
X77.595Y-94.6
X77.595Y-102.394
X77.595Y-113.794
X116.22Y-46.355
X127.62Y-46.355
X135.97Y-46.227
X140.35Y-141.48
X147.37Y-46.227
X151.75Y-141.48
X155.655Y-46.261
X159.4Y-141.48
X167.055Y-46.261
X170.8Y-141.48
X175.34Y-46.227
X186.74Y-46.227
X211.395Y-102.031
X211.395Y-113.431
T3
X215.055Y-120.675G85X216.555Y-120.675
G05
X215.055Y-129.325G85X216.555Y-129.325
G05
X218.785Y-120.675G85X219.585Y-120.675
G05
X218.785Y-129.325G85X219.585Y-129.325
G05
T0
M30
