%TF.GenerationSoftware,KiCad,Pcbnew,7.0.7*%
%TF.CreationDate,2024-01-19T22:18:06-06:00*%
%TF.ProjectId,stm32f429z,73746d33-3266-4343-9239-7a2e6b696361,rev?*%
%TF.SameCoordinates,Original*%
%TF.FileFunction,Legend,Top*%
%TF.FilePolarity,Positive*%
%FSLAX46Y46*%
G04 Gerber Fmt 4.6, Leading zero omitted, Abs format (unit mm)*
G04 Created by KiCad (PCBNEW 7.0.7) date 2024-01-19 22:18:06*
%MOMM*%
%LPD*%
G01*
G04 APERTURE LIST*
%ADD10C,0.150000*%
%ADD11C,0.120000*%
G04 APERTURE END LIST*
D10*
X143799160Y-125314104D02*
X144275350Y-125314104D01*
X143703922Y-125599819D02*
X144037255Y-124599819D01*
X144037255Y-124599819D02*
X144370588Y-125599819D01*
X144703922Y-124933152D02*
X144703922Y-125599819D01*
X144703922Y-125028390D02*
X144751541Y-124980771D01*
X144751541Y-124980771D02*
X144846779Y-124933152D01*
X144846779Y-124933152D02*
X144989636Y-124933152D01*
X144989636Y-124933152D02*
X145084874Y-124980771D01*
X145084874Y-124980771D02*
X145132493Y-125076009D01*
X145132493Y-125076009D02*
X145132493Y-125599819D01*
X146037255Y-125599819D02*
X146037255Y-125076009D01*
X146037255Y-125076009D02*
X145989636Y-124980771D01*
X145989636Y-124980771D02*
X145894398Y-124933152D01*
X145894398Y-124933152D02*
X145703922Y-124933152D01*
X145703922Y-124933152D02*
X145608684Y-124980771D01*
X146037255Y-125552200D02*
X145942017Y-125599819D01*
X145942017Y-125599819D02*
X145703922Y-125599819D01*
X145703922Y-125599819D02*
X145608684Y-125552200D01*
X145608684Y-125552200D02*
X145561065Y-125456961D01*
X145561065Y-125456961D02*
X145561065Y-125361723D01*
X145561065Y-125361723D02*
X145608684Y-125266485D01*
X145608684Y-125266485D02*
X145703922Y-125218866D01*
X145703922Y-125218866D02*
X145942017Y-125218866D01*
X145942017Y-125218866D02*
X146037255Y-125171247D01*
X146656303Y-125599819D02*
X146561065Y-125552200D01*
X146561065Y-125552200D02*
X146513446Y-125456961D01*
X146513446Y-125456961D02*
X146513446Y-124599819D01*
X147180113Y-125599819D02*
X147084875Y-125552200D01*
X147084875Y-125552200D02*
X147037256Y-125504580D01*
X147037256Y-125504580D02*
X146989637Y-125409342D01*
X146989637Y-125409342D02*
X146989637Y-125123628D01*
X146989637Y-125123628D02*
X147037256Y-125028390D01*
X147037256Y-125028390D02*
X147084875Y-124980771D01*
X147084875Y-124980771D02*
X147180113Y-124933152D01*
X147180113Y-124933152D02*
X147322970Y-124933152D01*
X147322970Y-124933152D02*
X147418208Y-124980771D01*
X147418208Y-124980771D02*
X147465827Y-125028390D01*
X147465827Y-125028390D02*
X147513446Y-125123628D01*
X147513446Y-125123628D02*
X147513446Y-125409342D01*
X147513446Y-125409342D02*
X147465827Y-125504580D01*
X147465827Y-125504580D02*
X147418208Y-125552200D01*
X147418208Y-125552200D02*
X147322970Y-125599819D01*
X147322970Y-125599819D02*
X147180113Y-125599819D01*
X148370589Y-124933152D02*
X148370589Y-125742676D01*
X148370589Y-125742676D02*
X148322970Y-125837914D01*
X148322970Y-125837914D02*
X148275351Y-125885533D01*
X148275351Y-125885533D02*
X148180113Y-125933152D01*
X148180113Y-125933152D02*
X148037256Y-125933152D01*
X148037256Y-125933152D02*
X147942018Y-125885533D01*
X148370589Y-125552200D02*
X148275351Y-125599819D01*
X148275351Y-125599819D02*
X148084875Y-125599819D01*
X148084875Y-125599819D02*
X147989637Y-125552200D01*
X147989637Y-125552200D02*
X147942018Y-125504580D01*
X147942018Y-125504580D02*
X147894399Y-125409342D01*
X147894399Y-125409342D02*
X147894399Y-125123628D01*
X147894399Y-125123628D02*
X147942018Y-125028390D01*
X147942018Y-125028390D02*
X147989637Y-124980771D01*
X147989637Y-124980771D02*
X148084875Y-124933152D01*
X148084875Y-124933152D02*
X148275351Y-124933152D01*
X148275351Y-124933152D02*
X148370589Y-124980771D01*
X150132494Y-125599819D02*
X149561066Y-125599819D01*
X149846780Y-125599819D02*
X149846780Y-124599819D01*
X149846780Y-124599819D02*
X149751542Y-124742676D01*
X149751542Y-124742676D02*
X149656304Y-124837914D01*
X149656304Y-124837914D02*
X149561066Y-124885533D01*
X94484819Y-90468220D02*
X93484819Y-90468220D01*
X93580057Y-90039649D02*
X93532438Y-89992030D01*
X93532438Y-89992030D02*
X93484819Y-89896792D01*
X93484819Y-89896792D02*
X93484819Y-89658697D01*
X93484819Y-89658697D02*
X93532438Y-89563459D01*
X93532438Y-89563459D02*
X93580057Y-89515840D01*
X93580057Y-89515840D02*
X93675295Y-89468221D01*
X93675295Y-89468221D02*
X93770533Y-89468221D01*
X93770533Y-89468221D02*
X93913390Y-89515840D01*
X93913390Y-89515840D02*
X94484819Y-90087268D01*
X94484819Y-90087268D02*
X94484819Y-89468221D01*
X94389580Y-88468221D02*
X94437200Y-88515840D01*
X94437200Y-88515840D02*
X94484819Y-88658697D01*
X94484819Y-88658697D02*
X94484819Y-88753935D01*
X94484819Y-88753935D02*
X94437200Y-88896792D01*
X94437200Y-88896792D02*
X94341961Y-88992030D01*
X94341961Y-88992030D02*
X94246723Y-89039649D01*
X94246723Y-89039649D02*
X94056247Y-89087268D01*
X94056247Y-89087268D02*
X93913390Y-89087268D01*
X93913390Y-89087268D02*
X93722914Y-89039649D01*
X93722914Y-89039649D02*
X93627676Y-88992030D01*
X93627676Y-88992030D02*
X93532438Y-88896792D01*
X93532438Y-88896792D02*
X93484819Y-88753935D01*
X93484819Y-88753935D02*
X93484819Y-88658697D01*
X93484819Y-88658697D02*
X93532438Y-88515840D01*
X93532438Y-88515840D02*
X93580057Y-88468221D01*
X93580057Y-87325363D02*
X93532438Y-87277744D01*
X93532438Y-87277744D02*
X93484819Y-87182506D01*
X93484819Y-87182506D02*
X93484819Y-86944411D01*
X93484819Y-86944411D02*
X93532438Y-86849173D01*
X93532438Y-86849173D02*
X93580057Y-86801554D01*
X93580057Y-86801554D02*
X93675295Y-86753935D01*
X93675295Y-86753935D02*
X93770533Y-86753935D01*
X93770533Y-86753935D02*
X93913390Y-86801554D01*
X93913390Y-86801554D02*
X94484819Y-87372982D01*
X94484819Y-87372982D02*
X94484819Y-86753935D01*
X139989160Y-63322200D02*
X140132017Y-63369819D01*
X140132017Y-63369819D02*
X140370112Y-63369819D01*
X140370112Y-63369819D02*
X140465350Y-63322200D01*
X140465350Y-63322200D02*
X140512969Y-63274580D01*
X140512969Y-63274580D02*
X140560588Y-63179342D01*
X140560588Y-63179342D02*
X140560588Y-63084104D01*
X140560588Y-63084104D02*
X140512969Y-62988866D01*
X140512969Y-62988866D02*
X140465350Y-62941247D01*
X140465350Y-62941247D02*
X140370112Y-62893628D01*
X140370112Y-62893628D02*
X140179636Y-62846009D01*
X140179636Y-62846009D02*
X140084398Y-62798390D01*
X140084398Y-62798390D02*
X140036779Y-62750771D01*
X140036779Y-62750771D02*
X139989160Y-62655533D01*
X139989160Y-62655533D02*
X139989160Y-62560295D01*
X139989160Y-62560295D02*
X140036779Y-62465057D01*
X140036779Y-62465057D02*
X140084398Y-62417438D01*
X140084398Y-62417438D02*
X140179636Y-62369819D01*
X140179636Y-62369819D02*
X140417731Y-62369819D01*
X140417731Y-62369819D02*
X140560588Y-62417438D01*
X140989160Y-63369819D02*
X140989160Y-62369819D01*
X140989160Y-62369819D02*
X141370112Y-62369819D01*
X141370112Y-62369819D02*
X141465350Y-62417438D01*
X141465350Y-62417438D02*
X141512969Y-62465057D01*
X141512969Y-62465057D02*
X141560588Y-62560295D01*
X141560588Y-62560295D02*
X141560588Y-62703152D01*
X141560588Y-62703152D02*
X141512969Y-62798390D01*
X141512969Y-62798390D02*
X141465350Y-62846009D01*
X141465350Y-62846009D02*
X141370112Y-62893628D01*
X141370112Y-62893628D02*
X140989160Y-62893628D01*
X141989160Y-63369819D02*
X141989160Y-62369819D01*
X143751064Y-63369819D02*
X143179636Y-63369819D01*
X143465350Y-63369819D02*
X143465350Y-62369819D01*
X143465350Y-62369819D02*
X143370112Y-62512676D01*
X143370112Y-62512676D02*
X143274874Y-62607914D01*
X143274874Y-62607914D02*
X143179636Y-62655533D01*
X74164819Y-66338220D02*
X73164819Y-66338220D01*
X73164819Y-66338220D02*
X73879104Y-66004887D01*
X73879104Y-66004887D02*
X73164819Y-65671554D01*
X73164819Y-65671554D02*
X74164819Y-65671554D01*
X74069580Y-64623935D02*
X74117200Y-64671554D01*
X74117200Y-64671554D02*
X74164819Y-64814411D01*
X74164819Y-64814411D02*
X74164819Y-64909649D01*
X74164819Y-64909649D02*
X74117200Y-65052506D01*
X74117200Y-65052506D02*
X74021961Y-65147744D01*
X74021961Y-65147744D02*
X73926723Y-65195363D01*
X73926723Y-65195363D02*
X73736247Y-65242982D01*
X73736247Y-65242982D02*
X73593390Y-65242982D01*
X73593390Y-65242982D02*
X73402914Y-65195363D01*
X73402914Y-65195363D02*
X73307676Y-65147744D01*
X73307676Y-65147744D02*
X73212438Y-65052506D01*
X73212438Y-65052506D02*
X73164819Y-64909649D01*
X73164819Y-64909649D02*
X73164819Y-64814411D01*
X73164819Y-64814411D02*
X73212438Y-64671554D01*
X73212438Y-64671554D02*
X73260057Y-64623935D01*
X74164819Y-64195363D02*
X73164819Y-64195363D01*
X73164819Y-64195363D02*
X73164819Y-63814411D01*
X73164819Y-63814411D02*
X73212438Y-63719173D01*
X73212438Y-63719173D02*
X73260057Y-63671554D01*
X73260057Y-63671554D02*
X73355295Y-63623935D01*
X73355295Y-63623935D02*
X73498152Y-63623935D01*
X73498152Y-63623935D02*
X73593390Y-63671554D01*
X73593390Y-63671554D02*
X73641009Y-63719173D01*
X73641009Y-63719173D02*
X73688628Y-63814411D01*
X73688628Y-63814411D02*
X73688628Y-64195363D01*
X73212438Y-61909649D02*
X73164819Y-62004887D01*
X73164819Y-62004887D02*
X73164819Y-62147744D01*
X73164819Y-62147744D02*
X73212438Y-62290601D01*
X73212438Y-62290601D02*
X73307676Y-62385839D01*
X73307676Y-62385839D02*
X73402914Y-62433458D01*
X73402914Y-62433458D02*
X73593390Y-62481077D01*
X73593390Y-62481077D02*
X73736247Y-62481077D01*
X73736247Y-62481077D02*
X73926723Y-62433458D01*
X73926723Y-62433458D02*
X74021961Y-62385839D01*
X74021961Y-62385839D02*
X74117200Y-62290601D01*
X74117200Y-62290601D02*
X74164819Y-62147744D01*
X74164819Y-62147744D02*
X74164819Y-62052506D01*
X74164819Y-62052506D02*
X74117200Y-61909649D01*
X74117200Y-61909649D02*
X74069580Y-61862030D01*
X74069580Y-61862030D02*
X73736247Y-61862030D01*
X73736247Y-61862030D02*
X73736247Y-62052506D01*
X74164819Y-61433458D02*
X73164819Y-61433458D01*
X73164819Y-61433458D02*
X73164819Y-61052506D01*
X73164819Y-61052506D02*
X73212438Y-60957268D01*
X73212438Y-60957268D02*
X73260057Y-60909649D01*
X73260057Y-60909649D02*
X73355295Y-60862030D01*
X73355295Y-60862030D02*
X73498152Y-60862030D01*
X73498152Y-60862030D02*
X73593390Y-60909649D01*
X73593390Y-60909649D02*
X73641009Y-60957268D01*
X73641009Y-60957268D02*
X73688628Y-61052506D01*
X73688628Y-61052506D02*
X73688628Y-61433458D01*
X74164819Y-60433458D02*
X73164819Y-60433458D01*
X73164819Y-59766792D02*
X73164819Y-59576316D01*
X73164819Y-59576316D02*
X73212438Y-59481078D01*
X73212438Y-59481078D02*
X73307676Y-59385840D01*
X73307676Y-59385840D02*
X73498152Y-59338221D01*
X73498152Y-59338221D02*
X73831485Y-59338221D01*
X73831485Y-59338221D02*
X74021961Y-59385840D01*
X74021961Y-59385840D02*
X74117200Y-59481078D01*
X74117200Y-59481078D02*
X74164819Y-59576316D01*
X74164819Y-59576316D02*
X74164819Y-59766792D01*
X74164819Y-59766792D02*
X74117200Y-59862030D01*
X74117200Y-59862030D02*
X74021961Y-59957268D01*
X74021961Y-59957268D02*
X73831485Y-60004887D01*
X73831485Y-60004887D02*
X73498152Y-60004887D01*
X73498152Y-60004887D02*
X73307676Y-59957268D01*
X73307676Y-59957268D02*
X73212438Y-59862030D01*
X73212438Y-59862030D02*
X73164819Y-59766792D01*
X94437200Y-110200839D02*
X94484819Y-110057982D01*
X94484819Y-110057982D02*
X94484819Y-109819887D01*
X94484819Y-109819887D02*
X94437200Y-109724649D01*
X94437200Y-109724649D02*
X94389580Y-109677030D01*
X94389580Y-109677030D02*
X94294342Y-109629411D01*
X94294342Y-109629411D02*
X94199104Y-109629411D01*
X94199104Y-109629411D02*
X94103866Y-109677030D01*
X94103866Y-109677030D02*
X94056247Y-109724649D01*
X94056247Y-109724649D02*
X94008628Y-109819887D01*
X94008628Y-109819887D02*
X93961009Y-110010363D01*
X93961009Y-110010363D02*
X93913390Y-110105601D01*
X93913390Y-110105601D02*
X93865771Y-110153220D01*
X93865771Y-110153220D02*
X93770533Y-110200839D01*
X93770533Y-110200839D02*
X93675295Y-110200839D01*
X93675295Y-110200839D02*
X93580057Y-110153220D01*
X93580057Y-110153220D02*
X93532438Y-110105601D01*
X93532438Y-110105601D02*
X93484819Y-110010363D01*
X93484819Y-110010363D02*
X93484819Y-109772268D01*
X93484819Y-109772268D02*
X93532438Y-109629411D01*
X94484819Y-109200839D02*
X93484819Y-109200839D01*
X93484819Y-109200839D02*
X93484819Y-108819887D01*
X93484819Y-108819887D02*
X93532438Y-108724649D01*
X93532438Y-108724649D02*
X93580057Y-108677030D01*
X93580057Y-108677030D02*
X93675295Y-108629411D01*
X93675295Y-108629411D02*
X93818152Y-108629411D01*
X93818152Y-108629411D02*
X93913390Y-108677030D01*
X93913390Y-108677030D02*
X93961009Y-108724649D01*
X93961009Y-108724649D02*
X94008628Y-108819887D01*
X94008628Y-108819887D02*
X94008628Y-109200839D01*
X94484819Y-108200839D02*
X93484819Y-108200839D01*
X93580057Y-107010363D02*
X93532438Y-106962744D01*
X93532438Y-106962744D02*
X93484819Y-106867506D01*
X93484819Y-106867506D02*
X93484819Y-106629411D01*
X93484819Y-106629411D02*
X93532438Y-106534173D01*
X93532438Y-106534173D02*
X93580057Y-106486554D01*
X93580057Y-106486554D02*
X93675295Y-106438935D01*
X93675295Y-106438935D02*
X93770533Y-106438935D01*
X93770533Y-106438935D02*
X93913390Y-106486554D01*
X93913390Y-106486554D02*
X94484819Y-107057982D01*
X94484819Y-107057982D02*
X94484819Y-106438935D01*
X189455588Y-137347438D02*
X189360350Y-137299819D01*
X189360350Y-137299819D02*
X189217493Y-137299819D01*
X189217493Y-137299819D02*
X189074636Y-137347438D01*
X189074636Y-137347438D02*
X188979398Y-137442676D01*
X188979398Y-137442676D02*
X188931779Y-137537914D01*
X188931779Y-137537914D02*
X188884160Y-137728390D01*
X188884160Y-137728390D02*
X188884160Y-137871247D01*
X188884160Y-137871247D02*
X188931779Y-138061723D01*
X188931779Y-138061723D02*
X188979398Y-138156961D01*
X188979398Y-138156961D02*
X189074636Y-138252200D01*
X189074636Y-138252200D02*
X189217493Y-138299819D01*
X189217493Y-138299819D02*
X189312731Y-138299819D01*
X189312731Y-138299819D02*
X189455588Y-138252200D01*
X189455588Y-138252200D02*
X189503207Y-138204580D01*
X189503207Y-138204580D02*
X189503207Y-137871247D01*
X189503207Y-137871247D02*
X189312731Y-137871247D01*
X189931779Y-138299819D02*
X189931779Y-137299819D01*
X189931779Y-137299819D02*
X190312731Y-137299819D01*
X190312731Y-137299819D02*
X190407969Y-137347438D01*
X190407969Y-137347438D02*
X190455588Y-137395057D01*
X190455588Y-137395057D02*
X190503207Y-137490295D01*
X190503207Y-137490295D02*
X190503207Y-137633152D01*
X190503207Y-137633152D02*
X190455588Y-137728390D01*
X190455588Y-137728390D02*
X190407969Y-137776009D01*
X190407969Y-137776009D02*
X190312731Y-137823628D01*
X190312731Y-137823628D02*
X189931779Y-137823628D01*
X190931779Y-138299819D02*
X190931779Y-137299819D01*
X191598445Y-137299819D02*
X191788921Y-137299819D01*
X191788921Y-137299819D02*
X191884159Y-137347438D01*
X191884159Y-137347438D02*
X191979397Y-137442676D01*
X191979397Y-137442676D02*
X192027016Y-137633152D01*
X192027016Y-137633152D02*
X192027016Y-137966485D01*
X192027016Y-137966485D02*
X191979397Y-138156961D01*
X191979397Y-138156961D02*
X191884159Y-138252200D01*
X191884159Y-138252200D02*
X191788921Y-138299819D01*
X191788921Y-138299819D02*
X191598445Y-138299819D01*
X191598445Y-138299819D02*
X191503207Y-138252200D01*
X191503207Y-138252200D02*
X191407969Y-138156961D01*
X191407969Y-138156961D02*
X191360350Y-137966485D01*
X191360350Y-137966485D02*
X191360350Y-137633152D01*
X191360350Y-137633152D02*
X191407969Y-137442676D01*
X191407969Y-137442676D02*
X191503207Y-137347438D01*
X191503207Y-137347438D02*
X191598445Y-137299819D01*
X193741302Y-138299819D02*
X193169874Y-138299819D01*
X193455588Y-138299819D02*
X193455588Y-137299819D01*
X193455588Y-137299819D02*
X193360350Y-137442676D01*
X193360350Y-137442676D02*
X193265112Y-137537914D01*
X193265112Y-137537914D02*
X193169874Y-137585533D01*
X100555588Y-137982438D02*
X100460350Y-137934819D01*
X100460350Y-137934819D02*
X100317493Y-137934819D01*
X100317493Y-137934819D02*
X100174636Y-137982438D01*
X100174636Y-137982438D02*
X100079398Y-138077676D01*
X100079398Y-138077676D02*
X100031779Y-138172914D01*
X100031779Y-138172914D02*
X99984160Y-138363390D01*
X99984160Y-138363390D02*
X99984160Y-138506247D01*
X99984160Y-138506247D02*
X100031779Y-138696723D01*
X100031779Y-138696723D02*
X100079398Y-138791961D01*
X100079398Y-138791961D02*
X100174636Y-138887200D01*
X100174636Y-138887200D02*
X100317493Y-138934819D01*
X100317493Y-138934819D02*
X100412731Y-138934819D01*
X100412731Y-138934819D02*
X100555588Y-138887200D01*
X100555588Y-138887200D02*
X100603207Y-138839580D01*
X100603207Y-138839580D02*
X100603207Y-138506247D01*
X100603207Y-138506247D02*
X100412731Y-138506247D01*
X101031779Y-138934819D02*
X101031779Y-137934819D01*
X101031779Y-137934819D02*
X101412731Y-137934819D01*
X101412731Y-137934819D02*
X101507969Y-137982438D01*
X101507969Y-137982438D02*
X101555588Y-138030057D01*
X101555588Y-138030057D02*
X101603207Y-138125295D01*
X101603207Y-138125295D02*
X101603207Y-138268152D01*
X101603207Y-138268152D02*
X101555588Y-138363390D01*
X101555588Y-138363390D02*
X101507969Y-138411009D01*
X101507969Y-138411009D02*
X101412731Y-138458628D01*
X101412731Y-138458628D02*
X101031779Y-138458628D01*
X102031779Y-138934819D02*
X102031779Y-137934819D01*
X102698445Y-137934819D02*
X102888921Y-137934819D01*
X102888921Y-137934819D02*
X102984159Y-137982438D01*
X102984159Y-137982438D02*
X103079397Y-138077676D01*
X103079397Y-138077676D02*
X103127016Y-138268152D01*
X103127016Y-138268152D02*
X103127016Y-138601485D01*
X103127016Y-138601485D02*
X103079397Y-138791961D01*
X103079397Y-138791961D02*
X102984159Y-138887200D01*
X102984159Y-138887200D02*
X102888921Y-138934819D01*
X102888921Y-138934819D02*
X102698445Y-138934819D01*
X102698445Y-138934819D02*
X102603207Y-138887200D01*
X102603207Y-138887200D02*
X102507969Y-138791961D01*
X102507969Y-138791961D02*
X102460350Y-138601485D01*
X102460350Y-138601485D02*
X102460350Y-138268152D01*
X102460350Y-138268152D02*
X102507969Y-138077676D01*
X102507969Y-138077676D02*
X102603207Y-137982438D01*
X102603207Y-137982438D02*
X102698445Y-137934819D01*
X104841302Y-138934819D02*
X104269874Y-138934819D01*
X104555588Y-138934819D02*
X104555588Y-137934819D01*
X104555588Y-137934819D02*
X104460350Y-138077676D01*
X104460350Y-138077676D02*
X104365112Y-138172914D01*
X104365112Y-138172914D02*
X104269874Y-138220533D01*
X205568779Y-38223819D02*
X205568779Y-37223819D01*
X205568779Y-37223819D02*
X205949731Y-37223819D01*
X205949731Y-37223819D02*
X206044969Y-37271438D01*
X206044969Y-37271438D02*
X206092588Y-37319057D01*
X206092588Y-37319057D02*
X206140207Y-37414295D01*
X206140207Y-37414295D02*
X206140207Y-37557152D01*
X206140207Y-37557152D02*
X206092588Y-37652390D01*
X206092588Y-37652390D02*
X206044969Y-37700009D01*
X206044969Y-37700009D02*
X205949731Y-37747628D01*
X205949731Y-37747628D02*
X205568779Y-37747628D01*
X206568779Y-38223819D02*
X206568779Y-37557152D01*
X206568779Y-37747628D02*
X206616398Y-37652390D01*
X206616398Y-37652390D02*
X206664017Y-37604771D01*
X206664017Y-37604771D02*
X206759255Y-37557152D01*
X206759255Y-37557152D02*
X206854493Y-37557152D01*
X207330684Y-38223819D02*
X207235446Y-38176200D01*
X207235446Y-38176200D02*
X207187827Y-38128580D01*
X207187827Y-38128580D02*
X207140208Y-38033342D01*
X207140208Y-38033342D02*
X207140208Y-37747628D01*
X207140208Y-37747628D02*
X207187827Y-37652390D01*
X207187827Y-37652390D02*
X207235446Y-37604771D01*
X207235446Y-37604771D02*
X207330684Y-37557152D01*
X207330684Y-37557152D02*
X207473541Y-37557152D01*
X207473541Y-37557152D02*
X207568779Y-37604771D01*
X207568779Y-37604771D02*
X207616398Y-37652390D01*
X207616398Y-37652390D02*
X207664017Y-37747628D01*
X207664017Y-37747628D02*
X207664017Y-38033342D01*
X207664017Y-38033342D02*
X207616398Y-38128580D01*
X207616398Y-38128580D02*
X207568779Y-38176200D01*
X207568779Y-38176200D02*
X207473541Y-38223819D01*
X207473541Y-38223819D02*
X207330684Y-38223819D01*
X208521160Y-37557152D02*
X208521160Y-38366676D01*
X208521160Y-38366676D02*
X208473541Y-38461914D01*
X208473541Y-38461914D02*
X208425922Y-38509533D01*
X208425922Y-38509533D02*
X208330684Y-38557152D01*
X208330684Y-38557152D02*
X208187827Y-38557152D01*
X208187827Y-38557152D02*
X208092589Y-38509533D01*
X208521160Y-38176200D02*
X208425922Y-38223819D01*
X208425922Y-38223819D02*
X208235446Y-38223819D01*
X208235446Y-38223819D02*
X208140208Y-38176200D01*
X208140208Y-38176200D02*
X208092589Y-38128580D01*
X208092589Y-38128580D02*
X208044970Y-38033342D01*
X208044970Y-38033342D02*
X208044970Y-37747628D01*
X208044970Y-37747628D02*
X208092589Y-37652390D01*
X208092589Y-37652390D02*
X208140208Y-37604771D01*
X208140208Y-37604771D02*
X208235446Y-37557152D01*
X208235446Y-37557152D02*
X208425922Y-37557152D01*
X208425922Y-37557152D02*
X208521160Y-37604771D01*
X120351779Y-63369819D02*
X120351779Y-62369819D01*
X120780350Y-62465057D02*
X120827969Y-62417438D01*
X120827969Y-62417438D02*
X120923207Y-62369819D01*
X120923207Y-62369819D02*
X121161302Y-62369819D01*
X121161302Y-62369819D02*
X121256540Y-62417438D01*
X121256540Y-62417438D02*
X121304159Y-62465057D01*
X121304159Y-62465057D02*
X121351778Y-62560295D01*
X121351778Y-62560295D02*
X121351778Y-62655533D01*
X121351778Y-62655533D02*
X121304159Y-62798390D01*
X121304159Y-62798390D02*
X120732731Y-63369819D01*
X120732731Y-63369819D02*
X121351778Y-63369819D01*
X122351778Y-63274580D02*
X122304159Y-63322200D01*
X122304159Y-63322200D02*
X122161302Y-63369819D01*
X122161302Y-63369819D02*
X122066064Y-63369819D01*
X122066064Y-63369819D02*
X121923207Y-63322200D01*
X121923207Y-63322200D02*
X121827969Y-63226961D01*
X121827969Y-63226961D02*
X121780350Y-63131723D01*
X121780350Y-63131723D02*
X121732731Y-62941247D01*
X121732731Y-62941247D02*
X121732731Y-62798390D01*
X121732731Y-62798390D02*
X121780350Y-62607914D01*
X121780350Y-62607914D02*
X121827969Y-62512676D01*
X121827969Y-62512676D02*
X121923207Y-62417438D01*
X121923207Y-62417438D02*
X122066064Y-62369819D01*
X122066064Y-62369819D02*
X122161302Y-62369819D01*
X122161302Y-62369819D02*
X122304159Y-62417438D01*
X122304159Y-62417438D02*
X122351778Y-62465057D01*
X124066064Y-63369819D02*
X123494636Y-63369819D01*
X123780350Y-63369819D02*
X123780350Y-62369819D01*
X123780350Y-62369819D02*
X123685112Y-62512676D01*
X123685112Y-62512676D02*
X123589874Y-62607914D01*
X123589874Y-62607914D02*
X123494636Y-62655533D01*
X178771779Y-62369819D02*
X178771779Y-63179342D01*
X178771779Y-63179342D02*
X178819398Y-63274580D01*
X178819398Y-63274580D02*
X178867017Y-63322200D01*
X178867017Y-63322200D02*
X178962255Y-63369819D01*
X178962255Y-63369819D02*
X179152731Y-63369819D01*
X179152731Y-63369819D02*
X179247969Y-63322200D01*
X179247969Y-63322200D02*
X179295588Y-63274580D01*
X179295588Y-63274580D02*
X179343207Y-63179342D01*
X179343207Y-63179342D02*
X179343207Y-62369819D01*
X179771779Y-63084104D02*
X180247969Y-63084104D01*
X179676541Y-63369819D02*
X180009874Y-62369819D01*
X180009874Y-62369819D02*
X180343207Y-63369819D01*
X181247969Y-63369819D02*
X180914636Y-62893628D01*
X180676541Y-63369819D02*
X180676541Y-62369819D01*
X180676541Y-62369819D02*
X181057493Y-62369819D01*
X181057493Y-62369819D02*
X181152731Y-62417438D01*
X181152731Y-62417438D02*
X181200350Y-62465057D01*
X181200350Y-62465057D02*
X181247969Y-62560295D01*
X181247969Y-62560295D02*
X181247969Y-62703152D01*
X181247969Y-62703152D02*
X181200350Y-62798390D01*
X181200350Y-62798390D02*
X181152731Y-62846009D01*
X181152731Y-62846009D02*
X181057493Y-62893628D01*
X181057493Y-62893628D02*
X180676541Y-62893628D01*
X181533684Y-62369819D02*
X182105112Y-62369819D01*
X181819398Y-63369819D02*
X181819398Y-62369819D01*
X183724160Y-63369819D02*
X183152732Y-63369819D01*
X183438446Y-63369819D02*
X183438446Y-62369819D01*
X183438446Y-62369819D02*
X183343208Y-62512676D01*
X183343208Y-62512676D02*
X183247970Y-62607914D01*
X183247970Y-62607914D02*
X183152732Y-62655533D01*
X163484160Y-125314104D02*
X163960350Y-125314104D01*
X163388922Y-125599819D02*
X163722255Y-124599819D01*
X163722255Y-124599819D02*
X164055588Y-125599819D01*
X164388922Y-124933152D02*
X164388922Y-125599819D01*
X164388922Y-125028390D02*
X164436541Y-124980771D01*
X164436541Y-124980771D02*
X164531779Y-124933152D01*
X164531779Y-124933152D02*
X164674636Y-124933152D01*
X164674636Y-124933152D02*
X164769874Y-124980771D01*
X164769874Y-124980771D02*
X164817493Y-125076009D01*
X164817493Y-125076009D02*
X164817493Y-125599819D01*
X165722255Y-125599819D02*
X165722255Y-125076009D01*
X165722255Y-125076009D02*
X165674636Y-124980771D01*
X165674636Y-124980771D02*
X165579398Y-124933152D01*
X165579398Y-124933152D02*
X165388922Y-124933152D01*
X165388922Y-124933152D02*
X165293684Y-124980771D01*
X165722255Y-125552200D02*
X165627017Y-125599819D01*
X165627017Y-125599819D02*
X165388922Y-125599819D01*
X165388922Y-125599819D02*
X165293684Y-125552200D01*
X165293684Y-125552200D02*
X165246065Y-125456961D01*
X165246065Y-125456961D02*
X165246065Y-125361723D01*
X165246065Y-125361723D02*
X165293684Y-125266485D01*
X165293684Y-125266485D02*
X165388922Y-125218866D01*
X165388922Y-125218866D02*
X165627017Y-125218866D01*
X165627017Y-125218866D02*
X165722255Y-125171247D01*
X166341303Y-125599819D02*
X166246065Y-125552200D01*
X166246065Y-125552200D02*
X166198446Y-125456961D01*
X166198446Y-125456961D02*
X166198446Y-124599819D01*
X166865113Y-125599819D02*
X166769875Y-125552200D01*
X166769875Y-125552200D02*
X166722256Y-125504580D01*
X166722256Y-125504580D02*
X166674637Y-125409342D01*
X166674637Y-125409342D02*
X166674637Y-125123628D01*
X166674637Y-125123628D02*
X166722256Y-125028390D01*
X166722256Y-125028390D02*
X166769875Y-124980771D01*
X166769875Y-124980771D02*
X166865113Y-124933152D01*
X166865113Y-124933152D02*
X167007970Y-124933152D01*
X167007970Y-124933152D02*
X167103208Y-124980771D01*
X167103208Y-124980771D02*
X167150827Y-125028390D01*
X167150827Y-125028390D02*
X167198446Y-125123628D01*
X167198446Y-125123628D02*
X167198446Y-125409342D01*
X167198446Y-125409342D02*
X167150827Y-125504580D01*
X167150827Y-125504580D02*
X167103208Y-125552200D01*
X167103208Y-125552200D02*
X167007970Y-125599819D01*
X167007970Y-125599819D02*
X166865113Y-125599819D01*
X168055589Y-124933152D02*
X168055589Y-125742676D01*
X168055589Y-125742676D02*
X168007970Y-125837914D01*
X168007970Y-125837914D02*
X167960351Y-125885533D01*
X167960351Y-125885533D02*
X167865113Y-125933152D01*
X167865113Y-125933152D02*
X167722256Y-125933152D01*
X167722256Y-125933152D02*
X167627018Y-125885533D01*
X168055589Y-125552200D02*
X167960351Y-125599819D01*
X167960351Y-125599819D02*
X167769875Y-125599819D01*
X167769875Y-125599819D02*
X167674637Y-125552200D01*
X167674637Y-125552200D02*
X167627018Y-125504580D01*
X167627018Y-125504580D02*
X167579399Y-125409342D01*
X167579399Y-125409342D02*
X167579399Y-125123628D01*
X167579399Y-125123628D02*
X167627018Y-125028390D01*
X167627018Y-125028390D02*
X167674637Y-124980771D01*
X167674637Y-124980771D02*
X167769875Y-124933152D01*
X167769875Y-124933152D02*
X167960351Y-124933152D01*
X167960351Y-124933152D02*
X168055589Y-124980771D01*
X169246066Y-124695057D02*
X169293685Y-124647438D01*
X169293685Y-124647438D02*
X169388923Y-124599819D01*
X169388923Y-124599819D02*
X169627018Y-124599819D01*
X169627018Y-124599819D02*
X169722256Y-124647438D01*
X169722256Y-124647438D02*
X169769875Y-124695057D01*
X169769875Y-124695057D02*
X169817494Y-124790295D01*
X169817494Y-124790295D02*
X169817494Y-124885533D01*
X169817494Y-124885533D02*
X169769875Y-125028390D01*
X169769875Y-125028390D02*
X169198447Y-125599819D01*
X169198447Y-125599819D02*
X169817494Y-125599819D01*
X74330112Y-122536009D02*
X74472969Y-122583628D01*
X74472969Y-122583628D02*
X74520588Y-122631247D01*
X74520588Y-122631247D02*
X74568207Y-122726485D01*
X74568207Y-122726485D02*
X74568207Y-122869342D01*
X74568207Y-122869342D02*
X74520588Y-122964580D01*
X74520588Y-122964580D02*
X74472969Y-123012200D01*
X74472969Y-123012200D02*
X74377731Y-123059819D01*
X74377731Y-123059819D02*
X73996779Y-123059819D01*
X73996779Y-123059819D02*
X73996779Y-122059819D01*
X73996779Y-122059819D02*
X74330112Y-122059819D01*
X74330112Y-122059819D02*
X74425350Y-122107438D01*
X74425350Y-122107438D02*
X74472969Y-122155057D01*
X74472969Y-122155057D02*
X74520588Y-122250295D01*
X74520588Y-122250295D02*
X74520588Y-122345533D01*
X74520588Y-122345533D02*
X74472969Y-122440771D01*
X74472969Y-122440771D02*
X74425350Y-122488390D01*
X74425350Y-122488390D02*
X74330112Y-122536009D01*
X74330112Y-122536009D02*
X73996779Y-122536009D01*
X74853922Y-122059819D02*
X75425350Y-122059819D01*
X75139636Y-123059819D02*
X75139636Y-122059819D01*
X75758684Y-123059819D02*
X75758684Y-122059819D01*
X75758684Y-122059819D02*
X76330112Y-123059819D01*
X76330112Y-123059819D02*
X76330112Y-122059819D01*
X77330112Y-123059819D02*
X76758684Y-123059819D01*
X77044398Y-123059819D02*
X77044398Y-122059819D01*
X77044398Y-122059819D02*
X76949160Y-122202676D01*
X76949160Y-122202676D02*
X76853922Y-122297914D01*
X76853922Y-122297914D02*
X76758684Y-122345533D01*
X160293207Y-63274580D02*
X160245588Y-63322200D01*
X160245588Y-63322200D02*
X160102731Y-63369819D01*
X160102731Y-63369819D02*
X160007493Y-63369819D01*
X160007493Y-63369819D02*
X159864636Y-63322200D01*
X159864636Y-63322200D02*
X159769398Y-63226961D01*
X159769398Y-63226961D02*
X159721779Y-63131723D01*
X159721779Y-63131723D02*
X159674160Y-62941247D01*
X159674160Y-62941247D02*
X159674160Y-62798390D01*
X159674160Y-62798390D02*
X159721779Y-62607914D01*
X159721779Y-62607914D02*
X159769398Y-62512676D01*
X159769398Y-62512676D02*
X159864636Y-62417438D01*
X159864636Y-62417438D02*
X160007493Y-62369819D01*
X160007493Y-62369819D02*
X160102731Y-62369819D01*
X160102731Y-62369819D02*
X160245588Y-62417438D01*
X160245588Y-62417438D02*
X160293207Y-62465057D01*
X160674160Y-63084104D02*
X161150350Y-63084104D01*
X160578922Y-63369819D02*
X160912255Y-62369819D01*
X160912255Y-62369819D02*
X161245588Y-63369819D01*
X161578922Y-63369819D02*
X161578922Y-62369819D01*
X161578922Y-62369819D02*
X162150350Y-63369819D01*
X162150350Y-63369819D02*
X162150350Y-62369819D01*
X163912255Y-63369819D02*
X163340827Y-63369819D01*
X163626541Y-63369819D02*
X163626541Y-62369819D01*
X163626541Y-62369819D02*
X163531303Y-62512676D01*
X163531303Y-62512676D02*
X163436065Y-62607914D01*
X163436065Y-62607914D02*
X163340827Y-62655533D01*
X195354580Y-108946792D02*
X195402200Y-108994411D01*
X195402200Y-108994411D02*
X195449819Y-109137268D01*
X195449819Y-109137268D02*
X195449819Y-109232506D01*
X195449819Y-109232506D02*
X195402200Y-109375363D01*
X195402200Y-109375363D02*
X195306961Y-109470601D01*
X195306961Y-109470601D02*
X195211723Y-109518220D01*
X195211723Y-109518220D02*
X195021247Y-109565839D01*
X195021247Y-109565839D02*
X194878390Y-109565839D01*
X194878390Y-109565839D02*
X194687914Y-109518220D01*
X194687914Y-109518220D02*
X194592676Y-109470601D01*
X194592676Y-109470601D02*
X194497438Y-109375363D01*
X194497438Y-109375363D02*
X194449819Y-109232506D01*
X194449819Y-109232506D02*
X194449819Y-109137268D01*
X194449819Y-109137268D02*
X194497438Y-108994411D01*
X194497438Y-108994411D02*
X194545057Y-108946792D01*
X195164104Y-108565839D02*
X195164104Y-108089649D01*
X195449819Y-108661077D02*
X194449819Y-108327744D01*
X194449819Y-108327744D02*
X195449819Y-107994411D01*
X195449819Y-107661077D02*
X194449819Y-107661077D01*
X194449819Y-107661077D02*
X195449819Y-107089649D01*
X195449819Y-107089649D02*
X194449819Y-107089649D01*
X194545057Y-105899172D02*
X194497438Y-105851553D01*
X194497438Y-105851553D02*
X194449819Y-105756315D01*
X194449819Y-105756315D02*
X194449819Y-105518220D01*
X194449819Y-105518220D02*
X194497438Y-105422982D01*
X194497438Y-105422982D02*
X194545057Y-105375363D01*
X194545057Y-105375363D02*
X194640295Y-105327744D01*
X194640295Y-105327744D02*
X194735533Y-105327744D01*
X194735533Y-105327744D02*
X194878390Y-105375363D01*
X194878390Y-105375363D02*
X195449819Y-105946791D01*
X195449819Y-105946791D02*
X195449819Y-105327744D01*
X191170112Y-37700009D02*
X191312969Y-37747628D01*
X191312969Y-37747628D02*
X191360588Y-37795247D01*
X191360588Y-37795247D02*
X191408207Y-37890485D01*
X191408207Y-37890485D02*
X191408207Y-38033342D01*
X191408207Y-38033342D02*
X191360588Y-38128580D01*
X191360588Y-38128580D02*
X191312969Y-38176200D01*
X191312969Y-38176200D02*
X191217731Y-38223819D01*
X191217731Y-38223819D02*
X190836779Y-38223819D01*
X190836779Y-38223819D02*
X190836779Y-37223819D01*
X190836779Y-37223819D02*
X191170112Y-37223819D01*
X191170112Y-37223819D02*
X191265350Y-37271438D01*
X191265350Y-37271438D02*
X191312969Y-37319057D01*
X191312969Y-37319057D02*
X191360588Y-37414295D01*
X191360588Y-37414295D02*
X191360588Y-37509533D01*
X191360588Y-37509533D02*
X191312969Y-37604771D01*
X191312969Y-37604771D02*
X191265350Y-37652390D01*
X191265350Y-37652390D02*
X191170112Y-37700009D01*
X191170112Y-37700009D02*
X190836779Y-37700009D01*
X191979636Y-38223819D02*
X191884398Y-38176200D01*
X191884398Y-38176200D02*
X191836779Y-38128580D01*
X191836779Y-38128580D02*
X191789160Y-38033342D01*
X191789160Y-38033342D02*
X191789160Y-37747628D01*
X191789160Y-37747628D02*
X191836779Y-37652390D01*
X191836779Y-37652390D02*
X191884398Y-37604771D01*
X191884398Y-37604771D02*
X191979636Y-37557152D01*
X191979636Y-37557152D02*
X192122493Y-37557152D01*
X192122493Y-37557152D02*
X192217731Y-37604771D01*
X192217731Y-37604771D02*
X192265350Y-37652390D01*
X192265350Y-37652390D02*
X192312969Y-37747628D01*
X192312969Y-37747628D02*
X192312969Y-38033342D01*
X192312969Y-38033342D02*
X192265350Y-38128580D01*
X192265350Y-38128580D02*
X192217731Y-38176200D01*
X192217731Y-38176200D02*
X192122493Y-38223819D01*
X192122493Y-38223819D02*
X191979636Y-38223819D01*
X192884398Y-38223819D02*
X192789160Y-38176200D01*
X192789160Y-38176200D02*
X192741541Y-38128580D01*
X192741541Y-38128580D02*
X192693922Y-38033342D01*
X192693922Y-38033342D02*
X192693922Y-37747628D01*
X192693922Y-37747628D02*
X192741541Y-37652390D01*
X192741541Y-37652390D02*
X192789160Y-37604771D01*
X192789160Y-37604771D02*
X192884398Y-37557152D01*
X192884398Y-37557152D02*
X193027255Y-37557152D01*
X193027255Y-37557152D02*
X193122493Y-37604771D01*
X193122493Y-37604771D02*
X193170112Y-37652390D01*
X193170112Y-37652390D02*
X193217731Y-37747628D01*
X193217731Y-37747628D02*
X193217731Y-38033342D01*
X193217731Y-38033342D02*
X193170112Y-38128580D01*
X193170112Y-38128580D02*
X193122493Y-38176200D01*
X193122493Y-38176200D02*
X193027255Y-38223819D01*
X193027255Y-38223819D02*
X192884398Y-38223819D01*
X193503446Y-37557152D02*
X193884398Y-37557152D01*
X193646303Y-37223819D02*
X193646303Y-38080961D01*
X193646303Y-38080961D02*
X193693922Y-38176200D01*
X193693922Y-38176200D02*
X193789160Y-38223819D01*
X193789160Y-38223819D02*
X193884398Y-38223819D01*
X194408208Y-37223819D02*
X194503446Y-37223819D01*
X194503446Y-37223819D02*
X194598684Y-37271438D01*
X194598684Y-37271438D02*
X194646303Y-37319057D01*
X194646303Y-37319057D02*
X194693922Y-37414295D01*
X194693922Y-37414295D02*
X194741541Y-37604771D01*
X194741541Y-37604771D02*
X194741541Y-37842866D01*
X194741541Y-37842866D02*
X194693922Y-38033342D01*
X194693922Y-38033342D02*
X194646303Y-38128580D01*
X194646303Y-38128580D02*
X194598684Y-38176200D01*
X194598684Y-38176200D02*
X194503446Y-38223819D01*
X194503446Y-38223819D02*
X194408208Y-38223819D01*
X194408208Y-38223819D02*
X194312970Y-38176200D01*
X194312970Y-38176200D02*
X194265351Y-38128580D01*
X194265351Y-38128580D02*
X194217732Y-38033342D01*
X194217732Y-38033342D02*
X194170113Y-37842866D01*
X194170113Y-37842866D02*
X194170113Y-37604771D01*
X194170113Y-37604771D02*
X194217732Y-37414295D01*
X194217732Y-37414295D02*
X194265351Y-37319057D01*
X194265351Y-37319057D02*
X194312970Y-37271438D01*
X194312970Y-37271438D02*
X194408208Y-37223819D01*
D11*
%TO.C,U6*%
X186757500Y-124958750D02*
X192767500Y-124958750D01*
X189007500Y-131778750D02*
X192767500Y-131778750D01*
X192767500Y-124958750D02*
X192767500Y-126218750D01*
X192767500Y-131778750D02*
X192767500Y-130518750D01*
%TO.C,R5*%
X192546500Y-58165276D02*
X192546500Y-58674724D01*
X191501500Y-58165276D02*
X191501500Y-58674724D01*
%TO.C,J1*%
X174125000Y-150230000D02*
X174125000Y-135130000D01*
X174125000Y-135130000D02*
X173300000Y-135130000D01*
X173900000Y-134480000D02*
X173300000Y-134180000D01*
X173900000Y-133880000D02*
X173900000Y-134480000D01*
X173300000Y-134180000D02*
X173900000Y-133880000D01*
X171100000Y-132005000D02*
X171100000Y-130855000D01*
X170500000Y-132005000D02*
X170500000Y-130855000D01*
X168625000Y-135130000D02*
X167275000Y-135130000D01*
X165400000Y-132005000D02*
X165400000Y-130855000D01*
X165100000Y-150230000D02*
X174125000Y-150230000D01*
X165100000Y-150230000D02*
X156075000Y-150230000D01*
X164800000Y-132005000D02*
X164800000Y-130855000D01*
X162925000Y-135130000D02*
X161575000Y-135130000D01*
X159700000Y-132005000D02*
X159700000Y-130855000D01*
X159100000Y-132005000D02*
X159100000Y-130855000D01*
X156075000Y-150230000D02*
X156075000Y-135130000D01*
X156075000Y-135130000D02*
X156900000Y-135130000D01*
X172400000Y-141480000D02*
G75*
G03*
X172400000Y-141480000I-1600000J0D01*
G01*
X161000000Y-141480000D02*
G75*
G03*
X161000000Y-141480000I-1600000J0D01*
G01*
%TO.C,R14*%
X108443500Y-74618474D02*
X108443500Y-74109026D01*
X109488500Y-74618474D02*
X109488500Y-74109026D01*
%TO.C,C29*%
X174136267Y-89410000D02*
X173843733Y-89410000D01*
X174136267Y-88390000D02*
X173843733Y-88390000D01*
%TO.C,D5*%
X181855000Y-132615000D02*
X181855000Y-134085000D01*
X181855000Y-134085000D02*
X184315000Y-134085000D01*
X184315000Y-132615000D02*
X181855000Y-132615000D01*
%TO.C,J8*%
X200943750Y-63817500D02*
X199613750Y-63817500D01*
X200943750Y-62487500D02*
X200943750Y-63817500D01*
X200943750Y-61217500D02*
X200943750Y-50997500D01*
X200943750Y-61217500D02*
X198343750Y-61217500D01*
X200943750Y-50997500D02*
X195743750Y-50997500D01*
X198343750Y-63817500D02*
X195743750Y-63817500D01*
X198343750Y-61217500D02*
X198343750Y-63817500D01*
X195743750Y-63817500D02*
X195743750Y-50997500D01*
%TO.C,J16*%
X89515000Y-149245000D02*
X89515000Y-149985000D01*
X89515000Y-149985000D02*
X90015000Y-149985000D01*
X89755000Y-139824000D02*
X89755000Y-149745000D01*
X89755000Y-139824000D02*
X114875000Y-139824000D01*
X89755000Y-142784000D02*
X114875000Y-142784000D01*
X89755000Y-147685000D02*
X114875000Y-147685000D01*
X89755000Y-149185000D02*
X114875000Y-149185000D01*
X89755000Y-149745000D02*
X114875000Y-149745000D01*
X96088000Y-146108000D02*
X96041000Y-146154000D01*
X96281000Y-146324000D02*
X96246000Y-146359000D01*
X98385000Y-143810000D02*
X98350000Y-143846000D01*
X98590000Y-144016000D02*
X98543000Y-144062000D01*
X101088000Y-146108000D02*
X101041000Y-146154000D01*
X101281000Y-146324000D02*
X101246000Y-146359000D01*
X103385000Y-143810000D02*
X103350000Y-143846000D01*
X103590000Y-144016000D02*
X103543000Y-144062000D01*
X106088000Y-146108000D02*
X106041000Y-146154000D01*
X106281000Y-146324000D02*
X106246000Y-146359000D01*
X108385000Y-143810000D02*
X108350000Y-143846000D01*
X108590000Y-144016000D02*
X108543000Y-144062000D01*
X111088000Y-146108000D02*
X111041000Y-146154000D01*
X111281000Y-146324000D02*
X111246000Y-146359000D01*
X113385000Y-143810000D02*
X113350000Y-143846000D01*
X113590000Y-144016000D02*
X113543000Y-144062000D01*
X114875000Y-139824000D02*
X114875000Y-149745000D01*
X90780001Y-144401001D02*
G75*
G03*
X90779574Y-145768042I1534992J-684000D01*
G01*
X92998999Y-143550001D02*
G75*
G03*
X91631958Y-143549574I-684000J-1534992D01*
G01*
X91631000Y-146619999D02*
G75*
G03*
X92343805Y-146765252I683999J1535000D01*
G01*
X92315000Y-146764999D02*
G75*
G03*
X92998318Y-146619755I0J1679999D01*
G01*
X93850000Y-145769000D02*
G75*
G03*
X93850426Y-144401958I-1535000J684000D01*
G01*
X98995000Y-145085000D02*
G75*
G03*
X98995000Y-145085000I-1680000J0D01*
G01*
X103995000Y-145085000D02*
G75*
G03*
X103995000Y-145085000I-1680000J0D01*
G01*
X108995000Y-145085000D02*
G75*
G03*
X108995000Y-145085000I-1680000J0D01*
G01*
X113995000Y-145085000D02*
G75*
G03*
X113995000Y-145085000I-1680000J0D01*
G01*
%TO.C,C2*%
X124970000Y-99548733D02*
X124970000Y-99841267D01*
X123950000Y-99548733D02*
X123950000Y-99841267D01*
%TO.C,J3*%
X68845000Y-117118750D02*
X83945000Y-117118750D01*
X83945000Y-117118750D02*
X83945000Y-116293750D01*
X84595000Y-116893750D02*
X84895000Y-116293750D01*
X85195000Y-116893750D02*
X84595000Y-116893750D01*
X84895000Y-116293750D02*
X85195000Y-116893750D01*
X87070000Y-114093750D02*
X88220000Y-114093750D01*
X87070000Y-113493750D02*
X88220000Y-113493750D01*
X83945000Y-111618750D02*
X83945000Y-110268750D01*
X87070000Y-108393750D02*
X88220000Y-108393750D01*
X68845000Y-108093750D02*
X68845000Y-117118750D01*
X68845000Y-108093750D02*
X68845000Y-99068750D01*
X87070000Y-107793750D02*
X88220000Y-107793750D01*
X83945000Y-105918750D02*
X83945000Y-104568750D01*
X87070000Y-102693750D02*
X88220000Y-102693750D01*
X87070000Y-102093750D02*
X88220000Y-102093750D01*
X68845000Y-99068750D02*
X83945000Y-99068750D01*
X83945000Y-99068750D02*
X83945000Y-99893750D01*
X79195000Y-113793750D02*
G75*
G03*
X79195000Y-113793750I-1600000J0D01*
G01*
X79195000Y-102393750D02*
G75*
G03*
X79195000Y-102393750I-1600000J0D01*
G01*
%TO.C,D4*%
X186300000Y-121185000D02*
X186300000Y-122655000D01*
X186300000Y-122655000D02*
X188760000Y-122655000D01*
X188760000Y-121185000D02*
X186300000Y-121185000D01*
%TO.C,D3*%
X105849750Y-72055000D02*
X107319750Y-72055000D01*
X107319750Y-72055000D02*
X107319750Y-69595000D01*
X105849750Y-69595000D02*
X105849750Y-72055000D01*
%TO.C,SW1*%
X204498000Y-40838200D02*
X203098000Y-40838200D01*
X204498000Y-37038200D02*
X204498000Y-40838200D01*
X204498000Y-37038200D02*
X204498000Y-37038200D01*
X202798000Y-37038200D02*
X204498000Y-37038200D01*
X202798000Y-36738200D02*
X202798000Y-37038200D01*
X201998000Y-37038200D02*
X201998000Y-36738200D01*
X201998000Y-36738200D02*
X202798000Y-36738200D01*
X201698000Y-40838200D02*
X201698000Y-40838200D01*
X200598000Y-40838200D02*
X201698000Y-40838200D01*
X200298000Y-37038200D02*
X201998000Y-37038200D01*
X200298000Y-36738200D02*
X200298000Y-37038200D01*
X199498000Y-37038200D02*
X199498000Y-36738200D01*
X199498000Y-36738200D02*
X200298000Y-36738200D01*
X199198000Y-40838200D02*
X199198000Y-40838200D01*
X198098000Y-40838200D02*
X199198000Y-40838200D01*
X197798000Y-37038200D02*
X199498000Y-37038200D01*
X197798000Y-36738200D02*
X197798000Y-37038200D01*
X196998000Y-37038200D02*
X196998000Y-36738200D01*
X196998000Y-36738200D02*
X197798000Y-36738200D01*
X196698000Y-40838200D02*
X195298000Y-40838200D01*
X195298000Y-40838200D02*
X195298000Y-37038200D01*
X195298000Y-37038200D02*
X196998000Y-37038200D01*
%TO.C,C12*%
X169961250Y-101234983D02*
X169961250Y-101527517D01*
X168941250Y-101234983D02*
X168941250Y-101527517D01*
%TO.C,R7*%
X130828750Y-74648474D02*
X130828750Y-74139026D01*
X131873750Y-74648474D02*
X131873750Y-74139026D01*
%TO.C,R3*%
X192546500Y-65785276D02*
X192546500Y-66294724D01*
X191501500Y-65785276D02*
X191501500Y-66294724D01*
%TO.C,SW2*%
X128110000Y-143871250D02*
X134570000Y-143871250D01*
X128110000Y-143901250D02*
X128110000Y-143871250D01*
X128110000Y-145801250D02*
X128110000Y-148401250D01*
X128110000Y-150331250D02*
X128110000Y-150301250D01*
X128110000Y-150331250D02*
X134570000Y-150331250D01*
X134570000Y-143871250D02*
X134570000Y-143901250D01*
X134570000Y-145801250D02*
X134570000Y-148401250D01*
X134570000Y-150331250D02*
X134570000Y-150301250D01*
%TO.C,R10*%
X189977500Y-105918724D02*
X189977500Y-105409276D01*
X191022500Y-105918724D02*
X191022500Y-105409276D01*
%TO.C,R4*%
X194832500Y-58165276D02*
X194832500Y-58674724D01*
X193787500Y-58165276D02*
X193787500Y-58674724D01*
%TO.C,C3*%
X137941267Y-97030000D02*
X137648733Y-97030000D01*
X137941267Y-96010000D02*
X137648733Y-96010000D01*
%TO.C,C1*%
X127488733Y-103630000D02*
X127781267Y-103630000D01*
X127488733Y-104650000D02*
X127781267Y-104650000D01*
%TO.C,R6*%
X118922500Y-74648474D02*
X118922500Y-74139026D01*
X119967500Y-74648474D02*
X119967500Y-74139026D01*
%TO.C,C14*%
X169961250Y-88534983D02*
X169961250Y-88827517D01*
X168941250Y-88534983D02*
X168941250Y-88827517D01*
%TO.C,C22*%
X124458000Y-147466267D02*
X124458000Y-147173733D01*
X125478000Y-147466267D02*
X125478000Y-147173733D01*
%TO.C,C28*%
X85850000Y-128008767D02*
X85850000Y-127716233D01*
X86870000Y-128008767D02*
X86870000Y-127716233D01*
%TO.C,R17*%
X135867224Y-86247500D02*
X135357776Y-86247500D01*
X135867224Y-85202500D02*
X135357776Y-85202500D01*
%TO.C,U1*%
X143560000Y-88315000D02*
X143560000Y-89265000D01*
X143560000Y-89265000D02*
X142270000Y-89265000D01*
X143560000Y-108535000D02*
X143560000Y-107585000D01*
X144510000Y-88315000D02*
X143560000Y-88315000D01*
X144510000Y-108535000D02*
X143560000Y-108535000D01*
X162830000Y-88315000D02*
X163780000Y-88315000D01*
X162830000Y-108535000D02*
X163780000Y-108535000D01*
X163780000Y-88315000D02*
X163780000Y-89265000D01*
X163780000Y-108535000D02*
X163780000Y-107585000D01*
%TO.C,C10*%
X156897517Y-114591250D02*
X156604983Y-114591250D01*
X156897517Y-113571250D02*
X156604983Y-113571250D01*
%TO.C,R16*%
X187705276Y-123302500D02*
X188214724Y-123302500D01*
X187705276Y-124347500D02*
X188214724Y-124347500D01*
%TO.C,R8*%
X99305000Y-93090276D02*
X99305000Y-93599724D01*
X98260000Y-93090276D02*
X98260000Y-93599724D01*
%TO.C,Y1*%
X97191000Y-74682500D02*
X101691000Y-74682500D01*
X101691000Y-74682500D02*
X101691000Y-69282500D01*
%TO.C,D6*%
X107850000Y-48396000D02*
X109320000Y-48396000D01*
X109320000Y-48396000D02*
X109320000Y-45936000D01*
X107850000Y-45936000D02*
X107850000Y-48396000D01*
%TO.C,C8*%
X144291267Y-114591250D02*
X143998733Y-114591250D01*
X144291267Y-113571250D02*
X143998733Y-113571250D01*
%TO.C,C9*%
X152135017Y-114591250D02*
X151842483Y-114591250D01*
X152135017Y-113571250D02*
X151842483Y-113571250D01*
%TO.C,C25*%
X102106000Y-72128767D02*
X102106000Y-71836233D01*
X103126000Y-72128767D02*
X103126000Y-71836233D01*
%TO.C,C7*%
X137053767Y-92366250D02*
X136761233Y-92366250D01*
X137053767Y-91346250D02*
X136761233Y-91346250D01*
%TO.C,J15*%
X178495000Y-148940000D02*
X178495000Y-149680000D01*
X178495000Y-149680000D02*
X178995000Y-149680000D01*
X178735000Y-139519000D02*
X178735000Y-149440000D01*
X178735000Y-139519000D02*
X203855000Y-139519000D01*
X178735000Y-142479000D02*
X203855000Y-142479000D01*
X178735000Y-147380000D02*
X203855000Y-147380000D01*
X178735000Y-148880000D02*
X203855000Y-148880000D01*
X178735000Y-149440000D02*
X203855000Y-149440000D01*
X185068000Y-145803000D02*
X185021000Y-145849000D01*
X185261000Y-146019000D02*
X185226000Y-146054000D01*
X187365000Y-143505000D02*
X187330000Y-143541000D01*
X187570000Y-143711000D02*
X187523000Y-143757000D01*
X190068000Y-145803000D02*
X190021000Y-145849000D01*
X190261000Y-146019000D02*
X190226000Y-146054000D01*
X192365000Y-143505000D02*
X192330000Y-143541000D01*
X192570000Y-143711000D02*
X192523000Y-143757000D01*
X195068000Y-145803000D02*
X195021000Y-145849000D01*
X195261000Y-146019000D02*
X195226000Y-146054000D01*
X197365000Y-143505000D02*
X197330000Y-143541000D01*
X197570000Y-143711000D02*
X197523000Y-143757000D01*
X200068000Y-145803000D02*
X200021000Y-145849000D01*
X200261000Y-146019000D02*
X200226000Y-146054000D01*
X202365000Y-143505000D02*
X202330000Y-143541000D01*
X202570000Y-143711000D02*
X202523000Y-143757000D01*
X203855000Y-139519000D02*
X203855000Y-149440000D01*
X179760001Y-144096001D02*
G75*
G03*
X179759574Y-145463042I1534992J-684000D01*
G01*
X181978999Y-143245001D02*
G75*
G03*
X180611958Y-143244574I-684000J-1534992D01*
G01*
X180611000Y-146314999D02*
G75*
G03*
X181323805Y-146460252I683999J1535000D01*
G01*
X181295000Y-146459999D02*
G75*
G03*
X181978318Y-146314755I0J1679999D01*
G01*
X182830000Y-145464000D02*
G75*
G03*
X182830426Y-144096958I-1535000J684000D01*
G01*
X187975000Y-144780000D02*
G75*
G03*
X187975000Y-144780000I-1680000J0D01*
G01*
X192975000Y-144780000D02*
G75*
G03*
X192975000Y-144780000I-1680000J0D01*
G01*
X197975000Y-144780000D02*
G75*
G03*
X197975000Y-144780000I-1680000J0D01*
G01*
X202975000Y-144780000D02*
G75*
G03*
X202975000Y-144780000I-1680000J0D01*
G01*
%TO.C,J2*%
X155075000Y-150230000D02*
X155075000Y-135130000D01*
X155075000Y-135130000D02*
X154250000Y-135130000D01*
X154850000Y-134480000D02*
X154250000Y-134180000D01*
X154850000Y-133880000D02*
X154850000Y-134480000D01*
X154250000Y-134180000D02*
X154850000Y-133880000D01*
X152050000Y-132005000D02*
X152050000Y-130855000D01*
X151450000Y-132005000D02*
X151450000Y-130855000D01*
X149575000Y-135130000D02*
X148225000Y-135130000D01*
X146350000Y-132005000D02*
X146350000Y-130855000D01*
X146050000Y-150230000D02*
X155075000Y-150230000D01*
X146050000Y-150230000D02*
X137025000Y-150230000D01*
X145750000Y-132005000D02*
X145750000Y-130855000D01*
X143875000Y-135130000D02*
X142525000Y-135130000D01*
X140650000Y-132005000D02*
X140650000Y-130855000D01*
X140050000Y-132005000D02*
X140050000Y-130855000D01*
X137025000Y-150230000D02*
X137025000Y-135130000D01*
X137025000Y-135130000D02*
X137850000Y-135130000D01*
X153350000Y-141480000D02*
G75*
G03*
X153350000Y-141480000I-1600000J0D01*
G01*
X141950000Y-141480000D02*
G75*
G03*
X141950000Y-141480000I-1600000J0D01*
G01*
%TO.C,J10*%
X172015000Y-37477500D02*
X172015000Y-52577500D01*
X172015000Y-52577500D02*
X172840000Y-52577500D01*
X172240000Y-53227500D02*
X172840000Y-53527500D01*
X172240000Y-53827500D02*
X172240000Y-53227500D01*
X172840000Y-53527500D02*
X172240000Y-53827500D01*
X175040000Y-55702500D02*
X175040000Y-56852500D01*
X175640000Y-55702500D02*
X175640000Y-56852500D01*
X177515000Y-52577500D02*
X178865000Y-52577500D01*
X180740000Y-55702500D02*
X180740000Y-56852500D01*
X181040000Y-37477500D02*
X172015000Y-37477500D01*
X181040000Y-37477500D02*
X190065000Y-37477500D01*
X181340000Y-55702500D02*
X181340000Y-56852500D01*
X183215000Y-52577500D02*
X184565000Y-52577500D01*
X186440000Y-55702500D02*
X186440000Y-56852500D01*
X187040000Y-55702500D02*
X187040000Y-56852500D01*
X190065000Y-37477500D02*
X190065000Y-52577500D01*
X190065000Y-52577500D02*
X189240000Y-52577500D01*
X176940000Y-46227500D02*
G75*
G03*
X176940000Y-46227500I-1600000J0D01*
G01*
X188340000Y-46227500D02*
G75*
G03*
X188340000Y-46227500I-1600000J0D01*
G01*
%TO.C,C26*%
X182435000Y-130102517D02*
X182435000Y-129809983D01*
X183455000Y-130102517D02*
X183455000Y-129809983D01*
%TO.C,P2*%
X217225000Y-129595000D02*
X218125000Y-129595000D01*
X214145000Y-129475000D02*
X214145000Y-120525000D01*
X217225000Y-120405000D02*
X218125000Y-120405000D01*
%TO.C,C23*%
X96010000Y-59074267D02*
X96010000Y-58781733D01*
X97030000Y-59074267D02*
X97030000Y-58781733D01*
%TO.C,R1*%
X133350724Y-102757500D02*
X132841276Y-102757500D01*
X133350724Y-101712500D02*
X132841276Y-101712500D01*
%TO.C,C5*%
X143403767Y-82841250D02*
X143111233Y-82841250D01*
X143403767Y-81821250D02*
X143111233Y-81821250D01*
%TO.C,U5*%
X98138000Y-62280000D02*
X98373000Y-62280000D01*
X98373000Y-62280000D02*
X98373000Y-64095000D01*
X111158000Y-62280000D02*
X110923000Y-62280000D01*
X98138000Y-58420000D02*
X98138000Y-62280000D01*
X98138000Y-58420000D02*
X98138000Y-54560000D01*
X111158000Y-58420000D02*
X111158000Y-62280000D01*
X111158000Y-58420000D02*
X111158000Y-54560000D01*
X98138000Y-54560000D02*
X98373000Y-54560000D01*
X111158000Y-54560000D02*
X110923000Y-54560000D01*
%TO.C,C13*%
X169961250Y-96472483D02*
X169961250Y-96765017D01*
X168941250Y-96472483D02*
X168941250Y-96765017D01*
%TO.C,R9*%
X99305000Y-82930276D02*
X99305000Y-83439724D01*
X98260000Y-82930276D02*
X98260000Y-83439724D01*
%TO.C,X1*%
X125635000Y-98178750D02*
X125635000Y-102678750D01*
X125635000Y-102678750D02*
X131035000Y-102678750D01*
%TO.C,C24*%
X96776000Y-71836233D02*
X96776000Y-72128767D01*
X95756000Y-71836233D02*
X95756000Y-72128767D01*
%TO.C,R12*%
X105932500Y-114680276D02*
X105932500Y-115189724D01*
X104887500Y-114680276D02*
X104887500Y-115189724D01*
%TO.C,C6*%
X137122517Y-103478750D02*
X136829983Y-103478750D01*
X137122517Y-102458750D02*
X136829983Y-102458750D01*
%TO.C,G\u002A\u002A\u002A*%
G36*
X119842729Y-135215000D02*
G01*
X119822697Y-135235000D01*
X119802665Y-135215000D01*
X119822697Y-135195000D01*
X119842729Y-135215000D01*
G37*
G36*
X119423834Y-135074832D02*
G01*
X119417484Y-135091944D01*
X119406859Y-135146901D01*
X119447107Y-135146202D01*
X119453891Y-135143691D01*
X119520541Y-135139226D01*
X119541626Y-135153983D01*
X119545960Y-135199358D01*
X119500646Y-135211263D01*
X119430743Y-135185152D01*
X119417952Y-135176411D01*
X119367707Y-135125365D01*
X119383833Y-135078915D01*
X119394392Y-135067692D01*
X119430015Y-135039015D01*
X119423834Y-135074832D01*
G37*
G36*
X100641080Y-123973264D02*
G01*
X100753156Y-123983158D01*
X100809534Y-123997965D01*
X100812760Y-124002852D01*
X100800142Y-124032033D01*
X100753025Y-124053037D01*
X100657512Y-124069029D01*
X100499709Y-124083174D01*
X100442176Y-124087255D01*
X100297168Y-124094641D01*
X100214976Y-124089855D01*
X100178821Y-124069905D01*
X100171751Y-124039011D01*
X100183033Y-124005201D01*
X100227087Y-123984676D01*
X100319220Y-123974151D01*
X100474740Y-123970339D01*
X100492255Y-123970214D01*
X100641080Y-123973264D01*
G37*
G36*
X103776732Y-126069280D02*
G01*
X103837824Y-126115281D01*
X103922413Y-126239959D01*
X103983101Y-126423719D01*
X104014576Y-126647824D01*
X104017807Y-126750352D01*
X104011193Y-126892493D01*
X103992949Y-126957259D01*
X103965478Y-126946040D01*
X103931180Y-126860224D01*
X103892456Y-126701201D01*
X103887127Y-126674743D01*
X103849015Y-126505731D01*
X103806002Y-126351480D01*
X103766545Y-126241853D01*
X103761532Y-126231256D01*
X103721449Y-126123480D01*
X103728270Y-126066821D01*
X103776732Y-126069280D01*
G37*
G36*
X106236703Y-126394461D02*
G01*
X106238576Y-126468445D01*
X106217628Y-126520705D01*
X106180976Y-126602319D01*
X106129290Y-126734855D01*
X106072274Y-126893142D01*
X106057913Y-126935000D01*
X106000368Y-127093461D01*
X105959029Y-127179659D01*
X105930921Y-127199005D01*
X105920651Y-127184698D01*
X105909530Y-127087208D01*
X105925110Y-126942195D01*
X105960874Y-126774940D01*
X106010308Y-126610722D01*
X106066897Y-126474822D01*
X106124124Y-126392520D01*
X106125013Y-126391773D01*
X106194495Y-126362843D01*
X106236703Y-126394461D01*
G37*
G36*
X101857636Y-122311608D02*
G01*
X101912791Y-122410149D01*
X101968504Y-122553700D01*
X102018308Y-122725337D01*
X102055733Y-122908137D01*
X102058603Y-122926768D01*
X102105021Y-123238368D01*
X102285888Y-123211288D01*
X102400669Y-123200266D01*
X102443410Y-123213132D01*
X102440086Y-123227293D01*
X102387035Y-123259049D01*
X102284966Y-123288181D01*
X102236762Y-123296827D01*
X102124931Y-123324485D01*
X102051063Y-123363029D01*
X102038638Y-123379138D01*
X101991727Y-123422803D01*
X101921901Y-123433061D01*
X101865973Y-123409762D01*
X101854400Y-123379897D01*
X101882693Y-123310656D01*
X101917886Y-123272189D01*
X101957448Y-123189928D01*
X101956273Y-123050507D01*
X101915851Y-122864752D01*
X101837677Y-122643491D01*
X101828044Y-122620311D01*
X101767244Y-122448132D01*
X101753247Y-122333385D01*
X101786215Y-122279132D01*
X101809506Y-122275000D01*
X101857636Y-122311608D01*
G37*
G36*
X99724821Y-120520031D02*
G01*
X99683311Y-120662953D01*
X99667624Y-120709081D01*
X99547953Y-121165535D01*
X99490850Y-121659170D01*
X99495918Y-122177692D01*
X99562759Y-122708804D01*
X99690979Y-123240211D01*
X99755622Y-123439402D01*
X99820043Y-123630332D01*
X99871076Y-123793385D01*
X99904544Y-123914247D01*
X99916267Y-123978605D01*
X99914839Y-123984839D01*
X99889005Y-123962033D01*
X99840078Y-123881405D01*
X99777090Y-123758423D01*
X99753603Y-123708689D01*
X99668085Y-123513339D01*
X99577805Y-123290616D01*
X99503619Y-123092349D01*
X99462369Y-122970479D01*
X99432742Y-122864691D01*
X99412821Y-122757887D01*
X99400691Y-122632973D01*
X99394436Y-122472852D01*
X99392142Y-122260429D01*
X99391868Y-122095000D01*
X99395478Y-121764952D01*
X99408235Y-121496424D01*
X99432825Y-121271193D01*
X99471932Y-121071040D01*
X99528243Y-120877743D01*
X99599665Y-120685000D01*
X99667163Y-120530611D01*
X99713012Y-120452536D01*
X99733476Y-120449451D01*
X99724821Y-120520031D01*
G37*
G36*
X109375890Y-129813864D02*
G01*
X109469433Y-129909076D01*
X109663144Y-130173361D01*
X109793652Y-130452997D01*
X109863413Y-130738522D01*
X109874885Y-131020477D01*
X109830522Y-131289400D01*
X109732783Y-131535831D01*
X109584123Y-131750309D01*
X109386998Y-131923374D01*
X109143866Y-132045565D01*
X108899863Y-132102744D01*
X108724279Y-132118564D01*
X108544322Y-132124862D01*
X108444779Y-132122600D01*
X108297618Y-132108840D01*
X108227138Y-132091782D01*
X108230050Y-132073108D01*
X108303062Y-132054496D01*
X108442887Y-132037628D01*
X108636523Y-132024654D01*
X108862294Y-132010110D01*
X109026404Y-131990195D01*
X109147289Y-131961725D01*
X109243384Y-131921517D01*
X109248029Y-131919056D01*
X109366568Y-131835316D01*
X109492271Y-131715550D01*
X109602548Y-131584476D01*
X109674812Y-131466810D01*
X109684642Y-131441288D01*
X109754589Y-131108978D01*
X109749060Y-130786370D01*
X109666922Y-130467730D01*
X109507043Y-130147323D01*
X109396468Y-129983120D01*
X109313865Y-129855975D01*
X109285754Y-129782490D01*
X109307855Y-129767006D01*
X109375890Y-129813864D01*
G37*
G36*
X100438985Y-128621863D02*
G01*
X100384001Y-128695981D01*
X100288952Y-128807647D01*
X100161934Y-128947153D01*
X100079266Y-129034436D01*
X99888041Y-129237602D01*
X99749102Y-129398776D01*
X99656600Y-129531013D01*
X99604684Y-129647373D01*
X99587503Y-129760914D01*
X99599209Y-129884694D01*
X99633380Y-130029676D01*
X99678226Y-130173768D01*
X99732352Y-130286158D01*
X99812545Y-130393808D01*
X99935591Y-130523683D01*
X99949612Y-130537653D01*
X100078966Y-130657846D01*
X100204706Y-130760677D01*
X100304215Y-130827989D01*
X100323063Y-130837460D01*
X100408874Y-130883074D01*
X100451240Y-130920674D01*
X100452192Y-130924764D01*
X100422048Y-130953491D01*
X100346360Y-130944259D01*
X100247243Y-130901964D01*
X100191782Y-130867113D01*
X99929671Y-130648481D01*
X99722730Y-130407826D01*
X99577659Y-130155603D01*
X99501163Y-129902261D01*
X99490710Y-129773900D01*
X99505982Y-129615076D01*
X99546455Y-129490688D01*
X99556391Y-129473900D01*
X99618694Y-129394408D01*
X99718847Y-129282275D01*
X99844584Y-129149623D01*
X99983636Y-129008576D01*
X100123733Y-128871256D01*
X100252609Y-128749787D01*
X100357994Y-128656293D01*
X100427621Y-128602897D01*
X100445805Y-128595000D01*
X100438985Y-128621863D01*
G37*
G36*
X119805285Y-134944819D02*
G01*
X119828728Y-134964743D01*
X119829853Y-134988273D01*
X119808856Y-134978819D01*
X119771181Y-134984335D01*
X119762602Y-135031383D01*
X119782198Y-135090827D01*
X119818645Y-135091017D01*
X119883439Y-135095496D01*
X119901135Y-135112273D01*
X119894024Y-135149102D01*
X119867115Y-135155000D01*
X119798664Y-135186191D01*
X119765811Y-135225000D01*
X119733533Y-135271300D01*
X119721945Y-135243095D01*
X119719764Y-135215000D01*
X119712627Y-135169854D01*
X119697480Y-135197398D01*
X119686236Y-135235000D01*
X119657920Y-135335000D01*
X119625802Y-135235000D01*
X119603037Y-135149042D01*
X119598017Y-135105000D01*
X119569715Y-135078467D01*
X119542255Y-135075000D01*
X119488963Y-135051976D01*
X119483093Y-135035000D01*
X119688802Y-135035000D01*
X119695098Y-135091785D01*
X119709009Y-135085000D01*
X119714301Y-135003106D01*
X119709009Y-134985000D01*
X119694386Y-134979975D01*
X119688802Y-135035000D01*
X119483093Y-135035000D01*
X119482161Y-135032304D01*
X119513611Y-135008007D01*
X119567304Y-135016589D01*
X119626855Y-135025037D01*
X119625034Y-134999285D01*
X119619027Y-134957276D01*
X119630033Y-134951939D01*
X119694402Y-134942372D01*
X119732396Y-134935502D01*
X119805285Y-134944819D01*
G37*
G36*
X111868044Y-121147122D02*
G01*
X111870173Y-121153972D01*
X111847504Y-121194349D01*
X111840126Y-121195807D01*
X111821864Y-121202348D01*
X111784686Y-121224820D01*
X111721496Y-121268394D01*
X111625197Y-121338240D01*
X111488693Y-121439531D01*
X111304889Y-121577438D01*
X111066687Y-121757131D01*
X110981150Y-121821781D01*
X110836753Y-121946292D01*
X110694122Y-122093740D01*
X110611646Y-122195506D01*
X110500756Y-122341562D01*
X110378015Y-122491505D01*
X110310133Y-122568724D01*
X110197854Y-122705073D01*
X110070589Y-122882380D01*
X109936291Y-123086880D01*
X109802915Y-123304808D01*
X109678414Y-123522400D01*
X109570741Y-123725892D01*
X109487852Y-123901519D01*
X109437699Y-124035518D01*
X109426325Y-124098176D01*
X109399470Y-124163922D01*
X109386262Y-124175000D01*
X109355285Y-124162148D01*
X109346199Y-124112773D01*
X109367349Y-124008384D01*
X109425560Y-123852119D01*
X109512972Y-123658347D01*
X109621726Y-123441437D01*
X109743964Y-123215759D01*
X109871825Y-122995682D01*
X109997450Y-122795575D01*
X110112981Y-122629808D01*
X110210557Y-122512751D01*
X110233224Y-122490987D01*
X110297835Y-122424586D01*
X110393785Y-122315624D01*
X110503146Y-122184633D01*
X110533245Y-122147407D01*
X110628631Y-122035497D01*
X110735338Y-121926339D01*
X110864504Y-121810458D01*
X111027267Y-121678379D01*
X111234767Y-121520627D01*
X111489574Y-121333934D01*
X111618126Y-121248339D01*
X111735069Y-121183464D01*
X111823882Y-121147121D01*
X111868044Y-121147122D01*
G37*
G36*
X109410517Y-124303874D02*
G01*
X109434489Y-124405780D01*
X109447537Y-124490580D01*
X109476834Y-124639452D01*
X109531093Y-124746510D01*
X109610593Y-124833200D01*
X109691530Y-124916127D01*
X109740338Y-124979075D01*
X109746829Y-124995554D01*
X109779939Y-125033151D01*
X109830357Y-125056077D01*
X109902764Y-125110881D01*
X109954923Y-125200082D01*
X109996481Y-125281526D01*
X110051227Y-125298410D01*
X110074179Y-125292830D01*
X110125190Y-125285057D01*
X110139070Y-125320015D01*
X110127612Y-125401522D01*
X110119985Y-125481950D01*
X110140187Y-125549211D01*
X110199998Y-125626842D01*
X110282053Y-125710052D01*
X110461279Y-125885104D01*
X110825190Y-125867733D01*
X111015214Y-125862336D01*
X111132822Y-125868330D01*
X111184987Y-125886263D01*
X111189101Y-125896349D01*
X111152544Y-125941757D01*
X111056764Y-125980889D01*
X110922600Y-126010715D01*
X110770889Y-126028207D01*
X110622469Y-126030335D01*
X110498178Y-126014070D01*
X110460993Y-126002188D01*
X110390522Y-125957247D01*
X110291658Y-125874671D01*
X110181290Y-125771233D01*
X110076306Y-125663712D01*
X109993597Y-125568882D01*
X109950051Y-125503519D01*
X109947145Y-125491792D01*
X109926225Y-125440628D01*
X109910265Y-125435000D01*
X109877085Y-125400468D01*
X109847432Y-125316906D01*
X109846393Y-125312297D01*
X109807688Y-125218063D01*
X109753067Y-125164645D01*
X109671834Y-125112823D01*
X109566568Y-125019245D01*
X109459338Y-124906941D01*
X109372214Y-124798940D01*
X109328154Y-124721249D01*
X109316601Y-124638400D01*
X109318392Y-124526808D01*
X109330495Y-124410370D01*
X109349879Y-124312988D01*
X109373512Y-124258559D01*
X109387222Y-124255592D01*
X109410517Y-124303874D01*
G37*
G36*
X100861877Y-132492695D02*
G01*
X100960628Y-132565441D01*
X101103217Y-132684848D01*
X101330588Y-132876151D01*
X101533810Y-133029558D01*
X101738264Y-133161557D01*
X101969328Y-133288637D01*
X102229029Y-133416233D01*
X102622100Y-133599174D01*
X102963197Y-133747905D01*
X103268045Y-133865962D01*
X103552366Y-133956885D01*
X103831883Y-134024212D01*
X104122321Y-134071481D01*
X104439403Y-134102229D01*
X104798851Y-134119996D01*
X105216390Y-134128319D01*
X105399984Y-134129779D01*
X105723303Y-134130429D01*
X105980409Y-134127797D01*
X106185174Y-134121142D01*
X106351471Y-134109725D01*
X106493171Y-134092806D01*
X106624148Y-134069647D01*
X106656953Y-134062771D01*
X107093341Y-133955080D01*
X107456123Y-133834619D01*
X107751213Y-133698435D01*
X107984529Y-133543574D01*
X108161983Y-133367082D01*
X108225278Y-133279680D01*
X108313779Y-133153278D01*
X108373586Y-133088573D01*
X108400997Y-133087606D01*
X108392312Y-133152422D01*
X108378666Y-133195042D01*
X108301174Y-133337643D01*
X108171264Y-133495789D01*
X108008443Y-133649768D01*
X107832218Y-133779867D01*
X107756198Y-133824076D01*
X107500181Y-133939829D01*
X107190000Y-134049140D01*
X106851598Y-134143841D01*
X106513335Y-134215346D01*
X106383853Y-134231600D01*
X106202720Y-134245880D01*
X105986096Y-134257796D01*
X105750143Y-134266957D01*
X105511022Y-134272972D01*
X105284892Y-134275451D01*
X105087916Y-134274001D01*
X104936253Y-134268234D01*
X104846065Y-134257757D01*
X104839101Y-134255840D01*
X104785535Y-134247065D01*
X104669339Y-134232678D01*
X104507649Y-134214676D01*
X104318281Y-134195125D01*
X103857830Y-134129750D01*
X103458388Y-134030196D01*
X103156451Y-133916040D01*
X103040168Y-133864619D01*
X102882237Y-133795495D01*
X102714589Y-133722640D01*
X102695725Y-133714478D01*
X102278009Y-133525503D01*
X101924631Y-133346109D01*
X101621822Y-133168038D01*
X101355813Y-132983033D01*
X101112833Y-132782835D01*
X101055657Y-132730908D01*
X100915166Y-132595586D01*
X100837282Y-132509573D01*
X100820141Y-132474674D01*
X100861877Y-132492695D01*
G37*
G36*
X103682392Y-123726779D02*
G01*
X103670397Y-123765758D01*
X103615849Y-123841723D01*
X103567124Y-123898001D01*
X103481230Y-123985527D01*
X103419623Y-124022437D01*
X103355555Y-124019793D01*
X103308295Y-124005039D01*
X103212383Y-123983346D01*
X103143179Y-124009910D01*
X103103597Y-124045548D01*
X103034775Y-124099528D01*
X102981383Y-124093826D01*
X102961000Y-124079031D01*
X102910294Y-124055598D01*
X102862594Y-124091616D01*
X102836150Y-124129076D01*
X102788911Y-124186837D01*
X102728825Y-124214331D01*
X102629477Y-124219698D01*
X102552756Y-124216403D01*
X102334615Y-124204299D01*
X102309734Y-124359649D01*
X102275712Y-124473387D01*
X102224355Y-124510636D01*
X102158896Y-124470183D01*
X102126945Y-124428185D01*
X102090049Y-124377591D01*
X102077616Y-124385938D01*
X102083410Y-124462432D01*
X102086366Y-124488077D01*
X102091739Y-124658389D01*
X102065267Y-124772794D01*
X102011884Y-124825075D01*
X101936525Y-124809019D01*
X101874432Y-124755000D01*
X101799282Y-124687127D01*
X101756559Y-124688389D01*
X101743915Y-124761131D01*
X101754243Y-124875000D01*
X101762861Y-125009617D01*
X101739532Y-125071767D01*
X101681373Y-125063533D01*
X101591490Y-124992654D01*
X101503698Y-124910308D01*
X101477971Y-125012654D01*
X101439260Y-125096387D01*
X101389471Y-125110577D01*
X101353612Y-125075000D01*
X101304440Y-125036686D01*
X101254695Y-125077379D01*
X101217738Y-125159744D01*
X101176839Y-125245084D01*
X101121557Y-125270394D01*
X101072179Y-125265020D01*
X100976837Y-125271187D01*
X100930121Y-125320276D01*
X100873832Y-125381201D01*
X100834168Y-125395000D01*
X100785621Y-125429049D01*
X100765468Y-125485000D01*
X100734773Y-125552870D01*
X100653870Y-125583674D01*
X100622460Y-125587534D01*
X100533774Y-125606167D01*
X100492614Y-125634715D01*
X100492255Y-125637534D01*
X100471024Y-125673896D01*
X100427492Y-125657998D01*
X100396384Y-125611728D01*
X100375020Y-125529215D01*
X100402673Y-125493143D01*
X100491265Y-125493680D01*
X100532318Y-125499639D01*
X100634718Y-125511609D01*
X100680791Y-125497985D01*
X100692439Y-125450498D01*
X100692571Y-125439122D01*
X100729007Y-125353658D01*
X100787265Y-125317074D01*
X100870605Y-125263961D01*
X100907827Y-125213821D01*
X100959218Y-125165221D01*
X101023703Y-125169069D01*
X101097665Y-125167998D01*
X101158563Y-125110349D01*
X101183316Y-125070532D01*
X101245532Y-124987783D01*
X101308920Y-124969289D01*
X101333315Y-124974915D01*
X101387181Y-124981562D01*
X101409667Y-124942468D01*
X101413706Y-124860056D01*
X101426445Y-124741933D01*
X101463682Y-124699177D01*
X101523949Y-124732535D01*
X101565723Y-124782693D01*
X101644596Y-124890799D01*
X101639325Y-124734234D01*
X101655771Y-124612731D01*
X101710953Y-124559764D01*
X101798000Y-124578093D01*
X101878006Y-124638352D01*
X101974590Y-124728945D01*
X101974590Y-124526870D01*
X101988524Y-124378374D01*
X102025608Y-124280354D01*
X102078770Y-124241855D01*
X102140932Y-124271924D01*
X102157946Y-124292430D01*
X102199095Y-124339257D01*
X102226311Y-124323438D01*
X102252777Y-124260920D01*
X102296379Y-124187549D01*
X102370983Y-124155628D01*
X102444339Y-124149077D01*
X102560380Y-124144092D01*
X102647533Y-124139599D01*
X102655662Y-124139077D01*
X102724408Y-124109581D01*
X102806797Y-124044092D01*
X102808580Y-124042323D01*
X102885795Y-123982135D01*
X102942344Y-123984794D01*
X102953501Y-123992816D01*
X103011320Y-124010401D01*
X103059440Y-123971214D01*
X103121184Y-123929637D01*
X103222307Y-123923056D01*
X103282488Y-123929598D01*
X103396629Y-123938039D01*
X103471120Y-123913806D01*
X103544249Y-123842802D01*
X103556113Y-123828854D01*
X103625881Y-123756516D01*
X103674370Y-123725120D01*
X103682392Y-123726779D01*
G37*
G36*
X102249341Y-125820295D02*
G01*
X102310969Y-125844727D01*
X102435442Y-125904202D01*
X102571440Y-125966221D01*
X102582546Y-125971126D01*
X102713775Y-126054607D01*
X102858240Y-126186026D01*
X102993749Y-126341561D01*
X103098114Y-126497394D01*
X103126345Y-126554885D01*
X103162942Y-126713249D01*
X103166594Y-126921242D01*
X103138870Y-127156298D01*
X103081341Y-127395849D01*
X103064157Y-127448920D01*
X103000555Y-127616948D01*
X102946741Y-127714186D01*
X102897318Y-127748394D01*
X102862456Y-127738997D01*
X102854521Y-127689018D01*
X102879028Y-127575517D01*
X102934041Y-127407231D01*
X102939091Y-127393331D01*
X103027764Y-127098075D01*
X103058880Y-126848135D01*
X103032471Y-126633203D01*
X102948570Y-126442972D01*
X102942166Y-126432831D01*
X102832513Y-126278084D01*
X102723589Y-126170592D01*
X102588971Y-126090016D01*
X102402238Y-126016017D01*
X102399330Y-126015002D01*
X102180954Y-125958364D01*
X101981284Y-125954623D01*
X101777184Y-126006622D01*
X101545519Y-126117201D01*
X101539421Y-126120603D01*
X101325614Y-126253080D01*
X101170760Y-126383430D01*
X101056269Y-126529680D01*
X100988368Y-126655000D01*
X100911259Y-126879834D01*
X100908060Y-127073859D01*
X100979192Y-127238146D01*
X101125081Y-127373770D01*
X101308991Y-127467639D01*
X101441193Y-127515005D01*
X101530560Y-127537258D01*
X101568263Y-127534373D01*
X101545469Y-127506325D01*
X101482188Y-127468130D01*
X101393323Y-127403152D01*
X101294291Y-127307082D01*
X101269254Y-127278455D01*
X101202839Y-127185159D01*
X101165118Y-127085904D01*
X101153915Y-127005000D01*
X101581586Y-127005000D01*
X101595522Y-127061698D01*
X101654085Y-127075000D01*
X101719839Y-127054755D01*
X101726584Y-127005000D01*
X101687080Y-126945491D01*
X101654085Y-126935000D01*
X101597516Y-126968252D01*
X101581586Y-127005000D01*
X101153915Y-127005000D01*
X101146284Y-126949897D01*
X101141850Y-126878455D01*
X101145892Y-126671397D01*
X101150872Y-126652887D01*
X102302173Y-126652887D01*
X102321529Y-126706256D01*
X102355189Y-126715000D01*
X102405704Y-126686244D01*
X102407657Y-126645000D01*
X102374265Y-126588648D01*
X102328365Y-126598378D01*
X102302173Y-126652887D01*
X101150872Y-126652887D01*
X101189230Y-126510322D01*
X101282807Y-126376021D01*
X101437563Y-126249289D01*
X101536522Y-126185670D01*
X101668628Y-126107432D01*
X101767066Y-126061780D01*
X101861945Y-126041364D01*
X101983373Y-126038834D01*
X102114811Y-126044494D01*
X102394841Y-126077403D01*
X102605483Y-126146079D01*
X102750203Y-126252989D01*
X102832469Y-126400602D01*
X102855978Y-126572204D01*
X102828091Y-126758017D01*
X102751609Y-126968911D01*
X102637295Y-127176228D01*
X102618885Y-127203336D01*
X102479547Y-127348146D01*
X102288972Y-127472446D01*
X102075987Y-127558917D01*
X101994621Y-127578359D01*
X101834369Y-127608436D01*
X101954558Y-127642243D01*
X102094197Y-127678533D01*
X102212358Y-127699173D01*
X102345233Y-127708902D01*
X102487759Y-127712027D01*
X102629459Y-127719423D01*
X102706132Y-127736523D01*
X102715757Y-127755000D01*
X102658228Y-127781272D01*
X102539662Y-127792321D01*
X102377452Y-127789304D01*
X102188989Y-127773381D01*
X101991665Y-127745711D01*
X101802871Y-127707451D01*
X101734211Y-127689603D01*
X101561803Y-127642644D01*
X101403012Y-127601741D01*
X101285336Y-127573908D01*
X101261885Y-127569102D01*
X101127442Y-127507830D01*
X100996908Y-127387810D01*
X100884712Y-127229603D01*
X100805279Y-127053770D01*
X100773037Y-126880871D01*
X100772920Y-126872260D01*
X100793758Y-126735666D01*
X100848210Y-126567644D01*
X100923013Y-126401645D01*
X101004904Y-126271122D01*
X101017001Y-126256647D01*
X101203471Y-126091435D01*
X101439456Y-125950787D01*
X101694921Y-125849658D01*
X101925892Y-125804004D01*
X102113696Y-125798756D01*
X102249341Y-125820295D01*
G37*
G36*
X105057008Y-128342520D02*
G01*
X105241989Y-128402935D01*
X105391276Y-128474077D01*
X105530999Y-128571959D01*
X105684512Y-128713823D01*
X105738758Y-128769640D01*
X105873648Y-128904186D01*
X106008270Y-129027171D01*
X106120301Y-129118569D01*
X106153094Y-129141356D01*
X106279992Y-129244264D01*
X106345309Y-129346801D01*
X106343336Y-129437849D01*
X106321593Y-129469441D01*
X106250465Y-129517718D01*
X106127139Y-129578616D01*
X105976224Y-129641950D01*
X105822323Y-129697539D01*
X105690044Y-129735198D01*
X105668795Y-129739599D01*
X105559650Y-129782852D01*
X105479150Y-129877684D01*
X105461467Y-129909754D01*
X105327017Y-130117651D01*
X105152187Y-130289792D01*
X104918442Y-130443863D01*
X104879164Y-130465427D01*
X104598722Y-130616381D01*
X104578691Y-130919907D01*
X104558659Y-131223434D01*
X105159605Y-131289535D01*
X105582655Y-131334955D01*
X105939406Y-131370543D01*
X106242952Y-131397268D01*
X106506388Y-131416099D01*
X106742808Y-131428008D01*
X106965304Y-131433963D01*
X107125055Y-131435109D01*
X107363978Y-131438570D01*
X107532170Y-131449671D01*
X107638740Y-131469301D01*
X107682869Y-131489534D01*
X107725164Y-131545139D01*
X107694258Y-131592896D01*
X107596778Y-131631855D01*
X107439352Y-131661065D01*
X107228605Y-131679575D01*
X106971166Y-131686435D01*
X106673661Y-131680693D01*
X106437698Y-131668178D01*
X106242820Y-131651640D01*
X106057237Y-131629635D01*
X105909127Y-131605763D01*
X105857030Y-131594010D01*
X105631771Y-131545565D01*
X105348021Y-131503233D01*
X105027320Y-131469219D01*
X104691209Y-131445727D01*
X104361226Y-131434959D01*
X104298249Y-131434527D01*
X104069695Y-131431036D01*
X103843505Y-131422356D01*
X103645301Y-131409780D01*
X103500707Y-131394604D01*
X103496987Y-131394050D01*
X103328244Y-131370699D01*
X103114812Y-131345126D01*
X102848485Y-131316459D01*
X102521056Y-131283826D01*
X102124320Y-131246354D01*
X101994621Y-131234412D01*
X101665304Y-131199961D01*
X101409107Y-131162610D01*
X101219028Y-131120136D01*
X101088064Y-131070316D01*
X101009211Y-131010929D01*
X100975467Y-130939751D01*
X100973012Y-130910207D01*
X101007698Y-130826535D01*
X101102674Y-130775311D01*
X101244319Y-130758091D01*
X101419012Y-130776432D01*
X101613131Y-130831891D01*
X101623608Y-130835860D01*
X101852588Y-130917500D01*
X102078341Y-130983358D01*
X102316203Y-131036134D01*
X102581512Y-131078526D01*
X102889603Y-131113234D01*
X103255814Y-131142958D01*
X103436893Y-131155000D01*
X103670557Y-131170631D01*
X103889852Y-131186889D01*
X104076071Y-131202274D01*
X104210510Y-131215284D01*
X104252989Y-131220504D01*
X104428076Y-131245526D01*
X104411752Y-130957083D01*
X104395428Y-130668640D01*
X104146364Y-130441820D01*
X104004638Y-130302258D01*
X103896844Y-130165587D01*
X103801433Y-130001643D01*
X103737207Y-129869105D01*
X103667122Y-129709464D01*
X103612621Y-129569681D01*
X103581487Y-129470505D01*
X103577113Y-129442289D01*
X103566872Y-129397059D01*
X103524602Y-129367959D01*
X103432989Y-129347737D01*
X103317595Y-129333619D01*
X103152174Y-129308100D01*
X103040695Y-129268349D01*
X102957126Y-129205079D01*
X102957027Y-129204980D01*
X102872280Y-129083361D01*
X102864693Y-129001192D01*
X102942489Y-129001192D01*
X102974867Y-129071558D01*
X103009529Y-129116670D01*
X103055151Y-129161913D01*
X103115232Y-129189833D01*
X103209536Y-129205108D01*
X103357830Y-129212414D01*
X103420176Y-129213838D01*
X103659726Y-129227746D01*
X103829687Y-129261115D01*
X103939051Y-129317774D01*
X103996812Y-129401556D01*
X104010330Y-129465278D01*
X104002131Y-129564001D01*
X103954732Y-129594903D01*
X103872379Y-129557380D01*
X103801102Y-129495000D01*
X103709693Y-129417396D01*
X103653591Y-129397916D01*
X103639975Y-129437045D01*
X103653684Y-129485000D01*
X103781050Y-129780879D01*
X103920526Y-130041438D01*
X104065005Y-130256260D01*
X104207383Y-130414924D01*
X104340556Y-130507015D01*
X104354550Y-130512713D01*
X104455036Y-130516882D01*
X104606740Y-130479653D01*
X104795056Y-130405244D01*
X104897415Y-130355907D01*
X104981141Y-130299859D01*
X105088219Y-130210398D01*
X105202079Y-130103887D01*
X105306151Y-129996689D01*
X105383865Y-129905168D01*
X105418652Y-129845686D01*
X105419149Y-129840673D01*
X105386008Y-129808578D01*
X105305671Y-129762971D01*
X105288943Y-129755000D01*
X105198284Y-129695667D01*
X105148131Y-129630184D01*
X105146281Y-129623078D01*
X105159815Y-129524314D01*
X105233406Y-129460479D01*
X105352851Y-129436461D01*
X105503946Y-129457146D01*
X105567644Y-129478102D01*
X105690605Y-129500582D01*
X105847933Y-129498113D01*
X106006300Y-129474370D01*
X106132376Y-129433026D01*
X106166718Y-129412058D01*
X106214461Y-129367474D01*
X106204975Y-129331618D01*
X106144973Y-129284377D01*
X106076507Y-129228734D01*
X105966781Y-129132586D01*
X105832436Y-129010729D01*
X105724311Y-128910225D01*
X105462373Y-128688425D01*
X105214983Y-128533940D01*
X104966859Y-128439835D01*
X104702719Y-128399174D01*
X104591889Y-128396305D01*
X104323323Y-128419174D01*
X104069509Y-128490182D01*
X103807561Y-128616986D01*
X103659032Y-128708501D01*
X103517078Y-128798867D01*
X103410354Y-128855987D01*
X103308103Y-128891996D01*
X103179572Y-128919033D01*
X103086341Y-128934507D01*
X102977529Y-128960531D01*
X102942489Y-129001192D01*
X102864693Y-129001192D01*
X102862184Y-128974022D01*
X102921268Y-128889132D01*
X103044055Y-128840862D01*
X103123770Y-128834275D01*
X103221969Y-128815447D01*
X103361159Y-128757730D01*
X103548223Y-128657726D01*
X103790044Y-128512042D01*
X103837523Y-128482217D01*
X104103374Y-128358951D01*
X104407239Y-128293902D01*
X104731118Y-128288086D01*
X105057008Y-128342520D01*
G37*
G36*
X100385985Y-119707370D02*
G01*
X100538126Y-119795999D01*
X100706944Y-119930515D01*
X100879062Y-120100246D01*
X101041102Y-120294522D01*
X101042374Y-120296216D01*
X101126749Y-120420944D01*
X101234971Y-120599038D01*
X101356228Y-120811732D01*
X101479713Y-121040264D01*
X101554057Y-121184458D01*
X101711321Y-121490424D01*
X101845179Y-121736728D01*
X101964301Y-121937022D01*
X102077352Y-122104955D01*
X102193001Y-122254177D01*
X102319915Y-122398340D01*
X102335426Y-122415000D01*
X102461969Y-122554770D01*
X102592532Y-122705966D01*
X102670680Y-122800892D01*
X102756841Y-122904386D01*
X102821626Y-122958097D01*
X102892379Y-122975756D01*
X102996445Y-122971092D01*
X103007669Y-122970109D01*
X103164125Y-122952297D01*
X103341622Y-122926518D01*
X103414203Y-122914216D01*
X103647640Y-122882271D01*
X103832581Y-122883488D01*
X103994229Y-122919642D01*
X104097934Y-122962330D01*
X104261194Y-123018810D01*
X104452449Y-123054863D01*
X104518596Y-123060539D01*
X104924085Y-123085512D01*
X105260255Y-123114033D01*
X105524396Y-123145779D01*
X105713798Y-123180425D01*
X105823968Y-123216714D01*
X105969617Y-123258216D01*
X106169643Y-123267498D01*
X106405587Y-123245684D01*
X106658990Y-123193894D01*
X106782161Y-123158477D01*
X107077384Y-123088317D01*
X107365647Y-123071831D01*
X107666357Y-123110160D01*
X107998923Y-123204446D01*
X108084211Y-123235000D01*
X108304642Y-123312456D01*
X108476373Y-123361262D01*
X108623186Y-123386871D01*
X108768862Y-123394736D01*
X108780959Y-123394762D01*
X109045725Y-123394524D01*
X109506451Y-122784762D01*
X109821550Y-122380009D01*
X110109469Y-122038272D01*
X110379315Y-121751238D01*
X110640194Y-121510596D01*
X110901211Y-121308033D01*
X111171471Y-121135239D01*
X111460082Y-120983900D01*
X111499903Y-120965146D01*
X111683462Y-120886137D01*
X111838806Y-120838903D01*
X112005954Y-120813522D01*
X112152211Y-120803402D01*
X112321372Y-120796558D01*
X112432685Y-120799608D01*
X112508216Y-120816611D01*
X112570030Y-120851626D01*
X112616730Y-120888837D01*
X112741428Y-121036874D01*
X112850904Y-121254402D01*
X112941225Y-121531708D01*
X113007862Y-121855238D01*
X113033294Y-122040962D01*
X113047979Y-122217773D01*
X113052501Y-122408231D01*
X113047446Y-122634897D01*
X113034814Y-122895238D01*
X113018789Y-123152942D01*
X113000527Y-123357478D01*
X112975558Y-123534899D01*
X112939408Y-123711262D01*
X112887608Y-123912620D01*
X112818604Y-124155000D01*
X112745619Y-124399490D01*
X112668122Y-124648407D01*
X112593850Y-124877557D01*
X112530542Y-125062746D01*
X112511550Y-125115000D01*
X112450147Y-125287188D01*
X112414568Y-125417496D01*
X112399994Y-125537962D01*
X112401608Y-125680624D01*
X112408878Y-125797874D01*
X112410075Y-126103297D01*
X112362707Y-126372902D01*
X112259759Y-126629351D01*
X112094216Y-126895305D01*
X112050870Y-126954449D01*
X111945408Y-127106886D01*
X111856239Y-127257067D01*
X111797891Y-127379744D01*
X111787113Y-127412762D01*
X111755531Y-127533018D01*
X111729471Y-127628877D01*
X111724982Y-127644642D01*
X111717802Y-127730576D01*
X111761382Y-127756391D01*
X111852572Y-127721156D01*
X111894352Y-127694772D01*
X112080714Y-127591792D01*
X112319916Y-127494185D01*
X112584818Y-127412235D01*
X112731530Y-127377584D01*
X112895015Y-127353782D01*
X113090237Y-127346232D01*
X113336787Y-127354515D01*
X113452665Y-127362058D01*
X113878187Y-127389928D01*
X114235817Y-127406230D01*
X114537119Y-127409706D01*
X114793660Y-127399098D01*
X115017005Y-127373146D01*
X115218720Y-127330593D01*
X115410371Y-127270180D01*
X115603522Y-127190648D01*
X115772432Y-127109633D01*
X115974696Y-127004736D01*
X116186540Y-126889517D01*
X116376169Y-126781484D01*
X116462358Y-126729692D01*
X116760362Y-126566495D01*
X117119441Y-126405277D01*
X117520736Y-126253534D01*
X117945385Y-126118767D01*
X118120016Y-126070646D01*
X118340554Y-126020403D01*
X118575587Y-125980112D01*
X118812097Y-125950470D01*
X119037069Y-125932175D01*
X119237488Y-125925925D01*
X119400339Y-125932419D01*
X119512605Y-125952354D01*
X119561272Y-125986428D01*
X119562287Y-125993296D01*
X119537824Y-126017694D01*
X119459691Y-126039810D01*
X119320766Y-126060803D01*
X119113931Y-126081829D01*
X118921277Y-126097463D01*
X118706168Y-126120935D01*
X118464875Y-126158103D01*
X118248370Y-126201078D01*
X118241543Y-126202667D01*
X117998077Y-126269388D01*
X117715697Y-126362298D01*
X117416294Y-126472789D01*
X117121757Y-126592256D01*
X116853975Y-126712092D01*
X116634840Y-126823692D01*
X116577587Y-126856850D01*
X116421491Y-126947389D01*
X116226505Y-127054975D01*
X116011279Y-127169902D01*
X115794461Y-127282464D01*
X115594702Y-127382954D01*
X115430650Y-127461666D01*
X115335631Y-127503239D01*
X115204686Y-127555983D01*
X115095252Y-127600755D01*
X114975063Y-127650433D01*
X115095252Y-127666063D01*
X115203381Y-127695236D01*
X115276360Y-127736240D01*
X115366523Y-127798886D01*
X115416581Y-127824197D01*
X115560065Y-127896107D01*
X115682478Y-127977801D01*
X115762064Y-128053721D01*
X115778492Y-128083000D01*
X115776177Y-128163497D01*
X115740654Y-128266361D01*
X115737297Y-128273000D01*
X115698185Y-128355109D01*
X115703672Y-128388422D01*
X115761095Y-128394965D01*
X115777930Y-128395000D01*
X115918233Y-128420899D01*
X116039137Y-128487118D01*
X116091249Y-128545201D01*
X116123468Y-128573780D01*
X116187846Y-128587257D01*
X116300642Y-128587004D01*
X116457471Y-128576134D01*
X116645750Y-128565277D01*
X116763120Y-128572854D01*
X116817437Y-128602613D01*
X116816557Y-128658298D01*
X116778118Y-128729057D01*
X116731864Y-128824174D01*
X116678491Y-128969298D01*
X116626451Y-129136385D01*
X116584195Y-129297392D01*
X116560174Y-129424275D01*
X116557555Y-129460959D01*
X116588203Y-129538141D01*
X116683214Y-129590909D01*
X116784704Y-129639462D01*
X116853193Y-129695140D01*
X116853482Y-129695531D01*
X116917618Y-129735290D01*
X117032437Y-129768825D01*
X117109978Y-129781464D01*
X117321864Y-129806511D01*
X117299503Y-129950755D01*
X117260760Y-130083534D01*
X117198608Y-130202254D01*
X117197677Y-130203532D01*
X117146409Y-130278561D01*
X117142585Y-130317421D01*
X117186029Y-130348277D01*
X117196728Y-130354018D01*
X117258486Y-130421717D01*
X117300333Y-130529950D01*
X117301760Y-130537098D01*
X117339117Y-130644389D01*
X117417759Y-130720128D01*
X117481050Y-130756040D01*
X117595453Y-130821360D01*
X117661688Y-130888292D01*
X117700320Y-130985393D01*
X117722943Y-131091917D01*
X117732312Y-131238588D01*
X117695441Y-131383884D01*
X117676444Y-131429610D01*
X117599616Y-131604220D01*
X117689548Y-131578647D01*
X117838864Y-131538670D01*
X117931009Y-131525583D01*
X117985287Y-131542399D01*
X118021001Y-131592128D01*
X118039141Y-131633195D01*
X118067826Y-131719302D01*
X118057010Y-131781765D01*
X117997930Y-131855912D01*
X117978932Y-131875899D01*
X117866600Y-131992964D01*
X117991779Y-131945788D01*
X118084538Y-131921194D01*
X118142492Y-131924592D01*
X118144950Y-131926561D01*
X118144926Y-131976346D01*
X118079860Y-132049953D01*
X117958356Y-132139694D01*
X117807290Y-132228208D01*
X117632161Y-132323310D01*
X117528809Y-132387035D01*
X117498007Y-132425075D01*
X117540526Y-132443122D01*
X117657139Y-132446867D01*
X117836342Y-132442391D01*
X118079356Y-132441607D01*
X118248871Y-132457922D01*
X118349942Y-132492677D01*
X118387627Y-132547214D01*
X118382758Y-132587436D01*
X118381699Y-132628638D01*
X118424117Y-132648882D01*
X118526804Y-132654905D01*
X118551101Y-132655000D01*
X118668963Y-132660235D01*
X118728547Y-132681816D01*
X118751345Y-132728554D01*
X118752840Y-132737716D01*
X118735898Y-132810479D01*
X118654480Y-132878752D01*
X118622612Y-132896825D01*
X118536720Y-132946767D01*
X118515020Y-132976048D01*
X118549417Y-132998521D01*
X118560686Y-133002819D01*
X118629903Y-133056542D01*
X118627060Y-133135879D01*
X118553922Y-133235350D01*
X118459866Y-133315512D01*
X118363554Y-133396074D01*
X118303697Y-133462833D01*
X118292889Y-133492802D01*
X118338120Y-133526938D01*
X118430227Y-133555001D01*
X118443811Y-133557449D01*
X118643184Y-133622905D01*
X118783376Y-133742076D01*
X118862691Y-133912949D01*
X118881214Y-134077128D01*
X118903835Y-134185037D01*
X118981422Y-134288384D01*
X119021435Y-134325773D01*
X119123545Y-134432885D01*
X119157075Y-134520917D01*
X119125870Y-134605012D01*
X119100281Y-134636412D01*
X119064415Y-134688721D01*
X119084252Y-134730033D01*
X119140344Y-134770484D01*
X119208496Y-134834127D01*
X119241658Y-134900830D01*
X119231602Y-134946960D01*
X119204581Y-134955000D01*
X119148937Y-134980510D01*
X119105636Y-135016646D01*
X119073294Y-135060970D01*
X119085163Y-135105535D01*
X119149642Y-135172423D01*
X119172857Y-135193340D01*
X119254011Y-135282362D01*
X119266892Y-135335089D01*
X119217887Y-135344266D01*
X119113383Y-135302635D01*
X119088716Y-135288924D01*
X118970982Y-135192855D01*
X118927744Y-135087571D01*
X118961325Y-134980502D01*
X118983613Y-134952527D01*
X119026601Y-134895401D01*
X119015909Y-134852204D01*
X118956785Y-134799224D01*
X118861183Y-134721795D01*
X118956368Y-134620460D01*
X119051552Y-134519124D01*
X118906289Y-134382339D01*
X118805991Y-134268786D01*
X118764355Y-134164214D01*
X118761025Y-134118992D01*
X118737934Y-133946310D01*
X118675541Y-133804587D01*
X118584167Y-133713140D01*
X118533302Y-133692831D01*
X118356185Y-133650223D01*
X118244890Y-133612402D01*
X118186090Y-133571702D01*
X118166457Y-133520452D01*
X118167806Y-133482521D01*
X118219061Y-133374003D01*
X118346629Y-133257320D01*
X118347930Y-133256377D01*
X118443669Y-133181685D01*
X118505590Y-133122957D01*
X118518198Y-133102639D01*
X118495201Y-133088625D01*
X118478306Y-133096405D01*
X118412397Y-133107827D01*
X118326778Y-133094080D01*
X118258269Y-133064186D01*
X118240205Y-133038056D01*
X118272456Y-133001491D01*
X118356533Y-132941311D01*
X118460552Y-132878476D01*
X118600713Y-132795265D01*
X118668274Y-132744304D01*
X118663712Y-132725036D01*
X118587505Y-132736903D01*
X118580478Y-132738640D01*
X118468365Y-132750146D01*
X118350226Y-132738261D01*
X118252658Y-132708728D01*
X118202264Y-132667290D01*
X118200142Y-132656520D01*
X118231106Y-132594663D01*
X118250221Y-132583585D01*
X118268265Y-132564915D01*
X118221518Y-132549583D01*
X118125275Y-132538448D01*
X117994832Y-132532367D01*
X117845485Y-132532200D01*
X117692530Y-132538804D01*
X117599195Y-132547049D01*
X117411019Y-132562781D01*
X117280627Y-132562720D01*
X117218596Y-132547020D01*
X117216338Y-132497324D01*
X117284050Y-132424613D01*
X117416449Y-132333347D01*
X117578782Y-132243025D01*
X117690412Y-132179029D01*
X117728750Y-132139483D01*
X117709369Y-132124292D01*
X117658091Y-132106603D01*
X117648073Y-132075477D01*
X117684528Y-132018315D01*
X117772671Y-131922516D01*
X117807689Y-131886679D01*
X117902312Y-131782507D01*
X117941455Y-131715211D01*
X117932326Y-131671840D01*
X117929165Y-131668449D01*
X117874971Y-131642460D01*
X117784245Y-131652399D01*
X117726038Y-131668283D01*
X117581557Y-131702914D01*
X117469184Y-131713704D01*
X117406705Y-131699742D01*
X117399609Y-131685000D01*
X117420840Y-131637567D01*
X117474603Y-131547837D01*
X117521798Y-131476007D01*
X117594212Y-131357511D01*
X117623938Y-131264675D01*
X117620694Y-131162641D01*
X117616605Y-131136007D01*
X117593581Y-131013729D01*
X117562678Y-130941624D01*
X117503202Y-130890896D01*
X117401103Y-130836132D01*
X117274661Y-130753416D01*
X117212459Y-130657640D01*
X117198564Y-130552650D01*
X117167363Y-130477385D01*
X117098407Y-130411321D01*
X117022729Y-130350334D01*
X117006003Y-130290567D01*
X117048227Y-130210442D01*
X117098407Y-130147705D01*
X117163441Y-130057941D01*
X117197223Y-129986713D01*
X117198564Y-129976596D01*
X117162021Y-129926212D01*
X117065945Y-129889976D01*
X116930663Y-129875547D01*
X116930410Y-129875546D01*
X116837402Y-129844202D01*
X116790190Y-129800738D01*
X116711097Y-129730916D01*
X116637681Y-129695842D01*
X116511965Y-129640597D01*
X116450608Y-129562980D01*
X116437366Y-129471626D01*
X116449844Y-129383844D01*
X116482726Y-129244730D01*
X116529184Y-129078188D01*
X116582389Y-128908126D01*
X116635513Y-128758447D01*
X116654615Y-128711043D01*
X116661121Y-128674368D01*
X116627553Y-128662093D01*
X116537660Y-128671031D01*
X116489408Y-128678659D01*
X116330530Y-128702335D01*
X116226078Y-128707287D01*
X116151824Y-128690051D01*
X116083540Y-128647165D01*
X116044041Y-128615000D01*
X115940798Y-128548770D01*
X115841588Y-128515815D01*
X115828277Y-128515000D01*
X115717349Y-128491404D01*
X115654409Y-128458686D01*
X115607311Y-128414895D01*
X115598688Y-128361965D01*
X115625309Y-128269912D01*
X115632041Y-128251156D01*
X115663529Y-128151316D01*
X115657146Y-128090839D01*
X115604206Y-128034586D01*
X115572108Y-128008626D01*
X115460397Y-127938187D01*
X115347849Y-127893328D01*
X115343734Y-127892384D01*
X115254134Y-127856451D01*
X115208448Y-127811228D01*
X115151214Y-127770541D01*
X115025247Y-127755078D01*
X115013204Y-127755000D01*
X114877849Y-127741337D01*
X114810023Y-127702585D01*
X114814440Y-127642099D01*
X114827986Y-127623247D01*
X114826887Y-127602667D01*
X114778256Y-127587739D01*
X114673288Y-127577462D01*
X114503183Y-127570834D01*
X114340662Y-127567832D01*
X114082163Y-127563880D01*
X113783080Y-127558625D01*
X113482930Y-127552794D01*
X113252350Y-127547832D01*
X113022678Y-127543704D01*
X112851975Y-127545044D01*
X112719147Y-127554170D01*
X112603099Y-127573399D01*
X112482737Y-127605046D01*
X112350930Y-127646835D01*
X112184244Y-127706333D01*
X112036447Y-127767543D01*
X111932205Y-127819966D01*
X111910753Y-127834161D01*
X111811111Y-127909652D01*
X111895787Y-128002326D01*
X112085863Y-128265354D01*
X112233132Y-128586369D01*
X112333801Y-128953482D01*
X112384079Y-129354804D01*
X112389235Y-129549474D01*
X112379845Y-129824334D01*
X112354649Y-130031149D01*
X112326888Y-130135000D01*
X112276563Y-130269666D01*
X112230353Y-130396056D01*
X112223570Y-130415000D01*
X112209904Y-130491845D01*
X112197287Y-130634864D01*
X112186465Y-130830228D01*
X112178182Y-131064112D01*
X112173187Y-131322689D01*
X112172841Y-131355000D01*
X112168600Y-131655093D01*
X112161815Y-131888101D01*
X112151503Y-132066920D01*
X112136681Y-132204449D01*
X112116368Y-132313586D01*
X112093619Y-132395000D01*
X111929585Y-132779727D01*
X111687179Y-133164088D01*
X111613362Y-133261250D01*
X111508204Y-133412155D01*
X111414029Y-133588444D01*
X111320553Y-133810834D01*
X111264229Y-133964501D01*
X111198113Y-134143392D01*
X111137965Y-134291001D01*
X111090070Y-134392905D01*
X111060716Y-134434681D01*
X111059169Y-134435000D01*
X111034922Y-134406525D01*
X111039299Y-134385000D01*
X111058788Y-134326511D01*
X111095174Y-134211399D01*
X111142190Y-134059620D01*
X111168095Y-133975000D01*
X111261070Y-133694481D01*
X111353018Y-133473159D01*
X111453303Y-133290904D01*
X111549484Y-133155000D01*
X111695032Y-132936002D01*
X111827513Y-132677469D01*
X111932285Y-132411666D01*
X111993893Y-132175649D01*
X112016710Y-131968579D01*
X112024783Y-131695365D01*
X112018239Y-131350385D01*
X112014652Y-131259660D01*
X112003634Y-131018653D01*
X111992902Y-130843737D01*
X111980139Y-130721050D01*
X111963028Y-130636724D01*
X111939252Y-130576896D01*
X111906496Y-130527700D01*
X111888719Y-130505942D01*
X111824677Y-130420978D01*
X111791381Y-130359281D01*
X111790047Y-130351592D01*
X111762336Y-130340481D01*
X111711743Y-130363146D01*
X111645710Y-130394182D01*
X111619313Y-130393485D01*
X111588649Y-130353621D01*
X111525933Y-130272220D01*
X111481344Y-130214379D01*
X111396502Y-130082522D01*
X111329984Y-129941404D01*
X111314511Y-129894357D01*
X111258940Y-129766333D01*
X111183905Y-129694978D01*
X111118442Y-129631335D01*
X111061211Y-129501257D01*
X111010633Y-129300056D01*
X110970611Y-129062116D01*
X110938268Y-128930297D01*
X110888832Y-128822060D01*
X110865708Y-128792116D01*
X110786722Y-128735440D01*
X110713464Y-128715408D01*
X110671163Y-128737045D01*
X110668281Y-128752797D01*
X110640168Y-128800261D01*
X110568218Y-128880325D01*
X110471010Y-128975425D01*
X110367125Y-129067999D01*
X110275141Y-129140485D01*
X110226337Y-129170550D01*
X110113943Y-129185376D01*
X109968949Y-129154411D01*
X109817045Y-129086758D01*
X109683922Y-128991516D01*
X109662704Y-128970880D01*
X109574801Y-128890161D01*
X109503372Y-128841479D01*
X109482320Y-128835000D01*
X109448529Y-128798510D01*
X109418254Y-128702849D01*
X109406286Y-128634944D01*
X109367572Y-128475280D01*
X109299476Y-128373662D01*
X109284016Y-128360506D01*
X109196455Y-128269240D01*
X109143145Y-128184972D01*
X109106723Y-128115661D01*
X109072233Y-128113004D01*
X109017236Y-128163444D01*
X108862846Y-128279333D01*
X108671151Y-128349710D01*
X108429234Y-128378106D01*
X108240561Y-128375805D01*
X108054179Y-128367446D01*
X107875562Y-128360802D01*
X107736464Y-128357020D01*
X107709341Y-128356633D01*
X107599786Y-128349611D01*
X107555576Y-128327586D01*
X107557060Y-128297047D01*
X107545098Y-128237768D01*
X107511268Y-128217152D01*
X107421477Y-128164863D01*
X107311641Y-128070135D01*
X107206364Y-127956959D01*
X107130246Y-127849325D01*
X107126090Y-127841551D01*
X107068814Y-127675196D01*
X107289491Y-127675196D01*
X107305943Y-127720525D01*
X107374032Y-127786627D01*
X107460522Y-127777417D01*
X107520466Y-127732142D01*
X107577924Y-127642786D01*
X107559587Y-127571834D01*
X107477031Y-127529863D01*
X107372326Y-127533098D01*
X107303876Y-127588158D01*
X107289491Y-127675196D01*
X107068814Y-127675196D01*
X107050479Y-127621943D01*
X107043824Y-127491666D01*
X108344621Y-127491666D01*
X108375227Y-127553316D01*
X108439905Y-127571881D01*
X108479348Y-127553485D01*
X108494392Y-127496396D01*
X108487000Y-127478485D01*
X108432206Y-127438972D01*
X108371997Y-127445133D01*
X108344621Y-127491666D01*
X107043824Y-127491666D01*
X107038867Y-127394636D01*
X107057582Y-127290545D01*
X107057931Y-127289118D01*
X107994407Y-127289118D01*
X108001928Y-127311514D01*
X108056905Y-127351160D01*
X108117082Y-127344522D01*
X108144306Y-127297360D01*
X108117607Y-127227966D01*
X108058888Y-127205535D01*
X108016104Y-127227000D01*
X107994407Y-127289118D01*
X107057931Y-127289118D01*
X107080267Y-127197661D01*
X107077784Y-127171388D01*
X107048863Y-127201978D01*
X107046467Y-127205135D01*
X107012038Y-127283381D01*
X106981139Y-127408055D01*
X106967469Y-127496203D01*
X106960502Y-127665676D01*
X106991337Y-127807063D01*
X107069504Y-127948081D01*
X107164867Y-128070204D01*
X107229040Y-128156571D01*
X107236832Y-128190993D01*
X107193987Y-128172050D01*
X107106246Y-128098322D01*
X107094842Y-128087516D01*
X106982476Y-127980032D01*
X106982476Y-128127516D01*
X106970350Y-128237288D01*
X106935322Y-128273040D01*
X106879417Y-128232967D01*
X106872975Y-128225000D01*
X106826075Y-128126428D01*
X106785962Y-127970559D01*
X106756873Y-127780051D01*
X106743048Y-127577567D01*
X106742474Y-127527287D01*
X106771058Y-127268324D01*
X106859299Y-127038614D01*
X107012071Y-126831880D01*
X107172103Y-126695000D01*
X107543359Y-126695000D01*
X107563391Y-126715000D01*
X107583423Y-126695000D01*
X107581979Y-126693558D01*
X108224999Y-126693558D01*
X108277994Y-126741478D01*
X108346793Y-126789073D01*
X108480778Y-126889986D01*
X108618466Y-127016490D01*
X108675142Y-127077487D01*
X108775614Y-127224049D01*
X108823309Y-127379833D01*
X108820480Y-127563248D01*
X108769380Y-127792704D01*
X108764680Y-127808843D01*
X108720260Y-127950768D01*
X108679283Y-128040614D01*
X108624398Y-128103561D01*
X108538251Y-128164789D01*
X108504874Y-128185864D01*
X108364653Y-128273652D01*
X108526007Y-128274326D01*
X108654392Y-128259210D01*
X108762809Y-128221120D01*
X108776937Y-128212356D01*
X108875826Y-128108038D01*
X108960738Y-127958271D01*
X109014736Y-127797550D01*
X109025260Y-127706593D01*
X108998474Y-127500561D01*
X108928076Y-127288627D01*
X108827113Y-127105433D01*
X108774539Y-127040921D01*
X108662029Y-126936671D01*
X108529099Y-126834038D01*
X108396734Y-126747093D01*
X108285920Y-126689905D01*
X108228776Y-126675000D01*
X108224999Y-126693558D01*
X107581979Y-126693558D01*
X107563391Y-126675000D01*
X107543359Y-126695000D01*
X107172103Y-126695000D01*
X107213008Y-126660013D01*
X107698052Y-126660013D01*
X107751265Y-126666938D01*
X107763706Y-126667202D01*
X107791650Y-126665436D01*
X108041493Y-126665436D01*
X108080873Y-126671842D01*
X108132835Y-126664487D01*
X108133455Y-126650833D01*
X108079835Y-126641284D01*
X108056668Y-126647675D01*
X108041493Y-126665436D01*
X107791650Y-126665436D01*
X107832127Y-126662878D01*
X107838151Y-126650356D01*
X107834579Y-126648762D01*
X107755047Y-126640849D01*
X107714390Y-126647280D01*
X107698052Y-126660013D01*
X107213008Y-126660013D01*
X107234247Y-126641847D01*
X107530701Y-126462238D01*
X107595353Y-126429010D01*
X107889162Y-126303625D01*
X108149448Y-126242491D01*
X108388527Y-126244243D01*
X108618715Y-126307516D01*
X108633998Y-126313868D01*
X108852049Y-126429175D01*
X108991684Y-126557483D01*
X109053738Y-126699988D01*
X109039044Y-126857889D01*
X109030274Y-126882972D01*
X109013316Y-126983643D01*
X109043365Y-127040492D01*
X109106975Y-127039834D01*
X109153349Y-127008254D01*
X109210060Y-126937272D01*
X109226009Y-126890192D01*
X109250769Y-126829926D01*
X109312983Y-126740668D01*
X109343311Y-126704394D01*
X109460614Y-126571005D01*
X109378144Y-126440957D01*
X109277377Y-126332519D01*
X109180715Y-126287955D01*
X109092223Y-126251101D01*
X109065763Y-126180360D01*
X109065757Y-126178900D01*
X109042983Y-126080254D01*
X109002873Y-126003163D01*
X108924417Y-125928766D01*
X108800548Y-125847304D01*
X108660401Y-125774487D01*
X108533110Y-125726025D01*
X108468507Y-125715000D01*
X108385421Y-125698938D01*
X108372908Y-125656713D01*
X108429541Y-125597264D01*
X108493512Y-125558412D01*
X108575634Y-125510324D01*
X108608411Y-125480880D01*
X108602673Y-125476767D01*
X108538666Y-125453549D01*
X108487200Y-125421667D01*
X108439554Y-125377620D01*
X108442760Y-125330206D01*
X108479349Y-125268984D01*
X108517315Y-125202663D01*
X108508916Y-125161848D01*
X108442864Y-125121430D01*
X108404748Y-125103070D01*
X108319617Y-125056535D01*
X108280432Y-125004975D01*
X108271994Y-124918817D01*
X108274737Y-124850073D01*
X108269043Y-124715635D01*
X108237777Y-124650781D01*
X108186155Y-124658717D01*
X108119393Y-124742651D01*
X108114303Y-124751428D01*
X108049389Y-124847259D01*
X108007020Y-124866573D01*
X107986428Y-124809390D01*
X107984053Y-124755000D01*
X107966248Y-124661455D01*
X107913917Y-124639859D01*
X107828688Y-124690765D01*
X107819464Y-124698918D01*
X107741765Y-124741594D01*
X107689158Y-124709882D01*
X107664471Y-124606244D01*
X107662935Y-124562639D01*
X107651783Y-124428980D01*
X107610216Y-124352799D01*
X107523959Y-124313214D01*
X107487025Y-124305314D01*
X107393909Y-124304037D01*
X107316695Y-124351959D01*
X107273133Y-124399353D01*
X107196301Y-124475029D01*
X107131512Y-124513703D01*
X107122474Y-124515000D01*
X107061167Y-124546765D01*
X107050713Y-124565000D01*
X107016442Y-124589836D01*
X106964512Y-124549918D01*
X106903480Y-124456085D01*
X106841904Y-124319178D01*
X106829126Y-124284329D01*
X106774490Y-124151442D01*
X106715460Y-124040345D01*
X106685452Y-123998804D01*
X106633089Y-123907312D01*
X106597189Y-123785091D01*
X106594520Y-123767883D01*
X106593638Y-123738828D01*
X106702035Y-123738828D01*
X106719839Y-123834518D01*
X106763548Y-123948771D01*
X106818600Y-124050157D01*
X106870437Y-124107249D01*
X106873374Y-124108689D01*
X106909191Y-124149915D01*
X106962396Y-124237349D01*
X106984362Y-124278689D01*
X107040263Y-124373733D01*
X107087060Y-124429168D01*
X107099594Y-124435000D01*
X107143463Y-124406357D01*
X107215006Y-124333577D01*
X107256179Y-124285000D01*
X107335232Y-124196380D01*
X107387482Y-124166267D01*
X107428330Y-124185000D01*
X107508133Y-124225857D01*
X107569039Y-124235000D01*
X107650099Y-124252386D01*
X107701897Y-124314809D01*
X107735241Y-124437662D01*
X107742270Y-124481736D01*
X107763706Y-124628472D01*
X107921097Y-124551736D01*
X108028975Y-124499963D01*
X108083121Y-124480548D01*
X108102041Y-124491240D01*
X108104243Y-124529453D01*
X108136346Y-124567793D01*
X108201266Y-124565388D01*
X108278394Y-124568487D01*
X108336663Y-124625371D01*
X108362369Y-124670589D01*
X108400583Y-124781698D01*
X108405207Y-124880984D01*
X108404384Y-124884654D01*
X108405842Y-124958715D01*
X108463910Y-125018966D01*
X108503692Y-125043139D01*
X108591052Y-125118847D01*
X108625652Y-125205586D01*
X108600887Y-125280640D01*
X108578150Y-125299226D01*
X108567330Y-125331851D01*
X108619101Y-125360626D01*
X108710315Y-125423524D01*
X108732504Y-125509053D01*
X108691980Y-125587473D01*
X108661891Y-125630186D01*
X108671306Y-125666840D01*
X108731516Y-125712717D01*
X108824340Y-125766606D01*
X108996698Y-125893485D01*
X109091945Y-126027244D01*
X109169310Y-126146360D01*
X109266423Y-126244566D01*
X109283282Y-126256621D01*
X109386960Y-126347570D01*
X109475759Y-126461069D01*
X109479570Y-126467465D01*
X109556774Y-126599930D01*
X109451486Y-126709653D01*
X109382802Y-126792132D01*
X109347469Y-126855866D01*
X109346199Y-126864119D01*
X109322244Y-126921450D01*
X109262935Y-127006993D01*
X109245667Y-127028148D01*
X109193163Y-127096219D01*
X109166843Y-127158644D01*
X109162687Y-127241021D01*
X109176671Y-127368947D01*
X109183936Y-127420982D01*
X109201109Y-127604721D01*
X109205432Y-127797325D01*
X109199048Y-127920812D01*
X109188493Y-128052374D01*
X109198636Y-128136987D01*
X109240107Y-128207069D01*
X109320873Y-128292381D01*
X109405106Y-128391199D01*
X109457641Y-128481159D01*
X109466388Y-128516876D01*
X109501186Y-128653784D01*
X109593729Y-128798507D01*
X109726234Y-128932137D01*
X109880922Y-129035765D01*
X109997384Y-129081539D01*
X110187844Y-129131677D01*
X110387730Y-128935106D01*
X110532308Y-128768561D01*
X110607571Y-128613456D01*
X110618963Y-128452444D01*
X110585186Y-128306020D01*
X110515172Y-128145039D01*
X110421243Y-127995728D01*
X110319134Y-127879224D01*
X110224579Y-127816662D01*
X110219784Y-127815170D01*
X110002692Y-127735368D01*
X109838683Y-127639217D01*
X109815392Y-127615000D01*
X109947145Y-127615000D01*
X109967176Y-127635000D01*
X109987208Y-127615000D01*
X109967176Y-127595000D01*
X109947145Y-127615000D01*
X109815392Y-127615000D01*
X109776922Y-127575000D01*
X109867019Y-127575000D01*
X109887050Y-127595000D01*
X109907082Y-127575000D01*
X109887050Y-127555000D01*
X109867019Y-127575000D01*
X109776922Y-127575000D01*
X109737101Y-127533595D01*
X109706766Y-127437629D01*
X109727938Y-127399782D01*
X109795291Y-127409779D01*
X109914578Y-127469277D01*
X110003732Y-127523278D01*
X110316919Y-127743822D01*
X110550455Y-127961266D01*
X110704734Y-128176094D01*
X110780151Y-128388789D01*
X110788470Y-128486221D01*
X110805753Y-128605640D01*
X110863423Y-128672118D01*
X110868662Y-128675035D01*
X110939446Y-128744759D01*
X111007105Y-128860513D01*
X111055313Y-128989422D01*
X111068911Y-129078300D01*
X111081770Y-129178055D01*
X111114591Y-129302650D01*
X111158740Y-129428533D01*
X111205584Y-129532149D01*
X111246490Y-129589944D01*
X111258299Y-129595000D01*
X111311845Y-129628073D01*
X111345834Y-129685000D01*
X111434543Y-129903318D01*
X111508543Y-130059183D01*
X111574955Y-130167114D01*
X111594913Y-130192863D01*
X111655305Y-130255138D01*
X111694158Y-130256624D01*
X111714778Y-130232863D01*
X111751813Y-130198786D01*
X111790299Y-130231659D01*
X111802137Y-130249333D01*
X111875830Y-130356385D01*
X111945445Y-130446191D01*
X111995890Y-130500156D01*
X112011352Y-130507106D01*
X112029201Y-130466286D01*
X112065918Y-130368872D01*
X112114369Y-130233940D01*
X112126973Y-130198026D01*
X112185056Y-130008388D01*
X112217330Y-129831590D01*
X112229879Y-129628920D01*
X112230741Y-129537745D01*
X112212087Y-129239052D01*
X112160279Y-128931267D01*
X112081549Y-128640908D01*
X111982128Y-128394495D01*
X111946636Y-128328699D01*
X111870307Y-128198829D01*
X111778319Y-128043104D01*
X111722051Y-127948215D01*
X111630341Y-127746790D01*
X111601121Y-127547457D01*
X111636166Y-127339813D01*
X111737248Y-127113454D01*
X111906140Y-126857978D01*
X111908357Y-126855000D01*
X112074269Y-126608242D01*
X112183683Y-126378742D01*
X112245032Y-126139731D01*
X112266748Y-125864442D01*
X112265807Y-125720407D01*
X112264580Y-125546930D01*
X112274613Y-125407276D01*
X112301055Y-125272238D01*
X112349055Y-125112608D01*
X112397753Y-124971966D01*
X112466587Y-124770914D01*
X112533120Y-124564210D01*
X112587102Y-124384193D01*
X112606001Y-124315000D01*
X112649189Y-124150940D01*
X112703760Y-123947607D01*
X112759556Y-123742782D01*
X112772718Y-123695000D01*
X112823652Y-123476868D01*
X112860601Y-123252697D01*
X112877076Y-123062218D01*
X112877234Y-123055000D01*
X112880619Y-122854446D01*
X112883995Y-122632907D01*
X112885889Y-122495000D01*
X112875838Y-122214057D01*
X112841381Y-121928280D01*
X112786563Y-121653105D01*
X112715429Y-121403967D01*
X112632022Y-121196300D01*
X112540388Y-121045541D01*
X112493308Y-120996787D01*
X112428120Y-120968306D01*
X112314747Y-120958305D01*
X112138445Y-120965564D01*
X112126212Y-120966471D01*
X111800694Y-121027583D01*
X111455348Y-121161861D01*
X111096222Y-121366763D01*
X110972310Y-121451883D01*
X110779466Y-121607297D01*
X110549280Y-121822466D01*
X110288371Y-122090263D01*
X110003356Y-122403559D01*
X109700854Y-122755223D01*
X109387483Y-123138129D01*
X109274468Y-123280741D01*
X109139541Y-123440778D01*
X109031614Y-123544682D01*
X108955661Y-123588477D01*
X108916651Y-123568184D01*
X108916345Y-123567289D01*
X108873937Y-123551347D01*
X108776614Y-123545167D01*
X108695234Y-123547465D01*
X108578996Y-123547016D01*
X108455701Y-123528332D01*
X108304973Y-123486649D01*
X108106439Y-123417205D01*
X108053622Y-123397465D01*
X107838564Y-123320225D01*
X107671966Y-123271171D01*
X107529647Y-123244733D01*
X107387425Y-123235338D01*
X107348480Y-123235000D01*
X107118996Y-123245653D01*
X106957236Y-123276860D01*
X106866751Y-123327488D01*
X106850336Y-123393691D01*
X106837404Y-123477230D01*
X106785865Y-123551301D01*
X106723517Y-123648158D01*
X106702035Y-123738828D01*
X106593638Y-123738828D01*
X106590938Y-123649914D01*
X106626852Y-123570647D01*
X106658010Y-123538579D01*
X106731404Y-123451084D01*
X106739039Y-123389067D01*
X106683105Y-123363174D01*
X106623079Y-123368766D01*
X106311343Y-123415857D01*
X106049133Y-123423869D01*
X105845558Y-123392670D01*
X105809515Y-123380519D01*
X105695501Y-123349915D01*
X105522024Y-123318715D01*
X105309693Y-123289285D01*
X105079118Y-123263992D01*
X104850907Y-123245201D01*
X104645668Y-123235278D01*
X104538628Y-123234623D01*
X104362348Y-123213713D01*
X104154910Y-123150752D01*
X104104455Y-123130419D01*
X103985178Y-123081474D01*
X103893244Y-123052587D01*
X103804205Y-123041642D01*
X103693613Y-123046522D01*
X103537021Y-123065109D01*
X103463446Y-123074914D01*
X103282830Y-123097158D01*
X103120779Y-123113615D01*
X103001460Y-123121986D01*
X102964707Y-123122394D01*
X102870135Y-123088688D01*
X102739026Y-123000444D01*
X102581252Y-122868343D01*
X102406683Y-122703063D01*
X102225190Y-122515285D01*
X102046644Y-122315686D01*
X101880916Y-122114947D01*
X101737876Y-121923747D01*
X101627395Y-121752764D01*
X101559345Y-121612679D01*
X101553652Y-121595778D01*
X101510765Y-121490375D01*
X101435030Y-121334450D01*
X101336083Y-121145312D01*
X101223560Y-120940268D01*
X101107096Y-120736626D01*
X100996329Y-120551695D01*
X100900894Y-120402781D01*
X100848871Y-120329885D01*
X100710574Y-120167501D01*
X100567983Y-120028308D01*
X100436108Y-119925081D01*
X100329960Y-119870596D01*
X100303179Y-119865492D01*
X100155572Y-119886392D01*
X99994096Y-119955651D01*
X99852691Y-120057427D01*
X99820082Y-120090991D01*
X99747306Y-120190886D01*
X99650875Y-120347463D01*
X99539411Y-120544182D01*
X99421534Y-120764502D01*
X99305867Y-120991884D01*
X99201029Y-121209786D01*
X99115643Y-121401669D01*
X99058329Y-121550992D01*
X99057017Y-121555000D01*
X98987895Y-121797483D01*
X98939253Y-122044871D01*
X98908601Y-122317235D01*
X98893448Y-122634650D01*
X98890729Y-122895000D01*
X98896748Y-123308826D01*
X98915211Y-123655595D01*
X98947675Y-123947505D01*
X98995698Y-124196758D01*
X99060834Y-124415553D01*
X99096588Y-124508399D01*
X99157942Y-124668372D01*
X99197974Y-124809867D01*
X99222418Y-124962031D01*
X99237011Y-125154010D01*
X99241145Y-125242953D01*
X99259023Y-125670907D01*
X99119872Y-125842953D01*
X98995493Y-126006081D01*
X98852190Y-126208754D01*
X98702780Y-126431315D01*
X98560079Y-126654108D01*
X98436901Y-126857476D01*
X98346062Y-127021765D01*
X98329635Y-127055000D01*
X98223748Y-127313276D01*
X98138982Y-127605385D01*
X98070219Y-127950333D01*
X98045852Y-128108736D01*
X98023705Y-128291873D01*
X98018686Y-128441854D01*
X98031930Y-128594631D01*
X98064569Y-128786155D01*
X98067724Y-128802535D01*
X98090164Y-128932149D01*
X98106846Y-129066231D01*
X98118286Y-129217750D01*
X98125001Y-129399677D01*
X98127508Y-129624979D01*
X98126323Y-129906628D01*
X98122959Y-130188799D01*
X98121002Y-130654895D01*
X98128426Y-131081369D01*
X98144740Y-131461156D01*
X98169450Y-131787187D01*
X98202063Y-132052397D01*
X98242087Y-132249719D01*
X98273076Y-132341045D01*
X98311593Y-132445020D01*
X98328788Y-132524903D01*
X98328848Y-132527877D01*
X98348384Y-132620074D01*
X98401636Y-132763753D01*
X98480576Y-132942113D01*
X98577171Y-133138354D01*
X98683393Y-133335674D01*
X98791210Y-133517273D01*
X98831514Y-133579542D01*
X98958560Y-133753808D01*
X99121308Y-133953783D01*
X99296164Y-134151375D01*
X99419548Y-134279612D01*
X99551551Y-134413048D01*
X99656114Y-134523630D01*
X99723706Y-134600899D01*
X99744795Y-134634397D01*
X99743390Y-134635000D01*
X99698278Y-134611584D01*
X99607863Y-134549158D01*
X99488791Y-134459450D01*
X99441525Y-134422267D01*
X99208953Y-134214519D01*
X98970313Y-133962246D01*
X98751172Y-133694372D01*
X98585823Y-133454221D01*
X98485756Y-133270336D01*
X98386431Y-133053456D01*
X98299227Y-132831634D01*
X98235520Y-132632922D01*
X98213083Y-132535182D01*
X98184980Y-132375000D01*
X98115735Y-132635000D01*
X98069568Y-132808038D01*
X98014384Y-133014432D01*
X97961925Y-133210266D01*
X97960655Y-133215000D01*
X97913630Y-133425188D01*
X97886244Y-133643878D01*
X97875123Y-133901608D01*
X97874449Y-133995000D01*
X97880041Y-134267342D01*
X97900984Y-134487276D01*
X97942788Y-134681786D01*
X98010960Y-134877858D01*
X98092552Y-135063331D01*
X98159178Y-135207564D01*
X98194545Y-135294131D01*
X98201518Y-135337747D01*
X98182962Y-135353130D01*
X98149328Y-135355000D01*
X98096198Y-135320867D01*
X98064858Y-135255000D01*
X98036906Y-135180212D01*
X98012638Y-135155000D01*
X97970008Y-135120299D01*
X97912696Y-135029334D01*
X97851133Y-134901812D01*
X97795749Y-134757437D01*
X97785687Y-134726201D01*
X97756251Y-134597962D01*
X97728917Y-134420939D01*
X97708196Y-134226311D01*
X97703041Y-134155000D01*
X97696880Y-133973964D01*
X97703068Y-133796945D01*
X97723983Y-133609470D01*
X97762000Y-133397066D01*
X97819498Y-133145263D01*
X97898854Y-132839587D01*
X97949418Y-132655000D01*
X98060366Y-132255000D01*
X98005270Y-131715000D01*
X97984653Y-131498235D01*
X97969368Y-131296438D01*
X97959150Y-131095199D01*
X97953736Y-130880105D01*
X97952862Y-130636745D01*
X97956264Y-130350707D01*
X97963678Y-130007579D01*
X97969761Y-129775000D01*
X97975528Y-129503179D01*
X97975516Y-129297992D01*
X97969083Y-129146235D01*
X97955590Y-129034706D01*
X97934397Y-128950202D01*
X97929036Y-128935000D01*
X97882650Y-128730690D01*
X97868713Y-128471877D01*
X97884751Y-128176059D01*
X97928294Y-127860733D01*
X97996867Y-127543399D01*
X98087999Y-127241555D01*
X98199217Y-126972700D01*
X98209143Y-126952673D01*
X98302703Y-126780429D01*
X98425142Y-126574520D01*
X98563708Y-126354551D01*
X98705648Y-126140126D01*
X98838210Y-125950853D01*
X98948641Y-125806336D01*
X98974923Y-125775351D01*
X99059687Y-125653628D01*
X99118371Y-125523243D01*
X99128662Y-125481990D01*
X99134566Y-125370262D01*
X99126193Y-125217134D01*
X99106877Y-125046261D01*
X99079953Y-124881294D01*
X99048755Y-124745888D01*
X99016616Y-124663697D01*
X99012533Y-124658142D01*
X98935217Y-124520163D01*
X98870592Y-124315363D01*
X98819042Y-124055973D01*
X98780954Y-123754224D01*
X98756711Y-123422346D01*
X98746700Y-123072570D01*
X98751305Y-122717126D01*
X98770911Y-122368245D01*
X98805905Y-122038158D01*
X98856670Y-121739095D01*
X98913554Y-121515000D01*
X98973427Y-121349483D01*
X99061294Y-121144340D01*
X99168573Y-120916174D01*
X99286682Y-120681588D01*
X99407040Y-120457184D01*
X99521065Y-120259566D01*
X99620174Y-120105335D01*
X99685475Y-120021614D01*
X99834703Y-119884573D01*
X99997212Y-119772546D01*
X100151229Y-119698570D01*
X100263901Y-119675297D01*
X100385985Y-119707370D01*
G37*
%TO.C,C27*%
X191623733Y-123315000D02*
X191916267Y-123315000D01*
X191623733Y-124335000D02*
X191916267Y-124335000D01*
%TO.C,C21*%
X210822000Y-89616233D02*
X210822000Y-89908767D01*
X209802000Y-89616233D02*
X209802000Y-89908767D01*
%TO.C,J5*%
X68845000Y-97925000D02*
X83945000Y-97925000D01*
X83945000Y-97925000D02*
X83945000Y-97100000D01*
X84595000Y-97700000D02*
X84895000Y-97100000D01*
X85195000Y-97700000D02*
X84595000Y-97700000D01*
X84895000Y-97100000D02*
X85195000Y-97700000D01*
X87070000Y-94900000D02*
X88220000Y-94900000D01*
X87070000Y-94300000D02*
X88220000Y-94300000D01*
X83945000Y-92425000D02*
X83945000Y-91075000D01*
X87070000Y-89200000D02*
X88220000Y-89200000D01*
X68845000Y-88900000D02*
X68845000Y-97925000D01*
X68845000Y-88900000D02*
X68845000Y-79875000D01*
X87070000Y-88600000D02*
X88220000Y-88600000D01*
X83945000Y-86725000D02*
X83945000Y-85375000D01*
X87070000Y-83500000D02*
X88220000Y-83500000D01*
X87070000Y-82900000D02*
X88220000Y-82900000D01*
X68845000Y-79875000D02*
X83945000Y-79875000D01*
X83945000Y-79875000D02*
X83945000Y-80700000D01*
X79195000Y-94600000D02*
G75*
G03*
X79195000Y-94600000I-1600000J0D01*
G01*
X79195000Y-83200000D02*
G75*
G03*
X79195000Y-83200000I-1600000J0D01*
G01*
%TO.C,U2*%
X182880000Y-102596000D02*
X179430000Y-102596000D01*
X182880000Y-102596000D02*
X184830000Y-102596000D01*
X182880000Y-107716000D02*
X180930000Y-107716000D01*
X182880000Y-107716000D02*
X184830000Y-107716000D01*
%TO.C,J12*%
X68902500Y-52902500D02*
X70232500Y-52902500D01*
X68902500Y-54232500D02*
X68902500Y-52902500D01*
X68902500Y-55502500D02*
X68902500Y-73342500D01*
X68902500Y-55502500D02*
X71562500Y-55502500D01*
X68902500Y-73342500D02*
X71562500Y-73342500D01*
X71562500Y-55502500D02*
X71562500Y-73342500D01*
%TO.C,R2*%
X196850724Y-71134500D02*
X196341276Y-71134500D01*
X196850724Y-70089500D02*
X196341276Y-70089500D01*
%TO.C,J7*%
X220145000Y-98706250D02*
X205045000Y-98706250D01*
X205045000Y-98706250D02*
X205045000Y-99531250D01*
X204395000Y-98931250D02*
X204095000Y-99531250D01*
X203795000Y-98931250D02*
X204395000Y-98931250D01*
X204095000Y-99531250D02*
X203795000Y-98931250D01*
X201920000Y-101731250D02*
X200770000Y-101731250D01*
X201920000Y-102331250D02*
X200770000Y-102331250D01*
X205045000Y-104206250D02*
X205045000Y-105556250D01*
X201920000Y-107431250D02*
X200770000Y-107431250D01*
X220145000Y-107731250D02*
X220145000Y-98706250D01*
X220145000Y-107731250D02*
X220145000Y-116756250D01*
X201920000Y-108031250D02*
X200770000Y-108031250D01*
X205045000Y-109906250D02*
X205045000Y-111256250D01*
X201920000Y-113131250D02*
X200770000Y-113131250D01*
X201920000Y-113731250D02*
X200770000Y-113731250D01*
X220145000Y-116756250D02*
X205045000Y-116756250D01*
X205045000Y-116756250D02*
X205045000Y-115931250D01*
X212995000Y-102031250D02*
G75*
G03*
X212995000Y-102031250I-1600000J0D01*
G01*
X212995000Y-113431250D02*
G75*
G03*
X212995000Y-113431250I-1600000J0D01*
G01*
%TO.C,SW4*%
X72335000Y-124405000D02*
X78795000Y-124405000D01*
X72335000Y-124435000D02*
X72335000Y-124405000D01*
X72335000Y-126335000D02*
X72335000Y-128935000D01*
X72335000Y-130865000D02*
X72335000Y-130835000D01*
X72335000Y-130865000D02*
X78795000Y-130865000D01*
X78795000Y-124405000D02*
X78795000Y-124435000D01*
X78795000Y-126335000D02*
X78795000Y-128935000D01*
X78795000Y-130865000D02*
X78795000Y-130835000D01*
%TO.C,D2*%
X108231000Y-72055000D02*
X109701000Y-72055000D01*
X109701000Y-72055000D02*
X109701000Y-69595000D01*
X108231000Y-69595000D02*
X108231000Y-72055000D01*
%TO.C,J4*%
X132645000Y-37477500D02*
X132645000Y-52577500D01*
X132645000Y-52577500D02*
X133470000Y-52577500D01*
X132870000Y-53227500D02*
X133470000Y-53527500D01*
X132870000Y-53827500D02*
X132870000Y-53227500D01*
X133470000Y-53527500D02*
X132870000Y-53827500D01*
X135670000Y-55702500D02*
X135670000Y-56852500D01*
X136270000Y-55702500D02*
X136270000Y-56852500D01*
X138145000Y-52577500D02*
X139495000Y-52577500D01*
X141370000Y-55702500D02*
X141370000Y-56852500D01*
X141670000Y-37477500D02*
X132645000Y-37477500D01*
X141670000Y-37477500D02*
X150695000Y-37477500D01*
X141970000Y-55702500D02*
X141970000Y-56852500D01*
X143845000Y-52577500D02*
X145195000Y-52577500D01*
X147070000Y-55702500D02*
X147070000Y-56852500D01*
X147670000Y-55702500D02*
X147670000Y-56852500D01*
X150695000Y-37477500D02*
X150695000Y-52577500D01*
X150695000Y-52577500D02*
X149870000Y-52577500D01*
X137570000Y-46227500D02*
G75*
G03*
X137570000Y-46227500I-1600000J0D01*
G01*
X148970000Y-46227500D02*
G75*
G03*
X148970000Y-46227500I-1600000J0D01*
G01*
%TO.C,C15*%
X156604983Y-82615000D02*
X156897517Y-82615000D01*
X156604983Y-83635000D02*
X156897517Y-83635000D01*
%TO.C,C20*%
X209234500Y-89616233D02*
X209234500Y-89908767D01*
X208214500Y-89616233D02*
X208214500Y-89908767D01*
%TO.C,C4*%
X143403767Y-84428750D02*
X143111233Y-84428750D01*
X143403767Y-83408750D02*
X143111233Y-83408750D01*
%TO.C,J6*%
X217660000Y-86926250D02*
X215060000Y-86926250D01*
X212750000Y-86166250D02*
X212750000Y-85016250D01*
X212160000Y-85016250D02*
X212160000Y-84316250D01*
X212750000Y-85016250D02*
X212160000Y-85016250D01*
X212750000Y-80916250D02*
X212750000Y-79766250D01*
X215060000Y-79006250D02*
X217660000Y-79006250D01*
%TO.C,R15*%
X106062250Y-74618474D02*
X106062250Y-74109026D01*
X107107250Y-74618474D02*
X107107250Y-74109026D01*
%TO.C,J14*%
X112895000Y-37605000D02*
X112895000Y-52705000D01*
X112895000Y-52705000D02*
X113720000Y-52705000D01*
X113120000Y-53355000D02*
X113720000Y-53655000D01*
X113120000Y-53955000D02*
X113120000Y-53355000D01*
X113720000Y-53655000D02*
X113120000Y-53955000D01*
X115920000Y-55830000D02*
X115920000Y-56980000D01*
X116520000Y-55830000D02*
X116520000Y-56980000D01*
X118395000Y-52705000D02*
X119745000Y-52705000D01*
X121620000Y-55830000D02*
X121620000Y-56980000D01*
X121920000Y-37605000D02*
X112895000Y-37605000D01*
X121920000Y-37605000D02*
X130945000Y-37605000D01*
X122220000Y-55830000D02*
X122220000Y-56980000D01*
X124095000Y-52705000D02*
X125445000Y-52705000D01*
X127320000Y-55830000D02*
X127320000Y-56980000D01*
X127920000Y-55830000D02*
X127920000Y-56980000D01*
X130945000Y-37605000D02*
X130945000Y-52705000D01*
X130945000Y-52705000D02*
X130120000Y-52705000D01*
X117820000Y-46355000D02*
G75*
G03*
X117820000Y-46355000I-1600000J0D01*
G01*
X129220000Y-46355000D02*
G75*
G03*
X129220000Y-46355000I-1600000J0D01*
G01*
%TO.C,C16*%
X150254983Y-82615000D02*
X150547517Y-82615000D01*
X150254983Y-83635000D02*
X150547517Y-83635000D01*
%TO.C,C18*%
X136623750Y-107584983D02*
X136623750Y-107877517D01*
X135603750Y-107584983D02*
X135603750Y-107877517D01*
%TO.C,C11*%
X161660017Y-114591250D02*
X161367483Y-114591250D01*
X161660017Y-113571250D02*
X161367483Y-113571250D01*
%TO.C,D1*%
X133997500Y-82440000D02*
X133997500Y-83910000D01*
X133997500Y-83910000D02*
X136457500Y-83910000D01*
X136457500Y-82440000D02*
X133997500Y-82440000D01*
%TO.C,C17*%
X138211250Y-107584983D02*
X138211250Y-107877517D01*
X137191250Y-107584983D02*
X137191250Y-107877517D01*
%TO.C,J13*%
X104060000Y-39996250D02*
X104060000Y-42596250D01*
X96140000Y-42596250D02*
X96140000Y-39996250D01*
%TO.C,U3*%
X160541250Y-78362500D02*
X160541250Y-81812500D01*
X160541250Y-78362500D02*
X160541250Y-76412500D01*
X165661250Y-78362500D02*
X165661250Y-80312500D01*
X165661250Y-78362500D02*
X165661250Y-76412500D01*
%TO.C,C30*%
X160166267Y-111635000D02*
X159873733Y-111635000D01*
X160166267Y-110615000D02*
X159873733Y-110615000D01*
%TO.C,C19*%
X206611233Y-66740000D02*
X206903767Y-66740000D01*
X206611233Y-67760000D02*
X206903767Y-67760000D01*
%TO.C,R13*%
X104726000Y-71727776D02*
X104726000Y-72237224D01*
X103681000Y-71727776D02*
X103681000Y-72237224D01*
%TO.C,R11*%
X163355974Y-72535000D02*
X162846526Y-72535000D01*
X163355974Y-71490000D02*
X162846526Y-71490000D01*
%TO.C,J11*%
X152330000Y-37511250D02*
X152330000Y-52611250D01*
X152330000Y-52611250D02*
X153155000Y-52611250D01*
X152555000Y-53261250D02*
X153155000Y-53561250D01*
X152555000Y-53861250D02*
X152555000Y-53261250D01*
X153155000Y-53561250D02*
X152555000Y-53861250D01*
X155355000Y-55736250D02*
X155355000Y-56886250D01*
X155955000Y-55736250D02*
X155955000Y-56886250D01*
X157830000Y-52611250D02*
X159180000Y-52611250D01*
X161055000Y-55736250D02*
X161055000Y-56886250D01*
X161355000Y-37511250D02*
X152330000Y-37511250D01*
X161355000Y-37511250D02*
X170380000Y-37511250D01*
X161655000Y-55736250D02*
X161655000Y-56886250D01*
X163530000Y-52611250D02*
X164880000Y-52611250D01*
X166755000Y-55736250D02*
X166755000Y-56886250D01*
X167355000Y-55736250D02*
X167355000Y-56886250D01*
X170380000Y-37511250D02*
X170380000Y-52611250D01*
X170380000Y-52611250D02*
X169555000Y-52611250D01*
X157255000Y-46261250D02*
G75*
G03*
X157255000Y-46261250I-1600000J0D01*
G01*
X168655000Y-46261250D02*
G75*
G03*
X168655000Y-46261250I-1600000J0D01*
G01*
%TD*%
M02*
