%TF.GenerationSoftware,KiCad,Pcbnew,7.0.7*%
%TF.CreationDate,2024-01-19T22:18:06-06:00*%
%TF.ProjectId,stm32f429z,73746d33-3266-4343-9239-7a2e6b696361,rev?*%
%TF.SameCoordinates,Original*%
%TF.FileFunction,Paste,Top*%
%TF.FilePolarity,Positive*%
%FSLAX46Y46*%
G04 Gerber Fmt 4.6, Leading zero omitted, Abs format (unit mm)*
G04 Created by KiCad (PCBNEW 7.0.7) date 2024-01-19 22:18:06*
%MOMM*%
%LPD*%
G01*
G04 APERTURE LIST*
G04 Aperture macros list*
%AMRoundRect*
0 Rectangle with rounded corners*
0 $1 Rounding radius*
0 $2 $3 $4 $5 $6 $7 $8 $9 X,Y pos of 4 corners*
0 Add a 4 corners polygon primitive as box body*
4,1,4,$2,$3,$4,$5,$6,$7,$8,$9,$2,$3,0*
0 Add four circle primitives for the rounded corners*
1,1,$1+$1,$2,$3*
1,1,$1+$1,$4,$5*
1,1,$1+$1,$6,$7*
1,1,$1+$1,$8,$9*
0 Add four rect primitives between the rounded corners*
20,1,$1+$1,$2,$3,$4,$5,0*
20,1,$1+$1,$4,$5,$6,$7,0*
20,1,$1+$1,$6,$7,$8,$9,0*
20,1,$1+$1,$8,$9,$2,$3,0*%
G04 Aperture macros list end*
%ADD10R,2.000000X1.500000*%
%ADD11R,2.000000X3.800000*%
%ADD12RoundRect,0.237500X-0.237500X0.250000X-0.237500X-0.250000X0.237500X-0.250000X0.237500X0.250000X0*%
%ADD13RoundRect,0.237500X0.237500X-0.250000X0.237500X0.250000X-0.237500X0.250000X-0.237500X-0.250000X0*%
%ADD14RoundRect,0.237500X0.300000X0.237500X-0.300000X0.237500X-0.300000X-0.237500X0.300000X-0.237500X0*%
%ADD15RoundRect,0.237500X-0.287500X-0.237500X0.287500X-0.237500X0.287500X0.237500X-0.287500X0.237500X0*%
%ADD16RoundRect,0.237500X-0.237500X0.300000X-0.237500X-0.300000X0.237500X-0.300000X0.237500X0.300000X0*%
%ADD17RoundRect,0.237500X0.237500X-0.287500X0.237500X0.287500X-0.237500X0.287500X-0.237500X-0.287500X0*%
%ADD18R,1.250000X2.500000*%
%ADD19R,1.550000X1.300000*%
%ADD20RoundRect,0.237500X-0.300000X-0.237500X0.300000X-0.237500X0.300000X0.237500X-0.300000X0.237500X0*%
%ADD21RoundRect,0.237500X0.237500X-0.300000X0.237500X0.300000X-0.237500X0.300000X-0.237500X-0.300000X0*%
%ADD22RoundRect,0.237500X0.250000X0.237500X-0.250000X0.237500X-0.250000X-0.237500X0.250000X-0.237500X0*%
%ADD23RoundRect,0.075000X-0.662500X-0.075000X0.662500X-0.075000X0.662500X0.075000X-0.662500X0.075000X0*%
%ADD24RoundRect,0.075000X-0.075000X-0.662500X0.075000X-0.662500X0.075000X0.662500X-0.075000X0.662500X0*%
%ADD25RoundRect,0.237500X-0.250000X-0.237500X0.250000X-0.237500X0.250000X0.237500X-0.250000X0.237500X0*%
%ADD26R,1.800000X2.100000*%
%ADD27RoundRect,0.150000X0.150000X-0.875000X0.150000X0.875000X-0.150000X0.875000X-0.150000X-0.875000X0*%
%ADD28R,2.100000X1.800000*%
%ADD29RoundRect,0.150000X-0.825000X-0.150000X0.825000X-0.150000X0.825000X0.150000X-0.825000X0.150000X0*%
%ADD30R,2.500000X0.500000*%
%ADD31R,2.500000X2.000000*%
%ADD32R,0.500000X2.500000*%
%ADD33R,2.000000X2.500000*%
%ADD34RoundRect,0.150000X0.150000X-0.825000X0.150000X0.825000X-0.150000X0.825000X-0.150000X-0.825000X0*%
G04 APERTURE END LIST*
D10*
%TO.C,U6*%
X187707500Y-126068750D03*
X187707500Y-128368750D03*
D11*
X194007500Y-128368750D03*
D10*
X187707500Y-130668750D03*
%TD*%
D12*
%TO.C,R5*%
X192024000Y-57507500D03*
X192024000Y-59332500D03*
%TD*%
D13*
%TO.C,R14*%
X108966000Y-75276250D03*
X108966000Y-73451250D03*
%TD*%
D14*
%TO.C,C29*%
X174852500Y-88900000D03*
X173127500Y-88900000D03*
%TD*%
D15*
%TO.C,D5*%
X182640000Y-133350000D03*
X184390000Y-133350000D03*
%TD*%
D16*
%TO.C,C2*%
X124460000Y-98832500D03*
X124460000Y-100557500D03*
%TD*%
D15*
%TO.C,D4*%
X187085000Y-121920000D03*
X188835000Y-121920000D03*
%TD*%
D17*
%TO.C,D3*%
X106584750Y-71270000D03*
X106584750Y-69520000D03*
%TD*%
D18*
%TO.C,SW1*%
X202398000Y-41688200D03*
X199898000Y-41688200D03*
X197398000Y-41688200D03*
%TD*%
D16*
%TO.C,C12*%
X169451250Y-100518750D03*
X169451250Y-102243750D03*
%TD*%
D13*
%TO.C,R7*%
X131351250Y-75306250D03*
X131351250Y-73481250D03*
%TD*%
D12*
%TO.C,R3*%
X192024000Y-65127500D03*
X192024000Y-66952500D03*
%TD*%
D19*
%TO.C,SW2*%
X127360000Y-144851250D03*
X135320000Y-144851250D03*
X127360000Y-149351250D03*
X135320000Y-149351250D03*
%TD*%
D13*
%TO.C,R10*%
X190500000Y-106576500D03*
X190500000Y-104751500D03*
%TD*%
D12*
%TO.C,R4*%
X194310000Y-57507500D03*
X194310000Y-59332500D03*
%TD*%
D14*
%TO.C,C3*%
X138657500Y-96520000D03*
X136932500Y-96520000D03*
%TD*%
D20*
%TO.C,C1*%
X126772500Y-104140000D03*
X128497500Y-104140000D03*
%TD*%
D13*
%TO.C,R6*%
X119445000Y-75306250D03*
X119445000Y-73481250D03*
%TD*%
D16*
%TO.C,C14*%
X169451250Y-87818750D03*
X169451250Y-89543750D03*
%TD*%
D21*
%TO.C,C22*%
X124968000Y-148182500D03*
X124968000Y-146457500D03*
%TD*%
%TO.C,C28*%
X86360000Y-128725000D03*
X86360000Y-127000000D03*
%TD*%
D22*
%TO.C,R17*%
X136525000Y-85725000D03*
X134700000Y-85725000D03*
%TD*%
D23*
%TO.C,U1*%
X143007500Y-89675000D03*
X143007500Y-90175000D03*
X143007500Y-90675000D03*
X143007500Y-91175000D03*
X143007500Y-91675000D03*
X143007500Y-92175000D03*
X143007500Y-92675000D03*
X143007500Y-93175000D03*
X143007500Y-93675000D03*
X143007500Y-94175000D03*
X143007500Y-94675000D03*
X143007500Y-95175000D03*
X143007500Y-95675000D03*
X143007500Y-96175000D03*
X143007500Y-96675000D03*
X143007500Y-97175000D03*
X143007500Y-97675000D03*
X143007500Y-98175000D03*
X143007500Y-98675000D03*
X143007500Y-99175000D03*
X143007500Y-99675000D03*
X143007500Y-100175000D03*
X143007500Y-100675000D03*
X143007500Y-101175000D03*
X143007500Y-101675000D03*
X143007500Y-102175000D03*
X143007500Y-102675000D03*
X143007500Y-103175000D03*
X143007500Y-103675000D03*
X143007500Y-104175000D03*
X143007500Y-104675000D03*
X143007500Y-105175000D03*
X143007500Y-105675000D03*
X143007500Y-106175000D03*
X143007500Y-106675000D03*
X143007500Y-107175000D03*
D24*
X144920000Y-109087500D03*
X145420000Y-109087500D03*
X145920000Y-109087500D03*
X146420000Y-109087500D03*
X146920000Y-109087500D03*
X147420000Y-109087500D03*
X147920000Y-109087500D03*
X148420000Y-109087500D03*
X148920000Y-109087500D03*
X149420000Y-109087500D03*
X149920000Y-109087500D03*
X150420000Y-109087500D03*
X150920000Y-109087500D03*
X151420000Y-109087500D03*
X151920000Y-109087500D03*
X152420000Y-109087500D03*
X152920000Y-109087500D03*
X153420000Y-109087500D03*
X153920000Y-109087500D03*
X154420000Y-109087500D03*
X154920000Y-109087500D03*
X155420000Y-109087500D03*
X155920000Y-109087500D03*
X156420000Y-109087500D03*
X156920000Y-109087500D03*
X157420000Y-109087500D03*
X157920000Y-109087500D03*
X158420000Y-109087500D03*
X158920000Y-109087500D03*
X159420000Y-109087500D03*
X159920000Y-109087500D03*
X160420000Y-109087500D03*
X160920000Y-109087500D03*
X161420000Y-109087500D03*
X161920000Y-109087500D03*
X162420000Y-109087500D03*
D23*
X164332500Y-107175000D03*
X164332500Y-106675000D03*
X164332500Y-106175000D03*
X164332500Y-105675000D03*
X164332500Y-105175000D03*
X164332500Y-104675000D03*
X164332500Y-104175000D03*
X164332500Y-103675000D03*
X164332500Y-103175000D03*
X164332500Y-102675000D03*
X164332500Y-102175000D03*
X164332500Y-101675000D03*
X164332500Y-101175000D03*
X164332500Y-100675000D03*
X164332500Y-100175000D03*
X164332500Y-99675000D03*
X164332500Y-99175000D03*
X164332500Y-98675000D03*
X164332500Y-98175000D03*
X164332500Y-97675000D03*
X164332500Y-97175000D03*
X164332500Y-96675000D03*
X164332500Y-96175000D03*
X164332500Y-95675000D03*
X164332500Y-95175000D03*
X164332500Y-94675000D03*
X164332500Y-94175000D03*
X164332500Y-93675000D03*
X164332500Y-93175000D03*
X164332500Y-92675000D03*
X164332500Y-92175000D03*
X164332500Y-91675000D03*
X164332500Y-91175000D03*
X164332500Y-90675000D03*
X164332500Y-90175000D03*
X164332500Y-89675000D03*
D24*
X162420000Y-87762500D03*
X161920000Y-87762500D03*
X161420000Y-87762500D03*
X160920000Y-87762500D03*
X160420000Y-87762500D03*
X159920000Y-87762500D03*
X159420000Y-87762500D03*
X158920000Y-87762500D03*
X158420000Y-87762500D03*
X157920000Y-87762500D03*
X157420000Y-87762500D03*
X156920000Y-87762500D03*
X156420000Y-87762500D03*
X155920000Y-87762500D03*
X155420000Y-87762500D03*
X154920000Y-87762500D03*
X154420000Y-87762500D03*
X153920000Y-87762500D03*
X153420000Y-87762500D03*
X152920000Y-87762500D03*
X152420000Y-87762500D03*
X151920000Y-87762500D03*
X151420000Y-87762500D03*
X150920000Y-87762500D03*
X150420000Y-87762500D03*
X149920000Y-87762500D03*
X149420000Y-87762500D03*
X148920000Y-87762500D03*
X148420000Y-87762500D03*
X147920000Y-87762500D03*
X147420000Y-87762500D03*
X146920000Y-87762500D03*
X146420000Y-87762500D03*
X145920000Y-87762500D03*
X145420000Y-87762500D03*
X144920000Y-87762500D03*
%TD*%
D14*
%TO.C,C10*%
X157613750Y-114081250D03*
X155888750Y-114081250D03*
%TD*%
D25*
%TO.C,R16*%
X187047500Y-123825000D03*
X188872500Y-123825000D03*
%TD*%
D12*
%TO.C,R8*%
X98782500Y-92432500D03*
X98782500Y-94257500D03*
%TD*%
D26*
%TO.C,Y1*%
X100591000Y-73432500D03*
X100591000Y-70532500D03*
X98291000Y-70532500D03*
X98291000Y-73432500D03*
%TD*%
D17*
%TO.C,D6*%
X108585000Y-47611000D03*
X108585000Y-45861000D03*
%TD*%
D14*
%TO.C,C8*%
X145007500Y-114081250D03*
X143282500Y-114081250D03*
%TD*%
%TO.C,C9*%
X152851250Y-114081250D03*
X151126250Y-114081250D03*
%TD*%
D21*
%TO.C,C25*%
X102616000Y-72845000D03*
X102616000Y-71120000D03*
%TD*%
D14*
%TO.C,C7*%
X137770000Y-91856250D03*
X136045000Y-91856250D03*
%TD*%
D21*
%TO.C,C26*%
X182945000Y-130818750D03*
X182945000Y-129093750D03*
%TD*%
%TO.C,C23*%
X96520000Y-59790500D03*
X96520000Y-58065500D03*
%TD*%
D22*
%TO.C,R1*%
X134008500Y-102235000D03*
X132183500Y-102235000D03*
%TD*%
D14*
%TO.C,C5*%
X144120000Y-82331250D03*
X142395000Y-82331250D03*
%TD*%
D27*
%TO.C,U5*%
X98933000Y-63070000D03*
X100203000Y-63070000D03*
X101473000Y-63070000D03*
X102743000Y-63070000D03*
X104013000Y-63070000D03*
X105283000Y-63070000D03*
X106553000Y-63070000D03*
X107823000Y-63070000D03*
X109093000Y-63070000D03*
X110363000Y-63070000D03*
X110363000Y-53770000D03*
X109093000Y-53770000D03*
X107823000Y-53770000D03*
X106553000Y-53770000D03*
X105283000Y-53770000D03*
X104013000Y-53770000D03*
X102743000Y-53770000D03*
X101473000Y-53770000D03*
X100203000Y-53770000D03*
X98933000Y-53770000D03*
%TD*%
D16*
%TO.C,C13*%
X169451250Y-95756250D03*
X169451250Y-97481250D03*
%TD*%
D12*
%TO.C,R9*%
X98782500Y-82272500D03*
X98782500Y-84097500D03*
%TD*%
D28*
%TO.C,X1*%
X126885000Y-101578750D03*
X129785000Y-101578750D03*
X129785000Y-99278750D03*
X126885000Y-99278750D03*
%TD*%
D16*
%TO.C,C24*%
X96266000Y-71120000D03*
X96266000Y-72845000D03*
%TD*%
D12*
%TO.C,R12*%
X105410000Y-114022500D03*
X105410000Y-115847500D03*
%TD*%
D14*
%TO.C,C6*%
X137838750Y-102968750D03*
X136113750Y-102968750D03*
%TD*%
D20*
%TO.C,C27*%
X190907500Y-123825000D03*
X192632500Y-123825000D03*
%TD*%
D16*
%TO.C,C21*%
X210312000Y-88900000D03*
X210312000Y-90625000D03*
%TD*%
D29*
%TO.C,U2*%
X180405000Y-103251000D03*
X180405000Y-104521000D03*
X180405000Y-105791000D03*
X180405000Y-107061000D03*
X185355000Y-107061000D03*
X185355000Y-105791000D03*
X185355000Y-104521000D03*
X185355000Y-103251000D03*
%TD*%
D22*
%TO.C,R2*%
X197508500Y-70612000D03*
X195683500Y-70612000D03*
%TD*%
D19*
%TO.C,SW4*%
X71585000Y-125385000D03*
X79545000Y-125385000D03*
X71585000Y-129885000D03*
X79545000Y-129885000D03*
%TD*%
D17*
%TO.C,D2*%
X108966000Y-71270000D03*
X108966000Y-69520000D03*
%TD*%
D20*
%TO.C,C15*%
X155888750Y-83125000D03*
X157613750Y-83125000D03*
%TD*%
D16*
%TO.C,C20*%
X208724500Y-88900000D03*
X208724500Y-90625000D03*
%TD*%
D14*
%TO.C,C4*%
X144120000Y-83918750D03*
X142395000Y-83918750D03*
%TD*%
D30*
%TO.C,J6*%
X213610000Y-84566250D03*
X213610000Y-83766250D03*
X213610000Y-82966250D03*
X213610000Y-82166250D03*
X213610000Y-81366250D03*
D31*
X213610000Y-87366250D03*
X219110000Y-87366250D03*
X213610000Y-78566250D03*
X219110000Y-78566250D03*
%TD*%
D13*
%TO.C,R15*%
X106584750Y-75276250D03*
X106584750Y-73451250D03*
%TD*%
D20*
%TO.C,C16*%
X149538750Y-83125000D03*
X151263750Y-83125000D03*
%TD*%
D16*
%TO.C,C18*%
X136113750Y-106868750D03*
X136113750Y-108593750D03*
%TD*%
D14*
%TO.C,C11*%
X162376250Y-114081250D03*
X160651250Y-114081250D03*
%TD*%
D15*
%TO.C,D1*%
X134782500Y-83175000D03*
X136532500Y-83175000D03*
%TD*%
D16*
%TO.C,C17*%
X137701250Y-106868750D03*
X137701250Y-108593750D03*
%TD*%
D32*
%TO.C,J13*%
X101700000Y-44046250D03*
X100900000Y-44046250D03*
X100100000Y-44046250D03*
X99300000Y-44046250D03*
X98500000Y-44046250D03*
D33*
X104500000Y-44046250D03*
X104500000Y-38546250D03*
X95700000Y-44046250D03*
X95700000Y-38546250D03*
%TD*%
D34*
%TO.C,U3*%
X161196250Y-80837500D03*
X162466250Y-80837500D03*
X163736250Y-80837500D03*
X165006250Y-80837500D03*
X165006250Y-75887500D03*
X163736250Y-75887500D03*
X162466250Y-75887500D03*
X161196250Y-75887500D03*
%TD*%
D14*
%TO.C,C30*%
X160882500Y-111125000D03*
X159157500Y-111125000D03*
%TD*%
D20*
%TO.C,C19*%
X205895000Y-67250000D03*
X207620000Y-67250000D03*
%TD*%
D12*
%TO.C,R13*%
X104203500Y-71070000D03*
X104203500Y-72895000D03*
%TD*%
D22*
%TO.C,R11*%
X164013750Y-72012500D03*
X162188750Y-72012500D03*
%TD*%
M02*
